%TF.GenerationSoftware,KiCad,Pcbnew,8.0.4*%
%TF.CreationDate,2025-01-08T21:09:23+00:00*%
%TF.ProjectId,esp32-c,65737033-322d-4632-9e6b-696361645f70,rev?*%
%TF.SameCoordinates,Original*%
%TF.FileFunction,Profile,NP*%
%FSLAX46Y46*%
G04 Gerber Fmt 4.6, Leading zero omitted, Abs format (unit mm)*
G04 Created by KiCad (PCBNEW 8.0.4) date 2025-01-08 21:09:23*
%MOMM*%
%LPD*%
G01*
G04 APERTURE LIST*
%TA.AperFunction,Profile*%
%ADD10C,0.050000*%
%TD*%
G04 APERTURE END LIST*
D10*
X172919477Y-125949682D02*
X170919477Y-127949682D01*
X104419477Y-81449682D02*
X109419477Y-81449682D01*
X140000000Y-121949682D02*
X119000000Y-121949682D01*
X149419477Y-82949682D02*
X149419477Y-70949682D01*
X171919477Y-86949682D02*
X172919477Y-86949682D01*
X170919477Y-131949682D02*
X169419477Y-134949682D01*
X127419477Y-82949682D02*
X149419477Y-82949682D01*
X140000000Y-108000000D02*
X140000000Y-121949682D01*
X107419477Y-127949682D02*
X104919477Y-127949682D01*
X172919477Y-86949682D02*
X172919477Y-125949682D01*
X119000000Y-108000000D02*
X140000000Y-108000000D01*
X170954463Y-74449682D02*
G75*
G02*
X166711823Y-74449682I-2121320J0D01*
G01*
X166711823Y-74449682D02*
G75*
G02*
X170954463Y-74449682I2121320J0D01*
G01*
X149419477Y-70949682D02*
X171919477Y-70949682D01*
X171919477Y-70949682D02*
X171919477Y-86949682D01*
X114135919Y-73449682D02*
G75*
G02*
X110530367Y-73449682I-1802776J0D01*
G01*
X110530367Y-73449682D02*
G75*
G02*
X114135919Y-73449682I1802776J0D01*
G01*
X102419477Y-123449682D02*
X104419477Y-120449682D01*
X119000000Y-121949682D02*
X119000000Y-108000000D01*
X127419477Y-77449682D02*
X127419477Y-82949682D01*
X169419477Y-134949682D02*
X107419477Y-134949682D01*
X109419477Y-70949682D02*
X116419477Y-70949682D01*
X170919477Y-127949682D02*
X170919477Y-131949682D01*
X102919477Y-126949682D02*
X102419477Y-123449682D01*
X106914282Y-124949682D02*
G75*
G02*
X103752004Y-124949682I-1581139J0D01*
G01*
X103752004Y-124949682D02*
G75*
G02*
X106914282Y-124949682I1581139J0D01*
G01*
X109419477Y-81449682D02*
X109419477Y-70949682D01*
X104919477Y-127949682D02*
X102919477Y-126949682D01*
X165914282Y-132449682D02*
G75*
G02*
X162752004Y-132449682I-1581139J0D01*
G01*
X162752004Y-132449682D02*
G75*
G02*
X165914282Y-132449682I1581139J0D01*
G01*
X104419477Y-120449682D02*
X104419477Y-81449682D01*
X116419477Y-77449682D02*
X127419477Y-77449682D01*
X107419477Y-134949682D02*
X107419477Y-127949682D01*
X116419477Y-70949682D02*
X116419477Y-77449682D01*
M02*
