%TF.GenerationSoftware,KiCad,Pcbnew,8.0.4*%
%TF.CreationDate,2024-10-20T21:45:33+01:00*%
%TF.ProjectId,esp32-c,65737033-322d-4632-9e6b-696361645f70,rev?*%
%TF.SameCoordinates,Original*%
%TF.FileFunction,Legend,Top*%
%TF.FilePolarity,Positive*%
%FSLAX46Y46*%
G04 Gerber Fmt 4.6, Leading zero omitted, Abs format (unit mm)*
G04 Created by KiCad (PCBNEW 8.0.4) date 2024-10-20 21:45:33*
%MOMM*%
%LPD*%
G01*
G04 APERTURE LIST*
%ADD10C,0.100000*%
%ADD11C,0.150000*%
%ADD12C,0.254000*%
%ADD13C,0.059995*%
%ADD14C,0.254001*%
%ADD15C,0.200000*%
%ADD16C,0.300000*%
%ADD17C,0.151994*%
%ADD18C,0.152400*%
%ADD19C,0.120000*%
%ADD20R,0.600000X0.800000*%
%ADD21R,0.250013X0.800000*%
%ADD22R,0.800000X0.400000*%
%ADD23R,0.800000X0.300000*%
%ADD24R,0.400000X0.800000*%
%ADD25R,0.300000X0.800000*%
%ADD26R,0.800000X0.280010*%
%ADD27R,0.280010X0.800000*%
%ADD28R,2.700000X2.700000*%
%ADD29R,0.750013X1.000000*%
%ADD30R,1.410008X1.350013*%
%ADD31R,0.800000X0.450013*%
%ADD32R,1.000000X1.700000*%
%ADD33C,1.000000*%
%ADD34R,2.000000X2.000000*%
%ADD35R,1.000000X0.750013*%
%ADD36O,1.745009X0.559995*%
%ADD37R,1.250013X0.700000*%
%ADD38R,1.132537X1.377013*%
%ADD39R,2.500000X2.500000*%
%ADD40R,2.100000X0.950013*%
%ADD41R,0.950013X2.100000*%
%ADD42R,0.900000X0.900000*%
%ADD43R,0.400000X1.600000*%
%ADD44C,1.300000*%
%ADD45O,1.300000X1.800000*%
%ADD46R,0.565659X0.540005*%
%ADD47R,1.377013X1.132537*%
%ADD48O,2.231013X0.602007*%
%ADD49R,1.399543X1.000000*%
%ADD50R,2.500000X1.100000*%
%ADD51R,2.340005X3.600000*%
G04 APERTURE END LIST*
D10*
X112803884Y-77872419D02*
X112803884Y-76872419D01*
X112803884Y-76872419D02*
X113184836Y-76872419D01*
X113184836Y-76872419D02*
X113280074Y-76920038D01*
X113280074Y-76920038D02*
X113327693Y-76967657D01*
X113327693Y-76967657D02*
X113375312Y-77062895D01*
X113375312Y-77062895D02*
X113375312Y-77205752D01*
X113375312Y-77205752D02*
X113327693Y-77300990D01*
X113327693Y-77300990D02*
X113280074Y-77348609D01*
X113280074Y-77348609D02*
X113184836Y-77396228D01*
X113184836Y-77396228D02*
X112803884Y-77396228D01*
X113708646Y-76872419D02*
X113946741Y-77872419D01*
X113946741Y-77872419D02*
X114137217Y-77158133D01*
X114137217Y-77158133D02*
X114327693Y-77872419D01*
X114327693Y-77872419D02*
X114565789Y-76872419D01*
X115518169Y-77872419D02*
X115184836Y-77396228D01*
X114946741Y-77872419D02*
X114946741Y-76872419D01*
X114946741Y-76872419D02*
X115327693Y-76872419D01*
X115327693Y-76872419D02*
X115422931Y-76920038D01*
X115422931Y-76920038D02*
X115470550Y-76967657D01*
X115470550Y-76967657D02*
X115518169Y-77062895D01*
X115518169Y-77062895D02*
X115518169Y-77205752D01*
X115518169Y-77205752D02*
X115470550Y-77300990D01*
X115470550Y-77300990D02*
X115422931Y-77348609D01*
X115422931Y-77348609D02*
X115327693Y-77396228D01*
X115327693Y-77396228D02*
X114946741Y-77396228D01*
X123920038Y-105672306D02*
X123872419Y-105767544D01*
X123872419Y-105767544D02*
X123872419Y-105910401D01*
X123872419Y-105910401D02*
X123920038Y-106053258D01*
X123920038Y-106053258D02*
X124015276Y-106148496D01*
X124015276Y-106148496D02*
X124110514Y-106196115D01*
X124110514Y-106196115D02*
X124300990Y-106243734D01*
X124300990Y-106243734D02*
X124443847Y-106243734D01*
X124443847Y-106243734D02*
X124634323Y-106196115D01*
X124634323Y-106196115D02*
X124729561Y-106148496D01*
X124729561Y-106148496D02*
X124824800Y-106053258D01*
X124824800Y-106053258D02*
X124872419Y-105910401D01*
X124872419Y-105910401D02*
X124872419Y-105815163D01*
X124872419Y-105815163D02*
X124824800Y-105672306D01*
X124824800Y-105672306D02*
X124777180Y-105624687D01*
X124777180Y-105624687D02*
X124443847Y-105624687D01*
X124443847Y-105624687D02*
X124443847Y-105815163D01*
X124872419Y-105196115D02*
X123872419Y-105196115D01*
X123872419Y-105196115D02*
X124872419Y-104624687D01*
X124872419Y-104624687D02*
X123872419Y-104624687D01*
X124872419Y-104148496D02*
X123872419Y-104148496D01*
X123872419Y-104148496D02*
X123872419Y-103910401D01*
X123872419Y-103910401D02*
X123920038Y-103767544D01*
X123920038Y-103767544D02*
X124015276Y-103672306D01*
X124015276Y-103672306D02*
X124110514Y-103624687D01*
X124110514Y-103624687D02*
X124300990Y-103577068D01*
X124300990Y-103577068D02*
X124443847Y-103577068D01*
X124443847Y-103577068D02*
X124634323Y-103624687D01*
X124634323Y-103624687D02*
X124729561Y-103672306D01*
X124729561Y-103672306D02*
X124824800Y-103767544D01*
X124824800Y-103767544D02*
X124872419Y-103910401D01*
X124872419Y-103910401D02*
X124872419Y-104148496D01*
X141500000Y-124500000D02*
G75*
G02*
X140500000Y-124500000I-500000J0D01*
G01*
X140500000Y-124500000D02*
G75*
G02*
X141500000Y-124500000I500000J0D01*
G01*
X142500000Y-116000000D02*
G75*
G02*
X141500000Y-116000000I-500000J0D01*
G01*
X141500000Y-116000000D02*
G75*
G02*
X142500000Y-116000000I500000J0D01*
G01*
X142500000Y-107000000D02*
G75*
G02*
X141500000Y-107000000I-500000J0D01*
G01*
X141500000Y-107000000D02*
G75*
G02*
X142500000Y-107000000I500000J0D01*
G01*
X118500000Y-117500000D02*
G75*
G02*
X117500000Y-117500000I-500000J0D01*
G01*
X117500000Y-117500000D02*
G75*
G02*
X118500000Y-117500000I500000J0D01*
G01*
X128000000Y-124000000D02*
G75*
G02*
X127000000Y-124000000I-500000J0D01*
G01*
X127000000Y-124000000D02*
G75*
G02*
X128000000Y-124000000I500000J0D01*
G01*
X152303884Y-107872419D02*
X152303884Y-106872419D01*
X152303884Y-106872419D02*
X152684836Y-106872419D01*
X152684836Y-106872419D02*
X152780074Y-106920038D01*
X152780074Y-106920038D02*
X152827693Y-106967657D01*
X152827693Y-106967657D02*
X152875312Y-107062895D01*
X152875312Y-107062895D02*
X152875312Y-107205752D01*
X152875312Y-107205752D02*
X152827693Y-107300990D01*
X152827693Y-107300990D02*
X152780074Y-107348609D01*
X152780074Y-107348609D02*
X152684836Y-107396228D01*
X152684836Y-107396228D02*
X152303884Y-107396228D01*
X153494360Y-107396228D02*
X153494360Y-107872419D01*
X153161027Y-106872419D02*
X153494360Y-107396228D01*
X153494360Y-107396228D02*
X153827693Y-106872419D01*
X116372419Y-117219925D02*
X116372419Y-117696115D01*
X116372419Y-117696115D02*
X115372419Y-117696115D01*
X151527233Y-82405767D02*
X150860566Y-82405767D01*
X150955804Y-82405767D02*
X150908185Y-82358148D01*
X150908185Y-82358148D02*
X150860566Y-82262910D01*
X150860566Y-82262910D02*
X150860566Y-82120053D01*
X150860566Y-82120053D02*
X150908185Y-82024815D01*
X150908185Y-82024815D02*
X151003423Y-81977196D01*
X151003423Y-81977196D02*
X151527233Y-81977196D01*
X151003423Y-81977196D02*
X150908185Y-81929577D01*
X150908185Y-81929577D02*
X150860566Y-81834339D01*
X150860566Y-81834339D02*
X150860566Y-81691482D01*
X150860566Y-81691482D02*
X150908185Y-81596243D01*
X150908185Y-81596243D02*
X151003423Y-81548624D01*
X151003423Y-81548624D02*
X151527233Y-81548624D01*
X151527233Y-80929577D02*
X151479614Y-81024815D01*
X151479614Y-81024815D02*
X151431994Y-81072434D01*
X151431994Y-81072434D02*
X151336756Y-81120053D01*
X151336756Y-81120053D02*
X151051042Y-81120053D01*
X151051042Y-81120053D02*
X150955804Y-81072434D01*
X150955804Y-81072434D02*
X150908185Y-81024815D01*
X150908185Y-81024815D02*
X150860566Y-80929577D01*
X150860566Y-80929577D02*
X150860566Y-80786720D01*
X150860566Y-80786720D02*
X150908185Y-80691482D01*
X150908185Y-80691482D02*
X150955804Y-80643863D01*
X150955804Y-80643863D02*
X151051042Y-80596244D01*
X151051042Y-80596244D02*
X151336756Y-80596244D01*
X151336756Y-80596244D02*
X151431994Y-80643863D01*
X151431994Y-80643863D02*
X151479614Y-80691482D01*
X151479614Y-80691482D02*
X151527233Y-80786720D01*
X151527233Y-80786720D02*
X151527233Y-80929577D01*
X151527233Y-79739101D02*
X150527233Y-79739101D01*
X151479614Y-79739101D02*
X151527233Y-79834339D01*
X151527233Y-79834339D02*
X151527233Y-80024815D01*
X151527233Y-80024815D02*
X151479614Y-80120053D01*
X151479614Y-80120053D02*
X151431994Y-80167672D01*
X151431994Y-80167672D02*
X151336756Y-80215291D01*
X151336756Y-80215291D02*
X151051042Y-80215291D01*
X151051042Y-80215291D02*
X150955804Y-80167672D01*
X150955804Y-80167672D02*
X150908185Y-80120053D01*
X150908185Y-80120053D02*
X150860566Y-80024815D01*
X150860566Y-80024815D02*
X150860566Y-79834339D01*
X150860566Y-79834339D02*
X150908185Y-79739101D01*
X151479614Y-78881958D02*
X151527233Y-78977196D01*
X151527233Y-78977196D02*
X151527233Y-79167672D01*
X151527233Y-79167672D02*
X151479614Y-79262910D01*
X151479614Y-79262910D02*
X151384375Y-79310529D01*
X151384375Y-79310529D02*
X151003423Y-79310529D01*
X151003423Y-79310529D02*
X150908185Y-79262910D01*
X150908185Y-79262910D02*
X150860566Y-79167672D01*
X150860566Y-79167672D02*
X150860566Y-78977196D01*
X150860566Y-78977196D02*
X150908185Y-78881958D01*
X150908185Y-78881958D02*
X151003423Y-78834339D01*
X151003423Y-78834339D02*
X151098661Y-78834339D01*
X151098661Y-78834339D02*
X151193899Y-79310529D01*
X152303884Y-113491466D02*
X153065789Y-113491466D01*
X152684836Y-113872419D02*
X152684836Y-113110514D01*
X153446741Y-113205752D02*
X153684836Y-113872419D01*
X153684836Y-113872419D02*
X153922931Y-113205752D01*
X152256265Y-116586704D02*
X152732455Y-116586704D01*
X152161027Y-116872419D02*
X152494360Y-115872419D01*
X152494360Y-115872419D02*
X152827693Y-116872419D01*
X153065789Y-115872419D02*
X153732455Y-116872419D01*
X153732455Y-115872419D02*
X153065789Y-116872419D01*
X145372419Y-119791353D02*
X145372419Y-119172306D01*
X145372419Y-119172306D02*
X145753371Y-119505639D01*
X145753371Y-119505639D02*
X145753371Y-119362782D01*
X145753371Y-119362782D02*
X145800990Y-119267544D01*
X145800990Y-119267544D02*
X145848609Y-119219925D01*
X145848609Y-119219925D02*
X145943847Y-119172306D01*
X145943847Y-119172306D02*
X146181942Y-119172306D01*
X146181942Y-119172306D02*
X146277180Y-119219925D01*
X146277180Y-119219925D02*
X146324800Y-119267544D01*
X146324800Y-119267544D02*
X146372419Y-119362782D01*
X146372419Y-119362782D02*
X146372419Y-119648496D01*
X146372419Y-119648496D02*
X146324800Y-119743734D01*
X146324800Y-119743734D02*
X146277180Y-119791353D01*
X146372419Y-118743734D02*
X145372419Y-118743734D01*
X146372419Y-118172306D02*
X145800990Y-118600877D01*
X145372419Y-118172306D02*
X145943847Y-118743734D01*
X130375312Y-123372419D02*
X130041979Y-122896228D01*
X129803884Y-123372419D02*
X129803884Y-122372419D01*
X129803884Y-122372419D02*
X130184836Y-122372419D01*
X130184836Y-122372419D02*
X130280074Y-122420038D01*
X130280074Y-122420038D02*
X130327693Y-122467657D01*
X130327693Y-122467657D02*
X130375312Y-122562895D01*
X130375312Y-122562895D02*
X130375312Y-122705752D01*
X130375312Y-122705752D02*
X130327693Y-122800990D01*
X130327693Y-122800990D02*
X130280074Y-122848609D01*
X130280074Y-122848609D02*
X130184836Y-122896228D01*
X130184836Y-122896228D02*
X129803884Y-122896228D01*
X165282394Y-79513536D02*
X165949061Y-79513536D01*
X165758585Y-79513536D02*
X165853823Y-79561155D01*
X165853823Y-79561155D02*
X165901442Y-79608774D01*
X165901442Y-79608774D02*
X165949061Y-79704012D01*
X165949061Y-79704012D02*
X165949061Y-79799250D01*
X165330014Y-80513536D02*
X165282394Y-80418298D01*
X165282394Y-80418298D02*
X165282394Y-80227822D01*
X165282394Y-80227822D02*
X165330014Y-80132584D01*
X165330014Y-80132584D02*
X165425252Y-80084965D01*
X165425252Y-80084965D02*
X165806204Y-80084965D01*
X165806204Y-80084965D02*
X165901442Y-80132584D01*
X165901442Y-80132584D02*
X165949061Y-80227822D01*
X165949061Y-80227822D02*
X165949061Y-80418298D01*
X165949061Y-80418298D02*
X165901442Y-80513536D01*
X165901442Y-80513536D02*
X165806204Y-80561155D01*
X165806204Y-80561155D02*
X165710966Y-80561155D01*
X165710966Y-80561155D02*
X165615728Y-80084965D01*
X165330014Y-80942108D02*
X165282394Y-81037346D01*
X165282394Y-81037346D02*
X165282394Y-81227822D01*
X165282394Y-81227822D02*
X165330014Y-81323060D01*
X165330014Y-81323060D02*
X165425252Y-81370679D01*
X165425252Y-81370679D02*
X165472871Y-81370679D01*
X165472871Y-81370679D02*
X165568109Y-81323060D01*
X165568109Y-81323060D02*
X165615728Y-81227822D01*
X165615728Y-81227822D02*
X165615728Y-81084965D01*
X165615728Y-81084965D02*
X165663347Y-80989727D01*
X165663347Y-80989727D02*
X165758585Y-80942108D01*
X165758585Y-80942108D02*
X165806204Y-80942108D01*
X165806204Y-80942108D02*
X165901442Y-80989727D01*
X165901442Y-80989727D02*
X165949061Y-81084965D01*
X165949061Y-81084965D02*
X165949061Y-81227822D01*
X165949061Y-81227822D02*
X165901442Y-81323060D01*
X165330014Y-82180203D02*
X165282394Y-82084965D01*
X165282394Y-82084965D02*
X165282394Y-81894489D01*
X165282394Y-81894489D02*
X165330014Y-81799251D01*
X165330014Y-81799251D02*
X165425252Y-81751632D01*
X165425252Y-81751632D02*
X165806204Y-81751632D01*
X165806204Y-81751632D02*
X165901442Y-81799251D01*
X165901442Y-81799251D02*
X165949061Y-81894489D01*
X165949061Y-81894489D02*
X165949061Y-82084965D01*
X165949061Y-82084965D02*
X165901442Y-82180203D01*
X165901442Y-82180203D02*
X165806204Y-82227822D01*
X165806204Y-82227822D02*
X165710966Y-82227822D01*
X165710966Y-82227822D02*
X165615728Y-81751632D01*
X165949061Y-82513537D02*
X165949061Y-82894489D01*
X166282394Y-82656394D02*
X165425252Y-82656394D01*
X165425252Y-82656394D02*
X165330014Y-82704013D01*
X165330014Y-82704013D02*
X165282394Y-82799251D01*
X165282394Y-82799251D02*
X165282394Y-82894489D01*
X152256265Y-119586704D02*
X152732455Y-119586704D01*
X152161027Y-119872419D02*
X152494360Y-118872419D01*
X152494360Y-118872419D02*
X152827693Y-119872419D01*
X153351503Y-119396228D02*
X153351503Y-119872419D01*
X153018170Y-118872419D02*
X153351503Y-119396228D01*
X153351503Y-119396228D02*
X153684836Y-118872419D01*
X118875312Y-124277180D02*
X118827693Y-124324800D01*
X118827693Y-124324800D02*
X118684836Y-124372419D01*
X118684836Y-124372419D02*
X118589598Y-124372419D01*
X118589598Y-124372419D02*
X118446741Y-124324800D01*
X118446741Y-124324800D02*
X118351503Y-124229561D01*
X118351503Y-124229561D02*
X118303884Y-124134323D01*
X118303884Y-124134323D02*
X118256265Y-123943847D01*
X118256265Y-123943847D02*
X118256265Y-123800990D01*
X118256265Y-123800990D02*
X118303884Y-123610514D01*
X118303884Y-123610514D02*
X118351503Y-123515276D01*
X118351503Y-123515276D02*
X118446741Y-123420038D01*
X118446741Y-123420038D02*
X118589598Y-123372419D01*
X118589598Y-123372419D02*
X118684836Y-123372419D01*
X118684836Y-123372419D02*
X118827693Y-123420038D01*
X118827693Y-123420038D02*
X118875312Y-123467657D01*
X152303884Y-110872419D02*
X152303884Y-109872419D01*
X152303884Y-109872419D02*
X152684836Y-109872419D01*
X152684836Y-109872419D02*
X152780074Y-109920038D01*
X152780074Y-109920038D02*
X152827693Y-109967657D01*
X152827693Y-109967657D02*
X152875312Y-110062895D01*
X152875312Y-110062895D02*
X152875312Y-110205752D01*
X152875312Y-110205752D02*
X152827693Y-110300990D01*
X152827693Y-110300990D02*
X152780074Y-110348609D01*
X152780074Y-110348609D02*
X152684836Y-110396228D01*
X152684836Y-110396228D02*
X152303884Y-110396228D01*
X153208646Y-109872419D02*
X153875312Y-110872419D01*
X153875312Y-109872419D02*
X153208646Y-110872419D01*
X166958698Y-98915404D02*
X166958698Y-99915404D01*
X166958698Y-98963023D02*
X167053936Y-98915404D01*
X167053936Y-98915404D02*
X167244412Y-98915404D01*
X167244412Y-98915404D02*
X167339650Y-98963023D01*
X167339650Y-98963023D02*
X167387269Y-99010642D01*
X167387269Y-99010642D02*
X167434888Y-99105880D01*
X167434888Y-99105880D02*
X167434888Y-99391594D01*
X167434888Y-99391594D02*
X167387269Y-99486832D01*
X167387269Y-99486832D02*
X167339650Y-99534452D01*
X167339650Y-99534452D02*
X167244412Y-99582071D01*
X167244412Y-99582071D02*
X167053936Y-99582071D01*
X167053936Y-99582071D02*
X166958698Y-99534452D01*
X167768222Y-98915404D02*
X167958698Y-99582071D01*
X167958698Y-99582071D02*
X168149174Y-99105880D01*
X168149174Y-99105880D02*
X168339650Y-99582071D01*
X168339650Y-99582071D02*
X168530126Y-98915404D01*
X168911079Y-99582071D02*
X168911079Y-98915404D01*
X168911079Y-99105880D02*
X168958698Y-99010642D01*
X168958698Y-99010642D02*
X169006317Y-98963023D01*
X169006317Y-98963023D02*
X169101555Y-98915404D01*
X169101555Y-98915404D02*
X169196793Y-98915404D01*
X169292032Y-99677309D02*
X170053936Y-99677309D01*
X170720603Y-99582071D02*
X170720603Y-98582071D01*
X170720603Y-99534452D02*
X170625365Y-99582071D01*
X170625365Y-99582071D02*
X170434889Y-99582071D01*
X170434889Y-99582071D02*
X170339651Y-99534452D01*
X170339651Y-99534452D02*
X170292032Y-99486832D01*
X170292032Y-99486832D02*
X170244413Y-99391594D01*
X170244413Y-99391594D02*
X170244413Y-99105880D01*
X170244413Y-99105880D02*
X170292032Y-99010642D01*
X170292032Y-99010642D02*
X170339651Y-98963023D01*
X170339651Y-98963023D02*
X170434889Y-98915404D01*
X170434889Y-98915404D02*
X170625365Y-98915404D01*
X170625365Y-98915404D02*
X170720603Y-98963023D01*
X161627580Y-92303884D02*
X162627580Y-92303884D01*
X162246628Y-92303884D02*
X162294247Y-92399122D01*
X162294247Y-92399122D02*
X162294247Y-92589598D01*
X162294247Y-92589598D02*
X162246628Y-92684836D01*
X162246628Y-92684836D02*
X162199009Y-92732455D01*
X162199009Y-92732455D02*
X162103771Y-92780074D01*
X162103771Y-92780074D02*
X161818057Y-92780074D01*
X161818057Y-92780074D02*
X161722819Y-92732455D01*
X161722819Y-92732455D02*
X161675200Y-92684836D01*
X161675200Y-92684836D02*
X161627580Y-92589598D01*
X161627580Y-92589598D02*
X161627580Y-92399122D01*
X161627580Y-92399122D02*
X161675200Y-92303884D01*
X161627580Y-93351503D02*
X161675200Y-93256265D01*
X161675200Y-93256265D02*
X161722819Y-93208646D01*
X161722819Y-93208646D02*
X161818057Y-93161027D01*
X161818057Y-93161027D02*
X162103771Y-93161027D01*
X162103771Y-93161027D02*
X162199009Y-93208646D01*
X162199009Y-93208646D02*
X162246628Y-93256265D01*
X162246628Y-93256265D02*
X162294247Y-93351503D01*
X162294247Y-93351503D02*
X162294247Y-93494360D01*
X162294247Y-93494360D02*
X162246628Y-93589598D01*
X162246628Y-93589598D02*
X162199009Y-93637217D01*
X162199009Y-93637217D02*
X162103771Y-93684836D01*
X162103771Y-93684836D02*
X161818057Y-93684836D01*
X161818057Y-93684836D02*
X161722819Y-93637217D01*
X161722819Y-93637217D02*
X161675200Y-93589598D01*
X161675200Y-93589598D02*
X161627580Y-93494360D01*
X161627580Y-93494360D02*
X161627580Y-93351503D01*
X161627580Y-94256265D02*
X161675200Y-94161027D01*
X161675200Y-94161027D02*
X161722819Y-94113408D01*
X161722819Y-94113408D02*
X161818057Y-94065789D01*
X161818057Y-94065789D02*
X162103771Y-94065789D01*
X162103771Y-94065789D02*
X162199009Y-94113408D01*
X162199009Y-94113408D02*
X162246628Y-94161027D01*
X162246628Y-94161027D02*
X162294247Y-94256265D01*
X162294247Y-94256265D02*
X162294247Y-94399122D01*
X162294247Y-94399122D02*
X162246628Y-94494360D01*
X162246628Y-94494360D02*
X162199009Y-94541979D01*
X162199009Y-94541979D02*
X162103771Y-94589598D01*
X162103771Y-94589598D02*
X161818057Y-94589598D01*
X161818057Y-94589598D02*
X161722819Y-94541979D01*
X161722819Y-94541979D02*
X161675200Y-94494360D01*
X161675200Y-94494360D02*
X161627580Y-94399122D01*
X161627580Y-94399122D02*
X161627580Y-94256265D01*
X162294247Y-94875313D02*
X162294247Y-95256265D01*
X162627580Y-95018170D02*
X161770438Y-95018170D01*
X161770438Y-95018170D02*
X161675200Y-95065789D01*
X161675200Y-95065789D02*
X161627580Y-95161027D01*
X161627580Y-95161027D02*
X161627580Y-95256265D01*
X164911079Y-87534452D02*
X165006317Y-87582071D01*
X165006317Y-87582071D02*
X165196793Y-87582071D01*
X165196793Y-87582071D02*
X165292031Y-87534452D01*
X165292031Y-87534452D02*
X165339650Y-87439213D01*
X165339650Y-87439213D02*
X165339650Y-87391594D01*
X165339650Y-87391594D02*
X165292031Y-87296356D01*
X165292031Y-87296356D02*
X165196793Y-87248737D01*
X165196793Y-87248737D02*
X165053936Y-87248737D01*
X165053936Y-87248737D02*
X164958698Y-87201118D01*
X164958698Y-87201118D02*
X164911079Y-87105880D01*
X164911079Y-87105880D02*
X164911079Y-87058261D01*
X164911079Y-87058261D02*
X164958698Y-86963023D01*
X164958698Y-86963023D02*
X165053936Y-86915404D01*
X165053936Y-86915404D02*
X165196793Y-86915404D01*
X165196793Y-86915404D02*
X165292031Y-86963023D01*
X166196793Y-87534452D02*
X166101555Y-87582071D01*
X166101555Y-87582071D02*
X165911079Y-87582071D01*
X165911079Y-87582071D02*
X165815841Y-87534452D01*
X165815841Y-87534452D02*
X165768222Y-87486832D01*
X165768222Y-87486832D02*
X165720603Y-87391594D01*
X165720603Y-87391594D02*
X165720603Y-87105880D01*
X165720603Y-87105880D02*
X165768222Y-87010642D01*
X165768222Y-87010642D02*
X165815841Y-86963023D01*
X165815841Y-86963023D02*
X165911079Y-86915404D01*
X165911079Y-86915404D02*
X166101555Y-86915404D01*
X166101555Y-86915404D02*
X166196793Y-86963023D01*
X166625365Y-87582071D02*
X166625365Y-86915404D01*
X166625365Y-87105880D02*
X166672984Y-87010642D01*
X166672984Y-87010642D02*
X166720603Y-86963023D01*
X166720603Y-86963023D02*
X166815841Y-86915404D01*
X166815841Y-86915404D02*
X166911079Y-86915404D01*
X167625365Y-87534452D02*
X167530127Y-87582071D01*
X167530127Y-87582071D02*
X167339651Y-87582071D01*
X167339651Y-87582071D02*
X167244413Y-87534452D01*
X167244413Y-87534452D02*
X167196794Y-87439213D01*
X167196794Y-87439213D02*
X167196794Y-87058261D01*
X167196794Y-87058261D02*
X167244413Y-86963023D01*
X167244413Y-86963023D02*
X167339651Y-86915404D01*
X167339651Y-86915404D02*
X167530127Y-86915404D01*
X167530127Y-86915404D02*
X167625365Y-86963023D01*
X167625365Y-86963023D02*
X167672984Y-87058261D01*
X167672984Y-87058261D02*
X167672984Y-87153499D01*
X167672984Y-87153499D02*
X167196794Y-87248737D01*
X168482508Y-87534452D02*
X168387270Y-87582071D01*
X168387270Y-87582071D02*
X168196794Y-87582071D01*
X168196794Y-87582071D02*
X168101556Y-87534452D01*
X168101556Y-87534452D02*
X168053937Y-87439213D01*
X168053937Y-87439213D02*
X168053937Y-87058261D01*
X168053937Y-87058261D02*
X168101556Y-86963023D01*
X168101556Y-86963023D02*
X168196794Y-86915404D01*
X168196794Y-86915404D02*
X168387270Y-86915404D01*
X168387270Y-86915404D02*
X168482508Y-86963023D01*
X168482508Y-86963023D02*
X168530127Y-87058261D01*
X168530127Y-87058261D02*
X168530127Y-87153499D01*
X168530127Y-87153499D02*
X168053937Y-87248737D01*
X168958699Y-86915404D02*
X168958699Y-87582071D01*
X168958699Y-87010642D02*
X169006318Y-86963023D01*
X169006318Y-86963023D02*
X169101556Y-86915404D01*
X169101556Y-86915404D02*
X169244413Y-86915404D01*
X169244413Y-86915404D02*
X169339651Y-86963023D01*
X169339651Y-86963023D02*
X169387270Y-87058261D01*
X169387270Y-87058261D02*
X169387270Y-87582071D01*
X169625366Y-87677309D02*
X170387270Y-87677309D01*
X171053937Y-87582071D02*
X171053937Y-86582071D01*
X171053937Y-87534452D02*
X170958699Y-87582071D01*
X170958699Y-87582071D02*
X170768223Y-87582071D01*
X170768223Y-87582071D02*
X170672985Y-87534452D01*
X170672985Y-87534452D02*
X170625366Y-87486832D01*
X170625366Y-87486832D02*
X170577747Y-87391594D01*
X170577747Y-87391594D02*
X170577747Y-87105880D01*
X170577747Y-87105880D02*
X170625366Y-87010642D01*
X170625366Y-87010642D02*
X170672985Y-86963023D01*
X170672985Y-86963023D02*
X170768223Y-86915404D01*
X170768223Y-86915404D02*
X170958699Y-86915404D01*
X170958699Y-86915404D02*
X171053937Y-86963023D01*
X150815161Y-132762475D02*
X150815161Y-131762475D01*
X150815161Y-131762475D02*
X151196113Y-131762475D01*
X151196113Y-131762475D02*
X151291351Y-131810094D01*
X151291351Y-131810094D02*
X151338970Y-131857713D01*
X151338970Y-131857713D02*
X151386589Y-131952951D01*
X151386589Y-131952951D02*
X151386589Y-132095808D01*
X151386589Y-132095808D02*
X151338970Y-132191046D01*
X151338970Y-132191046D02*
X151291351Y-132238665D01*
X151291351Y-132238665D02*
X151196113Y-132286284D01*
X151196113Y-132286284D02*
X150815161Y-132286284D01*
X151767542Y-132714856D02*
X151910399Y-132762475D01*
X151910399Y-132762475D02*
X152148494Y-132762475D01*
X152148494Y-132762475D02*
X152243732Y-132714856D01*
X152243732Y-132714856D02*
X152291351Y-132667236D01*
X152291351Y-132667236D02*
X152338970Y-132571998D01*
X152338970Y-132571998D02*
X152338970Y-132476760D01*
X152338970Y-132476760D02*
X152291351Y-132381522D01*
X152291351Y-132381522D02*
X152243732Y-132333903D01*
X152243732Y-132333903D02*
X152148494Y-132286284D01*
X152148494Y-132286284D02*
X151958018Y-132238665D01*
X151958018Y-132238665D02*
X151862780Y-132191046D01*
X151862780Y-132191046D02*
X151815161Y-132143427D01*
X151815161Y-132143427D02*
X151767542Y-132048189D01*
X151767542Y-132048189D02*
X151767542Y-131952951D01*
X151767542Y-131952951D02*
X151815161Y-131857713D01*
X151815161Y-131857713D02*
X151862780Y-131810094D01*
X151862780Y-131810094D02*
X151958018Y-131762475D01*
X151958018Y-131762475D02*
X152196113Y-131762475D01*
X152196113Y-131762475D02*
X152338970Y-131810094D01*
X152767542Y-132762475D02*
X152767542Y-131762475D01*
X152767542Y-131762475D02*
X153148494Y-131762475D01*
X153148494Y-131762475D02*
X153243732Y-131810094D01*
X153243732Y-131810094D02*
X153291351Y-131857713D01*
X153291351Y-131857713D02*
X153338970Y-131952951D01*
X153338970Y-131952951D02*
X153338970Y-132095808D01*
X153338970Y-132095808D02*
X153291351Y-132191046D01*
X153291351Y-132191046D02*
X153243732Y-132238665D01*
X153243732Y-132238665D02*
X153148494Y-132286284D01*
X153148494Y-132286284D02*
X152767542Y-132286284D01*
X154862780Y-132238665D02*
X155005637Y-132286284D01*
X155005637Y-132286284D02*
X155053256Y-132333903D01*
X155053256Y-132333903D02*
X155100875Y-132429141D01*
X155100875Y-132429141D02*
X155100875Y-132571998D01*
X155100875Y-132571998D02*
X155053256Y-132667236D01*
X155053256Y-132667236D02*
X155005637Y-132714856D01*
X155005637Y-132714856D02*
X154910399Y-132762475D01*
X154910399Y-132762475D02*
X154529447Y-132762475D01*
X154529447Y-132762475D02*
X154529447Y-131762475D01*
X154529447Y-131762475D02*
X154862780Y-131762475D01*
X154862780Y-131762475D02*
X154958018Y-131810094D01*
X154958018Y-131810094D02*
X155005637Y-131857713D01*
X155005637Y-131857713D02*
X155053256Y-131952951D01*
X155053256Y-131952951D02*
X155053256Y-132048189D01*
X155053256Y-132048189D02*
X155005637Y-132143427D01*
X155005637Y-132143427D02*
X154958018Y-132191046D01*
X154958018Y-132191046D02*
X154862780Y-132238665D01*
X154862780Y-132238665D02*
X154529447Y-132238665D01*
X155672304Y-132762475D02*
X155577066Y-132714856D01*
X155577066Y-132714856D02*
X155529447Y-132619617D01*
X155529447Y-132619617D02*
X155529447Y-131762475D01*
X156481828Y-132095808D02*
X156481828Y-132762475D01*
X156053257Y-132095808D02*
X156053257Y-132619617D01*
X156053257Y-132619617D02*
X156100876Y-132714856D01*
X156100876Y-132714856D02*
X156196114Y-132762475D01*
X156196114Y-132762475D02*
X156338971Y-132762475D01*
X156338971Y-132762475D02*
X156434209Y-132714856D01*
X156434209Y-132714856D02*
X156481828Y-132667236D01*
X157338971Y-132714856D02*
X157243733Y-132762475D01*
X157243733Y-132762475D02*
X157053257Y-132762475D01*
X157053257Y-132762475D02*
X156958019Y-132714856D01*
X156958019Y-132714856D02*
X156910400Y-132619617D01*
X156910400Y-132619617D02*
X156910400Y-132238665D01*
X156910400Y-132238665D02*
X156958019Y-132143427D01*
X156958019Y-132143427D02*
X157053257Y-132095808D01*
X157053257Y-132095808D02*
X157243733Y-132095808D01*
X157243733Y-132095808D02*
X157338971Y-132143427D01*
X157338971Y-132143427D02*
X157386590Y-132238665D01*
X157386590Y-132238665D02*
X157386590Y-132333903D01*
X157386590Y-132333903D02*
X156910400Y-132429141D01*
X157672305Y-132095808D02*
X158053257Y-132095808D01*
X157815162Y-131762475D02*
X157815162Y-132619617D01*
X157815162Y-132619617D02*
X157862781Y-132714856D01*
X157862781Y-132714856D02*
X157958019Y-132762475D01*
X157958019Y-132762475D02*
X158053257Y-132762475D01*
X158529448Y-132762475D02*
X158434210Y-132714856D01*
X158434210Y-132714856D02*
X158386591Y-132667236D01*
X158386591Y-132667236D02*
X158338972Y-132571998D01*
X158338972Y-132571998D02*
X158338972Y-132286284D01*
X158338972Y-132286284D02*
X158386591Y-132191046D01*
X158386591Y-132191046D02*
X158434210Y-132143427D01*
X158434210Y-132143427D02*
X158529448Y-132095808D01*
X158529448Y-132095808D02*
X158672305Y-132095808D01*
X158672305Y-132095808D02*
X158767543Y-132143427D01*
X158767543Y-132143427D02*
X158815162Y-132191046D01*
X158815162Y-132191046D02*
X158862781Y-132286284D01*
X158862781Y-132286284D02*
X158862781Y-132571998D01*
X158862781Y-132571998D02*
X158815162Y-132667236D01*
X158815162Y-132667236D02*
X158767543Y-132714856D01*
X158767543Y-132714856D02*
X158672305Y-132762475D01*
X158672305Y-132762475D02*
X158529448Y-132762475D01*
X159434210Y-132762475D02*
X159338972Y-132714856D01*
X159338972Y-132714856D02*
X159291353Y-132667236D01*
X159291353Y-132667236D02*
X159243734Y-132571998D01*
X159243734Y-132571998D02*
X159243734Y-132286284D01*
X159243734Y-132286284D02*
X159291353Y-132191046D01*
X159291353Y-132191046D02*
X159338972Y-132143427D01*
X159338972Y-132143427D02*
X159434210Y-132095808D01*
X159434210Y-132095808D02*
X159577067Y-132095808D01*
X159577067Y-132095808D02*
X159672305Y-132143427D01*
X159672305Y-132143427D02*
X159719924Y-132191046D01*
X159719924Y-132191046D02*
X159767543Y-132286284D01*
X159767543Y-132286284D02*
X159767543Y-132571998D01*
X159767543Y-132571998D02*
X159719924Y-132667236D01*
X159719924Y-132667236D02*
X159672305Y-132714856D01*
X159672305Y-132714856D02*
X159577067Y-132762475D01*
X159577067Y-132762475D02*
X159434210Y-132762475D01*
X160053258Y-132095808D02*
X160434210Y-132095808D01*
X160196115Y-131762475D02*
X160196115Y-132619617D01*
X160196115Y-132619617D02*
X160243734Y-132714856D01*
X160243734Y-132714856D02*
X160338972Y-132762475D01*
X160338972Y-132762475D02*
X160434210Y-132762475D01*
X160767544Y-132762475D02*
X160767544Y-131762475D01*
X161196115Y-132762475D02*
X161196115Y-132238665D01*
X161196115Y-132238665D02*
X161148496Y-132143427D01*
X161148496Y-132143427D02*
X161053258Y-132095808D01*
X161053258Y-132095808D02*
X160910401Y-132095808D01*
X160910401Y-132095808D02*
X160815163Y-132143427D01*
X160815163Y-132143427D02*
X160767544Y-132191046D01*
X126577065Y-134372419D02*
X126577065Y-133372419D01*
X127005636Y-134372419D02*
X127005636Y-133848609D01*
X127005636Y-133848609D02*
X126958017Y-133753371D01*
X126958017Y-133753371D02*
X126862779Y-133705752D01*
X126862779Y-133705752D02*
X126719922Y-133705752D01*
X126719922Y-133705752D02*
X126624684Y-133753371D01*
X126624684Y-133753371D02*
X126577065Y-133800990D01*
X127338970Y-133705752D02*
X127719922Y-133705752D01*
X127481827Y-133372419D02*
X127481827Y-134229561D01*
X127481827Y-134229561D02*
X127529446Y-134324800D01*
X127529446Y-134324800D02*
X127624684Y-134372419D01*
X127624684Y-134372419D02*
X127719922Y-134372419D01*
X127910399Y-133705752D02*
X128291351Y-133705752D01*
X128053256Y-133372419D02*
X128053256Y-134229561D01*
X128053256Y-134229561D02*
X128100875Y-134324800D01*
X128100875Y-134324800D02*
X128196113Y-134372419D01*
X128196113Y-134372419D02*
X128291351Y-134372419D01*
X128624685Y-133705752D02*
X128624685Y-134705752D01*
X128624685Y-133753371D02*
X128719923Y-133705752D01*
X128719923Y-133705752D02*
X128910399Y-133705752D01*
X128910399Y-133705752D02*
X129005637Y-133753371D01*
X129005637Y-133753371D02*
X129053256Y-133800990D01*
X129053256Y-133800990D02*
X129100875Y-133896228D01*
X129100875Y-133896228D02*
X129100875Y-134181942D01*
X129100875Y-134181942D02*
X129053256Y-134277180D01*
X129053256Y-134277180D02*
X129005637Y-134324800D01*
X129005637Y-134324800D02*
X128910399Y-134372419D01*
X128910399Y-134372419D02*
X128719923Y-134372419D01*
X128719923Y-134372419D02*
X128624685Y-134324800D01*
X129481828Y-134324800D02*
X129577066Y-134372419D01*
X129577066Y-134372419D02*
X129767542Y-134372419D01*
X129767542Y-134372419D02*
X129862780Y-134324800D01*
X129862780Y-134324800D02*
X129910399Y-134229561D01*
X129910399Y-134229561D02*
X129910399Y-134181942D01*
X129910399Y-134181942D02*
X129862780Y-134086704D01*
X129862780Y-134086704D02*
X129767542Y-134039085D01*
X129767542Y-134039085D02*
X129624685Y-134039085D01*
X129624685Y-134039085D02*
X129529447Y-133991466D01*
X129529447Y-133991466D02*
X129481828Y-133896228D01*
X129481828Y-133896228D02*
X129481828Y-133848609D01*
X129481828Y-133848609D02*
X129529447Y-133753371D01*
X129529447Y-133753371D02*
X129624685Y-133705752D01*
X129624685Y-133705752D02*
X129767542Y-133705752D01*
X129767542Y-133705752D02*
X129862780Y-133753371D01*
X130338971Y-134277180D02*
X130386590Y-134324800D01*
X130386590Y-134324800D02*
X130338971Y-134372419D01*
X130338971Y-134372419D02*
X130291352Y-134324800D01*
X130291352Y-134324800D02*
X130338971Y-134277180D01*
X130338971Y-134277180D02*
X130338971Y-134372419D01*
X130338971Y-133753371D02*
X130386590Y-133800990D01*
X130386590Y-133800990D02*
X130338971Y-133848609D01*
X130338971Y-133848609D02*
X130291352Y-133800990D01*
X130291352Y-133800990D02*
X130338971Y-133753371D01*
X130338971Y-133753371D02*
X130338971Y-133848609D01*
X131529446Y-133324800D02*
X130672304Y-134610514D01*
X132577065Y-133324800D02*
X131719923Y-134610514D01*
X133338970Y-133705752D02*
X133338970Y-134515276D01*
X133338970Y-134515276D02*
X133291351Y-134610514D01*
X133291351Y-134610514D02*
X133243732Y-134658133D01*
X133243732Y-134658133D02*
X133148494Y-134705752D01*
X133148494Y-134705752D02*
X133005637Y-134705752D01*
X133005637Y-134705752D02*
X132910399Y-134658133D01*
X133338970Y-134324800D02*
X133243732Y-134372419D01*
X133243732Y-134372419D02*
X133053256Y-134372419D01*
X133053256Y-134372419D02*
X132958018Y-134324800D01*
X132958018Y-134324800D02*
X132910399Y-134277180D01*
X132910399Y-134277180D02*
X132862780Y-134181942D01*
X132862780Y-134181942D02*
X132862780Y-133896228D01*
X132862780Y-133896228D02*
X132910399Y-133800990D01*
X132910399Y-133800990D02*
X132958018Y-133753371D01*
X132958018Y-133753371D02*
X133053256Y-133705752D01*
X133053256Y-133705752D02*
X133243732Y-133705752D01*
X133243732Y-133705752D02*
X133338970Y-133753371D01*
X133815161Y-134372419D02*
X133815161Y-133705752D01*
X133815161Y-133372419D02*
X133767542Y-133420038D01*
X133767542Y-133420038D02*
X133815161Y-133467657D01*
X133815161Y-133467657D02*
X133862780Y-133420038D01*
X133862780Y-133420038D02*
X133815161Y-133372419D01*
X133815161Y-133372419D02*
X133815161Y-133467657D01*
X134148494Y-133705752D02*
X134529446Y-133705752D01*
X134291351Y-133372419D02*
X134291351Y-134229561D01*
X134291351Y-134229561D02*
X134338970Y-134324800D01*
X134338970Y-134324800D02*
X134434208Y-134372419D01*
X134434208Y-134372419D02*
X134529446Y-134372419D01*
X134862780Y-134372419D02*
X134862780Y-133372419D01*
X135291351Y-134372419D02*
X135291351Y-133848609D01*
X135291351Y-133848609D02*
X135243732Y-133753371D01*
X135243732Y-133753371D02*
X135148494Y-133705752D01*
X135148494Y-133705752D02*
X135005637Y-133705752D01*
X135005637Y-133705752D02*
X134910399Y-133753371D01*
X134910399Y-133753371D02*
X134862780Y-133800990D01*
X136196113Y-133705752D02*
X136196113Y-134372419D01*
X135767542Y-133705752D02*
X135767542Y-134229561D01*
X135767542Y-134229561D02*
X135815161Y-134324800D01*
X135815161Y-134324800D02*
X135910399Y-134372419D01*
X135910399Y-134372419D02*
X136053256Y-134372419D01*
X136053256Y-134372419D02*
X136148494Y-134324800D01*
X136148494Y-134324800D02*
X136196113Y-134277180D01*
X136672304Y-134372419D02*
X136672304Y-133372419D01*
X136672304Y-133753371D02*
X136767542Y-133705752D01*
X136767542Y-133705752D02*
X136958018Y-133705752D01*
X136958018Y-133705752D02*
X137053256Y-133753371D01*
X137053256Y-133753371D02*
X137100875Y-133800990D01*
X137100875Y-133800990D02*
X137148494Y-133896228D01*
X137148494Y-133896228D02*
X137148494Y-134181942D01*
X137148494Y-134181942D02*
X137100875Y-134277180D01*
X137100875Y-134277180D02*
X137053256Y-134324800D01*
X137053256Y-134324800D02*
X136958018Y-134372419D01*
X136958018Y-134372419D02*
X136767542Y-134372419D01*
X136767542Y-134372419D02*
X136672304Y-134324800D01*
X137577066Y-134277180D02*
X137624685Y-134324800D01*
X137624685Y-134324800D02*
X137577066Y-134372419D01*
X137577066Y-134372419D02*
X137529447Y-134324800D01*
X137529447Y-134324800D02*
X137577066Y-134277180D01*
X137577066Y-134277180D02*
X137577066Y-134372419D01*
X138481827Y-134324800D02*
X138386589Y-134372419D01*
X138386589Y-134372419D02*
X138196113Y-134372419D01*
X138196113Y-134372419D02*
X138100875Y-134324800D01*
X138100875Y-134324800D02*
X138053256Y-134277180D01*
X138053256Y-134277180D02*
X138005637Y-134181942D01*
X138005637Y-134181942D02*
X138005637Y-133896228D01*
X138005637Y-133896228D02*
X138053256Y-133800990D01*
X138053256Y-133800990D02*
X138100875Y-133753371D01*
X138100875Y-133753371D02*
X138196113Y-133705752D01*
X138196113Y-133705752D02*
X138386589Y-133705752D01*
X138386589Y-133705752D02*
X138481827Y-133753371D01*
X139053256Y-134372419D02*
X138958018Y-134324800D01*
X138958018Y-134324800D02*
X138910399Y-134277180D01*
X138910399Y-134277180D02*
X138862780Y-134181942D01*
X138862780Y-134181942D02*
X138862780Y-133896228D01*
X138862780Y-133896228D02*
X138910399Y-133800990D01*
X138910399Y-133800990D02*
X138958018Y-133753371D01*
X138958018Y-133753371D02*
X139053256Y-133705752D01*
X139053256Y-133705752D02*
X139196113Y-133705752D01*
X139196113Y-133705752D02*
X139291351Y-133753371D01*
X139291351Y-133753371D02*
X139338970Y-133800990D01*
X139338970Y-133800990D02*
X139386589Y-133896228D01*
X139386589Y-133896228D02*
X139386589Y-134181942D01*
X139386589Y-134181942D02*
X139338970Y-134277180D01*
X139338970Y-134277180D02*
X139291351Y-134324800D01*
X139291351Y-134324800D02*
X139196113Y-134372419D01*
X139196113Y-134372419D02*
X139053256Y-134372419D01*
X139815161Y-134372419D02*
X139815161Y-133705752D01*
X139815161Y-133800990D02*
X139862780Y-133753371D01*
X139862780Y-133753371D02*
X139958018Y-133705752D01*
X139958018Y-133705752D02*
X140100875Y-133705752D01*
X140100875Y-133705752D02*
X140196113Y-133753371D01*
X140196113Y-133753371D02*
X140243732Y-133848609D01*
X140243732Y-133848609D02*
X140243732Y-134372419D01*
X140243732Y-133848609D02*
X140291351Y-133753371D01*
X140291351Y-133753371D02*
X140386589Y-133705752D01*
X140386589Y-133705752D02*
X140529446Y-133705752D01*
X140529446Y-133705752D02*
X140624685Y-133753371D01*
X140624685Y-133753371D02*
X140672304Y-133848609D01*
X140672304Y-133848609D02*
X140672304Y-134372419D01*
X141862779Y-133324800D02*
X141005637Y-134610514D01*
X142148494Y-134324800D02*
X142243732Y-134372419D01*
X142243732Y-134372419D02*
X142434208Y-134372419D01*
X142434208Y-134372419D02*
X142529446Y-134324800D01*
X142529446Y-134324800D02*
X142577065Y-134229561D01*
X142577065Y-134229561D02*
X142577065Y-134181942D01*
X142577065Y-134181942D02*
X142529446Y-134086704D01*
X142529446Y-134086704D02*
X142434208Y-134039085D01*
X142434208Y-134039085D02*
X142291351Y-134039085D01*
X142291351Y-134039085D02*
X142196113Y-133991466D01*
X142196113Y-133991466D02*
X142148494Y-133896228D01*
X142148494Y-133896228D02*
X142148494Y-133848609D01*
X142148494Y-133848609D02*
X142196113Y-133753371D01*
X142196113Y-133753371D02*
X142291351Y-133705752D01*
X142291351Y-133705752D02*
X142434208Y-133705752D01*
X142434208Y-133705752D02*
X142529446Y-133753371D01*
X142862780Y-133705752D02*
X143243732Y-133705752D01*
X143005637Y-133372419D02*
X143005637Y-134229561D01*
X143005637Y-134229561D02*
X143053256Y-134324800D01*
X143053256Y-134324800D02*
X143148494Y-134372419D01*
X143148494Y-134372419D02*
X143243732Y-134372419D01*
X143958018Y-134324800D02*
X143862780Y-134372419D01*
X143862780Y-134372419D02*
X143672304Y-134372419D01*
X143672304Y-134372419D02*
X143577066Y-134324800D01*
X143577066Y-134324800D02*
X143529447Y-134229561D01*
X143529447Y-134229561D02*
X143529447Y-133848609D01*
X143529447Y-133848609D02*
X143577066Y-133753371D01*
X143577066Y-133753371D02*
X143672304Y-133705752D01*
X143672304Y-133705752D02*
X143862780Y-133705752D01*
X143862780Y-133705752D02*
X143958018Y-133753371D01*
X143958018Y-133753371D02*
X144005637Y-133848609D01*
X144005637Y-133848609D02*
X144005637Y-133943847D01*
X144005637Y-133943847D02*
X143529447Y-134039085D01*
X144386590Y-133467657D02*
X144434209Y-133420038D01*
X144434209Y-133420038D02*
X144529447Y-133372419D01*
X144529447Y-133372419D02*
X144767542Y-133372419D01*
X144767542Y-133372419D02*
X144862780Y-133420038D01*
X144862780Y-133420038D02*
X144910399Y-133467657D01*
X144910399Y-133467657D02*
X144958018Y-133562895D01*
X144958018Y-133562895D02*
X144958018Y-133658133D01*
X144958018Y-133658133D02*
X144910399Y-133800990D01*
X144910399Y-133800990D02*
X144338971Y-134372419D01*
X144338971Y-134372419D02*
X144958018Y-134372419D01*
X145815161Y-133705752D02*
X145815161Y-134372419D01*
X145577066Y-133324800D02*
X145338971Y-134039085D01*
X145338971Y-134039085D02*
X145958018Y-134039085D01*
X146291352Y-133467657D02*
X146338971Y-133420038D01*
X146338971Y-133420038D02*
X146434209Y-133372419D01*
X146434209Y-133372419D02*
X146672304Y-133372419D01*
X146672304Y-133372419D02*
X146767542Y-133420038D01*
X146767542Y-133420038D02*
X146815161Y-133467657D01*
X146815161Y-133467657D02*
X146862780Y-133562895D01*
X146862780Y-133562895D02*
X146862780Y-133658133D01*
X146862780Y-133658133D02*
X146815161Y-133800990D01*
X146815161Y-133800990D02*
X146243733Y-134372419D01*
X146243733Y-134372419D02*
X146862780Y-134372419D01*
X147767542Y-133372419D02*
X147291352Y-133372419D01*
X147291352Y-133372419D02*
X147243733Y-133848609D01*
X147243733Y-133848609D02*
X147291352Y-133800990D01*
X147291352Y-133800990D02*
X147386590Y-133753371D01*
X147386590Y-133753371D02*
X147624685Y-133753371D01*
X147624685Y-133753371D02*
X147719923Y-133800990D01*
X147719923Y-133800990D02*
X147767542Y-133848609D01*
X147767542Y-133848609D02*
X147815161Y-133943847D01*
X147815161Y-133943847D02*
X147815161Y-134181942D01*
X147815161Y-134181942D02*
X147767542Y-134277180D01*
X147767542Y-134277180D02*
X147719923Y-134324800D01*
X147719923Y-134324800D02*
X147624685Y-134372419D01*
X147624685Y-134372419D02*
X147386590Y-134372419D01*
X147386590Y-134372419D02*
X147291352Y-134324800D01*
X147291352Y-134324800D02*
X147243733Y-134277180D01*
X148958018Y-133324800D02*
X148100876Y-134610514D01*
X149291352Y-134372419D02*
X149291352Y-133372419D01*
X149291352Y-133372419D02*
X149672304Y-133372419D01*
X149672304Y-133372419D02*
X149767542Y-133420038D01*
X149767542Y-133420038D02*
X149815161Y-133467657D01*
X149815161Y-133467657D02*
X149862780Y-133562895D01*
X149862780Y-133562895D02*
X149862780Y-133705752D01*
X149862780Y-133705752D02*
X149815161Y-133800990D01*
X149815161Y-133800990D02*
X149767542Y-133848609D01*
X149767542Y-133848609D02*
X149672304Y-133896228D01*
X149672304Y-133896228D02*
X149291352Y-133896228D01*
X150243733Y-134324800D02*
X150386590Y-134372419D01*
X150386590Y-134372419D02*
X150624685Y-134372419D01*
X150624685Y-134372419D02*
X150719923Y-134324800D01*
X150719923Y-134324800D02*
X150767542Y-134277180D01*
X150767542Y-134277180D02*
X150815161Y-134181942D01*
X150815161Y-134181942D02*
X150815161Y-134086704D01*
X150815161Y-134086704D02*
X150767542Y-133991466D01*
X150767542Y-133991466D02*
X150719923Y-133943847D01*
X150719923Y-133943847D02*
X150624685Y-133896228D01*
X150624685Y-133896228D02*
X150434209Y-133848609D01*
X150434209Y-133848609D02*
X150338971Y-133800990D01*
X150338971Y-133800990D02*
X150291352Y-133753371D01*
X150291352Y-133753371D02*
X150243733Y-133658133D01*
X150243733Y-133658133D02*
X150243733Y-133562895D01*
X150243733Y-133562895D02*
X150291352Y-133467657D01*
X150291352Y-133467657D02*
X150338971Y-133420038D01*
X150338971Y-133420038D02*
X150434209Y-133372419D01*
X150434209Y-133372419D02*
X150672304Y-133372419D01*
X150672304Y-133372419D02*
X150815161Y-133420038D01*
X151243733Y-134372419D02*
X151243733Y-133372419D01*
X151243733Y-133372419D02*
X151624685Y-133372419D01*
X151624685Y-133372419D02*
X151719923Y-133420038D01*
X151719923Y-133420038D02*
X151767542Y-133467657D01*
X151767542Y-133467657D02*
X151815161Y-133562895D01*
X151815161Y-133562895D02*
X151815161Y-133705752D01*
X151815161Y-133705752D02*
X151767542Y-133800990D01*
X151767542Y-133800990D02*
X151719923Y-133848609D01*
X151719923Y-133848609D02*
X151624685Y-133896228D01*
X151624685Y-133896228D02*
X151243733Y-133896228D01*
X152243733Y-133991466D02*
X153005638Y-133991466D01*
X153815161Y-133848609D02*
X153958018Y-133896228D01*
X153958018Y-133896228D02*
X154005637Y-133943847D01*
X154005637Y-133943847D02*
X154053256Y-134039085D01*
X154053256Y-134039085D02*
X154053256Y-134181942D01*
X154053256Y-134181942D02*
X154005637Y-134277180D01*
X154005637Y-134277180D02*
X153958018Y-134324800D01*
X153958018Y-134324800D02*
X153862780Y-134372419D01*
X153862780Y-134372419D02*
X153481828Y-134372419D01*
X153481828Y-134372419D02*
X153481828Y-133372419D01*
X153481828Y-133372419D02*
X153815161Y-133372419D01*
X153815161Y-133372419D02*
X153910399Y-133420038D01*
X153910399Y-133420038D02*
X153958018Y-133467657D01*
X153958018Y-133467657D02*
X154005637Y-133562895D01*
X154005637Y-133562895D02*
X154005637Y-133658133D01*
X154005637Y-133658133D02*
X153958018Y-133753371D01*
X153958018Y-133753371D02*
X153910399Y-133800990D01*
X153910399Y-133800990D02*
X153815161Y-133848609D01*
X153815161Y-133848609D02*
X153481828Y-133848609D01*
X154624685Y-134372419D02*
X154529447Y-134324800D01*
X154529447Y-134324800D02*
X154481828Y-134229561D01*
X154481828Y-134229561D02*
X154481828Y-133372419D01*
X155434209Y-133705752D02*
X155434209Y-134372419D01*
X155005638Y-133705752D02*
X155005638Y-134229561D01*
X155005638Y-134229561D02*
X155053257Y-134324800D01*
X155053257Y-134324800D02*
X155148495Y-134372419D01*
X155148495Y-134372419D02*
X155291352Y-134372419D01*
X155291352Y-134372419D02*
X155386590Y-134324800D01*
X155386590Y-134324800D02*
X155434209Y-134277180D01*
X156291352Y-134324800D02*
X156196114Y-134372419D01*
X156196114Y-134372419D02*
X156005638Y-134372419D01*
X156005638Y-134372419D02*
X155910400Y-134324800D01*
X155910400Y-134324800D02*
X155862781Y-134229561D01*
X155862781Y-134229561D02*
X155862781Y-133848609D01*
X155862781Y-133848609D02*
X155910400Y-133753371D01*
X155910400Y-133753371D02*
X156005638Y-133705752D01*
X156005638Y-133705752D02*
X156196114Y-133705752D01*
X156196114Y-133705752D02*
X156291352Y-133753371D01*
X156291352Y-133753371D02*
X156338971Y-133848609D01*
X156338971Y-133848609D02*
X156338971Y-133943847D01*
X156338971Y-133943847D02*
X155862781Y-134039085D01*
X156624686Y-133705752D02*
X157005638Y-133705752D01*
X156767543Y-133372419D02*
X156767543Y-134229561D01*
X156767543Y-134229561D02*
X156815162Y-134324800D01*
X156815162Y-134324800D02*
X156910400Y-134372419D01*
X156910400Y-134372419D02*
X157005638Y-134372419D01*
X157481829Y-134372419D02*
X157386591Y-134324800D01*
X157386591Y-134324800D02*
X157338972Y-134277180D01*
X157338972Y-134277180D02*
X157291353Y-134181942D01*
X157291353Y-134181942D02*
X157291353Y-133896228D01*
X157291353Y-133896228D02*
X157338972Y-133800990D01*
X157338972Y-133800990D02*
X157386591Y-133753371D01*
X157386591Y-133753371D02*
X157481829Y-133705752D01*
X157481829Y-133705752D02*
X157624686Y-133705752D01*
X157624686Y-133705752D02*
X157719924Y-133753371D01*
X157719924Y-133753371D02*
X157767543Y-133800990D01*
X157767543Y-133800990D02*
X157815162Y-133896228D01*
X157815162Y-133896228D02*
X157815162Y-134181942D01*
X157815162Y-134181942D02*
X157767543Y-134277180D01*
X157767543Y-134277180D02*
X157719924Y-134324800D01*
X157719924Y-134324800D02*
X157624686Y-134372419D01*
X157624686Y-134372419D02*
X157481829Y-134372419D01*
X158386591Y-134372419D02*
X158291353Y-134324800D01*
X158291353Y-134324800D02*
X158243734Y-134277180D01*
X158243734Y-134277180D02*
X158196115Y-134181942D01*
X158196115Y-134181942D02*
X158196115Y-133896228D01*
X158196115Y-133896228D02*
X158243734Y-133800990D01*
X158243734Y-133800990D02*
X158291353Y-133753371D01*
X158291353Y-133753371D02*
X158386591Y-133705752D01*
X158386591Y-133705752D02*
X158529448Y-133705752D01*
X158529448Y-133705752D02*
X158624686Y-133753371D01*
X158624686Y-133753371D02*
X158672305Y-133800990D01*
X158672305Y-133800990D02*
X158719924Y-133896228D01*
X158719924Y-133896228D02*
X158719924Y-134181942D01*
X158719924Y-134181942D02*
X158672305Y-134277180D01*
X158672305Y-134277180D02*
X158624686Y-134324800D01*
X158624686Y-134324800D02*
X158529448Y-134372419D01*
X158529448Y-134372419D02*
X158386591Y-134372419D01*
X159005639Y-133705752D02*
X159386591Y-133705752D01*
X159148496Y-133372419D02*
X159148496Y-134229561D01*
X159148496Y-134229561D02*
X159196115Y-134324800D01*
X159196115Y-134324800D02*
X159291353Y-134372419D01*
X159291353Y-134372419D02*
X159386591Y-134372419D01*
X159719925Y-134372419D02*
X159719925Y-133372419D01*
X160148496Y-134372419D02*
X160148496Y-133848609D01*
X160148496Y-133848609D02*
X160100877Y-133753371D01*
X160100877Y-133753371D02*
X160005639Y-133705752D01*
X160005639Y-133705752D02*
X159862782Y-133705752D01*
X159862782Y-133705752D02*
X159767544Y-133753371D01*
X159767544Y-133753371D02*
X159719925Y-133800990D01*
X161338972Y-133324800D02*
X160481830Y-134610514D01*
D11*
X120181382Y-78904501D02*
X120181382Y-79714024D01*
X120181382Y-79714024D02*
X120229001Y-79809262D01*
X120229001Y-79809262D02*
X120276620Y-79856882D01*
X120276620Y-79856882D02*
X120371858Y-79904501D01*
X120371858Y-79904501D02*
X120562334Y-79904501D01*
X120562334Y-79904501D02*
X120657572Y-79856882D01*
X120657572Y-79856882D02*
X120705191Y-79809262D01*
X120705191Y-79809262D02*
X120752810Y-79714024D01*
X120752810Y-79714024D02*
X120752810Y-78904501D01*
X121181382Y-79856882D02*
X121324239Y-79904501D01*
X121324239Y-79904501D02*
X121562334Y-79904501D01*
X121562334Y-79904501D02*
X121657572Y-79856882D01*
X121657572Y-79856882D02*
X121705191Y-79809262D01*
X121705191Y-79809262D02*
X121752810Y-79714024D01*
X121752810Y-79714024D02*
X121752810Y-79618786D01*
X121752810Y-79618786D02*
X121705191Y-79523548D01*
X121705191Y-79523548D02*
X121657572Y-79475929D01*
X121657572Y-79475929D02*
X121562334Y-79428310D01*
X121562334Y-79428310D02*
X121371858Y-79380691D01*
X121371858Y-79380691D02*
X121276620Y-79333072D01*
X121276620Y-79333072D02*
X121229001Y-79285453D01*
X121229001Y-79285453D02*
X121181382Y-79190215D01*
X121181382Y-79190215D02*
X121181382Y-79094977D01*
X121181382Y-79094977D02*
X121229001Y-78999739D01*
X121229001Y-78999739D02*
X121276620Y-78952120D01*
X121276620Y-78952120D02*
X121371858Y-78904501D01*
X121371858Y-78904501D02*
X121609953Y-78904501D01*
X121609953Y-78904501D02*
X121752810Y-78952120D01*
X122514715Y-79380691D02*
X122657572Y-79428310D01*
X122657572Y-79428310D02*
X122705191Y-79475929D01*
X122705191Y-79475929D02*
X122752810Y-79571167D01*
X122752810Y-79571167D02*
X122752810Y-79714024D01*
X122752810Y-79714024D02*
X122705191Y-79809262D01*
X122705191Y-79809262D02*
X122657572Y-79856882D01*
X122657572Y-79856882D02*
X122562334Y-79904501D01*
X122562334Y-79904501D02*
X122181382Y-79904501D01*
X122181382Y-79904501D02*
X122181382Y-78904501D01*
X122181382Y-78904501D02*
X122514715Y-78904501D01*
X122514715Y-78904501D02*
X122609953Y-78952120D01*
X122609953Y-78952120D02*
X122657572Y-78999739D01*
X122657572Y-78999739D02*
X122705191Y-79094977D01*
X122705191Y-79094977D02*
X122705191Y-79190215D01*
X122705191Y-79190215D02*
X122657572Y-79285453D01*
X122657572Y-79285453D02*
X122609953Y-79333072D01*
X122609953Y-79333072D02*
X122514715Y-79380691D01*
X122514715Y-79380691D02*
X122181382Y-79380691D01*
X123705191Y-79904501D02*
X123133763Y-79904501D01*
X123419477Y-79904501D02*
X123419477Y-78904501D01*
X123419477Y-78904501D02*
X123324239Y-79047358D01*
X123324239Y-79047358D02*
X123229001Y-79142596D01*
X123229001Y-79142596D02*
X123133763Y-79190215D01*
X119609633Y-97876318D02*
X119133442Y-98209651D01*
X119609633Y-98447746D02*
X118609633Y-98447746D01*
X118609633Y-98447746D02*
X118609633Y-98066794D01*
X118609633Y-98066794D02*
X118657252Y-97971556D01*
X118657252Y-97971556D02*
X118704871Y-97923937D01*
X118704871Y-97923937D02*
X118800109Y-97876318D01*
X118800109Y-97876318D02*
X118942966Y-97876318D01*
X118942966Y-97876318D02*
X119038204Y-97923937D01*
X119038204Y-97923937D02*
X119085823Y-97971556D01*
X119085823Y-97971556D02*
X119133442Y-98066794D01*
X119133442Y-98066794D02*
X119133442Y-98447746D01*
X119609633Y-96923937D02*
X119609633Y-97495365D01*
X119609633Y-97209651D02*
X118609633Y-97209651D01*
X118609633Y-97209651D02*
X118752490Y-97304889D01*
X118752490Y-97304889D02*
X118847728Y-97400127D01*
X118847728Y-97400127D02*
X118895347Y-97495365D01*
X119874296Y-95852509D02*
X119398105Y-96185842D01*
X119874296Y-96423937D02*
X118874296Y-96423937D01*
X118874296Y-96423937D02*
X118874296Y-96042985D01*
X118874296Y-96042985D02*
X118921915Y-95947747D01*
X118921915Y-95947747D02*
X118969534Y-95900128D01*
X118969534Y-95900128D02*
X119064772Y-95852509D01*
X119064772Y-95852509D02*
X119207629Y-95852509D01*
X119207629Y-95852509D02*
X119302867Y-95900128D01*
X119302867Y-95900128D02*
X119350486Y-95947747D01*
X119350486Y-95947747D02*
X119398105Y-96042985D01*
X119398105Y-96042985D02*
X119398105Y-96423937D01*
X119874296Y-94900128D02*
X119874296Y-95471556D01*
X119874296Y-95185842D02*
X118874296Y-95185842D01*
X118874296Y-95185842D02*
X119017153Y-95281080D01*
X119017153Y-95281080D02*
X119112391Y-95376318D01*
X119112391Y-95376318D02*
X119160010Y-95471556D01*
X118874296Y-94281080D02*
X118874296Y-94185842D01*
X118874296Y-94185842D02*
X118921915Y-94090604D01*
X118921915Y-94090604D02*
X118969534Y-94042985D01*
X118969534Y-94042985D02*
X119064772Y-93995366D01*
X119064772Y-93995366D02*
X119255248Y-93947747D01*
X119255248Y-93947747D02*
X119493343Y-93947747D01*
X119493343Y-93947747D02*
X119683819Y-93995366D01*
X119683819Y-93995366D02*
X119779057Y-94042985D01*
X119779057Y-94042985D02*
X119826677Y-94090604D01*
X119826677Y-94090604D02*
X119874296Y-94185842D01*
X119874296Y-94185842D02*
X119874296Y-94281080D01*
X119874296Y-94281080D02*
X119826677Y-94376318D01*
X119826677Y-94376318D02*
X119779057Y-94423937D01*
X119779057Y-94423937D02*
X119683819Y-94471556D01*
X119683819Y-94471556D02*
X119493343Y-94519175D01*
X119493343Y-94519175D02*
X119255248Y-94519175D01*
X119255248Y-94519175D02*
X119064772Y-94471556D01*
X119064772Y-94471556D02*
X118969534Y-94423937D01*
X118969534Y-94423937D02*
X118921915Y-94376318D01*
X118921915Y-94376318D02*
X118874296Y-94281080D01*
D12*
%TO.C,U13*%
X139750115Y-127290145D02*
X138734113Y-127290145D01*
X139738075Y-126442063D02*
X139738075Y-124655068D01*
X139242114Y-126782144D02*
X139750115Y-127290145D01*
X138873076Y-126442063D02*
X139738075Y-126442063D01*
X138734113Y-127290145D02*
X139242114Y-126782144D01*
X131657074Y-126461062D02*
X130726061Y-126461062D01*
X130754052Y-123404065D02*
X139747067Y-123404065D01*
X130726061Y-126461062D02*
X130726061Y-124664059D01*
D13*
X139780061Y-126724131D02*
G75*
G02*
X139720067Y-126724131I-29997J0D01*
G01*
X139720067Y-126724131D02*
G75*
G02*
X139780061Y-126724131I29997J0D01*
G01*
%TO.C,U11*%
X145119989Y-108000000D02*
G75*
G02*
X145059995Y-108000000I-29997J0D01*
G01*
X145059995Y-108000000D02*
G75*
G02*
X145119989Y-108000000I29997J0D01*
G01*
D14*
X141594996Y-107999060D02*
X141594996Y-115000000D01*
X144600025Y-114500025D02*
X144600025Y-114131166D01*
X144600025Y-114500025D02*
X144600025Y-115000025D01*
X144600025Y-115000025D02*
X142875667Y-115000025D01*
X144600025Y-108868885D02*
X144600025Y-107999060D01*
X144600025Y-107999060D02*
X142875413Y-107999060D01*
D13*
%TO.C,U10*%
X126280061Y-126839928D02*
G75*
G02*
X126220067Y-126839928I-29997J0D01*
G01*
X126220067Y-126839928D02*
G75*
G02*
X126280061Y-126839928I29997J0D01*
G01*
D14*
X126251004Y-123344932D02*
X119250064Y-123344932D01*
X119750039Y-126349961D02*
X120118898Y-126349961D01*
X119750039Y-126349961D02*
X119250039Y-126349961D01*
X119250039Y-126349961D02*
X119250039Y-124625603D01*
X125381179Y-126349961D02*
X126251004Y-126349961D01*
X126251004Y-126349961D02*
X126251004Y-124625349D01*
D13*
%TO.C,U6*%
X115190069Y-116500000D02*
G75*
G02*
X115130075Y-116500000I-29997J0D01*
G01*
X115130075Y-116500000D02*
G75*
G02*
X115190069Y-116500000I29997J0D01*
G01*
D14*
X118655068Y-116500940D02*
X118655068Y-109500000D01*
X115650039Y-109999975D02*
X115650039Y-110368834D01*
X115650039Y-109999975D02*
X115650039Y-109499975D01*
X115650039Y-109499975D02*
X117374397Y-109499975D01*
X115650039Y-115631115D02*
X115650039Y-116500940D01*
X115650039Y-116500940D02*
X117374651Y-116500940D01*
D15*
%TO.C,U4*%
X109849987Y-126349987D02*
X109849987Y-126975006D01*
X109849987Y-130024994D02*
X109849987Y-130650013D01*
X109849987Y-130650013D02*
X110475006Y-130650013D01*
X110475006Y-126349987D02*
X109849987Y-126349987D01*
X114150013Y-126349987D02*
X113524994Y-126349987D01*
X114150013Y-126975006D02*
X114150013Y-126349987D01*
X114150013Y-130024994D02*
X114150013Y-130650013D01*
X114150013Y-130650013D02*
X113524994Y-130650013D01*
D16*
X114524765Y-130448184D02*
G75*
G02*
X114524762Y-130450305I150007J-1273D01*
G01*
D17*
%TO.C,D24*%
X116273787Y-122598755D02*
X116470003Y-122598755D01*
D18*
X116273787Y-123946761D02*
X117726213Y-123946761D01*
X116273787Y-124351207D02*
X116273787Y-122598755D01*
D17*
X117726213Y-122598755D02*
X117519990Y-122598755D01*
D18*
X117726213Y-124351207D02*
X117726213Y-122598755D01*
D17*
%TO.C,D25*%
X124773787Y-129098755D02*
X124970003Y-129098755D01*
D18*
X124773787Y-130446761D02*
X126226213Y-130446761D01*
X124773787Y-130851207D02*
X124773787Y-129098755D01*
D17*
X126226213Y-129098755D02*
X126019990Y-129098755D01*
D18*
X126226213Y-130851207D02*
X126226213Y-129098755D01*
D15*
%TO.C,U1*%
X146849987Y-124849987D02*
X146849987Y-125475006D01*
X146849987Y-128524994D02*
X146849987Y-129150013D01*
X146849987Y-129150013D02*
X147475006Y-129150013D01*
X147475006Y-124849987D02*
X146849987Y-124849987D01*
X150524994Y-124849987D02*
X151150013Y-124849987D01*
X150524994Y-129150013D02*
X151150013Y-129150013D01*
X151150013Y-124849987D02*
X151150013Y-125475006D01*
X151150013Y-129150013D02*
X151150013Y-128524994D01*
D16*
X150948184Y-124475235D02*
G75*
G02*
X150950305Y-124475238I1273J150007D01*
G01*
D18*
%TO.C,C11*%
X123191212Y-85960859D02*
X123191212Y-84458445D01*
X123343613Y-84306045D02*
X124753620Y-84306045D01*
X124753620Y-86113259D02*
X123343613Y-86113259D01*
X125556008Y-86113259D02*
X126966015Y-86113259D01*
X126966015Y-84306045D02*
X125556008Y-84306045D01*
X127118416Y-85960859D02*
X127118416Y-84458445D01*
X123191212Y-84458445D02*
G75*
G02*
X123343613Y-84306044I152400J1D01*
G01*
X123343613Y-86113259D02*
G75*
G02*
X123191213Y-85960859I0J152400D01*
G01*
X126966015Y-84306045D02*
G75*
G02*
X127118421Y-84458445I-1J-152407D01*
G01*
X127118416Y-85960859D02*
G75*
G02*
X126966015Y-86113254I-152402J7D01*
G01*
%TO.C,C1*%
X110191212Y-99958445D02*
X110191212Y-101460859D01*
X110343613Y-101613259D02*
X111753620Y-101613259D01*
X111753620Y-99806045D02*
X110343613Y-99806045D01*
X112556008Y-99806045D02*
X113966015Y-99806045D01*
X113966015Y-101613259D02*
X112556008Y-101613259D01*
X114118416Y-99958445D02*
X114118416Y-101460859D01*
X110191212Y-99958445D02*
G75*
G02*
X110343613Y-99806050I152402J-7D01*
G01*
X110343613Y-101613259D02*
G75*
G02*
X110191207Y-101460859I1J152407D01*
G01*
X113966015Y-99806045D02*
G75*
G02*
X114118415Y-99958445I0J-152400D01*
G01*
X114118416Y-101460859D02*
G75*
G02*
X113966015Y-101613260I-152400J-1D01*
G01*
D17*
%TO.C,D10*%
X137273787Y-130098755D02*
X137470003Y-130098755D01*
D18*
X137273787Y-131446761D02*
X138726213Y-131446761D01*
X137273787Y-131851207D02*
X137273787Y-130098755D01*
D17*
X138726213Y-130098755D02*
X138519990Y-130098755D01*
D18*
X138726213Y-131851207D02*
X138726213Y-130098755D01*
D10*
%TO.C,U7*%
X141457556Y-116725044D02*
X141457556Y-116725044D01*
X141457556Y-120725044D02*
X141457556Y-116725044D01*
X142554178Y-116725044D02*
X144357556Y-116725044D01*
X144357556Y-116725044D02*
X144357556Y-117670840D01*
X144357556Y-119778994D02*
X144357556Y-120725044D01*
X144357556Y-120725044D02*
X142554178Y-120725044D01*
D13*
X144727457Y-116725044D02*
G75*
G02*
X144667513Y-116725044I-29972J0D01*
G01*
X144667513Y-116725044D02*
G75*
G02*
X144727457Y-116725044I29972J0D01*
G01*
D10*
X144988062Y-117384937D02*
G75*
G02*
X144795528Y-117384937I-96267J0D01*
G01*
X144795528Y-117384937D02*
G75*
G02*
X144988062Y-117384937I96267J0D01*
G01*
D17*
%TO.C,D27*%
X120773787Y-129098755D02*
X120970003Y-129098755D01*
D18*
X120773787Y-130446761D02*
X122226213Y-130446761D01*
X120773787Y-130851207D02*
X120773787Y-129098755D01*
D17*
X122226213Y-129098755D02*
X122019990Y-129098755D01*
D18*
X122226213Y-130851207D02*
X122226213Y-129098755D01*
D17*
%TO.C,D20*%
X126773787Y-129098755D02*
X126970003Y-129098755D01*
D18*
X126773787Y-130446761D02*
X128226213Y-130446761D01*
X126773787Y-130851207D02*
X126773787Y-129098755D01*
D17*
X128226213Y-129098755D02*
X128019990Y-129098755D01*
D18*
X128226213Y-130851207D02*
X128226213Y-129098755D01*
D12*
%TO.C,MODE1*%
X152454840Y-79634594D02*
X153349912Y-78739522D01*
X152454840Y-82184760D02*
X152454840Y-79634594D01*
X152454840Y-82184760D02*
X153349912Y-83079832D01*
X153204141Y-80010515D02*
X154105843Y-79108813D01*
X153204141Y-81910439D02*
X153204141Y-80010515D01*
X153836603Y-78359512D02*
X156173407Y-78359512D01*
X153836603Y-83459842D02*
X156173407Y-83459842D01*
X154004243Y-82710541D02*
X153204141Y-81910439D01*
X154105843Y-79108813D02*
X155904167Y-79108813D01*
X155904167Y-79108813D02*
X156904929Y-80109575D01*
X156003227Y-82710541D02*
X154004243Y-82710541D01*
X156660098Y-78739522D02*
X157555170Y-79634594D01*
X156660098Y-83079832D02*
X157555170Y-82184760D01*
X156904929Y-80109575D02*
X156904929Y-81808839D01*
X156904929Y-81808839D02*
X156003227Y-82710541D01*
X157555170Y-82184760D02*
X157555170Y-79634594D01*
X156280088Y-80909677D02*
G75*
G02*
X153729922Y-80909677I-1275083J0D01*
G01*
X153729922Y-80909677D02*
G75*
G02*
X156280088Y-80909677I1275083J0D01*
G01*
D19*
%TO.C,TP2*%
X151200000Y-110500000D02*
G75*
G02*
X149800000Y-110500000I-700000J0D01*
G01*
X149800000Y-110500000D02*
G75*
G02*
X151200000Y-110500000I700000J0D01*
G01*
%TO.C,TP17*%
X113300000Y-78800000D02*
X115700000Y-78800000D01*
X113300000Y-81200000D02*
X113300000Y-78800000D01*
X115700000Y-78800000D02*
X115700000Y-81200000D01*
X115700000Y-81200000D02*
X113300000Y-81200000D01*
D17*
%TO.C,D5*%
X110273787Y-122598755D02*
X110470003Y-122598755D01*
D18*
X110273787Y-123946761D02*
X111726213Y-123946761D01*
X110273787Y-124351207D02*
X110273787Y-122598755D01*
D17*
X111726213Y-122598755D02*
X111519990Y-122598755D01*
D18*
X111726213Y-124351207D02*
X111726213Y-122598755D01*
%TO.C,D21*%
X166303607Y-91983439D02*
X168056059Y-91983439D01*
X166303607Y-93435865D02*
X168056059Y-93435865D01*
X166708053Y-91983439D02*
X166708053Y-93435865D01*
D17*
X168056059Y-91983439D02*
X168056059Y-92179655D01*
X168056059Y-93435865D02*
X168056059Y-93229642D01*
D19*
%TO.C,TP8*%
X151200000Y-119500000D02*
G75*
G02*
X149800000Y-119500000I-700000J0D01*
G01*
X149800000Y-119500000D02*
G75*
G02*
X151200000Y-119500000I700000J0D01*
G01*
D17*
%TO.C,D6*%
X108273787Y-122598755D02*
X108470003Y-122598755D01*
D18*
X108273787Y-123946761D02*
X109726213Y-123946761D01*
X108273787Y-124351207D02*
X108273787Y-122598755D01*
D17*
X109726213Y-122598755D02*
X109519990Y-122598755D01*
D18*
X109726213Y-124351207D02*
X109726213Y-122598755D01*
%TO.C,C9*%
X115691212Y-100748793D02*
X115691212Y-102251207D01*
X115843613Y-102403607D02*
X117253620Y-102403607D01*
X117253620Y-100596393D02*
X115843613Y-100596393D01*
X118056008Y-100596393D02*
X119466015Y-100596393D01*
X119466015Y-102403607D02*
X118056008Y-102403607D01*
X119618416Y-100748793D02*
X119618416Y-102251207D01*
X115691212Y-100748793D02*
G75*
G02*
X115843613Y-100596398I152402J-7D01*
G01*
X115843613Y-102403607D02*
G75*
G02*
X115691207Y-102251207I1J152407D01*
G01*
X119466015Y-100596393D02*
G75*
G02*
X119618415Y-100748793I0J-152400D01*
G01*
X119618416Y-102251207D02*
G75*
G02*
X119466015Y-102403608I-152400J-1D01*
G01*
%TO.C,U2*%
X107883414Y-88133452D02*
X111426214Y-88133452D01*
X107883414Y-98285852D02*
X107883414Y-88133452D01*
X111426214Y-88133452D02*
X111426214Y-98285852D01*
X111426214Y-98285852D02*
X107883414Y-98285852D01*
D16*
X112677420Y-98386944D02*
G75*
G02*
X112377192Y-98386944I-150114J0D01*
G01*
X112377192Y-98386944D02*
G75*
G02*
X112677420Y-98386944I150114J0D01*
G01*
D19*
%TO.C,TP3*%
X151200000Y-113500000D02*
G75*
G02*
X149800000Y-113500000I-700000J0D01*
G01*
X149800000Y-113500000D02*
G75*
G02*
X151200000Y-113500000I700000J0D01*
G01*
D18*
%TO.C,U8*%
X106223749Y-114423749D02*
X107676175Y-114423749D01*
X106223749Y-116405360D02*
X106223749Y-115494564D01*
X106223749Y-117476175D02*
X107676175Y-117476175D01*
X107676175Y-114423749D02*
X107676175Y-115455372D01*
X107676175Y-117476175D02*
X107676175Y-116444552D01*
D13*
X105779959Y-114499949D02*
G75*
G02*
X105719965Y-114499949I-29997J0D01*
G01*
X105719965Y-114499949D02*
G75*
G02*
X105779959Y-114499949I29997J0D01*
G01*
D18*
%TO.C,R5*%
X150238862Y-86292558D02*
X151523800Y-86292558D01*
X150238862Y-88126746D02*
X150238862Y-86292558D01*
X151523800Y-88126746D02*
X150238862Y-88126746D01*
X152476200Y-88126746D02*
X153761138Y-88126746D01*
X153761138Y-86292558D02*
X152476200Y-86292558D01*
X153761138Y-88126746D02*
X153761138Y-86292558D01*
D19*
%TO.C,TP5*%
X167704814Y-95259652D02*
X170604814Y-95259652D01*
X167704814Y-98159652D02*
X167704814Y-95259652D01*
X170604814Y-95259652D02*
X170604814Y-98159652D01*
X170604814Y-98159652D02*
X167704814Y-98159652D01*
D18*
%TO.C,C12*%
X115191212Y-88958445D02*
X115191212Y-90460859D01*
X115343613Y-90613259D02*
X116753620Y-90613259D01*
X116753620Y-88806045D02*
X115343613Y-88806045D01*
X117556008Y-88806045D02*
X118966015Y-88806045D01*
X118966015Y-90613259D02*
X117556008Y-90613259D01*
X119118416Y-88958445D02*
X119118416Y-90460859D01*
X115191212Y-88958445D02*
G75*
G02*
X115343613Y-88806050I152402J-7D01*
G01*
X115343613Y-90613259D02*
G75*
G02*
X115191207Y-90460859I1J152407D01*
G01*
X118966015Y-88806045D02*
G75*
G02*
X119118415Y-88958445I0J-152400D01*
G01*
X119118416Y-90460859D02*
G75*
G02*
X118966015Y-90613260I-152400J-1D01*
G01*
D17*
%TO.C,D2*%
X116693264Y-83548437D02*
X116889480Y-83548437D01*
D18*
X116693264Y-84896443D02*
X118145690Y-84896443D01*
X116693264Y-85300889D02*
X116693264Y-83548437D01*
D17*
X118145690Y-83548437D02*
X117939467Y-83548437D01*
D18*
X118145690Y-85300889D02*
X118145690Y-83548437D01*
%TO.C,C8*%
X123191212Y-88460859D02*
X123191212Y-86958445D01*
X123343613Y-86806045D02*
X124753620Y-86806045D01*
X124753620Y-88613259D02*
X123343613Y-88613259D01*
X125556008Y-88613259D02*
X126966015Y-88613259D01*
X126966015Y-86806045D02*
X125556008Y-86806045D01*
X127118416Y-88460859D02*
X127118416Y-86958445D01*
X123191212Y-86958445D02*
G75*
G02*
X123343613Y-86806044I152400J1D01*
G01*
X123343613Y-88613259D02*
G75*
G02*
X123191213Y-88460859I0J152400D01*
G01*
X126966015Y-86806045D02*
G75*
G02*
X127118421Y-86958445I-1J-152407D01*
G01*
X127118416Y-88460859D02*
G75*
G02*
X126966015Y-88613254I-152402J7D01*
G01*
D12*
%TO.C,U12*%
X129919401Y-83519609D02*
X129919401Y-84028473D01*
X129919401Y-101900864D02*
X129919401Y-102735662D01*
X129919401Y-102735662D02*
X132523287Y-102735662D01*
X145315591Y-102735662D02*
X147936444Y-102735662D01*
X147919452Y-83519609D02*
X129919401Y-83519609D01*
X147936444Y-84028473D02*
X147936444Y-83519609D01*
X147936444Y-102735662D02*
X147936444Y-101900864D01*
D17*
%TO.C,D29*%
X116773787Y-129598755D02*
X116970003Y-129598755D01*
D18*
X116773787Y-130946761D02*
X118226213Y-130946761D01*
X116773787Y-131351207D02*
X116773787Y-129598755D01*
D17*
X118226213Y-129598755D02*
X118019990Y-129598755D01*
D18*
X118226213Y-131351207D02*
X118226213Y-129598755D01*
D17*
%TO.C,D11*%
X139273787Y-129771348D02*
X139470003Y-129771348D01*
D18*
X139273787Y-131119354D02*
X140726213Y-131119354D01*
X139273787Y-131523800D02*
X139273787Y-129771348D01*
D17*
X140726213Y-129771348D02*
X140519990Y-129771348D01*
D18*
X140726213Y-131523800D02*
X140726213Y-129771348D01*
D12*
%TO.C,USB1*%
X118004644Y-82356007D02*
X118004644Y-80565176D01*
X118520849Y-82356007D02*
X118004644Y-82356007D01*
X120063496Y-82739217D02*
X119995652Y-82738963D01*
X123608225Y-82753289D02*
X123525751Y-82752959D01*
X125527351Y-80770840D02*
X125526513Y-80945415D01*
X125529637Y-80770485D02*
X125525929Y-80978257D01*
X125540102Y-80572517D02*
X125540102Y-82356007D01*
X125540102Y-82356007D02*
X125068347Y-82356007D01*
D13*
X125794636Y-82811887D02*
G75*
G02*
X125734692Y-82811887I-29972J0D01*
G01*
X125734692Y-82811887D02*
G75*
G02*
X125794636Y-82811887I29972J0D01*
G01*
D19*
%TO.C,TP7*%
X151200000Y-116500000D02*
G75*
G02*
X149800000Y-116500000I-700000J0D01*
G01*
X149800000Y-116500000D02*
G75*
G02*
X151200000Y-116500000I700000J0D01*
G01*
D18*
%TO.C,R4*%
X150393676Y-90082906D02*
X151678614Y-90082906D01*
X150393676Y-91917094D02*
X150393676Y-90082906D01*
X151678614Y-91917094D02*
X150393676Y-91917094D01*
X152631014Y-91917094D02*
X153915952Y-91917094D01*
X153915952Y-90082906D02*
X152631014Y-90082906D01*
X153915952Y-91917094D02*
X153915952Y-90082906D01*
D12*
%TO.C,BOOT1*%
X155604649Y-92434569D02*
X156499721Y-91539497D01*
X155604649Y-94984735D02*
X155604649Y-92434569D01*
X155604649Y-94984735D02*
X156499721Y-95879807D01*
X156353950Y-92810490D02*
X157255652Y-91908788D01*
X156353950Y-94710414D02*
X156353950Y-92810490D01*
X156986412Y-91159487D02*
X159323216Y-91159487D01*
X156986412Y-96259817D02*
X159323216Y-96259817D01*
X157154052Y-95510516D02*
X156353950Y-94710414D01*
X157255652Y-91908788D02*
X159053976Y-91908788D01*
X159053976Y-91908788D02*
X160054738Y-92909550D01*
X159153036Y-95510516D02*
X157154052Y-95510516D01*
X159809907Y-91539497D02*
X160704979Y-92434569D01*
X159809907Y-95879807D02*
X160704979Y-94984735D01*
X160054738Y-92909550D02*
X160054738Y-94608814D01*
X160054738Y-94608814D02*
X159153036Y-95510516D01*
X160704979Y-94984735D02*
X160704979Y-92434569D01*
X159429897Y-93709652D02*
G75*
G02*
X156879731Y-93709652I-1275083J0D01*
G01*
X156879731Y-93709652D02*
G75*
G02*
X159429897Y-93709652I1275083J0D01*
G01*
D18*
%TO.C,D13*%
X157148793Y-101773787D02*
X158901245Y-101773787D01*
X157148793Y-103226213D02*
X158901245Y-103226213D01*
X157553239Y-101773787D02*
X157553239Y-103226213D01*
D17*
X158901245Y-101773787D02*
X158901245Y-101970003D01*
X158901245Y-103226213D02*
X158901245Y-103019990D01*
D18*
%TO.C,C4*%
X160191212Y-85958445D02*
X160191212Y-87460859D01*
X160343613Y-87613259D02*
X161753620Y-87613259D01*
X161753620Y-85806045D02*
X160343613Y-85806045D01*
X162556008Y-85806045D02*
X163966015Y-85806045D01*
X163966015Y-87613259D02*
X162556008Y-87613259D01*
X164118416Y-85958445D02*
X164118416Y-87460859D01*
X160191212Y-85958445D02*
G75*
G02*
X160343613Y-85806050I152402J-7D01*
G01*
X160343613Y-87613259D02*
G75*
G02*
X160191207Y-87460859I1J152407D01*
G01*
X163966015Y-85806045D02*
G75*
G02*
X164118415Y-85958445I0J-152400D01*
G01*
X164118416Y-87460859D02*
G75*
G02*
X163966015Y-87613260I-152400J-1D01*
G01*
%TO.C,R7*%
X124710567Y-89211049D02*
X124710567Y-90208255D01*
X124710567Y-90208255D02*
X125428601Y-90208255D01*
X125428601Y-89211049D02*
X124710567Y-89211049D01*
X125881027Y-89211049D02*
X126599061Y-89211049D01*
X126599061Y-89211049D02*
X126599061Y-90208255D01*
X126599061Y-90208255D02*
X125881027Y-90208255D01*
%TO.C,R1*%
X114893676Y-96792558D02*
X114893676Y-98626746D01*
X114893676Y-98626746D02*
X116178614Y-98626746D01*
X116178614Y-96792558D02*
X114893676Y-96792558D01*
X117131014Y-96792558D02*
X118415952Y-96792558D01*
X118415952Y-96792558D02*
X118415952Y-98626746D01*
X118415952Y-98626746D02*
X117131014Y-98626746D01*
%TO.C,R9*%
X106502383Y-83188544D02*
X108336571Y-83188544D01*
X106502383Y-84473482D02*
X106502383Y-83188544D01*
X106502383Y-85425882D02*
X106502383Y-86710820D01*
X106502383Y-86710820D02*
X108336571Y-86710820D01*
X108336571Y-83188544D02*
X108336571Y-84473482D01*
X108336571Y-86710820D02*
X108336571Y-85425882D01*
D12*
%TO.C,RESET1*%
X159604649Y-79434569D02*
X159604649Y-81984735D01*
X160254890Y-79810490D02*
X161156592Y-78908788D01*
X160254890Y-81509754D02*
X160254890Y-79810490D01*
X160499721Y-78539497D02*
X159604649Y-79434569D01*
X160499721Y-82879807D02*
X159604649Y-81984735D01*
X161156592Y-78908788D02*
X163155576Y-78908788D01*
X161255652Y-82510516D02*
X160254890Y-81509754D01*
X163053976Y-82510516D02*
X161255652Y-82510516D01*
X163155576Y-78908788D02*
X163955678Y-79708890D01*
X163323216Y-78159487D02*
X160986412Y-78159487D01*
X163323216Y-83259817D02*
X160986412Y-83259817D01*
X163955678Y-79708890D02*
X163955678Y-81608814D01*
X163955678Y-81608814D02*
X163053976Y-82510516D01*
X164704979Y-79434569D02*
X163809907Y-78539497D01*
X164704979Y-79434569D02*
X164704979Y-81984735D01*
X164704979Y-81984735D02*
X163809907Y-82879807D01*
X163429897Y-80709652D02*
G75*
G02*
X160879731Y-80709652I-1275083J0D01*
G01*
X160879731Y-80709652D02*
G75*
G02*
X163429897Y-80709652I1275083J0D01*
G01*
D18*
%TO.C,R2*%
X109532868Y-110238862D02*
X109532868Y-111523800D01*
X109532868Y-113761138D02*
X109532868Y-112476200D01*
X111367056Y-110238862D02*
X109532868Y-110238862D01*
X111367056Y-111523800D02*
X111367056Y-110238862D01*
X111367056Y-112476200D02*
X111367056Y-113761138D01*
X111367056Y-113761138D02*
X109532868Y-113761138D01*
D17*
%TO.C,D9*%
X135273787Y-130598755D02*
X135470003Y-130598755D01*
D18*
X135273787Y-131946761D02*
X136726213Y-131946761D01*
X135273787Y-132351207D02*
X135273787Y-130598755D01*
D17*
X136726213Y-130598755D02*
X136519990Y-130598755D01*
D18*
X136726213Y-132351207D02*
X136726213Y-130598755D01*
D17*
%TO.C,D3*%
X114273787Y-122598755D02*
X114470003Y-122598755D01*
D18*
X114273787Y-123946761D02*
X115726213Y-123946761D01*
X114273787Y-124351207D02*
X114273787Y-122598755D01*
D17*
X115726213Y-122598755D02*
X115519990Y-122598755D01*
D18*
X115726213Y-124351207D02*
X115726213Y-122598755D01*
D19*
%TO.C,TP6*%
X167704814Y-83259652D02*
X170604814Y-83259652D01*
X167704814Y-86159652D02*
X167704814Y-83259652D01*
X170604814Y-83259652D02*
X170604814Y-86159652D01*
X170604814Y-86159652D02*
X167704814Y-86159652D01*
D17*
%TO.C,D26*%
X122773787Y-129098755D02*
X122970003Y-129098755D01*
D18*
X122773787Y-130446761D02*
X124226213Y-130446761D01*
X122773787Y-130851207D02*
X122773787Y-129098755D01*
D17*
X124226213Y-129098755D02*
X124019990Y-129098755D01*
D18*
X124226213Y-130851207D02*
X124226213Y-129098755D01*
D17*
%TO.C,D1*%
X128773787Y-129098755D02*
X128970003Y-129098755D01*
D18*
X128773787Y-130446761D02*
X130226213Y-130446761D01*
X128773787Y-130851207D02*
X128773787Y-129098755D01*
D17*
X130226213Y-129098755D02*
X130019990Y-129098755D01*
D18*
X130226213Y-130851207D02*
X130226213Y-129098755D01*
%TO.C,R3*%
X109532868Y-114238862D02*
X109532868Y-115523800D01*
X109532868Y-117761138D02*
X109532868Y-116476200D01*
X111367056Y-114238862D02*
X109532868Y-114238862D01*
X111367056Y-115523800D02*
X111367056Y-114238862D01*
X111367056Y-116476200D02*
X111367056Y-117761138D01*
X111367056Y-117761138D02*
X109532868Y-117761138D01*
D17*
%TO.C,D8*%
X133273787Y-130598755D02*
X133470003Y-130598755D01*
D18*
X133273787Y-131946761D02*
X134726213Y-131946761D01*
X133273787Y-132351207D02*
X133273787Y-130598755D01*
D17*
X134726213Y-130598755D02*
X134519990Y-130598755D01*
D18*
X134726213Y-132351207D02*
X134726213Y-130598755D01*
D17*
%TO.C,D4*%
X112273787Y-122598755D02*
X112470003Y-122598755D01*
D18*
X112273787Y-123946761D02*
X113726213Y-123946761D01*
X112273787Y-124351207D02*
X112273787Y-122598755D01*
D17*
X113726213Y-122598755D02*
X113519990Y-122598755D01*
D18*
X113726213Y-124351207D02*
X113726213Y-122598755D01*
%TO.C,U5*%
X158778588Y-104823800D02*
X163221412Y-104823800D01*
X158778588Y-115176200D02*
X158778588Y-104823800D01*
X163221412Y-104823800D02*
X163221412Y-115176200D01*
X163221412Y-115176200D02*
X158778588Y-115176200D01*
D16*
X158150114Y-105000000D02*
G75*
G02*
X157849886Y-105000000I-150114J0D01*
G01*
X157849886Y-105000000D02*
G75*
G02*
X158150114Y-105000000I150114J0D01*
G01*
D18*
%TO.C,C13*%
X123191212Y-91458445D02*
X123191212Y-92960859D01*
X123343613Y-93113259D02*
X124753620Y-93113259D01*
X124753620Y-91306045D02*
X123343613Y-91306045D01*
X125556008Y-91306045D02*
X126966015Y-91306045D01*
X126966015Y-93113259D02*
X125556008Y-93113259D01*
X127118416Y-91458445D02*
X127118416Y-92960859D01*
X123191212Y-91458445D02*
G75*
G02*
X123343613Y-91306050I152402J-7D01*
G01*
X123343613Y-93113259D02*
G75*
G02*
X123191207Y-92960859I1J152407D01*
G01*
X126966015Y-91306045D02*
G75*
G02*
X127118415Y-91458445I0J-152400D01*
G01*
X127118416Y-92960859D02*
G75*
G02*
X126966015Y-93113260I-152400J-1D01*
G01*
%TO.C,C2*%
X155691212Y-87960859D02*
X155691212Y-86458445D01*
X155843613Y-86306045D02*
X157253620Y-86306045D01*
X157253620Y-88113259D02*
X155843613Y-88113259D01*
X158056008Y-88113259D02*
X159466015Y-88113259D01*
X159466015Y-86306045D02*
X158056008Y-86306045D01*
X159618416Y-87960859D02*
X159618416Y-86458445D01*
X155691212Y-86458445D02*
G75*
G02*
X155843613Y-86306044I152400J1D01*
G01*
X155843613Y-88113259D02*
G75*
G02*
X155691213Y-87960859I0J152400D01*
G01*
X159466015Y-86306045D02*
G75*
G02*
X159618421Y-86458445I-1J-152407D01*
G01*
X159618416Y-87960859D02*
G75*
G02*
X159466015Y-88113254I-152402J7D01*
G01*
%TO.C,C6*%
X115691212Y-103248793D02*
X115691212Y-104751207D01*
X115843613Y-104903607D02*
X117253620Y-104903607D01*
X117253620Y-103096393D02*
X115843613Y-103096393D01*
X118056008Y-103096393D02*
X119466015Y-103096393D01*
X119466015Y-104903607D02*
X118056008Y-104903607D01*
X119618416Y-103248793D02*
X119618416Y-104751207D01*
X115691212Y-103248793D02*
G75*
G02*
X115843613Y-103096398I152402J-7D01*
G01*
X115843613Y-104903607D02*
G75*
G02*
X115691207Y-104751207I1J152407D01*
G01*
X119466015Y-103096393D02*
G75*
G02*
X119618415Y-103248793I0J-152400D01*
G01*
X119618416Y-104751207D02*
G75*
G02*
X119466015Y-104903608I-152400J-1D01*
G01*
%TO.C,D22*%
X166303607Y-89483439D02*
X168056059Y-89483439D01*
X166303607Y-90935865D02*
X168056059Y-90935865D01*
X166708053Y-89483439D02*
X166708053Y-90935865D01*
D17*
X168056059Y-89483439D02*
X168056059Y-89679655D01*
X168056059Y-90935865D02*
X168056059Y-90729642D01*
D18*
%TO.C,C10*%
X155691212Y-100460859D02*
X155691212Y-98958445D01*
X155843613Y-98806045D02*
X157253620Y-98806045D01*
X157253620Y-100613259D02*
X155843613Y-100613259D01*
X158056008Y-100613259D02*
X159466015Y-100613259D01*
X159466015Y-98806045D02*
X158056008Y-98806045D01*
X159618416Y-100460859D02*
X159618416Y-98958445D01*
X155691212Y-98958445D02*
G75*
G02*
X155843613Y-98806044I152400J1D01*
G01*
X155843613Y-100613259D02*
G75*
G02*
X155691213Y-100460859I0J152400D01*
G01*
X159466015Y-98806045D02*
G75*
G02*
X159618421Y-98958445I-1J-152407D01*
G01*
X159618416Y-100460859D02*
G75*
G02*
X159466015Y-100613254I-152402J7D01*
G01*
D12*
%TO.C,LED1*%
X110376805Y-81682600D02*
X110783206Y-81276200D01*
X110376805Y-83155803D02*
X110376805Y-81682600D01*
X110402205Y-83943205D02*
X110402205Y-85492608D01*
X110402205Y-85492608D02*
X112434209Y-85492608D01*
X110783206Y-81276200D02*
X112053208Y-81276200D01*
X111319223Y-83299974D02*
X110919223Y-83699974D01*
X111419477Y-83199974D02*
X111319223Y-83299974D01*
X111519477Y-83299974D02*
X111419477Y-83199974D01*
X111919477Y-83699974D02*
X110919223Y-83699974D01*
X111919477Y-83699974D02*
X111519477Y-83299974D01*
X112053208Y-81276200D02*
X112434209Y-81657200D01*
X112434209Y-81657200D02*
X112434209Y-83181203D01*
X112434209Y-85492608D02*
X112434209Y-83943205D01*
D17*
%TO.C,D23*%
X120428601Y-88308407D02*
X120624817Y-88308407D01*
D18*
X120428601Y-89656413D02*
X121881027Y-89656413D01*
X120428601Y-90060859D02*
X120428601Y-88308407D01*
D17*
X121881027Y-88308407D02*
X121674804Y-88308407D01*
D18*
X121881027Y-90060859D02*
X121881027Y-88308407D01*
D17*
%TO.C,D28*%
X118773787Y-129098755D02*
X118970003Y-129098755D01*
D18*
X118773787Y-130446761D02*
X120226213Y-130446761D01*
X118773787Y-130851207D02*
X118773787Y-129098755D01*
D17*
X120226213Y-129098755D02*
X120019990Y-129098755D01*
D18*
X120226213Y-130851207D02*
X120226213Y-129098755D01*
%TO.C,R10*%
X114893676Y-94292558D02*
X114893676Y-96126746D01*
X114893676Y-96126746D02*
X116178614Y-96126746D01*
X116178614Y-94292558D02*
X114893676Y-94292558D01*
X117131014Y-94292558D02*
X118415952Y-94292558D01*
X118415952Y-94292558D02*
X118415952Y-96126746D01*
X118415952Y-96126746D02*
X117131014Y-96126746D01*
%TO.C,C5*%
X115191212Y-91458445D02*
X115191212Y-92960859D01*
X115343613Y-93113259D02*
X116753620Y-93113259D01*
X116753620Y-91306045D02*
X115343613Y-91306045D01*
X117556008Y-91306045D02*
X118966015Y-91306045D01*
X118966015Y-93113259D02*
X117556008Y-93113259D01*
X119118416Y-91458445D02*
X119118416Y-92960859D01*
X115191212Y-91458445D02*
G75*
G02*
X115343613Y-91306050I152402J-7D01*
G01*
X115343613Y-93113259D02*
G75*
G02*
X115191207Y-92960859I1J152407D01*
G01*
X118966015Y-91306045D02*
G75*
G02*
X119118415Y-91458445I0J-152400D01*
G01*
X119118416Y-92960859D02*
G75*
G02*
X118966015Y-93113260I-152400J-1D01*
G01*
%TO.C,U3*%
X106273787Y-110473787D02*
X107726213Y-110473787D01*
X106273787Y-112455398D02*
X106273787Y-111544602D01*
X106273787Y-113526213D02*
X107726213Y-113526213D01*
X107726213Y-110473787D02*
X107726213Y-111505410D01*
X107726213Y-113526213D02*
X107726213Y-112494590D01*
D13*
X105829997Y-110549987D02*
G75*
G02*
X105770003Y-110549987I-29997J0D01*
G01*
X105770003Y-110549987D02*
G75*
G02*
X105829997Y-110549987I29997J0D01*
G01*
D17*
%TO.C,D7*%
X131273787Y-129098755D02*
X131470003Y-129098755D01*
D18*
X131273787Y-130446761D02*
X132726213Y-130446761D01*
X131273787Y-130851207D02*
X131273787Y-129098755D01*
D17*
X132726213Y-129098755D02*
X132519990Y-129098755D01*
D18*
X132726213Y-130851207D02*
X132726213Y-129098755D01*
%TO.C,U9*%
X108083389Y-102883439D02*
X111026188Y-102883439D01*
X108083389Y-109535865D02*
X108083389Y-102883439D01*
X111026188Y-102883439D02*
X111026188Y-109535865D01*
X111026188Y-109535865D02*
X108083389Y-109535865D01*
D13*
X113084888Y-109459588D02*
G75*
G02*
X113024944Y-109459588I-29972J0D01*
G01*
X113024944Y-109459588D02*
G75*
G02*
X113084888Y-109459588I29972J0D01*
G01*
D17*
%TO.C,D12*%
X141273787Y-129098755D02*
X141470003Y-129098755D01*
D18*
X141273787Y-130446761D02*
X142726213Y-130446761D01*
X141273787Y-130851207D02*
X141273787Y-129098755D01*
D17*
X142726213Y-129098755D02*
X142519990Y-129098755D01*
D18*
X142726213Y-130851207D02*
X142726213Y-129098755D01*
D19*
%TO.C,TP1*%
X151200000Y-107500000D02*
G75*
G02*
X149800000Y-107500000I-700000J0D01*
G01*
X149800000Y-107500000D02*
G75*
G02*
X151200000Y-107500000I700000J0D01*
G01*
%TO.C,TP4*%
X126800000Y-103800000D02*
X129200000Y-103800000D01*
X126800000Y-106200000D02*
X126800000Y-103800000D01*
X129200000Y-103800000D02*
X129200000Y-106200000D01*
X129200000Y-106200000D02*
X126800000Y-106200000D01*
%TD*%
%LPC*%
D20*
%TO.C,U13*%
X139500128Y-124000000D03*
X131000000Y-124000000D03*
D21*
X138500128Y-126500128D03*
X138000000Y-126500128D03*
X137500128Y-126500128D03*
X137000000Y-126500128D03*
X136500128Y-126500128D03*
X136000000Y-126500128D03*
X135500128Y-126500128D03*
X135000000Y-126500128D03*
X134500128Y-126500128D03*
X134000000Y-126500128D03*
X133500128Y-126500128D03*
X133000000Y-126500128D03*
X132500128Y-126500128D03*
X132000000Y-126500128D03*
%TD*%
D22*
%TO.C,U11*%
X142249936Y-108249936D03*
D23*
X144750064Y-113750064D03*
X144750064Y-113249936D03*
X144750064Y-112750064D03*
X144750064Y-112249936D03*
X144750064Y-111750064D03*
X144750064Y-111249936D03*
X144750064Y-110750064D03*
X144750064Y-110249936D03*
X144750064Y-109750064D03*
X144750064Y-109249936D03*
D22*
X142249936Y-114750064D03*
%TD*%
D24*
%TO.C,U10*%
X126000128Y-123999872D03*
D25*
X120500000Y-126500000D03*
X121000128Y-126500000D03*
X121500000Y-126500000D03*
X122000128Y-126500000D03*
X122500000Y-126500000D03*
X123000128Y-126500000D03*
X123500000Y-126500000D03*
X124000128Y-126500000D03*
X124500000Y-126500000D03*
X125000128Y-126500000D03*
D24*
X119500000Y-123999872D03*
%TD*%
D22*
%TO.C,U6*%
X118000128Y-116250064D03*
D23*
X115500000Y-110749936D03*
X115500000Y-111250064D03*
X115500000Y-111749936D03*
X115500000Y-112250064D03*
X115500000Y-112749936D03*
X115500000Y-113250064D03*
X115500000Y-113749936D03*
X115500000Y-114250064D03*
X115500000Y-114749936D03*
X115500000Y-115250064D03*
D22*
X118000128Y-109749936D03*
%TD*%
D26*
%TO.C,U4*%
X114000000Y-129500000D03*
X114000000Y-128999873D03*
X114000000Y-128500000D03*
X114000000Y-127999873D03*
X114000000Y-127500000D03*
D27*
X113000000Y-126500000D03*
X112499873Y-126500000D03*
X112000000Y-126500000D03*
X111499873Y-126500000D03*
X111000000Y-126500000D03*
D26*
X110000000Y-127500000D03*
X110000000Y-127999873D03*
X110000000Y-128500000D03*
X110000000Y-128999873D03*
X110000000Y-129500000D03*
D27*
X111000000Y-130500000D03*
X111499873Y-130500000D03*
X112000000Y-130500000D03*
X112499873Y-130500000D03*
X113000000Y-130500000D03*
D28*
X112000000Y-128500000D03*
%TD*%
D29*
%TO.C,D24*%
X117000000Y-124672593D03*
X117000000Y-122327407D03*
%TD*%
%TO.C,D25*%
X125500000Y-131172593D03*
X125500000Y-128827407D03*
%TD*%
D27*
%TO.C,U1*%
X150000000Y-125000000D03*
X149499873Y-125000000D03*
X149000000Y-125000000D03*
X148499873Y-125000000D03*
X148000000Y-125000000D03*
D26*
X147000000Y-126000000D03*
X147000000Y-126500127D03*
X147000000Y-127000000D03*
X147000000Y-127500127D03*
X147000000Y-128000000D03*
D27*
X148000000Y-129000000D03*
X148499873Y-129000000D03*
X149000000Y-129000000D03*
X149499873Y-129000000D03*
X150000000Y-129000000D03*
D26*
X151000000Y-128000000D03*
X151000000Y-127500127D03*
X151000000Y-127000000D03*
X151000000Y-126500127D03*
X151000000Y-126000000D03*
D28*
X149000000Y-127000000D03*
%TD*%
D30*
%TO.C,C11*%
X124154814Y-85209652D03*
X126154814Y-85209652D03*
%TD*%
%TO.C,C1*%
X113154814Y-100709652D03*
X111154814Y-100709652D03*
%TD*%
D29*
%TO.C,D10*%
X138000000Y-132172593D03*
X138000000Y-129827407D03*
%TD*%
D23*
%TO.C,U7*%
X144495046Y-117974980D03*
X144495046Y-118474853D03*
X144495046Y-118974980D03*
X144495046Y-119474853D03*
D31*
X142000000Y-120500000D03*
X142000000Y-116950088D03*
%TD*%
D29*
%TO.C,D27*%
X121500000Y-131172593D03*
X121500000Y-128827407D03*
%TD*%
%TO.C,D20*%
X127500000Y-131172593D03*
X127500000Y-128827407D03*
%TD*%
D32*
%TO.C,MODE1*%
X153154814Y-84209652D03*
X153154789Y-77609702D03*
X156855221Y-84209652D03*
X156855196Y-77609702D03*
%TD*%
D33*
%TO.C,TP2*%
X150500000Y-110500000D03*
%TD*%
D34*
%TO.C,TP17*%
X114500000Y-80000000D03*
%TD*%
D29*
%TO.C,D5*%
X111000000Y-124672593D03*
X111000000Y-122327407D03*
%TD*%
D35*
%TO.C,D21*%
X165982221Y-92709652D03*
X168327407Y-92709652D03*
%TD*%
D33*
%TO.C,TP8*%
X150500000Y-119500000D03*
%TD*%
D29*
%TO.C,D6*%
X109000000Y-124672593D03*
X109000000Y-122327407D03*
%TD*%
D30*
%TO.C,C9*%
X118654814Y-101500000D03*
X116654814Y-101500000D03*
%TD*%
D36*
%TO.C,U2*%
X112527306Y-97654661D03*
X112527306Y-96384658D03*
X112527306Y-95114656D03*
X112527306Y-93844653D03*
X112527306Y-92574651D03*
X112527306Y-91304648D03*
X112527306Y-90034646D03*
X112527306Y-88764643D03*
X106782322Y-88764643D03*
X106782322Y-90034646D03*
X106782322Y-91304648D03*
X106782322Y-92574651D03*
X106782322Y-93844653D03*
X106782322Y-95114656D03*
X106782322Y-96384658D03*
X106782322Y-97654661D03*
%TD*%
D33*
%TO.C,TP3*%
X150500000Y-113500000D03*
%TD*%
D37*
%TO.C,U8*%
X105949962Y-115000000D03*
X105949962Y-116899924D03*
X107949962Y-115949962D03*
%TD*%
D38*
%TO.C,R5*%
X151000000Y-87209652D03*
X153000000Y-87209652D03*
%TD*%
D39*
%TO.C,TP5*%
X169154814Y-96709652D03*
%TD*%
D30*
%TO.C,C12*%
X118154814Y-89709652D03*
X116154814Y-89709652D03*
%TD*%
D29*
%TO.C,D2*%
X117419477Y-85622275D03*
X117419477Y-83277089D03*
%TD*%
D30*
%TO.C,C8*%
X124154814Y-87709652D03*
X126154814Y-87709652D03*
%TD*%
D40*
%TO.C,U12*%
X129919223Y-84709652D03*
X129919223Y-85979655D03*
X129919223Y-87249657D03*
X129919223Y-88519660D03*
X129919223Y-89789662D03*
X129919223Y-91059665D03*
X129919223Y-92329667D03*
X129919223Y-93599670D03*
X129919223Y-94869672D03*
X129919223Y-96139675D03*
X129919223Y-97409677D03*
X129919223Y-98679680D03*
X129919223Y-99949682D03*
X129919223Y-101219685D03*
D41*
X133204466Y-102714732D03*
X134474468Y-102714732D03*
X135744471Y-102714732D03*
X137014473Y-102714732D03*
X138284476Y-102714732D03*
X139554478Y-102714732D03*
X140824481Y-102714732D03*
X142094483Y-102714732D03*
X143364486Y-102714732D03*
X144634488Y-102714732D03*
D40*
X147919477Y-101219685D03*
X147919477Y-99949682D03*
X147919477Y-98679680D03*
X147919477Y-97409677D03*
X147919477Y-96139675D03*
X147919477Y-94869672D03*
X147919477Y-93599670D03*
X147919477Y-92329667D03*
X147919477Y-91059665D03*
X147919477Y-89789662D03*
X147919477Y-88519660D03*
X147919477Y-87249657D03*
X147919477Y-85979655D03*
X147919477Y-84709652D03*
D42*
X138819401Y-90990577D03*
X137419350Y-90990577D03*
X136019299Y-90990577D03*
X138819401Y-92390627D03*
X137419096Y-92390627D03*
X136019299Y-92390627D03*
X138819401Y-93790678D03*
X137419350Y-93790678D03*
X136019299Y-93790678D03*
%TD*%
D29*
%TO.C,D29*%
X117500000Y-131672593D03*
X117500000Y-129327407D03*
%TD*%
%TO.C,D11*%
X140000000Y-131845186D03*
X140000000Y-129500000D03*
%TD*%
D43*
%TO.C,USB1*%
X123094611Y-82642468D03*
X122444623Y-82642468D03*
X121794636Y-82642468D03*
X121144649Y-82642468D03*
X120494661Y-82642468D03*
D44*
X119369693Y-82119989D03*
D45*
X118169795Y-79449682D03*
X125419477Y-79449682D03*
D44*
X124219579Y-82119735D03*
%TD*%
D33*
%TO.C,TP7*%
X150500000Y-116500000D03*
%TD*%
D38*
%TO.C,R4*%
X151154814Y-91000000D03*
X153154814Y-91000000D03*
%TD*%
D32*
%TO.C,BOOT1*%
X156304623Y-97009627D03*
X156304598Y-90409677D03*
X160005030Y-97009627D03*
X160005005Y-90409677D03*
%TD*%
D35*
%TO.C,D13*%
X156827407Y-102500000D03*
X159172593Y-102500000D03*
%TD*%
D30*
%TO.C,C4*%
X163154814Y-86709652D03*
X161154814Y-86709652D03*
%TD*%
D46*
%TO.C,R7*%
X126087631Y-89709652D03*
X125221997Y-89709652D03*
%TD*%
D38*
%TO.C,R1*%
X117654814Y-97709652D03*
X115654814Y-97709652D03*
%TD*%
D47*
%TO.C,R9*%
X107419477Y-83949682D03*
X107419477Y-85949682D03*
%TD*%
D32*
%TO.C,RESET1*%
X164005005Y-77409677D03*
X164005030Y-84009627D03*
X160304598Y-77409677D03*
X160304623Y-84009627D03*
%TD*%
D47*
%TO.C,R2*%
X110449962Y-113000000D03*
X110449962Y-111000000D03*
%TD*%
D29*
%TO.C,D9*%
X136000000Y-132672593D03*
X136000000Y-130327407D03*
%TD*%
%TO.C,D3*%
X115000000Y-124672593D03*
X115000000Y-122327407D03*
%TD*%
D39*
%TO.C,TP6*%
X169154814Y-84709652D03*
%TD*%
D29*
%TO.C,D26*%
X123500000Y-131172593D03*
X123500000Y-128827407D03*
%TD*%
%TO.C,D1*%
X129500000Y-131172593D03*
X129500000Y-128827407D03*
%TD*%
D47*
%TO.C,R3*%
X110449962Y-117000000D03*
X110449962Y-115000000D03*
%TD*%
D29*
%TO.C,D8*%
X134000000Y-132672593D03*
X134000000Y-130327407D03*
%TD*%
%TO.C,D4*%
X113000000Y-124672593D03*
X113000000Y-122327407D03*
%TD*%
D48*
%TO.C,U5*%
X157434595Y-106189992D03*
X157434595Y-107459995D03*
X157434595Y-108729997D03*
X157434595Y-110000000D03*
X157434595Y-111270003D03*
X157434595Y-112540005D03*
X157434595Y-113810008D03*
X164565405Y-113810008D03*
X164565405Y-112540005D03*
X164565405Y-111270003D03*
X164565405Y-110000000D03*
X164565405Y-108729997D03*
X164565405Y-107459995D03*
X164565405Y-106189992D03*
%TD*%
D30*
%TO.C,C13*%
X126154814Y-92209652D03*
X124154814Y-92209652D03*
%TD*%
%TO.C,C2*%
X156654814Y-87209652D03*
X158654814Y-87209652D03*
%TD*%
%TO.C,C6*%
X118654814Y-104000000D03*
X116654814Y-104000000D03*
%TD*%
D35*
%TO.C,D22*%
X165982221Y-90209652D03*
X168327407Y-90209652D03*
%TD*%
D30*
%TO.C,C10*%
X156654814Y-99709652D03*
X158654814Y-99709652D03*
%TD*%
D49*
%TO.C,LED1*%
X111419477Y-84550266D03*
X111419477Y-82449682D03*
%TD*%
D29*
%TO.C,D23*%
X121154814Y-90382245D03*
X121154814Y-88037059D03*
%TD*%
%TO.C,D28*%
X119500000Y-131172593D03*
X119500000Y-128827407D03*
%TD*%
D38*
%TO.C,R10*%
X117654814Y-95209652D03*
X115654814Y-95209652D03*
%TD*%
D30*
%TO.C,C5*%
X118154814Y-92209652D03*
X116154814Y-92209652D03*
%TD*%
D37*
%TO.C,U3*%
X106000000Y-111050038D03*
X106000000Y-112949962D03*
X108000000Y-112000000D03*
%TD*%
D29*
%TO.C,D7*%
X132000000Y-131172593D03*
X132000000Y-128827407D03*
%TD*%
D50*
%TO.C,U9*%
X112624766Y-108509627D03*
X112624766Y-106209652D03*
X112624766Y-103909677D03*
D51*
X106684837Y-106209652D03*
%TD*%
D29*
%TO.C,D12*%
X142000000Y-131172593D03*
X142000000Y-128827407D03*
%TD*%
D33*
%TO.C,TP1*%
X150500000Y-107500000D03*
%TD*%
D34*
%TO.C,TP4*%
X128000000Y-105000000D03*
%TD*%
%LPD*%
M02*
