%TF.GenerationSoftware,KiCad,Pcbnew,8.0.4*%
%TF.CreationDate,2024-10-20T21:45:34+01:00*%
%TF.ProjectId,esp32-c,65737033-322d-4632-9e6b-696361645f70,rev?*%
%TF.SameCoordinates,Original*%
%TF.FileFunction,Legend,Bot*%
%TF.FilePolarity,Positive*%
%FSLAX46Y46*%
G04 Gerber Fmt 4.6, Leading zero omitted, Abs format (unit mm)*
G04 Created by KiCad (PCBNEW 8.0.4) date 2024-10-20 21:45:34*
%MOMM*%
%LPD*%
G01*
G04 APERTURE LIST*
%ADD10C,0.100000*%
%ADD11C,0.120000*%
%ADD12C,1.300000*%
%ADD13O,1.300000X1.800000*%
%ADD14R,1.500000X1.500000*%
G04 APERTURE END LIST*
D10*
X136124687Y-124372419D02*
X136458020Y-123896228D01*
X136696115Y-124372419D02*
X136696115Y-123372419D01*
X136696115Y-123372419D02*
X136315163Y-123372419D01*
X136315163Y-123372419D02*
X136219925Y-123420038D01*
X136219925Y-123420038D02*
X136172306Y-123467657D01*
X136172306Y-123467657D02*
X136124687Y-123562895D01*
X136124687Y-123562895D02*
X136124687Y-123705752D01*
X136124687Y-123705752D02*
X136172306Y-123800990D01*
X136172306Y-123800990D02*
X136219925Y-123848609D01*
X136219925Y-123848609D02*
X136315163Y-123896228D01*
X136315163Y-123896228D02*
X136696115Y-123896228D01*
X135696115Y-124372419D02*
X135696115Y-123705752D01*
X135696115Y-123372419D02*
X135743734Y-123420038D01*
X135743734Y-123420038D02*
X135696115Y-123467657D01*
X135696115Y-123467657D02*
X135648496Y-123420038D01*
X135648496Y-123420038D02*
X135696115Y-123372419D01*
X135696115Y-123372419D02*
X135696115Y-123467657D01*
X134791354Y-123705752D02*
X134791354Y-124515276D01*
X134791354Y-124515276D02*
X134838973Y-124610514D01*
X134838973Y-124610514D02*
X134886592Y-124658133D01*
X134886592Y-124658133D02*
X134981830Y-124705752D01*
X134981830Y-124705752D02*
X135124687Y-124705752D01*
X135124687Y-124705752D02*
X135219925Y-124658133D01*
X134791354Y-124324800D02*
X134886592Y-124372419D01*
X134886592Y-124372419D02*
X135077068Y-124372419D01*
X135077068Y-124372419D02*
X135172306Y-124324800D01*
X135172306Y-124324800D02*
X135219925Y-124277180D01*
X135219925Y-124277180D02*
X135267544Y-124181942D01*
X135267544Y-124181942D02*
X135267544Y-123896228D01*
X135267544Y-123896228D02*
X135219925Y-123800990D01*
X135219925Y-123800990D02*
X135172306Y-123753371D01*
X135172306Y-123753371D02*
X135077068Y-123705752D01*
X135077068Y-123705752D02*
X134886592Y-123705752D01*
X134886592Y-123705752D02*
X134791354Y-123753371D01*
X134315163Y-124372419D02*
X134315163Y-123372419D01*
X133886592Y-124372419D02*
X133886592Y-123848609D01*
X133886592Y-123848609D02*
X133934211Y-123753371D01*
X133934211Y-123753371D02*
X134029449Y-123705752D01*
X134029449Y-123705752D02*
X134172306Y-123705752D01*
X134172306Y-123705752D02*
X134267544Y-123753371D01*
X134267544Y-123753371D02*
X134315163Y-123800990D01*
X133553258Y-123705752D02*
X133172306Y-123705752D01*
X133410401Y-123372419D02*
X133410401Y-124229561D01*
X133410401Y-124229561D02*
X133362782Y-124324800D01*
X133362782Y-124324800D02*
X133267544Y-124372419D01*
X133267544Y-124372419D02*
X133172306Y-124372419D01*
X124338972Y-100872419D02*
X123767544Y-100872419D01*
X124053258Y-101872419D02*
X124053258Y-100872419D01*
X123529448Y-100872419D02*
X122862782Y-101872419D01*
X122862782Y-100872419D02*
X123529448Y-101872419D01*
X133196115Y-91872419D02*
X133196115Y-90872419D01*
X132529449Y-90872419D02*
X132338973Y-90872419D01*
X132338973Y-90872419D02*
X132243735Y-90920038D01*
X132243735Y-90920038D02*
X132148497Y-91015276D01*
X132148497Y-91015276D02*
X132100878Y-91205752D01*
X132100878Y-91205752D02*
X132100878Y-91539085D01*
X132100878Y-91539085D02*
X132148497Y-91729561D01*
X132148497Y-91729561D02*
X132243735Y-91824800D01*
X132243735Y-91824800D02*
X132338973Y-91872419D01*
X132338973Y-91872419D02*
X132529449Y-91872419D01*
X132529449Y-91872419D02*
X132624687Y-91824800D01*
X132624687Y-91824800D02*
X132719925Y-91729561D01*
X132719925Y-91729561D02*
X132767544Y-91539085D01*
X132767544Y-91539085D02*
X132767544Y-91205752D01*
X132767544Y-91205752D02*
X132719925Y-91015276D01*
X132719925Y-91015276D02*
X132624687Y-90920038D01*
X132624687Y-90920038D02*
X132529449Y-90872419D01*
X131767544Y-90872419D02*
X131148497Y-90872419D01*
X131148497Y-90872419D02*
X131481830Y-91253371D01*
X131481830Y-91253371D02*
X131338973Y-91253371D01*
X131338973Y-91253371D02*
X131243735Y-91300990D01*
X131243735Y-91300990D02*
X131196116Y-91348609D01*
X131196116Y-91348609D02*
X131148497Y-91443847D01*
X131148497Y-91443847D02*
X131148497Y-91681942D01*
X131148497Y-91681942D02*
X131196116Y-91777180D01*
X131196116Y-91777180D02*
X131243735Y-91824800D01*
X131243735Y-91824800D02*
X131338973Y-91872419D01*
X131338973Y-91872419D02*
X131624687Y-91872419D01*
X131624687Y-91872419D02*
X131719925Y-91824800D01*
X131719925Y-91824800D02*
X131767544Y-91777180D01*
X130767544Y-90967657D02*
X130719925Y-90920038D01*
X130719925Y-90920038D02*
X130624687Y-90872419D01*
X130624687Y-90872419D02*
X130386592Y-90872419D01*
X130386592Y-90872419D02*
X130291354Y-90920038D01*
X130291354Y-90920038D02*
X130243735Y-90967657D01*
X130243735Y-90967657D02*
X130196116Y-91062895D01*
X130196116Y-91062895D02*
X130196116Y-91158133D01*
X130196116Y-91158133D02*
X130243735Y-91300990D01*
X130243735Y-91300990D02*
X130815163Y-91872419D01*
X130815163Y-91872419D02*
X130196116Y-91872419D01*
X123624687Y-94372419D02*
X123958020Y-93896228D01*
X124196115Y-94372419D02*
X124196115Y-93372419D01*
X124196115Y-93372419D02*
X123815163Y-93372419D01*
X123815163Y-93372419D02*
X123719925Y-93420038D01*
X123719925Y-93420038D02*
X123672306Y-93467657D01*
X123672306Y-93467657D02*
X123624687Y-93562895D01*
X123624687Y-93562895D02*
X123624687Y-93705752D01*
X123624687Y-93705752D02*
X123672306Y-93800990D01*
X123672306Y-93800990D02*
X123719925Y-93848609D01*
X123719925Y-93848609D02*
X123815163Y-93896228D01*
X123815163Y-93896228D02*
X124196115Y-93896228D01*
X123291353Y-93372419D02*
X122624687Y-94372419D01*
X122624687Y-93372419D02*
X123291353Y-94372419D01*
X133696115Y-98372419D02*
X133696115Y-97372419D01*
X133029449Y-97372419D02*
X132838973Y-97372419D01*
X132838973Y-97372419D02*
X132743735Y-97420038D01*
X132743735Y-97420038D02*
X132648497Y-97515276D01*
X132648497Y-97515276D02*
X132600878Y-97705752D01*
X132600878Y-97705752D02*
X132600878Y-98039085D01*
X132600878Y-98039085D02*
X132648497Y-98229561D01*
X132648497Y-98229561D02*
X132743735Y-98324800D01*
X132743735Y-98324800D02*
X132838973Y-98372419D01*
X132838973Y-98372419D02*
X133029449Y-98372419D01*
X133029449Y-98372419D02*
X133124687Y-98324800D01*
X133124687Y-98324800D02*
X133219925Y-98229561D01*
X133219925Y-98229561D02*
X133267544Y-98039085D01*
X133267544Y-98039085D02*
X133267544Y-97705752D01*
X133267544Y-97705752D02*
X133219925Y-97515276D01*
X133219925Y-97515276D02*
X133124687Y-97420038D01*
X133124687Y-97420038D02*
X133029449Y-97372419D01*
X132219925Y-97467657D02*
X132172306Y-97420038D01*
X132172306Y-97420038D02*
X132077068Y-97372419D01*
X132077068Y-97372419D02*
X131838973Y-97372419D01*
X131838973Y-97372419D02*
X131743735Y-97420038D01*
X131743735Y-97420038D02*
X131696116Y-97467657D01*
X131696116Y-97467657D02*
X131648497Y-97562895D01*
X131648497Y-97562895D02*
X131648497Y-97658133D01*
X131648497Y-97658133D02*
X131696116Y-97800990D01*
X131696116Y-97800990D02*
X132267544Y-98372419D01*
X132267544Y-98372419D02*
X131648497Y-98372419D01*
X130743735Y-97372419D02*
X131219925Y-97372419D01*
X131219925Y-97372419D02*
X131267544Y-97848609D01*
X131267544Y-97848609D02*
X131219925Y-97800990D01*
X131219925Y-97800990D02*
X131124687Y-97753371D01*
X131124687Y-97753371D02*
X130886592Y-97753371D01*
X130886592Y-97753371D02*
X130791354Y-97800990D01*
X130791354Y-97800990D02*
X130743735Y-97848609D01*
X130743735Y-97848609D02*
X130696116Y-97943847D01*
X130696116Y-97943847D02*
X130696116Y-98181942D01*
X130696116Y-98181942D02*
X130743735Y-98277180D01*
X130743735Y-98277180D02*
X130791354Y-98324800D01*
X130791354Y-98324800D02*
X130886592Y-98372419D01*
X130886592Y-98372419D02*
X131124687Y-98372419D01*
X131124687Y-98372419D02*
X131219925Y-98324800D01*
X131219925Y-98324800D02*
X131267544Y-98277180D01*
X128196115Y-102872419D02*
X128196115Y-101872419D01*
X127529449Y-101872419D02*
X127338973Y-101872419D01*
X127338973Y-101872419D02*
X127243735Y-101920038D01*
X127243735Y-101920038D02*
X127148497Y-102015276D01*
X127148497Y-102015276D02*
X127100878Y-102205752D01*
X127100878Y-102205752D02*
X127100878Y-102539085D01*
X127100878Y-102539085D02*
X127148497Y-102729561D01*
X127148497Y-102729561D02*
X127243735Y-102824800D01*
X127243735Y-102824800D02*
X127338973Y-102872419D01*
X127338973Y-102872419D02*
X127529449Y-102872419D01*
X127529449Y-102872419D02*
X127624687Y-102824800D01*
X127624687Y-102824800D02*
X127719925Y-102729561D01*
X127719925Y-102729561D02*
X127767544Y-102539085D01*
X127767544Y-102539085D02*
X127767544Y-102205752D01*
X127767544Y-102205752D02*
X127719925Y-102015276D01*
X127719925Y-102015276D02*
X127624687Y-101920038D01*
X127624687Y-101920038D02*
X127529449Y-101872419D01*
X126719925Y-101967657D02*
X126672306Y-101920038D01*
X126672306Y-101920038D02*
X126577068Y-101872419D01*
X126577068Y-101872419D02*
X126338973Y-101872419D01*
X126338973Y-101872419D02*
X126243735Y-101920038D01*
X126243735Y-101920038D02*
X126196116Y-101967657D01*
X126196116Y-101967657D02*
X126148497Y-102062895D01*
X126148497Y-102062895D02*
X126148497Y-102158133D01*
X126148497Y-102158133D02*
X126196116Y-102300990D01*
X126196116Y-102300990D02*
X126767544Y-102872419D01*
X126767544Y-102872419D02*
X126148497Y-102872419D01*
X125815163Y-101872419D02*
X125148497Y-101872419D01*
X125148497Y-101872419D02*
X125577068Y-102872419D01*
X166615592Y-77552493D02*
X166615592Y-76552493D01*
X166615592Y-76552493D02*
X166234640Y-76552493D01*
X166234640Y-76552493D02*
X166139402Y-76600112D01*
X166139402Y-76600112D02*
X166091783Y-76647731D01*
X166091783Y-76647731D02*
X166044164Y-76742969D01*
X166044164Y-76742969D02*
X166044164Y-76885826D01*
X166044164Y-76885826D02*
X166091783Y-76981064D01*
X166091783Y-76981064D02*
X166139402Y-77028683D01*
X166139402Y-77028683D02*
X166234640Y-77076302D01*
X166234640Y-77076302D02*
X166615592Y-77076302D01*
X165663211Y-77504874D02*
X165520354Y-77552493D01*
X165520354Y-77552493D02*
X165282259Y-77552493D01*
X165282259Y-77552493D02*
X165187021Y-77504874D01*
X165187021Y-77504874D02*
X165139402Y-77457254D01*
X165139402Y-77457254D02*
X165091783Y-77362016D01*
X165091783Y-77362016D02*
X165091783Y-77266778D01*
X165091783Y-77266778D02*
X165139402Y-77171540D01*
X165139402Y-77171540D02*
X165187021Y-77123921D01*
X165187021Y-77123921D02*
X165282259Y-77076302D01*
X165282259Y-77076302D02*
X165472735Y-77028683D01*
X165472735Y-77028683D02*
X165567973Y-76981064D01*
X165567973Y-76981064D02*
X165615592Y-76933445D01*
X165615592Y-76933445D02*
X165663211Y-76838207D01*
X165663211Y-76838207D02*
X165663211Y-76742969D01*
X165663211Y-76742969D02*
X165615592Y-76647731D01*
X165615592Y-76647731D02*
X165567973Y-76600112D01*
X165567973Y-76600112D02*
X165472735Y-76552493D01*
X165472735Y-76552493D02*
X165234640Y-76552493D01*
X165234640Y-76552493D02*
X165091783Y-76600112D01*
X164663211Y-77552493D02*
X164663211Y-76552493D01*
X164663211Y-76552493D02*
X164282259Y-76552493D01*
X164282259Y-76552493D02*
X164187021Y-76600112D01*
X164187021Y-76600112D02*
X164139402Y-76647731D01*
X164139402Y-76647731D02*
X164091783Y-76742969D01*
X164091783Y-76742969D02*
X164091783Y-76885826D01*
X164091783Y-76885826D02*
X164139402Y-76981064D01*
X164139402Y-76981064D02*
X164187021Y-77028683D01*
X164187021Y-77028683D02*
X164282259Y-77076302D01*
X164282259Y-77076302D02*
X164663211Y-77076302D01*
X162567973Y-77028683D02*
X162425116Y-77076302D01*
X162425116Y-77076302D02*
X162377497Y-77123921D01*
X162377497Y-77123921D02*
X162329878Y-77219159D01*
X162329878Y-77219159D02*
X162329878Y-77362016D01*
X162329878Y-77362016D02*
X162377497Y-77457254D01*
X162377497Y-77457254D02*
X162425116Y-77504874D01*
X162425116Y-77504874D02*
X162520354Y-77552493D01*
X162520354Y-77552493D02*
X162901306Y-77552493D01*
X162901306Y-77552493D02*
X162901306Y-76552493D01*
X162901306Y-76552493D02*
X162567973Y-76552493D01*
X162567973Y-76552493D02*
X162472735Y-76600112D01*
X162472735Y-76600112D02*
X162425116Y-76647731D01*
X162425116Y-76647731D02*
X162377497Y-76742969D01*
X162377497Y-76742969D02*
X162377497Y-76838207D01*
X162377497Y-76838207D02*
X162425116Y-76933445D01*
X162425116Y-76933445D02*
X162472735Y-76981064D01*
X162472735Y-76981064D02*
X162567973Y-77028683D01*
X162567973Y-77028683D02*
X162901306Y-77028683D01*
X161758449Y-77552493D02*
X161853687Y-77504874D01*
X161853687Y-77504874D02*
X161901306Y-77409635D01*
X161901306Y-77409635D02*
X161901306Y-76552493D01*
X160948925Y-76885826D02*
X160948925Y-77552493D01*
X161377496Y-76885826D02*
X161377496Y-77409635D01*
X161377496Y-77409635D02*
X161329877Y-77504874D01*
X161329877Y-77504874D02*
X161234639Y-77552493D01*
X161234639Y-77552493D02*
X161091782Y-77552493D01*
X161091782Y-77552493D02*
X160996544Y-77504874D01*
X160996544Y-77504874D02*
X160948925Y-77457254D01*
X160091782Y-77504874D02*
X160187020Y-77552493D01*
X160187020Y-77552493D02*
X160377496Y-77552493D01*
X160377496Y-77552493D02*
X160472734Y-77504874D01*
X160472734Y-77504874D02*
X160520353Y-77409635D01*
X160520353Y-77409635D02*
X160520353Y-77028683D01*
X160520353Y-77028683D02*
X160472734Y-76933445D01*
X160472734Y-76933445D02*
X160377496Y-76885826D01*
X160377496Y-76885826D02*
X160187020Y-76885826D01*
X160187020Y-76885826D02*
X160091782Y-76933445D01*
X160091782Y-76933445D02*
X160044163Y-77028683D01*
X160044163Y-77028683D02*
X160044163Y-77123921D01*
X160044163Y-77123921D02*
X160520353Y-77219159D01*
X159758448Y-76885826D02*
X159377496Y-76885826D01*
X159615591Y-76552493D02*
X159615591Y-77409635D01*
X159615591Y-77409635D02*
X159567972Y-77504874D01*
X159567972Y-77504874D02*
X159472734Y-77552493D01*
X159472734Y-77552493D02*
X159377496Y-77552493D01*
X158901305Y-77552493D02*
X158996543Y-77504874D01*
X158996543Y-77504874D02*
X159044162Y-77457254D01*
X159044162Y-77457254D02*
X159091781Y-77362016D01*
X159091781Y-77362016D02*
X159091781Y-77076302D01*
X159091781Y-77076302D02*
X159044162Y-76981064D01*
X159044162Y-76981064D02*
X158996543Y-76933445D01*
X158996543Y-76933445D02*
X158901305Y-76885826D01*
X158901305Y-76885826D02*
X158758448Y-76885826D01*
X158758448Y-76885826D02*
X158663210Y-76933445D01*
X158663210Y-76933445D02*
X158615591Y-76981064D01*
X158615591Y-76981064D02*
X158567972Y-77076302D01*
X158567972Y-77076302D02*
X158567972Y-77362016D01*
X158567972Y-77362016D02*
X158615591Y-77457254D01*
X158615591Y-77457254D02*
X158663210Y-77504874D01*
X158663210Y-77504874D02*
X158758448Y-77552493D01*
X158758448Y-77552493D02*
X158901305Y-77552493D01*
X157996543Y-77552493D02*
X158091781Y-77504874D01*
X158091781Y-77504874D02*
X158139400Y-77457254D01*
X158139400Y-77457254D02*
X158187019Y-77362016D01*
X158187019Y-77362016D02*
X158187019Y-77076302D01*
X158187019Y-77076302D02*
X158139400Y-76981064D01*
X158139400Y-76981064D02*
X158091781Y-76933445D01*
X158091781Y-76933445D02*
X157996543Y-76885826D01*
X157996543Y-76885826D02*
X157853686Y-76885826D01*
X157853686Y-76885826D02*
X157758448Y-76933445D01*
X157758448Y-76933445D02*
X157710829Y-76981064D01*
X157710829Y-76981064D02*
X157663210Y-77076302D01*
X157663210Y-77076302D02*
X157663210Y-77362016D01*
X157663210Y-77362016D02*
X157710829Y-77457254D01*
X157710829Y-77457254D02*
X157758448Y-77504874D01*
X157758448Y-77504874D02*
X157853686Y-77552493D01*
X157853686Y-77552493D02*
X157996543Y-77552493D01*
X157377495Y-76885826D02*
X156996543Y-76885826D01*
X157234638Y-76552493D02*
X157234638Y-77409635D01*
X157234638Y-77409635D02*
X157187019Y-77504874D01*
X157187019Y-77504874D02*
X157091781Y-77552493D01*
X157091781Y-77552493D02*
X156996543Y-77552493D01*
X156663209Y-77552493D02*
X156663209Y-76552493D01*
X156234638Y-77552493D02*
X156234638Y-77028683D01*
X156234638Y-77028683D02*
X156282257Y-76933445D01*
X156282257Y-76933445D02*
X156377495Y-76885826D01*
X156377495Y-76885826D02*
X156520352Y-76885826D01*
X156520352Y-76885826D02*
X156615590Y-76933445D01*
X156615590Y-76933445D02*
X156663209Y-76981064D01*
X166044164Y-79067198D02*
X166091783Y-79114818D01*
X166091783Y-79114818D02*
X166234640Y-79162437D01*
X166234640Y-79162437D02*
X166329878Y-79162437D01*
X166329878Y-79162437D02*
X166472735Y-79114818D01*
X166472735Y-79114818D02*
X166567973Y-79019579D01*
X166567973Y-79019579D02*
X166615592Y-78924341D01*
X166615592Y-78924341D02*
X166663211Y-78733865D01*
X166663211Y-78733865D02*
X166663211Y-78591008D01*
X166663211Y-78591008D02*
X166615592Y-78400532D01*
X166615592Y-78400532D02*
X166567973Y-78305294D01*
X166567973Y-78305294D02*
X166472735Y-78210056D01*
X166472735Y-78210056D02*
X166329878Y-78162437D01*
X166329878Y-78162437D02*
X166234640Y-78162437D01*
X166234640Y-78162437D02*
X166091783Y-78210056D01*
X166091783Y-78210056D02*
X166044164Y-78257675D01*
X165425116Y-78162437D02*
X165234640Y-78162437D01*
X165234640Y-78162437D02*
X165139402Y-78210056D01*
X165139402Y-78210056D02*
X165044164Y-78305294D01*
X165044164Y-78305294D02*
X164996545Y-78495770D01*
X164996545Y-78495770D02*
X164996545Y-78829103D01*
X164996545Y-78829103D02*
X165044164Y-79019579D01*
X165044164Y-79019579D02*
X165139402Y-79114818D01*
X165139402Y-79114818D02*
X165234640Y-79162437D01*
X165234640Y-79162437D02*
X165425116Y-79162437D01*
X165425116Y-79162437D02*
X165520354Y-79114818D01*
X165520354Y-79114818D02*
X165615592Y-79019579D01*
X165615592Y-79019579D02*
X165663211Y-78829103D01*
X165663211Y-78829103D02*
X165663211Y-78495770D01*
X165663211Y-78495770D02*
X165615592Y-78305294D01*
X165615592Y-78305294D02*
X165520354Y-78210056D01*
X165520354Y-78210056D02*
X165425116Y-78162437D01*
X164567973Y-79162437D02*
X164567973Y-78162437D01*
X164567973Y-78162437D02*
X163996545Y-79162437D01*
X163996545Y-79162437D02*
X163996545Y-78162437D01*
X163567973Y-79114818D02*
X163425116Y-79162437D01*
X163425116Y-79162437D02*
X163187021Y-79162437D01*
X163187021Y-79162437D02*
X163091783Y-79114818D01*
X163091783Y-79114818D02*
X163044164Y-79067198D01*
X163044164Y-79067198D02*
X162996545Y-78971960D01*
X162996545Y-78971960D02*
X162996545Y-78876722D01*
X162996545Y-78876722D02*
X163044164Y-78781484D01*
X163044164Y-78781484D02*
X163091783Y-78733865D01*
X163091783Y-78733865D02*
X163187021Y-78686246D01*
X163187021Y-78686246D02*
X163377497Y-78638627D01*
X163377497Y-78638627D02*
X163472735Y-78591008D01*
X163472735Y-78591008D02*
X163520354Y-78543389D01*
X163520354Y-78543389D02*
X163567973Y-78448151D01*
X163567973Y-78448151D02*
X163567973Y-78352913D01*
X163567973Y-78352913D02*
X163520354Y-78257675D01*
X163520354Y-78257675D02*
X163472735Y-78210056D01*
X163472735Y-78210056D02*
X163377497Y-78162437D01*
X163377497Y-78162437D02*
X163139402Y-78162437D01*
X163139402Y-78162437D02*
X162996545Y-78210056D01*
X162377497Y-78162437D02*
X162187021Y-78162437D01*
X162187021Y-78162437D02*
X162091783Y-78210056D01*
X162091783Y-78210056D02*
X161996545Y-78305294D01*
X161996545Y-78305294D02*
X161948926Y-78495770D01*
X161948926Y-78495770D02*
X161948926Y-78829103D01*
X161948926Y-78829103D02*
X161996545Y-79019579D01*
X161996545Y-79019579D02*
X162091783Y-79114818D01*
X162091783Y-79114818D02*
X162187021Y-79162437D01*
X162187021Y-79162437D02*
X162377497Y-79162437D01*
X162377497Y-79162437D02*
X162472735Y-79114818D01*
X162472735Y-79114818D02*
X162567973Y-79019579D01*
X162567973Y-79019579D02*
X162615592Y-78829103D01*
X162615592Y-78829103D02*
X162615592Y-78495770D01*
X162615592Y-78495770D02*
X162567973Y-78305294D01*
X162567973Y-78305294D02*
X162472735Y-78210056D01*
X162472735Y-78210056D02*
X162377497Y-78162437D01*
X161044164Y-79162437D02*
X161520354Y-79162437D01*
X161520354Y-79162437D02*
X161520354Y-78162437D01*
X160710830Y-79162437D02*
X160710830Y-78162437D01*
X160329878Y-78162437D02*
X159663212Y-78162437D01*
X159663212Y-78162437D02*
X160329878Y-79162437D01*
X160329878Y-79162437D02*
X159663212Y-79162437D01*
X159282259Y-78638627D02*
X158948926Y-78638627D01*
X158806069Y-79162437D02*
X159282259Y-79162437D01*
X159282259Y-79162437D02*
X159282259Y-78162437D01*
X159282259Y-78162437D02*
X158806069Y-78162437D01*
X157806069Y-79162437D02*
X158139402Y-78686246D01*
X158377497Y-79162437D02*
X158377497Y-78162437D01*
X158377497Y-78162437D02*
X157996545Y-78162437D01*
X157996545Y-78162437D02*
X157901307Y-78210056D01*
X157901307Y-78210056D02*
X157853688Y-78257675D01*
X157853688Y-78257675D02*
X157806069Y-78352913D01*
X157806069Y-78352913D02*
X157806069Y-78495770D01*
X157806069Y-78495770D02*
X157853688Y-78591008D01*
X157853688Y-78591008D02*
X157901307Y-78638627D01*
X157901307Y-78638627D02*
X157996545Y-78686246D01*
X157996545Y-78686246D02*
X158377497Y-78686246D01*
X156425116Y-78162437D02*
X156234640Y-78162437D01*
X156234640Y-78162437D02*
X156139402Y-78210056D01*
X156139402Y-78210056D02*
X156044164Y-78305294D01*
X156044164Y-78305294D02*
X155996545Y-78495770D01*
X155996545Y-78495770D02*
X155996545Y-78829103D01*
X155996545Y-78829103D02*
X156044164Y-79019579D01*
X156044164Y-79019579D02*
X156139402Y-79114818D01*
X156139402Y-79114818D02*
X156234640Y-79162437D01*
X156234640Y-79162437D02*
X156425116Y-79162437D01*
X156425116Y-79162437D02*
X156520354Y-79114818D01*
X156520354Y-79114818D02*
X156615592Y-79019579D01*
X156615592Y-79019579D02*
X156663211Y-78829103D01*
X156663211Y-78829103D02*
X156663211Y-78495770D01*
X156663211Y-78495770D02*
X156615592Y-78305294D01*
X156615592Y-78305294D02*
X156520354Y-78210056D01*
X156520354Y-78210056D02*
X156425116Y-78162437D01*
X155567973Y-79162437D02*
X155567973Y-78162437D01*
X155567973Y-78162437D02*
X154996545Y-79162437D01*
X154996545Y-79162437D02*
X154996545Y-78162437D01*
X154044164Y-79162437D02*
X154520354Y-79162437D01*
X154520354Y-79162437D02*
X154520354Y-78162437D01*
X153520354Y-78686246D02*
X153520354Y-79162437D01*
X153853687Y-78162437D02*
X153520354Y-78686246D01*
X153520354Y-78686246D02*
X153187021Y-78162437D01*
X166710830Y-80105714D02*
X166472735Y-80772381D01*
X166472735Y-80772381D02*
X166234640Y-80105714D01*
X165663211Y-79772381D02*
X165567973Y-79772381D01*
X165567973Y-79772381D02*
X165472735Y-79820000D01*
X165472735Y-79820000D02*
X165425116Y-79867619D01*
X165425116Y-79867619D02*
X165377497Y-79962857D01*
X165377497Y-79962857D02*
X165329878Y-80153333D01*
X165329878Y-80153333D02*
X165329878Y-80391428D01*
X165329878Y-80391428D02*
X165377497Y-80581904D01*
X165377497Y-80581904D02*
X165425116Y-80677142D01*
X165425116Y-80677142D02*
X165472735Y-80724762D01*
X165472735Y-80724762D02*
X165567973Y-80772381D01*
X165567973Y-80772381D02*
X165663211Y-80772381D01*
X165663211Y-80772381D02*
X165758449Y-80724762D01*
X165758449Y-80724762D02*
X165806068Y-80677142D01*
X165806068Y-80677142D02*
X165853687Y-80581904D01*
X165853687Y-80581904D02*
X165901306Y-80391428D01*
X165901306Y-80391428D02*
X165901306Y-80153333D01*
X165901306Y-80153333D02*
X165853687Y-79962857D01*
X165853687Y-79962857D02*
X165806068Y-79867619D01*
X165806068Y-79867619D02*
X165758449Y-79820000D01*
X165758449Y-79820000D02*
X165663211Y-79772381D01*
X164901306Y-80677142D02*
X164853687Y-80724762D01*
X164853687Y-80724762D02*
X164901306Y-80772381D01*
X164901306Y-80772381D02*
X164948925Y-80724762D01*
X164948925Y-80724762D02*
X164901306Y-80677142D01*
X164901306Y-80677142D02*
X164901306Y-80772381D01*
X164520354Y-79772381D02*
X163901307Y-79772381D01*
X163901307Y-79772381D02*
X164234640Y-80153333D01*
X164234640Y-80153333D02*
X164091783Y-80153333D01*
X164091783Y-80153333D02*
X163996545Y-80200952D01*
X163996545Y-80200952D02*
X163948926Y-80248571D01*
X163948926Y-80248571D02*
X163901307Y-80343809D01*
X163901307Y-80343809D02*
X163901307Y-80581904D01*
X163901307Y-80581904D02*
X163948926Y-80677142D01*
X163948926Y-80677142D02*
X163996545Y-80724762D01*
X163996545Y-80724762D02*
X164091783Y-80772381D01*
X164091783Y-80772381D02*
X164377497Y-80772381D01*
X164377497Y-80772381D02*
X164472735Y-80724762D01*
X164472735Y-80724762D02*
X164520354Y-80677142D01*
X163472735Y-80391428D02*
X162710831Y-80391428D01*
X161806069Y-80724762D02*
X161901307Y-80772381D01*
X161901307Y-80772381D02*
X162091783Y-80772381D01*
X162091783Y-80772381D02*
X162187021Y-80724762D01*
X162187021Y-80724762D02*
X162234640Y-80677142D01*
X162234640Y-80677142D02*
X162282259Y-80581904D01*
X162282259Y-80581904D02*
X162282259Y-80296190D01*
X162282259Y-80296190D02*
X162234640Y-80200952D01*
X162234640Y-80200952D02*
X162187021Y-80153333D01*
X162187021Y-80153333D02*
X162091783Y-80105714D01*
X162091783Y-80105714D02*
X161901307Y-80105714D01*
X161901307Y-80105714D02*
X161806069Y-80153333D01*
X166663211Y-83944650D02*
X166520354Y-83992269D01*
X166520354Y-83992269D02*
X166282259Y-83992269D01*
X166282259Y-83992269D02*
X166187021Y-83944650D01*
X166187021Y-83944650D02*
X166139402Y-83897030D01*
X166139402Y-83897030D02*
X166091783Y-83801792D01*
X166091783Y-83801792D02*
X166091783Y-83706554D01*
X166091783Y-83706554D02*
X166139402Y-83611316D01*
X166139402Y-83611316D02*
X166187021Y-83563697D01*
X166187021Y-83563697D02*
X166282259Y-83516078D01*
X166282259Y-83516078D02*
X166472735Y-83468459D01*
X166472735Y-83468459D02*
X166567973Y-83420840D01*
X166567973Y-83420840D02*
X166615592Y-83373221D01*
X166615592Y-83373221D02*
X166663211Y-83277983D01*
X166663211Y-83277983D02*
X166663211Y-83182745D01*
X166663211Y-83182745D02*
X166615592Y-83087507D01*
X166615592Y-83087507D02*
X166567973Y-83039888D01*
X166567973Y-83039888D02*
X166472735Y-82992269D01*
X166472735Y-82992269D02*
X166234640Y-82992269D01*
X166234640Y-82992269D02*
X166091783Y-83039888D01*
X165663211Y-83325602D02*
X165663211Y-84325602D01*
X165663211Y-83373221D02*
X165567973Y-83325602D01*
X165567973Y-83325602D02*
X165377497Y-83325602D01*
X165377497Y-83325602D02*
X165282259Y-83373221D01*
X165282259Y-83373221D02*
X165234640Y-83420840D01*
X165234640Y-83420840D02*
X165187021Y-83516078D01*
X165187021Y-83516078D02*
X165187021Y-83801792D01*
X165187021Y-83801792D02*
X165234640Y-83897030D01*
X165234640Y-83897030D02*
X165282259Y-83944650D01*
X165282259Y-83944650D02*
X165377497Y-83992269D01*
X165377497Y-83992269D02*
X165567973Y-83992269D01*
X165567973Y-83992269D02*
X165663211Y-83944650D01*
X164377497Y-83944650D02*
X164472735Y-83992269D01*
X164472735Y-83992269D02*
X164663211Y-83992269D01*
X164663211Y-83992269D02*
X164758449Y-83944650D01*
X164758449Y-83944650D02*
X164806068Y-83849411D01*
X164806068Y-83849411D02*
X164806068Y-83468459D01*
X164806068Y-83468459D02*
X164758449Y-83373221D01*
X164758449Y-83373221D02*
X164663211Y-83325602D01*
X164663211Y-83325602D02*
X164472735Y-83325602D01*
X164472735Y-83325602D02*
X164377497Y-83373221D01*
X164377497Y-83373221D02*
X164329878Y-83468459D01*
X164329878Y-83468459D02*
X164329878Y-83563697D01*
X164329878Y-83563697D02*
X164806068Y-83658935D01*
X163472735Y-83944650D02*
X163567973Y-83992269D01*
X163567973Y-83992269D02*
X163758449Y-83992269D01*
X163758449Y-83992269D02*
X163853687Y-83944650D01*
X163853687Y-83944650D02*
X163901306Y-83897030D01*
X163901306Y-83897030D02*
X163948925Y-83801792D01*
X163948925Y-83801792D02*
X163948925Y-83516078D01*
X163948925Y-83516078D02*
X163901306Y-83420840D01*
X163901306Y-83420840D02*
X163853687Y-83373221D01*
X163853687Y-83373221D02*
X163758449Y-83325602D01*
X163758449Y-83325602D02*
X163567973Y-83325602D01*
X163567973Y-83325602D02*
X163472735Y-83373221D01*
X163044163Y-83992269D02*
X163044163Y-83325602D01*
X163044163Y-82992269D02*
X163091782Y-83039888D01*
X163091782Y-83039888D02*
X163044163Y-83087507D01*
X163044163Y-83087507D02*
X162996544Y-83039888D01*
X162996544Y-83039888D02*
X163044163Y-82992269D01*
X163044163Y-82992269D02*
X163044163Y-83087507D01*
X162139402Y-83992269D02*
X162139402Y-83468459D01*
X162139402Y-83468459D02*
X162187021Y-83373221D01*
X162187021Y-83373221D02*
X162282259Y-83325602D01*
X162282259Y-83325602D02*
X162472735Y-83325602D01*
X162472735Y-83325602D02*
X162567973Y-83373221D01*
X162139402Y-83944650D02*
X162234640Y-83992269D01*
X162234640Y-83992269D02*
X162472735Y-83992269D01*
X162472735Y-83992269D02*
X162567973Y-83944650D01*
X162567973Y-83944650D02*
X162615592Y-83849411D01*
X162615592Y-83849411D02*
X162615592Y-83754173D01*
X162615592Y-83754173D02*
X162567973Y-83658935D01*
X162567973Y-83658935D02*
X162472735Y-83611316D01*
X162472735Y-83611316D02*
X162234640Y-83611316D01*
X162234640Y-83611316D02*
X162139402Y-83563697D01*
X161520354Y-83992269D02*
X161615592Y-83944650D01*
X161615592Y-83944650D02*
X161663211Y-83849411D01*
X161663211Y-83849411D02*
X161663211Y-82992269D01*
X160520353Y-83325602D02*
X160139401Y-83325602D01*
X160377496Y-82992269D02*
X160377496Y-83849411D01*
X160377496Y-83849411D02*
X160329877Y-83944650D01*
X160329877Y-83944650D02*
X160234639Y-83992269D01*
X160234639Y-83992269D02*
X160139401Y-83992269D01*
X159806067Y-83992269D02*
X159806067Y-82992269D01*
X159377496Y-83992269D02*
X159377496Y-83468459D01*
X159377496Y-83468459D02*
X159425115Y-83373221D01*
X159425115Y-83373221D02*
X159520353Y-83325602D01*
X159520353Y-83325602D02*
X159663210Y-83325602D01*
X159663210Y-83325602D02*
X159758448Y-83373221D01*
X159758448Y-83373221D02*
X159806067Y-83420840D01*
X158472734Y-83992269D02*
X158472734Y-83468459D01*
X158472734Y-83468459D02*
X158520353Y-83373221D01*
X158520353Y-83373221D02*
X158615591Y-83325602D01*
X158615591Y-83325602D02*
X158806067Y-83325602D01*
X158806067Y-83325602D02*
X158901305Y-83373221D01*
X158472734Y-83944650D02*
X158567972Y-83992269D01*
X158567972Y-83992269D02*
X158806067Y-83992269D01*
X158806067Y-83992269D02*
X158901305Y-83944650D01*
X158901305Y-83944650D02*
X158948924Y-83849411D01*
X158948924Y-83849411D02*
X158948924Y-83754173D01*
X158948924Y-83754173D02*
X158901305Y-83658935D01*
X158901305Y-83658935D02*
X158806067Y-83611316D01*
X158806067Y-83611316D02*
X158567972Y-83611316D01*
X158567972Y-83611316D02*
X158472734Y-83563697D01*
X157996543Y-83325602D02*
X157996543Y-83992269D01*
X157996543Y-83420840D02*
X157948924Y-83373221D01*
X157948924Y-83373221D02*
X157853686Y-83325602D01*
X157853686Y-83325602D02*
X157710829Y-83325602D01*
X157710829Y-83325602D02*
X157615591Y-83373221D01*
X157615591Y-83373221D02*
X157567972Y-83468459D01*
X157567972Y-83468459D02*
X157567972Y-83992269D01*
X157091781Y-83992269D02*
X157091781Y-82992269D01*
X156996543Y-83611316D02*
X156710829Y-83992269D01*
X156710829Y-83325602D02*
X157091781Y-83706554D01*
X156329876Y-83944650D02*
X156234638Y-83992269D01*
X156234638Y-83992269D02*
X156044162Y-83992269D01*
X156044162Y-83992269D02*
X155948924Y-83944650D01*
X155948924Y-83944650D02*
X155901305Y-83849411D01*
X155901305Y-83849411D02*
X155901305Y-83801792D01*
X155901305Y-83801792D02*
X155948924Y-83706554D01*
X155948924Y-83706554D02*
X156044162Y-83658935D01*
X156044162Y-83658935D02*
X156187019Y-83658935D01*
X156187019Y-83658935D02*
X156282257Y-83611316D01*
X156282257Y-83611316D02*
X156329876Y-83516078D01*
X156329876Y-83516078D02*
X156329876Y-83468459D01*
X156329876Y-83468459D02*
X156282257Y-83373221D01*
X156282257Y-83373221D02*
X156187019Y-83325602D01*
X156187019Y-83325602D02*
X156044162Y-83325602D01*
X156044162Y-83325602D02*
X155948924Y-83373221D01*
X154853685Y-83325602D02*
X154472733Y-83325602D01*
X154710828Y-82992269D02*
X154710828Y-83849411D01*
X154710828Y-83849411D02*
X154663209Y-83944650D01*
X154663209Y-83944650D02*
X154567971Y-83992269D01*
X154567971Y-83992269D02*
X154472733Y-83992269D01*
X153996542Y-83992269D02*
X154091780Y-83944650D01*
X154091780Y-83944650D02*
X154139399Y-83897030D01*
X154139399Y-83897030D02*
X154187018Y-83801792D01*
X154187018Y-83801792D02*
X154187018Y-83516078D01*
X154187018Y-83516078D02*
X154139399Y-83420840D01*
X154139399Y-83420840D02*
X154091780Y-83373221D01*
X154091780Y-83373221D02*
X153996542Y-83325602D01*
X153996542Y-83325602D02*
X153853685Y-83325602D01*
X153853685Y-83325602D02*
X153758447Y-83373221D01*
X153758447Y-83373221D02*
X153710828Y-83420840D01*
X153710828Y-83420840D02*
X153663209Y-83516078D01*
X153663209Y-83516078D02*
X153663209Y-83801792D01*
X153663209Y-83801792D02*
X153710828Y-83897030D01*
X153710828Y-83897030D02*
X153758447Y-83944650D01*
X153758447Y-83944650D02*
X153853685Y-83992269D01*
X153853685Y-83992269D02*
X153996542Y-83992269D01*
X153234637Y-83897030D02*
X153187018Y-83944650D01*
X153187018Y-83944650D02*
X153234637Y-83992269D01*
X153234637Y-83992269D02*
X153282256Y-83944650D01*
X153282256Y-83944650D02*
X153234637Y-83897030D01*
X153234637Y-83897030D02*
X153234637Y-83992269D01*
X153234637Y-83373221D02*
X153187018Y-83420840D01*
X153187018Y-83420840D02*
X153234637Y-83468459D01*
X153234637Y-83468459D02*
X153282256Y-83420840D01*
X153282256Y-83420840D02*
X153234637Y-83373221D01*
X153234637Y-83373221D02*
X153234637Y-83468459D01*
X166472735Y-84602213D02*
X166472735Y-84840308D01*
X166710830Y-84745070D02*
X166472735Y-84840308D01*
X166472735Y-84840308D02*
X166234640Y-84745070D01*
X166615592Y-85030784D02*
X166472735Y-84840308D01*
X166472735Y-84840308D02*
X166329878Y-85030784D01*
X164663211Y-85602213D02*
X164663211Y-85078403D01*
X164663211Y-85078403D02*
X164710830Y-84983165D01*
X164710830Y-84983165D02*
X164806068Y-84935546D01*
X164806068Y-84935546D02*
X164996544Y-84935546D01*
X164996544Y-84935546D02*
X165091782Y-84983165D01*
X164663211Y-85554594D02*
X164758449Y-85602213D01*
X164758449Y-85602213D02*
X164996544Y-85602213D01*
X164996544Y-85602213D02*
X165091782Y-85554594D01*
X165091782Y-85554594D02*
X165139401Y-85459355D01*
X165139401Y-85459355D02*
X165139401Y-85364117D01*
X165139401Y-85364117D02*
X165091782Y-85268879D01*
X165091782Y-85268879D02*
X164996544Y-85221260D01*
X164996544Y-85221260D02*
X164758449Y-85221260D01*
X164758449Y-85221260D02*
X164663211Y-85173641D01*
X164187020Y-85602213D02*
X164187020Y-84602213D01*
X164187020Y-84983165D02*
X164091782Y-84935546D01*
X164091782Y-84935546D02*
X163901306Y-84935546D01*
X163901306Y-84935546D02*
X163806068Y-84983165D01*
X163806068Y-84983165D02*
X163758449Y-85030784D01*
X163758449Y-85030784D02*
X163710830Y-85126022D01*
X163710830Y-85126022D02*
X163710830Y-85411736D01*
X163710830Y-85411736D02*
X163758449Y-85506974D01*
X163758449Y-85506974D02*
X163806068Y-85554594D01*
X163806068Y-85554594D02*
X163901306Y-85602213D01*
X163901306Y-85602213D02*
X164091782Y-85602213D01*
X164091782Y-85602213D02*
X164187020Y-85554594D01*
X162853687Y-85602213D02*
X162853687Y-85078403D01*
X162853687Y-85078403D02*
X162901306Y-84983165D01*
X162901306Y-84983165D02*
X162996544Y-84935546D01*
X162996544Y-84935546D02*
X163187020Y-84935546D01*
X163187020Y-84935546D02*
X163282258Y-84983165D01*
X162853687Y-85554594D02*
X162948925Y-85602213D01*
X162948925Y-85602213D02*
X163187020Y-85602213D01*
X163187020Y-85602213D02*
X163282258Y-85554594D01*
X163282258Y-85554594D02*
X163329877Y-85459355D01*
X163329877Y-85459355D02*
X163329877Y-85364117D01*
X163329877Y-85364117D02*
X163282258Y-85268879D01*
X163282258Y-85268879D02*
X163187020Y-85221260D01*
X163187020Y-85221260D02*
X162948925Y-85221260D01*
X162948925Y-85221260D02*
X162853687Y-85173641D01*
X162425115Y-85554594D02*
X162329877Y-85602213D01*
X162329877Y-85602213D02*
X162139401Y-85602213D01*
X162139401Y-85602213D02*
X162044163Y-85554594D01*
X162044163Y-85554594D02*
X161996544Y-85459355D01*
X161996544Y-85459355D02*
X161996544Y-85411736D01*
X161996544Y-85411736D02*
X162044163Y-85316498D01*
X162044163Y-85316498D02*
X162139401Y-85268879D01*
X162139401Y-85268879D02*
X162282258Y-85268879D01*
X162282258Y-85268879D02*
X162377496Y-85221260D01*
X162377496Y-85221260D02*
X162425115Y-85126022D01*
X162425115Y-85126022D02*
X162425115Y-85078403D01*
X162425115Y-85078403D02*
X162377496Y-84983165D01*
X162377496Y-84983165D02*
X162282258Y-84935546D01*
X162282258Y-84935546D02*
X162139401Y-84935546D01*
X162139401Y-84935546D02*
X162044163Y-84983165D01*
X161710829Y-84935546D02*
X161329877Y-84935546D01*
X161567972Y-84602213D02*
X161567972Y-85459355D01*
X161567972Y-85459355D02*
X161520353Y-85554594D01*
X161520353Y-85554594D02*
X161425115Y-85602213D01*
X161425115Y-85602213D02*
X161329877Y-85602213D01*
X160853686Y-85602213D02*
X160948924Y-85554594D01*
X160948924Y-85554594D02*
X160996543Y-85506974D01*
X160996543Y-85506974D02*
X161044162Y-85411736D01*
X161044162Y-85411736D02*
X161044162Y-85126022D01*
X161044162Y-85126022D02*
X160996543Y-85030784D01*
X160996543Y-85030784D02*
X160948924Y-84983165D01*
X160948924Y-84983165D02*
X160853686Y-84935546D01*
X160853686Y-84935546D02*
X160710829Y-84935546D01*
X160710829Y-84935546D02*
X160615591Y-84983165D01*
X160615591Y-84983165D02*
X160567972Y-85030784D01*
X160567972Y-85030784D02*
X160520353Y-85126022D01*
X160520353Y-85126022D02*
X160520353Y-85411736D01*
X160520353Y-85411736D02*
X160567972Y-85506974D01*
X160567972Y-85506974D02*
X160615591Y-85554594D01*
X160615591Y-85554594D02*
X160710829Y-85602213D01*
X160710829Y-85602213D02*
X160853686Y-85602213D01*
X160139400Y-85554594D02*
X160044162Y-85602213D01*
X160044162Y-85602213D02*
X159853686Y-85602213D01*
X159853686Y-85602213D02*
X159758448Y-85554594D01*
X159758448Y-85554594D02*
X159710829Y-85459355D01*
X159710829Y-85459355D02*
X159710829Y-85411736D01*
X159710829Y-85411736D02*
X159758448Y-85316498D01*
X159758448Y-85316498D02*
X159853686Y-85268879D01*
X159853686Y-85268879D02*
X159996543Y-85268879D01*
X159996543Y-85268879D02*
X160091781Y-85221260D01*
X160091781Y-85221260D02*
X160139400Y-85126022D01*
X160139400Y-85126022D02*
X160139400Y-85078403D01*
X160139400Y-85078403D02*
X160091781Y-84983165D01*
X160091781Y-84983165D02*
X159996543Y-84935546D01*
X159996543Y-84935546D02*
X159853686Y-84935546D01*
X159853686Y-84935546D02*
X159758448Y-84983165D01*
X166472735Y-86212157D02*
X166472735Y-86450252D01*
X166710830Y-86355014D02*
X166472735Y-86450252D01*
X166472735Y-86450252D02*
X166234640Y-86355014D01*
X166615592Y-86640728D02*
X166472735Y-86450252D01*
X166472735Y-86450252D02*
X166329878Y-86640728D01*
X165091782Y-87212157D02*
X165091782Y-86212157D01*
X165091782Y-86593109D02*
X164996544Y-86545490D01*
X164996544Y-86545490D02*
X164806068Y-86545490D01*
X164806068Y-86545490D02*
X164710830Y-86593109D01*
X164710830Y-86593109D02*
X164663211Y-86640728D01*
X164663211Y-86640728D02*
X164615592Y-86735966D01*
X164615592Y-86735966D02*
X164615592Y-87021680D01*
X164615592Y-87021680D02*
X164663211Y-87116918D01*
X164663211Y-87116918D02*
X164710830Y-87164538D01*
X164710830Y-87164538D02*
X164806068Y-87212157D01*
X164806068Y-87212157D02*
X164996544Y-87212157D01*
X164996544Y-87212157D02*
X165091782Y-87164538D01*
X163806068Y-87164538D02*
X163901306Y-87212157D01*
X163901306Y-87212157D02*
X164091782Y-87212157D01*
X164091782Y-87212157D02*
X164187020Y-87164538D01*
X164187020Y-87164538D02*
X164234639Y-87069299D01*
X164234639Y-87069299D02*
X164234639Y-86688347D01*
X164234639Y-86688347D02*
X164187020Y-86593109D01*
X164187020Y-86593109D02*
X164091782Y-86545490D01*
X164091782Y-86545490D02*
X163901306Y-86545490D01*
X163901306Y-86545490D02*
X163806068Y-86593109D01*
X163806068Y-86593109D02*
X163758449Y-86688347D01*
X163758449Y-86688347D02*
X163758449Y-86783585D01*
X163758449Y-86783585D02*
X164234639Y-86878823D01*
X163329877Y-86545490D02*
X163329877Y-87212157D01*
X163329877Y-86640728D02*
X163282258Y-86593109D01*
X163282258Y-86593109D02*
X163187020Y-86545490D01*
X163187020Y-86545490D02*
X163044163Y-86545490D01*
X163044163Y-86545490D02*
X162948925Y-86593109D01*
X162948925Y-86593109D02*
X162901306Y-86688347D01*
X162901306Y-86688347D02*
X162901306Y-87212157D01*
X162044163Y-87164538D02*
X162139401Y-87212157D01*
X162139401Y-87212157D02*
X162329877Y-87212157D01*
X162329877Y-87212157D02*
X162425115Y-87164538D01*
X162425115Y-87164538D02*
X162472734Y-87069299D01*
X162472734Y-87069299D02*
X162472734Y-86688347D01*
X162472734Y-86688347D02*
X162425115Y-86593109D01*
X162425115Y-86593109D02*
X162329877Y-86545490D01*
X162329877Y-86545490D02*
X162139401Y-86545490D01*
X162139401Y-86545490D02*
X162044163Y-86593109D01*
X162044163Y-86593109D02*
X161996544Y-86688347D01*
X161996544Y-86688347D02*
X161996544Y-86783585D01*
X161996544Y-86783585D02*
X162472734Y-86878823D01*
X161567972Y-87212157D02*
X161567972Y-86545490D01*
X161567972Y-86735966D02*
X161520353Y-86640728D01*
X161520353Y-86640728D02*
X161472734Y-86593109D01*
X161472734Y-86593109D02*
X161377496Y-86545490D01*
X161377496Y-86545490D02*
X161282258Y-86545490D01*
X160520353Y-86545490D02*
X160520353Y-87355014D01*
X160520353Y-87355014D02*
X160567972Y-87450252D01*
X160567972Y-87450252D02*
X160615591Y-87497871D01*
X160615591Y-87497871D02*
X160710829Y-87545490D01*
X160710829Y-87545490D02*
X160853686Y-87545490D01*
X160853686Y-87545490D02*
X160948924Y-87497871D01*
X160520353Y-87164538D02*
X160615591Y-87212157D01*
X160615591Y-87212157D02*
X160806067Y-87212157D01*
X160806067Y-87212157D02*
X160901305Y-87164538D01*
X160901305Y-87164538D02*
X160948924Y-87116918D01*
X160948924Y-87116918D02*
X160996543Y-87021680D01*
X160996543Y-87021680D02*
X160996543Y-86735966D01*
X160996543Y-86735966D02*
X160948924Y-86640728D01*
X160948924Y-86640728D02*
X160901305Y-86593109D01*
X160901305Y-86593109D02*
X160806067Y-86545490D01*
X160806067Y-86545490D02*
X160615591Y-86545490D01*
X160615591Y-86545490D02*
X160520353Y-86593109D01*
X160139400Y-86545490D02*
X159901305Y-87212157D01*
X159663210Y-86545490D02*
X159901305Y-87212157D01*
X159901305Y-87212157D02*
X159996543Y-87450252D01*
X159996543Y-87450252D02*
X160044162Y-87497871D01*
X160044162Y-87497871D02*
X160139400Y-87545490D01*
X159139400Y-87212157D02*
X159234638Y-87164538D01*
X159234638Y-87164538D02*
X159282257Y-87069299D01*
X159282257Y-87069299D02*
X159282257Y-86212157D01*
X158758447Y-87212157D02*
X158758447Y-86545490D01*
X158758447Y-86212157D02*
X158806066Y-86259776D01*
X158806066Y-86259776D02*
X158758447Y-86307395D01*
X158758447Y-86307395D02*
X158710828Y-86259776D01*
X158710828Y-86259776D02*
X158758447Y-86212157D01*
X158758447Y-86212157D02*
X158758447Y-86307395D01*
X158377495Y-86545490D02*
X158139400Y-87212157D01*
X158139400Y-87212157D02*
X157901305Y-86545490D01*
X157139400Y-87164538D02*
X157234638Y-87212157D01*
X157234638Y-87212157D02*
X157425114Y-87212157D01*
X157425114Y-87212157D02*
X157520352Y-87164538D01*
X157520352Y-87164538D02*
X157567971Y-87069299D01*
X157567971Y-87069299D02*
X157567971Y-86688347D01*
X157567971Y-86688347D02*
X157520352Y-86593109D01*
X157520352Y-86593109D02*
X157425114Y-86545490D01*
X157425114Y-86545490D02*
X157234638Y-86545490D01*
X157234638Y-86545490D02*
X157139400Y-86593109D01*
X157139400Y-86593109D02*
X157091781Y-86688347D01*
X157091781Y-86688347D02*
X157091781Y-86783585D01*
X157091781Y-86783585D02*
X157567971Y-86878823D01*
X166472735Y-87822101D02*
X166472735Y-88060196D01*
X166710830Y-87964958D02*
X166472735Y-88060196D01*
X166472735Y-88060196D02*
X166234640Y-87964958D01*
X166615592Y-88250672D02*
X166472735Y-88060196D01*
X166472735Y-88060196D02*
X166329878Y-88250672D01*
X165091782Y-88155434D02*
X165091782Y-89155434D01*
X165091782Y-88203053D02*
X164996544Y-88155434D01*
X164996544Y-88155434D02*
X164806068Y-88155434D01*
X164806068Y-88155434D02*
X164710830Y-88203053D01*
X164710830Y-88203053D02*
X164663211Y-88250672D01*
X164663211Y-88250672D02*
X164615592Y-88345910D01*
X164615592Y-88345910D02*
X164615592Y-88631624D01*
X164615592Y-88631624D02*
X164663211Y-88726862D01*
X164663211Y-88726862D02*
X164710830Y-88774482D01*
X164710830Y-88774482D02*
X164806068Y-88822101D01*
X164806068Y-88822101D02*
X164996544Y-88822101D01*
X164996544Y-88822101D02*
X165091782Y-88774482D01*
X163806068Y-88774482D02*
X163901306Y-88822101D01*
X163901306Y-88822101D02*
X164091782Y-88822101D01*
X164091782Y-88822101D02*
X164187020Y-88774482D01*
X164187020Y-88774482D02*
X164234639Y-88679243D01*
X164234639Y-88679243D02*
X164234639Y-88298291D01*
X164234639Y-88298291D02*
X164187020Y-88203053D01*
X164187020Y-88203053D02*
X164091782Y-88155434D01*
X164091782Y-88155434D02*
X163901306Y-88155434D01*
X163901306Y-88155434D02*
X163806068Y-88203053D01*
X163806068Y-88203053D02*
X163758449Y-88298291D01*
X163758449Y-88298291D02*
X163758449Y-88393529D01*
X163758449Y-88393529D02*
X164234639Y-88488767D01*
X163472734Y-88155434D02*
X163091782Y-88155434D01*
X163329877Y-87822101D02*
X163329877Y-88679243D01*
X163329877Y-88679243D02*
X163282258Y-88774482D01*
X163282258Y-88774482D02*
X163187020Y-88822101D01*
X163187020Y-88822101D02*
X163091782Y-88822101D01*
X162377496Y-88774482D02*
X162472734Y-88822101D01*
X162472734Y-88822101D02*
X162663210Y-88822101D01*
X162663210Y-88822101D02*
X162758448Y-88774482D01*
X162758448Y-88774482D02*
X162806067Y-88679243D01*
X162806067Y-88679243D02*
X162806067Y-88298291D01*
X162806067Y-88298291D02*
X162758448Y-88203053D01*
X162758448Y-88203053D02*
X162663210Y-88155434D01*
X162663210Y-88155434D02*
X162472734Y-88155434D01*
X162472734Y-88155434D02*
X162377496Y-88203053D01*
X162377496Y-88203053D02*
X162329877Y-88298291D01*
X162329877Y-88298291D02*
X162329877Y-88393529D01*
X162329877Y-88393529D02*
X162806067Y-88488767D01*
X161901305Y-88822101D02*
X161901305Y-88155434D01*
X161901305Y-88345910D02*
X161853686Y-88250672D01*
X161853686Y-88250672D02*
X161806067Y-88203053D01*
X161806067Y-88203053D02*
X161710829Y-88155434D01*
X161710829Y-88155434D02*
X161615591Y-88155434D01*
X161139400Y-88822101D02*
X161234638Y-88774482D01*
X161234638Y-88774482D02*
X161282257Y-88679243D01*
X161282257Y-88679243D02*
X161282257Y-87822101D01*
X160329876Y-88155434D02*
X160329876Y-88822101D01*
X160758447Y-88155434D02*
X160758447Y-88679243D01*
X160758447Y-88679243D02*
X160710828Y-88774482D01*
X160710828Y-88774482D02*
X160615590Y-88822101D01*
X160615590Y-88822101D02*
X160472733Y-88822101D01*
X160472733Y-88822101D02*
X160377495Y-88774482D01*
X160377495Y-88774482D02*
X160329876Y-88726862D01*
X159901304Y-88774482D02*
X159806066Y-88822101D01*
X159806066Y-88822101D02*
X159615590Y-88822101D01*
X159615590Y-88822101D02*
X159520352Y-88774482D01*
X159520352Y-88774482D02*
X159472733Y-88679243D01*
X159472733Y-88679243D02*
X159472733Y-88631624D01*
X159472733Y-88631624D02*
X159520352Y-88536386D01*
X159520352Y-88536386D02*
X159615590Y-88488767D01*
X159615590Y-88488767D02*
X159758447Y-88488767D01*
X159758447Y-88488767D02*
X159853685Y-88441148D01*
X159853685Y-88441148D02*
X159901304Y-88345910D01*
X159901304Y-88345910D02*
X159901304Y-88298291D01*
X159901304Y-88298291D02*
X159853685Y-88203053D01*
X159853685Y-88203053D02*
X159758447Y-88155434D01*
X159758447Y-88155434D02*
X159615590Y-88155434D01*
X159615590Y-88155434D02*
X159520352Y-88203053D01*
X159187018Y-88155434D02*
X158806066Y-88155434D01*
X159044161Y-87822101D02*
X159044161Y-88679243D01*
X159044161Y-88679243D02*
X158996542Y-88774482D01*
X158996542Y-88774482D02*
X158901304Y-88822101D01*
X158901304Y-88822101D02*
X158806066Y-88822101D01*
X158472732Y-88822101D02*
X158472732Y-88155434D01*
X158472732Y-87822101D02*
X158520351Y-87869720D01*
X158520351Y-87869720D02*
X158472732Y-87917339D01*
X158472732Y-87917339D02*
X158425113Y-87869720D01*
X158425113Y-87869720D02*
X158472732Y-87822101D01*
X158472732Y-87822101D02*
X158472732Y-87917339D01*
X157567971Y-88155434D02*
X157567971Y-88964958D01*
X157567971Y-88964958D02*
X157615590Y-89060196D01*
X157615590Y-89060196D02*
X157663209Y-89107815D01*
X157663209Y-89107815D02*
X157758447Y-89155434D01*
X157758447Y-89155434D02*
X157901304Y-89155434D01*
X157901304Y-89155434D02*
X157996542Y-89107815D01*
X157567971Y-88774482D02*
X157663209Y-88822101D01*
X157663209Y-88822101D02*
X157853685Y-88822101D01*
X157853685Y-88822101D02*
X157948923Y-88774482D01*
X157948923Y-88774482D02*
X157996542Y-88726862D01*
X157996542Y-88726862D02*
X158044161Y-88631624D01*
X158044161Y-88631624D02*
X158044161Y-88345910D01*
X158044161Y-88345910D02*
X157996542Y-88250672D01*
X157996542Y-88250672D02*
X157948923Y-88203053D01*
X157948923Y-88203053D02*
X157853685Y-88155434D01*
X157853685Y-88155434D02*
X157663209Y-88155434D01*
X157663209Y-88155434D02*
X157567971Y-88203053D01*
X156567971Y-88822101D02*
X157139399Y-88822101D01*
X156853685Y-88822101D02*
X156853685Y-87822101D01*
X156853685Y-87822101D02*
X156948923Y-87964958D01*
X156948923Y-87964958D02*
X157044161Y-88060196D01*
X157044161Y-88060196D02*
X157139399Y-88107815D01*
X129196115Y-98372419D02*
X129196115Y-97372419D01*
X128529449Y-97372419D02*
X128338973Y-97372419D01*
X128338973Y-97372419D02*
X128243735Y-97420038D01*
X128243735Y-97420038D02*
X128148497Y-97515276D01*
X128148497Y-97515276D02*
X128100878Y-97705752D01*
X128100878Y-97705752D02*
X128100878Y-98039085D01*
X128100878Y-98039085D02*
X128148497Y-98229561D01*
X128148497Y-98229561D02*
X128243735Y-98324800D01*
X128243735Y-98324800D02*
X128338973Y-98372419D01*
X128338973Y-98372419D02*
X128529449Y-98372419D01*
X128529449Y-98372419D02*
X128624687Y-98324800D01*
X128624687Y-98324800D02*
X128719925Y-98229561D01*
X128719925Y-98229561D02*
X128767544Y-98039085D01*
X128767544Y-98039085D02*
X128767544Y-97705752D01*
X128767544Y-97705752D02*
X128719925Y-97515276D01*
X128719925Y-97515276D02*
X128624687Y-97420038D01*
X128624687Y-97420038D02*
X128529449Y-97372419D01*
X127767544Y-97372419D02*
X127148497Y-97372419D01*
X127148497Y-97372419D02*
X127481830Y-97753371D01*
X127481830Y-97753371D02*
X127338973Y-97753371D01*
X127338973Y-97753371D02*
X127243735Y-97800990D01*
X127243735Y-97800990D02*
X127196116Y-97848609D01*
X127196116Y-97848609D02*
X127148497Y-97943847D01*
X127148497Y-97943847D02*
X127148497Y-98181942D01*
X127148497Y-98181942D02*
X127196116Y-98277180D01*
X127196116Y-98277180D02*
X127243735Y-98324800D01*
X127243735Y-98324800D02*
X127338973Y-98372419D01*
X127338973Y-98372419D02*
X127624687Y-98372419D01*
X127624687Y-98372419D02*
X127719925Y-98324800D01*
X127719925Y-98324800D02*
X127767544Y-98277180D01*
X126815163Y-97372419D02*
X126196116Y-97372419D01*
X126196116Y-97372419D02*
X126529449Y-97753371D01*
X126529449Y-97753371D02*
X126386592Y-97753371D01*
X126386592Y-97753371D02*
X126291354Y-97800990D01*
X126291354Y-97800990D02*
X126243735Y-97848609D01*
X126243735Y-97848609D02*
X126196116Y-97943847D01*
X126196116Y-97943847D02*
X126196116Y-98181942D01*
X126196116Y-98181942D02*
X126243735Y-98277180D01*
X126243735Y-98277180D02*
X126291354Y-98324800D01*
X126291354Y-98324800D02*
X126386592Y-98372419D01*
X126386592Y-98372419D02*
X126672306Y-98372419D01*
X126672306Y-98372419D02*
X126767544Y-98324800D01*
X126767544Y-98324800D02*
X126815163Y-98277180D01*
X117372419Y-112780074D02*
X117372419Y-112303884D01*
X117372419Y-112303884D02*
X116372419Y-112303884D01*
X117324800Y-113494360D02*
X117372419Y-113399122D01*
X117372419Y-113399122D02*
X117372419Y-113208646D01*
X117372419Y-113208646D02*
X117324800Y-113113408D01*
X117324800Y-113113408D02*
X117229561Y-113065789D01*
X117229561Y-113065789D02*
X116848609Y-113065789D01*
X116848609Y-113065789D02*
X116753371Y-113113408D01*
X116753371Y-113113408D02*
X116705752Y-113208646D01*
X116705752Y-113208646D02*
X116705752Y-113399122D01*
X116705752Y-113399122D02*
X116753371Y-113494360D01*
X116753371Y-113494360D02*
X116848609Y-113541979D01*
X116848609Y-113541979D02*
X116943847Y-113541979D01*
X116943847Y-113541979D02*
X117039085Y-113065789D01*
X116705752Y-113827694D02*
X116705752Y-114208646D01*
X117372419Y-113970551D02*
X116515276Y-113970551D01*
X116515276Y-113970551D02*
X116420038Y-114018170D01*
X116420038Y-114018170D02*
X116372419Y-114113408D01*
X116372419Y-114113408D02*
X116372419Y-114208646D01*
X116705752Y-114399123D02*
X116705752Y-114780075D01*
X116372419Y-114541980D02*
X117229561Y-114541980D01*
X117229561Y-114541980D02*
X117324800Y-114589599D01*
X117324800Y-114589599D02*
X117372419Y-114684837D01*
X117372419Y-114684837D02*
X117372419Y-114780075D01*
X124124687Y-124277180D02*
X124172306Y-124324800D01*
X124172306Y-124324800D02*
X124315163Y-124372419D01*
X124315163Y-124372419D02*
X124410401Y-124372419D01*
X124410401Y-124372419D02*
X124553258Y-124324800D01*
X124553258Y-124324800D02*
X124648496Y-124229561D01*
X124648496Y-124229561D02*
X124696115Y-124134323D01*
X124696115Y-124134323D02*
X124743734Y-123943847D01*
X124743734Y-123943847D02*
X124743734Y-123800990D01*
X124743734Y-123800990D02*
X124696115Y-123610514D01*
X124696115Y-123610514D02*
X124648496Y-123515276D01*
X124648496Y-123515276D02*
X124553258Y-123420038D01*
X124553258Y-123420038D02*
X124410401Y-123372419D01*
X124410401Y-123372419D02*
X124315163Y-123372419D01*
X124315163Y-123372419D02*
X124172306Y-123420038D01*
X124172306Y-123420038D02*
X124124687Y-123467657D01*
X123315163Y-124324800D02*
X123410401Y-124372419D01*
X123410401Y-124372419D02*
X123600877Y-124372419D01*
X123600877Y-124372419D02*
X123696115Y-124324800D01*
X123696115Y-124324800D02*
X123743734Y-124229561D01*
X123743734Y-124229561D02*
X123743734Y-123848609D01*
X123743734Y-123848609D02*
X123696115Y-123753371D01*
X123696115Y-123753371D02*
X123600877Y-123705752D01*
X123600877Y-123705752D02*
X123410401Y-123705752D01*
X123410401Y-123705752D02*
X123315163Y-123753371D01*
X123315163Y-123753371D02*
X123267544Y-123848609D01*
X123267544Y-123848609D02*
X123267544Y-123943847D01*
X123267544Y-123943847D02*
X123743734Y-124039085D01*
X122838972Y-123705752D02*
X122838972Y-124372419D01*
X122838972Y-123800990D02*
X122791353Y-123753371D01*
X122791353Y-123753371D02*
X122696115Y-123705752D01*
X122696115Y-123705752D02*
X122553258Y-123705752D01*
X122553258Y-123705752D02*
X122458020Y-123753371D01*
X122458020Y-123753371D02*
X122410401Y-123848609D01*
X122410401Y-123848609D02*
X122410401Y-124372419D01*
X122077067Y-123705752D02*
X121696115Y-123705752D01*
X121934210Y-123372419D02*
X121934210Y-124229561D01*
X121934210Y-124229561D02*
X121886591Y-124324800D01*
X121886591Y-124324800D02*
X121791353Y-124372419D01*
X121791353Y-124372419D02*
X121696115Y-124372419D01*
X120981829Y-124324800D02*
X121077067Y-124372419D01*
X121077067Y-124372419D02*
X121267543Y-124372419D01*
X121267543Y-124372419D02*
X121362781Y-124324800D01*
X121362781Y-124324800D02*
X121410400Y-124229561D01*
X121410400Y-124229561D02*
X121410400Y-123848609D01*
X121410400Y-123848609D02*
X121362781Y-123753371D01*
X121362781Y-123753371D02*
X121267543Y-123705752D01*
X121267543Y-123705752D02*
X121077067Y-123705752D01*
X121077067Y-123705752D02*
X120981829Y-123753371D01*
X120981829Y-123753371D02*
X120934210Y-123848609D01*
X120934210Y-123848609D02*
X120934210Y-123943847D01*
X120934210Y-123943847D02*
X121410400Y-124039085D01*
X120505638Y-124372419D02*
X120505638Y-123705752D01*
X120505638Y-123896228D02*
X120458019Y-123800990D01*
X120458019Y-123800990D02*
X120410400Y-123753371D01*
X120410400Y-123753371D02*
X120315162Y-123705752D01*
X120315162Y-123705752D02*
X120219924Y-123705752D01*
X143413295Y-113743734D02*
X143413295Y-113267544D01*
X143127580Y-113838972D02*
X144127580Y-113505639D01*
X144127580Y-113505639D02*
X143127580Y-113172306D01*
X143794247Y-112838972D02*
X143127580Y-112838972D01*
X143699009Y-112838972D02*
X143746628Y-112791353D01*
X143746628Y-112791353D02*
X143794247Y-112696115D01*
X143794247Y-112696115D02*
X143794247Y-112553258D01*
X143794247Y-112553258D02*
X143746628Y-112458020D01*
X143746628Y-112458020D02*
X143651390Y-112410401D01*
X143651390Y-112410401D02*
X143127580Y-112410401D01*
X143127580Y-111505639D02*
X143651390Y-111505639D01*
X143651390Y-111505639D02*
X143746628Y-111553258D01*
X143746628Y-111553258D02*
X143794247Y-111648496D01*
X143794247Y-111648496D02*
X143794247Y-111838972D01*
X143794247Y-111838972D02*
X143746628Y-111934210D01*
X143175200Y-111505639D02*
X143127580Y-111600877D01*
X143127580Y-111600877D02*
X143127580Y-111838972D01*
X143127580Y-111838972D02*
X143175200Y-111934210D01*
X143175200Y-111934210D02*
X143270438Y-111981829D01*
X143270438Y-111981829D02*
X143365676Y-111981829D01*
X143365676Y-111981829D02*
X143460914Y-111934210D01*
X143460914Y-111934210D02*
X143508533Y-111838972D01*
X143508533Y-111838972D02*
X143508533Y-111600877D01*
X143508533Y-111600877D02*
X143556152Y-111505639D01*
X143127580Y-110886591D02*
X143175200Y-110981829D01*
X143175200Y-110981829D02*
X143270438Y-111029448D01*
X143270438Y-111029448D02*
X144127580Y-111029448D01*
X143127580Y-110362781D02*
X143175200Y-110458019D01*
X143175200Y-110458019D02*
X143222819Y-110505638D01*
X143222819Y-110505638D02*
X143318057Y-110553257D01*
X143318057Y-110553257D02*
X143603771Y-110553257D01*
X143603771Y-110553257D02*
X143699009Y-110505638D01*
X143699009Y-110505638D02*
X143746628Y-110458019D01*
X143746628Y-110458019D02*
X143794247Y-110362781D01*
X143794247Y-110362781D02*
X143794247Y-110219924D01*
X143794247Y-110219924D02*
X143746628Y-110124686D01*
X143746628Y-110124686D02*
X143699009Y-110077067D01*
X143699009Y-110077067D02*
X143603771Y-110029448D01*
X143603771Y-110029448D02*
X143318057Y-110029448D01*
X143318057Y-110029448D02*
X143222819Y-110077067D01*
X143222819Y-110077067D02*
X143175200Y-110124686D01*
X143175200Y-110124686D02*
X143127580Y-110219924D01*
X143127580Y-110219924D02*
X143127580Y-110362781D01*
X143794247Y-109172305D02*
X142984723Y-109172305D01*
X142984723Y-109172305D02*
X142889485Y-109219924D01*
X142889485Y-109219924D02*
X142841866Y-109267543D01*
X142841866Y-109267543D02*
X142794247Y-109362781D01*
X142794247Y-109362781D02*
X142794247Y-109505638D01*
X142794247Y-109505638D02*
X142841866Y-109600876D01*
X143175200Y-109172305D02*
X143127580Y-109267543D01*
X143127580Y-109267543D02*
X143127580Y-109458019D01*
X143127580Y-109458019D02*
X143175200Y-109553257D01*
X143175200Y-109553257D02*
X143222819Y-109600876D01*
X143222819Y-109600876D02*
X143318057Y-109648495D01*
X143318057Y-109648495D02*
X143603771Y-109648495D01*
X143603771Y-109648495D02*
X143699009Y-109600876D01*
X143699009Y-109600876D02*
X143746628Y-109553257D01*
X143746628Y-109553257D02*
X143794247Y-109458019D01*
X143794247Y-109458019D02*
X143794247Y-109267543D01*
X143794247Y-109267543D02*
X143746628Y-109172305D01*
X143627580Y-119291353D02*
X143627580Y-118672306D01*
X143627580Y-118672306D02*
X143246628Y-119005639D01*
X143246628Y-119005639D02*
X143246628Y-118862782D01*
X143246628Y-118862782D02*
X143199009Y-118767544D01*
X143199009Y-118767544D02*
X143151390Y-118719925D01*
X143151390Y-118719925D02*
X143056152Y-118672306D01*
X143056152Y-118672306D02*
X142818057Y-118672306D01*
X142818057Y-118672306D02*
X142722819Y-118719925D01*
X142722819Y-118719925D02*
X142675200Y-118767544D01*
X142675200Y-118767544D02*
X142627580Y-118862782D01*
X142627580Y-118862782D02*
X142627580Y-119148496D01*
X142627580Y-119148496D02*
X142675200Y-119243734D01*
X142675200Y-119243734D02*
X142722819Y-119291353D01*
X142627580Y-118243734D02*
X143627580Y-118243734D01*
X142627580Y-117672306D02*
X143199009Y-118100877D01*
X143627580Y-117672306D02*
X143056152Y-118243734D01*
X137872419Y-94803884D02*
X136872419Y-94803884D01*
X136872419Y-95470550D02*
X136872419Y-95661026D01*
X136872419Y-95661026D02*
X136920038Y-95756264D01*
X136920038Y-95756264D02*
X137015276Y-95851502D01*
X137015276Y-95851502D02*
X137205752Y-95899121D01*
X137205752Y-95899121D02*
X137539085Y-95899121D01*
X137539085Y-95899121D02*
X137729561Y-95851502D01*
X137729561Y-95851502D02*
X137824800Y-95756264D01*
X137824800Y-95756264D02*
X137872419Y-95661026D01*
X137872419Y-95661026D02*
X137872419Y-95470550D01*
X137872419Y-95470550D02*
X137824800Y-95375312D01*
X137824800Y-95375312D02*
X137729561Y-95280074D01*
X137729561Y-95280074D02*
X137539085Y-95232455D01*
X137539085Y-95232455D02*
X137205752Y-95232455D01*
X137205752Y-95232455D02*
X137015276Y-95280074D01*
X137015276Y-95280074D02*
X136920038Y-95375312D01*
X136920038Y-95375312D02*
X136872419Y-95470550D01*
X136967657Y-96280074D02*
X136920038Y-96327693D01*
X136920038Y-96327693D02*
X136872419Y-96422931D01*
X136872419Y-96422931D02*
X136872419Y-96661026D01*
X136872419Y-96661026D02*
X136920038Y-96756264D01*
X136920038Y-96756264D02*
X136967657Y-96803883D01*
X136967657Y-96803883D02*
X137062895Y-96851502D01*
X137062895Y-96851502D02*
X137158133Y-96851502D01*
X137158133Y-96851502D02*
X137300990Y-96803883D01*
X137300990Y-96803883D02*
X137872419Y-96232455D01*
X137872419Y-96232455D02*
X137872419Y-96851502D01*
X136872419Y-97708645D02*
X136872419Y-97518169D01*
X136872419Y-97518169D02*
X136920038Y-97422931D01*
X136920038Y-97422931D02*
X136967657Y-97375312D01*
X136967657Y-97375312D02*
X137110514Y-97280074D01*
X137110514Y-97280074D02*
X137300990Y-97232455D01*
X137300990Y-97232455D02*
X137681942Y-97232455D01*
X137681942Y-97232455D02*
X137777180Y-97280074D01*
X137777180Y-97280074D02*
X137824800Y-97327693D01*
X137824800Y-97327693D02*
X137872419Y-97422931D01*
X137872419Y-97422931D02*
X137872419Y-97613407D01*
X137872419Y-97613407D02*
X137824800Y-97708645D01*
X137824800Y-97708645D02*
X137777180Y-97756264D01*
X137777180Y-97756264D02*
X137681942Y-97803883D01*
X137681942Y-97803883D02*
X137443847Y-97803883D01*
X137443847Y-97803883D02*
X137348609Y-97756264D01*
X137348609Y-97756264D02*
X137300990Y-97708645D01*
X137300990Y-97708645D02*
X137253371Y-97613407D01*
X137253371Y-97613407D02*
X137253371Y-97422931D01*
X137253371Y-97422931D02*
X137300990Y-97327693D01*
X137300990Y-97327693D02*
X137348609Y-97280074D01*
X137348609Y-97280074D02*
X137443847Y-97232455D01*
D11*
%TO.C,TP14*%
X131204814Y-95259652D02*
X133104814Y-95259652D01*
X131204814Y-97159652D02*
X131204814Y-95259652D01*
X133104814Y-95259652D02*
X133104814Y-97159652D01*
X133104814Y-97159652D02*
X131204814Y-97159652D01*
%TO.C,TP15*%
X126969477Y-95259652D02*
X128869477Y-95259652D01*
X126969477Y-97159652D02*
X126969477Y-95259652D01*
X128869477Y-95259652D02*
X128869477Y-97159652D01*
X128869477Y-97159652D02*
X126969477Y-97159652D01*
%TO.C,TP13*%
X134204814Y-95259652D02*
X136104814Y-95259652D01*
X134204814Y-97159652D02*
X134204814Y-95259652D01*
X136104814Y-95259652D02*
X136104814Y-97159652D01*
X136104814Y-97159652D02*
X134204814Y-97159652D01*
%TO.C,TP36*%
X122550000Y-95050000D02*
X124450000Y-95050000D01*
X122550000Y-96950000D02*
X122550000Y-95050000D01*
X124450000Y-95050000D02*
X124450000Y-96950000D01*
X124450000Y-96950000D02*
X122550000Y-96950000D01*
%TO.C,TP12*%
X126050000Y-99550000D02*
X127950000Y-99550000D01*
X126050000Y-101450000D02*
X126050000Y-99550000D01*
X127950000Y-99550000D02*
X127950000Y-101450000D01*
X127950000Y-101450000D02*
X126050000Y-101450000D01*
%TO.C,TP16*%
X131204814Y-92259652D02*
X133104814Y-92259652D01*
X131204814Y-94159652D02*
X131204814Y-92259652D01*
X133104814Y-92259652D02*
X133104814Y-94159652D01*
X133104814Y-94159652D02*
X131204814Y-94159652D01*
%TO.C,TP35*%
X122550000Y-98550000D02*
X124450000Y-98550000D01*
X122550000Y-100450000D02*
X122550000Y-98550000D01*
X124450000Y-98550000D02*
X124450000Y-100450000D01*
X124450000Y-100450000D02*
X122550000Y-100450000D01*
%TD*%
%LPC*%
D12*
%TO.C,USB1*%
X119369693Y-82119989D03*
D13*
X118169795Y-79449682D03*
X125419477Y-79449682D03*
D12*
X124219579Y-82119735D03*
%TD*%
D14*
%TO.C,TP14*%
X132154814Y-96209652D03*
%TD*%
%TO.C,TP15*%
X127919477Y-96209652D03*
%TD*%
%TO.C,TP13*%
X135154814Y-96209652D03*
%TD*%
%TO.C,TP36*%
X123500000Y-96000000D03*
%TD*%
%TO.C,TP12*%
X127000000Y-100500000D03*
%TD*%
%TO.C,TP16*%
X132154814Y-93209652D03*
%TD*%
%TO.C,TP35*%
X123500000Y-99500000D03*
%TD*%
%LPD*%
M02*
