%TF.GenerationSoftware,KiCad,Pcbnew,8.0.4*%
%TF.CreationDate,2025-01-08T21:09:23+00:00*%
%TF.ProjectId,esp32-c,65737033-322d-4632-9e6b-696361645f70,rev?*%
%TF.SameCoordinates,Original*%
%TF.FileFunction,Copper,L2,Bot*%
%TF.FilePolarity,Positive*%
%FSLAX46Y46*%
G04 Gerber Fmt 4.6, Leading zero omitted, Abs format (unit mm)*
G04 Created by KiCad (PCBNEW 8.0.4) date 2025-01-08 21:09:23*
%MOMM*%
%LPD*%
G01*
G04 APERTURE LIST*
%TA.AperFunction,EtchedComponent*%
%ADD10C,0.000000*%
%TD*%
%TA.AperFunction,ComponentPad*%
%ADD11C,1.800000*%
%TD*%
%TA.AperFunction,ComponentPad*%
%ADD12C,1.300000*%
%TD*%
%TA.AperFunction,ComponentPad*%
%ADD13O,1.300000X1.800000*%
%TD*%
%TA.AperFunction,SMDPad,CuDef*%
%ADD14R,1.000000X1.500000*%
%TD*%
%TA.AperFunction,SMDPad,CuDef*%
%ADD15R,1.500000X1.500000*%
%TD*%
%TA.AperFunction,SMDPad,CuDef*%
%ADD16R,1.000000X1.000000*%
%TD*%
%TA.AperFunction,ViaPad*%
%ADD17C,0.600000*%
%TD*%
%TA.AperFunction,ViaPad*%
%ADD18C,0.800000*%
%TD*%
%TA.AperFunction,Conductor*%
%ADD19C,0.280000*%
%TD*%
%TA.AperFunction,Conductor*%
%ADD20C,0.200000*%
%TD*%
%TA.AperFunction,Conductor*%
%ADD21C,0.500000*%
%TD*%
G04 APERTURE END LIST*
D10*
%TA.AperFunction,EtchedComponent*%
%TO.C,JP1*%
G36*
X115400000Y-94300000D02*
G01*
X114900000Y-94300000D01*
X114900000Y-93700000D01*
X115400000Y-93700000D01*
X115400000Y-94300000D01*
G37*
%TD.AperFunction*%
%TD*%
D11*
%TO.P,U15,1,1*%
%TO.N,GND*%
X163999873Y-74350140D03*
%TO.P,U15,2,2*%
%TO.N,/ESP32/ESP_EN*%
X160999873Y-74350140D03*
%TO.P,U15,3,3*%
%TO.N,unconnected-(U15-Pad3)*%
X162500000Y-72500000D03*
%TD*%
%TO.P,U14,1,1*%
%TO.N,GND*%
X156499873Y-74350140D03*
%TO.P,U14,2,2*%
%TO.N,/ESP32/ESP_MODE*%
X153499873Y-74350140D03*
%TO.P,U14,3,3*%
%TO.N,unconnected-(U14-Pad3)*%
X155000000Y-72500000D03*
%TD*%
D12*
%TO.P,USB1,9,SH4*%
%TO.N,GND*%
X124219579Y-82119735D03*
D13*
%TO.P,USB1,8,SH3*%
X125419477Y-79449682D03*
%TO.P,USB1,7,SH2*%
X118169795Y-79449682D03*
D12*
%TO.P,USB1,6,SH1*%
X119369693Y-82119989D03*
%TD*%
D14*
%TO.P,JP1,2,B*%
%TO.N,Net-(JP1-B)*%
X115800000Y-94000000D03*
%TO.P,JP1,1,A*%
%TO.N,Net-(JP1-A)*%
X114500000Y-94000000D03*
%TD*%
D15*
%TO.P,TP14,1,1*%
%TO.N,Net-(U12-IO25)*%
X132154814Y-96209652D03*
%TD*%
D16*
%TO.P,TP9,1,1*%
%TO.N,Net-(JP1-B)*%
X118500000Y-94000000D03*
%TD*%
D15*
%TO.P,TP15,1,1*%
%TO.N,Net-(U12-IO33)*%
X127919477Y-96209652D03*
%TD*%
%TO.P,TP13,1,1*%
%TO.N,Net-(U12-IO26)*%
X135154814Y-96209652D03*
%TD*%
%TO.P,TP36,1,1*%
%TO.N,UART_RX*%
X123500000Y-96000000D03*
%TD*%
%TO.P,TP12,1,1*%
%TO.N,Net-(U12-IO27)*%
X127000000Y-100500000D03*
%TD*%
%TO.P,TP16,1,1*%
%TO.N,Net-(U12-IO32)*%
X132154814Y-93209652D03*
%TD*%
%TO.P,TP35,1,1*%
%TO.N,UART_TX*%
X123500000Y-99500000D03*
%TD*%
D17*
%TO.N,/ESP32/ESP_EN*%
X132154814Y-87209652D03*
X163500000Y-94709652D03*
%TO.N,GND*%
X113000000Y-102000000D03*
X116500000Y-118500000D03*
X110700000Y-131900000D03*
X134419477Y-91949682D03*
X116000000Y-121000000D03*
X148500000Y-111000000D03*
X127919477Y-93449682D03*
D18*
X130500000Y-105000000D03*
D17*
X115500000Y-99500000D03*
X165500000Y-95500000D03*
X120500000Y-104000000D03*
X108500000Y-120500000D03*
X155500000Y-111500000D03*
X170500000Y-101000000D03*
X128000000Y-103000000D03*
X139419477Y-89449682D03*
X132919477Y-84449682D03*
X150919477Y-77449682D03*
X113919477Y-98949682D03*
X152500000Y-129500000D03*
X111500000Y-120500000D03*
X137419477Y-89449682D03*
X148500000Y-122500000D03*
X114500000Y-76000000D03*
D18*
X123000000Y-106500000D03*
D17*
X165919477Y-77949682D03*
D18*
X106000000Y-109500000D03*
D17*
X150919477Y-82949682D03*
X154419477Y-98449682D03*
X122419477Y-91449682D03*
X114419477Y-83449682D03*
D18*
X128000000Y-107000000D03*
D17*
X127419477Y-90449682D03*
X118000000Y-108500000D03*
D18*
X110000000Y-108500000D03*
D17*
X165919477Y-84449682D03*
D18*
X120000000Y-92000000D03*
D17*
X109919477Y-104449682D03*
X111000000Y-79000000D03*
X146000000Y-123500000D03*
X163500000Y-96500000D03*
D18*
X119500000Y-88000000D03*
D17*
X143500000Y-123500000D03*
D18*
X125500000Y-105000000D03*
D17*
X168000000Y-131500000D03*
X169500000Y-125000000D03*
X170000000Y-122000000D03*
X158419477Y-77449682D03*
X113500000Y-117000000D03*
X123419477Y-102449682D03*
D18*
X122500000Y-87000000D03*
D17*
X136419477Y-84449682D03*
X145000000Y-84000000D03*
D18*
X112500000Y-110500000D03*
D17*
X105500000Y-84500000D03*
X154000000Y-97000000D03*
X120500000Y-101500000D03*
X146000000Y-111500000D03*
X140500000Y-93500000D03*
X132419477Y-88449682D03*
X157919477Y-97949682D03*
X109419477Y-100449682D03*
D18*
X105500000Y-103000000D03*
D17*
X155500000Y-110000000D03*
D18*
X133000000Y-106500000D03*
D17*
X140419477Y-90949682D03*
%TO.N,+3.3V*%
X114900000Y-128500000D03*
D18*
X115500000Y-107000000D03*
X144000000Y-122000000D03*
X132154814Y-86209652D03*
X154000000Y-100500000D03*
X154000000Y-124500000D03*
D17*
X112000000Y-131900000D03*
D18*
X169500000Y-106000000D03*
X153154814Y-88709652D03*
X116154814Y-88209652D03*
X123154814Y-89709652D03*
%TO.N,Net-(D2-K)*%
X109654814Y-85949682D03*
X110654814Y-99209652D03*
D17*
%TO.N,PSP_START*%
X142000000Y-100000000D03*
X129500000Y-132500000D03*
%TO.N,Net-(JP1-B)*%
X124500000Y-94000000D03*
%TO.N,/PSP Pins 2K/PSP_x*%
X142500000Y-118500000D03*
X142500000Y-109500000D03*
%TO.N,/PSP Pins 2K/+V*%
X149000000Y-113250445D03*
X162500000Y-114000000D03*
X159500000Y-114000000D03*
X148500000Y-118500000D03*
%TO.N,RTS_PROG*%
X108500000Y-117000000D03*
X108360000Y-95000000D03*
X108000000Y-113500000D03*
%TO.N,/ESP32/ESP_BOOT*%
X160500000Y-101500000D03*
X160500000Y-103500000D03*
%TO.N,DTR_PROG*%
X112000000Y-113000000D03*
X108500000Y-93000000D03*
X106500000Y-118000000D03*
%TO.N,UART_TX*%
X143154814Y-96709652D03*
X119654814Y-97709652D03*
%TO.N,ESP_I2C_SDA*%
X151000000Y-123500000D03*
X129500000Y-125000000D03*
X115400000Y-130500000D03*
X127000000Y-123000000D03*
X151000000Y-100500000D03*
X157500000Y-123100000D03*
X157500000Y-121900000D03*
X153000000Y-123500000D03*
X157500000Y-120000000D03*
%TO.N,UART_RX*%
X142554814Y-96143965D03*
X119654814Y-95209652D03*
%TO.N,ESP_I2C_SCL*%
X152000000Y-122500000D03*
X142000000Y-124000000D03*
X158500000Y-120000000D03*
X152000000Y-100500000D03*
X128500000Y-123000000D03*
X115500000Y-131500000D03*
%TO.N,ESP_SPI_MISO*%
X136000000Y-105000000D03*
X133000000Y-100000000D03*
%TO.N,ESP_SPI_SCLK*%
X133000000Y-98500000D03*
X140000000Y-105600000D03*
%TO.N,/ESP32/ESPScreenDetect*%
X140654814Y-85209652D03*
X164654814Y-90209652D03*
%TO.N,/ESP32/LEDIndicator*%
X145500000Y-95000000D03*
X128000000Y-94500000D03*
%TO.N,Net-(U12-IO27)*%
X127000000Y-100500000D03*
%TO.N,/ESP32/ESP_MODE*%
X154154814Y-94209652D03*
X150500000Y-94209652D03*
%TO.N,Net-(U12-IO26)*%
X135154814Y-96209652D03*
%TO.N,Net-(U12-IO25)*%
X132154814Y-96209652D03*
%TO.N,Net-(U12-IO33)*%
X127919477Y-96209652D03*
%TO.N,Net-(U12-IO32)*%
X132154814Y-93209652D03*
%TO.N,/ESP32/ESPPowerDetect*%
X134154814Y-88709652D03*
X164500000Y-92709652D03*
X157154814Y-92709652D03*
X154154814Y-92709652D03*
%TO.N,PSP_SELECT*%
X127500000Y-132500000D03*
X145000000Y-97500000D03*
%TO.N,right*%
X143500000Y-129100000D03*
X117500000Y-127000000D03*
%TO.N,L1*%
X144500000Y-132600000D03*
X118500000Y-126500000D03*
%TO.N,/PSP Pins 2K/Analog_x*%
X148000000Y-114000000D03*
X148000000Y-112500000D03*
%TO.N,/PSP Pins 2K/PSP_y*%
X147000000Y-117500000D03*
X147000000Y-108500000D03*
%TO.N,Net-(JP1-A)*%
X108000000Y-84500000D03*
%TD*%
D19*
%TO.N,Net-(JP1-B)*%
X124500000Y-94000000D02*
X118751651Y-94000000D01*
D20*
%TO.N,/ESP32/ESP_EN*%
X157654814Y-94709652D02*
X150154814Y-87209652D01*
X163500000Y-94709652D02*
X157654814Y-94709652D01*
X150154814Y-87209652D02*
X132154814Y-87209652D01*
D21*
%TO.N,+3.3V*%
X117654814Y-89709652D02*
X116154814Y-88209652D01*
X114500000Y-128500000D02*
X114900000Y-128500000D01*
D19*
X144000000Y-122000000D02*
X145000000Y-121000000D01*
D21*
X169500000Y-119500000D02*
X168000000Y-121000000D01*
X113000000Y-127000000D02*
X114500000Y-128500000D01*
X154000000Y-100500000D02*
X168000000Y-100500000D01*
X168000000Y-121000000D02*
X154500000Y-121000000D01*
X153154814Y-86709652D02*
X152654814Y-86209652D01*
D19*
X145000000Y-121000000D02*
X154500000Y-121000000D01*
D21*
X169500000Y-106000000D02*
X169500000Y-119500000D01*
X168000000Y-100500000D02*
X169500000Y-102000000D01*
X169500000Y-102000000D02*
X169500000Y-106000000D01*
X115500000Y-107000000D02*
X115500000Y-119500000D01*
X154000000Y-124500000D02*
X154000000Y-121500000D01*
X153154814Y-88709652D02*
X153154814Y-86709652D01*
X115500000Y-119500000D02*
X113000000Y-122000000D01*
D19*
X114900000Y-128500000D02*
X114900000Y-129000000D01*
X114900000Y-129000000D02*
X112000000Y-131900000D01*
D21*
X123154814Y-89709652D02*
X117654814Y-89709652D01*
X113000000Y-122000000D02*
X113000000Y-127000000D01*
X154000000Y-121500000D02*
X154500000Y-121000000D01*
X152654814Y-86209652D02*
X132154814Y-86209652D01*
%TO.N,Net-(D2-K)*%
X110500000Y-86794868D02*
X110500000Y-99054838D01*
X110500000Y-99054838D02*
X110654814Y-99209652D01*
X109654814Y-85949682D02*
X110500000Y-86794868D01*
D20*
%TO.N,PSP_START*%
X141400000Y-122665686D02*
X141400000Y-100600000D01*
X127900000Y-125100000D02*
X129000000Y-124000000D01*
X129500000Y-132500000D02*
X127900000Y-130900000D01*
X140065686Y-124000000D02*
X141400000Y-122665686D01*
X141400000Y-100600000D02*
X142000000Y-100000000D01*
X127900000Y-130900000D02*
X127900000Y-125100000D01*
X129000000Y-124000000D02*
X140065686Y-124000000D01*
D19*
%TO.N,Net-(JP1-B)*%
X118500000Y-94000000D02*
X115800000Y-94000000D01*
D20*
%TO.N,/PSP Pins 2K/PSP_x*%
X142500000Y-118500000D02*
X142500000Y-109500000D01*
%TO.N,/PSP Pins 2K/+V*%
X149000000Y-118000000D02*
X148500000Y-118500000D01*
X159500000Y-114000000D02*
X162500000Y-114000000D01*
X149000000Y-113250445D02*
X149000000Y-118000000D01*
%TO.N,RTS_PROG*%
X107900000Y-95460000D02*
X107900000Y-112900000D01*
X108500000Y-117000000D02*
X108500000Y-114000000D01*
X108500000Y-114000000D02*
X108000000Y-113500000D01*
X108360000Y-95000000D02*
X107900000Y-95460000D01*
X108000000Y-113000000D02*
X108000000Y-113500000D01*
X107900000Y-112900000D02*
X108000000Y-113000000D01*
%TO.N,/ESP32/ESP_BOOT*%
X160500000Y-103500000D02*
X160500000Y-101500000D01*
D19*
%TO.N,DTR_PROG*%
X111000000Y-118000000D02*
X112000000Y-117000000D01*
X109000000Y-99500000D02*
X108779477Y-99720523D01*
X112000000Y-117000000D02*
X112000000Y-113000000D01*
X109000000Y-96000000D02*
X109000000Y-99500000D01*
X106500000Y-118000000D02*
X111000000Y-118000000D01*
X109500000Y-94000000D02*
X109500000Y-95500000D01*
X108779477Y-99720523D02*
X108779477Y-109779477D01*
X109500000Y-95500000D02*
X109000000Y-96000000D01*
X108779477Y-109779477D02*
X112000000Y-113000000D01*
X108500000Y-93000000D02*
X109500000Y-94000000D01*
D20*
%TO.N,UART_TX*%
X143154814Y-96709652D02*
X142014784Y-97849682D01*
X142014784Y-97849682D02*
X123500000Y-97849682D01*
X123500000Y-97849682D02*
X119794844Y-97849682D01*
X123500000Y-99500000D02*
X123500000Y-97849682D01*
X119794844Y-97849682D02*
X119654814Y-97709652D01*
%TO.N,ESP_I2C_SDA*%
X157500000Y-120000000D02*
X157500000Y-107000000D01*
X153000000Y-123500000D02*
X151000000Y-123500000D01*
X114900000Y-126248529D02*
X114900000Y-124751471D01*
X115500000Y-126848529D02*
X114900000Y-126248529D01*
X114900000Y-124751471D02*
X116651471Y-123000000D01*
X157500000Y-107000000D02*
X151000000Y-100500000D01*
X115500000Y-130400000D02*
X115500000Y-126848529D01*
X129500000Y-125000000D02*
X149500000Y-125000000D01*
X115400000Y-130500000D02*
X115500000Y-130400000D01*
X157500000Y-121900000D02*
X157500000Y-123100000D01*
X116651471Y-123000000D02*
X127000000Y-123000000D01*
X149500000Y-125000000D02*
X151000000Y-123500000D01*
%TO.N,UART_RX*%
X123500000Y-97369159D02*
X123419477Y-97449682D01*
X142554814Y-96743966D02*
X141849098Y-97449682D01*
X141849098Y-97449682D02*
X123419477Y-97449682D01*
X119654814Y-96709652D02*
X119654814Y-95209652D01*
X123419477Y-97449682D02*
X120394844Y-97449682D01*
X123500000Y-96000000D02*
X123500000Y-97369159D01*
X120394844Y-97449682D02*
X119654814Y-96709652D01*
X142554814Y-96143965D02*
X142554814Y-96743966D01*
%TO.N,ESP_I2C_SCL*%
X158500000Y-120000000D02*
X158500000Y-107000000D01*
X142600000Y-124600000D02*
X142000000Y-124000000D01*
X117600000Y-124400000D02*
X116000000Y-126000000D01*
X142600000Y-124600000D02*
X148400000Y-124600000D01*
X158500000Y-107000000D02*
X152000000Y-100500000D01*
X127100000Y-124400000D02*
X117600000Y-124400000D01*
X116000000Y-126000000D02*
X116000000Y-131000000D01*
X148400000Y-124600000D02*
X150500000Y-122500000D01*
X128500000Y-123000000D02*
X127100000Y-124400000D01*
X116000000Y-131000000D02*
X115500000Y-131500000D01*
X152000000Y-122500000D02*
X150500000Y-122500000D01*
%TO.N,ESP_SPI_MISO*%
X133000000Y-102000000D02*
X136000000Y-105000000D01*
X133000000Y-100000000D02*
X133000000Y-102000000D01*
%TO.N,ESP_SPI_SCLK*%
X140000000Y-105500000D02*
X133000000Y-98500000D01*
X140000000Y-105600000D02*
X140000000Y-105500000D01*
D19*
%TO.N,/ESP32/ESPScreenDetect*%
X154654814Y-87375266D02*
X152489200Y-85209652D01*
X164654814Y-90209652D02*
X154654814Y-90209652D01*
X152489200Y-85209652D02*
X140654814Y-85209652D01*
X154654814Y-90209652D02*
X154654814Y-87375266D01*
%TO.N,/ESP32/LEDIndicator*%
X128500000Y-95000000D02*
X128000000Y-94500000D01*
X145500000Y-95000000D02*
X128500000Y-95000000D01*
D20*
%TO.N,/ESP32/ESP_MODE*%
X150500000Y-94209652D02*
X154154814Y-94209652D01*
D19*
%TO.N,/ESP32/ESPPowerDetect*%
X134154814Y-88709652D02*
X137445162Y-92000000D01*
X164500000Y-92709652D02*
X157154814Y-92709652D01*
X153445162Y-92000000D02*
X154154814Y-92709652D01*
X137445162Y-92000000D02*
X153445162Y-92000000D01*
D20*
%TO.N,PSP_SELECT*%
X140000000Y-123500000D02*
X141000000Y-122500000D01*
X127500000Y-124934314D02*
X128934314Y-123500000D01*
X143000000Y-97500000D02*
X145000000Y-97500000D01*
X141000000Y-99500000D02*
X143000000Y-97500000D01*
X141000000Y-122500000D02*
X141000000Y-99500000D01*
X128934314Y-123500000D02*
X140000000Y-123500000D01*
X127500000Y-132500000D02*
X127500000Y-124934314D01*
%TO.N,right*%
X118000000Y-127500000D02*
X117500000Y-127000000D01*
X143500000Y-129100000D02*
X145500000Y-131100000D01*
X118000000Y-132565686D02*
X118000000Y-127500000D01*
X145500000Y-131100000D02*
X145500000Y-132448529D01*
X144448529Y-133500000D02*
X118934314Y-133500000D01*
X118934314Y-133500000D02*
X118000000Y-132565686D01*
X145500000Y-132448529D02*
X144448529Y-133500000D01*
%TO.N,L1*%
X144000000Y-133100000D02*
X119100000Y-133100000D01*
X118500000Y-132500000D02*
X118500000Y-126500000D01*
X119100000Y-133100000D02*
X118500000Y-132500000D01*
X144500000Y-132600000D02*
X144000000Y-133100000D01*
%TO.N,/PSP Pins 2K/Analog_x*%
X148000000Y-114000000D02*
X148000000Y-112500000D01*
%TO.N,/PSP Pins 2K/PSP_y*%
X147000000Y-108500000D02*
X147000000Y-117500000D01*
D19*
%TO.N,Net-(JP1-A)*%
X114500000Y-94000000D02*
X114500000Y-89748349D01*
X114500000Y-89748349D02*
X109251651Y-84500000D01*
X109251651Y-84500000D02*
X108000000Y-84500000D01*
%TD*%
%TA.AperFunction,Conductor*%
%TO.N,GND*%
G36*
X149921756Y-87829837D02*
G01*
X149942398Y-87846471D01*
X153243746Y-91147819D01*
X153277231Y-91209142D01*
X153272247Y-91278834D01*
X153230375Y-91334767D01*
X153164911Y-91359184D01*
X153156065Y-91359500D01*
X137761828Y-91359500D01*
X137694789Y-91339815D01*
X137674147Y-91323181D01*
X134978331Y-88627365D01*
X134944846Y-88566042D01*
X134942793Y-88553580D01*
X134940182Y-88530397D01*
X134880603Y-88360130D01*
X134784630Y-88207390D01*
X134657076Y-88079836D01*
X134592317Y-88039145D01*
X134546027Y-87986811D01*
X134535379Y-87917758D01*
X134563754Y-87853909D01*
X134622144Y-87815537D01*
X134658290Y-87810152D01*
X149854717Y-87810152D01*
X149921756Y-87829837D01*
G37*
%TD.AperFunction*%
%TA.AperFunction,Conductor*%
G36*
X115862016Y-71469867D02*
G01*
X115907771Y-71522671D01*
X115918977Y-71574182D01*
X115918977Y-77515573D01*
X115953085Y-77642869D01*
X115986031Y-77699932D01*
X116018977Y-77756996D01*
X116112163Y-77850182D01*
X116226291Y-77916074D01*
X116353585Y-77950182D01*
X116485369Y-77950182D01*
X117572487Y-77950182D01*
X117639526Y-77969867D01*
X117685281Y-78022671D01*
X117695225Y-78091829D01*
X117666200Y-78155385D01*
X117628782Y-78184667D01*
X117567060Y-78216116D01*
X117420625Y-78322505D01*
X117292618Y-78450512D01*
X117186229Y-78596947D01*
X117104047Y-78758234D01*
X117104046Y-78758237D01*
X117048112Y-78930388D01*
X117019795Y-79109175D01*
X117019795Y-79199682D01*
X117820836Y-79199682D01*
X117819782Y-79203615D01*
X117819782Y-79695749D01*
X117820836Y-79699682D01*
X117019795Y-79699682D01*
X117019795Y-79790188D01*
X117048112Y-79968975D01*
X117104046Y-80141126D01*
X117104047Y-80141129D01*
X117186229Y-80302416D01*
X117292618Y-80448851D01*
X117420625Y-80576858D01*
X117567060Y-80683247D01*
X117728347Y-80765429D01*
X117728350Y-80765430D01*
X117900494Y-80821362D01*
X117900507Y-80821365D01*
X117919795Y-80824420D01*
X117919795Y-79894662D01*
X117954882Y-79929749D01*
X118034695Y-79975829D01*
X118123715Y-79999682D01*
X118215875Y-79999682D01*
X118304895Y-79975829D01*
X118384708Y-79929749D01*
X118419795Y-79894662D01*
X118419795Y-80824419D01*
X118439082Y-80821365D01*
X118439095Y-80821362D01*
X118611239Y-80765430D01*
X118611242Y-80765429D01*
X118772529Y-80683247D01*
X118918964Y-80576858D01*
X119046971Y-80448851D01*
X119153360Y-80302416D01*
X119235542Y-80141129D01*
X119235543Y-80141126D01*
X119291477Y-79968975D01*
X119319795Y-79790188D01*
X119319795Y-79699682D01*
X118518754Y-79699682D01*
X118519808Y-79695749D01*
X118519808Y-79203615D01*
X118518754Y-79199682D01*
X119319795Y-79199682D01*
X119319795Y-79109175D01*
X119291477Y-78930388D01*
X119235543Y-78758237D01*
X119235542Y-78758234D01*
X119153360Y-78596947D01*
X119046971Y-78450512D01*
X118918964Y-78322505D01*
X118772529Y-78216116D01*
X118710808Y-78184667D01*
X118660012Y-78136692D01*
X118643217Y-78068871D01*
X118665755Y-78002736D01*
X118720470Y-77959285D01*
X118767103Y-77950182D01*
X124822169Y-77950182D01*
X124889208Y-77969867D01*
X124934963Y-78022671D01*
X124944907Y-78091829D01*
X124915882Y-78155385D01*
X124878464Y-78184667D01*
X124816742Y-78216116D01*
X124670307Y-78322505D01*
X124542300Y-78450512D01*
X124435911Y-78596947D01*
X124353729Y-78758234D01*
X124353728Y-78758237D01*
X124297794Y-78930388D01*
X124269477Y-79109175D01*
X124269477Y-79199682D01*
X125070518Y-79199682D01*
X125069464Y-79203615D01*
X125069464Y-79695749D01*
X125070518Y-79699682D01*
X124269477Y-79699682D01*
X124269477Y-79790188D01*
X124297794Y-79968975D01*
X124353728Y-80141126D01*
X124353729Y-80141129D01*
X124435911Y-80302416D01*
X124542300Y-80448851D01*
X124670307Y-80576858D01*
X124816742Y-80683247D01*
X124978029Y-80765429D01*
X124978032Y-80765430D01*
X125150176Y-80821362D01*
X125150189Y-80821365D01*
X125169477Y-80824420D01*
X125169477Y-79894662D01*
X125204564Y-79929749D01*
X125284377Y-79975829D01*
X125373397Y-79999682D01*
X125465557Y-79999682D01*
X125554577Y-79975829D01*
X125634390Y-79929749D01*
X125669477Y-79894662D01*
X125669477Y-80824419D01*
X125688764Y-80821365D01*
X125688777Y-80821362D01*
X125860921Y-80765430D01*
X125860924Y-80765429D01*
X126022211Y-80683247D01*
X126168646Y-80576858D01*
X126296653Y-80448851D01*
X126403042Y-80302416D01*
X126485224Y-80141129D01*
X126485225Y-80141126D01*
X126541159Y-79968975D01*
X126569477Y-79790188D01*
X126569477Y-79699682D01*
X125768436Y-79699682D01*
X125769490Y-79695749D01*
X125769490Y-79203615D01*
X125768436Y-79199682D01*
X126569477Y-79199682D01*
X126569477Y-79109175D01*
X126541159Y-78930388D01*
X126485225Y-78758237D01*
X126485224Y-78758234D01*
X126403042Y-78596947D01*
X126296653Y-78450512D01*
X126168646Y-78322505D01*
X126022211Y-78216116D01*
X125960490Y-78184667D01*
X125909694Y-78136692D01*
X125892899Y-78068871D01*
X125915437Y-78002736D01*
X125970152Y-77959285D01*
X126016785Y-77950182D01*
X126794977Y-77950182D01*
X126862016Y-77969867D01*
X126907771Y-78022671D01*
X126918977Y-78074182D01*
X126918977Y-83015573D01*
X126953085Y-83142869D01*
X126986031Y-83199932D01*
X127018977Y-83256996D01*
X127112163Y-83350182D01*
X127226291Y-83416074D01*
X127353585Y-83450182D01*
X127353587Y-83450182D01*
X149485367Y-83450182D01*
X149485369Y-83450182D01*
X149612663Y-83416074D01*
X149726791Y-83350182D01*
X149819977Y-83256996D01*
X149885869Y-83142868D01*
X149919977Y-83015574D01*
X149919977Y-71574182D01*
X149939662Y-71507143D01*
X149992466Y-71461388D01*
X150043977Y-71450182D01*
X153783843Y-71450182D01*
X153850882Y-71469867D01*
X153896637Y-71522671D01*
X153906581Y-71591829D01*
X153887652Y-71642003D01*
X153764075Y-71831151D01*
X153670842Y-72043699D01*
X153613866Y-72268691D01*
X153613864Y-72268702D01*
X153594700Y-72499993D01*
X153594700Y-72500006D01*
X153613864Y-72731297D01*
X153613868Y-72731316D01*
X153630046Y-72795199D01*
X153627422Y-72865019D01*
X153587467Y-72922337D01*
X153522866Y-72948954D01*
X153509841Y-72949640D01*
X153383824Y-72949640D01*
X153343913Y-72956300D01*
X153154888Y-72987842D01*
X152935377Y-73063201D01*
X152935368Y-73063204D01*
X152731244Y-73173671D01*
X152731238Y-73173675D01*
X152548095Y-73316221D01*
X152548092Y-73316224D01*
X152390889Y-73486992D01*
X152263948Y-73681291D01*
X152170715Y-73893839D01*
X152113739Y-74118831D01*
X152113737Y-74118842D01*
X152094573Y-74350133D01*
X152094573Y-74350146D01*
X152113737Y-74581437D01*
X152113739Y-74581448D01*
X152170715Y-74806440D01*
X152263948Y-75018988D01*
X152390889Y-75213287D01*
X152390892Y-75213291D01*
X152390894Y-75213293D01*
X152548089Y-75384053D01*
X152548092Y-75384055D01*
X152548095Y-75384058D01*
X152731238Y-75526604D01*
X152731244Y-75526608D01*
X152731247Y-75526610D01*
X152833961Y-75582196D01*
X152934525Y-75636619D01*
X152935370Y-75637076D01*
X153031551Y-75670095D01*
X153154888Y-75712437D01*
X153154890Y-75712437D01*
X153154892Y-75712438D01*
X153383824Y-75750640D01*
X153383825Y-75750640D01*
X153615921Y-75750640D01*
X153615922Y-75750640D01*
X153844854Y-75712438D01*
X154064376Y-75637076D01*
X154268499Y-75526610D01*
X154269043Y-75526187D01*
X154368653Y-75448657D01*
X154451657Y-75384053D01*
X154608852Y-75213293D01*
X154735797Y-75018989D01*
X154829030Y-74806440D01*
X154879925Y-74605458D01*
X154915465Y-74545304D01*
X154977885Y-74513912D01*
X155047368Y-74521250D01*
X155101854Y-74564989D01*
X155120337Y-74605460D01*
X155171190Y-74806275D01*
X155264388Y-75018746D01*
X155348685Y-75147772D01*
X156016910Y-74479548D01*
X156033948Y-74543133D01*
X156099774Y-74657147D01*
X156192866Y-74750239D01*
X156306880Y-74816065D01*
X156370463Y-74833102D01*
X155701074Y-75502491D01*
X155731522Y-75526190D01*
X155935570Y-75636616D01*
X155935579Y-75636619D01*
X156155012Y-75711951D01*
X156383866Y-75750140D01*
X156615880Y-75750140D01*
X156844733Y-75711951D01*
X157064166Y-75636619D01*
X157064174Y-75636616D01*
X157268228Y-75526187D01*
X157298670Y-75502491D01*
X157298671Y-75502490D01*
X156629283Y-74833102D01*
X156692866Y-74816065D01*
X156806880Y-74750239D01*
X156899972Y-74657147D01*
X156965798Y-74543133D01*
X156982835Y-74479549D01*
X157651059Y-75147773D01*
X157735355Y-75018751D01*
X157828555Y-74806275D01*
X157885511Y-74581358D01*
X157904671Y-74350145D01*
X157904671Y-74350134D01*
X157885511Y-74118921D01*
X157828555Y-73894004D01*
X157735357Y-73681533D01*
X157651059Y-73552505D01*
X156982835Y-74220729D01*
X156965798Y-74157147D01*
X156899972Y-74043133D01*
X156806880Y-73950041D01*
X156692866Y-73884215D01*
X156629282Y-73867177D01*
X157298670Y-73197787D01*
X157298670Y-73197785D01*
X157268233Y-73174095D01*
X157268227Y-73174091D01*
X157064175Y-73063663D01*
X157064166Y-73063660D01*
X156844733Y-72988328D01*
X156615880Y-72950140D01*
X156490033Y-72950140D01*
X156422994Y-72930455D01*
X156377239Y-72877651D01*
X156367295Y-72808493D01*
X156369827Y-72795700D01*
X156386133Y-72731308D01*
X156386135Y-72731297D01*
X156405300Y-72500006D01*
X156405300Y-72499993D01*
X156386135Y-72268702D01*
X156386133Y-72268691D01*
X156329157Y-72043699D01*
X156235924Y-71831151D01*
X156112348Y-71642003D01*
X156092161Y-71575114D01*
X156111341Y-71507928D01*
X156163799Y-71461778D01*
X156216157Y-71450182D01*
X161283843Y-71450182D01*
X161350882Y-71469867D01*
X161396637Y-71522671D01*
X161406581Y-71591829D01*
X161387652Y-71642003D01*
X161264075Y-71831151D01*
X161170842Y-72043699D01*
X161113866Y-72268691D01*
X161113864Y-72268702D01*
X161094700Y-72499993D01*
X161094700Y-72500006D01*
X161113864Y-72731297D01*
X161113868Y-72731316D01*
X161130046Y-72795199D01*
X161127422Y-72865019D01*
X161087467Y-72922337D01*
X161022866Y-72948954D01*
X161009841Y-72949640D01*
X160883824Y-72949640D01*
X160843913Y-72956300D01*
X160654888Y-72987842D01*
X160435377Y-73063201D01*
X160435368Y-73063204D01*
X160231244Y-73173671D01*
X160231238Y-73173675D01*
X160048095Y-73316221D01*
X160048092Y-73316224D01*
X159890889Y-73486992D01*
X159763948Y-73681291D01*
X159670715Y-73893839D01*
X159613739Y-74118831D01*
X159613737Y-74118842D01*
X159594573Y-74350133D01*
X159594573Y-74350146D01*
X159613737Y-74581437D01*
X159613739Y-74581448D01*
X159670715Y-74806440D01*
X159763948Y-75018988D01*
X159890889Y-75213287D01*
X159890892Y-75213291D01*
X159890894Y-75213293D01*
X160048089Y-75384053D01*
X160048092Y-75384055D01*
X160048095Y-75384058D01*
X160231238Y-75526604D01*
X160231244Y-75526608D01*
X160231247Y-75526610D01*
X160333961Y-75582196D01*
X160434525Y-75636619D01*
X160435370Y-75637076D01*
X160531551Y-75670095D01*
X160654888Y-75712437D01*
X160654890Y-75712437D01*
X160654892Y-75712438D01*
X160883824Y-75750640D01*
X160883825Y-75750640D01*
X161115921Y-75750640D01*
X161115922Y-75750640D01*
X161344854Y-75712438D01*
X161564376Y-75637076D01*
X161768499Y-75526610D01*
X161769043Y-75526187D01*
X161868653Y-75448657D01*
X161951657Y-75384053D01*
X162108852Y-75213293D01*
X162235797Y-75018989D01*
X162329030Y-74806440D01*
X162379925Y-74605458D01*
X162415465Y-74545304D01*
X162477885Y-74513912D01*
X162547368Y-74521250D01*
X162601854Y-74564989D01*
X162620337Y-74605460D01*
X162671190Y-74806275D01*
X162764388Y-75018746D01*
X162848685Y-75147772D01*
X163516910Y-74479548D01*
X163533948Y-74543133D01*
X163599774Y-74657147D01*
X163692866Y-74750239D01*
X163806880Y-74816065D01*
X163870463Y-74833102D01*
X163201074Y-75502491D01*
X163231522Y-75526190D01*
X163435570Y-75636616D01*
X163435579Y-75636619D01*
X163655012Y-75711951D01*
X163883866Y-75750140D01*
X164115880Y-75750140D01*
X164344733Y-75711951D01*
X164564166Y-75636619D01*
X164564174Y-75636616D01*
X164768228Y-75526187D01*
X164798670Y-75502491D01*
X164798671Y-75502490D01*
X164129283Y-74833102D01*
X164192866Y-74816065D01*
X164306880Y-74750239D01*
X164399972Y-74657147D01*
X164465798Y-74543133D01*
X164482835Y-74479549D01*
X165151059Y-75147773D01*
X165235355Y-75018751D01*
X165328555Y-74806275D01*
X165385511Y-74581358D01*
X165404671Y-74350145D01*
X165404671Y-74350134D01*
X165385511Y-74118921D01*
X165328555Y-73894004D01*
X165235357Y-73681533D01*
X165151059Y-73552505D01*
X164482835Y-74220729D01*
X164465798Y-74157147D01*
X164399972Y-74043133D01*
X164306880Y-73950041D01*
X164192866Y-73884215D01*
X164129282Y-73867177D01*
X164798670Y-73197787D01*
X164798670Y-73197785D01*
X164768233Y-73174095D01*
X164768227Y-73174091D01*
X164564175Y-73063663D01*
X164564166Y-73063660D01*
X164344733Y-72988328D01*
X164115880Y-72950140D01*
X163990033Y-72950140D01*
X163922994Y-72930455D01*
X163877239Y-72877651D01*
X163867295Y-72808493D01*
X163869827Y-72795700D01*
X163886133Y-72731308D01*
X163886135Y-72731297D01*
X163905300Y-72500006D01*
X163905300Y-72499993D01*
X163886135Y-72268702D01*
X163886133Y-72268691D01*
X163829157Y-72043699D01*
X163735924Y-71831151D01*
X163612348Y-71642003D01*
X163592161Y-71575114D01*
X163611341Y-71507928D01*
X163663799Y-71461778D01*
X163716157Y-71450182D01*
X171294977Y-71450182D01*
X171362016Y-71469867D01*
X171407771Y-71522671D01*
X171418977Y-71574182D01*
X171418977Y-73229268D01*
X171399292Y-73296307D01*
X171346488Y-73342062D01*
X171277330Y-73352006D01*
X171213774Y-73322981D01*
X171181901Y-73280159D01*
X171158894Y-73229039D01*
X171158893Y-73229038D01*
X171158892Y-73229035D01*
X170994802Y-72957596D01*
X170988031Y-72948954D01*
X170799187Y-72707912D01*
X170574912Y-72483637D01*
X170325235Y-72288027D01*
X170325227Y-72288022D01*
X170293256Y-72268695D01*
X170053790Y-72123933D01*
X169764552Y-71993757D01*
X169461732Y-71899395D01*
X169149746Y-71842221D01*
X169149745Y-71842220D01*
X169149740Y-71842220D01*
X168833143Y-71823070D01*
X168516545Y-71842220D01*
X168204553Y-71899395D01*
X167901739Y-71993755D01*
X167901735Y-71993756D01*
X167901734Y-71993757D01*
X167788926Y-72044528D01*
X167612500Y-72123931D01*
X167612498Y-72123932D01*
X167341058Y-72288022D01*
X167341050Y-72288027D01*
X167091373Y-72483637D01*
X166867098Y-72707912D01*
X166671488Y-72957589D01*
X166671483Y-72957597D01*
X166652906Y-72988328D01*
X166507394Y-73229035D01*
X166391297Y-73486992D01*
X166377216Y-73518278D01*
X166282856Y-73821092D01*
X166225681Y-74133084D01*
X166206531Y-74449682D01*
X166225681Y-74766279D01*
X166225681Y-74766284D01*
X166225682Y-74766285D01*
X166282856Y-75078271D01*
X166377218Y-75381091D01*
X166507394Y-75670329D01*
X166671483Y-75941766D01*
X166671488Y-75941774D01*
X166867098Y-76191451D01*
X167091373Y-76415726D01*
X167341050Y-76611336D01*
X167341053Y-76611337D01*
X167341057Y-76611341D01*
X167612496Y-76775431D01*
X167901734Y-76905607D01*
X168204554Y-76999969D01*
X168516540Y-77057143D01*
X168833143Y-77076294D01*
X169149746Y-77057143D01*
X169461732Y-76999969D01*
X169764552Y-76905607D01*
X170053790Y-76775431D01*
X170325229Y-76611341D01*
X170574909Y-76415729D01*
X170799190Y-76191448D01*
X170994802Y-75941768D01*
X171158892Y-75670329D01*
X171181902Y-75619202D01*
X171227365Y-75566150D01*
X171294295Y-75546097D01*
X171361442Y-75565413D01*
X171407486Y-75617964D01*
X171418977Y-75670095D01*
X171418977Y-87015574D01*
X171422947Y-87030389D01*
X171453085Y-87142869D01*
X171486031Y-87199932D01*
X171518977Y-87256996D01*
X171612163Y-87350182D01*
X171726291Y-87416074D01*
X171827572Y-87443211D01*
X171887230Y-87479574D01*
X171917760Y-87542421D01*
X171919477Y-87562985D01*
X171919477Y-126190506D01*
X171899792Y-126257545D01*
X171883158Y-126278187D01*
X170518979Y-127642365D01*
X170518977Y-127642368D01*
X170453085Y-127756494D01*
X170418977Y-127883790D01*
X170418977Y-131802257D01*
X170405886Y-131857711D01*
X169144424Y-134380636D01*
X169096837Y-134431795D01*
X169033515Y-134449182D01*
X165494024Y-134449182D01*
X165426985Y-134429497D01*
X165381230Y-134376693D01*
X165371286Y-134307535D01*
X165400311Y-134243979D01*
X165429596Y-134219234D01*
X165475480Y-134191330D01*
X165536388Y-134154292D01*
X165757292Y-133974573D01*
X165951667Y-133766449D01*
X166115892Y-133533795D01*
X166246907Y-133280947D01*
X166342273Y-133012614D01*
X166400212Y-132733794D01*
X166419646Y-132449682D01*
X166400212Y-132165570D01*
X166342273Y-131886750D01*
X166336385Y-131870184D01*
X166246908Y-131618420D01*
X166246909Y-131618420D01*
X166176395Y-131482334D01*
X166115892Y-131365569D01*
X165951667Y-131132915D01*
X165951663Y-131132911D01*
X165951662Y-131132909D01*
X165847091Y-131020942D01*
X165757292Y-130924791D01*
X165536388Y-130745072D01*
X165536386Y-130745071D01*
X165536384Y-130745069D01*
X165293068Y-130597105D01*
X165031871Y-130483652D01*
X164757660Y-130406821D01*
X164757656Y-130406820D01*
X164757655Y-130406820D01*
X164616593Y-130387431D01*
X164475532Y-130368043D01*
X164475531Y-130368043D01*
X164190755Y-130368043D01*
X164190754Y-130368043D01*
X163908631Y-130406820D01*
X163908625Y-130406821D01*
X163634414Y-130483652D01*
X163373217Y-130597105D01*
X163129901Y-130745069D01*
X162908997Y-130924788D01*
X162714623Y-131132909D01*
X162550394Y-131365568D01*
X162419377Y-131618420D01*
X162324014Y-131886744D01*
X162324013Y-131886747D01*
X162266073Y-132165575D01*
X162246640Y-132449682D01*
X162266073Y-132733788D01*
X162324013Y-133012616D01*
X162324014Y-133012619D01*
X162419377Y-133280943D01*
X162419376Y-133280943D01*
X162550394Y-133533795D01*
X162714623Y-133766454D01*
X162786867Y-133843807D01*
X162908994Y-133974573D01*
X163129898Y-134154292D01*
X163129900Y-134154293D01*
X163129901Y-134154294D01*
X163236690Y-134219234D01*
X163283742Y-134270885D01*
X163295400Y-134339776D01*
X163267963Y-134404033D01*
X163210141Y-134443255D01*
X163172262Y-134449182D01*
X108043977Y-134449182D01*
X107976938Y-134429497D01*
X107931183Y-134376693D01*
X107919977Y-134325182D01*
X107919977Y-127883792D01*
X107919977Y-127883790D01*
X107885869Y-127756496D01*
X107819977Y-127642368D01*
X107726791Y-127549182D01*
X107647626Y-127503476D01*
X107612664Y-127483290D01*
X107569996Y-127471857D01*
X107511382Y-127456152D01*
X107451723Y-127419788D01*
X107421194Y-127356941D01*
X107419477Y-127336378D01*
X107419477Y-124956390D01*
X107419646Y-124951433D01*
X107419646Y-124947921D01*
X107419477Y-124942975D01*
X107419477Y-122949682D01*
X107419476Y-122949681D01*
X106145922Y-121888386D01*
X104891768Y-120843258D01*
X104852870Y-120785220D01*
X104851524Y-120715363D01*
X104867981Y-120679213D01*
X104872468Y-120672484D01*
X104873763Y-120668652D01*
X104883843Y-120646375D01*
X104885869Y-120642868D01*
X104897717Y-120598647D01*
X104900024Y-120591024D01*
X104914699Y-120547649D01*
X104914960Y-120543599D01*
X104918929Y-120519482D01*
X104919977Y-120515574D01*
X104919977Y-120469800D01*
X104920234Y-120461820D01*
X104923180Y-120416139D01*
X104922384Y-120412163D01*
X104919977Y-120387846D01*
X104919977Y-117999996D01*
X105694435Y-117999996D01*
X105694435Y-118000003D01*
X105714630Y-118179249D01*
X105714631Y-118179254D01*
X105774211Y-118349523D01*
X105786271Y-118368716D01*
X105870184Y-118502262D01*
X105997738Y-118629816D01*
X106150478Y-118725789D01*
X106320739Y-118785366D01*
X106320745Y-118785368D01*
X106320750Y-118785369D01*
X106499996Y-118805565D01*
X106500000Y-118805565D01*
X106500004Y-118805565D01*
X106679249Y-118785369D01*
X106679251Y-118785368D01*
X106679255Y-118785368D01*
X106679258Y-118785366D01*
X106679262Y-118785366D01*
X106769377Y-118753832D01*
X106849522Y-118725789D01*
X106955011Y-118659505D01*
X107020983Y-118640500D01*
X111063085Y-118640500D01*
X111063086Y-118640499D01*
X111186828Y-118615886D01*
X111303391Y-118567604D01*
X111408295Y-118497509D01*
X112408292Y-117497510D01*
X112408295Y-117497509D01*
X112497509Y-117408295D01*
X112554380Y-117323181D01*
X112567603Y-117303392D01*
X112567605Y-117303388D01*
X112583785Y-117264325D01*
X112615886Y-117186827D01*
X112640500Y-117063084D01*
X112640500Y-113520982D01*
X112659507Y-113455009D01*
X112725788Y-113349524D01*
X112725789Y-113349522D01*
X112785368Y-113179255D01*
X112788610Y-113150481D01*
X112805565Y-113000003D01*
X112805565Y-112999996D01*
X112785369Y-112820750D01*
X112785368Y-112820744D01*
X112725788Y-112650476D01*
X112686582Y-112588080D01*
X112629816Y-112497738D01*
X112502262Y-112370184D01*
X112460557Y-112343979D01*
X112349521Y-112274210D01*
X112179249Y-112214630D01*
X112156081Y-112212020D01*
X112091667Y-112184953D01*
X112082285Y-112176481D01*
X109456296Y-109550492D01*
X109422811Y-109489169D01*
X109419977Y-109462811D01*
X109419977Y-100037189D01*
X109439662Y-99970150D01*
X109456297Y-99949507D01*
X109497506Y-99908298D01*
X109497509Y-99908295D01*
X109551754Y-99827111D01*
X109567603Y-99803392D01*
X109567605Y-99803388D01*
X109603864Y-99715851D01*
X109615886Y-99686827D01*
X109621980Y-99656188D01*
X109654362Y-99594279D01*
X109715077Y-99559703D01*
X109784847Y-99563441D01*
X109841520Y-99604306D01*
X109850984Y-99618379D01*
X109922280Y-99741866D01*
X109922279Y-99741866D01*
X110048943Y-99882540D01*
X110202079Y-99993800D01*
X110202084Y-99993803D01*
X110375006Y-100070794D01*
X110375011Y-100070796D01*
X110560168Y-100110152D01*
X110560169Y-100110152D01*
X110749458Y-100110152D01*
X110749460Y-100110152D01*
X110934617Y-100070796D01*
X111107544Y-99993803D01*
X111260685Y-99882540D01*
X111387347Y-99741868D01*
X111481993Y-99577936D01*
X111540488Y-99397908D01*
X111560274Y-99209652D01*
X111540488Y-99021396D01*
X111481993Y-98841368D01*
X111387347Y-98677436D01*
X111282350Y-98560825D01*
X111252120Y-98497834D01*
X111250500Y-98477853D01*
X111250500Y-87704015D01*
X111270185Y-87636976D01*
X111322989Y-87591221D01*
X111392147Y-87581277D01*
X111455703Y-87610302D01*
X111462181Y-87616334D01*
X113823181Y-89977334D01*
X113856666Y-90038657D01*
X113859500Y-90065015D01*
X113859500Y-92682128D01*
X113839815Y-92749167D01*
X113787011Y-92794922D01*
X113778836Y-92798309D01*
X113757665Y-92806205D01*
X113642455Y-92892452D01*
X113642452Y-92892455D01*
X113556206Y-93007664D01*
X113556202Y-93007671D01*
X113505908Y-93142517D01*
X113501959Y-93179254D01*
X113499501Y-93202123D01*
X113499500Y-93202135D01*
X113499500Y-94797870D01*
X113499501Y-94797876D01*
X113505908Y-94857483D01*
X113556202Y-94992328D01*
X113556206Y-94992335D01*
X113642452Y-95107544D01*
X113642455Y-95107547D01*
X113757664Y-95193793D01*
X113757671Y-95193797D01*
X113892517Y-95244091D01*
X113892516Y-95244091D01*
X113899444Y-95244835D01*
X113952127Y-95250500D01*
X115047872Y-95250499D01*
X115107483Y-95244091D01*
X115107485Y-95244090D01*
X115107487Y-95244090D01*
X115115031Y-95242308D01*
X115115377Y-95243775D01*
X115176342Y-95239408D01*
X115191378Y-95243822D01*
X115192513Y-95244089D01*
X115192517Y-95244091D01*
X115252127Y-95250500D01*
X116347872Y-95250499D01*
X116407483Y-95244091D01*
X116542331Y-95193796D01*
X116657546Y-95107546D01*
X116743796Y-94992331D01*
X116794091Y-94857483D01*
X116800500Y-94797873D01*
X116800500Y-94764500D01*
X116820185Y-94697461D01*
X116872989Y-94651706D01*
X116924500Y-94640500D01*
X117432128Y-94640500D01*
X117499167Y-94660185D01*
X117544922Y-94712989D01*
X117548310Y-94721167D01*
X117556202Y-94742328D01*
X117556206Y-94742335D01*
X117642452Y-94857544D01*
X117642455Y-94857547D01*
X117757664Y-94943793D01*
X117757671Y-94943797D01*
X117892517Y-94994091D01*
X117892516Y-94994091D01*
X117899444Y-94994835D01*
X117952127Y-95000500D01*
X118734058Y-95000499D01*
X118801097Y-95020183D01*
X118846852Y-95072987D01*
X118857278Y-95138381D01*
X118849249Y-95209646D01*
X118849249Y-95209655D01*
X118869444Y-95388901D01*
X118869445Y-95388906D01*
X118929025Y-95559175D01*
X118980881Y-95641703D01*
X118992494Y-95660185D01*
X119024999Y-95711915D01*
X119027259Y-95714749D01*
X119028148Y-95716927D01*
X119028703Y-95717810D01*
X119028548Y-95717907D01*
X119053669Y-95779435D01*
X119054314Y-95792064D01*
X119054314Y-96622982D01*
X119054313Y-96623000D01*
X119054313Y-96788706D01*
X119054312Y-96788706D01*
X119095237Y-96941439D01*
X119095238Y-96941440D01*
X119119298Y-96983113D01*
X119135771Y-97051013D01*
X119112918Y-97117040D01*
X119099593Y-97132793D01*
X119024999Y-97207388D01*
X119024998Y-97207389D01*
X118929025Y-97360128D01*
X118869445Y-97530397D01*
X118869444Y-97530402D01*
X118849249Y-97709648D01*
X118849249Y-97709655D01*
X118869444Y-97888901D01*
X118869445Y-97888906D01*
X118929025Y-98059175D01*
X119024998Y-98211914D01*
X119152552Y-98339468D01*
X119305292Y-98435441D01*
X119426499Y-98477853D01*
X119475559Y-98495020D01*
X119475564Y-98495021D01*
X119654810Y-98515217D01*
X119654814Y-98515217D01*
X119654818Y-98515217D01*
X119834063Y-98495021D01*
X119834066Y-98495020D01*
X119834069Y-98495020D01*
X119942324Y-98457139D01*
X119983279Y-98450182D01*
X122149052Y-98450182D01*
X122216091Y-98469867D01*
X122261846Y-98522671D01*
X122271790Y-98591829D01*
X122265234Y-98617515D01*
X122255908Y-98642517D01*
X122251959Y-98679254D01*
X122249501Y-98702123D01*
X122249500Y-98702135D01*
X122249500Y-100297870D01*
X122249501Y-100297876D01*
X122255908Y-100357483D01*
X122306202Y-100492328D01*
X122306206Y-100492335D01*
X122392452Y-100607544D01*
X122392455Y-100607547D01*
X122507664Y-100693793D01*
X122507671Y-100693797D01*
X122642517Y-100744091D01*
X122642516Y-100744091D01*
X122649444Y-100744835D01*
X122702127Y-100750500D01*
X124297872Y-100750499D01*
X124357483Y-100744091D01*
X124492331Y-100693796D01*
X124607546Y-100607546D01*
X124693796Y-100492331D01*
X124744091Y-100357483D01*
X124750500Y-100297873D01*
X124750500Y-99702135D01*
X125749500Y-99702135D01*
X125749500Y-101297870D01*
X125749501Y-101297876D01*
X125755908Y-101357483D01*
X125806202Y-101492328D01*
X125806206Y-101492335D01*
X125892452Y-101607544D01*
X125892455Y-101607547D01*
X126007664Y-101693793D01*
X126007671Y-101693797D01*
X126142517Y-101744091D01*
X126142516Y-101744091D01*
X126149444Y-101744835D01*
X126202127Y-101750500D01*
X127797872Y-101750499D01*
X127857483Y-101744091D01*
X127992331Y-101693796D01*
X128107546Y-101607546D01*
X128193796Y-101492331D01*
X128244091Y-101357483D01*
X128250500Y-101297873D01*
X128250499Y-99702128D01*
X128244091Y-99642517D01*
X128242725Y-99638855D01*
X128193797Y-99507671D01*
X128193793Y-99507664D01*
X128107547Y-99392455D01*
X128107544Y-99392452D01*
X127992335Y-99306206D01*
X127992328Y-99306202D01*
X127857482Y-99255908D01*
X127857483Y-99255908D01*
X127797883Y-99249501D01*
X127797881Y-99249500D01*
X127797873Y-99249500D01*
X127797864Y-99249500D01*
X126202129Y-99249500D01*
X126202123Y-99249501D01*
X126142516Y-99255908D01*
X126007671Y-99306202D01*
X126007664Y-99306206D01*
X125892455Y-99392452D01*
X125892452Y-99392455D01*
X125806206Y-99507664D01*
X125806202Y-99507671D01*
X125755908Y-99642517D01*
X125750327Y-99694435D01*
X125749501Y-99702123D01*
X125749500Y-99702135D01*
X124750500Y-99702135D01*
X124750499Y-98702128D01*
X124744091Y-98642517D01*
X124734766Y-98617515D01*
X124729782Y-98547824D01*
X124763267Y-98486501D01*
X124824590Y-98453016D01*
X124850948Y-98450182D01*
X132078008Y-98450182D01*
X132145047Y-98469867D01*
X132190802Y-98522671D01*
X132201228Y-98560298D01*
X132214630Y-98679250D01*
X132214631Y-98679254D01*
X132274211Y-98849523D01*
X132370184Y-99002262D01*
X132497738Y-99129816D01*
X132500076Y-99131285D01*
X132521913Y-99145006D01*
X132568204Y-99197341D01*
X132578852Y-99266395D01*
X132550477Y-99330243D01*
X132521913Y-99354994D01*
X132497737Y-99370184D01*
X132370184Y-99497737D01*
X132274211Y-99650476D01*
X132214631Y-99820745D01*
X132214630Y-99820750D01*
X132194435Y-99999996D01*
X132194435Y-100000003D01*
X132214630Y-100179249D01*
X132214631Y-100179254D01*
X132274211Y-100349523D01*
X132334515Y-100445496D01*
X132368760Y-100499996D01*
X132370185Y-100502263D01*
X132372445Y-100505097D01*
X132373334Y-100507275D01*
X132373889Y-100508158D01*
X132373734Y-100508255D01*
X132398855Y-100569783D01*
X132399500Y-100582412D01*
X132399500Y-101913330D01*
X132399499Y-101913348D01*
X132399499Y-102079054D01*
X132399498Y-102079054D01*
X132440423Y-102231785D01*
X132469358Y-102281900D01*
X132469359Y-102281904D01*
X132469360Y-102281904D01*
X132486081Y-102310867D01*
X132519479Y-102368714D01*
X132519481Y-102368717D01*
X132638349Y-102487585D01*
X132638355Y-102487590D01*
X135169298Y-105018534D01*
X135202783Y-105079857D01*
X135204837Y-105092331D01*
X135214630Y-105179249D01*
X135274210Y-105349521D01*
X135347196Y-105465677D01*
X135370184Y-105502262D01*
X135497738Y-105629816D01*
X135650478Y-105725789D01*
X135803258Y-105779249D01*
X135820745Y-105785368D01*
X135820750Y-105785369D01*
X135999996Y-105805565D01*
X136000000Y-105805565D01*
X136000004Y-105805565D01*
X136179249Y-105785369D01*
X136179252Y-105785368D01*
X136179255Y-105785368D01*
X136349522Y-105725789D01*
X136502262Y-105629816D01*
X136629816Y-105502262D01*
X136725789Y-105349522D01*
X136785368Y-105179255D01*
X136795162Y-105092331D01*
X136805565Y-105000003D01*
X136805565Y-104999996D01*
X136785369Y-104820750D01*
X136785368Y-104820745D01*
X136725788Y-104650476D01*
X136629815Y-104497737D01*
X136502262Y-104370184D01*
X136349521Y-104274210D01*
X136179249Y-104214630D01*
X136092331Y-104204837D01*
X136027917Y-104177770D01*
X136018534Y-104169298D01*
X133636819Y-101787583D01*
X133603334Y-101726260D01*
X133600500Y-101699902D01*
X133600500Y-100582412D01*
X133620185Y-100515373D01*
X133627555Y-100505097D01*
X133629810Y-100502267D01*
X133629816Y-100502262D01*
X133725789Y-100349522D01*
X133731762Y-100332449D01*
X133772482Y-100275674D01*
X133837434Y-100249924D01*
X133905996Y-100263379D01*
X133936486Y-100285721D01*
X139158116Y-105507351D01*
X139191601Y-105568674D01*
X139194435Y-105595032D01*
X139194435Y-105600003D01*
X139214630Y-105779249D01*
X139214631Y-105779254D01*
X139274211Y-105949523D01*
X139305928Y-106000000D01*
X139370184Y-106102262D01*
X139497738Y-106229816D01*
X139650478Y-106325789D01*
X139771902Y-106368277D01*
X139820745Y-106385368D01*
X139820750Y-106385369D01*
X139999996Y-106405565D01*
X140000000Y-106405565D01*
X140000004Y-106405565D01*
X140179249Y-106385369D01*
X140179250Y-106385368D01*
X140179255Y-106385368D01*
X140234545Y-106366020D01*
X140304322Y-106362458D01*
X140364950Y-106397186D01*
X140397178Y-106459179D01*
X140399500Y-106483062D01*
X140399500Y-107437948D01*
X140379815Y-107504987D01*
X140327011Y-107550742D01*
X140257853Y-107560686D01*
X140213502Y-107545336D01*
X140193191Y-107533610D01*
X140193188Y-107533609D01*
X140193187Y-107533608D01*
X140193186Y-107533608D01*
X140065892Y-107499500D01*
X119065892Y-107499500D01*
X118934108Y-107499500D01*
X118806812Y-107533608D01*
X118692686Y-107599500D01*
X118692683Y-107599502D01*
X118599502Y-107692683D01*
X118599500Y-107692686D01*
X118533608Y-107806812D01*
X118516628Y-107870184D01*
X118499500Y-107934108D01*
X118499500Y-122015574D01*
X118530504Y-122131284D01*
X118533609Y-122142870D01*
X118533609Y-122142871D01*
X118574387Y-122213500D01*
X118590860Y-122281400D01*
X118568008Y-122347427D01*
X118513086Y-122390618D01*
X118467000Y-122399500D01*
X116738140Y-122399500D01*
X116738124Y-122399499D01*
X116730528Y-122399499D01*
X116572414Y-122399499D01*
X116465058Y-122428265D01*
X116419681Y-122440424D01*
X116419680Y-122440425D01*
X116384537Y-122460716D01*
X116384535Y-122460717D01*
X116282761Y-122519475D01*
X116282753Y-122519481D01*
X114419479Y-124382755D01*
X114411152Y-124397179D01*
X114389588Y-124434530D01*
X114340423Y-124519686D01*
X114299499Y-124672414D01*
X114299499Y-124672416D01*
X114299499Y-124840517D01*
X114299500Y-124840530D01*
X114299500Y-126161859D01*
X114299499Y-126161877D01*
X114299499Y-126327583D01*
X114299498Y-126327583D01*
X114299499Y-126327586D01*
X114340423Y-126480314D01*
X114344028Y-126486558D01*
X114349306Y-126495701D01*
X114349308Y-126495703D01*
X114419477Y-126617241D01*
X114419481Y-126617246D01*
X114538349Y-126736114D01*
X114538355Y-126736119D01*
X114863181Y-127060945D01*
X114896666Y-127122268D01*
X114899500Y-127148626D01*
X114899500Y-127538770D01*
X114879815Y-127605809D01*
X114827011Y-127651564D01*
X114757853Y-127661508D01*
X114694297Y-127632483D01*
X114687819Y-127626451D01*
X113786819Y-126725451D01*
X113753334Y-126664128D01*
X113750500Y-126637770D01*
X113750500Y-122362230D01*
X113770185Y-122295191D01*
X113786819Y-122274549D01*
X114922513Y-121138855D01*
X116082952Y-119978416D01*
X116132186Y-119904729D01*
X116165084Y-119855495D01*
X116221658Y-119718913D01*
X116250500Y-119573918D01*
X116250500Y-107534321D01*
X116267113Y-107472321D01*
X116286958Y-107437948D01*
X116327179Y-107368284D01*
X116385674Y-107188256D01*
X116405460Y-107000000D01*
X116385674Y-106811744D01*
X116327179Y-106631716D01*
X116232533Y-106467784D01*
X116105871Y-106327112D01*
X116104049Y-106325788D01*
X115952734Y-106215851D01*
X115952729Y-106215848D01*
X115779807Y-106138857D01*
X115779802Y-106138855D01*
X115607640Y-106102262D01*
X115594646Y-106099500D01*
X115405354Y-106099500D01*
X115392360Y-106102262D01*
X115220197Y-106138855D01*
X115220192Y-106138857D01*
X115047270Y-106215848D01*
X115047265Y-106215851D01*
X114894129Y-106327111D01*
X114767466Y-106467785D01*
X114672821Y-106631715D01*
X114672818Y-106631722D01*
X114628469Y-106768216D01*
X114614326Y-106811744D01*
X114594540Y-107000000D01*
X114614326Y-107188256D01*
X114614327Y-107188259D01*
X114672818Y-107368277D01*
X114672821Y-107368284D01*
X114732887Y-107472321D01*
X114749500Y-107534321D01*
X114749500Y-119137769D01*
X114729815Y-119204808D01*
X114713181Y-119225450D01*
X112417052Y-121521578D01*
X112417049Y-121521581D01*
X112386298Y-121567603D01*
X112386299Y-121567604D01*
X112334914Y-121644508D01*
X112278343Y-121781082D01*
X112278340Y-121781092D01*
X112249500Y-121926079D01*
X112249500Y-121926082D01*
X112249500Y-127073918D01*
X112249500Y-127073920D01*
X112249499Y-127073920D01*
X112278340Y-127218907D01*
X112278343Y-127218917D01*
X112334912Y-127355488D01*
X112334915Y-127355494D01*
X112334916Y-127355495D01*
X112343748Y-127368713D01*
X112343749Y-127368716D01*
X112417046Y-127478414D01*
X112417052Y-127478421D01*
X113878732Y-128940100D01*
X113912217Y-129001423D01*
X113907233Y-129071115D01*
X113878732Y-129115462D01*
X111917713Y-131076481D01*
X111856390Y-131109966D01*
X111843918Y-131112020D01*
X111820750Y-131114630D01*
X111650478Y-131174210D01*
X111497737Y-131270184D01*
X111370184Y-131397737D01*
X111274211Y-131550476D01*
X111214631Y-131720745D01*
X111214630Y-131720750D01*
X111194435Y-131899996D01*
X111194435Y-131900003D01*
X111214630Y-132079249D01*
X111214631Y-132079254D01*
X111274211Y-132249523D01*
X111349580Y-132369471D01*
X111370184Y-132402262D01*
X111497738Y-132529816D01*
X111650478Y-132625789D01*
X111806316Y-132680319D01*
X111820745Y-132685368D01*
X111820750Y-132685369D01*
X111999996Y-132705565D01*
X112000000Y-132705565D01*
X112000004Y-132705565D01*
X112179249Y-132685369D01*
X112179252Y-132685368D01*
X112179255Y-132685368D01*
X112349522Y-132625789D01*
X112502262Y-132529816D01*
X112629816Y-132402262D01*
X112725789Y-132249522D01*
X112785368Y-132079255D01*
X112787978Y-132056084D01*
X112815041Y-131991673D01*
X112823507Y-131982295D01*
X114383137Y-130422665D01*
X114444458Y-130389182D01*
X114514150Y-130394166D01*
X114570083Y-130436038D01*
X114594036Y-130496465D01*
X114614630Y-130679249D01*
X114614631Y-130679254D01*
X114674211Y-130849523D01*
X114719087Y-130920942D01*
X114767341Y-130997738D01*
X114773889Y-131008158D01*
X114772656Y-131008932D01*
X114796077Y-131066306D01*
X114783318Y-131135001D01*
X114777720Y-131144892D01*
X114774209Y-131150479D01*
X114714633Y-131320737D01*
X114714630Y-131320750D01*
X114694435Y-131499996D01*
X114694435Y-131500003D01*
X114714630Y-131679249D01*
X114714631Y-131679254D01*
X114774211Y-131849523D01*
X114859632Y-131985468D01*
X114870184Y-132002262D01*
X114997738Y-132129816D01*
X115150478Y-132225789D01*
X115320745Y-132285368D01*
X115320750Y-132285369D01*
X115499996Y-132305565D01*
X115500000Y-132305565D01*
X115500004Y-132305565D01*
X115679249Y-132285369D01*
X115679252Y-132285368D01*
X115679255Y-132285368D01*
X115849522Y-132225789D01*
X116002262Y-132129816D01*
X116129816Y-132002262D01*
X116225789Y-131849522D01*
X116285368Y-131679255D01*
X116295161Y-131592330D01*
X116322226Y-131527920D01*
X116330700Y-131518534D01*
X116480520Y-131368716D01*
X116482338Y-131365568D01*
X116508220Y-131320737D01*
X116559577Y-131231784D01*
X116600501Y-131079057D01*
X116600501Y-130920942D01*
X116600501Y-130913347D01*
X116600500Y-130913329D01*
X116600500Y-127503476D01*
X116620185Y-127436437D01*
X116672989Y-127390682D01*
X116742147Y-127380738D01*
X116805703Y-127409763D01*
X116829493Y-127437503D01*
X116870184Y-127502262D01*
X116997738Y-127629816D01*
X117150478Y-127725789D01*
X117316455Y-127783867D01*
X117373230Y-127824588D01*
X117398978Y-127889540D01*
X117399500Y-127900908D01*
X117399500Y-132479016D01*
X117399499Y-132479034D01*
X117399499Y-132644740D01*
X117399498Y-132644740D01*
X117440423Y-132797471D01*
X117444495Y-132804523D01*
X117444498Y-132804529D01*
X117519477Y-132934398D01*
X117519481Y-132934403D01*
X117638349Y-133053271D01*
X117638354Y-133053275D01*
X118565598Y-133980520D01*
X118565600Y-133980521D01*
X118565604Y-133980524D01*
X118702523Y-134059573D01*
X118702530Y-134059577D01*
X118855257Y-134100501D01*
X118855259Y-134100501D01*
X119020968Y-134100501D01*
X119020984Y-134100500D01*
X144361860Y-134100500D01*
X144361876Y-134100501D01*
X144369472Y-134100501D01*
X144527583Y-134100501D01*
X144527586Y-134100501D01*
X144680314Y-134059577D01*
X144730433Y-134030639D01*
X144817245Y-133980520D01*
X144929049Y-133868716D01*
X144929049Y-133868714D01*
X144939257Y-133858507D01*
X144939258Y-133858504D01*
X145980520Y-132817245D01*
X146059577Y-132680313D01*
X146100501Y-132527586D01*
X146100501Y-132369471D01*
X146100501Y-132361876D01*
X146100500Y-132361858D01*
X146100500Y-131020944D01*
X146100500Y-131020943D01*
X146094282Y-130997738D01*
X146059577Y-130868215D01*
X146048785Y-130849523D01*
X146022804Y-130804522D01*
X145980522Y-130731287D01*
X145980521Y-130731286D01*
X145980520Y-130731284D01*
X145868716Y-130619480D01*
X145868715Y-130619479D01*
X145864385Y-130615149D01*
X145864374Y-130615139D01*
X144330700Y-129081465D01*
X144297215Y-129020142D01*
X144295163Y-129007686D01*
X144285368Y-128920745D01*
X144225789Y-128750478D01*
X144129816Y-128597738D01*
X144002262Y-128470184D01*
X143849523Y-128374211D01*
X143679254Y-128314631D01*
X143679249Y-128314630D01*
X143500004Y-128294435D01*
X143499996Y-128294435D01*
X143320750Y-128314630D01*
X143320745Y-128314631D01*
X143150476Y-128374211D01*
X142997737Y-128470184D01*
X142870184Y-128597737D01*
X142774211Y-128750476D01*
X142714631Y-128920745D01*
X142714630Y-128920750D01*
X142694435Y-129099996D01*
X142694435Y-129100003D01*
X142714630Y-129279249D01*
X142714631Y-129279254D01*
X142774211Y-129449523D01*
X142870184Y-129602262D01*
X142997738Y-129729816D01*
X143150478Y-129825789D01*
X143320745Y-129885368D01*
X143407669Y-129895161D01*
X143472080Y-129922226D01*
X143481465Y-129930700D01*
X144863181Y-131312416D01*
X144896666Y-131373739D01*
X144899500Y-131400097D01*
X144899500Y-131716936D01*
X144879815Y-131783975D01*
X144827011Y-131829730D01*
X144757853Y-131839674D01*
X144734547Y-131833978D01*
X144679260Y-131814633D01*
X144679249Y-131814630D01*
X144500004Y-131794435D01*
X144499996Y-131794435D01*
X144320750Y-131814630D01*
X144320745Y-131814631D01*
X144150476Y-131874211D01*
X143997737Y-131970184D01*
X143870184Y-132097737D01*
X143774211Y-132250477D01*
X143716133Y-132416455D01*
X143675411Y-132473231D01*
X143610458Y-132498978D01*
X143599091Y-132499500D01*
X130416322Y-132499500D01*
X130349283Y-132479815D01*
X130303528Y-132427011D01*
X130293102Y-132389383D01*
X130285369Y-132320750D01*
X130285368Y-132320748D01*
X130285368Y-132320745D01*
X130225789Y-132150478D01*
X130129816Y-131997738D01*
X130002262Y-131870184D01*
X129937880Y-131829730D01*
X129849521Y-131774210D01*
X129679249Y-131714630D01*
X129592331Y-131704837D01*
X129527917Y-131677770D01*
X129518534Y-131669298D01*
X128536819Y-130687583D01*
X128503334Y-130626260D01*
X128500500Y-130599902D01*
X128500500Y-125400096D01*
X128520185Y-125333057D01*
X128536815Y-125312419D01*
X128563514Y-125285720D01*
X128624836Y-125252236D01*
X128694528Y-125257220D01*
X128750461Y-125299092D01*
X128768235Y-125332446D01*
X128774209Y-125349520D01*
X128858263Y-125483290D01*
X128870184Y-125502262D01*
X128997738Y-125629816D01*
X129052393Y-125664158D01*
X129132721Y-125714632D01*
X129150478Y-125725789D01*
X129238234Y-125756496D01*
X129320745Y-125785368D01*
X129320750Y-125785369D01*
X129499996Y-125805565D01*
X129500000Y-125805565D01*
X129500004Y-125805565D01*
X129679249Y-125785369D01*
X129679252Y-125785368D01*
X129679255Y-125785368D01*
X129849522Y-125725789D01*
X130002262Y-125629816D01*
X130002267Y-125629810D01*
X130005097Y-125627555D01*
X130007275Y-125626665D01*
X130008158Y-125626111D01*
X130008255Y-125626265D01*
X130069783Y-125601145D01*
X130082412Y-125600500D01*
X149413331Y-125600500D01*
X149413347Y-125600501D01*
X149420943Y-125600501D01*
X149579054Y-125600501D01*
X149579057Y-125600501D01*
X149731785Y-125559577D01*
X149781904Y-125530639D01*
X149868716Y-125480520D01*
X149980520Y-125368716D01*
X149980520Y-125368714D01*
X149990728Y-125358507D01*
X149990730Y-125358504D01*
X151018535Y-124330698D01*
X151079856Y-124297215D01*
X151092311Y-124295163D01*
X151179255Y-124285368D01*
X151349522Y-124225789D01*
X151502262Y-124129816D01*
X151502267Y-124129810D01*
X151505097Y-124127555D01*
X151507275Y-124126665D01*
X151508158Y-124126111D01*
X151508255Y-124126265D01*
X151569783Y-124101145D01*
X151582412Y-124100500D01*
X152417588Y-124100500D01*
X152484627Y-124120185D01*
X152494903Y-124127555D01*
X152497736Y-124129814D01*
X152497738Y-124129816D01*
X152576412Y-124179250D01*
X152643906Y-124221660D01*
X152650478Y-124225789D01*
X152742112Y-124257853D01*
X152820745Y-124285368D01*
X152820750Y-124285369D01*
X152991327Y-124304588D01*
X153055741Y-124331654D01*
X153095296Y-124389249D01*
X153100765Y-124440768D01*
X153094540Y-124500000D01*
X153114326Y-124688256D01*
X153114327Y-124688259D01*
X153172818Y-124868277D01*
X153172821Y-124868284D01*
X153267467Y-125032216D01*
X153350560Y-125124500D01*
X153394129Y-125172888D01*
X153547265Y-125284148D01*
X153547270Y-125284151D01*
X153720192Y-125361142D01*
X153720197Y-125361144D01*
X153905354Y-125400500D01*
X153905355Y-125400500D01*
X154094644Y-125400500D01*
X154094646Y-125400500D01*
X154279803Y-125361144D01*
X154452730Y-125284151D01*
X154605871Y-125172888D01*
X154732533Y-125032216D01*
X154827179Y-124868284D01*
X154885674Y-124688256D01*
X154905460Y-124500000D01*
X154885674Y-124311744D01*
X154827179Y-124131716D01*
X154767113Y-124027677D01*
X154750500Y-123965677D01*
X154750500Y-121874500D01*
X154770185Y-121807461D01*
X154822989Y-121761706D01*
X154874500Y-121750500D01*
X156572524Y-121750500D01*
X156639563Y-121770185D01*
X156685318Y-121822989D01*
X156695744Y-121888386D01*
X156694435Y-121900001D01*
X156694435Y-121900003D01*
X156714630Y-122079249D01*
X156714631Y-122079254D01*
X156774211Y-122249523D01*
X156870185Y-122402263D01*
X156872445Y-122405097D01*
X156873334Y-122407275D01*
X156873889Y-122408158D01*
X156873734Y-122408255D01*
X156898855Y-122469783D01*
X156899500Y-122482412D01*
X156899500Y-122517587D01*
X156879815Y-122584626D01*
X156872450Y-122594896D01*
X156870186Y-122597734D01*
X156774211Y-122750476D01*
X156714631Y-122920745D01*
X156714630Y-122920750D01*
X156694435Y-123099996D01*
X156694435Y-123100003D01*
X156714630Y-123279249D01*
X156714631Y-123279254D01*
X156774211Y-123449523D01*
X156804507Y-123497738D01*
X156870184Y-123602262D01*
X156997738Y-123729816D01*
X156998959Y-123730583D01*
X157142450Y-123820745D01*
X157150478Y-123825789D01*
X157320745Y-123885368D01*
X157320750Y-123885369D01*
X157499996Y-123905565D01*
X157500000Y-123905565D01*
X157500004Y-123905565D01*
X157679249Y-123885369D01*
X157679252Y-123885368D01*
X157679255Y-123885368D01*
X157849522Y-123825789D01*
X158002262Y-123729816D01*
X158129816Y-123602262D01*
X158225789Y-123449522D01*
X158285368Y-123279255D01*
X158285369Y-123279249D01*
X158305565Y-123100003D01*
X158305565Y-123099996D01*
X158285369Y-122920750D01*
X158285368Y-122920745D01*
X158248875Y-122816455D01*
X158225789Y-122750478D01*
X158222185Y-122744743D01*
X158187574Y-122689659D01*
X158129816Y-122597738D01*
X158129814Y-122597736D01*
X158129813Y-122597734D01*
X158127550Y-122594896D01*
X158126659Y-122592715D01*
X158126111Y-122591842D01*
X158126264Y-122591745D01*
X158101144Y-122530209D01*
X158100500Y-122517587D01*
X158100500Y-122482412D01*
X158120185Y-122415373D01*
X158127555Y-122405097D01*
X158129810Y-122402267D01*
X158129816Y-122402262D01*
X158225789Y-122249522D01*
X158285368Y-122079255D01*
X158285369Y-122079249D01*
X158305565Y-121900003D01*
X158305565Y-121900001D01*
X158304256Y-121888386D01*
X158316309Y-121819564D01*
X158363657Y-121768184D01*
X158427476Y-121750500D01*
X168073920Y-121750500D01*
X168171462Y-121731096D01*
X168218913Y-121721658D01*
X168355495Y-121665084D01*
X168405434Y-121631716D01*
X168405434Y-121631715D01*
X168405436Y-121631715D01*
X168441925Y-121607334D01*
X168478416Y-121582952D01*
X170082951Y-119978416D01*
X170165084Y-119855495D01*
X170221658Y-119718913D01*
X170250500Y-119573918D01*
X170250500Y-119426083D01*
X170250500Y-106534321D01*
X170267113Y-106472321D01*
X170269732Y-106467785D01*
X170327179Y-106368284D01*
X170385674Y-106188256D01*
X170405460Y-106000000D01*
X170385674Y-105811744D01*
X170327179Y-105631716D01*
X170326082Y-105629816D01*
X170267113Y-105527677D01*
X170250500Y-105465677D01*
X170250500Y-101926079D01*
X170221659Y-101781092D01*
X170221658Y-101781091D01*
X170221658Y-101781087D01*
X170209305Y-101751264D01*
X170165087Y-101644511D01*
X170165080Y-101644498D01*
X170082952Y-101521585D01*
X170042533Y-101481166D01*
X169978416Y-101417049D01*
X169691182Y-101129815D01*
X168478421Y-99917052D01*
X168478414Y-99917046D01*
X168404729Y-99867812D01*
X168404729Y-99867813D01*
X168355491Y-99834913D01*
X168218917Y-99778343D01*
X168218907Y-99778340D01*
X168073920Y-99749500D01*
X168073918Y-99749500D01*
X154539337Y-99749500D01*
X154472298Y-99729815D01*
X154466452Y-99725818D01*
X154452734Y-99715851D01*
X154452729Y-99715848D01*
X154279807Y-99638857D01*
X154279802Y-99638855D01*
X154134001Y-99607865D01*
X154094646Y-99599500D01*
X153905354Y-99599500D01*
X153872897Y-99606398D01*
X153720197Y-99638855D01*
X153720192Y-99638857D01*
X153547270Y-99715848D01*
X153547265Y-99715851D01*
X153394129Y-99827111D01*
X153267466Y-99967785D01*
X153172821Y-100131715D01*
X153172818Y-100131722D01*
X153114327Y-100311740D01*
X153114326Y-100311744D01*
X153099713Y-100450784D01*
X153098384Y-100463428D01*
X153071799Y-100528042D01*
X153014502Y-100568027D01*
X152944683Y-100570687D01*
X152887382Y-100538147D01*
X152830700Y-100481465D01*
X152797215Y-100420142D01*
X152795163Y-100407686D01*
X152785368Y-100320745D01*
X152725789Y-100150478D01*
X152629816Y-99997738D01*
X152502262Y-99870184D01*
X152464265Y-99846309D01*
X152349523Y-99774211D01*
X152179254Y-99714631D01*
X152179249Y-99714630D01*
X152000004Y-99694435D01*
X151999996Y-99694435D01*
X151820750Y-99714630D01*
X151820737Y-99714633D01*
X151650479Y-99774209D01*
X151565971Y-99827309D01*
X151498734Y-99846309D01*
X151434029Y-99827309D01*
X151349520Y-99774209D01*
X151179262Y-99714633D01*
X151179249Y-99714630D01*
X151000004Y-99694435D01*
X150999996Y-99694435D01*
X150820750Y-99714630D01*
X150820745Y-99714631D01*
X150650476Y-99774211D01*
X150497737Y-99870184D01*
X150370184Y-99997737D01*
X150274211Y-100150476D01*
X150214631Y-100320745D01*
X150214630Y-100320750D01*
X150194435Y-100499996D01*
X150194435Y-100500003D01*
X150214630Y-100679249D01*
X150214631Y-100679254D01*
X150274211Y-100849523D01*
X150370184Y-101002262D01*
X150497738Y-101129816D01*
X150650478Y-101225789D01*
X150820745Y-101285368D01*
X150907669Y-101295161D01*
X150972080Y-101322226D01*
X150981465Y-101330700D01*
X156863181Y-107212416D01*
X156896666Y-107273739D01*
X156899500Y-107300097D01*
X156899500Y-119417587D01*
X156879815Y-119484626D01*
X156872450Y-119494896D01*
X156870186Y-119497734D01*
X156774211Y-119650476D01*
X156714631Y-119820745D01*
X156714630Y-119820750D01*
X156694435Y-119999996D01*
X156694435Y-120000002D01*
X156707011Y-120111616D01*
X156694957Y-120180438D01*
X156647608Y-120231818D01*
X156583791Y-120249500D01*
X154426080Y-120249500D01*
X154281092Y-120278340D01*
X154281082Y-120278343D01*
X154144506Y-120334914D01*
X154138985Y-120338604D01*
X154072308Y-120359480D01*
X154070097Y-120359500D01*
X144936913Y-120359500D01*
X144813180Y-120384112D01*
X144813168Y-120384115D01*
X144696611Y-120432394D01*
X144696607Y-120432396D01*
X144591709Y-120502487D01*
X144591707Y-120502489D01*
X144591705Y-120502490D01*
X144591705Y-120502491D01*
X144502491Y-120591705D01*
X144031015Y-121063181D01*
X143969692Y-121096666D01*
X143943334Y-121099500D01*
X143905354Y-121099500D01*
X143872897Y-121106398D01*
X143720197Y-121138855D01*
X143720192Y-121138857D01*
X143547270Y-121215848D01*
X143547265Y-121215851D01*
X143394129Y-121327111D01*
X143267466Y-121467785D01*
X143172821Y-121631715D01*
X143172818Y-121631722D01*
X143114327Y-121811740D01*
X143114326Y-121811744D01*
X143094540Y-122000000D01*
X143114326Y-122188256D01*
X143114327Y-122188259D01*
X143172818Y-122368277D01*
X143172821Y-122368284D01*
X143267467Y-122532216D01*
X143373948Y-122650475D01*
X143394129Y-122672888D01*
X143547265Y-122784148D01*
X143547270Y-122784151D01*
X143720192Y-122861142D01*
X143720197Y-122861144D01*
X143905354Y-122900500D01*
X143905355Y-122900500D01*
X144094644Y-122900500D01*
X144094646Y-122900500D01*
X144279803Y-122861144D01*
X144452730Y-122784151D01*
X144605871Y-122672888D01*
X144732533Y-122532216D01*
X144827179Y-122368284D01*
X144885674Y-122188256D01*
X144900829Y-122044051D01*
X144927413Y-121979438D01*
X144936451Y-121969351D01*
X145228985Y-121676816D01*
X145290307Y-121643334D01*
X145316665Y-121640500D01*
X151432865Y-121640500D01*
X151499904Y-121660185D01*
X151545659Y-121712989D01*
X151555603Y-121782147D01*
X151526578Y-121845703D01*
X151503148Y-121865794D01*
X151503185Y-121865840D01*
X151501915Y-121866852D01*
X151498834Y-121869495D01*
X151497740Y-121870182D01*
X151494903Y-121872445D01*
X151492720Y-121873335D01*
X151491839Y-121873890D01*
X151491741Y-121873735D01*
X151430217Y-121898855D01*
X151417588Y-121899500D01*
X150420940Y-121899500D01*
X150380019Y-121910464D01*
X150380019Y-121910465D01*
X150342751Y-121920451D01*
X150268214Y-121940423D01*
X150268209Y-121940426D01*
X150131290Y-122019475D01*
X150131282Y-122019481D01*
X150071515Y-122079249D01*
X150019480Y-122131284D01*
X150019478Y-122131286D01*
X149097977Y-123052788D01*
X148187584Y-123963181D01*
X148126261Y-123996666D01*
X148099903Y-123999500D01*
X142916321Y-123999500D01*
X142849282Y-123979815D01*
X142803527Y-123927011D01*
X142793101Y-123889386D01*
X142785368Y-123820745D01*
X142725789Y-123650478D01*
X142629816Y-123497738D01*
X142502262Y-123370184D01*
X142472869Y-123351715D01*
X142349523Y-123274211D01*
X142179254Y-123214631D01*
X142179249Y-123214630D01*
X141993081Y-123193655D01*
X141993310Y-123191619D01*
X141935860Y-123174750D01*
X141890105Y-123121946D01*
X141880161Y-123052788D01*
X141895512Y-123008435D01*
X141909820Y-122983652D01*
X141946025Y-122920943D01*
X141959577Y-122897471D01*
X142000501Y-122744743D01*
X142000501Y-122586629D01*
X142000501Y-122579034D01*
X142000500Y-122579016D01*
X142000500Y-119348071D01*
X142020185Y-119281032D01*
X142072989Y-119235277D01*
X142142147Y-119225333D01*
X142165455Y-119231030D01*
X142320737Y-119285366D01*
X142320743Y-119285367D01*
X142320745Y-119285368D01*
X142320746Y-119285368D01*
X142320750Y-119285369D01*
X142499996Y-119305565D01*
X142500000Y-119305565D01*
X142500004Y-119305565D01*
X142679249Y-119285369D01*
X142679252Y-119285368D01*
X142679255Y-119285368D01*
X142849522Y-119225789D01*
X143002262Y-119129816D01*
X143129816Y-119002262D01*
X143225789Y-118849522D01*
X143285368Y-118679255D01*
X143289735Y-118640499D01*
X143305565Y-118500003D01*
X143305565Y-118499996D01*
X143285369Y-118320750D01*
X143285368Y-118320745D01*
X143254241Y-118231790D01*
X143225789Y-118150478D01*
X143129816Y-117997738D01*
X143129814Y-117997736D01*
X143129813Y-117997734D01*
X143127550Y-117994896D01*
X143126659Y-117992715D01*
X143126111Y-117991842D01*
X143126264Y-117991745D01*
X143101144Y-117930209D01*
X143100500Y-117917587D01*
X143100500Y-110082412D01*
X143120185Y-110015373D01*
X143127555Y-110005097D01*
X143129810Y-110002267D01*
X143129816Y-110002262D01*
X143225789Y-109849522D01*
X143285368Y-109679255D01*
X143305565Y-109500000D01*
X143285368Y-109320745D01*
X143225789Y-109150478D01*
X143129816Y-108997738D01*
X143002262Y-108870184D01*
X142969379Y-108849522D01*
X142849523Y-108774211D01*
X142679254Y-108714631D01*
X142679249Y-108714630D01*
X142500004Y-108694435D01*
X142499996Y-108694435D01*
X142320750Y-108714630D01*
X142320742Y-108714632D01*
X142165454Y-108768970D01*
X142095676Y-108772531D01*
X142035048Y-108737802D01*
X142002821Y-108675809D01*
X142000500Y-108651928D01*
X142000500Y-108499996D01*
X146194435Y-108499996D01*
X146194435Y-108500003D01*
X146214630Y-108679249D01*
X146214631Y-108679254D01*
X146274211Y-108849523D01*
X146334515Y-108945496D01*
X146367341Y-108997738D01*
X146370185Y-109002263D01*
X146372445Y-109005097D01*
X146373334Y-109007275D01*
X146373889Y-109008158D01*
X146373734Y-109008255D01*
X146398855Y-109069783D01*
X146399500Y-109082412D01*
X146399500Y-116917587D01*
X146379815Y-116984626D01*
X146372450Y-116994896D01*
X146370186Y-116997734D01*
X146274211Y-117150476D01*
X146214631Y-117320745D01*
X146214630Y-117320750D01*
X146194435Y-117499996D01*
X146194435Y-117500003D01*
X146214630Y-117679249D01*
X146214631Y-117679254D01*
X146274211Y-117849523D01*
X146319087Y-117920942D01*
X146370184Y-118002262D01*
X146497738Y-118129816D01*
X146650478Y-118225789D01*
X146820745Y-118285368D01*
X146820750Y-118285369D01*
X146999996Y-118305565D01*
X147000000Y-118305565D01*
X147000004Y-118305565D01*
X147179249Y-118285369D01*
X147179252Y-118285368D01*
X147179255Y-118285368D01*
X147349522Y-118225789D01*
X147502262Y-118129816D01*
X147547555Y-118084522D01*
X147608876Y-118051038D01*
X147678567Y-118056022D01*
X147734501Y-118097893D01*
X147758919Y-118163357D01*
X147752277Y-118213158D01*
X147714632Y-118320742D01*
X147714630Y-118320750D01*
X147694435Y-118499996D01*
X147694435Y-118500003D01*
X147714630Y-118679249D01*
X147714631Y-118679254D01*
X147774211Y-118849523D01*
X147870184Y-119002262D01*
X147997738Y-119129816D01*
X148010397Y-119137770D01*
X148117088Y-119204809D01*
X148150478Y-119225789D01*
X148308353Y-119281032D01*
X148320745Y-119285368D01*
X148320750Y-119285369D01*
X148499996Y-119305565D01*
X148500000Y-119305565D01*
X148500004Y-119305565D01*
X148679249Y-119285369D01*
X148679252Y-119285368D01*
X148679255Y-119285368D01*
X148849522Y-119225789D01*
X149002262Y-119129816D01*
X149129816Y-119002262D01*
X149225789Y-118849522D01*
X149285368Y-118679255D01*
X149295161Y-118592330D01*
X149322226Y-118527920D01*
X149330700Y-118518534D01*
X149480520Y-118368716D01*
X149559577Y-118231784D01*
X149600501Y-118079057D01*
X149600501Y-117920942D01*
X149600501Y-117913347D01*
X149600500Y-117913329D01*
X149600500Y-113832857D01*
X149620185Y-113765818D01*
X149627555Y-113755542D01*
X149629810Y-113752712D01*
X149629816Y-113752707D01*
X149725789Y-113599967D01*
X149785368Y-113429700D01*
X149788771Y-113399500D01*
X149805565Y-113250448D01*
X149805565Y-113250441D01*
X149785369Y-113071195D01*
X149785368Y-113071190D01*
X149767022Y-113018760D01*
X149725789Y-112900923D01*
X149629816Y-112748183D01*
X149502262Y-112620629D01*
X149349523Y-112524656D01*
X149179254Y-112465076D01*
X149179249Y-112465075D01*
X149000004Y-112444880D01*
X148999995Y-112444880D01*
X148925088Y-112453319D01*
X148856266Y-112441264D01*
X148804888Y-112393914D01*
X148787986Y-112343982D01*
X148785368Y-112320745D01*
X148725789Y-112150478D01*
X148629816Y-111997738D01*
X148502262Y-111870184D01*
X148399500Y-111805614D01*
X148349523Y-111774211D01*
X148179254Y-111714631D01*
X148179249Y-111714630D01*
X148000004Y-111694435D01*
X147999996Y-111694435D01*
X147820750Y-111714630D01*
X147820739Y-111714633D01*
X147765453Y-111733978D01*
X147695674Y-111737539D01*
X147635047Y-111702809D01*
X147602821Y-111640816D01*
X147600500Y-111616936D01*
X147600500Y-109082412D01*
X147620185Y-109015373D01*
X147627555Y-109005097D01*
X147629810Y-109002267D01*
X147629816Y-109002262D01*
X147725789Y-108849522D01*
X147785368Y-108679255D01*
X147785369Y-108679249D01*
X147805565Y-108500003D01*
X147805565Y-108499996D01*
X147785369Y-108320750D01*
X147785368Y-108320745D01*
X147725788Y-108150476D01*
X147629815Y-107997737D01*
X147502262Y-107870184D01*
X147349523Y-107774211D01*
X147179254Y-107714631D01*
X147179249Y-107714630D01*
X147000004Y-107694435D01*
X146999996Y-107694435D01*
X146820750Y-107714630D01*
X146820745Y-107714631D01*
X146650476Y-107774211D01*
X146497737Y-107870184D01*
X146370184Y-107997737D01*
X146274211Y-108150476D01*
X146214631Y-108320745D01*
X146214630Y-108320750D01*
X146194435Y-108499996D01*
X142000500Y-108499996D01*
X142000500Y-100916321D01*
X142020185Y-100849282D01*
X142072989Y-100803527D01*
X142110613Y-100793101D01*
X142179255Y-100785368D01*
X142349522Y-100725789D01*
X142502262Y-100629816D01*
X142629816Y-100502262D01*
X142725789Y-100349522D01*
X142785368Y-100179255D01*
X142785369Y-100179249D01*
X142805565Y-100000003D01*
X142805565Y-99999996D01*
X142785369Y-99820750D01*
X142785368Y-99820745D01*
X142779295Y-99803390D01*
X142725789Y-99650478D01*
X142718486Y-99638856D01*
X142629815Y-99497737D01*
X142502262Y-99370184D01*
X142349521Y-99274210D01*
X142332447Y-99268236D01*
X142275671Y-99227514D01*
X142249923Y-99162562D01*
X142263379Y-99094000D01*
X142285716Y-99063517D01*
X143212416Y-98136819D01*
X143273739Y-98103334D01*
X143300097Y-98100500D01*
X144417588Y-98100500D01*
X144484627Y-98120185D01*
X144494903Y-98127555D01*
X144497736Y-98129814D01*
X144497738Y-98129816D01*
X144650478Y-98225789D01*
X144820745Y-98285368D01*
X144820750Y-98285369D01*
X144999996Y-98305565D01*
X145000000Y-98305565D01*
X145000004Y-98305565D01*
X145179249Y-98285369D01*
X145179252Y-98285368D01*
X145179255Y-98285368D01*
X145349522Y-98225789D01*
X145502262Y-98129816D01*
X145629816Y-98002262D01*
X145725789Y-97849522D01*
X145785368Y-97679255D01*
X145805565Y-97500000D01*
X145789805Y-97360128D01*
X145785369Y-97320750D01*
X145785368Y-97320745D01*
X145745703Y-97207389D01*
X145725789Y-97150478D01*
X145704778Y-97117040D01*
X145629815Y-96997737D01*
X145502262Y-96870184D01*
X145349523Y-96774211D01*
X145179254Y-96714631D01*
X145179249Y-96714630D01*
X145000004Y-96694435D01*
X144999996Y-96694435D01*
X144820750Y-96714630D01*
X144820745Y-96714631D01*
X144650476Y-96774211D01*
X144497736Y-96870185D01*
X144494903Y-96872445D01*
X144492724Y-96873334D01*
X144491842Y-96873889D01*
X144491744Y-96873734D01*
X144430217Y-96898855D01*
X144417588Y-96899500D01*
X144077745Y-96899500D01*
X144010706Y-96879815D01*
X143964951Y-96827011D01*
X143954525Y-96761618D01*
X143960379Y-96709657D01*
X143960379Y-96709648D01*
X143940183Y-96530402D01*
X143940182Y-96530397D01*
X143915870Y-96460917D01*
X143880603Y-96360130D01*
X143784630Y-96207390D01*
X143657076Y-96079836D01*
X143504336Y-95983863D01*
X143504333Y-95983861D01*
X143381279Y-95940802D01*
X143324503Y-95900081D01*
X143305192Y-95864715D01*
X143284456Y-95805454D01*
X143280895Y-95735675D01*
X143315624Y-95675048D01*
X143377618Y-95642821D01*
X143401498Y-95640500D01*
X144979017Y-95640500D01*
X145044989Y-95659506D01*
X145150477Y-95725789D01*
X145150481Y-95725790D01*
X145320737Y-95785366D01*
X145320743Y-95785367D01*
X145320745Y-95785368D01*
X145320746Y-95785368D01*
X145320750Y-95785369D01*
X145499996Y-95805565D01*
X145500000Y-95805565D01*
X145500004Y-95805565D01*
X145679249Y-95785369D01*
X145679252Y-95785368D01*
X145679255Y-95785368D01*
X145849522Y-95725789D01*
X146002262Y-95629816D01*
X146129816Y-95502262D01*
X146225789Y-95349522D01*
X146285368Y-95179255D01*
X146285499Y-95178094D01*
X146305565Y-95000003D01*
X146305565Y-94999996D01*
X146285369Y-94820750D01*
X146285368Y-94820745D01*
X146250524Y-94721167D01*
X146225789Y-94650478D01*
X146219519Y-94640500D01*
X146150337Y-94530397D01*
X146129816Y-94497738D01*
X146002262Y-94370184D01*
X145927459Y-94323182D01*
X145849523Y-94274211D01*
X145679254Y-94214631D01*
X145679249Y-94214630D01*
X145500004Y-94194435D01*
X145499996Y-94194435D01*
X145320750Y-94214630D01*
X145320737Y-94214633D01*
X145150481Y-94274209D01*
X145150477Y-94274210D01*
X145044989Y-94340494D01*
X144979017Y-94359500D01*
X133468454Y-94359500D01*
X133401415Y-94339815D01*
X133355660Y-94287011D01*
X133345716Y-94217853D01*
X133352272Y-94192167D01*
X133398905Y-94067135D01*
X133402854Y-94030402D01*
X133405314Y-94007525D01*
X133405313Y-92411780D01*
X133398905Y-92352169D01*
X133348610Y-92217321D01*
X133348609Y-92217320D01*
X133348607Y-92217316D01*
X133262361Y-92102107D01*
X133262358Y-92102104D01*
X133147149Y-92015858D01*
X133147142Y-92015854D01*
X133012296Y-91965560D01*
X133012297Y-91965560D01*
X132952697Y-91959153D01*
X132952695Y-91959152D01*
X132952687Y-91959152D01*
X132952678Y-91959152D01*
X131356943Y-91959152D01*
X131356937Y-91959153D01*
X131297330Y-91965560D01*
X131162485Y-92015854D01*
X131162478Y-92015858D01*
X131047269Y-92102104D01*
X131047266Y-92102107D01*
X130961020Y-92217316D01*
X130961016Y-92217323D01*
X130910722Y-92352169D01*
X130904315Y-92411768D01*
X130904315Y-92411775D01*
X130904314Y-92411787D01*
X130904314Y-94007522D01*
X130904315Y-94007528D01*
X130910722Y-94067135D01*
X130957356Y-94192167D01*
X130962340Y-94261859D01*
X130928854Y-94323182D01*
X130867531Y-94356666D01*
X130841174Y-94359500D01*
X128886912Y-94359500D01*
X128819873Y-94339815D01*
X128774118Y-94287011D01*
X128769870Y-94276454D01*
X128725789Y-94150478D01*
X128687453Y-94089467D01*
X128629816Y-93997738D01*
X128502262Y-93870184D01*
X128427992Y-93823517D01*
X128349523Y-93774211D01*
X128179254Y-93714631D01*
X128179249Y-93714630D01*
X128000004Y-93694435D01*
X127999996Y-93694435D01*
X127820750Y-93714630D01*
X127820745Y-93714631D01*
X127650476Y-93774211D01*
X127497737Y-93870184D01*
X127370184Y-93997737D01*
X127274211Y-94150476D01*
X127214631Y-94320745D01*
X127214630Y-94320750D01*
X127194435Y-94499996D01*
X127194435Y-94500003D01*
X127214630Y-94679249D01*
X127214631Y-94679254D01*
X127254852Y-94794197D01*
X127258413Y-94863976D01*
X127223684Y-94924604D01*
X127161691Y-94956831D01*
X127137816Y-94959152D01*
X127121610Y-94959152D01*
X127121600Y-94959153D01*
X127061993Y-94965560D01*
X126927148Y-95015854D01*
X126927141Y-95015858D01*
X126811932Y-95102104D01*
X126811929Y-95102107D01*
X126725683Y-95217316D01*
X126725679Y-95217323D01*
X126675385Y-95352169D01*
X126671436Y-95388906D01*
X126668977Y-95411779D01*
X126668977Y-96079836D01*
X126668978Y-96725182D01*
X126649293Y-96792221D01*
X126596490Y-96837976D01*
X126544978Y-96849182D01*
X124874500Y-96849182D01*
X124807461Y-96829497D01*
X124761706Y-96776693D01*
X124750500Y-96725182D01*
X124750499Y-95202129D01*
X124750498Y-95202123D01*
X124750497Y-95202116D01*
X124744091Y-95142517D01*
X124742548Y-95138381D01*
X124693797Y-95007671D01*
X124693795Y-95007668D01*
X124688429Y-95000500D01*
X124660314Y-94962943D01*
X124635897Y-94897481D01*
X124650748Y-94829208D01*
X124700152Y-94779802D01*
X124718627Y-94771591D01*
X124742507Y-94763235D01*
X124849522Y-94725789D01*
X125002262Y-94629816D01*
X125129816Y-94502262D01*
X125225789Y-94349522D01*
X125285368Y-94179255D01*
X125285369Y-94179249D01*
X125305565Y-94000003D01*
X125305565Y-93999996D01*
X125285369Y-93820750D01*
X125285368Y-93820745D01*
X125225788Y-93650476D01*
X125156305Y-93539895D01*
X125129816Y-93497738D01*
X125002262Y-93370184D01*
X124953378Y-93339468D01*
X124849523Y-93274211D01*
X124679254Y-93214631D01*
X124679249Y-93214630D01*
X124500004Y-93194435D01*
X124499996Y-93194435D01*
X124320750Y-93214630D01*
X124320737Y-93214633D01*
X124150481Y-93274209D01*
X124150477Y-93274210D01*
X124044989Y-93340494D01*
X123979017Y-93359500D01*
X119567872Y-93359500D01*
X119500833Y-93339815D01*
X119455078Y-93287011D01*
X119451690Y-93278833D01*
X119443797Y-93257671D01*
X119443793Y-93257664D01*
X119357547Y-93142455D01*
X119357544Y-93142452D01*
X119242335Y-93056206D01*
X119242328Y-93056202D01*
X119107482Y-93005908D01*
X119107483Y-93005908D01*
X119047883Y-92999501D01*
X119047881Y-92999500D01*
X119047873Y-92999500D01*
X119047864Y-92999500D01*
X117952129Y-92999500D01*
X117952123Y-92999501D01*
X117892516Y-93005908D01*
X117757671Y-93056202D01*
X117757664Y-93056206D01*
X117642455Y-93142452D01*
X117642452Y-93142455D01*
X117556206Y-93257664D01*
X117556202Y-93257671D01*
X117548310Y-93278833D01*
X117506439Y-93334767D01*
X117440975Y-93359184D01*
X117432128Y-93359500D01*
X116924499Y-93359500D01*
X116857460Y-93339815D01*
X116811705Y-93287011D01*
X116800499Y-93235500D01*
X116800499Y-93202129D01*
X116800498Y-93202123D01*
X116800497Y-93202116D01*
X116794091Y-93142517D01*
X116763006Y-93059175D01*
X116743797Y-93007671D01*
X116743793Y-93007664D01*
X116657547Y-92892455D01*
X116657544Y-92892452D01*
X116542335Y-92806206D01*
X116542328Y-92806202D01*
X116407482Y-92755908D01*
X116407483Y-92755908D01*
X116347883Y-92749501D01*
X116347881Y-92749500D01*
X116347873Y-92749500D01*
X116347865Y-92749500D01*
X115264500Y-92749500D01*
X115197461Y-92729815D01*
X115151706Y-92677011D01*
X115140500Y-92625500D01*
X115140500Y-89685262D01*
X115115886Y-89561523D01*
X115115883Y-89561514D01*
X115114911Y-89559166D01*
X115067605Y-89444960D01*
X114997509Y-89340053D01*
X113867108Y-88209652D01*
X115249354Y-88209652D01*
X115269140Y-88397908D01*
X115269141Y-88397911D01*
X115327632Y-88577929D01*
X115327635Y-88577936D01*
X115422281Y-88741868D01*
X115518301Y-88848509D01*
X115548943Y-88882540D01*
X115702079Y-88993800D01*
X115702084Y-88993803D01*
X115875005Y-89070794D01*
X115875008Y-89070794D01*
X115875011Y-89070796D01*
X115908604Y-89077936D01*
X115940143Y-89084640D01*
X116001625Y-89117832D01*
X116002044Y-89118249D01*
X117071862Y-90188067D01*
X117071863Y-90188068D01*
X117125661Y-90241866D01*
X117176399Y-90292604D01*
X117299312Y-90374732D01*
X117299325Y-90374739D01*
X117435896Y-90431308D01*
X117435901Y-90431310D01*
X117435905Y-90431310D01*
X117435906Y-90431311D01*
X117580893Y-90460152D01*
X117580896Y-90460152D01*
X122615477Y-90460152D01*
X122682516Y-90479837D01*
X122688362Y-90483834D01*
X122702079Y-90493800D01*
X122702084Y-90493803D01*
X122875006Y-90570794D01*
X122875011Y-90570796D01*
X123060168Y-90610152D01*
X123060169Y-90610152D01*
X123249458Y-90610152D01*
X123249460Y-90610152D01*
X123434617Y-90570796D01*
X123607544Y-90493803D01*
X123760685Y-90382540D01*
X123887347Y-90241868D01*
X123981993Y-90077936D01*
X124040488Y-89897908D01*
X124060274Y-89709652D01*
X124040488Y-89521396D01*
X123981993Y-89341368D01*
X123887347Y-89177436D01*
X123760685Y-89036764D01*
X123760684Y-89036763D01*
X123607548Y-88925503D01*
X123607543Y-88925500D01*
X123434621Y-88848509D01*
X123434616Y-88848507D01*
X123288815Y-88817517D01*
X123249460Y-88809152D01*
X123060168Y-88809152D01*
X123027711Y-88816050D01*
X122875011Y-88848507D01*
X122875006Y-88848509D01*
X122702084Y-88925500D01*
X122702079Y-88925503D01*
X122688362Y-88935470D01*
X122622556Y-88958950D01*
X122615477Y-88959152D01*
X118017043Y-88959152D01*
X117950004Y-88939467D01*
X117929362Y-88922833D01*
X117067584Y-88061054D01*
X117037335Y-88011693D01*
X117002372Y-87904087D01*
X116981995Y-87841373D01*
X116981992Y-87841367D01*
X116980895Y-87839467D01*
X116887347Y-87677436D01*
X116760685Y-87536764D01*
X116753536Y-87531570D01*
X116607548Y-87425503D01*
X116607543Y-87425500D01*
X116434621Y-87348509D01*
X116434616Y-87348507D01*
X116263715Y-87312182D01*
X116249460Y-87309152D01*
X116060168Y-87309152D01*
X116045913Y-87312182D01*
X115875011Y-87348507D01*
X115875006Y-87348509D01*
X115702084Y-87425500D01*
X115702079Y-87425503D01*
X115548943Y-87536763D01*
X115422280Y-87677437D01*
X115327635Y-87841367D01*
X115327632Y-87841374D01*
X115271103Y-88015355D01*
X115269140Y-88021396D01*
X115249354Y-88209652D01*
X113867108Y-88209652D01*
X111867108Y-86209652D01*
X131249354Y-86209652D01*
X131269140Y-86397908D01*
X131269141Y-86397911D01*
X131327632Y-86577929D01*
X131327635Y-86577936D01*
X131424241Y-86745263D01*
X131440714Y-86813163D01*
X131430547Y-86853286D01*
X131431324Y-86853558D01*
X131369447Y-87030389D01*
X131369444Y-87030402D01*
X131349249Y-87209648D01*
X131349249Y-87209655D01*
X131369444Y-87388901D01*
X131369445Y-87388906D01*
X131429025Y-87559175D01*
X131503334Y-87677436D01*
X131524998Y-87711914D01*
X131652552Y-87839468D01*
X131742894Y-87896234D01*
X131787535Y-87924284D01*
X131805292Y-87935441D01*
X131943674Y-87983863D01*
X131975559Y-87995020D01*
X131975564Y-87995021D01*
X132154810Y-88015217D01*
X132154814Y-88015217D01*
X132154818Y-88015217D01*
X132334063Y-87995021D01*
X132334066Y-87995020D01*
X132334069Y-87995020D01*
X132504336Y-87935441D01*
X132657076Y-87839468D01*
X132657081Y-87839462D01*
X132659911Y-87837207D01*
X132662089Y-87836317D01*
X132662972Y-87835763D01*
X132663069Y-87835917D01*
X132724597Y-87810797D01*
X132737226Y-87810152D01*
X133651338Y-87810152D01*
X133718377Y-87829837D01*
X133764132Y-87882641D01*
X133774076Y-87951799D01*
X133745051Y-88015355D01*
X133717310Y-88039146D01*
X133652551Y-88079836D01*
X133524998Y-88207389D01*
X133429025Y-88360128D01*
X133369445Y-88530397D01*
X133369444Y-88530402D01*
X133349249Y-88709648D01*
X133349249Y-88709655D01*
X133369444Y-88888901D01*
X133369445Y-88888906D01*
X133429025Y-89059175D01*
X133445026Y-89084640D01*
X133524998Y-89211914D01*
X133652552Y-89339468D01*
X133805292Y-89435441D01*
X133975559Y-89495020D01*
X133998727Y-89497630D01*
X134063140Y-89524693D01*
X134072527Y-89533169D01*
X136947653Y-92408295D01*
X137036867Y-92497509D01*
X137036870Y-92497511D01*
X137036871Y-92497512D01*
X137141769Y-92567603D01*
X137141773Y-92567605D01*
X137258330Y-92615884D01*
X137258335Y-92615886D01*
X137382073Y-92640499D01*
X137382076Y-92640500D01*
X137382078Y-92640500D01*
X153128496Y-92640500D01*
X153195535Y-92660185D01*
X153216177Y-92676819D01*
X153331295Y-92791937D01*
X153364780Y-92853260D01*
X153366834Y-92865733D01*
X153369444Y-92888901D01*
X153369445Y-92888906D01*
X153369446Y-92888907D01*
X153377352Y-92911501D01*
X153429024Y-93059173D01*
X153518846Y-93202123D01*
X153524998Y-93211914D01*
X153652552Y-93339468D01*
X153676725Y-93354657D01*
X153676727Y-93354658D01*
X153723018Y-93406993D01*
X153733666Y-93476047D01*
X153705291Y-93539895D01*
X153676727Y-93564646D01*
X153652550Y-93579837D01*
X153649717Y-93582097D01*
X153647538Y-93582986D01*
X153646656Y-93583541D01*
X153646558Y-93583386D01*
X153585031Y-93608507D01*
X153572402Y-93609152D01*
X151082412Y-93609152D01*
X151015373Y-93589467D01*
X151005097Y-93582097D01*
X151002263Y-93579837D01*
X151002262Y-93579836D01*
X150894800Y-93512313D01*
X150849523Y-93483863D01*
X150679254Y-93424283D01*
X150679249Y-93424282D01*
X150500004Y-93404087D01*
X150499996Y-93404087D01*
X150320750Y-93424282D01*
X150320745Y-93424283D01*
X150150476Y-93483863D01*
X149997737Y-93579836D01*
X149870184Y-93707389D01*
X149774211Y-93860128D01*
X149714631Y-94030397D01*
X149714630Y-94030402D01*
X149694435Y-94209648D01*
X149694435Y-94209655D01*
X149714630Y-94388901D01*
X149714631Y-94388906D01*
X149774211Y-94559175D01*
X149831580Y-94650476D01*
X149870184Y-94711914D01*
X149997738Y-94839468D01*
X150076410Y-94888901D01*
X150106277Y-94907668D01*
X150150478Y-94935441D01*
X150236556Y-94965561D01*
X150320745Y-94995020D01*
X150320750Y-94995021D01*
X150499996Y-95015217D01*
X150500000Y-95015217D01*
X150500004Y-95015217D01*
X150679249Y-94995021D01*
X150679252Y-94995020D01*
X150679255Y-94995020D01*
X150849522Y-94935441D01*
X151002262Y-94839468D01*
X151002267Y-94839462D01*
X151005097Y-94837207D01*
X151007275Y-94836317D01*
X151008158Y-94835763D01*
X151008255Y-94835917D01*
X151069783Y-94810797D01*
X151082412Y-94810152D01*
X153572402Y-94810152D01*
X153639441Y-94829837D01*
X153649717Y-94837207D01*
X153652550Y-94839466D01*
X153652552Y-94839468D01*
X153805292Y-94935441D01*
X153891370Y-94965561D01*
X153975559Y-94995020D01*
X153975564Y-94995021D01*
X154154810Y-95015217D01*
X154154814Y-95015217D01*
X154154818Y-95015217D01*
X154334063Y-94995021D01*
X154334066Y-94995020D01*
X154334069Y-94995020D01*
X154504336Y-94935441D01*
X154657076Y-94839468D01*
X154784630Y-94711914D01*
X154880603Y-94559174D01*
X154940182Y-94388907D01*
X154942487Y-94368448D01*
X154960379Y-94209655D01*
X154960379Y-94209648D01*
X154940183Y-94030402D01*
X154940182Y-94030397D01*
X154880602Y-93860128D01*
X154789180Y-93714632D01*
X154784630Y-93707390D01*
X154657076Y-93579836D01*
X154632898Y-93564644D01*
X154586610Y-93512313D01*
X154575960Y-93443259D01*
X154604335Y-93379410D01*
X154632896Y-93354661D01*
X154657076Y-93339468D01*
X154784630Y-93211914D01*
X154880603Y-93059174D01*
X154886577Y-93042102D01*
X154927297Y-92985326D01*
X154992250Y-92959577D01*
X155060812Y-92973032D01*
X155091300Y-92995374D01*
X157286098Y-95190172D01*
X157286100Y-95190173D01*
X157286104Y-95190176D01*
X157390588Y-95250499D01*
X157423030Y-95269229D01*
X157575757Y-95310153D01*
X157575759Y-95310153D01*
X157741468Y-95310153D01*
X157741484Y-95310152D01*
X162917588Y-95310152D01*
X162984627Y-95329837D01*
X162994903Y-95337207D01*
X162997736Y-95339466D01*
X162997738Y-95339468D01*
X163150478Y-95435441D01*
X163320745Y-95495020D01*
X163320750Y-95495021D01*
X163499996Y-95515217D01*
X163500000Y-95515217D01*
X163500004Y-95515217D01*
X163679249Y-95495021D01*
X163679252Y-95495020D01*
X163679255Y-95495020D01*
X163849522Y-95435441D01*
X164002262Y-95339468D01*
X164129816Y-95211914D01*
X164225789Y-95059174D01*
X164285368Y-94888907D01*
X164288201Y-94863766D01*
X164305565Y-94709655D01*
X164305565Y-94709648D01*
X164285369Y-94530402D01*
X164285368Y-94530397D01*
X164273940Y-94497737D01*
X164225789Y-94360130D01*
X164223612Y-94356666D01*
X164134366Y-94214632D01*
X164129816Y-94207390D01*
X164002262Y-94079836D01*
X163991117Y-94072833D01*
X163849523Y-93983863D01*
X163679254Y-93924283D01*
X163679249Y-93924282D01*
X163500004Y-93904087D01*
X163499996Y-93904087D01*
X163320750Y-93924282D01*
X163320745Y-93924283D01*
X163150476Y-93983863D01*
X162997736Y-94079837D01*
X162994903Y-94082097D01*
X162992724Y-94082986D01*
X162991842Y-94083541D01*
X162991744Y-94083386D01*
X162930217Y-94108507D01*
X162917588Y-94109152D01*
X157954912Y-94109152D01*
X157887873Y-94089467D01*
X157867231Y-94072833D01*
X157440536Y-93646138D01*
X157407051Y-93584815D01*
X157412035Y-93515123D01*
X157453907Y-93459190D01*
X157487263Y-93441415D01*
X157504336Y-93435441D01*
X157609825Y-93369157D01*
X157675797Y-93350152D01*
X163979017Y-93350152D01*
X164044989Y-93369158D01*
X164150477Y-93435441D01*
X164150481Y-93435442D01*
X164320737Y-93495018D01*
X164320743Y-93495019D01*
X164320745Y-93495020D01*
X164320746Y-93495020D01*
X164320750Y-93495021D01*
X164499996Y-93515217D01*
X164500000Y-93515217D01*
X164500004Y-93515217D01*
X164679249Y-93495021D01*
X164679252Y-93495020D01*
X164679255Y-93495020D01*
X164849522Y-93435441D01*
X165002262Y-93339468D01*
X165129816Y-93211914D01*
X165225789Y-93059174D01*
X165285368Y-92888907D01*
X165289032Y-92856391D01*
X165305565Y-92709655D01*
X165305565Y-92709648D01*
X165285369Y-92530402D01*
X165285368Y-92530397D01*
X165255930Y-92446268D01*
X165225789Y-92360130D01*
X165129816Y-92207390D01*
X165002262Y-92079836D01*
X164900439Y-92015856D01*
X164849523Y-91983863D01*
X164679254Y-91924283D01*
X164679249Y-91924282D01*
X164500004Y-91904087D01*
X164499996Y-91904087D01*
X164320750Y-91924282D01*
X164320737Y-91924285D01*
X164150481Y-91983861D01*
X164150477Y-91983862D01*
X164044989Y-92050146D01*
X163979017Y-92069152D01*
X157675797Y-92069152D01*
X157609825Y-92050146D01*
X157504336Y-91983862D01*
X157504332Y-91983861D01*
X157334076Y-91924285D01*
X157334063Y-91924282D01*
X157154818Y-91904087D01*
X157154810Y-91904087D01*
X156975564Y-91924282D01*
X156975559Y-91924283D01*
X156805290Y-91983863D01*
X156652551Y-92079836D01*
X156524998Y-92207389D01*
X156429023Y-92360132D01*
X156423048Y-92377207D01*
X156382325Y-92433981D01*
X156317371Y-92459726D01*
X156248810Y-92446268D01*
X156218327Y-92423929D01*
X154856231Y-91061833D01*
X154822746Y-91000510D01*
X154827730Y-90930818D01*
X154869602Y-90874885D01*
X154935066Y-90850468D01*
X154943912Y-90850152D01*
X164133831Y-90850152D01*
X164199803Y-90869158D01*
X164305291Y-90935441D01*
X164305295Y-90935442D01*
X164475551Y-90995018D01*
X164475557Y-90995019D01*
X164475559Y-90995020D01*
X164475560Y-90995020D01*
X164475564Y-90995021D01*
X164654810Y-91015217D01*
X164654814Y-91015217D01*
X164654818Y-91015217D01*
X164834063Y-90995021D01*
X164834066Y-90995020D01*
X164834069Y-90995020D01*
X165004336Y-90935441D01*
X165157076Y-90839468D01*
X165284630Y-90711914D01*
X165380603Y-90559174D01*
X165440182Y-90388907D01*
X165440183Y-90388901D01*
X165460379Y-90209655D01*
X165460379Y-90209648D01*
X165440183Y-90030402D01*
X165440182Y-90030397D01*
X165380602Y-89860128D01*
X165284629Y-89707389D01*
X165157076Y-89579836D01*
X165004337Y-89483863D01*
X164834068Y-89424283D01*
X164834063Y-89424282D01*
X164654818Y-89404087D01*
X164654810Y-89404087D01*
X164475564Y-89424282D01*
X164475551Y-89424285D01*
X164305295Y-89483861D01*
X164305291Y-89483862D01*
X164199803Y-89550146D01*
X164133831Y-89569152D01*
X155419314Y-89569152D01*
X155352275Y-89549467D01*
X155306520Y-89496663D01*
X155295314Y-89445152D01*
X155295314Y-87312179D01*
X155295313Y-87312177D01*
X155284337Y-87256996D01*
X155270700Y-87188439D01*
X155257718Y-87157097D01*
X155222419Y-87071877D01*
X155222417Y-87071873D01*
X155152326Y-86966975D01*
X155152325Y-86966974D01*
X155152323Y-86966971D01*
X155063109Y-86877757D01*
X154026719Y-85841367D01*
X152897498Y-84712145D01*
X152897495Y-84712142D01*
X152792588Y-84642046D01*
X152792586Y-84642045D01*
X152676032Y-84593767D01*
X152676020Y-84593764D01*
X152552288Y-84569152D01*
X152552284Y-84569152D01*
X141175797Y-84569152D01*
X141109825Y-84550146D01*
X141004336Y-84483862D01*
X141004332Y-84483861D01*
X140834076Y-84424285D01*
X140834063Y-84424282D01*
X140654818Y-84404087D01*
X140654810Y-84404087D01*
X140475564Y-84424282D01*
X140475559Y-84424283D01*
X140305290Y-84483863D01*
X140152551Y-84579836D01*
X140024998Y-84707389D01*
X139929025Y-84860128D01*
X139869445Y-85030397D01*
X139869444Y-85030402D01*
X139849249Y-85209648D01*
X139849249Y-85209654D01*
X139861825Y-85321268D01*
X139849771Y-85390090D01*
X139802422Y-85441470D01*
X139738605Y-85459152D01*
X132694151Y-85459152D01*
X132627112Y-85439467D01*
X132621266Y-85435470D01*
X132607548Y-85425503D01*
X132607543Y-85425500D01*
X132434621Y-85348509D01*
X132434616Y-85348507D01*
X132288815Y-85317517D01*
X132249460Y-85309152D01*
X132060168Y-85309152D01*
X132027711Y-85316050D01*
X131875011Y-85348507D01*
X131875006Y-85348509D01*
X131702084Y-85425500D01*
X131702079Y-85425503D01*
X131548943Y-85536763D01*
X131422280Y-85677437D01*
X131327635Y-85841367D01*
X131327632Y-85841374D01*
X131292441Y-85949682D01*
X131269140Y-86021396D01*
X131249354Y-86209652D01*
X111867108Y-86209652D01*
X109659946Y-84002490D01*
X109555039Y-83932394D01*
X109555037Y-83932393D01*
X109438483Y-83884115D01*
X109438471Y-83884112D01*
X109314739Y-83859500D01*
X109314735Y-83859500D01*
X108520983Y-83859500D01*
X108455011Y-83840494D01*
X108349522Y-83774210D01*
X108349518Y-83774209D01*
X108179262Y-83714633D01*
X108179249Y-83714630D01*
X108000004Y-83694435D01*
X107999996Y-83694435D01*
X107820750Y-83714630D01*
X107820745Y-83714631D01*
X107650476Y-83774211D01*
X107497737Y-83870184D01*
X107370184Y-83997737D01*
X107274211Y-84150476D01*
X107214631Y-84320745D01*
X107214630Y-84320750D01*
X107194435Y-84499996D01*
X107194435Y-84500003D01*
X107214630Y-84679249D01*
X107214631Y-84679254D01*
X107274211Y-84849523D01*
X107280875Y-84860128D01*
X107370184Y-85002262D01*
X107497738Y-85129816D01*
X107650478Y-85225789D01*
X107707612Y-85245781D01*
X107820745Y-85285368D01*
X107820750Y-85285369D01*
X107999996Y-85305565D01*
X108000000Y-85305565D01*
X108000004Y-85305565D01*
X108179249Y-85285369D01*
X108179251Y-85285368D01*
X108179255Y-85285368D01*
X108179258Y-85285366D01*
X108179262Y-85285366D01*
X108292388Y-85245781D01*
X108349522Y-85225789D01*
X108455011Y-85159505D01*
X108520983Y-85140500D01*
X108893154Y-85140500D01*
X108960193Y-85160185D01*
X109005948Y-85212989D01*
X109015892Y-85282147D01*
X108986867Y-85345703D01*
X108985304Y-85347472D01*
X108922280Y-85417467D01*
X108827635Y-85581397D01*
X108827632Y-85581404D01*
X108769141Y-85761422D01*
X108769140Y-85761426D01*
X108749354Y-85949682D01*
X108769140Y-86137938D01*
X108769141Y-86137941D01*
X108827632Y-86317959D01*
X108827635Y-86317966D01*
X108922281Y-86481898D01*
X109048943Y-86622570D01*
X109202079Y-86733830D01*
X109202084Y-86733833D01*
X109375005Y-86810824D01*
X109375008Y-86810824D01*
X109375011Y-86810826D01*
X109409035Y-86818057D01*
X109440143Y-86824670D01*
X109501625Y-86857862D01*
X109502044Y-86858279D01*
X109713181Y-87069416D01*
X109746666Y-87130739D01*
X109749500Y-87157097D01*
X109749500Y-93044334D01*
X109729815Y-93111373D01*
X109677011Y-93157128D01*
X109607853Y-93167072D01*
X109544297Y-93138047D01*
X109537819Y-93132015D01*
X109323517Y-92917714D01*
X109290032Y-92856391D01*
X109287979Y-92843927D01*
X109285368Y-92820745D01*
X109225789Y-92650478D01*
X109129816Y-92497738D01*
X109002262Y-92370184D01*
X108986258Y-92360128D01*
X108849523Y-92274211D01*
X108679254Y-92214631D01*
X108679249Y-92214630D01*
X108500004Y-92194435D01*
X108499996Y-92194435D01*
X108320750Y-92214630D01*
X108320745Y-92214631D01*
X108150476Y-92274211D01*
X107997737Y-92370184D01*
X107870184Y-92497737D01*
X107774211Y-92650476D01*
X107714631Y-92820745D01*
X107714630Y-92820750D01*
X107694435Y-92999996D01*
X107694435Y-93000003D01*
X107714630Y-93179249D01*
X107714631Y-93179254D01*
X107774211Y-93349523D01*
X107828198Y-93435442D01*
X107870184Y-93502262D01*
X107997738Y-93629816D01*
X108150478Y-93725789D01*
X108320745Y-93785368D01*
X108343913Y-93787978D01*
X108408326Y-93815041D01*
X108417714Y-93823517D01*
X108592481Y-93998284D01*
X108625966Y-94059607D01*
X108620982Y-94129299D01*
X108579110Y-94185232D01*
X108513646Y-94209649D01*
X108490917Y-94209185D01*
X108360004Y-94194435D01*
X108359996Y-94194435D01*
X108180750Y-94214630D01*
X108180745Y-94214631D01*
X108010476Y-94274211D01*
X107857737Y-94370184D01*
X107730184Y-94497737D01*
X107634210Y-94650478D01*
X107574630Y-94820750D01*
X107564837Y-94907668D01*
X107537770Y-94972082D01*
X107529299Y-94981465D01*
X107419478Y-95091286D01*
X107369361Y-95178094D01*
X107369359Y-95178096D01*
X107340425Y-95228209D01*
X107340424Y-95228210D01*
X107329434Y-95269225D01*
X107299499Y-95380943D01*
X107299499Y-95380945D01*
X107299499Y-95549046D01*
X107299500Y-95549059D01*
X107299500Y-112813330D01*
X107299499Y-112813348D01*
X107299499Y-112979058D01*
X107310137Y-113018760D01*
X107308474Y-113088610D01*
X107295358Y-113116821D01*
X107274209Y-113150481D01*
X107214633Y-113320737D01*
X107214630Y-113320750D01*
X107194435Y-113499996D01*
X107194435Y-113500003D01*
X107214630Y-113679249D01*
X107214631Y-113679254D01*
X107274211Y-113849523D01*
X107319088Y-113920944D01*
X107370184Y-114002262D01*
X107497738Y-114129816D01*
X107650478Y-114225789D01*
X107816455Y-114283867D01*
X107873230Y-114324588D01*
X107898978Y-114389540D01*
X107899500Y-114400908D01*
X107899500Y-116417587D01*
X107879815Y-116484626D01*
X107872450Y-116494896D01*
X107870186Y-116497734D01*
X107774211Y-116650476D01*
X107714631Y-116820745D01*
X107714630Y-116820750D01*
X107694435Y-116999996D01*
X107694435Y-117000003D01*
X107714630Y-117179249D01*
X107714632Y-117179257D01*
X107719982Y-117194546D01*
X107723543Y-117264325D01*
X107688814Y-117324952D01*
X107626820Y-117357179D01*
X107602940Y-117359500D01*
X107020983Y-117359500D01*
X106955011Y-117340494D01*
X106849522Y-117274210D01*
X106849518Y-117274209D01*
X106679262Y-117214633D01*
X106679249Y-117214630D01*
X106500004Y-117194435D01*
X106499996Y-117194435D01*
X106320750Y-117214630D01*
X106320745Y-117214631D01*
X106150476Y-117274211D01*
X105997737Y-117370184D01*
X105870184Y-117497737D01*
X105774211Y-117650476D01*
X105714631Y-117820745D01*
X105714630Y-117820750D01*
X105694435Y-117999996D01*
X104919977Y-117999996D01*
X104919977Y-83090548D01*
X118752684Y-83090548D01*
X118854897Y-83153836D01*
X118854901Y-83153838D01*
X119053629Y-83230825D01*
X119053634Y-83230826D01*
X119263132Y-83269989D01*
X119476254Y-83269989D01*
X119685751Y-83230826D01*
X119685756Y-83230825D01*
X119884484Y-83153838D01*
X119884491Y-83153835D01*
X119986699Y-83090549D01*
X119986699Y-83090548D01*
X119986445Y-83090294D01*
X123602570Y-83090294D01*
X123704783Y-83153582D01*
X123704787Y-83153584D01*
X123903515Y-83230571D01*
X123903520Y-83230572D01*
X124113018Y-83269735D01*
X124326140Y-83269735D01*
X124535637Y-83230572D01*
X124535642Y-83230571D01*
X124734370Y-83153584D01*
X124734377Y-83153581D01*
X124836585Y-83090295D01*
X124836585Y-83090294D01*
X124219580Y-82473288D01*
X124219579Y-82473288D01*
X123602570Y-83090294D01*
X119986445Y-83090294D01*
X119369694Y-82473542D01*
X119369693Y-82473542D01*
X118752684Y-83090548D01*
X104919977Y-83090548D01*
X104919977Y-82119988D01*
X118214766Y-82119988D01*
X118214766Y-82119989D01*
X118234430Y-82332205D01*
X118234431Y-82332208D01*
X118292751Y-82537185D01*
X118292757Y-82537200D01*
X118387754Y-82727980D01*
X118387757Y-82727985D01*
X118396529Y-82739599D01*
X119016140Y-82119989D01*
X119016140Y-82119988D01*
X118970061Y-82073909D01*
X119019680Y-82073909D01*
X119019680Y-82166069D01*
X119043533Y-82255089D01*
X119089613Y-82334902D01*
X119154780Y-82400069D01*
X119234593Y-82446149D01*
X119323613Y-82470002D01*
X119415773Y-82470002D01*
X119504793Y-82446149D01*
X119584606Y-82400069D01*
X119649773Y-82334902D01*
X119695853Y-82255089D01*
X119719706Y-82166069D01*
X119719706Y-82119988D01*
X119723246Y-82119988D01*
X119723246Y-82119989D01*
X120342855Y-82739598D01*
X120342856Y-82739598D01*
X120351633Y-82727977D01*
X120351635Y-82727974D01*
X120446626Y-82537205D01*
X120446634Y-82537185D01*
X120504954Y-82332208D01*
X120504955Y-82332205D01*
X120524620Y-82119989D01*
X120524620Y-82119988D01*
X120524596Y-82119734D01*
X123064652Y-82119734D01*
X123064652Y-82119735D01*
X123084316Y-82331951D01*
X123084317Y-82331954D01*
X123142637Y-82536931D01*
X123142643Y-82536946D01*
X123237640Y-82727726D01*
X123237643Y-82727731D01*
X123246415Y-82739345D01*
X123866026Y-82119735D01*
X123866026Y-82119734D01*
X123819947Y-82073655D01*
X123869566Y-82073655D01*
X123869566Y-82165815D01*
X123893419Y-82254835D01*
X123939499Y-82334648D01*
X124004666Y-82399815D01*
X124084479Y-82445895D01*
X124173499Y-82469748D01*
X124265659Y-82469748D01*
X124354679Y-82445895D01*
X124434492Y-82399815D01*
X124499659Y-82334648D01*
X124545739Y-82254835D01*
X124569592Y-82165815D01*
X124569592Y-82119734D01*
X124573132Y-82119734D01*
X124573132Y-82119735D01*
X125192741Y-82739344D01*
X125192742Y-82739344D01*
X125201519Y-82727723D01*
X125201521Y-82727720D01*
X125296512Y-82536951D01*
X125296520Y-82536931D01*
X125354840Y-82331954D01*
X125354841Y-82331951D01*
X125374506Y-82119735D01*
X125374506Y-82119734D01*
X125354841Y-81907518D01*
X125354840Y-81907515D01*
X125296520Y-81702538D01*
X125296512Y-81702518D01*
X125201521Y-81511749D01*
X125201516Y-81511741D01*
X125192742Y-81500124D01*
X124573132Y-82119734D01*
X124569592Y-82119734D01*
X124569592Y-82073655D01*
X124545739Y-81984635D01*
X124499659Y-81904822D01*
X124434492Y-81839655D01*
X124354679Y-81793575D01*
X124265659Y-81769722D01*
X124173499Y-81769722D01*
X124084479Y-81793575D01*
X124004666Y-81839655D01*
X123939499Y-81904822D01*
X123893419Y-81984635D01*
X123869566Y-82073655D01*
X123819947Y-82073655D01*
X123246415Y-81500123D01*
X123237638Y-81511745D01*
X123142645Y-81702518D01*
X123142637Y-81702538D01*
X123084317Y-81907515D01*
X123084316Y-81907518D01*
X123064652Y-82119734D01*
X120524596Y-82119734D01*
X120504955Y-81907772D01*
X120504954Y-81907769D01*
X120446634Y-81702792D01*
X120446626Y-81702772D01*
X120351635Y-81512003D01*
X120351630Y-81511995D01*
X120342856Y-81500378D01*
X119723246Y-82119988D01*
X119719706Y-82119988D01*
X119719706Y-82073909D01*
X119695853Y-81984889D01*
X119649773Y-81905076D01*
X119584606Y-81839909D01*
X119504793Y-81793829D01*
X119415773Y-81769976D01*
X119323613Y-81769976D01*
X119234593Y-81793829D01*
X119154780Y-81839909D01*
X119089613Y-81905076D01*
X119043533Y-81984889D01*
X119019680Y-82073909D01*
X118970061Y-82073909D01*
X118396529Y-81500377D01*
X118387752Y-81511999D01*
X118292759Y-81702772D01*
X118292751Y-81702792D01*
X118234431Y-81907769D01*
X118234430Y-81907772D01*
X118214766Y-82119988D01*
X104919977Y-82119988D01*
X104919977Y-82074182D01*
X104939662Y-82007143D01*
X104992466Y-81961388D01*
X105043977Y-81950182D01*
X109485367Y-81950182D01*
X109485369Y-81950182D01*
X109612663Y-81916074D01*
X109726791Y-81850182D01*
X109819977Y-81756996D01*
X109885869Y-81642868D01*
X109919977Y-81515574D01*
X109919977Y-81149428D01*
X118752684Y-81149428D01*
X119369693Y-81766436D01*
X119369694Y-81766436D01*
X119986700Y-81149428D01*
X119986290Y-81149174D01*
X123602570Y-81149174D01*
X124219579Y-81766182D01*
X124219580Y-81766182D01*
X124836586Y-81149174D01*
X124734372Y-81085886D01*
X124734368Y-81085884D01*
X124535642Y-81008898D01*
X124535637Y-81008897D01*
X124326140Y-80969735D01*
X124113018Y-80969735D01*
X123903520Y-81008897D01*
X123903515Y-81008898D01*
X123704789Y-81085884D01*
X123704780Y-81085889D01*
X123602571Y-81149173D01*
X123602570Y-81149174D01*
X119986290Y-81149174D01*
X119884486Y-81086140D01*
X119884482Y-81086138D01*
X119685756Y-81009152D01*
X119685751Y-81009151D01*
X119476254Y-80969989D01*
X119263132Y-80969989D01*
X119053634Y-81009151D01*
X119053629Y-81009152D01*
X118854903Y-81086138D01*
X118854894Y-81086143D01*
X118752685Y-81149427D01*
X118752684Y-81149428D01*
X109919977Y-81149428D01*
X109919977Y-74257285D01*
X109939662Y-74190246D01*
X109992466Y-74144491D01*
X110061624Y-74134547D01*
X110125180Y-74163572D01*
X110161396Y-74217427D01*
X110200624Y-74332991D01*
X110200628Y-74333001D01*
X110334165Y-74603787D01*
X110334168Y-74603791D01*
X110498773Y-74850140D01*
X110501912Y-74854837D01*
X110700985Y-75081839D01*
X110878250Y-75237294D01*
X110927989Y-75280914D01*
X111082355Y-75384058D01*
X111179037Y-75448659D01*
X111449823Y-75582196D01*
X111449833Y-75582200D01*
X111735719Y-75679245D01*
X111735723Y-75679246D01*
X111735732Y-75679249D01*
X111900135Y-75711951D01*
X112031849Y-75738151D01*
X112031850Y-75738151D01*
X112031860Y-75738153D01*
X112333143Y-75757900D01*
X112634426Y-75738153D01*
X112930554Y-75679249D01*
X112930566Y-75679245D01*
X113216452Y-75582200D01*
X113216462Y-75582196D01*
X113487248Y-75448659D01*
X113487248Y-75448658D01*
X113487252Y-75448657D01*
X113738297Y-75280914D01*
X113965300Y-75081839D01*
X114164375Y-74854836D01*
X114332118Y-74603791D01*
X114465658Y-74332999D01*
X114482185Y-74284314D01*
X114562706Y-74047105D01*
X114562706Y-74047104D01*
X114562710Y-74047093D01*
X114621614Y-73750965D01*
X114641361Y-73449682D01*
X114621614Y-73148399D01*
X114562710Y-72852271D01*
X114554764Y-72828862D01*
X114465661Y-72566372D01*
X114465657Y-72566362D01*
X114332120Y-72295576D01*
X114233116Y-72147406D01*
X114164375Y-72044528D01*
X113986958Y-71842221D01*
X113965300Y-71817524D01*
X113794126Y-71667410D01*
X113756702Y-71608409D01*
X113757118Y-71538540D01*
X113795241Y-71479988D01*
X113858968Y-71451341D01*
X113875885Y-71450182D01*
X115794977Y-71450182D01*
X115862016Y-71469867D01*
G37*
%TD.AperFunction*%
%TD*%
M02*
