%TF.GenerationSoftware,KiCad,Pcbnew,8.0.4*%
%TF.CreationDate,2024-10-16T20:55:19+01:00*%
%TF.ProjectId,analog,616e616c-6f67-42e6-9b69-6361645f7063,rev?*%
%TF.SameCoordinates,Original*%
%TF.FileFunction,Other,Comment*%
%FSLAX46Y46*%
G04 Gerber Fmt 4.6, Leading zero omitted, Abs format (unit mm)*
G04 Created by KiCad (PCBNEW 8.0.4) date 2024-10-16 20:55:19*
%MOMM*%
%LPD*%
G01*
G04 APERTURE LIST*
%ADD10C,0.150000*%
G04 APERTURE END LIST*
D10*
X123789160Y-130492368D02*
X123926064Y-130539987D01*
X123926064Y-130539987D02*
X124164160Y-130539987D01*
X124164160Y-130539987D02*
X124265350Y-130492368D01*
X124265350Y-130492368D02*
X124318922Y-130444748D01*
X124318922Y-130444748D02*
X124378445Y-130349510D01*
X124378445Y-130349510D02*
X124390350Y-130254272D01*
X124390350Y-130254272D02*
X124354636Y-130159034D01*
X124354636Y-130159034D02*
X124312969Y-130111415D01*
X124312969Y-130111415D02*
X124223684Y-130063796D01*
X124223684Y-130063796D02*
X124039160Y-130016177D01*
X124039160Y-130016177D02*
X123949874Y-129968558D01*
X123949874Y-129968558D02*
X123908207Y-129920939D01*
X123908207Y-129920939D02*
X123872493Y-129825701D01*
X123872493Y-129825701D02*
X123884398Y-129730463D01*
X123884398Y-129730463D02*
X123943922Y-129635225D01*
X123943922Y-129635225D02*
X123997493Y-129587606D01*
X123997493Y-129587606D02*
X124098684Y-129539987D01*
X124098684Y-129539987D02*
X124336779Y-129539987D01*
X124336779Y-129539987D02*
X124473684Y-129587606D01*
X124723684Y-129873320D02*
X125104636Y-129873320D01*
X124908207Y-129539987D02*
X124801065Y-130397129D01*
X124801065Y-130397129D02*
X124836779Y-130492368D01*
X124836779Y-130492368D02*
X124926065Y-130539987D01*
X124926065Y-130539987D02*
X125021303Y-130539987D01*
X125354636Y-130539987D02*
X125437970Y-129873320D01*
X125479636Y-129539987D02*
X125426065Y-129587606D01*
X125426065Y-129587606D02*
X125467732Y-129635225D01*
X125467732Y-129635225D02*
X125521303Y-129587606D01*
X125521303Y-129587606D02*
X125479636Y-129539987D01*
X125479636Y-129539987D02*
X125467732Y-129635225D01*
X125771303Y-129873320D02*
X126152255Y-129873320D01*
X125830826Y-130539987D02*
X125937969Y-129682844D01*
X125937969Y-129682844D02*
X125997493Y-129587606D01*
X125997493Y-129587606D02*
X126098684Y-129539987D01*
X126098684Y-129539987D02*
X126193922Y-129539987D01*
X126342732Y-129873320D02*
X126723684Y-129873320D01*
X126402255Y-130539987D02*
X126509398Y-129682844D01*
X126509398Y-129682844D02*
X126568922Y-129587606D01*
X126568922Y-129587606D02*
X126670113Y-129539987D01*
X126670113Y-129539987D02*
X126765351Y-129539987D01*
X127360589Y-130492368D02*
X127259399Y-130539987D01*
X127259399Y-130539987D02*
X127068922Y-130539987D01*
X127068922Y-130539987D02*
X126979637Y-130492368D01*
X126979637Y-130492368D02*
X126943922Y-130397129D01*
X126943922Y-130397129D02*
X126991542Y-130016177D01*
X126991542Y-130016177D02*
X127051065Y-129920939D01*
X127051065Y-129920939D02*
X127152256Y-129873320D01*
X127152256Y-129873320D02*
X127342732Y-129873320D01*
X127342732Y-129873320D02*
X127432018Y-129920939D01*
X127432018Y-129920939D02*
X127467732Y-130016177D01*
X127467732Y-130016177D02*
X127455827Y-130111415D01*
X127455827Y-130111415D02*
X126967732Y-130206653D01*
X127914161Y-129873320D02*
X127830827Y-130539987D01*
X127902256Y-129968558D02*
X127955827Y-129920939D01*
X127955827Y-129920939D02*
X128057018Y-129873320D01*
X128057018Y-129873320D02*
X128199875Y-129873320D01*
X128199875Y-129873320D02*
X128289161Y-129920939D01*
X128289161Y-129920939D02*
X128324875Y-130016177D01*
X128324875Y-130016177D02*
X128259399Y-130539987D01*
X129122494Y-130492368D02*
X129021304Y-130539987D01*
X129021304Y-130539987D02*
X128830827Y-130539987D01*
X128830827Y-130539987D02*
X128741542Y-130492368D01*
X128741542Y-130492368D02*
X128705827Y-130397129D01*
X128705827Y-130397129D02*
X128753447Y-130016177D01*
X128753447Y-130016177D02*
X128812970Y-129920939D01*
X128812970Y-129920939D02*
X128914161Y-129873320D01*
X128914161Y-129873320D02*
X129104637Y-129873320D01*
X129104637Y-129873320D02*
X129193923Y-129920939D01*
X129193923Y-129920939D02*
X129229637Y-130016177D01*
X129229637Y-130016177D02*
X129217732Y-130111415D01*
X129217732Y-130111415D02*
X128729637Y-130206653D01*
X129592732Y-130539987D02*
X129676066Y-129873320D01*
X129652256Y-130063796D02*
X129711780Y-129968558D01*
X129711780Y-129968558D02*
X129765351Y-129920939D01*
X129765351Y-129920939D02*
X129866542Y-129873320D01*
X129866542Y-129873320D02*
X129961780Y-129873320D01*
X130223685Y-130444748D02*
X130265352Y-130492368D01*
X130265352Y-130492368D02*
X130211780Y-130539987D01*
X130211780Y-130539987D02*
X130170114Y-130492368D01*
X130170114Y-130492368D02*
X130223685Y-130444748D01*
X130223685Y-130444748D02*
X130211780Y-130539987D01*
X130289161Y-129920939D02*
X130330828Y-129968558D01*
X130330828Y-129968558D02*
X130277257Y-130016177D01*
X130277257Y-130016177D02*
X130235590Y-129968558D01*
X130235590Y-129968558D02*
X130289161Y-129920939D01*
X130289161Y-129920939D02*
X130277257Y-130016177D01*
X131449875Y-130539987D02*
X131574875Y-129539987D01*
X131574875Y-129539987D02*
X131955828Y-129539987D01*
X131955828Y-129539987D02*
X132045113Y-129587606D01*
X132045113Y-129587606D02*
X132086780Y-129635225D01*
X132086780Y-129635225D02*
X132122494Y-129730463D01*
X132122494Y-129730463D02*
X132104637Y-129873320D01*
X132104637Y-129873320D02*
X132045113Y-129968558D01*
X132045113Y-129968558D02*
X131991542Y-130016177D01*
X131991542Y-130016177D02*
X131890352Y-130063796D01*
X131890352Y-130063796D02*
X131509399Y-130063796D01*
X132592733Y-130539987D02*
X132503447Y-130492368D01*
X132503447Y-130492368D02*
X132461780Y-130444748D01*
X132461780Y-130444748D02*
X132426066Y-130349510D01*
X132426066Y-130349510D02*
X132461780Y-130063796D01*
X132461780Y-130063796D02*
X132521304Y-129968558D01*
X132521304Y-129968558D02*
X132574875Y-129920939D01*
X132574875Y-129920939D02*
X132676066Y-129873320D01*
X132676066Y-129873320D02*
X132818923Y-129873320D01*
X132818923Y-129873320D02*
X132908209Y-129920939D01*
X132908209Y-129920939D02*
X132949875Y-129968558D01*
X132949875Y-129968558D02*
X132985590Y-130063796D01*
X132985590Y-130063796D02*
X132949875Y-130349510D01*
X132949875Y-130349510D02*
X132890352Y-130444748D01*
X132890352Y-130444748D02*
X132836780Y-130492368D01*
X132836780Y-130492368D02*
X132735590Y-130539987D01*
X132735590Y-130539987D02*
X132592733Y-130539987D01*
X133497495Y-130539987D02*
X133408209Y-130492368D01*
X133408209Y-130492368D02*
X133372495Y-130397129D01*
X133372495Y-130397129D02*
X133479637Y-129539987D01*
X133866543Y-129873320D02*
X134021305Y-130539987D01*
X134342733Y-129873320D02*
X134021305Y-130539987D01*
X134021305Y-130539987D02*
X133896305Y-130778082D01*
X133896305Y-130778082D02*
X133842733Y-130825701D01*
X133842733Y-130825701D02*
X133741543Y-130873320D01*
X134640352Y-130539987D02*
X134723686Y-129873320D01*
X134765352Y-129539987D02*
X134711781Y-129587606D01*
X134711781Y-129587606D02*
X134753448Y-129635225D01*
X134753448Y-129635225D02*
X134807019Y-129587606D01*
X134807019Y-129587606D02*
X134765352Y-129539987D01*
X134765352Y-129539987D02*
X134753448Y-129635225D01*
X135116542Y-130539987D02*
X135199876Y-129873320D01*
X135187971Y-129968558D02*
X135241542Y-129920939D01*
X135241542Y-129920939D02*
X135342733Y-129873320D01*
X135342733Y-129873320D02*
X135485590Y-129873320D01*
X135485590Y-129873320D02*
X135574876Y-129920939D01*
X135574876Y-129920939D02*
X135610590Y-130016177D01*
X135610590Y-130016177D02*
X135545114Y-130539987D01*
X135610590Y-130016177D02*
X135670114Y-129920939D01*
X135670114Y-129920939D02*
X135771304Y-129873320D01*
X135771304Y-129873320D02*
X135914161Y-129873320D01*
X135914161Y-129873320D02*
X136003447Y-129920939D01*
X136003447Y-129920939D02*
X136039161Y-130016177D01*
X136039161Y-130016177D02*
X135973685Y-130539987D01*
X136449875Y-130539987D02*
X136533209Y-129873320D01*
X136574875Y-129539987D02*
X136521304Y-129587606D01*
X136521304Y-129587606D02*
X136562971Y-129635225D01*
X136562971Y-129635225D02*
X136616542Y-129587606D01*
X136616542Y-129587606D02*
X136574875Y-129539987D01*
X136574875Y-129539987D02*
X136562971Y-129635225D01*
X137354637Y-130539987D02*
X137479637Y-129539987D01*
X137360589Y-130492368D02*
X137259399Y-130539987D01*
X137259399Y-130539987D02*
X137068923Y-130539987D01*
X137068923Y-130539987D02*
X136979637Y-130492368D01*
X136979637Y-130492368D02*
X136937970Y-130444748D01*
X136937970Y-130444748D02*
X136902256Y-130349510D01*
X136902256Y-130349510D02*
X136937970Y-130063796D01*
X136937970Y-130063796D02*
X136997494Y-129968558D01*
X136997494Y-129968558D02*
X137051065Y-129920939D01*
X137051065Y-129920939D02*
X137152256Y-129873320D01*
X137152256Y-129873320D02*
X137342732Y-129873320D01*
X137342732Y-129873320D02*
X137432018Y-129920939D01*
X138217732Y-130492368D02*
X138116542Y-130539987D01*
X138116542Y-130539987D02*
X137926065Y-130539987D01*
X137926065Y-130539987D02*
X137836780Y-130492368D01*
X137836780Y-130492368D02*
X137801065Y-130397129D01*
X137801065Y-130397129D02*
X137848685Y-130016177D01*
X137848685Y-130016177D02*
X137908208Y-129920939D01*
X137908208Y-129920939D02*
X138009399Y-129873320D01*
X138009399Y-129873320D02*
X138199875Y-129873320D01*
X138199875Y-129873320D02*
X138289161Y-129920939D01*
X138289161Y-129920939D02*
X138324875Y-130016177D01*
X138324875Y-130016177D02*
X138312970Y-130111415D01*
X138312970Y-130111415D02*
X137824875Y-130206653D01*
X123789160Y-132102312D02*
X123926064Y-132149931D01*
X123926064Y-132149931D02*
X124164160Y-132149931D01*
X124164160Y-132149931D02*
X124265350Y-132102312D01*
X124265350Y-132102312D02*
X124318922Y-132054692D01*
X124318922Y-132054692D02*
X124378445Y-131959454D01*
X124378445Y-131959454D02*
X124390350Y-131864216D01*
X124390350Y-131864216D02*
X124354636Y-131768978D01*
X124354636Y-131768978D02*
X124312969Y-131721359D01*
X124312969Y-131721359D02*
X124223684Y-131673740D01*
X124223684Y-131673740D02*
X124039160Y-131626121D01*
X124039160Y-131626121D02*
X123949874Y-131578502D01*
X123949874Y-131578502D02*
X123908207Y-131530883D01*
X123908207Y-131530883D02*
X123872493Y-131435645D01*
X123872493Y-131435645D02*
X123884398Y-131340407D01*
X123884398Y-131340407D02*
X123943922Y-131245169D01*
X123943922Y-131245169D02*
X123997493Y-131197550D01*
X123997493Y-131197550D02*
X124098684Y-131149931D01*
X124098684Y-131149931D02*
X124336779Y-131149931D01*
X124336779Y-131149931D02*
X124473684Y-131197550D01*
X124723684Y-131483264D02*
X125104636Y-131483264D01*
X124908207Y-131149931D02*
X124801065Y-132007073D01*
X124801065Y-132007073D02*
X124836779Y-132102312D01*
X124836779Y-132102312D02*
X124926065Y-132149931D01*
X124926065Y-132149931D02*
X125021303Y-132149931D01*
X125354636Y-132149931D02*
X125437970Y-131483264D01*
X125479636Y-131149931D02*
X125426065Y-131197550D01*
X125426065Y-131197550D02*
X125467732Y-131245169D01*
X125467732Y-131245169D02*
X125521303Y-131197550D01*
X125521303Y-131197550D02*
X125479636Y-131149931D01*
X125479636Y-131149931D02*
X125467732Y-131245169D01*
X125771303Y-131483264D02*
X126152255Y-131483264D01*
X125830826Y-132149931D02*
X125937969Y-131292788D01*
X125937969Y-131292788D02*
X125997493Y-131197550D01*
X125997493Y-131197550D02*
X126098684Y-131149931D01*
X126098684Y-131149931D02*
X126193922Y-131149931D01*
X126342732Y-131483264D02*
X126723684Y-131483264D01*
X126402255Y-132149931D02*
X126509398Y-131292788D01*
X126509398Y-131292788D02*
X126568922Y-131197550D01*
X126568922Y-131197550D02*
X126670113Y-131149931D01*
X126670113Y-131149931D02*
X126765351Y-131149931D01*
X127360589Y-132102312D02*
X127259399Y-132149931D01*
X127259399Y-132149931D02*
X127068922Y-132149931D01*
X127068922Y-132149931D02*
X126979637Y-132102312D01*
X126979637Y-132102312D02*
X126943922Y-132007073D01*
X126943922Y-132007073D02*
X126991542Y-131626121D01*
X126991542Y-131626121D02*
X127051065Y-131530883D01*
X127051065Y-131530883D02*
X127152256Y-131483264D01*
X127152256Y-131483264D02*
X127342732Y-131483264D01*
X127342732Y-131483264D02*
X127432018Y-131530883D01*
X127432018Y-131530883D02*
X127467732Y-131626121D01*
X127467732Y-131626121D02*
X127455827Y-131721359D01*
X127455827Y-131721359D02*
X126967732Y-131816597D01*
X127914161Y-131483264D02*
X127830827Y-132149931D01*
X127902256Y-131578502D02*
X127955827Y-131530883D01*
X127955827Y-131530883D02*
X128057018Y-131483264D01*
X128057018Y-131483264D02*
X128199875Y-131483264D01*
X128199875Y-131483264D02*
X128289161Y-131530883D01*
X128289161Y-131530883D02*
X128324875Y-131626121D01*
X128324875Y-131626121D02*
X128259399Y-132149931D01*
X129122494Y-132102312D02*
X129021304Y-132149931D01*
X129021304Y-132149931D02*
X128830827Y-132149931D01*
X128830827Y-132149931D02*
X128741542Y-132102312D01*
X128741542Y-132102312D02*
X128705827Y-132007073D01*
X128705827Y-132007073D02*
X128753447Y-131626121D01*
X128753447Y-131626121D02*
X128812970Y-131530883D01*
X128812970Y-131530883D02*
X128914161Y-131483264D01*
X128914161Y-131483264D02*
X129104637Y-131483264D01*
X129104637Y-131483264D02*
X129193923Y-131530883D01*
X129193923Y-131530883D02*
X129229637Y-131626121D01*
X129229637Y-131626121D02*
X129217732Y-131721359D01*
X129217732Y-131721359D02*
X128729637Y-131816597D01*
X129592732Y-132149931D02*
X129676066Y-131483264D01*
X129652256Y-131673740D02*
X129711780Y-131578502D01*
X129711780Y-131578502D02*
X129765351Y-131530883D01*
X129765351Y-131530883D02*
X129866542Y-131483264D01*
X129866542Y-131483264D02*
X129961780Y-131483264D01*
X130914162Y-131483264D02*
X131295114Y-131483264D01*
X131098685Y-131149931D02*
X130991543Y-132007073D01*
X130991543Y-132007073D02*
X131027257Y-132102312D01*
X131027257Y-132102312D02*
X131116543Y-132149931D01*
X131116543Y-132149931D02*
X131211781Y-132149931D01*
X131545114Y-132149931D02*
X131670114Y-131149931D01*
X131973686Y-132149931D02*
X132039162Y-131626121D01*
X132039162Y-131626121D02*
X132003448Y-131530883D01*
X132003448Y-131530883D02*
X131914162Y-131483264D01*
X131914162Y-131483264D02*
X131771305Y-131483264D01*
X131771305Y-131483264D02*
X131670114Y-131530883D01*
X131670114Y-131530883D02*
X131616543Y-131578502D01*
X132449876Y-132149931D02*
X132533210Y-131483264D01*
X132574876Y-131149931D02*
X132521305Y-131197550D01*
X132521305Y-131197550D02*
X132562972Y-131245169D01*
X132562972Y-131245169D02*
X132616543Y-131197550D01*
X132616543Y-131197550D02*
X132574876Y-131149931D01*
X132574876Y-131149931D02*
X132562972Y-131245169D01*
X133360590Y-132102312D02*
X133259400Y-132149931D01*
X133259400Y-132149931D02*
X133068924Y-132149931D01*
X133068924Y-132149931D02*
X132979638Y-132102312D01*
X132979638Y-132102312D02*
X132937971Y-132054692D01*
X132937971Y-132054692D02*
X132902257Y-131959454D01*
X132902257Y-131959454D02*
X132937971Y-131673740D01*
X132937971Y-131673740D02*
X132997495Y-131578502D01*
X132997495Y-131578502D02*
X133051066Y-131530883D01*
X133051066Y-131530883D02*
X133152257Y-131483264D01*
X133152257Y-131483264D02*
X133342733Y-131483264D01*
X133342733Y-131483264D02*
X133432019Y-131530883D01*
X133783209Y-132149931D02*
X133908209Y-131149931D01*
X133926067Y-131768978D02*
X134164162Y-132149931D01*
X134247495Y-131483264D02*
X133818924Y-131864216D01*
X134676067Y-131483264D02*
X134592733Y-132149931D01*
X134664162Y-131578502D02*
X134717733Y-131530883D01*
X134717733Y-131530883D02*
X134818924Y-131483264D01*
X134818924Y-131483264D02*
X134961781Y-131483264D01*
X134961781Y-131483264D02*
X135051067Y-131530883D01*
X135051067Y-131530883D02*
X135086781Y-131626121D01*
X135086781Y-131626121D02*
X135021305Y-132149931D01*
X135884400Y-132102312D02*
X135783210Y-132149931D01*
X135783210Y-132149931D02*
X135592733Y-132149931D01*
X135592733Y-132149931D02*
X135503448Y-132102312D01*
X135503448Y-132102312D02*
X135467733Y-132007073D01*
X135467733Y-132007073D02*
X135515353Y-131626121D01*
X135515353Y-131626121D02*
X135574876Y-131530883D01*
X135574876Y-131530883D02*
X135676067Y-131483264D01*
X135676067Y-131483264D02*
X135866543Y-131483264D01*
X135866543Y-131483264D02*
X135955829Y-131530883D01*
X135955829Y-131530883D02*
X135991543Y-131626121D01*
X135991543Y-131626121D02*
X135979638Y-131721359D01*
X135979638Y-131721359D02*
X135491543Y-131816597D01*
X136312972Y-132102312D02*
X136402257Y-132149931D01*
X136402257Y-132149931D02*
X136592734Y-132149931D01*
X136592734Y-132149931D02*
X136693924Y-132102312D01*
X136693924Y-132102312D02*
X136753448Y-132007073D01*
X136753448Y-132007073D02*
X136759400Y-131959454D01*
X136759400Y-131959454D02*
X136723686Y-131864216D01*
X136723686Y-131864216D02*
X136634400Y-131816597D01*
X136634400Y-131816597D02*
X136491543Y-131816597D01*
X136491543Y-131816597D02*
X136402257Y-131768978D01*
X136402257Y-131768978D02*
X136366543Y-131673740D01*
X136366543Y-131673740D02*
X136372496Y-131626121D01*
X136372496Y-131626121D02*
X136432019Y-131530883D01*
X136432019Y-131530883D02*
X136533210Y-131483264D01*
X136533210Y-131483264D02*
X136676067Y-131483264D01*
X136676067Y-131483264D02*
X136765353Y-131530883D01*
X137122496Y-132102312D02*
X137211781Y-132149931D01*
X137211781Y-132149931D02*
X137402258Y-132149931D01*
X137402258Y-132149931D02*
X137503448Y-132102312D01*
X137503448Y-132102312D02*
X137562972Y-132007073D01*
X137562972Y-132007073D02*
X137568924Y-131959454D01*
X137568924Y-131959454D02*
X137533210Y-131864216D01*
X137533210Y-131864216D02*
X137443924Y-131816597D01*
X137443924Y-131816597D02*
X137301067Y-131816597D01*
X137301067Y-131816597D02*
X137211781Y-131768978D01*
X137211781Y-131768978D02*
X137176067Y-131673740D01*
X137176067Y-131673740D02*
X137182020Y-131626121D01*
X137182020Y-131626121D02*
X137241543Y-131530883D01*
X137241543Y-131530883D02*
X137342734Y-131483264D01*
X137342734Y-131483264D02*
X137485591Y-131483264D01*
X137485591Y-131483264D02*
X137574877Y-131530883D01*
X137985591Y-132054692D02*
X138027258Y-132102312D01*
X138027258Y-132102312D02*
X137973686Y-132149931D01*
X137973686Y-132149931D02*
X137932020Y-132102312D01*
X137932020Y-132102312D02*
X137985591Y-132054692D01*
X137985591Y-132054692D02*
X137973686Y-132149931D01*
X138051067Y-131530883D02*
X138092734Y-131578502D01*
X138092734Y-131578502D02*
X138039163Y-131626121D01*
X138039163Y-131626121D02*
X137997496Y-131578502D01*
X137997496Y-131578502D02*
X138051067Y-131530883D01*
X138051067Y-131530883D02*
X138039163Y-131626121D01*
X139527258Y-131149931D02*
X139622496Y-131149931D01*
X139622496Y-131149931D02*
X139711781Y-131197550D01*
X139711781Y-131197550D02*
X139753448Y-131245169D01*
X139753448Y-131245169D02*
X139789162Y-131340407D01*
X139789162Y-131340407D02*
X139812972Y-131530883D01*
X139812972Y-131530883D02*
X139783210Y-131768978D01*
X139783210Y-131768978D02*
X139711781Y-131959454D01*
X139711781Y-131959454D02*
X139652258Y-132054692D01*
X139652258Y-132054692D02*
X139598686Y-132102312D01*
X139598686Y-132102312D02*
X139497496Y-132149931D01*
X139497496Y-132149931D02*
X139402258Y-132149931D01*
X139402258Y-132149931D02*
X139312972Y-132102312D01*
X139312972Y-132102312D02*
X139271305Y-132054692D01*
X139271305Y-132054692D02*
X139235591Y-131959454D01*
X139235591Y-131959454D02*
X139211781Y-131768978D01*
X139211781Y-131768978D02*
X139241543Y-131530883D01*
X139241543Y-131530883D02*
X139312972Y-131340407D01*
X139312972Y-131340407D02*
X139372496Y-131245169D01*
X139372496Y-131245169D02*
X139426067Y-131197550D01*
X139426067Y-131197550D02*
X139527258Y-131149931D01*
X140176067Y-132054692D02*
X140217734Y-132102312D01*
X140217734Y-132102312D02*
X140164162Y-132149931D01*
X140164162Y-132149931D02*
X140122496Y-132102312D01*
X140122496Y-132102312D02*
X140176067Y-132054692D01*
X140176067Y-132054692D02*
X140164162Y-132149931D01*
X140705829Y-131245169D02*
X140759400Y-131197550D01*
X140759400Y-131197550D02*
X140860590Y-131149931D01*
X140860590Y-131149931D02*
X141098686Y-131149931D01*
X141098686Y-131149931D02*
X141187971Y-131197550D01*
X141187971Y-131197550D02*
X141229638Y-131245169D01*
X141229638Y-131245169D02*
X141265352Y-131340407D01*
X141265352Y-131340407D02*
X141253448Y-131435645D01*
X141253448Y-131435645D02*
X141187971Y-131578502D01*
X141187971Y-131578502D02*
X140545114Y-132149931D01*
X140545114Y-132149931D02*
X141164162Y-132149931D01*
X141592733Y-132149931D02*
X141676067Y-131483264D01*
X141664162Y-131578502D02*
X141717733Y-131530883D01*
X141717733Y-131530883D02*
X141818924Y-131483264D01*
X141818924Y-131483264D02*
X141961781Y-131483264D01*
X141961781Y-131483264D02*
X142051067Y-131530883D01*
X142051067Y-131530883D02*
X142086781Y-131626121D01*
X142086781Y-131626121D02*
X142021305Y-132149931D01*
X142086781Y-131626121D02*
X142146305Y-131530883D01*
X142146305Y-131530883D02*
X142247495Y-131483264D01*
X142247495Y-131483264D02*
X142390352Y-131483264D01*
X142390352Y-131483264D02*
X142479638Y-131530883D01*
X142479638Y-131530883D02*
X142515352Y-131626121D01*
X142515352Y-131626121D02*
X142449876Y-132149931D01*
X142926066Y-132149931D02*
X143009400Y-131483264D01*
X142997495Y-131578502D02*
X143051066Y-131530883D01*
X143051066Y-131530883D02*
X143152257Y-131483264D01*
X143152257Y-131483264D02*
X143295114Y-131483264D01*
X143295114Y-131483264D02*
X143384400Y-131530883D01*
X143384400Y-131530883D02*
X143420114Y-131626121D01*
X143420114Y-131626121D02*
X143354638Y-132149931D01*
X143420114Y-131626121D02*
X143479638Y-131530883D01*
X143479638Y-131530883D02*
X143580828Y-131483264D01*
X143580828Y-131483264D02*
X143723685Y-131483264D01*
X143723685Y-131483264D02*
X143812971Y-131530883D01*
X143812971Y-131530883D02*
X143848685Y-131626121D01*
X143848685Y-131626121D02*
X143783209Y-132149931D01*
X123789160Y-133712256D02*
X123926064Y-133759875D01*
X123926064Y-133759875D02*
X124164160Y-133759875D01*
X124164160Y-133759875D02*
X124265350Y-133712256D01*
X124265350Y-133712256D02*
X124318922Y-133664636D01*
X124318922Y-133664636D02*
X124378445Y-133569398D01*
X124378445Y-133569398D02*
X124390350Y-133474160D01*
X124390350Y-133474160D02*
X124354636Y-133378922D01*
X124354636Y-133378922D02*
X124312969Y-133331303D01*
X124312969Y-133331303D02*
X124223684Y-133283684D01*
X124223684Y-133283684D02*
X124039160Y-133236065D01*
X124039160Y-133236065D02*
X123949874Y-133188446D01*
X123949874Y-133188446D02*
X123908207Y-133140827D01*
X123908207Y-133140827D02*
X123872493Y-133045589D01*
X123872493Y-133045589D02*
X123884398Y-132950351D01*
X123884398Y-132950351D02*
X123943922Y-132855113D01*
X123943922Y-132855113D02*
X123997493Y-132807494D01*
X123997493Y-132807494D02*
X124098684Y-132759875D01*
X124098684Y-132759875D02*
X124336779Y-132759875D01*
X124336779Y-132759875D02*
X124473684Y-132807494D01*
X124723684Y-133093208D02*
X125104636Y-133093208D01*
X124908207Y-132759875D02*
X124801065Y-133617017D01*
X124801065Y-133617017D02*
X124836779Y-133712256D01*
X124836779Y-133712256D02*
X124926065Y-133759875D01*
X124926065Y-133759875D02*
X125021303Y-133759875D01*
X125354636Y-133759875D02*
X125437970Y-133093208D01*
X125479636Y-132759875D02*
X125426065Y-132807494D01*
X125426065Y-132807494D02*
X125467732Y-132855113D01*
X125467732Y-132855113D02*
X125521303Y-132807494D01*
X125521303Y-132807494D02*
X125479636Y-132759875D01*
X125479636Y-132759875D02*
X125467732Y-132855113D01*
X125771303Y-133093208D02*
X126152255Y-133093208D01*
X125830826Y-133759875D02*
X125937969Y-132902732D01*
X125937969Y-132902732D02*
X125997493Y-132807494D01*
X125997493Y-132807494D02*
X126098684Y-132759875D01*
X126098684Y-132759875D02*
X126193922Y-132759875D01*
X126342732Y-133093208D02*
X126723684Y-133093208D01*
X126402255Y-133759875D02*
X126509398Y-132902732D01*
X126509398Y-132902732D02*
X126568922Y-132807494D01*
X126568922Y-132807494D02*
X126670113Y-132759875D01*
X126670113Y-132759875D02*
X126765351Y-132759875D01*
X127360589Y-133712256D02*
X127259399Y-133759875D01*
X127259399Y-133759875D02*
X127068922Y-133759875D01*
X127068922Y-133759875D02*
X126979637Y-133712256D01*
X126979637Y-133712256D02*
X126943922Y-133617017D01*
X126943922Y-133617017D02*
X126991542Y-133236065D01*
X126991542Y-133236065D02*
X127051065Y-133140827D01*
X127051065Y-133140827D02*
X127152256Y-133093208D01*
X127152256Y-133093208D02*
X127342732Y-133093208D01*
X127342732Y-133093208D02*
X127432018Y-133140827D01*
X127432018Y-133140827D02*
X127467732Y-133236065D01*
X127467732Y-133236065D02*
X127455827Y-133331303D01*
X127455827Y-133331303D02*
X126967732Y-133426541D01*
X127914161Y-133093208D02*
X127830827Y-133759875D01*
X127902256Y-133188446D02*
X127955827Y-133140827D01*
X127955827Y-133140827D02*
X128057018Y-133093208D01*
X128057018Y-133093208D02*
X128199875Y-133093208D01*
X128199875Y-133093208D02*
X128289161Y-133140827D01*
X128289161Y-133140827D02*
X128324875Y-133236065D01*
X128324875Y-133236065D02*
X128259399Y-133759875D01*
X129122494Y-133712256D02*
X129021304Y-133759875D01*
X129021304Y-133759875D02*
X128830827Y-133759875D01*
X128830827Y-133759875D02*
X128741542Y-133712256D01*
X128741542Y-133712256D02*
X128705827Y-133617017D01*
X128705827Y-133617017D02*
X128753447Y-133236065D01*
X128753447Y-133236065D02*
X128812970Y-133140827D01*
X128812970Y-133140827D02*
X128914161Y-133093208D01*
X128914161Y-133093208D02*
X129104637Y-133093208D01*
X129104637Y-133093208D02*
X129193923Y-133140827D01*
X129193923Y-133140827D02*
X129229637Y-133236065D01*
X129229637Y-133236065D02*
X129217732Y-133331303D01*
X129217732Y-133331303D02*
X128729637Y-133426541D01*
X129592732Y-133759875D02*
X129676066Y-133093208D01*
X129652256Y-133283684D02*
X129711780Y-133188446D01*
X129711780Y-133188446D02*
X129765351Y-133140827D01*
X129765351Y-133140827D02*
X129866542Y-133093208D01*
X129866542Y-133093208D02*
X129961780Y-133093208D01*
X131449876Y-133759875D02*
X130973685Y-133759875D01*
X130973685Y-133759875D02*
X131098685Y-132759875D01*
X131926067Y-133759875D02*
X131836781Y-133712256D01*
X131836781Y-133712256D02*
X131795114Y-133664636D01*
X131795114Y-133664636D02*
X131759400Y-133569398D01*
X131759400Y-133569398D02*
X131795114Y-133283684D01*
X131795114Y-133283684D02*
X131854638Y-133188446D01*
X131854638Y-133188446D02*
X131908209Y-133140827D01*
X131908209Y-133140827D02*
X132009400Y-133093208D01*
X132009400Y-133093208D02*
X132152257Y-133093208D01*
X132152257Y-133093208D02*
X132241543Y-133140827D01*
X132241543Y-133140827D02*
X132283209Y-133188446D01*
X132283209Y-133188446D02*
X132318924Y-133283684D01*
X132318924Y-133283684D02*
X132283209Y-133569398D01*
X132283209Y-133569398D02*
X132223686Y-133664636D01*
X132223686Y-133664636D02*
X132170114Y-133712256D01*
X132170114Y-133712256D02*
X132068924Y-133759875D01*
X132068924Y-133759875D02*
X131926067Y-133759875D01*
X133122495Y-133712256D02*
X133021305Y-133759875D01*
X133021305Y-133759875D02*
X132830829Y-133759875D01*
X132830829Y-133759875D02*
X132741543Y-133712256D01*
X132741543Y-133712256D02*
X132699876Y-133664636D01*
X132699876Y-133664636D02*
X132664162Y-133569398D01*
X132664162Y-133569398D02*
X132699876Y-133283684D01*
X132699876Y-133283684D02*
X132759400Y-133188446D01*
X132759400Y-133188446D02*
X132812971Y-133140827D01*
X132812971Y-133140827D02*
X132914162Y-133093208D01*
X132914162Y-133093208D02*
X133104638Y-133093208D01*
X133104638Y-133093208D02*
X133193924Y-133140827D01*
X133973686Y-133759875D02*
X134039162Y-133236065D01*
X134039162Y-133236065D02*
X134003448Y-133140827D01*
X134003448Y-133140827D02*
X133914162Y-133093208D01*
X133914162Y-133093208D02*
X133723686Y-133093208D01*
X133723686Y-133093208D02*
X133622495Y-133140827D01*
X133979638Y-133712256D02*
X133878448Y-133759875D01*
X133878448Y-133759875D02*
X133640352Y-133759875D01*
X133640352Y-133759875D02*
X133551067Y-133712256D01*
X133551067Y-133712256D02*
X133515352Y-133617017D01*
X133515352Y-133617017D02*
X133527257Y-133521779D01*
X133527257Y-133521779D02*
X133586781Y-133426541D01*
X133586781Y-133426541D02*
X133687972Y-133378922D01*
X133687972Y-133378922D02*
X133926067Y-133378922D01*
X133926067Y-133378922D02*
X134027257Y-133331303D01*
X134390353Y-133093208D02*
X134771305Y-133093208D01*
X134574876Y-132759875D02*
X134467734Y-133617017D01*
X134467734Y-133617017D02*
X134503448Y-133712256D01*
X134503448Y-133712256D02*
X134592734Y-133759875D01*
X134592734Y-133759875D02*
X134687972Y-133759875D01*
X135021305Y-133759875D02*
X135104639Y-133093208D01*
X135146305Y-132759875D02*
X135092734Y-132807494D01*
X135092734Y-132807494D02*
X135134401Y-132855113D01*
X135134401Y-132855113D02*
X135187972Y-132807494D01*
X135187972Y-132807494D02*
X135146305Y-132759875D01*
X135146305Y-132759875D02*
X135134401Y-132855113D01*
X135640353Y-133759875D02*
X135551067Y-133712256D01*
X135551067Y-133712256D02*
X135509400Y-133664636D01*
X135509400Y-133664636D02*
X135473686Y-133569398D01*
X135473686Y-133569398D02*
X135509400Y-133283684D01*
X135509400Y-133283684D02*
X135568924Y-133188446D01*
X135568924Y-133188446D02*
X135622495Y-133140827D01*
X135622495Y-133140827D02*
X135723686Y-133093208D01*
X135723686Y-133093208D02*
X135866543Y-133093208D01*
X135866543Y-133093208D02*
X135955829Y-133140827D01*
X135955829Y-133140827D02*
X135997495Y-133188446D01*
X135997495Y-133188446D02*
X136033210Y-133283684D01*
X136033210Y-133283684D02*
X135997495Y-133569398D01*
X135997495Y-133569398D02*
X135937972Y-133664636D01*
X135937972Y-133664636D02*
X135884400Y-133712256D01*
X135884400Y-133712256D02*
X135783210Y-133759875D01*
X135783210Y-133759875D02*
X135640353Y-133759875D01*
X136485591Y-133093208D02*
X136402257Y-133759875D01*
X136473686Y-133188446D02*
X136527257Y-133140827D01*
X136527257Y-133140827D02*
X136628448Y-133093208D01*
X136628448Y-133093208D02*
X136771305Y-133093208D01*
X136771305Y-133093208D02*
X136860591Y-133140827D01*
X136860591Y-133140827D02*
X136896305Y-133236065D01*
X136896305Y-133236065D02*
X136830829Y-133759875D01*
X137318924Y-133664636D02*
X137360591Y-133712256D01*
X137360591Y-133712256D02*
X137307019Y-133759875D01*
X137307019Y-133759875D02*
X137265353Y-133712256D01*
X137265353Y-133712256D02*
X137318924Y-133664636D01*
X137318924Y-133664636D02*
X137307019Y-133759875D01*
X137384400Y-133140827D02*
X137426067Y-133188446D01*
X137426067Y-133188446D02*
X137372496Y-133236065D01*
X137372496Y-133236065D02*
X137330829Y-133188446D01*
X137330829Y-133188446D02*
X137384400Y-133140827D01*
X137384400Y-133140827D02*
X137372496Y-133236065D01*
X139116543Y-133759875D02*
X138842733Y-133283684D01*
X138545114Y-133759875D02*
X138670114Y-132759875D01*
X138670114Y-132759875D02*
X139051067Y-132759875D01*
X139051067Y-132759875D02*
X139140352Y-132807494D01*
X139140352Y-132807494D02*
X139182019Y-132855113D01*
X139182019Y-132855113D02*
X139217733Y-132950351D01*
X139217733Y-132950351D02*
X139199876Y-133093208D01*
X139199876Y-133093208D02*
X139140352Y-133188446D01*
X139140352Y-133188446D02*
X139086781Y-133236065D01*
X139086781Y-133236065D02*
X138985591Y-133283684D01*
X138985591Y-133283684D02*
X138604638Y-133283684D01*
X139932019Y-133712256D02*
X139830829Y-133759875D01*
X139830829Y-133759875D02*
X139640352Y-133759875D01*
X139640352Y-133759875D02*
X139551067Y-133712256D01*
X139551067Y-133712256D02*
X139515352Y-133617017D01*
X139515352Y-133617017D02*
X139562972Y-133236065D01*
X139562972Y-133236065D02*
X139622495Y-133140827D01*
X139622495Y-133140827D02*
X139723686Y-133093208D01*
X139723686Y-133093208D02*
X139914162Y-133093208D01*
X139914162Y-133093208D02*
X140003448Y-133140827D01*
X140003448Y-133140827D02*
X140039162Y-133236065D01*
X140039162Y-133236065D02*
X140027257Y-133331303D01*
X140027257Y-133331303D02*
X139539162Y-133426541D01*
X140342734Y-133093208D02*
X140723686Y-133093208D01*
X140402257Y-133759875D02*
X140509400Y-132902732D01*
X140509400Y-132902732D02*
X140568924Y-132807494D01*
X140568924Y-132807494D02*
X140670115Y-132759875D01*
X140670115Y-132759875D02*
X140765353Y-132759875D01*
X141360591Y-133712256D02*
X141259401Y-133759875D01*
X141259401Y-133759875D02*
X141068924Y-133759875D01*
X141068924Y-133759875D02*
X140979639Y-133712256D01*
X140979639Y-133712256D02*
X140943924Y-133617017D01*
X140943924Y-133617017D02*
X140991544Y-133236065D01*
X140991544Y-133236065D02*
X141051067Y-133140827D01*
X141051067Y-133140827D02*
X141152258Y-133093208D01*
X141152258Y-133093208D02*
X141342734Y-133093208D01*
X141342734Y-133093208D02*
X141432020Y-133140827D01*
X141432020Y-133140827D02*
X141467734Y-133236065D01*
X141467734Y-133236065D02*
X141455829Y-133331303D01*
X141455829Y-133331303D02*
X140967734Y-133426541D01*
X141830829Y-133759875D02*
X141914163Y-133093208D01*
X141890353Y-133283684D02*
X141949877Y-133188446D01*
X141949877Y-133188446D02*
X142003448Y-133140827D01*
X142003448Y-133140827D02*
X142104639Y-133093208D01*
X142104639Y-133093208D02*
X142199877Y-133093208D01*
X143152259Y-133093208D02*
X143533211Y-133093208D01*
X143336782Y-132759875D02*
X143229640Y-133617017D01*
X143229640Y-133617017D02*
X143265354Y-133712256D01*
X143265354Y-133712256D02*
X143354640Y-133759875D01*
X143354640Y-133759875D02*
X143449878Y-133759875D01*
X143926069Y-133759875D02*
X143836783Y-133712256D01*
X143836783Y-133712256D02*
X143795116Y-133664636D01*
X143795116Y-133664636D02*
X143759402Y-133569398D01*
X143759402Y-133569398D02*
X143795116Y-133283684D01*
X143795116Y-133283684D02*
X143854640Y-133188446D01*
X143854640Y-133188446D02*
X143908211Y-133140827D01*
X143908211Y-133140827D02*
X144009402Y-133093208D01*
X144009402Y-133093208D02*
X144152259Y-133093208D01*
X144152259Y-133093208D02*
X144241545Y-133140827D01*
X144241545Y-133140827D02*
X144283211Y-133188446D01*
X144283211Y-133188446D02*
X144318926Y-133283684D01*
X144318926Y-133283684D02*
X144283211Y-133569398D01*
X144283211Y-133569398D02*
X144223688Y-133664636D01*
X144223688Y-133664636D02*
X144170116Y-133712256D01*
X144170116Y-133712256D02*
X144068926Y-133759875D01*
X144068926Y-133759875D02*
X143926069Y-133759875D01*
X145574878Y-132759875D02*
X145473688Y-133569398D01*
X145473688Y-133569398D02*
X145509402Y-133664636D01*
X145509402Y-133664636D02*
X145551069Y-133712256D01*
X145551069Y-133712256D02*
X145640355Y-133759875D01*
X145640355Y-133759875D02*
X145830831Y-133759875D01*
X145830831Y-133759875D02*
X145932021Y-133712256D01*
X145932021Y-133712256D02*
X145985593Y-133664636D01*
X145985593Y-133664636D02*
X146045116Y-133569398D01*
X146045116Y-133569398D02*
X146146307Y-132759875D01*
X146455831Y-133712256D02*
X146545116Y-133759875D01*
X146545116Y-133759875D02*
X146735593Y-133759875D01*
X146735593Y-133759875D02*
X146836783Y-133712256D01*
X146836783Y-133712256D02*
X146896307Y-133617017D01*
X146896307Y-133617017D02*
X146902259Y-133569398D01*
X146902259Y-133569398D02*
X146866545Y-133474160D01*
X146866545Y-133474160D02*
X146777259Y-133426541D01*
X146777259Y-133426541D02*
X146634402Y-133426541D01*
X146634402Y-133426541D02*
X146545116Y-133378922D01*
X146545116Y-133378922D02*
X146509402Y-133283684D01*
X146509402Y-133283684D02*
X146515355Y-133236065D01*
X146515355Y-133236065D02*
X146574878Y-133140827D01*
X146574878Y-133140827D02*
X146676069Y-133093208D01*
X146676069Y-133093208D02*
X146818926Y-133093208D01*
X146818926Y-133093208D02*
X146908212Y-133140827D01*
X147693926Y-133712256D02*
X147592736Y-133759875D01*
X147592736Y-133759875D02*
X147402259Y-133759875D01*
X147402259Y-133759875D02*
X147312974Y-133712256D01*
X147312974Y-133712256D02*
X147277259Y-133617017D01*
X147277259Y-133617017D02*
X147324879Y-133236065D01*
X147324879Y-133236065D02*
X147384402Y-133140827D01*
X147384402Y-133140827D02*
X147485593Y-133093208D01*
X147485593Y-133093208D02*
X147676069Y-133093208D01*
X147676069Y-133093208D02*
X147765355Y-133140827D01*
X147765355Y-133140827D02*
X147801069Y-133236065D01*
X147801069Y-133236065D02*
X147789164Y-133331303D01*
X147789164Y-133331303D02*
X147301069Y-133426541D01*
X148164164Y-133759875D02*
X148247498Y-133093208D01*
X148223688Y-133283684D02*
X148283212Y-133188446D01*
X148283212Y-133188446D02*
X148336783Y-133140827D01*
X148336783Y-133140827D02*
X148437974Y-133093208D01*
X148437974Y-133093208D02*
X148533212Y-133093208D01*
X148795117Y-133664636D02*
X148836784Y-133712256D01*
X148836784Y-133712256D02*
X148783212Y-133759875D01*
X148783212Y-133759875D02*
X148741546Y-133712256D01*
X148741546Y-133712256D02*
X148795117Y-133664636D01*
X148795117Y-133664636D02*
X148783212Y-133759875D01*
X149259402Y-133759875D02*
X149384402Y-132759875D01*
X149384402Y-132759875D02*
X149622498Y-132759875D01*
X149622498Y-132759875D02*
X149759402Y-132807494D01*
X149759402Y-132807494D02*
X149842736Y-132902732D01*
X149842736Y-132902732D02*
X149878450Y-132997970D01*
X149878450Y-132997970D02*
X149902260Y-133188446D01*
X149902260Y-133188446D02*
X149884402Y-133331303D01*
X149884402Y-133331303D02*
X149812974Y-133521779D01*
X149812974Y-133521779D02*
X149753450Y-133617017D01*
X149753450Y-133617017D02*
X149646307Y-133712256D01*
X149646307Y-133712256D02*
X149497498Y-133759875D01*
X149497498Y-133759875D02*
X149259402Y-133759875D01*
X150259402Y-133759875D02*
X150342736Y-133093208D01*
X150318926Y-133283684D02*
X150378450Y-133188446D01*
X150378450Y-133188446D02*
X150432021Y-133140827D01*
X150432021Y-133140827D02*
X150533212Y-133093208D01*
X150533212Y-133093208D02*
X150628450Y-133093208D01*
X151307022Y-133759875D02*
X151372498Y-133236065D01*
X151372498Y-133236065D02*
X151336784Y-133140827D01*
X151336784Y-133140827D02*
X151247498Y-133093208D01*
X151247498Y-133093208D02*
X151057022Y-133093208D01*
X151057022Y-133093208D02*
X150955831Y-133140827D01*
X151312974Y-133712256D02*
X151211784Y-133759875D01*
X151211784Y-133759875D02*
X150973688Y-133759875D01*
X150973688Y-133759875D02*
X150884403Y-133712256D01*
X150884403Y-133712256D02*
X150848688Y-133617017D01*
X150848688Y-133617017D02*
X150860593Y-133521779D01*
X150860593Y-133521779D02*
X150920117Y-133426541D01*
X150920117Y-133426541D02*
X151021308Y-133378922D01*
X151021308Y-133378922D02*
X151259403Y-133378922D01*
X151259403Y-133378922D02*
X151360593Y-133331303D01*
X151771308Y-133093208D02*
X151878450Y-133759875D01*
X151878450Y-133759875D02*
X152128450Y-133283684D01*
X152128450Y-133283684D02*
X152259403Y-133759875D01*
X152259403Y-133759875D02*
X152533212Y-133093208D01*
X152830831Y-133759875D02*
X152914165Y-133093208D01*
X152955831Y-132759875D02*
X152902260Y-132807494D01*
X152902260Y-132807494D02*
X152943927Y-132855113D01*
X152943927Y-132855113D02*
X152997498Y-132807494D01*
X152997498Y-132807494D02*
X152955831Y-132759875D01*
X152955831Y-132759875D02*
X152943927Y-132855113D01*
X153390355Y-133093208D02*
X153307021Y-133759875D01*
X153378450Y-133188446D02*
X153432021Y-133140827D01*
X153432021Y-133140827D02*
X153533212Y-133093208D01*
X153533212Y-133093208D02*
X153676069Y-133093208D01*
X153676069Y-133093208D02*
X153765355Y-133140827D01*
X153765355Y-133140827D02*
X153801069Y-133236065D01*
X153801069Y-133236065D02*
X153735593Y-133759875D01*
X154723688Y-133093208D02*
X154622498Y-133902732D01*
X154622498Y-133902732D02*
X154562974Y-133997970D01*
X154562974Y-133997970D02*
X154509402Y-134045589D01*
X154509402Y-134045589D02*
X154408212Y-134093208D01*
X154408212Y-134093208D02*
X154265355Y-134093208D01*
X154265355Y-134093208D02*
X154176069Y-134045589D01*
X154646307Y-133712256D02*
X154545117Y-133759875D01*
X154545117Y-133759875D02*
X154354641Y-133759875D01*
X154354641Y-133759875D02*
X154265355Y-133712256D01*
X154265355Y-133712256D02*
X154223688Y-133664636D01*
X154223688Y-133664636D02*
X154187974Y-133569398D01*
X154187974Y-133569398D02*
X154223688Y-133283684D01*
X154223688Y-133283684D02*
X154283212Y-133188446D01*
X154283212Y-133188446D02*
X154336783Y-133140827D01*
X154336783Y-133140827D02*
X154437974Y-133093208D01*
X154437974Y-133093208D02*
X154628450Y-133093208D01*
X154628450Y-133093208D02*
X154717736Y-133140827D01*
X155074879Y-133712256D02*
X155164164Y-133759875D01*
X155164164Y-133759875D02*
X155354641Y-133759875D01*
X155354641Y-133759875D02*
X155455831Y-133712256D01*
X155455831Y-133712256D02*
X155515355Y-133617017D01*
X155515355Y-133617017D02*
X155521307Y-133569398D01*
X155521307Y-133569398D02*
X155485593Y-133474160D01*
X155485593Y-133474160D02*
X155396307Y-133426541D01*
X155396307Y-133426541D02*
X155253450Y-133426541D01*
X155253450Y-133426541D02*
X155164164Y-133378922D01*
X155164164Y-133378922D02*
X155128450Y-133283684D01*
X155128450Y-133283684D02*
X155134403Y-133236065D01*
X155134403Y-133236065D02*
X155193926Y-133140827D01*
X155193926Y-133140827D02*
X155295117Y-133093208D01*
X155295117Y-133093208D02*
X155437974Y-133093208D01*
X155437974Y-133093208D02*
X155527260Y-133140827D01*
X156830832Y-133759875D02*
X156741546Y-133712256D01*
X156741546Y-133712256D02*
X156705832Y-133617017D01*
X156705832Y-133617017D02*
X156812974Y-132759875D01*
X157640356Y-133759875D02*
X157705832Y-133236065D01*
X157705832Y-133236065D02*
X157670118Y-133140827D01*
X157670118Y-133140827D02*
X157580832Y-133093208D01*
X157580832Y-133093208D02*
X157390356Y-133093208D01*
X157390356Y-133093208D02*
X157289165Y-133140827D01*
X157646308Y-133712256D02*
X157545118Y-133759875D01*
X157545118Y-133759875D02*
X157307022Y-133759875D01*
X157307022Y-133759875D02*
X157217737Y-133712256D01*
X157217737Y-133712256D02*
X157182022Y-133617017D01*
X157182022Y-133617017D02*
X157193927Y-133521779D01*
X157193927Y-133521779D02*
X157253451Y-133426541D01*
X157253451Y-133426541D02*
X157354642Y-133378922D01*
X157354642Y-133378922D02*
X157592737Y-133378922D01*
X157592737Y-133378922D02*
X157693927Y-133331303D01*
X158104642Y-133093208D02*
X158259404Y-133759875D01*
X158580832Y-133093208D02*
X158259404Y-133759875D01*
X158259404Y-133759875D02*
X158134404Y-133997970D01*
X158134404Y-133997970D02*
X158080832Y-134045589D01*
X158080832Y-134045589D02*
X157979642Y-134093208D01*
X159265356Y-133712256D02*
X159164166Y-133759875D01*
X159164166Y-133759875D02*
X158973689Y-133759875D01*
X158973689Y-133759875D02*
X158884404Y-133712256D01*
X158884404Y-133712256D02*
X158848689Y-133617017D01*
X158848689Y-133617017D02*
X158896309Y-133236065D01*
X158896309Y-133236065D02*
X158955832Y-133140827D01*
X158955832Y-133140827D02*
X159057023Y-133093208D01*
X159057023Y-133093208D02*
X159247499Y-133093208D01*
X159247499Y-133093208D02*
X159336785Y-133140827D01*
X159336785Y-133140827D02*
X159372499Y-133236065D01*
X159372499Y-133236065D02*
X159360594Y-133331303D01*
X159360594Y-133331303D02*
X158872499Y-133426541D01*
X159735594Y-133759875D02*
X159818928Y-133093208D01*
X159795118Y-133283684D02*
X159854642Y-133188446D01*
X159854642Y-133188446D02*
X159908213Y-133140827D01*
X159908213Y-133140827D02*
X160009404Y-133093208D01*
X160009404Y-133093208D02*
X160104642Y-133093208D01*
X123812969Y-134369819D02*
X124384398Y-134369819D01*
X123973684Y-135369819D02*
X124098684Y-134369819D01*
X124735589Y-135369819D02*
X124646303Y-135322200D01*
X124646303Y-135322200D02*
X124604636Y-135274580D01*
X124604636Y-135274580D02*
X124568922Y-135179342D01*
X124568922Y-135179342D02*
X124604636Y-134893628D01*
X124604636Y-134893628D02*
X124664160Y-134798390D01*
X124664160Y-134798390D02*
X124717731Y-134750771D01*
X124717731Y-134750771D02*
X124818922Y-134703152D01*
X124818922Y-134703152D02*
X124961779Y-134703152D01*
X124961779Y-134703152D02*
X125051065Y-134750771D01*
X125051065Y-134750771D02*
X125092731Y-134798390D01*
X125092731Y-134798390D02*
X125128446Y-134893628D01*
X125128446Y-134893628D02*
X125092731Y-135179342D01*
X125092731Y-135179342D02*
X125033208Y-135274580D01*
X125033208Y-135274580D02*
X124979636Y-135322200D01*
X124979636Y-135322200D02*
X124878446Y-135369819D01*
X124878446Y-135369819D02*
X124735589Y-135369819D01*
X125437970Y-134703152D02*
X125818922Y-134703152D01*
X125622493Y-134369819D02*
X125515351Y-135226961D01*
X125515351Y-135226961D02*
X125551065Y-135322200D01*
X125551065Y-135322200D02*
X125640351Y-135369819D01*
X125640351Y-135369819D02*
X125735589Y-135369819D01*
X126497494Y-135369819D02*
X126562970Y-134846009D01*
X126562970Y-134846009D02*
X126527256Y-134750771D01*
X126527256Y-134750771D02*
X126437970Y-134703152D01*
X126437970Y-134703152D02*
X126247494Y-134703152D01*
X126247494Y-134703152D02*
X126146303Y-134750771D01*
X126503446Y-135322200D02*
X126402256Y-135369819D01*
X126402256Y-135369819D02*
X126164160Y-135369819D01*
X126164160Y-135369819D02*
X126074875Y-135322200D01*
X126074875Y-135322200D02*
X126039160Y-135226961D01*
X126039160Y-135226961D02*
X126051065Y-135131723D01*
X126051065Y-135131723D02*
X126110589Y-135036485D01*
X126110589Y-135036485D02*
X126211780Y-134988866D01*
X126211780Y-134988866D02*
X126449875Y-134988866D01*
X126449875Y-134988866D02*
X126551065Y-134941247D01*
X127116542Y-135369819D02*
X127027256Y-135322200D01*
X127027256Y-135322200D02*
X126991542Y-135226961D01*
X126991542Y-135226961D02*
X127098684Y-134369819D01*
X128199876Y-134703152D02*
X128580828Y-134703152D01*
X128259399Y-135369819D02*
X128366542Y-134512676D01*
X128366542Y-134512676D02*
X128426066Y-134417438D01*
X128426066Y-134417438D02*
X128527257Y-134369819D01*
X128527257Y-134369819D02*
X128622495Y-134369819D01*
X128830828Y-135369819D02*
X128914162Y-134703152D01*
X128955828Y-134369819D02*
X128902257Y-134417438D01*
X128902257Y-134417438D02*
X128943924Y-134465057D01*
X128943924Y-134465057D02*
X128997495Y-134417438D01*
X128997495Y-134417438D02*
X128955828Y-134369819D01*
X128955828Y-134369819D02*
X128943924Y-134465057D01*
X129390352Y-134703152D02*
X129307018Y-135369819D01*
X129378447Y-134798390D02*
X129432018Y-134750771D01*
X129432018Y-134750771D02*
X129533209Y-134703152D01*
X129533209Y-134703152D02*
X129676066Y-134703152D01*
X129676066Y-134703152D02*
X129765352Y-134750771D01*
X129765352Y-134750771D02*
X129801066Y-134846009D01*
X129801066Y-134846009D02*
X129735590Y-135369819D01*
X130723685Y-134703152D02*
X130622495Y-135512676D01*
X130622495Y-135512676D02*
X130562971Y-135607914D01*
X130562971Y-135607914D02*
X130509399Y-135655533D01*
X130509399Y-135655533D02*
X130408209Y-135703152D01*
X130408209Y-135703152D02*
X130265352Y-135703152D01*
X130265352Y-135703152D02*
X130176066Y-135655533D01*
X130646304Y-135322200D02*
X130545114Y-135369819D01*
X130545114Y-135369819D02*
X130354638Y-135369819D01*
X130354638Y-135369819D02*
X130265352Y-135322200D01*
X130265352Y-135322200D02*
X130223685Y-135274580D01*
X130223685Y-135274580D02*
X130187971Y-135179342D01*
X130187971Y-135179342D02*
X130223685Y-134893628D01*
X130223685Y-134893628D02*
X130283209Y-134798390D01*
X130283209Y-134798390D02*
X130336780Y-134750771D01*
X130336780Y-134750771D02*
X130437971Y-134703152D01*
X130437971Y-134703152D02*
X130628447Y-134703152D01*
X130628447Y-134703152D02*
X130717733Y-134750771D01*
X131503447Y-135322200D02*
X131402257Y-135369819D01*
X131402257Y-135369819D02*
X131211780Y-135369819D01*
X131211780Y-135369819D02*
X131122495Y-135322200D01*
X131122495Y-135322200D02*
X131086780Y-135226961D01*
X131086780Y-135226961D02*
X131134400Y-134846009D01*
X131134400Y-134846009D02*
X131193923Y-134750771D01*
X131193923Y-134750771D02*
X131295114Y-134703152D01*
X131295114Y-134703152D02*
X131485590Y-134703152D01*
X131485590Y-134703152D02*
X131574876Y-134750771D01*
X131574876Y-134750771D02*
X131610590Y-134846009D01*
X131610590Y-134846009D02*
X131598685Y-134941247D01*
X131598685Y-134941247D02*
X131110590Y-135036485D01*
X131973685Y-135369819D02*
X132057019Y-134703152D01*
X132033209Y-134893628D02*
X132092733Y-134798390D01*
X132092733Y-134798390D02*
X132146304Y-134750771D01*
X132146304Y-134750771D02*
X132247495Y-134703152D01*
X132247495Y-134703152D02*
X132342733Y-134703152D01*
X133295115Y-134703152D02*
X133676067Y-134703152D01*
X133479638Y-134369819D02*
X133372496Y-135226961D01*
X133372496Y-135226961D02*
X133408210Y-135322200D01*
X133408210Y-135322200D02*
X133497496Y-135369819D01*
X133497496Y-135369819D02*
X133592734Y-135369819D01*
X133926067Y-135369819D02*
X134051067Y-134369819D01*
X134354639Y-135369819D02*
X134420115Y-134846009D01*
X134420115Y-134846009D02*
X134384401Y-134750771D01*
X134384401Y-134750771D02*
X134295115Y-134703152D01*
X134295115Y-134703152D02*
X134152258Y-134703152D01*
X134152258Y-134703152D02*
X134051067Y-134750771D01*
X134051067Y-134750771D02*
X133997496Y-134798390D01*
X134830829Y-135369819D02*
X134914163Y-134703152D01*
X134955829Y-134369819D02*
X134902258Y-134417438D01*
X134902258Y-134417438D02*
X134943925Y-134465057D01*
X134943925Y-134465057D02*
X134997496Y-134417438D01*
X134997496Y-134417438D02*
X134955829Y-134369819D01*
X134955829Y-134369819D02*
X134943925Y-134465057D01*
X135741543Y-135322200D02*
X135640353Y-135369819D01*
X135640353Y-135369819D02*
X135449877Y-135369819D01*
X135449877Y-135369819D02*
X135360591Y-135322200D01*
X135360591Y-135322200D02*
X135318924Y-135274580D01*
X135318924Y-135274580D02*
X135283210Y-135179342D01*
X135283210Y-135179342D02*
X135318924Y-134893628D01*
X135318924Y-134893628D02*
X135378448Y-134798390D01*
X135378448Y-134798390D02*
X135432019Y-134750771D01*
X135432019Y-134750771D02*
X135533210Y-134703152D01*
X135533210Y-134703152D02*
X135723686Y-134703152D01*
X135723686Y-134703152D02*
X135812972Y-134750771D01*
X136164162Y-135369819D02*
X136289162Y-134369819D01*
X136307020Y-134988866D02*
X136545115Y-135369819D01*
X136628448Y-134703152D02*
X136199877Y-135084104D01*
X137057020Y-134703152D02*
X136973686Y-135369819D01*
X137045115Y-134798390D02*
X137098686Y-134750771D01*
X137098686Y-134750771D02*
X137199877Y-134703152D01*
X137199877Y-134703152D02*
X137342734Y-134703152D01*
X137342734Y-134703152D02*
X137432020Y-134750771D01*
X137432020Y-134750771D02*
X137467734Y-134846009D01*
X137467734Y-134846009D02*
X137402258Y-135369819D01*
X138265353Y-135322200D02*
X138164163Y-135369819D01*
X138164163Y-135369819D02*
X137973686Y-135369819D01*
X137973686Y-135369819D02*
X137884401Y-135322200D01*
X137884401Y-135322200D02*
X137848686Y-135226961D01*
X137848686Y-135226961D02*
X137896306Y-134846009D01*
X137896306Y-134846009D02*
X137955829Y-134750771D01*
X137955829Y-134750771D02*
X138057020Y-134703152D01*
X138057020Y-134703152D02*
X138247496Y-134703152D01*
X138247496Y-134703152D02*
X138336782Y-134750771D01*
X138336782Y-134750771D02*
X138372496Y-134846009D01*
X138372496Y-134846009D02*
X138360591Y-134941247D01*
X138360591Y-134941247D02*
X137872496Y-135036485D01*
X138693925Y-135322200D02*
X138783210Y-135369819D01*
X138783210Y-135369819D02*
X138973687Y-135369819D01*
X138973687Y-135369819D02*
X139074877Y-135322200D01*
X139074877Y-135322200D02*
X139134401Y-135226961D01*
X139134401Y-135226961D02*
X139140353Y-135179342D01*
X139140353Y-135179342D02*
X139104639Y-135084104D01*
X139104639Y-135084104D02*
X139015353Y-135036485D01*
X139015353Y-135036485D02*
X138872496Y-135036485D01*
X138872496Y-135036485D02*
X138783210Y-134988866D01*
X138783210Y-134988866D02*
X138747496Y-134893628D01*
X138747496Y-134893628D02*
X138753449Y-134846009D01*
X138753449Y-134846009D02*
X138812972Y-134750771D01*
X138812972Y-134750771D02*
X138914163Y-134703152D01*
X138914163Y-134703152D02*
X139057020Y-134703152D01*
X139057020Y-134703152D02*
X139146306Y-134750771D01*
X139503449Y-135322200D02*
X139592734Y-135369819D01*
X139592734Y-135369819D02*
X139783211Y-135369819D01*
X139783211Y-135369819D02*
X139884401Y-135322200D01*
X139884401Y-135322200D02*
X139943925Y-135226961D01*
X139943925Y-135226961D02*
X139949877Y-135179342D01*
X139949877Y-135179342D02*
X139914163Y-135084104D01*
X139914163Y-135084104D02*
X139824877Y-135036485D01*
X139824877Y-135036485D02*
X139682020Y-135036485D01*
X139682020Y-135036485D02*
X139592734Y-134988866D01*
X139592734Y-134988866D02*
X139557020Y-134893628D01*
X139557020Y-134893628D02*
X139562973Y-134846009D01*
X139562973Y-134846009D02*
X139622496Y-134750771D01*
X139622496Y-134750771D02*
X139723687Y-134703152D01*
X139723687Y-134703152D02*
X139866544Y-134703152D01*
X139866544Y-134703152D02*
X139955830Y-134750771D01*
X140366544Y-135274580D02*
X140408211Y-135322200D01*
X140408211Y-135322200D02*
X140354639Y-135369819D01*
X140354639Y-135369819D02*
X140312973Y-135322200D01*
X140312973Y-135322200D02*
X140366544Y-135274580D01*
X140366544Y-135274580D02*
X140354639Y-135369819D01*
X140432020Y-134750771D02*
X140473687Y-134798390D01*
X140473687Y-134798390D02*
X140420116Y-134846009D01*
X140420116Y-134846009D02*
X140378449Y-134798390D01*
X140378449Y-134798390D02*
X140432020Y-134750771D01*
X140432020Y-134750771D02*
X140420116Y-134846009D01*
X141908211Y-134369819D02*
X142003449Y-134369819D01*
X142003449Y-134369819D02*
X142092734Y-134417438D01*
X142092734Y-134417438D02*
X142134401Y-134465057D01*
X142134401Y-134465057D02*
X142170115Y-134560295D01*
X142170115Y-134560295D02*
X142193925Y-134750771D01*
X142193925Y-134750771D02*
X142164163Y-134988866D01*
X142164163Y-134988866D02*
X142092734Y-135179342D01*
X142092734Y-135179342D02*
X142033211Y-135274580D01*
X142033211Y-135274580D02*
X141979639Y-135322200D01*
X141979639Y-135322200D02*
X141878449Y-135369819D01*
X141878449Y-135369819D02*
X141783211Y-135369819D01*
X141783211Y-135369819D02*
X141693925Y-135322200D01*
X141693925Y-135322200D02*
X141652258Y-135274580D01*
X141652258Y-135274580D02*
X141616544Y-135179342D01*
X141616544Y-135179342D02*
X141592734Y-134988866D01*
X141592734Y-134988866D02*
X141622496Y-134750771D01*
X141622496Y-134750771D02*
X141693925Y-134560295D01*
X141693925Y-134560295D02*
X141753449Y-134465057D01*
X141753449Y-134465057D02*
X141807020Y-134417438D01*
X141807020Y-134417438D02*
X141908211Y-134369819D01*
X142557020Y-135274580D02*
X142598687Y-135322200D01*
X142598687Y-135322200D02*
X142545115Y-135369819D01*
X142545115Y-135369819D02*
X142503449Y-135322200D01*
X142503449Y-135322200D02*
X142557020Y-135274580D01*
X142557020Y-135274580D02*
X142545115Y-135369819D01*
X143051067Y-134369819D02*
X143670115Y-134369819D01*
X143670115Y-134369819D02*
X143289163Y-134750771D01*
X143289163Y-134750771D02*
X143432020Y-134750771D01*
X143432020Y-134750771D02*
X143521305Y-134798390D01*
X143521305Y-134798390D02*
X143562972Y-134846009D01*
X143562972Y-134846009D02*
X143598686Y-134941247D01*
X143598686Y-134941247D02*
X143568924Y-135179342D01*
X143568924Y-135179342D02*
X143509401Y-135274580D01*
X143509401Y-135274580D02*
X143455829Y-135322200D01*
X143455829Y-135322200D02*
X143354639Y-135369819D01*
X143354639Y-135369819D02*
X143068924Y-135369819D01*
X143068924Y-135369819D02*
X142979639Y-135322200D01*
X142979639Y-135322200D02*
X142937972Y-135274580D01*
X143973686Y-135369819D02*
X144057020Y-134703152D01*
X144045115Y-134798390D02*
X144098686Y-134750771D01*
X144098686Y-134750771D02*
X144199877Y-134703152D01*
X144199877Y-134703152D02*
X144342734Y-134703152D01*
X144342734Y-134703152D02*
X144432020Y-134750771D01*
X144432020Y-134750771D02*
X144467734Y-134846009D01*
X144467734Y-134846009D02*
X144402258Y-135369819D01*
X144467734Y-134846009D02*
X144527258Y-134750771D01*
X144527258Y-134750771D02*
X144628448Y-134703152D01*
X144628448Y-134703152D02*
X144771305Y-134703152D01*
X144771305Y-134703152D02*
X144860591Y-134750771D01*
X144860591Y-134750771D02*
X144896305Y-134846009D01*
X144896305Y-134846009D02*
X144830829Y-135369819D01*
X145307019Y-135369819D02*
X145390353Y-134703152D01*
X145378448Y-134798390D02*
X145432019Y-134750771D01*
X145432019Y-134750771D02*
X145533210Y-134703152D01*
X145533210Y-134703152D02*
X145676067Y-134703152D01*
X145676067Y-134703152D02*
X145765353Y-134750771D01*
X145765353Y-134750771D02*
X145801067Y-134846009D01*
X145801067Y-134846009D02*
X145735591Y-135369819D01*
X145801067Y-134846009D02*
X145860591Y-134750771D01*
X145860591Y-134750771D02*
X145961781Y-134703152D01*
X145961781Y-134703152D02*
X146104638Y-134703152D01*
X146104638Y-134703152D02*
X146193924Y-134750771D01*
X146193924Y-134750771D02*
X146229638Y-134846009D01*
X146229638Y-134846009D02*
X146164162Y-135369819D01*
M02*
