%TF.GenerationSoftware,KiCad,Pcbnew,8.0.4*%
%TF.CreationDate,2024-10-16T20:55:19+01:00*%
%TF.ProjectId,analog,616e616c-6f67-42e6-9b69-6361645f7063,rev?*%
%TF.SameCoordinates,Original*%
%TF.FileFunction,Legend,Top*%
%TF.FilePolarity,Positive*%
%FSLAX46Y46*%
G04 Gerber Fmt 4.6, Leading zero omitted, Abs format (unit mm)*
G04 Created by KiCad (PCBNEW 8.0.4) date 2024-10-16 20:55:19*
%MOMM*%
%LPD*%
G01*
G04 APERTURE LIST*
%ADD10C,0.150000*%
%ADD11C,0.120000*%
%ADD12C,0.100000*%
G04 APERTURE END LIST*
D10*
X240251023Y-145440349D02*
X240251023Y-145916539D01*
X239965308Y-145345111D02*
X240965308Y-145678444D01*
X240965308Y-145678444D02*
X239965308Y-146011777D01*
X240631975Y-146345111D02*
X239965308Y-146345111D01*
X240536737Y-146345111D02*
X240584356Y-146392730D01*
X240584356Y-146392730D02*
X240631975Y-146487968D01*
X240631975Y-146487968D02*
X240631975Y-146630825D01*
X240631975Y-146630825D02*
X240584356Y-146726063D01*
X240584356Y-146726063D02*
X240489118Y-146773682D01*
X240489118Y-146773682D02*
X239965308Y-146773682D01*
X239965308Y-147678444D02*
X240489118Y-147678444D01*
X240489118Y-147678444D02*
X240584356Y-147630825D01*
X240584356Y-147630825D02*
X240631975Y-147535587D01*
X240631975Y-147535587D02*
X240631975Y-147345111D01*
X240631975Y-147345111D02*
X240584356Y-147249873D01*
X240012928Y-147678444D02*
X239965308Y-147583206D01*
X239965308Y-147583206D02*
X239965308Y-147345111D01*
X239965308Y-147345111D02*
X240012928Y-147249873D01*
X240012928Y-147249873D02*
X240108166Y-147202254D01*
X240108166Y-147202254D02*
X240203404Y-147202254D01*
X240203404Y-147202254D02*
X240298642Y-147249873D01*
X240298642Y-147249873D02*
X240346261Y-147345111D01*
X240346261Y-147345111D02*
X240346261Y-147583206D01*
X240346261Y-147583206D02*
X240393880Y-147678444D01*
X239965308Y-148297492D02*
X240012928Y-148202254D01*
X240012928Y-148202254D02*
X240108166Y-148154635D01*
X240108166Y-148154635D02*
X240965308Y-148154635D01*
X239965308Y-148821302D02*
X240012928Y-148726064D01*
X240012928Y-148726064D02*
X240060547Y-148678445D01*
X240060547Y-148678445D02*
X240155785Y-148630826D01*
X240155785Y-148630826D02*
X240441499Y-148630826D01*
X240441499Y-148630826D02*
X240536737Y-148678445D01*
X240536737Y-148678445D02*
X240584356Y-148726064D01*
X240584356Y-148726064D02*
X240631975Y-148821302D01*
X240631975Y-148821302D02*
X240631975Y-148964159D01*
X240631975Y-148964159D02*
X240584356Y-149059397D01*
X240584356Y-149059397D02*
X240536737Y-149107016D01*
X240536737Y-149107016D02*
X240441499Y-149154635D01*
X240441499Y-149154635D02*
X240155785Y-149154635D01*
X240155785Y-149154635D02*
X240060547Y-149107016D01*
X240060547Y-149107016D02*
X240012928Y-149059397D01*
X240012928Y-149059397D02*
X239965308Y-148964159D01*
X239965308Y-148964159D02*
X239965308Y-148821302D01*
X240631975Y-150011778D02*
X239822451Y-150011778D01*
X239822451Y-150011778D02*
X239727213Y-149964159D01*
X239727213Y-149964159D02*
X239679594Y-149916540D01*
X239679594Y-149916540D02*
X239631975Y-149821302D01*
X239631975Y-149821302D02*
X239631975Y-149678445D01*
X239631975Y-149678445D02*
X239679594Y-149583207D01*
X240012928Y-150011778D02*
X239965308Y-149916540D01*
X239965308Y-149916540D02*
X239965308Y-149726064D01*
X239965308Y-149726064D02*
X240012928Y-149630826D01*
X240012928Y-149630826D02*
X240060547Y-149583207D01*
X240060547Y-149583207D02*
X240155785Y-149535588D01*
X240155785Y-149535588D02*
X240441499Y-149535588D01*
X240441499Y-149535588D02*
X240536737Y-149583207D01*
X240536737Y-149583207D02*
X240584356Y-149630826D01*
X240584356Y-149630826D02*
X240631975Y-149726064D01*
X240631975Y-149726064D02*
X240631975Y-149916540D01*
X240631975Y-149916540D02*
X240584356Y-150011778D01*
X238402984Y-146107016D02*
X238355364Y-146249873D01*
X238355364Y-146249873D02*
X238355364Y-146487968D01*
X238355364Y-146487968D02*
X238402984Y-146583206D01*
X238402984Y-146583206D02*
X238450603Y-146630825D01*
X238450603Y-146630825D02*
X238545841Y-146678444D01*
X238545841Y-146678444D02*
X238641079Y-146678444D01*
X238641079Y-146678444D02*
X238736317Y-146630825D01*
X238736317Y-146630825D02*
X238783936Y-146583206D01*
X238783936Y-146583206D02*
X238831555Y-146487968D01*
X238831555Y-146487968D02*
X238879174Y-146297492D01*
X238879174Y-146297492D02*
X238926793Y-146202254D01*
X238926793Y-146202254D02*
X238974412Y-146154635D01*
X238974412Y-146154635D02*
X239069650Y-146107016D01*
X239069650Y-146107016D02*
X239164888Y-146107016D01*
X239164888Y-146107016D02*
X239260126Y-146154635D01*
X239260126Y-146154635D02*
X239307745Y-146202254D01*
X239307745Y-146202254D02*
X239355364Y-146297492D01*
X239355364Y-146297492D02*
X239355364Y-146535587D01*
X239355364Y-146535587D02*
X239307745Y-146678444D01*
X239022031Y-146964159D02*
X239022031Y-147345111D01*
X239355364Y-147107016D02*
X238498222Y-147107016D01*
X238498222Y-147107016D02*
X238402984Y-147154635D01*
X238402984Y-147154635D02*
X238355364Y-147249873D01*
X238355364Y-147249873D02*
X238355364Y-147345111D01*
X238355364Y-147678445D02*
X239022031Y-147678445D01*
X239355364Y-147678445D02*
X239307745Y-147630826D01*
X239307745Y-147630826D02*
X239260126Y-147678445D01*
X239260126Y-147678445D02*
X239307745Y-147726064D01*
X239307745Y-147726064D02*
X239355364Y-147678445D01*
X239355364Y-147678445D02*
X239260126Y-147678445D01*
X238402984Y-148583206D02*
X238355364Y-148487968D01*
X238355364Y-148487968D02*
X238355364Y-148297492D01*
X238355364Y-148297492D02*
X238402984Y-148202254D01*
X238402984Y-148202254D02*
X238450603Y-148154635D01*
X238450603Y-148154635D02*
X238545841Y-148107016D01*
X238545841Y-148107016D02*
X238831555Y-148107016D01*
X238831555Y-148107016D02*
X238926793Y-148154635D01*
X238926793Y-148154635D02*
X238974412Y-148202254D01*
X238974412Y-148202254D02*
X239022031Y-148297492D01*
X239022031Y-148297492D02*
X239022031Y-148487968D01*
X239022031Y-148487968D02*
X238974412Y-148583206D01*
X238355364Y-149011778D02*
X239355364Y-149011778D01*
X238736317Y-149107016D02*
X238355364Y-149392730D01*
X239022031Y-149392730D02*
X238641079Y-149011778D01*
D11*
%TO.C,C6*%
X100548531Y-135249873D02*
X100548531Y-143749873D01*
D12*
X100548531Y-143749873D02*
X102298531Y-143749873D01*
X102298531Y-135249873D02*
X100548531Y-135249873D01*
D11*
%TO.C,C10*%
X247137958Y-145500000D02*
X247137043Y-150000000D01*
%TD*%
M02*
