%TF.GenerationSoftware,KiCad,Pcbnew,8.0.4*%
%TF.CreationDate,2024-08-01T13:46:47+01:00*%
%TF.ProjectId,buttonsSuper,62757474-6f6e-4735-9375-7065722e6b69,rev?*%
%TF.SameCoordinates,Original*%
%TF.FileFunction,Legend,Top*%
%TF.FilePolarity,Positive*%
%FSLAX46Y46*%
G04 Gerber Fmt 4.6, Leading zero omitted, Abs format (unit mm)*
G04 Created by KiCad (PCBNEW 8.0.4) date 2024-08-01 13:46:47*
%MOMM*%
%LPD*%
G01*
G04 APERTURE LIST*
G04 Aperture macros list*
%AMRoundRect*
0 Rectangle with rounded corners*
0 $1 Rounding radius*
0 $2 $3 $4 $5 $6 $7 $8 $9 X,Y pos of 4 corners*
0 Add a 4 corners polygon primitive as box body*
4,1,4,$2,$3,$4,$5,$6,$7,$8,$9,$2,$3,0*
0 Add four circle primitives for the rounded corners*
1,1,$1+$1,$2,$3*
1,1,$1+$1,$4,$5*
1,1,$1+$1,$6,$7*
1,1,$1+$1,$8,$9*
0 Add four rect primitives between the rounded corners*
20,1,$1+$1,$2,$3,$4,$5,0*
20,1,$1+$1,$4,$5,$6,$7,0*
20,1,$1+$1,$6,$7,$8,$9,0*
20,1,$1+$1,$8,$9,$2,$3,0*%
G04 Aperture macros list end*
%ADD10C,0.150000*%
%ADD11C,0.100000*%
%ADD12C,0.120000*%
%ADD13C,0.150114*%
%ADD14C,0.059995*%
%ADD15C,0.000000*%
%ADD16C,2.710000*%
%ADD17RoundRect,0.312500X-0.312500X0.312500X-0.312500X-0.312500X0.312500X-0.312500X0.312500X0.312500X0*%
%ADD18R,0.700025X0.299975*%
%ADD19R,1.000000X0.299975*%
%ADD20R,1.199898X1.800000*%
%ADD21R,1.800000X1.199898*%
%ADD22R,4.000000X0.250000*%
%ADD23R,2.000000X0.250000*%
%ADD24R,0.250000X2.000000*%
G04 APERTURE END LIST*
D10*
X41999874Y-110250000D02*
X41999874Y-110250000D01*
X41999874Y-110250000D01*
X41999874Y-110250000D01*
X41999874Y-110250000D01*
X41999874Y-110250000D01*
X41999874Y-110250001D01*
X41999874Y-110250001D01*
X41999874Y-110250001D01*
X41999874Y-110250001D01*
X41999874Y-110250001D01*
X41999874Y-110250001D01*
X41999874Y-110250001D01*
X41999873Y-110250001D01*
X41999873Y-110250001D01*
X41999873Y-110250001D01*
X41999873Y-110250001D01*
X41999873Y-110250001D01*
X41999873Y-110250001D01*
X41999873Y-110250001D01*
X41999873Y-110250001D01*
X41999873Y-110250001D01*
X41999873Y-110250001D01*
X41999873Y-110250001D01*
X41999873Y-110250001D01*
X41999872Y-110250001D01*
X41999872Y-110250001D01*
X41999872Y-110250001D01*
X41999872Y-110250001D01*
X41999872Y-110250001D01*
X41999872Y-110250001D01*
X41999872Y-110250000D01*
X41999872Y-110250000D01*
X41999872Y-110250000D01*
X41999872Y-110250000D01*
X41999872Y-110250000D01*
X41999872Y-110250000D01*
X41999872Y-110250000D02*
X41999872Y-110250000D01*
X41999872Y-110250000D01*
X41999872Y-110250000D01*
X41999872Y-110250000D01*
X41999872Y-110250000D01*
X41999872Y-110250000D01*
X41999872Y-110249999D01*
X41999872Y-110249999D01*
X41999872Y-110249999D01*
X41999872Y-110249999D01*
X41999872Y-110249999D01*
X41999873Y-110249999D01*
X41999873Y-110249999D01*
X41999873Y-110249999D01*
X41999873Y-110249999D01*
X41999873Y-110249999D01*
X41999873Y-110249999D01*
X41999873Y-110249999D01*
X41999873Y-110249999D01*
X41999873Y-110249999D01*
X41999873Y-110249999D01*
X41999873Y-110249999D01*
X41999873Y-110249999D01*
X41999874Y-110249999D01*
X41999874Y-110249999D01*
X41999874Y-110249999D01*
X41999874Y-110249999D01*
X41999874Y-110249999D01*
X41999874Y-110249999D01*
X41999874Y-110250000D01*
X41999874Y-110250000D01*
X41999874Y-110250000D01*
X41999874Y-110250000D01*
X41999874Y-110250000D01*
X41999874Y-110250000D01*
X41999874Y-110250000D01*
X55750000Y-75750000D02*
X45750000Y-75750000D01*
D11*
X138499771Y-107750000D02*
X142250000Y-107750000D01*
D10*
X55750000Y-72500000D02*
X45750000Y-72500000D01*
X47819851Y-81750000D02*
X47819851Y-81750000D01*
X47819851Y-81750000D01*
X47819851Y-81750000D01*
X47819851Y-81750000D01*
X47819851Y-81750000D01*
X47819851Y-81750001D01*
X47819851Y-81750001D01*
X47819851Y-81750001D01*
X47819851Y-81750001D01*
X47819851Y-81750001D01*
X47819851Y-81750001D01*
X47819851Y-81750001D01*
X47819850Y-81750001D01*
X47819850Y-81750001D01*
X47819850Y-81750001D01*
X47819850Y-81750001D01*
X47819850Y-81750001D01*
X47819850Y-81750001D01*
X47819850Y-81750001D01*
X47819850Y-81750001D01*
X47819850Y-81750001D01*
X47819850Y-81750001D01*
X47819850Y-81750001D01*
X47819850Y-81750001D01*
X47819849Y-81750001D01*
X47819849Y-81750001D01*
X47819849Y-81750001D01*
X47819849Y-81750001D01*
X47819849Y-81750001D01*
X47819849Y-81750001D01*
X47819849Y-81750000D01*
X47819849Y-81750000D01*
X47819849Y-81750000D01*
X47819849Y-81750000D01*
X47819849Y-81750000D01*
X47819849Y-81750000D01*
X47819849Y-81750000D02*
X47819849Y-81750000D01*
X47819849Y-81750000D01*
X47819849Y-81750000D01*
X47819849Y-81750000D01*
X47819849Y-81750000D01*
X47819849Y-81750000D01*
X47819849Y-81749999D01*
X47819849Y-81749999D01*
X47819849Y-81749999D01*
X47819849Y-81749999D01*
X47819849Y-81749999D01*
X47819850Y-81749999D01*
X47819850Y-81749999D01*
X47819850Y-81749999D01*
X47819850Y-81749999D01*
X47819850Y-81749999D01*
X47819850Y-81749999D01*
X47819850Y-81749999D01*
X47819850Y-81749999D01*
X47819850Y-81749999D01*
X47819850Y-81749999D01*
X47819850Y-81749999D01*
X47819850Y-81749999D01*
X47819851Y-81749999D01*
X47819851Y-81749999D01*
X47819851Y-81749999D01*
X47819851Y-81749999D01*
X47819851Y-81749999D01*
X47819851Y-81749999D01*
X47819851Y-81750000D01*
X47819851Y-81750000D01*
X47819851Y-81750000D01*
X47819851Y-81750000D01*
X47819851Y-81750000D01*
X47819851Y-81750000D01*
X47819851Y-81750000D01*
X49499874Y-117750000D02*
X49499874Y-117750000D01*
X49499874Y-117750000D01*
X49499874Y-117750000D01*
X49499874Y-117750000D01*
X49499874Y-117750000D01*
X49499874Y-117750001D01*
X49499874Y-117750001D01*
X49499874Y-117750001D01*
X49499874Y-117750001D01*
X49499874Y-117750001D01*
X49499874Y-117750001D01*
X49499874Y-117750001D01*
X49499873Y-117750001D01*
X49499873Y-117750001D01*
X49499873Y-117750001D01*
X49499873Y-117750001D01*
X49499873Y-117750001D01*
X49499873Y-117750001D01*
X49499873Y-117750001D01*
X49499873Y-117750001D01*
X49499873Y-117750001D01*
X49499873Y-117750001D01*
X49499873Y-117750001D01*
X49499873Y-117750001D01*
X49499872Y-117750001D01*
X49499872Y-117750001D01*
X49499872Y-117750001D01*
X49499872Y-117750001D01*
X49499872Y-117750001D01*
X49499872Y-117750001D01*
X49499872Y-117750000D01*
X49499872Y-117750000D01*
X49499872Y-117750000D01*
X49499872Y-117750000D01*
X49499872Y-117750000D01*
X49499872Y-117750000D01*
X49499872Y-117750000D02*
X49499872Y-117750000D01*
X49499872Y-117750000D01*
X49499872Y-117750000D01*
X49499872Y-117750000D01*
X49499872Y-117750000D01*
X49499872Y-117750000D01*
X49499872Y-117749999D01*
X49499872Y-117749999D01*
X49499872Y-117749999D01*
X49499872Y-117749999D01*
X49499872Y-117749999D01*
X49499873Y-117749999D01*
X49499873Y-117749999D01*
X49499873Y-117749999D01*
X49499873Y-117749999D01*
X49499873Y-117749999D01*
X49499873Y-117749999D01*
X49499873Y-117749999D01*
X49499873Y-117749999D01*
X49499873Y-117749999D01*
X49499873Y-117749999D01*
X49499873Y-117749999D01*
X49499873Y-117749999D01*
X49499874Y-117749999D01*
X49499874Y-117749999D01*
X49499874Y-117749999D01*
X49499874Y-117749999D01*
X49499874Y-117749999D01*
X49499874Y-117749999D01*
X49499874Y-117750000D01*
X49499874Y-117750000D01*
X49499874Y-117750000D01*
X49499874Y-117750000D01*
X49499874Y-117750000D01*
X49499874Y-117750000D01*
X49499874Y-117750000D01*
D11*
X91000000Y-107750000D02*
X138499771Y-107750000D01*
X131500000Y-89500000D02*
X113575000Y-89500254D01*
D10*
X49499874Y-102750000D02*
X49499874Y-102750000D01*
X49499874Y-102750000D01*
X49499874Y-102750000D01*
X49499874Y-102750000D01*
X49499874Y-102750000D01*
X49499874Y-102750001D01*
X49499874Y-102750001D01*
X49499874Y-102750001D01*
X49499874Y-102750001D01*
X49499874Y-102750001D01*
X49499874Y-102750001D01*
X49499874Y-102750001D01*
X49499873Y-102750001D01*
X49499873Y-102750001D01*
X49499873Y-102750001D01*
X49499873Y-102750001D01*
X49499873Y-102750001D01*
X49499873Y-102750001D01*
X49499873Y-102750001D01*
X49499873Y-102750001D01*
X49499873Y-102750001D01*
X49499873Y-102750001D01*
X49499873Y-102750001D01*
X49499873Y-102750001D01*
X49499872Y-102750001D01*
X49499872Y-102750001D01*
X49499872Y-102750001D01*
X49499872Y-102750001D01*
X49499872Y-102750001D01*
X49499872Y-102750001D01*
X49499872Y-102750000D01*
X49499872Y-102750000D01*
X49499872Y-102750000D01*
X49499872Y-102750000D01*
X49499872Y-102750000D01*
X49499872Y-102750000D01*
X49499872Y-102750000D02*
X49499872Y-102750000D01*
X49499872Y-102750000D01*
X49499872Y-102750000D01*
X49499872Y-102750000D01*
X49499872Y-102750000D01*
X49499872Y-102750000D01*
X49499872Y-102749999D01*
X49499872Y-102749999D01*
X49499872Y-102749999D01*
X49499872Y-102749999D01*
X49499872Y-102749999D01*
X49499873Y-102749999D01*
X49499873Y-102749999D01*
X49499873Y-102749999D01*
X49499873Y-102749999D01*
X49499873Y-102749999D01*
X49499873Y-102749999D01*
X49499873Y-102749999D01*
X49499873Y-102749999D01*
X49499873Y-102749999D01*
X49499873Y-102749999D01*
X49499873Y-102749999D01*
X49499873Y-102749999D01*
X49499874Y-102749999D01*
X49499874Y-102749999D01*
X49499874Y-102749999D01*
X49499874Y-102749999D01*
X49499874Y-102749999D01*
X49499874Y-102749999D01*
X49499874Y-102750000D01*
X49499874Y-102750000D01*
X49499874Y-102750000D01*
X49499874Y-102750000D01*
X49499874Y-102750000D01*
X49499874Y-102750000D01*
X49499874Y-102750000D01*
X56999874Y-110250000D02*
X56999874Y-110250000D01*
X56999874Y-110250000D01*
X56999874Y-110250000D01*
X56999874Y-110250000D01*
X56999874Y-110250000D01*
X56999874Y-110250001D01*
X56999874Y-110250001D01*
X56999874Y-110250001D01*
X56999874Y-110250001D01*
X56999874Y-110250001D01*
X56999874Y-110250001D01*
X56999874Y-110250001D01*
X56999873Y-110250001D01*
X56999873Y-110250001D01*
X56999873Y-110250001D01*
X56999873Y-110250001D01*
X56999873Y-110250001D01*
X56999873Y-110250001D01*
X56999873Y-110250001D01*
X56999873Y-110250001D01*
X56999873Y-110250001D01*
X56999873Y-110250001D01*
X56999873Y-110250001D01*
X56999873Y-110250001D01*
X56999872Y-110250001D01*
X56999872Y-110250001D01*
X56999872Y-110250001D01*
X56999872Y-110250001D01*
X56999872Y-110250001D01*
X56999872Y-110250001D01*
X56999872Y-110250000D01*
X56999872Y-110250000D01*
X56999872Y-110250000D01*
X56999872Y-110250000D01*
X56999872Y-110250000D01*
X56999872Y-110250000D01*
X56999872Y-110250000D02*
X56999872Y-110250000D01*
X56999872Y-110250000D01*
X56999872Y-110250000D01*
X56999872Y-110250000D01*
X56999872Y-110250000D01*
X56999872Y-110250000D01*
X56999872Y-110249999D01*
X56999872Y-110249999D01*
X56999872Y-110249999D01*
X56999872Y-110249999D01*
X56999872Y-110249999D01*
X56999873Y-110249999D01*
X56999873Y-110249999D01*
X56999873Y-110249999D01*
X56999873Y-110249999D01*
X56999873Y-110249999D01*
X56999873Y-110249999D01*
X56999873Y-110249999D01*
X56999873Y-110249999D01*
X56999873Y-110249999D01*
X56999873Y-110249999D01*
X56999873Y-110249999D01*
X56999873Y-110249999D01*
X56999874Y-110249999D01*
X56999874Y-110249999D01*
X56999874Y-110249999D01*
X56999874Y-110249999D01*
X56999874Y-110249999D01*
X56999874Y-110249999D01*
X56999874Y-110250000D01*
X56999874Y-110250000D01*
X56999874Y-110250000D01*
X56999874Y-110250000D01*
X56999874Y-110250000D01*
X56999874Y-110250000D01*
X56999874Y-110250000D01*
D11*
X131500000Y-72500000D02*
X113500000Y-72500000D01*
D10*
X91000000Y-125250000D02*
X142250000Y-125250000D01*
X156834104Y-128210839D02*
X156834104Y-127734649D01*
X157119819Y-128306077D02*
X156119819Y-127972744D01*
X156119819Y-127972744D02*
X157119819Y-127639411D01*
X135062969Y-127119819D02*
X134586779Y-127119819D01*
X134586779Y-127119819D02*
X134586779Y-126119819D01*
X135777255Y-127072200D02*
X135682017Y-127119819D01*
X135682017Y-127119819D02*
X135491541Y-127119819D01*
X135491541Y-127119819D02*
X135396303Y-127072200D01*
X135396303Y-127072200D02*
X135348684Y-126976961D01*
X135348684Y-126976961D02*
X135348684Y-126596009D01*
X135348684Y-126596009D02*
X135396303Y-126500771D01*
X135396303Y-126500771D02*
X135491541Y-126453152D01*
X135491541Y-126453152D02*
X135682017Y-126453152D01*
X135682017Y-126453152D02*
X135777255Y-126500771D01*
X135777255Y-126500771D02*
X135824874Y-126596009D01*
X135824874Y-126596009D02*
X135824874Y-126691247D01*
X135824874Y-126691247D02*
X135348684Y-126786485D01*
X136110589Y-126453152D02*
X136491541Y-126453152D01*
X136253446Y-127119819D02*
X136253446Y-126262676D01*
X136253446Y-126262676D02*
X136301065Y-126167438D01*
X136301065Y-126167438D02*
X136396303Y-126119819D01*
X136396303Y-126119819D02*
X136491541Y-126119819D01*
X136682018Y-126453152D02*
X137062970Y-126453152D01*
X136824875Y-126119819D02*
X136824875Y-126976961D01*
X136824875Y-126976961D02*
X136872494Y-127072200D01*
X136872494Y-127072200D02*
X136967732Y-127119819D01*
X136967732Y-127119819D02*
X137062970Y-127119819D01*
X138491542Y-126596009D02*
X138634399Y-126643628D01*
X138634399Y-126643628D02*
X138682018Y-126691247D01*
X138682018Y-126691247D02*
X138729637Y-126786485D01*
X138729637Y-126786485D02*
X138729637Y-126929342D01*
X138729637Y-126929342D02*
X138682018Y-127024580D01*
X138682018Y-127024580D02*
X138634399Y-127072200D01*
X138634399Y-127072200D02*
X138539161Y-127119819D01*
X138539161Y-127119819D02*
X138158209Y-127119819D01*
X138158209Y-127119819D02*
X138158209Y-126119819D01*
X138158209Y-126119819D02*
X138491542Y-126119819D01*
X138491542Y-126119819D02*
X138586780Y-126167438D01*
X138586780Y-126167438D02*
X138634399Y-126215057D01*
X138634399Y-126215057D02*
X138682018Y-126310295D01*
X138682018Y-126310295D02*
X138682018Y-126405533D01*
X138682018Y-126405533D02*
X138634399Y-126500771D01*
X138634399Y-126500771D02*
X138586780Y-126548390D01*
X138586780Y-126548390D02*
X138491542Y-126596009D01*
X138491542Y-126596009D02*
X138158209Y-126596009D01*
X139586780Y-126453152D02*
X139586780Y-127119819D01*
X139158209Y-126453152D02*
X139158209Y-126976961D01*
X139158209Y-126976961D02*
X139205828Y-127072200D01*
X139205828Y-127072200D02*
X139301066Y-127119819D01*
X139301066Y-127119819D02*
X139443923Y-127119819D01*
X139443923Y-127119819D02*
X139539161Y-127072200D01*
X139539161Y-127072200D02*
X139586780Y-127024580D01*
X139920114Y-126453152D02*
X140301066Y-126453152D01*
X140062971Y-126119819D02*
X140062971Y-126976961D01*
X140062971Y-126976961D02*
X140110590Y-127072200D01*
X140110590Y-127072200D02*
X140205828Y-127119819D01*
X140205828Y-127119819D02*
X140301066Y-127119819D01*
X140491543Y-126453152D02*
X140872495Y-126453152D01*
X140634400Y-126119819D02*
X140634400Y-126976961D01*
X140634400Y-126976961D02*
X140682019Y-127072200D01*
X140682019Y-127072200D02*
X140777257Y-127119819D01*
X140777257Y-127119819D02*
X140872495Y-127119819D01*
X141348686Y-127119819D02*
X141253448Y-127072200D01*
X141253448Y-127072200D02*
X141205829Y-127024580D01*
X141205829Y-127024580D02*
X141158210Y-126929342D01*
X141158210Y-126929342D02*
X141158210Y-126643628D01*
X141158210Y-126643628D02*
X141205829Y-126548390D01*
X141205829Y-126548390D02*
X141253448Y-126500771D01*
X141253448Y-126500771D02*
X141348686Y-126453152D01*
X141348686Y-126453152D02*
X141491543Y-126453152D01*
X141491543Y-126453152D02*
X141586781Y-126500771D01*
X141586781Y-126500771D02*
X141634400Y-126548390D01*
X141634400Y-126548390D02*
X141682019Y-126643628D01*
X141682019Y-126643628D02*
X141682019Y-126929342D01*
X141682019Y-126929342D02*
X141634400Y-127024580D01*
X141634400Y-127024580D02*
X141586781Y-127072200D01*
X141586781Y-127072200D02*
X141491543Y-127119819D01*
X141491543Y-127119819D02*
X141348686Y-127119819D01*
X142110591Y-126453152D02*
X142110591Y-127119819D01*
X142110591Y-126548390D02*
X142158210Y-126500771D01*
X142158210Y-126500771D02*
X142253448Y-126453152D01*
X142253448Y-126453152D02*
X142396305Y-126453152D01*
X142396305Y-126453152D02*
X142491543Y-126500771D01*
X142491543Y-126500771D02*
X142539162Y-126596009D01*
X142539162Y-126596009D02*
X142539162Y-127119819D01*
X142967734Y-127072200D02*
X143062972Y-127119819D01*
X143062972Y-127119819D02*
X143253448Y-127119819D01*
X143253448Y-127119819D02*
X143348686Y-127072200D01*
X143348686Y-127072200D02*
X143396305Y-126976961D01*
X143396305Y-126976961D02*
X143396305Y-126929342D01*
X143396305Y-126929342D02*
X143348686Y-126834104D01*
X143348686Y-126834104D02*
X143253448Y-126786485D01*
X143253448Y-126786485D02*
X143110591Y-126786485D01*
X143110591Y-126786485D02*
X143015353Y-126738866D01*
X143015353Y-126738866D02*
X142967734Y-126643628D01*
X142967734Y-126643628D02*
X142967734Y-126596009D01*
X142967734Y-126596009D02*
X143015353Y-126500771D01*
X143015353Y-126500771D02*
X143110591Y-126453152D01*
X143110591Y-126453152D02*
X143253448Y-126453152D01*
X143253448Y-126453152D02*
X143348686Y-126500771D01*
X101408207Y-104119819D02*
X101074874Y-103643628D01*
X100836779Y-104119819D02*
X100836779Y-103119819D01*
X100836779Y-103119819D02*
X101217731Y-103119819D01*
X101217731Y-103119819D02*
X101312969Y-103167438D01*
X101312969Y-103167438D02*
X101360588Y-103215057D01*
X101360588Y-103215057D02*
X101408207Y-103310295D01*
X101408207Y-103310295D02*
X101408207Y-103453152D01*
X101408207Y-103453152D02*
X101360588Y-103548390D01*
X101360588Y-103548390D02*
X101312969Y-103596009D01*
X101312969Y-103596009D02*
X101217731Y-103643628D01*
X101217731Y-103643628D02*
X100836779Y-103643628D01*
X101836779Y-104119819D02*
X101836779Y-103453152D01*
X101836779Y-103119819D02*
X101789160Y-103167438D01*
X101789160Y-103167438D02*
X101836779Y-103215057D01*
X101836779Y-103215057D02*
X101884398Y-103167438D01*
X101884398Y-103167438D02*
X101836779Y-103119819D01*
X101836779Y-103119819D02*
X101836779Y-103215057D01*
X102741540Y-103453152D02*
X102741540Y-104262676D01*
X102741540Y-104262676D02*
X102693921Y-104357914D01*
X102693921Y-104357914D02*
X102646302Y-104405533D01*
X102646302Y-104405533D02*
X102551064Y-104453152D01*
X102551064Y-104453152D02*
X102408207Y-104453152D01*
X102408207Y-104453152D02*
X102312969Y-104405533D01*
X102741540Y-104072200D02*
X102646302Y-104119819D01*
X102646302Y-104119819D02*
X102455826Y-104119819D01*
X102455826Y-104119819D02*
X102360588Y-104072200D01*
X102360588Y-104072200D02*
X102312969Y-104024580D01*
X102312969Y-104024580D02*
X102265350Y-103929342D01*
X102265350Y-103929342D02*
X102265350Y-103643628D01*
X102265350Y-103643628D02*
X102312969Y-103548390D01*
X102312969Y-103548390D02*
X102360588Y-103500771D01*
X102360588Y-103500771D02*
X102455826Y-103453152D01*
X102455826Y-103453152D02*
X102646302Y-103453152D01*
X102646302Y-103453152D02*
X102741540Y-103500771D01*
X103217731Y-104119819D02*
X103217731Y-103119819D01*
X103646302Y-104119819D02*
X103646302Y-103596009D01*
X103646302Y-103596009D02*
X103598683Y-103500771D01*
X103598683Y-103500771D02*
X103503445Y-103453152D01*
X103503445Y-103453152D02*
X103360588Y-103453152D01*
X103360588Y-103453152D02*
X103265350Y-103500771D01*
X103265350Y-103500771D02*
X103217731Y-103548390D01*
X103979636Y-103453152D02*
X104360588Y-103453152D01*
X104122493Y-103119819D02*
X104122493Y-103976961D01*
X104122493Y-103976961D02*
X104170112Y-104072200D01*
X104170112Y-104072200D02*
X104265350Y-104119819D01*
X104265350Y-104119819D02*
X104360588Y-104119819D01*
X105789160Y-103596009D02*
X105932017Y-103643628D01*
X105932017Y-103643628D02*
X105979636Y-103691247D01*
X105979636Y-103691247D02*
X106027255Y-103786485D01*
X106027255Y-103786485D02*
X106027255Y-103929342D01*
X106027255Y-103929342D02*
X105979636Y-104024580D01*
X105979636Y-104024580D02*
X105932017Y-104072200D01*
X105932017Y-104072200D02*
X105836779Y-104119819D01*
X105836779Y-104119819D02*
X105455827Y-104119819D01*
X105455827Y-104119819D02*
X105455827Y-103119819D01*
X105455827Y-103119819D02*
X105789160Y-103119819D01*
X105789160Y-103119819D02*
X105884398Y-103167438D01*
X105884398Y-103167438D02*
X105932017Y-103215057D01*
X105932017Y-103215057D02*
X105979636Y-103310295D01*
X105979636Y-103310295D02*
X105979636Y-103405533D01*
X105979636Y-103405533D02*
X105932017Y-103500771D01*
X105932017Y-103500771D02*
X105884398Y-103548390D01*
X105884398Y-103548390D02*
X105789160Y-103596009D01*
X105789160Y-103596009D02*
X105455827Y-103596009D01*
X106884398Y-103453152D02*
X106884398Y-104119819D01*
X106455827Y-103453152D02*
X106455827Y-103976961D01*
X106455827Y-103976961D02*
X106503446Y-104072200D01*
X106503446Y-104072200D02*
X106598684Y-104119819D01*
X106598684Y-104119819D02*
X106741541Y-104119819D01*
X106741541Y-104119819D02*
X106836779Y-104072200D01*
X106836779Y-104072200D02*
X106884398Y-104024580D01*
X107217732Y-103453152D02*
X107598684Y-103453152D01*
X107360589Y-103119819D02*
X107360589Y-103976961D01*
X107360589Y-103976961D02*
X107408208Y-104072200D01*
X107408208Y-104072200D02*
X107503446Y-104119819D01*
X107503446Y-104119819D02*
X107598684Y-104119819D01*
X107789161Y-103453152D02*
X108170113Y-103453152D01*
X107932018Y-103119819D02*
X107932018Y-103976961D01*
X107932018Y-103976961D02*
X107979637Y-104072200D01*
X107979637Y-104072200D02*
X108074875Y-104119819D01*
X108074875Y-104119819D02*
X108170113Y-104119819D01*
X108646304Y-104119819D02*
X108551066Y-104072200D01*
X108551066Y-104072200D02*
X108503447Y-104024580D01*
X108503447Y-104024580D02*
X108455828Y-103929342D01*
X108455828Y-103929342D02*
X108455828Y-103643628D01*
X108455828Y-103643628D02*
X108503447Y-103548390D01*
X108503447Y-103548390D02*
X108551066Y-103500771D01*
X108551066Y-103500771D02*
X108646304Y-103453152D01*
X108646304Y-103453152D02*
X108789161Y-103453152D01*
X108789161Y-103453152D02*
X108884399Y-103500771D01*
X108884399Y-103500771D02*
X108932018Y-103548390D01*
X108932018Y-103548390D02*
X108979637Y-103643628D01*
X108979637Y-103643628D02*
X108979637Y-103929342D01*
X108979637Y-103929342D02*
X108932018Y-104024580D01*
X108932018Y-104024580D02*
X108884399Y-104072200D01*
X108884399Y-104072200D02*
X108789161Y-104119819D01*
X108789161Y-104119819D02*
X108646304Y-104119819D01*
X109408209Y-103453152D02*
X109408209Y-104119819D01*
X109408209Y-103548390D02*
X109455828Y-103500771D01*
X109455828Y-103500771D02*
X109551066Y-103453152D01*
X109551066Y-103453152D02*
X109693923Y-103453152D01*
X109693923Y-103453152D02*
X109789161Y-103500771D01*
X109789161Y-103500771D02*
X109836780Y-103596009D01*
X109836780Y-103596009D02*
X109836780Y-104119819D01*
X110265352Y-104072200D02*
X110360590Y-104119819D01*
X110360590Y-104119819D02*
X110551066Y-104119819D01*
X110551066Y-104119819D02*
X110646304Y-104072200D01*
X110646304Y-104072200D02*
X110693923Y-103976961D01*
X110693923Y-103976961D02*
X110693923Y-103929342D01*
X110693923Y-103929342D02*
X110646304Y-103834104D01*
X110646304Y-103834104D02*
X110551066Y-103786485D01*
X110551066Y-103786485D02*
X110408209Y-103786485D01*
X110408209Y-103786485D02*
X110312971Y-103738866D01*
X110312971Y-103738866D02*
X110265352Y-103643628D01*
X110265352Y-103643628D02*
X110265352Y-103596009D01*
X110265352Y-103596009D02*
X110312971Y-103500771D01*
X110312971Y-103500771D02*
X110408209Y-103453152D01*
X110408209Y-103453152D02*
X110551066Y-103453152D01*
X110551066Y-103453152D02*
X110646304Y-103500771D01*
X72011905Y-121454819D02*
X72011905Y-120454819D01*
X72011905Y-120454819D02*
X72392857Y-120454819D01*
X72392857Y-120454819D02*
X72488095Y-120502438D01*
X72488095Y-120502438D02*
X72535714Y-120550057D01*
X72535714Y-120550057D02*
X72583333Y-120645295D01*
X72583333Y-120645295D02*
X72583333Y-120788152D01*
X72583333Y-120788152D02*
X72535714Y-120883390D01*
X72535714Y-120883390D02*
X72488095Y-120931009D01*
X72488095Y-120931009D02*
X72392857Y-120978628D01*
X72392857Y-120978628D02*
X72011905Y-120978628D01*
X72964286Y-121407200D02*
X73107143Y-121454819D01*
X73107143Y-121454819D02*
X73345238Y-121454819D01*
X73345238Y-121454819D02*
X73440476Y-121407200D01*
X73440476Y-121407200D02*
X73488095Y-121359580D01*
X73488095Y-121359580D02*
X73535714Y-121264342D01*
X73535714Y-121264342D02*
X73535714Y-121169104D01*
X73535714Y-121169104D02*
X73488095Y-121073866D01*
X73488095Y-121073866D02*
X73440476Y-121026247D01*
X73440476Y-121026247D02*
X73345238Y-120978628D01*
X73345238Y-120978628D02*
X73154762Y-120931009D01*
X73154762Y-120931009D02*
X73059524Y-120883390D01*
X73059524Y-120883390D02*
X73011905Y-120835771D01*
X73011905Y-120835771D02*
X72964286Y-120740533D01*
X72964286Y-120740533D02*
X72964286Y-120645295D01*
X72964286Y-120645295D02*
X73011905Y-120550057D01*
X73011905Y-120550057D02*
X73059524Y-120502438D01*
X73059524Y-120502438D02*
X73154762Y-120454819D01*
X73154762Y-120454819D02*
X73392857Y-120454819D01*
X73392857Y-120454819D02*
X73535714Y-120502438D01*
X73964286Y-121454819D02*
X73964286Y-120454819D01*
X73964286Y-120454819D02*
X74345238Y-120454819D01*
X74345238Y-120454819D02*
X74440476Y-120502438D01*
X74440476Y-120502438D02*
X74488095Y-120550057D01*
X74488095Y-120550057D02*
X74535714Y-120645295D01*
X74535714Y-120645295D02*
X74535714Y-120788152D01*
X74535714Y-120788152D02*
X74488095Y-120883390D01*
X74488095Y-120883390D02*
X74440476Y-120931009D01*
X74440476Y-120931009D02*
X74345238Y-120978628D01*
X74345238Y-120978628D02*
X73964286Y-120978628D01*
X104039160Y-68584104D02*
X104515350Y-68584104D01*
X103943922Y-68869819D02*
X104277255Y-67869819D01*
X104277255Y-67869819D02*
X104610588Y-68869819D01*
X104943922Y-68203152D02*
X104943922Y-68869819D01*
X104943922Y-68298390D02*
X104991541Y-68250771D01*
X104991541Y-68250771D02*
X105086779Y-68203152D01*
X105086779Y-68203152D02*
X105229636Y-68203152D01*
X105229636Y-68203152D02*
X105324874Y-68250771D01*
X105324874Y-68250771D02*
X105372493Y-68346009D01*
X105372493Y-68346009D02*
X105372493Y-68869819D01*
X106277255Y-68869819D02*
X106277255Y-68346009D01*
X106277255Y-68346009D02*
X106229636Y-68250771D01*
X106229636Y-68250771D02*
X106134398Y-68203152D01*
X106134398Y-68203152D02*
X105943922Y-68203152D01*
X105943922Y-68203152D02*
X105848684Y-68250771D01*
X106277255Y-68822200D02*
X106182017Y-68869819D01*
X106182017Y-68869819D02*
X105943922Y-68869819D01*
X105943922Y-68869819D02*
X105848684Y-68822200D01*
X105848684Y-68822200D02*
X105801065Y-68726961D01*
X105801065Y-68726961D02*
X105801065Y-68631723D01*
X105801065Y-68631723D02*
X105848684Y-68536485D01*
X105848684Y-68536485D02*
X105943922Y-68488866D01*
X105943922Y-68488866D02*
X106182017Y-68488866D01*
X106182017Y-68488866D02*
X106277255Y-68441247D01*
X106896303Y-68869819D02*
X106801065Y-68822200D01*
X106801065Y-68822200D02*
X106753446Y-68726961D01*
X106753446Y-68726961D02*
X106753446Y-67869819D01*
X107420113Y-68869819D02*
X107324875Y-68822200D01*
X107324875Y-68822200D02*
X107277256Y-68774580D01*
X107277256Y-68774580D02*
X107229637Y-68679342D01*
X107229637Y-68679342D02*
X107229637Y-68393628D01*
X107229637Y-68393628D02*
X107277256Y-68298390D01*
X107277256Y-68298390D02*
X107324875Y-68250771D01*
X107324875Y-68250771D02*
X107420113Y-68203152D01*
X107420113Y-68203152D02*
X107562970Y-68203152D01*
X107562970Y-68203152D02*
X107658208Y-68250771D01*
X107658208Y-68250771D02*
X107705827Y-68298390D01*
X107705827Y-68298390D02*
X107753446Y-68393628D01*
X107753446Y-68393628D02*
X107753446Y-68679342D01*
X107753446Y-68679342D02*
X107705827Y-68774580D01*
X107705827Y-68774580D02*
X107658208Y-68822200D01*
X107658208Y-68822200D02*
X107562970Y-68869819D01*
X107562970Y-68869819D02*
X107420113Y-68869819D01*
X108610589Y-68203152D02*
X108610589Y-69012676D01*
X108610589Y-69012676D02*
X108562970Y-69107914D01*
X108562970Y-69107914D02*
X108515351Y-69155533D01*
X108515351Y-69155533D02*
X108420113Y-69203152D01*
X108420113Y-69203152D02*
X108277256Y-69203152D01*
X108277256Y-69203152D02*
X108182018Y-69155533D01*
X108610589Y-68822200D02*
X108515351Y-68869819D01*
X108515351Y-68869819D02*
X108324875Y-68869819D01*
X108324875Y-68869819D02*
X108229637Y-68822200D01*
X108229637Y-68822200D02*
X108182018Y-68774580D01*
X108182018Y-68774580D02*
X108134399Y-68679342D01*
X108134399Y-68679342D02*
X108134399Y-68393628D01*
X108134399Y-68393628D02*
X108182018Y-68298390D01*
X108182018Y-68298390D02*
X108229637Y-68250771D01*
X108229637Y-68250771D02*
X108324875Y-68203152D01*
X108324875Y-68203152D02*
X108515351Y-68203152D01*
X108515351Y-68203152D02*
X108610589Y-68250771D01*
X109801066Y-68822200D02*
X109943923Y-68869819D01*
X109943923Y-68869819D02*
X110182018Y-68869819D01*
X110182018Y-68869819D02*
X110277256Y-68822200D01*
X110277256Y-68822200D02*
X110324875Y-68774580D01*
X110324875Y-68774580D02*
X110372494Y-68679342D01*
X110372494Y-68679342D02*
X110372494Y-68584104D01*
X110372494Y-68584104D02*
X110324875Y-68488866D01*
X110324875Y-68488866D02*
X110277256Y-68441247D01*
X110277256Y-68441247D02*
X110182018Y-68393628D01*
X110182018Y-68393628D02*
X109991542Y-68346009D01*
X109991542Y-68346009D02*
X109896304Y-68298390D01*
X109896304Y-68298390D02*
X109848685Y-68250771D01*
X109848685Y-68250771D02*
X109801066Y-68155533D01*
X109801066Y-68155533D02*
X109801066Y-68060295D01*
X109801066Y-68060295D02*
X109848685Y-67965057D01*
X109848685Y-67965057D02*
X109896304Y-67917438D01*
X109896304Y-67917438D02*
X109991542Y-67869819D01*
X109991542Y-67869819D02*
X110229637Y-67869819D01*
X110229637Y-67869819D02*
X110372494Y-67917438D01*
X110658209Y-68203152D02*
X111039161Y-68203152D01*
X110801066Y-67869819D02*
X110801066Y-68726961D01*
X110801066Y-68726961D02*
X110848685Y-68822200D01*
X110848685Y-68822200D02*
X110943923Y-68869819D01*
X110943923Y-68869819D02*
X111039161Y-68869819D01*
X111372495Y-68869819D02*
X111372495Y-68203152D01*
X111372495Y-67869819D02*
X111324876Y-67917438D01*
X111324876Y-67917438D02*
X111372495Y-67965057D01*
X111372495Y-67965057D02*
X111420114Y-67917438D01*
X111420114Y-67917438D02*
X111372495Y-67869819D01*
X111372495Y-67869819D02*
X111372495Y-67965057D01*
X112277256Y-68822200D02*
X112182018Y-68869819D01*
X112182018Y-68869819D02*
X111991542Y-68869819D01*
X111991542Y-68869819D02*
X111896304Y-68822200D01*
X111896304Y-68822200D02*
X111848685Y-68774580D01*
X111848685Y-68774580D02*
X111801066Y-68679342D01*
X111801066Y-68679342D02*
X111801066Y-68393628D01*
X111801066Y-68393628D02*
X111848685Y-68298390D01*
X111848685Y-68298390D02*
X111896304Y-68250771D01*
X111896304Y-68250771D02*
X111991542Y-68203152D01*
X111991542Y-68203152D02*
X112182018Y-68203152D01*
X112182018Y-68203152D02*
X112277256Y-68250771D01*
X112705828Y-68869819D02*
X112705828Y-67869819D01*
X112801066Y-68488866D02*
X113086780Y-68869819D01*
X113086780Y-68203152D02*
X112705828Y-68584104D01*
X47609545Y-60668187D02*
X47657165Y-60715806D01*
X47657165Y-60715806D02*
X47704784Y-60858663D01*
X47704784Y-60858663D02*
X47704784Y-60953901D01*
X47704784Y-60953901D02*
X47657165Y-61096758D01*
X47657165Y-61096758D02*
X47561926Y-61191996D01*
X47561926Y-61191996D02*
X47466688Y-61239615D01*
X47466688Y-61239615D02*
X47276212Y-61287234D01*
X47276212Y-61287234D02*
X47133355Y-61287234D01*
X47133355Y-61287234D02*
X46942879Y-61239615D01*
X46942879Y-61239615D02*
X46847641Y-61191996D01*
X46847641Y-61191996D02*
X46752403Y-61096758D01*
X46752403Y-61096758D02*
X46704784Y-60953901D01*
X46704784Y-60953901D02*
X46704784Y-60858663D01*
X46704784Y-60858663D02*
X46752403Y-60715806D01*
X46752403Y-60715806D02*
X46800022Y-60668187D01*
X46704784Y-59811044D02*
X46704784Y-60001520D01*
X46704784Y-60001520D02*
X46752403Y-60096758D01*
X46752403Y-60096758D02*
X46800022Y-60144377D01*
X46800022Y-60144377D02*
X46942879Y-60239615D01*
X46942879Y-60239615D02*
X47133355Y-60287234D01*
X47133355Y-60287234D02*
X47514307Y-60287234D01*
X47514307Y-60287234D02*
X47609545Y-60239615D01*
X47609545Y-60239615D02*
X47657165Y-60191996D01*
X47657165Y-60191996D02*
X47704784Y-60096758D01*
X47704784Y-60096758D02*
X47704784Y-59906282D01*
X47704784Y-59906282D02*
X47657165Y-59811044D01*
X47657165Y-59811044D02*
X47609545Y-59763425D01*
X47609545Y-59763425D02*
X47514307Y-59715806D01*
X47514307Y-59715806D02*
X47276212Y-59715806D01*
X47276212Y-59715806D02*
X47180974Y-59763425D01*
X47180974Y-59763425D02*
X47133355Y-59811044D01*
X47133355Y-59811044D02*
X47085736Y-59906282D01*
X47085736Y-59906282D02*
X47085736Y-60096758D01*
X47085736Y-60096758D02*
X47133355Y-60191996D01*
X47133355Y-60191996D02*
X47180974Y-60239615D01*
X47180974Y-60239615D02*
X47276212Y-60287234D01*
X99455074Y-117488666D02*
X98455074Y-117488666D01*
X98455074Y-117488666D02*
X98455074Y-117107714D01*
X98455074Y-117107714D02*
X98502693Y-117012476D01*
X98502693Y-117012476D02*
X98550312Y-116964857D01*
X98550312Y-116964857D02*
X98645550Y-116917238D01*
X98645550Y-116917238D02*
X98788407Y-116917238D01*
X98788407Y-116917238D02*
X98883645Y-116964857D01*
X98883645Y-116964857D02*
X98931264Y-117012476D01*
X98931264Y-117012476D02*
X98978883Y-117107714D01*
X98978883Y-117107714D02*
X98978883Y-117488666D01*
X99455074Y-115964857D02*
X99455074Y-116536285D01*
X99455074Y-116250571D02*
X98455074Y-116250571D01*
X98455074Y-116250571D02*
X98597931Y-116345809D01*
X98597931Y-116345809D02*
X98693169Y-116441047D01*
X98693169Y-116441047D02*
X98740788Y-116536285D01*
X154157200Y-97690475D02*
X154204819Y-97547618D01*
X154204819Y-97547618D02*
X154204819Y-97309523D01*
X154204819Y-97309523D02*
X154157200Y-97214285D01*
X154157200Y-97214285D02*
X154109580Y-97166666D01*
X154109580Y-97166666D02*
X154014342Y-97119047D01*
X154014342Y-97119047D02*
X153919104Y-97119047D01*
X153919104Y-97119047D02*
X153823866Y-97166666D01*
X153823866Y-97166666D02*
X153776247Y-97214285D01*
X153776247Y-97214285D02*
X153728628Y-97309523D01*
X153728628Y-97309523D02*
X153681009Y-97499999D01*
X153681009Y-97499999D02*
X153633390Y-97595237D01*
X153633390Y-97595237D02*
X153585771Y-97642856D01*
X153585771Y-97642856D02*
X153490533Y-97690475D01*
X153490533Y-97690475D02*
X153395295Y-97690475D01*
X153395295Y-97690475D02*
X153300057Y-97642856D01*
X153300057Y-97642856D02*
X153252438Y-97595237D01*
X153252438Y-97595237D02*
X153204819Y-97499999D01*
X153204819Y-97499999D02*
X153204819Y-97261904D01*
X153204819Y-97261904D02*
X153252438Y-97119047D01*
X154300057Y-96023809D02*
X154252438Y-96119047D01*
X154252438Y-96119047D02*
X154157200Y-96214285D01*
X154157200Y-96214285D02*
X154014342Y-96357142D01*
X154014342Y-96357142D02*
X153966723Y-96452380D01*
X153966723Y-96452380D02*
X153966723Y-96547618D01*
X154204819Y-96499999D02*
X154157200Y-96595237D01*
X154157200Y-96595237D02*
X154061961Y-96690475D01*
X154061961Y-96690475D02*
X153871485Y-96738094D01*
X153871485Y-96738094D02*
X153538152Y-96738094D01*
X153538152Y-96738094D02*
X153347676Y-96690475D01*
X153347676Y-96690475D02*
X153252438Y-96595237D01*
X153252438Y-96595237D02*
X153204819Y-96499999D01*
X153204819Y-96499999D02*
X153204819Y-96309523D01*
X153204819Y-96309523D02*
X153252438Y-96214285D01*
X153252438Y-96214285D02*
X153347676Y-96119047D01*
X153347676Y-96119047D02*
X153538152Y-96071428D01*
X153538152Y-96071428D02*
X153871485Y-96071428D01*
X153871485Y-96071428D02*
X154061961Y-96119047D01*
X154061961Y-96119047D02*
X154157200Y-96214285D01*
X154157200Y-96214285D02*
X154204819Y-96309523D01*
X154204819Y-96309523D02*
X154204819Y-96499999D01*
X153204819Y-95642856D02*
X154014342Y-95642856D01*
X154014342Y-95642856D02*
X154109580Y-95595237D01*
X154109580Y-95595237D02*
X154157200Y-95547618D01*
X154157200Y-95547618D02*
X154204819Y-95452380D01*
X154204819Y-95452380D02*
X154204819Y-95261904D01*
X154204819Y-95261904D02*
X154157200Y-95166666D01*
X154157200Y-95166666D02*
X154109580Y-95119047D01*
X154109580Y-95119047D02*
X154014342Y-95071428D01*
X154014342Y-95071428D02*
X153204819Y-95071428D01*
X153919104Y-94642856D02*
X153919104Y-94166666D01*
X154204819Y-94738094D02*
X153204819Y-94404761D01*
X153204819Y-94404761D02*
X154204819Y-94071428D01*
X154204819Y-93166666D02*
X153728628Y-93499999D01*
X154204819Y-93738094D02*
X153204819Y-93738094D01*
X153204819Y-93738094D02*
X153204819Y-93357142D01*
X153204819Y-93357142D02*
X153252438Y-93261904D01*
X153252438Y-93261904D02*
X153300057Y-93214285D01*
X153300057Y-93214285D02*
X153395295Y-93166666D01*
X153395295Y-93166666D02*
X153538152Y-93166666D01*
X153538152Y-93166666D02*
X153633390Y-93214285D01*
X153633390Y-93214285D02*
X153681009Y-93261904D01*
X153681009Y-93261904D02*
X153728628Y-93357142D01*
X153728628Y-93357142D02*
X153728628Y-93738094D01*
X153681009Y-92738094D02*
X153681009Y-92404761D01*
X154204819Y-92261904D02*
X154204819Y-92738094D01*
X154204819Y-92738094D02*
X153204819Y-92738094D01*
X153204819Y-92738094D02*
X153204819Y-92261904D01*
X154204819Y-91309523D02*
X154204819Y-91880951D01*
X154204819Y-91595237D02*
X153204819Y-91595237D01*
X153204819Y-91595237D02*
X153347676Y-91690475D01*
X153347676Y-91690475D02*
X153442914Y-91785713D01*
X153442914Y-91785713D02*
X153490533Y-91880951D01*
X47653183Y-77579813D02*
X47176993Y-77579813D01*
X47176993Y-77579813D02*
X47176993Y-76579813D01*
X48510326Y-77579813D02*
X47938898Y-77579813D01*
X48224612Y-77579813D02*
X48224612Y-76579813D01*
X48224612Y-76579813D02*
X48129374Y-76722670D01*
X48129374Y-76722670D02*
X48034136Y-76817908D01*
X48034136Y-76817908D02*
X47938898Y-76865527D01*
X114615037Y-93916666D02*
X114662657Y-93964285D01*
X114662657Y-93964285D02*
X114710276Y-94107142D01*
X114710276Y-94107142D02*
X114710276Y-94202380D01*
X114710276Y-94202380D02*
X114662657Y-94345237D01*
X114662657Y-94345237D02*
X114567418Y-94440475D01*
X114567418Y-94440475D02*
X114472180Y-94488094D01*
X114472180Y-94488094D02*
X114281704Y-94535713D01*
X114281704Y-94535713D02*
X114138847Y-94535713D01*
X114138847Y-94535713D02*
X113948371Y-94488094D01*
X113948371Y-94488094D02*
X113853133Y-94440475D01*
X113853133Y-94440475D02*
X113757895Y-94345237D01*
X113757895Y-94345237D02*
X113710276Y-94202380D01*
X113710276Y-94202380D02*
X113710276Y-94107142D01*
X113710276Y-94107142D02*
X113757895Y-93964285D01*
X113757895Y-93964285D02*
X113805514Y-93916666D01*
X114043609Y-93059523D02*
X114710276Y-93059523D01*
X113662657Y-93297618D02*
X114376942Y-93535713D01*
X114376942Y-93535713D02*
X114376942Y-92916666D01*
X55190349Y-106079813D02*
X54857016Y-105603622D01*
X54618921Y-106079813D02*
X54618921Y-105079813D01*
X54618921Y-105079813D02*
X54999873Y-105079813D01*
X54999873Y-105079813D02*
X55095111Y-105127432D01*
X55095111Y-105127432D02*
X55142730Y-105175051D01*
X55142730Y-105175051D02*
X55190349Y-105270289D01*
X55190349Y-105270289D02*
X55190349Y-105413146D01*
X55190349Y-105413146D02*
X55142730Y-105508384D01*
X55142730Y-105508384D02*
X55095111Y-105556003D01*
X55095111Y-105556003D02*
X54999873Y-105603622D01*
X54999873Y-105603622D02*
X54618921Y-105603622D01*
X55618921Y-106079813D02*
X55618921Y-105079813D01*
X56618920Y-105127432D02*
X56523682Y-105079813D01*
X56523682Y-105079813D02*
X56380825Y-105079813D01*
X56380825Y-105079813D02*
X56237968Y-105127432D01*
X56237968Y-105127432D02*
X56142730Y-105222670D01*
X56142730Y-105222670D02*
X56095111Y-105317908D01*
X56095111Y-105317908D02*
X56047492Y-105508384D01*
X56047492Y-105508384D02*
X56047492Y-105651241D01*
X56047492Y-105651241D02*
X56095111Y-105841717D01*
X56095111Y-105841717D02*
X56142730Y-105936955D01*
X56142730Y-105936955D02*
X56237968Y-106032194D01*
X56237968Y-106032194D02*
X56380825Y-106079813D01*
X56380825Y-106079813D02*
X56476063Y-106079813D01*
X56476063Y-106079813D02*
X56618920Y-106032194D01*
X56618920Y-106032194D02*
X56666539Y-105984574D01*
X56666539Y-105984574D02*
X56666539Y-105651241D01*
X56666539Y-105651241D02*
X56476063Y-105651241D01*
X57095111Y-106079813D02*
X57095111Y-105079813D01*
X57095111Y-105556003D02*
X57666539Y-105556003D01*
X57666539Y-106079813D02*
X57666539Y-105079813D01*
X57999873Y-105079813D02*
X58571301Y-105079813D01*
X58285587Y-106079813D02*
X58285587Y-105079813D01*
X59428444Y-106079813D02*
X58857016Y-106079813D01*
X59142730Y-106079813D02*
X59142730Y-105079813D01*
X59142730Y-105079813D02*
X59047492Y-105222670D01*
X59047492Y-105222670D02*
X58952254Y-105317908D01*
X58952254Y-105317908D02*
X58857016Y-105365527D01*
X40571428Y-106454819D02*
X40095238Y-106454819D01*
X40095238Y-106454819D02*
X40095238Y-105454819D01*
X40904762Y-105931009D02*
X41238095Y-105931009D01*
X41380952Y-106454819D02*
X40904762Y-106454819D01*
X40904762Y-106454819D02*
X40904762Y-105454819D01*
X40904762Y-105454819D02*
X41380952Y-105454819D01*
X42142857Y-105931009D02*
X41809524Y-105931009D01*
X41809524Y-106454819D02*
X41809524Y-105454819D01*
X41809524Y-105454819D02*
X42285714Y-105454819D01*
X42523810Y-105454819D02*
X43095238Y-105454819D01*
X42809524Y-106454819D02*
X42809524Y-105454819D01*
X43952381Y-106454819D02*
X43380953Y-106454819D01*
X43666667Y-106454819D02*
X43666667Y-105454819D01*
X43666667Y-105454819D02*
X43571429Y-105597676D01*
X43571429Y-105597676D02*
X43476191Y-105692914D01*
X43476191Y-105692914D02*
X43380953Y-105740533D01*
X153484574Y-106392857D02*
X153532194Y-106440476D01*
X153532194Y-106440476D02*
X153579813Y-106583333D01*
X153579813Y-106583333D02*
X153579813Y-106678571D01*
X153579813Y-106678571D02*
X153532194Y-106821428D01*
X153532194Y-106821428D02*
X153436955Y-106916666D01*
X153436955Y-106916666D02*
X153341717Y-106964285D01*
X153341717Y-106964285D02*
X153151241Y-107011904D01*
X153151241Y-107011904D02*
X153008384Y-107011904D01*
X153008384Y-107011904D02*
X152817908Y-106964285D01*
X152817908Y-106964285D02*
X152722670Y-106916666D01*
X152722670Y-106916666D02*
X152627432Y-106821428D01*
X152627432Y-106821428D02*
X152579813Y-106678571D01*
X152579813Y-106678571D02*
X152579813Y-106583333D01*
X152579813Y-106583333D02*
X152627432Y-106440476D01*
X152627432Y-106440476D02*
X152675051Y-106392857D01*
X153579813Y-105392857D02*
X153103622Y-105726190D01*
X153579813Y-105964285D02*
X152579813Y-105964285D01*
X152579813Y-105964285D02*
X152579813Y-105583333D01*
X152579813Y-105583333D02*
X152627432Y-105488095D01*
X152627432Y-105488095D02*
X152675051Y-105440476D01*
X152675051Y-105440476D02*
X152770289Y-105392857D01*
X152770289Y-105392857D02*
X152913146Y-105392857D01*
X152913146Y-105392857D02*
X153008384Y-105440476D01*
X153008384Y-105440476D02*
X153056003Y-105488095D01*
X153056003Y-105488095D02*
X153103622Y-105583333D01*
X153103622Y-105583333D02*
X153103622Y-105964285D01*
X152579813Y-104773809D02*
X152579813Y-104583333D01*
X152579813Y-104583333D02*
X152627432Y-104488095D01*
X152627432Y-104488095D02*
X152722670Y-104392857D01*
X152722670Y-104392857D02*
X152913146Y-104345238D01*
X152913146Y-104345238D02*
X153246479Y-104345238D01*
X153246479Y-104345238D02*
X153436955Y-104392857D01*
X153436955Y-104392857D02*
X153532194Y-104488095D01*
X153532194Y-104488095D02*
X153579813Y-104583333D01*
X153579813Y-104583333D02*
X153579813Y-104773809D01*
X153579813Y-104773809D02*
X153532194Y-104869047D01*
X153532194Y-104869047D02*
X153436955Y-104964285D01*
X153436955Y-104964285D02*
X153246479Y-105011904D01*
X153246479Y-105011904D02*
X152913146Y-105011904D01*
X152913146Y-105011904D02*
X152722670Y-104964285D01*
X152722670Y-104964285D02*
X152627432Y-104869047D01*
X152627432Y-104869047D02*
X152579813Y-104773809D01*
X153532194Y-103964285D02*
X153579813Y-103821428D01*
X153579813Y-103821428D02*
X153579813Y-103583333D01*
X153579813Y-103583333D02*
X153532194Y-103488095D01*
X153532194Y-103488095D02*
X153484574Y-103440476D01*
X153484574Y-103440476D02*
X153389336Y-103392857D01*
X153389336Y-103392857D02*
X153294098Y-103392857D01*
X153294098Y-103392857D02*
X153198860Y-103440476D01*
X153198860Y-103440476D02*
X153151241Y-103488095D01*
X153151241Y-103488095D02*
X153103622Y-103583333D01*
X153103622Y-103583333D02*
X153056003Y-103773809D01*
X153056003Y-103773809D02*
X153008384Y-103869047D01*
X153008384Y-103869047D02*
X152960765Y-103916666D01*
X152960765Y-103916666D02*
X152865527Y-103964285D01*
X152865527Y-103964285D02*
X152770289Y-103964285D01*
X152770289Y-103964285D02*
X152675051Y-103916666D01*
X152675051Y-103916666D02*
X152627432Y-103869047D01*
X152627432Y-103869047D02*
X152579813Y-103773809D01*
X152579813Y-103773809D02*
X152579813Y-103535714D01*
X152579813Y-103535714D02*
X152627432Y-103392857D01*
X153532194Y-103011904D02*
X153579813Y-102869047D01*
X153579813Y-102869047D02*
X153579813Y-102630952D01*
X153579813Y-102630952D02*
X153532194Y-102535714D01*
X153532194Y-102535714D02*
X153484574Y-102488095D01*
X153484574Y-102488095D02*
X153389336Y-102440476D01*
X153389336Y-102440476D02*
X153294098Y-102440476D01*
X153294098Y-102440476D02*
X153198860Y-102488095D01*
X153198860Y-102488095D02*
X153151241Y-102535714D01*
X153151241Y-102535714D02*
X153103622Y-102630952D01*
X153103622Y-102630952D02*
X153056003Y-102821428D01*
X153056003Y-102821428D02*
X153008384Y-102916666D01*
X153008384Y-102916666D02*
X152960765Y-102964285D01*
X152960765Y-102964285D02*
X152865527Y-103011904D01*
X152865527Y-103011904D02*
X152770289Y-103011904D01*
X152770289Y-103011904D02*
X152675051Y-102964285D01*
X152675051Y-102964285D02*
X152627432Y-102916666D01*
X152627432Y-102916666D02*
X152579813Y-102821428D01*
X152579813Y-102821428D02*
X152579813Y-102583333D01*
X152579813Y-102583333D02*
X152627432Y-102440476D01*
X153579813Y-101488095D02*
X153579813Y-102059523D01*
X153579813Y-101773809D02*
X152579813Y-101773809D01*
X152579813Y-101773809D02*
X152722670Y-101869047D01*
X152722670Y-101869047D02*
X152817908Y-101964285D01*
X152817908Y-101964285D02*
X152865527Y-102059523D01*
X163234574Y-96512031D02*
X163282194Y-96559650D01*
X163282194Y-96559650D02*
X163329813Y-96702507D01*
X163329813Y-96702507D02*
X163329813Y-96797745D01*
X163329813Y-96797745D02*
X163282194Y-96940602D01*
X163282194Y-96940602D02*
X163186955Y-97035840D01*
X163186955Y-97035840D02*
X163091717Y-97083459D01*
X163091717Y-97083459D02*
X162901241Y-97131078D01*
X162901241Y-97131078D02*
X162758384Y-97131078D01*
X162758384Y-97131078D02*
X162567908Y-97083459D01*
X162567908Y-97083459D02*
X162472670Y-97035840D01*
X162472670Y-97035840D02*
X162377432Y-96940602D01*
X162377432Y-96940602D02*
X162329813Y-96797745D01*
X162329813Y-96797745D02*
X162329813Y-96702507D01*
X162329813Y-96702507D02*
X162377432Y-96559650D01*
X162377432Y-96559650D02*
X162425051Y-96512031D01*
X163329813Y-96083459D02*
X162329813Y-96083459D01*
X163329813Y-95035841D02*
X162853622Y-95369174D01*
X163329813Y-95607269D02*
X162329813Y-95607269D01*
X162329813Y-95607269D02*
X162329813Y-95226317D01*
X162329813Y-95226317D02*
X162377432Y-95131079D01*
X162377432Y-95131079D02*
X162425051Y-95083460D01*
X162425051Y-95083460D02*
X162520289Y-95035841D01*
X162520289Y-95035841D02*
X162663146Y-95035841D01*
X162663146Y-95035841D02*
X162758384Y-95083460D01*
X162758384Y-95083460D02*
X162806003Y-95131079D01*
X162806003Y-95131079D02*
X162853622Y-95226317D01*
X162853622Y-95226317D02*
X162853622Y-95607269D01*
X163234574Y-94035841D02*
X163282194Y-94083460D01*
X163282194Y-94083460D02*
X163329813Y-94226317D01*
X163329813Y-94226317D02*
X163329813Y-94321555D01*
X163329813Y-94321555D02*
X163282194Y-94464412D01*
X163282194Y-94464412D02*
X163186955Y-94559650D01*
X163186955Y-94559650D02*
X163091717Y-94607269D01*
X163091717Y-94607269D02*
X162901241Y-94654888D01*
X162901241Y-94654888D02*
X162758384Y-94654888D01*
X162758384Y-94654888D02*
X162567908Y-94607269D01*
X162567908Y-94607269D02*
X162472670Y-94559650D01*
X162472670Y-94559650D02*
X162377432Y-94464412D01*
X162377432Y-94464412D02*
X162329813Y-94321555D01*
X162329813Y-94321555D02*
X162329813Y-94226317D01*
X162329813Y-94226317D02*
X162377432Y-94083460D01*
X162377432Y-94083460D02*
X162425051Y-94035841D01*
X163329813Y-93131079D02*
X163329813Y-93607269D01*
X163329813Y-93607269D02*
X162329813Y-93607269D01*
X162806003Y-92797745D02*
X162806003Y-92464412D01*
X163329813Y-92321555D02*
X163329813Y-92797745D01*
X163329813Y-92797745D02*
X162329813Y-92797745D01*
X162329813Y-92797745D02*
X162329813Y-92321555D01*
X163329813Y-91369174D02*
X163329813Y-91940602D01*
X163329813Y-91654888D02*
X162329813Y-91654888D01*
X162329813Y-91654888D02*
X162472670Y-91750126D01*
X162472670Y-91750126D02*
X162567908Y-91845364D01*
X162567908Y-91845364D02*
X162615527Y-91940602D01*
X152529775Y-65986643D02*
X152053584Y-66319976D01*
X152529775Y-66558071D02*
X151529775Y-66558071D01*
X151529775Y-66558071D02*
X151529775Y-66177119D01*
X151529775Y-66177119D02*
X151577394Y-66081881D01*
X151577394Y-66081881D02*
X151625013Y-66034262D01*
X151625013Y-66034262D02*
X151720251Y-65986643D01*
X151720251Y-65986643D02*
X151863108Y-65986643D01*
X151863108Y-65986643D02*
X151958346Y-66034262D01*
X151958346Y-66034262D02*
X152005965Y-66081881D01*
X152005965Y-66081881D02*
X152053584Y-66177119D01*
X152053584Y-66177119D02*
X152053584Y-66558071D01*
X152529775Y-65034262D02*
X152529775Y-65605690D01*
X152529775Y-65319976D02*
X151529775Y-65319976D01*
X151529775Y-65319976D02*
X151672632Y-65415214D01*
X151672632Y-65415214D02*
X151767870Y-65510452D01*
X151767870Y-65510452D02*
X151815489Y-65605690D01*
X141180038Y-70167173D02*
X141227658Y-70214792D01*
X141227658Y-70214792D02*
X141275277Y-70357649D01*
X141275277Y-70357649D02*
X141275277Y-70452887D01*
X141275277Y-70452887D02*
X141227658Y-70595744D01*
X141227658Y-70595744D02*
X141132419Y-70690982D01*
X141132419Y-70690982D02*
X141037181Y-70738601D01*
X141037181Y-70738601D02*
X140846705Y-70786220D01*
X140846705Y-70786220D02*
X140703848Y-70786220D01*
X140703848Y-70786220D02*
X140513372Y-70738601D01*
X140513372Y-70738601D02*
X140418134Y-70690982D01*
X140418134Y-70690982D02*
X140322896Y-70595744D01*
X140322896Y-70595744D02*
X140275277Y-70452887D01*
X140275277Y-70452887D02*
X140275277Y-70357649D01*
X140275277Y-70357649D02*
X140322896Y-70214792D01*
X140322896Y-70214792D02*
X140370515Y-70167173D01*
X140275277Y-69833839D02*
X140275277Y-69167173D01*
X140275277Y-69167173D02*
X141275277Y-69595744D01*
X48237968Y-97579813D02*
X48237968Y-98389336D01*
X48237968Y-98389336D02*
X48285587Y-98484574D01*
X48285587Y-98484574D02*
X48333206Y-98532194D01*
X48333206Y-98532194D02*
X48428444Y-98579813D01*
X48428444Y-98579813D02*
X48618920Y-98579813D01*
X48618920Y-98579813D02*
X48714158Y-98532194D01*
X48714158Y-98532194D02*
X48761777Y-98484574D01*
X48761777Y-98484574D02*
X48809396Y-98389336D01*
X48809396Y-98389336D02*
X48809396Y-97579813D01*
X49285587Y-98579813D02*
X49285587Y-97579813D01*
X49285587Y-97579813D02*
X49666539Y-97579813D01*
X49666539Y-97579813D02*
X49761777Y-97627432D01*
X49761777Y-97627432D02*
X49809396Y-97675051D01*
X49809396Y-97675051D02*
X49857015Y-97770289D01*
X49857015Y-97770289D02*
X49857015Y-97913146D01*
X49857015Y-97913146D02*
X49809396Y-98008384D01*
X49809396Y-98008384D02*
X49761777Y-98056003D01*
X49761777Y-98056003D02*
X49666539Y-98103622D01*
X49666539Y-98103622D02*
X49285587Y-98103622D01*
X50809396Y-98579813D02*
X50237968Y-98579813D01*
X50523682Y-98579813D02*
X50523682Y-97579813D01*
X50523682Y-97579813D02*
X50428444Y-97722670D01*
X50428444Y-97722670D02*
X50333206Y-97817908D01*
X50333206Y-97817908D02*
X50237968Y-97865527D01*
X152329813Y-88309650D02*
X152329813Y-87738222D01*
X153329813Y-88023936D02*
X152329813Y-88023936D01*
X153329813Y-86833460D02*
X152853622Y-87166793D01*
X153329813Y-87404888D02*
X152329813Y-87404888D01*
X152329813Y-87404888D02*
X152329813Y-87023936D01*
X152329813Y-87023936D02*
X152377432Y-86928698D01*
X152377432Y-86928698D02*
X152425051Y-86881079D01*
X152425051Y-86881079D02*
X152520289Y-86833460D01*
X152520289Y-86833460D02*
X152663146Y-86833460D01*
X152663146Y-86833460D02*
X152758384Y-86881079D01*
X152758384Y-86881079D02*
X152806003Y-86928698D01*
X152806003Y-86928698D02*
X152853622Y-87023936D01*
X152853622Y-87023936D02*
X152853622Y-87404888D01*
X153329813Y-86404888D02*
X152329813Y-86404888D01*
X153044098Y-85976317D02*
X153044098Y-85500127D01*
X153329813Y-86071555D02*
X152329813Y-85738222D01*
X152329813Y-85738222D02*
X153329813Y-85404889D01*
X153329813Y-85071555D02*
X152329813Y-85071555D01*
X152329813Y-85071555D02*
X153329813Y-84500127D01*
X153329813Y-84500127D02*
X152329813Y-84500127D01*
X152377432Y-83500127D02*
X152329813Y-83595365D01*
X152329813Y-83595365D02*
X152329813Y-83738222D01*
X152329813Y-83738222D02*
X152377432Y-83881079D01*
X152377432Y-83881079D02*
X152472670Y-83976317D01*
X152472670Y-83976317D02*
X152567908Y-84023936D01*
X152567908Y-84023936D02*
X152758384Y-84071555D01*
X152758384Y-84071555D02*
X152901241Y-84071555D01*
X152901241Y-84071555D02*
X153091717Y-84023936D01*
X153091717Y-84023936D02*
X153186955Y-83976317D01*
X153186955Y-83976317D02*
X153282194Y-83881079D01*
X153282194Y-83881079D02*
X153329813Y-83738222D01*
X153329813Y-83738222D02*
X153329813Y-83642984D01*
X153329813Y-83642984D02*
X153282194Y-83500127D01*
X153282194Y-83500127D02*
X153234574Y-83452508D01*
X153234574Y-83452508D02*
X152901241Y-83452508D01*
X152901241Y-83452508D02*
X152901241Y-83642984D01*
X153329813Y-82547746D02*
X153329813Y-83023936D01*
X153329813Y-83023936D02*
X152329813Y-83023936D01*
X152806003Y-82214412D02*
X152806003Y-81881079D01*
X153329813Y-81738222D02*
X153329813Y-82214412D01*
X153329813Y-82214412D02*
X152329813Y-82214412D01*
X152329813Y-82214412D02*
X152329813Y-81738222D01*
X153329813Y-80785841D02*
X153329813Y-81357269D01*
X153329813Y-81071555D02*
X152329813Y-81071555D01*
X152329813Y-81071555D02*
X152472670Y-81166793D01*
X152472670Y-81166793D02*
X152567908Y-81262031D01*
X152567908Y-81262031D02*
X152615527Y-81357269D01*
X47142730Y-114454819D02*
X47142730Y-113454819D01*
X47142730Y-113454819D02*
X47380825Y-113454819D01*
X47380825Y-113454819D02*
X47523682Y-113502438D01*
X47523682Y-113502438D02*
X47618920Y-113597676D01*
X47618920Y-113597676D02*
X47666539Y-113692914D01*
X47666539Y-113692914D02*
X47714158Y-113883390D01*
X47714158Y-113883390D02*
X47714158Y-114026247D01*
X47714158Y-114026247D02*
X47666539Y-114216723D01*
X47666539Y-114216723D02*
X47618920Y-114311961D01*
X47618920Y-114311961D02*
X47523682Y-114407200D01*
X47523682Y-114407200D02*
X47380825Y-114454819D01*
X47380825Y-114454819D02*
X47142730Y-114454819D01*
X48333206Y-113454819D02*
X48523682Y-113454819D01*
X48523682Y-113454819D02*
X48618920Y-113502438D01*
X48618920Y-113502438D02*
X48714158Y-113597676D01*
X48714158Y-113597676D02*
X48761777Y-113788152D01*
X48761777Y-113788152D02*
X48761777Y-114121485D01*
X48761777Y-114121485D02*
X48714158Y-114311961D01*
X48714158Y-114311961D02*
X48618920Y-114407200D01*
X48618920Y-114407200D02*
X48523682Y-114454819D01*
X48523682Y-114454819D02*
X48333206Y-114454819D01*
X48333206Y-114454819D02*
X48237968Y-114407200D01*
X48237968Y-114407200D02*
X48142730Y-114311961D01*
X48142730Y-114311961D02*
X48095111Y-114121485D01*
X48095111Y-114121485D02*
X48095111Y-113788152D01*
X48095111Y-113788152D02*
X48142730Y-113597676D01*
X48142730Y-113597676D02*
X48237968Y-113502438D01*
X48237968Y-113502438D02*
X48333206Y-113454819D01*
X49095111Y-113454819D02*
X49333206Y-114454819D01*
X49333206Y-114454819D02*
X49523682Y-113740533D01*
X49523682Y-113740533D02*
X49714158Y-114454819D01*
X49714158Y-114454819D02*
X49952254Y-113454819D01*
X50333206Y-114454819D02*
X50333206Y-113454819D01*
X50333206Y-113454819D02*
X50904634Y-114454819D01*
X50904634Y-114454819D02*
X50904634Y-113454819D01*
X51904634Y-114454819D02*
X51333206Y-114454819D01*
X51618920Y-114454819D02*
X51618920Y-113454819D01*
X51618920Y-113454819D02*
X51523682Y-113597676D01*
X51523682Y-113597676D02*
X51428444Y-113692914D01*
X51428444Y-113692914D02*
X51333206Y-113740533D01*
D11*
%TO.C,C6*%
X51249507Y-57251014D02*
X48999507Y-57251014D01*
X51249507Y-65751014D02*
X48999507Y-65751014D01*
D12*
X48999507Y-57251014D02*
X48999507Y-65751014D01*
D13*
%TO.C,P1*%
X97000255Y-113250572D02*
X93250191Y-113250572D01*
X93250191Y-113250572D02*
X93250191Y-120250572D01*
X97000255Y-113350394D02*
X97000255Y-120150496D01*
X97000255Y-114000381D02*
X95750318Y-114000381D01*
X95750318Y-114000381D02*
X95750318Y-119500508D01*
X94750318Y-114250572D02*
X93500128Y-114250572D01*
X94750318Y-114250572D02*
X94750318Y-119250572D01*
X94234037Y-114797562D02*
X93249835Y-114500559D01*
X93250064Y-115250572D02*
X94234037Y-114797562D01*
X94750318Y-119250572D02*
X93500128Y-119250572D01*
X95750318Y-119500508D02*
X97000255Y-119500508D01*
X97000255Y-120250572D02*
X93250191Y-120250572D01*
D14*
X96830125Y-113399950D02*
G75*
G02*
X96770131Y-113399950I-29997J0D01*
G01*
X96770131Y-113399950D02*
G75*
G02*
X96830125Y-113399950I29997J0D01*
G01*
%TO.C,SQUARE1*%
X145405118Y-97700000D02*
G75*
G02*
X145345124Y-97700000I-29997J0D01*
G01*
X145345124Y-97700000D02*
G75*
G02*
X145405118Y-97700000I29997J0D01*
G01*
%TO.C,L1*%
X44649847Y-79125121D02*
G75*
G02*
X44589853Y-79125121I-29997J0D01*
G01*
X44589853Y-79125121D02*
G75*
G02*
X44649847Y-79125121I29997J0D01*
G01*
D12*
%TO.C,C4*%
X107895000Y-96999493D02*
X107895915Y-89500000D01*
X112255000Y-96999493D02*
X112255915Y-89500000D01*
X112255915Y-89500000D02*
X107895915Y-89500000D01*
X112255000Y-96999493D02*
X107895000Y-96999493D01*
D14*
%TO.C,RIGHT1*%
X53829870Y-107625121D02*
G75*
G02*
X53769876Y-107625121I-29997J0D01*
G01*
X53769876Y-107625121D02*
G75*
G02*
X53829870Y-107625121I29997J0D01*
G01*
D12*
%TO.C,C3*%
X159319085Y-122000000D02*
X163679085Y-122000000D01*
X159320000Y-117500000D02*
X159319085Y-122000000D01*
X159320000Y-117500000D02*
X163680000Y-117500000D01*
X163680000Y-117500000D02*
X163679085Y-122000000D01*
D14*
%TO.C,LEFT1*%
X45229870Y-112874879D02*
G75*
G02*
X45169876Y-112874879I-29997J0D01*
G01*
X45169876Y-112874879D02*
G75*
G02*
X45229870Y-112874879I29997J0D01*
G01*
%TO.C,CROSS1*%
X155155118Y-107450000D02*
G75*
G02*
X155095124Y-107450000I-29997J0D01*
G01*
X155095124Y-107450000D02*
G75*
G02*
X155155118Y-107450000I29997J0D01*
G01*
%TO.C,CIRCLE1*%
X164905118Y-97450127D02*
G75*
G02*
X164845124Y-97450127I-29997J0D01*
G01*
X164845124Y-97450127D02*
G75*
G02*
X164905118Y-97450127I29997J0D01*
G01*
%TO.C,R1*%
X154105080Y-69019977D02*
G75*
G02*
X154045086Y-69019977I-29997J0D01*
G01*
X154045086Y-69019977D02*
G75*
G02*
X154105080Y-69019977I29997J0D01*
G01*
D15*
%TO.C,G\u002A\u002A\u002A*%
G36*
X122678571Y-128285582D02*
G01*
X122678571Y-128403174D01*
X121284259Y-128403174D01*
X119889947Y-128403174D01*
X119889947Y-129343915D01*
X119889947Y-130284656D01*
X121284259Y-130284656D01*
X122678571Y-130284656D01*
X122678571Y-130385450D01*
X122678571Y-130486243D01*
X121183465Y-130486243D01*
X119688359Y-130486243D01*
X119688359Y-129327116D01*
X119688359Y-128167989D01*
X121183465Y-128167989D01*
X122678571Y-128167989D01*
X122678571Y-128285582D01*
G37*
G36*
X125467195Y-129696693D02*
G01*
X125467195Y-130486243D01*
X124324867Y-130486243D01*
X123182539Y-130486243D01*
X123182539Y-130049471D01*
X123182539Y-129612698D01*
X123283333Y-129612698D01*
X123384127Y-129612698D01*
X123384127Y-129948677D01*
X123384127Y-130284656D01*
X124324867Y-130284656D01*
X125265608Y-130284656D01*
X125265608Y-129696693D01*
X125265608Y-129108730D01*
X124224074Y-129108730D01*
X123182539Y-129108730D01*
X123182539Y-129007936D01*
X123182539Y-128907143D01*
X124324867Y-128907143D01*
X125467195Y-128907143D01*
X125467195Y-129696693D01*
G37*
G36*
X128255820Y-129696693D02*
G01*
X128255820Y-130486243D01*
X128138227Y-130486243D01*
X128020635Y-130486243D01*
X128020635Y-129797487D01*
X128020635Y-129108730D01*
X126995899Y-129108730D01*
X125971164Y-129108730D01*
X125971164Y-129007936D01*
X125971164Y-128907143D01*
X127113492Y-128907143D01*
X128255820Y-128907143D01*
X128255820Y-129696693D01*
G37*
G36*
X131010846Y-130049471D02*
G01*
X131010846Y-130486243D01*
X129868518Y-130486243D01*
X128726190Y-130486243D01*
X128726190Y-130385450D01*
X128726190Y-130284656D01*
X129767724Y-130284656D01*
X130809259Y-130284656D01*
X130809259Y-129948677D01*
X130809259Y-129612698D01*
X130910053Y-129612698D01*
X131010846Y-129612698D01*
X131010846Y-130049471D01*
G37*
G36*
X133799470Y-129696693D02*
G01*
X133799470Y-130486243D01*
X132657142Y-130486243D01*
X131514814Y-130486243D01*
X131514814Y-130049471D01*
X131514814Y-129612698D01*
X131598809Y-129612698D01*
X131682804Y-129612698D01*
X131682804Y-129948677D01*
X131682804Y-130284656D01*
X132623545Y-130284656D01*
X133564285Y-130284656D01*
X133564285Y-129696693D01*
X133564285Y-129108730D01*
X132539550Y-129108730D01*
X131514814Y-129108730D01*
X131514814Y-129007936D01*
X131514814Y-128907143D01*
X132657142Y-128907143D01*
X133799470Y-128907143D01*
X133799470Y-129696693D01*
G37*
G36*
X136218518Y-129948677D02*
G01*
X136218518Y-130284656D01*
X137276851Y-130284656D01*
X138335185Y-130284656D01*
X138335185Y-130385450D01*
X138335185Y-130486243D01*
X137192857Y-130486243D01*
X136050529Y-130486243D01*
X136050529Y-130049471D01*
X136050529Y-129612698D01*
X136134523Y-129612698D01*
X136218518Y-129612698D01*
X136218518Y-129948677D01*
G37*
G36*
X141090211Y-129343915D02*
G01*
X141090211Y-129780688D01*
X140468650Y-129780688D01*
X139847090Y-129780688D01*
X139847090Y-129680769D01*
X139847090Y-129580851D01*
X140359457Y-129571576D01*
X140871825Y-129562301D01*
X140881760Y-129335516D01*
X140891694Y-129108730D01*
X139949418Y-129108730D01*
X139007142Y-129108730D01*
X139007142Y-129696693D01*
X139007142Y-130284656D01*
X140048677Y-130284656D01*
X141090211Y-130284656D01*
X141090211Y-130385450D01*
X141090211Y-130486243D01*
X139947883Y-130486243D01*
X138805555Y-130486243D01*
X138805555Y-129696693D01*
X138805555Y-128907143D01*
X139947883Y-128907143D01*
X141090211Y-128907143D01*
X141090211Y-129343915D01*
G37*
G36*
X143878836Y-129007936D02*
G01*
X143878836Y-129108730D01*
X142820502Y-129108730D01*
X141762169Y-129108730D01*
X141762169Y-129797487D01*
X141762169Y-130486243D01*
X141678174Y-130486243D01*
X141594179Y-130486243D01*
X141594179Y-129696693D01*
X141594179Y-128907143D01*
X142736508Y-128907143D01*
X143878836Y-128907143D01*
X143878836Y-129007936D01*
G37*
G36*
X126139153Y-130032672D02*
G01*
X126139153Y-130452645D01*
X126055158Y-130452645D01*
X125971164Y-130452645D01*
X125971164Y-130032672D01*
X125971164Y-129612698D01*
X126055158Y-129612698D01*
X126139153Y-129612698D01*
X126139153Y-130032672D01*
G37*
G36*
X134807407Y-129310317D02*
G01*
X134807407Y-130452645D01*
X134706613Y-130452645D01*
X134605820Y-130452645D01*
X134605820Y-129427910D01*
X134605820Y-128403174D01*
X134437830Y-128403174D01*
X134269841Y-128403174D01*
X134269841Y-128285582D01*
X134269841Y-128167989D01*
X134538624Y-128167989D01*
X134807407Y-128167989D01*
X134807407Y-129310317D01*
G37*
G36*
X135512963Y-129679894D02*
G01*
X135512963Y-130452645D01*
X135412169Y-130452645D01*
X135311375Y-130452645D01*
X135311375Y-129679894D01*
X135311375Y-128907143D01*
X135412169Y-128907143D01*
X135512963Y-128907143D01*
X135512963Y-129679894D01*
G37*
G36*
X131010846Y-129007936D02*
G01*
X131010846Y-129108730D01*
X129969312Y-129108730D01*
X128927777Y-129108730D01*
X128927777Y-129444709D01*
X128927777Y-129780688D01*
X128826984Y-129780688D01*
X128726190Y-129780688D01*
X128726190Y-129343915D01*
X128726190Y-128907143D01*
X129868518Y-128907143D01*
X131010846Y-128907143D01*
X131010846Y-129007936D01*
G37*
G36*
X138335185Y-129343915D02*
G01*
X138335185Y-129780688D01*
X138217592Y-129780688D01*
X138100000Y-129780688D01*
X138100000Y-129444709D01*
X138100000Y-129108730D01*
X137075264Y-129108730D01*
X136050529Y-129108730D01*
X136050529Y-129007936D01*
X136050529Y-128907143D01*
X137192857Y-128907143D01*
X138335185Y-128907143D01*
X138335185Y-129343915D01*
G37*
G36*
X135479888Y-128174545D02*
G01*
X135507664Y-128207795D01*
X135512963Y-128285582D01*
X135507344Y-128364588D01*
X135478844Y-128396993D01*
X135412169Y-128403174D01*
X135344450Y-128396619D01*
X135316674Y-128363369D01*
X135311375Y-128285582D01*
X135316994Y-128206576D01*
X135345494Y-128174171D01*
X135412169Y-128167989D01*
X135479888Y-128174545D01*
G37*
G36*
X122678571Y-126152116D02*
G01*
X122678571Y-126790476D01*
X121284259Y-126790476D01*
X119889947Y-126790476D01*
X119889947Y-127311243D01*
X119889947Y-127832010D01*
X119811552Y-127832010D01*
X119740992Y-127823326D01*
X119710758Y-127809612D01*
X119703543Y-127770316D01*
X119697294Y-127675016D01*
X119692415Y-127534898D01*
X119689307Y-127361153D01*
X119688359Y-127188051D01*
X119688359Y-126588889D01*
X121082672Y-126588889D01*
X122476984Y-126588889D01*
X122476984Y-126168915D01*
X122476984Y-125748942D01*
X121082672Y-125748942D01*
X119688359Y-125748942D01*
X119688359Y-125631349D01*
X119688359Y-125513757D01*
X121183465Y-125513757D01*
X122678571Y-125513757D01*
X122678571Y-126152116D01*
G37*
G36*
X126139153Y-125631349D02*
G01*
X126139153Y-125748942D01*
X125450396Y-125748942D01*
X124761640Y-125748942D01*
X124761640Y-126790476D01*
X124761640Y-127832010D01*
X123972090Y-127832010D01*
X123182539Y-127832010D01*
X123182539Y-127731898D01*
X123182539Y-127631786D01*
X123879695Y-127622705D01*
X124576851Y-127613624D01*
X124585730Y-126563690D01*
X124594608Y-125513757D01*
X125366880Y-125513757D01*
X126139153Y-125513757D01*
X126139153Y-125631349D01*
G37*
G36*
X129633333Y-126151744D02*
G01*
X129633333Y-126789731D01*
X128247420Y-126798503D01*
X126861508Y-126807275D01*
X126852233Y-127319643D01*
X126842958Y-127832010D01*
X126759839Y-127832010D01*
X126676719Y-127832010D01*
X126676719Y-127210822D01*
X126676719Y-126589634D01*
X128062632Y-126580862D01*
X129448545Y-126572090D01*
X129457978Y-126160516D01*
X129467412Y-125748942D01*
X128072065Y-125748942D01*
X126676719Y-125748942D01*
X126676719Y-125631349D01*
X126676719Y-125513757D01*
X128155026Y-125513757D01*
X129633333Y-125513757D01*
X129633333Y-126151744D01*
G37*
D12*
%TO.C,C7*%
X147180915Y-67001014D02*
X147180000Y-72500000D01*
X142820000Y-72500000D02*
X147180000Y-72500000D01*
X142820915Y-67001014D02*
X142820000Y-72500000D01*
X142820915Y-67001014D02*
X147180915Y-67001014D01*
D14*
%TO.C,UP1*%
X46329870Y-100125121D02*
G75*
G02*
X46269876Y-100125121I-29997J0D01*
G01*
X46269876Y-100125121D02*
G75*
G02*
X46329870Y-100125121I29997J0D01*
G01*
%TO.C,TRIANGLE1*%
X154905118Y-87700127D02*
G75*
G02*
X154845124Y-87700127I-29997J0D01*
G01*
X154845124Y-87700127D02*
G75*
G02*
X154905118Y-87700127I29997J0D01*
G01*
%TO.C,DOWN1*%
X46329870Y-115125121D02*
G75*
G02*
X46269876Y-115125121I-29997J0D01*
G01*
X46269876Y-115125121D02*
G75*
G02*
X46329870Y-115125121I29997J0D01*
G01*
D15*
%TO.C,G\u002A\u002A\u002A*%
G36*
X89678571Y-105285582D02*
G01*
X89678571Y-105403174D01*
X88284259Y-105403174D01*
X86889947Y-105403174D01*
X86889947Y-106343915D01*
X86889947Y-107284656D01*
X88284259Y-107284656D01*
X89678571Y-107284656D01*
X89678571Y-107385450D01*
X89678571Y-107486243D01*
X88183465Y-107486243D01*
X86688359Y-107486243D01*
X86688359Y-106327116D01*
X86688359Y-105167989D01*
X88183465Y-105167989D01*
X89678571Y-105167989D01*
X89678571Y-105285582D01*
G37*
G36*
X92467195Y-106696693D02*
G01*
X92467195Y-107486243D01*
X91324867Y-107486243D01*
X90182539Y-107486243D01*
X90182539Y-107049471D01*
X90182539Y-106612698D01*
X90283333Y-106612698D01*
X90384127Y-106612698D01*
X90384127Y-106948677D01*
X90384127Y-107284656D01*
X91324867Y-107284656D01*
X92265608Y-107284656D01*
X92265608Y-106696693D01*
X92265608Y-106108730D01*
X91224074Y-106108730D01*
X90182539Y-106108730D01*
X90182539Y-106007936D01*
X90182539Y-105907143D01*
X91324867Y-105907143D01*
X92467195Y-105907143D01*
X92467195Y-106696693D01*
G37*
G36*
X95255820Y-106696693D02*
G01*
X95255820Y-107486243D01*
X95138227Y-107486243D01*
X95020635Y-107486243D01*
X95020635Y-106797487D01*
X95020635Y-106108730D01*
X93995899Y-106108730D01*
X92971164Y-106108730D01*
X92971164Y-106007936D01*
X92971164Y-105907143D01*
X94113492Y-105907143D01*
X95255820Y-105907143D01*
X95255820Y-106696693D01*
G37*
G36*
X98010846Y-107049471D02*
G01*
X98010846Y-107486243D01*
X96868518Y-107486243D01*
X95726190Y-107486243D01*
X95726190Y-107385450D01*
X95726190Y-107284656D01*
X96767724Y-107284656D01*
X97809259Y-107284656D01*
X97809259Y-106948677D01*
X97809259Y-106612698D01*
X97910053Y-106612698D01*
X98010846Y-106612698D01*
X98010846Y-107049471D01*
G37*
G36*
X100799470Y-106696693D02*
G01*
X100799470Y-107486243D01*
X99657142Y-107486243D01*
X98514814Y-107486243D01*
X98514814Y-107049471D01*
X98514814Y-106612698D01*
X98598809Y-106612698D01*
X98682804Y-106612698D01*
X98682804Y-106948677D01*
X98682804Y-107284656D01*
X99623545Y-107284656D01*
X100564285Y-107284656D01*
X100564285Y-106696693D01*
X100564285Y-106108730D01*
X99539550Y-106108730D01*
X98514814Y-106108730D01*
X98514814Y-106007936D01*
X98514814Y-105907143D01*
X99657142Y-105907143D01*
X100799470Y-105907143D01*
X100799470Y-106696693D01*
G37*
G36*
X103218518Y-106948677D02*
G01*
X103218518Y-107284656D01*
X104276851Y-107284656D01*
X105335185Y-107284656D01*
X105335185Y-107385450D01*
X105335185Y-107486243D01*
X104192857Y-107486243D01*
X103050529Y-107486243D01*
X103050529Y-107049471D01*
X103050529Y-106612698D01*
X103134523Y-106612698D01*
X103218518Y-106612698D01*
X103218518Y-106948677D01*
G37*
G36*
X108090211Y-106343915D02*
G01*
X108090211Y-106780688D01*
X107468650Y-106780688D01*
X106847090Y-106780688D01*
X106847090Y-106680769D01*
X106847090Y-106580851D01*
X107359457Y-106571576D01*
X107871825Y-106562301D01*
X107881760Y-106335516D01*
X107891694Y-106108730D01*
X106949418Y-106108730D01*
X106007142Y-106108730D01*
X106007142Y-106696693D01*
X106007142Y-107284656D01*
X107048677Y-107284656D01*
X108090211Y-107284656D01*
X108090211Y-107385450D01*
X108090211Y-107486243D01*
X106947883Y-107486243D01*
X105805555Y-107486243D01*
X105805555Y-106696693D01*
X105805555Y-105907143D01*
X106947883Y-105907143D01*
X108090211Y-105907143D01*
X108090211Y-106343915D01*
G37*
G36*
X110878836Y-106007936D02*
G01*
X110878836Y-106108730D01*
X109820502Y-106108730D01*
X108762169Y-106108730D01*
X108762169Y-106797487D01*
X108762169Y-107486243D01*
X108678174Y-107486243D01*
X108594179Y-107486243D01*
X108594179Y-106696693D01*
X108594179Y-105907143D01*
X109736508Y-105907143D01*
X110878836Y-105907143D01*
X110878836Y-106007936D01*
G37*
G36*
X93139153Y-107032672D02*
G01*
X93139153Y-107452645D01*
X93055158Y-107452645D01*
X92971164Y-107452645D01*
X92971164Y-107032672D01*
X92971164Y-106612698D01*
X93055158Y-106612698D01*
X93139153Y-106612698D01*
X93139153Y-107032672D01*
G37*
G36*
X101807407Y-106310317D02*
G01*
X101807407Y-107452645D01*
X101706613Y-107452645D01*
X101605820Y-107452645D01*
X101605820Y-106427910D01*
X101605820Y-105403174D01*
X101437830Y-105403174D01*
X101269841Y-105403174D01*
X101269841Y-105285582D01*
X101269841Y-105167989D01*
X101538624Y-105167989D01*
X101807407Y-105167989D01*
X101807407Y-106310317D01*
G37*
G36*
X102512963Y-106679894D02*
G01*
X102512963Y-107452645D01*
X102412169Y-107452645D01*
X102311375Y-107452645D01*
X102311375Y-106679894D01*
X102311375Y-105907143D01*
X102412169Y-105907143D01*
X102512963Y-105907143D01*
X102512963Y-106679894D01*
G37*
G36*
X98010846Y-106007936D02*
G01*
X98010846Y-106108730D01*
X96969312Y-106108730D01*
X95927777Y-106108730D01*
X95927777Y-106444709D01*
X95927777Y-106780688D01*
X95826984Y-106780688D01*
X95726190Y-106780688D01*
X95726190Y-106343915D01*
X95726190Y-105907143D01*
X96868518Y-105907143D01*
X98010846Y-105907143D01*
X98010846Y-106007936D01*
G37*
G36*
X105335185Y-106343915D02*
G01*
X105335185Y-106780688D01*
X105217592Y-106780688D01*
X105100000Y-106780688D01*
X105100000Y-106444709D01*
X105100000Y-106108730D01*
X104075264Y-106108730D01*
X103050529Y-106108730D01*
X103050529Y-106007936D01*
X103050529Y-105907143D01*
X104192857Y-105907143D01*
X105335185Y-105907143D01*
X105335185Y-106343915D01*
G37*
G36*
X102479888Y-105174545D02*
G01*
X102507664Y-105207795D01*
X102512963Y-105285582D01*
X102507344Y-105364588D01*
X102478844Y-105396993D01*
X102412169Y-105403174D01*
X102344450Y-105396619D01*
X102316674Y-105363369D01*
X102311375Y-105285582D01*
X102316994Y-105206576D01*
X102345494Y-105174171D01*
X102412169Y-105167989D01*
X102479888Y-105174545D01*
G37*
G36*
X89678571Y-103152116D02*
G01*
X89678571Y-103790476D01*
X88284259Y-103790476D01*
X86889947Y-103790476D01*
X86889947Y-104311243D01*
X86889947Y-104832010D01*
X86811552Y-104832010D01*
X86740992Y-104823326D01*
X86710758Y-104809612D01*
X86703543Y-104770316D01*
X86697294Y-104675016D01*
X86692415Y-104534898D01*
X86689307Y-104361153D01*
X86688359Y-104188051D01*
X86688359Y-103588889D01*
X88082672Y-103588889D01*
X89476984Y-103588889D01*
X89476984Y-103168915D01*
X89476984Y-102748942D01*
X88082672Y-102748942D01*
X86688359Y-102748942D01*
X86688359Y-102631349D01*
X86688359Y-102513757D01*
X88183465Y-102513757D01*
X89678571Y-102513757D01*
X89678571Y-103152116D01*
G37*
G36*
X93139153Y-102631349D02*
G01*
X93139153Y-102748942D01*
X92450396Y-102748942D01*
X91761640Y-102748942D01*
X91761640Y-103790476D01*
X91761640Y-104832010D01*
X90972090Y-104832010D01*
X90182539Y-104832010D01*
X90182539Y-104731898D01*
X90182539Y-104631786D01*
X90879695Y-104622705D01*
X91576851Y-104613624D01*
X91585730Y-103563690D01*
X91594608Y-102513757D01*
X92366880Y-102513757D01*
X93139153Y-102513757D01*
X93139153Y-102631349D01*
G37*
G36*
X96633333Y-103151744D02*
G01*
X96633333Y-103789731D01*
X95247420Y-103798503D01*
X93861508Y-103807275D01*
X93852233Y-104319643D01*
X93842958Y-104832010D01*
X93759839Y-104832010D01*
X93676719Y-104832010D01*
X93676719Y-104210822D01*
X93676719Y-103589634D01*
X95062632Y-103580862D01*
X96448545Y-103572090D01*
X96457978Y-103160516D01*
X96467412Y-102748942D01*
X95072065Y-102748942D01*
X93676719Y-102748942D01*
X93676719Y-102631349D01*
X93676719Y-102513757D01*
X95155026Y-102513757D01*
X96633333Y-102513757D01*
X96633333Y-103151744D01*
G37*
D12*
%TO.C,C1*%
X159250000Y-125250000D02*
X159250000Y-130750000D01*
%TO.C,C2*%
X70500000Y-119250000D02*
X76000000Y-119250000D01*
%TO.C,C8*%
X90750000Y-119500000D02*
X90750000Y-114000000D01*
%TD*%
%LPC*%
%TO.C,SQUARE1*%
D16*
X149355000Y-94500000D02*
G75*
G02*
X146645000Y-94500000I-1355000J0D01*
G01*
X146645000Y-94500000D02*
G75*
G02*
X149355000Y-94500000I1355000J0D01*
G01*
%TO.C,L1*%
X49174850Y-81750000D02*
G75*
G02*
X46464850Y-81750000I-1355000J0D01*
G01*
X46464850Y-81750000D02*
G75*
G02*
X49174850Y-81750000I1355000J0D01*
G01*
%TO.C,RIGHT1*%
X58354873Y-110250000D02*
G75*
G02*
X55644873Y-110250000I-1355000J0D01*
G01*
X55644873Y-110250000D02*
G75*
G02*
X58354873Y-110250000I1355000J0D01*
G01*
%TO.C,LEFT1*%
X43354873Y-110250000D02*
G75*
G02*
X40644873Y-110250000I-1355000J0D01*
G01*
X40644873Y-110250000D02*
G75*
G02*
X43354873Y-110250000I1355000J0D01*
G01*
%TO.C,CROSS1*%
X159105000Y-104250000D02*
G75*
G02*
X156395000Y-104250000I-1355000J0D01*
G01*
X156395000Y-104250000D02*
G75*
G02*
X159105000Y-104250000I1355000J0D01*
G01*
%TO.C,CIRCLE1*%
X168855000Y-94250127D02*
G75*
G02*
X166145000Y-94250127I-1355000J0D01*
G01*
X166145000Y-94250127D02*
G75*
G02*
X168855000Y-94250127I1355000J0D01*
G01*
%TO.C,R1*%
X158054962Y-65819977D02*
G75*
G02*
X155344962Y-65819977I-1355000J0D01*
G01*
X155344962Y-65819977D02*
G75*
G02*
X158054962Y-65819977I1355000J0D01*
G01*
%TO.C,UP1*%
X50854873Y-102750000D02*
G75*
G02*
X48144873Y-102750000I-1355000J0D01*
G01*
X48144873Y-102750000D02*
G75*
G02*
X50854873Y-102750000I1355000J0D01*
G01*
%TO.C,TRIANGLE1*%
X158855000Y-84500127D02*
G75*
G02*
X156145000Y-84500127I-1355000J0D01*
G01*
X156145000Y-84500127D02*
G75*
G02*
X158855000Y-84500127I1355000J0D01*
G01*
%TO.C,DOWN1*%
X50854873Y-117750000D02*
G75*
G02*
X48144873Y-117750000I-1355000J0D01*
G01*
X48144873Y-117750000D02*
G75*
G02*
X50854873Y-117750000I1355000J0D01*
G01*
%TD*%
D17*
%TO.C,C6*%
X50124507Y-58501014D03*
X50124507Y-60501014D03*
X50124507Y-62501014D03*
X50124507Y-64501014D03*
%TD*%
D18*
%TO.C,P1*%
X96500128Y-114501017D03*
X96500128Y-115001144D03*
X96500128Y-115501017D03*
X96500128Y-116001144D03*
X96500128Y-116501017D03*
X96500128Y-117001144D03*
X96500128Y-117501017D03*
X96500128Y-118001144D03*
X96500128Y-118501017D03*
X96500128Y-119000636D03*
D19*
X94000000Y-113700661D03*
X94000000Y-119800483D03*
%TD*%
D20*
%TO.C,SQUARE1*%
X146125108Y-97600076D03*
X146125108Y-91399924D03*
X149825133Y-97600076D03*
X149825133Y-91399924D03*
%TD*%
D21*
%TO.C,L1*%
X44719774Y-79875108D03*
X50919926Y-79875108D03*
X44719774Y-83575133D03*
X50919926Y-83575133D03*
%TD*%
D22*
%TO.C,C4*%
X110075000Y-96500000D03*
X110075000Y-96000000D03*
X110075000Y-95500000D03*
X110075000Y-95000000D03*
X110075000Y-94500000D03*
X110075000Y-94000000D03*
X110075000Y-93500000D03*
X110075000Y-93000000D03*
X110075000Y-92500000D03*
X110075000Y-92000000D03*
X110075000Y-91500000D03*
X110075000Y-91000000D03*
X110075000Y-90500000D03*
X110075000Y-90000000D03*
%TD*%
D21*
%TO.C,RIGHT1*%
X53899797Y-108375108D03*
X60099949Y-108375108D03*
X53899797Y-112075133D03*
X60099949Y-112075133D03*
%TD*%
D22*
%TO.C,C3*%
X161500000Y-121500000D03*
X161500000Y-121000000D03*
X161500000Y-120500000D03*
X161500000Y-120000000D03*
X161500000Y-119500000D03*
X161500000Y-119000000D03*
X161500000Y-118500000D03*
X161500000Y-118000000D03*
%TD*%
D21*
%TO.C,LEFT1*%
X45099949Y-112124892D03*
X38899797Y-112124892D03*
X45099949Y-108424867D03*
X38899797Y-108424867D03*
%TD*%
D20*
%TO.C,CROSS1*%
X155875108Y-107350076D03*
X155875108Y-101149924D03*
X159575133Y-107350076D03*
X159575133Y-101149924D03*
%TD*%
%TO.C,CIRCLE1*%
X165625108Y-97350203D03*
X165625108Y-91150051D03*
X169325133Y-97350203D03*
X169325133Y-91150051D03*
%TD*%
%TO.C,R1*%
X154825070Y-68920053D03*
X154825070Y-62719901D03*
X158525095Y-68920053D03*
X158525095Y-62719901D03*
%TD*%
D22*
%TO.C,C7*%
X145000915Y-71001014D03*
X145000915Y-68501014D03*
X145000915Y-70001014D03*
X145000915Y-67501014D03*
X145000000Y-72000000D03*
X145000915Y-69501014D03*
X145000915Y-71501014D03*
X145000915Y-69001014D03*
X145000915Y-68001014D03*
X145000915Y-70501014D03*
%TD*%
D21*
%TO.C,UP1*%
X46399797Y-100875108D03*
X52599949Y-100875108D03*
X46399797Y-104575133D03*
X52599949Y-104575133D03*
%TD*%
D20*
%TO.C,TRIANGLE1*%
X155625108Y-87600203D03*
X155625108Y-81400051D03*
X159325133Y-87600203D03*
X159325133Y-81400051D03*
%TD*%
D21*
%TO.C,DOWN1*%
X46399797Y-115875108D03*
X52599949Y-115875108D03*
X46399797Y-119575133D03*
X52599949Y-119575133D03*
%TD*%
D23*
%TO.C,C1*%
X160500000Y-125750000D03*
X160500000Y-126250000D03*
X160500000Y-126750000D03*
X160500000Y-127250000D03*
X160500000Y-127750000D03*
X160500000Y-128250000D03*
X160500000Y-128750000D03*
X160500000Y-129250000D03*
X160500000Y-129750000D03*
X160500000Y-130250000D03*
%TD*%
D24*
%TO.C,C2*%
X71000000Y-118000000D03*
X71500000Y-118000000D03*
X72000000Y-118000000D03*
X72500000Y-118000000D03*
X73000000Y-118000000D03*
X73500000Y-118000000D03*
X74000000Y-118000000D03*
X74500000Y-118000000D03*
X75000000Y-118000000D03*
X75500000Y-118000000D03*
%TD*%
D23*
%TO.C,C8*%
X89500000Y-119000000D03*
X89500000Y-118500000D03*
X89500000Y-118000000D03*
X89500000Y-117500000D03*
X89500000Y-117000000D03*
X89500000Y-116500000D03*
X89500000Y-116000000D03*
X89500000Y-115500000D03*
X89500000Y-115000000D03*
X89500000Y-114500000D03*
%TD*%
%LPD*%
M02*
