%TF.GenerationSoftware,KiCad,Pcbnew,8.0.4*%
%TF.CreationDate,2024-08-01T13:46:47+01:00*%
%TF.ProjectId,buttonsSuper,62757474-6f6e-4735-9375-7065722e6b69,rev?*%
%TF.SameCoordinates,Original*%
%TF.FileFunction,Legend,Bot*%
%TF.FilePolarity,Positive*%
%FSLAX46Y46*%
G04 Gerber Fmt 4.6, Leading zero omitted, Abs format (unit mm)*
G04 Created by KiCad (PCBNEW 8.0.4) date 2024-08-01 13:46:47*
%MOMM*%
%LPD*%
G01*
G04 APERTURE LIST*
G04 Aperture macros list*
%AMRoundRect*
0 Rectangle with rounded corners*
0 $1 Rounding radius*
0 $2 $3 $4 $5 $6 $7 $8 $9 X,Y pos of 4 corners*
0 Add a 4 corners polygon primitive as box body*
4,1,4,$2,$3,$4,$5,$6,$7,$8,$9,$2,$3,0*
0 Add four circle primitives for the rounded corners*
1,1,$1+$1,$2,$3*
1,1,$1+$1,$4,$5*
1,1,$1+$1,$6,$7*
1,1,$1+$1,$8,$9*
0 Add four rect primitives between the rounded corners*
20,1,$1+$1,$2,$3,$4,$5,0*
20,1,$1+$1,$4,$5,$6,$7,0*
20,1,$1+$1,$6,$7,$8,$9,0*
20,1,$1+$1,$8,$9,$2,$3,0*%
G04 Aperture macros list end*
%ADD10C,0.150000*%
%ADD11C,0.120000*%
%ADD12RoundRect,0.312500X-0.312500X0.312500X-0.312500X-0.312500X0.312500X-0.312500X0.312500X0.312500X0*%
%ADD13R,4.000000X0.250000*%
G04 APERTURE END LIST*
D10*
X71096009Y-104920112D02*
X71143628Y-105062969D01*
X71143628Y-105062969D02*
X71191247Y-105110588D01*
X71191247Y-105110588D02*
X71286485Y-105158207D01*
X71286485Y-105158207D02*
X71429342Y-105158207D01*
X71429342Y-105158207D02*
X71524580Y-105110588D01*
X71524580Y-105110588D02*
X71572200Y-105062969D01*
X71572200Y-105062969D02*
X71619819Y-104967731D01*
X71619819Y-104967731D02*
X71619819Y-104586779D01*
X71619819Y-104586779D02*
X70619819Y-104586779D01*
X70619819Y-104586779D02*
X70619819Y-104920112D01*
X70619819Y-104920112D02*
X70667438Y-105015350D01*
X70667438Y-105015350D02*
X70715057Y-105062969D01*
X70715057Y-105062969D02*
X70810295Y-105110588D01*
X70810295Y-105110588D02*
X70905533Y-105110588D01*
X70905533Y-105110588D02*
X71000771Y-105062969D01*
X71000771Y-105062969D02*
X71048390Y-105015350D01*
X71048390Y-105015350D02*
X71096009Y-104920112D01*
X71096009Y-104920112D02*
X71096009Y-104586779D01*
X70040037Y-105082826D02*
X70087657Y-105035207D01*
X70087657Y-105035207D02*
X70135276Y-104892350D01*
X70135276Y-104892350D02*
X70135276Y-104797112D01*
X70135276Y-104797112D02*
X70087657Y-104654255D01*
X70087657Y-104654255D02*
X69992418Y-104559017D01*
X69992418Y-104559017D02*
X69897180Y-104511398D01*
X69897180Y-104511398D02*
X69706704Y-104463779D01*
X69706704Y-104463779D02*
X69563847Y-104463779D01*
X69563847Y-104463779D02*
X69373371Y-104511398D01*
X69373371Y-104511398D02*
X69278133Y-104559017D01*
X69278133Y-104559017D02*
X69182895Y-104654255D01*
X69182895Y-104654255D02*
X69135276Y-104797112D01*
X69135276Y-104797112D02*
X69135276Y-104892350D01*
X69135276Y-104892350D02*
X69182895Y-105035207D01*
X69182895Y-105035207D02*
X69230514Y-105082826D01*
X69135276Y-105987588D02*
X69135276Y-105511398D01*
X69135276Y-105511398D02*
X69611466Y-105463779D01*
X69611466Y-105463779D02*
X69563847Y-105511398D01*
X69563847Y-105511398D02*
X69516228Y-105606636D01*
X69516228Y-105606636D02*
X69516228Y-105844731D01*
X69516228Y-105844731D02*
X69563847Y-105939969D01*
X69563847Y-105939969D02*
X69611466Y-105987588D01*
X69611466Y-105987588D02*
X69706704Y-106035207D01*
X69706704Y-106035207D02*
X69944799Y-106035207D01*
X69944799Y-106035207D02*
X70040037Y-105987588D01*
X70040037Y-105987588D02*
X70087657Y-105939969D01*
X70087657Y-105939969D02*
X70135276Y-105844731D01*
X70135276Y-105844731D02*
X70135276Y-105606636D01*
X70135276Y-105606636D02*
X70087657Y-105511398D01*
X70087657Y-105511398D02*
X70040037Y-105463779D01*
D11*
%TO.C,C5*%
X63320915Y-107748986D02*
X63320000Y-102250000D01*
X63320915Y-107748986D02*
X67680915Y-107748986D01*
X67680915Y-107748986D02*
X67680000Y-102250000D01*
X63320000Y-102250000D02*
X67680000Y-102250000D01*
%TD*%
%LPC*%
D12*
%TO.C,C6*%
X50124507Y-58501014D03*
X50124507Y-60501014D03*
X50124507Y-62501014D03*
X50124507Y-64501014D03*
%TD*%
D13*
%TO.C,C5*%
X65500000Y-106250000D03*
X65500000Y-103750000D03*
X65500000Y-105250000D03*
X65500000Y-102750000D03*
X65500915Y-107248986D03*
X65500000Y-104750000D03*
X65500000Y-106750000D03*
X65500000Y-104250000D03*
X65500000Y-103250000D03*
X65500000Y-105750000D03*
%TD*%
%LPD*%
M02*
