%TF.GenerationSoftware,KiCad,Pcbnew,8.0.4*%
%TF.CreationDate,2024-08-01T13:46:47+01:00*%
%TF.ProjectId,buttonsSuper,62757474-6f6e-4735-9375-7065722e6b69,rev?*%
%TF.SameCoordinates,Original*%
%TF.FileFunction,Copper,L2,Bot*%
%TF.FilePolarity,Positive*%
%FSLAX46Y46*%
G04 Gerber Fmt 4.6, Leading zero omitted, Abs format (unit mm)*
G04 Created by KiCad (PCBNEW 8.0.4) date 2024-08-01 13:46:47*
%MOMM*%
%LPD*%
G01*
G04 APERTURE LIST*
G04 Aperture macros list*
%AMRoundRect*
0 Rectangle with rounded corners*
0 $1 Rounding radius*
0 $2 $3 $4 $5 $6 $7 $8 $9 X,Y pos of 4 corners*
0 Add a 4 corners polygon primitive as box body*
4,1,4,$2,$3,$4,$5,$6,$7,$8,$9,$2,$3,0*
0 Add four circle primitives for the rounded corners*
1,1,$1+$1,$2,$3*
1,1,$1+$1,$4,$5*
1,1,$1+$1,$6,$7*
1,1,$1+$1,$8,$9*
0 Add four rect primitives between the rounded corners*
20,1,$1+$1,$2,$3,$4,$5,0*
20,1,$1+$1,$4,$5,$6,$7,0*
20,1,$1+$1,$6,$7,$8,$9,0*
20,1,$1+$1,$8,$9,$2,$3,0*%
%AMFreePoly0*
4,1,5,0.125000,-9.000000,-0.125000,-9.000000,-0.125000,1.000000,0.125000,1.000000,0.125000,-9.000000,0.125000,-9.000000,$1*%
G04 Aperture macros list end*
%TA.AperFunction,SMDPad,CuDef*%
%ADD10RoundRect,0.312500X-0.312500X0.312500X-0.312500X-0.312500X0.312500X-0.312500X0.312500X0.312500X0*%
%TD*%
%TA.AperFunction,SMDPad,CuDef*%
%ADD11FreePoly0,270.000000*%
%TD*%
%TA.AperFunction,ViaPad*%
%ADD12C,0.800000*%
%TD*%
%TA.AperFunction,Conductor*%
%ADD13C,0.250000*%
%TD*%
G04 APERTURE END LIST*
D10*
%TO.P,C6,5,GND_[2]*%
%TO.N,GND*%
X50124507Y-58501014D03*
%TO.P,C6,6,X_[2]*%
%TO.N,/X_2*%
X50124507Y-60501014D03*
%TO.P,C6,7,+v_[2]*%
%TO.N,/+v*%
X50124507Y-62501014D03*
%TO.P,C6,8,Y_[2]*%
%TO.N,/Y_2*%
X50124507Y-64501014D03*
%TD*%
D11*
%TO.P,C5,1,1*%
%TO.N,/Square*%
X72500000Y-102750000D03*
%TO.P,C5,2,2*%
%TO.N,/R1*%
X72500000Y-103250000D03*
%TO.P,C5,3,3*%
%TO.N,/Triangle*%
X72500000Y-103750000D03*
%TO.P,C5,4,4*%
%TO.N,/Circle*%
X72500000Y-104250000D03*
%TO.P,C5,5,5*%
%TO.N,/cross*%
X72500000Y-104750000D03*
%TO.P,C5,6,6*%
%TO.N,/gnd*%
X72500000Y-105250000D03*
%TO.P,C5,7,7*%
X72500000Y-105750000D03*
%TO.P,C5,8,8*%
X72500000Y-106250000D03*
%TO.P,C5,9,9*%
X72500000Y-106750000D03*
%TO.P,C5,10,10*%
%TO.N,/keyPower*%
X72500000Y-107250000D03*
%TD*%
D12*
%TO.N,/l1*%
X75500000Y-126000000D03*
X57750000Y-106500000D03*
X58000000Y-114750000D03*
X66750000Y-126500000D03*
%TO.N,/right*%
X74750000Y-127224500D03*
X65750000Y-127000000D03*
%TO.N,/up*%
X73750000Y-127949011D03*
X64500000Y-127750000D03*
X42750000Y-114000000D03*
X43500000Y-102500000D03*
%TO.N,/left*%
X72892691Y-128673511D03*
X59750000Y-128250000D03*
%TO.N,/down*%
X58750000Y-129000000D03*
X72000000Y-129500000D03*
%TO.N,GND*%
X48250000Y-58500000D03*
X46000000Y-121000000D03*
X59250000Y-114750000D03*
X52000000Y-97750000D03*
X44500000Y-104750000D03*
X77250000Y-128750000D03*
X57750000Y-130000000D03*
%TO.N,/gnd*%
X152750000Y-95000000D03*
X159500000Y-99250000D03*
X151250000Y-107250000D03*
%TO.N,/cross*%
X154500000Y-103250000D03*
%TO.N,/Circle*%
X157500000Y-98250000D03*
%TO.N,/Triangle*%
X155550038Y-97000000D03*
%TO.N,/R1*%
X154250000Y-97000000D03*
%TO.N,/Square*%
X146000000Y-100250000D03*
%TO.N,/+v*%
X47750000Y-62500000D03*
%TO.N,/X_2*%
X47250000Y-70500000D03*
%TO.N,/Y_2*%
X50250000Y-71750000D03*
%TO.N,/keyPower*%
X149250000Y-108750000D03*
%TD*%
D13*
%TO.N,/l1*%
X58000000Y-114750000D02*
X58000000Y-106750000D01*
X66750000Y-126500000D02*
X75000000Y-126500000D01*
X75000000Y-126500000D02*
X75500000Y-126000000D01*
X58000000Y-106750000D02*
X57750000Y-106500000D01*
%TO.N,/right*%
X65974511Y-127224511D02*
X74749989Y-127224511D01*
X65750000Y-127000000D02*
X65974511Y-127224511D01*
X74749989Y-127224511D02*
X74750000Y-127224500D01*
%TO.N,/up*%
X42750000Y-114000000D02*
X42750000Y-103250000D01*
X42750000Y-103250000D02*
X43500000Y-102500000D01*
X64699011Y-127949011D02*
X64500000Y-127750000D01*
X73750000Y-127949011D02*
X64699011Y-127949011D01*
%TO.N,/left*%
X64173511Y-128673511D02*
X63750000Y-128250000D01*
X63750000Y-128250000D02*
X59750000Y-128250000D01*
X72892691Y-128673511D02*
X64173511Y-128673511D01*
%TO.N,/down*%
X63000000Y-129000000D02*
X63500000Y-129500000D01*
X58750000Y-129000000D02*
X63000000Y-129000000D01*
X63500000Y-129500000D02*
X72000000Y-129500000D01*
%TO.N,GND*%
X75750000Y-130250000D02*
X77250000Y-128750000D01*
X52000000Y-97750000D02*
X45250000Y-97750000D01*
X59250000Y-118500000D02*
X59250000Y-114750000D01*
X57750000Y-130000000D02*
X57750000Y-122000000D01*
X44500000Y-119500000D02*
X46000000Y-121000000D01*
X45250000Y-97750000D02*
X44500000Y-98500000D01*
X57750000Y-130000000D02*
X62500000Y-130000000D01*
X50125000Y-58500000D02*
X48250000Y-58500000D01*
X62750000Y-130250000D02*
X75750000Y-130250000D01*
X56750000Y-121000000D02*
X59250000Y-118500000D01*
X44500000Y-98500000D02*
X44500000Y-104750000D01*
X44500000Y-104750000D02*
X44500000Y-119500000D01*
X62500000Y-130000000D02*
X62750000Y-130250000D01*
X57750000Y-122000000D02*
X56750000Y-121000000D01*
X56750000Y-121000000D02*
X46000000Y-121000000D01*
%TO.N,/gnd*%
X159500000Y-98750000D02*
X159500000Y-99250000D01*
X150250000Y-106250000D02*
X150125000Y-106125000D01*
X72500000Y-106750000D02*
X150750000Y-106750000D01*
X149750000Y-105750000D02*
X149250000Y-105250000D01*
X152750000Y-95000000D02*
X155750000Y-95000000D01*
X155750000Y-95000000D02*
X159500000Y-98750000D01*
X151250000Y-107250000D02*
X150750000Y-106750000D01*
X72500000Y-106250000D02*
X150250000Y-106250000D01*
X150125000Y-106125000D02*
X149750000Y-105750000D01*
X150750000Y-106750000D02*
X150250000Y-106250000D01*
X149250000Y-105250000D02*
X72500000Y-105250000D01*
X72500000Y-105750000D02*
X149750000Y-105750000D01*
%TO.N,/cross*%
X153000000Y-104750000D02*
X154500000Y-103250000D01*
X72500000Y-104750000D02*
X153000000Y-104750000D01*
%TO.N,/Circle*%
X151500000Y-104250000D02*
X157500000Y-98250000D01*
X72500000Y-104250000D02*
X151500000Y-104250000D01*
%TO.N,/Triangle*%
X72500000Y-103750000D02*
X151363604Y-103750000D01*
X155500000Y-97050038D02*
X155550038Y-97000000D01*
X155550038Y-99563566D02*
X155550038Y-97000000D01*
X151363604Y-103750000D02*
X155550038Y-99563566D01*
%TO.N,/R1*%
X154250000Y-100227208D02*
X154250000Y-97000000D01*
X151227208Y-103250000D02*
X154250000Y-100227208D01*
X72500000Y-103250000D02*
X151227208Y-103250000D01*
%TO.N,/Square*%
X143500000Y-102750000D02*
X146000000Y-100250000D01*
X72500000Y-102750000D02*
X143500000Y-102750000D01*
%TO.N,/+v*%
X50125000Y-62500000D02*
X47750000Y-62500000D01*
%TO.N,/X_2*%
X46750000Y-62000000D02*
X48250000Y-60500000D01*
X46750000Y-70000000D02*
X46750000Y-62000000D01*
X47250000Y-70500000D02*
X46750000Y-70000000D01*
X48250000Y-60500000D02*
X50125000Y-60500000D01*
%TO.N,/Y_2*%
X50250000Y-64625000D02*
X50125000Y-64500000D01*
X50250000Y-71750000D02*
X50250000Y-64625000D01*
%TO.N,/keyPower*%
X149250000Y-108750000D02*
X147750000Y-107250000D01*
X147750000Y-107250000D02*
X72500000Y-107250000D01*
%TD*%
M02*
