M48
; DRILL file {KiCad 8.0.4} date 2024-08-01T13:46:47+0100
; FORMAT={-:-/ absolute / inch / decimal}
; #@! TF.CreationDate,2024-08-01T13:46:47+01:00
; #@! TF.GenerationSoftware,Kicad,Pcbnew,8.0.4
; #@! TF.FileFunction,Plated,1,2,PTH
FMAT,2
INCH
; #@! TA.AperFunction,Plated,PTH,ViaDrill
T1C0.0157
%
G90
G05
T1
X1.6831Y-4.4882
X1.7126Y-4.0354
X1.752Y-4.124
X1.811Y-4.7638
X1.8602Y-2.7756
X1.8799Y-2.4606
X1.8996Y-2.3031
X1.9783Y-2.8248
X2.0472Y-3.8484
X2.2736Y-4.1929
X2.2736Y-5.1181
X2.2835Y-4.5177
X2.313Y-5.0787
X2.3327Y-4.5177
X2.3524Y-5.0492
X2.5394Y-5.0295
X2.5886Y-5.0
X2.628Y-4.9803
X2.8346Y-5.0984
X2.8698Y-5.0659
X2.9035Y-5.0374
X2.9429Y-5.0088
X2.9724Y-4.9606
X3.0413Y-5.0689
X5.748Y-3.9469
X5.876Y-4.2815
X5.9547Y-4.2224
X6.0138Y-3.7402
X6.0728Y-3.8189
X6.0827Y-4.065
X6.124Y-3.8189
X6.2008Y-3.8681
X6.2795Y-3.9075
M30
