%TF.GenerationSoftware,KiCad,Pcbnew,8.0.4*%
%TF.CreationDate,2024-08-01T13:46:47+01:00*%
%TF.ProjectId,buttonsSuper,62757474-6f6e-4735-9375-7065722e6b69,rev?*%
%TF.SameCoordinates,Original*%
%TF.FileFunction,Copper,L1,Top*%
%TF.FilePolarity,Positive*%
%FSLAX46Y46*%
G04 Gerber Fmt 4.6, Leading zero omitted, Abs format (unit mm)*
G04 Created by KiCad (PCBNEW 8.0.4) date 2024-08-01 13:46:47*
%MOMM*%
%LPD*%
G01*
G04 APERTURE LIST*
G04 Aperture macros list*
%AMRoundRect*
0 Rectangle with rounded corners*
0 $1 Rounding radius*
0 $2 $3 $4 $5 $6 $7 $8 $9 X,Y pos of 4 corners*
0 Add a 4 corners polygon primitive as box body*
4,1,4,$2,$3,$4,$5,$6,$7,$8,$9,$2,$3,0*
0 Add four circle primitives for the rounded corners*
1,1,$1+$1,$2,$3*
1,1,$1+$1,$4,$5*
1,1,$1+$1,$6,$7*
1,1,$1+$1,$8,$9*
0 Add four rect primitives between the rounded corners*
20,1,$1+$1,$2,$3,$4,$5,0*
20,1,$1+$1,$4,$5,$6,$7,0*
20,1,$1+$1,$6,$7,$8,$9,0*
20,1,$1+$1,$8,$9,$2,$3,0*%
%AMFreePoly0*
4,1,5,0.125000,-1.000000,-0.125000,-1.000000,-0.125000,9.000000,0.125000,9.000000,0.125000,-1.000000,0.125000,-1.000000,$1*%
G04 Aperture macros list end*
%TA.AperFunction,EtchedComponent*%
%ADD10C,0.200000*%
%TD*%
%TA.AperFunction,SMDPad,CuDef*%
%ADD11RoundRect,0.312500X-0.312500X0.312500X-0.312500X-0.312500X0.312500X-0.312500X0.312500X0.312500X0*%
%TD*%
%TA.AperFunction,SMDPad,CuDef*%
%ADD12R,0.700025X0.299975*%
%TD*%
%TA.AperFunction,SMDPad,CuDef*%
%ADD13R,1.000000X0.299975*%
%TD*%
%TA.AperFunction,SMDPad,CuDef*%
%ADD14R,1.199898X1.800000*%
%TD*%
%TA.AperFunction,SMDPad,CuDef*%
%ADD15R,1.800000X1.199898*%
%TD*%
%TA.AperFunction,SMDPad,CuDef*%
%ADD16R,4.000000X0.250000*%
%TD*%
%TA.AperFunction,SMDPad,CuDef*%
%ADD17FreePoly0,270.000000*%
%TD*%
%TA.AperFunction,SMDPad,CuDef*%
%ADD18R,2.000000X0.250000*%
%TD*%
%TA.AperFunction,SMDPad,CuDef*%
%ADD19R,0.250000X2.000000*%
%TD*%
%TA.AperFunction,ViaPad*%
%ADD20C,0.800000*%
%TD*%
%TA.AperFunction,Conductor*%
%ADD21C,0.250000*%
%TD*%
G04 APERTURE END LIST*
D10*
%TO.C,SQUARE1*%
X150000000Y-97000000D02*
X150000000Y-96250000D01*
X148750000Y-96999999D02*
X148000000Y-97000000D01*
X146400000Y-96500000D02*
X148750000Y-96500000D01*
X146000000Y-96250000D02*
X146000000Y-97000000D01*
X150100000Y-96000000D02*
X146500000Y-96000000D01*
X145600000Y-95500000D02*
X149750000Y-95500000D01*
X150500000Y-95000000D02*
X146000000Y-95000000D01*
X145390223Y-94500000D02*
X150000000Y-94500000D01*
X150500000Y-94000000D02*
X146000000Y-94000000D01*
X145650000Y-93500000D02*
X149750000Y-93500000D01*
X150100000Y-93000000D02*
X146500000Y-93000000D01*
X150000000Y-92750000D02*
X150000000Y-92000000D01*
X146400000Y-92500000D02*
X148750000Y-92500000D01*
X147250000Y-92000001D02*
X148000000Y-92000000D01*
X146000000Y-92000000D02*
X146000000Y-92750000D01*
X147174621Y-96976136D02*
G75*
G02*
X147250000Y-92000000I825379J2476136D01*
G01*
X148750000Y-92000001D02*
G75*
G02*
X148750000Y-96999999I-750000J-2499999D01*
G01*
%TO.C,L1*%
X45319850Y-83750000D02*
X46069850Y-83750000D01*
X45319851Y-82500000D02*
X45319850Y-81750000D01*
X45819850Y-80150000D02*
X45819850Y-82500000D01*
X46069850Y-79750000D02*
X45319850Y-79750000D01*
X46319850Y-83850000D02*
X46319850Y-80250000D01*
X46819850Y-79350000D02*
X46819850Y-83500000D01*
X47319850Y-84250000D02*
X47319850Y-79750000D01*
X47819850Y-79140223D02*
X47819850Y-83750000D01*
X48319850Y-84250000D02*
X48319850Y-79750000D01*
X48819850Y-79400000D02*
X48819850Y-83500000D01*
X49319850Y-83850000D02*
X49319850Y-80250000D01*
X49569850Y-83750000D02*
X50319850Y-83750000D01*
X49819850Y-80150000D02*
X49819850Y-82500000D01*
X50319849Y-81000000D02*
X50319850Y-81750000D01*
X50319850Y-79750000D02*
X49569850Y-79750000D01*
X45343714Y-80924621D02*
G75*
G02*
X50319850Y-81000000I2476136J-825379D01*
G01*
X50319849Y-82500000D02*
G75*
G02*
X45319851Y-82500000I-2499999J750000D01*
G01*
%TO.C,RIGHT1*%
X54499873Y-112250000D02*
X55249873Y-112250000D01*
X54499874Y-111000000D02*
X54499873Y-110250000D01*
X54999873Y-108650000D02*
X54999873Y-111000000D01*
X55249873Y-108250000D02*
X54499873Y-108250000D01*
X55499873Y-112350000D02*
X55499873Y-108750000D01*
X55999873Y-107850000D02*
X55999873Y-112000000D01*
X56499873Y-112750000D02*
X56499873Y-108250000D01*
X56999873Y-107640223D02*
X56999873Y-112250000D01*
X57499873Y-112750000D02*
X57499873Y-108250000D01*
X57999873Y-107900000D02*
X57999873Y-112000000D01*
X58499873Y-112350000D02*
X58499873Y-108750000D01*
X58749873Y-112250000D02*
X59499873Y-112250000D01*
X58999873Y-108650000D02*
X58999873Y-111000000D01*
X59499872Y-109500000D02*
X59499873Y-110250000D01*
X59499873Y-108250000D02*
X58749873Y-108250000D01*
X54523737Y-109424621D02*
G75*
G02*
X59499873Y-109500000I2476136J-825379D01*
G01*
X59499872Y-111000000D02*
G75*
G02*
X54499874Y-111000000I-2499999J750000D01*
G01*
%TO.C,LEFT1*%
X44499873Y-108250000D02*
X43749873Y-108250000D01*
X44499872Y-109500000D02*
X44499873Y-110250000D01*
X43999873Y-111850000D02*
X43999873Y-109500000D01*
X43749873Y-112250000D02*
X44499873Y-112250000D01*
X43499873Y-108150000D02*
X43499873Y-111750000D01*
X42999873Y-112650000D02*
X42999873Y-108500000D01*
X42499873Y-107750000D02*
X42499873Y-112250000D01*
X41999873Y-112859777D02*
X41999873Y-108250000D01*
X41499873Y-107750000D02*
X41499873Y-112250000D01*
X40999873Y-112600000D02*
X40999873Y-108500000D01*
X40499873Y-108150000D02*
X40499873Y-111750000D01*
X40249873Y-108250000D02*
X39499873Y-108250000D01*
X39999873Y-111850000D02*
X39999873Y-109500000D01*
X39499874Y-111000000D02*
X39499873Y-110250000D01*
X39499873Y-112250000D02*
X40249873Y-112250000D01*
X44476009Y-111075379D02*
G75*
G02*
X39499873Y-111000000I-2476136J825379D01*
G01*
X39499874Y-109500000D02*
G75*
G02*
X44499872Y-109500000I2499999J-750000D01*
G01*
%TO.C,CROSS1*%
X159750000Y-106750000D02*
X159750000Y-106000000D01*
X158500000Y-106749999D02*
X157750000Y-106750000D01*
X156150000Y-106250000D02*
X158500000Y-106250000D01*
X155750000Y-106000000D02*
X155750000Y-106750000D01*
X159850000Y-105750000D02*
X156250000Y-105750000D01*
X155350000Y-105250000D02*
X159500000Y-105250000D01*
X160250000Y-104750000D02*
X155750000Y-104750000D01*
X155140223Y-104250000D02*
X159750000Y-104250000D01*
X160250000Y-103750000D02*
X155750000Y-103750000D01*
X155400000Y-103250000D02*
X159500000Y-103250000D01*
X159850000Y-102750000D02*
X156250000Y-102750000D01*
X159750000Y-102500000D02*
X159750000Y-101750000D01*
X156150000Y-102250000D02*
X158500000Y-102250000D01*
X157000000Y-101750001D02*
X157750000Y-101750000D01*
X155750000Y-101750000D02*
X155750000Y-102500000D01*
X156924621Y-106726136D02*
G75*
G02*
X157000000Y-101750000I825379J2476136D01*
G01*
X158500000Y-101750001D02*
G75*
G02*
X158500000Y-106749999I-750000J-2499999D01*
G01*
%TO.C,CIRCLE1*%
X169500000Y-96750127D02*
X169500000Y-96000127D01*
X168250000Y-96750126D02*
X167500000Y-96750127D01*
X165900000Y-96250127D02*
X168250000Y-96250127D01*
X165500000Y-96000127D02*
X165500000Y-96750127D01*
X169600000Y-95750127D02*
X166000000Y-95750127D01*
X165100000Y-95250127D02*
X169250000Y-95250127D01*
X170000000Y-94750127D02*
X165500000Y-94750127D01*
X164890223Y-94250127D02*
X169500000Y-94250127D01*
X170000000Y-93750127D02*
X165500000Y-93750127D01*
X165150000Y-93250127D02*
X169250000Y-93250127D01*
X169600000Y-92750127D02*
X166000000Y-92750127D01*
X169500000Y-92500127D02*
X169500000Y-91750127D01*
X165900000Y-92250127D02*
X168250000Y-92250127D01*
X166750000Y-91750128D02*
X167500000Y-91750127D01*
X165500000Y-91750127D02*
X165500000Y-92500127D01*
X166674621Y-96726263D02*
G75*
G02*
X166750000Y-91750127I825379J2476136D01*
G01*
X168250000Y-91750128D02*
G75*
G02*
X168250000Y-96750126I-750000J-2499999D01*
G01*
%TO.C,R1*%
X158699962Y-68319977D02*
X158699962Y-67569977D01*
X157449962Y-68319976D02*
X156699962Y-68319977D01*
X155099962Y-67819977D02*
X157449962Y-67819977D01*
X154699962Y-67569977D02*
X154699962Y-68319977D01*
X158799962Y-67319977D02*
X155199962Y-67319977D01*
X154299962Y-66819977D02*
X158449962Y-66819977D01*
X159199962Y-66319977D02*
X154699962Y-66319977D01*
X154090185Y-65819977D02*
X158699962Y-65819977D01*
X159199962Y-65319977D02*
X154699962Y-65319977D01*
X154349962Y-64819977D02*
X158449962Y-64819977D01*
X158799962Y-64319977D02*
X155199962Y-64319977D01*
X158699962Y-64069977D02*
X158699962Y-63319977D01*
X155099962Y-63819977D02*
X157449962Y-63819977D01*
X155949962Y-63319978D02*
X156699962Y-63319977D01*
X154699962Y-63319977D02*
X154699962Y-64069977D01*
X155874583Y-68296113D02*
G75*
G02*
X155949962Y-63319977I825379J2476136D01*
G01*
X157449962Y-63319978D02*
G75*
G02*
X157449962Y-68319976I-750000J-2499999D01*
G01*
%TO.C,UP1*%
X46999873Y-104750000D02*
X47749873Y-104750000D01*
X46999874Y-103500000D02*
X46999873Y-102750000D01*
X47499873Y-101150000D02*
X47499873Y-103500000D01*
X47749873Y-100750000D02*
X46999873Y-100750000D01*
X47999873Y-104850000D02*
X47999873Y-101250000D01*
X48499873Y-100350000D02*
X48499873Y-104500000D01*
X48999873Y-105250000D02*
X48999873Y-100750000D01*
X49499873Y-100140223D02*
X49499873Y-104750000D01*
X49999873Y-105250000D02*
X49999873Y-100750000D01*
X50499873Y-100400000D02*
X50499873Y-104500000D01*
X50999873Y-104850000D02*
X50999873Y-101250000D01*
X51249873Y-104750000D02*
X51999873Y-104750000D01*
X51499873Y-101150000D02*
X51499873Y-103500000D01*
X51999872Y-102000000D02*
X51999873Y-102750000D01*
X51999873Y-100750000D02*
X51249873Y-100750000D01*
X47023737Y-101924621D02*
G75*
G02*
X51999873Y-102000000I2476136J-825379D01*
G01*
X51999872Y-103500000D02*
G75*
G02*
X46999874Y-103500000I-2499999J750000D01*
G01*
%TO.C,TRIANGLE1*%
X159500000Y-87000127D02*
X159500000Y-86250127D01*
X158250000Y-87000126D02*
X157500000Y-87000127D01*
X155900000Y-86500127D02*
X158250000Y-86500127D01*
X155500000Y-86250127D02*
X155500000Y-87000127D01*
X159600000Y-86000127D02*
X156000000Y-86000127D01*
X155100000Y-85500127D02*
X159250000Y-85500127D01*
X160000000Y-85000127D02*
X155500000Y-85000127D01*
X154890223Y-84500127D02*
X159500000Y-84500127D01*
X160000000Y-84000127D02*
X155500000Y-84000127D01*
X155150000Y-83500127D02*
X159250000Y-83500127D01*
X159600000Y-83000127D02*
X156000000Y-83000127D01*
X159500000Y-82750127D02*
X159500000Y-82000127D01*
X155900000Y-82500127D02*
X158250000Y-82500127D01*
X156750000Y-82000128D02*
X157500000Y-82000127D01*
X155500000Y-82000127D02*
X155500000Y-82750127D01*
X156674621Y-86976263D02*
G75*
G02*
X156750000Y-82000127I825379J2476136D01*
G01*
X158250000Y-82000128D02*
G75*
G02*
X158250000Y-87000126I-750000J-2499999D01*
G01*
%TO.C,DOWN1*%
X46999873Y-119750000D02*
X47749873Y-119750000D01*
X46999874Y-118500000D02*
X46999873Y-117750000D01*
X47499873Y-116150000D02*
X47499873Y-118500000D01*
X47749873Y-115750000D02*
X46999873Y-115750000D01*
X47999873Y-119850000D02*
X47999873Y-116250000D01*
X48499873Y-115350000D02*
X48499873Y-119500000D01*
X48999873Y-120250000D02*
X48999873Y-115750000D01*
X49499873Y-115140223D02*
X49499873Y-119750000D01*
X49999873Y-120250000D02*
X49999873Y-115750000D01*
X50499873Y-115400000D02*
X50499873Y-119500000D01*
X50999873Y-119850000D02*
X50999873Y-116250000D01*
X51249873Y-119750000D02*
X51999873Y-119750000D01*
X51499873Y-116150000D02*
X51499873Y-118500000D01*
X51999872Y-117000000D02*
X51999873Y-117750000D01*
X51999873Y-115750000D02*
X51249873Y-115750000D01*
X47023737Y-116924621D02*
G75*
G02*
X51999873Y-117000000I2476136J-825379D01*
G01*
X51999872Y-118500000D02*
G75*
G02*
X46999874Y-118500000I-2499999J750000D01*
G01*
%TD*%
D11*
%TO.P,C6,1,GND_[1]*%
%TO.N,GND*%
X50124507Y-58501014D03*
%TO.P,C6,2,X_[1]*%
%TO.N,/X_1*%
X50124507Y-60501014D03*
%TO.P,C6,3,+v_[1]*%
%TO.N,/+v*%
X50124507Y-62501014D03*
%TO.P,C6,4,Y_[1]*%
%TO.N,/Y_1*%
X50124507Y-64501014D03*
%TD*%
D12*
%TO.P,P1,1,1*%
%TO.N,Net-(C8-Pad10)*%
X96500128Y-114501017D03*
%TO.P,P1,2,2*%
%TO.N,Net-(C8-Pad9)*%
X96500128Y-115001144D03*
%TO.P,P1,3,3*%
%TO.N,Net-(C8-Pad8)*%
X96500128Y-115501017D03*
%TO.P,P1,4,4*%
%TO.N,Net-(C8-Pad7)*%
X96500128Y-116001144D03*
%TO.P,P1,5,5*%
%TO.N,Net-(C8-Pad6)*%
X96500128Y-116501017D03*
%TO.P,P1,6,6*%
%TO.N,Net-(C8-Pad5)*%
X96500128Y-117001144D03*
%TO.P,P1,7,7*%
%TO.N,Net-(C8-Pad4)*%
X96500128Y-117501017D03*
%TO.P,P1,8,8*%
%TO.N,Net-(C8-Pad3)*%
X96500128Y-118001144D03*
%TO.P,P1,9,9*%
%TO.N,Net-(C8-Pad2)*%
X96500128Y-118501017D03*
%TO.P,P1,10,10*%
%TO.N,Net-(C8-Pad1)*%
X96500128Y-119000636D03*
D13*
%TO.P,P1,11,11*%
%TO.N,unconnected-(P1-Pad11)*%
X94000000Y-113700661D03*
%TO.P,P1,12,12*%
%TO.N,unconnected-(P1-Pad12)*%
X94000000Y-119800483D03*
%TD*%
D14*
%TO.P,SQUARE1,1,1*%
%TO.N,/Square*%
X146125108Y-97600076D03*
%TO.P,SQUARE1,2,2*%
X146125108Y-91399924D03*
%TO.P,SQUARE1,3,3*%
%TO.N,/gnd*%
X149825133Y-97600076D03*
%TO.P,SQUARE1,4,4*%
X149825133Y-91399924D03*
%TD*%
D15*
%TO.P,L1,1,1*%
%TO.N,/l1*%
X44719774Y-79875108D03*
%TO.P,L1,2,2*%
X50919926Y-79875108D03*
%TO.P,L1,3,3*%
%TO.N,GND*%
X44719774Y-83575133D03*
%TO.P,L1,4,4*%
X50919926Y-83575133D03*
%TD*%
D16*
%TO.P,C4,1,1*%
%TO.N,/LED +5v*%
X110075000Y-96500000D03*
%TO.P,C4,2,2*%
%TO.N,/chargeLED*%
X110075000Y-96000000D03*
%TO.P,C4,3,3*%
%TO.N,/powerLED*%
X110075000Y-95500000D03*
%TO.P,C4,4,4*%
%TO.N,/keyHold*%
X110075000Y-95000000D03*
%TO.P,C4,5,5*%
%TO.N,/keyPower*%
X110075000Y-94500000D03*
%TO.P,C4,6,6*%
%TO.N,/gnd*%
X110075000Y-94000000D03*
%TO.P,C4,7,7*%
X110075000Y-93500000D03*
%TO.P,C4,8,8*%
X110075000Y-93000000D03*
%TO.P,C4,9,9*%
X110075000Y-92500000D03*
%TO.P,C4,10,10*%
%TO.N,/cross*%
X110075000Y-92000000D03*
%TO.P,C4,11,11*%
%TO.N,/Circle*%
X110075000Y-91500000D03*
%TO.P,C4,12,12*%
%TO.N,/Triangle*%
X110075000Y-91000000D03*
%TO.P,C4,13,13*%
%TO.N,/R1*%
X110075000Y-90500000D03*
%TO.P,C4,14,14*%
%TO.N,/Square*%
X110075000Y-90000000D03*
%TD*%
D15*
%TO.P,RIGHT1,1,1*%
%TO.N,/right*%
X53899797Y-108375108D03*
%TO.P,RIGHT1,2,2*%
X60099949Y-108375108D03*
%TO.P,RIGHT1,3,3*%
%TO.N,GND*%
X53899797Y-112075133D03*
%TO.P,RIGHT1,4,4*%
X60099949Y-112075133D03*
%TD*%
D17*
%TO.P,C3,1,1*%
%TO.N,/gnd*%
X154500000Y-118000000D03*
%TO.P,C3,2,2*%
X154500000Y-118500000D03*
%TO.P,C3,3,3*%
%TO.N,/keyPower*%
X154500000Y-119000000D03*
%TO.P,C3,4,4*%
%TO.N,/keyHold*%
X154500000Y-119500000D03*
%TO.P,C3,5,5*%
%TO.N,/powerLED*%
X154500000Y-120000000D03*
%TO.P,C3,6,6*%
%TO.N,/chargeLED*%
X154500000Y-120500000D03*
%TO.P,C3,7,7*%
%TO.N,/LED +5v*%
X154500000Y-121000000D03*
%TO.P,C3,8,8*%
%TO.N,unconnected-(C3-Pad8)*%
X154500000Y-121500000D03*
%TD*%
D15*
%TO.P,LEFT1,1,1*%
%TO.N,/left*%
X45099949Y-112124892D03*
%TO.P,LEFT1,2,2*%
X38899797Y-112124892D03*
%TO.P,LEFT1,3,3*%
%TO.N,GND*%
X45099949Y-108424867D03*
%TO.P,LEFT1,4,4*%
X38899797Y-108424867D03*
%TD*%
D14*
%TO.P,CROSS1,1,1*%
%TO.N,/cross*%
X155875108Y-107350076D03*
%TO.P,CROSS1,2,2*%
X155875108Y-101149924D03*
%TO.P,CROSS1,3,3*%
%TO.N,/gnd*%
X159575133Y-107350076D03*
%TO.P,CROSS1,4,4*%
X159575133Y-101149924D03*
%TD*%
%TO.P,CIRCLE1,1,1*%
%TO.N,/Circle*%
X165625108Y-97350203D03*
%TO.P,CIRCLE1,2,2*%
X165625108Y-91150051D03*
%TO.P,CIRCLE1,3,3*%
%TO.N,/gnd*%
X169325133Y-97350203D03*
%TO.P,CIRCLE1,4,4*%
X169325133Y-91150051D03*
%TD*%
%TO.P,R1,1,1*%
%TO.N,/R1*%
X154825070Y-68920053D03*
%TO.P,R1,2,2*%
X154825070Y-62719901D03*
%TO.P,R1,3,3*%
%TO.N,/gnd*%
X158525095Y-68920053D03*
%TO.P,R1,4,4*%
X158525095Y-62719901D03*
%TD*%
D17*
%TO.P,C7,1,1*%
%TO.N,/Y_1*%
X138000915Y-67501014D03*
%TO.P,C7,2,2*%
%TO.N,/+v*%
X138000915Y-68001014D03*
%TO.P,C7,3,3*%
%TO.N,/X_1*%
X138000915Y-68501014D03*
%TO.P,C7,4,4*%
%TO.N,GND*%
X138000915Y-69001014D03*
%TO.P,C7,5,5*%
%TO.N,unconnected-(C7-Pad5)*%
X138000915Y-69501014D03*
%TO.P,C7,6,6*%
%TO.N,unconnected-(C7-Pad6)*%
X138000915Y-70001014D03*
%TO.P,C7,7,7*%
%TO.N,unconnected-(C7-Pad7)*%
X138000915Y-70501014D03*
%TO.P,C7,8,8*%
%TO.N,unconnected-(C7-Pad8)*%
X138000915Y-71001014D03*
%TO.P,C7,9,9*%
%TO.N,/X_2*%
X138000915Y-71501014D03*
%TO.P,C7,10,10*%
%TO.N,/Y_2*%
X138000915Y-72001014D03*
%TD*%
D15*
%TO.P,UP1,1,1*%
%TO.N,/up*%
X46399797Y-100875108D03*
%TO.P,UP1,2,2*%
X52599949Y-100875108D03*
%TO.P,UP1,3,3*%
%TO.N,GND*%
X46399797Y-104575133D03*
%TO.P,UP1,4,4*%
X52599949Y-104575133D03*
%TD*%
D14*
%TO.P,TRIANGLE1,1,1*%
%TO.N,/Triangle*%
X155625108Y-87600203D03*
%TO.P,TRIANGLE1,2,2*%
X155625108Y-81400051D03*
%TO.P,TRIANGLE1,3,3*%
%TO.N,/gnd*%
X159325133Y-87600203D03*
%TO.P,TRIANGLE1,4,4*%
X159325133Y-81400051D03*
%TD*%
D15*
%TO.P,DOWN1,1,1*%
%TO.N,/down*%
X46399797Y-115875108D03*
%TO.P,DOWN1,2,2*%
X52599949Y-115875108D03*
%TO.P,DOWN1,3,3*%
%TO.N,GND*%
X46399797Y-119575133D03*
%TO.P,DOWN1,4,4*%
X52599949Y-119575133D03*
%TD*%
D18*
%TO.P,C1,1,1*%
%TO.N,/l1*%
X160500000Y-125750000D03*
%TO.P,C1,2,2*%
%TO.N,/right*%
X160500000Y-126250000D03*
%TO.P,C1,3,3*%
%TO.N,/up*%
X160500000Y-126750000D03*
%TO.P,C1,4,4*%
%TO.N,/left*%
X160500000Y-127250000D03*
%TO.P,C1,5,5*%
%TO.N,/down*%
X160500000Y-127750000D03*
%TO.P,C1,6,6*%
%TO.N,GND*%
X160500000Y-128250000D03*
%TO.P,C1,7,7*%
X160500000Y-128750000D03*
%TO.P,C1,8,8*%
X160500000Y-129250000D03*
%TO.P,C1,9,9*%
X160500000Y-129750000D03*
%TO.P,C1,10,10*%
X160500000Y-130250000D03*
%TD*%
D19*
%TO.P,C2,1,1*%
%TO.N,/l1*%
X71000000Y-118000000D03*
%TO.P,C2,2,2*%
%TO.N,/right*%
X71500000Y-118000000D03*
%TO.P,C2,3,3*%
%TO.N,/up*%
X72000000Y-118000000D03*
%TO.P,C2,4,4*%
%TO.N,/left*%
X72500000Y-118000000D03*
%TO.P,C2,5,5*%
%TO.N,/down*%
X73000000Y-118000000D03*
%TO.P,C2,6,6*%
%TO.N,GND*%
X73500000Y-118000000D03*
%TO.P,C2,7,7*%
X74000000Y-118000000D03*
%TO.P,C2,8,8*%
X74500000Y-118000000D03*
%TO.P,C2,9,9*%
X75000000Y-118000000D03*
%TO.P,C2,10,10*%
X75500000Y-118000000D03*
%TD*%
D18*
%TO.P,C8,1,1*%
%TO.N,Net-(C8-Pad1)*%
X89500000Y-119000000D03*
%TO.P,C8,2,2*%
%TO.N,Net-(C8-Pad2)*%
X89500000Y-118500000D03*
%TO.P,C8,3,3*%
%TO.N,Net-(C8-Pad3)*%
X89500000Y-118000000D03*
%TO.P,C8,4,4*%
%TO.N,Net-(C8-Pad4)*%
X89500000Y-117500000D03*
%TO.P,C8,5,5*%
%TO.N,Net-(C8-Pad5)*%
X89500000Y-117000000D03*
%TO.P,C8,6,6*%
%TO.N,Net-(C8-Pad6)*%
X89500000Y-116500000D03*
%TO.P,C8,7,7*%
%TO.N,Net-(C8-Pad7)*%
X89500000Y-116000000D03*
%TO.P,C8,8,8*%
%TO.N,Net-(C8-Pad8)*%
X89500000Y-115500000D03*
%TO.P,C8,9,9*%
%TO.N,Net-(C8-Pad9)*%
X89500000Y-115000000D03*
%TO.P,C8,10,10*%
%TO.N,Net-(C8-Pad10)*%
X89500000Y-114500000D03*
%TD*%
D20*
%TO.N,/l1*%
X75500000Y-126000000D03*
X57750000Y-106500000D03*
X58000000Y-114750000D03*
X66750000Y-126500000D03*
%TO.N,/right*%
X74750000Y-127224500D03*
X65750000Y-127000000D03*
%TO.N,/up*%
X73750000Y-127949011D03*
X64500000Y-127750000D03*
X42750000Y-114000000D03*
X43500000Y-102500000D03*
%TO.N,/left*%
X72892691Y-128673511D03*
X59750000Y-128250000D03*
%TO.N,/down*%
X58750000Y-129000000D03*
X72000000Y-129500000D03*
%TO.N,GND*%
X48250000Y-58500000D03*
X46000000Y-121000000D03*
X59250000Y-114750000D03*
X52000000Y-97750000D03*
X44500000Y-104750000D03*
X77250000Y-128750000D03*
X57750000Y-130000000D03*
%TO.N,/gnd*%
X152750000Y-95000000D03*
X159500000Y-99250000D03*
X151250000Y-107250000D03*
%TO.N,/cross*%
X154500000Y-103250000D03*
%TO.N,/Circle*%
X157500000Y-98250000D03*
%TO.N,/Triangle*%
X155550038Y-97000000D03*
%TO.N,/R1*%
X154250000Y-97000000D03*
%TO.N,/Square*%
X146000000Y-100250000D03*
%TO.N,/+v*%
X47750000Y-62500000D03*
%TO.N,/X_2*%
X47250000Y-70500000D03*
%TO.N,/Y_2*%
X50250000Y-71750000D03*
%TO.N,/keyPower*%
X149250000Y-108750000D03*
%TD*%
D21*
%TO.N,/l1*%
X54000000Y-103000000D02*
X54000000Y-81500000D01*
X57500000Y-106500000D02*
X54000000Y-103000000D01*
X66500000Y-126250000D02*
X66750000Y-126500000D01*
X60386396Y-126250000D02*
X66500000Y-126250000D01*
X52375108Y-79875108D02*
X50919926Y-79875108D01*
X54000000Y-81500000D02*
X52375108Y-79875108D01*
X71000000Y-126000000D02*
X70500000Y-126500000D01*
X76000000Y-126000000D02*
X75500000Y-126000000D01*
X59000000Y-124863604D02*
X60386396Y-126250000D01*
X160500000Y-125750000D02*
X76250000Y-125750000D01*
X59000000Y-116477208D02*
X58000000Y-115477208D01*
X59000000Y-116477208D02*
X59000000Y-124863604D01*
X70500000Y-126500000D02*
X66750000Y-126500000D01*
X71000000Y-118000000D02*
X71000000Y-126000000D01*
X76250000Y-125750000D02*
X76000000Y-126000000D01*
X58000000Y-115477208D02*
X58000000Y-114750000D01*
X57750000Y-106500000D02*
X57500000Y-106500000D01*
%TO.N,/right*%
X65750000Y-127000000D02*
X60500000Y-127000000D01*
X58500000Y-125000000D02*
X58500000Y-116613604D01*
X52750000Y-113750000D02*
X52250000Y-113250000D01*
X58500000Y-116613604D02*
X55636396Y-113750000D01*
X76123411Y-126512307D02*
X76385718Y-126250000D01*
X55636396Y-113750000D02*
X52750000Y-113750000D01*
X74750000Y-127224500D02*
X75300114Y-127224500D01*
X76012307Y-126512307D02*
X76123411Y-126512307D01*
X60500000Y-127000000D02*
X58500000Y-125000000D01*
X53250000Y-109024905D02*
X53899797Y-108375108D01*
X66000000Y-127250000D02*
X65750000Y-127000000D01*
X52250000Y-111500000D02*
X53250000Y-110500000D01*
X71500000Y-126135717D02*
X70385717Y-127250000D01*
X75300114Y-127224500D02*
X76012307Y-126512307D01*
X70385717Y-127250000D02*
X66000000Y-127250000D01*
X52250000Y-113250000D02*
X52250000Y-111500000D01*
X71500000Y-118000000D02*
X71500000Y-126135717D01*
X76385718Y-126250000D02*
X160500000Y-126250000D01*
X53250000Y-110500000D02*
X53250000Y-109024905D01*
%TO.N,/up*%
X44774905Y-102500000D02*
X46399797Y-100875108D01*
X58000000Y-125250000D02*
X60500000Y-127750000D01*
X70271435Y-128000000D02*
X64750000Y-128000000D01*
X72000000Y-126271434D02*
X71978566Y-126271434D01*
X43000000Y-114250000D02*
X42750000Y-114000000D01*
X60500000Y-127750000D02*
X64500000Y-127750000D01*
X71978566Y-126271434D02*
X71949520Y-126300480D01*
X64750000Y-128000000D02*
X64500000Y-127750000D01*
X71949520Y-126300480D02*
X71949520Y-126321915D01*
X160500000Y-126750000D02*
X76521436Y-126750000D01*
X75322425Y-127949011D02*
X73750000Y-127949011D01*
X44250000Y-114250000D02*
X43000000Y-114250000D01*
X55500000Y-114250000D02*
X58000000Y-116750000D01*
X71949520Y-126321915D02*
X70271435Y-128000000D01*
X44250000Y-114250000D02*
X55500000Y-114250000D01*
X58000000Y-116750000D02*
X58000000Y-125250000D01*
X72000000Y-118000000D02*
X72000000Y-126271434D01*
X43500000Y-102500000D02*
X44774905Y-102500000D01*
X76521436Y-126750000D02*
X75322425Y-127949011D01*
%TO.N,/left*%
X38899797Y-112075133D02*
X39074664Y-112250000D01*
X39000000Y-114250000D02*
X39000000Y-112225095D01*
X55250000Y-114750000D02*
X39500000Y-114750000D01*
X76750000Y-127250000D02*
X75326489Y-128673511D01*
X59750000Y-128250000D02*
X57500000Y-126000000D01*
X57500000Y-126000000D02*
X57500000Y-117000000D01*
X72500000Y-118000000D02*
X72500000Y-126500000D01*
X57500000Y-117000000D02*
X55250000Y-114750000D01*
X160500000Y-127250000D02*
X76750000Y-127250000D01*
X39000000Y-112225095D02*
X38899797Y-112124892D01*
X39500000Y-114750000D02*
X39000000Y-114250000D01*
X70500000Y-128500000D02*
X60000000Y-128500000D01*
X72500000Y-126500000D02*
X70500000Y-128500000D01*
X60000000Y-128500000D02*
X59750000Y-128250000D01*
X75326489Y-128673511D02*
X72892691Y-128673511D01*
%TO.N,/down*%
X52599949Y-115875108D02*
X52974841Y-116250000D01*
X56750000Y-117000000D02*
X56750000Y-127000000D01*
X58750000Y-129000000D02*
X58800480Y-128949520D01*
X70431802Y-129181802D02*
X58931802Y-129181802D01*
X56000000Y-116250000D02*
X56750000Y-117000000D01*
X73000000Y-126635718D02*
X73000000Y-118000000D01*
X70664084Y-128949520D02*
X70431802Y-129181802D01*
X76885718Y-127750000D02*
X160500000Y-127750000D01*
X70686197Y-128949520D02*
X70664084Y-128949520D01*
X72000000Y-129500000D02*
X75135718Y-129500000D01*
X52974841Y-116250000D02*
X56000000Y-116250000D01*
X56750000Y-127000000D02*
X58750000Y-129000000D01*
X75135718Y-129500000D02*
X76885718Y-127750000D01*
X58931802Y-129181802D02*
X58750000Y-129000000D01*
X70686197Y-128949520D02*
X73000000Y-126635718D01*
%TO.N,GND*%
X73500000Y-126500000D02*
X73589293Y-126589293D01*
X77750000Y-128250000D02*
X141500000Y-128250000D01*
X46224930Y-104750000D02*
X46399797Y-104575133D01*
X59250000Y-114750000D02*
X59250000Y-114000000D01*
X143500000Y-130250000D02*
X141500000Y-128250000D01*
X143000000Y-128250000D02*
X143500000Y-128750000D01*
X46000000Y-119974930D02*
X46399797Y-119575133D01*
X45825133Y-104575133D02*
X46399797Y-104575133D01*
X75500000Y-118000000D02*
X75500000Y-124678585D01*
X73589293Y-126589293D02*
X74464293Y-125714293D01*
X73500000Y-118000000D02*
X73500000Y-126500000D01*
X143500000Y-128750000D02*
X160500000Y-128750000D01*
X60099949Y-113150051D02*
X60099949Y-112075133D01*
X70872395Y-129399040D02*
X73500000Y-126771435D01*
X45099949Y-105349949D02*
X44500000Y-104750000D01*
X46500000Y-60250000D02*
X46500000Y-65750000D01*
X59250000Y-114000000D02*
X60099949Y-113150051D01*
X70872395Y-129399040D02*
X70850960Y-129399040D01*
X50125000Y-58500000D02*
X48250000Y-58500000D01*
X142500000Y-128250000D02*
X142000000Y-128250000D01*
X77750000Y-128250000D02*
X77250000Y-128750000D01*
X74000000Y-118000000D02*
X74000000Y-126178586D01*
X46574664Y-119750000D02*
X46399797Y-119575133D01*
X160500000Y-130250000D02*
X143500000Y-130250000D01*
X142000000Y-128250000D02*
X143500000Y-129750000D01*
X70850960Y-129399040D02*
X70250000Y-130000000D01*
X46500000Y-65750000D02*
X49751014Y-69001014D01*
X45099949Y-108424867D02*
X45099949Y-105349949D01*
X160500000Y-128250000D02*
X143000000Y-128250000D01*
X50919926Y-83575133D02*
X51094793Y-83750000D01*
X74500000Y-118000000D02*
X74500000Y-125678586D01*
X53250000Y-84750000D02*
X53250000Y-96500000D01*
X143500000Y-129750000D02*
X160500000Y-129750000D01*
X142000000Y-128250000D02*
X141500000Y-128250000D01*
X75000000Y-118000000D02*
X75000000Y-125178586D01*
X70250000Y-130000000D02*
X57750000Y-130000000D01*
X49751014Y-69001014D02*
X138000915Y-69001014D01*
X52250000Y-83750000D02*
X53250000Y-84750000D01*
X73500000Y-126771435D02*
X73500000Y-126500000D01*
X48250000Y-58500000D02*
X46500000Y-60250000D01*
X46000000Y-121000000D02*
X46000000Y-119974930D01*
X74464293Y-125714293D02*
X75500000Y-124678585D01*
X143500000Y-129250000D02*
X142500000Y-128250000D01*
X60024816Y-112000000D02*
X60099949Y-112075133D01*
X160500000Y-129250000D02*
X143500000Y-129250000D01*
X143000000Y-128250000D02*
X142500000Y-128250000D01*
X53250000Y-96500000D02*
X52000000Y-97750000D01*
X44500000Y-104750000D02*
X46224930Y-104750000D01*
X51094793Y-83750000D02*
X52250000Y-83750000D01*
%TO.N,/gnd*%
X159500000Y-107425209D02*
X159575133Y-107350076D01*
X150750000Y-117750000D02*
X150750000Y-109000000D01*
X169450216Y-91275007D02*
X169325133Y-91149924D01*
X150750000Y-109000000D02*
X150750000Y-108500000D01*
X110075000Y-93500000D02*
X129750000Y-93500000D01*
X140000000Y-103750000D02*
X146250000Y-103750000D01*
X159700216Y-101275007D02*
X159575133Y-101149924D01*
X159450216Y-82569977D02*
X159250000Y-78000000D01*
X159000000Y-110000000D02*
X159500000Y-109500000D01*
X165525412Y-101149924D02*
X159575133Y-101149924D01*
X151500000Y-118500000D02*
X150750000Y-117750000D01*
X151000000Y-107250000D02*
X151250000Y-107250000D01*
X110075000Y-92500000D02*
X128750000Y-92500000D01*
X159820231Y-68920053D02*
X158525095Y-68920053D01*
X110075000Y-94000000D02*
X129636396Y-94000000D01*
X159250000Y-78000000D02*
X161000000Y-72000000D01*
X169325133Y-97350203D02*
X165525412Y-101149924D01*
X151250000Y-107500000D02*
X151000000Y-107250000D01*
X159575133Y-101149924D02*
X159575133Y-99325133D01*
X150750000Y-107750000D02*
X150750000Y-108500000D01*
X161000000Y-72000000D02*
X161000000Y-70099822D01*
X161000000Y-70099822D02*
X159820231Y-68920053D01*
X150750000Y-108863604D02*
X150750000Y-109000000D01*
X151250000Y-107250000D02*
X154000000Y-110000000D01*
X151250000Y-117500000D02*
X151250000Y-107500000D01*
X159500000Y-109500000D02*
X159500000Y-107425209D01*
X169325133Y-91149924D02*
X169325133Y-89825133D01*
X150750000Y-108250000D02*
X150750000Y-108500000D01*
X159725057Y-88000000D02*
X159325133Y-87600076D01*
X154000000Y-110000000D02*
X159000000Y-110000000D01*
X129750000Y-93500000D02*
X140000000Y-103750000D01*
X129250000Y-93000000D02*
X129750000Y-93500000D01*
X159575133Y-99325133D02*
X159500000Y-99250000D01*
X146250000Y-103750000D02*
X150750000Y-108250000D01*
X159700216Y-107224993D02*
X159575133Y-107350076D01*
X151250000Y-107250000D02*
X150750000Y-107750000D01*
X151750000Y-118000000D02*
X151250000Y-117500000D01*
X146136396Y-104250000D02*
X150750000Y-108863604D01*
X129636396Y-94000000D02*
X139886396Y-104250000D01*
X150149924Y-97600076D02*
X149825133Y-97600076D01*
X139886396Y-104250000D02*
X146136396Y-104250000D01*
X152750000Y-95000000D02*
X152750000Y-94324791D01*
X169325133Y-89825133D02*
X167500000Y-88000000D01*
X152750000Y-94324791D02*
X149825133Y-91399924D01*
X167500000Y-88000000D02*
X159725057Y-88000000D01*
X154500000Y-118500000D02*
X151500000Y-118500000D01*
X154500000Y-118000000D02*
X151750000Y-118000000D01*
X110075000Y-93000000D02*
X129250000Y-93000000D01*
X128750000Y-92500000D02*
X129250000Y-93000000D01*
X152750000Y-95000000D02*
X150149924Y-97600076D01*
%TO.N,/cross*%
X140250000Y-103250000D02*
X154500000Y-103250000D01*
X154500000Y-103250000D02*
X155875108Y-101874892D01*
X155875108Y-101874892D02*
X155875108Y-101149924D01*
X129000000Y-92000000D02*
X140250000Y-103250000D01*
X110075000Y-92000000D02*
X129000000Y-92000000D01*
%TO.N,/Circle*%
X110075000Y-91500000D02*
X129250000Y-91500000D01*
X154250000Y-100250000D02*
X156250000Y-98250000D01*
X140500000Y-102750000D02*
X153000000Y-102750000D01*
X129250000Y-91500000D02*
X140500000Y-102750000D01*
X164725184Y-98250000D02*
X165625108Y-97350076D01*
X157500000Y-98250000D02*
X164725184Y-98250000D01*
X154250000Y-101500000D02*
X154250000Y-100250000D01*
X153000000Y-102750000D02*
X154250000Y-101500000D01*
X156250000Y-98250000D02*
X157500000Y-98250000D01*
%TO.N,/Triangle*%
X155550038Y-97000000D02*
X155550038Y-87675146D01*
X155550038Y-98313566D02*
X155550038Y-97000000D01*
X140636396Y-102250000D02*
X152863604Y-102250000D01*
X129386396Y-91000000D02*
X140636396Y-102250000D01*
X153750000Y-101363604D02*
X153750000Y-100113604D01*
X155550038Y-87675146D02*
X155625108Y-87600076D01*
X110075000Y-91000000D02*
X129386396Y-91000000D01*
X152863604Y-102250000D02*
X153750000Y-101363604D01*
X153750000Y-100113604D02*
X155550038Y-98313566D01*
%TO.N,/R1*%
X154250000Y-98977208D02*
X154250000Y-97000000D01*
X129522792Y-90500000D02*
X140772792Y-101750000D01*
X153250000Y-101227208D02*
X153250000Y-99977208D01*
X160250000Y-72250000D02*
X160250000Y-71250000D01*
X140772792Y-101750000D02*
X152727208Y-101750000D01*
X157250000Y-79500000D02*
X158750000Y-78000000D01*
X156655017Y-70750000D02*
X154825070Y-68920053D01*
X158750000Y-78000000D02*
X160250000Y-72250000D01*
X159750000Y-70750000D02*
X156655017Y-70750000D01*
X154250000Y-97000000D02*
X154250000Y-79500000D01*
X154250000Y-79500000D02*
X157250000Y-79500000D01*
X160250000Y-71250000D02*
X159750000Y-70750000D01*
X110075000Y-90500000D02*
X129522792Y-90500000D01*
X152727208Y-101750000D02*
X153250000Y-101227208D01*
X153250000Y-99977208D02*
X154250000Y-98977208D01*
%TO.N,/Square*%
X145000000Y-101250000D02*
X146000000Y-100250000D01*
X146000000Y-97725184D02*
X146125108Y-97600076D01*
X129750000Y-90000000D02*
X141000000Y-101250000D01*
X110075000Y-90000000D02*
X129750000Y-90000000D01*
X146000000Y-100250000D02*
X146000000Y-97725184D01*
X141000000Y-101250000D02*
X145000000Y-101250000D01*
%TO.N,/X_1*%
X50125000Y-60500000D02*
X48500000Y-60500000D01*
X49998986Y-68501014D02*
X138000915Y-68501014D01*
X48500000Y-60500000D02*
X47000000Y-62000000D01*
X47000000Y-62000000D02*
X47000000Y-65502028D01*
X47000000Y-65502028D02*
X49998986Y-68501014D01*
%TO.N,/+v*%
X61500000Y-68000000D02*
X61501014Y-68001014D01*
X47750000Y-62500000D02*
X47750000Y-65250000D01*
X47750000Y-65250000D02*
X50500000Y-68000000D01*
X50125000Y-62500000D02*
X47750000Y-62500000D01*
X50500000Y-68000000D02*
X61500000Y-68000000D01*
X61501014Y-68001014D02*
X138000915Y-68001014D01*
%TO.N,/Y_1*%
X50125000Y-66375000D02*
X51251014Y-67501014D01*
X51251014Y-67501014D02*
X138000915Y-67501014D01*
X50125000Y-64500000D02*
X50125000Y-66375000D01*
%TO.N,/X_2*%
X50750000Y-70500000D02*
X51751014Y-71501014D01*
X47250000Y-70500000D02*
X50750000Y-70500000D01*
X51751014Y-71501014D02*
X138000915Y-71501014D01*
%TO.N,/Y_2*%
X50501014Y-72001014D02*
X138000915Y-72001014D01*
X50250000Y-71750000D02*
X50501014Y-72001014D01*
%TO.N,/keyHold*%
X110075000Y-95000000D02*
X129363604Y-95000000D01*
X129363604Y-95000000D02*
X139613604Y-105250000D01*
X149750000Y-118136396D02*
X151113604Y-119500000D01*
X147850000Y-108736396D02*
X149750000Y-110636396D01*
X147850000Y-107690812D02*
X147850000Y-108736396D01*
X145409188Y-105250000D02*
X147850000Y-107690812D01*
X139613604Y-105250000D02*
X145409188Y-105250000D01*
X151113604Y-119500000D02*
X154500000Y-119500000D01*
X149750000Y-110636396D02*
X149750000Y-118136396D01*
%TO.N,/LED +5v*%
X128500000Y-96500000D02*
X110075000Y-96500000D01*
X154500000Y-121000000D02*
X150613604Y-121000000D01*
X148250000Y-111045584D02*
X146500000Y-109295584D01*
X148250000Y-118636396D02*
X148250000Y-111045584D01*
X146500000Y-109295584D02*
X146500000Y-108250000D01*
X138750000Y-106750000D02*
X128500000Y-96500000D01*
X150613604Y-121000000D02*
X148250000Y-118636396D01*
X145000000Y-106750000D02*
X138750000Y-106750000D01*
X146500000Y-108250000D02*
X145000000Y-106750000D01*
%TO.N,/powerLED*%
X150977208Y-120000000D02*
X149250000Y-118272792D01*
X149250000Y-118272792D02*
X149250000Y-110772792D01*
X129000000Y-95500000D02*
X110075000Y-95500000D01*
X154500000Y-120000000D02*
X150977208Y-120000000D01*
X147400000Y-108922792D02*
X147400000Y-107877208D01*
X145272792Y-105750000D02*
X139250000Y-105750000D01*
X147400000Y-107877208D02*
X145272792Y-105750000D01*
X149250000Y-110772792D02*
X147400000Y-108922792D01*
X139250000Y-105750000D02*
X129000000Y-95500000D01*
%TO.N,/keyPower*%
X151250000Y-119000000D02*
X150250000Y-118000000D01*
X139750000Y-104750000D02*
X146000000Y-104750000D01*
X129500000Y-94500000D02*
X139750000Y-104750000D01*
X148500000Y-108000000D02*
X149250000Y-108750000D01*
X150250000Y-118000000D02*
X150250000Y-110500000D01*
X154500000Y-119000000D02*
X151250000Y-119000000D01*
X150250000Y-110500000D02*
X150250000Y-109750000D01*
X110075000Y-94500000D02*
X129500000Y-94500000D01*
X146000000Y-104750000D02*
X148500000Y-107250000D01*
X150250000Y-109750000D02*
X149250000Y-108750000D01*
X148500000Y-107250000D02*
X148500000Y-108000000D01*
%TO.N,/chargeLED*%
X148750000Y-118500000D02*
X150750000Y-120500000D01*
X145136396Y-106250000D02*
X146950000Y-108063604D01*
X146950000Y-109109188D02*
X148750000Y-110909188D01*
X148750000Y-110909188D02*
X148750000Y-118500000D01*
X128863604Y-96000000D02*
X139113604Y-106250000D01*
X150750000Y-120500000D02*
X154500000Y-120500000D01*
X146950000Y-108063604D02*
X146950000Y-109109188D01*
X139113604Y-106250000D02*
X145136396Y-106250000D01*
X110075000Y-96000000D02*
X128863604Y-96000000D01*
%TD*%
M02*
