%TF.GenerationSoftware,KiCad,Pcbnew,(6.0.1)*%
%TF.CreationDate,2022-06-06T15:56:05+01:00*%
%TF.ProjectId,psp-bluetooth,7073702d-626c-4756-9574-6f6f74682e6b,rev?*%
%TF.SameCoordinates,Original*%
%TF.FileFunction,Copper,L2,Bot*%
%TF.FilePolarity,Positive*%
%FSLAX46Y46*%
G04 Gerber Fmt 4.6, Leading zero omitted, Abs format (unit mm)*
G04 Created by KiCad (PCBNEW (6.0.1)) date 2022-06-06 15:56:05*
%MOMM*%
%LPD*%
G01*
G04 APERTURE LIST*
%TA.AperFunction,ComponentPad*%
%ADD10O,2.032000X1.727200*%
%TD*%
%TA.AperFunction,ComponentPad*%
%ADD11C,2.540000*%
%TD*%
%TA.AperFunction,ComponentPad*%
%ADD12R,2.475000X2.475000*%
%TD*%
%TA.AperFunction,ComponentPad*%
%ADD13C,2.475000*%
%TD*%
%TA.AperFunction,ComponentPad*%
%ADD14R,1.600000X1.600000*%
%TD*%
%TA.AperFunction,ComponentPad*%
%ADD15O,1.600000X1.600000*%
%TD*%
%TA.AperFunction,ComponentPad*%
%ADD16R,1.700000X1.700000*%
%TD*%
%TA.AperFunction,ComponentPad*%
%ADD17O,1.700000X1.700000*%
%TD*%
%TA.AperFunction,Conductor*%
%ADD18C,0.250000*%
%TD*%
G04 APERTURE END LIST*
D10*
%TO.P,P1,1,Pin_1*%
%TO.N,/1(Tx)*%
X139446000Y-71247000D03*
%TO.P,P1,2,Pin_2*%
%TO.N,/0(Rx)*%
X139446000Y-73787000D03*
%TO.P,P1,3,Pin_3*%
%TO.N,/Reset*%
X139446000Y-76327000D03*
%TO.P,P1,4,Pin_4*%
%TO.N,GND*%
X139446000Y-78867000D03*
%TO.P,P1,5,Pin_5*%
%TO.N,/2*%
X139446000Y-81407000D03*
%TO.P,P1,6,Pin_6*%
%TO.N,/3(\u002A\u002A)*%
X139446000Y-83947000D03*
%TO.P,P1,7,Pin_7*%
%TO.N,/4*%
X139446000Y-86487000D03*
%TO.P,P1,8,Pin_8*%
%TO.N,/5(\u002A\u002A)*%
X139446000Y-89027000D03*
%TO.P,P1,9,Pin_9*%
%TO.N,/6(\u002A\u002A)*%
X139446000Y-91567000D03*
%TO.P,P1,10,Pin_10*%
%TO.N,/7*%
X139446000Y-94107000D03*
%TO.P,P1,11,Pin_11*%
%TO.N,/8*%
X139446000Y-96647000D03*
%TO.P,P1,12,Pin_12*%
%TO.N,/9(\u002A\u002A)*%
X139446000Y-99187000D03*
%TO.P,P1,13,Pin_13*%
%TO.N,/10(\u002A\u002A{slash}SS)*%
X139446000Y-101727000D03*
%TO.P,P1,14,Pin_14*%
%TO.N,/11(\u002A\u002A{slash}MOSI)*%
X139446000Y-104267000D03*
%TO.P,P1,15,Pin_15*%
%TO.N,/12(MISO)*%
X139446000Y-106807000D03*
%TD*%
%TO.P,P2,1,Pin_1*%
%TO.N,VIN*%
X154686000Y-71247000D03*
%TO.P,P2,2,Pin_2*%
%TO.N,GND*%
X154686000Y-73787000D03*
%TO.P,P2,3,Pin_3*%
%TO.N,/Reset*%
X154686000Y-76327000D03*
%TO.P,P2,4,Pin_4*%
%TO.N,+5V*%
X154686000Y-78867000D03*
%TO.P,P2,5,Pin_5*%
%TO.N,/A7 (D21)*%
X154686000Y-81407000D03*
%TO.P,P2,6,Pin_6*%
%TO.N,/A6 (D20)*%
X154686000Y-83947000D03*
%TO.P,P2,7,Pin_7*%
%TO.N,/A5 (D19)*%
X154686000Y-86487000D03*
%TO.P,P2,8,Pin_8*%
%TO.N,/A4 (D18)*%
X154686000Y-89027000D03*
%TO.P,P2,9,Pin_9*%
%TO.N,/A3 (D17)*%
X154686000Y-91567000D03*
%TO.P,P2,10,Pin_10*%
%TO.N,/A2 (D16)*%
X154686000Y-94107000D03*
%TO.P,P2,11,Pin_11*%
%TO.N,/A1 (D15)*%
X154686000Y-96647000D03*
%TO.P,P2,12,Pin_12*%
%TO.N,/A0 (D14)*%
X154686000Y-99187000D03*
%TO.P,P2,13,Pin_13*%
%TO.N,/AREF*%
X154686000Y-101727000D03*
%TO.P,P2,14,Pin_14*%
%TO.N,+3V3*%
X154686000Y-104267000D03*
%TO.P,P2,15,Pin_15*%
%TO.N,/13(SCK)*%
X154686000Y-106807000D03*
%TD*%
D11*
%TO.P,P3,1,Pin_1*%
%TO.N,unconnected-(P3-Pad1)*%
X116840000Y-48260000D03*
%TD*%
%TO.P,P4,1,Pin_1*%
%TO.N,unconnected-(P4-Pad1)*%
X116840000Y-127000000D03*
%TD*%
%TO.P,P5,1,Pin_1*%
%TO.N,unconnected-(P5-Pad1)*%
X162560000Y-127000000D03*
%TD*%
%TO.P,P6,1,Pin_1*%
%TO.N,unconnected-(P6-Pad1)*%
X162560000Y-48260000D03*
%TD*%
D12*
%TO.P,S1,1*%
%TO.N,unconnected-(S1-Pad1)*%
X134290000Y-56402500D03*
D13*
%TO.P,S1,2*%
%TO.N,Net-(J5-Pad2)*%
X129540000Y-56402500D03*
%TO.P,S1,3*%
%TO.N,Net-(J6-Pad2)*%
X124790000Y-56402500D03*
%TD*%
D14*
%TO.P,U1,1,~{CS}*%
%TO.N,/10(\u002A\u002A{slash}SS)*%
X134615000Y-125720000D03*
D15*
%TO.P,U1,2,SCK*%
%TO.N,/13(SCK)*%
X137155000Y-125720000D03*
%TO.P,U1,3,SDI*%
%TO.N,/11(\u002A\u002A{slash}MOSI)*%
X139695000Y-125720000D03*
%TO.P,U1,4,VSS*%
%TO.N,GND*%
X142235000Y-125720000D03*
%TO.P,U1,5,P1B*%
X144775000Y-125720000D03*
%TO.P,U1,6,P1W*%
%TO.N,Net-(J4-Pad2)*%
X147315000Y-125720000D03*
%TO.P,U1,7,P1A*%
%TO.N,Net-(J4-Pad3)*%
X149855000Y-125720000D03*
%TO.P,U1,8,P0A*%
X149855000Y-118100000D03*
%TO.P,U1,9,P0W*%
%TO.N,Net-(J4-Pad4)*%
X147315000Y-118100000D03*
%TO.P,U1,10,P0B*%
%TO.N,GND*%
X144775000Y-118100000D03*
%TO.P,U1,11,~{WP}*%
%TO.N,unconnected-(U1-Pad11)*%
X142235000Y-118100000D03*
%TO.P,U1,12,~{SHDN}*%
%TO.N,unconnected-(U1-Pad12)*%
X139695000Y-118100000D03*
%TO.P,U1,13,SDO*%
%TO.N,/12(MISO)*%
X137155000Y-118100000D03*
%TO.P,U1,14,VDD*%
%TO.N,+3V3*%
X134615000Y-118100000D03*
%TD*%
D16*
%TO.P,J7,1,Pin_1*%
%TO.N,/1(Tx)*%
X129540000Y-71120000D03*
D17*
%TO.P,J7,2,Pin_2*%
%TO.N,/0(Rx)*%
X129540000Y-73660000D03*
%TD*%
D16*
%TO.P,J4,1,Pin_1*%
%TO.N,GND*%
X157480000Y-127000000D03*
D17*
%TO.P,J4,2,Pin_2*%
%TO.N,Net-(J4-Pad2)*%
X157480000Y-124460000D03*
%TO.P,J4,3,Pin_3*%
%TO.N,Net-(J4-Pad3)*%
X157480000Y-121920000D03*
%TO.P,J4,4,Pin_4*%
%TO.N,Net-(J4-Pad4)*%
X157480000Y-119380000D03*
%TD*%
D16*
%TO.P,J5,1,Pin_1*%
%TO.N,GND*%
X154940000Y-50800000D03*
D17*
%TO.P,J5,2,Pin_2*%
%TO.N,Net-(J5-Pad2)*%
X154940000Y-53340000D03*
%TD*%
D16*
%TO.P,J8,1,Pin_1*%
%TO.N,Net-(J5-Pad2)*%
X154940000Y-60960000D03*
D17*
%TO.P,J8,2,Pin_2*%
%TO.N,VIN*%
X154940000Y-63500000D03*
%TD*%
D16*
%TO.P,J6,1,Pin_1*%
%TO.N,GND*%
X144780000Y-50800000D03*
D17*
%TO.P,J6,2,Pin_2*%
%TO.N,Net-(J6-Pad2)*%
X144780000Y-53340000D03*
%TD*%
D18*
%TO.N,/Reset*%
X154686000Y-76327000D02*
X139446000Y-76327000D01*
%TO.N,VIN*%
X154940000Y-63500000D02*
X154940000Y-70993000D01*
X154940000Y-70993000D02*
X154686000Y-71247000D01*
%TO.N,/1(Tx)*%
X129667000Y-71247000D02*
X129540000Y-71120000D01*
X139446000Y-71247000D02*
X129667000Y-71247000D01*
%TO.N,/0(Rx)*%
X129667000Y-73787000D02*
X129540000Y-73660000D01*
X139446000Y-73787000D02*
X129667000Y-73787000D01*
%TO.N,/13(SCK)*%
X143650489Y-117634211D02*
X154477700Y-106807000D01*
X143650489Y-119224511D02*
X143650489Y-117634211D01*
X137155000Y-125720000D02*
X143650489Y-119224511D01*
X154477700Y-106807000D02*
X154686000Y-106807000D01*
%TO.N,+3V3*%
X148448000Y-104267000D02*
X154686000Y-104267000D01*
X134615000Y-118100000D02*
X148448000Y-104267000D01*
%TO.N,/12(MISO)*%
X134620000Y-121920000D02*
X132080000Y-121920000D01*
X129540000Y-116713000D02*
X139446000Y-106807000D01*
X129540000Y-119380000D02*
X129540000Y-116713000D01*
X137155000Y-119385000D02*
X134620000Y-121920000D01*
X132080000Y-121920000D02*
X129540000Y-119380000D01*
X137155000Y-118100000D02*
X137155000Y-119385000D01*
%TO.N,/10(\u002A\u002A{slash}SS)*%
X131434283Y-125720000D02*
X126550480Y-120836197D01*
X126550480Y-114622520D02*
X139446000Y-101727000D01*
X126550480Y-120836197D02*
X126550480Y-114622520D01*
X134615000Y-125720000D02*
X131434283Y-125720000D01*
%TO.N,/11(\u002A\u002A{slash}MOSI)*%
X135890000Y-124460000D02*
X134620000Y-123190000D01*
X129540000Y-123190000D02*
X127000000Y-120650000D01*
X136844700Y-127000000D02*
X135890000Y-126045300D01*
X127000000Y-120650000D02*
X127000000Y-116840000D01*
X139700000Y-127000000D02*
X136844700Y-127000000D01*
X127000000Y-116713000D02*
X139446000Y-104267000D01*
X134620000Y-123190000D02*
X129540000Y-123190000D01*
X139695000Y-126995000D02*
X139700000Y-127000000D01*
X135890000Y-126045300D02*
X135890000Y-124460000D01*
X139695000Y-125720000D02*
X139695000Y-126995000D01*
%TO.N,Net-(J6-Pad2)*%
X142240000Y-63500000D02*
X144780000Y-60960000D01*
X124790000Y-61290000D02*
X127000000Y-63500000D01*
X127000000Y-63500000D02*
X142240000Y-63500000D01*
X124790000Y-56402500D02*
X124790000Y-61290000D01*
X144780000Y-60960000D02*
X144780000Y-53340000D01*
%TD*%
%TA.AperFunction,Conductor*%
%TO.N,GND*%
G36*
X116734733Y-46229292D02*
G01*
X116744153Y-46228000D01*
X162450334Y-46228000D01*
X162454733Y-46229292D01*
X162464153Y-46228000D01*
X172086000Y-46228000D01*
X172154121Y-46248002D01*
X172200614Y-46301658D01*
X172212000Y-46354000D01*
X172212000Y-130176000D01*
X172191998Y-130244121D01*
X172138342Y-130290614D01*
X172086000Y-130302000D01*
X114934000Y-130302000D01*
X114865879Y-130281998D01*
X114819386Y-130228342D01*
X114808000Y-130176000D01*
X114808000Y-127016214D01*
X114822677Y-126966230D01*
X114822427Y-126965739D01*
X115045271Y-126965739D01*
X115054896Y-126980716D01*
X115059855Y-127010169D01*
X115069807Y-127217352D01*
X115082373Y-127280526D01*
X115120341Y-127471402D01*
X115121378Y-127476616D01*
X115122957Y-127481014D01*
X115122959Y-127481021D01*
X115209121Y-127721001D01*
X115210704Y-127725410D01*
X115212921Y-127729536D01*
X115305313Y-127901486D01*
X115335822Y-127958267D01*
X115338617Y-127962011D01*
X115338619Y-127962013D01*
X115444384Y-128103649D01*
X115493985Y-128170073D01*
X115497292Y-128173351D01*
X115497297Y-128173357D01*
X115678402Y-128352887D01*
X115681718Y-128356174D01*
X115894896Y-128512483D01*
X115899031Y-128514659D01*
X115899035Y-128514661D01*
X116022293Y-128579510D01*
X116128836Y-128635565D01*
X116378400Y-128722716D01*
X116382993Y-128723588D01*
X116633515Y-128771151D01*
X116633518Y-128771151D01*
X116638104Y-128772022D01*
X116770173Y-128777211D01*
X116897575Y-128782218D01*
X116897581Y-128782218D01*
X116902243Y-128782401D01*
X117165015Y-128753622D01*
X117169526Y-128752434D01*
X117169528Y-128752434D01*
X117416124Y-128687511D01*
X117416126Y-128687510D01*
X117420647Y-128686320D01*
X117535191Y-128637108D01*
X117659229Y-128583817D01*
X117659231Y-128583816D01*
X117663523Y-128581972D01*
X117888307Y-128442871D01*
X117904788Y-128428919D01*
X118086496Y-128275093D01*
X118086498Y-128275091D01*
X118090063Y-128272073D01*
X118264356Y-128073329D01*
X118338367Y-127958267D01*
X118379274Y-127894669D01*
X156122001Y-127894669D01*
X156122371Y-127901490D01*
X156127895Y-127952352D01*
X156131521Y-127967604D01*
X156176676Y-128088054D01*
X156185214Y-128103649D01*
X156261715Y-128205724D01*
X156274276Y-128218285D01*
X156376351Y-128294786D01*
X156391946Y-128303324D01*
X156512394Y-128348478D01*
X156527649Y-128352105D01*
X156578514Y-128357631D01*
X156585328Y-128358000D01*
X157207885Y-128358000D01*
X157223124Y-128353525D01*
X157224329Y-128352135D01*
X157226000Y-128344452D01*
X157226000Y-128339884D01*
X157734000Y-128339884D01*
X157738475Y-128355123D01*
X157739865Y-128356328D01*
X157747548Y-128357999D01*
X158374669Y-128357999D01*
X158381490Y-128357629D01*
X158432352Y-128352105D01*
X158447604Y-128348479D01*
X158568054Y-128303324D01*
X158583649Y-128294786D01*
X158685724Y-128218285D01*
X158698285Y-128205724D01*
X158774786Y-128103649D01*
X158783324Y-128088054D01*
X158828478Y-127967606D01*
X158832105Y-127952351D01*
X158837631Y-127901486D01*
X158838000Y-127894672D01*
X158838000Y-127272115D01*
X158833525Y-127256876D01*
X158832135Y-127255671D01*
X158824452Y-127254000D01*
X157752115Y-127254000D01*
X157736876Y-127258475D01*
X157735671Y-127259865D01*
X157734000Y-127267548D01*
X157734000Y-128339884D01*
X157226000Y-128339884D01*
X157226000Y-127272115D01*
X157221525Y-127256876D01*
X157220135Y-127255671D01*
X157212452Y-127254000D01*
X156140116Y-127254000D01*
X156124877Y-127258475D01*
X156123672Y-127259865D01*
X156122001Y-127267548D01*
X156122001Y-127894669D01*
X118379274Y-127894669D01*
X118404831Y-127854936D01*
X118407359Y-127851006D01*
X118515930Y-127609988D01*
X118587683Y-127355570D01*
X118606859Y-127204836D01*
X118620645Y-127096471D01*
X118620645Y-127096465D01*
X118621043Y-127093340D01*
X118623487Y-127000000D01*
X118621123Y-126968192D01*
X118604243Y-126741036D01*
X118604242Y-126741032D01*
X118603897Y-126736384D01*
X118545557Y-126478559D01*
X118530028Y-126438626D01*
X118451442Y-126236542D01*
X118451441Y-126236540D01*
X118449749Y-126232189D01*
X118427541Y-126193332D01*
X118377242Y-126105328D01*
X118318578Y-126002687D01*
X118154925Y-125795094D01*
X117962385Y-125613970D01*
X117925212Y-125588182D01*
X117749026Y-125465958D01*
X117749021Y-125465955D01*
X117745188Y-125463296D01*
X117740997Y-125461229D01*
X117512294Y-125348445D01*
X117512291Y-125348444D01*
X117508106Y-125346380D01*
X117485964Y-125339292D01*
X117288449Y-125276067D01*
X117256347Y-125265791D01*
X117113825Y-125242580D01*
X117000053Y-125224051D01*
X117000052Y-125224051D01*
X116995441Y-125223300D01*
X116863281Y-125221570D01*
X116735798Y-125219901D01*
X116735795Y-125219901D01*
X116731121Y-125219840D01*
X116469192Y-125255486D01*
X116464702Y-125256795D01*
X116464696Y-125256796D01*
X116356732Y-125288265D01*
X116215410Y-125329457D01*
X116211163Y-125331415D01*
X116211160Y-125331416D01*
X116153079Y-125358192D01*
X115975348Y-125440127D01*
X115956549Y-125452452D01*
X115758195Y-125582499D01*
X115758190Y-125582503D01*
X115754282Y-125585065D01*
X115557067Y-125761086D01*
X115388036Y-125964324D01*
X115250901Y-126190314D01*
X115249095Y-126194622D01*
X115249094Y-126194623D01*
X115174814Y-126371762D01*
X115148677Y-126434091D01*
X115147526Y-126438623D01*
X115147525Y-126438626D01*
X115136226Y-126483116D01*
X115083608Y-126690301D01*
X115079714Y-126728972D01*
X115059366Y-126931049D01*
X115045271Y-126965739D01*
X114822427Y-126965739D01*
X114810156Y-126941632D01*
X114808000Y-126918425D01*
X114808000Y-114602463D01*
X125912260Y-114602463D01*
X125913006Y-114610355D01*
X125916421Y-114646481D01*
X125916980Y-114658339D01*
X125916980Y-120757430D01*
X125916453Y-120768613D01*
X125914778Y-120776106D01*
X125915027Y-120784032D01*
X125915027Y-120784033D01*
X125916918Y-120844183D01*
X125916980Y-120848142D01*
X125916980Y-120876053D01*
X125917477Y-120879987D01*
X125917477Y-120879988D01*
X125917485Y-120880053D01*
X125918418Y-120891890D01*
X125919807Y-120936086D01*
X125925458Y-120955536D01*
X125929467Y-120974897D01*
X125932006Y-120994994D01*
X125934925Y-121002365D01*
X125934925Y-121002367D01*
X125948284Y-121036109D01*
X125952129Y-121047339D01*
X125957670Y-121066411D01*
X125964462Y-121089790D01*
X125968495Y-121096609D01*
X125968497Y-121096614D01*
X125974773Y-121107225D01*
X125983468Y-121124973D01*
X125990928Y-121143814D01*
X125995590Y-121150230D01*
X125995590Y-121150231D01*
X126016916Y-121179584D01*
X126023432Y-121189504D01*
X126045938Y-121227559D01*
X126060259Y-121241880D01*
X126073099Y-121256913D01*
X126085008Y-121273304D01*
X126097479Y-121283621D01*
X126119085Y-121301495D01*
X126127864Y-121309485D01*
X130930626Y-126112247D01*
X130938170Y-126120537D01*
X130942283Y-126127018D01*
X130948060Y-126132443D01*
X130991950Y-126173658D01*
X130994792Y-126176413D01*
X131014513Y-126196134D01*
X131017708Y-126198612D01*
X131026730Y-126206318D01*
X131058962Y-126236586D01*
X131065911Y-126240406D01*
X131076715Y-126246346D01*
X131093239Y-126257199D01*
X131109242Y-126269613D01*
X131149826Y-126287176D01*
X131160456Y-126292383D01*
X131199223Y-126313695D01*
X131206900Y-126315666D01*
X131206905Y-126315668D01*
X131218841Y-126318732D01*
X131237549Y-126325137D01*
X131256138Y-126333181D01*
X131263963Y-126334420D01*
X131263965Y-126334421D01*
X131299802Y-126340097D01*
X131311423Y-126342504D01*
X131346572Y-126351528D01*
X131354253Y-126353500D01*
X131374514Y-126353500D01*
X131394223Y-126355051D01*
X131414226Y-126358219D01*
X131422118Y-126357473D01*
X131427345Y-126356979D01*
X131458237Y-126354059D01*
X131470094Y-126353500D01*
X133180500Y-126353500D01*
X133248621Y-126373502D01*
X133295114Y-126427158D01*
X133306500Y-126479500D01*
X133306500Y-126568134D01*
X133313255Y-126630316D01*
X133364385Y-126766705D01*
X133451739Y-126883261D01*
X133568295Y-126970615D01*
X133704684Y-127021745D01*
X133766866Y-127028500D01*
X135463134Y-127028500D01*
X135525316Y-127021745D01*
X135661705Y-126970615D01*
X135721596Y-126925729D01*
X135788102Y-126900881D01*
X135857485Y-126915934D01*
X135886256Y-126937460D01*
X136341043Y-127392247D01*
X136348587Y-127400537D01*
X136352700Y-127407018D01*
X136358477Y-127412443D01*
X136402367Y-127453658D01*
X136405209Y-127456413D01*
X136424931Y-127476135D01*
X136428073Y-127478572D01*
X136428133Y-127478619D01*
X136437145Y-127486317D01*
X136462736Y-127510347D01*
X136469379Y-127516586D01*
X136476322Y-127520403D01*
X136487131Y-127526345D01*
X136503653Y-127537198D01*
X136519659Y-127549614D01*
X136526937Y-127552764D01*
X136526938Y-127552764D01*
X136560237Y-127567174D01*
X136570887Y-127572391D01*
X136609640Y-127593695D01*
X136617315Y-127595666D01*
X136617316Y-127595666D01*
X136629262Y-127598733D01*
X136647967Y-127605137D01*
X136666555Y-127613181D01*
X136674378Y-127614420D01*
X136674388Y-127614423D01*
X136710224Y-127620099D01*
X136721844Y-127622505D01*
X136756989Y-127631528D01*
X136764670Y-127633500D01*
X136784924Y-127633500D01*
X136804634Y-127635051D01*
X136824643Y-127638220D01*
X136832535Y-127637474D01*
X136868661Y-127634059D01*
X136880519Y-127633500D01*
X139640224Y-127633500D01*
X139659934Y-127635051D01*
X139679943Y-127638220D01*
X139687835Y-127637474D01*
X139723961Y-127634059D01*
X139735819Y-127633500D01*
X139739856Y-127633500D01*
X139767545Y-127630002D01*
X139771479Y-127629567D01*
X139831402Y-127623903D01*
X139831404Y-127623903D01*
X139839292Y-127623157D01*
X139846512Y-127620558D01*
X139847091Y-127620457D01*
X139850627Y-127619608D01*
X139851187Y-127619436D01*
X139858797Y-127618474D01*
X139922128Y-127593399D01*
X139925822Y-127592004D01*
X139989889Y-127568939D01*
X139996239Y-127564624D01*
X139996779Y-127564380D01*
X139999982Y-127562685D01*
X140000489Y-127562374D01*
X140007617Y-127559552D01*
X140014023Y-127554898D01*
X140014028Y-127554895D01*
X140062727Y-127519513D01*
X140065965Y-127517237D01*
X140066923Y-127516586D01*
X140122271Y-127478972D01*
X140127346Y-127473215D01*
X140127811Y-127472843D01*
X140130492Y-127470402D01*
X140130898Y-127469983D01*
X140137107Y-127465472D01*
X140180514Y-127413003D01*
X140183082Y-127409996D01*
X140185708Y-127407018D01*
X140228120Y-127358910D01*
X140231602Y-127352075D01*
X140231948Y-127351614D01*
X140233951Y-127348565D01*
X140234241Y-127348056D01*
X140239133Y-127342144D01*
X140268135Y-127280512D01*
X140269850Y-127277010D01*
X140300785Y-127216296D01*
X140302460Y-127208805D01*
X140302688Y-127208253D01*
X140303858Y-127204836D01*
X140304015Y-127204264D01*
X140307283Y-127197318D01*
X140320043Y-127130429D01*
X140320845Y-127126554D01*
X140335702Y-127060091D01*
X140335461Y-127052422D01*
X140335544Y-127051840D01*
X140335829Y-127048211D01*
X140335838Y-127047626D01*
X140337275Y-127040094D01*
X140332998Y-126972116D01*
X140332813Y-126968192D01*
X140332752Y-126966230D01*
X140332199Y-126948660D01*
X140331958Y-126940972D01*
X140349812Y-126872257D01*
X140385625Y-126833803D01*
X140534789Y-126729357D01*
X140534792Y-126729355D01*
X140539300Y-126726198D01*
X140701198Y-126564300D01*
X140832523Y-126376749D01*
X140834846Y-126371767D01*
X140834849Y-126371762D01*
X140851081Y-126336951D01*
X140897998Y-126283666D01*
X140966275Y-126264205D01*
X141034235Y-126284747D01*
X141079471Y-126336951D01*
X141095586Y-126371511D01*
X141101069Y-126381007D01*
X141226028Y-126559467D01*
X141233084Y-126567875D01*
X141387125Y-126721916D01*
X141395533Y-126728972D01*
X141573993Y-126853931D01*
X141583489Y-126859414D01*
X141780947Y-126951490D01*
X141791239Y-126955236D01*
X141963503Y-127001394D01*
X141977599Y-127001058D01*
X141981000Y-126993116D01*
X141981000Y-126987967D01*
X142489000Y-126987967D01*
X142492973Y-127001498D01*
X142501522Y-127002727D01*
X142678761Y-126955236D01*
X142689053Y-126951490D01*
X142886511Y-126859414D01*
X142896007Y-126853931D01*
X143074467Y-126728972D01*
X143082875Y-126721916D01*
X143236916Y-126567875D01*
X143243972Y-126559467D01*
X143368931Y-126381007D01*
X143374414Y-126371511D01*
X143390805Y-126336359D01*
X143437722Y-126283074D01*
X143505999Y-126263613D01*
X143573959Y-126284155D01*
X143619195Y-126336359D01*
X143635586Y-126371511D01*
X143641069Y-126381007D01*
X143766028Y-126559467D01*
X143773084Y-126567875D01*
X143927125Y-126721916D01*
X143935533Y-126728972D01*
X144113993Y-126853931D01*
X144123489Y-126859414D01*
X144320947Y-126951490D01*
X144331239Y-126955236D01*
X144503503Y-127001394D01*
X144517599Y-127001058D01*
X144521000Y-126993116D01*
X144521000Y-126987967D01*
X145029000Y-126987967D01*
X145032973Y-127001498D01*
X145041522Y-127002727D01*
X145218761Y-126955236D01*
X145229053Y-126951490D01*
X145426511Y-126859414D01*
X145436007Y-126853931D01*
X145614467Y-126728972D01*
X145622875Y-126721916D01*
X145776916Y-126567875D01*
X145783972Y-126559467D01*
X145908931Y-126381007D01*
X145914414Y-126371511D01*
X145930529Y-126336951D01*
X145977446Y-126283666D01*
X146045723Y-126264205D01*
X146113683Y-126284747D01*
X146158919Y-126336951D01*
X146175151Y-126371762D01*
X146175154Y-126371767D01*
X146177477Y-126376749D01*
X146308802Y-126564300D01*
X146470700Y-126726198D01*
X146475208Y-126729355D01*
X146475211Y-126729357D01*
X146498980Y-126746000D01*
X146658251Y-126857523D01*
X146663233Y-126859846D01*
X146663238Y-126859849D01*
X146853696Y-126948660D01*
X146865757Y-126954284D01*
X146871065Y-126955706D01*
X146871067Y-126955707D01*
X147081598Y-127012119D01*
X147081600Y-127012119D01*
X147086913Y-127013543D01*
X147315000Y-127033498D01*
X147543087Y-127013543D01*
X147548400Y-127012119D01*
X147548402Y-127012119D01*
X147758933Y-126955707D01*
X147758935Y-126955706D01*
X147764243Y-126954284D01*
X147776304Y-126948660D01*
X147966762Y-126859849D01*
X147966767Y-126859846D01*
X147971749Y-126857523D01*
X148131020Y-126746000D01*
X148154789Y-126729357D01*
X148154792Y-126729355D01*
X148159300Y-126726198D01*
X148321198Y-126564300D01*
X148452523Y-126376749D01*
X148454846Y-126371767D01*
X148454849Y-126371762D01*
X148470805Y-126337543D01*
X148517722Y-126284258D01*
X148585999Y-126264797D01*
X148653959Y-126285339D01*
X148699195Y-126337543D01*
X148715151Y-126371762D01*
X148715154Y-126371767D01*
X148717477Y-126376749D01*
X148848802Y-126564300D01*
X149010700Y-126726198D01*
X149015208Y-126729355D01*
X149015211Y-126729357D01*
X149038980Y-126746000D01*
X149198251Y-126857523D01*
X149203233Y-126859846D01*
X149203238Y-126859849D01*
X149393696Y-126948660D01*
X149405757Y-126954284D01*
X149411065Y-126955706D01*
X149411067Y-126955707D01*
X149621598Y-127012119D01*
X149621600Y-127012119D01*
X149626913Y-127013543D01*
X149855000Y-127033498D01*
X150083087Y-127013543D01*
X150088400Y-127012119D01*
X150088402Y-127012119D01*
X150298933Y-126955707D01*
X150298935Y-126955706D01*
X150304243Y-126954284D01*
X150306323Y-126953314D01*
X160777124Y-126953314D01*
X160777348Y-126957980D01*
X160777348Y-126957985D01*
X160781292Y-127040094D01*
X160789807Y-127217352D01*
X160802373Y-127280526D01*
X160840341Y-127471402D01*
X160841378Y-127476616D01*
X160842957Y-127481014D01*
X160842959Y-127481021D01*
X160929121Y-127721001D01*
X160930704Y-127725410D01*
X160932921Y-127729536D01*
X161025313Y-127901486D01*
X161055822Y-127958267D01*
X161058617Y-127962011D01*
X161058619Y-127962013D01*
X161164384Y-128103649D01*
X161213985Y-128170073D01*
X161217292Y-128173351D01*
X161217297Y-128173357D01*
X161398402Y-128352887D01*
X161401718Y-128356174D01*
X161614896Y-128512483D01*
X161619031Y-128514659D01*
X161619035Y-128514661D01*
X161742293Y-128579510D01*
X161848836Y-128635565D01*
X162098400Y-128722716D01*
X162102993Y-128723588D01*
X162353515Y-128771151D01*
X162353518Y-128771151D01*
X162358104Y-128772022D01*
X162490173Y-128777211D01*
X162617575Y-128782218D01*
X162617581Y-128782218D01*
X162622243Y-128782401D01*
X162885015Y-128753622D01*
X162889526Y-128752434D01*
X162889528Y-128752434D01*
X163136124Y-128687511D01*
X163136126Y-128687510D01*
X163140647Y-128686320D01*
X163255191Y-128637108D01*
X163379229Y-128583817D01*
X163379231Y-128583816D01*
X163383523Y-128581972D01*
X163608307Y-128442871D01*
X163624788Y-128428919D01*
X163806496Y-128275093D01*
X163806498Y-128275091D01*
X163810063Y-128272073D01*
X163984356Y-128073329D01*
X164058367Y-127958267D01*
X164124831Y-127854936D01*
X164127359Y-127851006D01*
X164235930Y-127609988D01*
X164307683Y-127355570D01*
X164326859Y-127204836D01*
X164340645Y-127096471D01*
X164340645Y-127096465D01*
X164341043Y-127093340D01*
X164343487Y-127000000D01*
X164341123Y-126968192D01*
X164324243Y-126741036D01*
X164324242Y-126741032D01*
X164323897Y-126736384D01*
X164265557Y-126478559D01*
X164250028Y-126438626D01*
X164171442Y-126236542D01*
X164171441Y-126236540D01*
X164169749Y-126232189D01*
X164147541Y-126193332D01*
X164097242Y-126105328D01*
X164038578Y-126002687D01*
X163874925Y-125795094D01*
X163682385Y-125613970D01*
X163645212Y-125588182D01*
X163469026Y-125465958D01*
X163469021Y-125465955D01*
X163465188Y-125463296D01*
X163460997Y-125461229D01*
X163232294Y-125348445D01*
X163232291Y-125348444D01*
X163228106Y-125346380D01*
X163205964Y-125339292D01*
X163008449Y-125276067D01*
X162976347Y-125265791D01*
X162833825Y-125242580D01*
X162720053Y-125224051D01*
X162720052Y-125224051D01*
X162715441Y-125223300D01*
X162583281Y-125221570D01*
X162455798Y-125219901D01*
X162455795Y-125219901D01*
X162451121Y-125219840D01*
X162189192Y-125255486D01*
X162184702Y-125256795D01*
X162184696Y-125256796D01*
X162076732Y-125288265D01*
X161935410Y-125329457D01*
X161931163Y-125331415D01*
X161931160Y-125331416D01*
X161873079Y-125358192D01*
X161695348Y-125440127D01*
X161676549Y-125452452D01*
X161478195Y-125582499D01*
X161478190Y-125582503D01*
X161474282Y-125585065D01*
X161277067Y-125761086D01*
X161108036Y-125964324D01*
X160970901Y-126190314D01*
X160969095Y-126194622D01*
X160969094Y-126194623D01*
X160894814Y-126371762D01*
X160868677Y-126434091D01*
X160867526Y-126438623D01*
X160867525Y-126438626D01*
X160856226Y-126483116D01*
X160803608Y-126690301D01*
X160777124Y-126953314D01*
X150306323Y-126953314D01*
X150316304Y-126948660D01*
X150506762Y-126859849D01*
X150506767Y-126859846D01*
X150511749Y-126857523D01*
X150671020Y-126746000D01*
X150694789Y-126729357D01*
X150694792Y-126729355D01*
X150699300Y-126726198D01*
X150861198Y-126564300D01*
X150992523Y-126376749D01*
X150994846Y-126371767D01*
X150994849Y-126371762D01*
X151086961Y-126174225D01*
X151086961Y-126174224D01*
X151089284Y-126169243D01*
X151137970Y-125987548D01*
X151147119Y-125953402D01*
X151147119Y-125953400D01*
X151148543Y-125948087D01*
X151168498Y-125720000D01*
X151148543Y-125491913D01*
X151147119Y-125486598D01*
X151090707Y-125276067D01*
X151090706Y-125276065D01*
X151089284Y-125270757D01*
X151067126Y-125223239D01*
X150994849Y-125068238D01*
X150994846Y-125068233D01*
X150992523Y-125063251D01*
X150861198Y-124875700D01*
X150699300Y-124713802D01*
X150694792Y-124710645D01*
X150694789Y-124710643D01*
X150614990Y-124654767D01*
X150511749Y-124582477D01*
X150506767Y-124580154D01*
X150506762Y-124580151D01*
X150309225Y-124488039D01*
X150309224Y-124488039D01*
X150304243Y-124485716D01*
X150298935Y-124484294D01*
X150298933Y-124484293D01*
X150088402Y-124427881D01*
X150088400Y-124427881D01*
X150083975Y-124426695D01*
X156117251Y-124426695D01*
X156117548Y-124431848D01*
X156117548Y-124431851D01*
X156123011Y-124526590D01*
X156130110Y-124649715D01*
X156131247Y-124654761D01*
X156131248Y-124654767D01*
X156144553Y-124713802D01*
X156179222Y-124867639D01*
X156216929Y-124960500D01*
X156259970Y-125066498D01*
X156263266Y-125074616D01*
X156312317Y-125154661D01*
X156374906Y-125256796D01*
X156379987Y-125265088D01*
X156526250Y-125433938D01*
X156530225Y-125437238D01*
X156530231Y-125437244D01*
X156535425Y-125441556D01*
X156575059Y-125500460D01*
X156576555Y-125571441D01*
X156539439Y-125631962D01*
X156499168Y-125656480D01*
X156391946Y-125696676D01*
X156376351Y-125705214D01*
X156274276Y-125781715D01*
X156261715Y-125794276D01*
X156185214Y-125896351D01*
X156176676Y-125911946D01*
X156131522Y-126032394D01*
X156127895Y-126047649D01*
X156122369Y-126098514D01*
X156122000Y-126105328D01*
X156122000Y-126727885D01*
X156126475Y-126743124D01*
X156127865Y-126744329D01*
X156135548Y-126746000D01*
X158819884Y-126746000D01*
X158835123Y-126741525D01*
X158836328Y-126740135D01*
X158837999Y-126732452D01*
X158837999Y-126105331D01*
X158837629Y-126098510D01*
X158832105Y-126047648D01*
X158828479Y-126032396D01*
X158783324Y-125911946D01*
X158774786Y-125896351D01*
X158698285Y-125794276D01*
X158685724Y-125781715D01*
X158583649Y-125705214D01*
X158568054Y-125696676D01*
X158457813Y-125655348D01*
X158401049Y-125612706D01*
X158376349Y-125546145D01*
X158391557Y-125476796D01*
X158413104Y-125448115D01*
X158514430Y-125347144D01*
X158514440Y-125347132D01*
X158518096Y-125343489D01*
X158577594Y-125260689D01*
X158645435Y-125166277D01*
X158648453Y-125162077D01*
X158651292Y-125156334D01*
X158745136Y-124966453D01*
X158745137Y-124966451D01*
X158747430Y-124961811D01*
X158812370Y-124748069D01*
X158841529Y-124526590D01*
X158841688Y-124520091D01*
X158843074Y-124463365D01*
X158843074Y-124463361D01*
X158843156Y-124460000D01*
X158824852Y-124237361D01*
X158770431Y-124020702D01*
X158681354Y-123815840D01*
X158560014Y-123628277D01*
X158409670Y-123463051D01*
X158405619Y-123459852D01*
X158405615Y-123459848D01*
X158238414Y-123327800D01*
X158238410Y-123327798D01*
X158234359Y-123324598D01*
X158193053Y-123301796D01*
X158143084Y-123251364D01*
X158128312Y-123181921D01*
X158153428Y-123115516D01*
X158180780Y-123088909D01*
X158224603Y-123057650D01*
X158359860Y-122961173D01*
X158518096Y-122803489D01*
X158526710Y-122791502D01*
X158645435Y-122626277D01*
X158648453Y-122622077D01*
X158652366Y-122614161D01*
X158745136Y-122426453D01*
X158745137Y-122426451D01*
X158747430Y-122421811D01*
X158812370Y-122208069D01*
X158841529Y-121986590D01*
X158843156Y-121920000D01*
X158824852Y-121697361D01*
X158770431Y-121480702D01*
X158681354Y-121275840D01*
X158572272Y-121107225D01*
X158562822Y-121092617D01*
X158562820Y-121092614D01*
X158560014Y-121088277D01*
X158409670Y-120923051D01*
X158405619Y-120919852D01*
X158405615Y-120919848D01*
X158238414Y-120787800D01*
X158238410Y-120787798D01*
X158234359Y-120784598D01*
X158193053Y-120761796D01*
X158143084Y-120711364D01*
X158128312Y-120641921D01*
X158153428Y-120575516D01*
X158180780Y-120548909D01*
X158224603Y-120517650D01*
X158359860Y-120421173D01*
X158419052Y-120362188D01*
X158514435Y-120267137D01*
X158518096Y-120263489D01*
X158577594Y-120180689D01*
X158645435Y-120086277D01*
X158648453Y-120082077D01*
X158747430Y-119881811D01*
X158794103Y-119728192D01*
X158810865Y-119673023D01*
X158810865Y-119673021D01*
X158812370Y-119668069D01*
X158841529Y-119446590D01*
X158842055Y-119425058D01*
X158843074Y-119383365D01*
X158843074Y-119383361D01*
X158843156Y-119380000D01*
X158824852Y-119157361D01*
X158770431Y-118940702D01*
X158681354Y-118735840D01*
X158560014Y-118548277D01*
X158409670Y-118383051D01*
X158405619Y-118379852D01*
X158405615Y-118379848D01*
X158238414Y-118247800D01*
X158238410Y-118247798D01*
X158234359Y-118244598D01*
X158038789Y-118136638D01*
X158033920Y-118134914D01*
X158033916Y-118134912D01*
X157833087Y-118063795D01*
X157833083Y-118063794D01*
X157828212Y-118062069D01*
X157823119Y-118061162D01*
X157823116Y-118061161D01*
X157613373Y-118023800D01*
X157613367Y-118023799D01*
X157608284Y-118022894D01*
X157534452Y-118021992D01*
X157390081Y-118020228D01*
X157390079Y-118020228D01*
X157384911Y-118020165D01*
X157164091Y-118053955D01*
X156951756Y-118123357D01*
X156753607Y-118226507D01*
X156749474Y-118229610D01*
X156749471Y-118229612D01*
X156611236Y-118333402D01*
X156574965Y-118360635D01*
X156420629Y-118522138D01*
X156294743Y-118706680D01*
X156200688Y-118909305D01*
X156140989Y-119124570D01*
X156117251Y-119346695D01*
X156117548Y-119351848D01*
X156117548Y-119351851D01*
X156127214Y-119519481D01*
X156130110Y-119569715D01*
X156131247Y-119574761D01*
X156131248Y-119574767D01*
X156146209Y-119641152D01*
X156179222Y-119787639D01*
X156263266Y-119994616D01*
X156379987Y-120185088D01*
X156526250Y-120353938D01*
X156698126Y-120496632D01*
X156768595Y-120537811D01*
X156771445Y-120539476D01*
X156820169Y-120591114D01*
X156833240Y-120660897D01*
X156806509Y-120726669D01*
X156766055Y-120760027D01*
X156753607Y-120766507D01*
X156749474Y-120769610D01*
X156749471Y-120769612D01*
X156594514Y-120885957D01*
X156574965Y-120900635D01*
X156571393Y-120904373D01*
X156477748Y-121002367D01*
X156420629Y-121062138D01*
X156417715Y-121066410D01*
X156417714Y-121066411D01*
X156377758Y-121124984D01*
X156294743Y-121246680D01*
X156200688Y-121449305D01*
X156140989Y-121664570D01*
X156117251Y-121886695D01*
X156117548Y-121891848D01*
X156117548Y-121891851D01*
X156123011Y-121986590D01*
X156130110Y-122109715D01*
X156131247Y-122114761D01*
X156131248Y-122114767D01*
X156151119Y-122202939D01*
X156179222Y-122327639D01*
X156227137Y-122445640D01*
X156260964Y-122528946D01*
X156263266Y-122534616D01*
X156301069Y-122596305D01*
X156373110Y-122713865D01*
X156379987Y-122725088D01*
X156526250Y-122893938D01*
X156698126Y-123036632D01*
X156768595Y-123077811D01*
X156771445Y-123079476D01*
X156820169Y-123131114D01*
X156833240Y-123200897D01*
X156806509Y-123266669D01*
X156766055Y-123300027D01*
X156753607Y-123306507D01*
X156749474Y-123309610D01*
X156749471Y-123309612D01*
X156725247Y-123327800D01*
X156574965Y-123440635D01*
X156420629Y-123602138D01*
X156294743Y-123786680D01*
X156279003Y-123820590D01*
X156206733Y-123976283D01*
X156200688Y-123989305D01*
X156140989Y-124204570D01*
X156117251Y-124426695D01*
X150083975Y-124426695D01*
X150083087Y-124426457D01*
X149855000Y-124406502D01*
X149626913Y-124426457D01*
X149621600Y-124427881D01*
X149621598Y-124427881D01*
X149411067Y-124484293D01*
X149411065Y-124484294D01*
X149405757Y-124485716D01*
X149400776Y-124488039D01*
X149400775Y-124488039D01*
X149203238Y-124580151D01*
X149203233Y-124580154D01*
X149198251Y-124582477D01*
X149095010Y-124654767D01*
X149015211Y-124710643D01*
X149015208Y-124710645D01*
X149010700Y-124713802D01*
X148848802Y-124875700D01*
X148717477Y-125063251D01*
X148715154Y-125068233D01*
X148715151Y-125068238D01*
X148699195Y-125102457D01*
X148652278Y-125155742D01*
X148584001Y-125175203D01*
X148516041Y-125154661D01*
X148470805Y-125102457D01*
X148454849Y-125068238D01*
X148454846Y-125068233D01*
X148452523Y-125063251D01*
X148321198Y-124875700D01*
X148159300Y-124713802D01*
X148154792Y-124710645D01*
X148154789Y-124710643D01*
X148074990Y-124654767D01*
X147971749Y-124582477D01*
X147966767Y-124580154D01*
X147966762Y-124580151D01*
X147769225Y-124488039D01*
X147769224Y-124488039D01*
X147764243Y-124485716D01*
X147758935Y-124484294D01*
X147758933Y-124484293D01*
X147548402Y-124427881D01*
X147548400Y-124427881D01*
X147543087Y-124426457D01*
X147315000Y-124406502D01*
X147086913Y-124426457D01*
X147081600Y-124427881D01*
X147081598Y-124427881D01*
X146871067Y-124484293D01*
X146871065Y-124484294D01*
X146865757Y-124485716D01*
X146860776Y-124488039D01*
X146860775Y-124488039D01*
X146663238Y-124580151D01*
X146663233Y-124580154D01*
X146658251Y-124582477D01*
X146555010Y-124654767D01*
X146475211Y-124710643D01*
X146475208Y-124710645D01*
X146470700Y-124713802D01*
X146308802Y-124875700D01*
X146177477Y-125063251D01*
X146175154Y-125068233D01*
X146175151Y-125068238D01*
X146158919Y-125103049D01*
X146112002Y-125156334D01*
X146043725Y-125175795D01*
X145975765Y-125155253D01*
X145930529Y-125103049D01*
X145914414Y-125068489D01*
X145908931Y-125058993D01*
X145783972Y-124880533D01*
X145776916Y-124872125D01*
X145622875Y-124718084D01*
X145614467Y-124711028D01*
X145436007Y-124586069D01*
X145426511Y-124580586D01*
X145229053Y-124488510D01*
X145218761Y-124484764D01*
X145046497Y-124438606D01*
X145032401Y-124438942D01*
X145029000Y-124446884D01*
X145029000Y-126987967D01*
X144521000Y-126987967D01*
X144521000Y-125992115D01*
X144516525Y-125976876D01*
X144515135Y-125975671D01*
X144507452Y-125974000D01*
X142507115Y-125974000D01*
X142491876Y-125978475D01*
X142490671Y-125979865D01*
X142489000Y-125987548D01*
X142489000Y-126987967D01*
X141981000Y-126987967D01*
X141981000Y-125447885D01*
X142489000Y-125447885D01*
X142493475Y-125463124D01*
X142494865Y-125464329D01*
X142502548Y-125466000D01*
X144502885Y-125466000D01*
X144518124Y-125461525D01*
X144519329Y-125460135D01*
X144521000Y-125452452D01*
X144521000Y-124452033D01*
X144517027Y-124438502D01*
X144508478Y-124437273D01*
X144331239Y-124484764D01*
X144320947Y-124488510D01*
X144123489Y-124580586D01*
X144113993Y-124586069D01*
X143935533Y-124711028D01*
X143927125Y-124718084D01*
X143773084Y-124872125D01*
X143766028Y-124880533D01*
X143641069Y-125058993D01*
X143635586Y-125068489D01*
X143619195Y-125103641D01*
X143572278Y-125156926D01*
X143504001Y-125176387D01*
X143436041Y-125155845D01*
X143390805Y-125103641D01*
X143374414Y-125068489D01*
X143368931Y-125058993D01*
X143243972Y-124880533D01*
X143236916Y-124872125D01*
X143082875Y-124718084D01*
X143074467Y-124711028D01*
X142896007Y-124586069D01*
X142886511Y-124580586D01*
X142689053Y-124488510D01*
X142678761Y-124484764D01*
X142506497Y-124438606D01*
X142492401Y-124438942D01*
X142489000Y-124446884D01*
X142489000Y-125447885D01*
X141981000Y-125447885D01*
X141981000Y-124452033D01*
X141977027Y-124438502D01*
X141968478Y-124437273D01*
X141791239Y-124484764D01*
X141780947Y-124488510D01*
X141583489Y-124580586D01*
X141573993Y-124586069D01*
X141395533Y-124711028D01*
X141387125Y-124718084D01*
X141233084Y-124872125D01*
X141226028Y-124880533D01*
X141101069Y-125058993D01*
X141095586Y-125068489D01*
X141079471Y-125103049D01*
X141032554Y-125156334D01*
X140964277Y-125175795D01*
X140896317Y-125155253D01*
X140851081Y-125103049D01*
X140834849Y-125068238D01*
X140834846Y-125068233D01*
X140832523Y-125063251D01*
X140701198Y-124875700D01*
X140539300Y-124713802D01*
X140534792Y-124710645D01*
X140534789Y-124710643D01*
X140454990Y-124654767D01*
X140351749Y-124582477D01*
X140346767Y-124580154D01*
X140346762Y-124580151D01*
X140149225Y-124488039D01*
X140149224Y-124488039D01*
X140144243Y-124485716D01*
X140138935Y-124484294D01*
X140138933Y-124484293D01*
X139928402Y-124427881D01*
X139928400Y-124427881D01*
X139923087Y-124426457D01*
X139695000Y-124406502D01*
X139689525Y-124406981D01*
X139689514Y-124406981D01*
X139677570Y-124408026D01*
X139607965Y-124394038D01*
X139556973Y-124344639D01*
X139540782Y-124275513D01*
X139564534Y-124208607D01*
X139577493Y-124193411D01*
X144042736Y-119728168D01*
X144051026Y-119720624D01*
X144057507Y-119716511D01*
X144104148Y-119666843D01*
X144106902Y-119664002D01*
X144126624Y-119644280D01*
X144129101Y-119641087D01*
X144136806Y-119632066D01*
X144167075Y-119599832D01*
X144170896Y-119592882D01*
X144176835Y-119582079D01*
X144187691Y-119565552D01*
X144195246Y-119555813D01*
X144195247Y-119555811D01*
X144200103Y-119549551D01*
X144217663Y-119508971D01*
X144222880Y-119498323D01*
X144240364Y-119466520D01*
X144240365Y-119466518D01*
X144244184Y-119459571D01*
X144247992Y-119444738D01*
X144284308Y-119383733D01*
X144347841Y-119352046D01*
X144402644Y-119354369D01*
X144503503Y-119381394D01*
X144517599Y-119381058D01*
X144521000Y-119373116D01*
X144521000Y-117972000D01*
X144541002Y-117903879D01*
X144594658Y-117857386D01*
X144647000Y-117846000D01*
X144903000Y-117846000D01*
X144971121Y-117866002D01*
X145017614Y-117919658D01*
X145029000Y-117972000D01*
X145029000Y-119367967D01*
X145032973Y-119381498D01*
X145041522Y-119382727D01*
X145218761Y-119335236D01*
X145229053Y-119331490D01*
X145426511Y-119239414D01*
X145436007Y-119233931D01*
X145614467Y-119108972D01*
X145622875Y-119101916D01*
X145776916Y-118947875D01*
X145783972Y-118939467D01*
X145908931Y-118761007D01*
X145914414Y-118751511D01*
X145930529Y-118716951D01*
X145977446Y-118663666D01*
X146045723Y-118644205D01*
X146113683Y-118664747D01*
X146158919Y-118716951D01*
X146175151Y-118751762D01*
X146175154Y-118751767D01*
X146177477Y-118756749D01*
X146180634Y-118761257D01*
X146287794Y-118914297D01*
X146308802Y-118944300D01*
X146470700Y-119106198D01*
X146475208Y-119109355D01*
X146475211Y-119109357D01*
X146504274Y-119129707D01*
X146658251Y-119237523D01*
X146663233Y-119239846D01*
X146663238Y-119239849D01*
X146851929Y-119327836D01*
X146865757Y-119334284D01*
X146871065Y-119335706D01*
X146871067Y-119335707D01*
X147081598Y-119392119D01*
X147081600Y-119392119D01*
X147086913Y-119393543D01*
X147315000Y-119413498D01*
X147543087Y-119393543D01*
X147548400Y-119392119D01*
X147548402Y-119392119D01*
X147758933Y-119335707D01*
X147758935Y-119335706D01*
X147764243Y-119334284D01*
X147778071Y-119327836D01*
X147966762Y-119239849D01*
X147966767Y-119239846D01*
X147971749Y-119237523D01*
X148125726Y-119129707D01*
X148154789Y-119109357D01*
X148154792Y-119109355D01*
X148159300Y-119106198D01*
X148321198Y-118944300D01*
X148342207Y-118914297D01*
X148449366Y-118761257D01*
X148452523Y-118756749D01*
X148454846Y-118751767D01*
X148454849Y-118751762D01*
X148470805Y-118717543D01*
X148517722Y-118664258D01*
X148585999Y-118644797D01*
X148653959Y-118665339D01*
X148699195Y-118717543D01*
X148715151Y-118751762D01*
X148715154Y-118751767D01*
X148717477Y-118756749D01*
X148720634Y-118761257D01*
X148827794Y-118914297D01*
X148848802Y-118944300D01*
X149010700Y-119106198D01*
X149015208Y-119109355D01*
X149015211Y-119109357D01*
X149044274Y-119129707D01*
X149198251Y-119237523D01*
X149203233Y-119239846D01*
X149203238Y-119239849D01*
X149391929Y-119327836D01*
X149405757Y-119334284D01*
X149411065Y-119335706D01*
X149411067Y-119335707D01*
X149621598Y-119392119D01*
X149621600Y-119392119D01*
X149626913Y-119393543D01*
X149855000Y-119413498D01*
X150083087Y-119393543D01*
X150088400Y-119392119D01*
X150088402Y-119392119D01*
X150298933Y-119335707D01*
X150298935Y-119335706D01*
X150304243Y-119334284D01*
X150318071Y-119327836D01*
X150506762Y-119239849D01*
X150506767Y-119239846D01*
X150511749Y-119237523D01*
X150665726Y-119129707D01*
X150694789Y-119109357D01*
X150694792Y-119109355D01*
X150699300Y-119106198D01*
X150861198Y-118944300D01*
X150882207Y-118914297D01*
X150989366Y-118761257D01*
X150992523Y-118756749D01*
X150994846Y-118751767D01*
X150994849Y-118751762D01*
X151086961Y-118554225D01*
X151086961Y-118554224D01*
X151089284Y-118549243D01*
X151148543Y-118328087D01*
X151168498Y-118100000D01*
X151148543Y-117871913D01*
X151146959Y-117866002D01*
X151090707Y-117656067D01*
X151090706Y-117656065D01*
X151089284Y-117650757D01*
X150994966Y-117448489D01*
X150994849Y-117448238D01*
X150994846Y-117448233D01*
X150992523Y-117443251D01*
X150861198Y-117255700D01*
X150699300Y-117093802D01*
X150694792Y-117090645D01*
X150694789Y-117090643D01*
X150604745Y-117027594D01*
X150511749Y-116962477D01*
X150506767Y-116960154D01*
X150506762Y-116960151D01*
X150309225Y-116868039D01*
X150309224Y-116868039D01*
X150304243Y-116865716D01*
X150298935Y-116864294D01*
X150298933Y-116864293D01*
X150088402Y-116807881D01*
X150088400Y-116807881D01*
X150083087Y-116806457D01*
X149855000Y-116786502D01*
X149626913Y-116806457D01*
X149621600Y-116807881D01*
X149621598Y-116807881D01*
X149411067Y-116864293D01*
X149411065Y-116864294D01*
X149405757Y-116865716D01*
X149400776Y-116868039D01*
X149400775Y-116868039D01*
X149203238Y-116960151D01*
X149203233Y-116960154D01*
X149198251Y-116962477D01*
X149105255Y-117027594D01*
X149015211Y-117090643D01*
X149015208Y-117090645D01*
X149010700Y-117093802D01*
X148848802Y-117255700D01*
X148717477Y-117443251D01*
X148715154Y-117448233D01*
X148715151Y-117448238D01*
X148699195Y-117482457D01*
X148652278Y-117535742D01*
X148584001Y-117555203D01*
X148516041Y-117534661D01*
X148470805Y-117482457D01*
X148454849Y-117448238D01*
X148454846Y-117448233D01*
X148452523Y-117443251D01*
X148321198Y-117255700D01*
X148159300Y-117093802D01*
X148154792Y-117090645D01*
X148154789Y-117090643D01*
X148064745Y-117027594D01*
X147971749Y-116962477D01*
X147966767Y-116960154D01*
X147966762Y-116960151D01*
X147769225Y-116868039D01*
X147769224Y-116868039D01*
X147764243Y-116865716D01*
X147758935Y-116864294D01*
X147758933Y-116864293D01*
X147548402Y-116807881D01*
X147548400Y-116807881D01*
X147543087Y-116806457D01*
X147315000Y-116786502D01*
X147086913Y-116806457D01*
X147081600Y-116807881D01*
X147081598Y-116807881D01*
X146871067Y-116864293D01*
X146871065Y-116864294D01*
X146865757Y-116865716D01*
X146860776Y-116868039D01*
X146860775Y-116868039D01*
X146663238Y-116960151D01*
X146663233Y-116960154D01*
X146658251Y-116962477D01*
X146565255Y-117027594D01*
X146475211Y-117090643D01*
X146475208Y-117090645D01*
X146470700Y-117093802D01*
X146308802Y-117255700D01*
X146177477Y-117443251D01*
X146175154Y-117448233D01*
X146175151Y-117448238D01*
X146158919Y-117483049D01*
X146112002Y-117536334D01*
X146043725Y-117555795D01*
X145975765Y-117535253D01*
X145930529Y-117483049D01*
X145914414Y-117448489D01*
X145908931Y-117438993D01*
X145783972Y-117260533D01*
X145776916Y-117252125D01*
X145622875Y-117098084D01*
X145614467Y-117091028D01*
X145431498Y-116962912D01*
X145432474Y-116961518D01*
X145388808Y-116915716D01*
X145375377Y-116846001D01*
X145401769Y-116780092D01*
X145411711Y-116768893D01*
X154022212Y-108158392D01*
X154084524Y-108124366D01*
X154154301Y-108129049D01*
X154169857Y-108134696D01*
X154169860Y-108134697D01*
X154174869Y-108136515D01*
X154404007Y-108177950D01*
X154408146Y-108178145D01*
X154408153Y-108178146D01*
X154426905Y-108179030D01*
X154426914Y-108179030D01*
X154428394Y-108179100D01*
X154896868Y-108179100D01*
X154964375Y-108173372D01*
X155065109Y-108164825D01*
X155065113Y-108164824D01*
X155070420Y-108164374D01*
X155075577Y-108163036D01*
X155075580Y-108163035D01*
X155290637Y-108107217D01*
X155290641Y-108107216D01*
X155295806Y-108105875D01*
X155300672Y-108103683D01*
X155300675Y-108103682D01*
X155503240Y-108012433D01*
X155508113Y-108010238D01*
X155701272Y-107880196D01*
X155869758Y-107719468D01*
X156008754Y-107532650D01*
X156114286Y-107325084D01*
X156159608Y-107179125D01*
X156181753Y-107107807D01*
X156181754Y-107107801D01*
X156183337Y-107102704D01*
X156200993Y-106969491D01*
X156213232Y-106877152D01*
X156213232Y-106877148D01*
X156213932Y-106871868D01*
X156205197Y-106639178D01*
X156157380Y-106411287D01*
X156071850Y-106194710D01*
X155951051Y-105995641D01*
X155798439Y-105819770D01*
X155794313Y-105816387D01*
X155794309Y-105816383D01*
X155622504Y-105675513D01*
X155618376Y-105672128D01*
X155613740Y-105669489D01*
X155613737Y-105669487D01*
X155572748Y-105646155D01*
X155523442Y-105595073D01*
X155509580Y-105525442D01*
X155535563Y-105459371D01*
X155564713Y-105432133D01*
X155616842Y-105397037D01*
X155701272Y-105340196D01*
X155869758Y-105179468D01*
X156008754Y-104992650D01*
X156114286Y-104785084D01*
X156153906Y-104657486D01*
X156181753Y-104567807D01*
X156181754Y-104567801D01*
X156183337Y-104562704D01*
X156200910Y-104430119D01*
X156213232Y-104337152D01*
X156213232Y-104337148D01*
X156213932Y-104331868D01*
X156205197Y-104099178D01*
X156157380Y-103871287D01*
X156071850Y-103654710D01*
X155951051Y-103455641D01*
X155798439Y-103279770D01*
X155794313Y-103276387D01*
X155794309Y-103276383D01*
X155622504Y-103135513D01*
X155618376Y-103132128D01*
X155613740Y-103129489D01*
X155613737Y-103129487D01*
X155572748Y-103106155D01*
X155523442Y-103055073D01*
X155509580Y-102985442D01*
X155535563Y-102919371D01*
X155564713Y-102892133D01*
X155616842Y-102857037D01*
X155701272Y-102800196D01*
X155869758Y-102639468D01*
X156008754Y-102452650D01*
X156114286Y-102245084D01*
X156153906Y-102117486D01*
X156181753Y-102027807D01*
X156181754Y-102027801D01*
X156183337Y-102022704D01*
X156213932Y-101791868D01*
X156205197Y-101559178D01*
X156157380Y-101331287D01*
X156071850Y-101114710D01*
X155951051Y-100915641D01*
X155798439Y-100739770D01*
X155794313Y-100736387D01*
X155794309Y-100736383D01*
X155622504Y-100595513D01*
X155618376Y-100592128D01*
X155613740Y-100589489D01*
X155613737Y-100589487D01*
X155572748Y-100566155D01*
X155523442Y-100515073D01*
X155509580Y-100445442D01*
X155535563Y-100379371D01*
X155564713Y-100352133D01*
X155616842Y-100317037D01*
X155701272Y-100260196D01*
X155869758Y-100099468D01*
X156008754Y-99912650D01*
X156114286Y-99705084D01*
X156153906Y-99577486D01*
X156181753Y-99487807D01*
X156181754Y-99487801D01*
X156183337Y-99482704D01*
X156213932Y-99251868D01*
X156205197Y-99019178D01*
X156157380Y-98791287D01*
X156071850Y-98574710D01*
X155951051Y-98375641D01*
X155798439Y-98199770D01*
X155794313Y-98196387D01*
X155794309Y-98196383D01*
X155622504Y-98055513D01*
X155618376Y-98052128D01*
X155613740Y-98049489D01*
X155613737Y-98049487D01*
X155572748Y-98026155D01*
X155523442Y-97975073D01*
X155509580Y-97905442D01*
X155535563Y-97839371D01*
X155564713Y-97812133D01*
X155616842Y-97777037D01*
X155701272Y-97720196D01*
X155869758Y-97559468D01*
X156008754Y-97372650D01*
X156114286Y-97165084D01*
X156153906Y-97037486D01*
X156181753Y-96947807D01*
X156181754Y-96947801D01*
X156183337Y-96942704D01*
X156213932Y-96711868D01*
X156205197Y-96479178D01*
X156157380Y-96251287D01*
X156071850Y-96034710D01*
X155951051Y-95835641D01*
X155798439Y-95659770D01*
X155794313Y-95656387D01*
X155794309Y-95656383D01*
X155622504Y-95515513D01*
X155618376Y-95512128D01*
X155613740Y-95509489D01*
X155613737Y-95509487D01*
X155572748Y-95486155D01*
X155523442Y-95435073D01*
X155509580Y-95365442D01*
X155535563Y-95299371D01*
X155564713Y-95272133D01*
X155616842Y-95237037D01*
X155701272Y-95180196D01*
X155869758Y-95019468D01*
X156008754Y-94832650D01*
X156114286Y-94625084D01*
X156153906Y-94497486D01*
X156181753Y-94407807D01*
X156181754Y-94407801D01*
X156183337Y-94402704D01*
X156213932Y-94171868D01*
X156205197Y-93939178D01*
X156157380Y-93711287D01*
X156071850Y-93494710D01*
X155951051Y-93295641D01*
X155798439Y-93119770D01*
X155794313Y-93116387D01*
X155794309Y-93116383D01*
X155622504Y-92975513D01*
X155618376Y-92972128D01*
X155613740Y-92969489D01*
X155613737Y-92969487D01*
X155572748Y-92946155D01*
X155523442Y-92895073D01*
X155509580Y-92825442D01*
X155535563Y-92759371D01*
X155564713Y-92732133D01*
X155616842Y-92697037D01*
X155701272Y-92640196D01*
X155869758Y-92479468D01*
X156008754Y-92292650D01*
X156114286Y-92085084D01*
X156153906Y-91957486D01*
X156181753Y-91867807D01*
X156181754Y-91867801D01*
X156183337Y-91862704D01*
X156213932Y-91631868D01*
X156205197Y-91399178D01*
X156157380Y-91171287D01*
X156071850Y-90954710D01*
X155951051Y-90755641D01*
X155798439Y-90579770D01*
X155794313Y-90576387D01*
X155794309Y-90576383D01*
X155622504Y-90435513D01*
X155618376Y-90432128D01*
X155613740Y-90429489D01*
X155613737Y-90429487D01*
X155572748Y-90406155D01*
X155523442Y-90355073D01*
X155509580Y-90285442D01*
X155535563Y-90219371D01*
X155564713Y-90192133D01*
X155616842Y-90157037D01*
X155701272Y-90100196D01*
X155869758Y-89939468D01*
X156008754Y-89752650D01*
X156114286Y-89545084D01*
X156153906Y-89417486D01*
X156181753Y-89327807D01*
X156181754Y-89327801D01*
X156183337Y-89322704D01*
X156213932Y-89091868D01*
X156205197Y-88859178D01*
X156157380Y-88631287D01*
X156071850Y-88414710D01*
X155951051Y-88215641D01*
X155798439Y-88039770D01*
X155794313Y-88036387D01*
X155794309Y-88036383D01*
X155622504Y-87895513D01*
X155618376Y-87892128D01*
X155613740Y-87889489D01*
X155613737Y-87889487D01*
X155572748Y-87866155D01*
X155523442Y-87815073D01*
X155509580Y-87745442D01*
X155535563Y-87679371D01*
X155564713Y-87652133D01*
X155616842Y-87617037D01*
X155701272Y-87560196D01*
X155869758Y-87399468D01*
X156008754Y-87212650D01*
X156114286Y-87005084D01*
X156153906Y-86877486D01*
X156181753Y-86787807D01*
X156181754Y-86787801D01*
X156183337Y-86782704D01*
X156213932Y-86551868D01*
X156205197Y-86319178D01*
X156157380Y-86091287D01*
X156071850Y-85874710D01*
X155951051Y-85675641D01*
X155798439Y-85499770D01*
X155794313Y-85496387D01*
X155794309Y-85496383D01*
X155622504Y-85355513D01*
X155618376Y-85352128D01*
X155613740Y-85349489D01*
X155613737Y-85349487D01*
X155572748Y-85326155D01*
X155523442Y-85275073D01*
X155509580Y-85205442D01*
X155535563Y-85139371D01*
X155564713Y-85112133D01*
X155616842Y-85077037D01*
X155701272Y-85020196D01*
X155869758Y-84859468D01*
X156008754Y-84672650D01*
X156114286Y-84465084D01*
X156153906Y-84337486D01*
X156181753Y-84247807D01*
X156181754Y-84247801D01*
X156183337Y-84242704D01*
X156213932Y-84011868D01*
X156205197Y-83779178D01*
X156157380Y-83551287D01*
X156071850Y-83334710D01*
X155951051Y-83135641D01*
X155798439Y-82959770D01*
X155794313Y-82956387D01*
X155794309Y-82956383D01*
X155622504Y-82815513D01*
X155618376Y-82812128D01*
X155613740Y-82809489D01*
X155613737Y-82809487D01*
X155572748Y-82786155D01*
X155523442Y-82735073D01*
X155509580Y-82665442D01*
X155535563Y-82599371D01*
X155564713Y-82572133D01*
X155616842Y-82537037D01*
X155701272Y-82480196D01*
X155869758Y-82319468D01*
X156008754Y-82132650D01*
X156114286Y-81925084D01*
X156153906Y-81797486D01*
X156181753Y-81707807D01*
X156181754Y-81707801D01*
X156183337Y-81702704D01*
X156213932Y-81471868D01*
X156205197Y-81239178D01*
X156157380Y-81011287D01*
X156071850Y-80794710D01*
X155951051Y-80595641D01*
X155798439Y-80419770D01*
X155794313Y-80416387D01*
X155794309Y-80416383D01*
X155622504Y-80275513D01*
X155618376Y-80272128D01*
X155613740Y-80269489D01*
X155613737Y-80269487D01*
X155572748Y-80246155D01*
X155523442Y-80195073D01*
X155509580Y-80125442D01*
X155535563Y-80059371D01*
X155564713Y-80032133D01*
X155616842Y-79997037D01*
X155701272Y-79940196D01*
X155869758Y-79779468D01*
X156008754Y-79592650D01*
X156114286Y-79385084D01*
X156153951Y-79257343D01*
X156181753Y-79167807D01*
X156181754Y-79167801D01*
X156183337Y-79162704D01*
X156213932Y-78931868D01*
X156205197Y-78699178D01*
X156157380Y-78471287D01*
X156071850Y-78254710D01*
X155951051Y-78055641D01*
X155798439Y-77879770D01*
X155794313Y-77876387D01*
X155794309Y-77876383D01*
X155622504Y-77735513D01*
X155618376Y-77732128D01*
X155613740Y-77729489D01*
X155613737Y-77729487D01*
X155572748Y-77706155D01*
X155523442Y-77655073D01*
X155509580Y-77585442D01*
X155535563Y-77519371D01*
X155564713Y-77492133D01*
X155616842Y-77457037D01*
X155701272Y-77400196D01*
X155869758Y-77239468D01*
X156008754Y-77052650D01*
X156114286Y-76845084D01*
X156153906Y-76717486D01*
X156181753Y-76627807D01*
X156181754Y-76627801D01*
X156183337Y-76622704D01*
X156213932Y-76391868D01*
X156205197Y-76159178D01*
X156157380Y-75931287D01*
X156071850Y-75714710D01*
X155951051Y-75515641D01*
X155798439Y-75339770D01*
X155794313Y-75336387D01*
X155794309Y-75336383D01*
X155622504Y-75195513D01*
X155618376Y-75192128D01*
X155572261Y-75165878D01*
X155522956Y-75114798D01*
X155509094Y-75045168D01*
X155535077Y-74979096D01*
X155564227Y-74951857D01*
X155696530Y-74862785D01*
X155704816Y-74856124D01*
X155865520Y-74702820D01*
X155872569Y-74694852D01*
X156005144Y-74516664D01*
X156010743Y-74507634D01*
X156111402Y-74309653D01*
X156115405Y-74299792D01*
X156181263Y-74087699D01*
X156183548Y-74077304D01*
X156185980Y-74058959D01*
X156183783Y-74044792D01*
X156170599Y-74041000D01*
X153203512Y-74041000D01*
X153189981Y-74044973D01*
X153188456Y-74055580D01*
X153214004Y-74177343D01*
X153217064Y-74187539D01*
X153298637Y-74394097D01*
X153303371Y-74403634D01*
X153418586Y-74593503D01*
X153424850Y-74602093D01*
X153570411Y-74769837D01*
X153578041Y-74777257D01*
X153749780Y-74918073D01*
X153758551Y-74924102D01*
X153799715Y-74947533D01*
X153849022Y-74998615D01*
X153862884Y-75068245D01*
X153836901Y-75134316D01*
X153807751Y-75161555D01*
X153670728Y-75253804D01*
X153502242Y-75414532D01*
X153363246Y-75601350D01*
X153351423Y-75624605D01*
X153302719Y-75676263D01*
X153239106Y-75693500D01*
X140889904Y-75693500D01*
X140821783Y-75673498D01*
X140782185Y-75632866D01*
X140765949Y-75606109D01*
X140711051Y-75515641D01*
X140558439Y-75339770D01*
X140554313Y-75336387D01*
X140554309Y-75336383D01*
X140382504Y-75195513D01*
X140378376Y-75192128D01*
X140373740Y-75189489D01*
X140373737Y-75189487D01*
X140332748Y-75166155D01*
X140283442Y-75115073D01*
X140269580Y-75045442D01*
X140295563Y-74979371D01*
X140324713Y-74952133D01*
X140415248Y-74891181D01*
X140461272Y-74860196D01*
X140489600Y-74833173D01*
X140625896Y-74703152D01*
X140629758Y-74699468D01*
X140768754Y-74512650D01*
X140874286Y-74305084D01*
X140913951Y-74177343D01*
X140941753Y-74087807D01*
X140941754Y-74087801D01*
X140943337Y-74082704D01*
X140973932Y-73851868D01*
X140965197Y-73619178D01*
X140917380Y-73391287D01*
X140831850Y-73174710D01*
X140711051Y-72975641D01*
X140558439Y-72799770D01*
X140554313Y-72796387D01*
X140554309Y-72796383D01*
X140433374Y-72697224D01*
X140378376Y-72652128D01*
X140373740Y-72649489D01*
X140373737Y-72649487D01*
X140332748Y-72626155D01*
X140283442Y-72575073D01*
X140269580Y-72505442D01*
X140295563Y-72439371D01*
X140324713Y-72412133D01*
X140433873Y-72338642D01*
X140461272Y-72320196D01*
X140629758Y-72159468D01*
X140768754Y-71972650D01*
X140874286Y-71765084D01*
X140913906Y-71637486D01*
X140941753Y-71547807D01*
X140941754Y-71547801D01*
X140943337Y-71542704D01*
X140973932Y-71311868D01*
X140969062Y-71182132D01*
X153158068Y-71182132D01*
X153166803Y-71414822D01*
X153214620Y-71642713D01*
X153300150Y-71859290D01*
X153420949Y-72058359D01*
X153424446Y-72062389D01*
X153558354Y-72216705D01*
X153573561Y-72234230D01*
X153577687Y-72237613D01*
X153577691Y-72237617D01*
X153673915Y-72316515D01*
X153753624Y-72381872D01*
X153799739Y-72408122D01*
X153849044Y-72459202D01*
X153862906Y-72528832D01*
X153836923Y-72594904D01*
X153807773Y-72622143D01*
X153675470Y-72711215D01*
X153667184Y-72717876D01*
X153506480Y-72871180D01*
X153499431Y-72879148D01*
X153366856Y-73057336D01*
X153361257Y-73066366D01*
X153260598Y-73264347D01*
X153256595Y-73274208D01*
X153190737Y-73486301D01*
X153188452Y-73496696D01*
X153186020Y-73515041D01*
X153188217Y-73529208D01*
X153201401Y-73533000D01*
X156168488Y-73533000D01*
X156182019Y-73529027D01*
X156183544Y-73518420D01*
X156157996Y-73396657D01*
X156154936Y-73386461D01*
X156073363Y-73179903D01*
X156068629Y-73170366D01*
X155953414Y-72980497D01*
X155947150Y-72971907D01*
X155801589Y-72804163D01*
X155793959Y-72796743D01*
X155622220Y-72655927D01*
X155613449Y-72649898D01*
X155572285Y-72626467D01*
X155522978Y-72575385D01*
X155509116Y-72505755D01*
X155535099Y-72439684D01*
X155564249Y-72412445D01*
X155701272Y-72320196D01*
X155869758Y-72159468D01*
X156008754Y-71972650D01*
X156114286Y-71765084D01*
X156153906Y-71637486D01*
X156181753Y-71547807D01*
X156181754Y-71547801D01*
X156183337Y-71542704D01*
X156213932Y-71311868D01*
X156205197Y-71079178D01*
X156157380Y-70851287D01*
X156071850Y-70634710D01*
X155951051Y-70435641D01*
X155798439Y-70259770D01*
X155794313Y-70256387D01*
X155794309Y-70256383D01*
X155619609Y-70113139D01*
X155579615Y-70054480D01*
X155573500Y-70015705D01*
X155573500Y-64780427D01*
X155593502Y-64712306D01*
X155634618Y-64672550D01*
X155637994Y-64670896D01*
X155819860Y-64541173D01*
X155978096Y-64383489D01*
X156037594Y-64300689D01*
X156105435Y-64206277D01*
X156108453Y-64202077D01*
X156141258Y-64135702D01*
X156205136Y-64006453D01*
X156205137Y-64006451D01*
X156207430Y-64001811D01*
X156272370Y-63788069D01*
X156301529Y-63566590D01*
X156303156Y-63500000D01*
X156284852Y-63277361D01*
X156230431Y-63060702D01*
X156141354Y-62855840D01*
X156020014Y-62668277D01*
X156016532Y-62664450D01*
X155872798Y-62506488D01*
X155841746Y-62442642D01*
X155850141Y-62372143D01*
X155895317Y-62317375D01*
X155921761Y-62303706D01*
X156028297Y-62263767D01*
X156036705Y-62260615D01*
X156153261Y-62173261D01*
X156240615Y-62056705D01*
X156291745Y-61920316D01*
X156298500Y-61858134D01*
X156298500Y-60061866D01*
X156291745Y-59999684D01*
X156240615Y-59863295D01*
X156153261Y-59746739D01*
X156036705Y-59659385D01*
X155900316Y-59608255D01*
X155838134Y-59601500D01*
X154041866Y-59601500D01*
X153979684Y-59608255D01*
X153843295Y-59659385D01*
X153726739Y-59746739D01*
X153639385Y-59863295D01*
X153588255Y-59999684D01*
X153581500Y-60061866D01*
X153581500Y-61858134D01*
X153588255Y-61920316D01*
X153639385Y-62056705D01*
X153726739Y-62173261D01*
X153843295Y-62260615D01*
X153851704Y-62263767D01*
X153851705Y-62263768D01*
X153960451Y-62304535D01*
X154017216Y-62347176D01*
X154041916Y-62413738D01*
X154026709Y-62483087D01*
X154007316Y-62509568D01*
X153880629Y-62642138D01*
X153754743Y-62826680D01*
X153660688Y-63029305D01*
X153600989Y-63244570D01*
X153577251Y-63466695D01*
X153577548Y-63471848D01*
X153577548Y-63471851D01*
X153583011Y-63566590D01*
X153590110Y-63689715D01*
X153591247Y-63694761D01*
X153591248Y-63694767D01*
X153611119Y-63782939D01*
X153639222Y-63907639D01*
X153694900Y-64044758D01*
X153716817Y-64098733D01*
X153723266Y-64114616D01*
X153839987Y-64305088D01*
X153986250Y-64473938D01*
X154158126Y-64616632D01*
X154162593Y-64619242D01*
X154244070Y-64666853D01*
X154292794Y-64718491D01*
X154306500Y-64775641D01*
X154306500Y-69790878D01*
X154286498Y-69858999D01*
X154232842Y-69905492D01*
X154212159Y-69912835D01*
X154076194Y-69948125D01*
X154071328Y-69950317D01*
X154071325Y-69950318D01*
X153971886Y-69995112D01*
X153863887Y-70043762D01*
X153670728Y-70173804D01*
X153502242Y-70334532D01*
X153363246Y-70521350D01*
X153257714Y-70728916D01*
X153223188Y-70840106D01*
X153190247Y-70946193D01*
X153190246Y-70946199D01*
X153188663Y-70951296D01*
X153158068Y-71182132D01*
X140969062Y-71182132D01*
X140965197Y-71079178D01*
X140917380Y-70851287D01*
X140831850Y-70634710D01*
X140711051Y-70435641D01*
X140558439Y-70259770D01*
X140554313Y-70256387D01*
X140554309Y-70256383D01*
X140382504Y-70115513D01*
X140378376Y-70112128D01*
X140373740Y-70109489D01*
X140373737Y-70109487D01*
X140180654Y-69999578D01*
X140176011Y-69996935D01*
X140170995Y-69995114D01*
X140170990Y-69995112D01*
X139962146Y-69919305D01*
X139962142Y-69919304D01*
X139957131Y-69917485D01*
X139951882Y-69916536D01*
X139951879Y-69916535D01*
X139867948Y-69901358D01*
X139727993Y-69876050D01*
X139723854Y-69875855D01*
X139723847Y-69875854D01*
X139705095Y-69874970D01*
X139705086Y-69874970D01*
X139703606Y-69874900D01*
X139235132Y-69874900D01*
X139167625Y-69880628D01*
X139066891Y-69889175D01*
X139066887Y-69889176D01*
X139061580Y-69889626D01*
X139056423Y-69890964D01*
X139056420Y-69890965D01*
X138841363Y-69946783D01*
X138841359Y-69946784D01*
X138836194Y-69948125D01*
X138831328Y-69950317D01*
X138831325Y-69950318D01*
X138731886Y-69995112D01*
X138623887Y-70043762D01*
X138430728Y-70173804D01*
X138262242Y-70334532D01*
X138123246Y-70521350D01*
X138111423Y-70544605D01*
X138062719Y-70596263D01*
X137999106Y-70613500D01*
X131024500Y-70613500D01*
X130956379Y-70593498D01*
X130909886Y-70539842D01*
X130898500Y-70487500D01*
X130898500Y-70221866D01*
X130891745Y-70159684D01*
X130840615Y-70023295D01*
X130753261Y-69906739D01*
X130636705Y-69819385D01*
X130500316Y-69768255D01*
X130438134Y-69761500D01*
X128641866Y-69761500D01*
X128579684Y-69768255D01*
X128443295Y-69819385D01*
X128326739Y-69906739D01*
X128239385Y-70023295D01*
X128188255Y-70159684D01*
X128181500Y-70221866D01*
X128181500Y-72018134D01*
X128188255Y-72080316D01*
X128239385Y-72216705D01*
X128326739Y-72333261D01*
X128443295Y-72420615D01*
X128451704Y-72423767D01*
X128451705Y-72423768D01*
X128560451Y-72464535D01*
X128617216Y-72507176D01*
X128641916Y-72573738D01*
X128626709Y-72643087D01*
X128607316Y-72669568D01*
X128485785Y-72796743D01*
X128480629Y-72802138D01*
X128354743Y-72986680D01*
X128317754Y-73066366D01*
X128267463Y-73174710D01*
X128260688Y-73189305D01*
X128200989Y-73404570D01*
X128177251Y-73626695D01*
X128190110Y-73849715D01*
X128191247Y-73854761D01*
X128191248Y-73854767D01*
X128191786Y-73857152D01*
X128239222Y-74067639D01*
X128323266Y-74274616D01*
X128374942Y-74358944D01*
X128424921Y-74440502D01*
X128439987Y-74465088D01*
X128586250Y-74633938D01*
X128758126Y-74776632D01*
X128951000Y-74889338D01*
X129159692Y-74969030D01*
X129164760Y-74970061D01*
X129164763Y-74970062D01*
X129210519Y-74979371D01*
X129378597Y-75013567D01*
X129383772Y-75013757D01*
X129383774Y-75013757D01*
X129596673Y-75021564D01*
X129596677Y-75021564D01*
X129601837Y-75021753D01*
X129606957Y-75021097D01*
X129606959Y-75021097D01*
X129818288Y-74994025D01*
X129818289Y-74994025D01*
X129823416Y-74993368D01*
X129833849Y-74990238D01*
X130032429Y-74930661D01*
X130032434Y-74930659D01*
X130037384Y-74929174D01*
X130237994Y-74830896D01*
X130419860Y-74701173D01*
X130578096Y-74543489D01*
X130628766Y-74472974D01*
X130684761Y-74429326D01*
X130731089Y-74420500D01*
X138002096Y-74420500D01*
X138070217Y-74440502D01*
X138109814Y-74481133D01*
X138180949Y-74598359D01*
X138333561Y-74774230D01*
X138337687Y-74777613D01*
X138337691Y-74777617D01*
X138402670Y-74830896D01*
X138513624Y-74921872D01*
X138518260Y-74924511D01*
X138518263Y-74924513D01*
X138559252Y-74947845D01*
X138608558Y-74998927D01*
X138622420Y-75068558D01*
X138596437Y-75134629D01*
X138567287Y-75161867D01*
X138560918Y-75166155D01*
X138430728Y-75253804D01*
X138262242Y-75414532D01*
X138123246Y-75601350D01*
X138017714Y-75808916D01*
X137983189Y-75920106D01*
X137950247Y-76026193D01*
X137950246Y-76026199D01*
X137948663Y-76031296D01*
X137918068Y-76262132D01*
X137926803Y-76494822D01*
X137974620Y-76722713D01*
X138060150Y-76939290D01*
X138180949Y-77138359D01*
X138333561Y-77314230D01*
X138337687Y-77317613D01*
X138337691Y-77317617D01*
X138433915Y-77396515D01*
X138513624Y-77461872D01*
X138559739Y-77488122D01*
X138609044Y-77539202D01*
X138622906Y-77608832D01*
X138596923Y-77674904D01*
X138567773Y-77702143D01*
X138435470Y-77791215D01*
X138427184Y-77797876D01*
X138266480Y-77951180D01*
X138259431Y-77959148D01*
X138126856Y-78137336D01*
X138121257Y-78146366D01*
X138020598Y-78344347D01*
X138016595Y-78354208D01*
X137950737Y-78566301D01*
X137948452Y-78576696D01*
X137946020Y-78595041D01*
X137948217Y-78609208D01*
X137961401Y-78613000D01*
X140928488Y-78613000D01*
X140942019Y-78609027D01*
X140943544Y-78598420D01*
X140917996Y-78476657D01*
X140914936Y-78466461D01*
X140833363Y-78259903D01*
X140828629Y-78250366D01*
X140713414Y-78060497D01*
X140707150Y-78051907D01*
X140561589Y-77884163D01*
X140553959Y-77876743D01*
X140382220Y-77735927D01*
X140373449Y-77729898D01*
X140332285Y-77706467D01*
X140282978Y-77655385D01*
X140269116Y-77585755D01*
X140295099Y-77519684D01*
X140324249Y-77492445D01*
X140461272Y-77400196D01*
X140629758Y-77239468D01*
X140768754Y-77052650D01*
X140780578Y-77029394D01*
X140829281Y-76977737D01*
X140892894Y-76960500D01*
X153242096Y-76960500D01*
X153310217Y-76980502D01*
X153349814Y-77021133D01*
X153420949Y-77138359D01*
X153573561Y-77314230D01*
X153577687Y-77317613D01*
X153577691Y-77317617D01*
X153673915Y-77396515D01*
X153753624Y-77461872D01*
X153758260Y-77464511D01*
X153758263Y-77464513D01*
X153799252Y-77487845D01*
X153848558Y-77538927D01*
X153862420Y-77608558D01*
X153836437Y-77674629D01*
X153807287Y-77701867D01*
X153766262Y-77729487D01*
X153670728Y-77793804D01*
X153502242Y-77954532D01*
X153363246Y-78141350D01*
X153257714Y-78348916D01*
X153256071Y-78354208D01*
X153190247Y-78566193D01*
X153190246Y-78566199D01*
X153188663Y-78571296D01*
X153158068Y-78802132D01*
X153166803Y-79034822D01*
X153214620Y-79262713D01*
X153300150Y-79479290D01*
X153420949Y-79678359D01*
X153573561Y-79854230D01*
X153577687Y-79857613D01*
X153577691Y-79857617D01*
X153673438Y-79936124D01*
X153753624Y-80001872D01*
X153758260Y-80004511D01*
X153758263Y-80004513D01*
X153799252Y-80027845D01*
X153848558Y-80078927D01*
X153862420Y-80148558D01*
X153836437Y-80214629D01*
X153807287Y-80241867D01*
X153800918Y-80246155D01*
X153670728Y-80333804D01*
X153502242Y-80494532D01*
X153363246Y-80681350D01*
X153257714Y-80888916D01*
X153223189Y-81000106D01*
X153190247Y-81106193D01*
X153190246Y-81106199D01*
X153188663Y-81111296D01*
X153158068Y-81342132D01*
X153166803Y-81574822D01*
X153214620Y-81802713D01*
X153300150Y-82019290D01*
X153420949Y-82218359D01*
X153573561Y-82394230D01*
X153577687Y-82397613D01*
X153577691Y-82397617D01*
X153673915Y-82476515D01*
X153753624Y-82541872D01*
X153758260Y-82544511D01*
X153758263Y-82544513D01*
X153799252Y-82567845D01*
X153848558Y-82618927D01*
X153862420Y-82688558D01*
X153836437Y-82754629D01*
X153807287Y-82781867D01*
X153670728Y-82873804D01*
X153502242Y-83034532D01*
X153363246Y-83221350D01*
X153257714Y-83428916D01*
X153223188Y-83540106D01*
X153190247Y-83646193D01*
X153190246Y-83646199D01*
X153188663Y-83651296D01*
X153158068Y-83882132D01*
X153166803Y-84114822D01*
X153214620Y-84342713D01*
X153300150Y-84559290D01*
X153420949Y-84758359D01*
X153573561Y-84934230D01*
X153577687Y-84937613D01*
X153577691Y-84937617D01*
X153673915Y-85016515D01*
X153753624Y-85081872D01*
X153758260Y-85084511D01*
X153758263Y-85084513D01*
X153799252Y-85107845D01*
X153848558Y-85158927D01*
X153862420Y-85228558D01*
X153836437Y-85294629D01*
X153807287Y-85321867D01*
X153670728Y-85413804D01*
X153502242Y-85574532D01*
X153363246Y-85761350D01*
X153257714Y-85968916D01*
X153223188Y-86080106D01*
X153190247Y-86186193D01*
X153190246Y-86186199D01*
X153188663Y-86191296D01*
X153158068Y-86422132D01*
X153166803Y-86654822D01*
X153214620Y-86882713D01*
X153300150Y-87099290D01*
X153420949Y-87298359D01*
X153573561Y-87474230D01*
X153577687Y-87477613D01*
X153577691Y-87477617D01*
X153673915Y-87556515D01*
X153753624Y-87621872D01*
X153758260Y-87624511D01*
X153758263Y-87624513D01*
X153799252Y-87647845D01*
X153848558Y-87698927D01*
X153862420Y-87768558D01*
X153836437Y-87834629D01*
X153807287Y-87861867D01*
X153670728Y-87953804D01*
X153502242Y-88114532D01*
X153363246Y-88301350D01*
X153257714Y-88508916D01*
X153223188Y-88620106D01*
X153190247Y-88726193D01*
X153190246Y-88726199D01*
X153188663Y-88731296D01*
X153158068Y-88962132D01*
X153166803Y-89194822D01*
X153214620Y-89422713D01*
X153300150Y-89639290D01*
X153420949Y-89838359D01*
X153573561Y-90014230D01*
X153577687Y-90017613D01*
X153577691Y-90017617D01*
X153673915Y-90096515D01*
X153753624Y-90161872D01*
X153758260Y-90164511D01*
X153758263Y-90164513D01*
X153799252Y-90187845D01*
X153848558Y-90238927D01*
X153862420Y-90308558D01*
X153836437Y-90374629D01*
X153807287Y-90401867D01*
X153670728Y-90493804D01*
X153502242Y-90654532D01*
X153363246Y-90841350D01*
X153257714Y-91048916D01*
X153223189Y-91160106D01*
X153190247Y-91266193D01*
X153190246Y-91266199D01*
X153188663Y-91271296D01*
X153158068Y-91502132D01*
X153166803Y-91734822D01*
X153214620Y-91962713D01*
X153300150Y-92179290D01*
X153420949Y-92378359D01*
X153573561Y-92554230D01*
X153577687Y-92557613D01*
X153577691Y-92557617D01*
X153673915Y-92636515D01*
X153753624Y-92701872D01*
X153758260Y-92704511D01*
X153758263Y-92704513D01*
X153799252Y-92727845D01*
X153848558Y-92778927D01*
X153862420Y-92848558D01*
X153836437Y-92914629D01*
X153807287Y-92941867D01*
X153670728Y-93033804D01*
X153502242Y-93194532D01*
X153363246Y-93381350D01*
X153257714Y-93588916D01*
X153223188Y-93700106D01*
X153190247Y-93806193D01*
X153190246Y-93806199D01*
X153188663Y-93811296D01*
X153158068Y-94042132D01*
X153166803Y-94274822D01*
X153214620Y-94502713D01*
X153300150Y-94719290D01*
X153420949Y-94918359D01*
X153573561Y-95094230D01*
X153577687Y-95097613D01*
X153577691Y-95097617D01*
X153673915Y-95176515D01*
X153753624Y-95241872D01*
X153758260Y-95244511D01*
X153758263Y-95244513D01*
X153799252Y-95267845D01*
X153848558Y-95318927D01*
X153862420Y-95388558D01*
X153836437Y-95454629D01*
X153807287Y-95481867D01*
X153670728Y-95573804D01*
X153502242Y-95734532D01*
X153363246Y-95921350D01*
X153257714Y-96128916D01*
X153223188Y-96240106D01*
X153190247Y-96346193D01*
X153190246Y-96346199D01*
X153188663Y-96351296D01*
X153158068Y-96582132D01*
X153166803Y-96814822D01*
X153214620Y-97042713D01*
X153300150Y-97259290D01*
X153420949Y-97458359D01*
X153573561Y-97634230D01*
X153577687Y-97637613D01*
X153577691Y-97637617D01*
X153673915Y-97716515D01*
X153753624Y-97781872D01*
X153758260Y-97784511D01*
X153758263Y-97784513D01*
X153799252Y-97807845D01*
X153848558Y-97858927D01*
X153862420Y-97928558D01*
X153836437Y-97994629D01*
X153807287Y-98021867D01*
X153670728Y-98113804D01*
X153502242Y-98274532D01*
X153363246Y-98461350D01*
X153257714Y-98668916D01*
X153223188Y-98780106D01*
X153190247Y-98886193D01*
X153190246Y-98886199D01*
X153188663Y-98891296D01*
X153158068Y-99122132D01*
X153166803Y-99354822D01*
X153214620Y-99582713D01*
X153300150Y-99799290D01*
X153420949Y-99998359D01*
X153573561Y-100174230D01*
X153577687Y-100177613D01*
X153577691Y-100177617D01*
X153673915Y-100256515D01*
X153753624Y-100321872D01*
X153758260Y-100324511D01*
X153758263Y-100324513D01*
X153799252Y-100347845D01*
X153848558Y-100398927D01*
X153862420Y-100468558D01*
X153836437Y-100534629D01*
X153807287Y-100561867D01*
X153670728Y-100653804D01*
X153502242Y-100814532D01*
X153363246Y-101001350D01*
X153257714Y-101208916D01*
X153223189Y-101320106D01*
X153190247Y-101426193D01*
X153190246Y-101426199D01*
X153188663Y-101431296D01*
X153158068Y-101662132D01*
X153166803Y-101894822D01*
X153214620Y-102122713D01*
X153300150Y-102339290D01*
X153420949Y-102538359D01*
X153573561Y-102714230D01*
X153577687Y-102717613D01*
X153577691Y-102717617D01*
X153673915Y-102796515D01*
X153753624Y-102861872D01*
X153758260Y-102864511D01*
X153758263Y-102864513D01*
X153799252Y-102887845D01*
X153848558Y-102938927D01*
X153862420Y-103008558D01*
X153836437Y-103074629D01*
X153807287Y-103101867D01*
X153670728Y-103193804D01*
X153502242Y-103354532D01*
X153363246Y-103541350D01*
X153351423Y-103564605D01*
X153302719Y-103616263D01*
X153239106Y-103633500D01*
X148526767Y-103633500D01*
X148515584Y-103632973D01*
X148508091Y-103631298D01*
X148500165Y-103631547D01*
X148500164Y-103631547D01*
X148440014Y-103633438D01*
X148436055Y-103633500D01*
X148408144Y-103633500D01*
X148404210Y-103633997D01*
X148404209Y-103633997D01*
X148404144Y-103634005D01*
X148392307Y-103634938D01*
X148360490Y-103635938D01*
X148356029Y-103636078D01*
X148348110Y-103636327D01*
X148330454Y-103641456D01*
X148328658Y-103641978D01*
X148309306Y-103645986D01*
X148302235Y-103646880D01*
X148289203Y-103648526D01*
X148281834Y-103651443D01*
X148281832Y-103651444D01*
X148248097Y-103664800D01*
X148236869Y-103668645D01*
X148194407Y-103680982D01*
X148187585Y-103685016D01*
X148187579Y-103685019D01*
X148176968Y-103691294D01*
X148159218Y-103699990D01*
X148147756Y-103704528D01*
X148147751Y-103704531D01*
X148140383Y-103707448D01*
X148133968Y-103712109D01*
X148104625Y-103733427D01*
X148094707Y-103739943D01*
X148076019Y-103750995D01*
X148056637Y-103762458D01*
X148042313Y-103776782D01*
X148027281Y-103789621D01*
X148010893Y-103801528D01*
X147982712Y-103835593D01*
X147974722Y-103844373D01*
X135028247Y-116790848D01*
X134965935Y-116824874D01*
X134906542Y-116823460D01*
X134843087Y-116806457D01*
X134615000Y-116786502D01*
X134386913Y-116806457D01*
X134381600Y-116807881D01*
X134381598Y-116807881D01*
X134171067Y-116864293D01*
X134171065Y-116864294D01*
X134165757Y-116865716D01*
X134160776Y-116868039D01*
X134160775Y-116868039D01*
X133963238Y-116960151D01*
X133963233Y-116960154D01*
X133958251Y-116962477D01*
X133865255Y-117027594D01*
X133775211Y-117090643D01*
X133775208Y-117090645D01*
X133770700Y-117093802D01*
X133608802Y-117255700D01*
X133477477Y-117443251D01*
X133475154Y-117448233D01*
X133475151Y-117448238D01*
X133475034Y-117448489D01*
X133380716Y-117650757D01*
X133379294Y-117656065D01*
X133379293Y-117656067D01*
X133323041Y-117866002D01*
X133321457Y-117871913D01*
X133301502Y-118100000D01*
X133321457Y-118328087D01*
X133380716Y-118549243D01*
X133383039Y-118554224D01*
X133383039Y-118554225D01*
X133475151Y-118751762D01*
X133475154Y-118751767D01*
X133477477Y-118756749D01*
X133480634Y-118761257D01*
X133587794Y-118914297D01*
X133608802Y-118944300D01*
X133770700Y-119106198D01*
X133775208Y-119109355D01*
X133775211Y-119109357D01*
X133804274Y-119129707D01*
X133958251Y-119237523D01*
X133963233Y-119239846D01*
X133963238Y-119239849D01*
X134151929Y-119327836D01*
X134165757Y-119334284D01*
X134171065Y-119335706D01*
X134171067Y-119335707D01*
X134381598Y-119392119D01*
X134381600Y-119392119D01*
X134386913Y-119393543D01*
X134615000Y-119413498D01*
X134843087Y-119393543D01*
X134848400Y-119392119D01*
X134848402Y-119392119D01*
X135058933Y-119335707D01*
X135058935Y-119335706D01*
X135064243Y-119334284D01*
X135078071Y-119327836D01*
X135266762Y-119239849D01*
X135266767Y-119239846D01*
X135271749Y-119237523D01*
X135425726Y-119129707D01*
X135454789Y-119109357D01*
X135454792Y-119109355D01*
X135459300Y-119106198D01*
X135621198Y-118944300D01*
X135642207Y-118914297D01*
X135749366Y-118761257D01*
X135752523Y-118756749D01*
X135754846Y-118751767D01*
X135754849Y-118751762D01*
X135770805Y-118717543D01*
X135817722Y-118664258D01*
X135885999Y-118644797D01*
X135953959Y-118665339D01*
X135999195Y-118717543D01*
X136015151Y-118751762D01*
X136015154Y-118751767D01*
X136017477Y-118756749D01*
X136020634Y-118761257D01*
X136127794Y-118914297D01*
X136148802Y-118944300D01*
X136310700Y-119106198D01*
X136315209Y-119109355D01*
X136321327Y-119113639D01*
X136365654Y-119169097D01*
X136372962Y-119239717D01*
X136338149Y-119305946D01*
X134394500Y-121249595D01*
X134332188Y-121283621D01*
X134305405Y-121286500D01*
X132394595Y-121286500D01*
X132326474Y-121266498D01*
X132305500Y-121249595D01*
X130210405Y-119154500D01*
X130176379Y-119092188D01*
X130173500Y-119065405D01*
X130173500Y-117027594D01*
X130193502Y-116959473D01*
X130210405Y-116938499D01*
X138953890Y-108195014D01*
X139016202Y-108160988D01*
X139065406Y-108160120D01*
X139081527Y-108163035D01*
X139164007Y-108177950D01*
X139168146Y-108178145D01*
X139168153Y-108178146D01*
X139186905Y-108179030D01*
X139186914Y-108179030D01*
X139188394Y-108179100D01*
X139656868Y-108179100D01*
X139724375Y-108173372D01*
X139825109Y-108164825D01*
X139825113Y-108164824D01*
X139830420Y-108164374D01*
X139835577Y-108163036D01*
X139835580Y-108163035D01*
X140050637Y-108107217D01*
X140050641Y-108107216D01*
X140055806Y-108105875D01*
X140060672Y-108103683D01*
X140060675Y-108103682D01*
X140263240Y-108012433D01*
X140268113Y-108010238D01*
X140461272Y-107880196D01*
X140629758Y-107719468D01*
X140768754Y-107532650D01*
X140874286Y-107325084D01*
X140919608Y-107179125D01*
X140941753Y-107107807D01*
X140941754Y-107107801D01*
X140943337Y-107102704D01*
X140960993Y-106969491D01*
X140973232Y-106877152D01*
X140973232Y-106877148D01*
X140973932Y-106871868D01*
X140965197Y-106639178D01*
X140917380Y-106411287D01*
X140831850Y-106194710D01*
X140711051Y-105995641D01*
X140558439Y-105819770D01*
X140554313Y-105816387D01*
X140554309Y-105816383D01*
X140382504Y-105675513D01*
X140378376Y-105672128D01*
X140373740Y-105669489D01*
X140373737Y-105669487D01*
X140332748Y-105646155D01*
X140283442Y-105595073D01*
X140269580Y-105525442D01*
X140295563Y-105459371D01*
X140324713Y-105432133D01*
X140376842Y-105397037D01*
X140461272Y-105340196D01*
X140629758Y-105179468D01*
X140768754Y-104992650D01*
X140874286Y-104785084D01*
X140913906Y-104657486D01*
X140941753Y-104567807D01*
X140941754Y-104567801D01*
X140943337Y-104562704D01*
X140960910Y-104430119D01*
X140973232Y-104337152D01*
X140973232Y-104337148D01*
X140973932Y-104331868D01*
X140965197Y-104099178D01*
X140917380Y-103871287D01*
X140831850Y-103654710D01*
X140711051Y-103455641D01*
X140558439Y-103279770D01*
X140554313Y-103276387D01*
X140554309Y-103276383D01*
X140382504Y-103135513D01*
X140378376Y-103132128D01*
X140373740Y-103129489D01*
X140373737Y-103129487D01*
X140332748Y-103106155D01*
X140283442Y-103055073D01*
X140269580Y-102985442D01*
X140295563Y-102919371D01*
X140324713Y-102892133D01*
X140376842Y-102857037D01*
X140461272Y-102800196D01*
X140629758Y-102639468D01*
X140768754Y-102452650D01*
X140874286Y-102245084D01*
X140913906Y-102117486D01*
X140941753Y-102027807D01*
X140941754Y-102027801D01*
X140943337Y-102022704D01*
X140973932Y-101791868D01*
X140965197Y-101559178D01*
X140917380Y-101331287D01*
X140831850Y-101114710D01*
X140711051Y-100915641D01*
X140558439Y-100739770D01*
X140554313Y-100736387D01*
X140554309Y-100736383D01*
X140382504Y-100595513D01*
X140378376Y-100592128D01*
X140373740Y-100589489D01*
X140373737Y-100589487D01*
X140332748Y-100566155D01*
X140283442Y-100515073D01*
X140269580Y-100445442D01*
X140295563Y-100379371D01*
X140324713Y-100352133D01*
X140376842Y-100317037D01*
X140461272Y-100260196D01*
X140629758Y-100099468D01*
X140768754Y-99912650D01*
X140874286Y-99705084D01*
X140913906Y-99577486D01*
X140941753Y-99487807D01*
X140941754Y-99487801D01*
X140943337Y-99482704D01*
X140973932Y-99251868D01*
X140965197Y-99019178D01*
X140917380Y-98791287D01*
X140831850Y-98574710D01*
X140711051Y-98375641D01*
X140558439Y-98199770D01*
X140554313Y-98196387D01*
X140554309Y-98196383D01*
X140382504Y-98055513D01*
X140378376Y-98052128D01*
X140373740Y-98049489D01*
X140373737Y-98049487D01*
X140332748Y-98026155D01*
X140283442Y-97975073D01*
X140269580Y-97905442D01*
X140295563Y-97839371D01*
X140324713Y-97812133D01*
X140376842Y-97777037D01*
X140461272Y-97720196D01*
X140629758Y-97559468D01*
X140768754Y-97372650D01*
X140874286Y-97165084D01*
X140913906Y-97037486D01*
X140941753Y-96947807D01*
X140941754Y-96947801D01*
X140943337Y-96942704D01*
X140973932Y-96711868D01*
X140965197Y-96479178D01*
X140917380Y-96251287D01*
X140831850Y-96034710D01*
X140711051Y-95835641D01*
X140558439Y-95659770D01*
X140554313Y-95656387D01*
X140554309Y-95656383D01*
X140382504Y-95515513D01*
X140378376Y-95512128D01*
X140373740Y-95509489D01*
X140373737Y-95509487D01*
X140332748Y-95486155D01*
X140283442Y-95435073D01*
X140269580Y-95365442D01*
X140295563Y-95299371D01*
X140324713Y-95272133D01*
X140376842Y-95237037D01*
X140461272Y-95180196D01*
X140629758Y-95019468D01*
X140768754Y-94832650D01*
X140874286Y-94625084D01*
X140913906Y-94497486D01*
X140941753Y-94407807D01*
X140941754Y-94407801D01*
X140943337Y-94402704D01*
X140973932Y-94171868D01*
X140965197Y-93939178D01*
X140917380Y-93711287D01*
X140831850Y-93494710D01*
X140711051Y-93295641D01*
X140558439Y-93119770D01*
X140554313Y-93116387D01*
X140554309Y-93116383D01*
X140382504Y-92975513D01*
X140378376Y-92972128D01*
X140373740Y-92969489D01*
X140373737Y-92969487D01*
X140332748Y-92946155D01*
X140283442Y-92895073D01*
X140269580Y-92825442D01*
X140295563Y-92759371D01*
X140324713Y-92732133D01*
X140376842Y-92697037D01*
X140461272Y-92640196D01*
X140629758Y-92479468D01*
X140768754Y-92292650D01*
X140874286Y-92085084D01*
X140913906Y-91957486D01*
X140941753Y-91867807D01*
X140941754Y-91867801D01*
X140943337Y-91862704D01*
X140973932Y-91631868D01*
X140965197Y-91399178D01*
X140917380Y-91171287D01*
X140831850Y-90954710D01*
X140711051Y-90755641D01*
X140558439Y-90579770D01*
X140554313Y-90576387D01*
X140554309Y-90576383D01*
X140382504Y-90435513D01*
X140378376Y-90432128D01*
X140373740Y-90429489D01*
X140373737Y-90429487D01*
X140332748Y-90406155D01*
X140283442Y-90355073D01*
X140269580Y-90285442D01*
X140295563Y-90219371D01*
X140324713Y-90192133D01*
X140376842Y-90157037D01*
X140461272Y-90100196D01*
X140629758Y-89939468D01*
X140768754Y-89752650D01*
X140874286Y-89545084D01*
X140913906Y-89417486D01*
X140941753Y-89327807D01*
X140941754Y-89327801D01*
X140943337Y-89322704D01*
X140973932Y-89091868D01*
X140965197Y-88859178D01*
X140917380Y-88631287D01*
X140831850Y-88414710D01*
X140711051Y-88215641D01*
X140558439Y-88039770D01*
X140554313Y-88036387D01*
X140554309Y-88036383D01*
X140382504Y-87895513D01*
X140378376Y-87892128D01*
X140373740Y-87889489D01*
X140373737Y-87889487D01*
X140332748Y-87866155D01*
X140283442Y-87815073D01*
X140269580Y-87745442D01*
X140295563Y-87679371D01*
X140324713Y-87652133D01*
X140376842Y-87617037D01*
X140461272Y-87560196D01*
X140629758Y-87399468D01*
X140768754Y-87212650D01*
X140874286Y-87005084D01*
X140913906Y-86877486D01*
X140941753Y-86787807D01*
X140941754Y-86787801D01*
X140943337Y-86782704D01*
X140973932Y-86551868D01*
X140965197Y-86319178D01*
X140917380Y-86091287D01*
X140831850Y-85874710D01*
X140711051Y-85675641D01*
X140558439Y-85499770D01*
X140554313Y-85496387D01*
X140554309Y-85496383D01*
X140382504Y-85355513D01*
X140378376Y-85352128D01*
X140373740Y-85349489D01*
X140373737Y-85349487D01*
X140332748Y-85326155D01*
X140283442Y-85275073D01*
X140269580Y-85205442D01*
X140295563Y-85139371D01*
X140324713Y-85112133D01*
X140376842Y-85077037D01*
X140461272Y-85020196D01*
X140629758Y-84859468D01*
X140768754Y-84672650D01*
X140874286Y-84465084D01*
X140913906Y-84337486D01*
X140941753Y-84247807D01*
X140941754Y-84247801D01*
X140943337Y-84242704D01*
X140973932Y-84011868D01*
X140965197Y-83779178D01*
X140917380Y-83551287D01*
X140831850Y-83334710D01*
X140711051Y-83135641D01*
X140558439Y-82959770D01*
X140554313Y-82956387D01*
X140554309Y-82956383D01*
X140382504Y-82815513D01*
X140378376Y-82812128D01*
X140373740Y-82809489D01*
X140373737Y-82809487D01*
X140332748Y-82786155D01*
X140283442Y-82735073D01*
X140269580Y-82665442D01*
X140295563Y-82599371D01*
X140324713Y-82572133D01*
X140376842Y-82537037D01*
X140461272Y-82480196D01*
X140629758Y-82319468D01*
X140768754Y-82132650D01*
X140874286Y-81925084D01*
X140913906Y-81797486D01*
X140941753Y-81707807D01*
X140941754Y-81707801D01*
X140943337Y-81702704D01*
X140973932Y-81471868D01*
X140965197Y-81239178D01*
X140917380Y-81011287D01*
X140831850Y-80794710D01*
X140711051Y-80595641D01*
X140558439Y-80419770D01*
X140554313Y-80416387D01*
X140554309Y-80416383D01*
X140382504Y-80275513D01*
X140378376Y-80272128D01*
X140332261Y-80245878D01*
X140282956Y-80194798D01*
X140269094Y-80125168D01*
X140295077Y-80059096D01*
X140324227Y-80031857D01*
X140456530Y-79942785D01*
X140464816Y-79936124D01*
X140625520Y-79782820D01*
X140632569Y-79774852D01*
X140765144Y-79596664D01*
X140770743Y-79587634D01*
X140871402Y-79389653D01*
X140875405Y-79379792D01*
X140941263Y-79167699D01*
X140943548Y-79157304D01*
X140945980Y-79138959D01*
X140943783Y-79124792D01*
X140930599Y-79121000D01*
X137963512Y-79121000D01*
X137949981Y-79124973D01*
X137948456Y-79135580D01*
X137974004Y-79257343D01*
X137977064Y-79267539D01*
X138058637Y-79474097D01*
X138063371Y-79483634D01*
X138178586Y-79673503D01*
X138184850Y-79682093D01*
X138330411Y-79849837D01*
X138338041Y-79857257D01*
X138509780Y-79998073D01*
X138518551Y-80004102D01*
X138559715Y-80027533D01*
X138609022Y-80078615D01*
X138622884Y-80148245D01*
X138596901Y-80214316D01*
X138567751Y-80241555D01*
X138430728Y-80333804D01*
X138262242Y-80494532D01*
X138123246Y-80681350D01*
X138017714Y-80888916D01*
X137983189Y-81000106D01*
X137950247Y-81106193D01*
X137950246Y-81106199D01*
X137948663Y-81111296D01*
X137918068Y-81342132D01*
X137926803Y-81574822D01*
X137974620Y-81802713D01*
X138060150Y-82019290D01*
X138180949Y-82218359D01*
X138333561Y-82394230D01*
X138337687Y-82397613D01*
X138337691Y-82397617D01*
X138433915Y-82476515D01*
X138513624Y-82541872D01*
X138518260Y-82544511D01*
X138518263Y-82544513D01*
X138559252Y-82567845D01*
X138608558Y-82618927D01*
X138622420Y-82688558D01*
X138596437Y-82754629D01*
X138567287Y-82781867D01*
X138430728Y-82873804D01*
X138262242Y-83034532D01*
X138123246Y-83221350D01*
X138017714Y-83428916D01*
X137983188Y-83540106D01*
X137950247Y-83646193D01*
X137950246Y-83646199D01*
X137948663Y-83651296D01*
X137918068Y-83882132D01*
X137926803Y-84114822D01*
X137974620Y-84342713D01*
X138060150Y-84559290D01*
X138180949Y-84758359D01*
X138333561Y-84934230D01*
X138337687Y-84937613D01*
X138337691Y-84937617D01*
X138433915Y-85016515D01*
X138513624Y-85081872D01*
X138518260Y-85084511D01*
X138518263Y-85084513D01*
X138559252Y-85107845D01*
X138608558Y-85158927D01*
X138622420Y-85228558D01*
X138596437Y-85294629D01*
X138567287Y-85321867D01*
X138430728Y-85413804D01*
X138262242Y-85574532D01*
X138123246Y-85761350D01*
X138017714Y-85968916D01*
X137983188Y-86080106D01*
X137950247Y-86186193D01*
X137950246Y-86186199D01*
X137948663Y-86191296D01*
X137918068Y-86422132D01*
X137926803Y-86654822D01*
X137974620Y-86882713D01*
X138060150Y-87099290D01*
X138180949Y-87298359D01*
X138333561Y-87474230D01*
X138337687Y-87477613D01*
X138337691Y-87477617D01*
X138433915Y-87556515D01*
X138513624Y-87621872D01*
X138518260Y-87624511D01*
X138518263Y-87624513D01*
X138559252Y-87647845D01*
X138608558Y-87698927D01*
X138622420Y-87768558D01*
X138596437Y-87834629D01*
X138567287Y-87861867D01*
X138430728Y-87953804D01*
X138262242Y-88114532D01*
X138123246Y-88301350D01*
X138017714Y-88508916D01*
X137983188Y-88620106D01*
X137950247Y-88726193D01*
X137950246Y-88726199D01*
X137948663Y-88731296D01*
X137918068Y-88962132D01*
X137926803Y-89194822D01*
X137974620Y-89422713D01*
X138060150Y-89639290D01*
X138180949Y-89838359D01*
X138333561Y-90014230D01*
X138337687Y-90017613D01*
X138337691Y-90017617D01*
X138433915Y-90096515D01*
X138513624Y-90161872D01*
X138518260Y-90164511D01*
X138518263Y-90164513D01*
X138559252Y-90187845D01*
X138608558Y-90238927D01*
X138622420Y-90308558D01*
X138596437Y-90374629D01*
X138567287Y-90401867D01*
X138430728Y-90493804D01*
X138262242Y-90654532D01*
X138123246Y-90841350D01*
X138017714Y-91048916D01*
X137983189Y-91160106D01*
X137950247Y-91266193D01*
X137950246Y-91266199D01*
X137948663Y-91271296D01*
X137918068Y-91502132D01*
X137926803Y-91734822D01*
X137974620Y-91962713D01*
X138060150Y-92179290D01*
X138180949Y-92378359D01*
X138333561Y-92554230D01*
X138337687Y-92557613D01*
X138337691Y-92557617D01*
X138433915Y-92636515D01*
X138513624Y-92701872D01*
X138518260Y-92704511D01*
X138518263Y-92704513D01*
X138559252Y-92727845D01*
X138608558Y-92778927D01*
X138622420Y-92848558D01*
X138596437Y-92914629D01*
X138567287Y-92941867D01*
X138430728Y-93033804D01*
X138262242Y-93194532D01*
X138123246Y-93381350D01*
X138017714Y-93588916D01*
X137983188Y-93700106D01*
X137950247Y-93806193D01*
X137950246Y-93806199D01*
X137948663Y-93811296D01*
X137918068Y-94042132D01*
X137926803Y-94274822D01*
X137974620Y-94502713D01*
X138060150Y-94719290D01*
X138180949Y-94918359D01*
X138333561Y-95094230D01*
X138337687Y-95097613D01*
X138337691Y-95097617D01*
X138433915Y-95176515D01*
X138513624Y-95241872D01*
X138518260Y-95244511D01*
X138518263Y-95244513D01*
X138559252Y-95267845D01*
X138608558Y-95318927D01*
X138622420Y-95388558D01*
X138596437Y-95454629D01*
X138567287Y-95481867D01*
X138430728Y-95573804D01*
X138262242Y-95734532D01*
X138123246Y-95921350D01*
X138017714Y-96128916D01*
X137983188Y-96240106D01*
X137950247Y-96346193D01*
X137950246Y-96346199D01*
X137948663Y-96351296D01*
X137918068Y-96582132D01*
X137926803Y-96814822D01*
X137974620Y-97042713D01*
X138060150Y-97259290D01*
X138180949Y-97458359D01*
X138333561Y-97634230D01*
X138337687Y-97637613D01*
X138337691Y-97637617D01*
X138433915Y-97716515D01*
X138513624Y-97781872D01*
X138518260Y-97784511D01*
X138518263Y-97784513D01*
X138559252Y-97807845D01*
X138608558Y-97858927D01*
X138622420Y-97928558D01*
X138596437Y-97994629D01*
X138567287Y-98021867D01*
X138430728Y-98113804D01*
X138262242Y-98274532D01*
X138123246Y-98461350D01*
X138017714Y-98668916D01*
X137983188Y-98780106D01*
X137950247Y-98886193D01*
X137950246Y-98886199D01*
X137948663Y-98891296D01*
X137918068Y-99122132D01*
X137926803Y-99354822D01*
X137974620Y-99582713D01*
X138060150Y-99799290D01*
X138180949Y-99998359D01*
X138333561Y-100174230D01*
X138337687Y-100177613D01*
X138337691Y-100177617D01*
X138433915Y-100256515D01*
X138513624Y-100321872D01*
X138518260Y-100324511D01*
X138518263Y-100324513D01*
X138559252Y-100347845D01*
X138608558Y-100398927D01*
X138622420Y-100468558D01*
X138596437Y-100534629D01*
X138567287Y-100561867D01*
X138430728Y-100653804D01*
X138262242Y-100814532D01*
X138123246Y-101001350D01*
X138017714Y-101208916D01*
X137983189Y-101320106D01*
X137950247Y-101426193D01*
X137950246Y-101426199D01*
X137948663Y-101431296D01*
X137918068Y-101662132D01*
X137926803Y-101894822D01*
X137974620Y-102122713D01*
X137995141Y-102174676D01*
X138001559Y-102245379D01*
X137967044Y-102310051D01*
X126158227Y-114118868D01*
X126149941Y-114126408D01*
X126143462Y-114130520D01*
X126138037Y-114136297D01*
X126096837Y-114180171D01*
X126094082Y-114183013D01*
X126074345Y-114202750D01*
X126071865Y-114205947D01*
X126064162Y-114214967D01*
X126033894Y-114247199D01*
X126030075Y-114254145D01*
X126030073Y-114254148D01*
X126024132Y-114264954D01*
X126013281Y-114281473D01*
X126000866Y-114297479D01*
X125997721Y-114304748D01*
X125997718Y-114304752D01*
X125983306Y-114338057D01*
X125978089Y-114348707D01*
X125956785Y-114387460D01*
X125954814Y-114395135D01*
X125954814Y-114395136D01*
X125951747Y-114407082D01*
X125945343Y-114425786D01*
X125937299Y-114444375D01*
X125936060Y-114452198D01*
X125936057Y-114452208D01*
X125930381Y-114488044D01*
X125927975Y-114499664D01*
X125916980Y-114542490D01*
X125916980Y-114562744D01*
X125915429Y-114582454D01*
X125912260Y-114602463D01*
X114808000Y-114602463D01*
X114808000Y-56356667D01*
X123039704Y-56356667D01*
X123039928Y-56361333D01*
X123039928Y-56361338D01*
X123042057Y-56405660D01*
X123052155Y-56615881D01*
X123102783Y-56870407D01*
X123190477Y-57114654D01*
X123313309Y-57343256D01*
X123316104Y-57346999D01*
X123316106Y-57347002D01*
X123465790Y-57547453D01*
X123465795Y-57547459D01*
X123468582Y-57551191D01*
X123471891Y-57554471D01*
X123471896Y-57554477D01*
X123649567Y-57730604D01*
X123652884Y-57733892D01*
X123656646Y-57736650D01*
X123656649Y-57736653D01*
X123768963Y-57819005D01*
X123862166Y-57887344D01*
X123866309Y-57889524D01*
X123866311Y-57889525D01*
X124089167Y-58006775D01*
X124140140Y-58056194D01*
X124156500Y-58118283D01*
X124156500Y-61211233D01*
X124155973Y-61222416D01*
X124154298Y-61229909D01*
X124154547Y-61237835D01*
X124154547Y-61237836D01*
X124156438Y-61297986D01*
X124156500Y-61301945D01*
X124156500Y-61329856D01*
X124156997Y-61333790D01*
X124156997Y-61333791D01*
X124157005Y-61333856D01*
X124157938Y-61345693D01*
X124159327Y-61389889D01*
X124164978Y-61409339D01*
X124168987Y-61428700D01*
X124171526Y-61448797D01*
X124174445Y-61456168D01*
X124174445Y-61456170D01*
X124187804Y-61489912D01*
X124191649Y-61501142D01*
X124203982Y-61543593D01*
X124208015Y-61550412D01*
X124208017Y-61550417D01*
X124214293Y-61561028D01*
X124222988Y-61578776D01*
X124230448Y-61597617D01*
X124235110Y-61604033D01*
X124235110Y-61604034D01*
X124256436Y-61633387D01*
X124262952Y-61643307D01*
X124285458Y-61681362D01*
X124299779Y-61695683D01*
X124312619Y-61710716D01*
X124324528Y-61727107D01*
X124330634Y-61732158D01*
X124358605Y-61755298D01*
X124367384Y-61763288D01*
X126496348Y-63892253D01*
X126503888Y-63900539D01*
X126508000Y-63907018D01*
X126513777Y-63912443D01*
X126557651Y-63953643D01*
X126560493Y-63956398D01*
X126580230Y-63976135D01*
X126583427Y-63978615D01*
X126592447Y-63986318D01*
X126624679Y-64016586D01*
X126631625Y-64020405D01*
X126631628Y-64020407D01*
X126642434Y-64026348D01*
X126658953Y-64037199D01*
X126674959Y-64049614D01*
X126682228Y-64052759D01*
X126682232Y-64052762D01*
X126715537Y-64067174D01*
X126726187Y-64072391D01*
X126764940Y-64093695D01*
X126772615Y-64095666D01*
X126772616Y-64095666D01*
X126784562Y-64098733D01*
X126803267Y-64105137D01*
X126821855Y-64113181D01*
X126829678Y-64114420D01*
X126829688Y-64114423D01*
X126865524Y-64120099D01*
X126877144Y-64122505D01*
X126908959Y-64130673D01*
X126919970Y-64133500D01*
X126940224Y-64133500D01*
X126959934Y-64135051D01*
X126979943Y-64138220D01*
X126987835Y-64137474D01*
X127006580Y-64135702D01*
X127023962Y-64134059D01*
X127035819Y-64133500D01*
X142161233Y-64133500D01*
X142172416Y-64134027D01*
X142179909Y-64135702D01*
X142187835Y-64135453D01*
X142187836Y-64135453D01*
X142247986Y-64133562D01*
X142251945Y-64133500D01*
X142279856Y-64133500D01*
X142283791Y-64133003D01*
X142283856Y-64132995D01*
X142295693Y-64132062D01*
X142327951Y-64131048D01*
X142331970Y-64130922D01*
X142339889Y-64130673D01*
X142359343Y-64125021D01*
X142378700Y-64121013D01*
X142390930Y-64119468D01*
X142390931Y-64119468D01*
X142398797Y-64118474D01*
X142406168Y-64115555D01*
X142406170Y-64115555D01*
X142439912Y-64102196D01*
X142451142Y-64098351D01*
X142485983Y-64088229D01*
X142485984Y-64088229D01*
X142493593Y-64086018D01*
X142500412Y-64081985D01*
X142500417Y-64081983D01*
X142511028Y-64075707D01*
X142528776Y-64067012D01*
X142547617Y-64059552D01*
X142583387Y-64033564D01*
X142593307Y-64027048D01*
X142624535Y-64008580D01*
X142624538Y-64008578D01*
X142631362Y-64004542D01*
X142645683Y-63990221D01*
X142660717Y-63977380D01*
X142670694Y-63970131D01*
X142677107Y-63965472D01*
X142705298Y-63931395D01*
X142713288Y-63922616D01*
X145172247Y-61463657D01*
X145180537Y-61456113D01*
X145187018Y-61452000D01*
X145233659Y-61402332D01*
X145236413Y-61399491D01*
X145256134Y-61379770D01*
X145258612Y-61376575D01*
X145266318Y-61367553D01*
X145291158Y-61341101D01*
X145296586Y-61335321D01*
X145306346Y-61317568D01*
X145317199Y-61301045D01*
X145324753Y-61291306D01*
X145329613Y-61285041D01*
X145347176Y-61244457D01*
X145352383Y-61233827D01*
X145373695Y-61195060D01*
X145375666Y-61187383D01*
X145375668Y-61187378D01*
X145378732Y-61175442D01*
X145385138Y-61156730D01*
X145390034Y-61145417D01*
X145393181Y-61138145D01*
X145400097Y-61094481D01*
X145402504Y-61082860D01*
X145411528Y-61047711D01*
X145411528Y-61047710D01*
X145413500Y-61040030D01*
X145413500Y-61019769D01*
X145415051Y-61000058D01*
X145416979Y-60987885D01*
X145418219Y-60980057D01*
X145414059Y-60936046D01*
X145413500Y-60924189D01*
X145413500Y-54620427D01*
X145433502Y-54552306D01*
X145474618Y-54512550D01*
X145477994Y-54510896D01*
X145659860Y-54381173D01*
X145818096Y-54223489D01*
X145877594Y-54140689D01*
X145945435Y-54046277D01*
X145948453Y-54042077D01*
X146047430Y-53841811D01*
X146112370Y-53628069D01*
X146141529Y-53406590D01*
X146143156Y-53340000D01*
X146140418Y-53306695D01*
X153577251Y-53306695D01*
X153577548Y-53311848D01*
X153577548Y-53311851D01*
X153583011Y-53406590D01*
X153590110Y-53529715D01*
X153591247Y-53534761D01*
X153591248Y-53534767D01*
X153611119Y-53622939D01*
X153639222Y-53747639D01*
X153723266Y-53954616D01*
X153839987Y-54145088D01*
X153986250Y-54313938D01*
X154158126Y-54456632D01*
X154351000Y-54569338D01*
X154559692Y-54649030D01*
X154564760Y-54650061D01*
X154564763Y-54650062D01*
X154643244Y-54666029D01*
X154778597Y-54693567D01*
X154783772Y-54693757D01*
X154783774Y-54693757D01*
X154996673Y-54701564D01*
X154996677Y-54701564D01*
X155001837Y-54701753D01*
X155006957Y-54701097D01*
X155006959Y-54701097D01*
X155218288Y-54674025D01*
X155218289Y-54674025D01*
X155223416Y-54673368D01*
X155247878Y-54666029D01*
X155432429Y-54610661D01*
X155432434Y-54610659D01*
X155437384Y-54609174D01*
X155637994Y-54510896D01*
X155819860Y-54381173D01*
X155978096Y-54223489D01*
X156037594Y-54140689D01*
X156105435Y-54046277D01*
X156108453Y-54042077D01*
X156207430Y-53841811D01*
X156272370Y-53628069D01*
X156301529Y-53406590D01*
X156303156Y-53340000D01*
X156284852Y-53117361D01*
X156230431Y-52900702D01*
X156141354Y-52695840D01*
X156020014Y-52508277D01*
X156016540Y-52504459D01*
X156016533Y-52504450D01*
X155872435Y-52346088D01*
X155841383Y-52282242D01*
X155849779Y-52211744D01*
X155894956Y-52156976D01*
X155921400Y-52143307D01*
X156028052Y-52103325D01*
X156043649Y-52094786D01*
X156145724Y-52018285D01*
X156158285Y-52005724D01*
X156234786Y-51903649D01*
X156243324Y-51888054D01*
X156288478Y-51767606D01*
X156292105Y-51752351D01*
X156297631Y-51701486D01*
X156298000Y-51694672D01*
X156298000Y-51072115D01*
X156293525Y-51056876D01*
X156292135Y-51055671D01*
X156284452Y-51054000D01*
X153600116Y-51054000D01*
X153584877Y-51058475D01*
X153583672Y-51059865D01*
X153582001Y-51067548D01*
X153582001Y-51694669D01*
X153582371Y-51701490D01*
X153587895Y-51752352D01*
X153591521Y-51767604D01*
X153636676Y-51888054D01*
X153645214Y-51903649D01*
X153721715Y-52005724D01*
X153734276Y-52018285D01*
X153836351Y-52094786D01*
X153851946Y-52103324D01*
X153960827Y-52144142D01*
X154017591Y-52186784D01*
X154042291Y-52253345D01*
X154027083Y-52322694D01*
X154007691Y-52349175D01*
X153884200Y-52478401D01*
X153880629Y-52482138D01*
X153754743Y-52666680D01*
X153660688Y-52869305D01*
X153600989Y-53084570D01*
X153577251Y-53306695D01*
X146140418Y-53306695D01*
X146124852Y-53117361D01*
X146070431Y-52900702D01*
X145981354Y-52695840D01*
X145860014Y-52508277D01*
X145856540Y-52504459D01*
X145856533Y-52504450D01*
X145712435Y-52346088D01*
X145681383Y-52282242D01*
X145689779Y-52211744D01*
X145734956Y-52156976D01*
X145761400Y-52143307D01*
X145868052Y-52103325D01*
X145883649Y-52094786D01*
X145985724Y-52018285D01*
X145998285Y-52005724D01*
X146074786Y-51903649D01*
X146083324Y-51888054D01*
X146128478Y-51767606D01*
X146132105Y-51752351D01*
X146137631Y-51701486D01*
X146138000Y-51694672D01*
X146138000Y-51072115D01*
X146133525Y-51056876D01*
X146132135Y-51055671D01*
X146124452Y-51054000D01*
X143440116Y-51054000D01*
X143424877Y-51058475D01*
X143423672Y-51059865D01*
X143422001Y-51067548D01*
X143422001Y-51694669D01*
X143422371Y-51701490D01*
X143427895Y-51752352D01*
X143431521Y-51767604D01*
X143476676Y-51888054D01*
X143485214Y-51903649D01*
X143561715Y-52005724D01*
X143574276Y-52018285D01*
X143676351Y-52094786D01*
X143691946Y-52103324D01*
X143800827Y-52144142D01*
X143857591Y-52186784D01*
X143882291Y-52253345D01*
X143867083Y-52322694D01*
X143847691Y-52349175D01*
X143724200Y-52478401D01*
X143720629Y-52482138D01*
X143594743Y-52666680D01*
X143500688Y-52869305D01*
X143440989Y-53084570D01*
X143417251Y-53306695D01*
X143417548Y-53311848D01*
X143417548Y-53311851D01*
X143423011Y-53406590D01*
X143430110Y-53529715D01*
X143431247Y-53534761D01*
X143431248Y-53534767D01*
X143451119Y-53622939D01*
X143479222Y-53747639D01*
X143563266Y-53954616D01*
X143679987Y-54145088D01*
X143826250Y-54313938D01*
X143998126Y-54456632D01*
X144002593Y-54459242D01*
X144084070Y-54506853D01*
X144132794Y-54558491D01*
X144146500Y-54615641D01*
X144146500Y-60645405D01*
X144126498Y-60713526D01*
X144109595Y-60734500D01*
X142014500Y-62829595D01*
X141952188Y-62863621D01*
X141925405Y-62866500D01*
X127314594Y-62866500D01*
X127246473Y-62846498D01*
X127225499Y-62829595D01*
X125460405Y-61064500D01*
X125426379Y-61002188D01*
X125423500Y-60975405D01*
X125423500Y-58113742D01*
X125443502Y-58045621D01*
X125499762Y-57997974D01*
X125594180Y-57957409D01*
X125594182Y-57957408D01*
X125598474Y-57955564D01*
X125723336Y-57878297D01*
X125815178Y-57821464D01*
X125815182Y-57821461D01*
X125819151Y-57819005D01*
X125916429Y-57736653D01*
X126013653Y-57654346D01*
X126013654Y-57654345D01*
X126017219Y-57651327D01*
X126188328Y-57456216D01*
X126328717Y-57237955D01*
X126435304Y-57001342D01*
X126505746Y-56751573D01*
X126538496Y-56494135D01*
X126540896Y-56402500D01*
X126537490Y-56356667D01*
X127789704Y-56356667D01*
X127789928Y-56361333D01*
X127789928Y-56361338D01*
X127792057Y-56405660D01*
X127802155Y-56615881D01*
X127852783Y-56870407D01*
X127940477Y-57114654D01*
X128063309Y-57343256D01*
X128066104Y-57346999D01*
X128066106Y-57347002D01*
X128215790Y-57547453D01*
X128215795Y-57547459D01*
X128218582Y-57551191D01*
X128221891Y-57554471D01*
X128221896Y-57554477D01*
X128399567Y-57730604D01*
X128402884Y-57733892D01*
X128406646Y-57736650D01*
X128406649Y-57736653D01*
X128518963Y-57819005D01*
X128612166Y-57887344D01*
X128616309Y-57889524D01*
X128616311Y-57889525D01*
X128837682Y-58005994D01*
X128837687Y-58005996D01*
X128841832Y-58008177D01*
X128846255Y-58009722D01*
X128846256Y-58009722D01*
X129077898Y-58090615D01*
X129086835Y-58093736D01*
X129091428Y-58094608D01*
X129337204Y-58141270D01*
X129337207Y-58141270D01*
X129341793Y-58142141D01*
X129464978Y-58146981D01*
X129596437Y-58152146D01*
X129596442Y-58152146D01*
X129601105Y-58152329D01*
X129697748Y-58141745D01*
X129854422Y-58124587D01*
X129854428Y-58124586D01*
X129859075Y-58124077D01*
X129863599Y-58122886D01*
X130105513Y-58059196D01*
X130105516Y-58059195D01*
X130110036Y-58058005D01*
X130138861Y-58045621D01*
X130344180Y-57957409D01*
X130344182Y-57957408D01*
X130348474Y-57955564D01*
X130473336Y-57878297D01*
X130565178Y-57821464D01*
X130565182Y-57821461D01*
X130569151Y-57819005D01*
X130666429Y-57736653D01*
X130723741Y-57688134D01*
X132544000Y-57688134D01*
X132550755Y-57750316D01*
X132601885Y-57886705D01*
X132689239Y-58003261D01*
X132805795Y-58090615D01*
X132942184Y-58141745D01*
X133004366Y-58148500D01*
X135575634Y-58148500D01*
X135637816Y-58141745D01*
X135774205Y-58090615D01*
X135890761Y-58003261D01*
X135978115Y-57886705D01*
X136029245Y-57750316D01*
X136036000Y-57688134D01*
X136036000Y-55116866D01*
X136029245Y-55054684D01*
X135978115Y-54918295D01*
X135890761Y-54801739D01*
X135774205Y-54714385D01*
X135637816Y-54663255D01*
X135575634Y-54656500D01*
X133004366Y-54656500D01*
X132942184Y-54663255D01*
X132805795Y-54714385D01*
X132689239Y-54801739D01*
X132601885Y-54918295D01*
X132550755Y-55054684D01*
X132544000Y-55116866D01*
X132544000Y-57688134D01*
X130723741Y-57688134D01*
X130763653Y-57654346D01*
X130763654Y-57654345D01*
X130767219Y-57651327D01*
X130938328Y-57456216D01*
X131078717Y-57237955D01*
X131185304Y-57001342D01*
X131255746Y-56751573D01*
X131288496Y-56494135D01*
X131290896Y-56402500D01*
X131271664Y-56143701D01*
X131214390Y-55890588D01*
X131120333Y-55648720D01*
X131118015Y-55644664D01*
X130993878Y-55427468D01*
X130993876Y-55427466D01*
X130991559Y-55423411D01*
X130830896Y-55219612D01*
X130641875Y-55041798D01*
X130428647Y-54893877D01*
X130256370Y-54808919D01*
X130200083Y-54781161D01*
X130200079Y-54781160D01*
X130195897Y-54779097D01*
X129948739Y-54699981D01*
X129807884Y-54677042D01*
X129697213Y-54659018D01*
X129697212Y-54659018D01*
X129692601Y-54658267D01*
X129562855Y-54656568D01*
X129437787Y-54654931D01*
X129437784Y-54654931D01*
X129433110Y-54654870D01*
X129175968Y-54689865D01*
X129171482Y-54691173D01*
X129171480Y-54691173D01*
X129136379Y-54701404D01*
X128926823Y-54762484D01*
X128922571Y-54764444D01*
X128922569Y-54764445D01*
X128890787Y-54779097D01*
X128691149Y-54871132D01*
X128687240Y-54873695D01*
X128478035Y-55010855D01*
X128478030Y-55010859D01*
X128474122Y-55013421D01*
X128280511Y-55186225D01*
X128114568Y-55385750D01*
X127979940Y-55607610D01*
X127879584Y-55846933D01*
X127815704Y-56098460D01*
X127789704Y-56356667D01*
X126537490Y-56356667D01*
X126521664Y-56143701D01*
X126464390Y-55890588D01*
X126370333Y-55648720D01*
X126368015Y-55644664D01*
X126243878Y-55427468D01*
X126243876Y-55427466D01*
X126241559Y-55423411D01*
X126080896Y-55219612D01*
X125891875Y-55041798D01*
X125678647Y-54893877D01*
X125506370Y-54808919D01*
X125450083Y-54781161D01*
X125450079Y-54781160D01*
X125445897Y-54779097D01*
X125198739Y-54699981D01*
X125057884Y-54677042D01*
X124947213Y-54659018D01*
X124947212Y-54659018D01*
X124942601Y-54658267D01*
X124812855Y-54656568D01*
X124687787Y-54654931D01*
X124687784Y-54654931D01*
X124683110Y-54654870D01*
X124425968Y-54689865D01*
X124421482Y-54691173D01*
X124421480Y-54691173D01*
X124386379Y-54701404D01*
X124176823Y-54762484D01*
X124172571Y-54764444D01*
X124172569Y-54764445D01*
X124140787Y-54779097D01*
X123941149Y-54871132D01*
X123937240Y-54873695D01*
X123728035Y-55010855D01*
X123728030Y-55010859D01*
X123724122Y-55013421D01*
X123530511Y-55186225D01*
X123364568Y-55385750D01*
X123229940Y-55607610D01*
X123129584Y-55846933D01*
X123065704Y-56098460D01*
X123039704Y-56356667D01*
X114808000Y-56356667D01*
X114808000Y-50527885D01*
X143422000Y-50527885D01*
X143426475Y-50543124D01*
X143427865Y-50544329D01*
X143435548Y-50546000D01*
X144507885Y-50546000D01*
X144523124Y-50541525D01*
X144524329Y-50540135D01*
X144526000Y-50532452D01*
X144526000Y-50527885D01*
X145034000Y-50527885D01*
X145038475Y-50543124D01*
X145039865Y-50544329D01*
X145047548Y-50546000D01*
X146119884Y-50546000D01*
X146135123Y-50541525D01*
X146136328Y-50540135D01*
X146137999Y-50532452D01*
X146137999Y-50527885D01*
X153582000Y-50527885D01*
X153586475Y-50543124D01*
X153587865Y-50544329D01*
X153595548Y-50546000D01*
X154667885Y-50546000D01*
X154683124Y-50541525D01*
X154684329Y-50540135D01*
X154686000Y-50532452D01*
X154686000Y-50527885D01*
X155194000Y-50527885D01*
X155198475Y-50543124D01*
X155199865Y-50544329D01*
X155207548Y-50546000D01*
X156279884Y-50546000D01*
X156295123Y-50541525D01*
X156296328Y-50540135D01*
X156297999Y-50532452D01*
X156297999Y-49905331D01*
X156297629Y-49898510D01*
X156292105Y-49847648D01*
X156288479Y-49832396D01*
X156243324Y-49711946D01*
X156234786Y-49696351D01*
X156158285Y-49594276D01*
X156145724Y-49581715D01*
X156043649Y-49505214D01*
X156028054Y-49496676D01*
X155907606Y-49451522D01*
X155892351Y-49447895D01*
X155841486Y-49442369D01*
X155834672Y-49442000D01*
X155212115Y-49442000D01*
X155196876Y-49446475D01*
X155195671Y-49447865D01*
X155194000Y-49455548D01*
X155194000Y-50527885D01*
X154686000Y-50527885D01*
X154686000Y-49460116D01*
X154681525Y-49444877D01*
X154680135Y-49443672D01*
X154672452Y-49442001D01*
X154045331Y-49442001D01*
X154038510Y-49442371D01*
X153987648Y-49447895D01*
X153972396Y-49451521D01*
X153851946Y-49496676D01*
X153836351Y-49505214D01*
X153734276Y-49581715D01*
X153721715Y-49594276D01*
X153645214Y-49696351D01*
X153636676Y-49711946D01*
X153591522Y-49832394D01*
X153587895Y-49847649D01*
X153582369Y-49898514D01*
X153582000Y-49905328D01*
X153582000Y-50527885D01*
X146137999Y-50527885D01*
X146137999Y-49905331D01*
X146137629Y-49898510D01*
X146132105Y-49847648D01*
X146128479Y-49832396D01*
X146083324Y-49711946D01*
X146074786Y-49696351D01*
X145998285Y-49594276D01*
X145985724Y-49581715D01*
X145883649Y-49505214D01*
X145868054Y-49496676D01*
X145747606Y-49451522D01*
X145732351Y-49447895D01*
X145681486Y-49442369D01*
X145674672Y-49442000D01*
X145052115Y-49442000D01*
X145036876Y-49446475D01*
X145035671Y-49447865D01*
X145034000Y-49455548D01*
X145034000Y-50527885D01*
X144526000Y-50527885D01*
X144526000Y-49460116D01*
X144521525Y-49444877D01*
X144520135Y-49443672D01*
X144512452Y-49442001D01*
X143885331Y-49442001D01*
X143878510Y-49442371D01*
X143827648Y-49447895D01*
X143812396Y-49451521D01*
X143691946Y-49496676D01*
X143676351Y-49505214D01*
X143574276Y-49581715D01*
X143561715Y-49594276D01*
X143485214Y-49696351D01*
X143476676Y-49711946D01*
X143431522Y-49832394D01*
X143427895Y-49847649D01*
X143422369Y-49898514D01*
X143422000Y-49905328D01*
X143422000Y-50527885D01*
X114808000Y-50527885D01*
X114808000Y-48276214D01*
X114822677Y-48226230D01*
X114822427Y-48225739D01*
X115045271Y-48225739D01*
X115054896Y-48240716D01*
X115059855Y-48270169D01*
X115069807Y-48477352D01*
X115121378Y-48736616D01*
X115122957Y-48741014D01*
X115122959Y-48741021D01*
X115209121Y-48981001D01*
X115210704Y-48985410D01*
X115212921Y-48989536D01*
X115280301Y-49114936D01*
X115335822Y-49218267D01*
X115338617Y-49222011D01*
X115338619Y-49222013D01*
X115421743Y-49333329D01*
X115493985Y-49430073D01*
X115497292Y-49433351D01*
X115497297Y-49433357D01*
X115596879Y-49532073D01*
X115681718Y-49616174D01*
X115894896Y-49772483D01*
X115899031Y-49774659D01*
X115899035Y-49774661D01*
X116008768Y-49832394D01*
X116128836Y-49895565D01*
X116378400Y-49982716D01*
X116382993Y-49983588D01*
X116633515Y-50031151D01*
X116633518Y-50031151D01*
X116638104Y-50032022D01*
X116770173Y-50037211D01*
X116897575Y-50042218D01*
X116897581Y-50042218D01*
X116902243Y-50042401D01*
X117165015Y-50013622D01*
X117169526Y-50012434D01*
X117169528Y-50012434D01*
X117416124Y-49947511D01*
X117416126Y-49947510D01*
X117420647Y-49946320D01*
X117424944Y-49944474D01*
X117659229Y-49843817D01*
X117659231Y-49843816D01*
X117663523Y-49841972D01*
X117888307Y-49702871D01*
X117904788Y-49688919D01*
X118086496Y-49535093D01*
X118086498Y-49535091D01*
X118090063Y-49532073D01*
X118264356Y-49333329D01*
X118338367Y-49218267D01*
X118404831Y-49114936D01*
X118407359Y-49111006D01*
X118515930Y-48869988D01*
X118587683Y-48615570D01*
X118621043Y-48353340D01*
X118623487Y-48260000D01*
X118622054Y-48240716D01*
X118620018Y-48213314D01*
X160777124Y-48213314D01*
X160777348Y-48217980D01*
X160777348Y-48217985D01*
X160779518Y-48263160D01*
X160789807Y-48477352D01*
X160841378Y-48736616D01*
X160842957Y-48741014D01*
X160842959Y-48741021D01*
X160929121Y-48981001D01*
X160930704Y-48985410D01*
X160932921Y-48989536D01*
X161000301Y-49114936D01*
X161055822Y-49218267D01*
X161058617Y-49222011D01*
X161058619Y-49222013D01*
X161141743Y-49333329D01*
X161213985Y-49430073D01*
X161217292Y-49433351D01*
X161217297Y-49433357D01*
X161316879Y-49532073D01*
X161401718Y-49616174D01*
X161614896Y-49772483D01*
X161619031Y-49774659D01*
X161619035Y-49774661D01*
X161728768Y-49832394D01*
X161848836Y-49895565D01*
X162098400Y-49982716D01*
X162102993Y-49983588D01*
X162353515Y-50031151D01*
X162353518Y-50031151D01*
X162358104Y-50032022D01*
X162490173Y-50037211D01*
X162617575Y-50042218D01*
X162617581Y-50042218D01*
X162622243Y-50042401D01*
X162885015Y-50013622D01*
X162889526Y-50012434D01*
X162889528Y-50012434D01*
X163136124Y-49947511D01*
X163136126Y-49947510D01*
X163140647Y-49946320D01*
X163144944Y-49944474D01*
X163379229Y-49843817D01*
X163379231Y-49843816D01*
X163383523Y-49841972D01*
X163608307Y-49702871D01*
X163624788Y-49688919D01*
X163806496Y-49535093D01*
X163806498Y-49535091D01*
X163810063Y-49532073D01*
X163984356Y-49333329D01*
X164058367Y-49218267D01*
X164124831Y-49114936D01*
X164127359Y-49111006D01*
X164235930Y-48869988D01*
X164307683Y-48615570D01*
X164341043Y-48353340D01*
X164343487Y-48260000D01*
X164342054Y-48240716D01*
X164324243Y-48001036D01*
X164324242Y-48001032D01*
X164323897Y-47996384D01*
X164265557Y-47738559D01*
X164250028Y-47698626D01*
X164171442Y-47496542D01*
X164171441Y-47496540D01*
X164169749Y-47492189D01*
X164143535Y-47446323D01*
X164040897Y-47266745D01*
X164038578Y-47262687D01*
X163874925Y-47055094D01*
X163682385Y-46873970D01*
X163645212Y-46848182D01*
X163469026Y-46725958D01*
X163469021Y-46725955D01*
X163465188Y-46723296D01*
X163460997Y-46721229D01*
X163232294Y-46608445D01*
X163232291Y-46608444D01*
X163228106Y-46606380D01*
X163171150Y-46588148D01*
X162980792Y-46527214D01*
X162980794Y-46527214D01*
X162976347Y-46525791D01*
X162833825Y-46502580D01*
X162720053Y-46484051D01*
X162720052Y-46484051D01*
X162715441Y-46483300D01*
X162462504Y-46479989D01*
X162460417Y-46479346D01*
X162458026Y-46479765D01*
X162455799Y-46479901D01*
X162451121Y-46479840D01*
X162189192Y-46515486D01*
X162184702Y-46516795D01*
X162184696Y-46516796D01*
X162076732Y-46548265D01*
X161935410Y-46589457D01*
X161931163Y-46591415D01*
X161931160Y-46591416D01*
X161840950Y-46633004D01*
X161695348Y-46700127D01*
X161691439Y-46702690D01*
X161478195Y-46842499D01*
X161478190Y-46842503D01*
X161474282Y-46845065D01*
X161277067Y-47021086D01*
X161108036Y-47224324D01*
X160970901Y-47450314D01*
X160868677Y-47694091D01*
X160867526Y-47698623D01*
X160867525Y-47698626D01*
X160856226Y-47743116D01*
X160803608Y-47950301D01*
X160777124Y-48213314D01*
X118620018Y-48213314D01*
X118604243Y-48001036D01*
X118604242Y-48001032D01*
X118603897Y-47996384D01*
X118545557Y-47738559D01*
X118530028Y-47698626D01*
X118451442Y-47496542D01*
X118451441Y-47496540D01*
X118449749Y-47492189D01*
X118423535Y-47446323D01*
X118320897Y-47266745D01*
X118318578Y-47262687D01*
X118154925Y-47055094D01*
X117962385Y-46873970D01*
X117925212Y-46848182D01*
X117749026Y-46725958D01*
X117749021Y-46725955D01*
X117745188Y-46723296D01*
X117740997Y-46721229D01*
X117512294Y-46608445D01*
X117512291Y-46608444D01*
X117508106Y-46606380D01*
X117451150Y-46588148D01*
X117260792Y-46527214D01*
X117260794Y-46527214D01*
X117256347Y-46525791D01*
X117113825Y-46502580D01*
X117000053Y-46484051D01*
X117000052Y-46484051D01*
X116995441Y-46483300D01*
X116742504Y-46479989D01*
X116740417Y-46479346D01*
X116738026Y-46479765D01*
X116735799Y-46479901D01*
X116731121Y-46479840D01*
X116469192Y-46515486D01*
X116464702Y-46516795D01*
X116464696Y-46516796D01*
X116356732Y-46548265D01*
X116215410Y-46589457D01*
X116211163Y-46591415D01*
X116211160Y-46591416D01*
X116120950Y-46633004D01*
X115975348Y-46700127D01*
X115971439Y-46702690D01*
X115758195Y-46842499D01*
X115758190Y-46842503D01*
X115754282Y-46845065D01*
X115557067Y-47021086D01*
X115388036Y-47224324D01*
X115250901Y-47450314D01*
X115148677Y-47694091D01*
X115147526Y-47698623D01*
X115147525Y-47698626D01*
X115136226Y-47743116D01*
X115083608Y-47950301D01*
X115083139Y-47954959D01*
X115059366Y-48191049D01*
X115045271Y-48225739D01*
X114822427Y-48225739D01*
X114810156Y-48201632D01*
X114808000Y-48178425D01*
X114808000Y-46354000D01*
X114828002Y-46285879D01*
X114881658Y-46239386D01*
X114934000Y-46228000D01*
X116730334Y-46228000D01*
X116734733Y-46229292D01*
G37*
%TD.AperFunction*%
%TD*%
M02*
