%TF.GenerationSoftware,KiCad,Pcbnew,(6.0.1)*%
%TF.CreationDate,2022-06-06T15:56:05+01:00*%
%TF.ProjectId,psp-bluetooth,7073702d-626c-4756-9574-6f6f74682e6b,rev?*%
%TF.SameCoordinates,Original*%
%TF.FileFunction,Soldermask,Top*%
%TF.FilePolarity,Negative*%
%FSLAX46Y46*%
G04 Gerber Fmt 4.6, Leading zero omitted, Abs format (unit mm)*
G04 Created by KiCad (PCBNEW (6.0.1)) date 2022-06-06 15:56:05*
%MOMM*%
%LPD*%
G01*
G04 APERTURE LIST*
%ADD10O,2.032000X1.727200*%
%ADD11C,2.540000*%
%ADD12R,2.475000X2.475000*%
%ADD13C,2.475000*%
%ADD14R,1.600000X1.600000*%
%ADD15O,1.600000X1.600000*%
%ADD16R,1.700000X1.700000*%
%ADD17O,1.700000X1.700000*%
%ADD18R,1.300000X0.300000*%
%ADD19R,2.200000X1.800000*%
G04 APERTURE END LIST*
D10*
%TO.C,P1*%
X139446000Y-71247000D03*
X139446000Y-73787000D03*
X139446000Y-76327000D03*
X139446000Y-78867000D03*
X139446000Y-81407000D03*
X139446000Y-83947000D03*
X139446000Y-86487000D03*
X139446000Y-89027000D03*
X139446000Y-91567000D03*
X139446000Y-94107000D03*
X139446000Y-96647000D03*
X139446000Y-99187000D03*
X139446000Y-101727000D03*
X139446000Y-104267000D03*
X139446000Y-106807000D03*
%TD*%
%TO.C,P2*%
X154686000Y-71247000D03*
X154686000Y-73787000D03*
X154686000Y-76327000D03*
X154686000Y-78867000D03*
X154686000Y-81407000D03*
X154686000Y-83947000D03*
X154686000Y-86487000D03*
X154686000Y-89027000D03*
X154686000Y-91567000D03*
X154686000Y-94107000D03*
X154686000Y-96647000D03*
X154686000Y-99187000D03*
X154686000Y-101727000D03*
X154686000Y-104267000D03*
X154686000Y-106807000D03*
%TD*%
D11*
%TO.C,P3*%
X116840000Y-48260000D03*
%TD*%
%TO.C,P4*%
X116840000Y-127000000D03*
%TD*%
%TO.C,P5*%
X162560000Y-127000000D03*
%TD*%
%TO.C,P6*%
X162560000Y-48260000D03*
%TD*%
D12*
%TO.C,S1*%
X134290000Y-56402500D03*
D13*
X129540000Y-56402500D03*
X124790000Y-56402500D03*
%TD*%
D14*
%TO.C,U1*%
X134615000Y-125720000D03*
D15*
X137155000Y-125720000D03*
X139695000Y-125720000D03*
X142235000Y-125720000D03*
X144775000Y-125720000D03*
X147315000Y-125720000D03*
X149855000Y-125720000D03*
X149855000Y-118100000D03*
X147315000Y-118100000D03*
X144775000Y-118100000D03*
X142235000Y-118100000D03*
X139695000Y-118100000D03*
X137155000Y-118100000D03*
X134615000Y-118100000D03*
%TD*%
D16*
%TO.C,J7*%
X129540000Y-71120000D03*
D17*
X129540000Y-73660000D03*
%TD*%
D18*
%TO.C,J3*%
X163250000Y-84530000D03*
X163250000Y-84030000D03*
X163250000Y-83530000D03*
X163250000Y-83030000D03*
X163250000Y-82530000D03*
X163250000Y-82030000D03*
X163250000Y-81530000D03*
X163250000Y-81030000D03*
X163250000Y-80530000D03*
X163250000Y-80030000D03*
X163250000Y-79530000D03*
X163250000Y-79030000D03*
X163250000Y-78530000D03*
X163250000Y-78030000D03*
D19*
X166500000Y-86430000D03*
X166500000Y-76130000D03*
%TD*%
D16*
%TO.C,J4*%
X157480000Y-127000000D03*
D17*
X157480000Y-124460000D03*
X157480000Y-121920000D03*
X157480000Y-119380000D03*
%TD*%
D16*
%TO.C,J5*%
X154940000Y-50800000D03*
D17*
X154940000Y-53340000D03*
%TD*%
D18*
%TO.C,J1*%
X123770000Y-109510000D03*
X123770000Y-110010000D03*
X123770000Y-110510000D03*
X123770000Y-111010000D03*
X123770000Y-111510000D03*
X123770000Y-112010000D03*
X123770000Y-112510000D03*
X123770000Y-113010000D03*
X123770000Y-113510000D03*
X123770000Y-114010000D03*
D19*
X120520000Y-107610000D03*
X120520000Y-115910000D03*
%TD*%
D16*
%TO.C,J8*%
X154940000Y-60960000D03*
D17*
X154940000Y-63500000D03*
%TD*%
D16*
%TO.C,J6*%
X144780000Y-50800000D03*
D17*
X144780000Y-53340000D03*
%TD*%
D18*
%TO.C,J2*%
X163250000Y-98770000D03*
X163250000Y-98270000D03*
X163250000Y-97770000D03*
X163250000Y-97270000D03*
X163250000Y-96770000D03*
X163250000Y-96270000D03*
X163250000Y-95770000D03*
X163250000Y-95270000D03*
X163250000Y-94770000D03*
X163250000Y-94270000D03*
D19*
X166500000Y-92370000D03*
X166500000Y-100670000D03*
%TD*%
M02*
