%TF.GenerationSoftware,KiCad,Pcbnew,(6.0.1)*%
%TF.CreationDate,2022-06-06T15:56:05+01:00*%
%TF.ProjectId,psp-bluetooth,7073702d-626c-4756-9574-6f6f74682e6b,rev?*%
%TF.SameCoordinates,Original*%
%TF.FileFunction,Copper,L1,Top*%
%TF.FilePolarity,Positive*%
%FSLAX46Y46*%
G04 Gerber Fmt 4.6, Leading zero omitted, Abs format (unit mm)*
G04 Created by KiCad (PCBNEW (6.0.1)) date 2022-06-06 15:56:05*
%MOMM*%
%LPD*%
G01*
G04 APERTURE LIST*
%TA.AperFunction,ComponentPad*%
%ADD10O,2.032000X1.727200*%
%TD*%
%TA.AperFunction,ComponentPad*%
%ADD11C,2.540000*%
%TD*%
%TA.AperFunction,ComponentPad*%
%ADD12R,2.475000X2.475000*%
%TD*%
%TA.AperFunction,ComponentPad*%
%ADD13C,2.475000*%
%TD*%
%TA.AperFunction,ComponentPad*%
%ADD14R,1.600000X1.600000*%
%TD*%
%TA.AperFunction,ComponentPad*%
%ADD15O,1.600000X1.600000*%
%TD*%
%TA.AperFunction,ComponentPad*%
%ADD16R,1.700000X1.700000*%
%TD*%
%TA.AperFunction,ComponentPad*%
%ADD17O,1.700000X1.700000*%
%TD*%
%TA.AperFunction,SMDPad,CuDef*%
%ADD18R,1.300000X0.300000*%
%TD*%
%TA.AperFunction,SMDPad,CuDef*%
%ADD19R,2.200000X1.800000*%
%TD*%
%TA.AperFunction,Conductor*%
%ADD20C,0.250000*%
%TD*%
G04 APERTURE END LIST*
D10*
%TO.P,P1,1,Pin_1*%
%TO.N,/1(Tx)*%
X139446000Y-71247000D03*
%TO.P,P1,2,Pin_2*%
%TO.N,/0(Rx)*%
X139446000Y-73787000D03*
%TO.P,P1,3,Pin_3*%
%TO.N,/Reset*%
X139446000Y-76327000D03*
%TO.P,P1,4,Pin_4*%
%TO.N,GND*%
X139446000Y-78867000D03*
%TO.P,P1,5,Pin_5*%
%TO.N,/2*%
X139446000Y-81407000D03*
%TO.P,P1,6,Pin_6*%
%TO.N,/3(\u002A\u002A)*%
X139446000Y-83947000D03*
%TO.P,P1,7,Pin_7*%
%TO.N,/4*%
X139446000Y-86487000D03*
%TO.P,P1,8,Pin_8*%
%TO.N,/5(\u002A\u002A)*%
X139446000Y-89027000D03*
%TO.P,P1,9,Pin_9*%
%TO.N,/6(\u002A\u002A)*%
X139446000Y-91567000D03*
%TO.P,P1,10,Pin_10*%
%TO.N,/7*%
X139446000Y-94107000D03*
%TO.P,P1,11,Pin_11*%
%TO.N,/8*%
X139446000Y-96647000D03*
%TO.P,P1,12,Pin_12*%
%TO.N,/9(\u002A\u002A)*%
X139446000Y-99187000D03*
%TO.P,P1,13,Pin_13*%
%TO.N,/10(\u002A\u002A{slash}SS)*%
X139446000Y-101727000D03*
%TO.P,P1,14,Pin_14*%
%TO.N,/11(\u002A\u002A{slash}MOSI)*%
X139446000Y-104267000D03*
%TO.P,P1,15,Pin_15*%
%TO.N,/12(MISO)*%
X139446000Y-106807000D03*
%TD*%
%TO.P,P2,1,Pin_1*%
%TO.N,VIN*%
X154686000Y-71247000D03*
%TO.P,P2,2,Pin_2*%
%TO.N,GND*%
X154686000Y-73787000D03*
%TO.P,P2,3,Pin_3*%
%TO.N,/Reset*%
X154686000Y-76327000D03*
%TO.P,P2,4,Pin_4*%
%TO.N,+5V*%
X154686000Y-78867000D03*
%TO.P,P2,5,Pin_5*%
%TO.N,/A7 (D21)*%
X154686000Y-81407000D03*
%TO.P,P2,6,Pin_6*%
%TO.N,/A6 (D20)*%
X154686000Y-83947000D03*
%TO.P,P2,7,Pin_7*%
%TO.N,/A5 (D19)*%
X154686000Y-86487000D03*
%TO.P,P2,8,Pin_8*%
%TO.N,/A4 (D18)*%
X154686000Y-89027000D03*
%TO.P,P2,9,Pin_9*%
%TO.N,/A3 (D17)*%
X154686000Y-91567000D03*
%TO.P,P2,10,Pin_10*%
%TO.N,/A2 (D16)*%
X154686000Y-94107000D03*
%TO.P,P2,11,Pin_11*%
%TO.N,/A1 (D15)*%
X154686000Y-96647000D03*
%TO.P,P2,12,Pin_12*%
%TO.N,/A0 (D14)*%
X154686000Y-99187000D03*
%TO.P,P2,13,Pin_13*%
%TO.N,/AREF*%
X154686000Y-101727000D03*
%TO.P,P2,14,Pin_14*%
%TO.N,+3V3*%
X154686000Y-104267000D03*
%TO.P,P2,15,Pin_15*%
%TO.N,/13(SCK)*%
X154686000Y-106807000D03*
%TD*%
D11*
%TO.P,P3,1,Pin_1*%
%TO.N,unconnected-(P3-Pad1)*%
X116840000Y-48260000D03*
%TD*%
%TO.P,P4,1,Pin_1*%
%TO.N,unconnected-(P4-Pad1)*%
X116840000Y-127000000D03*
%TD*%
%TO.P,P5,1,Pin_1*%
%TO.N,unconnected-(P5-Pad1)*%
X162560000Y-127000000D03*
%TD*%
%TO.P,P6,1,Pin_1*%
%TO.N,unconnected-(P6-Pad1)*%
X162560000Y-48260000D03*
%TD*%
D12*
%TO.P,S1,1*%
%TO.N,unconnected-(S1-Pad1)*%
X134290000Y-56402500D03*
D13*
%TO.P,S1,2*%
%TO.N,Net-(J5-Pad2)*%
X129540000Y-56402500D03*
%TO.P,S1,3*%
%TO.N,Net-(J6-Pad2)*%
X124790000Y-56402500D03*
%TD*%
D14*
%TO.P,U1,1,~{CS}*%
%TO.N,/10(\u002A\u002A{slash}SS)*%
X134615000Y-125720000D03*
D15*
%TO.P,U1,2,SCK*%
%TO.N,/13(SCK)*%
X137155000Y-125720000D03*
%TO.P,U1,3,SDI*%
%TO.N,/11(\u002A\u002A{slash}MOSI)*%
X139695000Y-125720000D03*
%TO.P,U1,4,VSS*%
%TO.N,GND*%
X142235000Y-125720000D03*
%TO.P,U1,5,P1B*%
X144775000Y-125720000D03*
%TO.P,U1,6,P1W*%
%TO.N,Net-(J4-Pad2)*%
X147315000Y-125720000D03*
%TO.P,U1,7,P1A*%
%TO.N,Net-(J4-Pad3)*%
X149855000Y-125720000D03*
%TO.P,U1,8,P0A*%
X149855000Y-118100000D03*
%TO.P,U1,9,P0W*%
%TO.N,Net-(J4-Pad4)*%
X147315000Y-118100000D03*
%TO.P,U1,10,P0B*%
%TO.N,GND*%
X144775000Y-118100000D03*
%TO.P,U1,11,~{WP}*%
%TO.N,unconnected-(U1-Pad11)*%
X142235000Y-118100000D03*
%TO.P,U1,12,~{SHDN}*%
%TO.N,unconnected-(U1-Pad12)*%
X139695000Y-118100000D03*
%TO.P,U1,13,SDO*%
%TO.N,/12(MISO)*%
X137155000Y-118100000D03*
%TO.P,U1,14,VDD*%
%TO.N,+3V3*%
X134615000Y-118100000D03*
%TD*%
D16*
%TO.P,J7,1,Pin_1*%
%TO.N,/1(Tx)*%
X129540000Y-71120000D03*
D17*
%TO.P,J7,2,Pin_2*%
%TO.N,/0(Rx)*%
X129540000Y-73660000D03*
%TD*%
D18*
%TO.P,J3,1,Pin_1*%
%TO.N,/6(\u002A\u002A)*%
X163250000Y-84530000D03*
%TO.P,J3,2,Pin_2*%
%TO.N,/5(\u002A\u002A)*%
X163250000Y-84030000D03*
%TO.P,J3,3,Pin_3*%
%TO.N,/4*%
X163250000Y-83530000D03*
%TO.P,J3,4,Pin_4*%
%TO.N,/3(\u002A\u002A)*%
X163250000Y-83030000D03*
%TO.P,J3,5,Pin_5*%
%TO.N,/2*%
X163250000Y-82530000D03*
%TO.P,J3,6,Pin_6*%
%TO.N,GND*%
X163250000Y-82030000D03*
%TO.P,J3,7,Pin_7*%
X163250000Y-81530000D03*
%TO.P,J3,8,Pin_8*%
X163250000Y-81030000D03*
%TO.P,J3,9,Pin_9*%
X163250000Y-80530000D03*
%TO.P,J3,10,Pin_10*%
%TO.N,/A7 (D21)*%
X163250000Y-80030000D03*
%TO.P,J3,11,Pin_11*%
%TO.N,unconnected-(J3-Pad11)*%
X163250000Y-79530000D03*
%TO.P,J3,12,Pin_12*%
%TO.N,unconnected-(J3-Pad12)*%
X163250000Y-79030000D03*
%TO.P,J3,13,Pin_13*%
%TO.N,unconnected-(J3-Pad13)*%
X163250000Y-78530000D03*
%TO.P,J3,14,Pin_14*%
%TO.N,unconnected-(J3-Pad14)*%
X163250000Y-78030000D03*
D19*
%TO.P,J3,MP*%
%TO.N,N/C*%
X166500000Y-86430000D03*
X166500000Y-76130000D03*
%TD*%
D16*
%TO.P,J4,1,Pin_1*%
%TO.N,GND*%
X157480000Y-127000000D03*
D17*
%TO.P,J4,2,Pin_2*%
%TO.N,Net-(J4-Pad2)*%
X157480000Y-124460000D03*
%TO.P,J4,3,Pin_3*%
%TO.N,Net-(J4-Pad3)*%
X157480000Y-121920000D03*
%TO.P,J4,4,Pin_4*%
%TO.N,Net-(J4-Pad4)*%
X157480000Y-119380000D03*
%TD*%
D16*
%TO.P,J5,1,Pin_1*%
%TO.N,GND*%
X154940000Y-50800000D03*
D17*
%TO.P,J5,2,Pin_2*%
%TO.N,Net-(J5-Pad2)*%
X154940000Y-53340000D03*
%TD*%
D18*
%TO.P,J1,1,Pin_1*%
%TO.N,GND*%
X123770000Y-109510000D03*
%TO.P,J1,2,Pin_2*%
X123770000Y-110010000D03*
%TO.P,J1,3,Pin_3*%
X123770000Y-110510000D03*
%TO.P,J1,4,Pin_4*%
X123770000Y-111010000D03*
%TO.P,J1,5,Pin_5*%
X123770000Y-111510000D03*
%TO.P,J1,6,Pin_6*%
%TO.N,/7*%
X123770000Y-112010000D03*
%TO.P,J1,7,Pin_7*%
%TO.N,/8*%
X123770000Y-112510000D03*
%TO.P,J1,8,Pin_8*%
%TO.N,/9(\u002A\u002A)*%
X123770000Y-113010000D03*
%TO.P,J1,9,Pin_9*%
%TO.N,/A4 (D18)*%
X123770000Y-113510000D03*
%TO.P,J1,10,Pin_10*%
%TO.N,/A5 (D19)*%
X123770000Y-114010000D03*
D19*
%TO.P,J1,MP*%
%TO.N,N/C*%
X120520000Y-107610000D03*
X120520000Y-115910000D03*
%TD*%
D16*
%TO.P,J8,1,Pin_1*%
%TO.N,Net-(J5-Pad2)*%
X154940000Y-60960000D03*
D17*
%TO.P,J8,2,Pin_2*%
%TO.N,VIN*%
X154940000Y-63500000D03*
%TD*%
D16*
%TO.P,J6,1,Pin_1*%
%TO.N,GND*%
X144780000Y-50800000D03*
D17*
%TO.P,J6,2,Pin_2*%
%TO.N,Net-(J6-Pad2)*%
X144780000Y-53340000D03*
%TD*%
D18*
%TO.P,J2,1,Pin_1*%
%TO.N,/A0 (D14)*%
X163250000Y-98770000D03*
%TO.P,J2,2,Pin_2*%
%TO.N,unconnected-(J2-Pad2)*%
X163250000Y-98270000D03*
%TO.P,J2,3,Pin_3*%
%TO.N,unconnected-(J2-Pad3)*%
X163250000Y-97770000D03*
%TO.P,J2,4,Pin_4*%
%TO.N,GND*%
X163250000Y-97270000D03*
%TO.P,J2,5,Pin_5*%
X163250000Y-96770000D03*
%TO.P,J2,6,Pin_6*%
X163250000Y-96270000D03*
%TO.P,J2,7,Pin_7*%
%TO.N,/A1 (D15)*%
X163250000Y-95770000D03*
%TO.P,J2,8,Pin_8*%
%TO.N,unconnected-(J2-Pad8)*%
X163250000Y-95270000D03*
%TO.P,J2,9,Pin_9*%
%TO.N,/A2 (D16)*%
X163250000Y-94770000D03*
%TO.P,J2,10,Pin_10*%
%TO.N,/A3 (D17)*%
X163250000Y-94270000D03*
D19*
%TO.P,J2,MP*%
%TO.N,N/C*%
X166500000Y-92370000D03*
X166500000Y-100670000D03*
%TD*%
D20*
%TO.N,/A7 (D21)*%
X157607000Y-81407000D02*
X154686000Y-81407000D01*
X164465000Y-85090000D02*
X161290000Y-85090000D01*
X166370000Y-83185000D02*
X164465000Y-85090000D01*
X166370000Y-80645000D02*
X166370000Y-83185000D01*
X165755000Y-80030000D02*
X166370000Y-80645000D01*
X163250000Y-80030000D02*
X165755000Y-80030000D01*
X161290000Y-85090000D02*
X157607000Y-81407000D01*
%TO.N,Net-(J4-Pad3)*%
X152400000Y-121920000D02*
X157480000Y-121920000D01*
%TO.N,GND*%
X139573000Y-78740000D02*
X139446000Y-78867000D01*
%TO.N,/2*%
X162300978Y-82530000D02*
X160840480Y-81069502D01*
X142240000Y-80010000D02*
X140843000Y-81407000D01*
X140843000Y-81407000D02*
X139446000Y-81407000D01*
X160840480Y-81069502D02*
X160840480Y-69850000D01*
X142240000Y-69850000D02*
X142240000Y-80010000D01*
X163250000Y-82530000D02*
X162300978Y-82530000D01*
X160840480Y-69850000D02*
X158300480Y-67310000D01*
X158300480Y-67310000D02*
X144780000Y-67310000D01*
X144780000Y-67310000D02*
X142240000Y-69850000D01*
%TO.N,/3(\u002A\u002A)*%
X142689520Y-70036198D02*
X142689520Y-82100480D01*
X157929520Y-67759520D02*
X144966198Y-67759520D01*
X144966198Y-67759520D02*
X142689520Y-70036198D01*
X160020000Y-69850000D02*
X157929520Y-67759520D01*
X142689520Y-82100480D02*
X140843000Y-83947000D01*
X163250000Y-83030000D02*
X162165261Y-83030000D01*
X160020000Y-80884739D02*
X160020000Y-69850000D01*
X162165261Y-83030000D02*
X160020000Y-80884739D01*
X140843000Y-83947000D02*
X139446000Y-83947000D01*
%TO.N,/4*%
X143139040Y-70222396D02*
X143139040Y-84190960D01*
X145152396Y-68209040D02*
X143139040Y-70222396D01*
X159570480Y-70036198D02*
X157743322Y-68209040D01*
X159570480Y-81070936D02*
X159570480Y-70036198D01*
X140843000Y-86487000D02*
X139446000Y-86487000D01*
X162029544Y-83530000D02*
X159570480Y-81070936D01*
X163250000Y-83530000D02*
X162029544Y-83530000D01*
X143139040Y-84190960D02*
X140843000Y-86487000D01*
X157743322Y-68209040D02*
X145152396Y-68209040D01*
%TO.N,/5(\u002A\u002A)*%
X145338594Y-68658560D02*
X143588560Y-70408594D01*
X159120960Y-70222396D02*
X157557124Y-68658560D01*
X163250000Y-84030000D02*
X161893827Y-84030000D01*
X161893827Y-84030000D02*
X159120960Y-81257133D01*
X157557124Y-68658560D02*
X145338594Y-68658560D01*
X143588560Y-86281440D02*
X140843000Y-89027000D01*
X140843000Y-89027000D02*
X139446000Y-89027000D01*
X143588560Y-70408594D02*
X143588560Y-86281440D01*
X159120960Y-81257133D02*
X159120960Y-70222396D01*
%TO.N,/6(\u002A\u002A)*%
X144038080Y-70594792D02*
X144038080Y-88371920D01*
X158671440Y-70408594D02*
X157370926Y-69108080D01*
X145524792Y-69108080D02*
X144038080Y-70594792D01*
X140843000Y-91567000D02*
X139446000Y-91567000D01*
X163250000Y-84530000D02*
X161758109Y-84530000D01*
X144038080Y-88371920D02*
X140843000Y-91567000D01*
X161758109Y-84530000D02*
X158671440Y-81443331D01*
X157370926Y-69108080D02*
X145524792Y-69108080D01*
X158671440Y-81443331D02*
X158671440Y-70408594D01*
%TO.N,/7*%
X137160000Y-100201564D02*
X125351564Y-112010000D01*
X125351564Y-112010000D02*
X123770000Y-112010000D01*
X139446000Y-94107000D02*
X137160000Y-96393000D01*
X137160000Y-96393000D02*
X137160000Y-100201564D01*
%TO.N,/8*%
X137609520Y-100387762D02*
X137609520Y-98483480D01*
X123770000Y-112510000D02*
X125487282Y-112510000D01*
X137609520Y-98483480D02*
X139446000Y-96647000D01*
X125487282Y-112510000D02*
X137609520Y-100387762D01*
%TO.N,/9(\u002A\u002A)*%
X123770000Y-113010000D02*
X125623000Y-113010000D01*
X125623000Y-113010000D02*
X139446000Y-99187000D01*
%TO.N,/A4 (D18)*%
X123770000Y-113510000D02*
X148110000Y-113510000D01*
X152400000Y-91313000D02*
X154686000Y-89027000D01*
X148110000Y-113510000D02*
X152400000Y-109220000D01*
X152400000Y-109220000D02*
X152400000Y-91313000D01*
%TO.N,/A5 (D19)*%
X155809022Y-114010000D02*
X168910000Y-100909022D01*
X123770000Y-114010000D02*
X155809022Y-114010000D01*
X168910000Y-100909022D02*
X168910000Y-92130978D01*
X165679022Y-88900000D02*
X160020000Y-88900000D01*
X157607000Y-86487000D02*
X154686000Y-86487000D01*
X168910000Y-92130978D02*
X165679022Y-88900000D01*
X160020000Y-88900000D02*
X157607000Y-86487000D01*
%TO.N,/A0 (D14)*%
X155103000Y-98770000D02*
X154686000Y-99187000D01*
X163250000Y-98770000D02*
X155103000Y-98770000D01*
%TO.N,/A1 (D15)*%
X156083000Y-96647000D02*
X154686000Y-96647000D01*
X163250000Y-95770000D02*
X156960000Y-95770000D01*
X156960000Y-95770000D02*
X156083000Y-96647000D01*
%TO.N,/A2 (D16)*%
X155349000Y-94770000D02*
X154686000Y-94107000D01*
X163250000Y-94770000D02*
X155349000Y-94770000D01*
%TO.N,/A3 (D17)*%
X163250000Y-94270000D02*
X157389000Y-94270000D01*
X157389000Y-94270000D02*
X154686000Y-91567000D01*
%TO.N,Net-(J4-Pad2)*%
X148439511Y-126844511D02*
X155095489Y-126844511D01*
X147315000Y-125720000D02*
X148439511Y-126844511D01*
X155095489Y-126844511D02*
X157480000Y-124460000D01*
%TO.N,Net-(J4-Pad3)*%
X149855000Y-118100000D02*
X149855000Y-119375000D01*
X149855000Y-124465000D02*
X152400000Y-121920000D01*
X157030480Y-122369520D02*
X157480000Y-121920000D01*
X149855000Y-125720000D02*
X149855000Y-124465000D01*
X149855000Y-119375000D02*
X152400000Y-121920000D01*
%TO.N,Net-(J4-Pad4)*%
X147315000Y-118100000D02*
X148439511Y-116975489D01*
X155075489Y-116975489D02*
X157480000Y-119380000D01*
X148439511Y-116975489D02*
X155075489Y-116975489D01*
%TO.N,VIN*%
X154686000Y-63754000D02*
X154940000Y-63500000D01*
%TO.N,Net-(J5-Pad2)*%
X147320000Y-60960000D02*
X154940000Y-53340000D01*
X129540000Y-56402500D02*
X129540000Y-58420000D01*
X132080000Y-60960000D02*
X147320000Y-60960000D01*
X129540000Y-58420000D02*
X132080000Y-60960000D01*
X154940000Y-53340000D02*
X154940000Y-60960000D01*
%TD*%
%TA.AperFunction,Conductor*%
%TO.N,GND*%
G36*
X116734733Y-46229292D02*
G01*
X116744153Y-46228000D01*
X162450334Y-46228000D01*
X162454733Y-46229292D01*
X162464153Y-46228000D01*
X172086000Y-46228000D01*
X172154121Y-46248002D01*
X172200614Y-46301658D01*
X172212000Y-46354000D01*
X172212000Y-130176000D01*
X172191998Y-130244121D01*
X172138342Y-130290614D01*
X172086000Y-130302000D01*
X114934000Y-130302000D01*
X114865879Y-130281998D01*
X114819386Y-130228342D01*
X114808000Y-130176000D01*
X114808000Y-127016214D01*
X114822677Y-126966230D01*
X114822427Y-126965739D01*
X115045271Y-126965739D01*
X115054896Y-126980716D01*
X115059855Y-127010169D01*
X115069807Y-127217352D01*
X115079708Y-127267127D01*
X115119172Y-127465524D01*
X115121378Y-127476616D01*
X115122957Y-127481014D01*
X115122959Y-127481021D01*
X115209121Y-127721001D01*
X115210704Y-127725410D01*
X115212921Y-127729536D01*
X115305313Y-127901486D01*
X115335822Y-127958267D01*
X115338617Y-127962011D01*
X115338619Y-127962013D01*
X115444384Y-128103649D01*
X115493985Y-128170073D01*
X115497292Y-128173351D01*
X115497297Y-128173357D01*
X115678402Y-128352887D01*
X115681718Y-128356174D01*
X115894896Y-128512483D01*
X115899031Y-128514659D01*
X115899035Y-128514661D01*
X116022293Y-128579510D01*
X116128836Y-128635565D01*
X116378400Y-128722716D01*
X116382993Y-128723588D01*
X116633515Y-128771151D01*
X116633518Y-128771151D01*
X116638104Y-128772022D01*
X116770173Y-128777211D01*
X116897575Y-128782218D01*
X116897581Y-128782218D01*
X116902243Y-128782401D01*
X117165015Y-128753622D01*
X117169526Y-128752434D01*
X117169528Y-128752434D01*
X117416124Y-128687511D01*
X117416126Y-128687510D01*
X117420647Y-128686320D01*
X117535191Y-128637108D01*
X117659229Y-128583817D01*
X117659231Y-128583816D01*
X117663523Y-128581972D01*
X117888307Y-128442871D01*
X117904788Y-128428919D01*
X118086496Y-128275093D01*
X118086498Y-128275091D01*
X118090063Y-128272073D01*
X118264356Y-128073329D01*
X118338367Y-127958267D01*
X118379274Y-127894669D01*
X156122001Y-127894669D01*
X156122371Y-127901490D01*
X156127895Y-127952352D01*
X156131521Y-127967604D01*
X156176676Y-128088054D01*
X156185214Y-128103649D01*
X156261715Y-128205724D01*
X156274276Y-128218285D01*
X156376351Y-128294786D01*
X156391946Y-128303324D01*
X156512394Y-128348478D01*
X156527649Y-128352105D01*
X156578514Y-128357631D01*
X156585328Y-128358000D01*
X157207885Y-128358000D01*
X157223124Y-128353525D01*
X157224329Y-128352135D01*
X157226000Y-128344452D01*
X157226000Y-128339884D01*
X157734000Y-128339884D01*
X157738475Y-128355123D01*
X157739865Y-128356328D01*
X157747548Y-128357999D01*
X158374669Y-128357999D01*
X158381490Y-128357629D01*
X158432352Y-128352105D01*
X158447604Y-128348479D01*
X158568054Y-128303324D01*
X158583649Y-128294786D01*
X158685724Y-128218285D01*
X158698285Y-128205724D01*
X158774786Y-128103649D01*
X158783324Y-128088054D01*
X158828478Y-127967606D01*
X158832105Y-127952351D01*
X158837631Y-127901486D01*
X158838000Y-127894672D01*
X158838000Y-127272115D01*
X158833525Y-127256876D01*
X158832135Y-127255671D01*
X158824452Y-127254000D01*
X157752115Y-127254000D01*
X157736876Y-127258475D01*
X157735671Y-127259865D01*
X157734000Y-127267548D01*
X157734000Y-128339884D01*
X157226000Y-128339884D01*
X157226000Y-127272115D01*
X157221525Y-127256876D01*
X157220135Y-127255671D01*
X157212452Y-127254000D01*
X156140116Y-127254000D01*
X156124877Y-127258475D01*
X156123672Y-127259865D01*
X156122001Y-127267548D01*
X156122001Y-127894669D01*
X118379274Y-127894669D01*
X118404831Y-127854936D01*
X118407359Y-127851006D01*
X118515930Y-127609988D01*
X118587683Y-127355570D01*
X118621043Y-127093340D01*
X118623487Y-127000000D01*
X118621303Y-126970615D01*
X118604243Y-126741036D01*
X118604242Y-126741032D01*
X118603897Y-126736384D01*
X118565826Y-126568134D01*
X133306500Y-126568134D01*
X133313255Y-126630316D01*
X133364385Y-126766705D01*
X133451739Y-126883261D01*
X133568295Y-126970615D01*
X133704684Y-127021745D01*
X133766866Y-127028500D01*
X135463134Y-127028500D01*
X135525316Y-127021745D01*
X135661705Y-126970615D01*
X135778261Y-126883261D01*
X135865615Y-126766705D01*
X135916745Y-126630316D01*
X135917917Y-126619526D01*
X135918803Y-126617394D01*
X135919425Y-126614778D01*
X135919848Y-126614879D01*
X135945155Y-126553965D01*
X136003517Y-126513537D01*
X136074471Y-126511078D01*
X136135490Y-126547371D01*
X136142489Y-126556031D01*
X136145643Y-126559789D01*
X136148802Y-126564300D01*
X136310700Y-126726198D01*
X136315208Y-126729355D01*
X136315211Y-126729357D01*
X136356542Y-126758297D01*
X136498251Y-126857523D01*
X136503233Y-126859846D01*
X136503238Y-126859849D01*
X136693696Y-126948660D01*
X136705757Y-126954284D01*
X136711065Y-126955706D01*
X136711067Y-126955707D01*
X136921598Y-127012119D01*
X136921600Y-127012119D01*
X136926913Y-127013543D01*
X137155000Y-127033498D01*
X137383087Y-127013543D01*
X137388400Y-127012119D01*
X137388402Y-127012119D01*
X137598933Y-126955707D01*
X137598935Y-126955706D01*
X137604243Y-126954284D01*
X137616304Y-126948660D01*
X137806762Y-126859849D01*
X137806767Y-126859846D01*
X137811749Y-126857523D01*
X137953458Y-126758297D01*
X137994789Y-126729357D01*
X137994792Y-126729355D01*
X137999300Y-126726198D01*
X138161198Y-126564300D01*
X138292523Y-126376749D01*
X138294846Y-126371767D01*
X138294849Y-126371762D01*
X138310805Y-126337543D01*
X138357722Y-126284258D01*
X138425999Y-126264797D01*
X138493959Y-126285339D01*
X138539195Y-126337543D01*
X138555151Y-126371762D01*
X138555154Y-126371767D01*
X138557477Y-126376749D01*
X138688802Y-126564300D01*
X138850700Y-126726198D01*
X138855208Y-126729355D01*
X138855211Y-126729357D01*
X138896542Y-126758297D01*
X139038251Y-126857523D01*
X139043233Y-126859846D01*
X139043238Y-126859849D01*
X139233696Y-126948660D01*
X139245757Y-126954284D01*
X139251065Y-126955706D01*
X139251067Y-126955707D01*
X139461598Y-127012119D01*
X139461600Y-127012119D01*
X139466913Y-127013543D01*
X139695000Y-127033498D01*
X139923087Y-127013543D01*
X139928400Y-127012119D01*
X139928402Y-127012119D01*
X140138933Y-126955707D01*
X140138935Y-126955706D01*
X140144243Y-126954284D01*
X140156304Y-126948660D01*
X140346762Y-126859849D01*
X140346767Y-126859846D01*
X140351749Y-126857523D01*
X140493458Y-126758297D01*
X140534789Y-126729357D01*
X140534792Y-126729355D01*
X140539300Y-126726198D01*
X140701198Y-126564300D01*
X140832523Y-126376749D01*
X140834846Y-126371767D01*
X140834849Y-126371762D01*
X140851081Y-126336951D01*
X140897998Y-126283666D01*
X140966275Y-126264205D01*
X141034235Y-126284747D01*
X141079471Y-126336951D01*
X141095586Y-126371511D01*
X141101069Y-126381007D01*
X141226028Y-126559467D01*
X141233084Y-126567875D01*
X141387125Y-126721916D01*
X141395533Y-126728972D01*
X141573993Y-126853931D01*
X141583489Y-126859414D01*
X141780947Y-126951490D01*
X141791239Y-126955236D01*
X141963503Y-127001394D01*
X141977599Y-127001058D01*
X141981000Y-126993116D01*
X141981000Y-126987967D01*
X142489000Y-126987967D01*
X142492973Y-127001498D01*
X142501522Y-127002727D01*
X142678761Y-126955236D01*
X142689053Y-126951490D01*
X142886511Y-126859414D01*
X142896007Y-126853931D01*
X143074467Y-126728972D01*
X143082875Y-126721916D01*
X143236916Y-126567875D01*
X143243972Y-126559467D01*
X143368931Y-126381007D01*
X143374414Y-126371511D01*
X143390805Y-126336359D01*
X143437722Y-126283074D01*
X143505999Y-126263613D01*
X143573959Y-126284155D01*
X143619195Y-126336359D01*
X143635586Y-126371511D01*
X143641069Y-126381007D01*
X143766028Y-126559467D01*
X143773084Y-126567875D01*
X143927125Y-126721916D01*
X143935533Y-126728972D01*
X144113993Y-126853931D01*
X144123489Y-126859414D01*
X144320947Y-126951490D01*
X144331239Y-126955236D01*
X144503503Y-127001394D01*
X144517599Y-127001058D01*
X144521000Y-126993116D01*
X144521000Y-126987967D01*
X145029000Y-126987967D01*
X145032973Y-127001498D01*
X145041522Y-127002727D01*
X145218761Y-126955236D01*
X145229053Y-126951490D01*
X145426511Y-126859414D01*
X145436007Y-126853931D01*
X145614467Y-126728972D01*
X145622875Y-126721916D01*
X145776916Y-126567875D01*
X145783972Y-126559467D01*
X145908931Y-126381007D01*
X145914414Y-126371511D01*
X145930529Y-126336951D01*
X145977446Y-126283666D01*
X146045723Y-126264205D01*
X146113683Y-126284747D01*
X146158919Y-126336951D01*
X146175151Y-126371762D01*
X146175154Y-126371767D01*
X146177477Y-126376749D01*
X146308802Y-126564300D01*
X146470700Y-126726198D01*
X146475208Y-126729355D01*
X146475211Y-126729357D01*
X146516542Y-126758297D01*
X146658251Y-126857523D01*
X146663233Y-126859846D01*
X146663238Y-126859849D01*
X146853696Y-126948660D01*
X146865757Y-126954284D01*
X146871065Y-126955706D01*
X146871067Y-126955707D01*
X147081598Y-127012119D01*
X147081600Y-127012119D01*
X147086913Y-127013543D01*
X147315000Y-127033498D01*
X147543087Y-127013543D01*
X147548398Y-127012120D01*
X147548409Y-127012118D01*
X147606541Y-126996541D01*
X147677517Y-126998230D01*
X147728248Y-127029152D01*
X147935854Y-127236758D01*
X147943398Y-127245048D01*
X147947511Y-127251529D01*
X147953288Y-127256954D01*
X147997178Y-127298169D01*
X148000020Y-127300924D01*
X148019742Y-127320646D01*
X148022884Y-127323083D01*
X148022944Y-127323130D01*
X148031956Y-127330828D01*
X148045389Y-127343442D01*
X148064190Y-127361097D01*
X148071133Y-127364914D01*
X148081942Y-127370856D01*
X148098464Y-127381709D01*
X148114470Y-127394125D01*
X148121748Y-127397275D01*
X148121749Y-127397275D01*
X148155048Y-127411685D01*
X148165698Y-127416902D01*
X148204451Y-127438206D01*
X148212126Y-127440177D01*
X148212127Y-127440177D01*
X148224073Y-127443244D01*
X148242778Y-127449648D01*
X148261366Y-127457692D01*
X148269189Y-127458931D01*
X148269199Y-127458934D01*
X148305035Y-127464610D01*
X148316655Y-127467016D01*
X148348470Y-127475184D01*
X148359481Y-127478011D01*
X148379735Y-127478011D01*
X148399445Y-127479562D01*
X148419454Y-127482731D01*
X148427346Y-127481985D01*
X148446091Y-127480213D01*
X148463473Y-127478570D01*
X148475330Y-127478011D01*
X155016722Y-127478011D01*
X155027905Y-127478538D01*
X155035398Y-127480213D01*
X155043324Y-127479964D01*
X155043325Y-127479964D01*
X155103475Y-127478073D01*
X155107434Y-127478011D01*
X155135345Y-127478011D01*
X155139280Y-127477514D01*
X155139345Y-127477506D01*
X155151182Y-127476573D01*
X155183440Y-127475559D01*
X155187459Y-127475433D01*
X155195378Y-127475184D01*
X155214832Y-127469532D01*
X155234189Y-127465524D01*
X155246419Y-127463979D01*
X155246420Y-127463979D01*
X155254286Y-127462985D01*
X155261657Y-127460066D01*
X155261659Y-127460066D01*
X155295401Y-127446707D01*
X155306631Y-127442862D01*
X155341472Y-127432740D01*
X155341473Y-127432740D01*
X155349082Y-127430529D01*
X155355901Y-127426496D01*
X155355906Y-127426494D01*
X155366517Y-127420218D01*
X155384265Y-127411523D01*
X155403106Y-127404063D01*
X155438876Y-127378075D01*
X155448796Y-127371559D01*
X155480024Y-127353091D01*
X155480027Y-127353089D01*
X155486851Y-127349053D01*
X155501172Y-127334732D01*
X155516206Y-127321891D01*
X155517920Y-127320646D01*
X155532596Y-127309983D01*
X155560787Y-127275906D01*
X155568777Y-127267127D01*
X155882590Y-126953314D01*
X160777124Y-126953314D01*
X160777348Y-126957980D01*
X160777348Y-126957985D01*
X160783093Y-127077576D01*
X160789807Y-127217352D01*
X160799708Y-127267127D01*
X160839172Y-127465524D01*
X160841378Y-127476616D01*
X160842957Y-127481014D01*
X160842959Y-127481021D01*
X160929121Y-127721001D01*
X160930704Y-127725410D01*
X160932921Y-127729536D01*
X161025313Y-127901486D01*
X161055822Y-127958267D01*
X161058617Y-127962011D01*
X161058619Y-127962013D01*
X161164384Y-128103649D01*
X161213985Y-128170073D01*
X161217292Y-128173351D01*
X161217297Y-128173357D01*
X161398402Y-128352887D01*
X161401718Y-128356174D01*
X161614896Y-128512483D01*
X161619031Y-128514659D01*
X161619035Y-128514661D01*
X161742293Y-128579510D01*
X161848836Y-128635565D01*
X162098400Y-128722716D01*
X162102993Y-128723588D01*
X162353515Y-128771151D01*
X162353518Y-128771151D01*
X162358104Y-128772022D01*
X162490173Y-128777211D01*
X162617575Y-128782218D01*
X162617581Y-128782218D01*
X162622243Y-128782401D01*
X162885015Y-128753622D01*
X162889526Y-128752434D01*
X162889528Y-128752434D01*
X163136124Y-128687511D01*
X163136126Y-128687510D01*
X163140647Y-128686320D01*
X163255191Y-128637108D01*
X163379229Y-128583817D01*
X163379231Y-128583816D01*
X163383523Y-128581972D01*
X163608307Y-128442871D01*
X163624788Y-128428919D01*
X163806496Y-128275093D01*
X163806498Y-128275091D01*
X163810063Y-128272073D01*
X163984356Y-128073329D01*
X164058367Y-127958267D01*
X164124831Y-127854936D01*
X164127359Y-127851006D01*
X164235930Y-127609988D01*
X164307683Y-127355570D01*
X164341043Y-127093340D01*
X164343487Y-127000000D01*
X164341303Y-126970615D01*
X164324243Y-126741036D01*
X164324242Y-126741032D01*
X164323897Y-126736384D01*
X164265557Y-126478559D01*
X164250028Y-126438626D01*
X164171442Y-126236542D01*
X164171441Y-126236540D01*
X164169749Y-126232189D01*
X164143535Y-126186323D01*
X164075381Y-126067079D01*
X164038578Y-126002687D01*
X163874925Y-125795094D01*
X163682385Y-125613970D01*
X163645212Y-125588182D01*
X163469026Y-125465958D01*
X163469021Y-125465955D01*
X163465188Y-125463296D01*
X163460997Y-125461229D01*
X163232294Y-125348445D01*
X163232291Y-125348444D01*
X163228106Y-125346380D01*
X163205964Y-125339292D01*
X163008449Y-125276067D01*
X162976347Y-125265791D01*
X162833825Y-125242580D01*
X162720053Y-125224051D01*
X162720052Y-125224051D01*
X162715441Y-125223300D01*
X162583281Y-125221570D01*
X162455798Y-125219901D01*
X162455795Y-125219901D01*
X162451121Y-125219840D01*
X162189192Y-125255486D01*
X162184702Y-125256795D01*
X162184696Y-125256796D01*
X162076732Y-125288265D01*
X161935410Y-125329457D01*
X161931163Y-125331415D01*
X161931160Y-125331416D01*
X161840950Y-125373004D01*
X161695348Y-125440127D01*
X161676549Y-125452452D01*
X161478195Y-125582499D01*
X161478190Y-125582503D01*
X161474282Y-125585065D01*
X161277067Y-125761086D01*
X161108036Y-125964324D01*
X160970901Y-126190314D01*
X160969095Y-126194622D01*
X160969094Y-126194623D01*
X160894814Y-126371762D01*
X160868677Y-126434091D01*
X160867526Y-126438623D01*
X160867525Y-126438626D01*
X160856226Y-126483116D01*
X160803608Y-126690301D01*
X160777124Y-126953314D01*
X155882590Y-126953314D01*
X156052999Y-126782905D01*
X156115311Y-126748879D01*
X156142094Y-126746000D01*
X158819884Y-126746000D01*
X158835123Y-126741525D01*
X158836328Y-126740135D01*
X158837999Y-126732452D01*
X158837999Y-126105331D01*
X158837629Y-126098510D01*
X158832105Y-126047648D01*
X158828479Y-126032396D01*
X158783324Y-125911946D01*
X158774786Y-125896351D01*
X158698285Y-125794276D01*
X158685724Y-125781715D01*
X158583649Y-125705214D01*
X158568054Y-125696676D01*
X158457813Y-125655348D01*
X158401049Y-125612706D01*
X158376349Y-125546145D01*
X158391557Y-125476796D01*
X158413104Y-125448115D01*
X158514430Y-125347144D01*
X158514440Y-125347132D01*
X158518096Y-125343489D01*
X158606903Y-125219901D01*
X158645435Y-125166277D01*
X158648453Y-125162077D01*
X158651292Y-125156334D01*
X158745136Y-124966453D01*
X158745137Y-124966451D01*
X158747430Y-124961811D01*
X158812370Y-124748069D01*
X158841529Y-124526590D01*
X158842453Y-124488763D01*
X158843074Y-124463365D01*
X158843074Y-124463361D01*
X158843156Y-124460000D01*
X158824852Y-124237361D01*
X158770431Y-124020702D01*
X158681354Y-123815840D01*
X158560014Y-123628277D01*
X158409670Y-123463051D01*
X158405619Y-123459852D01*
X158405615Y-123459848D01*
X158238414Y-123327800D01*
X158238410Y-123327798D01*
X158234359Y-123324598D01*
X158193053Y-123301796D01*
X158143084Y-123251364D01*
X158128312Y-123181921D01*
X158153428Y-123115516D01*
X158180780Y-123088909D01*
X158224603Y-123057650D01*
X158359860Y-122961173D01*
X158518096Y-122803489D01*
X158648453Y-122622077D01*
X158652611Y-122613665D01*
X158745136Y-122426453D01*
X158745137Y-122426451D01*
X158747430Y-122421811D01*
X158812370Y-122208069D01*
X158841529Y-121986590D01*
X158843156Y-121920000D01*
X158824852Y-121697361D01*
X158770431Y-121480702D01*
X158681354Y-121275840D01*
X158560014Y-121088277D01*
X158409670Y-120923051D01*
X158405619Y-120919852D01*
X158405615Y-120919848D01*
X158238414Y-120787800D01*
X158238410Y-120787798D01*
X158234359Y-120784598D01*
X158193053Y-120761796D01*
X158143084Y-120711364D01*
X158128312Y-120641921D01*
X158153428Y-120575516D01*
X158180780Y-120548909D01*
X158224603Y-120517650D01*
X158359860Y-120421173D01*
X158518096Y-120263489D01*
X158577594Y-120180689D01*
X158645435Y-120086277D01*
X158648453Y-120082077D01*
X158747430Y-119881811D01*
X158807950Y-119682617D01*
X158810865Y-119673023D01*
X158810865Y-119673021D01*
X158812370Y-119668069D01*
X158841529Y-119446590D01*
X158841917Y-119430699D01*
X158843074Y-119383365D01*
X158843074Y-119383361D01*
X158843156Y-119380000D01*
X158824852Y-119157361D01*
X158770431Y-118940702D01*
X158681354Y-118735840D01*
X158560014Y-118548277D01*
X158409670Y-118383051D01*
X158405619Y-118379852D01*
X158405615Y-118379848D01*
X158238414Y-118247800D01*
X158238410Y-118247798D01*
X158234359Y-118244598D01*
X158038789Y-118136638D01*
X158033920Y-118134914D01*
X158033916Y-118134912D01*
X157833087Y-118063795D01*
X157833083Y-118063794D01*
X157828212Y-118062069D01*
X157823119Y-118061162D01*
X157823116Y-118061161D01*
X157613373Y-118023800D01*
X157613367Y-118023799D01*
X157608284Y-118022894D01*
X157534452Y-118021992D01*
X157390081Y-118020228D01*
X157390079Y-118020228D01*
X157384911Y-118020165D01*
X157164091Y-118053955D01*
X157151532Y-118058060D01*
X157080568Y-118060210D01*
X157023294Y-118027389D01*
X155579141Y-116583236D01*
X155571601Y-116574950D01*
X155567489Y-116568471D01*
X155517837Y-116521845D01*
X155514996Y-116519091D01*
X155495259Y-116499354D01*
X155492062Y-116496874D01*
X155483040Y-116489169D01*
X155469611Y-116476558D01*
X155450810Y-116458903D01*
X155443864Y-116455084D01*
X155443861Y-116455082D01*
X155433055Y-116449141D01*
X155416536Y-116438290D01*
X155416072Y-116437930D01*
X155400530Y-116425875D01*
X155393261Y-116422730D01*
X155393257Y-116422727D01*
X155359952Y-116408315D01*
X155349302Y-116403098D01*
X155310549Y-116381794D01*
X155290926Y-116376756D01*
X155272223Y-116370352D01*
X155260909Y-116365456D01*
X155260908Y-116365456D01*
X155253634Y-116362308D01*
X155245811Y-116361069D01*
X155245801Y-116361066D01*
X155209965Y-116355390D01*
X155198345Y-116352984D01*
X155163200Y-116343961D01*
X155163199Y-116343961D01*
X155155519Y-116341989D01*
X155135265Y-116341989D01*
X155115554Y-116340438D01*
X155103375Y-116338509D01*
X155095546Y-116337269D01*
X155066275Y-116340036D01*
X155051528Y-116341430D01*
X155039670Y-116341989D01*
X148518279Y-116341989D01*
X148507096Y-116341462D01*
X148499603Y-116339787D01*
X148491677Y-116340036D01*
X148491676Y-116340036D01*
X148431513Y-116341927D01*
X148427555Y-116341989D01*
X148399655Y-116341989D01*
X148395665Y-116342493D01*
X148383831Y-116343425D01*
X148339622Y-116344815D01*
X148332008Y-116347027D01*
X148332003Y-116347028D01*
X148320170Y-116350466D01*
X148300807Y-116354477D01*
X148280714Y-116357015D01*
X148273347Y-116359932D01*
X148273342Y-116359933D01*
X148239603Y-116373291D01*
X148228376Y-116377135D01*
X148185918Y-116389471D01*
X148179092Y-116393508D01*
X148168483Y-116399782D01*
X148150735Y-116408477D01*
X148131894Y-116415937D01*
X148125478Y-116420599D01*
X148125477Y-116420599D01*
X148096124Y-116441925D01*
X148086204Y-116448441D01*
X148054976Y-116466909D01*
X148054973Y-116466911D01*
X148048149Y-116470947D01*
X148033828Y-116485268D01*
X148018795Y-116498108D01*
X148002404Y-116510017D01*
X147993728Y-116520505D01*
X147974213Y-116544094D01*
X147966223Y-116552873D01*
X147728248Y-116790848D01*
X147665936Y-116824874D01*
X147606541Y-116823459D01*
X147548409Y-116807882D01*
X147548398Y-116807880D01*
X147543087Y-116806457D01*
X147315000Y-116786502D01*
X147086913Y-116806457D01*
X147081600Y-116807881D01*
X147081598Y-116807881D01*
X146871067Y-116864293D01*
X146871065Y-116864294D01*
X146865757Y-116865716D01*
X146860776Y-116868039D01*
X146860775Y-116868039D01*
X146663238Y-116960151D01*
X146663233Y-116960154D01*
X146658251Y-116962477D01*
X146553389Y-117035902D01*
X146475211Y-117090643D01*
X146475208Y-117090645D01*
X146470700Y-117093802D01*
X146308802Y-117255700D01*
X146177477Y-117443251D01*
X146175154Y-117448233D01*
X146175151Y-117448238D01*
X146158919Y-117483049D01*
X146112002Y-117536334D01*
X146043725Y-117555795D01*
X145975765Y-117535253D01*
X145930529Y-117483049D01*
X145914414Y-117448489D01*
X145908931Y-117438993D01*
X145783972Y-117260533D01*
X145776916Y-117252125D01*
X145622875Y-117098084D01*
X145614467Y-117091028D01*
X145436007Y-116966069D01*
X145426511Y-116960586D01*
X145229053Y-116868510D01*
X145218761Y-116864764D01*
X145046497Y-116818606D01*
X145032401Y-116818942D01*
X145029000Y-116826884D01*
X145029000Y-119367967D01*
X145032973Y-119381498D01*
X145041522Y-119382727D01*
X145218761Y-119335236D01*
X145229053Y-119331490D01*
X145426511Y-119239414D01*
X145436007Y-119233931D01*
X145614467Y-119108972D01*
X145622875Y-119101916D01*
X145776916Y-118947875D01*
X145783972Y-118939467D01*
X145908931Y-118761007D01*
X145914414Y-118751511D01*
X145930529Y-118716951D01*
X145977446Y-118663666D01*
X146045723Y-118644205D01*
X146113683Y-118664747D01*
X146158919Y-118716951D01*
X146175151Y-118751762D01*
X146175154Y-118751767D01*
X146177477Y-118756749D01*
X146308802Y-118944300D01*
X146470700Y-119106198D01*
X146475208Y-119109355D01*
X146475211Y-119109357D01*
X146504274Y-119129707D01*
X146658251Y-119237523D01*
X146663233Y-119239846D01*
X146663238Y-119239849D01*
X146859765Y-119331490D01*
X146865757Y-119334284D01*
X146871065Y-119335706D01*
X146871067Y-119335707D01*
X147081598Y-119392119D01*
X147081600Y-119392119D01*
X147086913Y-119393543D01*
X147315000Y-119413498D01*
X147543087Y-119393543D01*
X147548400Y-119392119D01*
X147548402Y-119392119D01*
X147758933Y-119335707D01*
X147758935Y-119335706D01*
X147764243Y-119334284D01*
X147770235Y-119331490D01*
X147966762Y-119239849D01*
X147966767Y-119239846D01*
X147971749Y-119237523D01*
X148125726Y-119129707D01*
X148154789Y-119109357D01*
X148154792Y-119109355D01*
X148159300Y-119106198D01*
X148321198Y-118944300D01*
X148452523Y-118756749D01*
X148454846Y-118751767D01*
X148454849Y-118751762D01*
X148470805Y-118717543D01*
X148517722Y-118664258D01*
X148585999Y-118644797D01*
X148653959Y-118665339D01*
X148699195Y-118717543D01*
X148715151Y-118751762D01*
X148715154Y-118751767D01*
X148717477Y-118756749D01*
X148848802Y-118944300D01*
X149010700Y-119106198D01*
X149015208Y-119109355D01*
X149015211Y-119109357D01*
X149165717Y-119214743D01*
X149210045Y-119270200D01*
X149216694Y-119314991D01*
X149219298Y-119314909D01*
X149221438Y-119382986D01*
X149221500Y-119386945D01*
X149221500Y-119414856D01*
X149221997Y-119418790D01*
X149221997Y-119418791D01*
X149222005Y-119418856D01*
X149222938Y-119430693D01*
X149224327Y-119474889D01*
X149229978Y-119494339D01*
X149233987Y-119513700D01*
X149236526Y-119533797D01*
X149239445Y-119541168D01*
X149239445Y-119541170D01*
X149252804Y-119574912D01*
X149256649Y-119586142D01*
X149268982Y-119628593D01*
X149273015Y-119635412D01*
X149273017Y-119635417D01*
X149279293Y-119646028D01*
X149287988Y-119663776D01*
X149295448Y-119682617D01*
X149300110Y-119689033D01*
X149300110Y-119689034D01*
X149321436Y-119718387D01*
X149327952Y-119728307D01*
X149350458Y-119766362D01*
X149364779Y-119780683D01*
X149377619Y-119795716D01*
X149389528Y-119812107D01*
X149395634Y-119817158D01*
X149423605Y-119840298D01*
X149432384Y-119848288D01*
X151415001Y-121830905D01*
X151449027Y-121893217D01*
X151443962Y-121964032D01*
X151415001Y-122009095D01*
X150390768Y-123033327D01*
X149462747Y-123961348D01*
X149454461Y-123968888D01*
X149447982Y-123973000D01*
X149442557Y-123978777D01*
X149401357Y-124022651D01*
X149398602Y-124025493D01*
X149378865Y-124045230D01*
X149376385Y-124048427D01*
X149368682Y-124057447D01*
X149338414Y-124089679D01*
X149334595Y-124096625D01*
X149334593Y-124096628D01*
X149328652Y-124107434D01*
X149317801Y-124123953D01*
X149305386Y-124139959D01*
X149302241Y-124147228D01*
X149302238Y-124147232D01*
X149287826Y-124180537D01*
X149282609Y-124191187D01*
X149261305Y-124229940D01*
X149259334Y-124237615D01*
X149259334Y-124237616D01*
X149256267Y-124249562D01*
X149249863Y-124268266D01*
X149241819Y-124286855D01*
X149240580Y-124294678D01*
X149240577Y-124294688D01*
X149234901Y-124330524D01*
X149232495Y-124342144D01*
X149221500Y-124384970D01*
X149221500Y-124405224D01*
X149219949Y-124424934D01*
X149216780Y-124444943D01*
X149217526Y-124452835D01*
X149217526Y-124452836D01*
X149220922Y-124488763D01*
X149207419Y-124558463D01*
X149167752Y-124603833D01*
X149015211Y-124710643D01*
X149015208Y-124710645D01*
X149010700Y-124713802D01*
X148848802Y-124875700D01*
X148717477Y-125063251D01*
X148715154Y-125068233D01*
X148715151Y-125068238D01*
X148699195Y-125102457D01*
X148652278Y-125155742D01*
X148584001Y-125175203D01*
X148516041Y-125154661D01*
X148470805Y-125102457D01*
X148454849Y-125068238D01*
X148454846Y-125068233D01*
X148452523Y-125063251D01*
X148321198Y-124875700D01*
X148159300Y-124713802D01*
X148154792Y-124710645D01*
X148154789Y-124710643D01*
X148073094Y-124653440D01*
X147971749Y-124582477D01*
X147966767Y-124580154D01*
X147966762Y-124580151D01*
X147769225Y-124488039D01*
X147769224Y-124488039D01*
X147764243Y-124485716D01*
X147758935Y-124484294D01*
X147758933Y-124484293D01*
X147548402Y-124427881D01*
X147548400Y-124427881D01*
X147543087Y-124426457D01*
X147315000Y-124406502D01*
X147086913Y-124426457D01*
X147081600Y-124427881D01*
X147081598Y-124427881D01*
X146871067Y-124484293D01*
X146871065Y-124484294D01*
X146865757Y-124485716D01*
X146860776Y-124488039D01*
X146860775Y-124488039D01*
X146663238Y-124580151D01*
X146663233Y-124580154D01*
X146658251Y-124582477D01*
X146556906Y-124653440D01*
X146475211Y-124710643D01*
X146475208Y-124710645D01*
X146470700Y-124713802D01*
X146308802Y-124875700D01*
X146177477Y-125063251D01*
X146175154Y-125068233D01*
X146175151Y-125068238D01*
X146158919Y-125103049D01*
X146112002Y-125156334D01*
X146043725Y-125175795D01*
X145975765Y-125155253D01*
X145930529Y-125103049D01*
X145914414Y-125068489D01*
X145908931Y-125058993D01*
X145783972Y-124880533D01*
X145776916Y-124872125D01*
X145622875Y-124718084D01*
X145614467Y-124711028D01*
X145436007Y-124586069D01*
X145426511Y-124580586D01*
X145229053Y-124488510D01*
X145218761Y-124484764D01*
X145046497Y-124438606D01*
X145032401Y-124438942D01*
X145029000Y-124446884D01*
X145029000Y-126987967D01*
X144521000Y-126987967D01*
X144521000Y-125992115D01*
X144516525Y-125976876D01*
X144515135Y-125975671D01*
X144507452Y-125974000D01*
X142507115Y-125974000D01*
X142491876Y-125978475D01*
X142490671Y-125979865D01*
X142489000Y-125987548D01*
X142489000Y-126987967D01*
X141981000Y-126987967D01*
X141981000Y-125447885D01*
X142489000Y-125447885D01*
X142493475Y-125463124D01*
X142494865Y-125464329D01*
X142502548Y-125466000D01*
X144502885Y-125466000D01*
X144518124Y-125461525D01*
X144519329Y-125460135D01*
X144521000Y-125452452D01*
X144521000Y-124452033D01*
X144517027Y-124438502D01*
X144508478Y-124437273D01*
X144331239Y-124484764D01*
X144320947Y-124488510D01*
X144123489Y-124580586D01*
X144113993Y-124586069D01*
X143935533Y-124711028D01*
X143927125Y-124718084D01*
X143773084Y-124872125D01*
X143766028Y-124880533D01*
X143641069Y-125058993D01*
X143635586Y-125068489D01*
X143619195Y-125103641D01*
X143572278Y-125156926D01*
X143504001Y-125176387D01*
X143436041Y-125155845D01*
X143390805Y-125103641D01*
X143374414Y-125068489D01*
X143368931Y-125058993D01*
X143243972Y-124880533D01*
X143236916Y-124872125D01*
X143082875Y-124718084D01*
X143074467Y-124711028D01*
X142896007Y-124586069D01*
X142886511Y-124580586D01*
X142689053Y-124488510D01*
X142678761Y-124484764D01*
X142506497Y-124438606D01*
X142492401Y-124438942D01*
X142489000Y-124446884D01*
X142489000Y-125447885D01*
X141981000Y-125447885D01*
X141981000Y-124452033D01*
X141977027Y-124438502D01*
X141968478Y-124437273D01*
X141791239Y-124484764D01*
X141780947Y-124488510D01*
X141583489Y-124580586D01*
X141573993Y-124586069D01*
X141395533Y-124711028D01*
X141387125Y-124718084D01*
X141233084Y-124872125D01*
X141226028Y-124880533D01*
X141101069Y-125058993D01*
X141095586Y-125068489D01*
X141079471Y-125103049D01*
X141032554Y-125156334D01*
X140964277Y-125175795D01*
X140896317Y-125155253D01*
X140851081Y-125103049D01*
X140834849Y-125068238D01*
X140834846Y-125068233D01*
X140832523Y-125063251D01*
X140701198Y-124875700D01*
X140539300Y-124713802D01*
X140534792Y-124710645D01*
X140534789Y-124710643D01*
X140453094Y-124653440D01*
X140351749Y-124582477D01*
X140346767Y-124580154D01*
X140346762Y-124580151D01*
X140149225Y-124488039D01*
X140149224Y-124488039D01*
X140144243Y-124485716D01*
X140138935Y-124484294D01*
X140138933Y-124484293D01*
X139928402Y-124427881D01*
X139928400Y-124427881D01*
X139923087Y-124426457D01*
X139695000Y-124406502D01*
X139466913Y-124426457D01*
X139461600Y-124427881D01*
X139461598Y-124427881D01*
X139251067Y-124484293D01*
X139251065Y-124484294D01*
X139245757Y-124485716D01*
X139240776Y-124488039D01*
X139240775Y-124488039D01*
X139043238Y-124580151D01*
X139043233Y-124580154D01*
X139038251Y-124582477D01*
X138936906Y-124653440D01*
X138855211Y-124710643D01*
X138855208Y-124710645D01*
X138850700Y-124713802D01*
X138688802Y-124875700D01*
X138557477Y-125063251D01*
X138555154Y-125068233D01*
X138555151Y-125068238D01*
X138539195Y-125102457D01*
X138492278Y-125155742D01*
X138424001Y-125175203D01*
X138356041Y-125154661D01*
X138310805Y-125102457D01*
X138294849Y-125068238D01*
X138294846Y-125068233D01*
X138292523Y-125063251D01*
X138161198Y-124875700D01*
X137999300Y-124713802D01*
X137994792Y-124710645D01*
X137994789Y-124710643D01*
X137913094Y-124653440D01*
X137811749Y-124582477D01*
X137806767Y-124580154D01*
X137806762Y-124580151D01*
X137609225Y-124488039D01*
X137609224Y-124488039D01*
X137604243Y-124485716D01*
X137598935Y-124484294D01*
X137598933Y-124484293D01*
X137388402Y-124427881D01*
X137388400Y-124427881D01*
X137383087Y-124426457D01*
X137155000Y-124406502D01*
X136926913Y-124426457D01*
X136921600Y-124427881D01*
X136921598Y-124427881D01*
X136711067Y-124484293D01*
X136711065Y-124484294D01*
X136705757Y-124485716D01*
X136700776Y-124488039D01*
X136700775Y-124488039D01*
X136503238Y-124580151D01*
X136503233Y-124580154D01*
X136498251Y-124582477D01*
X136396906Y-124653440D01*
X136315211Y-124710643D01*
X136315208Y-124710645D01*
X136310700Y-124713802D01*
X136148802Y-124875700D01*
X136145643Y-124880211D01*
X136142108Y-124884424D01*
X136140974Y-124883473D01*
X136090929Y-124923471D01*
X136020310Y-124930776D01*
X135956951Y-124898742D01*
X135920970Y-124837538D01*
X135917918Y-124820483D01*
X135916745Y-124809684D01*
X135865615Y-124673295D01*
X135778261Y-124556739D01*
X135661705Y-124469385D01*
X135525316Y-124418255D01*
X135463134Y-124411500D01*
X133766866Y-124411500D01*
X133704684Y-124418255D01*
X133568295Y-124469385D01*
X133451739Y-124556739D01*
X133364385Y-124673295D01*
X133313255Y-124809684D01*
X133306500Y-124871866D01*
X133306500Y-126568134D01*
X118565826Y-126568134D01*
X118545557Y-126478559D01*
X118530028Y-126438626D01*
X118451442Y-126236542D01*
X118451441Y-126236540D01*
X118449749Y-126232189D01*
X118423535Y-126186323D01*
X118355381Y-126067079D01*
X118318578Y-126002687D01*
X118154925Y-125795094D01*
X117962385Y-125613970D01*
X117925212Y-125588182D01*
X117749026Y-125465958D01*
X117749021Y-125465955D01*
X117745188Y-125463296D01*
X117740997Y-125461229D01*
X117512294Y-125348445D01*
X117512291Y-125348444D01*
X117508106Y-125346380D01*
X117485964Y-125339292D01*
X117288449Y-125276067D01*
X117256347Y-125265791D01*
X117113825Y-125242580D01*
X117000053Y-125224051D01*
X117000052Y-125224051D01*
X116995441Y-125223300D01*
X116863281Y-125221570D01*
X116735798Y-125219901D01*
X116735795Y-125219901D01*
X116731121Y-125219840D01*
X116469192Y-125255486D01*
X116464702Y-125256795D01*
X116464696Y-125256796D01*
X116356732Y-125288265D01*
X116215410Y-125329457D01*
X116211163Y-125331415D01*
X116211160Y-125331416D01*
X116120950Y-125373004D01*
X115975348Y-125440127D01*
X115956549Y-125452452D01*
X115758195Y-125582499D01*
X115758190Y-125582503D01*
X115754282Y-125585065D01*
X115557067Y-125761086D01*
X115388036Y-125964324D01*
X115250901Y-126190314D01*
X115249095Y-126194622D01*
X115249094Y-126194623D01*
X115174814Y-126371762D01*
X115148677Y-126434091D01*
X115147526Y-126438623D01*
X115147525Y-126438626D01*
X115136226Y-126483116D01*
X115083608Y-126690301D01*
X115083139Y-126694959D01*
X115059366Y-126931049D01*
X115045271Y-126965739D01*
X114822427Y-126965739D01*
X114810156Y-126941632D01*
X114808000Y-126918425D01*
X114808000Y-118100000D01*
X133301502Y-118100000D01*
X133321457Y-118328087D01*
X133380716Y-118549243D01*
X133383039Y-118554224D01*
X133383039Y-118554225D01*
X133475151Y-118751762D01*
X133475154Y-118751767D01*
X133477477Y-118756749D01*
X133608802Y-118944300D01*
X133770700Y-119106198D01*
X133775208Y-119109355D01*
X133775211Y-119109357D01*
X133804274Y-119129707D01*
X133958251Y-119237523D01*
X133963233Y-119239846D01*
X133963238Y-119239849D01*
X134159765Y-119331490D01*
X134165757Y-119334284D01*
X134171065Y-119335706D01*
X134171067Y-119335707D01*
X134381598Y-119392119D01*
X134381600Y-119392119D01*
X134386913Y-119393543D01*
X134615000Y-119413498D01*
X134843087Y-119393543D01*
X134848400Y-119392119D01*
X134848402Y-119392119D01*
X135058933Y-119335707D01*
X135058935Y-119335706D01*
X135064243Y-119334284D01*
X135070235Y-119331490D01*
X135266762Y-119239849D01*
X135266767Y-119239846D01*
X135271749Y-119237523D01*
X135425726Y-119129707D01*
X135454789Y-119109357D01*
X135454792Y-119109355D01*
X135459300Y-119106198D01*
X135621198Y-118944300D01*
X135752523Y-118756749D01*
X135754846Y-118751767D01*
X135754849Y-118751762D01*
X135770805Y-118717543D01*
X135817722Y-118664258D01*
X135885999Y-118644797D01*
X135953959Y-118665339D01*
X135999195Y-118717543D01*
X136015151Y-118751762D01*
X136015154Y-118751767D01*
X136017477Y-118756749D01*
X136148802Y-118944300D01*
X136310700Y-119106198D01*
X136315208Y-119109355D01*
X136315211Y-119109357D01*
X136344274Y-119129707D01*
X136498251Y-119237523D01*
X136503233Y-119239846D01*
X136503238Y-119239849D01*
X136699765Y-119331490D01*
X136705757Y-119334284D01*
X136711065Y-119335706D01*
X136711067Y-119335707D01*
X136921598Y-119392119D01*
X136921600Y-119392119D01*
X136926913Y-119393543D01*
X137155000Y-119413498D01*
X137383087Y-119393543D01*
X137388400Y-119392119D01*
X137388402Y-119392119D01*
X137598933Y-119335707D01*
X137598935Y-119335706D01*
X137604243Y-119334284D01*
X137610235Y-119331490D01*
X137806762Y-119239849D01*
X137806767Y-119239846D01*
X137811749Y-119237523D01*
X137965726Y-119129707D01*
X137994789Y-119109357D01*
X137994792Y-119109355D01*
X137999300Y-119106198D01*
X138161198Y-118944300D01*
X138292523Y-118756749D01*
X138294846Y-118751767D01*
X138294849Y-118751762D01*
X138310805Y-118717543D01*
X138357722Y-118664258D01*
X138425999Y-118644797D01*
X138493959Y-118665339D01*
X138539195Y-118717543D01*
X138555151Y-118751762D01*
X138555154Y-118751767D01*
X138557477Y-118756749D01*
X138688802Y-118944300D01*
X138850700Y-119106198D01*
X138855208Y-119109355D01*
X138855211Y-119109357D01*
X138884274Y-119129707D01*
X139038251Y-119237523D01*
X139043233Y-119239846D01*
X139043238Y-119239849D01*
X139239765Y-119331490D01*
X139245757Y-119334284D01*
X139251065Y-119335706D01*
X139251067Y-119335707D01*
X139461598Y-119392119D01*
X139461600Y-119392119D01*
X139466913Y-119393543D01*
X139695000Y-119413498D01*
X139923087Y-119393543D01*
X139928400Y-119392119D01*
X139928402Y-119392119D01*
X140138933Y-119335707D01*
X140138935Y-119335706D01*
X140144243Y-119334284D01*
X140150235Y-119331490D01*
X140346762Y-119239849D01*
X140346767Y-119239846D01*
X140351749Y-119237523D01*
X140505726Y-119129707D01*
X140534789Y-119109357D01*
X140534792Y-119109355D01*
X140539300Y-119106198D01*
X140701198Y-118944300D01*
X140832523Y-118756749D01*
X140834846Y-118751767D01*
X140834849Y-118751762D01*
X140850805Y-118717543D01*
X140897722Y-118664258D01*
X140965999Y-118644797D01*
X141033959Y-118665339D01*
X141079195Y-118717543D01*
X141095151Y-118751762D01*
X141095154Y-118751767D01*
X141097477Y-118756749D01*
X141228802Y-118944300D01*
X141390700Y-119106198D01*
X141395208Y-119109355D01*
X141395211Y-119109357D01*
X141424274Y-119129707D01*
X141578251Y-119237523D01*
X141583233Y-119239846D01*
X141583238Y-119239849D01*
X141779765Y-119331490D01*
X141785757Y-119334284D01*
X141791065Y-119335706D01*
X141791067Y-119335707D01*
X142001598Y-119392119D01*
X142001600Y-119392119D01*
X142006913Y-119393543D01*
X142235000Y-119413498D01*
X142463087Y-119393543D01*
X142468400Y-119392119D01*
X142468402Y-119392119D01*
X142678933Y-119335707D01*
X142678935Y-119335706D01*
X142684243Y-119334284D01*
X142690235Y-119331490D01*
X142886762Y-119239849D01*
X142886767Y-119239846D01*
X142891749Y-119237523D01*
X143045726Y-119129707D01*
X143074789Y-119109357D01*
X143074792Y-119109355D01*
X143079300Y-119106198D01*
X143241198Y-118944300D01*
X143372523Y-118756749D01*
X143374846Y-118751767D01*
X143374849Y-118751762D01*
X143391081Y-118716951D01*
X143437998Y-118663666D01*
X143506275Y-118644205D01*
X143574235Y-118664747D01*
X143619471Y-118716951D01*
X143635586Y-118751511D01*
X143641069Y-118761007D01*
X143766028Y-118939467D01*
X143773084Y-118947875D01*
X143927125Y-119101916D01*
X143935533Y-119108972D01*
X144113993Y-119233931D01*
X144123489Y-119239414D01*
X144320947Y-119331490D01*
X144331239Y-119335236D01*
X144503503Y-119381394D01*
X144517599Y-119381058D01*
X144521000Y-119373116D01*
X144521000Y-116832033D01*
X144517027Y-116818502D01*
X144508478Y-116817273D01*
X144331239Y-116864764D01*
X144320947Y-116868510D01*
X144123489Y-116960586D01*
X144113993Y-116966069D01*
X143935533Y-117091028D01*
X143927125Y-117098084D01*
X143773084Y-117252125D01*
X143766028Y-117260533D01*
X143641069Y-117438993D01*
X143635586Y-117448489D01*
X143619471Y-117483049D01*
X143572554Y-117536334D01*
X143504277Y-117555795D01*
X143436317Y-117535253D01*
X143391081Y-117483049D01*
X143374849Y-117448238D01*
X143374846Y-117448233D01*
X143372523Y-117443251D01*
X143241198Y-117255700D01*
X143079300Y-117093802D01*
X143074792Y-117090645D01*
X143074789Y-117090643D01*
X142996611Y-117035902D01*
X142891749Y-116962477D01*
X142886767Y-116960154D01*
X142886762Y-116960151D01*
X142689225Y-116868039D01*
X142689224Y-116868039D01*
X142684243Y-116865716D01*
X142678935Y-116864294D01*
X142678933Y-116864293D01*
X142468402Y-116807881D01*
X142468400Y-116807881D01*
X142463087Y-116806457D01*
X142235000Y-116786502D01*
X142006913Y-116806457D01*
X142001600Y-116807881D01*
X142001598Y-116807881D01*
X141791067Y-116864293D01*
X141791065Y-116864294D01*
X141785757Y-116865716D01*
X141780776Y-116868039D01*
X141780775Y-116868039D01*
X141583238Y-116960151D01*
X141583233Y-116960154D01*
X141578251Y-116962477D01*
X141473389Y-117035902D01*
X141395211Y-117090643D01*
X141395208Y-117090645D01*
X141390700Y-117093802D01*
X141228802Y-117255700D01*
X141097477Y-117443251D01*
X141095154Y-117448233D01*
X141095151Y-117448238D01*
X141079195Y-117482457D01*
X141032278Y-117535742D01*
X140964001Y-117555203D01*
X140896041Y-117534661D01*
X140850805Y-117482457D01*
X140834849Y-117448238D01*
X140834846Y-117448233D01*
X140832523Y-117443251D01*
X140701198Y-117255700D01*
X140539300Y-117093802D01*
X140534792Y-117090645D01*
X140534789Y-117090643D01*
X140456611Y-117035902D01*
X140351749Y-116962477D01*
X140346767Y-116960154D01*
X140346762Y-116960151D01*
X140149225Y-116868039D01*
X140149224Y-116868039D01*
X140144243Y-116865716D01*
X140138935Y-116864294D01*
X140138933Y-116864293D01*
X139928402Y-116807881D01*
X139928400Y-116807881D01*
X139923087Y-116806457D01*
X139695000Y-116786502D01*
X139466913Y-116806457D01*
X139461600Y-116807881D01*
X139461598Y-116807881D01*
X139251067Y-116864293D01*
X139251065Y-116864294D01*
X139245757Y-116865716D01*
X139240776Y-116868039D01*
X139240775Y-116868039D01*
X139043238Y-116960151D01*
X139043233Y-116960154D01*
X139038251Y-116962477D01*
X138933389Y-117035902D01*
X138855211Y-117090643D01*
X138855208Y-117090645D01*
X138850700Y-117093802D01*
X138688802Y-117255700D01*
X138557477Y-117443251D01*
X138555154Y-117448233D01*
X138555151Y-117448238D01*
X138539195Y-117482457D01*
X138492278Y-117535742D01*
X138424001Y-117555203D01*
X138356041Y-117534661D01*
X138310805Y-117482457D01*
X138294849Y-117448238D01*
X138294846Y-117448233D01*
X138292523Y-117443251D01*
X138161198Y-117255700D01*
X137999300Y-117093802D01*
X137994792Y-117090645D01*
X137994789Y-117090643D01*
X137916611Y-117035902D01*
X137811749Y-116962477D01*
X137806767Y-116960154D01*
X137806762Y-116960151D01*
X137609225Y-116868039D01*
X137609224Y-116868039D01*
X137604243Y-116865716D01*
X137598935Y-116864294D01*
X137598933Y-116864293D01*
X137388402Y-116807881D01*
X137388400Y-116807881D01*
X137383087Y-116806457D01*
X137155000Y-116786502D01*
X136926913Y-116806457D01*
X136921600Y-116807881D01*
X136921598Y-116807881D01*
X136711067Y-116864293D01*
X136711065Y-116864294D01*
X136705757Y-116865716D01*
X136700776Y-116868039D01*
X136700775Y-116868039D01*
X136503238Y-116960151D01*
X136503233Y-116960154D01*
X136498251Y-116962477D01*
X136393389Y-117035902D01*
X136315211Y-117090643D01*
X136315208Y-117090645D01*
X136310700Y-117093802D01*
X136148802Y-117255700D01*
X136017477Y-117443251D01*
X136015154Y-117448233D01*
X136015151Y-117448238D01*
X135999195Y-117482457D01*
X135952278Y-117535742D01*
X135884001Y-117555203D01*
X135816041Y-117534661D01*
X135770805Y-117482457D01*
X135754849Y-117448238D01*
X135754846Y-117448233D01*
X135752523Y-117443251D01*
X135621198Y-117255700D01*
X135459300Y-117093802D01*
X135454792Y-117090645D01*
X135454789Y-117090643D01*
X135376611Y-117035902D01*
X135271749Y-116962477D01*
X135266767Y-116960154D01*
X135266762Y-116960151D01*
X135069225Y-116868039D01*
X135069224Y-116868039D01*
X135064243Y-116865716D01*
X135058935Y-116864294D01*
X135058933Y-116864293D01*
X134848402Y-116807881D01*
X134848400Y-116807881D01*
X134843087Y-116806457D01*
X134615000Y-116786502D01*
X134386913Y-116806457D01*
X134381600Y-116807881D01*
X134381598Y-116807881D01*
X134171067Y-116864293D01*
X134171065Y-116864294D01*
X134165757Y-116865716D01*
X134160776Y-116868039D01*
X134160775Y-116868039D01*
X133963238Y-116960151D01*
X133963233Y-116960154D01*
X133958251Y-116962477D01*
X133853389Y-117035902D01*
X133775211Y-117090643D01*
X133775208Y-117090645D01*
X133770700Y-117093802D01*
X133608802Y-117255700D01*
X133477477Y-117443251D01*
X133475154Y-117448233D01*
X133475151Y-117448238D01*
X133386745Y-117637828D01*
X133380716Y-117650757D01*
X133379294Y-117656065D01*
X133379293Y-117656067D01*
X133345000Y-117784050D01*
X133321457Y-117871913D01*
X133301502Y-118100000D01*
X114808000Y-118100000D01*
X114808000Y-116858134D01*
X118911500Y-116858134D01*
X118918255Y-116920316D01*
X118969385Y-117056705D01*
X119056739Y-117173261D01*
X119173295Y-117260615D01*
X119309684Y-117311745D01*
X119371866Y-117318500D01*
X121668134Y-117318500D01*
X121730316Y-117311745D01*
X121866705Y-117260615D01*
X121983261Y-117173261D01*
X122070615Y-117056705D01*
X122121745Y-116920316D01*
X122128500Y-116858134D01*
X122128500Y-114961866D01*
X122121745Y-114899684D01*
X122070615Y-114763295D01*
X121983261Y-114646739D01*
X121866705Y-114559385D01*
X121730316Y-114508255D01*
X121668134Y-114501500D01*
X119371866Y-114501500D01*
X119309684Y-114508255D01*
X119173295Y-114559385D01*
X119056739Y-114646739D01*
X118969385Y-114763295D01*
X118918255Y-114899684D01*
X118911500Y-114961866D01*
X118911500Y-116858134D01*
X114808000Y-116858134D01*
X114808000Y-114208134D01*
X122611500Y-114208134D01*
X122618255Y-114270316D01*
X122669385Y-114406705D01*
X122756739Y-114523261D01*
X122873295Y-114610615D01*
X123009684Y-114661745D01*
X123071866Y-114668500D01*
X124468134Y-114668500D01*
X124530316Y-114661745D01*
X124557596Y-114651518D01*
X124601826Y-114643500D01*
X155730255Y-114643500D01*
X155741438Y-114644027D01*
X155748931Y-114645702D01*
X155756857Y-114645453D01*
X155756858Y-114645453D01*
X155817008Y-114643562D01*
X155820967Y-114643500D01*
X155848878Y-114643500D01*
X155852813Y-114643003D01*
X155852878Y-114642995D01*
X155864715Y-114642062D01*
X155896973Y-114641048D01*
X155900992Y-114640922D01*
X155908911Y-114640673D01*
X155928365Y-114635021D01*
X155947722Y-114631013D01*
X155959952Y-114629468D01*
X155959953Y-114629468D01*
X155967819Y-114628474D01*
X155975190Y-114625555D01*
X155975192Y-114625555D01*
X156008934Y-114612196D01*
X156020164Y-114608351D01*
X156055005Y-114598229D01*
X156055006Y-114598229D01*
X156062615Y-114596018D01*
X156069434Y-114591985D01*
X156069439Y-114591983D01*
X156080050Y-114585707D01*
X156097798Y-114577012D01*
X156116639Y-114569552D01*
X156152409Y-114543564D01*
X156162329Y-114537048D01*
X156193557Y-114518580D01*
X156193560Y-114518578D01*
X156200384Y-114514542D01*
X156214705Y-114500221D01*
X156229739Y-114487380D01*
X156239716Y-114480131D01*
X156246129Y-114475472D01*
X156274320Y-114441395D01*
X156282310Y-114432616D01*
X169302253Y-101412674D01*
X169310539Y-101405134D01*
X169317018Y-101401022D01*
X169363644Y-101351370D01*
X169366398Y-101348529D01*
X169386135Y-101328792D01*
X169388615Y-101325595D01*
X169396320Y-101316573D01*
X169421159Y-101290122D01*
X169426586Y-101284343D01*
X169430405Y-101277397D01*
X169430407Y-101277394D01*
X169436348Y-101266588D01*
X169447199Y-101250069D01*
X169454758Y-101240323D01*
X169459614Y-101234063D01*
X169462759Y-101226794D01*
X169462762Y-101226790D01*
X169477174Y-101193485D01*
X169482391Y-101182835D01*
X169503695Y-101144082D01*
X169508733Y-101124459D01*
X169515137Y-101105756D01*
X169520033Y-101094442D01*
X169520033Y-101094441D01*
X169523181Y-101087167D01*
X169524420Y-101079344D01*
X169524423Y-101079334D01*
X169530099Y-101043498D01*
X169532505Y-101031878D01*
X169541528Y-100996733D01*
X169541528Y-100996732D01*
X169543500Y-100989052D01*
X169543500Y-100968798D01*
X169545051Y-100949087D01*
X169546980Y-100936908D01*
X169548220Y-100929079D01*
X169544059Y-100885060D01*
X169543500Y-100873203D01*
X169543500Y-92209745D01*
X169544027Y-92198562D01*
X169545702Y-92191069D01*
X169545435Y-92182555D01*
X169543562Y-92122979D01*
X169543500Y-92119021D01*
X169543500Y-92091122D01*
X169542996Y-92087131D01*
X169542063Y-92075289D01*
X169541946Y-92071542D01*
X169540674Y-92031089D01*
X169538462Y-92023475D01*
X169538461Y-92023470D01*
X169535023Y-92011637D01*
X169531012Y-91992273D01*
X169529467Y-91980042D01*
X169528474Y-91972181D01*
X169525557Y-91964814D01*
X169525556Y-91964809D01*
X169512198Y-91931070D01*
X169508354Y-91919843D01*
X169498230Y-91885000D01*
X169496018Y-91877385D01*
X169491697Y-91870078D01*
X169485707Y-91859950D01*
X169477012Y-91842202D01*
X169469552Y-91823361D01*
X169443564Y-91787591D01*
X169437048Y-91777671D01*
X169418580Y-91746443D01*
X169418578Y-91746440D01*
X169414542Y-91739616D01*
X169400221Y-91725295D01*
X169387380Y-91710261D01*
X169380131Y-91700284D01*
X169375472Y-91693871D01*
X169341395Y-91665680D01*
X169332616Y-91657690D01*
X166182674Y-88507747D01*
X166175134Y-88499461D01*
X166171022Y-88492982D01*
X166121370Y-88446356D01*
X166118529Y-88443602D01*
X166098792Y-88423865D01*
X166095595Y-88421385D01*
X166086573Y-88413680D01*
X166060122Y-88388841D01*
X166054343Y-88383414D01*
X166047397Y-88379595D01*
X166047394Y-88379593D01*
X166036588Y-88373652D01*
X166020069Y-88362801D01*
X166019605Y-88362441D01*
X166004063Y-88350386D01*
X165996794Y-88347241D01*
X165996790Y-88347238D01*
X165963485Y-88332826D01*
X165952835Y-88327609D01*
X165914082Y-88306305D01*
X165894459Y-88301267D01*
X165875756Y-88294863D01*
X165864442Y-88289967D01*
X165864441Y-88289967D01*
X165857167Y-88286819D01*
X165849344Y-88285580D01*
X165849334Y-88285577D01*
X165813498Y-88279901D01*
X165801878Y-88277495D01*
X165766733Y-88268472D01*
X165766732Y-88268472D01*
X165759052Y-88266500D01*
X165738798Y-88266500D01*
X165719087Y-88264949D01*
X165706908Y-88263020D01*
X165699079Y-88261780D01*
X165691187Y-88262526D01*
X165655061Y-88265941D01*
X165643203Y-88266500D01*
X160334595Y-88266500D01*
X160266474Y-88246498D01*
X160245500Y-88229595D01*
X158110652Y-86094747D01*
X158103112Y-86086461D01*
X158099000Y-86079982D01*
X158049348Y-86033356D01*
X158046507Y-86030602D01*
X158026770Y-86010865D01*
X158023573Y-86008385D01*
X158014551Y-86000680D01*
X157988100Y-85975841D01*
X157982321Y-85970414D01*
X157975375Y-85966595D01*
X157975372Y-85966593D01*
X157964566Y-85960652D01*
X157948047Y-85949801D01*
X157947583Y-85949441D01*
X157932041Y-85937386D01*
X157924772Y-85934241D01*
X157924768Y-85934238D01*
X157891463Y-85919826D01*
X157880813Y-85914609D01*
X157842060Y-85893305D01*
X157822437Y-85888267D01*
X157803734Y-85881863D01*
X157792420Y-85876967D01*
X157792419Y-85876967D01*
X157785145Y-85873819D01*
X157777322Y-85872580D01*
X157777312Y-85872577D01*
X157741476Y-85866901D01*
X157729856Y-85864495D01*
X157694711Y-85855472D01*
X157694710Y-85855472D01*
X157687030Y-85853500D01*
X157666776Y-85853500D01*
X157647065Y-85851949D01*
X157634886Y-85850020D01*
X157627057Y-85848780D01*
X157619165Y-85849526D01*
X157583039Y-85852941D01*
X157571181Y-85853500D01*
X156129904Y-85853500D01*
X156061783Y-85833498D01*
X156022185Y-85792866D01*
X155979334Y-85722249D01*
X155951051Y-85675641D01*
X155884441Y-85598879D01*
X155801939Y-85503803D01*
X155801937Y-85503801D01*
X155798439Y-85499770D01*
X155794313Y-85496387D01*
X155794309Y-85496383D01*
X155622504Y-85355513D01*
X155618376Y-85352128D01*
X155613740Y-85349489D01*
X155613737Y-85349487D01*
X155572748Y-85326155D01*
X155523442Y-85275073D01*
X155509580Y-85205442D01*
X155535563Y-85139371D01*
X155564713Y-85112133D01*
X155689301Y-85028255D01*
X155701272Y-85020196D01*
X155869758Y-84859468D01*
X156008754Y-84672650D01*
X156084989Y-84522707D01*
X156111867Y-84469842D01*
X156111867Y-84469841D01*
X156114286Y-84465084D01*
X156180037Y-84253333D01*
X156181753Y-84247807D01*
X156181754Y-84247801D01*
X156183337Y-84242704D01*
X156210800Y-84035501D01*
X156213232Y-84017152D01*
X156213232Y-84017148D01*
X156213932Y-84011868D01*
X156205197Y-83779178D01*
X156172743Y-83624507D01*
X156158477Y-83556514D01*
X156158476Y-83556511D01*
X156157380Y-83551287D01*
X156071850Y-83334710D01*
X155951051Y-83135641D01*
X155798439Y-82959770D01*
X155794313Y-82956387D01*
X155794309Y-82956383D01*
X155622504Y-82815513D01*
X155618376Y-82812128D01*
X155613740Y-82809489D01*
X155613737Y-82809487D01*
X155572748Y-82786155D01*
X155523442Y-82735073D01*
X155509580Y-82665442D01*
X155535563Y-82599371D01*
X155564713Y-82572133D01*
X155616842Y-82537037D01*
X155701272Y-82480196D01*
X155869758Y-82319468D01*
X156008754Y-82132650D01*
X156020578Y-82109394D01*
X156069281Y-82057737D01*
X156132894Y-82040500D01*
X157292406Y-82040500D01*
X157360527Y-82060502D01*
X157381501Y-82077405D01*
X160786343Y-85482247D01*
X160793887Y-85490537D01*
X160798000Y-85497018D01*
X160803777Y-85502443D01*
X160847667Y-85543658D01*
X160850509Y-85546413D01*
X160870231Y-85566135D01*
X160873355Y-85568558D01*
X160873359Y-85568562D01*
X160873424Y-85568612D01*
X160882445Y-85576317D01*
X160914679Y-85606586D01*
X160921627Y-85610405D01*
X160921629Y-85610407D01*
X160932432Y-85616346D01*
X160948959Y-85627202D01*
X160958698Y-85634757D01*
X160958700Y-85634758D01*
X160964960Y-85639614D01*
X161005540Y-85657174D01*
X161016188Y-85662391D01*
X161040976Y-85676018D01*
X161054940Y-85683695D01*
X161062616Y-85685666D01*
X161062619Y-85685667D01*
X161074562Y-85688733D01*
X161093266Y-85695137D01*
X161100740Y-85698371D01*
X161111855Y-85703181D01*
X161119678Y-85704420D01*
X161119688Y-85704423D01*
X161155524Y-85710099D01*
X161167144Y-85712505D01*
X161198959Y-85720673D01*
X161209970Y-85723500D01*
X161230224Y-85723500D01*
X161249934Y-85725051D01*
X161269943Y-85728220D01*
X161277835Y-85727474D01*
X161296580Y-85725702D01*
X161313962Y-85724059D01*
X161325819Y-85723500D01*
X164386233Y-85723500D01*
X164397416Y-85724027D01*
X164404909Y-85725702D01*
X164412835Y-85725453D01*
X164412836Y-85725453D01*
X164472986Y-85723562D01*
X164476945Y-85723500D01*
X164504856Y-85723500D01*
X164508791Y-85723003D01*
X164508856Y-85722995D01*
X164520693Y-85722062D01*
X164552951Y-85721048D01*
X164556970Y-85720922D01*
X164564889Y-85720673D01*
X164584343Y-85715021D01*
X164603700Y-85711013D01*
X164615930Y-85709468D01*
X164615931Y-85709468D01*
X164623797Y-85708474D01*
X164631168Y-85705555D01*
X164631170Y-85705555D01*
X164664912Y-85692196D01*
X164676142Y-85688351D01*
X164692481Y-85683604D01*
X164718593Y-85676018D01*
X164718836Y-85675874D01*
X164785920Y-85667594D01*
X164849899Y-85698371D01*
X164887081Y-85758852D01*
X164891500Y-85791928D01*
X164891500Y-87378134D01*
X164898255Y-87440316D01*
X164949385Y-87576705D01*
X165036739Y-87693261D01*
X165153295Y-87780615D01*
X165289684Y-87831745D01*
X165351866Y-87838500D01*
X167648134Y-87838500D01*
X167710316Y-87831745D01*
X167846705Y-87780615D01*
X167963261Y-87693261D01*
X168050615Y-87576705D01*
X168101745Y-87440316D01*
X168108500Y-87378134D01*
X168108500Y-85481866D01*
X168101745Y-85419684D01*
X168050615Y-85283295D01*
X167963261Y-85166739D01*
X167846705Y-85079385D01*
X167710316Y-85028255D01*
X167648134Y-85021500D01*
X165733594Y-85021500D01*
X165665473Y-85001498D01*
X165618980Y-84947842D01*
X165608876Y-84877568D01*
X165638370Y-84812988D01*
X165644499Y-84806405D01*
X166103222Y-84347683D01*
X166762253Y-83688652D01*
X166770539Y-83681112D01*
X166777018Y-83677000D01*
X166801156Y-83651296D01*
X166823643Y-83627349D01*
X166826398Y-83624507D01*
X166846135Y-83604770D01*
X166848615Y-83601573D01*
X166856320Y-83592551D01*
X166881159Y-83566100D01*
X166886586Y-83560321D01*
X166890405Y-83553375D01*
X166890407Y-83553372D01*
X166896348Y-83542566D01*
X166907199Y-83526047D01*
X166914758Y-83516301D01*
X166919614Y-83510041D01*
X166922759Y-83502772D01*
X166922762Y-83502768D01*
X166937174Y-83469463D01*
X166942391Y-83458813D01*
X166963695Y-83420060D01*
X166968733Y-83400437D01*
X166975137Y-83381734D01*
X166980033Y-83370420D01*
X166980033Y-83370419D01*
X166983181Y-83363145D01*
X166984420Y-83355322D01*
X166984423Y-83355312D01*
X166990099Y-83319476D01*
X166992505Y-83307856D01*
X167001528Y-83272711D01*
X167001528Y-83272710D01*
X167003500Y-83265030D01*
X167003500Y-83244776D01*
X167005051Y-83225065D01*
X167006980Y-83212886D01*
X167008220Y-83205057D01*
X167004059Y-83161038D01*
X167003500Y-83149181D01*
X167003500Y-80723763D01*
X167004027Y-80712579D01*
X167005701Y-80705091D01*
X167003562Y-80637032D01*
X167003500Y-80633075D01*
X167003500Y-80605144D01*
X167002994Y-80601138D01*
X167002061Y-80589292D01*
X167000922Y-80553037D01*
X167000673Y-80545110D01*
X166995022Y-80525658D01*
X166991014Y-80506306D01*
X166989467Y-80494063D01*
X166988474Y-80486203D01*
X166985556Y-80478832D01*
X166972200Y-80445097D01*
X166968355Y-80433870D01*
X166963274Y-80416383D01*
X166956018Y-80391407D01*
X166951984Y-80384585D01*
X166951981Y-80384579D01*
X166945706Y-80373968D01*
X166937010Y-80356218D01*
X166932472Y-80344756D01*
X166932469Y-80344751D01*
X166929552Y-80337383D01*
X166903573Y-80301625D01*
X166897057Y-80291707D01*
X166878575Y-80260457D01*
X166874542Y-80253637D01*
X166860218Y-80239313D01*
X166847376Y-80224278D01*
X166835472Y-80207893D01*
X166801406Y-80179711D01*
X166792627Y-80171722D01*
X166258652Y-79637747D01*
X166251112Y-79629461D01*
X166247000Y-79622982D01*
X166197348Y-79576356D01*
X166194507Y-79573602D01*
X166174770Y-79553865D01*
X166171573Y-79551385D01*
X166162551Y-79543680D01*
X166136100Y-79518841D01*
X166130321Y-79513414D01*
X166123375Y-79509595D01*
X166123372Y-79509593D01*
X166112566Y-79503652D01*
X166096047Y-79492801D01*
X166095583Y-79492441D01*
X166080041Y-79480386D01*
X166072772Y-79477241D01*
X166072768Y-79477238D01*
X166039463Y-79462826D01*
X166028813Y-79457609D01*
X165990060Y-79436305D01*
X165970437Y-79431267D01*
X165951734Y-79424863D01*
X165940420Y-79419967D01*
X165940419Y-79419967D01*
X165933145Y-79416819D01*
X165925322Y-79415580D01*
X165925312Y-79415577D01*
X165889476Y-79409901D01*
X165877856Y-79407495D01*
X165842711Y-79398472D01*
X165842710Y-79398472D01*
X165835030Y-79396500D01*
X165814776Y-79396500D01*
X165795065Y-79394949D01*
X165782886Y-79393020D01*
X165775057Y-79391780D01*
X165767165Y-79392526D01*
X165731039Y-79395941D01*
X165719181Y-79396500D01*
X164530639Y-79396500D01*
X164462518Y-79376498D01*
X164416025Y-79322842D01*
X164405376Y-79256893D01*
X164408131Y-79231533D01*
X164408131Y-79231529D01*
X164408500Y-79228134D01*
X164408500Y-78831866D01*
X164404344Y-78793606D01*
X164404344Y-78766393D01*
X164408131Y-78731533D01*
X164408131Y-78731529D01*
X164408500Y-78728134D01*
X164408500Y-78331866D01*
X164404344Y-78293606D01*
X164404344Y-78266393D01*
X164408131Y-78231533D01*
X164408131Y-78231529D01*
X164408500Y-78228134D01*
X164408500Y-77831866D01*
X164401745Y-77769684D01*
X164350615Y-77633295D01*
X164263261Y-77516739D01*
X164146705Y-77429385D01*
X164010316Y-77378255D01*
X163948134Y-77371500D01*
X162551866Y-77371500D01*
X162489684Y-77378255D01*
X162353295Y-77429385D01*
X162236739Y-77516739D01*
X162149385Y-77633295D01*
X162098255Y-77769684D01*
X162091500Y-77831866D01*
X162091500Y-78228134D01*
X162091869Y-78231529D01*
X162091869Y-78231533D01*
X162095656Y-78266393D01*
X162095656Y-78293606D01*
X162091500Y-78331866D01*
X162091500Y-78728134D01*
X162091869Y-78731529D01*
X162091869Y-78731533D01*
X162095656Y-78766393D01*
X162095656Y-78793606D01*
X162091500Y-78831866D01*
X162091500Y-79228134D01*
X162091869Y-79231529D01*
X162091869Y-79231533D01*
X162095656Y-79266393D01*
X162095656Y-79293606D01*
X162091500Y-79331866D01*
X162091500Y-79728134D01*
X162095345Y-79763526D01*
X162095656Y-79766393D01*
X162095656Y-79793606D01*
X162091500Y-79831866D01*
X162091500Y-80228134D01*
X162095909Y-80268720D01*
X162095909Y-80295933D01*
X162092369Y-80328517D01*
X162092000Y-80335328D01*
X162092000Y-80361885D01*
X162096475Y-80377124D01*
X162122170Y-80399389D01*
X162121712Y-80399918D01*
X162134100Y-80406682D01*
X162149207Y-80426839D01*
X162149385Y-80426705D01*
X162188997Y-80479559D01*
X162213845Y-80546065D01*
X162198792Y-80615448D01*
X162148618Y-80665678D01*
X162123670Y-80676020D01*
X162094877Y-80684475D01*
X162093672Y-80685865D01*
X162092001Y-80693548D01*
X162092001Y-80724669D01*
X162092371Y-80731493D01*
X162096161Y-80766393D01*
X162096161Y-80793603D01*
X162092369Y-80828510D01*
X162092000Y-80835329D01*
X162092000Y-80861885D01*
X162096475Y-80877124D01*
X162097865Y-80878329D01*
X162105548Y-80880000D01*
X163081885Y-80880000D01*
X163097124Y-80875525D01*
X163098329Y-80874135D01*
X163100000Y-80866452D01*
X163100000Y-80814500D01*
X163120002Y-80746379D01*
X163173658Y-80699886D01*
X163226000Y-80688500D01*
X163274000Y-80688500D01*
X163342121Y-80708502D01*
X163388614Y-80762158D01*
X163400000Y-80814500D01*
X163400000Y-80861885D01*
X163404475Y-80877124D01*
X163405865Y-80878329D01*
X163413548Y-80880000D01*
X164389884Y-80880000D01*
X164405123Y-80875525D01*
X164406328Y-80874135D01*
X164407999Y-80866452D01*
X164407999Y-80835331D01*
X164407630Y-80828512D01*
X164404870Y-80803106D01*
X164417399Y-80733224D01*
X164465720Y-80681209D01*
X164530133Y-80663500D01*
X165440406Y-80663500D01*
X165508527Y-80683502D01*
X165529501Y-80700405D01*
X165699595Y-80870499D01*
X165733621Y-80932811D01*
X165736500Y-80959594D01*
X165736500Y-82870406D01*
X165716498Y-82938527D01*
X165699595Y-82959501D01*
X164623595Y-84035501D01*
X164561283Y-84069527D01*
X164490468Y-84064462D01*
X164433632Y-84021915D01*
X164408821Y-83955395D01*
X164408500Y-83946406D01*
X164408500Y-83831866D01*
X164404344Y-83793606D01*
X164404344Y-83766393D01*
X164408131Y-83731533D01*
X164408131Y-83731529D01*
X164408500Y-83728134D01*
X164408500Y-83331866D01*
X164404344Y-83293606D01*
X164404344Y-83266393D01*
X164408131Y-83231533D01*
X164408131Y-83231529D01*
X164408500Y-83228134D01*
X164408500Y-82831866D01*
X164404344Y-82793606D01*
X164404344Y-82766393D01*
X164408131Y-82731533D01*
X164408131Y-82731529D01*
X164408500Y-82728134D01*
X164408500Y-82331866D01*
X164404091Y-82291280D01*
X164404091Y-82264067D01*
X164407631Y-82231483D01*
X164408000Y-82224672D01*
X164408000Y-82198115D01*
X164403525Y-82182876D01*
X164377830Y-82160611D01*
X164378288Y-82160082D01*
X164365900Y-82153318D01*
X164350793Y-82133161D01*
X164350615Y-82133295D01*
X164311003Y-82080441D01*
X164286155Y-82013935D01*
X164301208Y-81944552D01*
X164351382Y-81894322D01*
X164376330Y-81883980D01*
X164405123Y-81875525D01*
X164406328Y-81874135D01*
X164407999Y-81866452D01*
X164407999Y-81835331D01*
X164407630Y-81828525D01*
X164403838Y-81793605D01*
X164403839Y-81766394D01*
X164407631Y-81731488D01*
X164408000Y-81724671D01*
X164408000Y-81698115D01*
X164403525Y-81682876D01*
X164402135Y-81681671D01*
X164394452Y-81680000D01*
X163418115Y-81680000D01*
X163402876Y-81684475D01*
X163401671Y-81685865D01*
X163400000Y-81693548D01*
X163400000Y-81745500D01*
X163379998Y-81813621D01*
X163326342Y-81860114D01*
X163274000Y-81871500D01*
X163226000Y-81871500D01*
X163157879Y-81851498D01*
X163111386Y-81797842D01*
X163100000Y-81745500D01*
X163100000Y-81361885D01*
X163400000Y-81361885D01*
X163404475Y-81377124D01*
X163405865Y-81378329D01*
X163413548Y-81380000D01*
X164389884Y-81380000D01*
X164405123Y-81375525D01*
X164406328Y-81374135D01*
X164407999Y-81366452D01*
X164407999Y-81335331D01*
X164407630Y-81328525D01*
X164403838Y-81293605D01*
X164403839Y-81266394D01*
X164407631Y-81231488D01*
X164408000Y-81224671D01*
X164408000Y-81198115D01*
X164403525Y-81182876D01*
X164402135Y-81181671D01*
X164394452Y-81180000D01*
X163418115Y-81180000D01*
X163402876Y-81184475D01*
X163401671Y-81185865D01*
X163400000Y-81193548D01*
X163400000Y-81361885D01*
X163100000Y-81361885D01*
X163100000Y-81198115D01*
X163095525Y-81182876D01*
X163094135Y-81181671D01*
X163086452Y-81180000D01*
X162110116Y-81180000D01*
X162094877Y-81184475D01*
X162072612Y-81210170D01*
X162071743Y-81209417D01*
X162065647Y-81220581D01*
X162003334Y-81254603D01*
X161932518Y-81249536D01*
X161887461Y-81220578D01*
X161510884Y-80844001D01*
X161476859Y-80781689D01*
X161473980Y-80754906D01*
X161473980Y-77078134D01*
X164891500Y-77078134D01*
X164898255Y-77140316D01*
X164949385Y-77276705D01*
X165036739Y-77393261D01*
X165153295Y-77480615D01*
X165289684Y-77531745D01*
X165351866Y-77538500D01*
X167648134Y-77538500D01*
X167710316Y-77531745D01*
X167846705Y-77480615D01*
X167963261Y-77393261D01*
X168050615Y-77276705D01*
X168101745Y-77140316D01*
X168108500Y-77078134D01*
X168108500Y-75181866D01*
X168101745Y-75119684D01*
X168050615Y-74983295D01*
X167963261Y-74866739D01*
X167846705Y-74779385D01*
X167710316Y-74728255D01*
X167648134Y-74721500D01*
X165351866Y-74721500D01*
X165289684Y-74728255D01*
X165153295Y-74779385D01*
X165036739Y-74866739D01*
X164949385Y-74983295D01*
X164898255Y-75119684D01*
X164891500Y-75181866D01*
X164891500Y-77078134D01*
X161473980Y-77078134D01*
X161473980Y-69928763D01*
X161474507Y-69917579D01*
X161476181Y-69910091D01*
X161474042Y-69842032D01*
X161473980Y-69838075D01*
X161473980Y-69810144D01*
X161473474Y-69806138D01*
X161472541Y-69794292D01*
X161472045Y-69778485D01*
X161471153Y-69750110D01*
X161465502Y-69730658D01*
X161461494Y-69711306D01*
X161459948Y-69699068D01*
X161459947Y-69699066D01*
X161458954Y-69691203D01*
X161442674Y-69650086D01*
X161438839Y-69638885D01*
X161426498Y-69596406D01*
X161422465Y-69589587D01*
X161422463Y-69589582D01*
X161416187Y-69578971D01*
X161407490Y-69561221D01*
X161400032Y-69542383D01*
X161374051Y-69506623D01*
X161367533Y-69496701D01*
X161349058Y-69465460D01*
X161349054Y-69465455D01*
X161345022Y-69458637D01*
X161330698Y-69444313D01*
X161317856Y-69429278D01*
X161305952Y-69412893D01*
X161271886Y-69384711D01*
X161263107Y-69376722D01*
X158804132Y-66917747D01*
X158796592Y-66909461D01*
X158792480Y-66902982D01*
X158742828Y-66856356D01*
X158739987Y-66853602D01*
X158720250Y-66833865D01*
X158717053Y-66831385D01*
X158708031Y-66823680D01*
X158694596Y-66811064D01*
X158675801Y-66793414D01*
X158668855Y-66789595D01*
X158668852Y-66789593D01*
X158658046Y-66783652D01*
X158641527Y-66772801D01*
X158641063Y-66772441D01*
X158625521Y-66760386D01*
X158618252Y-66757241D01*
X158618248Y-66757238D01*
X158584943Y-66742826D01*
X158574293Y-66737609D01*
X158535540Y-66716305D01*
X158515917Y-66711267D01*
X158497214Y-66704863D01*
X158485900Y-66699967D01*
X158485899Y-66699967D01*
X158478625Y-66696819D01*
X158470802Y-66695580D01*
X158470792Y-66695577D01*
X158434956Y-66689901D01*
X158423336Y-66687495D01*
X158388191Y-66678472D01*
X158388190Y-66678472D01*
X158380510Y-66676500D01*
X158360256Y-66676500D01*
X158340545Y-66674949D01*
X158338014Y-66674548D01*
X158320537Y-66671780D01*
X158312645Y-66672526D01*
X158276519Y-66675941D01*
X158264661Y-66676500D01*
X144858763Y-66676500D01*
X144847579Y-66675973D01*
X144840091Y-66674299D01*
X144832168Y-66674548D01*
X144772033Y-66676438D01*
X144768075Y-66676500D01*
X144740144Y-66676500D01*
X144736229Y-66676995D01*
X144736225Y-66676995D01*
X144736167Y-66677003D01*
X144736138Y-66677006D01*
X144724296Y-66677939D01*
X144680110Y-66679327D01*
X144662744Y-66684372D01*
X144660658Y-66684978D01*
X144641306Y-66688986D01*
X144629068Y-66690532D01*
X144629066Y-66690533D01*
X144621203Y-66691526D01*
X144580086Y-66707806D01*
X144568885Y-66711641D01*
X144526406Y-66723982D01*
X144519587Y-66728015D01*
X144519582Y-66728017D01*
X144508971Y-66734293D01*
X144491221Y-66742990D01*
X144472383Y-66750448D01*
X144465967Y-66755109D01*
X144465966Y-66755110D01*
X144436625Y-66776428D01*
X144426701Y-66782947D01*
X144395460Y-66801422D01*
X144395455Y-66801426D01*
X144388637Y-66805458D01*
X144374313Y-66819782D01*
X144359281Y-66832621D01*
X144342893Y-66844528D01*
X144314712Y-66878593D01*
X144306722Y-66887373D01*
X141847747Y-69346348D01*
X141839461Y-69353888D01*
X141832982Y-69358000D01*
X141827557Y-69363777D01*
X141786357Y-69407651D01*
X141783602Y-69410493D01*
X141763865Y-69430230D01*
X141761385Y-69433427D01*
X141753682Y-69442447D01*
X141723414Y-69474679D01*
X141719595Y-69481625D01*
X141719593Y-69481628D01*
X141713652Y-69492434D01*
X141702801Y-69508953D01*
X141690386Y-69524959D01*
X141687241Y-69532228D01*
X141687238Y-69532232D01*
X141672826Y-69565537D01*
X141667609Y-69576187D01*
X141646305Y-69614940D01*
X141644334Y-69622615D01*
X141644334Y-69622616D01*
X141641267Y-69634562D01*
X141634863Y-69653266D01*
X141626819Y-69671855D01*
X141625580Y-69679678D01*
X141625577Y-69679688D01*
X141619901Y-69715524D01*
X141617495Y-69727144D01*
X141613050Y-69744459D01*
X141606500Y-69769970D01*
X141606500Y-69790224D01*
X141604949Y-69809934D01*
X141601780Y-69829943D01*
X141602526Y-69837835D01*
X141605941Y-69873961D01*
X141606500Y-69885819D01*
X141606500Y-79695405D01*
X141586498Y-79763526D01*
X141569595Y-79784500D01*
X140828701Y-80525394D01*
X140766389Y-80559420D01*
X140695574Y-80554355D01*
X140644442Y-80518880D01*
X140587800Y-80453606D01*
X140561939Y-80423803D01*
X140561937Y-80423801D01*
X140558439Y-80419770D01*
X140554313Y-80416387D01*
X140554309Y-80416383D01*
X140382504Y-80275513D01*
X140378376Y-80272128D01*
X140332261Y-80245878D01*
X140282956Y-80194798D01*
X140269094Y-80125168D01*
X140295077Y-80059096D01*
X140324227Y-80031857D01*
X140456530Y-79942785D01*
X140464816Y-79936124D01*
X140625520Y-79782820D01*
X140632569Y-79774852D01*
X140765144Y-79596664D01*
X140770743Y-79587634D01*
X140871402Y-79389653D01*
X140875405Y-79379792D01*
X140941263Y-79167699D01*
X140943548Y-79157304D01*
X140945980Y-79138959D01*
X140943783Y-79124792D01*
X140930599Y-79121000D01*
X137963512Y-79121000D01*
X137949981Y-79124973D01*
X137948456Y-79135580D01*
X137974004Y-79257343D01*
X137977064Y-79267539D01*
X138058637Y-79474097D01*
X138063371Y-79483634D01*
X138178586Y-79673503D01*
X138184850Y-79682093D01*
X138330411Y-79849837D01*
X138338041Y-79857257D01*
X138509780Y-79998073D01*
X138518551Y-80004102D01*
X138559715Y-80027533D01*
X138609022Y-80078615D01*
X138622884Y-80148245D01*
X138596901Y-80214316D01*
X138567751Y-80241555D01*
X138430728Y-80333804D01*
X138426871Y-80337483D01*
X138426869Y-80337485D01*
X138362368Y-80399016D01*
X138262242Y-80494532D01*
X138123246Y-80681350D01*
X138017714Y-80888916D01*
X138001220Y-80942035D01*
X137950247Y-81106193D01*
X137950246Y-81106199D01*
X137948663Y-81111296D01*
X137939176Y-81182876D01*
X137921192Y-81318565D01*
X137918068Y-81342132D01*
X137918268Y-81347462D01*
X137918268Y-81347463D01*
X137919680Y-81385085D01*
X137926803Y-81574822D01*
X137927898Y-81580040D01*
X137951715Y-81693548D01*
X137974620Y-81802713D01*
X138060150Y-82019290D01*
X138180949Y-82218359D01*
X138184446Y-82222389D01*
X138279445Y-82331866D01*
X138333561Y-82394230D01*
X138337687Y-82397613D01*
X138337691Y-82397617D01*
X138433915Y-82476515D01*
X138513624Y-82541872D01*
X138518260Y-82544511D01*
X138518263Y-82544513D01*
X138559252Y-82567845D01*
X138608558Y-82618927D01*
X138622420Y-82688558D01*
X138596437Y-82754629D01*
X138567287Y-82781867D01*
X138430728Y-82873804D01*
X138262242Y-83034532D01*
X138123246Y-83221350D01*
X138017714Y-83428916D01*
X138006817Y-83464011D01*
X137950247Y-83646193D01*
X137950246Y-83646199D01*
X137948663Y-83651296D01*
X137918068Y-83882132D01*
X137926803Y-84114822D01*
X137974620Y-84342713D01*
X138060150Y-84559290D01*
X138180949Y-84758359D01*
X138184446Y-84762389D01*
X138284393Y-84877568D01*
X138333561Y-84934230D01*
X138337687Y-84937613D01*
X138337691Y-84937617D01*
X138433915Y-85016515D01*
X138513624Y-85081872D01*
X138518260Y-85084511D01*
X138518263Y-85084513D01*
X138559252Y-85107845D01*
X138608558Y-85158927D01*
X138622420Y-85228558D01*
X138596437Y-85294629D01*
X138567287Y-85321867D01*
X138430728Y-85413804D01*
X138426871Y-85417483D01*
X138426869Y-85417485D01*
X138385469Y-85456979D01*
X138262242Y-85574532D01*
X138123246Y-85761350D01*
X138120830Y-85766102D01*
X138027433Y-85949801D01*
X138017714Y-85968916D01*
X137997205Y-86034966D01*
X137950247Y-86186193D01*
X137950246Y-86186199D01*
X137948663Y-86191296D01*
X137918068Y-86422132D01*
X137926803Y-86654822D01*
X137974620Y-86882713D01*
X138060150Y-87099290D01*
X138180949Y-87298359D01*
X138184446Y-87302389D01*
X138310553Y-87447715D01*
X138333561Y-87474230D01*
X138337687Y-87477613D01*
X138337691Y-87477617D01*
X138416692Y-87542393D01*
X138513624Y-87621872D01*
X138518260Y-87624511D01*
X138518263Y-87624513D01*
X138559252Y-87647845D01*
X138608558Y-87698927D01*
X138622420Y-87768558D01*
X138596437Y-87834629D01*
X138567287Y-87861867D01*
X138430728Y-87953804D01*
X138262242Y-88114532D01*
X138123246Y-88301350D01*
X138120830Y-88306102D01*
X138059531Y-88426669D01*
X138017714Y-88508916D01*
X137993356Y-88587362D01*
X137950247Y-88726193D01*
X137950246Y-88726199D01*
X137948663Y-88731296D01*
X137918068Y-88962132D01*
X137926803Y-89194822D01*
X137927898Y-89200040D01*
X137966130Y-89382249D01*
X137974620Y-89422713D01*
X138060150Y-89639290D01*
X138180949Y-89838359D01*
X138333561Y-90014230D01*
X138337687Y-90017613D01*
X138337691Y-90017617D01*
X138433915Y-90096515D01*
X138513624Y-90161872D01*
X138518260Y-90164511D01*
X138518263Y-90164513D01*
X138559252Y-90187845D01*
X138608558Y-90238927D01*
X138622420Y-90308558D01*
X138596437Y-90374629D01*
X138567287Y-90401867D01*
X138430728Y-90493804D01*
X138262242Y-90654532D01*
X138123246Y-90841350D01*
X138017714Y-91048916D01*
X137999627Y-91107166D01*
X137950247Y-91266193D01*
X137950246Y-91266199D01*
X137948663Y-91271296D01*
X137947962Y-91276588D01*
X137925906Y-91442998D01*
X137918068Y-91502132D01*
X137926803Y-91734822D01*
X137927898Y-91740040D01*
X137967981Y-91931070D01*
X137974620Y-91962713D01*
X138060150Y-92179290D01*
X138180949Y-92378359D01*
X138333561Y-92554230D01*
X138337687Y-92557613D01*
X138337691Y-92557617D01*
X138433915Y-92636515D01*
X138513624Y-92701872D01*
X138518260Y-92704511D01*
X138518263Y-92704513D01*
X138559252Y-92727845D01*
X138608558Y-92778927D01*
X138622420Y-92848558D01*
X138596437Y-92914629D01*
X138567287Y-92941867D01*
X138430728Y-93033804D01*
X138262242Y-93194532D01*
X138123246Y-93381350D01*
X138017714Y-93588916D01*
X137992728Y-93669385D01*
X137950247Y-93806193D01*
X137950246Y-93806199D01*
X137948663Y-93811296D01*
X137947962Y-93816588D01*
X137922369Y-94009684D01*
X137918068Y-94042132D01*
X137918268Y-94047462D01*
X137918268Y-94047463D01*
X137922435Y-94158477D01*
X137926803Y-94274822D01*
X137974620Y-94502713D01*
X137995141Y-94554676D01*
X138001559Y-94625379D01*
X137967044Y-94690051D01*
X136767747Y-95889348D01*
X136759461Y-95896888D01*
X136752982Y-95901000D01*
X136747557Y-95906777D01*
X136706357Y-95950651D01*
X136703602Y-95953493D01*
X136683865Y-95973230D01*
X136681385Y-95976427D01*
X136673682Y-95985447D01*
X136643414Y-96017679D01*
X136639595Y-96024625D01*
X136639593Y-96024628D01*
X136633652Y-96035434D01*
X136622801Y-96051953D01*
X136610386Y-96067959D01*
X136607241Y-96075228D01*
X136607238Y-96075232D01*
X136592826Y-96108537D01*
X136587609Y-96119187D01*
X136566305Y-96157940D01*
X136564334Y-96165615D01*
X136564334Y-96165616D01*
X136561267Y-96177562D01*
X136554863Y-96196266D01*
X136546819Y-96214855D01*
X136545580Y-96222678D01*
X136545577Y-96222688D01*
X136539901Y-96258524D01*
X136537495Y-96270144D01*
X136528472Y-96305289D01*
X136526500Y-96312970D01*
X136526500Y-96333224D01*
X136524949Y-96352934D01*
X136521780Y-96372943D01*
X136522526Y-96380835D01*
X136525941Y-96416961D01*
X136526500Y-96428819D01*
X136526500Y-99886969D01*
X136506498Y-99955090D01*
X136489595Y-99976064D01*
X125140833Y-111324826D01*
X125078521Y-111358852D01*
X125007706Y-111353787D01*
X124950870Y-111311240D01*
X124926059Y-111244720D01*
X124926475Y-111222120D01*
X124927631Y-111211478D01*
X124928000Y-111204671D01*
X124928000Y-111178115D01*
X124923525Y-111162876D01*
X124922135Y-111161671D01*
X124914452Y-111160000D01*
X123938115Y-111160000D01*
X123922876Y-111164475D01*
X123921671Y-111165865D01*
X123920000Y-111173548D01*
X123920000Y-111225500D01*
X123899998Y-111293621D01*
X123846342Y-111340114D01*
X123794000Y-111351500D01*
X123746000Y-111351500D01*
X123677879Y-111331498D01*
X123631386Y-111277842D01*
X123620000Y-111225500D01*
X123620000Y-111178115D01*
X123615525Y-111162876D01*
X123614135Y-111161671D01*
X123606452Y-111160000D01*
X122630116Y-111160000D01*
X122614877Y-111164475D01*
X122613672Y-111165865D01*
X122612001Y-111173548D01*
X122612001Y-111204669D01*
X122612371Y-111211493D01*
X122616161Y-111246393D01*
X122616161Y-111273603D01*
X122612369Y-111308510D01*
X122612000Y-111315329D01*
X122612000Y-111341885D01*
X122616475Y-111357124D01*
X122617865Y-111358329D01*
X122634765Y-111362005D01*
X122697078Y-111396030D01*
X122731103Y-111458342D01*
X122726039Y-111529157D01*
X122708810Y-111560690D01*
X122669386Y-111613294D01*
X122669097Y-111613078D01*
X122622935Y-111659139D01*
X122617582Y-111661353D01*
X122613672Y-111665865D01*
X122612001Y-111673548D01*
X122612001Y-111704670D01*
X122612370Y-111711488D01*
X122615909Y-111744067D01*
X122615909Y-111771280D01*
X122611500Y-111811866D01*
X122611500Y-112208134D01*
X122611869Y-112211529D01*
X122611869Y-112211533D01*
X122615656Y-112246393D01*
X122615656Y-112273606D01*
X122611500Y-112311866D01*
X122611500Y-112708134D01*
X122611869Y-112711529D01*
X122611869Y-112711533D01*
X122615656Y-112746393D01*
X122615656Y-112773606D01*
X122611500Y-112811866D01*
X122611500Y-113208134D01*
X122611869Y-113211529D01*
X122611869Y-113211533D01*
X122615656Y-113246393D01*
X122615656Y-113273606D01*
X122611500Y-113311866D01*
X122611500Y-113708134D01*
X122611869Y-113711529D01*
X122611869Y-113711533D01*
X122615656Y-113746393D01*
X122615656Y-113773606D01*
X122611500Y-113811866D01*
X122611500Y-114208134D01*
X114808000Y-114208134D01*
X114808000Y-110841885D01*
X122612000Y-110841885D01*
X122616475Y-110857124D01*
X122617865Y-110858329D01*
X122625548Y-110860000D01*
X123601885Y-110860000D01*
X123617124Y-110855525D01*
X123618329Y-110854135D01*
X123620000Y-110846452D01*
X123620000Y-110841885D01*
X123920000Y-110841885D01*
X123924475Y-110857124D01*
X123925865Y-110858329D01*
X123933548Y-110860000D01*
X124909884Y-110860000D01*
X124925123Y-110855525D01*
X124926328Y-110854135D01*
X124927999Y-110846452D01*
X124927999Y-110815331D01*
X124927630Y-110808525D01*
X124923838Y-110773605D01*
X124923839Y-110746394D01*
X124927631Y-110711488D01*
X124928000Y-110704671D01*
X124928000Y-110678115D01*
X124923525Y-110662876D01*
X124922135Y-110661671D01*
X124914452Y-110660000D01*
X123938115Y-110660000D01*
X123922876Y-110664475D01*
X123921671Y-110665865D01*
X123920000Y-110673548D01*
X123920000Y-110841885D01*
X123620000Y-110841885D01*
X123620000Y-110678115D01*
X123615525Y-110662876D01*
X123614135Y-110661671D01*
X123606452Y-110660000D01*
X122630116Y-110660000D01*
X122614877Y-110664475D01*
X122613672Y-110665865D01*
X122612001Y-110673548D01*
X122612001Y-110704669D01*
X122612371Y-110711493D01*
X122616161Y-110746393D01*
X122616161Y-110773603D01*
X122612369Y-110808510D01*
X122612000Y-110815329D01*
X122612000Y-110841885D01*
X114808000Y-110841885D01*
X114808000Y-110341885D01*
X122612000Y-110341885D01*
X122616475Y-110357124D01*
X122617865Y-110358329D01*
X122625548Y-110360000D01*
X123601885Y-110360000D01*
X123617124Y-110355525D01*
X123618329Y-110354135D01*
X123620000Y-110346452D01*
X123620000Y-110341885D01*
X123920000Y-110341885D01*
X123924475Y-110357124D01*
X123925865Y-110358329D01*
X123933548Y-110360000D01*
X124909884Y-110360000D01*
X124925123Y-110355525D01*
X124926328Y-110354135D01*
X124927999Y-110346452D01*
X124927999Y-110315331D01*
X124927630Y-110308525D01*
X124923838Y-110273605D01*
X124923839Y-110246394D01*
X124927631Y-110211488D01*
X124928000Y-110204671D01*
X124928000Y-110178115D01*
X124923525Y-110162876D01*
X124922135Y-110161671D01*
X124914452Y-110160000D01*
X123938115Y-110160000D01*
X123922876Y-110164475D01*
X123921671Y-110165865D01*
X123920000Y-110173548D01*
X123920000Y-110341885D01*
X123620000Y-110341885D01*
X123620000Y-110178115D01*
X123615525Y-110162876D01*
X123614135Y-110161671D01*
X123606452Y-110160000D01*
X122630116Y-110160000D01*
X122614877Y-110164475D01*
X122613672Y-110165865D01*
X122612001Y-110173548D01*
X122612001Y-110204669D01*
X122612371Y-110211493D01*
X122616161Y-110246393D01*
X122616161Y-110273603D01*
X122612369Y-110308510D01*
X122612000Y-110315329D01*
X122612000Y-110341885D01*
X114808000Y-110341885D01*
X114808000Y-109841885D01*
X122612000Y-109841885D01*
X122616475Y-109857124D01*
X122617865Y-109858329D01*
X122625548Y-109860000D01*
X123601885Y-109860000D01*
X123617124Y-109855525D01*
X123618329Y-109854135D01*
X123620000Y-109846452D01*
X123620000Y-109841885D01*
X123920000Y-109841885D01*
X123924475Y-109857124D01*
X123925865Y-109858329D01*
X123933548Y-109860000D01*
X124909884Y-109860000D01*
X124925123Y-109855525D01*
X124926328Y-109854135D01*
X124927999Y-109846452D01*
X124927999Y-109815331D01*
X124927630Y-109808525D01*
X124923838Y-109773605D01*
X124923839Y-109746394D01*
X124927631Y-109711488D01*
X124928000Y-109704671D01*
X124928000Y-109678115D01*
X124923525Y-109662876D01*
X124922135Y-109661671D01*
X124914452Y-109660000D01*
X123938115Y-109660000D01*
X123922876Y-109664475D01*
X123921671Y-109665865D01*
X123920000Y-109673548D01*
X123920000Y-109841885D01*
X123620000Y-109841885D01*
X123620000Y-109678115D01*
X123615525Y-109662876D01*
X123614135Y-109661671D01*
X123606452Y-109660000D01*
X122630116Y-109660000D01*
X122614877Y-109664475D01*
X122613672Y-109665865D01*
X122612001Y-109673548D01*
X122612001Y-109704669D01*
X122612371Y-109711493D01*
X122616161Y-109746393D01*
X122616161Y-109773603D01*
X122612369Y-109808510D01*
X122612000Y-109815329D01*
X122612000Y-109841885D01*
X114808000Y-109841885D01*
X114808000Y-109341885D01*
X122612000Y-109341885D01*
X122616475Y-109357124D01*
X122617865Y-109358329D01*
X122625548Y-109360000D01*
X123601885Y-109360000D01*
X123617124Y-109355525D01*
X123618329Y-109354135D01*
X123620000Y-109346452D01*
X123620000Y-109341885D01*
X123920000Y-109341885D01*
X123924475Y-109357124D01*
X123925865Y-109358329D01*
X123933548Y-109360000D01*
X124909884Y-109360000D01*
X124925123Y-109355525D01*
X124926328Y-109354135D01*
X124927999Y-109346452D01*
X124927999Y-109315331D01*
X124927629Y-109308510D01*
X124922105Y-109257648D01*
X124918479Y-109242396D01*
X124873324Y-109121946D01*
X124864786Y-109106351D01*
X124788285Y-109004276D01*
X124775724Y-108991715D01*
X124673649Y-108915214D01*
X124658054Y-108906676D01*
X124537606Y-108861522D01*
X124522351Y-108857895D01*
X124471486Y-108852369D01*
X124464672Y-108852000D01*
X123938115Y-108852000D01*
X123922876Y-108856475D01*
X123921671Y-108857865D01*
X123920000Y-108865548D01*
X123920000Y-109341885D01*
X123620000Y-109341885D01*
X123620000Y-108870116D01*
X123615525Y-108854877D01*
X123614135Y-108853672D01*
X123606452Y-108852001D01*
X123075331Y-108852001D01*
X123068510Y-108852371D01*
X123017648Y-108857895D01*
X123002396Y-108861521D01*
X122881946Y-108906676D01*
X122866351Y-108915214D01*
X122764276Y-108991715D01*
X122751715Y-109004276D01*
X122675214Y-109106351D01*
X122666676Y-109121946D01*
X122621522Y-109242394D01*
X122617895Y-109257649D01*
X122612369Y-109308514D01*
X122612000Y-109315328D01*
X122612000Y-109341885D01*
X114808000Y-109341885D01*
X114808000Y-108558134D01*
X118911500Y-108558134D01*
X118918255Y-108620316D01*
X118969385Y-108756705D01*
X119056739Y-108873261D01*
X119173295Y-108960615D01*
X119309684Y-109011745D01*
X119371866Y-109018500D01*
X121668134Y-109018500D01*
X121730316Y-109011745D01*
X121866705Y-108960615D01*
X121983261Y-108873261D01*
X122070615Y-108756705D01*
X122121745Y-108620316D01*
X122128500Y-108558134D01*
X122128500Y-106661866D01*
X122121745Y-106599684D01*
X122070615Y-106463295D01*
X121983261Y-106346739D01*
X121866705Y-106259385D01*
X121730316Y-106208255D01*
X121668134Y-106201500D01*
X119371866Y-106201500D01*
X119309684Y-106208255D01*
X119173295Y-106259385D01*
X119056739Y-106346739D01*
X118969385Y-106463295D01*
X118918255Y-106599684D01*
X118911500Y-106661866D01*
X118911500Y-108558134D01*
X114808000Y-108558134D01*
X114808000Y-76262132D01*
X137918068Y-76262132D01*
X137926803Y-76494822D01*
X137974620Y-76722713D01*
X138060150Y-76939290D01*
X138180949Y-77138359D01*
X138184446Y-77142389D01*
X138300999Y-77276705D01*
X138333561Y-77314230D01*
X138337687Y-77317613D01*
X138337691Y-77317617D01*
X138433915Y-77396515D01*
X138513624Y-77461872D01*
X138559739Y-77488122D01*
X138609044Y-77539202D01*
X138622906Y-77608832D01*
X138596923Y-77674904D01*
X138567773Y-77702143D01*
X138435470Y-77791215D01*
X138427184Y-77797876D01*
X138266480Y-77951180D01*
X138259431Y-77959148D01*
X138126856Y-78137336D01*
X138121257Y-78146366D01*
X138020598Y-78344347D01*
X138016595Y-78354208D01*
X137950737Y-78566301D01*
X137948452Y-78576696D01*
X137946020Y-78595041D01*
X137948217Y-78609208D01*
X137961401Y-78613000D01*
X140928488Y-78613000D01*
X140942019Y-78609027D01*
X140943544Y-78598420D01*
X140917996Y-78476657D01*
X140914936Y-78466461D01*
X140833363Y-78259903D01*
X140828629Y-78250366D01*
X140713414Y-78060497D01*
X140707150Y-78051907D01*
X140561589Y-77884163D01*
X140553959Y-77876743D01*
X140382220Y-77735927D01*
X140373449Y-77729898D01*
X140332285Y-77706467D01*
X140282978Y-77655385D01*
X140269116Y-77585755D01*
X140295099Y-77519684D01*
X140324249Y-77492445D01*
X140461272Y-77400196D01*
X140476069Y-77386081D01*
X140625896Y-77243152D01*
X140629758Y-77239468D01*
X140768754Y-77052650D01*
X140874286Y-76845084D01*
X140913906Y-76717486D01*
X140941753Y-76627807D01*
X140941754Y-76627801D01*
X140943337Y-76622704D01*
X140973932Y-76391868D01*
X140965197Y-76159178D01*
X140917380Y-75931287D01*
X140831850Y-75714710D01*
X140711051Y-75515641D01*
X140558439Y-75339770D01*
X140554313Y-75336387D01*
X140554309Y-75336383D01*
X140382504Y-75195513D01*
X140378376Y-75192128D01*
X140373740Y-75189489D01*
X140373737Y-75189487D01*
X140332748Y-75166155D01*
X140283442Y-75115073D01*
X140269580Y-75045442D01*
X140295563Y-74979371D01*
X140324713Y-74952133D01*
X140415248Y-74891181D01*
X140461272Y-74860196D01*
X140489600Y-74833173D01*
X140596674Y-74731029D01*
X140629758Y-74699468D01*
X140768754Y-74512650D01*
X140874286Y-74305084D01*
X140920312Y-74156857D01*
X140941753Y-74087807D01*
X140941754Y-74087801D01*
X140943337Y-74082704D01*
X140961182Y-73948069D01*
X140973232Y-73857152D01*
X140973232Y-73857148D01*
X140973932Y-73851868D01*
X140965197Y-73619178D01*
X140937294Y-73486193D01*
X140918477Y-73396514D01*
X140918476Y-73396511D01*
X140917380Y-73391287D01*
X140831850Y-73174710D01*
X140711051Y-72975641D01*
X140558439Y-72799770D01*
X140554313Y-72796387D01*
X140554309Y-72796383D01*
X140433374Y-72697224D01*
X140378376Y-72652128D01*
X140373740Y-72649489D01*
X140373737Y-72649487D01*
X140332748Y-72626155D01*
X140283442Y-72575073D01*
X140269580Y-72505442D01*
X140295563Y-72439371D01*
X140324713Y-72412133D01*
X140433873Y-72338642D01*
X140461272Y-72320196D01*
X140629758Y-72159468D01*
X140768754Y-71972650D01*
X140874286Y-71765084D01*
X140913906Y-71637486D01*
X140941753Y-71547807D01*
X140941754Y-71547801D01*
X140943337Y-71542704D01*
X140973932Y-71311868D01*
X140965197Y-71079178D01*
X140917380Y-70851287D01*
X140831850Y-70634710D01*
X140711051Y-70435641D01*
X140558439Y-70259770D01*
X140554313Y-70256387D01*
X140554309Y-70256383D01*
X140382504Y-70115513D01*
X140378376Y-70112128D01*
X140373740Y-70109489D01*
X140373737Y-70109487D01*
X140180654Y-69999578D01*
X140176011Y-69996935D01*
X140170995Y-69995114D01*
X140170990Y-69995112D01*
X139962146Y-69919305D01*
X139962142Y-69919304D01*
X139957131Y-69917485D01*
X139951882Y-69916536D01*
X139951879Y-69916535D01*
X139867948Y-69901358D01*
X139727993Y-69876050D01*
X139723854Y-69875855D01*
X139723847Y-69875854D01*
X139705095Y-69874970D01*
X139705086Y-69874970D01*
X139703606Y-69874900D01*
X139235132Y-69874900D01*
X139176500Y-69879875D01*
X139066891Y-69889175D01*
X139066887Y-69889176D01*
X139061580Y-69889626D01*
X139056423Y-69890964D01*
X139056420Y-69890965D01*
X138841363Y-69946783D01*
X138841359Y-69946784D01*
X138836194Y-69948125D01*
X138831328Y-69950317D01*
X138831325Y-69950318D01*
X138759968Y-69982462D01*
X138623887Y-70043762D01*
X138430728Y-70173804D01*
X138262242Y-70334532D01*
X138123246Y-70521350D01*
X138120830Y-70526102D01*
X138065925Y-70634093D01*
X138017714Y-70728916D01*
X137989341Y-70820291D01*
X137950247Y-70946193D01*
X137950246Y-70946199D01*
X137948663Y-70951296D01*
X137918068Y-71182132D01*
X137926803Y-71414822D01*
X137974620Y-71642713D01*
X138060150Y-71859290D01*
X138180949Y-72058359D01*
X138184446Y-72062389D01*
X138318354Y-72216705D01*
X138333561Y-72234230D01*
X138337687Y-72237613D01*
X138337691Y-72237617D01*
X138433915Y-72316515D01*
X138513624Y-72381872D01*
X138518260Y-72384511D01*
X138518263Y-72384513D01*
X138559252Y-72407845D01*
X138608558Y-72458927D01*
X138622420Y-72528558D01*
X138596437Y-72594629D01*
X138567287Y-72621867D01*
X138539410Y-72640635D01*
X138430728Y-72713804D01*
X138262242Y-72874532D01*
X138123246Y-73061350D01*
X138017714Y-73268916D01*
X138016071Y-73274208D01*
X137950247Y-73486193D01*
X137950246Y-73486199D01*
X137948663Y-73491296D01*
X137945516Y-73515041D01*
X137926748Y-73656646D01*
X137918068Y-73722132D01*
X137926803Y-73954822D01*
X137974620Y-74182713D01*
X138060150Y-74399290D01*
X138180949Y-74598359D01*
X138184446Y-74602389D01*
X138288125Y-74721869D01*
X138333561Y-74774230D01*
X138337687Y-74777613D01*
X138337691Y-74777617D01*
X138441562Y-74862785D01*
X138513624Y-74921872D01*
X138518260Y-74924511D01*
X138518263Y-74924513D01*
X138559252Y-74947845D01*
X138608558Y-74998927D01*
X138622420Y-75068558D01*
X138596437Y-75134629D01*
X138567287Y-75161867D01*
X138560918Y-75166155D01*
X138430728Y-75253804D01*
X138262242Y-75414532D01*
X138123246Y-75601350D01*
X138017714Y-75808916D01*
X137983189Y-75920106D01*
X137950247Y-76026193D01*
X137950246Y-76026199D01*
X137948663Y-76031296D01*
X137918068Y-76262132D01*
X114808000Y-76262132D01*
X114808000Y-73626695D01*
X128177251Y-73626695D01*
X128177548Y-73631848D01*
X128177548Y-73631851D01*
X128183011Y-73726590D01*
X128190110Y-73849715D01*
X128191247Y-73854761D01*
X128191248Y-73854767D01*
X128191786Y-73857152D01*
X128239222Y-74067639D01*
X128323266Y-74274616D01*
X128439987Y-74465088D01*
X128586250Y-74633938D01*
X128758126Y-74776632D01*
X128951000Y-74889338D01*
X129159692Y-74969030D01*
X129164760Y-74970061D01*
X129164763Y-74970062D01*
X129210519Y-74979371D01*
X129378597Y-75013567D01*
X129383772Y-75013757D01*
X129383774Y-75013757D01*
X129596673Y-75021564D01*
X129596677Y-75021564D01*
X129601837Y-75021753D01*
X129606957Y-75021097D01*
X129606959Y-75021097D01*
X129818288Y-74994025D01*
X129818289Y-74994025D01*
X129823416Y-74993368D01*
X129856991Y-74983295D01*
X130032429Y-74930661D01*
X130032434Y-74930659D01*
X130037384Y-74929174D01*
X130237994Y-74830896D01*
X130419860Y-74701173D01*
X130578096Y-74543489D01*
X130637594Y-74460689D01*
X130705435Y-74366277D01*
X130708453Y-74362077D01*
X130734363Y-74309653D01*
X130805136Y-74166453D01*
X130805137Y-74166451D01*
X130807430Y-74161811D01*
X130872370Y-73948069D01*
X130901529Y-73726590D01*
X130903156Y-73660000D01*
X130884852Y-73437361D01*
X130830431Y-73220702D01*
X130741354Y-73015840D01*
X130647769Y-72871180D01*
X130622822Y-72832617D01*
X130622820Y-72832614D01*
X130620014Y-72828277D01*
X130616532Y-72824450D01*
X130472798Y-72666488D01*
X130441746Y-72602642D01*
X130450141Y-72532143D01*
X130495317Y-72477375D01*
X130521761Y-72463706D01*
X130628297Y-72423767D01*
X130636705Y-72420615D01*
X130753261Y-72333261D01*
X130840615Y-72216705D01*
X130891745Y-72080316D01*
X130898500Y-72018134D01*
X130898500Y-70221866D01*
X130891745Y-70159684D01*
X130840615Y-70023295D01*
X130753261Y-69906739D01*
X130636705Y-69819385D01*
X130500316Y-69768255D01*
X130438134Y-69761500D01*
X128641866Y-69761500D01*
X128579684Y-69768255D01*
X128443295Y-69819385D01*
X128326739Y-69906739D01*
X128239385Y-70023295D01*
X128188255Y-70159684D01*
X128181500Y-70221866D01*
X128181500Y-72018134D01*
X128188255Y-72080316D01*
X128239385Y-72216705D01*
X128326739Y-72333261D01*
X128443295Y-72420615D01*
X128451704Y-72423767D01*
X128451705Y-72423768D01*
X128560451Y-72464535D01*
X128617216Y-72507176D01*
X128641916Y-72573738D01*
X128626709Y-72643087D01*
X128607316Y-72669568D01*
X128485785Y-72796743D01*
X128480629Y-72802138D01*
X128354743Y-72986680D01*
X128317877Y-73066102D01*
X128267463Y-73174710D01*
X128260688Y-73189305D01*
X128200989Y-73404570D01*
X128177251Y-73626695D01*
X114808000Y-73626695D01*
X114808000Y-56356667D01*
X123039704Y-56356667D01*
X123039928Y-56361333D01*
X123039928Y-56361338D01*
X123042057Y-56405660D01*
X123052155Y-56615881D01*
X123102783Y-56870407D01*
X123190477Y-57114654D01*
X123313309Y-57343256D01*
X123316104Y-57346999D01*
X123316106Y-57347002D01*
X123465790Y-57547453D01*
X123465795Y-57547459D01*
X123468582Y-57551191D01*
X123471891Y-57554471D01*
X123471896Y-57554477D01*
X123649567Y-57730604D01*
X123652884Y-57733892D01*
X123656646Y-57736650D01*
X123656649Y-57736653D01*
X123768963Y-57819005D01*
X123862166Y-57887344D01*
X123866309Y-57889524D01*
X123866311Y-57889525D01*
X124087682Y-58005994D01*
X124087687Y-58005996D01*
X124091832Y-58008177D01*
X124096255Y-58009722D01*
X124096256Y-58009722D01*
X124327898Y-58090615D01*
X124336835Y-58093736D01*
X124341428Y-58094608D01*
X124587204Y-58141270D01*
X124587207Y-58141270D01*
X124591793Y-58142141D01*
X124714978Y-58146981D01*
X124846437Y-58152146D01*
X124846442Y-58152146D01*
X124851105Y-58152329D01*
X124947748Y-58141745D01*
X125104422Y-58124587D01*
X125104428Y-58124586D01*
X125109075Y-58124077D01*
X125113599Y-58122886D01*
X125355513Y-58059196D01*
X125355516Y-58059195D01*
X125360036Y-58058005D01*
X125364333Y-58056159D01*
X125594180Y-57957409D01*
X125594182Y-57957408D01*
X125598474Y-57955564D01*
X125723336Y-57878297D01*
X125815178Y-57821464D01*
X125815182Y-57821461D01*
X125819151Y-57819005D01*
X125916429Y-57736653D01*
X126013653Y-57654346D01*
X126013654Y-57654345D01*
X126017219Y-57651327D01*
X126188328Y-57456216D01*
X126328717Y-57237955D01*
X126435304Y-57001342D01*
X126505746Y-56751573D01*
X126538496Y-56494135D01*
X126540896Y-56402500D01*
X126537490Y-56356667D01*
X127789704Y-56356667D01*
X127789928Y-56361333D01*
X127789928Y-56361338D01*
X127792057Y-56405660D01*
X127802155Y-56615881D01*
X127852783Y-56870407D01*
X127940477Y-57114654D01*
X128063309Y-57343256D01*
X128066104Y-57346999D01*
X128066106Y-57347002D01*
X128215790Y-57547453D01*
X128215795Y-57547459D01*
X128218582Y-57551191D01*
X128221891Y-57554471D01*
X128221896Y-57554477D01*
X128399567Y-57730604D01*
X128402884Y-57733892D01*
X128406646Y-57736650D01*
X128406649Y-57736653D01*
X128518963Y-57819005D01*
X128612166Y-57887344D01*
X128616309Y-57889524D01*
X128616311Y-57889525D01*
X128839167Y-58006775D01*
X128890140Y-58056194D01*
X128906500Y-58118283D01*
X128906500Y-58341233D01*
X128905973Y-58352416D01*
X128904298Y-58359909D01*
X128904547Y-58367835D01*
X128904547Y-58367836D01*
X128906438Y-58427986D01*
X128906500Y-58431945D01*
X128906500Y-58459856D01*
X128906997Y-58463790D01*
X128906997Y-58463791D01*
X128907005Y-58463856D01*
X128907938Y-58475693D01*
X128909327Y-58519889D01*
X128914978Y-58539339D01*
X128918987Y-58558700D01*
X128921526Y-58578797D01*
X128924445Y-58586168D01*
X128924445Y-58586170D01*
X128937804Y-58619912D01*
X128941649Y-58631142D01*
X128953982Y-58673593D01*
X128958015Y-58680412D01*
X128958017Y-58680417D01*
X128964293Y-58691028D01*
X128972988Y-58708776D01*
X128980448Y-58727617D01*
X128985110Y-58734033D01*
X128985110Y-58734034D01*
X129006436Y-58763387D01*
X129012952Y-58773307D01*
X129035458Y-58811362D01*
X129049779Y-58825683D01*
X129062619Y-58840716D01*
X129074528Y-58857107D01*
X129080634Y-58862158D01*
X129108605Y-58885298D01*
X129117384Y-58893288D01*
X131576343Y-61352247D01*
X131583887Y-61360537D01*
X131588000Y-61367018D01*
X131593777Y-61372443D01*
X131637667Y-61413658D01*
X131640509Y-61416413D01*
X131660230Y-61436134D01*
X131663425Y-61438612D01*
X131672447Y-61446318D01*
X131704679Y-61476586D01*
X131711628Y-61480406D01*
X131722432Y-61486346D01*
X131738956Y-61497199D01*
X131754959Y-61509613D01*
X131795543Y-61527176D01*
X131806173Y-61532383D01*
X131844940Y-61553695D01*
X131852617Y-61555666D01*
X131852622Y-61555668D01*
X131864558Y-61558732D01*
X131883266Y-61565137D01*
X131901855Y-61573181D01*
X131909680Y-61574420D01*
X131909682Y-61574421D01*
X131945519Y-61580097D01*
X131957140Y-61582504D01*
X131988959Y-61590673D01*
X131999970Y-61593500D01*
X132020231Y-61593500D01*
X132039940Y-61595051D01*
X132059943Y-61598219D01*
X132067835Y-61597473D01*
X132073062Y-61596979D01*
X132103954Y-61594059D01*
X132115811Y-61593500D01*
X147241233Y-61593500D01*
X147252416Y-61594027D01*
X147259909Y-61595702D01*
X147267835Y-61595453D01*
X147267836Y-61595453D01*
X147327986Y-61593562D01*
X147331945Y-61593500D01*
X147359856Y-61593500D01*
X147363791Y-61593003D01*
X147363856Y-61592995D01*
X147375693Y-61592062D01*
X147407951Y-61591048D01*
X147411970Y-61590922D01*
X147419889Y-61590673D01*
X147439343Y-61585021D01*
X147458700Y-61581013D01*
X147470930Y-61579468D01*
X147470931Y-61579468D01*
X147478797Y-61578474D01*
X147486168Y-61575555D01*
X147486170Y-61575555D01*
X147519912Y-61562196D01*
X147531142Y-61558351D01*
X147565983Y-61548229D01*
X147565984Y-61548229D01*
X147573593Y-61546018D01*
X147580412Y-61541985D01*
X147580417Y-61541983D01*
X147591028Y-61535707D01*
X147608776Y-61527012D01*
X147627617Y-61519552D01*
X147647987Y-61504753D01*
X147663387Y-61493564D01*
X147673307Y-61487048D01*
X147704535Y-61468580D01*
X147704538Y-61468578D01*
X147711362Y-61464542D01*
X147725683Y-61450221D01*
X147740717Y-61437380D01*
X147742432Y-61436134D01*
X147757107Y-61425472D01*
X147785298Y-61391395D01*
X147793288Y-61382616D01*
X154091405Y-55084499D01*
X154153717Y-55050473D01*
X154224532Y-55055538D01*
X154281368Y-55098085D01*
X154306179Y-55164605D01*
X154306500Y-55173594D01*
X154306500Y-59475500D01*
X154286498Y-59543621D01*
X154232842Y-59590114D01*
X154180500Y-59601500D01*
X154041866Y-59601500D01*
X153979684Y-59608255D01*
X153843295Y-59659385D01*
X153726739Y-59746739D01*
X153639385Y-59863295D01*
X153588255Y-59999684D01*
X153581500Y-60061866D01*
X153581500Y-61858134D01*
X153588255Y-61920316D01*
X153639385Y-62056705D01*
X153726739Y-62173261D01*
X153843295Y-62260615D01*
X153851704Y-62263767D01*
X153851705Y-62263768D01*
X153960451Y-62304535D01*
X154017216Y-62347176D01*
X154041916Y-62413738D01*
X154026709Y-62483087D01*
X154007316Y-62509568D01*
X153880629Y-62642138D01*
X153754743Y-62826680D01*
X153660688Y-63029305D01*
X153600989Y-63244570D01*
X153577251Y-63466695D01*
X153577548Y-63471848D01*
X153577548Y-63471851D01*
X153583011Y-63566590D01*
X153590110Y-63689715D01*
X153591247Y-63694761D01*
X153591248Y-63694767D01*
X153611119Y-63782939D01*
X153639222Y-63907639D01*
X153723266Y-64114616D01*
X153839987Y-64305088D01*
X153986250Y-64473938D01*
X154158126Y-64616632D01*
X154351000Y-64729338D01*
X154559692Y-64809030D01*
X154564760Y-64810061D01*
X154564763Y-64810062D01*
X154672017Y-64831883D01*
X154778597Y-64853567D01*
X154783772Y-64853757D01*
X154783774Y-64853757D01*
X154996673Y-64861564D01*
X154996677Y-64861564D01*
X155001837Y-64861753D01*
X155006957Y-64861097D01*
X155006959Y-64861097D01*
X155218288Y-64834025D01*
X155218289Y-64834025D01*
X155223416Y-64833368D01*
X155228366Y-64831883D01*
X155432429Y-64770661D01*
X155432434Y-64770659D01*
X155437384Y-64769174D01*
X155637994Y-64670896D01*
X155819860Y-64541173D01*
X155978096Y-64383489D01*
X156037594Y-64300689D01*
X156105435Y-64206277D01*
X156108453Y-64202077D01*
X156207430Y-64001811D01*
X156272370Y-63788069D01*
X156301529Y-63566590D01*
X156303156Y-63500000D01*
X156284852Y-63277361D01*
X156230431Y-63060702D01*
X156141354Y-62855840D01*
X156020014Y-62668277D01*
X156016532Y-62664450D01*
X155872798Y-62506488D01*
X155841746Y-62442642D01*
X155850141Y-62372143D01*
X155895317Y-62317375D01*
X155921761Y-62303706D01*
X156028297Y-62263767D01*
X156036705Y-62260615D01*
X156153261Y-62173261D01*
X156240615Y-62056705D01*
X156291745Y-61920316D01*
X156298500Y-61858134D01*
X156298500Y-60061866D01*
X156291745Y-59999684D01*
X156240615Y-59863295D01*
X156153261Y-59746739D01*
X156036705Y-59659385D01*
X155900316Y-59608255D01*
X155838134Y-59601500D01*
X155699500Y-59601500D01*
X155631379Y-59581498D01*
X155584886Y-59527842D01*
X155573500Y-59475500D01*
X155573500Y-54620427D01*
X155593502Y-54552306D01*
X155634618Y-54512550D01*
X155637994Y-54510896D01*
X155819860Y-54381173D01*
X155978096Y-54223489D01*
X156037594Y-54140689D01*
X156105435Y-54046277D01*
X156108453Y-54042077D01*
X156207430Y-53841811D01*
X156272370Y-53628069D01*
X156301529Y-53406590D01*
X156303156Y-53340000D01*
X156284852Y-53117361D01*
X156230431Y-52900702D01*
X156141354Y-52695840D01*
X156020014Y-52508277D01*
X156016540Y-52504459D01*
X156016533Y-52504450D01*
X155872435Y-52346088D01*
X155841383Y-52282242D01*
X155849779Y-52211744D01*
X155894956Y-52156976D01*
X155921400Y-52143307D01*
X156028052Y-52103325D01*
X156043649Y-52094786D01*
X156145724Y-52018285D01*
X156158285Y-52005724D01*
X156234786Y-51903649D01*
X156243324Y-51888054D01*
X156288478Y-51767606D01*
X156292105Y-51752351D01*
X156297631Y-51701486D01*
X156298000Y-51694672D01*
X156298000Y-51072115D01*
X156293525Y-51056876D01*
X156292135Y-51055671D01*
X156284452Y-51054000D01*
X153600116Y-51054000D01*
X153584877Y-51058475D01*
X153583672Y-51059865D01*
X153582001Y-51067548D01*
X153582001Y-51694669D01*
X153582371Y-51701490D01*
X153587895Y-51752352D01*
X153591521Y-51767604D01*
X153636676Y-51888054D01*
X153645214Y-51903649D01*
X153721715Y-52005724D01*
X153734276Y-52018285D01*
X153836351Y-52094786D01*
X153851946Y-52103324D01*
X153960827Y-52144142D01*
X154017591Y-52186784D01*
X154042291Y-52253345D01*
X154027083Y-52322694D01*
X154007691Y-52349175D01*
X153884200Y-52478401D01*
X153880629Y-52482138D01*
X153754743Y-52666680D01*
X153660688Y-52869305D01*
X153600989Y-53084570D01*
X153577251Y-53306695D01*
X153577548Y-53311848D01*
X153577548Y-53311851D01*
X153583011Y-53406590D01*
X153590110Y-53529715D01*
X153591247Y-53534761D01*
X153591248Y-53534767D01*
X153623453Y-53677668D01*
X153618917Y-53748520D01*
X153589631Y-53794464D01*
X147094500Y-60289595D01*
X147032188Y-60323621D01*
X147005405Y-60326500D01*
X132394595Y-60326500D01*
X132326474Y-60306498D01*
X132305500Y-60289595D01*
X130216237Y-58200332D01*
X130182211Y-58138020D01*
X130187276Y-58067205D01*
X130229823Y-58010369D01*
X130255594Y-57995470D01*
X130344169Y-57957415D01*
X130344185Y-57957407D01*
X130348474Y-57955564D01*
X130473336Y-57878297D01*
X130565178Y-57821464D01*
X130565182Y-57821461D01*
X130569151Y-57819005D01*
X130666429Y-57736653D01*
X130723741Y-57688134D01*
X132544000Y-57688134D01*
X132550755Y-57750316D01*
X132601885Y-57886705D01*
X132689239Y-58003261D01*
X132805795Y-58090615D01*
X132942184Y-58141745D01*
X133004366Y-58148500D01*
X135575634Y-58148500D01*
X135637816Y-58141745D01*
X135774205Y-58090615D01*
X135890761Y-58003261D01*
X135978115Y-57886705D01*
X136029245Y-57750316D01*
X136036000Y-57688134D01*
X136036000Y-55116866D01*
X136029245Y-55054684D01*
X135978115Y-54918295D01*
X135890761Y-54801739D01*
X135774205Y-54714385D01*
X135637816Y-54663255D01*
X135575634Y-54656500D01*
X133004366Y-54656500D01*
X132942184Y-54663255D01*
X132805795Y-54714385D01*
X132689239Y-54801739D01*
X132601885Y-54918295D01*
X132550755Y-55054684D01*
X132544000Y-55116866D01*
X132544000Y-57688134D01*
X130723741Y-57688134D01*
X130763653Y-57654346D01*
X130763654Y-57654345D01*
X130767219Y-57651327D01*
X130938328Y-57456216D01*
X131078717Y-57237955D01*
X131185304Y-57001342D01*
X131255746Y-56751573D01*
X131288496Y-56494135D01*
X131290896Y-56402500D01*
X131271664Y-56143701D01*
X131214390Y-55890588D01*
X131120333Y-55648720D01*
X131118015Y-55644664D01*
X130993878Y-55427468D01*
X130993876Y-55427466D01*
X130991559Y-55423411D01*
X130830896Y-55219612D01*
X130641875Y-55041798D01*
X130428647Y-54893877D01*
X130256370Y-54808919D01*
X130200083Y-54781161D01*
X130200079Y-54781160D01*
X130195897Y-54779097D01*
X129948739Y-54699981D01*
X129807884Y-54677042D01*
X129697213Y-54659018D01*
X129697212Y-54659018D01*
X129692601Y-54658267D01*
X129562855Y-54656568D01*
X129437787Y-54654931D01*
X129437784Y-54654931D01*
X129433110Y-54654870D01*
X129175968Y-54689865D01*
X129171482Y-54691173D01*
X129171480Y-54691173D01*
X129136379Y-54701404D01*
X128926823Y-54762484D01*
X128922571Y-54764444D01*
X128922569Y-54764445D01*
X128890787Y-54779097D01*
X128691149Y-54871132D01*
X128687240Y-54873695D01*
X128478035Y-55010855D01*
X128478030Y-55010859D01*
X128474122Y-55013421D01*
X128280511Y-55186225D01*
X128114568Y-55385750D01*
X127979940Y-55607610D01*
X127879584Y-55846933D01*
X127815704Y-56098460D01*
X127789704Y-56356667D01*
X126537490Y-56356667D01*
X126521664Y-56143701D01*
X126464390Y-55890588D01*
X126370333Y-55648720D01*
X126368015Y-55644664D01*
X126243878Y-55427468D01*
X126243876Y-55427466D01*
X126241559Y-55423411D01*
X126080896Y-55219612D01*
X125891875Y-55041798D01*
X125678647Y-54893877D01*
X125506370Y-54808919D01*
X125450083Y-54781161D01*
X125450079Y-54781160D01*
X125445897Y-54779097D01*
X125198739Y-54699981D01*
X125057884Y-54677042D01*
X124947213Y-54659018D01*
X124947212Y-54659018D01*
X124942601Y-54658267D01*
X124812855Y-54656568D01*
X124687787Y-54654931D01*
X124687784Y-54654931D01*
X124683110Y-54654870D01*
X124425968Y-54689865D01*
X124421482Y-54691173D01*
X124421480Y-54691173D01*
X124386379Y-54701404D01*
X124176823Y-54762484D01*
X124172571Y-54764444D01*
X124172569Y-54764445D01*
X124140787Y-54779097D01*
X123941149Y-54871132D01*
X123937240Y-54873695D01*
X123728035Y-55010855D01*
X123728030Y-55010859D01*
X123724122Y-55013421D01*
X123530511Y-55186225D01*
X123364568Y-55385750D01*
X123229940Y-55607610D01*
X123129584Y-55846933D01*
X123065704Y-56098460D01*
X123039704Y-56356667D01*
X114808000Y-56356667D01*
X114808000Y-53306695D01*
X143417251Y-53306695D01*
X143417548Y-53311848D01*
X143417548Y-53311851D01*
X143423011Y-53406590D01*
X143430110Y-53529715D01*
X143431247Y-53534761D01*
X143431248Y-53534767D01*
X143451119Y-53622939D01*
X143479222Y-53747639D01*
X143563266Y-53954616D01*
X143679987Y-54145088D01*
X143826250Y-54313938D01*
X143998126Y-54456632D01*
X144191000Y-54569338D01*
X144399692Y-54649030D01*
X144404760Y-54650061D01*
X144404763Y-54650062D01*
X144483244Y-54666029D01*
X144618597Y-54693567D01*
X144623772Y-54693757D01*
X144623774Y-54693757D01*
X144836673Y-54701564D01*
X144836677Y-54701564D01*
X144841837Y-54701753D01*
X144846957Y-54701097D01*
X144846959Y-54701097D01*
X145058288Y-54674025D01*
X145058289Y-54674025D01*
X145063416Y-54673368D01*
X145087878Y-54666029D01*
X145272429Y-54610661D01*
X145272434Y-54610659D01*
X145277384Y-54609174D01*
X145477994Y-54510896D01*
X145659860Y-54381173D01*
X145818096Y-54223489D01*
X145877594Y-54140689D01*
X145945435Y-54046277D01*
X145948453Y-54042077D01*
X146047430Y-53841811D01*
X146112370Y-53628069D01*
X146141529Y-53406590D01*
X146143156Y-53340000D01*
X146124852Y-53117361D01*
X146070431Y-52900702D01*
X145981354Y-52695840D01*
X145860014Y-52508277D01*
X145856540Y-52504459D01*
X145856533Y-52504450D01*
X145712435Y-52346088D01*
X145681383Y-52282242D01*
X145689779Y-52211744D01*
X145734956Y-52156976D01*
X145761400Y-52143307D01*
X145868052Y-52103325D01*
X145883649Y-52094786D01*
X145985724Y-52018285D01*
X145998285Y-52005724D01*
X146074786Y-51903649D01*
X146083324Y-51888054D01*
X146128478Y-51767606D01*
X146132105Y-51752351D01*
X146137631Y-51701486D01*
X146138000Y-51694672D01*
X146138000Y-51072115D01*
X146133525Y-51056876D01*
X146132135Y-51055671D01*
X146124452Y-51054000D01*
X143440116Y-51054000D01*
X143424877Y-51058475D01*
X143423672Y-51059865D01*
X143422001Y-51067548D01*
X143422001Y-51694669D01*
X143422371Y-51701490D01*
X143427895Y-51752352D01*
X143431521Y-51767604D01*
X143476676Y-51888054D01*
X143485214Y-51903649D01*
X143561715Y-52005724D01*
X143574276Y-52018285D01*
X143676351Y-52094786D01*
X143691946Y-52103324D01*
X143800827Y-52144142D01*
X143857591Y-52186784D01*
X143882291Y-52253345D01*
X143867083Y-52322694D01*
X143847691Y-52349175D01*
X143724200Y-52478401D01*
X143720629Y-52482138D01*
X143594743Y-52666680D01*
X143500688Y-52869305D01*
X143440989Y-53084570D01*
X143417251Y-53306695D01*
X114808000Y-53306695D01*
X114808000Y-50527885D01*
X143422000Y-50527885D01*
X143426475Y-50543124D01*
X143427865Y-50544329D01*
X143435548Y-50546000D01*
X144507885Y-50546000D01*
X144523124Y-50541525D01*
X144524329Y-50540135D01*
X144526000Y-50532452D01*
X144526000Y-50527885D01*
X145034000Y-50527885D01*
X145038475Y-50543124D01*
X145039865Y-50544329D01*
X145047548Y-50546000D01*
X146119884Y-50546000D01*
X146135123Y-50541525D01*
X146136328Y-50540135D01*
X146137999Y-50532452D01*
X146137999Y-50527885D01*
X153582000Y-50527885D01*
X153586475Y-50543124D01*
X153587865Y-50544329D01*
X153595548Y-50546000D01*
X154667885Y-50546000D01*
X154683124Y-50541525D01*
X154684329Y-50540135D01*
X154686000Y-50532452D01*
X154686000Y-50527885D01*
X155194000Y-50527885D01*
X155198475Y-50543124D01*
X155199865Y-50544329D01*
X155207548Y-50546000D01*
X156279884Y-50546000D01*
X156295123Y-50541525D01*
X156296328Y-50540135D01*
X156297999Y-50532452D01*
X156297999Y-49905331D01*
X156297629Y-49898510D01*
X156292105Y-49847648D01*
X156288479Y-49832396D01*
X156243324Y-49711946D01*
X156234786Y-49696351D01*
X156158285Y-49594276D01*
X156145724Y-49581715D01*
X156043649Y-49505214D01*
X156028054Y-49496676D01*
X155907606Y-49451522D01*
X155892351Y-49447895D01*
X155841486Y-49442369D01*
X155834672Y-49442000D01*
X155212115Y-49442000D01*
X155196876Y-49446475D01*
X155195671Y-49447865D01*
X155194000Y-49455548D01*
X155194000Y-50527885D01*
X154686000Y-50527885D01*
X154686000Y-49460116D01*
X154681525Y-49444877D01*
X154680135Y-49443672D01*
X154672452Y-49442001D01*
X154045331Y-49442001D01*
X154038510Y-49442371D01*
X153987648Y-49447895D01*
X153972396Y-49451521D01*
X153851946Y-49496676D01*
X153836351Y-49505214D01*
X153734276Y-49581715D01*
X153721715Y-49594276D01*
X153645214Y-49696351D01*
X153636676Y-49711946D01*
X153591522Y-49832394D01*
X153587895Y-49847649D01*
X153582369Y-49898514D01*
X153582000Y-49905328D01*
X153582000Y-50527885D01*
X146137999Y-50527885D01*
X146137999Y-49905331D01*
X146137629Y-49898510D01*
X146132105Y-49847648D01*
X146128479Y-49832396D01*
X146083324Y-49711946D01*
X146074786Y-49696351D01*
X145998285Y-49594276D01*
X145985724Y-49581715D01*
X145883649Y-49505214D01*
X145868054Y-49496676D01*
X145747606Y-49451522D01*
X145732351Y-49447895D01*
X145681486Y-49442369D01*
X145674672Y-49442000D01*
X145052115Y-49442000D01*
X145036876Y-49446475D01*
X145035671Y-49447865D01*
X145034000Y-49455548D01*
X145034000Y-50527885D01*
X144526000Y-50527885D01*
X144526000Y-49460116D01*
X144521525Y-49444877D01*
X144520135Y-49443672D01*
X144512452Y-49442001D01*
X143885331Y-49442001D01*
X143878510Y-49442371D01*
X143827648Y-49447895D01*
X143812396Y-49451521D01*
X143691946Y-49496676D01*
X143676351Y-49505214D01*
X143574276Y-49581715D01*
X143561715Y-49594276D01*
X143485214Y-49696351D01*
X143476676Y-49711946D01*
X143431522Y-49832394D01*
X143427895Y-49847649D01*
X143422369Y-49898514D01*
X143422000Y-49905328D01*
X143422000Y-50527885D01*
X114808000Y-50527885D01*
X114808000Y-48276214D01*
X114822677Y-48226230D01*
X114822427Y-48225739D01*
X115045271Y-48225739D01*
X115054896Y-48240716D01*
X115059855Y-48270169D01*
X115069807Y-48477352D01*
X115121378Y-48736616D01*
X115122957Y-48741014D01*
X115122959Y-48741021D01*
X115209121Y-48981001D01*
X115210704Y-48985410D01*
X115212921Y-48989536D01*
X115280301Y-49114936D01*
X115335822Y-49218267D01*
X115338617Y-49222011D01*
X115338619Y-49222013D01*
X115421743Y-49333329D01*
X115493985Y-49430073D01*
X115497292Y-49433351D01*
X115497297Y-49433357D01*
X115596879Y-49532073D01*
X115681718Y-49616174D01*
X115894896Y-49772483D01*
X115899031Y-49774659D01*
X115899035Y-49774661D01*
X116008768Y-49832394D01*
X116128836Y-49895565D01*
X116378400Y-49982716D01*
X116382993Y-49983588D01*
X116633515Y-50031151D01*
X116633518Y-50031151D01*
X116638104Y-50032022D01*
X116770173Y-50037211D01*
X116897575Y-50042218D01*
X116897581Y-50042218D01*
X116902243Y-50042401D01*
X117165015Y-50013622D01*
X117169526Y-50012434D01*
X117169528Y-50012434D01*
X117416124Y-49947511D01*
X117416126Y-49947510D01*
X117420647Y-49946320D01*
X117424944Y-49944474D01*
X117659229Y-49843817D01*
X117659231Y-49843816D01*
X117663523Y-49841972D01*
X117888307Y-49702871D01*
X117904788Y-49688919D01*
X118086496Y-49535093D01*
X118086498Y-49535091D01*
X118090063Y-49532073D01*
X118264356Y-49333329D01*
X118338367Y-49218267D01*
X118404831Y-49114936D01*
X118407359Y-49111006D01*
X118515930Y-48869988D01*
X118587683Y-48615570D01*
X118621043Y-48353340D01*
X118623487Y-48260000D01*
X118622054Y-48240716D01*
X118620018Y-48213314D01*
X160777124Y-48213314D01*
X160777348Y-48217980D01*
X160777348Y-48217985D01*
X160779518Y-48263160D01*
X160789807Y-48477352D01*
X160841378Y-48736616D01*
X160842957Y-48741014D01*
X160842959Y-48741021D01*
X160929121Y-48981001D01*
X160930704Y-48985410D01*
X160932921Y-48989536D01*
X161000301Y-49114936D01*
X161055822Y-49218267D01*
X161058617Y-49222011D01*
X161058619Y-49222013D01*
X161141743Y-49333329D01*
X161213985Y-49430073D01*
X161217292Y-49433351D01*
X161217297Y-49433357D01*
X161316879Y-49532073D01*
X161401718Y-49616174D01*
X161614896Y-49772483D01*
X161619031Y-49774659D01*
X161619035Y-49774661D01*
X161728768Y-49832394D01*
X161848836Y-49895565D01*
X162098400Y-49982716D01*
X162102993Y-49983588D01*
X162353515Y-50031151D01*
X162353518Y-50031151D01*
X162358104Y-50032022D01*
X162490173Y-50037211D01*
X162617575Y-50042218D01*
X162617581Y-50042218D01*
X162622243Y-50042401D01*
X162885015Y-50013622D01*
X162889526Y-50012434D01*
X162889528Y-50012434D01*
X163136124Y-49947511D01*
X163136126Y-49947510D01*
X163140647Y-49946320D01*
X163144944Y-49944474D01*
X163379229Y-49843817D01*
X163379231Y-49843816D01*
X163383523Y-49841972D01*
X163608307Y-49702871D01*
X163624788Y-49688919D01*
X163806496Y-49535093D01*
X163806498Y-49535091D01*
X163810063Y-49532073D01*
X163984356Y-49333329D01*
X164058367Y-49218267D01*
X164124831Y-49114936D01*
X164127359Y-49111006D01*
X164235930Y-48869988D01*
X164307683Y-48615570D01*
X164341043Y-48353340D01*
X164343487Y-48260000D01*
X164342054Y-48240716D01*
X164324243Y-48001036D01*
X164324242Y-48001032D01*
X164323897Y-47996384D01*
X164265557Y-47738559D01*
X164250028Y-47698626D01*
X164171442Y-47496542D01*
X164171441Y-47496540D01*
X164169749Y-47492189D01*
X164143535Y-47446323D01*
X164040897Y-47266745D01*
X164038578Y-47262687D01*
X163874925Y-47055094D01*
X163682385Y-46873970D01*
X163645212Y-46848182D01*
X163469026Y-46725958D01*
X163469021Y-46725955D01*
X163465188Y-46723296D01*
X163460997Y-46721229D01*
X163232294Y-46608445D01*
X163232291Y-46608444D01*
X163228106Y-46606380D01*
X163171150Y-46588148D01*
X162980792Y-46527214D01*
X162980794Y-46527214D01*
X162976347Y-46525791D01*
X162833825Y-46502580D01*
X162720053Y-46484051D01*
X162720052Y-46484051D01*
X162715441Y-46483300D01*
X162462504Y-46479989D01*
X162460417Y-46479346D01*
X162458026Y-46479765D01*
X162455799Y-46479901D01*
X162451121Y-46479840D01*
X162189192Y-46515486D01*
X162184702Y-46516795D01*
X162184696Y-46516796D01*
X162076732Y-46548265D01*
X161935410Y-46589457D01*
X161931163Y-46591415D01*
X161931160Y-46591416D01*
X161840950Y-46633004D01*
X161695348Y-46700127D01*
X161691439Y-46702690D01*
X161478195Y-46842499D01*
X161478190Y-46842503D01*
X161474282Y-46845065D01*
X161277067Y-47021086D01*
X161108036Y-47224324D01*
X160970901Y-47450314D01*
X160868677Y-47694091D01*
X160867526Y-47698623D01*
X160867525Y-47698626D01*
X160856226Y-47743116D01*
X160803608Y-47950301D01*
X160777124Y-48213314D01*
X118620018Y-48213314D01*
X118604243Y-48001036D01*
X118604242Y-48001032D01*
X118603897Y-47996384D01*
X118545557Y-47738559D01*
X118530028Y-47698626D01*
X118451442Y-47496542D01*
X118451441Y-47496540D01*
X118449749Y-47492189D01*
X118423535Y-47446323D01*
X118320897Y-47266745D01*
X118318578Y-47262687D01*
X118154925Y-47055094D01*
X117962385Y-46873970D01*
X117925212Y-46848182D01*
X117749026Y-46725958D01*
X117749021Y-46725955D01*
X117745188Y-46723296D01*
X117740997Y-46721229D01*
X117512294Y-46608445D01*
X117512291Y-46608444D01*
X117508106Y-46606380D01*
X117451150Y-46588148D01*
X117260792Y-46527214D01*
X117260794Y-46527214D01*
X117256347Y-46525791D01*
X117113825Y-46502580D01*
X117000053Y-46484051D01*
X117000052Y-46484051D01*
X116995441Y-46483300D01*
X116742504Y-46479989D01*
X116740417Y-46479346D01*
X116738026Y-46479765D01*
X116735799Y-46479901D01*
X116731121Y-46479840D01*
X116469192Y-46515486D01*
X116464702Y-46516795D01*
X116464696Y-46516796D01*
X116356732Y-46548265D01*
X116215410Y-46589457D01*
X116211163Y-46591415D01*
X116211160Y-46591416D01*
X116120950Y-46633004D01*
X115975348Y-46700127D01*
X115971439Y-46702690D01*
X115758195Y-46842499D01*
X115758190Y-46842503D01*
X115754282Y-46845065D01*
X115557067Y-47021086D01*
X115388036Y-47224324D01*
X115250901Y-47450314D01*
X115148677Y-47694091D01*
X115147526Y-47698623D01*
X115147525Y-47698626D01*
X115136226Y-47743116D01*
X115083608Y-47950301D01*
X115083139Y-47954959D01*
X115059366Y-48191049D01*
X115045271Y-48225739D01*
X114822427Y-48225739D01*
X114810156Y-48201632D01*
X114808000Y-48178425D01*
X114808000Y-46354000D01*
X114828002Y-46285879D01*
X114881658Y-46239386D01*
X114934000Y-46228000D01*
X116730334Y-46228000D01*
X116734733Y-46229292D01*
G37*
%TD.AperFunction*%
%TA.AperFunction,Conductor*%
G36*
X157360527Y-87140502D02*
G01*
X157381501Y-87157405D01*
X159516343Y-89292247D01*
X159523887Y-89300537D01*
X159528000Y-89307018D01*
X159533777Y-89312443D01*
X159577667Y-89353658D01*
X159580509Y-89356413D01*
X159600230Y-89376134D01*
X159603425Y-89378612D01*
X159612447Y-89386318D01*
X159644679Y-89416586D01*
X159651628Y-89420406D01*
X159662432Y-89426346D01*
X159678956Y-89437199D01*
X159694959Y-89449613D01*
X159735543Y-89467176D01*
X159746173Y-89472383D01*
X159784940Y-89493695D01*
X159792617Y-89495666D01*
X159792622Y-89495668D01*
X159804558Y-89498732D01*
X159823266Y-89505137D01*
X159841855Y-89513181D01*
X159849683Y-89514421D01*
X159849690Y-89514423D01*
X159885524Y-89520099D01*
X159897144Y-89522505D01*
X159932289Y-89531528D01*
X159939970Y-89533500D01*
X159960224Y-89533500D01*
X159979934Y-89535051D01*
X159999943Y-89538220D01*
X160007835Y-89537474D01*
X160043961Y-89534059D01*
X160055819Y-89533500D01*
X165364428Y-89533500D01*
X165432549Y-89553502D01*
X165453523Y-89570405D01*
X166629522Y-90746405D01*
X166663548Y-90808717D01*
X166658483Y-90879533D01*
X166615936Y-90936368D01*
X166549416Y-90961179D01*
X166540427Y-90961500D01*
X165351866Y-90961500D01*
X165289684Y-90968255D01*
X165153295Y-91019385D01*
X165036739Y-91106739D01*
X164949385Y-91223295D01*
X164898255Y-91359684D01*
X164891500Y-91421866D01*
X164891500Y-93318134D01*
X164898255Y-93380316D01*
X164949385Y-93516705D01*
X165036739Y-93633261D01*
X165153295Y-93720615D01*
X165289684Y-93771745D01*
X165351866Y-93778500D01*
X167648134Y-93778500D01*
X167710316Y-93771745D01*
X167846705Y-93720615D01*
X167963261Y-93633261D01*
X167968643Y-93626080D01*
X168049674Y-93517961D01*
X168106533Y-93475446D01*
X168177352Y-93470420D01*
X168239645Y-93504480D01*
X168273635Y-93566812D01*
X168276500Y-93593526D01*
X168276500Y-99446474D01*
X168256498Y-99514595D01*
X168202842Y-99561088D01*
X168132568Y-99571192D01*
X168067988Y-99541698D01*
X168049674Y-99522039D01*
X167968643Y-99413920D01*
X167968642Y-99413919D01*
X167963261Y-99406739D01*
X167846705Y-99319385D01*
X167710316Y-99268255D01*
X167648134Y-99261500D01*
X165351866Y-99261500D01*
X165289684Y-99268255D01*
X165153295Y-99319385D01*
X165036739Y-99406739D01*
X164949385Y-99523295D01*
X164898255Y-99659684D01*
X164891500Y-99721866D01*
X164891500Y-101618134D01*
X164898255Y-101680316D01*
X164949385Y-101816705D01*
X165036739Y-101933261D01*
X165153295Y-102020615D01*
X165289684Y-102071745D01*
X165351866Y-102078500D01*
X166540428Y-102078500D01*
X166608549Y-102098502D01*
X166655042Y-102152158D01*
X166665146Y-102222432D01*
X166635652Y-102287012D01*
X166629523Y-102293595D01*
X161046602Y-107876515D01*
X155583522Y-113339595D01*
X155521210Y-113373621D01*
X155494427Y-113376500D01*
X149443594Y-113376500D01*
X149375473Y-113356498D01*
X149328980Y-113302842D01*
X149318876Y-113232568D01*
X149348370Y-113167988D01*
X149354499Y-113161405D01*
X152792247Y-109723657D01*
X152800537Y-109716113D01*
X152807018Y-109712000D01*
X152853659Y-109662332D01*
X152856413Y-109659491D01*
X152876134Y-109639770D01*
X152878612Y-109636575D01*
X152886318Y-109627553D01*
X152911158Y-109601101D01*
X152916586Y-109595321D01*
X152926346Y-109577568D01*
X152937199Y-109561045D01*
X152944753Y-109551306D01*
X152949613Y-109545041D01*
X152967176Y-109504457D01*
X152972383Y-109493827D01*
X152993695Y-109455060D01*
X152995666Y-109447383D01*
X152995668Y-109447378D01*
X152998732Y-109435442D01*
X153005138Y-109416730D01*
X153010033Y-109405419D01*
X153013181Y-109398145D01*
X153014421Y-109390317D01*
X153014423Y-109390310D01*
X153020099Y-109354476D01*
X153022505Y-109342856D01*
X153031528Y-109307711D01*
X153031528Y-109307710D01*
X153033500Y-109300030D01*
X153033500Y-109279776D01*
X153035051Y-109260065D01*
X153036980Y-109247886D01*
X153038220Y-109240057D01*
X153034059Y-109196038D01*
X153033500Y-109184181D01*
X153033500Y-107406171D01*
X153053502Y-107338050D01*
X153107158Y-107291557D01*
X153177432Y-107281453D01*
X153242012Y-107310947D01*
X153276692Y-107359890D01*
X153300150Y-107419290D01*
X153420949Y-107618359D01*
X153573561Y-107794230D01*
X153577687Y-107797613D01*
X153577691Y-107797617D01*
X153673915Y-107876515D01*
X153753624Y-107941872D01*
X153758260Y-107944511D01*
X153758263Y-107944513D01*
X153868482Y-108007253D01*
X153955989Y-108057065D01*
X153961005Y-108058886D01*
X153961010Y-108058888D01*
X154169854Y-108134695D01*
X154169858Y-108134696D01*
X154174869Y-108136515D01*
X154180118Y-108137464D01*
X154180121Y-108137465D01*
X154260229Y-108151951D01*
X154404007Y-108177950D01*
X154408146Y-108178145D01*
X154408153Y-108178146D01*
X154426905Y-108179030D01*
X154426914Y-108179030D01*
X154428394Y-108179100D01*
X154896868Y-108179100D01*
X154964375Y-108173372D01*
X155065109Y-108164825D01*
X155065113Y-108164824D01*
X155070420Y-108164374D01*
X155075577Y-108163036D01*
X155075580Y-108163035D01*
X155290637Y-108107217D01*
X155290641Y-108107216D01*
X155295806Y-108105875D01*
X155300672Y-108103683D01*
X155300675Y-108103682D01*
X155503240Y-108012433D01*
X155508113Y-108010238D01*
X155701272Y-107880196D01*
X155869758Y-107719468D01*
X156008754Y-107532650D01*
X156114286Y-107325084D01*
X156153906Y-107197486D01*
X156181753Y-107107807D01*
X156181754Y-107107801D01*
X156183337Y-107102704D01*
X156213932Y-106871868D01*
X156205197Y-106639178D01*
X156157380Y-106411287D01*
X156071850Y-106194710D01*
X155951051Y-105995641D01*
X155798439Y-105819770D01*
X155794313Y-105816387D01*
X155794309Y-105816383D01*
X155622504Y-105675513D01*
X155618376Y-105672128D01*
X155613740Y-105669489D01*
X155613737Y-105669487D01*
X155572748Y-105646155D01*
X155523442Y-105595073D01*
X155509580Y-105525442D01*
X155535563Y-105459371D01*
X155564713Y-105432133D01*
X155616842Y-105397037D01*
X155701272Y-105340196D01*
X155869758Y-105179468D01*
X156008754Y-104992650D01*
X156114286Y-104785084D01*
X156153906Y-104657486D01*
X156181753Y-104567807D01*
X156181754Y-104567801D01*
X156183337Y-104562704D01*
X156213932Y-104331868D01*
X156205197Y-104099178D01*
X156157380Y-103871287D01*
X156071850Y-103654710D01*
X155951051Y-103455641D01*
X155798439Y-103279770D01*
X155794313Y-103276387D01*
X155794309Y-103276383D01*
X155622504Y-103135513D01*
X155618376Y-103132128D01*
X155613740Y-103129489D01*
X155613737Y-103129487D01*
X155572748Y-103106155D01*
X155523442Y-103055073D01*
X155509580Y-102985442D01*
X155535563Y-102919371D01*
X155564713Y-102892133D01*
X155616842Y-102857037D01*
X155701272Y-102800196D01*
X155869758Y-102639468D01*
X156008754Y-102452650D01*
X156114286Y-102245084D01*
X156166012Y-102078500D01*
X156181753Y-102027807D01*
X156181754Y-102027801D01*
X156183337Y-102022704D01*
X156200910Y-101890119D01*
X156213232Y-101797152D01*
X156213232Y-101797148D01*
X156213932Y-101791868D01*
X156205197Y-101559178D01*
X156161594Y-101351371D01*
X156158477Y-101336514D01*
X156158476Y-101336511D01*
X156157380Y-101331287D01*
X156071850Y-101114710D01*
X155951051Y-100915641D01*
X155919383Y-100879147D01*
X155801939Y-100743803D01*
X155801937Y-100743801D01*
X155798439Y-100739770D01*
X155794313Y-100736387D01*
X155794309Y-100736383D01*
X155622504Y-100595513D01*
X155618376Y-100592128D01*
X155613740Y-100589489D01*
X155613737Y-100589487D01*
X155572748Y-100566155D01*
X155523442Y-100515073D01*
X155509580Y-100445442D01*
X155535563Y-100379371D01*
X155564713Y-100352133D01*
X155616842Y-100317037D01*
X155701272Y-100260196D01*
X155869758Y-100099468D01*
X156008754Y-99912650D01*
X156114286Y-99705084D01*
X156180409Y-99492132D01*
X156219710Y-99433011D01*
X156284740Y-99404520D01*
X156300740Y-99403500D01*
X162418174Y-99403500D01*
X162462404Y-99411518D01*
X162489684Y-99421745D01*
X162551866Y-99428500D01*
X163948134Y-99428500D01*
X164010316Y-99421745D01*
X164146705Y-99370615D01*
X164263261Y-99283261D01*
X164350615Y-99166705D01*
X164401745Y-99030316D01*
X164408500Y-98968134D01*
X164408500Y-98571866D01*
X164404344Y-98533606D01*
X164404344Y-98506393D01*
X164408131Y-98471533D01*
X164408131Y-98471529D01*
X164408500Y-98468134D01*
X164408500Y-98071866D01*
X164404344Y-98033606D01*
X164404344Y-98006393D01*
X164408131Y-97971533D01*
X164408131Y-97971529D01*
X164408500Y-97968134D01*
X164408500Y-97571866D01*
X164404091Y-97531280D01*
X164404091Y-97504065D01*
X164407631Y-97471481D01*
X164408000Y-97464672D01*
X164408000Y-97438115D01*
X164403525Y-97422876D01*
X164377830Y-97400611D01*
X164378288Y-97400082D01*
X164365900Y-97393318D01*
X164350793Y-97373161D01*
X164350615Y-97373295D01*
X164311003Y-97320441D01*
X164286155Y-97253935D01*
X164301208Y-97184552D01*
X164351382Y-97134322D01*
X164376330Y-97123980D01*
X164405123Y-97115525D01*
X164406328Y-97114135D01*
X164407999Y-97106452D01*
X164407999Y-97075331D01*
X164407630Y-97068525D01*
X164403838Y-97033605D01*
X164403839Y-97006394D01*
X164407631Y-96971488D01*
X164408000Y-96964671D01*
X164408000Y-96938115D01*
X164403525Y-96922876D01*
X164402135Y-96921671D01*
X164394452Y-96920000D01*
X163418115Y-96920000D01*
X163402876Y-96924475D01*
X163401671Y-96925865D01*
X163400000Y-96933548D01*
X163400000Y-96985500D01*
X163379998Y-97053621D01*
X163326342Y-97100114D01*
X163274000Y-97111500D01*
X163226000Y-97111500D01*
X163157879Y-97091498D01*
X163111386Y-97037842D01*
X163100000Y-96985500D01*
X163100000Y-96938115D01*
X163095525Y-96922876D01*
X163094135Y-96921671D01*
X163086452Y-96920000D01*
X162110116Y-96920000D01*
X162094877Y-96924475D01*
X162093672Y-96925865D01*
X162092001Y-96933548D01*
X162092001Y-96964669D01*
X162092371Y-96971493D01*
X162096161Y-97006393D01*
X162096161Y-97033603D01*
X162092369Y-97068510D01*
X162092000Y-97075329D01*
X162092000Y-97101885D01*
X162096475Y-97117124D01*
X162097865Y-97118329D01*
X162114765Y-97122005D01*
X162177078Y-97156030D01*
X162211103Y-97218342D01*
X162206039Y-97289157D01*
X162188810Y-97320690D01*
X162149386Y-97373294D01*
X162149097Y-97373078D01*
X162102935Y-97419139D01*
X162097582Y-97421353D01*
X162093672Y-97425865D01*
X162092001Y-97433548D01*
X162092001Y-97464670D01*
X162092370Y-97471488D01*
X162095909Y-97504067D01*
X162095909Y-97531280D01*
X162091500Y-97571866D01*
X162091500Y-97968134D01*
X162091869Y-97971529D01*
X162091869Y-97971533D01*
X162094624Y-97996893D01*
X162082096Y-98066775D01*
X162033774Y-98118791D01*
X161969361Y-98136500D01*
X155766327Y-98136500D01*
X155698206Y-98116498D01*
X155686436Y-98107934D01*
X155622504Y-98055512D01*
X155622498Y-98055508D01*
X155618376Y-98052128D01*
X155613740Y-98049489D01*
X155613737Y-98049487D01*
X155572748Y-98026155D01*
X155523442Y-97975073D01*
X155509580Y-97905442D01*
X155535563Y-97839371D01*
X155564713Y-97812133D01*
X155616842Y-97777037D01*
X155701272Y-97720196D01*
X155869758Y-97559468D01*
X156008754Y-97372650D01*
X156020909Y-97348743D01*
X156069613Y-97297085D01*
X156122887Y-97280837D01*
X156122845Y-97280502D01*
X156124794Y-97280256D01*
X156124798Y-97280255D01*
X156126773Y-97280005D01*
X156126777Y-97280005D01*
X156126856Y-97279995D01*
X156138693Y-97279062D01*
X156170951Y-97278048D01*
X156174970Y-97277922D01*
X156182889Y-97277673D01*
X156202343Y-97272021D01*
X156221700Y-97268013D01*
X156233930Y-97266468D01*
X156233931Y-97266468D01*
X156241797Y-97265474D01*
X156249168Y-97262555D01*
X156249170Y-97262555D01*
X156282912Y-97249196D01*
X156294142Y-97245351D01*
X156328983Y-97235229D01*
X156328984Y-97235229D01*
X156336593Y-97233018D01*
X156343412Y-97228985D01*
X156343417Y-97228983D01*
X156354028Y-97222707D01*
X156371776Y-97214012D01*
X156390617Y-97206552D01*
X156426387Y-97180564D01*
X156436307Y-97174048D01*
X156467535Y-97155580D01*
X156467538Y-97155578D01*
X156474362Y-97151542D01*
X156488683Y-97137221D01*
X156503717Y-97124380D01*
X156507746Y-97121453D01*
X156520107Y-97112472D01*
X156548298Y-97078395D01*
X156556288Y-97069616D01*
X157185499Y-96440405D01*
X157247811Y-96406379D01*
X157274594Y-96403500D01*
X161969866Y-96403500D01*
X162037987Y-96423502D01*
X162084480Y-96477158D01*
X162095129Y-96543107D01*
X162092369Y-96568512D01*
X162092000Y-96575329D01*
X162092000Y-96601885D01*
X162096475Y-96617124D01*
X162097865Y-96618329D01*
X162105548Y-96620000D01*
X163081885Y-96620000D01*
X163097124Y-96615525D01*
X163098329Y-96614135D01*
X163100000Y-96606452D01*
X163100000Y-96554500D01*
X163120002Y-96486379D01*
X163173658Y-96439886D01*
X163226000Y-96428500D01*
X163274000Y-96428500D01*
X163342121Y-96448502D01*
X163388614Y-96502158D01*
X163400000Y-96554500D01*
X163400000Y-96601885D01*
X163404475Y-96617124D01*
X163405865Y-96618329D01*
X163413548Y-96620000D01*
X164389884Y-96620000D01*
X164405123Y-96615525D01*
X164406328Y-96614135D01*
X164407999Y-96606452D01*
X164407999Y-96575331D01*
X164407630Y-96568525D01*
X164403838Y-96533605D01*
X164403839Y-96506394D01*
X164407631Y-96471488D01*
X164408000Y-96464671D01*
X164408000Y-96438115D01*
X164403525Y-96422876D01*
X164402135Y-96421671D01*
X164385235Y-96417995D01*
X164322922Y-96383970D01*
X164288897Y-96321658D01*
X164293961Y-96250843D01*
X164311190Y-96219310D01*
X164345231Y-96173889D01*
X164345231Y-96173888D01*
X164350614Y-96166706D01*
X164350903Y-96166922D01*
X164397065Y-96120861D01*
X164402418Y-96118647D01*
X164406328Y-96114135D01*
X164407999Y-96106452D01*
X164407999Y-96075330D01*
X164407630Y-96068509D01*
X164404091Y-96035930D01*
X164404091Y-96008716D01*
X164407607Y-95976356D01*
X164408500Y-95968134D01*
X164408500Y-95571866D01*
X164404344Y-95533606D01*
X164404344Y-95506393D01*
X164408131Y-95471533D01*
X164408131Y-95471529D01*
X164408500Y-95468134D01*
X164408500Y-95071866D01*
X164404344Y-95033606D01*
X164404344Y-95006393D01*
X164408131Y-94971533D01*
X164408131Y-94971529D01*
X164408500Y-94968134D01*
X164408500Y-94571866D01*
X164404344Y-94533606D01*
X164404344Y-94506393D01*
X164408131Y-94471533D01*
X164408131Y-94471529D01*
X164408500Y-94468134D01*
X164408500Y-94071866D01*
X164401745Y-94009684D01*
X164350615Y-93873295D01*
X164263261Y-93756739D01*
X164146705Y-93669385D01*
X164010316Y-93618255D01*
X163948134Y-93611500D01*
X162551866Y-93611500D01*
X162489684Y-93618255D01*
X162462404Y-93628482D01*
X162418174Y-93636500D01*
X157703595Y-93636500D01*
X157635474Y-93616498D01*
X157614500Y-93599595D01*
X156164697Y-92149792D01*
X156130671Y-92087480D01*
X156133460Y-92023333D01*
X156140050Y-92002112D01*
X156150740Y-91967683D01*
X156181753Y-91867807D01*
X156181754Y-91867801D01*
X156183337Y-91862704D01*
X156209451Y-91665680D01*
X156213232Y-91637152D01*
X156213232Y-91637148D01*
X156213932Y-91631868D01*
X156205197Y-91399178D01*
X156160129Y-91184389D01*
X156158477Y-91176514D01*
X156158476Y-91176511D01*
X156157380Y-91171287D01*
X156071850Y-90954710D01*
X155951051Y-90755641D01*
X155947554Y-90751611D01*
X155801939Y-90583803D01*
X155801937Y-90583801D01*
X155798439Y-90579770D01*
X155794313Y-90576387D01*
X155794309Y-90576383D01*
X155622504Y-90435513D01*
X155618376Y-90432128D01*
X155613740Y-90429489D01*
X155613737Y-90429487D01*
X155572748Y-90406155D01*
X155523442Y-90355073D01*
X155509580Y-90285442D01*
X155535563Y-90219371D01*
X155564713Y-90192133D01*
X155616842Y-90157037D01*
X155701272Y-90100196D01*
X155869758Y-89939468D01*
X156008754Y-89752650D01*
X156084989Y-89602707D01*
X156111867Y-89549842D01*
X156111867Y-89549841D01*
X156114286Y-89545084D01*
X156155871Y-89411158D01*
X156181753Y-89327807D01*
X156181754Y-89327801D01*
X156183337Y-89322704D01*
X156213932Y-89091868D01*
X156205197Y-88859178D01*
X156157380Y-88631287D01*
X156071850Y-88414710D01*
X155951051Y-88215641D01*
X155884441Y-88138879D01*
X155801939Y-88043803D01*
X155801937Y-88043801D01*
X155798439Y-88039770D01*
X155794313Y-88036387D01*
X155794309Y-88036383D01*
X155622504Y-87895513D01*
X155618376Y-87892128D01*
X155613740Y-87889489D01*
X155613737Y-87889487D01*
X155572748Y-87866155D01*
X155523442Y-87815073D01*
X155509580Y-87745442D01*
X155535563Y-87679371D01*
X155564713Y-87652133D01*
X155689239Y-87568297D01*
X155701272Y-87560196D01*
X155719935Y-87542393D01*
X155826938Y-87440316D01*
X155869758Y-87399468D01*
X156008754Y-87212650D01*
X156020578Y-87189394D01*
X156069281Y-87137737D01*
X156132894Y-87120500D01*
X157292406Y-87120500D01*
X157360527Y-87140502D01*
G37*
%TD.AperFunction*%
%TA.AperFunction,Conductor*%
G36*
X154016339Y-69761582D02*
G01*
X154062832Y-69815238D01*
X154072936Y-69885512D01*
X154043442Y-69950092D01*
X153999970Y-69982461D01*
X153863887Y-70043762D01*
X153670728Y-70173804D01*
X153502242Y-70334532D01*
X153363246Y-70521350D01*
X153360830Y-70526102D01*
X153305925Y-70634093D01*
X153257714Y-70728916D01*
X153229341Y-70820291D01*
X153190247Y-70946193D01*
X153190246Y-70946199D01*
X153188663Y-70951296D01*
X153158068Y-71182132D01*
X153166803Y-71414822D01*
X153214620Y-71642713D01*
X153300150Y-71859290D01*
X153420949Y-72058359D01*
X153424446Y-72062389D01*
X153558354Y-72216705D01*
X153573561Y-72234230D01*
X153577687Y-72237613D01*
X153577691Y-72237617D01*
X153673915Y-72316515D01*
X153753624Y-72381872D01*
X153799739Y-72408122D01*
X153849044Y-72459202D01*
X153862906Y-72528832D01*
X153836923Y-72594904D01*
X153807773Y-72622143D01*
X153675470Y-72711215D01*
X153667184Y-72717876D01*
X153506480Y-72871180D01*
X153499431Y-72879148D01*
X153366856Y-73057336D01*
X153361257Y-73066366D01*
X153260598Y-73264347D01*
X153256595Y-73274208D01*
X153190737Y-73486301D01*
X153188452Y-73496696D01*
X153186020Y-73515041D01*
X153188217Y-73529208D01*
X153201401Y-73533000D01*
X156168488Y-73533000D01*
X156182019Y-73529027D01*
X156183544Y-73518420D01*
X156157996Y-73396657D01*
X156154936Y-73386461D01*
X156073363Y-73179903D01*
X156068629Y-73170366D01*
X155953414Y-72980497D01*
X155947150Y-72971907D01*
X155801589Y-72804163D01*
X155793959Y-72796743D01*
X155622220Y-72655927D01*
X155613449Y-72649898D01*
X155572285Y-72626467D01*
X155522978Y-72575385D01*
X155509116Y-72505755D01*
X155535099Y-72439684D01*
X155564249Y-72412445D01*
X155701272Y-72320196D01*
X155869758Y-72159468D01*
X156008754Y-71972650D01*
X156114286Y-71765084D01*
X156153906Y-71637486D01*
X156181753Y-71547807D01*
X156181754Y-71547801D01*
X156183337Y-71542704D01*
X156213932Y-71311868D01*
X156205197Y-71079178D01*
X156157380Y-70851287D01*
X156071850Y-70634710D01*
X155951051Y-70435641D01*
X155798439Y-70259770D01*
X155794313Y-70256387D01*
X155794309Y-70256383D01*
X155622504Y-70115513D01*
X155618376Y-70112128D01*
X155613740Y-70109489D01*
X155613737Y-70109487D01*
X155420654Y-69999578D01*
X155416011Y-69996935D01*
X155385938Y-69986019D01*
X155328730Y-69943974D01*
X155303334Y-69877675D01*
X155317814Y-69808171D01*
X155367572Y-69757528D01*
X155428929Y-69741580D01*
X157056332Y-69741580D01*
X157124453Y-69761582D01*
X157145427Y-69778485D01*
X158001035Y-70634093D01*
X158035061Y-70696405D01*
X158037940Y-70723188D01*
X158037940Y-80707937D01*
X158017938Y-80776058D01*
X157964282Y-80822551D01*
X157894008Y-80832655D01*
X157851237Y-80818350D01*
X157849005Y-80817123D01*
X157842060Y-80813305D01*
X157822437Y-80808267D01*
X157803734Y-80801863D01*
X157792420Y-80796967D01*
X157792419Y-80796967D01*
X157785145Y-80793819D01*
X157777322Y-80792580D01*
X157777312Y-80792577D01*
X157741476Y-80786901D01*
X157729856Y-80784495D01*
X157694711Y-80775472D01*
X157694710Y-80775472D01*
X157687030Y-80773500D01*
X157666776Y-80773500D01*
X157647065Y-80771949D01*
X157634886Y-80770020D01*
X157627057Y-80768780D01*
X157619165Y-80769526D01*
X157583039Y-80772941D01*
X157571181Y-80773500D01*
X156129904Y-80773500D01*
X156061783Y-80753498D01*
X156022185Y-80712866D01*
X156021603Y-80711906D01*
X155951051Y-80595641D01*
X155915225Y-80554355D01*
X155801939Y-80423803D01*
X155801937Y-80423801D01*
X155798439Y-80419770D01*
X155794313Y-80416387D01*
X155794309Y-80416383D01*
X155622504Y-80275513D01*
X155618376Y-80272128D01*
X155613740Y-80269489D01*
X155613737Y-80269487D01*
X155572748Y-80246155D01*
X155523442Y-80195073D01*
X155509580Y-80125442D01*
X155535563Y-80059371D01*
X155564713Y-80032133D01*
X155616842Y-79997037D01*
X155701272Y-79940196D01*
X155869758Y-79779468D01*
X156008754Y-79592650D01*
X156066389Y-79479290D01*
X156111867Y-79389842D01*
X156111867Y-79389841D01*
X156114286Y-79385084D01*
X156153951Y-79257343D01*
X156181753Y-79167807D01*
X156181754Y-79167801D01*
X156183337Y-79162704D01*
X156213932Y-78931868D01*
X156205197Y-78699178D01*
X156157380Y-78471287D01*
X156071850Y-78254710D01*
X155951051Y-78055641D01*
X155798439Y-77879770D01*
X155794313Y-77876387D01*
X155794309Y-77876383D01*
X155622504Y-77735513D01*
X155618376Y-77732128D01*
X155613740Y-77729489D01*
X155613737Y-77729487D01*
X155572748Y-77706155D01*
X155523442Y-77655073D01*
X155509580Y-77585442D01*
X155535563Y-77519371D01*
X155564713Y-77492133D01*
X155616842Y-77457037D01*
X155701272Y-77400196D01*
X155716069Y-77386081D01*
X155865896Y-77243152D01*
X155869758Y-77239468D01*
X156008754Y-77052650D01*
X156114286Y-76845084D01*
X156153906Y-76717486D01*
X156181753Y-76627807D01*
X156181754Y-76627801D01*
X156183337Y-76622704D01*
X156213932Y-76391868D01*
X156205197Y-76159178D01*
X156157380Y-75931287D01*
X156071850Y-75714710D01*
X155951051Y-75515641D01*
X155798439Y-75339770D01*
X155794313Y-75336387D01*
X155794309Y-75336383D01*
X155622504Y-75195513D01*
X155618376Y-75192128D01*
X155572261Y-75165878D01*
X155522956Y-75114798D01*
X155509094Y-75045168D01*
X155535077Y-74979096D01*
X155564227Y-74951857D01*
X155696530Y-74862785D01*
X155704816Y-74856124D01*
X155865520Y-74702820D01*
X155872569Y-74694852D01*
X156005144Y-74516664D01*
X156010743Y-74507634D01*
X156111402Y-74309653D01*
X156115405Y-74299792D01*
X156181263Y-74087699D01*
X156183548Y-74077304D01*
X156185980Y-74058959D01*
X156183783Y-74044792D01*
X156170599Y-74041000D01*
X153203512Y-74041000D01*
X153189981Y-74044973D01*
X153188456Y-74055580D01*
X153214004Y-74177343D01*
X153217064Y-74187539D01*
X153298637Y-74394097D01*
X153303371Y-74403634D01*
X153418586Y-74593503D01*
X153424850Y-74602093D01*
X153570411Y-74769837D01*
X153578041Y-74777257D01*
X153749780Y-74918073D01*
X153758551Y-74924102D01*
X153799715Y-74947533D01*
X153849022Y-74998615D01*
X153862884Y-75068245D01*
X153836901Y-75134316D01*
X153807751Y-75161555D01*
X153670728Y-75253804D01*
X153502242Y-75414532D01*
X153363246Y-75601350D01*
X153257714Y-75808916D01*
X153223189Y-75920106D01*
X153190247Y-76026193D01*
X153190246Y-76026199D01*
X153188663Y-76031296D01*
X153158068Y-76262132D01*
X153166803Y-76494822D01*
X153214620Y-76722713D01*
X153300150Y-76939290D01*
X153420949Y-77138359D01*
X153424446Y-77142389D01*
X153540999Y-77276705D01*
X153573561Y-77314230D01*
X153577687Y-77317613D01*
X153577691Y-77317617D01*
X153673915Y-77396515D01*
X153753624Y-77461872D01*
X153758260Y-77464511D01*
X153758263Y-77464513D01*
X153799252Y-77487845D01*
X153848558Y-77538927D01*
X153862420Y-77608558D01*
X153836437Y-77674629D01*
X153807287Y-77701867D01*
X153766262Y-77729487D01*
X153670728Y-77793804D01*
X153502242Y-77954532D01*
X153363246Y-78141350D01*
X153360830Y-78146102D01*
X153285835Y-78293607D01*
X153257714Y-78348916D01*
X153256071Y-78354208D01*
X153190247Y-78566193D01*
X153190246Y-78566199D01*
X153188663Y-78571296D01*
X153158068Y-78802132D01*
X153158268Y-78807462D01*
X153158268Y-78807463D01*
X153162436Y-78918477D01*
X153166803Y-79034822D01*
X153167898Y-79040040D01*
X153208078Y-79231533D01*
X153214620Y-79262713D01*
X153300150Y-79479290D01*
X153420949Y-79678359D01*
X153424446Y-79682389D01*
X153557121Y-79835284D01*
X153573561Y-79854230D01*
X153577687Y-79857613D01*
X153577691Y-79857617D01*
X153673438Y-79936124D01*
X153753624Y-80001872D01*
X153758260Y-80004511D01*
X153758263Y-80004513D01*
X153799252Y-80027845D01*
X153848558Y-80078927D01*
X153862420Y-80148558D01*
X153836437Y-80214629D01*
X153807287Y-80241867D01*
X153766262Y-80269487D01*
X153670728Y-80333804D01*
X153666871Y-80337483D01*
X153666869Y-80337485D01*
X153602368Y-80399016D01*
X153502242Y-80494532D01*
X153363246Y-80681350D01*
X153257714Y-80888916D01*
X153241220Y-80942035D01*
X153190247Y-81106193D01*
X153190246Y-81106199D01*
X153188663Y-81111296D01*
X153179176Y-81182876D01*
X153161192Y-81318565D01*
X153158068Y-81342132D01*
X153158268Y-81347462D01*
X153158268Y-81347463D01*
X153159680Y-81385085D01*
X153166803Y-81574822D01*
X153167898Y-81580040D01*
X153191715Y-81693548D01*
X153214620Y-81802713D01*
X153300150Y-82019290D01*
X153420949Y-82218359D01*
X153424446Y-82222389D01*
X153519445Y-82331866D01*
X153573561Y-82394230D01*
X153577687Y-82397613D01*
X153577691Y-82397617D01*
X153673915Y-82476515D01*
X153753624Y-82541872D01*
X153758260Y-82544511D01*
X153758263Y-82544513D01*
X153799252Y-82567845D01*
X153848558Y-82618927D01*
X153862420Y-82688558D01*
X153836437Y-82754629D01*
X153807287Y-82781867D01*
X153670728Y-82873804D01*
X153502242Y-83034532D01*
X153363246Y-83221350D01*
X153257714Y-83428916D01*
X153246817Y-83464011D01*
X153190247Y-83646193D01*
X153190246Y-83646199D01*
X153188663Y-83651296D01*
X153158068Y-83882132D01*
X153166803Y-84114822D01*
X153214620Y-84342713D01*
X153300150Y-84559290D01*
X153420949Y-84758359D01*
X153424446Y-84762389D01*
X153524393Y-84877568D01*
X153573561Y-84934230D01*
X153577687Y-84937613D01*
X153577691Y-84937617D01*
X153673915Y-85016515D01*
X153753624Y-85081872D01*
X153758260Y-85084511D01*
X153758263Y-85084513D01*
X153799252Y-85107845D01*
X153848558Y-85158927D01*
X153862420Y-85228558D01*
X153836437Y-85294629D01*
X153807287Y-85321867D01*
X153670728Y-85413804D01*
X153666871Y-85417483D01*
X153666869Y-85417485D01*
X153625469Y-85456979D01*
X153502242Y-85574532D01*
X153363246Y-85761350D01*
X153360830Y-85766102D01*
X153267433Y-85949801D01*
X153257714Y-85968916D01*
X153237205Y-86034966D01*
X153190247Y-86186193D01*
X153190246Y-86186199D01*
X153188663Y-86191296D01*
X153158068Y-86422132D01*
X153166803Y-86654822D01*
X153214620Y-86882713D01*
X153300150Y-87099290D01*
X153420949Y-87298359D01*
X153424446Y-87302389D01*
X153550553Y-87447715D01*
X153573561Y-87474230D01*
X153577687Y-87477613D01*
X153577691Y-87477617D01*
X153656692Y-87542393D01*
X153753624Y-87621872D01*
X153758260Y-87624511D01*
X153758263Y-87624513D01*
X153799252Y-87647845D01*
X153848558Y-87698927D01*
X153862420Y-87768558D01*
X153836437Y-87834629D01*
X153807287Y-87861867D01*
X153670728Y-87953804D01*
X153502242Y-88114532D01*
X153363246Y-88301350D01*
X153360830Y-88306102D01*
X153299531Y-88426669D01*
X153257714Y-88508916D01*
X153233356Y-88587362D01*
X153190247Y-88726193D01*
X153190246Y-88726199D01*
X153188663Y-88731296D01*
X153158068Y-88962132D01*
X153166803Y-89194822D01*
X153214620Y-89422713D01*
X153235141Y-89474676D01*
X153241559Y-89545379D01*
X153207044Y-89610051D01*
X152007747Y-90809348D01*
X151999461Y-90816888D01*
X151992982Y-90821000D01*
X151987557Y-90826777D01*
X151946357Y-90870651D01*
X151943602Y-90873493D01*
X151923865Y-90893230D01*
X151921385Y-90896427D01*
X151913682Y-90905447D01*
X151883414Y-90937679D01*
X151879595Y-90944625D01*
X151879593Y-90944628D01*
X151873652Y-90955434D01*
X151862801Y-90971953D01*
X151850386Y-90987959D01*
X151847241Y-90995228D01*
X151847238Y-90995232D01*
X151832826Y-91028537D01*
X151827609Y-91039187D01*
X151806305Y-91077940D01*
X151804334Y-91085615D01*
X151804334Y-91085616D01*
X151801267Y-91097562D01*
X151794863Y-91116266D01*
X151786819Y-91134855D01*
X151785580Y-91142678D01*
X151785577Y-91142688D01*
X151779901Y-91178524D01*
X151777495Y-91190144D01*
X151766500Y-91232970D01*
X151766500Y-91253224D01*
X151764949Y-91272934D01*
X151761780Y-91292943D01*
X151762526Y-91300835D01*
X151765941Y-91336961D01*
X151766500Y-91348819D01*
X151766500Y-108905405D01*
X151746498Y-108973526D01*
X151729595Y-108994500D01*
X147884500Y-112839595D01*
X147822188Y-112873621D01*
X147795405Y-112876500D01*
X126956594Y-112876500D01*
X126888473Y-112856498D01*
X126841980Y-112802842D01*
X126831876Y-112732568D01*
X126861370Y-112667988D01*
X126867499Y-112661405D01*
X137712524Y-101816380D01*
X137774836Y-101782354D01*
X137845651Y-101787419D01*
X137902487Y-101829966D01*
X137926621Y-101889972D01*
X137926803Y-101894822D01*
X137952067Y-102015229D01*
X137965266Y-102078131D01*
X137974620Y-102122713D01*
X138060150Y-102339290D01*
X138180949Y-102538359D01*
X138333561Y-102714230D01*
X138337687Y-102717613D01*
X138337691Y-102717617D01*
X138433915Y-102796515D01*
X138513624Y-102861872D01*
X138518260Y-102864511D01*
X138518263Y-102864513D01*
X138559252Y-102887845D01*
X138608558Y-102938927D01*
X138622420Y-103008558D01*
X138596437Y-103074629D01*
X138567287Y-103101867D01*
X138430728Y-103193804D01*
X138262242Y-103354532D01*
X138123246Y-103541350D01*
X138017714Y-103748916D01*
X137983189Y-103860106D01*
X137950247Y-103966193D01*
X137950246Y-103966199D01*
X137948663Y-103971296D01*
X137918068Y-104202132D01*
X137926803Y-104434822D01*
X137974620Y-104662713D01*
X138060150Y-104879290D01*
X138180949Y-105078359D01*
X138333561Y-105254230D01*
X138337687Y-105257613D01*
X138337691Y-105257617D01*
X138433915Y-105336515D01*
X138513624Y-105401872D01*
X138518260Y-105404511D01*
X138518263Y-105404513D01*
X138559252Y-105427845D01*
X138608558Y-105478927D01*
X138622420Y-105548558D01*
X138596437Y-105614629D01*
X138567287Y-105641867D01*
X138430728Y-105733804D01*
X138262242Y-105894532D01*
X138123246Y-106081350D01*
X138017714Y-106288916D01*
X137997530Y-106353919D01*
X137950247Y-106506193D01*
X137950246Y-106506199D01*
X137948663Y-106511296D01*
X137947962Y-106516588D01*
X137928254Y-106665283D01*
X137918068Y-106742132D01*
X137926803Y-106974822D01*
X137974620Y-107202713D01*
X138060150Y-107419290D01*
X138180949Y-107618359D01*
X138333561Y-107794230D01*
X138337687Y-107797613D01*
X138337691Y-107797617D01*
X138433915Y-107876515D01*
X138513624Y-107941872D01*
X138518260Y-107944511D01*
X138518263Y-107944513D01*
X138628482Y-108007253D01*
X138715989Y-108057065D01*
X138721005Y-108058886D01*
X138721010Y-108058888D01*
X138929854Y-108134695D01*
X138929858Y-108134696D01*
X138934869Y-108136515D01*
X138940118Y-108137464D01*
X138940121Y-108137465D01*
X139020229Y-108151951D01*
X139164007Y-108177950D01*
X139168146Y-108178145D01*
X139168153Y-108178146D01*
X139186905Y-108179030D01*
X139186914Y-108179030D01*
X139188394Y-108179100D01*
X139656868Y-108179100D01*
X139724375Y-108173372D01*
X139825109Y-108164825D01*
X139825113Y-108164824D01*
X139830420Y-108164374D01*
X139835577Y-108163036D01*
X139835580Y-108163035D01*
X140050637Y-108107217D01*
X140050641Y-108107216D01*
X140055806Y-108105875D01*
X140060672Y-108103683D01*
X140060675Y-108103682D01*
X140263240Y-108012433D01*
X140268113Y-108010238D01*
X140461272Y-107880196D01*
X140629758Y-107719468D01*
X140768754Y-107532650D01*
X140874286Y-107325084D01*
X140913906Y-107197486D01*
X140941753Y-107107807D01*
X140941754Y-107107801D01*
X140943337Y-107102704D01*
X140973932Y-106871868D01*
X140965197Y-106639178D01*
X140917380Y-106411287D01*
X140831850Y-106194710D01*
X140711051Y-105995641D01*
X140558439Y-105819770D01*
X140554313Y-105816387D01*
X140554309Y-105816383D01*
X140382504Y-105675513D01*
X140378376Y-105672128D01*
X140373740Y-105669489D01*
X140373737Y-105669487D01*
X140332748Y-105646155D01*
X140283442Y-105595073D01*
X140269580Y-105525442D01*
X140295563Y-105459371D01*
X140324713Y-105432133D01*
X140376842Y-105397037D01*
X140461272Y-105340196D01*
X140629758Y-105179468D01*
X140768754Y-104992650D01*
X140874286Y-104785084D01*
X140913906Y-104657486D01*
X140941753Y-104567807D01*
X140941754Y-104567801D01*
X140943337Y-104562704D01*
X140973932Y-104331868D01*
X140965197Y-104099178D01*
X140917380Y-103871287D01*
X140831850Y-103654710D01*
X140711051Y-103455641D01*
X140558439Y-103279770D01*
X140554313Y-103276387D01*
X140554309Y-103276383D01*
X140382504Y-103135513D01*
X140378376Y-103132128D01*
X140373740Y-103129489D01*
X140373737Y-103129487D01*
X140332748Y-103106155D01*
X140283442Y-103055073D01*
X140269580Y-102985442D01*
X140295563Y-102919371D01*
X140324713Y-102892133D01*
X140376842Y-102857037D01*
X140461272Y-102800196D01*
X140629758Y-102639468D01*
X140768754Y-102452650D01*
X140874286Y-102245084D01*
X140926012Y-102078500D01*
X140941753Y-102027807D01*
X140941754Y-102027801D01*
X140943337Y-102022704D01*
X140960910Y-101890119D01*
X140973232Y-101797152D01*
X140973232Y-101797148D01*
X140973932Y-101791868D01*
X140965197Y-101559178D01*
X140921594Y-101351371D01*
X140918477Y-101336514D01*
X140918476Y-101336511D01*
X140917380Y-101331287D01*
X140831850Y-101114710D01*
X140711051Y-100915641D01*
X140679383Y-100879147D01*
X140561939Y-100743803D01*
X140561937Y-100743801D01*
X140558439Y-100739770D01*
X140554313Y-100736387D01*
X140554309Y-100736383D01*
X140382504Y-100595513D01*
X140378376Y-100592128D01*
X140373740Y-100589489D01*
X140373737Y-100589487D01*
X140332748Y-100566155D01*
X140283442Y-100515073D01*
X140269580Y-100445442D01*
X140295563Y-100379371D01*
X140324713Y-100352133D01*
X140376842Y-100317037D01*
X140461272Y-100260196D01*
X140629758Y-100099468D01*
X140768754Y-99912650D01*
X140874286Y-99705084D01*
X140925019Y-99541698D01*
X140941753Y-99487807D01*
X140941754Y-99487801D01*
X140943337Y-99482704D01*
X140960286Y-99354822D01*
X140973232Y-99257152D01*
X140973232Y-99257148D01*
X140973932Y-99251868D01*
X140965197Y-99019178D01*
X140917380Y-98791287D01*
X140831850Y-98574710D01*
X140711051Y-98375641D01*
X140558439Y-98199770D01*
X140554313Y-98196387D01*
X140554309Y-98196383D01*
X140382504Y-98055513D01*
X140382503Y-98055512D01*
X140378376Y-98052128D01*
X140373740Y-98049489D01*
X140373737Y-98049487D01*
X140332748Y-98026155D01*
X140283442Y-97975073D01*
X140269580Y-97905442D01*
X140295563Y-97839371D01*
X140324713Y-97812133D01*
X140376842Y-97777037D01*
X140461272Y-97720196D01*
X140629758Y-97559468D01*
X140768754Y-97372650D01*
X140847208Y-97218342D01*
X140871867Y-97169842D01*
X140871867Y-97169841D01*
X140874286Y-97165084D01*
X140913796Y-97037842D01*
X140941753Y-96947807D01*
X140941754Y-96947801D01*
X140943337Y-96942704D01*
X140973932Y-96711868D01*
X140965197Y-96479178D01*
X140920129Y-96264389D01*
X140918477Y-96256514D01*
X140918476Y-96256511D01*
X140917380Y-96251287D01*
X140831850Y-96034710D01*
X140711051Y-95835641D01*
X140558439Y-95659770D01*
X140554311Y-95656385D01*
X140554309Y-95656383D01*
X140421432Y-95547432D01*
X140378376Y-95512128D01*
X140373740Y-95509489D01*
X140373737Y-95509487D01*
X140332748Y-95486155D01*
X140283442Y-95435073D01*
X140269580Y-95365442D01*
X140295563Y-95299371D01*
X140324713Y-95272133D01*
X140376842Y-95237037D01*
X140461272Y-95180196D01*
X140629758Y-95019468D01*
X140768754Y-94832650D01*
X140874286Y-94625084D01*
X140921965Y-94471533D01*
X140941753Y-94407807D01*
X140941754Y-94407801D01*
X140943337Y-94402704D01*
X140973932Y-94171868D01*
X140965197Y-93939178D01*
X140931483Y-93778500D01*
X140918477Y-93716514D01*
X140918476Y-93716511D01*
X140917380Y-93711287D01*
X140831850Y-93494710D01*
X140711051Y-93295641D01*
X140558439Y-93119770D01*
X140554313Y-93116387D01*
X140554309Y-93116383D01*
X140382504Y-92975513D01*
X140378376Y-92972128D01*
X140373740Y-92969489D01*
X140373737Y-92969487D01*
X140332748Y-92946155D01*
X140283442Y-92895073D01*
X140269580Y-92825442D01*
X140295563Y-92759371D01*
X140324713Y-92732133D01*
X140376842Y-92697037D01*
X140461272Y-92640196D01*
X140629758Y-92479468D01*
X140768754Y-92292650D01*
X140780909Y-92268743D01*
X140829613Y-92217085D01*
X140882887Y-92200837D01*
X140882845Y-92200502D01*
X140884794Y-92200256D01*
X140884798Y-92200255D01*
X140886773Y-92200005D01*
X140886777Y-92200005D01*
X140886856Y-92199995D01*
X140898693Y-92199062D01*
X140930951Y-92198048D01*
X140934970Y-92197922D01*
X140942889Y-92197673D01*
X140962343Y-92192021D01*
X140981700Y-92188013D01*
X140993930Y-92186468D01*
X140993931Y-92186468D01*
X141001797Y-92185474D01*
X141009168Y-92182555D01*
X141009170Y-92182555D01*
X141042912Y-92169196D01*
X141054142Y-92165351D01*
X141088983Y-92155229D01*
X141088984Y-92155229D01*
X141096593Y-92153018D01*
X141103412Y-92148985D01*
X141103417Y-92148983D01*
X141114028Y-92142707D01*
X141131776Y-92134012D01*
X141150617Y-92126552D01*
X141186387Y-92100564D01*
X141196307Y-92094048D01*
X141227535Y-92075580D01*
X141227538Y-92075578D01*
X141234362Y-92071542D01*
X141248683Y-92057221D01*
X141263717Y-92044380D01*
X141267746Y-92041453D01*
X141280107Y-92032472D01*
X141308298Y-91998395D01*
X141316288Y-91989616D01*
X144430327Y-88875577D01*
X144438617Y-88868033D01*
X144445098Y-88863920D01*
X144491739Y-88814252D01*
X144494493Y-88811411D01*
X144514214Y-88791690D01*
X144516692Y-88788495D01*
X144524398Y-88779473D01*
X144549238Y-88753021D01*
X144554666Y-88747241D01*
X144564426Y-88729488D01*
X144575279Y-88712965D01*
X144582833Y-88703226D01*
X144587693Y-88696961D01*
X144605256Y-88656377D01*
X144610463Y-88645747D01*
X144631775Y-88606980D01*
X144633746Y-88599303D01*
X144633748Y-88599298D01*
X144636812Y-88587362D01*
X144643218Y-88568650D01*
X144648114Y-88557337D01*
X144651261Y-88550065D01*
X144657779Y-88508916D01*
X144658177Y-88506401D01*
X144660584Y-88494780D01*
X144669608Y-88459631D01*
X144669608Y-88459630D01*
X144671580Y-88451950D01*
X144671580Y-88431689D01*
X144673131Y-88411978D01*
X144675059Y-88399805D01*
X144676299Y-88391977D01*
X144672139Y-88347966D01*
X144671580Y-88336109D01*
X144671580Y-70909386D01*
X144691582Y-70841265D01*
X144708485Y-70820291D01*
X145750291Y-69778485D01*
X145812603Y-69744459D01*
X145839386Y-69741580D01*
X153948218Y-69741580D01*
X154016339Y-69761582D01*
G37*
%TD.AperFunction*%
%TD*%
M02*
