M48
; DRILL file {KiCad (6.0.1)} date Mon Jun  6 15:56:16 2022
; FORMAT={-:-/ absolute / inch / decimal}
; #@! TF.CreationDate,2022-06-06T15:56:16+01:00
; #@! TF.GenerationSoftware,Kicad,Pcbnew,(6.0.1)
; #@! TF.FileFunction,Plated,1,2,PTH
FMAT,2
INCH
; #@! TA.AperFunction,Plated,PTH,ComponentDrill
T1C0.0315
; #@! TA.AperFunction,Plated,PTH,ComponentDrill
T2C0.0394
; #@! TA.AperFunction,Plated,PTH,ComponentDrill
T3C0.0400
; #@! TA.AperFunction,Plated,PTH,ComponentDrill
T4C0.0650
; #@! TA.AperFunction,Plated,PTH,ComponentDrill
T5C0.0700
%
G90
G05
T1
X5.2998Y-4.6496
X5.2998Y-4.9496
X5.3998Y-4.6496
X5.3998Y-4.9496
X5.4998Y-4.6496
X5.4998Y-4.9496
X5.5998Y-4.6496
X5.5998Y-4.9496
X5.6998Y-4.6496
X5.6998Y-4.9496
X5.7998Y-4.6496
X5.7998Y-4.9496
X5.8998Y-4.6496
X5.8998Y-4.9496
T2
X5.1Y-2.8
X5.1Y-2.9
X5.7Y-2.0
X5.7Y-2.1
X6.1Y-2.0
X6.1Y-2.1
X6.1Y-2.4
X6.1Y-2.5
X6.2Y-4.7
X6.2Y-4.8
X6.2Y-4.9
X6.2Y-5.0
T3
X5.49Y-2.805
X5.49Y-2.905
X5.49Y-3.005
X5.49Y-3.105
X5.49Y-3.205
X5.49Y-3.305
X5.49Y-3.405
X5.49Y-3.505
X5.49Y-3.605
X5.49Y-3.705
X5.49Y-3.805
X5.49Y-3.905
X5.49Y-4.005
X5.49Y-4.105
X5.49Y-4.205
X6.09Y-2.805
X6.09Y-2.905
X6.09Y-3.005
X6.09Y-3.105
X6.09Y-3.205
X6.09Y-3.305
X6.09Y-3.405
X6.09Y-3.505
X6.09Y-3.605
X6.09Y-3.705
X6.09Y-3.805
X6.09Y-3.905
X6.09Y-4.005
X6.09Y-4.105
X6.09Y-4.205
T4
X4.913Y-2.2206
X5.1Y-2.2206
X5.287Y-2.2206
T5
X4.6Y-1.9
X4.6Y-5.0
X6.4Y-1.9
X6.4Y-5.0
T0
M30
