%TF.GenerationSoftware,KiCad,Pcbnew,8.0.4*%
%TF.CreationDate,2024-08-09T22:10:12+01:00*%
%TF.ProjectId,esp32,65737033-322e-46b6-9963-61645f706362,rev?*%
%TF.SameCoordinates,Original*%
%TF.FileFunction,Legend,Bot*%
%TF.FilePolarity,Positive*%
%FSLAX46Y46*%
G04 Gerber Fmt 4.6, Leading zero omitted, Abs format (unit mm)*
G04 Created by KiCad (PCBNEW 8.0.4) date 2024-08-09 22:10:12*
%MOMM*%
%LPD*%
G01*
G04 APERTURE LIST*
%ADD10C,0.100000*%
%ADD11C,0.150000*%
%ADD12C,0.120000*%
%ADD13C,1.300000*%
%ADD14O,1.300000X1.800000*%
%ADD15R,1.000000X1.000000*%
%ADD16R,1.500000X1.500000*%
G04 APERTURE END LIST*
D10*
X145258449Y-124155434D02*
X144877497Y-124155434D01*
X145115592Y-123822101D02*
X145115592Y-124679243D01*
X145115592Y-124679243D02*
X145067973Y-124774482D01*
X145067973Y-124774482D02*
X144972735Y-124822101D01*
X144972735Y-124822101D02*
X144877497Y-124822101D01*
X144544163Y-124822101D02*
X144544163Y-124155434D01*
X144544163Y-124345910D02*
X144496544Y-124250672D01*
X144496544Y-124250672D02*
X144448925Y-124203053D01*
X144448925Y-124203053D02*
X144353687Y-124155434D01*
X144353687Y-124155434D02*
X144258449Y-124155434D01*
X143925115Y-124822101D02*
X143925115Y-124155434D01*
X143925115Y-123822101D02*
X143972734Y-123869720D01*
X143972734Y-123869720D02*
X143925115Y-123917339D01*
X143925115Y-123917339D02*
X143877496Y-123869720D01*
X143877496Y-123869720D02*
X143925115Y-123822101D01*
X143925115Y-123822101D02*
X143925115Y-123917339D01*
X143020354Y-124822101D02*
X143020354Y-124298291D01*
X143020354Y-124298291D02*
X143067973Y-124203053D01*
X143067973Y-124203053D02*
X143163211Y-124155434D01*
X143163211Y-124155434D02*
X143353687Y-124155434D01*
X143353687Y-124155434D02*
X143448925Y-124203053D01*
X143020354Y-124774482D02*
X143115592Y-124822101D01*
X143115592Y-124822101D02*
X143353687Y-124822101D01*
X143353687Y-124822101D02*
X143448925Y-124774482D01*
X143448925Y-124774482D02*
X143496544Y-124679243D01*
X143496544Y-124679243D02*
X143496544Y-124584005D01*
X143496544Y-124584005D02*
X143448925Y-124488767D01*
X143448925Y-124488767D02*
X143353687Y-124441148D01*
X143353687Y-124441148D02*
X143115592Y-124441148D01*
X143115592Y-124441148D02*
X143020354Y-124393529D01*
X142544163Y-124155434D02*
X142544163Y-124822101D01*
X142544163Y-124250672D02*
X142496544Y-124203053D01*
X142496544Y-124203053D02*
X142401306Y-124155434D01*
X142401306Y-124155434D02*
X142258449Y-124155434D01*
X142258449Y-124155434D02*
X142163211Y-124203053D01*
X142163211Y-124203053D02*
X142115592Y-124298291D01*
X142115592Y-124298291D02*
X142115592Y-124822101D01*
X141210830Y-124155434D02*
X141210830Y-124964958D01*
X141210830Y-124964958D02*
X141258449Y-125060196D01*
X141258449Y-125060196D02*
X141306068Y-125107815D01*
X141306068Y-125107815D02*
X141401306Y-125155434D01*
X141401306Y-125155434D02*
X141544163Y-125155434D01*
X141544163Y-125155434D02*
X141639401Y-125107815D01*
X141210830Y-124774482D02*
X141306068Y-124822101D01*
X141306068Y-124822101D02*
X141496544Y-124822101D01*
X141496544Y-124822101D02*
X141591782Y-124774482D01*
X141591782Y-124774482D02*
X141639401Y-124726862D01*
X141639401Y-124726862D02*
X141687020Y-124631624D01*
X141687020Y-124631624D02*
X141687020Y-124345910D01*
X141687020Y-124345910D02*
X141639401Y-124250672D01*
X141639401Y-124250672D02*
X141591782Y-124203053D01*
X141591782Y-124203053D02*
X141496544Y-124155434D01*
X141496544Y-124155434D02*
X141306068Y-124155434D01*
X141306068Y-124155434D02*
X141210830Y-124203053D01*
X140591782Y-124822101D02*
X140687020Y-124774482D01*
X140687020Y-124774482D02*
X140734639Y-124679243D01*
X140734639Y-124679243D02*
X140734639Y-123822101D01*
X139829877Y-124774482D02*
X139925115Y-124822101D01*
X139925115Y-124822101D02*
X140115591Y-124822101D01*
X140115591Y-124822101D02*
X140210829Y-124774482D01*
X140210829Y-124774482D02*
X140258448Y-124679243D01*
X140258448Y-124679243D02*
X140258448Y-124298291D01*
X140258448Y-124298291D02*
X140210829Y-124203053D01*
X140210829Y-124203053D02*
X140115591Y-124155434D01*
X140115591Y-124155434D02*
X139925115Y-124155434D01*
X139925115Y-124155434D02*
X139829877Y-124203053D01*
X139829877Y-124203053D02*
X139782258Y-124298291D01*
X139782258Y-124298291D02*
X139782258Y-124393529D01*
X139782258Y-124393529D02*
X140258448Y-124488767D01*
X164244277Y-102205947D02*
X164291896Y-102301185D01*
X164291896Y-102301185D02*
X164291896Y-102491661D01*
X164291896Y-102491661D02*
X164244277Y-102586899D01*
X164244277Y-102586899D02*
X164149038Y-102634518D01*
X164149038Y-102634518D02*
X164101419Y-102634518D01*
X164101419Y-102634518D02*
X164006181Y-102586899D01*
X164006181Y-102586899D02*
X163958562Y-102491661D01*
X163958562Y-102491661D02*
X163958562Y-102348804D01*
X163958562Y-102348804D02*
X163910943Y-102253566D01*
X163910943Y-102253566D02*
X163815705Y-102205947D01*
X163815705Y-102205947D02*
X163768086Y-102205947D01*
X163768086Y-102205947D02*
X163672848Y-102253566D01*
X163672848Y-102253566D02*
X163625229Y-102348804D01*
X163625229Y-102348804D02*
X163625229Y-102491661D01*
X163625229Y-102491661D02*
X163672848Y-102586899D01*
X163625229Y-102920233D02*
X163625229Y-103301185D01*
X163291896Y-103063090D02*
X164149038Y-103063090D01*
X164149038Y-103063090D02*
X164244277Y-103110709D01*
X164244277Y-103110709D02*
X164291896Y-103205947D01*
X164291896Y-103205947D02*
X164291896Y-103301185D01*
X164291896Y-104063090D02*
X163768086Y-104063090D01*
X163768086Y-104063090D02*
X163672848Y-104015471D01*
X163672848Y-104015471D02*
X163625229Y-103920233D01*
X163625229Y-103920233D02*
X163625229Y-103729757D01*
X163625229Y-103729757D02*
X163672848Y-103634519D01*
X164244277Y-104063090D02*
X164291896Y-103967852D01*
X164291896Y-103967852D02*
X164291896Y-103729757D01*
X164291896Y-103729757D02*
X164244277Y-103634519D01*
X164244277Y-103634519D02*
X164149038Y-103586900D01*
X164149038Y-103586900D02*
X164053800Y-103586900D01*
X164053800Y-103586900D02*
X163958562Y-103634519D01*
X163958562Y-103634519D02*
X163910943Y-103729757D01*
X163910943Y-103729757D02*
X163910943Y-103967852D01*
X163910943Y-103967852D02*
X163863324Y-104063090D01*
X164291896Y-104539281D02*
X163625229Y-104539281D01*
X163815705Y-104539281D02*
X163720467Y-104586900D01*
X163720467Y-104586900D02*
X163672848Y-104634519D01*
X163672848Y-104634519D02*
X163625229Y-104729757D01*
X163625229Y-104729757D02*
X163625229Y-104824995D01*
X163625229Y-105015472D02*
X163625229Y-105396424D01*
X163291896Y-105158329D02*
X164149038Y-105158329D01*
X164149038Y-105158329D02*
X164244277Y-105205948D01*
X164244277Y-105205948D02*
X164291896Y-105301186D01*
X164291896Y-105301186D02*
X164291896Y-105396424D01*
X140663211Y-130774482D02*
X140567973Y-130822101D01*
X140567973Y-130822101D02*
X140377497Y-130822101D01*
X140377497Y-130822101D02*
X140282259Y-130774482D01*
X140282259Y-130774482D02*
X140234640Y-130679243D01*
X140234640Y-130679243D02*
X140234640Y-130631624D01*
X140234640Y-130631624D02*
X140282259Y-130536386D01*
X140282259Y-130536386D02*
X140377497Y-130488767D01*
X140377497Y-130488767D02*
X140520354Y-130488767D01*
X140520354Y-130488767D02*
X140615592Y-130441148D01*
X140615592Y-130441148D02*
X140663211Y-130345910D01*
X140663211Y-130345910D02*
X140663211Y-130298291D01*
X140663211Y-130298291D02*
X140615592Y-130203053D01*
X140615592Y-130203053D02*
X140520354Y-130155434D01*
X140520354Y-130155434D02*
X140377497Y-130155434D01*
X140377497Y-130155434D02*
X140282259Y-130203053D01*
X139377497Y-130155434D02*
X139377497Y-131155434D01*
X139377497Y-130774482D02*
X139472735Y-130822101D01*
X139472735Y-130822101D02*
X139663211Y-130822101D01*
X139663211Y-130822101D02*
X139758449Y-130774482D01*
X139758449Y-130774482D02*
X139806068Y-130726862D01*
X139806068Y-130726862D02*
X139853687Y-130631624D01*
X139853687Y-130631624D02*
X139853687Y-130345910D01*
X139853687Y-130345910D02*
X139806068Y-130250672D01*
X139806068Y-130250672D02*
X139758449Y-130203053D01*
X139758449Y-130203053D02*
X139663211Y-130155434D01*
X139663211Y-130155434D02*
X139472735Y-130155434D01*
X139472735Y-130155434D02*
X139377497Y-130203053D01*
X138472735Y-130155434D02*
X138472735Y-130822101D01*
X138901306Y-130155434D02*
X138901306Y-130679243D01*
X138901306Y-130679243D02*
X138853687Y-130774482D01*
X138853687Y-130774482D02*
X138758449Y-130822101D01*
X138758449Y-130822101D02*
X138615592Y-130822101D01*
X138615592Y-130822101D02*
X138520354Y-130774482D01*
X138520354Y-130774482D02*
X138472735Y-130726862D01*
X137567973Y-130822101D02*
X137567973Y-130298291D01*
X137567973Y-130298291D02*
X137615592Y-130203053D01*
X137615592Y-130203053D02*
X137710830Y-130155434D01*
X137710830Y-130155434D02*
X137901306Y-130155434D01*
X137901306Y-130155434D02*
X137996544Y-130203053D01*
X137567973Y-130774482D02*
X137663211Y-130822101D01*
X137663211Y-130822101D02*
X137901306Y-130822101D01*
X137901306Y-130822101D02*
X137996544Y-130774482D01*
X137996544Y-130774482D02*
X138044163Y-130679243D01*
X138044163Y-130679243D02*
X138044163Y-130584005D01*
X138044163Y-130584005D02*
X137996544Y-130488767D01*
X137996544Y-130488767D02*
X137901306Y-130441148D01*
X137901306Y-130441148D02*
X137663211Y-130441148D01*
X137663211Y-130441148D02*
X137567973Y-130393529D01*
X137091782Y-130822101D02*
X137091782Y-130155434D01*
X137091782Y-130345910D02*
X137044163Y-130250672D01*
X137044163Y-130250672D02*
X136996544Y-130203053D01*
X136996544Y-130203053D02*
X136901306Y-130155434D01*
X136901306Y-130155434D02*
X136806068Y-130155434D01*
X136091782Y-130774482D02*
X136187020Y-130822101D01*
X136187020Y-130822101D02*
X136377496Y-130822101D01*
X136377496Y-130822101D02*
X136472734Y-130774482D01*
X136472734Y-130774482D02*
X136520353Y-130679243D01*
X136520353Y-130679243D02*
X136520353Y-130298291D01*
X136520353Y-130298291D02*
X136472734Y-130203053D01*
X136472734Y-130203053D02*
X136377496Y-130155434D01*
X136377496Y-130155434D02*
X136187020Y-130155434D01*
X136187020Y-130155434D02*
X136091782Y-130203053D01*
X136091782Y-130203053D02*
X136044163Y-130298291D01*
X136044163Y-130298291D02*
X136044163Y-130393529D01*
X136044163Y-130393529D02*
X136520353Y-130488767D01*
X128187021Y-125822101D02*
X128187021Y-124822101D01*
X128187021Y-125774482D02*
X128282259Y-125822101D01*
X128282259Y-125822101D02*
X128472735Y-125822101D01*
X128472735Y-125822101D02*
X128567973Y-125774482D01*
X128567973Y-125774482D02*
X128615592Y-125726862D01*
X128615592Y-125726862D02*
X128663211Y-125631624D01*
X128663211Y-125631624D02*
X128663211Y-125345910D01*
X128663211Y-125345910D02*
X128615592Y-125250672D01*
X128615592Y-125250672D02*
X128567973Y-125203053D01*
X128567973Y-125203053D02*
X128472735Y-125155434D01*
X128472735Y-125155434D02*
X128282259Y-125155434D01*
X128282259Y-125155434D02*
X128187021Y-125203053D01*
X127282259Y-125822101D02*
X127282259Y-124822101D01*
X127282259Y-125774482D02*
X127377497Y-125822101D01*
X127377497Y-125822101D02*
X127567973Y-125822101D01*
X127567973Y-125822101D02*
X127663211Y-125774482D01*
X127663211Y-125774482D02*
X127710830Y-125726862D01*
X127710830Y-125726862D02*
X127758449Y-125631624D01*
X127758449Y-125631624D02*
X127758449Y-125345910D01*
X127758449Y-125345910D02*
X127710830Y-125250672D01*
X127710830Y-125250672D02*
X127663211Y-125203053D01*
X127663211Y-125203053D02*
X127567973Y-125155434D01*
X127567973Y-125155434D02*
X127377497Y-125155434D01*
X127377497Y-125155434D02*
X127282259Y-125203053D01*
X126663211Y-125822101D02*
X126758449Y-125774482D01*
X126758449Y-125774482D02*
X126806068Y-125726862D01*
X126806068Y-125726862D02*
X126853687Y-125631624D01*
X126853687Y-125631624D02*
X126853687Y-125345910D01*
X126853687Y-125345910D02*
X126806068Y-125250672D01*
X126806068Y-125250672D02*
X126758449Y-125203053D01*
X126758449Y-125203053D02*
X126663211Y-125155434D01*
X126663211Y-125155434D02*
X126520354Y-125155434D01*
X126520354Y-125155434D02*
X126425116Y-125203053D01*
X126425116Y-125203053D02*
X126377497Y-125250672D01*
X126377497Y-125250672D02*
X126329878Y-125345910D01*
X126329878Y-125345910D02*
X126329878Y-125631624D01*
X126329878Y-125631624D02*
X126377497Y-125726862D01*
X126377497Y-125726862D02*
X126425116Y-125774482D01*
X126425116Y-125774482D02*
X126520354Y-125822101D01*
X126520354Y-125822101D02*
X126663211Y-125822101D01*
X125996544Y-125155434D02*
X125806068Y-125822101D01*
X125806068Y-125822101D02*
X125615592Y-125345910D01*
X125615592Y-125345910D02*
X125425116Y-125822101D01*
X125425116Y-125822101D02*
X125234640Y-125155434D01*
X124853687Y-125155434D02*
X124853687Y-125822101D01*
X124853687Y-125250672D02*
X124806068Y-125203053D01*
X124806068Y-125203053D02*
X124710830Y-125155434D01*
X124710830Y-125155434D02*
X124567973Y-125155434D01*
X124567973Y-125155434D02*
X124472735Y-125203053D01*
X124472735Y-125203053D02*
X124425116Y-125298291D01*
X124425116Y-125298291D02*
X124425116Y-125822101D01*
X146827120Y-100629690D02*
X146922358Y-100582071D01*
X146922358Y-100582071D02*
X147065215Y-100582071D01*
X147065215Y-100582071D02*
X147208072Y-100629690D01*
X147208072Y-100629690D02*
X147303310Y-100724928D01*
X147303310Y-100724928D02*
X147350929Y-100820166D01*
X147350929Y-100820166D02*
X147398548Y-101010642D01*
X147398548Y-101010642D02*
X147398548Y-101153499D01*
X147398548Y-101153499D02*
X147350929Y-101343975D01*
X147350929Y-101343975D02*
X147303310Y-101439213D01*
X147303310Y-101439213D02*
X147208072Y-101534452D01*
X147208072Y-101534452D02*
X147065215Y-101582071D01*
X147065215Y-101582071D02*
X146969977Y-101582071D01*
X146969977Y-101582071D02*
X146827120Y-101534452D01*
X146827120Y-101534452D02*
X146779501Y-101486832D01*
X146779501Y-101486832D02*
X146779501Y-101153499D01*
X146779501Y-101153499D02*
X146969977Y-101153499D01*
X146350929Y-101582071D02*
X146350929Y-100582071D01*
X146350929Y-100582071D02*
X145969977Y-100582071D01*
X145969977Y-100582071D02*
X145874739Y-100629690D01*
X145874739Y-100629690D02*
X145827120Y-100677309D01*
X145827120Y-100677309D02*
X145779501Y-100772547D01*
X145779501Y-100772547D02*
X145779501Y-100915404D01*
X145779501Y-100915404D02*
X145827120Y-101010642D01*
X145827120Y-101010642D02*
X145874739Y-101058261D01*
X145874739Y-101058261D02*
X145969977Y-101105880D01*
X145969977Y-101105880D02*
X146350929Y-101105880D01*
X145350929Y-101582071D02*
X145350929Y-100582071D01*
X144684263Y-100582071D02*
X144493787Y-100582071D01*
X144493787Y-100582071D02*
X144398549Y-100629690D01*
X144398549Y-100629690D02*
X144303311Y-100724928D01*
X144303311Y-100724928D02*
X144255692Y-100915404D01*
X144255692Y-100915404D02*
X144255692Y-101248737D01*
X144255692Y-101248737D02*
X144303311Y-101439213D01*
X144303311Y-101439213D02*
X144398549Y-101534452D01*
X144398549Y-101534452D02*
X144493787Y-101582071D01*
X144493787Y-101582071D02*
X144684263Y-101582071D01*
X144684263Y-101582071D02*
X144779501Y-101534452D01*
X144779501Y-101534452D02*
X144874739Y-101439213D01*
X144874739Y-101439213D02*
X144922358Y-101248737D01*
X144922358Y-101248737D02*
X144922358Y-100915404D01*
X144922358Y-100915404D02*
X144874739Y-100724928D01*
X144874739Y-100724928D02*
X144779501Y-100629690D01*
X144779501Y-100629690D02*
X144684263Y-100582071D01*
X143636644Y-100582071D02*
X143541406Y-100582071D01*
X143541406Y-100582071D02*
X143446168Y-100629690D01*
X143446168Y-100629690D02*
X143398549Y-100677309D01*
X143398549Y-100677309D02*
X143350930Y-100772547D01*
X143350930Y-100772547D02*
X143303311Y-100963023D01*
X143303311Y-100963023D02*
X143303311Y-101201118D01*
X143303311Y-101201118D02*
X143350930Y-101391594D01*
X143350930Y-101391594D02*
X143398549Y-101486832D01*
X143398549Y-101486832D02*
X143446168Y-101534452D01*
X143446168Y-101534452D02*
X143541406Y-101582071D01*
X143541406Y-101582071D02*
X143636644Y-101582071D01*
X143636644Y-101582071D02*
X143731882Y-101534452D01*
X143731882Y-101534452D02*
X143779501Y-101486832D01*
X143779501Y-101486832D02*
X143827120Y-101391594D01*
X143827120Y-101391594D02*
X143874739Y-101201118D01*
X143874739Y-101201118D02*
X143874739Y-100963023D01*
X143874739Y-100963023D02*
X143827120Y-100772547D01*
X143827120Y-100772547D02*
X143779501Y-100677309D01*
X143779501Y-100677309D02*
X143731882Y-100629690D01*
X143731882Y-100629690D02*
X143636644Y-100582071D01*
X142446168Y-100915404D02*
X142446168Y-101582071D01*
X142684263Y-100534452D02*
X142922358Y-101248737D01*
X142922358Y-101248737D02*
X142303311Y-101248737D01*
X168210830Y-117155434D02*
X167972735Y-117822101D01*
X167972735Y-117822101D02*
X167734640Y-117155434D01*
X167210830Y-117822101D02*
X167306068Y-117774482D01*
X167306068Y-117774482D02*
X167353687Y-117726862D01*
X167353687Y-117726862D02*
X167401306Y-117631624D01*
X167401306Y-117631624D02*
X167401306Y-117345910D01*
X167401306Y-117345910D02*
X167353687Y-117250672D01*
X167353687Y-117250672D02*
X167306068Y-117203053D01*
X167306068Y-117203053D02*
X167210830Y-117155434D01*
X167210830Y-117155434D02*
X167067973Y-117155434D01*
X167067973Y-117155434D02*
X166972735Y-117203053D01*
X166972735Y-117203053D02*
X166925116Y-117250672D01*
X166925116Y-117250672D02*
X166877497Y-117345910D01*
X166877497Y-117345910D02*
X166877497Y-117631624D01*
X166877497Y-117631624D02*
X166925116Y-117726862D01*
X166925116Y-117726862D02*
X166972735Y-117774482D01*
X166972735Y-117774482D02*
X167067973Y-117822101D01*
X167067973Y-117822101D02*
X167210830Y-117822101D01*
X166306068Y-117822101D02*
X166401306Y-117774482D01*
X166401306Y-117774482D02*
X166448925Y-117679243D01*
X166448925Y-117679243D02*
X166448925Y-116822101D01*
X164734639Y-117155434D02*
X164734639Y-117822101D01*
X165163210Y-117155434D02*
X165163210Y-117679243D01*
X165163210Y-117679243D02*
X165115591Y-117774482D01*
X165115591Y-117774482D02*
X165020353Y-117822101D01*
X165020353Y-117822101D02*
X164877496Y-117822101D01*
X164877496Y-117822101D02*
X164782258Y-117774482D01*
X164782258Y-117774482D02*
X164734639Y-117726862D01*
X164258448Y-117155434D02*
X164258448Y-118155434D01*
X164258448Y-117203053D02*
X164163210Y-117155434D01*
X164163210Y-117155434D02*
X163972734Y-117155434D01*
X163972734Y-117155434D02*
X163877496Y-117203053D01*
X163877496Y-117203053D02*
X163829877Y-117250672D01*
X163829877Y-117250672D02*
X163782258Y-117345910D01*
X163782258Y-117345910D02*
X163782258Y-117631624D01*
X163782258Y-117631624D02*
X163829877Y-117726862D01*
X163829877Y-117726862D02*
X163877496Y-117774482D01*
X163877496Y-117774482D02*
X163972734Y-117822101D01*
X163972734Y-117822101D02*
X164163210Y-117822101D01*
X164163210Y-117822101D02*
X164258448Y-117774482D01*
X136972735Y-126322101D02*
X137067973Y-126274482D01*
X137067973Y-126274482D02*
X137115592Y-126179243D01*
X137115592Y-126179243D02*
X137115592Y-125322101D01*
X136067973Y-126322101D02*
X136639401Y-126322101D01*
X136353687Y-126322101D02*
X136353687Y-125322101D01*
X136353687Y-125322101D02*
X136448925Y-125464958D01*
X136448925Y-125464958D02*
X136544163Y-125560196D01*
X136544163Y-125560196D02*
X136639401Y-125607815D01*
X159115592Y-124822101D02*
X159115592Y-123822101D01*
X158687021Y-124822101D02*
X158687021Y-124298291D01*
X158687021Y-124298291D02*
X158734640Y-124203053D01*
X158734640Y-124203053D02*
X158829878Y-124155434D01*
X158829878Y-124155434D02*
X158972735Y-124155434D01*
X158972735Y-124155434D02*
X159067973Y-124203053D01*
X159067973Y-124203053D02*
X159115592Y-124250672D01*
X158067973Y-124822101D02*
X158163211Y-124774482D01*
X158163211Y-124774482D02*
X158210830Y-124726862D01*
X158210830Y-124726862D02*
X158258449Y-124631624D01*
X158258449Y-124631624D02*
X158258449Y-124345910D01*
X158258449Y-124345910D02*
X158210830Y-124250672D01*
X158210830Y-124250672D02*
X158163211Y-124203053D01*
X158163211Y-124203053D02*
X158067973Y-124155434D01*
X158067973Y-124155434D02*
X157925116Y-124155434D01*
X157925116Y-124155434D02*
X157829878Y-124203053D01*
X157829878Y-124203053D02*
X157782259Y-124250672D01*
X157782259Y-124250672D02*
X157734640Y-124345910D01*
X157734640Y-124345910D02*
X157734640Y-124631624D01*
X157734640Y-124631624D02*
X157782259Y-124726862D01*
X157782259Y-124726862D02*
X157829878Y-124774482D01*
X157829878Y-124774482D02*
X157925116Y-124822101D01*
X157925116Y-124822101D02*
X158067973Y-124822101D01*
X157306068Y-124822101D02*
X157306068Y-124155434D01*
X157306068Y-124250672D02*
X157258449Y-124203053D01*
X157258449Y-124203053D02*
X157163211Y-124155434D01*
X157163211Y-124155434D02*
X157020354Y-124155434D01*
X157020354Y-124155434D02*
X156925116Y-124203053D01*
X156925116Y-124203053D02*
X156877497Y-124298291D01*
X156877497Y-124298291D02*
X156877497Y-124822101D01*
X156877497Y-124298291D02*
X156829878Y-124203053D01*
X156829878Y-124203053D02*
X156734640Y-124155434D01*
X156734640Y-124155434D02*
X156591783Y-124155434D01*
X156591783Y-124155434D02*
X156496544Y-124203053D01*
X156496544Y-124203053D02*
X156448925Y-124298291D01*
X156448925Y-124298291D02*
X156448925Y-124822101D01*
X155591783Y-124774482D02*
X155687021Y-124822101D01*
X155687021Y-124822101D02*
X155877497Y-124822101D01*
X155877497Y-124822101D02*
X155972735Y-124774482D01*
X155972735Y-124774482D02*
X156020354Y-124679243D01*
X156020354Y-124679243D02*
X156020354Y-124298291D01*
X156020354Y-124298291D02*
X155972735Y-124203053D01*
X155972735Y-124203053D02*
X155877497Y-124155434D01*
X155877497Y-124155434D02*
X155687021Y-124155434D01*
X155687021Y-124155434D02*
X155591783Y-124203053D01*
X155591783Y-124203053D02*
X155544164Y-124298291D01*
X155544164Y-124298291D02*
X155544164Y-124393529D01*
X155544164Y-124393529D02*
X156020354Y-124488767D01*
X132187021Y-125822101D02*
X132187021Y-124822101D01*
X132187021Y-125774482D02*
X132282259Y-125822101D01*
X132282259Y-125822101D02*
X132472735Y-125822101D01*
X132472735Y-125822101D02*
X132567973Y-125774482D01*
X132567973Y-125774482D02*
X132615592Y-125726862D01*
X132615592Y-125726862D02*
X132663211Y-125631624D01*
X132663211Y-125631624D02*
X132663211Y-125345910D01*
X132663211Y-125345910D02*
X132615592Y-125250672D01*
X132615592Y-125250672D02*
X132567973Y-125203053D01*
X132567973Y-125203053D02*
X132472735Y-125155434D01*
X132472735Y-125155434D02*
X132282259Y-125155434D01*
X132282259Y-125155434D02*
X132187021Y-125203053D01*
X131282259Y-125155434D02*
X131282259Y-125822101D01*
X131710830Y-125155434D02*
X131710830Y-125679243D01*
X131710830Y-125679243D02*
X131663211Y-125774482D01*
X131663211Y-125774482D02*
X131567973Y-125822101D01*
X131567973Y-125822101D02*
X131425116Y-125822101D01*
X131425116Y-125822101D02*
X131329878Y-125774482D01*
X131329878Y-125774482D02*
X131282259Y-125726862D01*
X130806068Y-125155434D02*
X130806068Y-126155434D01*
X130806068Y-125203053D02*
X130710830Y-125155434D01*
X130710830Y-125155434D02*
X130520354Y-125155434D01*
X130520354Y-125155434D02*
X130425116Y-125203053D01*
X130425116Y-125203053D02*
X130377497Y-125250672D01*
X130377497Y-125250672D02*
X130329878Y-125345910D01*
X130329878Y-125345910D02*
X130329878Y-125631624D01*
X130329878Y-125631624D02*
X130377497Y-125726862D01*
X130377497Y-125726862D02*
X130425116Y-125774482D01*
X130425116Y-125774482D02*
X130520354Y-125822101D01*
X130520354Y-125822101D02*
X130710830Y-125822101D01*
X130710830Y-125822101D02*
X130806068Y-125774482D01*
X152115592Y-127155434D02*
X152115592Y-128155434D01*
X152115592Y-127203053D02*
X152020354Y-127155434D01*
X152020354Y-127155434D02*
X151829878Y-127155434D01*
X151829878Y-127155434D02*
X151734640Y-127203053D01*
X151734640Y-127203053D02*
X151687021Y-127250672D01*
X151687021Y-127250672D02*
X151639402Y-127345910D01*
X151639402Y-127345910D02*
X151639402Y-127631624D01*
X151639402Y-127631624D02*
X151687021Y-127726862D01*
X151687021Y-127726862D02*
X151734640Y-127774482D01*
X151734640Y-127774482D02*
X151829878Y-127822101D01*
X151829878Y-127822101D02*
X152020354Y-127822101D01*
X152020354Y-127822101D02*
X152115592Y-127774482D01*
X151067973Y-127822101D02*
X151163211Y-127774482D01*
X151163211Y-127774482D02*
X151210830Y-127726862D01*
X151210830Y-127726862D02*
X151258449Y-127631624D01*
X151258449Y-127631624D02*
X151258449Y-127345910D01*
X151258449Y-127345910D02*
X151210830Y-127250672D01*
X151210830Y-127250672D02*
X151163211Y-127203053D01*
X151163211Y-127203053D02*
X151067973Y-127155434D01*
X151067973Y-127155434D02*
X150925116Y-127155434D01*
X150925116Y-127155434D02*
X150829878Y-127203053D01*
X150829878Y-127203053D02*
X150782259Y-127250672D01*
X150782259Y-127250672D02*
X150734640Y-127345910D01*
X150734640Y-127345910D02*
X150734640Y-127631624D01*
X150734640Y-127631624D02*
X150782259Y-127726862D01*
X150782259Y-127726862D02*
X150829878Y-127774482D01*
X150829878Y-127774482D02*
X150925116Y-127822101D01*
X150925116Y-127822101D02*
X151067973Y-127822101D01*
X150401306Y-127155434D02*
X150210830Y-127822101D01*
X150210830Y-127822101D02*
X150020354Y-127345910D01*
X150020354Y-127345910D02*
X149829878Y-127822101D01*
X149829878Y-127822101D02*
X149639402Y-127155434D01*
X148877497Y-127774482D02*
X148972735Y-127822101D01*
X148972735Y-127822101D02*
X149163211Y-127822101D01*
X149163211Y-127822101D02*
X149258449Y-127774482D01*
X149258449Y-127774482D02*
X149306068Y-127679243D01*
X149306068Y-127679243D02*
X149306068Y-127298291D01*
X149306068Y-127298291D02*
X149258449Y-127203053D01*
X149258449Y-127203053D02*
X149163211Y-127155434D01*
X149163211Y-127155434D02*
X148972735Y-127155434D01*
X148972735Y-127155434D02*
X148877497Y-127203053D01*
X148877497Y-127203053D02*
X148829878Y-127298291D01*
X148829878Y-127298291D02*
X148829878Y-127393529D01*
X148829878Y-127393529D02*
X149306068Y-127488767D01*
X148401306Y-127822101D02*
X148401306Y-127155434D01*
X148401306Y-127345910D02*
X148353687Y-127250672D01*
X148353687Y-127250672D02*
X148306068Y-127203053D01*
X148306068Y-127203053D02*
X148210830Y-127155434D01*
X148210830Y-127155434D02*
X148115592Y-127155434D01*
X167547057Y-115217226D02*
X168547057Y-115217226D01*
X167594677Y-115217226D02*
X167547057Y-115312464D01*
X167547057Y-115312464D02*
X167547057Y-115502940D01*
X167547057Y-115502940D02*
X167594677Y-115598178D01*
X167594677Y-115598178D02*
X167642296Y-115645797D01*
X167642296Y-115645797D02*
X167737534Y-115693416D01*
X167737534Y-115693416D02*
X168023248Y-115693416D01*
X168023248Y-115693416D02*
X168118486Y-115645797D01*
X168118486Y-115645797D02*
X168166105Y-115598178D01*
X168166105Y-115598178D02*
X168213724Y-115502940D01*
X168213724Y-115502940D02*
X168213724Y-115312464D01*
X168213724Y-115312464D02*
X168166105Y-115217226D01*
X167547057Y-114741035D02*
X168213724Y-114741035D01*
X168547057Y-114741035D02*
X168499438Y-114788654D01*
X168499438Y-114788654D02*
X168451819Y-114741035D01*
X168451819Y-114741035D02*
X168499438Y-114693416D01*
X168499438Y-114693416D02*
X168547057Y-114741035D01*
X168547057Y-114741035D02*
X168451819Y-114741035D01*
X167594677Y-114312464D02*
X167547057Y-114217226D01*
X167547057Y-114217226D02*
X167547057Y-114026750D01*
X167547057Y-114026750D02*
X167594677Y-113931512D01*
X167594677Y-113931512D02*
X167689915Y-113883893D01*
X167689915Y-113883893D02*
X167737534Y-113883893D01*
X167737534Y-113883893D02*
X167832772Y-113931512D01*
X167832772Y-113931512D02*
X167880391Y-114026750D01*
X167880391Y-114026750D02*
X167880391Y-114169607D01*
X167880391Y-114169607D02*
X167928010Y-114264845D01*
X167928010Y-114264845D02*
X168023248Y-114312464D01*
X168023248Y-114312464D02*
X168070867Y-114312464D01*
X168070867Y-114312464D02*
X168166105Y-114264845D01*
X168166105Y-114264845D02*
X168213724Y-114169607D01*
X168213724Y-114169607D02*
X168213724Y-114026750D01*
X168213724Y-114026750D02*
X168166105Y-113931512D01*
X168213724Y-113455321D02*
X167213724Y-113455321D01*
X168166105Y-113455321D02*
X168213724Y-113360083D01*
X168213724Y-113360083D02*
X168213724Y-113169607D01*
X168213724Y-113169607D02*
X168166105Y-113074369D01*
X168166105Y-113074369D02*
X168118486Y-113026750D01*
X168118486Y-113026750D02*
X168023248Y-112979131D01*
X168023248Y-112979131D02*
X167737534Y-112979131D01*
X167737534Y-112979131D02*
X167642296Y-113026750D01*
X167642296Y-113026750D02*
X167594677Y-113074369D01*
X167594677Y-113074369D02*
X167547057Y-113169607D01*
X167547057Y-113169607D02*
X167547057Y-113360083D01*
X167547057Y-113360083D02*
X167594677Y-113455321D01*
X167547057Y-112407702D02*
X167594677Y-112502940D01*
X167594677Y-112502940D02*
X167689915Y-112550559D01*
X167689915Y-112550559D02*
X168547057Y-112550559D01*
X167547057Y-111598178D02*
X168070867Y-111598178D01*
X168070867Y-111598178D02*
X168166105Y-111645797D01*
X168166105Y-111645797D02*
X168213724Y-111741035D01*
X168213724Y-111741035D02*
X168213724Y-111931511D01*
X168213724Y-111931511D02*
X168166105Y-112026749D01*
X167594677Y-111598178D02*
X167547057Y-111693416D01*
X167547057Y-111693416D02*
X167547057Y-111931511D01*
X167547057Y-111931511D02*
X167594677Y-112026749D01*
X167594677Y-112026749D02*
X167689915Y-112074368D01*
X167689915Y-112074368D02*
X167785153Y-112074368D01*
X167785153Y-112074368D02*
X167880391Y-112026749D01*
X167880391Y-112026749D02*
X167928010Y-111931511D01*
X167928010Y-111931511D02*
X167928010Y-111693416D01*
X167928010Y-111693416D02*
X167975629Y-111598178D01*
X168213724Y-111217225D02*
X167547057Y-110979130D01*
X168213724Y-110741035D02*
X167547057Y-110979130D01*
X167547057Y-110979130D02*
X167308962Y-111074368D01*
X167308962Y-111074368D02*
X167261343Y-111121987D01*
X167261343Y-111121987D02*
X167213724Y-111217225D01*
X149187021Y-124774482D02*
X149282259Y-124822101D01*
X149282259Y-124822101D02*
X149472735Y-124822101D01*
X149472735Y-124822101D02*
X149567973Y-124774482D01*
X149567973Y-124774482D02*
X149615592Y-124726862D01*
X149615592Y-124726862D02*
X149663211Y-124631624D01*
X149663211Y-124631624D02*
X149663211Y-124345910D01*
X149663211Y-124345910D02*
X149615592Y-124250672D01*
X149615592Y-124250672D02*
X149567973Y-124203053D01*
X149567973Y-124203053D02*
X149472735Y-124155434D01*
X149472735Y-124155434D02*
X149282259Y-124155434D01*
X149282259Y-124155434D02*
X149187021Y-124203053D01*
X148758449Y-124822101D02*
X148758449Y-124155434D01*
X148758449Y-124345910D02*
X148710830Y-124250672D01*
X148710830Y-124250672D02*
X148663211Y-124203053D01*
X148663211Y-124203053D02*
X148567973Y-124155434D01*
X148567973Y-124155434D02*
X148472735Y-124155434D01*
X147996544Y-124822101D02*
X148091782Y-124774482D01*
X148091782Y-124774482D02*
X148139401Y-124726862D01*
X148139401Y-124726862D02*
X148187020Y-124631624D01*
X148187020Y-124631624D02*
X148187020Y-124345910D01*
X148187020Y-124345910D02*
X148139401Y-124250672D01*
X148139401Y-124250672D02*
X148091782Y-124203053D01*
X148091782Y-124203053D02*
X147996544Y-124155434D01*
X147996544Y-124155434D02*
X147853687Y-124155434D01*
X147853687Y-124155434D02*
X147758449Y-124203053D01*
X147758449Y-124203053D02*
X147710830Y-124250672D01*
X147710830Y-124250672D02*
X147663211Y-124345910D01*
X147663211Y-124345910D02*
X147663211Y-124631624D01*
X147663211Y-124631624D02*
X147710830Y-124726862D01*
X147710830Y-124726862D02*
X147758449Y-124774482D01*
X147758449Y-124774482D02*
X147853687Y-124822101D01*
X147853687Y-124822101D02*
X147996544Y-124822101D01*
X147282258Y-124774482D02*
X147187020Y-124822101D01*
X147187020Y-124822101D02*
X146996544Y-124822101D01*
X146996544Y-124822101D02*
X146901306Y-124774482D01*
X146901306Y-124774482D02*
X146853687Y-124679243D01*
X146853687Y-124679243D02*
X146853687Y-124631624D01*
X146853687Y-124631624D02*
X146901306Y-124536386D01*
X146901306Y-124536386D02*
X146996544Y-124488767D01*
X146996544Y-124488767D02*
X147139401Y-124488767D01*
X147139401Y-124488767D02*
X147234639Y-124441148D01*
X147234639Y-124441148D02*
X147282258Y-124345910D01*
X147282258Y-124345910D02*
X147282258Y-124298291D01*
X147282258Y-124298291D02*
X147234639Y-124203053D01*
X147234639Y-124203053D02*
X147139401Y-124155434D01*
X147139401Y-124155434D02*
X146996544Y-124155434D01*
X146996544Y-124155434D02*
X146901306Y-124203053D01*
X146472734Y-124774482D02*
X146377496Y-124822101D01*
X146377496Y-124822101D02*
X146187020Y-124822101D01*
X146187020Y-124822101D02*
X146091782Y-124774482D01*
X146091782Y-124774482D02*
X146044163Y-124679243D01*
X146044163Y-124679243D02*
X146044163Y-124631624D01*
X146044163Y-124631624D02*
X146091782Y-124536386D01*
X146091782Y-124536386D02*
X146187020Y-124488767D01*
X146187020Y-124488767D02*
X146329877Y-124488767D01*
X146329877Y-124488767D02*
X146425115Y-124441148D01*
X146425115Y-124441148D02*
X146472734Y-124345910D01*
X146472734Y-124345910D02*
X146472734Y-124298291D01*
X146472734Y-124298291D02*
X146425115Y-124203053D01*
X146425115Y-124203053D02*
X146329877Y-124155434D01*
X146329877Y-124155434D02*
X146187020Y-124155434D01*
X146187020Y-124155434D02*
X146091782Y-124203053D01*
X141615592Y-127822101D02*
X141615592Y-127155434D01*
X141615592Y-127345910D02*
X141567973Y-127250672D01*
X141567973Y-127250672D02*
X141520354Y-127203053D01*
X141520354Y-127203053D02*
X141425116Y-127155434D01*
X141425116Y-127155434D02*
X141329878Y-127155434D01*
X140472735Y-127822101D02*
X141044163Y-127822101D01*
X140758449Y-127822101D02*
X140758449Y-126822101D01*
X140758449Y-126822101D02*
X140853687Y-126964958D01*
X140853687Y-126964958D02*
X140948925Y-127060196D01*
X140948925Y-127060196D02*
X141044163Y-127107815D01*
X125339515Y-94777375D02*
X125291896Y-94682137D01*
X125291896Y-94682137D02*
X125291896Y-94539280D01*
X125291896Y-94539280D02*
X125339515Y-94396423D01*
X125339515Y-94396423D02*
X125434753Y-94301185D01*
X125434753Y-94301185D02*
X125529991Y-94253566D01*
X125529991Y-94253566D02*
X125720467Y-94205947D01*
X125720467Y-94205947D02*
X125863324Y-94205947D01*
X125863324Y-94205947D02*
X126053800Y-94253566D01*
X126053800Y-94253566D02*
X126149038Y-94301185D01*
X126149038Y-94301185D02*
X126244277Y-94396423D01*
X126244277Y-94396423D02*
X126291896Y-94539280D01*
X126291896Y-94539280D02*
X126291896Y-94634518D01*
X126291896Y-94634518D02*
X126244277Y-94777375D01*
X126244277Y-94777375D02*
X126196657Y-94824994D01*
X126196657Y-94824994D02*
X125863324Y-94824994D01*
X125863324Y-94824994D02*
X125863324Y-94634518D01*
X126291896Y-95253566D02*
X125291896Y-95253566D01*
X125291896Y-95253566D02*
X125291896Y-95634518D01*
X125291896Y-95634518D02*
X125339515Y-95729756D01*
X125339515Y-95729756D02*
X125387134Y-95777375D01*
X125387134Y-95777375D02*
X125482372Y-95824994D01*
X125482372Y-95824994D02*
X125625229Y-95824994D01*
X125625229Y-95824994D02*
X125720467Y-95777375D01*
X125720467Y-95777375D02*
X125768086Y-95729756D01*
X125768086Y-95729756D02*
X125815705Y-95634518D01*
X125815705Y-95634518D02*
X125815705Y-95253566D01*
X126291896Y-96253566D02*
X125291896Y-96253566D01*
X125291896Y-96920232D02*
X125291896Y-97110708D01*
X125291896Y-97110708D02*
X125339515Y-97205946D01*
X125339515Y-97205946D02*
X125434753Y-97301184D01*
X125434753Y-97301184D02*
X125625229Y-97348803D01*
X125625229Y-97348803D02*
X125958562Y-97348803D01*
X125958562Y-97348803D02*
X126149038Y-97301184D01*
X126149038Y-97301184D02*
X126244277Y-97205946D01*
X126244277Y-97205946D02*
X126291896Y-97110708D01*
X126291896Y-97110708D02*
X126291896Y-96920232D01*
X126291896Y-96920232D02*
X126244277Y-96824994D01*
X126244277Y-96824994D02*
X126149038Y-96729756D01*
X126149038Y-96729756D02*
X125958562Y-96682137D01*
X125958562Y-96682137D02*
X125625229Y-96682137D01*
X125625229Y-96682137D02*
X125434753Y-96729756D01*
X125434753Y-96729756D02*
X125339515Y-96824994D01*
X125339515Y-96824994D02*
X125291896Y-96920232D01*
X125291896Y-97682137D02*
X125291896Y-98301184D01*
X125291896Y-98301184D02*
X125672848Y-97967851D01*
X125672848Y-97967851D02*
X125672848Y-98110708D01*
X125672848Y-98110708D02*
X125720467Y-98205946D01*
X125720467Y-98205946D02*
X125768086Y-98253565D01*
X125768086Y-98253565D02*
X125863324Y-98301184D01*
X125863324Y-98301184D02*
X126101419Y-98301184D01*
X126101419Y-98301184D02*
X126196657Y-98253565D01*
X126196657Y-98253565D02*
X126244277Y-98205946D01*
X126244277Y-98205946D02*
X126291896Y-98110708D01*
X126291896Y-98110708D02*
X126291896Y-97824994D01*
X126291896Y-97824994D02*
X126244277Y-97729756D01*
X126244277Y-97729756D02*
X126196657Y-97682137D01*
X125291896Y-98634518D02*
X125291896Y-99253565D01*
X125291896Y-99253565D02*
X125672848Y-98920232D01*
X125672848Y-98920232D02*
X125672848Y-99063089D01*
X125672848Y-99063089D02*
X125720467Y-99158327D01*
X125720467Y-99158327D02*
X125768086Y-99205946D01*
X125768086Y-99205946D02*
X125863324Y-99253565D01*
X125863324Y-99253565D02*
X126101419Y-99253565D01*
X126101419Y-99253565D02*
X126196657Y-99205946D01*
X126196657Y-99205946D02*
X126244277Y-99158327D01*
X126244277Y-99158327D02*
X126291896Y-99063089D01*
X126291896Y-99063089D02*
X126291896Y-98777375D01*
X126291896Y-98777375D02*
X126244277Y-98682137D01*
X126244277Y-98682137D02*
X126196657Y-98634518D01*
X166615592Y-79162437D02*
X166615592Y-78162437D01*
X166615592Y-78162437D02*
X166234640Y-78162437D01*
X166234640Y-78162437D02*
X166139402Y-78210056D01*
X166139402Y-78210056D02*
X166091783Y-78257675D01*
X166091783Y-78257675D02*
X166044164Y-78352913D01*
X166044164Y-78352913D02*
X166044164Y-78495770D01*
X166044164Y-78495770D02*
X166091783Y-78591008D01*
X166091783Y-78591008D02*
X166139402Y-78638627D01*
X166139402Y-78638627D02*
X166234640Y-78686246D01*
X166234640Y-78686246D02*
X166615592Y-78686246D01*
X165663211Y-79114818D02*
X165520354Y-79162437D01*
X165520354Y-79162437D02*
X165282259Y-79162437D01*
X165282259Y-79162437D02*
X165187021Y-79114818D01*
X165187021Y-79114818D02*
X165139402Y-79067198D01*
X165139402Y-79067198D02*
X165091783Y-78971960D01*
X165091783Y-78971960D02*
X165091783Y-78876722D01*
X165091783Y-78876722D02*
X165139402Y-78781484D01*
X165139402Y-78781484D02*
X165187021Y-78733865D01*
X165187021Y-78733865D02*
X165282259Y-78686246D01*
X165282259Y-78686246D02*
X165472735Y-78638627D01*
X165472735Y-78638627D02*
X165567973Y-78591008D01*
X165567973Y-78591008D02*
X165615592Y-78543389D01*
X165615592Y-78543389D02*
X165663211Y-78448151D01*
X165663211Y-78448151D02*
X165663211Y-78352913D01*
X165663211Y-78352913D02*
X165615592Y-78257675D01*
X165615592Y-78257675D02*
X165567973Y-78210056D01*
X165567973Y-78210056D02*
X165472735Y-78162437D01*
X165472735Y-78162437D02*
X165234640Y-78162437D01*
X165234640Y-78162437D02*
X165091783Y-78210056D01*
X164663211Y-79162437D02*
X164663211Y-78162437D01*
X164663211Y-78162437D02*
X164282259Y-78162437D01*
X164282259Y-78162437D02*
X164187021Y-78210056D01*
X164187021Y-78210056D02*
X164139402Y-78257675D01*
X164139402Y-78257675D02*
X164091783Y-78352913D01*
X164091783Y-78352913D02*
X164091783Y-78495770D01*
X164091783Y-78495770D02*
X164139402Y-78591008D01*
X164139402Y-78591008D02*
X164187021Y-78638627D01*
X164187021Y-78638627D02*
X164282259Y-78686246D01*
X164282259Y-78686246D02*
X164663211Y-78686246D01*
X162567973Y-78638627D02*
X162425116Y-78686246D01*
X162425116Y-78686246D02*
X162377497Y-78733865D01*
X162377497Y-78733865D02*
X162329878Y-78829103D01*
X162329878Y-78829103D02*
X162329878Y-78971960D01*
X162329878Y-78971960D02*
X162377497Y-79067198D01*
X162377497Y-79067198D02*
X162425116Y-79114818D01*
X162425116Y-79114818D02*
X162520354Y-79162437D01*
X162520354Y-79162437D02*
X162901306Y-79162437D01*
X162901306Y-79162437D02*
X162901306Y-78162437D01*
X162901306Y-78162437D02*
X162567973Y-78162437D01*
X162567973Y-78162437D02*
X162472735Y-78210056D01*
X162472735Y-78210056D02*
X162425116Y-78257675D01*
X162425116Y-78257675D02*
X162377497Y-78352913D01*
X162377497Y-78352913D02*
X162377497Y-78448151D01*
X162377497Y-78448151D02*
X162425116Y-78543389D01*
X162425116Y-78543389D02*
X162472735Y-78591008D01*
X162472735Y-78591008D02*
X162567973Y-78638627D01*
X162567973Y-78638627D02*
X162901306Y-78638627D01*
X161758449Y-79162437D02*
X161853687Y-79114818D01*
X161853687Y-79114818D02*
X161901306Y-79019579D01*
X161901306Y-79019579D02*
X161901306Y-78162437D01*
X160948925Y-78495770D02*
X160948925Y-79162437D01*
X161377496Y-78495770D02*
X161377496Y-79019579D01*
X161377496Y-79019579D02*
X161329877Y-79114818D01*
X161329877Y-79114818D02*
X161234639Y-79162437D01*
X161234639Y-79162437D02*
X161091782Y-79162437D01*
X161091782Y-79162437D02*
X160996544Y-79114818D01*
X160996544Y-79114818D02*
X160948925Y-79067198D01*
X160091782Y-79114818D02*
X160187020Y-79162437D01*
X160187020Y-79162437D02*
X160377496Y-79162437D01*
X160377496Y-79162437D02*
X160472734Y-79114818D01*
X160472734Y-79114818D02*
X160520353Y-79019579D01*
X160520353Y-79019579D02*
X160520353Y-78638627D01*
X160520353Y-78638627D02*
X160472734Y-78543389D01*
X160472734Y-78543389D02*
X160377496Y-78495770D01*
X160377496Y-78495770D02*
X160187020Y-78495770D01*
X160187020Y-78495770D02*
X160091782Y-78543389D01*
X160091782Y-78543389D02*
X160044163Y-78638627D01*
X160044163Y-78638627D02*
X160044163Y-78733865D01*
X160044163Y-78733865D02*
X160520353Y-78829103D01*
X159758448Y-78495770D02*
X159377496Y-78495770D01*
X159615591Y-78162437D02*
X159615591Y-79019579D01*
X159615591Y-79019579D02*
X159567972Y-79114818D01*
X159567972Y-79114818D02*
X159472734Y-79162437D01*
X159472734Y-79162437D02*
X159377496Y-79162437D01*
X158901305Y-79162437D02*
X158996543Y-79114818D01*
X158996543Y-79114818D02*
X159044162Y-79067198D01*
X159044162Y-79067198D02*
X159091781Y-78971960D01*
X159091781Y-78971960D02*
X159091781Y-78686246D01*
X159091781Y-78686246D02*
X159044162Y-78591008D01*
X159044162Y-78591008D02*
X158996543Y-78543389D01*
X158996543Y-78543389D02*
X158901305Y-78495770D01*
X158901305Y-78495770D02*
X158758448Y-78495770D01*
X158758448Y-78495770D02*
X158663210Y-78543389D01*
X158663210Y-78543389D02*
X158615591Y-78591008D01*
X158615591Y-78591008D02*
X158567972Y-78686246D01*
X158567972Y-78686246D02*
X158567972Y-78971960D01*
X158567972Y-78971960D02*
X158615591Y-79067198D01*
X158615591Y-79067198D02*
X158663210Y-79114818D01*
X158663210Y-79114818D02*
X158758448Y-79162437D01*
X158758448Y-79162437D02*
X158901305Y-79162437D01*
X157996543Y-79162437D02*
X158091781Y-79114818D01*
X158091781Y-79114818D02*
X158139400Y-79067198D01*
X158139400Y-79067198D02*
X158187019Y-78971960D01*
X158187019Y-78971960D02*
X158187019Y-78686246D01*
X158187019Y-78686246D02*
X158139400Y-78591008D01*
X158139400Y-78591008D02*
X158091781Y-78543389D01*
X158091781Y-78543389D02*
X157996543Y-78495770D01*
X157996543Y-78495770D02*
X157853686Y-78495770D01*
X157853686Y-78495770D02*
X157758448Y-78543389D01*
X157758448Y-78543389D02*
X157710829Y-78591008D01*
X157710829Y-78591008D02*
X157663210Y-78686246D01*
X157663210Y-78686246D02*
X157663210Y-78971960D01*
X157663210Y-78971960D02*
X157710829Y-79067198D01*
X157710829Y-79067198D02*
X157758448Y-79114818D01*
X157758448Y-79114818D02*
X157853686Y-79162437D01*
X157853686Y-79162437D02*
X157996543Y-79162437D01*
X157377495Y-78495770D02*
X156996543Y-78495770D01*
X157234638Y-78162437D02*
X157234638Y-79019579D01*
X157234638Y-79019579D02*
X157187019Y-79114818D01*
X157187019Y-79114818D02*
X157091781Y-79162437D01*
X157091781Y-79162437D02*
X156996543Y-79162437D01*
X156663209Y-79162437D02*
X156663209Y-78162437D01*
X156234638Y-79162437D02*
X156234638Y-78638627D01*
X156234638Y-78638627D02*
X156282257Y-78543389D01*
X156282257Y-78543389D02*
X156377495Y-78495770D01*
X156377495Y-78495770D02*
X156520352Y-78495770D01*
X156520352Y-78495770D02*
X156615590Y-78543389D01*
X156615590Y-78543389D02*
X156663209Y-78591008D01*
X166710830Y-80105714D02*
X166472735Y-80772381D01*
X166472735Y-80772381D02*
X166234640Y-80105714D01*
X165663211Y-79772381D02*
X165567973Y-79772381D01*
X165567973Y-79772381D02*
X165472735Y-79820000D01*
X165472735Y-79820000D02*
X165425116Y-79867619D01*
X165425116Y-79867619D02*
X165377497Y-79962857D01*
X165377497Y-79962857D02*
X165329878Y-80153333D01*
X165329878Y-80153333D02*
X165329878Y-80391428D01*
X165329878Y-80391428D02*
X165377497Y-80581904D01*
X165377497Y-80581904D02*
X165425116Y-80677142D01*
X165425116Y-80677142D02*
X165472735Y-80724762D01*
X165472735Y-80724762D02*
X165567973Y-80772381D01*
X165567973Y-80772381D02*
X165663211Y-80772381D01*
X165663211Y-80772381D02*
X165758449Y-80724762D01*
X165758449Y-80724762D02*
X165806068Y-80677142D01*
X165806068Y-80677142D02*
X165853687Y-80581904D01*
X165853687Y-80581904D02*
X165901306Y-80391428D01*
X165901306Y-80391428D02*
X165901306Y-80153333D01*
X165901306Y-80153333D02*
X165853687Y-79962857D01*
X165853687Y-79962857D02*
X165806068Y-79867619D01*
X165806068Y-79867619D02*
X165758449Y-79820000D01*
X165758449Y-79820000D02*
X165663211Y-79772381D01*
X164901306Y-80677142D02*
X164853687Y-80724762D01*
X164853687Y-80724762D02*
X164901306Y-80772381D01*
X164901306Y-80772381D02*
X164948925Y-80724762D01*
X164948925Y-80724762D02*
X164901306Y-80677142D01*
X164901306Y-80677142D02*
X164901306Y-80772381D01*
X163901307Y-80772381D02*
X164472735Y-80772381D01*
X164187021Y-80772381D02*
X164187021Y-79772381D01*
X164187021Y-79772381D02*
X164282259Y-79915238D01*
X164282259Y-79915238D02*
X164377497Y-80010476D01*
X164377497Y-80010476D02*
X164472735Y-80058095D01*
X162710830Y-80391428D02*
X161948926Y-80391428D01*
X160853687Y-79772381D02*
X160282259Y-79772381D01*
X160567973Y-80772381D02*
X160567973Y-79772381D01*
X159567973Y-80724762D02*
X159663211Y-80772381D01*
X159663211Y-80772381D02*
X159853687Y-80772381D01*
X159853687Y-80772381D02*
X159948925Y-80724762D01*
X159948925Y-80724762D02*
X159996544Y-80629523D01*
X159996544Y-80629523D02*
X159996544Y-80248571D01*
X159996544Y-80248571D02*
X159948925Y-80153333D01*
X159948925Y-80153333D02*
X159853687Y-80105714D01*
X159853687Y-80105714D02*
X159663211Y-80105714D01*
X159663211Y-80105714D02*
X159567973Y-80153333D01*
X159567973Y-80153333D02*
X159520354Y-80248571D01*
X159520354Y-80248571D02*
X159520354Y-80343809D01*
X159520354Y-80343809D02*
X159996544Y-80439047D01*
X159139401Y-80724762D02*
X159044163Y-80772381D01*
X159044163Y-80772381D02*
X158853687Y-80772381D01*
X158853687Y-80772381D02*
X158758449Y-80724762D01*
X158758449Y-80724762D02*
X158710830Y-80629523D01*
X158710830Y-80629523D02*
X158710830Y-80581904D01*
X158710830Y-80581904D02*
X158758449Y-80486666D01*
X158758449Y-80486666D02*
X158853687Y-80439047D01*
X158853687Y-80439047D02*
X158996544Y-80439047D01*
X158996544Y-80439047D02*
X159091782Y-80391428D01*
X159091782Y-80391428D02*
X159139401Y-80296190D01*
X159139401Y-80296190D02*
X159139401Y-80248571D01*
X159139401Y-80248571D02*
X159091782Y-80153333D01*
X159091782Y-80153333D02*
X158996544Y-80105714D01*
X158996544Y-80105714D02*
X158853687Y-80105714D01*
X158853687Y-80105714D02*
X158758449Y-80153333D01*
X158425115Y-80105714D02*
X158044163Y-80105714D01*
X158282258Y-79772381D02*
X158282258Y-80629523D01*
X158282258Y-80629523D02*
X158234639Y-80724762D01*
X158234639Y-80724762D02*
X158139401Y-80772381D01*
X158139401Y-80772381D02*
X158044163Y-80772381D01*
X156615591Y-80248571D02*
X156472734Y-80296190D01*
X156472734Y-80296190D02*
X156425115Y-80343809D01*
X156425115Y-80343809D02*
X156377496Y-80439047D01*
X156377496Y-80439047D02*
X156377496Y-80581904D01*
X156377496Y-80581904D02*
X156425115Y-80677142D01*
X156425115Y-80677142D02*
X156472734Y-80724762D01*
X156472734Y-80724762D02*
X156567972Y-80772381D01*
X156567972Y-80772381D02*
X156948924Y-80772381D01*
X156948924Y-80772381D02*
X156948924Y-79772381D01*
X156948924Y-79772381D02*
X156615591Y-79772381D01*
X156615591Y-79772381D02*
X156520353Y-79820000D01*
X156520353Y-79820000D02*
X156472734Y-79867619D01*
X156472734Y-79867619D02*
X156425115Y-79962857D01*
X156425115Y-79962857D02*
X156425115Y-80058095D01*
X156425115Y-80058095D02*
X156472734Y-80153333D01*
X156472734Y-80153333D02*
X156520353Y-80200952D01*
X156520353Y-80200952D02*
X156615591Y-80248571D01*
X156615591Y-80248571D02*
X156948924Y-80248571D01*
X155806067Y-80772381D02*
X155901305Y-80724762D01*
X155901305Y-80724762D02*
X155948924Y-80677142D01*
X155948924Y-80677142D02*
X155996543Y-80581904D01*
X155996543Y-80581904D02*
X155996543Y-80296190D01*
X155996543Y-80296190D02*
X155948924Y-80200952D01*
X155948924Y-80200952D02*
X155901305Y-80153333D01*
X155901305Y-80153333D02*
X155806067Y-80105714D01*
X155806067Y-80105714D02*
X155663210Y-80105714D01*
X155663210Y-80105714D02*
X155567972Y-80153333D01*
X155567972Y-80153333D02*
X155520353Y-80200952D01*
X155520353Y-80200952D02*
X155472734Y-80296190D01*
X155472734Y-80296190D02*
X155472734Y-80581904D01*
X155472734Y-80581904D02*
X155520353Y-80677142D01*
X155520353Y-80677142D02*
X155567972Y-80724762D01*
X155567972Y-80724762D02*
X155663210Y-80772381D01*
X155663210Y-80772381D02*
X155806067Y-80772381D01*
X154615591Y-80772381D02*
X154615591Y-80248571D01*
X154615591Y-80248571D02*
X154663210Y-80153333D01*
X154663210Y-80153333D02*
X154758448Y-80105714D01*
X154758448Y-80105714D02*
X154948924Y-80105714D01*
X154948924Y-80105714D02*
X155044162Y-80153333D01*
X154615591Y-80724762D02*
X154710829Y-80772381D01*
X154710829Y-80772381D02*
X154948924Y-80772381D01*
X154948924Y-80772381D02*
X155044162Y-80724762D01*
X155044162Y-80724762D02*
X155091781Y-80629523D01*
X155091781Y-80629523D02*
X155091781Y-80534285D01*
X155091781Y-80534285D02*
X155044162Y-80439047D01*
X155044162Y-80439047D02*
X154948924Y-80391428D01*
X154948924Y-80391428D02*
X154710829Y-80391428D01*
X154710829Y-80391428D02*
X154615591Y-80343809D01*
X154139400Y-80772381D02*
X154139400Y-80105714D01*
X154139400Y-80296190D02*
X154091781Y-80200952D01*
X154091781Y-80200952D02*
X154044162Y-80153333D01*
X154044162Y-80153333D02*
X153948924Y-80105714D01*
X153948924Y-80105714D02*
X153853686Y-80105714D01*
X153091781Y-80772381D02*
X153091781Y-79772381D01*
X153091781Y-80724762D02*
X153187019Y-80772381D01*
X153187019Y-80772381D02*
X153377495Y-80772381D01*
X153377495Y-80772381D02*
X153472733Y-80724762D01*
X153472733Y-80724762D02*
X153520352Y-80677142D01*
X153520352Y-80677142D02*
X153567971Y-80581904D01*
X153567971Y-80581904D02*
X153567971Y-80296190D01*
X153567971Y-80296190D02*
X153520352Y-80200952D01*
X153520352Y-80200952D02*
X153472733Y-80153333D01*
X153472733Y-80153333D02*
X153377495Y-80105714D01*
X153377495Y-80105714D02*
X153187019Y-80105714D01*
X153187019Y-80105714D02*
X153091781Y-80153333D01*
X166663211Y-83944650D02*
X166520354Y-83992269D01*
X166520354Y-83992269D02*
X166282259Y-83992269D01*
X166282259Y-83992269D02*
X166187021Y-83944650D01*
X166187021Y-83944650D02*
X166139402Y-83897030D01*
X166139402Y-83897030D02*
X166091783Y-83801792D01*
X166091783Y-83801792D02*
X166091783Y-83706554D01*
X166091783Y-83706554D02*
X166139402Y-83611316D01*
X166139402Y-83611316D02*
X166187021Y-83563697D01*
X166187021Y-83563697D02*
X166282259Y-83516078D01*
X166282259Y-83516078D02*
X166472735Y-83468459D01*
X166472735Y-83468459D02*
X166567973Y-83420840D01*
X166567973Y-83420840D02*
X166615592Y-83373221D01*
X166615592Y-83373221D02*
X166663211Y-83277983D01*
X166663211Y-83277983D02*
X166663211Y-83182745D01*
X166663211Y-83182745D02*
X166615592Y-83087507D01*
X166615592Y-83087507D02*
X166567973Y-83039888D01*
X166567973Y-83039888D02*
X166472735Y-82992269D01*
X166472735Y-82992269D02*
X166234640Y-82992269D01*
X166234640Y-82992269D02*
X166091783Y-83039888D01*
X165663211Y-83325602D02*
X165663211Y-84325602D01*
X165663211Y-83373221D02*
X165567973Y-83325602D01*
X165567973Y-83325602D02*
X165377497Y-83325602D01*
X165377497Y-83325602D02*
X165282259Y-83373221D01*
X165282259Y-83373221D02*
X165234640Y-83420840D01*
X165234640Y-83420840D02*
X165187021Y-83516078D01*
X165187021Y-83516078D02*
X165187021Y-83801792D01*
X165187021Y-83801792D02*
X165234640Y-83897030D01*
X165234640Y-83897030D02*
X165282259Y-83944650D01*
X165282259Y-83944650D02*
X165377497Y-83992269D01*
X165377497Y-83992269D02*
X165567973Y-83992269D01*
X165567973Y-83992269D02*
X165663211Y-83944650D01*
X164377497Y-83944650D02*
X164472735Y-83992269D01*
X164472735Y-83992269D02*
X164663211Y-83992269D01*
X164663211Y-83992269D02*
X164758449Y-83944650D01*
X164758449Y-83944650D02*
X164806068Y-83849411D01*
X164806068Y-83849411D02*
X164806068Y-83468459D01*
X164806068Y-83468459D02*
X164758449Y-83373221D01*
X164758449Y-83373221D02*
X164663211Y-83325602D01*
X164663211Y-83325602D02*
X164472735Y-83325602D01*
X164472735Y-83325602D02*
X164377497Y-83373221D01*
X164377497Y-83373221D02*
X164329878Y-83468459D01*
X164329878Y-83468459D02*
X164329878Y-83563697D01*
X164329878Y-83563697D02*
X164806068Y-83658935D01*
X163472735Y-83944650D02*
X163567973Y-83992269D01*
X163567973Y-83992269D02*
X163758449Y-83992269D01*
X163758449Y-83992269D02*
X163853687Y-83944650D01*
X163853687Y-83944650D02*
X163901306Y-83897030D01*
X163901306Y-83897030D02*
X163948925Y-83801792D01*
X163948925Y-83801792D02*
X163948925Y-83516078D01*
X163948925Y-83516078D02*
X163901306Y-83420840D01*
X163901306Y-83420840D02*
X163853687Y-83373221D01*
X163853687Y-83373221D02*
X163758449Y-83325602D01*
X163758449Y-83325602D02*
X163567973Y-83325602D01*
X163567973Y-83325602D02*
X163472735Y-83373221D01*
X163044163Y-83992269D02*
X163044163Y-83325602D01*
X163044163Y-82992269D02*
X163091782Y-83039888D01*
X163091782Y-83039888D02*
X163044163Y-83087507D01*
X163044163Y-83087507D02*
X162996544Y-83039888D01*
X162996544Y-83039888D02*
X163044163Y-82992269D01*
X163044163Y-82992269D02*
X163044163Y-83087507D01*
X162139402Y-83992269D02*
X162139402Y-83468459D01*
X162139402Y-83468459D02*
X162187021Y-83373221D01*
X162187021Y-83373221D02*
X162282259Y-83325602D01*
X162282259Y-83325602D02*
X162472735Y-83325602D01*
X162472735Y-83325602D02*
X162567973Y-83373221D01*
X162139402Y-83944650D02*
X162234640Y-83992269D01*
X162234640Y-83992269D02*
X162472735Y-83992269D01*
X162472735Y-83992269D02*
X162567973Y-83944650D01*
X162567973Y-83944650D02*
X162615592Y-83849411D01*
X162615592Y-83849411D02*
X162615592Y-83754173D01*
X162615592Y-83754173D02*
X162567973Y-83658935D01*
X162567973Y-83658935D02*
X162472735Y-83611316D01*
X162472735Y-83611316D02*
X162234640Y-83611316D01*
X162234640Y-83611316D02*
X162139402Y-83563697D01*
X161520354Y-83992269D02*
X161615592Y-83944650D01*
X161615592Y-83944650D02*
X161663211Y-83849411D01*
X161663211Y-83849411D02*
X161663211Y-82992269D01*
X160520353Y-83325602D02*
X160139401Y-83325602D01*
X160377496Y-82992269D02*
X160377496Y-83849411D01*
X160377496Y-83849411D02*
X160329877Y-83944650D01*
X160329877Y-83944650D02*
X160234639Y-83992269D01*
X160234639Y-83992269D02*
X160139401Y-83992269D01*
X159806067Y-83992269D02*
X159806067Y-82992269D01*
X159377496Y-83992269D02*
X159377496Y-83468459D01*
X159377496Y-83468459D02*
X159425115Y-83373221D01*
X159425115Y-83373221D02*
X159520353Y-83325602D01*
X159520353Y-83325602D02*
X159663210Y-83325602D01*
X159663210Y-83325602D02*
X159758448Y-83373221D01*
X159758448Y-83373221D02*
X159806067Y-83420840D01*
X158472734Y-83992269D02*
X158472734Y-83468459D01*
X158472734Y-83468459D02*
X158520353Y-83373221D01*
X158520353Y-83373221D02*
X158615591Y-83325602D01*
X158615591Y-83325602D02*
X158806067Y-83325602D01*
X158806067Y-83325602D02*
X158901305Y-83373221D01*
X158472734Y-83944650D02*
X158567972Y-83992269D01*
X158567972Y-83992269D02*
X158806067Y-83992269D01*
X158806067Y-83992269D02*
X158901305Y-83944650D01*
X158901305Y-83944650D02*
X158948924Y-83849411D01*
X158948924Y-83849411D02*
X158948924Y-83754173D01*
X158948924Y-83754173D02*
X158901305Y-83658935D01*
X158901305Y-83658935D02*
X158806067Y-83611316D01*
X158806067Y-83611316D02*
X158567972Y-83611316D01*
X158567972Y-83611316D02*
X158472734Y-83563697D01*
X157996543Y-83325602D02*
X157996543Y-83992269D01*
X157996543Y-83420840D02*
X157948924Y-83373221D01*
X157948924Y-83373221D02*
X157853686Y-83325602D01*
X157853686Y-83325602D02*
X157710829Y-83325602D01*
X157710829Y-83325602D02*
X157615591Y-83373221D01*
X157615591Y-83373221D02*
X157567972Y-83468459D01*
X157567972Y-83468459D02*
X157567972Y-83992269D01*
X157091781Y-83992269D02*
X157091781Y-82992269D01*
X156996543Y-83611316D02*
X156710829Y-83992269D01*
X156710829Y-83325602D02*
X157091781Y-83706554D01*
X156329876Y-83944650D02*
X156234638Y-83992269D01*
X156234638Y-83992269D02*
X156044162Y-83992269D01*
X156044162Y-83992269D02*
X155948924Y-83944650D01*
X155948924Y-83944650D02*
X155901305Y-83849411D01*
X155901305Y-83849411D02*
X155901305Y-83801792D01*
X155901305Y-83801792D02*
X155948924Y-83706554D01*
X155948924Y-83706554D02*
X156044162Y-83658935D01*
X156044162Y-83658935D02*
X156187019Y-83658935D01*
X156187019Y-83658935D02*
X156282257Y-83611316D01*
X156282257Y-83611316D02*
X156329876Y-83516078D01*
X156329876Y-83516078D02*
X156329876Y-83468459D01*
X156329876Y-83468459D02*
X156282257Y-83373221D01*
X156282257Y-83373221D02*
X156187019Y-83325602D01*
X156187019Y-83325602D02*
X156044162Y-83325602D01*
X156044162Y-83325602D02*
X155948924Y-83373221D01*
X154853685Y-83325602D02*
X154472733Y-83325602D01*
X154710828Y-82992269D02*
X154710828Y-83849411D01*
X154710828Y-83849411D02*
X154663209Y-83944650D01*
X154663209Y-83944650D02*
X154567971Y-83992269D01*
X154567971Y-83992269D02*
X154472733Y-83992269D01*
X153996542Y-83992269D02*
X154091780Y-83944650D01*
X154091780Y-83944650D02*
X154139399Y-83897030D01*
X154139399Y-83897030D02*
X154187018Y-83801792D01*
X154187018Y-83801792D02*
X154187018Y-83516078D01*
X154187018Y-83516078D02*
X154139399Y-83420840D01*
X154139399Y-83420840D02*
X154091780Y-83373221D01*
X154091780Y-83373221D02*
X153996542Y-83325602D01*
X153996542Y-83325602D02*
X153853685Y-83325602D01*
X153853685Y-83325602D02*
X153758447Y-83373221D01*
X153758447Y-83373221D02*
X153710828Y-83420840D01*
X153710828Y-83420840D02*
X153663209Y-83516078D01*
X153663209Y-83516078D02*
X153663209Y-83801792D01*
X153663209Y-83801792D02*
X153710828Y-83897030D01*
X153710828Y-83897030D02*
X153758447Y-83944650D01*
X153758447Y-83944650D02*
X153853685Y-83992269D01*
X153853685Y-83992269D02*
X153996542Y-83992269D01*
X153234637Y-83897030D02*
X153187018Y-83944650D01*
X153187018Y-83944650D02*
X153234637Y-83992269D01*
X153234637Y-83992269D02*
X153282256Y-83944650D01*
X153282256Y-83944650D02*
X153234637Y-83897030D01*
X153234637Y-83897030D02*
X153234637Y-83992269D01*
X153234637Y-83373221D02*
X153187018Y-83420840D01*
X153187018Y-83420840D02*
X153234637Y-83468459D01*
X153234637Y-83468459D02*
X153282256Y-83420840D01*
X153282256Y-83420840D02*
X153234637Y-83373221D01*
X153234637Y-83373221D02*
X153234637Y-83468459D01*
X166472735Y-84602213D02*
X166472735Y-84840308D01*
X166710830Y-84745070D02*
X166472735Y-84840308D01*
X166472735Y-84840308D02*
X166234640Y-84745070D01*
X166615592Y-85030784D02*
X166472735Y-84840308D01*
X166472735Y-84840308D02*
X166329878Y-85030784D01*
X164663211Y-85602213D02*
X164663211Y-85078403D01*
X164663211Y-85078403D02*
X164710830Y-84983165D01*
X164710830Y-84983165D02*
X164806068Y-84935546D01*
X164806068Y-84935546D02*
X164996544Y-84935546D01*
X164996544Y-84935546D02*
X165091782Y-84983165D01*
X164663211Y-85554594D02*
X164758449Y-85602213D01*
X164758449Y-85602213D02*
X164996544Y-85602213D01*
X164996544Y-85602213D02*
X165091782Y-85554594D01*
X165091782Y-85554594D02*
X165139401Y-85459355D01*
X165139401Y-85459355D02*
X165139401Y-85364117D01*
X165139401Y-85364117D02*
X165091782Y-85268879D01*
X165091782Y-85268879D02*
X164996544Y-85221260D01*
X164996544Y-85221260D02*
X164758449Y-85221260D01*
X164758449Y-85221260D02*
X164663211Y-85173641D01*
X164187020Y-85602213D02*
X164187020Y-84602213D01*
X164187020Y-84983165D02*
X164091782Y-84935546D01*
X164091782Y-84935546D02*
X163901306Y-84935546D01*
X163901306Y-84935546D02*
X163806068Y-84983165D01*
X163806068Y-84983165D02*
X163758449Y-85030784D01*
X163758449Y-85030784D02*
X163710830Y-85126022D01*
X163710830Y-85126022D02*
X163710830Y-85411736D01*
X163710830Y-85411736D02*
X163758449Y-85506974D01*
X163758449Y-85506974D02*
X163806068Y-85554594D01*
X163806068Y-85554594D02*
X163901306Y-85602213D01*
X163901306Y-85602213D02*
X164091782Y-85602213D01*
X164091782Y-85602213D02*
X164187020Y-85554594D01*
X162853687Y-85602213D02*
X162853687Y-85078403D01*
X162853687Y-85078403D02*
X162901306Y-84983165D01*
X162901306Y-84983165D02*
X162996544Y-84935546D01*
X162996544Y-84935546D02*
X163187020Y-84935546D01*
X163187020Y-84935546D02*
X163282258Y-84983165D01*
X162853687Y-85554594D02*
X162948925Y-85602213D01*
X162948925Y-85602213D02*
X163187020Y-85602213D01*
X163187020Y-85602213D02*
X163282258Y-85554594D01*
X163282258Y-85554594D02*
X163329877Y-85459355D01*
X163329877Y-85459355D02*
X163329877Y-85364117D01*
X163329877Y-85364117D02*
X163282258Y-85268879D01*
X163282258Y-85268879D02*
X163187020Y-85221260D01*
X163187020Y-85221260D02*
X162948925Y-85221260D01*
X162948925Y-85221260D02*
X162853687Y-85173641D01*
X162425115Y-85554594D02*
X162329877Y-85602213D01*
X162329877Y-85602213D02*
X162139401Y-85602213D01*
X162139401Y-85602213D02*
X162044163Y-85554594D01*
X162044163Y-85554594D02*
X161996544Y-85459355D01*
X161996544Y-85459355D02*
X161996544Y-85411736D01*
X161996544Y-85411736D02*
X162044163Y-85316498D01*
X162044163Y-85316498D02*
X162139401Y-85268879D01*
X162139401Y-85268879D02*
X162282258Y-85268879D01*
X162282258Y-85268879D02*
X162377496Y-85221260D01*
X162377496Y-85221260D02*
X162425115Y-85126022D01*
X162425115Y-85126022D02*
X162425115Y-85078403D01*
X162425115Y-85078403D02*
X162377496Y-84983165D01*
X162377496Y-84983165D02*
X162282258Y-84935546D01*
X162282258Y-84935546D02*
X162139401Y-84935546D01*
X162139401Y-84935546D02*
X162044163Y-84983165D01*
X161710829Y-84935546D02*
X161329877Y-84935546D01*
X161567972Y-84602213D02*
X161567972Y-85459355D01*
X161567972Y-85459355D02*
X161520353Y-85554594D01*
X161520353Y-85554594D02*
X161425115Y-85602213D01*
X161425115Y-85602213D02*
X161329877Y-85602213D01*
X160853686Y-85602213D02*
X160948924Y-85554594D01*
X160948924Y-85554594D02*
X160996543Y-85506974D01*
X160996543Y-85506974D02*
X161044162Y-85411736D01*
X161044162Y-85411736D02*
X161044162Y-85126022D01*
X161044162Y-85126022D02*
X160996543Y-85030784D01*
X160996543Y-85030784D02*
X160948924Y-84983165D01*
X160948924Y-84983165D02*
X160853686Y-84935546D01*
X160853686Y-84935546D02*
X160710829Y-84935546D01*
X160710829Y-84935546D02*
X160615591Y-84983165D01*
X160615591Y-84983165D02*
X160567972Y-85030784D01*
X160567972Y-85030784D02*
X160520353Y-85126022D01*
X160520353Y-85126022D02*
X160520353Y-85411736D01*
X160520353Y-85411736D02*
X160567972Y-85506974D01*
X160567972Y-85506974D02*
X160615591Y-85554594D01*
X160615591Y-85554594D02*
X160710829Y-85602213D01*
X160710829Y-85602213D02*
X160853686Y-85602213D01*
X160139400Y-85554594D02*
X160044162Y-85602213D01*
X160044162Y-85602213D02*
X159853686Y-85602213D01*
X159853686Y-85602213D02*
X159758448Y-85554594D01*
X159758448Y-85554594D02*
X159710829Y-85459355D01*
X159710829Y-85459355D02*
X159710829Y-85411736D01*
X159710829Y-85411736D02*
X159758448Y-85316498D01*
X159758448Y-85316498D02*
X159853686Y-85268879D01*
X159853686Y-85268879D02*
X159996543Y-85268879D01*
X159996543Y-85268879D02*
X160091781Y-85221260D01*
X160091781Y-85221260D02*
X160139400Y-85126022D01*
X160139400Y-85126022D02*
X160139400Y-85078403D01*
X160139400Y-85078403D02*
X160091781Y-84983165D01*
X160091781Y-84983165D02*
X159996543Y-84935546D01*
X159996543Y-84935546D02*
X159853686Y-84935546D01*
X159853686Y-84935546D02*
X159758448Y-84983165D01*
X166472735Y-86212157D02*
X166472735Y-86450252D01*
X166710830Y-86355014D02*
X166472735Y-86450252D01*
X166472735Y-86450252D02*
X166234640Y-86355014D01*
X166615592Y-86640728D02*
X166472735Y-86450252D01*
X166472735Y-86450252D02*
X166329878Y-86640728D01*
X165091782Y-87212157D02*
X165091782Y-86212157D01*
X165091782Y-86593109D02*
X164996544Y-86545490D01*
X164996544Y-86545490D02*
X164806068Y-86545490D01*
X164806068Y-86545490D02*
X164710830Y-86593109D01*
X164710830Y-86593109D02*
X164663211Y-86640728D01*
X164663211Y-86640728D02*
X164615592Y-86735966D01*
X164615592Y-86735966D02*
X164615592Y-87021680D01*
X164615592Y-87021680D02*
X164663211Y-87116918D01*
X164663211Y-87116918D02*
X164710830Y-87164538D01*
X164710830Y-87164538D02*
X164806068Y-87212157D01*
X164806068Y-87212157D02*
X164996544Y-87212157D01*
X164996544Y-87212157D02*
X165091782Y-87164538D01*
X163806068Y-87164538D02*
X163901306Y-87212157D01*
X163901306Y-87212157D02*
X164091782Y-87212157D01*
X164091782Y-87212157D02*
X164187020Y-87164538D01*
X164187020Y-87164538D02*
X164234639Y-87069299D01*
X164234639Y-87069299D02*
X164234639Y-86688347D01*
X164234639Y-86688347D02*
X164187020Y-86593109D01*
X164187020Y-86593109D02*
X164091782Y-86545490D01*
X164091782Y-86545490D02*
X163901306Y-86545490D01*
X163901306Y-86545490D02*
X163806068Y-86593109D01*
X163806068Y-86593109D02*
X163758449Y-86688347D01*
X163758449Y-86688347D02*
X163758449Y-86783585D01*
X163758449Y-86783585D02*
X164234639Y-86878823D01*
X163329877Y-86545490D02*
X163329877Y-87212157D01*
X163329877Y-86640728D02*
X163282258Y-86593109D01*
X163282258Y-86593109D02*
X163187020Y-86545490D01*
X163187020Y-86545490D02*
X163044163Y-86545490D01*
X163044163Y-86545490D02*
X162948925Y-86593109D01*
X162948925Y-86593109D02*
X162901306Y-86688347D01*
X162901306Y-86688347D02*
X162901306Y-87212157D01*
X162044163Y-87164538D02*
X162139401Y-87212157D01*
X162139401Y-87212157D02*
X162329877Y-87212157D01*
X162329877Y-87212157D02*
X162425115Y-87164538D01*
X162425115Y-87164538D02*
X162472734Y-87069299D01*
X162472734Y-87069299D02*
X162472734Y-86688347D01*
X162472734Y-86688347D02*
X162425115Y-86593109D01*
X162425115Y-86593109D02*
X162329877Y-86545490D01*
X162329877Y-86545490D02*
X162139401Y-86545490D01*
X162139401Y-86545490D02*
X162044163Y-86593109D01*
X162044163Y-86593109D02*
X161996544Y-86688347D01*
X161996544Y-86688347D02*
X161996544Y-86783585D01*
X161996544Y-86783585D02*
X162472734Y-86878823D01*
X161567972Y-87212157D02*
X161567972Y-86545490D01*
X161567972Y-86735966D02*
X161520353Y-86640728D01*
X161520353Y-86640728D02*
X161472734Y-86593109D01*
X161472734Y-86593109D02*
X161377496Y-86545490D01*
X161377496Y-86545490D02*
X161282258Y-86545490D01*
X160520353Y-86545490D02*
X160520353Y-87355014D01*
X160520353Y-87355014D02*
X160567972Y-87450252D01*
X160567972Y-87450252D02*
X160615591Y-87497871D01*
X160615591Y-87497871D02*
X160710829Y-87545490D01*
X160710829Y-87545490D02*
X160853686Y-87545490D01*
X160853686Y-87545490D02*
X160948924Y-87497871D01*
X160520353Y-87164538D02*
X160615591Y-87212157D01*
X160615591Y-87212157D02*
X160806067Y-87212157D01*
X160806067Y-87212157D02*
X160901305Y-87164538D01*
X160901305Y-87164538D02*
X160948924Y-87116918D01*
X160948924Y-87116918D02*
X160996543Y-87021680D01*
X160996543Y-87021680D02*
X160996543Y-86735966D01*
X160996543Y-86735966D02*
X160948924Y-86640728D01*
X160948924Y-86640728D02*
X160901305Y-86593109D01*
X160901305Y-86593109D02*
X160806067Y-86545490D01*
X160806067Y-86545490D02*
X160615591Y-86545490D01*
X160615591Y-86545490D02*
X160520353Y-86593109D01*
X160139400Y-86545490D02*
X159901305Y-87212157D01*
X159663210Y-86545490D02*
X159901305Y-87212157D01*
X159901305Y-87212157D02*
X159996543Y-87450252D01*
X159996543Y-87450252D02*
X160044162Y-87497871D01*
X160044162Y-87497871D02*
X160139400Y-87545490D01*
X159139400Y-87212157D02*
X159234638Y-87164538D01*
X159234638Y-87164538D02*
X159282257Y-87069299D01*
X159282257Y-87069299D02*
X159282257Y-86212157D01*
X158758447Y-87212157D02*
X158758447Y-86545490D01*
X158758447Y-86212157D02*
X158806066Y-86259776D01*
X158806066Y-86259776D02*
X158758447Y-86307395D01*
X158758447Y-86307395D02*
X158710828Y-86259776D01*
X158710828Y-86259776D02*
X158758447Y-86212157D01*
X158758447Y-86212157D02*
X158758447Y-86307395D01*
X158377495Y-86545490D02*
X158139400Y-87212157D01*
X158139400Y-87212157D02*
X157901305Y-86545490D01*
X157139400Y-87164538D02*
X157234638Y-87212157D01*
X157234638Y-87212157D02*
X157425114Y-87212157D01*
X157425114Y-87212157D02*
X157520352Y-87164538D01*
X157520352Y-87164538D02*
X157567971Y-87069299D01*
X157567971Y-87069299D02*
X157567971Y-86688347D01*
X157567971Y-86688347D02*
X157520352Y-86593109D01*
X157520352Y-86593109D02*
X157425114Y-86545490D01*
X157425114Y-86545490D02*
X157234638Y-86545490D01*
X157234638Y-86545490D02*
X157139400Y-86593109D01*
X157139400Y-86593109D02*
X157091781Y-86688347D01*
X157091781Y-86688347D02*
X157091781Y-86783585D01*
X157091781Y-86783585D02*
X157567971Y-86878823D01*
X166472735Y-87822101D02*
X166472735Y-88060196D01*
X166710830Y-87964958D02*
X166472735Y-88060196D01*
X166472735Y-88060196D02*
X166234640Y-87964958D01*
X166615592Y-88250672D02*
X166472735Y-88060196D01*
X166472735Y-88060196D02*
X166329878Y-88250672D01*
X165091782Y-88155434D02*
X165091782Y-89155434D01*
X165091782Y-88203053D02*
X164996544Y-88155434D01*
X164996544Y-88155434D02*
X164806068Y-88155434D01*
X164806068Y-88155434D02*
X164710830Y-88203053D01*
X164710830Y-88203053D02*
X164663211Y-88250672D01*
X164663211Y-88250672D02*
X164615592Y-88345910D01*
X164615592Y-88345910D02*
X164615592Y-88631624D01*
X164615592Y-88631624D02*
X164663211Y-88726862D01*
X164663211Y-88726862D02*
X164710830Y-88774482D01*
X164710830Y-88774482D02*
X164806068Y-88822101D01*
X164806068Y-88822101D02*
X164996544Y-88822101D01*
X164996544Y-88822101D02*
X165091782Y-88774482D01*
X163806068Y-88774482D02*
X163901306Y-88822101D01*
X163901306Y-88822101D02*
X164091782Y-88822101D01*
X164091782Y-88822101D02*
X164187020Y-88774482D01*
X164187020Y-88774482D02*
X164234639Y-88679243D01*
X164234639Y-88679243D02*
X164234639Y-88298291D01*
X164234639Y-88298291D02*
X164187020Y-88203053D01*
X164187020Y-88203053D02*
X164091782Y-88155434D01*
X164091782Y-88155434D02*
X163901306Y-88155434D01*
X163901306Y-88155434D02*
X163806068Y-88203053D01*
X163806068Y-88203053D02*
X163758449Y-88298291D01*
X163758449Y-88298291D02*
X163758449Y-88393529D01*
X163758449Y-88393529D02*
X164234639Y-88488767D01*
X163472734Y-88155434D02*
X163091782Y-88155434D01*
X163329877Y-87822101D02*
X163329877Y-88679243D01*
X163329877Y-88679243D02*
X163282258Y-88774482D01*
X163282258Y-88774482D02*
X163187020Y-88822101D01*
X163187020Y-88822101D02*
X163091782Y-88822101D01*
X162377496Y-88774482D02*
X162472734Y-88822101D01*
X162472734Y-88822101D02*
X162663210Y-88822101D01*
X162663210Y-88822101D02*
X162758448Y-88774482D01*
X162758448Y-88774482D02*
X162806067Y-88679243D01*
X162806067Y-88679243D02*
X162806067Y-88298291D01*
X162806067Y-88298291D02*
X162758448Y-88203053D01*
X162758448Y-88203053D02*
X162663210Y-88155434D01*
X162663210Y-88155434D02*
X162472734Y-88155434D01*
X162472734Y-88155434D02*
X162377496Y-88203053D01*
X162377496Y-88203053D02*
X162329877Y-88298291D01*
X162329877Y-88298291D02*
X162329877Y-88393529D01*
X162329877Y-88393529D02*
X162806067Y-88488767D01*
X161901305Y-88822101D02*
X161901305Y-88155434D01*
X161901305Y-88345910D02*
X161853686Y-88250672D01*
X161853686Y-88250672D02*
X161806067Y-88203053D01*
X161806067Y-88203053D02*
X161710829Y-88155434D01*
X161710829Y-88155434D02*
X161615591Y-88155434D01*
X161139400Y-88822101D02*
X161234638Y-88774482D01*
X161234638Y-88774482D02*
X161282257Y-88679243D01*
X161282257Y-88679243D02*
X161282257Y-87822101D01*
X160329876Y-88155434D02*
X160329876Y-88822101D01*
X160758447Y-88155434D02*
X160758447Y-88679243D01*
X160758447Y-88679243D02*
X160710828Y-88774482D01*
X160710828Y-88774482D02*
X160615590Y-88822101D01*
X160615590Y-88822101D02*
X160472733Y-88822101D01*
X160472733Y-88822101D02*
X160377495Y-88774482D01*
X160377495Y-88774482D02*
X160329876Y-88726862D01*
X159901304Y-88774482D02*
X159806066Y-88822101D01*
X159806066Y-88822101D02*
X159615590Y-88822101D01*
X159615590Y-88822101D02*
X159520352Y-88774482D01*
X159520352Y-88774482D02*
X159472733Y-88679243D01*
X159472733Y-88679243D02*
X159472733Y-88631624D01*
X159472733Y-88631624D02*
X159520352Y-88536386D01*
X159520352Y-88536386D02*
X159615590Y-88488767D01*
X159615590Y-88488767D02*
X159758447Y-88488767D01*
X159758447Y-88488767D02*
X159853685Y-88441148D01*
X159853685Y-88441148D02*
X159901304Y-88345910D01*
X159901304Y-88345910D02*
X159901304Y-88298291D01*
X159901304Y-88298291D02*
X159853685Y-88203053D01*
X159853685Y-88203053D02*
X159758447Y-88155434D01*
X159758447Y-88155434D02*
X159615590Y-88155434D01*
X159615590Y-88155434D02*
X159520352Y-88203053D01*
X159187018Y-88155434D02*
X158806066Y-88155434D01*
X159044161Y-87822101D02*
X159044161Y-88679243D01*
X159044161Y-88679243D02*
X158996542Y-88774482D01*
X158996542Y-88774482D02*
X158901304Y-88822101D01*
X158901304Y-88822101D02*
X158806066Y-88822101D01*
X158472732Y-88822101D02*
X158472732Y-88155434D01*
X158472732Y-87822101D02*
X158520351Y-87869720D01*
X158520351Y-87869720D02*
X158472732Y-87917339D01*
X158472732Y-87917339D02*
X158425113Y-87869720D01*
X158425113Y-87869720D02*
X158472732Y-87822101D01*
X158472732Y-87822101D02*
X158472732Y-87917339D01*
X157567971Y-88155434D02*
X157567971Y-88964958D01*
X157567971Y-88964958D02*
X157615590Y-89060196D01*
X157615590Y-89060196D02*
X157663209Y-89107815D01*
X157663209Y-89107815D02*
X157758447Y-89155434D01*
X157758447Y-89155434D02*
X157901304Y-89155434D01*
X157901304Y-89155434D02*
X157996542Y-89107815D01*
X157567971Y-88774482D02*
X157663209Y-88822101D01*
X157663209Y-88822101D02*
X157853685Y-88822101D01*
X157853685Y-88822101D02*
X157948923Y-88774482D01*
X157948923Y-88774482D02*
X157996542Y-88726862D01*
X157996542Y-88726862D02*
X158044161Y-88631624D01*
X158044161Y-88631624D02*
X158044161Y-88345910D01*
X158044161Y-88345910D02*
X157996542Y-88250672D01*
X157996542Y-88250672D02*
X157948923Y-88203053D01*
X157948923Y-88203053D02*
X157853685Y-88155434D01*
X157853685Y-88155434D02*
X157663209Y-88155434D01*
X157663209Y-88155434D02*
X157567971Y-88203053D01*
X156567971Y-88822101D02*
X157139399Y-88822101D01*
X156853685Y-88822101D02*
X156853685Y-87822101D01*
X156853685Y-87822101D02*
X156948923Y-87964958D01*
X156948923Y-87964958D02*
X157044161Y-88060196D01*
X157044161Y-88060196D02*
X157139399Y-88107815D01*
X136574852Y-94037345D02*
X136527233Y-93942107D01*
X136527233Y-93942107D02*
X136527233Y-93799250D01*
X136527233Y-93799250D02*
X136574852Y-93656393D01*
X136574852Y-93656393D02*
X136670090Y-93561155D01*
X136670090Y-93561155D02*
X136765328Y-93513536D01*
X136765328Y-93513536D02*
X136955804Y-93465917D01*
X136955804Y-93465917D02*
X137098661Y-93465917D01*
X137098661Y-93465917D02*
X137289137Y-93513536D01*
X137289137Y-93513536D02*
X137384375Y-93561155D01*
X137384375Y-93561155D02*
X137479614Y-93656393D01*
X137479614Y-93656393D02*
X137527233Y-93799250D01*
X137527233Y-93799250D02*
X137527233Y-93894488D01*
X137527233Y-93894488D02*
X137479614Y-94037345D01*
X137479614Y-94037345D02*
X137431994Y-94084964D01*
X137431994Y-94084964D02*
X137098661Y-94084964D01*
X137098661Y-94084964D02*
X137098661Y-93894488D01*
X137527233Y-94513536D02*
X136527233Y-94513536D01*
X136527233Y-94513536D02*
X136527233Y-94894488D01*
X136527233Y-94894488D02*
X136574852Y-94989726D01*
X136574852Y-94989726D02*
X136622471Y-95037345D01*
X136622471Y-95037345D02*
X136717709Y-95084964D01*
X136717709Y-95084964D02*
X136860566Y-95084964D01*
X136860566Y-95084964D02*
X136955804Y-95037345D01*
X136955804Y-95037345D02*
X137003423Y-94989726D01*
X137003423Y-94989726D02*
X137051042Y-94894488D01*
X137051042Y-94894488D02*
X137051042Y-94513536D01*
X137527233Y-95513536D02*
X136527233Y-95513536D01*
X136527233Y-96180202D02*
X136527233Y-96370678D01*
X136527233Y-96370678D02*
X136574852Y-96465916D01*
X136574852Y-96465916D02*
X136670090Y-96561154D01*
X136670090Y-96561154D02*
X136860566Y-96608773D01*
X136860566Y-96608773D02*
X137193899Y-96608773D01*
X137193899Y-96608773D02*
X137384375Y-96561154D01*
X137384375Y-96561154D02*
X137479614Y-96465916D01*
X137479614Y-96465916D02*
X137527233Y-96370678D01*
X137527233Y-96370678D02*
X137527233Y-96180202D01*
X137527233Y-96180202D02*
X137479614Y-96084964D01*
X137479614Y-96084964D02*
X137384375Y-95989726D01*
X137384375Y-95989726D02*
X137193899Y-95942107D01*
X137193899Y-95942107D02*
X136860566Y-95942107D01*
X136860566Y-95942107D02*
X136670090Y-95989726D01*
X136670090Y-95989726D02*
X136574852Y-96084964D01*
X136574852Y-96084964D02*
X136527233Y-96180202D01*
X136622471Y-96989726D02*
X136574852Y-97037345D01*
X136574852Y-97037345D02*
X136527233Y-97132583D01*
X136527233Y-97132583D02*
X136527233Y-97370678D01*
X136527233Y-97370678D02*
X136574852Y-97465916D01*
X136574852Y-97465916D02*
X136622471Y-97513535D01*
X136622471Y-97513535D02*
X136717709Y-97561154D01*
X136717709Y-97561154D02*
X136812947Y-97561154D01*
X136812947Y-97561154D02*
X136955804Y-97513535D01*
X136955804Y-97513535D02*
X137527233Y-96942107D01*
X137527233Y-96942107D02*
X137527233Y-97561154D01*
X136527233Y-98418297D02*
X136527233Y-98227821D01*
X136527233Y-98227821D02*
X136574852Y-98132583D01*
X136574852Y-98132583D02*
X136622471Y-98084964D01*
X136622471Y-98084964D02*
X136765328Y-97989726D01*
X136765328Y-97989726D02*
X136955804Y-97942107D01*
X136955804Y-97942107D02*
X137336756Y-97942107D01*
X137336756Y-97942107D02*
X137431994Y-97989726D01*
X137431994Y-97989726D02*
X137479614Y-98037345D01*
X137479614Y-98037345D02*
X137527233Y-98132583D01*
X137527233Y-98132583D02*
X137527233Y-98323059D01*
X137527233Y-98323059D02*
X137479614Y-98418297D01*
X137479614Y-98418297D02*
X137431994Y-98465916D01*
X137431994Y-98465916D02*
X137336756Y-98513535D01*
X137336756Y-98513535D02*
X137098661Y-98513535D01*
X137098661Y-98513535D02*
X137003423Y-98465916D01*
X137003423Y-98465916D02*
X136955804Y-98418297D01*
X136955804Y-98418297D02*
X136908185Y-98323059D01*
X136908185Y-98323059D02*
X136908185Y-98132583D01*
X136908185Y-98132583D02*
X136955804Y-98037345D01*
X136955804Y-98037345D02*
X137003423Y-97989726D01*
X137003423Y-97989726D02*
X137098661Y-97942107D01*
X166758449Y-89822101D02*
X166187021Y-89822101D01*
X166472735Y-90822101D02*
X166472735Y-89822101D01*
X165853687Y-90822101D02*
X165853687Y-89822101D01*
X165425116Y-90822101D02*
X165425116Y-90298291D01*
X165425116Y-90298291D02*
X165472735Y-90203053D01*
X165472735Y-90203053D02*
X165567973Y-90155434D01*
X165567973Y-90155434D02*
X165710830Y-90155434D01*
X165710830Y-90155434D02*
X165806068Y-90203053D01*
X165806068Y-90203053D02*
X165853687Y-90250672D01*
X164520354Y-90822101D02*
X164520354Y-90298291D01*
X164520354Y-90298291D02*
X164567973Y-90203053D01*
X164567973Y-90203053D02*
X164663211Y-90155434D01*
X164663211Y-90155434D02*
X164853687Y-90155434D01*
X164853687Y-90155434D02*
X164948925Y-90203053D01*
X164520354Y-90774482D02*
X164615592Y-90822101D01*
X164615592Y-90822101D02*
X164853687Y-90822101D01*
X164853687Y-90822101D02*
X164948925Y-90774482D01*
X164948925Y-90774482D02*
X164996544Y-90679243D01*
X164996544Y-90679243D02*
X164996544Y-90584005D01*
X164996544Y-90584005D02*
X164948925Y-90488767D01*
X164948925Y-90488767D02*
X164853687Y-90441148D01*
X164853687Y-90441148D02*
X164615592Y-90441148D01*
X164615592Y-90441148D02*
X164520354Y-90393529D01*
X164044163Y-90155434D02*
X164044163Y-90822101D01*
X164044163Y-90250672D02*
X163996544Y-90203053D01*
X163996544Y-90203053D02*
X163901306Y-90155434D01*
X163901306Y-90155434D02*
X163758449Y-90155434D01*
X163758449Y-90155434D02*
X163663211Y-90203053D01*
X163663211Y-90203053D02*
X163615592Y-90298291D01*
X163615592Y-90298291D02*
X163615592Y-90822101D01*
X163139401Y-90822101D02*
X163139401Y-89822101D01*
X163044163Y-90441148D02*
X162758449Y-90822101D01*
X162758449Y-90155434D02*
X163139401Y-90536386D01*
X162377496Y-90774482D02*
X162282258Y-90822101D01*
X162282258Y-90822101D02*
X162091782Y-90822101D01*
X162091782Y-90822101D02*
X161996544Y-90774482D01*
X161996544Y-90774482D02*
X161948925Y-90679243D01*
X161948925Y-90679243D02*
X161948925Y-90631624D01*
X161948925Y-90631624D02*
X161996544Y-90536386D01*
X161996544Y-90536386D02*
X162091782Y-90488767D01*
X162091782Y-90488767D02*
X162234639Y-90488767D01*
X162234639Y-90488767D02*
X162329877Y-90441148D01*
X162329877Y-90441148D02*
X162377496Y-90345910D01*
X162377496Y-90345910D02*
X162377496Y-90298291D01*
X162377496Y-90298291D02*
X162329877Y-90203053D01*
X162329877Y-90203053D02*
X162234639Y-90155434D01*
X162234639Y-90155434D02*
X162091782Y-90155434D01*
X162091782Y-90155434D02*
X161996544Y-90203053D01*
X160901305Y-90155434D02*
X160520353Y-90155434D01*
X160758448Y-90822101D02*
X160758448Y-89964958D01*
X160758448Y-89964958D02*
X160710829Y-89869720D01*
X160710829Y-89869720D02*
X160615591Y-89822101D01*
X160615591Y-89822101D02*
X160520353Y-89822101D01*
X160044162Y-90822101D02*
X160139400Y-90774482D01*
X160139400Y-90774482D02*
X160187019Y-90726862D01*
X160187019Y-90726862D02*
X160234638Y-90631624D01*
X160234638Y-90631624D02*
X160234638Y-90345910D01*
X160234638Y-90345910D02*
X160187019Y-90250672D01*
X160187019Y-90250672D02*
X160139400Y-90203053D01*
X160139400Y-90203053D02*
X160044162Y-90155434D01*
X160044162Y-90155434D02*
X159901305Y-90155434D01*
X159901305Y-90155434D02*
X159806067Y-90203053D01*
X159806067Y-90203053D02*
X159758448Y-90250672D01*
X159758448Y-90250672D02*
X159710829Y-90345910D01*
X159710829Y-90345910D02*
X159710829Y-90631624D01*
X159710829Y-90631624D02*
X159758448Y-90726862D01*
X159758448Y-90726862D02*
X159806067Y-90774482D01*
X159806067Y-90774482D02*
X159901305Y-90822101D01*
X159901305Y-90822101D02*
X160044162Y-90822101D01*
X159282257Y-90822101D02*
X159282257Y-90155434D01*
X159282257Y-90345910D02*
X159234638Y-90250672D01*
X159234638Y-90250672D02*
X159187019Y-90203053D01*
X159187019Y-90203053D02*
X159091781Y-90155434D01*
X159091781Y-90155434D02*
X158996543Y-90155434D01*
X158044161Y-90155434D02*
X157663209Y-90155434D01*
X157901304Y-89822101D02*
X157901304Y-90679243D01*
X157901304Y-90679243D02*
X157853685Y-90774482D01*
X157853685Y-90774482D02*
X157758447Y-90822101D01*
X157758447Y-90822101D02*
X157663209Y-90822101D01*
X157329875Y-90822101D02*
X157329875Y-89822101D01*
X156901304Y-90822101D02*
X156901304Y-90298291D01*
X156901304Y-90298291D02*
X156948923Y-90203053D01*
X156948923Y-90203053D02*
X157044161Y-90155434D01*
X157044161Y-90155434D02*
X157187018Y-90155434D01*
X157187018Y-90155434D02*
X157282256Y-90203053D01*
X157282256Y-90203053D02*
X157329875Y-90250672D01*
X156044161Y-90774482D02*
X156139399Y-90822101D01*
X156139399Y-90822101D02*
X156329875Y-90822101D01*
X156329875Y-90822101D02*
X156425113Y-90774482D01*
X156425113Y-90774482D02*
X156472732Y-90679243D01*
X156472732Y-90679243D02*
X156472732Y-90298291D01*
X156472732Y-90298291D02*
X156425113Y-90203053D01*
X156425113Y-90203053D02*
X156329875Y-90155434D01*
X156329875Y-90155434D02*
X156139399Y-90155434D01*
X156139399Y-90155434D02*
X156044161Y-90203053D01*
X156044161Y-90203053D02*
X155996542Y-90298291D01*
X155996542Y-90298291D02*
X155996542Y-90393529D01*
X155996542Y-90393529D02*
X156472732Y-90488767D01*
X154853684Y-90774482D02*
X154758446Y-90822101D01*
X154758446Y-90822101D02*
X154567970Y-90822101D01*
X154567970Y-90822101D02*
X154472732Y-90774482D01*
X154472732Y-90774482D02*
X154425113Y-90679243D01*
X154425113Y-90679243D02*
X154425113Y-90631624D01*
X154425113Y-90631624D02*
X154472732Y-90536386D01*
X154472732Y-90536386D02*
X154567970Y-90488767D01*
X154567970Y-90488767D02*
X154710827Y-90488767D01*
X154710827Y-90488767D02*
X154806065Y-90441148D01*
X154806065Y-90441148D02*
X154853684Y-90345910D01*
X154853684Y-90345910D02*
X154853684Y-90298291D01*
X154853684Y-90298291D02*
X154806065Y-90203053D01*
X154806065Y-90203053D02*
X154710827Y-90155434D01*
X154710827Y-90155434D02*
X154567970Y-90155434D01*
X154567970Y-90155434D02*
X154472732Y-90203053D01*
X153567970Y-90155434D02*
X153567970Y-90822101D01*
X153996541Y-90155434D02*
X153996541Y-90679243D01*
X153996541Y-90679243D02*
X153948922Y-90774482D01*
X153948922Y-90774482D02*
X153853684Y-90822101D01*
X153853684Y-90822101D02*
X153710827Y-90822101D01*
X153710827Y-90822101D02*
X153615589Y-90774482D01*
X153615589Y-90774482D02*
X153567970Y-90726862D01*
X153091779Y-90155434D02*
X153091779Y-91155434D01*
X153091779Y-90203053D02*
X152996541Y-90155434D01*
X152996541Y-90155434D02*
X152806065Y-90155434D01*
X152806065Y-90155434D02*
X152710827Y-90203053D01*
X152710827Y-90203053D02*
X152663208Y-90250672D01*
X152663208Y-90250672D02*
X152615589Y-90345910D01*
X152615589Y-90345910D02*
X152615589Y-90631624D01*
X152615589Y-90631624D02*
X152663208Y-90726862D01*
X152663208Y-90726862D02*
X152710827Y-90774482D01*
X152710827Y-90774482D02*
X152806065Y-90822101D01*
X152806065Y-90822101D02*
X152996541Y-90822101D01*
X152996541Y-90822101D02*
X153091779Y-90774482D01*
X152187017Y-90155434D02*
X152187017Y-91155434D01*
X152187017Y-90203053D02*
X152091779Y-90155434D01*
X152091779Y-90155434D02*
X151901303Y-90155434D01*
X151901303Y-90155434D02*
X151806065Y-90203053D01*
X151806065Y-90203053D02*
X151758446Y-90250672D01*
X151758446Y-90250672D02*
X151710827Y-90345910D01*
X151710827Y-90345910D02*
X151710827Y-90631624D01*
X151710827Y-90631624D02*
X151758446Y-90726862D01*
X151758446Y-90726862D02*
X151806065Y-90774482D01*
X151806065Y-90774482D02*
X151901303Y-90822101D01*
X151901303Y-90822101D02*
X152091779Y-90822101D01*
X152091779Y-90822101D02*
X152187017Y-90774482D01*
X151139398Y-90822101D02*
X151234636Y-90774482D01*
X151234636Y-90774482D02*
X151282255Y-90726862D01*
X151282255Y-90726862D02*
X151329874Y-90631624D01*
X151329874Y-90631624D02*
X151329874Y-90345910D01*
X151329874Y-90345910D02*
X151282255Y-90250672D01*
X151282255Y-90250672D02*
X151234636Y-90203053D01*
X151234636Y-90203053D02*
X151139398Y-90155434D01*
X151139398Y-90155434D02*
X150996541Y-90155434D01*
X150996541Y-90155434D02*
X150901303Y-90203053D01*
X150901303Y-90203053D02*
X150853684Y-90250672D01*
X150853684Y-90250672D02*
X150806065Y-90345910D01*
X150806065Y-90345910D02*
X150806065Y-90631624D01*
X150806065Y-90631624D02*
X150853684Y-90726862D01*
X150853684Y-90726862D02*
X150901303Y-90774482D01*
X150901303Y-90774482D02*
X150996541Y-90822101D01*
X150996541Y-90822101D02*
X151139398Y-90822101D01*
X150377493Y-90822101D02*
X150377493Y-90155434D01*
X150377493Y-90345910D02*
X150329874Y-90250672D01*
X150329874Y-90250672D02*
X150282255Y-90203053D01*
X150282255Y-90203053D02*
X150187017Y-90155434D01*
X150187017Y-90155434D02*
X150091779Y-90155434D01*
X149901302Y-90155434D02*
X149520350Y-90155434D01*
X149758445Y-89822101D02*
X149758445Y-90679243D01*
X149758445Y-90679243D02*
X149710826Y-90774482D01*
X149710826Y-90774482D02*
X149615588Y-90822101D01*
X149615588Y-90822101D02*
X149520350Y-90822101D01*
X149139397Y-90774482D02*
X149139397Y-90822101D01*
X149139397Y-90822101D02*
X149187016Y-90917339D01*
X149187016Y-90917339D02*
X149234635Y-90964958D01*
X147948921Y-90822101D02*
X147948921Y-90155434D01*
X147948921Y-90250672D02*
X147901302Y-90203053D01*
X147901302Y-90203053D02*
X147806064Y-90155434D01*
X147806064Y-90155434D02*
X147663207Y-90155434D01*
X147663207Y-90155434D02*
X147567969Y-90203053D01*
X147567969Y-90203053D02*
X147520350Y-90298291D01*
X147520350Y-90298291D02*
X147520350Y-90822101D01*
X147520350Y-90298291D02*
X147472731Y-90203053D01*
X147472731Y-90203053D02*
X147377493Y-90155434D01*
X147377493Y-90155434D02*
X147234636Y-90155434D01*
X147234636Y-90155434D02*
X147139397Y-90203053D01*
X147139397Y-90203053D02*
X147091778Y-90298291D01*
X147091778Y-90298291D02*
X147091778Y-90822101D01*
X146472731Y-90822101D02*
X146567969Y-90774482D01*
X146567969Y-90774482D02*
X146615588Y-90726862D01*
X146615588Y-90726862D02*
X146663207Y-90631624D01*
X146663207Y-90631624D02*
X146663207Y-90345910D01*
X146663207Y-90345910D02*
X146615588Y-90250672D01*
X146615588Y-90250672D02*
X146567969Y-90203053D01*
X146567969Y-90203053D02*
X146472731Y-90155434D01*
X146472731Y-90155434D02*
X146329874Y-90155434D01*
X146329874Y-90155434D02*
X146234636Y-90203053D01*
X146234636Y-90203053D02*
X146187017Y-90250672D01*
X146187017Y-90250672D02*
X146139398Y-90345910D01*
X146139398Y-90345910D02*
X146139398Y-90631624D01*
X146139398Y-90631624D02*
X146187017Y-90726862D01*
X146187017Y-90726862D02*
X146234636Y-90774482D01*
X146234636Y-90774482D02*
X146329874Y-90822101D01*
X146329874Y-90822101D02*
X146472731Y-90822101D01*
X145853683Y-90155434D02*
X145472731Y-90155434D01*
X145710826Y-89822101D02*
X145710826Y-90679243D01*
X145710826Y-90679243D02*
X145663207Y-90774482D01*
X145663207Y-90774482D02*
X145567969Y-90822101D01*
X145567969Y-90822101D02*
X145472731Y-90822101D01*
X145139397Y-90822101D02*
X145139397Y-90155434D01*
X145139397Y-89822101D02*
X145187016Y-89869720D01*
X145187016Y-89869720D02*
X145139397Y-89917339D01*
X145139397Y-89917339D02*
X145091778Y-89869720D01*
X145091778Y-89869720D02*
X145139397Y-89822101D01*
X145139397Y-89822101D02*
X145139397Y-89917339D01*
X144758445Y-90155434D02*
X144520350Y-90822101D01*
X144520350Y-90822101D02*
X144282255Y-90155434D01*
X143472731Y-90822101D02*
X143472731Y-90298291D01*
X143472731Y-90298291D02*
X143520350Y-90203053D01*
X143520350Y-90203053D02*
X143615588Y-90155434D01*
X143615588Y-90155434D02*
X143806064Y-90155434D01*
X143806064Y-90155434D02*
X143901302Y-90203053D01*
X143472731Y-90774482D02*
X143567969Y-90822101D01*
X143567969Y-90822101D02*
X143806064Y-90822101D01*
X143806064Y-90822101D02*
X143901302Y-90774482D01*
X143901302Y-90774482D02*
X143948921Y-90679243D01*
X143948921Y-90679243D02*
X143948921Y-90584005D01*
X143948921Y-90584005D02*
X143901302Y-90488767D01*
X143901302Y-90488767D02*
X143806064Y-90441148D01*
X143806064Y-90441148D02*
X143567969Y-90441148D01*
X143567969Y-90441148D02*
X143472731Y-90393529D01*
X143139397Y-90155434D02*
X142758445Y-90155434D01*
X142996540Y-89822101D02*
X142996540Y-90679243D01*
X142996540Y-90679243D02*
X142948921Y-90774482D01*
X142948921Y-90774482D02*
X142853683Y-90822101D01*
X142853683Y-90822101D02*
X142758445Y-90822101D01*
X142425111Y-90822101D02*
X142425111Y-90155434D01*
X142425111Y-89822101D02*
X142472730Y-89869720D01*
X142472730Y-89869720D02*
X142425111Y-89917339D01*
X142425111Y-89917339D02*
X142377492Y-89869720D01*
X142377492Y-89869720D02*
X142425111Y-89822101D01*
X142425111Y-89822101D02*
X142425111Y-89917339D01*
X141806064Y-90822101D02*
X141901302Y-90774482D01*
X141901302Y-90774482D02*
X141948921Y-90726862D01*
X141948921Y-90726862D02*
X141996540Y-90631624D01*
X141996540Y-90631624D02*
X141996540Y-90345910D01*
X141996540Y-90345910D02*
X141948921Y-90250672D01*
X141948921Y-90250672D02*
X141901302Y-90203053D01*
X141901302Y-90203053D02*
X141806064Y-90155434D01*
X141806064Y-90155434D02*
X141663207Y-90155434D01*
X141663207Y-90155434D02*
X141567969Y-90203053D01*
X141567969Y-90203053D02*
X141520350Y-90250672D01*
X141520350Y-90250672D02*
X141472731Y-90345910D01*
X141472731Y-90345910D02*
X141472731Y-90631624D01*
X141472731Y-90631624D02*
X141520350Y-90726862D01*
X141520350Y-90726862D02*
X141567969Y-90774482D01*
X141567969Y-90774482D02*
X141663207Y-90822101D01*
X141663207Y-90822101D02*
X141806064Y-90822101D01*
X141044159Y-90155434D02*
X141044159Y-90822101D01*
X141044159Y-90250672D02*
X140996540Y-90203053D01*
X140996540Y-90203053D02*
X140901302Y-90155434D01*
X140901302Y-90155434D02*
X140758445Y-90155434D01*
X140758445Y-90155434D02*
X140663207Y-90203053D01*
X140663207Y-90203053D02*
X140615588Y-90298291D01*
X140615588Y-90298291D02*
X140615588Y-90822101D01*
X138948921Y-90822101D02*
X138948921Y-90298291D01*
X138948921Y-90298291D02*
X138996540Y-90203053D01*
X138996540Y-90203053D02*
X139091778Y-90155434D01*
X139091778Y-90155434D02*
X139282254Y-90155434D01*
X139282254Y-90155434D02*
X139377492Y-90203053D01*
X138948921Y-90774482D02*
X139044159Y-90822101D01*
X139044159Y-90822101D02*
X139282254Y-90822101D01*
X139282254Y-90822101D02*
X139377492Y-90774482D01*
X139377492Y-90774482D02*
X139425111Y-90679243D01*
X139425111Y-90679243D02*
X139425111Y-90584005D01*
X139425111Y-90584005D02*
X139377492Y-90488767D01*
X139377492Y-90488767D02*
X139282254Y-90441148D01*
X139282254Y-90441148D02*
X139044159Y-90441148D01*
X139044159Y-90441148D02*
X138948921Y-90393529D01*
X138472730Y-90155434D02*
X138472730Y-90822101D01*
X138472730Y-90250672D02*
X138425111Y-90203053D01*
X138425111Y-90203053D02*
X138329873Y-90155434D01*
X138329873Y-90155434D02*
X138187016Y-90155434D01*
X138187016Y-90155434D02*
X138091778Y-90203053D01*
X138091778Y-90203053D02*
X138044159Y-90298291D01*
X138044159Y-90298291D02*
X138044159Y-90822101D01*
X137139397Y-90822101D02*
X137139397Y-89822101D01*
X137139397Y-90774482D02*
X137234635Y-90822101D01*
X137234635Y-90822101D02*
X137425111Y-90822101D01*
X137425111Y-90822101D02*
X137520349Y-90774482D01*
X137520349Y-90774482D02*
X137567968Y-90726862D01*
X137567968Y-90726862D02*
X137615587Y-90631624D01*
X137615587Y-90631624D02*
X137615587Y-90345910D01*
X137615587Y-90345910D02*
X137567968Y-90250672D01*
X137567968Y-90250672D02*
X137520349Y-90203053D01*
X137520349Y-90203053D02*
X137425111Y-90155434D01*
X137425111Y-90155434D02*
X137234635Y-90155434D01*
X137234635Y-90155434D02*
X137139397Y-90203053D01*
X135901301Y-90155434D02*
X135901301Y-91012577D01*
X135901301Y-91012577D02*
X135948920Y-91107815D01*
X135948920Y-91107815D02*
X136044158Y-91155434D01*
X136044158Y-91155434D02*
X136091777Y-91155434D01*
X135901301Y-89822101D02*
X135948920Y-89869720D01*
X135948920Y-89869720D02*
X135901301Y-89917339D01*
X135901301Y-89917339D02*
X135853682Y-89869720D01*
X135853682Y-89869720D02*
X135901301Y-89822101D01*
X135901301Y-89822101D02*
X135901301Y-89917339D01*
X134996540Y-90155434D02*
X134996540Y-90822101D01*
X135425111Y-90155434D02*
X135425111Y-90679243D01*
X135425111Y-90679243D02*
X135377492Y-90774482D01*
X135377492Y-90774482D02*
X135282254Y-90822101D01*
X135282254Y-90822101D02*
X135139397Y-90822101D01*
X135139397Y-90822101D02*
X135044159Y-90774482D01*
X135044159Y-90774482D02*
X134996540Y-90726862D01*
X134567968Y-90774482D02*
X134472730Y-90822101D01*
X134472730Y-90822101D02*
X134282254Y-90822101D01*
X134282254Y-90822101D02*
X134187016Y-90774482D01*
X134187016Y-90774482D02*
X134139397Y-90679243D01*
X134139397Y-90679243D02*
X134139397Y-90631624D01*
X134139397Y-90631624D02*
X134187016Y-90536386D01*
X134187016Y-90536386D02*
X134282254Y-90488767D01*
X134282254Y-90488767D02*
X134425111Y-90488767D01*
X134425111Y-90488767D02*
X134520349Y-90441148D01*
X134520349Y-90441148D02*
X134567968Y-90345910D01*
X134567968Y-90345910D02*
X134567968Y-90298291D01*
X134567968Y-90298291D02*
X134520349Y-90203053D01*
X134520349Y-90203053D02*
X134425111Y-90155434D01*
X134425111Y-90155434D02*
X134282254Y-90155434D01*
X134282254Y-90155434D02*
X134187016Y-90203053D01*
X133853682Y-90155434D02*
X133472730Y-90155434D01*
X133710825Y-89822101D02*
X133710825Y-90679243D01*
X133710825Y-90679243D02*
X133663206Y-90774482D01*
X133663206Y-90774482D02*
X133567968Y-90822101D01*
X133567968Y-90822101D02*
X133472730Y-90822101D01*
X132377491Y-90822101D02*
X132377491Y-89822101D01*
X132377491Y-90203053D02*
X132282253Y-90155434D01*
X132282253Y-90155434D02*
X132091777Y-90155434D01*
X132091777Y-90155434D02*
X131996539Y-90203053D01*
X131996539Y-90203053D02*
X131948920Y-90250672D01*
X131948920Y-90250672D02*
X131901301Y-90345910D01*
X131901301Y-90345910D02*
X131901301Y-90631624D01*
X131901301Y-90631624D02*
X131948920Y-90726862D01*
X131948920Y-90726862D02*
X131996539Y-90774482D01*
X131996539Y-90774482D02*
X132091777Y-90822101D01*
X132091777Y-90822101D02*
X132282253Y-90822101D01*
X132282253Y-90822101D02*
X132377491Y-90774482D01*
X131091777Y-90774482D02*
X131187015Y-90822101D01*
X131187015Y-90822101D02*
X131377491Y-90822101D01*
X131377491Y-90822101D02*
X131472729Y-90774482D01*
X131472729Y-90774482D02*
X131520348Y-90679243D01*
X131520348Y-90679243D02*
X131520348Y-90298291D01*
X131520348Y-90298291D02*
X131472729Y-90203053D01*
X131472729Y-90203053D02*
X131377491Y-90155434D01*
X131377491Y-90155434D02*
X131187015Y-90155434D01*
X131187015Y-90155434D02*
X131091777Y-90203053D01*
X131091777Y-90203053D02*
X131044158Y-90298291D01*
X131044158Y-90298291D02*
X131044158Y-90393529D01*
X131044158Y-90393529D02*
X131520348Y-90488767D01*
X130615586Y-90822101D02*
X130615586Y-90155434D01*
X130615586Y-89822101D02*
X130663205Y-89869720D01*
X130663205Y-89869720D02*
X130615586Y-89917339D01*
X130615586Y-89917339D02*
X130567967Y-89869720D01*
X130567967Y-89869720D02*
X130615586Y-89822101D01*
X130615586Y-89822101D02*
X130615586Y-89917339D01*
X130139396Y-90155434D02*
X130139396Y-90822101D01*
X130139396Y-90250672D02*
X130091777Y-90203053D01*
X130091777Y-90203053D02*
X129996539Y-90155434D01*
X129996539Y-90155434D02*
X129853682Y-90155434D01*
X129853682Y-90155434D02*
X129758444Y-90203053D01*
X129758444Y-90203053D02*
X129710825Y-90298291D01*
X129710825Y-90298291D02*
X129710825Y-90822101D01*
X128806063Y-90155434D02*
X128806063Y-90964958D01*
X128806063Y-90964958D02*
X128853682Y-91060196D01*
X128853682Y-91060196D02*
X128901301Y-91107815D01*
X128901301Y-91107815D02*
X128996539Y-91155434D01*
X128996539Y-91155434D02*
X129139396Y-91155434D01*
X129139396Y-91155434D02*
X129234634Y-91107815D01*
X128806063Y-90774482D02*
X128901301Y-90822101D01*
X128901301Y-90822101D02*
X129091777Y-90822101D01*
X129091777Y-90822101D02*
X129187015Y-90774482D01*
X129187015Y-90774482D02*
X129234634Y-90726862D01*
X129234634Y-90726862D02*
X129282253Y-90631624D01*
X129282253Y-90631624D02*
X129282253Y-90345910D01*
X129282253Y-90345910D02*
X129234634Y-90250672D01*
X129234634Y-90250672D02*
X129187015Y-90203053D01*
X129187015Y-90203053D02*
X129091777Y-90155434D01*
X129091777Y-90155434D02*
X128901301Y-90155434D01*
X128901301Y-90155434D02*
X128806063Y-90203053D01*
X127139396Y-90774482D02*
X127234634Y-90822101D01*
X127234634Y-90822101D02*
X127425110Y-90822101D01*
X127425110Y-90822101D02*
X127520348Y-90774482D01*
X127520348Y-90774482D02*
X127567967Y-90726862D01*
X127567967Y-90726862D02*
X127615586Y-90631624D01*
X127615586Y-90631624D02*
X127615586Y-90345910D01*
X127615586Y-90345910D02*
X127567967Y-90250672D01*
X127567967Y-90250672D02*
X127520348Y-90203053D01*
X127520348Y-90203053D02*
X127425110Y-90155434D01*
X127425110Y-90155434D02*
X127234634Y-90155434D01*
X127234634Y-90155434D02*
X127139396Y-90203053D01*
X126567967Y-90822101D02*
X126663205Y-90774482D01*
X126663205Y-90774482D02*
X126710824Y-90726862D01*
X126710824Y-90726862D02*
X126758443Y-90631624D01*
X126758443Y-90631624D02*
X126758443Y-90345910D01*
X126758443Y-90345910D02*
X126710824Y-90250672D01*
X126710824Y-90250672D02*
X126663205Y-90203053D01*
X126663205Y-90203053D02*
X126567967Y-90155434D01*
X126567967Y-90155434D02*
X126425110Y-90155434D01*
X126425110Y-90155434D02*
X126329872Y-90203053D01*
X126329872Y-90203053D02*
X126282253Y-90250672D01*
X126282253Y-90250672D02*
X126234634Y-90345910D01*
X126234634Y-90345910D02*
X126234634Y-90631624D01*
X126234634Y-90631624D02*
X126282253Y-90726862D01*
X126282253Y-90726862D02*
X126329872Y-90774482D01*
X126329872Y-90774482D02*
X126425110Y-90822101D01*
X126425110Y-90822101D02*
X126567967Y-90822101D01*
X125663205Y-90822101D02*
X125758443Y-90774482D01*
X125758443Y-90774482D02*
X125806062Y-90726862D01*
X125806062Y-90726862D02*
X125853681Y-90631624D01*
X125853681Y-90631624D02*
X125853681Y-90345910D01*
X125853681Y-90345910D02*
X125806062Y-90250672D01*
X125806062Y-90250672D02*
X125758443Y-90203053D01*
X125758443Y-90203053D02*
X125663205Y-90155434D01*
X125663205Y-90155434D02*
X125520348Y-90155434D01*
X125520348Y-90155434D02*
X125425110Y-90203053D01*
X125425110Y-90203053D02*
X125377491Y-90250672D01*
X125377491Y-90250672D02*
X125329872Y-90345910D01*
X125329872Y-90345910D02*
X125329872Y-90631624D01*
X125329872Y-90631624D02*
X125377491Y-90726862D01*
X125377491Y-90726862D02*
X125425110Y-90774482D01*
X125425110Y-90774482D02*
X125520348Y-90822101D01*
X125520348Y-90822101D02*
X125663205Y-90822101D01*
X124758443Y-90822101D02*
X124853681Y-90774482D01*
X124853681Y-90774482D02*
X124901300Y-90679243D01*
X124901300Y-90679243D02*
X124901300Y-89822101D01*
X124377490Y-90726862D02*
X124329871Y-90774482D01*
X124329871Y-90774482D02*
X124377490Y-90822101D01*
X124377490Y-90822101D02*
X124425109Y-90774482D01*
X124425109Y-90774482D02*
X124377490Y-90726862D01*
X124377490Y-90726862D02*
X124377490Y-90822101D01*
X124377490Y-90441148D02*
X124425109Y-89869720D01*
X124425109Y-89869720D02*
X124377490Y-89822101D01*
X124377490Y-89822101D02*
X124329871Y-89869720D01*
X124329871Y-89869720D02*
X124377490Y-90441148D01*
X124377490Y-90441148D02*
X124377490Y-89822101D01*
X129747170Y-99029643D02*
X129651932Y-99077262D01*
X129651932Y-99077262D02*
X129509075Y-99077262D01*
X129509075Y-99077262D02*
X129366218Y-99029643D01*
X129366218Y-99029643D02*
X129270980Y-98934405D01*
X129270980Y-98934405D02*
X129223361Y-98839167D01*
X129223361Y-98839167D02*
X129175742Y-98648691D01*
X129175742Y-98648691D02*
X129175742Y-98505834D01*
X129175742Y-98505834D02*
X129223361Y-98315358D01*
X129223361Y-98315358D02*
X129270980Y-98220120D01*
X129270980Y-98220120D02*
X129366218Y-98124882D01*
X129366218Y-98124882D02*
X129509075Y-98077262D01*
X129509075Y-98077262D02*
X129604313Y-98077262D01*
X129604313Y-98077262D02*
X129747170Y-98124882D01*
X129747170Y-98124882D02*
X129794789Y-98172501D01*
X129794789Y-98172501D02*
X129794789Y-98505834D01*
X129794789Y-98505834D02*
X129604313Y-98505834D01*
X130223361Y-98077262D02*
X130223361Y-99077262D01*
X130223361Y-99077262D02*
X130604313Y-99077262D01*
X130604313Y-99077262D02*
X130699551Y-99029643D01*
X130699551Y-99029643D02*
X130747170Y-98982024D01*
X130747170Y-98982024D02*
X130794789Y-98886786D01*
X130794789Y-98886786D02*
X130794789Y-98743929D01*
X130794789Y-98743929D02*
X130747170Y-98648691D01*
X130747170Y-98648691D02*
X130699551Y-98601072D01*
X130699551Y-98601072D02*
X130604313Y-98553453D01*
X130604313Y-98553453D02*
X130223361Y-98553453D01*
X131223361Y-98077262D02*
X131223361Y-99077262D01*
X131890027Y-99077262D02*
X132080503Y-99077262D01*
X132080503Y-99077262D02*
X132175741Y-99029643D01*
X132175741Y-99029643D02*
X132270979Y-98934405D01*
X132270979Y-98934405D02*
X132318598Y-98743929D01*
X132318598Y-98743929D02*
X132318598Y-98410596D01*
X132318598Y-98410596D02*
X132270979Y-98220120D01*
X132270979Y-98220120D02*
X132175741Y-98124882D01*
X132175741Y-98124882D02*
X132080503Y-98077262D01*
X132080503Y-98077262D02*
X131890027Y-98077262D01*
X131890027Y-98077262D02*
X131794789Y-98124882D01*
X131794789Y-98124882D02*
X131699551Y-98220120D01*
X131699551Y-98220120D02*
X131651932Y-98410596D01*
X131651932Y-98410596D02*
X131651932Y-98743929D01*
X131651932Y-98743929D02*
X131699551Y-98934405D01*
X131699551Y-98934405D02*
X131794789Y-99029643D01*
X131794789Y-99029643D02*
X131890027Y-99077262D01*
X132699551Y-98982024D02*
X132747170Y-99029643D01*
X132747170Y-99029643D02*
X132842408Y-99077262D01*
X132842408Y-99077262D02*
X133080503Y-99077262D01*
X133080503Y-99077262D02*
X133175741Y-99029643D01*
X133175741Y-99029643D02*
X133223360Y-98982024D01*
X133223360Y-98982024D02*
X133270979Y-98886786D01*
X133270979Y-98886786D02*
X133270979Y-98791548D01*
X133270979Y-98791548D02*
X133223360Y-98648691D01*
X133223360Y-98648691D02*
X132651932Y-98077262D01*
X132651932Y-98077262D02*
X133270979Y-98077262D01*
X134175741Y-99077262D02*
X133699551Y-99077262D01*
X133699551Y-99077262D02*
X133651932Y-98601072D01*
X133651932Y-98601072D02*
X133699551Y-98648691D01*
X133699551Y-98648691D02*
X133794789Y-98696310D01*
X133794789Y-98696310D02*
X134032884Y-98696310D01*
X134032884Y-98696310D02*
X134128122Y-98648691D01*
X134128122Y-98648691D02*
X134175741Y-98601072D01*
X134175741Y-98601072D02*
X134223360Y-98505834D01*
X134223360Y-98505834D02*
X134223360Y-98267739D01*
X134223360Y-98267739D02*
X134175741Y-98172501D01*
X134175741Y-98172501D02*
X134128122Y-98124882D01*
X134128122Y-98124882D02*
X134032884Y-98077262D01*
X134032884Y-98077262D02*
X133794789Y-98077262D01*
X133794789Y-98077262D02*
X133699551Y-98124882D01*
X133699551Y-98124882D02*
X133651932Y-98172501D01*
X136187021Y-129322101D02*
X136187021Y-128322101D01*
X136187021Y-129274482D02*
X136282259Y-129322101D01*
X136282259Y-129322101D02*
X136472735Y-129322101D01*
X136472735Y-129322101D02*
X136567973Y-129274482D01*
X136567973Y-129274482D02*
X136615592Y-129226862D01*
X136615592Y-129226862D02*
X136663211Y-129131624D01*
X136663211Y-129131624D02*
X136663211Y-128845910D01*
X136663211Y-128845910D02*
X136615592Y-128750672D01*
X136615592Y-128750672D02*
X136567973Y-128703053D01*
X136567973Y-128703053D02*
X136472735Y-128655434D01*
X136472735Y-128655434D02*
X136282259Y-128655434D01*
X136282259Y-128655434D02*
X136187021Y-128703053D01*
X135710830Y-129322101D02*
X135710830Y-128655434D01*
X135710830Y-128845910D02*
X135663211Y-128750672D01*
X135663211Y-128750672D02*
X135615592Y-128703053D01*
X135615592Y-128703053D02*
X135520354Y-128655434D01*
X135520354Y-128655434D02*
X135425116Y-128655434D01*
X135091782Y-129322101D02*
X135091782Y-128655434D01*
X135091782Y-128322101D02*
X135139401Y-128369720D01*
X135139401Y-128369720D02*
X135091782Y-128417339D01*
X135091782Y-128417339D02*
X135044163Y-128369720D01*
X135044163Y-128369720D02*
X135091782Y-128322101D01*
X135091782Y-128322101D02*
X135091782Y-128417339D01*
X134187021Y-128655434D02*
X134187021Y-129464958D01*
X134187021Y-129464958D02*
X134234640Y-129560196D01*
X134234640Y-129560196D02*
X134282259Y-129607815D01*
X134282259Y-129607815D02*
X134377497Y-129655434D01*
X134377497Y-129655434D02*
X134520354Y-129655434D01*
X134520354Y-129655434D02*
X134615592Y-129607815D01*
X134187021Y-129274482D02*
X134282259Y-129322101D01*
X134282259Y-129322101D02*
X134472735Y-129322101D01*
X134472735Y-129322101D02*
X134567973Y-129274482D01*
X134567973Y-129274482D02*
X134615592Y-129226862D01*
X134615592Y-129226862D02*
X134663211Y-129131624D01*
X134663211Y-129131624D02*
X134663211Y-128845910D01*
X134663211Y-128845910D02*
X134615592Y-128750672D01*
X134615592Y-128750672D02*
X134567973Y-128703053D01*
X134567973Y-128703053D02*
X134472735Y-128655434D01*
X134472735Y-128655434D02*
X134282259Y-128655434D01*
X134282259Y-128655434D02*
X134187021Y-128703053D01*
X133710830Y-129322101D02*
X133710830Y-128322101D01*
X133282259Y-129322101D02*
X133282259Y-128798291D01*
X133282259Y-128798291D02*
X133329878Y-128703053D01*
X133329878Y-128703053D02*
X133425116Y-128655434D01*
X133425116Y-128655434D02*
X133567973Y-128655434D01*
X133567973Y-128655434D02*
X133663211Y-128703053D01*
X133663211Y-128703053D02*
X133710830Y-128750672D01*
X132948925Y-128655434D02*
X132567973Y-128655434D01*
X132806068Y-128322101D02*
X132806068Y-129179243D01*
X132806068Y-129179243D02*
X132758449Y-129274482D01*
X132758449Y-129274482D02*
X132663211Y-129322101D01*
X132663211Y-129322101D02*
X132567973Y-129322101D01*
X134591783Y-102369720D02*
X134687021Y-102322101D01*
X134687021Y-102322101D02*
X134829878Y-102322101D01*
X134829878Y-102322101D02*
X134972735Y-102369720D01*
X134972735Y-102369720D02*
X135067973Y-102464958D01*
X135067973Y-102464958D02*
X135115592Y-102560196D01*
X135115592Y-102560196D02*
X135163211Y-102750672D01*
X135163211Y-102750672D02*
X135163211Y-102893529D01*
X135163211Y-102893529D02*
X135115592Y-103084005D01*
X135115592Y-103084005D02*
X135067973Y-103179243D01*
X135067973Y-103179243D02*
X134972735Y-103274482D01*
X134972735Y-103274482D02*
X134829878Y-103322101D01*
X134829878Y-103322101D02*
X134734640Y-103322101D01*
X134734640Y-103322101D02*
X134591783Y-103274482D01*
X134591783Y-103274482D02*
X134544164Y-103226862D01*
X134544164Y-103226862D02*
X134544164Y-102893529D01*
X134544164Y-102893529D02*
X134734640Y-102893529D01*
X134115592Y-103322101D02*
X134115592Y-102322101D01*
X134115592Y-102322101D02*
X133734640Y-102322101D01*
X133734640Y-102322101D02*
X133639402Y-102369720D01*
X133639402Y-102369720D02*
X133591783Y-102417339D01*
X133591783Y-102417339D02*
X133544164Y-102512577D01*
X133544164Y-102512577D02*
X133544164Y-102655434D01*
X133544164Y-102655434D02*
X133591783Y-102750672D01*
X133591783Y-102750672D02*
X133639402Y-102798291D01*
X133639402Y-102798291D02*
X133734640Y-102845910D01*
X133734640Y-102845910D02*
X134115592Y-102845910D01*
X133115592Y-103322101D02*
X133115592Y-102322101D01*
X132448926Y-102322101D02*
X132258450Y-102322101D01*
X132258450Y-102322101D02*
X132163212Y-102369720D01*
X132163212Y-102369720D02*
X132067974Y-102464958D01*
X132067974Y-102464958D02*
X132020355Y-102655434D01*
X132020355Y-102655434D02*
X132020355Y-102988767D01*
X132020355Y-102988767D02*
X132067974Y-103179243D01*
X132067974Y-103179243D02*
X132163212Y-103274482D01*
X132163212Y-103274482D02*
X132258450Y-103322101D01*
X132258450Y-103322101D02*
X132448926Y-103322101D01*
X132448926Y-103322101D02*
X132544164Y-103274482D01*
X132544164Y-103274482D02*
X132639402Y-103179243D01*
X132639402Y-103179243D02*
X132687021Y-102988767D01*
X132687021Y-102988767D02*
X132687021Y-102655434D01*
X132687021Y-102655434D02*
X132639402Y-102464958D01*
X132639402Y-102464958D02*
X132544164Y-102369720D01*
X132544164Y-102369720D02*
X132448926Y-102322101D01*
X131639402Y-102417339D02*
X131591783Y-102369720D01*
X131591783Y-102369720D02*
X131496545Y-102322101D01*
X131496545Y-102322101D02*
X131258450Y-102322101D01*
X131258450Y-102322101D02*
X131163212Y-102369720D01*
X131163212Y-102369720D02*
X131115593Y-102417339D01*
X131115593Y-102417339D02*
X131067974Y-102512577D01*
X131067974Y-102512577D02*
X131067974Y-102607815D01*
X131067974Y-102607815D02*
X131115593Y-102750672D01*
X131115593Y-102750672D02*
X131687021Y-103322101D01*
X131687021Y-103322101D02*
X131067974Y-103322101D01*
X130734640Y-102322101D02*
X130067974Y-102322101D01*
X130067974Y-102322101D02*
X130496545Y-103322101D01*
X160710830Y-119655434D02*
X160472735Y-120322101D01*
X160472735Y-120322101D02*
X160234640Y-119655434D01*
X159710830Y-120322101D02*
X159806068Y-120274482D01*
X159806068Y-120274482D02*
X159853687Y-120226862D01*
X159853687Y-120226862D02*
X159901306Y-120131624D01*
X159901306Y-120131624D02*
X159901306Y-119845910D01*
X159901306Y-119845910D02*
X159853687Y-119750672D01*
X159853687Y-119750672D02*
X159806068Y-119703053D01*
X159806068Y-119703053D02*
X159710830Y-119655434D01*
X159710830Y-119655434D02*
X159567973Y-119655434D01*
X159567973Y-119655434D02*
X159472735Y-119703053D01*
X159472735Y-119703053D02*
X159425116Y-119750672D01*
X159425116Y-119750672D02*
X159377497Y-119845910D01*
X159377497Y-119845910D02*
X159377497Y-120131624D01*
X159377497Y-120131624D02*
X159425116Y-120226862D01*
X159425116Y-120226862D02*
X159472735Y-120274482D01*
X159472735Y-120274482D02*
X159567973Y-120322101D01*
X159567973Y-120322101D02*
X159710830Y-120322101D01*
X158806068Y-120322101D02*
X158901306Y-120274482D01*
X158901306Y-120274482D02*
X158948925Y-120179243D01*
X158948925Y-120179243D02*
X158948925Y-119322101D01*
X157234639Y-120322101D02*
X157234639Y-119322101D01*
X157234639Y-120274482D02*
X157329877Y-120322101D01*
X157329877Y-120322101D02*
X157520353Y-120322101D01*
X157520353Y-120322101D02*
X157615591Y-120274482D01*
X157615591Y-120274482D02*
X157663210Y-120226862D01*
X157663210Y-120226862D02*
X157710829Y-120131624D01*
X157710829Y-120131624D02*
X157710829Y-119845910D01*
X157710829Y-119845910D02*
X157663210Y-119750672D01*
X157663210Y-119750672D02*
X157615591Y-119703053D01*
X157615591Y-119703053D02*
X157520353Y-119655434D01*
X157520353Y-119655434D02*
X157329877Y-119655434D01*
X157329877Y-119655434D02*
X157234639Y-119703053D01*
X156615591Y-120322101D02*
X156710829Y-120274482D01*
X156710829Y-120274482D02*
X156758448Y-120226862D01*
X156758448Y-120226862D02*
X156806067Y-120131624D01*
X156806067Y-120131624D02*
X156806067Y-119845910D01*
X156806067Y-119845910D02*
X156758448Y-119750672D01*
X156758448Y-119750672D02*
X156710829Y-119703053D01*
X156710829Y-119703053D02*
X156615591Y-119655434D01*
X156615591Y-119655434D02*
X156472734Y-119655434D01*
X156472734Y-119655434D02*
X156377496Y-119703053D01*
X156377496Y-119703053D02*
X156329877Y-119750672D01*
X156329877Y-119750672D02*
X156282258Y-119845910D01*
X156282258Y-119845910D02*
X156282258Y-120131624D01*
X156282258Y-120131624D02*
X156329877Y-120226862D01*
X156329877Y-120226862D02*
X156377496Y-120274482D01*
X156377496Y-120274482D02*
X156472734Y-120322101D01*
X156472734Y-120322101D02*
X156615591Y-120322101D01*
X155948924Y-119655434D02*
X155758448Y-120322101D01*
X155758448Y-120322101D02*
X155567972Y-119845910D01*
X155567972Y-119845910D02*
X155377496Y-120322101D01*
X155377496Y-120322101D02*
X155187020Y-119655434D01*
X154806067Y-119655434D02*
X154806067Y-120322101D01*
X154806067Y-119750672D02*
X154758448Y-119703053D01*
X154758448Y-119703053D02*
X154663210Y-119655434D01*
X154663210Y-119655434D02*
X154520353Y-119655434D01*
X154520353Y-119655434D02*
X154425115Y-119703053D01*
X154425115Y-119703053D02*
X154377496Y-119798291D01*
X154377496Y-119798291D02*
X154377496Y-120322101D01*
X146687021Y-127774482D02*
X146782259Y-127822101D01*
X146782259Y-127822101D02*
X146972735Y-127822101D01*
X146972735Y-127822101D02*
X147067973Y-127774482D01*
X147067973Y-127774482D02*
X147115592Y-127726862D01*
X147115592Y-127726862D02*
X147163211Y-127631624D01*
X147163211Y-127631624D02*
X147163211Y-127345910D01*
X147163211Y-127345910D02*
X147115592Y-127250672D01*
X147115592Y-127250672D02*
X147067973Y-127203053D01*
X147067973Y-127203053D02*
X146972735Y-127155434D01*
X146972735Y-127155434D02*
X146782259Y-127155434D01*
X146782259Y-127155434D02*
X146687021Y-127203053D01*
X146258449Y-127822101D02*
X146258449Y-127155434D01*
X146258449Y-126822101D02*
X146306068Y-126869720D01*
X146306068Y-126869720D02*
X146258449Y-126917339D01*
X146258449Y-126917339D02*
X146210830Y-126869720D01*
X146210830Y-126869720D02*
X146258449Y-126822101D01*
X146258449Y-126822101D02*
X146258449Y-126917339D01*
X145782259Y-127822101D02*
X145782259Y-127155434D01*
X145782259Y-127345910D02*
X145734640Y-127250672D01*
X145734640Y-127250672D02*
X145687021Y-127203053D01*
X145687021Y-127203053D02*
X145591783Y-127155434D01*
X145591783Y-127155434D02*
X145496545Y-127155434D01*
X144734640Y-127774482D02*
X144829878Y-127822101D01*
X144829878Y-127822101D02*
X145020354Y-127822101D01*
X145020354Y-127822101D02*
X145115592Y-127774482D01*
X145115592Y-127774482D02*
X145163211Y-127726862D01*
X145163211Y-127726862D02*
X145210830Y-127631624D01*
X145210830Y-127631624D02*
X145210830Y-127345910D01*
X145210830Y-127345910D02*
X145163211Y-127250672D01*
X145163211Y-127250672D02*
X145115592Y-127203053D01*
X145115592Y-127203053D02*
X145020354Y-127155434D01*
X145020354Y-127155434D02*
X144829878Y-127155434D01*
X144829878Y-127155434D02*
X144734640Y-127203053D01*
X144163211Y-127822101D02*
X144258449Y-127774482D01*
X144258449Y-127774482D02*
X144306068Y-127679243D01*
X144306068Y-127679243D02*
X144306068Y-126822101D01*
X143401306Y-127774482D02*
X143496544Y-127822101D01*
X143496544Y-127822101D02*
X143687020Y-127822101D01*
X143687020Y-127822101D02*
X143782258Y-127774482D01*
X143782258Y-127774482D02*
X143829877Y-127679243D01*
X143829877Y-127679243D02*
X143829877Y-127298291D01*
X143829877Y-127298291D02*
X143782258Y-127203053D01*
X143782258Y-127203053D02*
X143687020Y-127155434D01*
X143687020Y-127155434D02*
X143496544Y-127155434D01*
X143496544Y-127155434D02*
X143401306Y-127203053D01*
X143401306Y-127203053D02*
X143353687Y-127298291D01*
X143353687Y-127298291D02*
X143353687Y-127393529D01*
X143353687Y-127393529D02*
X143829877Y-127488767D01*
X130187021Y-129322101D02*
X130187021Y-128322101D01*
X130187021Y-129274482D02*
X130282259Y-129322101D01*
X130282259Y-129322101D02*
X130472735Y-129322101D01*
X130472735Y-129322101D02*
X130567973Y-129274482D01*
X130567973Y-129274482D02*
X130615592Y-129226862D01*
X130615592Y-129226862D02*
X130663211Y-129131624D01*
X130663211Y-129131624D02*
X130663211Y-128845910D01*
X130663211Y-128845910D02*
X130615592Y-128750672D01*
X130615592Y-128750672D02*
X130567973Y-128703053D01*
X130567973Y-128703053D02*
X130472735Y-128655434D01*
X130472735Y-128655434D02*
X130282259Y-128655434D01*
X130282259Y-128655434D02*
X130187021Y-128703053D01*
X129567973Y-129322101D02*
X129663211Y-129274482D01*
X129663211Y-129274482D02*
X129710830Y-129179243D01*
X129710830Y-129179243D02*
X129710830Y-128322101D01*
X128806068Y-129274482D02*
X128901306Y-129322101D01*
X128901306Y-129322101D02*
X129091782Y-129322101D01*
X129091782Y-129322101D02*
X129187020Y-129274482D01*
X129187020Y-129274482D02*
X129234639Y-129179243D01*
X129234639Y-129179243D02*
X129234639Y-128798291D01*
X129234639Y-128798291D02*
X129187020Y-128703053D01*
X129187020Y-128703053D02*
X129091782Y-128655434D01*
X129091782Y-128655434D02*
X128901306Y-128655434D01*
X128901306Y-128655434D02*
X128806068Y-128703053D01*
X128806068Y-128703053D02*
X128758449Y-128798291D01*
X128758449Y-128798291D02*
X128758449Y-128893529D01*
X128758449Y-128893529D02*
X129234639Y-128988767D01*
X128472734Y-128655434D02*
X128091782Y-128655434D01*
X128329877Y-129322101D02*
X128329877Y-128464958D01*
X128329877Y-128464958D02*
X128282258Y-128369720D01*
X128282258Y-128369720D02*
X128187020Y-128322101D01*
X128187020Y-128322101D02*
X128091782Y-128322101D01*
X127901305Y-128655434D02*
X127520353Y-128655434D01*
X127758448Y-128322101D02*
X127758448Y-129179243D01*
X127758448Y-129179243D02*
X127710829Y-129274482D01*
X127710829Y-129274482D02*
X127615591Y-129322101D01*
X127615591Y-129322101D02*
X127520353Y-129322101D01*
X167744277Y-104705947D02*
X167791896Y-104801185D01*
X167791896Y-104801185D02*
X167791896Y-104991661D01*
X167791896Y-104991661D02*
X167744277Y-105086899D01*
X167744277Y-105086899D02*
X167649038Y-105134518D01*
X167649038Y-105134518D02*
X167601419Y-105134518D01*
X167601419Y-105134518D02*
X167506181Y-105086899D01*
X167506181Y-105086899D02*
X167458562Y-104991661D01*
X167458562Y-104991661D02*
X167458562Y-104848804D01*
X167458562Y-104848804D02*
X167410943Y-104753566D01*
X167410943Y-104753566D02*
X167315705Y-104705947D01*
X167315705Y-104705947D02*
X167268086Y-104705947D01*
X167268086Y-104705947D02*
X167172848Y-104753566D01*
X167172848Y-104753566D02*
X167125229Y-104848804D01*
X167125229Y-104848804D02*
X167125229Y-104991661D01*
X167125229Y-104991661D02*
X167172848Y-105086899D01*
X167744277Y-105944042D02*
X167791896Y-105848804D01*
X167791896Y-105848804D02*
X167791896Y-105658328D01*
X167791896Y-105658328D02*
X167744277Y-105563090D01*
X167744277Y-105563090D02*
X167649038Y-105515471D01*
X167649038Y-105515471D02*
X167268086Y-105515471D01*
X167268086Y-105515471D02*
X167172848Y-105563090D01*
X167172848Y-105563090D02*
X167125229Y-105658328D01*
X167125229Y-105658328D02*
X167125229Y-105848804D01*
X167125229Y-105848804D02*
X167172848Y-105944042D01*
X167172848Y-105944042D02*
X167268086Y-105991661D01*
X167268086Y-105991661D02*
X167363324Y-105991661D01*
X167363324Y-105991661D02*
X167458562Y-105515471D01*
X167791896Y-106563090D02*
X167744277Y-106467852D01*
X167744277Y-106467852D02*
X167649038Y-106420233D01*
X167649038Y-106420233D02*
X166791896Y-106420233D01*
X167744277Y-107324995D02*
X167791896Y-107229757D01*
X167791896Y-107229757D02*
X167791896Y-107039281D01*
X167791896Y-107039281D02*
X167744277Y-106944043D01*
X167744277Y-106944043D02*
X167649038Y-106896424D01*
X167649038Y-106896424D02*
X167268086Y-106896424D01*
X167268086Y-106896424D02*
X167172848Y-106944043D01*
X167172848Y-106944043D02*
X167125229Y-107039281D01*
X167125229Y-107039281D02*
X167125229Y-107229757D01*
X167125229Y-107229757D02*
X167172848Y-107324995D01*
X167172848Y-107324995D02*
X167268086Y-107372614D01*
X167268086Y-107372614D02*
X167363324Y-107372614D01*
X167363324Y-107372614D02*
X167458562Y-106896424D01*
X167744277Y-108229757D02*
X167791896Y-108134519D01*
X167791896Y-108134519D02*
X167791896Y-107944043D01*
X167791896Y-107944043D02*
X167744277Y-107848805D01*
X167744277Y-107848805D02*
X167696657Y-107801186D01*
X167696657Y-107801186D02*
X167601419Y-107753567D01*
X167601419Y-107753567D02*
X167315705Y-107753567D01*
X167315705Y-107753567D02*
X167220467Y-107801186D01*
X167220467Y-107801186D02*
X167172848Y-107848805D01*
X167172848Y-107848805D02*
X167125229Y-107944043D01*
X167125229Y-107944043D02*
X167125229Y-108134519D01*
X167125229Y-108134519D02*
X167172848Y-108229757D01*
X167125229Y-108515472D02*
X167125229Y-108896424D01*
X166791896Y-108658329D02*
X167649038Y-108658329D01*
X167649038Y-108658329D02*
X167744277Y-108705948D01*
X167744277Y-108705948D02*
X167791896Y-108801186D01*
X167791896Y-108801186D02*
X167791896Y-108896424D01*
X164244277Y-109205947D02*
X164291896Y-109301185D01*
X164291896Y-109301185D02*
X164291896Y-109491661D01*
X164291896Y-109491661D02*
X164244277Y-109586899D01*
X164244277Y-109586899D02*
X164149038Y-109634518D01*
X164149038Y-109634518D02*
X164101419Y-109634518D01*
X164101419Y-109634518D02*
X164006181Y-109586899D01*
X164006181Y-109586899D02*
X163958562Y-109491661D01*
X163958562Y-109491661D02*
X163958562Y-109348804D01*
X163958562Y-109348804D02*
X163910943Y-109253566D01*
X163910943Y-109253566D02*
X163815705Y-109205947D01*
X163815705Y-109205947D02*
X163768086Y-109205947D01*
X163768086Y-109205947D02*
X163672848Y-109253566D01*
X163672848Y-109253566D02*
X163625229Y-109348804D01*
X163625229Y-109348804D02*
X163625229Y-109491661D01*
X163625229Y-109491661D02*
X163672848Y-109586899D01*
X164291896Y-110205947D02*
X164244277Y-110110709D01*
X164244277Y-110110709D02*
X164196657Y-110063090D01*
X164196657Y-110063090D02*
X164101419Y-110015471D01*
X164101419Y-110015471D02*
X163815705Y-110015471D01*
X163815705Y-110015471D02*
X163720467Y-110063090D01*
X163720467Y-110063090D02*
X163672848Y-110110709D01*
X163672848Y-110110709D02*
X163625229Y-110205947D01*
X163625229Y-110205947D02*
X163625229Y-110348804D01*
X163625229Y-110348804D02*
X163672848Y-110444042D01*
X163672848Y-110444042D02*
X163720467Y-110491661D01*
X163720467Y-110491661D02*
X163815705Y-110539280D01*
X163815705Y-110539280D02*
X164101419Y-110539280D01*
X164101419Y-110539280D02*
X164196657Y-110491661D01*
X164196657Y-110491661D02*
X164244277Y-110444042D01*
X164244277Y-110444042D02*
X164291896Y-110348804D01*
X164291896Y-110348804D02*
X164291896Y-110205947D01*
X163625229Y-111396423D02*
X164291896Y-111396423D01*
X163625229Y-110967852D02*
X164149038Y-110967852D01*
X164149038Y-110967852D02*
X164244277Y-111015471D01*
X164244277Y-111015471D02*
X164291896Y-111110709D01*
X164291896Y-111110709D02*
X164291896Y-111253566D01*
X164291896Y-111253566D02*
X164244277Y-111348804D01*
X164244277Y-111348804D02*
X164196657Y-111396423D01*
X163625229Y-111872614D02*
X164291896Y-111872614D01*
X163720467Y-111872614D02*
X163672848Y-111920233D01*
X163672848Y-111920233D02*
X163625229Y-112015471D01*
X163625229Y-112015471D02*
X163625229Y-112158328D01*
X163625229Y-112158328D02*
X163672848Y-112253566D01*
X163672848Y-112253566D02*
X163768086Y-112301185D01*
X163768086Y-112301185D02*
X164291896Y-112301185D01*
X164291896Y-113205947D02*
X163291896Y-113205947D01*
X164244277Y-113205947D02*
X164291896Y-113110709D01*
X164291896Y-113110709D02*
X164291896Y-112920233D01*
X164291896Y-112920233D02*
X164244277Y-112824995D01*
X164244277Y-112824995D02*
X164196657Y-112777376D01*
X164196657Y-112777376D02*
X164101419Y-112729757D01*
X164101419Y-112729757D02*
X163815705Y-112729757D01*
X163815705Y-112729757D02*
X163720467Y-112777376D01*
X163720467Y-112777376D02*
X163672848Y-112824995D01*
X163672848Y-112824995D02*
X163625229Y-112920233D01*
X163625229Y-112920233D02*
X163625229Y-113110709D01*
X163625229Y-113110709D02*
X163672848Y-113205947D01*
X160615592Y-131712157D02*
X160615592Y-130712157D01*
X160615592Y-130712157D02*
X160234640Y-130712157D01*
X160234640Y-130712157D02*
X160139402Y-130759776D01*
X160139402Y-130759776D02*
X160091783Y-130807395D01*
X160091783Y-130807395D02*
X160044164Y-130902633D01*
X160044164Y-130902633D02*
X160044164Y-131045490D01*
X160044164Y-131045490D02*
X160091783Y-131140728D01*
X160091783Y-131140728D02*
X160139402Y-131188347D01*
X160139402Y-131188347D02*
X160234640Y-131235966D01*
X160234640Y-131235966D02*
X160615592Y-131235966D01*
X159663211Y-131664538D02*
X159520354Y-131712157D01*
X159520354Y-131712157D02*
X159282259Y-131712157D01*
X159282259Y-131712157D02*
X159187021Y-131664538D01*
X159187021Y-131664538D02*
X159139402Y-131616918D01*
X159139402Y-131616918D02*
X159091783Y-131521680D01*
X159091783Y-131521680D02*
X159091783Y-131426442D01*
X159091783Y-131426442D02*
X159139402Y-131331204D01*
X159139402Y-131331204D02*
X159187021Y-131283585D01*
X159187021Y-131283585D02*
X159282259Y-131235966D01*
X159282259Y-131235966D02*
X159472735Y-131188347D01*
X159472735Y-131188347D02*
X159567973Y-131140728D01*
X159567973Y-131140728D02*
X159615592Y-131093109D01*
X159615592Y-131093109D02*
X159663211Y-130997871D01*
X159663211Y-130997871D02*
X159663211Y-130902633D01*
X159663211Y-130902633D02*
X159615592Y-130807395D01*
X159615592Y-130807395D02*
X159567973Y-130759776D01*
X159567973Y-130759776D02*
X159472735Y-130712157D01*
X159472735Y-130712157D02*
X159234640Y-130712157D01*
X159234640Y-130712157D02*
X159091783Y-130759776D01*
X158663211Y-131712157D02*
X158663211Y-130712157D01*
X158663211Y-130712157D02*
X158282259Y-130712157D01*
X158282259Y-130712157D02*
X158187021Y-130759776D01*
X158187021Y-130759776D02*
X158139402Y-130807395D01*
X158139402Y-130807395D02*
X158091783Y-130902633D01*
X158091783Y-130902633D02*
X158091783Y-131045490D01*
X158091783Y-131045490D02*
X158139402Y-131140728D01*
X158139402Y-131140728D02*
X158187021Y-131188347D01*
X158187021Y-131188347D02*
X158282259Y-131235966D01*
X158282259Y-131235966D02*
X158663211Y-131235966D01*
X156567973Y-131188347D02*
X156425116Y-131235966D01*
X156425116Y-131235966D02*
X156377497Y-131283585D01*
X156377497Y-131283585D02*
X156329878Y-131378823D01*
X156329878Y-131378823D02*
X156329878Y-131521680D01*
X156329878Y-131521680D02*
X156377497Y-131616918D01*
X156377497Y-131616918D02*
X156425116Y-131664538D01*
X156425116Y-131664538D02*
X156520354Y-131712157D01*
X156520354Y-131712157D02*
X156901306Y-131712157D01*
X156901306Y-131712157D02*
X156901306Y-130712157D01*
X156901306Y-130712157D02*
X156567973Y-130712157D01*
X156567973Y-130712157D02*
X156472735Y-130759776D01*
X156472735Y-130759776D02*
X156425116Y-130807395D01*
X156425116Y-130807395D02*
X156377497Y-130902633D01*
X156377497Y-130902633D02*
X156377497Y-130997871D01*
X156377497Y-130997871D02*
X156425116Y-131093109D01*
X156425116Y-131093109D02*
X156472735Y-131140728D01*
X156472735Y-131140728D02*
X156567973Y-131188347D01*
X156567973Y-131188347D02*
X156901306Y-131188347D01*
X155758449Y-131712157D02*
X155853687Y-131664538D01*
X155853687Y-131664538D02*
X155901306Y-131569299D01*
X155901306Y-131569299D02*
X155901306Y-130712157D01*
X154948925Y-131045490D02*
X154948925Y-131712157D01*
X155377496Y-131045490D02*
X155377496Y-131569299D01*
X155377496Y-131569299D02*
X155329877Y-131664538D01*
X155329877Y-131664538D02*
X155234639Y-131712157D01*
X155234639Y-131712157D02*
X155091782Y-131712157D01*
X155091782Y-131712157D02*
X154996544Y-131664538D01*
X154996544Y-131664538D02*
X154948925Y-131616918D01*
X154091782Y-131664538D02*
X154187020Y-131712157D01*
X154187020Y-131712157D02*
X154377496Y-131712157D01*
X154377496Y-131712157D02*
X154472734Y-131664538D01*
X154472734Y-131664538D02*
X154520353Y-131569299D01*
X154520353Y-131569299D02*
X154520353Y-131188347D01*
X154520353Y-131188347D02*
X154472734Y-131093109D01*
X154472734Y-131093109D02*
X154377496Y-131045490D01*
X154377496Y-131045490D02*
X154187020Y-131045490D01*
X154187020Y-131045490D02*
X154091782Y-131093109D01*
X154091782Y-131093109D02*
X154044163Y-131188347D01*
X154044163Y-131188347D02*
X154044163Y-131283585D01*
X154044163Y-131283585D02*
X154520353Y-131378823D01*
X153758448Y-131045490D02*
X153377496Y-131045490D01*
X153615591Y-130712157D02*
X153615591Y-131569299D01*
X153615591Y-131569299D02*
X153567972Y-131664538D01*
X153567972Y-131664538D02*
X153472734Y-131712157D01*
X153472734Y-131712157D02*
X153377496Y-131712157D01*
X152901305Y-131712157D02*
X152996543Y-131664538D01*
X152996543Y-131664538D02*
X153044162Y-131616918D01*
X153044162Y-131616918D02*
X153091781Y-131521680D01*
X153091781Y-131521680D02*
X153091781Y-131235966D01*
X153091781Y-131235966D02*
X153044162Y-131140728D01*
X153044162Y-131140728D02*
X152996543Y-131093109D01*
X152996543Y-131093109D02*
X152901305Y-131045490D01*
X152901305Y-131045490D02*
X152758448Y-131045490D01*
X152758448Y-131045490D02*
X152663210Y-131093109D01*
X152663210Y-131093109D02*
X152615591Y-131140728D01*
X152615591Y-131140728D02*
X152567972Y-131235966D01*
X152567972Y-131235966D02*
X152567972Y-131521680D01*
X152567972Y-131521680D02*
X152615591Y-131616918D01*
X152615591Y-131616918D02*
X152663210Y-131664538D01*
X152663210Y-131664538D02*
X152758448Y-131712157D01*
X152758448Y-131712157D02*
X152901305Y-131712157D01*
X151996543Y-131712157D02*
X152091781Y-131664538D01*
X152091781Y-131664538D02*
X152139400Y-131616918D01*
X152139400Y-131616918D02*
X152187019Y-131521680D01*
X152187019Y-131521680D02*
X152187019Y-131235966D01*
X152187019Y-131235966D02*
X152139400Y-131140728D01*
X152139400Y-131140728D02*
X152091781Y-131093109D01*
X152091781Y-131093109D02*
X151996543Y-131045490D01*
X151996543Y-131045490D02*
X151853686Y-131045490D01*
X151853686Y-131045490D02*
X151758448Y-131093109D01*
X151758448Y-131093109D02*
X151710829Y-131140728D01*
X151710829Y-131140728D02*
X151663210Y-131235966D01*
X151663210Y-131235966D02*
X151663210Y-131521680D01*
X151663210Y-131521680D02*
X151710829Y-131616918D01*
X151710829Y-131616918D02*
X151758448Y-131664538D01*
X151758448Y-131664538D02*
X151853686Y-131712157D01*
X151853686Y-131712157D02*
X151996543Y-131712157D01*
X151377495Y-131045490D02*
X150996543Y-131045490D01*
X151234638Y-130712157D02*
X151234638Y-131569299D01*
X151234638Y-131569299D02*
X151187019Y-131664538D01*
X151187019Y-131664538D02*
X151091781Y-131712157D01*
X151091781Y-131712157D02*
X150996543Y-131712157D01*
X150663209Y-131712157D02*
X150663209Y-130712157D01*
X150234638Y-131712157D02*
X150234638Y-131188347D01*
X150234638Y-131188347D02*
X150282257Y-131093109D01*
X150282257Y-131093109D02*
X150377495Y-131045490D01*
X150377495Y-131045490D02*
X150520352Y-131045490D01*
X150520352Y-131045490D02*
X150615590Y-131093109D01*
X150615590Y-131093109D02*
X150663209Y-131140728D01*
X160615592Y-133322101D02*
X160615592Y-132322101D01*
X160187021Y-133322101D02*
X160187021Y-132798291D01*
X160187021Y-132798291D02*
X160234640Y-132703053D01*
X160234640Y-132703053D02*
X160329878Y-132655434D01*
X160329878Y-132655434D02*
X160472735Y-132655434D01*
X160472735Y-132655434D02*
X160567973Y-132703053D01*
X160567973Y-132703053D02*
X160615592Y-132750672D01*
X159853687Y-132655434D02*
X159472735Y-132655434D01*
X159710830Y-132322101D02*
X159710830Y-133179243D01*
X159710830Y-133179243D02*
X159663211Y-133274482D01*
X159663211Y-133274482D02*
X159567973Y-133322101D01*
X159567973Y-133322101D02*
X159472735Y-133322101D01*
X159282258Y-132655434D02*
X158901306Y-132655434D01*
X159139401Y-132322101D02*
X159139401Y-133179243D01*
X159139401Y-133179243D02*
X159091782Y-133274482D01*
X159091782Y-133274482D02*
X158996544Y-133322101D01*
X158996544Y-133322101D02*
X158901306Y-133322101D01*
X158567972Y-132655434D02*
X158567972Y-133655434D01*
X158567972Y-132703053D02*
X158472734Y-132655434D01*
X158472734Y-132655434D02*
X158282258Y-132655434D01*
X158282258Y-132655434D02*
X158187020Y-132703053D01*
X158187020Y-132703053D02*
X158139401Y-132750672D01*
X158139401Y-132750672D02*
X158091782Y-132845910D01*
X158091782Y-132845910D02*
X158091782Y-133131624D01*
X158091782Y-133131624D02*
X158139401Y-133226862D01*
X158139401Y-133226862D02*
X158187020Y-133274482D01*
X158187020Y-133274482D02*
X158282258Y-133322101D01*
X158282258Y-133322101D02*
X158472734Y-133322101D01*
X158472734Y-133322101D02*
X158567972Y-133274482D01*
X157710829Y-133274482D02*
X157615591Y-133322101D01*
X157615591Y-133322101D02*
X157425115Y-133322101D01*
X157425115Y-133322101D02*
X157329877Y-133274482D01*
X157329877Y-133274482D02*
X157282258Y-133179243D01*
X157282258Y-133179243D02*
X157282258Y-133131624D01*
X157282258Y-133131624D02*
X157329877Y-133036386D01*
X157329877Y-133036386D02*
X157425115Y-132988767D01*
X157425115Y-132988767D02*
X157567972Y-132988767D01*
X157567972Y-132988767D02*
X157663210Y-132941148D01*
X157663210Y-132941148D02*
X157710829Y-132845910D01*
X157710829Y-132845910D02*
X157710829Y-132798291D01*
X157710829Y-132798291D02*
X157663210Y-132703053D01*
X157663210Y-132703053D02*
X157567972Y-132655434D01*
X157567972Y-132655434D02*
X157425115Y-132655434D01*
X157425115Y-132655434D02*
X157329877Y-132703053D01*
X156853686Y-133226862D02*
X156806067Y-133274482D01*
X156806067Y-133274482D02*
X156853686Y-133322101D01*
X156853686Y-133322101D02*
X156901305Y-133274482D01*
X156901305Y-133274482D02*
X156853686Y-133226862D01*
X156853686Y-133226862D02*
X156853686Y-133322101D01*
X156853686Y-132703053D02*
X156806067Y-132750672D01*
X156806067Y-132750672D02*
X156853686Y-132798291D01*
X156853686Y-132798291D02*
X156901305Y-132750672D01*
X156901305Y-132750672D02*
X156853686Y-132703053D01*
X156853686Y-132703053D02*
X156853686Y-132798291D01*
X155663211Y-132274482D02*
X156520353Y-133560196D01*
X154615592Y-132274482D02*
X155472734Y-133560196D01*
X153853687Y-132655434D02*
X153853687Y-133464958D01*
X153853687Y-133464958D02*
X153901306Y-133560196D01*
X153901306Y-133560196D02*
X153948925Y-133607815D01*
X153948925Y-133607815D02*
X154044163Y-133655434D01*
X154044163Y-133655434D02*
X154187020Y-133655434D01*
X154187020Y-133655434D02*
X154282258Y-133607815D01*
X153853687Y-133274482D02*
X153948925Y-133322101D01*
X153948925Y-133322101D02*
X154139401Y-133322101D01*
X154139401Y-133322101D02*
X154234639Y-133274482D01*
X154234639Y-133274482D02*
X154282258Y-133226862D01*
X154282258Y-133226862D02*
X154329877Y-133131624D01*
X154329877Y-133131624D02*
X154329877Y-132845910D01*
X154329877Y-132845910D02*
X154282258Y-132750672D01*
X154282258Y-132750672D02*
X154234639Y-132703053D01*
X154234639Y-132703053D02*
X154139401Y-132655434D01*
X154139401Y-132655434D02*
X153948925Y-132655434D01*
X153948925Y-132655434D02*
X153853687Y-132703053D01*
X153377496Y-133322101D02*
X153377496Y-132655434D01*
X153377496Y-132322101D02*
X153425115Y-132369720D01*
X153425115Y-132369720D02*
X153377496Y-132417339D01*
X153377496Y-132417339D02*
X153329877Y-132369720D01*
X153329877Y-132369720D02*
X153377496Y-132322101D01*
X153377496Y-132322101D02*
X153377496Y-132417339D01*
X153044163Y-132655434D02*
X152663211Y-132655434D01*
X152901306Y-132322101D02*
X152901306Y-133179243D01*
X152901306Y-133179243D02*
X152853687Y-133274482D01*
X152853687Y-133274482D02*
X152758449Y-133322101D01*
X152758449Y-133322101D02*
X152663211Y-133322101D01*
X152329877Y-133322101D02*
X152329877Y-132322101D01*
X151901306Y-133322101D02*
X151901306Y-132798291D01*
X151901306Y-132798291D02*
X151948925Y-132703053D01*
X151948925Y-132703053D02*
X152044163Y-132655434D01*
X152044163Y-132655434D02*
X152187020Y-132655434D01*
X152187020Y-132655434D02*
X152282258Y-132703053D01*
X152282258Y-132703053D02*
X152329877Y-132750672D01*
X150996544Y-132655434D02*
X150996544Y-133322101D01*
X151425115Y-132655434D02*
X151425115Y-133179243D01*
X151425115Y-133179243D02*
X151377496Y-133274482D01*
X151377496Y-133274482D02*
X151282258Y-133322101D01*
X151282258Y-133322101D02*
X151139401Y-133322101D01*
X151139401Y-133322101D02*
X151044163Y-133274482D01*
X151044163Y-133274482D02*
X150996544Y-133226862D01*
X150520353Y-133322101D02*
X150520353Y-132322101D01*
X150520353Y-132703053D02*
X150425115Y-132655434D01*
X150425115Y-132655434D02*
X150234639Y-132655434D01*
X150234639Y-132655434D02*
X150139401Y-132703053D01*
X150139401Y-132703053D02*
X150091782Y-132750672D01*
X150091782Y-132750672D02*
X150044163Y-132845910D01*
X150044163Y-132845910D02*
X150044163Y-133131624D01*
X150044163Y-133131624D02*
X150091782Y-133226862D01*
X150091782Y-133226862D02*
X150139401Y-133274482D01*
X150139401Y-133274482D02*
X150234639Y-133322101D01*
X150234639Y-133322101D02*
X150425115Y-133322101D01*
X150425115Y-133322101D02*
X150520353Y-133274482D01*
X149615591Y-133226862D02*
X149567972Y-133274482D01*
X149567972Y-133274482D02*
X149615591Y-133322101D01*
X149615591Y-133322101D02*
X149663210Y-133274482D01*
X149663210Y-133274482D02*
X149615591Y-133226862D01*
X149615591Y-133226862D02*
X149615591Y-133322101D01*
X148710830Y-133274482D02*
X148806068Y-133322101D01*
X148806068Y-133322101D02*
X148996544Y-133322101D01*
X148996544Y-133322101D02*
X149091782Y-133274482D01*
X149091782Y-133274482D02*
X149139401Y-133226862D01*
X149139401Y-133226862D02*
X149187020Y-133131624D01*
X149187020Y-133131624D02*
X149187020Y-132845910D01*
X149187020Y-132845910D02*
X149139401Y-132750672D01*
X149139401Y-132750672D02*
X149091782Y-132703053D01*
X149091782Y-132703053D02*
X148996544Y-132655434D01*
X148996544Y-132655434D02*
X148806068Y-132655434D01*
X148806068Y-132655434D02*
X148710830Y-132703053D01*
X148139401Y-133322101D02*
X148234639Y-133274482D01*
X148234639Y-133274482D02*
X148282258Y-133226862D01*
X148282258Y-133226862D02*
X148329877Y-133131624D01*
X148329877Y-133131624D02*
X148329877Y-132845910D01*
X148329877Y-132845910D02*
X148282258Y-132750672D01*
X148282258Y-132750672D02*
X148234639Y-132703053D01*
X148234639Y-132703053D02*
X148139401Y-132655434D01*
X148139401Y-132655434D02*
X147996544Y-132655434D01*
X147996544Y-132655434D02*
X147901306Y-132703053D01*
X147901306Y-132703053D02*
X147853687Y-132750672D01*
X147853687Y-132750672D02*
X147806068Y-132845910D01*
X147806068Y-132845910D02*
X147806068Y-133131624D01*
X147806068Y-133131624D02*
X147853687Y-133226862D01*
X147853687Y-133226862D02*
X147901306Y-133274482D01*
X147901306Y-133274482D02*
X147996544Y-133322101D01*
X147996544Y-133322101D02*
X148139401Y-133322101D01*
X147377496Y-133322101D02*
X147377496Y-132655434D01*
X147377496Y-132750672D02*
X147329877Y-132703053D01*
X147329877Y-132703053D02*
X147234639Y-132655434D01*
X147234639Y-132655434D02*
X147091782Y-132655434D01*
X147091782Y-132655434D02*
X146996544Y-132703053D01*
X146996544Y-132703053D02*
X146948925Y-132798291D01*
X146948925Y-132798291D02*
X146948925Y-133322101D01*
X146948925Y-132798291D02*
X146901306Y-132703053D01*
X146901306Y-132703053D02*
X146806068Y-132655434D01*
X146806068Y-132655434D02*
X146663211Y-132655434D01*
X146663211Y-132655434D02*
X146567972Y-132703053D01*
X146567972Y-132703053D02*
X146520353Y-132798291D01*
X146520353Y-132798291D02*
X146520353Y-133322101D01*
X145329878Y-132274482D02*
X146187020Y-133560196D01*
X145044163Y-133274482D02*
X144948925Y-133322101D01*
X144948925Y-133322101D02*
X144758449Y-133322101D01*
X144758449Y-133322101D02*
X144663211Y-133274482D01*
X144663211Y-133274482D02*
X144615592Y-133179243D01*
X144615592Y-133179243D02*
X144615592Y-133131624D01*
X144615592Y-133131624D02*
X144663211Y-133036386D01*
X144663211Y-133036386D02*
X144758449Y-132988767D01*
X144758449Y-132988767D02*
X144901306Y-132988767D01*
X144901306Y-132988767D02*
X144996544Y-132941148D01*
X144996544Y-132941148D02*
X145044163Y-132845910D01*
X145044163Y-132845910D02*
X145044163Y-132798291D01*
X145044163Y-132798291D02*
X144996544Y-132703053D01*
X144996544Y-132703053D02*
X144901306Y-132655434D01*
X144901306Y-132655434D02*
X144758449Y-132655434D01*
X144758449Y-132655434D02*
X144663211Y-132703053D01*
X144329877Y-132655434D02*
X143948925Y-132655434D01*
X144187020Y-132322101D02*
X144187020Y-133179243D01*
X144187020Y-133179243D02*
X144139401Y-133274482D01*
X144139401Y-133274482D02*
X144044163Y-133322101D01*
X144044163Y-133322101D02*
X143948925Y-133322101D01*
X143234639Y-133274482D02*
X143329877Y-133322101D01*
X143329877Y-133322101D02*
X143520353Y-133322101D01*
X143520353Y-133322101D02*
X143615591Y-133274482D01*
X143615591Y-133274482D02*
X143663210Y-133179243D01*
X143663210Y-133179243D02*
X143663210Y-132798291D01*
X143663210Y-132798291D02*
X143615591Y-132703053D01*
X143615591Y-132703053D02*
X143520353Y-132655434D01*
X143520353Y-132655434D02*
X143329877Y-132655434D01*
X143329877Y-132655434D02*
X143234639Y-132703053D01*
X143234639Y-132703053D02*
X143187020Y-132798291D01*
X143187020Y-132798291D02*
X143187020Y-132893529D01*
X143187020Y-132893529D02*
X143663210Y-132988767D01*
X142806067Y-132417339D02*
X142758448Y-132369720D01*
X142758448Y-132369720D02*
X142663210Y-132322101D01*
X142663210Y-132322101D02*
X142425115Y-132322101D01*
X142425115Y-132322101D02*
X142329877Y-132369720D01*
X142329877Y-132369720D02*
X142282258Y-132417339D01*
X142282258Y-132417339D02*
X142234639Y-132512577D01*
X142234639Y-132512577D02*
X142234639Y-132607815D01*
X142234639Y-132607815D02*
X142282258Y-132750672D01*
X142282258Y-132750672D02*
X142853686Y-133322101D01*
X142853686Y-133322101D02*
X142234639Y-133322101D01*
X141377496Y-132655434D02*
X141377496Y-133322101D01*
X141615591Y-132274482D02*
X141853686Y-132988767D01*
X141853686Y-132988767D02*
X141234639Y-132988767D01*
X140901305Y-132417339D02*
X140853686Y-132369720D01*
X140853686Y-132369720D02*
X140758448Y-132322101D01*
X140758448Y-132322101D02*
X140520353Y-132322101D01*
X140520353Y-132322101D02*
X140425115Y-132369720D01*
X140425115Y-132369720D02*
X140377496Y-132417339D01*
X140377496Y-132417339D02*
X140329877Y-132512577D01*
X140329877Y-132512577D02*
X140329877Y-132607815D01*
X140329877Y-132607815D02*
X140377496Y-132750672D01*
X140377496Y-132750672D02*
X140948924Y-133322101D01*
X140948924Y-133322101D02*
X140329877Y-133322101D01*
X139425115Y-132322101D02*
X139901305Y-132322101D01*
X139901305Y-132322101D02*
X139948924Y-132798291D01*
X139948924Y-132798291D02*
X139901305Y-132750672D01*
X139901305Y-132750672D02*
X139806067Y-132703053D01*
X139806067Y-132703053D02*
X139567972Y-132703053D01*
X139567972Y-132703053D02*
X139472734Y-132750672D01*
X139472734Y-132750672D02*
X139425115Y-132798291D01*
X139425115Y-132798291D02*
X139377496Y-132893529D01*
X139377496Y-132893529D02*
X139377496Y-133131624D01*
X139377496Y-133131624D02*
X139425115Y-133226862D01*
X139425115Y-133226862D02*
X139472734Y-133274482D01*
X139472734Y-133274482D02*
X139567972Y-133322101D01*
X139567972Y-133322101D02*
X139806067Y-133322101D01*
X139806067Y-133322101D02*
X139901305Y-133274482D01*
X139901305Y-133274482D02*
X139948924Y-133226862D01*
X138234639Y-132274482D02*
X139091781Y-133560196D01*
X137901305Y-133322101D02*
X137901305Y-132322101D01*
X137901305Y-132322101D02*
X137520353Y-132322101D01*
X137520353Y-132322101D02*
X137425115Y-132369720D01*
X137425115Y-132369720D02*
X137377496Y-132417339D01*
X137377496Y-132417339D02*
X137329877Y-132512577D01*
X137329877Y-132512577D02*
X137329877Y-132655434D01*
X137329877Y-132655434D02*
X137377496Y-132750672D01*
X137377496Y-132750672D02*
X137425115Y-132798291D01*
X137425115Y-132798291D02*
X137520353Y-132845910D01*
X137520353Y-132845910D02*
X137901305Y-132845910D01*
X136948924Y-133274482D02*
X136806067Y-133322101D01*
X136806067Y-133322101D02*
X136567972Y-133322101D01*
X136567972Y-133322101D02*
X136472734Y-133274482D01*
X136472734Y-133274482D02*
X136425115Y-133226862D01*
X136425115Y-133226862D02*
X136377496Y-133131624D01*
X136377496Y-133131624D02*
X136377496Y-133036386D01*
X136377496Y-133036386D02*
X136425115Y-132941148D01*
X136425115Y-132941148D02*
X136472734Y-132893529D01*
X136472734Y-132893529D02*
X136567972Y-132845910D01*
X136567972Y-132845910D02*
X136758448Y-132798291D01*
X136758448Y-132798291D02*
X136853686Y-132750672D01*
X136853686Y-132750672D02*
X136901305Y-132703053D01*
X136901305Y-132703053D02*
X136948924Y-132607815D01*
X136948924Y-132607815D02*
X136948924Y-132512577D01*
X136948924Y-132512577D02*
X136901305Y-132417339D01*
X136901305Y-132417339D02*
X136853686Y-132369720D01*
X136853686Y-132369720D02*
X136758448Y-132322101D01*
X136758448Y-132322101D02*
X136520353Y-132322101D01*
X136520353Y-132322101D02*
X136377496Y-132369720D01*
X135948924Y-133322101D02*
X135948924Y-132322101D01*
X135948924Y-132322101D02*
X135567972Y-132322101D01*
X135567972Y-132322101D02*
X135472734Y-132369720D01*
X135472734Y-132369720D02*
X135425115Y-132417339D01*
X135425115Y-132417339D02*
X135377496Y-132512577D01*
X135377496Y-132512577D02*
X135377496Y-132655434D01*
X135377496Y-132655434D02*
X135425115Y-132750672D01*
X135425115Y-132750672D02*
X135472734Y-132798291D01*
X135472734Y-132798291D02*
X135567972Y-132845910D01*
X135567972Y-132845910D02*
X135948924Y-132845910D01*
X134948924Y-132941148D02*
X134187020Y-132941148D01*
X133377496Y-132798291D02*
X133234639Y-132845910D01*
X133234639Y-132845910D02*
X133187020Y-132893529D01*
X133187020Y-132893529D02*
X133139401Y-132988767D01*
X133139401Y-132988767D02*
X133139401Y-133131624D01*
X133139401Y-133131624D02*
X133187020Y-133226862D01*
X133187020Y-133226862D02*
X133234639Y-133274482D01*
X133234639Y-133274482D02*
X133329877Y-133322101D01*
X133329877Y-133322101D02*
X133710829Y-133322101D01*
X133710829Y-133322101D02*
X133710829Y-132322101D01*
X133710829Y-132322101D02*
X133377496Y-132322101D01*
X133377496Y-132322101D02*
X133282258Y-132369720D01*
X133282258Y-132369720D02*
X133234639Y-132417339D01*
X133234639Y-132417339D02*
X133187020Y-132512577D01*
X133187020Y-132512577D02*
X133187020Y-132607815D01*
X133187020Y-132607815D02*
X133234639Y-132703053D01*
X133234639Y-132703053D02*
X133282258Y-132750672D01*
X133282258Y-132750672D02*
X133377496Y-132798291D01*
X133377496Y-132798291D02*
X133710829Y-132798291D01*
X132567972Y-133322101D02*
X132663210Y-133274482D01*
X132663210Y-133274482D02*
X132710829Y-133179243D01*
X132710829Y-133179243D02*
X132710829Y-132322101D01*
X131758448Y-132655434D02*
X131758448Y-133322101D01*
X132187019Y-132655434D02*
X132187019Y-133179243D01*
X132187019Y-133179243D02*
X132139400Y-133274482D01*
X132139400Y-133274482D02*
X132044162Y-133322101D01*
X132044162Y-133322101D02*
X131901305Y-133322101D01*
X131901305Y-133322101D02*
X131806067Y-133274482D01*
X131806067Y-133274482D02*
X131758448Y-133226862D01*
X130901305Y-133274482D02*
X130996543Y-133322101D01*
X130996543Y-133322101D02*
X131187019Y-133322101D01*
X131187019Y-133322101D02*
X131282257Y-133274482D01*
X131282257Y-133274482D02*
X131329876Y-133179243D01*
X131329876Y-133179243D02*
X131329876Y-132798291D01*
X131329876Y-132798291D02*
X131282257Y-132703053D01*
X131282257Y-132703053D02*
X131187019Y-132655434D01*
X131187019Y-132655434D02*
X130996543Y-132655434D01*
X130996543Y-132655434D02*
X130901305Y-132703053D01*
X130901305Y-132703053D02*
X130853686Y-132798291D01*
X130853686Y-132798291D02*
X130853686Y-132893529D01*
X130853686Y-132893529D02*
X131329876Y-132988767D01*
X130567971Y-132655434D02*
X130187019Y-132655434D01*
X130425114Y-132322101D02*
X130425114Y-133179243D01*
X130425114Y-133179243D02*
X130377495Y-133274482D01*
X130377495Y-133274482D02*
X130282257Y-133322101D01*
X130282257Y-133322101D02*
X130187019Y-133322101D01*
X129710828Y-133322101D02*
X129806066Y-133274482D01*
X129806066Y-133274482D02*
X129853685Y-133226862D01*
X129853685Y-133226862D02*
X129901304Y-133131624D01*
X129901304Y-133131624D02*
X129901304Y-132845910D01*
X129901304Y-132845910D02*
X129853685Y-132750672D01*
X129853685Y-132750672D02*
X129806066Y-132703053D01*
X129806066Y-132703053D02*
X129710828Y-132655434D01*
X129710828Y-132655434D02*
X129567971Y-132655434D01*
X129567971Y-132655434D02*
X129472733Y-132703053D01*
X129472733Y-132703053D02*
X129425114Y-132750672D01*
X129425114Y-132750672D02*
X129377495Y-132845910D01*
X129377495Y-132845910D02*
X129377495Y-133131624D01*
X129377495Y-133131624D02*
X129425114Y-133226862D01*
X129425114Y-133226862D02*
X129472733Y-133274482D01*
X129472733Y-133274482D02*
X129567971Y-133322101D01*
X129567971Y-133322101D02*
X129710828Y-133322101D01*
X128806066Y-133322101D02*
X128901304Y-133274482D01*
X128901304Y-133274482D02*
X128948923Y-133226862D01*
X128948923Y-133226862D02*
X128996542Y-133131624D01*
X128996542Y-133131624D02*
X128996542Y-132845910D01*
X128996542Y-132845910D02*
X128948923Y-132750672D01*
X128948923Y-132750672D02*
X128901304Y-132703053D01*
X128901304Y-132703053D02*
X128806066Y-132655434D01*
X128806066Y-132655434D02*
X128663209Y-132655434D01*
X128663209Y-132655434D02*
X128567971Y-132703053D01*
X128567971Y-132703053D02*
X128520352Y-132750672D01*
X128520352Y-132750672D02*
X128472733Y-132845910D01*
X128472733Y-132845910D02*
X128472733Y-133131624D01*
X128472733Y-133131624D02*
X128520352Y-133226862D01*
X128520352Y-133226862D02*
X128567971Y-133274482D01*
X128567971Y-133274482D02*
X128663209Y-133322101D01*
X128663209Y-133322101D02*
X128806066Y-133322101D01*
X128187018Y-132655434D02*
X127806066Y-132655434D01*
X128044161Y-132322101D02*
X128044161Y-133179243D01*
X128044161Y-133179243D02*
X127996542Y-133274482D01*
X127996542Y-133274482D02*
X127901304Y-133322101D01*
X127901304Y-133322101D02*
X127806066Y-133322101D01*
X127472732Y-133322101D02*
X127472732Y-132322101D01*
X127044161Y-133322101D02*
X127044161Y-132798291D01*
X127044161Y-132798291D02*
X127091780Y-132703053D01*
X127091780Y-132703053D02*
X127187018Y-132655434D01*
X127187018Y-132655434D02*
X127329875Y-132655434D01*
X127329875Y-132655434D02*
X127425113Y-132703053D01*
X127425113Y-132703053D02*
X127472732Y-132750672D01*
X125853685Y-132274482D02*
X126710827Y-133560196D01*
X129839515Y-92277375D02*
X129791896Y-92182137D01*
X129791896Y-92182137D02*
X129791896Y-92039280D01*
X129791896Y-92039280D02*
X129839515Y-91896423D01*
X129839515Y-91896423D02*
X129934753Y-91801185D01*
X129934753Y-91801185D02*
X130029991Y-91753566D01*
X130029991Y-91753566D02*
X130220467Y-91705947D01*
X130220467Y-91705947D02*
X130363324Y-91705947D01*
X130363324Y-91705947D02*
X130553800Y-91753566D01*
X130553800Y-91753566D02*
X130649038Y-91801185D01*
X130649038Y-91801185D02*
X130744277Y-91896423D01*
X130744277Y-91896423D02*
X130791896Y-92039280D01*
X130791896Y-92039280D02*
X130791896Y-92134518D01*
X130791896Y-92134518D02*
X130744277Y-92277375D01*
X130744277Y-92277375D02*
X130696657Y-92324994D01*
X130696657Y-92324994D02*
X130363324Y-92324994D01*
X130363324Y-92324994D02*
X130363324Y-92134518D01*
X130791896Y-92753566D02*
X129791896Y-92753566D01*
X129791896Y-92753566D02*
X129791896Y-93134518D01*
X129791896Y-93134518D02*
X129839515Y-93229756D01*
X129839515Y-93229756D02*
X129887134Y-93277375D01*
X129887134Y-93277375D02*
X129982372Y-93324994D01*
X129982372Y-93324994D02*
X130125229Y-93324994D01*
X130125229Y-93324994D02*
X130220467Y-93277375D01*
X130220467Y-93277375D02*
X130268086Y-93229756D01*
X130268086Y-93229756D02*
X130315705Y-93134518D01*
X130315705Y-93134518D02*
X130315705Y-92753566D01*
X130791896Y-93753566D02*
X129791896Y-93753566D01*
X129791896Y-94420232D02*
X129791896Y-94610708D01*
X129791896Y-94610708D02*
X129839515Y-94705946D01*
X129839515Y-94705946D02*
X129934753Y-94801184D01*
X129934753Y-94801184D02*
X130125229Y-94848803D01*
X130125229Y-94848803D02*
X130458562Y-94848803D01*
X130458562Y-94848803D02*
X130649038Y-94801184D01*
X130649038Y-94801184D02*
X130744277Y-94705946D01*
X130744277Y-94705946D02*
X130791896Y-94610708D01*
X130791896Y-94610708D02*
X130791896Y-94420232D01*
X130791896Y-94420232D02*
X130744277Y-94324994D01*
X130744277Y-94324994D02*
X130649038Y-94229756D01*
X130649038Y-94229756D02*
X130458562Y-94182137D01*
X130458562Y-94182137D02*
X130125229Y-94182137D01*
X130125229Y-94182137D02*
X129934753Y-94229756D01*
X129934753Y-94229756D02*
X129839515Y-94324994D01*
X129839515Y-94324994D02*
X129791896Y-94420232D01*
X129791896Y-95182137D02*
X129791896Y-95801184D01*
X129791896Y-95801184D02*
X130172848Y-95467851D01*
X130172848Y-95467851D02*
X130172848Y-95610708D01*
X130172848Y-95610708D02*
X130220467Y-95705946D01*
X130220467Y-95705946D02*
X130268086Y-95753565D01*
X130268086Y-95753565D02*
X130363324Y-95801184D01*
X130363324Y-95801184D02*
X130601419Y-95801184D01*
X130601419Y-95801184D02*
X130696657Y-95753565D01*
X130696657Y-95753565D02*
X130744277Y-95705946D01*
X130744277Y-95705946D02*
X130791896Y-95610708D01*
X130791896Y-95610708D02*
X130791896Y-95324994D01*
X130791896Y-95324994D02*
X130744277Y-95229756D01*
X130744277Y-95229756D02*
X130696657Y-95182137D01*
X129887134Y-96182137D02*
X129839515Y-96229756D01*
X129839515Y-96229756D02*
X129791896Y-96324994D01*
X129791896Y-96324994D02*
X129791896Y-96563089D01*
X129791896Y-96563089D02*
X129839515Y-96658327D01*
X129839515Y-96658327D02*
X129887134Y-96705946D01*
X129887134Y-96705946D02*
X129982372Y-96753565D01*
X129982372Y-96753565D02*
X130077610Y-96753565D01*
X130077610Y-96753565D02*
X130220467Y-96705946D01*
X130220467Y-96705946D02*
X130791896Y-96134518D01*
X130791896Y-96134518D02*
X130791896Y-96753565D01*
X146827120Y-94629690D02*
X146922358Y-94582071D01*
X146922358Y-94582071D02*
X147065215Y-94582071D01*
X147065215Y-94582071D02*
X147208072Y-94629690D01*
X147208072Y-94629690D02*
X147303310Y-94724928D01*
X147303310Y-94724928D02*
X147350929Y-94820166D01*
X147350929Y-94820166D02*
X147398548Y-95010642D01*
X147398548Y-95010642D02*
X147398548Y-95153499D01*
X147398548Y-95153499D02*
X147350929Y-95343975D01*
X147350929Y-95343975D02*
X147303310Y-95439213D01*
X147303310Y-95439213D02*
X147208072Y-95534452D01*
X147208072Y-95534452D02*
X147065215Y-95582071D01*
X147065215Y-95582071D02*
X146969977Y-95582071D01*
X146969977Y-95582071D02*
X146827120Y-95534452D01*
X146827120Y-95534452D02*
X146779501Y-95486832D01*
X146779501Y-95486832D02*
X146779501Y-95153499D01*
X146779501Y-95153499D02*
X146969977Y-95153499D01*
X146350929Y-95582071D02*
X146350929Y-94582071D01*
X146350929Y-94582071D02*
X145969977Y-94582071D01*
X145969977Y-94582071D02*
X145874739Y-94629690D01*
X145874739Y-94629690D02*
X145827120Y-94677309D01*
X145827120Y-94677309D02*
X145779501Y-94772547D01*
X145779501Y-94772547D02*
X145779501Y-94915404D01*
X145779501Y-94915404D02*
X145827120Y-95010642D01*
X145827120Y-95010642D02*
X145874739Y-95058261D01*
X145874739Y-95058261D02*
X145969977Y-95105880D01*
X145969977Y-95105880D02*
X146350929Y-95105880D01*
X145350929Y-95582071D02*
X145350929Y-94582071D01*
X144684263Y-94582071D02*
X144493787Y-94582071D01*
X144493787Y-94582071D02*
X144398549Y-94629690D01*
X144398549Y-94629690D02*
X144303311Y-94724928D01*
X144303311Y-94724928D02*
X144255692Y-94915404D01*
X144255692Y-94915404D02*
X144255692Y-95248737D01*
X144255692Y-95248737D02*
X144303311Y-95439213D01*
X144303311Y-95439213D02*
X144398549Y-95534452D01*
X144398549Y-95534452D02*
X144493787Y-95582071D01*
X144493787Y-95582071D02*
X144684263Y-95582071D01*
X144684263Y-95582071D02*
X144779501Y-95534452D01*
X144779501Y-95534452D02*
X144874739Y-95439213D01*
X144874739Y-95439213D02*
X144922358Y-95248737D01*
X144922358Y-95248737D02*
X144922358Y-94915404D01*
X144922358Y-94915404D02*
X144874739Y-94724928D01*
X144874739Y-94724928D02*
X144779501Y-94629690D01*
X144779501Y-94629690D02*
X144684263Y-94582071D01*
X143303311Y-95582071D02*
X143874739Y-95582071D01*
X143589025Y-95582071D02*
X143589025Y-94582071D01*
X143589025Y-94582071D02*
X143684263Y-94724928D01*
X143684263Y-94724928D02*
X143779501Y-94820166D01*
X143779501Y-94820166D02*
X143874739Y-94867785D01*
X142446168Y-94582071D02*
X142636644Y-94582071D01*
X142636644Y-94582071D02*
X142731882Y-94629690D01*
X142731882Y-94629690D02*
X142779501Y-94677309D01*
X142779501Y-94677309D02*
X142874739Y-94820166D01*
X142874739Y-94820166D02*
X142922358Y-95010642D01*
X142922358Y-95010642D02*
X142922358Y-95391594D01*
X142922358Y-95391594D02*
X142874739Y-95486832D01*
X142874739Y-95486832D02*
X142827120Y-95534452D01*
X142827120Y-95534452D02*
X142731882Y-95582071D01*
X142731882Y-95582071D02*
X142541406Y-95582071D01*
X142541406Y-95582071D02*
X142446168Y-95534452D01*
X142446168Y-95534452D02*
X142398549Y-95486832D01*
X142398549Y-95486832D02*
X142350930Y-95391594D01*
X142350930Y-95391594D02*
X142350930Y-95153499D01*
X142350930Y-95153499D02*
X142398549Y-95058261D01*
X142398549Y-95058261D02*
X142446168Y-95010642D01*
X142446168Y-95010642D02*
X142541406Y-94963023D01*
X142541406Y-94963023D02*
X142731882Y-94963023D01*
X142731882Y-94963023D02*
X142827120Y-95010642D01*
X142827120Y-95010642D02*
X142874739Y-95058261D01*
X142874739Y-95058261D02*
X142922358Y-95153499D01*
D11*
X162681381Y-124904501D02*
X162109953Y-124904501D01*
X162395667Y-125904501D02*
X162395667Y-124904501D01*
X161776619Y-125904501D02*
X161776619Y-124904501D01*
X161776619Y-124904501D02*
X161395667Y-124904501D01*
X161395667Y-124904501D02*
X161300429Y-124952120D01*
X161300429Y-124952120D02*
X161252810Y-124999739D01*
X161252810Y-124999739D02*
X161205191Y-125094977D01*
X161205191Y-125094977D02*
X161205191Y-125237834D01*
X161205191Y-125237834D02*
X161252810Y-125333072D01*
X161252810Y-125333072D02*
X161300429Y-125380691D01*
X161300429Y-125380691D02*
X161395667Y-125428310D01*
X161395667Y-125428310D02*
X161776619Y-125428310D01*
X160633762Y-125333072D02*
X160729000Y-125285453D01*
X160729000Y-125285453D02*
X160776619Y-125237834D01*
X160776619Y-125237834D02*
X160824238Y-125142596D01*
X160824238Y-125142596D02*
X160824238Y-125094977D01*
X160824238Y-125094977D02*
X160776619Y-124999739D01*
X160776619Y-124999739D02*
X160729000Y-124952120D01*
X160729000Y-124952120D02*
X160633762Y-124904501D01*
X160633762Y-124904501D02*
X160443286Y-124904501D01*
X160443286Y-124904501D02*
X160348048Y-124952120D01*
X160348048Y-124952120D02*
X160300429Y-124999739D01*
X160300429Y-124999739D02*
X160252810Y-125094977D01*
X160252810Y-125094977D02*
X160252810Y-125142596D01*
X160252810Y-125142596D02*
X160300429Y-125237834D01*
X160300429Y-125237834D02*
X160348048Y-125285453D01*
X160348048Y-125285453D02*
X160443286Y-125333072D01*
X160443286Y-125333072D02*
X160633762Y-125333072D01*
X160633762Y-125333072D02*
X160729000Y-125380691D01*
X160729000Y-125380691D02*
X160776619Y-125428310D01*
X160776619Y-125428310D02*
X160824238Y-125523548D01*
X160824238Y-125523548D02*
X160824238Y-125714024D01*
X160824238Y-125714024D02*
X160776619Y-125809262D01*
X160776619Y-125809262D02*
X160729000Y-125856882D01*
X160729000Y-125856882D02*
X160633762Y-125904501D01*
X160633762Y-125904501D02*
X160443286Y-125904501D01*
X160443286Y-125904501D02*
X160348048Y-125856882D01*
X160348048Y-125856882D02*
X160300429Y-125809262D01*
X160300429Y-125809262D02*
X160252810Y-125714024D01*
X160252810Y-125714024D02*
X160252810Y-125523548D01*
X160252810Y-125523548D02*
X160300429Y-125428310D01*
X160300429Y-125428310D02*
X160348048Y-125380691D01*
X160348048Y-125380691D02*
X160443286Y-125333072D01*
X172181381Y-121256501D02*
X171609953Y-121256501D01*
X171895667Y-122256501D02*
X171895667Y-121256501D01*
X171276619Y-122256501D02*
X171276619Y-121256501D01*
X171276619Y-121256501D02*
X170895667Y-121256501D01*
X170895667Y-121256501D02*
X170800429Y-121304120D01*
X170800429Y-121304120D02*
X170752810Y-121351739D01*
X170752810Y-121351739D02*
X170705191Y-121446977D01*
X170705191Y-121446977D02*
X170705191Y-121589834D01*
X170705191Y-121589834D02*
X170752810Y-121685072D01*
X170752810Y-121685072D02*
X170800429Y-121732691D01*
X170800429Y-121732691D02*
X170895667Y-121780310D01*
X170895667Y-121780310D02*
X171276619Y-121780310D01*
X170371857Y-121256501D02*
X169705191Y-121256501D01*
X169705191Y-121256501D02*
X170133762Y-122256501D01*
D12*
%TO.C,TP31*%
X165219477Y-112749682D02*
X166619477Y-112749682D01*
X165219477Y-114149682D02*
X165219477Y-112749682D01*
X166619477Y-112749682D02*
X166619477Y-114149682D01*
X166619477Y-114149682D02*
X165219477Y-114149682D01*
%TO.C,TP21*%
X128719477Y-126249682D02*
X130119477Y-126249682D01*
X128719477Y-127649682D02*
X128719477Y-126249682D01*
X130119477Y-126249682D02*
X130119477Y-127649682D01*
X130119477Y-127649682D02*
X128719477Y-127649682D01*
%TO.C,TP23*%
X144719477Y-125249682D02*
X146119477Y-125249682D01*
X144719477Y-126649682D02*
X144719477Y-125249682D01*
X146119477Y-125249682D02*
X146119477Y-126649682D01*
X146119477Y-126649682D02*
X144719477Y-126649682D01*
%TO.C,TP25*%
X142219477Y-125249682D02*
X143619477Y-125249682D01*
X142219477Y-126649682D02*
X142219477Y-125249682D01*
X143619477Y-125249682D02*
X143619477Y-126649682D01*
X143619477Y-126649682D02*
X142219477Y-126649682D01*
%TO.C,TP29*%
X165219477Y-106249682D02*
X166619477Y-106249682D01*
X165219477Y-107649682D02*
X165219477Y-106249682D01*
X166619477Y-106249682D02*
X166619477Y-107649682D01*
X166619477Y-107649682D02*
X165219477Y-107649682D01*
%TO.C,TP2*%
X124969477Y-108999682D02*
X126869477Y-108999682D01*
X124969477Y-110899682D02*
X124969477Y-108999682D01*
X126869477Y-108999682D02*
X126869477Y-110899682D01*
X126869477Y-110899682D02*
X124969477Y-110899682D01*
%TO.C,TP8*%
X160469477Y-126499682D02*
X162369477Y-126499682D01*
X160469477Y-128399682D02*
X160469477Y-126499682D01*
X162369477Y-126499682D02*
X162369477Y-128399682D01*
X162369477Y-128399682D02*
X160469477Y-128399682D01*
%TO.C,TP7*%
X169969477Y-122499682D02*
X171869477Y-122499682D01*
X169969477Y-124399682D02*
X169969477Y-122499682D01*
X171869477Y-122499682D02*
X171869477Y-124399682D01*
X171869477Y-124399682D02*
X169969477Y-124399682D01*
%TO.C,TP22*%
X149719477Y-125249682D02*
X151119477Y-125249682D01*
X149719477Y-126649682D02*
X149719477Y-125249682D01*
X151119477Y-125249682D02*
X151119477Y-126649682D01*
X151119477Y-126649682D02*
X149719477Y-126649682D01*
%TO.C,TP14*%
X131204814Y-95259652D02*
X133104814Y-95259652D01*
X131204814Y-97159652D02*
X131204814Y-95259652D01*
X133104814Y-95259652D02*
X133104814Y-97159652D01*
X133104814Y-97159652D02*
X131204814Y-97159652D01*
%TO.C,TP18*%
X131219477Y-126249682D02*
X132619477Y-126249682D01*
X131219477Y-127649682D02*
X131219477Y-126249682D01*
X132619477Y-126249682D02*
X132619477Y-127649682D01*
X132619477Y-127649682D02*
X131219477Y-127649682D01*
%TO.C,TP26*%
X138219477Y-128249682D02*
X139619477Y-128249682D01*
X138219477Y-129649682D02*
X138219477Y-128249682D01*
X139619477Y-128249682D02*
X139619477Y-129649682D01*
X139619477Y-129649682D02*
X138219477Y-129649682D01*
%TO.C,TP4*%
X124969477Y-115499682D02*
X126869477Y-115499682D01*
X124969477Y-117399682D02*
X124969477Y-115499682D01*
X126869477Y-115499682D02*
X126869477Y-117399682D01*
X126869477Y-117399682D02*
X124969477Y-117399682D01*
%TO.C,TP27*%
X147219477Y-125249682D02*
X148619477Y-125249682D01*
X147219477Y-126649682D02*
X147219477Y-125249682D01*
X148619477Y-125249682D02*
X148619477Y-126649682D01*
X148619477Y-126649682D02*
X147219477Y-126649682D01*
%TO.C,TP10*%
X144204814Y-95759652D02*
X146104814Y-95759652D01*
X144204814Y-97659652D02*
X144204814Y-95759652D01*
X146104814Y-95759652D02*
X146104814Y-97659652D01*
X146104814Y-97659652D02*
X144204814Y-97659652D01*
%TO.C,TP34*%
X157219477Y-122249682D02*
X158619477Y-122249682D01*
X157219477Y-123649682D02*
X157219477Y-122249682D01*
X158619477Y-122249682D02*
X158619477Y-123649682D01*
X158619477Y-123649682D02*
X157219477Y-123649682D01*
%TO.C,TP24*%
X140719477Y-128249682D02*
X142119477Y-128249682D01*
X140719477Y-129649682D02*
X140719477Y-128249682D01*
X142119477Y-128249682D02*
X142119477Y-129649682D01*
X142119477Y-129649682D02*
X140719477Y-129649682D01*
%TO.C,TP19*%
X126219477Y-126249682D02*
X127619477Y-126249682D01*
X126219477Y-127649682D02*
X126219477Y-126249682D01*
X127619477Y-126249682D02*
X127619477Y-127649682D01*
X127619477Y-127649682D02*
X126219477Y-127649682D01*
%TO.C,TP28*%
X165219477Y-102749682D02*
X166619477Y-102749682D01*
X165219477Y-104149682D02*
X165219477Y-102749682D01*
X166619477Y-102749682D02*
X166619477Y-104149682D01*
X166619477Y-104149682D02*
X165219477Y-104149682D01*
%TO.C,TP15*%
X126969477Y-95259652D02*
X128869477Y-95259652D01*
X126969477Y-97159652D02*
X126969477Y-95259652D01*
X128869477Y-95259652D02*
X128869477Y-97159652D01*
X128869477Y-97159652D02*
X126969477Y-97159652D01*
%TO.C,TP33*%
X157719477Y-117749682D02*
X159119477Y-117749682D01*
X157719477Y-119149682D02*
X157719477Y-117749682D01*
X159119477Y-117749682D02*
X159119477Y-119149682D01*
X159119477Y-119149682D02*
X157719477Y-119149682D01*
%TO.C,TP30*%
X165219477Y-110249682D02*
X166619477Y-110249682D01*
X165219477Y-111649682D02*
X165219477Y-110249682D01*
X166619477Y-110249682D02*
X166619477Y-111649682D01*
X166619477Y-111649682D02*
X165219477Y-111649682D01*
%TO.C,TP20*%
X134219477Y-126249682D02*
X135619477Y-126249682D01*
X134219477Y-127649682D02*
X134219477Y-126249682D01*
X135619477Y-126249682D02*
X135619477Y-127649682D01*
X135619477Y-127649682D02*
X134219477Y-127649682D01*
%TO.C,TP13*%
X134204814Y-95259652D02*
X136104814Y-95259652D01*
X134204814Y-97159652D02*
X134204814Y-95259652D01*
X136104814Y-95259652D02*
X136104814Y-97159652D01*
X136104814Y-97159652D02*
X134204814Y-97159652D01*
%TO.C,TP12*%
X132204814Y-99759652D02*
X134104814Y-99759652D01*
X132204814Y-101659652D02*
X132204814Y-99759652D01*
X134104814Y-99759652D02*
X134104814Y-101659652D01*
X134104814Y-101659652D02*
X132204814Y-101659652D01*
%TO.C,TP32*%
X165219477Y-115249682D02*
X166619477Y-115249682D01*
X165219477Y-116649682D02*
X165219477Y-115249682D01*
X166619477Y-115249682D02*
X166619477Y-116649682D01*
X166619477Y-116649682D02*
X165219477Y-116649682D01*
%TO.C,TP11*%
X144204814Y-98259652D02*
X146104814Y-98259652D01*
X144204814Y-100159652D02*
X144204814Y-98259652D01*
X146104814Y-98259652D02*
X146104814Y-100159652D01*
X146104814Y-100159652D02*
X144204814Y-100159652D01*
%TO.C,TP1*%
X124969477Y-111499682D02*
X126869477Y-111499682D01*
X124969477Y-113399682D02*
X124969477Y-111499682D01*
X126869477Y-111499682D02*
X126869477Y-113399682D01*
X126869477Y-113399682D02*
X124969477Y-113399682D01*
%TO.C,TP16*%
X131204814Y-92259652D02*
X133104814Y-92259652D01*
X131204814Y-94159652D02*
X131204814Y-92259652D01*
X133104814Y-92259652D02*
X133104814Y-94159652D01*
X133104814Y-94159652D02*
X131204814Y-94159652D01*
%TO.C,TP3*%
X124969477Y-117999682D02*
X126869477Y-117999682D01*
X124969477Y-119899682D02*
X124969477Y-117999682D01*
X126869477Y-117999682D02*
X126869477Y-119899682D01*
X126869477Y-119899682D02*
X124969477Y-119899682D01*
%TO.C,TP9*%
X136219477Y-126749682D02*
X137619477Y-126749682D01*
X136219477Y-128149682D02*
X136219477Y-126749682D01*
X137619477Y-126749682D02*
X137619477Y-128149682D01*
X137619477Y-128149682D02*
X136219477Y-128149682D01*
%TD*%
%LPC*%
D13*
%TO.C,USB1*%
X119369693Y-82119989D03*
D14*
X118169795Y-79449682D03*
X125419477Y-79449682D03*
D13*
X124219579Y-82119735D03*
%TD*%
D15*
%TO.C,TP31*%
X165919477Y-113449682D03*
%TD*%
%TO.C,TP21*%
X129419477Y-126949682D03*
%TD*%
%TO.C,TP23*%
X145419477Y-125949682D03*
%TD*%
%TO.C,TP25*%
X142919477Y-125949682D03*
%TD*%
%TO.C,TP29*%
X165919477Y-106949682D03*
%TD*%
D16*
%TO.C,TP2*%
X125919477Y-109949682D03*
%TD*%
%TO.C,TP8*%
X161419477Y-127449682D03*
%TD*%
%TO.C,TP7*%
X170919477Y-123449682D03*
%TD*%
D15*
%TO.C,TP22*%
X150419477Y-125949682D03*
%TD*%
D16*
%TO.C,TP14*%
X132154814Y-96209652D03*
%TD*%
D15*
%TO.C,TP18*%
X131919477Y-126949682D03*
%TD*%
%TO.C,TP26*%
X138919477Y-128949682D03*
%TD*%
D16*
%TO.C,TP4*%
X125919477Y-116449682D03*
%TD*%
D15*
%TO.C,TP27*%
X147919477Y-125949682D03*
%TD*%
D16*
%TO.C,TP10*%
X145154814Y-96709652D03*
%TD*%
D15*
%TO.C,TP34*%
X157919477Y-122949682D03*
%TD*%
%TO.C,TP24*%
X141419477Y-128949682D03*
%TD*%
%TO.C,TP19*%
X126919477Y-126949682D03*
%TD*%
%TO.C,TP28*%
X165919477Y-103449682D03*
%TD*%
D16*
%TO.C,TP15*%
X127919477Y-96209652D03*
%TD*%
D15*
%TO.C,TP33*%
X158419477Y-118449682D03*
%TD*%
%TO.C,TP30*%
X165919477Y-110949682D03*
%TD*%
%TO.C,TP20*%
X134919477Y-126949682D03*
%TD*%
D16*
%TO.C,TP13*%
X135154814Y-96209652D03*
%TD*%
%TO.C,TP12*%
X133154814Y-100709652D03*
%TD*%
D15*
%TO.C,TP32*%
X165919477Y-115949682D03*
%TD*%
D16*
%TO.C,TP11*%
X145154814Y-99209652D03*
%TD*%
%TO.C,TP1*%
X125919477Y-112449682D03*
%TD*%
%TO.C,TP16*%
X132154814Y-93209652D03*
%TD*%
%TO.C,TP3*%
X125919477Y-118949682D03*
%TD*%
D15*
%TO.C,TP9*%
X136919477Y-127449682D03*
%TD*%
%LPD*%
M02*
