M48
; DRILL file {KiCad 8.0.4} date 2024-08-09T22:10:12+0100
; FORMAT={-:-/ absolute / inch / decimal}
; #@! TF.CreationDate,2024-08-09T22:10:12+01:00
; #@! TF.GenerationSoftware,Kicad,Pcbnew,8.0.4
; #@! TF.FileFunction,Plated,1,2,PTH
FMAT,2
INCH
; #@! TA.AperFunction,Plated,PTH,ViaDrill
T1C0.0118
; #@! TA.AperFunction,Plated,PTH,ViaDrill
T2C0.0157
; #@! TA.AperFunction,Plated,PTH,ComponentDrill
T3C0.0276
%
G90
G05
T1
X4.1504Y-4.309
X4.1701Y-4.5649
X4.2094Y-4.3878
X4.2187Y-4.5358
X4.2291Y-3.4429
X4.2581Y-3.7484
X4.2685Y-3.6988
X4.3079Y-3.9547
X4.3079Y-5.1161
X4.3275Y-4.1122
X4.3275Y-4.25
X4.3368Y-4.5161
X4.3472Y-4.3681
X4.3866Y-3.1279
X4.426Y-4.8602
X4.485Y-3.8957
X4.485Y-4.0335
X4.5047Y-3.0098
X4.5047Y-3.2854
X4.5047Y-4.3484
X4.5244Y-3.9744
X4.5337Y-5.2248
X4.5927Y-5.0476
X4.6321Y-5.0476
X4.6622Y-4.9586
X4.6819Y-4.5256
X4.6819Y-4.7421
X4.7016Y-4.2697
X4.7108Y-3.7484
X4.7108Y-3.8468
X4.7212Y-4.9586
X4.7305Y-4.6146
X4.7502Y-4.0043
X4.7502Y-4.2012
X4.7738Y-4.0634
X4.7738Y-4.2405
X4.7896Y-5.0476
X4.8Y-4.4862
X4.8157Y-4.5846
X4.8197Y-3.6004
X4.8393Y-4.3878
X4.8486Y-4.9492
X4.8486Y-5.0673
X4.859Y-3.8366
X4.859Y-3.876
X4.859Y-4.0335
X4.888Y-4.9098
X4.9378Y-5.0571
X4.9575Y-4.2106
X4.9575Y-4.3287
X4.9575Y-4.4272
X4.9575Y-4.5846
X4.9575Y-4.6831
X4.9575Y-4.8209
X4.9968Y-4.998
X5.0165Y-3.561
X5.0165Y-3.8957
X5.0362Y-3.6791
X5.0362Y-3.7878
X5.0362Y-4.0335
X5.0455Y-3.9453
X5.0455Y-3.9846
X5.0953Y-5.0571
X5.1543Y-4.8602
X5.1543Y-5.2146
X5.1764Y-3.9581
X5.1937Y-4.1909
X5.2029Y-3.4335
X5.2029Y-3.6697
X5.2029Y-3.7878
X5.2134Y-3.4823
X5.2331Y-3.3248
X5.2527Y-4.8602
X5.2527Y-4.998
X5.2817Y-3.4925
X5.2921Y-3.6201
X5.3014Y-4.1421
X5.3211Y-3.7878
X5.3315Y-5.1909
X5.3315Y-5.2539
X5.3512Y-4.9429
X5.3708Y-3.3248
X5.3807Y-4.9586
X5.4102Y-3.5216
X5.4102Y-4.1712
X5.4693Y-4.9783
X5.489Y-3.5216
X5.5086Y-4.998
X5.5283Y-3.5807
X5.5376Y-3.3547
X5.548Y-4.998
X5.5874Y-4.8405
X5.6124Y-3.7852
X5.6268Y-3.8957
X5.636Y-3.8075
X5.636Y-3.9689
X5.6661Y-5.0177
X5.6858Y-4.1712
X5.6951Y-3.4571
X5.6951Y-3.5909
X5.6951Y-3.6894
X5.7148Y-3.8075
X5.7148Y-3.896
X5.7252Y-4.8405
X5.7344Y-3.7287
X5.7449Y-5.0177
X5.7738Y-4.0634
X5.8433Y-5.0177
X5.8919Y-3.6248
X5.9023Y-4.8799
X5.9116Y-3.4925
X5.9116Y-3.6854
X5.9417Y-3.0492
X5.9417Y-3.2657
X5.951Y-3.6854
X5.951Y-4.6146
X5.951Y-4.8311
X5.9614Y-4.7815
X5.9614Y-5.0619
X5.9638Y-4.5486
X5.9707Y-3.9453
X5.9707Y-4.0437
X5.9811Y-3.8366
X5.9903Y-3.709
X5.9913Y-5.0279
X6.0008Y-4.1122
X6.0401Y-4.8799
X6.0494Y-4.5752
X6.0494Y-4.6342
X6.0494Y-4.7327
X6.0598Y-4.1712
X6.0652Y-4.6736
X6.0691Y-3.65
X6.0691Y-3.709
X6.0795Y-3.876
X6.1189Y-2.9705
X6.1189Y-4.8405
X6.1189Y-4.939
X6.1281Y-4.4177
X6.1281Y-4.4964
X6.1478Y-4.5949
X6.1478Y-4.713
X6.1582Y-4.8799
X6.1779Y-4.8012
X6.1872Y-3.65
X6.1872Y-4.2799
X6.2069Y-4.3783
X6.2173Y-3.8563
X6.237Y-3.0492
X6.2567Y-4.998
X6.2764Y-4.0925
X6.3157Y-4.8838
X6.3551Y-4.7224
X6.3644Y-3.7287
X6.3748Y-2.9508
X6.4037Y-3.65
X6.4338Y-4.6831
X6.4338Y-4.9586
X6.4338Y-4.998
X6.4407Y-4.749
X6.4535Y-4.8209
X6.4535Y-4.8602
X6.4825Y-3.5516
X6.5126Y-3.9941
X6.5323Y-3.0689
X6.5323Y-3.3248
X6.5913Y-4.3484
X6.6504Y-4.6437
X6.7094Y-4.7027
X6.7291Y-4.8602
X6.7488Y-4.7815
T2
X4.3171Y-3.3838
X4.3565Y-3.9059
X4.4063Y-5.1161
X4.5337Y-4.7327
X4.573Y-3.4728
X4.5927Y-4.3193
X4.8486Y-3.5319
X4.8984Y-5.2342
X5.2029Y-3.3941
X6.0297Y-3.4925
X6.0401Y-3.7775
X6.0598Y-4.9193
X6.2271Y-4.9488
X6.3945Y-4.8209
X6.5323Y-4.8799
T3
X4.6996Y-3.2331
X4.8905Y-3.2331
T3
G00X4.6524Y-3.1358
M15
G01X4.6524Y-3.1201
M16
G05
G00X4.9378Y-3.1358
M15
G01X4.9378Y-3.1201
M16
G05
M30
