%TF.GenerationSoftware,KiCad,Pcbnew,8.0.4*%
%TF.CreationDate,2024-09-05T22:12:39+01:00*%
%TF.ProjectId,esp32,65737033-322e-46b6-9963-61645f706362,rev?*%
%TF.SameCoordinates,Original*%
%TF.FileFunction,Copper,L2,Bot*%
%TF.FilePolarity,Positive*%
%FSLAX46Y46*%
G04 Gerber Fmt 4.6, Leading zero omitted, Abs format (unit mm)*
G04 Created by KiCad (PCBNEW 8.0.4) date 2024-09-05 22:12:39*
%MOMM*%
%LPD*%
G01*
G04 APERTURE LIST*
%TA.AperFunction,ComponentPad*%
%ADD10C,1.300000*%
%TD*%
%TA.AperFunction,ComponentPad*%
%ADD11O,1.300000X1.800000*%
%TD*%
%TA.AperFunction,SMDPad,CuDef*%
%ADD12R,1.000000X1.000000*%
%TD*%
%TA.AperFunction,SMDPad,CuDef*%
%ADD13R,1.500000X1.500000*%
%TD*%
%TA.AperFunction,ViaPad*%
%ADD14C,0.600000*%
%TD*%
%TA.AperFunction,ViaPad*%
%ADD15C,0.800000*%
%TD*%
%TA.AperFunction,Conductor*%
%ADD16C,0.200000*%
%TD*%
%TA.AperFunction,Conductor*%
%ADD17C,0.500000*%
%TD*%
%TA.AperFunction,Conductor*%
%ADD18C,0.280000*%
%TD*%
G04 APERTURE END LIST*
D10*
%TO.P,USB1,6,SH1*%
%TO.N,GND*%
X119369693Y-82119989D03*
D11*
%TO.P,USB1,7,SH2*%
X118169795Y-79449682D03*
%TO.P,USB1,8,SH3*%
X125419477Y-79449682D03*
D10*
%TO.P,USB1,9,SH4*%
X124219579Y-82119735D03*
%TD*%
D12*
%TO.P,TP31,1,1*%
%TO.N,Net-(D26-A)*%
X176000000Y-110500000D03*
%TD*%
%TO.P,TP21,1,1*%
%TO.N,Net-(D5-A)*%
X97000000Y-120000000D03*
%TD*%
%TO.P,TP23,1,1*%
%TO.N,Net-(D10-A)*%
X178500000Y-120500000D03*
%TD*%
%TO.P,TP25,1,1*%
%TO.N,Net-(D9-A)*%
X181000000Y-123000000D03*
%TD*%
%TO.P,TP29,1,1*%
%TO.N,Net-(D20-A)*%
X175500000Y-104500000D03*
%TD*%
D13*
%TO.P,TP2,1,1*%
%TO.N,unconnected-(TP2-Pad1)*%
X183000000Y-108500000D03*
%TD*%
D12*
%TO.P,TP22,1,1*%
%TO.N,Net-(D12-A)*%
X183500000Y-120500000D03*
%TD*%
D13*
%TO.P,TP14,1,1*%
%TO.N,Net-(U12-IO25)*%
X132154814Y-96209652D03*
%TD*%
D12*
%TO.P,TP18,1,1*%
%TO.N,Net-(D4-A)*%
X99500000Y-120000000D03*
%TD*%
%TO.P,TP26,1,1*%
%TO.N,Net-(D7-A)*%
X124500000Y-115500000D03*
%TD*%
D13*
%TO.P,TP4,1,1*%
%TO.N,unconnected-(TP4-Pad1)*%
X183000000Y-113500000D03*
%TD*%
D12*
%TO.P,TP27,1,1*%
%TO.N,Net-(D11-A)*%
X181000000Y-120500000D03*
%TD*%
D13*
%TO.P,TP10,1,1*%
%TO.N,Net-(U12-IO16)*%
X178500000Y-97500000D03*
%TD*%
D12*
%TO.P,TP34,1,1*%
%TO.N,Net-(D29-A)*%
X177000000Y-113000000D03*
%TD*%
%TO.P,TP24,1,1*%
%TO.N,Net-(D8-A)*%
X127000000Y-115500000D03*
%TD*%
%TO.P,TP19,1,1*%
%TO.N,Net-(D6-A)*%
X94500000Y-120000000D03*
%TD*%
%TO.P,TP28,1,1*%
%TO.N,Net-(D1-A)*%
X182500000Y-98500000D03*
%TD*%
D13*
%TO.P,TP15,1,1*%
%TO.N,Net-(U12-IO33)*%
X127919477Y-96209652D03*
%TD*%
D12*
%TO.P,TP33,1,1*%
%TO.N,Net-(D28-A)*%
X182500000Y-102000000D03*
%TD*%
%TO.P,TP30,1,1*%
%TO.N,Net-(D25-A)*%
X176000000Y-106500000D03*
%TD*%
%TO.P,TP20,1,1*%
%TO.N,Net-(D3-A)*%
X102500000Y-120000000D03*
%TD*%
D13*
%TO.P,TP13,1,1*%
%TO.N,Net-(U12-IO26)*%
X135154814Y-96209652D03*
%TD*%
%TO.P,TP36,1,1*%
%TO.N,UART_RX*%
X123500000Y-96000000D03*
%TD*%
%TO.P,TP12,1,1*%
%TO.N,Net-(U12-IO27)*%
X127000000Y-100500000D03*
%TD*%
D12*
%TO.P,TP32,1,1*%
%TO.N,Net-(D27-A)*%
X177500000Y-116000000D03*
%TD*%
D13*
%TO.P,TP11,1,1*%
%TO.N,Net-(U12-IO4)*%
X179000000Y-101500000D03*
%TD*%
%TO.P,TP1,1,1*%
%TO.N,unconnected-(TP1-Pad1)*%
X183000000Y-111000000D03*
%TD*%
%TO.P,TP16,1,1*%
%TO.N,Net-(U12-IO32)*%
X132154814Y-93209652D03*
%TD*%
%TO.P,TP3,1,1*%
%TO.N,unconnected-(TP3-Pad1)*%
X183000000Y-106000000D03*
%TD*%
%TO.P,TP35,1,1*%
%TO.N,UART_TX*%
X123500000Y-99500000D03*
%TD*%
D12*
%TO.P,TP9,1,1*%
%TO.N,Net-(D24-A)*%
X122500000Y-114000000D03*
%TD*%
D14*
%TO.N,/ESP32/ESP_EN*%
X132154814Y-87209652D03*
X161654814Y-94709652D03*
%TO.N,GND*%
X113000000Y-102000000D03*
X112500000Y-110000000D03*
X117500000Y-106000000D03*
X144000000Y-128500000D03*
X125919477Y-106949682D03*
X134419477Y-91949682D03*
X127919477Y-93449682D03*
X143500000Y-126500000D03*
X120500000Y-104000000D03*
X131000000Y-132500000D03*
X139419477Y-89449682D03*
X132919477Y-84449682D03*
X150919477Y-77449682D03*
X113919477Y-98949682D03*
X130500000Y-106500000D03*
X137419477Y-89449682D03*
X114419477Y-76449682D03*
X165919477Y-77949682D03*
X150919477Y-82949682D03*
X154419477Y-98449682D03*
X122419477Y-91449682D03*
X126500000Y-103000000D03*
X114419477Y-83449682D03*
X127419477Y-90449682D03*
X109919477Y-107949682D03*
X155419477Y-75449682D03*
X111000000Y-131900000D03*
X165919477Y-84449682D03*
X109919477Y-104449682D03*
X111419477Y-79449682D03*
X127419477Y-98949682D03*
X158419477Y-77449682D03*
X148000000Y-103500000D03*
X123419477Y-102449682D03*
X136419477Y-84449682D03*
X145000000Y-84000000D03*
X154000000Y-97000000D03*
X139000000Y-99500000D03*
X120500000Y-101500000D03*
X161919477Y-74949682D03*
X140500000Y-93500000D03*
X132419477Y-88449682D03*
X157919477Y-97949682D03*
X109419477Y-100449682D03*
X134500000Y-99500000D03*
X130500000Y-126500000D03*
X140419477Y-90949682D03*
X160000000Y-117500000D03*
%TO.N,+3.3V*%
X114900000Y-128500000D03*
D15*
X115500000Y-107000000D03*
X148500000Y-122500000D03*
X132154814Y-86209652D03*
X154000000Y-100500000D03*
X154000000Y-124500000D03*
D14*
X112000000Y-131900000D03*
D15*
X169500000Y-106000000D03*
X153154814Y-88709652D03*
X116154814Y-88209652D03*
X123154814Y-89709652D03*
%TO.N,Net-(D2-K)*%
X109654814Y-85949682D03*
X110654814Y-99209652D03*
D14*
%TO.N,PSP_START*%
X142000000Y-100000000D03*
X129500000Y-132500000D03*
%TO.N,/PSP Pins 2K/PSP_x*%
X148000000Y-117500000D03*
X148000000Y-110000000D03*
%TO.N,/PSP Pins 2K/Annalog_y*%
X146000000Y-118500000D03*
X145500000Y-116000000D03*
%TO.N,/PSP Pins 2K/+V*%
X162500000Y-114000000D03*
X159500000Y-114000000D03*
%TO.N,RTS_PROG*%
X108500000Y-117000000D03*
X108360000Y-95000000D03*
X108000000Y-113500000D03*
%TO.N,DTR_PROG*%
X112000000Y-113000000D03*
X108500000Y-93000000D03*
X106500000Y-118000000D03*
%TO.N,UART_TX*%
X143154814Y-96709652D03*
X119654814Y-97709652D03*
%TO.N,ESP_I2C_SDA*%
X151000000Y-123500000D03*
X129500000Y-125000000D03*
X115400000Y-130500000D03*
X127000000Y-123000000D03*
X151000000Y-100500000D03*
X164000000Y-121900000D03*
X166500000Y-119500000D03*
%TO.N,UART_RX*%
X142554814Y-96143965D03*
X119654814Y-95209652D03*
%TO.N,ESP_I2C_SCL*%
X152000000Y-122500000D03*
X142000000Y-124000000D03*
X168000000Y-119500000D03*
X152000000Y-100500000D03*
X128500000Y-123000000D03*
X115500000Y-131500000D03*
%TO.N,ESP_SPI_MISO*%
X136000000Y-105000000D03*
X132500000Y-100500000D03*
%TO.N,ESP_SPI_SCLK*%
X132500000Y-99000000D03*
X139000000Y-105600000D03*
%TO.N,/ESP32/ESPScreenDetect*%
X140654814Y-85209652D03*
X164654814Y-90209652D03*
%TO.N,/ESP32/LEDIndicator*%
X145654814Y-94709652D03*
X107419477Y-87449682D03*
%TO.N,/ESP32/ESP_MODE*%
X154154814Y-94209652D03*
X150500000Y-94209652D03*
%TO.N,Net-(U12-IO26)*%
X135154814Y-96209652D03*
%TO.N,Net-(U12-IO25)*%
X132154814Y-96209652D03*
%TO.N,Net-(U12-IO33)*%
X127919477Y-96209652D03*
%TO.N,Net-(U12-IO32)*%
X132154814Y-93209652D03*
%TO.N,/ESP32/ESPPowerDetect*%
X134154814Y-88709652D03*
X162654814Y-92709652D03*
X157154814Y-92709652D03*
X154154814Y-92709652D03*
%TO.N,PSP_SELECT*%
X127500000Y-132500000D03*
X145000000Y-97500000D03*
%TO.N,right*%
X145500000Y-127000000D03*
X117500000Y-125500000D03*
%TO.N,L1*%
X144000000Y-133400000D03*
X118500000Y-125000000D03*
%TO.N,Analog_toggle*%
X154500000Y-115000000D03*
X149500000Y-100000000D03*
%TO.N,/PSP Pins 2K/Analog_x*%
X146500000Y-121000000D03*
X146500000Y-117000000D03*
X149500000Y-118000000D03*
X148500000Y-112500000D03*
%TO.N,/PSP Pins 2K/PSP_y*%
X148500000Y-109000000D03*
X150000000Y-115500000D03*
%TD*%
D16*
%TO.N,/ESP32/ESP_EN*%
X161654814Y-94709652D02*
X157654814Y-94709652D01*
X157654814Y-94709652D02*
X150154814Y-87209652D01*
X150154814Y-87209652D02*
X132154814Y-87209652D01*
D17*
%TO.N,+3.3V*%
X117654814Y-89709652D02*
X116154814Y-88209652D01*
X114500000Y-128500000D02*
X114900000Y-128500000D01*
D18*
X150000000Y-121000000D02*
X154500000Y-121000000D01*
D17*
X169500000Y-119500000D02*
X168000000Y-121000000D01*
X113000000Y-127000000D02*
X114500000Y-128500000D01*
X154000000Y-100500000D02*
X168000000Y-100500000D01*
X168000000Y-121000000D02*
X154500000Y-121000000D01*
X153154814Y-86709652D02*
X152654814Y-86209652D01*
X169500000Y-106000000D02*
X169500000Y-119500000D01*
D18*
X150000000Y-121000000D02*
X148500000Y-122500000D01*
D17*
X168000000Y-100500000D02*
X169500000Y-102000000D01*
X169500000Y-102000000D02*
X169500000Y-106000000D01*
X115500000Y-107000000D02*
X115500000Y-119500000D01*
X154000000Y-124500000D02*
X154000000Y-121500000D01*
X153154814Y-88709652D02*
X153154814Y-86709652D01*
X115500000Y-119500000D02*
X113000000Y-122000000D01*
D18*
X114900000Y-128500000D02*
X114900000Y-129000000D01*
X114900000Y-129000000D02*
X112000000Y-131900000D01*
D17*
X123154814Y-89709652D02*
X117654814Y-89709652D01*
X113000000Y-122000000D02*
X113000000Y-127000000D01*
X154000000Y-121500000D02*
X154500000Y-121000000D01*
X152654814Y-86209652D02*
X132154814Y-86209652D01*
%TO.N,Net-(D2-K)*%
X110500000Y-86794868D02*
X110500000Y-99054838D01*
X110500000Y-99054838D02*
X110654814Y-99209652D01*
X109654814Y-85949682D02*
X110500000Y-86794868D01*
D16*
%TO.N,PSP_START*%
X127900000Y-130900000D02*
X127900000Y-125100000D01*
X129000000Y-124000000D02*
X140065686Y-124000000D01*
X127900000Y-125100000D02*
X129000000Y-124000000D01*
X141400000Y-122665686D02*
X141400000Y-100600000D01*
X129500000Y-132500000D02*
X127900000Y-130900000D01*
X141400000Y-100600000D02*
X142000000Y-100000000D01*
X140065686Y-124000000D02*
X141400000Y-122665686D01*
%TO.N,/PSP Pins 2K/PSP_x*%
X147900000Y-110100000D02*
X148000000Y-110000000D01*
X148000000Y-117500000D02*
X147900000Y-117400000D01*
X147900000Y-117400000D02*
X147900000Y-110100000D01*
%TO.N,/PSP Pins 2K/Annalog_y*%
X146000000Y-118500000D02*
X145900000Y-118400000D01*
X145900000Y-118400000D02*
X145900000Y-116400000D01*
X145900000Y-116400000D02*
X145500000Y-116000000D01*
%TO.N,/PSP Pins 2K/+V*%
X159500000Y-114000000D02*
X162500000Y-114000000D01*
%TO.N,RTS_PROG*%
X107900000Y-95460000D02*
X107900000Y-112900000D01*
X108500000Y-117000000D02*
X108500000Y-114000000D01*
X108500000Y-114000000D02*
X108000000Y-113500000D01*
X108360000Y-95000000D02*
X107900000Y-95460000D01*
X108000000Y-113000000D02*
X108000000Y-113500000D01*
X107900000Y-112900000D02*
X108000000Y-113000000D01*
D18*
%TO.N,DTR_PROG*%
X111000000Y-118000000D02*
X112000000Y-117000000D01*
X109000000Y-99500000D02*
X108779477Y-99720523D01*
X112000000Y-117000000D02*
X112000000Y-113000000D01*
X109000000Y-96000000D02*
X109000000Y-99500000D01*
X106500000Y-118000000D02*
X111000000Y-118000000D01*
X109500000Y-94000000D02*
X109500000Y-95500000D01*
X108779477Y-99720523D02*
X108779477Y-109779477D01*
X109500000Y-95500000D02*
X109000000Y-96000000D01*
X108779477Y-109779477D02*
X112000000Y-113000000D01*
X108500000Y-93000000D02*
X109500000Y-94000000D01*
D16*
%TO.N,UART_TX*%
X143154814Y-96709652D02*
X142014784Y-97849682D01*
X142014784Y-97849682D02*
X123500000Y-97849682D01*
X123500000Y-97849682D02*
X119794844Y-97849682D01*
X123500000Y-99500000D02*
X123500000Y-97849682D01*
X119794844Y-97849682D02*
X119654814Y-97709652D01*
%TO.N,ESP_I2C_SDA*%
X152500000Y-102000000D02*
X156000000Y-102000000D01*
X114900000Y-126248529D02*
X114900000Y-124751471D01*
X115500000Y-126848529D02*
X114900000Y-126248529D01*
X114900000Y-124751471D02*
X116651471Y-123000000D01*
X151000000Y-100500000D02*
X152500000Y-102000000D01*
X153200000Y-125700000D02*
X151000000Y-123500000D01*
X115500000Y-130400000D02*
X115500000Y-126848529D01*
X129500000Y-125000000D02*
X149500000Y-125000000D01*
X167600000Y-109000000D02*
X167600000Y-118400000D01*
X167467157Y-102532843D02*
X167600000Y-102665686D01*
X115400000Y-130500000D02*
X115500000Y-130400000D01*
X160200000Y-125700000D02*
X153200000Y-125700000D01*
X167600000Y-102665686D02*
X167600000Y-109000000D01*
X164000000Y-121900000D02*
X160200000Y-125700000D01*
X116651471Y-123000000D02*
X127000000Y-123000000D01*
X166934314Y-102000000D02*
X167467157Y-102532843D01*
X167600000Y-118400000D02*
X166500000Y-119500000D01*
X149500000Y-125000000D02*
X151000000Y-123500000D01*
X156000000Y-102000000D02*
X166934314Y-102000000D01*
%TO.N,UART_RX*%
X123500000Y-97369159D02*
X123419477Y-97449682D01*
X142554814Y-96743966D02*
X141849098Y-97449682D01*
X141849098Y-97449682D02*
X123419477Y-97449682D01*
X119654814Y-96709652D02*
X119654814Y-95209652D01*
X123419477Y-97449682D02*
X120394844Y-97449682D01*
X123500000Y-96000000D02*
X123500000Y-97369159D01*
X120394844Y-97449682D02*
X119654814Y-96709652D01*
X142554814Y-96143965D02*
X142554814Y-96743966D01*
%TO.N,ESP_I2C_SCL*%
X162500000Y-101500000D02*
X167000000Y-101500000D01*
X142600000Y-124600000D02*
X142000000Y-124000000D01*
X117600000Y-124400000D02*
X116000000Y-126000000D01*
X142600000Y-124600000D02*
X148400000Y-124600000D01*
X153000000Y-101500000D02*
X162500000Y-101500000D01*
X127100000Y-124400000D02*
X117600000Y-124400000D01*
X167000000Y-101500000D02*
X168000000Y-102500000D01*
X168000000Y-113500000D02*
X168000000Y-119500000D01*
X168000000Y-102500000D02*
X168000000Y-113500000D01*
X116000000Y-126000000D02*
X116000000Y-131000000D01*
X152000000Y-100500000D02*
X153000000Y-101500000D01*
X148400000Y-124600000D02*
X150500000Y-122500000D01*
X128500000Y-123000000D02*
X127100000Y-124400000D01*
X116000000Y-131000000D02*
X115500000Y-131500000D01*
X152000000Y-122500000D02*
X150500000Y-122500000D01*
%TO.N,ESP_SPI_MISO*%
X132500000Y-101500000D02*
X132500000Y-100500000D01*
X136000000Y-105000000D02*
X132500000Y-101500000D01*
%TO.N,ESP_SPI_SCLK*%
X132500000Y-99100000D02*
X139000000Y-105600000D01*
X132500000Y-99000000D02*
X132500000Y-99100000D01*
D18*
%TO.N,/ESP32/ESPScreenDetect*%
X154654814Y-87375266D02*
X152489200Y-85209652D01*
X164654814Y-90209652D02*
X154654814Y-90209652D01*
X152489200Y-85209652D02*
X140654814Y-85209652D01*
X154654814Y-90209652D02*
X154654814Y-87375266D01*
%TO.N,/ESP32/LEDIndicator*%
X107654814Y-87209652D02*
X107654814Y-83709652D01*
X120701333Y-94709652D02*
X145654814Y-94709652D01*
X107654814Y-83709652D02*
X109701333Y-83709652D01*
D16*
X107654814Y-87214345D02*
X107419477Y-87449682D01*
D18*
X109701333Y-83709652D02*
X120701333Y-94709652D01*
D16*
X107654814Y-87209652D02*
X107654814Y-87214345D01*
%TO.N,/ESP32/ESP_MODE*%
X150500000Y-94209652D02*
X154154814Y-94209652D01*
D18*
%TO.N,/ESP32/ESPPowerDetect*%
X134154814Y-88709652D02*
X137445162Y-92000000D01*
X153445162Y-92000000D02*
X154154814Y-92709652D01*
X162654814Y-92709652D02*
X157154814Y-92709652D01*
X137445162Y-92000000D02*
X153445162Y-92000000D01*
D16*
%TO.N,PSP_SELECT*%
X140000000Y-123500000D02*
X141000000Y-122500000D01*
X127500000Y-124934314D02*
X128934314Y-123500000D01*
X143000000Y-97500000D02*
X145000000Y-97500000D01*
X141000000Y-99500000D02*
X143000000Y-97500000D01*
X141000000Y-122500000D02*
X141000000Y-99500000D01*
X128934314Y-123500000D02*
X140000000Y-123500000D01*
X127500000Y-132500000D02*
X127500000Y-124934314D01*
%TO.N,right*%
X118500000Y-134000000D02*
X144500000Y-134000000D01*
X118000000Y-126000000D02*
X118000000Y-133500000D01*
X118000000Y-133500000D02*
X118500000Y-134000000D01*
X144500000Y-134000000D02*
X145500000Y-133000000D01*
X117500000Y-125500000D02*
X118000000Y-126000000D01*
X145500000Y-133000000D02*
X145500000Y-127000000D01*
%TO.N,L1*%
X118500000Y-133000000D02*
X119000000Y-133500000D01*
X143900000Y-133500000D02*
X144000000Y-133400000D01*
X118500000Y-125000000D02*
X118500000Y-133000000D01*
X119000000Y-133500000D02*
X143900000Y-133500000D01*
%TO.N,Analog_toggle*%
X154000000Y-103000000D02*
X152500000Y-103000000D01*
X152500000Y-103000000D02*
X149500000Y-100000000D01*
X154000000Y-114500000D02*
X154000000Y-103000000D01*
X154500000Y-115000000D02*
X154000000Y-114500000D01*
D18*
%TO.N,/PSP Pins 2K/Analog_x*%
X147500000Y-120000000D02*
X146500000Y-121000000D01*
D16*
X149500000Y-118000000D02*
X148500000Y-117000000D01*
X147600000Y-118100000D02*
X149400000Y-118100000D01*
X146500000Y-117000000D02*
X147600000Y-118100000D01*
X148500000Y-117000000D02*
X148500000Y-112500000D01*
X149400000Y-118100000D02*
X149500000Y-118000000D01*
D18*
X147500000Y-118000000D02*
X147500000Y-120000000D01*
X146500000Y-117000000D02*
X147500000Y-118000000D01*
D16*
%TO.N,/PSP Pins 2K/PSP_y*%
X150000000Y-110500000D02*
X148500000Y-109000000D01*
X150000000Y-115500000D02*
X150000000Y-110500000D01*
%TD*%
%TA.AperFunction,Conductor*%
%TO.N,GND*%
G36*
X149921756Y-87829837D02*
G01*
X149942398Y-87846471D01*
X153243746Y-91147819D01*
X153277231Y-91209142D01*
X153272247Y-91278834D01*
X153230375Y-91334767D01*
X153164911Y-91359184D01*
X153156065Y-91359500D01*
X137761828Y-91359500D01*
X137694789Y-91339815D01*
X137674147Y-91323181D01*
X134978331Y-88627365D01*
X134944846Y-88566042D01*
X134942793Y-88553580D01*
X134940182Y-88530397D01*
X134880603Y-88360130D01*
X134784630Y-88207390D01*
X134657076Y-88079836D01*
X134592317Y-88039145D01*
X134546027Y-87986811D01*
X134535379Y-87917758D01*
X134563754Y-87853909D01*
X134622144Y-87815537D01*
X134658290Y-87810152D01*
X149854717Y-87810152D01*
X149921756Y-87829837D01*
G37*
%TD.AperFunction*%
%TA.AperFunction,Conductor*%
G36*
X115862016Y-71469867D02*
G01*
X115907771Y-71522671D01*
X115918977Y-71574182D01*
X115918977Y-77515573D01*
X115953085Y-77642869D01*
X115986031Y-77699932D01*
X116018977Y-77756996D01*
X116112163Y-77850182D01*
X116226291Y-77916074D01*
X116353585Y-77950182D01*
X116485369Y-77950182D01*
X117572487Y-77950182D01*
X117639526Y-77969867D01*
X117685281Y-78022671D01*
X117695225Y-78091829D01*
X117666200Y-78155385D01*
X117628782Y-78184667D01*
X117567060Y-78216116D01*
X117420625Y-78322505D01*
X117292618Y-78450512D01*
X117186229Y-78596947D01*
X117104047Y-78758234D01*
X117104046Y-78758237D01*
X117048112Y-78930388D01*
X117019795Y-79109175D01*
X117019795Y-79199682D01*
X117820836Y-79199682D01*
X117819782Y-79203615D01*
X117819782Y-79695749D01*
X117820836Y-79699682D01*
X117019795Y-79699682D01*
X117019795Y-79790188D01*
X117048112Y-79968975D01*
X117104046Y-80141126D01*
X117104047Y-80141129D01*
X117186229Y-80302416D01*
X117292618Y-80448851D01*
X117420625Y-80576858D01*
X117567060Y-80683247D01*
X117728347Y-80765429D01*
X117728350Y-80765430D01*
X117900494Y-80821362D01*
X117900507Y-80821365D01*
X117919795Y-80824420D01*
X117919795Y-79894662D01*
X117954882Y-79929749D01*
X118034695Y-79975829D01*
X118123715Y-79999682D01*
X118215875Y-79999682D01*
X118304895Y-79975829D01*
X118384708Y-79929749D01*
X118419795Y-79894662D01*
X118419795Y-80824419D01*
X118439082Y-80821365D01*
X118439095Y-80821362D01*
X118611239Y-80765430D01*
X118611242Y-80765429D01*
X118772529Y-80683247D01*
X118918964Y-80576858D01*
X119046971Y-80448851D01*
X119153360Y-80302416D01*
X119235542Y-80141129D01*
X119235543Y-80141126D01*
X119291477Y-79968975D01*
X119319795Y-79790188D01*
X119319795Y-79699682D01*
X118518754Y-79699682D01*
X118519808Y-79695749D01*
X118519808Y-79203615D01*
X118518754Y-79199682D01*
X119319795Y-79199682D01*
X119319795Y-79109175D01*
X119291477Y-78930388D01*
X119235543Y-78758237D01*
X119235542Y-78758234D01*
X119153360Y-78596947D01*
X119046971Y-78450512D01*
X118918964Y-78322505D01*
X118772529Y-78216116D01*
X118710808Y-78184667D01*
X118660012Y-78136692D01*
X118643217Y-78068871D01*
X118665755Y-78002736D01*
X118720470Y-77959285D01*
X118767103Y-77950182D01*
X124822169Y-77950182D01*
X124889208Y-77969867D01*
X124934963Y-78022671D01*
X124944907Y-78091829D01*
X124915882Y-78155385D01*
X124878464Y-78184667D01*
X124816742Y-78216116D01*
X124670307Y-78322505D01*
X124542300Y-78450512D01*
X124435911Y-78596947D01*
X124353729Y-78758234D01*
X124353728Y-78758237D01*
X124297794Y-78930388D01*
X124269477Y-79109175D01*
X124269477Y-79199682D01*
X125070518Y-79199682D01*
X125069464Y-79203615D01*
X125069464Y-79695749D01*
X125070518Y-79699682D01*
X124269477Y-79699682D01*
X124269477Y-79790188D01*
X124297794Y-79968975D01*
X124353728Y-80141126D01*
X124353729Y-80141129D01*
X124435911Y-80302416D01*
X124542300Y-80448851D01*
X124670307Y-80576858D01*
X124816742Y-80683247D01*
X124978029Y-80765429D01*
X124978032Y-80765430D01*
X125150176Y-80821362D01*
X125150189Y-80821365D01*
X125169477Y-80824420D01*
X125169477Y-79894662D01*
X125204564Y-79929749D01*
X125284377Y-79975829D01*
X125373397Y-79999682D01*
X125465557Y-79999682D01*
X125554577Y-79975829D01*
X125634390Y-79929749D01*
X125669477Y-79894662D01*
X125669477Y-80824419D01*
X125688764Y-80821365D01*
X125688777Y-80821362D01*
X125860921Y-80765430D01*
X125860924Y-80765429D01*
X126022211Y-80683247D01*
X126168646Y-80576858D01*
X126296653Y-80448851D01*
X126403042Y-80302416D01*
X126485224Y-80141129D01*
X126485225Y-80141126D01*
X126541159Y-79968975D01*
X126569477Y-79790188D01*
X126569477Y-79699682D01*
X125768436Y-79699682D01*
X125769490Y-79695749D01*
X125769490Y-79203615D01*
X125768436Y-79199682D01*
X126569477Y-79199682D01*
X126569477Y-79109175D01*
X126541159Y-78930388D01*
X126485225Y-78758237D01*
X126485224Y-78758234D01*
X126403042Y-78596947D01*
X126296653Y-78450512D01*
X126168646Y-78322505D01*
X126022211Y-78216116D01*
X125960490Y-78184667D01*
X125909694Y-78136692D01*
X125892899Y-78068871D01*
X125915437Y-78002736D01*
X125970152Y-77959285D01*
X126016785Y-77950182D01*
X126794977Y-77950182D01*
X126862016Y-77969867D01*
X126907771Y-78022671D01*
X126918977Y-78074182D01*
X126918977Y-83015573D01*
X126953085Y-83142869D01*
X126986031Y-83199932D01*
X127018977Y-83256996D01*
X127112163Y-83350182D01*
X127226291Y-83416074D01*
X127353585Y-83450182D01*
X127353587Y-83450182D01*
X149485367Y-83450182D01*
X149485369Y-83450182D01*
X149612663Y-83416074D01*
X149726791Y-83350182D01*
X149819977Y-83256996D01*
X149885869Y-83142868D01*
X149919977Y-83015574D01*
X149919977Y-71574182D01*
X149939662Y-71507143D01*
X149992466Y-71461388D01*
X150043977Y-71450182D01*
X171294977Y-71450182D01*
X171362016Y-71469867D01*
X171407771Y-71522671D01*
X171418977Y-71574182D01*
X171418977Y-73229268D01*
X171399292Y-73296307D01*
X171346488Y-73342062D01*
X171277330Y-73352006D01*
X171213774Y-73322981D01*
X171181901Y-73280159D01*
X171158894Y-73229039D01*
X171158893Y-73229038D01*
X171158892Y-73229035D01*
X170994802Y-72957596D01*
X170893945Y-72828862D01*
X170799187Y-72707912D01*
X170574912Y-72483637D01*
X170325235Y-72288027D01*
X170325227Y-72288022D01*
X170053790Y-72123933D01*
X169764552Y-71993757D01*
X169461732Y-71899395D01*
X169149746Y-71842221D01*
X169149745Y-71842220D01*
X169149740Y-71842220D01*
X168833143Y-71823070D01*
X168516545Y-71842220D01*
X168204553Y-71899395D01*
X167901739Y-71993755D01*
X167901735Y-71993756D01*
X167901734Y-71993757D01*
X167788926Y-72044528D01*
X167612500Y-72123931D01*
X167612498Y-72123932D01*
X167341058Y-72288022D01*
X167341050Y-72288027D01*
X167091373Y-72483637D01*
X166867098Y-72707912D01*
X166671488Y-72957589D01*
X166671484Y-72957596D01*
X166507394Y-73229035D01*
X166408089Y-73449682D01*
X166377216Y-73518278D01*
X166282856Y-73821092D01*
X166225681Y-74133084D01*
X166206531Y-74449682D01*
X166225681Y-74766279D01*
X166225681Y-74766284D01*
X166225682Y-74766285D01*
X166282856Y-75078271D01*
X166377218Y-75381091D01*
X166507394Y-75670329D01*
X166671483Y-75941766D01*
X166671488Y-75941774D01*
X166867098Y-76191451D01*
X167091373Y-76415726D01*
X167341050Y-76611336D01*
X167341053Y-76611337D01*
X167341057Y-76611341D01*
X167612496Y-76775431D01*
X167901734Y-76905607D01*
X168204554Y-76999969D01*
X168516540Y-77057143D01*
X168833143Y-77076294D01*
X169149746Y-77057143D01*
X169461732Y-76999969D01*
X169764552Y-76905607D01*
X170053790Y-76775431D01*
X170325229Y-76611341D01*
X170574909Y-76415729D01*
X170799190Y-76191448D01*
X170994802Y-75941768D01*
X171158892Y-75670329D01*
X171181902Y-75619202D01*
X171227365Y-75566150D01*
X171294295Y-75546097D01*
X171361442Y-75565413D01*
X171407486Y-75617964D01*
X171418977Y-75670095D01*
X171418977Y-87015574D01*
X171422947Y-87030389D01*
X171453085Y-87142869D01*
X171486031Y-87199932D01*
X171518977Y-87256996D01*
X171612163Y-87350182D01*
X171726291Y-87416074D01*
X171827572Y-87443211D01*
X171887230Y-87479574D01*
X171917760Y-87542421D01*
X171919477Y-87562985D01*
X171919477Y-126190506D01*
X171899792Y-126257545D01*
X171883158Y-126278187D01*
X170518979Y-127642365D01*
X170518977Y-127642368D01*
X170453085Y-127756494D01*
X170418977Y-127883790D01*
X170418977Y-131802257D01*
X170405886Y-131857711D01*
X169144424Y-134380636D01*
X169096837Y-134431795D01*
X169033515Y-134449182D01*
X165494024Y-134449182D01*
X165426985Y-134429497D01*
X165381230Y-134376693D01*
X165371286Y-134307535D01*
X165400311Y-134243979D01*
X165429596Y-134219234D01*
X165475480Y-134191330D01*
X165536388Y-134154292D01*
X165757292Y-133974573D01*
X165951667Y-133766449D01*
X166115892Y-133533795D01*
X166246907Y-133280947D01*
X166342273Y-133012614D01*
X166400212Y-132733794D01*
X166419646Y-132449682D01*
X166400212Y-132165570D01*
X166342273Y-131886750D01*
X166336385Y-131870184D01*
X166246908Y-131618420D01*
X166246909Y-131618420D01*
X166176395Y-131482334D01*
X166115892Y-131365569D01*
X165951667Y-131132915D01*
X165951663Y-131132911D01*
X165951662Y-131132909D01*
X165885370Y-131061928D01*
X165757292Y-130924791D01*
X165536388Y-130745072D01*
X165536386Y-130745071D01*
X165536384Y-130745069D01*
X165293068Y-130597105D01*
X165031871Y-130483652D01*
X164757660Y-130406821D01*
X164757656Y-130406820D01*
X164757655Y-130406820D01*
X164616593Y-130387431D01*
X164475532Y-130368043D01*
X164475531Y-130368043D01*
X164190755Y-130368043D01*
X164190754Y-130368043D01*
X163908631Y-130406820D01*
X163908625Y-130406821D01*
X163634414Y-130483652D01*
X163373217Y-130597105D01*
X163129901Y-130745069D01*
X162908997Y-130924788D01*
X162714623Y-131132909D01*
X162550394Y-131365568D01*
X162419377Y-131618420D01*
X162324014Y-131886744D01*
X162324013Y-131886747D01*
X162266073Y-132165575D01*
X162246640Y-132449682D01*
X162266073Y-132733788D01*
X162266073Y-132733792D01*
X162266074Y-132733794D01*
X162280730Y-132804324D01*
X162324013Y-133012616D01*
X162324014Y-133012619D01*
X162419377Y-133280943D01*
X162419376Y-133280943D01*
X162491919Y-133420943D01*
X162550394Y-133533795D01*
X162690150Y-133731785D01*
X162714623Y-133766454D01*
X162786867Y-133843807D01*
X162908994Y-133974573D01*
X163129898Y-134154292D01*
X163129900Y-134154293D01*
X163129901Y-134154294D01*
X163236690Y-134219234D01*
X163283742Y-134270885D01*
X163295400Y-134339776D01*
X163267963Y-134404033D01*
X163210141Y-134443255D01*
X163172262Y-134449182D01*
X145199414Y-134449182D01*
X145132375Y-134429497D01*
X145086620Y-134376693D01*
X145076676Y-134307535D01*
X145105701Y-134243979D01*
X145111733Y-134237501D01*
X145194942Y-134154292D01*
X145980520Y-133368716D01*
X146059577Y-133231784D01*
X146100501Y-133079057D01*
X146100501Y-132920942D01*
X146100501Y-132913347D01*
X146100500Y-132913329D01*
X146100500Y-127582412D01*
X146120185Y-127515373D01*
X146127555Y-127505097D01*
X146129810Y-127502267D01*
X146129816Y-127502262D01*
X146225789Y-127349522D01*
X146285368Y-127179255D01*
X146285369Y-127179249D01*
X146305565Y-127000003D01*
X146305565Y-126999996D01*
X146285369Y-126820750D01*
X146285368Y-126820745D01*
X146255754Y-126736114D01*
X146225789Y-126650478D01*
X146129816Y-126497738D01*
X146002262Y-126370184D01*
X145934463Y-126327583D01*
X145849523Y-126274211D01*
X145679254Y-126214631D01*
X145679249Y-126214630D01*
X145500004Y-126194435D01*
X145499996Y-126194435D01*
X145320750Y-126214630D01*
X145320745Y-126214631D01*
X145150476Y-126274211D01*
X144997737Y-126370184D01*
X144870184Y-126497737D01*
X144774211Y-126650476D01*
X144714631Y-126820745D01*
X144714630Y-126820750D01*
X144694435Y-126999996D01*
X144694435Y-127000003D01*
X144714630Y-127179249D01*
X144714631Y-127179254D01*
X144774211Y-127349523D01*
X144818362Y-127419788D01*
X144855199Y-127478414D01*
X144870185Y-127502263D01*
X144872445Y-127505097D01*
X144873334Y-127507275D01*
X144873889Y-127508158D01*
X144873734Y-127508255D01*
X144898855Y-127569783D01*
X144899500Y-127582412D01*
X144899500Y-132699902D01*
X144879815Y-132766941D01*
X144863181Y-132787583D01*
X144779102Y-132871662D01*
X144717779Y-132905147D01*
X144648087Y-132900163D01*
X144603740Y-132871662D01*
X144502262Y-132770184D01*
X144349523Y-132674211D01*
X144179254Y-132614631D01*
X144179249Y-132614630D01*
X144000004Y-132594435D01*
X143999996Y-132594435D01*
X143820750Y-132614630D01*
X143820745Y-132614631D01*
X143650476Y-132674211D01*
X143497739Y-132770183D01*
X143404740Y-132863182D01*
X143343416Y-132896666D01*
X143317059Y-132899500D01*
X130383063Y-132899500D01*
X130316024Y-132879815D01*
X130270269Y-132827011D01*
X130260325Y-132757853D01*
X130266022Y-132734545D01*
X130285366Y-132679262D01*
X130285369Y-132679249D01*
X130305565Y-132500003D01*
X130305565Y-132499996D01*
X130285369Y-132320750D01*
X130285368Y-132320745D01*
X130238545Y-132186933D01*
X130225789Y-132150478D01*
X130221007Y-132142868D01*
X130139385Y-132012967D01*
X130129816Y-131997738D01*
X130002262Y-131870184D01*
X129894157Y-131802257D01*
X129849521Y-131774210D01*
X129679249Y-131714630D01*
X129592331Y-131704837D01*
X129527917Y-131677770D01*
X129518534Y-131669298D01*
X128536819Y-130687583D01*
X128503334Y-130626260D01*
X128500500Y-130599902D01*
X128500500Y-125400096D01*
X128520185Y-125333057D01*
X128536815Y-125312419D01*
X128563514Y-125285720D01*
X128624836Y-125252236D01*
X128694528Y-125257220D01*
X128750461Y-125299092D01*
X128768235Y-125332446D01*
X128774209Y-125349520D01*
X128858263Y-125483290D01*
X128870184Y-125502262D01*
X128997738Y-125629816D01*
X129150478Y-125725789D01*
X129238234Y-125756496D01*
X129320745Y-125785368D01*
X129320750Y-125785369D01*
X129499996Y-125805565D01*
X129500000Y-125805565D01*
X129500004Y-125805565D01*
X129679249Y-125785369D01*
X129679252Y-125785368D01*
X129679255Y-125785368D01*
X129849522Y-125725789D01*
X130002262Y-125629816D01*
X130002267Y-125629810D01*
X130005097Y-125627555D01*
X130007275Y-125626665D01*
X130008158Y-125626111D01*
X130008255Y-125626265D01*
X130069783Y-125601145D01*
X130082412Y-125600500D01*
X149413331Y-125600500D01*
X149413347Y-125600501D01*
X149420943Y-125600501D01*
X149579054Y-125600501D01*
X149579057Y-125600501D01*
X149731785Y-125559577D01*
X149781904Y-125530639D01*
X149868716Y-125480520D01*
X149980520Y-125368716D01*
X149980520Y-125368714D01*
X149990728Y-125358507D01*
X149990729Y-125358504D01*
X150912322Y-124436912D01*
X150973641Y-124403430D01*
X151043333Y-124408414D01*
X151087680Y-124436915D01*
X152715139Y-126064374D01*
X152715149Y-126064385D01*
X152719479Y-126068715D01*
X152719480Y-126068716D01*
X152831284Y-126180520D01*
X152909693Y-126225789D01*
X152968215Y-126259577D01*
X153120943Y-126300501D01*
X153120946Y-126300501D01*
X153286653Y-126300501D01*
X153286669Y-126300500D01*
X160113331Y-126300500D01*
X160113347Y-126300501D01*
X160120943Y-126300501D01*
X160279054Y-126300501D01*
X160279057Y-126300501D01*
X160431785Y-126259577D01*
X160490307Y-126225789D01*
X160568716Y-126180520D01*
X160680520Y-126068716D01*
X160680520Y-126068714D01*
X160690724Y-126058511D01*
X160690727Y-126058506D01*
X164018536Y-122730698D01*
X164079857Y-122697215D01*
X164092310Y-122695163D01*
X164179255Y-122685368D01*
X164349522Y-122625789D01*
X164502262Y-122529816D01*
X164629816Y-122402262D01*
X164725789Y-122249522D01*
X164785368Y-122079255D01*
X164792543Y-122015574D01*
X164805565Y-121900003D01*
X164805565Y-121900001D01*
X164804256Y-121888386D01*
X164816309Y-121819564D01*
X164863657Y-121768184D01*
X164927476Y-121750500D01*
X168073920Y-121750500D01*
X168171462Y-121731096D01*
X168218913Y-121721658D01*
X168355495Y-121665084D01*
X168408277Y-121629816D01*
X168478416Y-121582952D01*
X170082951Y-119978416D01*
X170165084Y-119855495D01*
X170221658Y-119718913D01*
X170250500Y-119573918D01*
X170250500Y-119426083D01*
X170250500Y-106534321D01*
X170267113Y-106472321D01*
X170269732Y-106467785D01*
X170327179Y-106368284D01*
X170385674Y-106188256D01*
X170405460Y-106000000D01*
X170385674Y-105811744D01*
X170327179Y-105631716D01*
X170326082Y-105629816D01*
X170267113Y-105527677D01*
X170250500Y-105465677D01*
X170250500Y-101926079D01*
X170221659Y-101781092D01*
X170221658Y-101781091D01*
X170221658Y-101781087D01*
X170216326Y-101768214D01*
X170165087Y-101644511D01*
X170165080Y-101644498D01*
X170082952Y-101521585D01*
X170053695Y-101492328D01*
X169978416Y-101417049D01*
X169631150Y-101069783D01*
X168478421Y-99917052D01*
X168478414Y-99917046D01*
X168404729Y-99867812D01*
X168404729Y-99867813D01*
X168355491Y-99834913D01*
X168218917Y-99778343D01*
X168218907Y-99778340D01*
X168073920Y-99749500D01*
X168073918Y-99749500D01*
X154539337Y-99749500D01*
X154472298Y-99729815D01*
X154466452Y-99725818D01*
X154452734Y-99715851D01*
X154452729Y-99715848D01*
X154279807Y-99638857D01*
X154279802Y-99638855D01*
X154134001Y-99607865D01*
X154094646Y-99599500D01*
X153905354Y-99599500D01*
X153872897Y-99606398D01*
X153720197Y-99638855D01*
X153720192Y-99638857D01*
X153547270Y-99715848D01*
X153547265Y-99715851D01*
X153394129Y-99827111D01*
X153267466Y-99967785D01*
X153172821Y-100131715D01*
X153172818Y-100131722D01*
X153114327Y-100311740D01*
X153114326Y-100311744D01*
X153099713Y-100450784D01*
X153098384Y-100463428D01*
X153071799Y-100528042D01*
X153014502Y-100568027D01*
X152944683Y-100570687D01*
X152887382Y-100538147D01*
X152830700Y-100481465D01*
X152797215Y-100420142D01*
X152795163Y-100407686D01*
X152785368Y-100320745D01*
X152725789Y-100150478D01*
X152629816Y-99997738D01*
X152502262Y-99870184D01*
X152464265Y-99846309D01*
X152349523Y-99774211D01*
X152179254Y-99714631D01*
X152179249Y-99714630D01*
X152000004Y-99694435D01*
X151999996Y-99694435D01*
X151820750Y-99714630D01*
X151820737Y-99714633D01*
X151650479Y-99774209D01*
X151565971Y-99827309D01*
X151498734Y-99846309D01*
X151434029Y-99827309D01*
X151349520Y-99774209D01*
X151179262Y-99714633D01*
X151179249Y-99714630D01*
X151000004Y-99694435D01*
X150999996Y-99694435D01*
X150820750Y-99714630D01*
X150820745Y-99714631D01*
X150650476Y-99774211D01*
X150497738Y-99870183D01*
X150492663Y-99875259D01*
X150431338Y-99908741D01*
X150361647Y-99903753D01*
X150305715Y-99861878D01*
X150289432Y-99826700D01*
X150287668Y-99827318D01*
X150225789Y-99650478D01*
X150171100Y-99563441D01*
X150129816Y-99497738D01*
X150002262Y-99370184D01*
X149900439Y-99306204D01*
X149849523Y-99274211D01*
X149679254Y-99214631D01*
X149679249Y-99214630D01*
X149500004Y-99194435D01*
X149499996Y-99194435D01*
X149320750Y-99214630D01*
X149320745Y-99214631D01*
X149150476Y-99274211D01*
X148997737Y-99370184D01*
X148870184Y-99497737D01*
X148774211Y-99650476D01*
X148714631Y-99820745D01*
X148714630Y-99820750D01*
X148694435Y-99999996D01*
X148694435Y-100000003D01*
X148714630Y-100179249D01*
X148714631Y-100179254D01*
X148774211Y-100349523D01*
X148837838Y-100450784D01*
X148870184Y-100502262D01*
X148997738Y-100629816D01*
X149150478Y-100725789D01*
X149320745Y-100785368D01*
X149407669Y-100795161D01*
X149472080Y-100822226D01*
X149481464Y-100830699D01*
X152131284Y-103480520D01*
X152131286Y-103480521D01*
X152131290Y-103480524D01*
X152268209Y-103559573D01*
X152268216Y-103559577D01*
X152420943Y-103600501D01*
X152420945Y-103600501D01*
X152586654Y-103600501D01*
X152586670Y-103600500D01*
X153275500Y-103600500D01*
X153342539Y-103620185D01*
X153388294Y-103672989D01*
X153399500Y-103724500D01*
X153399500Y-114413330D01*
X153399499Y-114413348D01*
X153399499Y-114579054D01*
X153399498Y-114579054D01*
X153438816Y-114725788D01*
X153440423Y-114731785D01*
X153461457Y-114768216D01*
X153491784Y-114820745D01*
X153519479Y-114868715D01*
X153631284Y-114980520D01*
X153631285Y-114980522D01*
X153669298Y-115018535D01*
X153702783Y-115079858D01*
X153704837Y-115092332D01*
X153714630Y-115179249D01*
X153774210Y-115349521D01*
X153867341Y-115497737D01*
X153870184Y-115502262D01*
X153997738Y-115629816D01*
X154150478Y-115725789D01*
X154320745Y-115785368D01*
X154320750Y-115785369D01*
X154499996Y-115805565D01*
X154500000Y-115805565D01*
X154500004Y-115805565D01*
X154679249Y-115785369D01*
X154679252Y-115785368D01*
X154679255Y-115785368D01*
X154849522Y-115725789D01*
X155002262Y-115629816D01*
X155129816Y-115502262D01*
X155225789Y-115349522D01*
X155285368Y-115179255D01*
X155285369Y-115179249D01*
X155305565Y-115000003D01*
X155305565Y-114999996D01*
X155285369Y-114820750D01*
X155285368Y-114820745D01*
X155257930Y-114742331D01*
X155225789Y-114650478D01*
X155198773Y-114607483D01*
X155134950Y-114505909D01*
X155129816Y-114497738D01*
X155002262Y-114370184D01*
X154969379Y-114349522D01*
X154849521Y-114274210D01*
X154756845Y-114241781D01*
X154683544Y-114216132D01*
X154626770Y-114175412D01*
X154601022Y-114110460D01*
X154600500Y-114099092D01*
X154600500Y-113999996D01*
X158694435Y-113999996D01*
X158694435Y-114000003D01*
X158714630Y-114179249D01*
X158714631Y-114179254D01*
X158774211Y-114349523D01*
X158867341Y-114497737D01*
X158870184Y-114502262D01*
X158997738Y-114629816D01*
X159150478Y-114725789D01*
X159271733Y-114768218D01*
X159320745Y-114785368D01*
X159320750Y-114785369D01*
X159499996Y-114805565D01*
X159500000Y-114805565D01*
X159500004Y-114805565D01*
X159679249Y-114785369D01*
X159679252Y-114785368D01*
X159679255Y-114785368D01*
X159849522Y-114725789D01*
X160002262Y-114629816D01*
X160002267Y-114629810D01*
X160005097Y-114627555D01*
X160007275Y-114626665D01*
X160008158Y-114626111D01*
X160008255Y-114626265D01*
X160069783Y-114601145D01*
X160082412Y-114600500D01*
X161917588Y-114600500D01*
X161984627Y-114620185D01*
X161994903Y-114627555D01*
X161997736Y-114629814D01*
X161997738Y-114629816D01*
X162150478Y-114725789D01*
X162271733Y-114768218D01*
X162320745Y-114785368D01*
X162320750Y-114785369D01*
X162499996Y-114805565D01*
X162500000Y-114805565D01*
X162500004Y-114805565D01*
X162679249Y-114785369D01*
X162679252Y-114785368D01*
X162679255Y-114785368D01*
X162849522Y-114725789D01*
X163002262Y-114629816D01*
X163129816Y-114502262D01*
X163225789Y-114349522D01*
X163285368Y-114179255D01*
X163285801Y-114175412D01*
X163305565Y-114000003D01*
X163305565Y-113999996D01*
X163285369Y-113820750D01*
X163285368Y-113820745D01*
X163266985Y-113768209D01*
X163225789Y-113650478D01*
X163213732Y-113631290D01*
X163131237Y-113500000D01*
X163129816Y-113497738D01*
X163002262Y-113370184D01*
X162969379Y-113349522D01*
X162849523Y-113274211D01*
X162679254Y-113214631D01*
X162679249Y-113214630D01*
X162500004Y-113194435D01*
X162499996Y-113194435D01*
X162320750Y-113214630D01*
X162320745Y-113214631D01*
X162150476Y-113274211D01*
X161997736Y-113370185D01*
X161994903Y-113372445D01*
X161992724Y-113373334D01*
X161991842Y-113373889D01*
X161991744Y-113373734D01*
X161930217Y-113398855D01*
X161917588Y-113399500D01*
X160082412Y-113399500D01*
X160015373Y-113379815D01*
X160005097Y-113372445D01*
X160002263Y-113370185D01*
X160002262Y-113370184D01*
X159945496Y-113334515D01*
X159849523Y-113274211D01*
X159679254Y-113214631D01*
X159679249Y-113214630D01*
X159500004Y-113194435D01*
X159499996Y-113194435D01*
X159320750Y-113214630D01*
X159320745Y-113214631D01*
X159150476Y-113274211D01*
X158997737Y-113370184D01*
X158870184Y-113497737D01*
X158774211Y-113650476D01*
X158714631Y-113820745D01*
X158714630Y-113820750D01*
X158694435Y-113999996D01*
X154600500Y-113999996D01*
X154600500Y-102920945D01*
X154600500Y-102920943D01*
X154559577Y-102768216D01*
X154559576Y-102768214D01*
X154557473Y-102760365D01*
X154559809Y-102759739D01*
X154553658Y-102702472D01*
X154584939Y-102639996D01*
X154645031Y-102604349D01*
X154675686Y-102600500D01*
X155920943Y-102600500D01*
X166634217Y-102600500D01*
X166701256Y-102620185D01*
X166721898Y-102636819D01*
X166963181Y-102878102D01*
X166996666Y-102939425D01*
X166999500Y-102965783D01*
X166999500Y-118099902D01*
X166979815Y-118166941D01*
X166963181Y-118187583D01*
X166481465Y-118669298D01*
X166420142Y-118702783D01*
X166407668Y-118704837D01*
X166320750Y-118714630D01*
X166150478Y-118774210D01*
X165997737Y-118870184D01*
X165870184Y-118997737D01*
X165774211Y-119150476D01*
X165714631Y-119320745D01*
X165714630Y-119320750D01*
X165694435Y-119499996D01*
X165694435Y-119500003D01*
X165714630Y-119679249D01*
X165714631Y-119679254D01*
X165774211Y-119849523D01*
X165870184Y-120002262D01*
X165905741Y-120037819D01*
X165939226Y-120099142D01*
X165934242Y-120168834D01*
X165892370Y-120224767D01*
X165826906Y-120249184D01*
X165818060Y-120249500D01*
X154426080Y-120249500D01*
X154281092Y-120278340D01*
X154281082Y-120278343D01*
X154144506Y-120334914D01*
X154138985Y-120338604D01*
X154072308Y-120359480D01*
X154070097Y-120359500D01*
X149936911Y-120359500D01*
X149813179Y-120384112D01*
X149813167Y-120384115D01*
X149696613Y-120432393D01*
X149696611Y-120432394D01*
X149591704Y-120502490D01*
X149591701Y-120502493D01*
X148531015Y-121563181D01*
X148469692Y-121596666D01*
X148443334Y-121599500D01*
X148405354Y-121599500D01*
X148372897Y-121606398D01*
X148220197Y-121638855D01*
X148220192Y-121638857D01*
X148047270Y-121715848D01*
X148047265Y-121715851D01*
X147894129Y-121827111D01*
X147767466Y-121967785D01*
X147672821Y-122131715D01*
X147672818Y-122131722D01*
X147614327Y-122311740D01*
X147614326Y-122311744D01*
X147594540Y-122500000D01*
X147614326Y-122688256D01*
X147614327Y-122688259D01*
X147672818Y-122868277D01*
X147672821Y-122868284D01*
X147767467Y-123032216D01*
X147870105Y-123146207D01*
X147894129Y-123172888D01*
X148047265Y-123284148D01*
X148047270Y-123284151D01*
X148220192Y-123361142D01*
X148220197Y-123361144D01*
X148405354Y-123400500D01*
X148405355Y-123400500D01*
X148450902Y-123400500D01*
X148517941Y-123420185D01*
X148563696Y-123472989D01*
X148573640Y-123542147D01*
X148544615Y-123605703D01*
X148538583Y-123612181D01*
X148187584Y-123963181D01*
X148126261Y-123996666D01*
X148099903Y-123999500D01*
X142916321Y-123999500D01*
X142849282Y-123979815D01*
X142803527Y-123927011D01*
X142793101Y-123889386D01*
X142785368Y-123820745D01*
X142725789Y-123650478D01*
X142629816Y-123497738D01*
X142502262Y-123370184D01*
X142430927Y-123325361D01*
X142349523Y-123274211D01*
X142179254Y-123214631D01*
X142179249Y-123214630D01*
X141993081Y-123193655D01*
X141993310Y-123191619D01*
X141935860Y-123174750D01*
X141890105Y-123121946D01*
X141880161Y-123052788D01*
X141895512Y-123008435D01*
X141909820Y-122983652D01*
X141946025Y-122920943D01*
X141959577Y-122897471D01*
X142000501Y-122744743D01*
X142000501Y-122586629D01*
X142000501Y-122579034D01*
X142000500Y-122579016D01*
X142000500Y-115999996D01*
X144694435Y-115999996D01*
X144694435Y-116000003D01*
X144714630Y-116179249D01*
X144714631Y-116179254D01*
X144774211Y-116349523D01*
X144862981Y-116490798D01*
X144870184Y-116502262D01*
X144997738Y-116629816D01*
X145109279Y-116699902D01*
X145150478Y-116725789D01*
X145216454Y-116748875D01*
X145273230Y-116789597D01*
X145298978Y-116854549D01*
X145299500Y-116865917D01*
X145299500Y-118074507D01*
X145280494Y-118140478D01*
X145274209Y-118150479D01*
X145214633Y-118320737D01*
X145214630Y-118320750D01*
X145194435Y-118499996D01*
X145194435Y-118500003D01*
X145214630Y-118679249D01*
X145214631Y-118679254D01*
X145274211Y-118849523D01*
X145340407Y-118954873D01*
X145370184Y-119002262D01*
X145497738Y-119129816D01*
X145588080Y-119186582D01*
X145604146Y-119196677D01*
X145650478Y-119225789D01*
X145820745Y-119285368D01*
X145820750Y-119285369D01*
X145999996Y-119305565D01*
X146000000Y-119305565D01*
X146000004Y-119305565D01*
X146179249Y-119285369D01*
X146179252Y-119285368D01*
X146179255Y-119285368D01*
X146349522Y-119225789D01*
X146502262Y-119129816D01*
X146629816Y-119002262D01*
X146630505Y-119001166D01*
X146631132Y-119000610D01*
X146634159Y-118996816D01*
X146634823Y-118997345D01*
X146682838Y-118954873D01*
X146751891Y-118944223D01*
X146815740Y-118972597D01*
X146854114Y-119030985D01*
X146859500Y-119067135D01*
X146859500Y-119683334D01*
X146839815Y-119750373D01*
X146823181Y-119771015D01*
X146417714Y-120176481D01*
X146356391Y-120209966D01*
X146343918Y-120212020D01*
X146320750Y-120214630D01*
X146150478Y-120274210D01*
X145997737Y-120370184D01*
X145870184Y-120497737D01*
X145774211Y-120650476D01*
X145714631Y-120820745D01*
X145714630Y-120820750D01*
X145694435Y-120999996D01*
X145694435Y-121000003D01*
X145714630Y-121179249D01*
X145714631Y-121179254D01*
X145774211Y-121349523D01*
X145870184Y-121502262D01*
X145997738Y-121629816D01*
X146072540Y-121676817D01*
X146147686Y-121724035D01*
X146150478Y-121725789D01*
X146288860Y-121774211D01*
X146320745Y-121785368D01*
X146320750Y-121785369D01*
X146499996Y-121805565D01*
X146500000Y-121805565D01*
X146500004Y-121805565D01*
X146679249Y-121785369D01*
X146679252Y-121785368D01*
X146679255Y-121785368D01*
X146849522Y-121725789D01*
X147002262Y-121629816D01*
X147129816Y-121502262D01*
X147225789Y-121349522D01*
X147285368Y-121179255D01*
X147287978Y-121156081D01*
X147315044Y-121091669D01*
X147323508Y-121082293D01*
X147908292Y-120497510D01*
X147908295Y-120497509D01*
X147997509Y-120408295D01*
X148046539Y-120334916D01*
X148067603Y-120303392D01*
X148067605Y-120303388D01*
X148104369Y-120214632D01*
X148115886Y-120186827D01*
X148140500Y-120063084D01*
X148140500Y-118824500D01*
X148160185Y-118757461D01*
X148212989Y-118711706D01*
X148264500Y-118700500D01*
X149074506Y-118700500D01*
X149140477Y-118719506D01*
X149150474Y-118725787D01*
X149150475Y-118725787D01*
X149150478Y-118725789D01*
X149288860Y-118774211D01*
X149320745Y-118785368D01*
X149320750Y-118785369D01*
X149499996Y-118805565D01*
X149500000Y-118805565D01*
X149500004Y-118805565D01*
X149679249Y-118785369D01*
X149679252Y-118785368D01*
X149679255Y-118785368D01*
X149849522Y-118725789D01*
X150002262Y-118629816D01*
X150129816Y-118502262D01*
X150225789Y-118349522D01*
X150285368Y-118179255D01*
X150285369Y-118179249D01*
X150305565Y-118000003D01*
X150305565Y-117999996D01*
X150285369Y-117820750D01*
X150285368Y-117820745D01*
X150225788Y-117650476D01*
X150186582Y-117588080D01*
X150129816Y-117497738D01*
X150002262Y-117370184D01*
X149930276Y-117324952D01*
X149849521Y-117274210D01*
X149679249Y-117214630D01*
X149592330Y-117204837D01*
X149527916Y-117177770D01*
X149518533Y-117169298D01*
X149136819Y-116787583D01*
X149103334Y-116726260D01*
X149100500Y-116699902D01*
X149100500Y-116003476D01*
X149120185Y-115936437D01*
X149172989Y-115890682D01*
X149242147Y-115880738D01*
X149305703Y-115909763D01*
X149329493Y-115937503D01*
X149370184Y-116002262D01*
X149497738Y-116129816D01*
X149509450Y-116137175D01*
X149632721Y-116214632D01*
X149650478Y-116225789D01*
X149788860Y-116274211D01*
X149820745Y-116285368D01*
X149820750Y-116285369D01*
X149999996Y-116305565D01*
X150000000Y-116305565D01*
X150000004Y-116305565D01*
X150179249Y-116285369D01*
X150179252Y-116285368D01*
X150179255Y-116285368D01*
X150349522Y-116225789D01*
X150502262Y-116129816D01*
X150629816Y-116002262D01*
X150725789Y-115849522D01*
X150785368Y-115679255D01*
X150785369Y-115679249D01*
X150805565Y-115500003D01*
X150805565Y-115499996D01*
X150785369Y-115320750D01*
X150785368Y-115320745D01*
X150741170Y-115194435D01*
X150725789Y-115150478D01*
X150629816Y-114997738D01*
X150629814Y-114997736D01*
X150629813Y-114997734D01*
X150627550Y-114994896D01*
X150626659Y-114992715D01*
X150626111Y-114991842D01*
X150626264Y-114991745D01*
X150601144Y-114930209D01*
X150600500Y-114917587D01*
X150600500Y-110420945D01*
X150600500Y-110420943D01*
X150559577Y-110268216D01*
X150508216Y-110179255D01*
X150480524Y-110131290D01*
X150480521Y-110131286D01*
X150480520Y-110131284D01*
X150368716Y-110019480D01*
X150368715Y-110019479D01*
X150364385Y-110015149D01*
X150364374Y-110015139D01*
X149330700Y-108981465D01*
X149297215Y-108920142D01*
X149295163Y-108907686D01*
X149285368Y-108820745D01*
X149225789Y-108650478D01*
X149129816Y-108497738D01*
X149002262Y-108370184D01*
X148849523Y-108274211D01*
X148679254Y-108214631D01*
X148679249Y-108214630D01*
X148500004Y-108194435D01*
X148499996Y-108194435D01*
X148320750Y-108214630D01*
X148320745Y-108214631D01*
X148150476Y-108274211D01*
X147997737Y-108370184D01*
X147870184Y-108497737D01*
X147774211Y-108650476D01*
X147714631Y-108820745D01*
X147714630Y-108820750D01*
X147694435Y-108999996D01*
X147694435Y-109000004D01*
X147711657Y-109152863D01*
X147699602Y-109221685D01*
X147654410Y-109271739D01*
X147497739Y-109370182D01*
X147370184Y-109497737D01*
X147274211Y-109650476D01*
X147214631Y-109820745D01*
X147214630Y-109820750D01*
X147194435Y-109999996D01*
X147194435Y-110000003D01*
X147214630Y-110179249D01*
X147214631Y-110179254D01*
X147274212Y-110349525D01*
X147280492Y-110359519D01*
X147299500Y-110425493D01*
X147299500Y-116368060D01*
X147279815Y-116435099D01*
X147227011Y-116480854D01*
X147157853Y-116490798D01*
X147094297Y-116461773D01*
X147087819Y-116455741D01*
X147002262Y-116370184D01*
X146849523Y-116274211D01*
X146679254Y-116214631D01*
X146679249Y-116214630D01*
X146535160Y-116198396D01*
X146470746Y-116171330D01*
X146441656Y-116137177D01*
X146380520Y-116031284D01*
X146330700Y-115981464D01*
X146297215Y-115920141D01*
X146295163Y-115907684D01*
X146285368Y-115820745D01*
X146225789Y-115650478D01*
X146129816Y-115497738D01*
X146002262Y-115370184D01*
X145969377Y-115349521D01*
X145849523Y-115274211D01*
X145679254Y-115214631D01*
X145679249Y-115214630D01*
X145500004Y-115194435D01*
X145499996Y-115194435D01*
X145320750Y-115214630D01*
X145320745Y-115214631D01*
X145150476Y-115274211D01*
X144997737Y-115370184D01*
X144870184Y-115497737D01*
X144774211Y-115650476D01*
X144714631Y-115820745D01*
X144714630Y-115820750D01*
X144694435Y-115999996D01*
X142000500Y-115999996D01*
X142000500Y-100916321D01*
X142020185Y-100849282D01*
X142072989Y-100803527D01*
X142110613Y-100793101D01*
X142179255Y-100785368D01*
X142349522Y-100725789D01*
X142502262Y-100629816D01*
X142629816Y-100502262D01*
X142725789Y-100349522D01*
X142785368Y-100179255D01*
X142785369Y-100179249D01*
X142805565Y-100000003D01*
X142805565Y-99999996D01*
X142785369Y-99820750D01*
X142785368Y-99820745D01*
X142779295Y-99803390D01*
X142725789Y-99650478D01*
X142718486Y-99638856D01*
X142636053Y-99507664D01*
X142629816Y-99497738D01*
X142502262Y-99370184D01*
X142400439Y-99306204D01*
X142349521Y-99274210D01*
X142332447Y-99268236D01*
X142275671Y-99227514D01*
X142249923Y-99162562D01*
X142263379Y-99094000D01*
X142285716Y-99063517D01*
X143212416Y-98136819D01*
X143273739Y-98103334D01*
X143300097Y-98100500D01*
X144417588Y-98100500D01*
X144484627Y-98120185D01*
X144494903Y-98127555D01*
X144497736Y-98129814D01*
X144497738Y-98129816D01*
X144650478Y-98225789D01*
X144820745Y-98285368D01*
X144820750Y-98285369D01*
X144999996Y-98305565D01*
X145000000Y-98305565D01*
X145000004Y-98305565D01*
X145179249Y-98285369D01*
X145179252Y-98285368D01*
X145179255Y-98285368D01*
X145349522Y-98225789D01*
X145502262Y-98129816D01*
X145629816Y-98002262D01*
X145725789Y-97849522D01*
X145785368Y-97679255D01*
X145805565Y-97500000D01*
X145789805Y-97360128D01*
X145785369Y-97320750D01*
X145785368Y-97320745D01*
X145745703Y-97207389D01*
X145725789Y-97150478D01*
X145704778Y-97117040D01*
X145629815Y-96997737D01*
X145502262Y-96870184D01*
X145349523Y-96774211D01*
X145179254Y-96714631D01*
X145179249Y-96714630D01*
X145000004Y-96694435D01*
X144999996Y-96694435D01*
X144820750Y-96714630D01*
X144820745Y-96714631D01*
X144650476Y-96774211D01*
X144497736Y-96870185D01*
X144494903Y-96872445D01*
X144492724Y-96873334D01*
X144491842Y-96873889D01*
X144491744Y-96873734D01*
X144430217Y-96898855D01*
X144417588Y-96899500D01*
X144077745Y-96899500D01*
X144010706Y-96879815D01*
X143964951Y-96827011D01*
X143954525Y-96761618D01*
X143960379Y-96709657D01*
X143960379Y-96709648D01*
X143940183Y-96530402D01*
X143940182Y-96530397D01*
X143915870Y-96460917D01*
X143880603Y-96360130D01*
X143784630Y-96207390D01*
X143657076Y-96079836D01*
X143504336Y-95983863D01*
X143504333Y-95983861D01*
X143381279Y-95940802D01*
X143324503Y-95900081D01*
X143305192Y-95864715D01*
X143280602Y-95794441D01*
X143228747Y-95711915D01*
X143184630Y-95641703D01*
X143104760Y-95561833D01*
X143071275Y-95500510D01*
X143076259Y-95430818D01*
X143118131Y-95374885D01*
X143183595Y-95350468D01*
X143192441Y-95350152D01*
X145133831Y-95350152D01*
X145199803Y-95369158D01*
X145305291Y-95435441D01*
X145305295Y-95435442D01*
X145475551Y-95495018D01*
X145475557Y-95495019D01*
X145475559Y-95495020D01*
X145475560Y-95495020D01*
X145475564Y-95495021D01*
X145654810Y-95515217D01*
X145654814Y-95515217D01*
X145654818Y-95515217D01*
X145834063Y-95495021D01*
X145834066Y-95495020D01*
X145834069Y-95495020D01*
X146004336Y-95435441D01*
X146157076Y-95339468D01*
X146284630Y-95211914D01*
X146380603Y-95059174D01*
X146440182Y-94888907D01*
X146440183Y-94888901D01*
X146460379Y-94709655D01*
X146460379Y-94709648D01*
X146440183Y-94530402D01*
X146440182Y-94530397D01*
X146396928Y-94406785D01*
X146380603Y-94360130D01*
X146284630Y-94207390D01*
X146157076Y-94079836D01*
X146140073Y-94069152D01*
X146004337Y-93983863D01*
X145834068Y-93924283D01*
X145834063Y-93924282D01*
X145654818Y-93904087D01*
X145654810Y-93904087D01*
X145475564Y-93924282D01*
X145475551Y-93924285D01*
X145305295Y-93983861D01*
X145305291Y-93983862D01*
X145199803Y-94050146D01*
X145133831Y-94069152D01*
X133529314Y-94069152D01*
X133462275Y-94049467D01*
X133416520Y-93996663D01*
X133405314Y-93945152D01*
X133405313Y-92411781D01*
X133405312Y-92411775D01*
X133405311Y-92411768D01*
X133398905Y-92352169D01*
X133348610Y-92217321D01*
X133348609Y-92217320D01*
X133348607Y-92217316D01*
X133262361Y-92102107D01*
X133262358Y-92102104D01*
X133147149Y-92015858D01*
X133147142Y-92015854D01*
X133012296Y-91965560D01*
X133012297Y-91965560D01*
X132952697Y-91959153D01*
X132952695Y-91959152D01*
X132952687Y-91959152D01*
X132952678Y-91959152D01*
X131356943Y-91959152D01*
X131356937Y-91959153D01*
X131297330Y-91965560D01*
X131162485Y-92015854D01*
X131162478Y-92015858D01*
X131047269Y-92102104D01*
X131047266Y-92102107D01*
X130961020Y-92217316D01*
X130961016Y-92217323D01*
X130910722Y-92352169D01*
X130904315Y-92411768D01*
X130904314Y-92411779D01*
X130904314Y-93179255D01*
X130904315Y-93945152D01*
X130884630Y-94012191D01*
X130831827Y-94057946D01*
X130780315Y-94069152D01*
X121017999Y-94069152D01*
X120950960Y-94049467D01*
X120930318Y-94032833D01*
X117569318Y-90671833D01*
X117535833Y-90610510D01*
X117540817Y-90540818D01*
X117582689Y-90484885D01*
X117648153Y-90460468D01*
X117656999Y-90460152D01*
X122615477Y-90460152D01*
X122682516Y-90479837D01*
X122688362Y-90483834D01*
X122702079Y-90493800D01*
X122702084Y-90493803D01*
X122875006Y-90570794D01*
X122875011Y-90570796D01*
X123060168Y-90610152D01*
X123060169Y-90610152D01*
X123249458Y-90610152D01*
X123249460Y-90610152D01*
X123434617Y-90570796D01*
X123607544Y-90493803D01*
X123760685Y-90382540D01*
X123887347Y-90241868D01*
X123981993Y-90077936D01*
X124040488Y-89897908D01*
X124060274Y-89709652D01*
X124040488Y-89521396D01*
X123981993Y-89341368D01*
X123887347Y-89177436D01*
X123760685Y-89036764D01*
X123760684Y-89036763D01*
X123607548Y-88925503D01*
X123607543Y-88925500D01*
X123434621Y-88848509D01*
X123434616Y-88848507D01*
X123288815Y-88817517D01*
X123249460Y-88809152D01*
X123060168Y-88809152D01*
X123027711Y-88816050D01*
X122875011Y-88848507D01*
X122875006Y-88848509D01*
X122702084Y-88925500D01*
X122702079Y-88925503D01*
X122688362Y-88935470D01*
X122622556Y-88958950D01*
X122615477Y-88959152D01*
X118017043Y-88959152D01*
X117950004Y-88939467D01*
X117929362Y-88922833D01*
X117067584Y-88061054D01*
X117037335Y-88011693D01*
X117002372Y-87904087D01*
X116981995Y-87841373D01*
X116981992Y-87841367D01*
X116980895Y-87839467D01*
X116887347Y-87677436D01*
X116760685Y-87536764D01*
X116753536Y-87531570D01*
X116607548Y-87425503D01*
X116607543Y-87425500D01*
X116434621Y-87348509D01*
X116434616Y-87348507D01*
X116263715Y-87312182D01*
X116249460Y-87309152D01*
X116060168Y-87309152D01*
X116045913Y-87312182D01*
X115875011Y-87348507D01*
X115875006Y-87348509D01*
X115702084Y-87425500D01*
X115702079Y-87425503D01*
X115548943Y-87536763D01*
X115422280Y-87677437D01*
X115327635Y-87841367D01*
X115327632Y-87841374D01*
X115271103Y-88015355D01*
X115269140Y-88021396D01*
X115263033Y-88079498D01*
X115263002Y-88079797D01*
X115236417Y-88144411D01*
X115179119Y-88184395D01*
X115109300Y-88187055D01*
X115052000Y-88154515D01*
X113107137Y-86209652D01*
X131249354Y-86209652D01*
X131269140Y-86397908D01*
X131269141Y-86397911D01*
X131327632Y-86577929D01*
X131327635Y-86577936D01*
X131424241Y-86745263D01*
X131440714Y-86813163D01*
X131430547Y-86853286D01*
X131431324Y-86853558D01*
X131369447Y-87030389D01*
X131369444Y-87030402D01*
X131349249Y-87209648D01*
X131349249Y-87209655D01*
X131369444Y-87388901D01*
X131369445Y-87388906D01*
X131429025Y-87559175D01*
X131503334Y-87677436D01*
X131524998Y-87711914D01*
X131652552Y-87839468D01*
X131742894Y-87896234D01*
X131787535Y-87924284D01*
X131805292Y-87935441D01*
X131852455Y-87951944D01*
X131975559Y-87995020D01*
X131975564Y-87995021D01*
X132154810Y-88015217D01*
X132154814Y-88015217D01*
X132154818Y-88015217D01*
X132334063Y-87995021D01*
X132334066Y-87995020D01*
X132334069Y-87995020D01*
X132504336Y-87935441D01*
X132657076Y-87839468D01*
X132657081Y-87839462D01*
X132659911Y-87837207D01*
X132662089Y-87836317D01*
X132662972Y-87835763D01*
X132663069Y-87835917D01*
X132724597Y-87810797D01*
X132737226Y-87810152D01*
X133651338Y-87810152D01*
X133718377Y-87829837D01*
X133764132Y-87882641D01*
X133774076Y-87951799D01*
X133745051Y-88015355D01*
X133717310Y-88039146D01*
X133652551Y-88079836D01*
X133524998Y-88207389D01*
X133429025Y-88360128D01*
X133369445Y-88530397D01*
X133369444Y-88530402D01*
X133349249Y-88709648D01*
X133349249Y-88709655D01*
X133369444Y-88888901D01*
X133369445Y-88888906D01*
X133429025Y-89059175D01*
X133503334Y-89177436D01*
X133524998Y-89211914D01*
X133652552Y-89339468D01*
X133805292Y-89435441D01*
X133975559Y-89495020D01*
X133998727Y-89497630D01*
X134063140Y-89524693D01*
X134072527Y-89533169D01*
X136947653Y-92408295D01*
X137036867Y-92497509D01*
X137036870Y-92497511D01*
X137036871Y-92497512D01*
X137141769Y-92567603D01*
X137141773Y-92567605D01*
X137258330Y-92615884D01*
X137258335Y-92615886D01*
X137382073Y-92640499D01*
X137382076Y-92640500D01*
X137382078Y-92640500D01*
X153128496Y-92640500D01*
X153195535Y-92660185D01*
X153216177Y-92676819D01*
X153331295Y-92791937D01*
X153364780Y-92853260D01*
X153366834Y-92865733D01*
X153369444Y-92888901D01*
X153429024Y-93059173D01*
X153461824Y-93111373D01*
X153524998Y-93211914D01*
X153652552Y-93339468D01*
X153676725Y-93354657D01*
X153676727Y-93354658D01*
X153723018Y-93406993D01*
X153733666Y-93476047D01*
X153705291Y-93539895D01*
X153676727Y-93564646D01*
X153652550Y-93579837D01*
X153649717Y-93582097D01*
X153647538Y-93582986D01*
X153646656Y-93583541D01*
X153646558Y-93583386D01*
X153585031Y-93608507D01*
X153572402Y-93609152D01*
X151082412Y-93609152D01*
X151015373Y-93589467D01*
X151005097Y-93582097D01*
X151002263Y-93579837D01*
X151002262Y-93579836D01*
X150894800Y-93512313D01*
X150849523Y-93483863D01*
X150679254Y-93424283D01*
X150679249Y-93424282D01*
X150500004Y-93404087D01*
X150499996Y-93404087D01*
X150320750Y-93424282D01*
X150320745Y-93424283D01*
X150150476Y-93483863D01*
X149997737Y-93579836D01*
X149870184Y-93707389D01*
X149774211Y-93860128D01*
X149714631Y-94030397D01*
X149714630Y-94030402D01*
X149694435Y-94209648D01*
X149694435Y-94209655D01*
X149714630Y-94388901D01*
X149714631Y-94388906D01*
X149774211Y-94559175D01*
X149831581Y-94650478D01*
X149870184Y-94711914D01*
X149997738Y-94839468D01*
X150076410Y-94888901D01*
X150106277Y-94907668D01*
X150150478Y-94935441D01*
X150194326Y-94950784D01*
X150320745Y-94995020D01*
X150320750Y-94995021D01*
X150499996Y-95015217D01*
X150500000Y-95015217D01*
X150500004Y-95015217D01*
X150679249Y-94995021D01*
X150679252Y-94995020D01*
X150679255Y-94995020D01*
X150849522Y-94935441D01*
X151002262Y-94839468D01*
X151002267Y-94839462D01*
X151005097Y-94837207D01*
X151007275Y-94836317D01*
X151008158Y-94835763D01*
X151008255Y-94835917D01*
X151069783Y-94810797D01*
X151082412Y-94810152D01*
X153572402Y-94810152D01*
X153639441Y-94829837D01*
X153649717Y-94837207D01*
X153652550Y-94839466D01*
X153652552Y-94839468D01*
X153805292Y-94935441D01*
X153849140Y-94950784D01*
X153975559Y-94995020D01*
X153975564Y-94995021D01*
X154154810Y-95015217D01*
X154154814Y-95015217D01*
X154154818Y-95015217D01*
X154334063Y-94995021D01*
X154334066Y-94995020D01*
X154334069Y-94995020D01*
X154504336Y-94935441D01*
X154657076Y-94839468D01*
X154784630Y-94711914D01*
X154880603Y-94559174D01*
X154940182Y-94388907D01*
X154942487Y-94368448D01*
X154960379Y-94209655D01*
X154960379Y-94209648D01*
X154940183Y-94030402D01*
X154940182Y-94030397D01*
X154880602Y-93860128D01*
X154784629Y-93707389D01*
X154657078Y-93579838D01*
X154657076Y-93579836D01*
X154632898Y-93564644D01*
X154586610Y-93512313D01*
X154575960Y-93443259D01*
X154604335Y-93379410D01*
X154632896Y-93354661D01*
X154657076Y-93339468D01*
X154784630Y-93211914D01*
X154880603Y-93059174D01*
X154886577Y-93042102D01*
X154927297Y-92985326D01*
X154992250Y-92959577D01*
X155060812Y-92973032D01*
X155091300Y-92995374D01*
X157286098Y-95190172D01*
X157286100Y-95190173D01*
X157286104Y-95190176D01*
X157423023Y-95269225D01*
X157423030Y-95269229D01*
X157575757Y-95310153D01*
X157575759Y-95310153D01*
X157741468Y-95310153D01*
X157741484Y-95310152D01*
X161072402Y-95310152D01*
X161139441Y-95329837D01*
X161149717Y-95337207D01*
X161152550Y-95339466D01*
X161152552Y-95339468D01*
X161231224Y-95388901D01*
X161297934Y-95430818D01*
X161305292Y-95435441D01*
X161415922Y-95474152D01*
X161475559Y-95495020D01*
X161475564Y-95495021D01*
X161654810Y-95515217D01*
X161654814Y-95515217D01*
X161654818Y-95515217D01*
X161834063Y-95495021D01*
X161834066Y-95495020D01*
X161834069Y-95495020D01*
X162004336Y-95435441D01*
X162157076Y-95339468D01*
X162284630Y-95211914D01*
X162380603Y-95059174D01*
X162440182Y-94888907D01*
X162440183Y-94888901D01*
X162460379Y-94709655D01*
X162460379Y-94709648D01*
X162440183Y-94530402D01*
X162440182Y-94530397D01*
X162396928Y-94406785D01*
X162380603Y-94360130D01*
X162284630Y-94207390D01*
X162157076Y-94079836D01*
X162140073Y-94069152D01*
X162004337Y-93983863D01*
X161834068Y-93924283D01*
X161834063Y-93924282D01*
X161654818Y-93904087D01*
X161654810Y-93904087D01*
X161475564Y-93924282D01*
X161475559Y-93924283D01*
X161305290Y-93983863D01*
X161152550Y-94079837D01*
X161149717Y-94082097D01*
X161147538Y-94082986D01*
X161146656Y-94083541D01*
X161146558Y-94083386D01*
X161085031Y-94108507D01*
X161072402Y-94109152D01*
X157954912Y-94109152D01*
X157887873Y-94089467D01*
X157867231Y-94072833D01*
X157440536Y-93646138D01*
X157407051Y-93584815D01*
X157412035Y-93515123D01*
X157453907Y-93459190D01*
X157487263Y-93441415D01*
X157504336Y-93435441D01*
X157609825Y-93369157D01*
X157675797Y-93350152D01*
X162133831Y-93350152D01*
X162199803Y-93369158D01*
X162305291Y-93435441D01*
X162305295Y-93435442D01*
X162475551Y-93495018D01*
X162475557Y-93495019D01*
X162475559Y-93495020D01*
X162475560Y-93495020D01*
X162475564Y-93495021D01*
X162654810Y-93515217D01*
X162654814Y-93515217D01*
X162654818Y-93515217D01*
X162834063Y-93495021D01*
X162834066Y-93495020D01*
X162834069Y-93495020D01*
X163004336Y-93435441D01*
X163157076Y-93339468D01*
X163284630Y-93211914D01*
X163380603Y-93059174D01*
X163440182Y-92888907D01*
X163443846Y-92856391D01*
X163460379Y-92709655D01*
X163460379Y-92709648D01*
X163440183Y-92530402D01*
X163440182Y-92530397D01*
X163410744Y-92446268D01*
X163380603Y-92360130D01*
X163284630Y-92207390D01*
X163157076Y-92079836D01*
X163055253Y-92015856D01*
X163004337Y-91983863D01*
X162834068Y-91924283D01*
X162834063Y-91924282D01*
X162654818Y-91904087D01*
X162654810Y-91904087D01*
X162475564Y-91924282D01*
X162475551Y-91924285D01*
X162305295Y-91983861D01*
X162305291Y-91983862D01*
X162199803Y-92050146D01*
X162133831Y-92069152D01*
X157675797Y-92069152D01*
X157609825Y-92050146D01*
X157504336Y-91983862D01*
X157504332Y-91983861D01*
X157334076Y-91924285D01*
X157334063Y-91924282D01*
X157154818Y-91904087D01*
X157154810Y-91904087D01*
X156975564Y-91924282D01*
X156975559Y-91924283D01*
X156805290Y-91983863D01*
X156652551Y-92079836D01*
X156524998Y-92207389D01*
X156429023Y-92360132D01*
X156423048Y-92377207D01*
X156382325Y-92433981D01*
X156317371Y-92459726D01*
X156248810Y-92446268D01*
X156218327Y-92423929D01*
X154856231Y-91061833D01*
X154822746Y-91000510D01*
X154827730Y-90930818D01*
X154869602Y-90874885D01*
X154935066Y-90850468D01*
X154943912Y-90850152D01*
X164133831Y-90850152D01*
X164199803Y-90869158D01*
X164305291Y-90935441D01*
X164305295Y-90935442D01*
X164475551Y-90995018D01*
X164475557Y-90995019D01*
X164475559Y-90995020D01*
X164475560Y-90995020D01*
X164475564Y-90995021D01*
X164654810Y-91015217D01*
X164654814Y-91015217D01*
X164654818Y-91015217D01*
X164834063Y-90995021D01*
X164834066Y-90995020D01*
X164834069Y-90995020D01*
X165004336Y-90935441D01*
X165157076Y-90839468D01*
X165284630Y-90711914D01*
X165380603Y-90559174D01*
X165440182Y-90388907D01*
X165440183Y-90388901D01*
X165460379Y-90209655D01*
X165460379Y-90209648D01*
X165440183Y-90030402D01*
X165440182Y-90030397D01*
X165380602Y-89860128D01*
X165284629Y-89707389D01*
X165157076Y-89579836D01*
X165004337Y-89483863D01*
X164834068Y-89424283D01*
X164834063Y-89424282D01*
X164654818Y-89404087D01*
X164654810Y-89404087D01*
X164475564Y-89424282D01*
X164475551Y-89424285D01*
X164305295Y-89483861D01*
X164305291Y-89483862D01*
X164199803Y-89550146D01*
X164133831Y-89569152D01*
X155419314Y-89569152D01*
X155352275Y-89549467D01*
X155306520Y-89496663D01*
X155295314Y-89445152D01*
X155295314Y-87312179D01*
X155295313Y-87312177D01*
X155294711Y-87309152D01*
X155270700Y-87188439D01*
X155257718Y-87157097D01*
X155222419Y-87071877D01*
X155222417Y-87071873D01*
X155152326Y-86966975D01*
X155152325Y-86966974D01*
X155152323Y-86966971D01*
X155063109Y-86877757D01*
X154026719Y-85841367D01*
X152897498Y-84712145D01*
X152897495Y-84712142D01*
X152792588Y-84642046D01*
X152792586Y-84642045D01*
X152676032Y-84593767D01*
X152676020Y-84593764D01*
X152552288Y-84569152D01*
X152552284Y-84569152D01*
X141175797Y-84569152D01*
X141109825Y-84550146D01*
X141004336Y-84483862D01*
X141004332Y-84483861D01*
X140834076Y-84424285D01*
X140834063Y-84424282D01*
X140654818Y-84404087D01*
X140654810Y-84404087D01*
X140475564Y-84424282D01*
X140475559Y-84424283D01*
X140305290Y-84483863D01*
X140152551Y-84579836D01*
X140024998Y-84707389D01*
X139929025Y-84860128D01*
X139869445Y-85030397D01*
X139869444Y-85030402D01*
X139849249Y-85209648D01*
X139849249Y-85209654D01*
X139861825Y-85321268D01*
X139849771Y-85390090D01*
X139802422Y-85441470D01*
X139738605Y-85459152D01*
X132694151Y-85459152D01*
X132627112Y-85439467D01*
X132621266Y-85435470D01*
X132607548Y-85425503D01*
X132607543Y-85425500D01*
X132434621Y-85348509D01*
X132434616Y-85348507D01*
X132288815Y-85317517D01*
X132249460Y-85309152D01*
X132060168Y-85309152D01*
X132027711Y-85316050D01*
X131875011Y-85348507D01*
X131875006Y-85348509D01*
X131702084Y-85425500D01*
X131702079Y-85425503D01*
X131548943Y-85536763D01*
X131422280Y-85677437D01*
X131327635Y-85841367D01*
X131327632Y-85841374D01*
X131292441Y-85949682D01*
X131269140Y-86021396D01*
X131249354Y-86209652D01*
X113107137Y-86209652D01*
X110109631Y-83212145D01*
X110109628Y-83212142D01*
X110004721Y-83142046D01*
X110004719Y-83142045D01*
X109888165Y-83093767D01*
X109888153Y-83093764D01*
X109871985Y-83090548D01*
X118752684Y-83090548D01*
X118854897Y-83153836D01*
X118854901Y-83153838D01*
X119053629Y-83230825D01*
X119053634Y-83230826D01*
X119263132Y-83269989D01*
X119476254Y-83269989D01*
X119685751Y-83230826D01*
X119685756Y-83230825D01*
X119884484Y-83153838D01*
X119884491Y-83153835D01*
X119986699Y-83090549D01*
X119986699Y-83090548D01*
X119986445Y-83090294D01*
X123602570Y-83090294D01*
X123704783Y-83153582D01*
X123704787Y-83153584D01*
X123903515Y-83230571D01*
X123903520Y-83230572D01*
X124113018Y-83269735D01*
X124326140Y-83269735D01*
X124535637Y-83230572D01*
X124535642Y-83230571D01*
X124734370Y-83153584D01*
X124734377Y-83153581D01*
X124836585Y-83090295D01*
X124836585Y-83090294D01*
X124219580Y-82473288D01*
X124219579Y-82473288D01*
X123602570Y-83090294D01*
X119986445Y-83090294D01*
X119369694Y-82473542D01*
X119369693Y-82473542D01*
X118752684Y-83090548D01*
X109871985Y-83090548D01*
X109764421Y-83069152D01*
X109764417Y-83069152D01*
X107717898Y-83069152D01*
X107591730Y-83069152D01*
X107591727Y-83069152D01*
X107467994Y-83093764D01*
X107467982Y-83093767D01*
X107351425Y-83142046D01*
X107351421Y-83142048D01*
X107246523Y-83212139D01*
X107246515Y-83212145D01*
X107157307Y-83301353D01*
X107157301Y-83301361D01*
X107087210Y-83406259D01*
X107087208Y-83406263D01*
X107038929Y-83522820D01*
X107038926Y-83522832D01*
X107014314Y-83646563D01*
X107014314Y-86690322D01*
X106994629Y-86757361D01*
X106956286Y-86795316D01*
X106917215Y-86819865D01*
X106789661Y-86947419D01*
X106693688Y-87100158D01*
X106634108Y-87270427D01*
X106634107Y-87270432D01*
X106613912Y-87449678D01*
X106613912Y-87449685D01*
X106634107Y-87628931D01*
X106634108Y-87628936D01*
X106693688Y-87799205D01*
X106728061Y-87853909D01*
X106789661Y-87951944D01*
X106917215Y-88079498D01*
X107069955Y-88175471D01*
X107164504Y-88208555D01*
X107240222Y-88235050D01*
X107240227Y-88235051D01*
X107419473Y-88255247D01*
X107419477Y-88255247D01*
X107419481Y-88255247D01*
X107598726Y-88235051D01*
X107598729Y-88235050D01*
X107598732Y-88235050D01*
X107768999Y-88175471D01*
X107921739Y-88079498D01*
X108049293Y-87951944D01*
X108145266Y-87799204D01*
X108204845Y-87628937D01*
X108214256Y-87545406D01*
X108222912Y-87511847D01*
X108270700Y-87396479D01*
X108295314Y-87272736D01*
X108295314Y-84474152D01*
X108314999Y-84407113D01*
X108367803Y-84361358D01*
X108419314Y-84350152D01*
X109384667Y-84350152D01*
X109451706Y-84369837D01*
X109472348Y-84386471D01*
X109943138Y-84857261D01*
X109976623Y-84918584D01*
X109971639Y-84988276D01*
X109929767Y-85044209D01*
X109864303Y-85068626D01*
X109829677Y-85066232D01*
X109749461Y-85049182D01*
X109749460Y-85049182D01*
X109560168Y-85049182D01*
X109527711Y-85056080D01*
X109375011Y-85088537D01*
X109375006Y-85088539D01*
X109202084Y-85165530D01*
X109202079Y-85165533D01*
X109048943Y-85276793D01*
X108922280Y-85417467D01*
X108827635Y-85581397D01*
X108827632Y-85581404D01*
X108769141Y-85761422D01*
X108769140Y-85761426D01*
X108749354Y-85949682D01*
X108769140Y-86137938D01*
X108769141Y-86137941D01*
X108827632Y-86317959D01*
X108827635Y-86317966D01*
X108922281Y-86481898D01*
X109048943Y-86622570D01*
X109202079Y-86733830D01*
X109202084Y-86733833D01*
X109375005Y-86810824D01*
X109375008Y-86810824D01*
X109375011Y-86810826D01*
X109409035Y-86818057D01*
X109440143Y-86824670D01*
X109501625Y-86857862D01*
X109502044Y-86858279D01*
X109713181Y-87069416D01*
X109746666Y-87130739D01*
X109749500Y-87157097D01*
X109749500Y-93044334D01*
X109729815Y-93111373D01*
X109677011Y-93157128D01*
X109607853Y-93167072D01*
X109544297Y-93138047D01*
X109537819Y-93132015D01*
X109323517Y-92917714D01*
X109290032Y-92856391D01*
X109287979Y-92843927D01*
X109285368Y-92820745D01*
X109225789Y-92650478D01*
X109129816Y-92497738D01*
X109002262Y-92370184D01*
X108986258Y-92360128D01*
X108849523Y-92274211D01*
X108679254Y-92214631D01*
X108679249Y-92214630D01*
X108500004Y-92194435D01*
X108499996Y-92194435D01*
X108320750Y-92214630D01*
X108320745Y-92214631D01*
X108150476Y-92274211D01*
X107997737Y-92370184D01*
X107870184Y-92497737D01*
X107774211Y-92650476D01*
X107714631Y-92820745D01*
X107714630Y-92820750D01*
X107694435Y-92999996D01*
X107694435Y-93000003D01*
X107714630Y-93179249D01*
X107714631Y-93179254D01*
X107774211Y-93349523D01*
X107828198Y-93435442D01*
X107870184Y-93502262D01*
X107997738Y-93629816D01*
X108150478Y-93725789D01*
X108320745Y-93785368D01*
X108343913Y-93787978D01*
X108408326Y-93815041D01*
X108417714Y-93823517D01*
X108592481Y-93998284D01*
X108625966Y-94059607D01*
X108620982Y-94129299D01*
X108579110Y-94185232D01*
X108513646Y-94209649D01*
X108490917Y-94209185D01*
X108360004Y-94194435D01*
X108359996Y-94194435D01*
X108180750Y-94214630D01*
X108180745Y-94214631D01*
X108010476Y-94274211D01*
X107857737Y-94370184D01*
X107730184Y-94497737D01*
X107634210Y-94650478D01*
X107574630Y-94820750D01*
X107564837Y-94907668D01*
X107537770Y-94972082D01*
X107529299Y-94981465D01*
X107419478Y-95091286D01*
X107369361Y-95178094D01*
X107369359Y-95178096D01*
X107340425Y-95228209D01*
X107340424Y-95228210D01*
X107340423Y-95228215D01*
X107299499Y-95380943D01*
X107299499Y-95380945D01*
X107299499Y-95549046D01*
X107299500Y-95549059D01*
X107299500Y-112813330D01*
X107299499Y-112813348D01*
X107299499Y-112979058D01*
X107310137Y-113018760D01*
X107308474Y-113088610D01*
X107295358Y-113116821D01*
X107274209Y-113150481D01*
X107214633Y-113320737D01*
X107214630Y-113320750D01*
X107194435Y-113499996D01*
X107194435Y-113500003D01*
X107214630Y-113679249D01*
X107214631Y-113679254D01*
X107274211Y-113849523D01*
X107319088Y-113920944D01*
X107370184Y-114002262D01*
X107497738Y-114129816D01*
X107650478Y-114225789D01*
X107816455Y-114283867D01*
X107873230Y-114324588D01*
X107898978Y-114389540D01*
X107899500Y-114400908D01*
X107899500Y-116417587D01*
X107879815Y-116484626D01*
X107872450Y-116494896D01*
X107870186Y-116497734D01*
X107774211Y-116650476D01*
X107714631Y-116820745D01*
X107714630Y-116820750D01*
X107694435Y-116999996D01*
X107694435Y-117000003D01*
X107714630Y-117179249D01*
X107714632Y-117179257D01*
X107719982Y-117194546D01*
X107723543Y-117264325D01*
X107688814Y-117324952D01*
X107626820Y-117357179D01*
X107602940Y-117359500D01*
X107020983Y-117359500D01*
X106955011Y-117340494D01*
X106849522Y-117274210D01*
X106849518Y-117274209D01*
X106679262Y-117214633D01*
X106679249Y-117214630D01*
X106500004Y-117194435D01*
X106499996Y-117194435D01*
X106320750Y-117214630D01*
X106320745Y-117214631D01*
X106150476Y-117274211D01*
X105997737Y-117370184D01*
X105870184Y-117497737D01*
X105774211Y-117650476D01*
X105714631Y-117820745D01*
X105714630Y-117820750D01*
X105694435Y-117999996D01*
X105694435Y-118000003D01*
X105714630Y-118179249D01*
X105714631Y-118179254D01*
X105774211Y-118349523D01*
X105867196Y-118497506D01*
X105870184Y-118502262D01*
X105997738Y-118629816D01*
X106060573Y-118669298D01*
X106150474Y-118725787D01*
X106150478Y-118725789D01*
X106288857Y-118774210D01*
X106320745Y-118785368D01*
X106320750Y-118785369D01*
X106499996Y-118805565D01*
X106500000Y-118805565D01*
X106500004Y-118805565D01*
X106679249Y-118785369D01*
X106679251Y-118785368D01*
X106679255Y-118785368D01*
X106679258Y-118785366D01*
X106679262Y-118785366D01*
X106769377Y-118753832D01*
X106849522Y-118725789D01*
X106955011Y-118659505D01*
X107020983Y-118640500D01*
X111063085Y-118640500D01*
X111063086Y-118640499D01*
X111186828Y-118615886D01*
X111303391Y-118567604D01*
X111408295Y-118497509D01*
X112408292Y-117497510D01*
X112408295Y-117497509D01*
X112497509Y-117408295D01*
X112567604Y-117303390D01*
X112574389Y-117287011D01*
X112583785Y-117264325D01*
X112615886Y-117186827D01*
X112640500Y-117063084D01*
X112640500Y-113520982D01*
X112659507Y-113455009D01*
X112725788Y-113349524D01*
X112725789Y-113349522D01*
X112785368Y-113179255D01*
X112788610Y-113150481D01*
X112805565Y-113000003D01*
X112805565Y-112999996D01*
X112785369Y-112820750D01*
X112785368Y-112820745D01*
X112741250Y-112694663D01*
X112725789Y-112650478D01*
X112629816Y-112497738D01*
X112502262Y-112370184D01*
X112349521Y-112274210D01*
X112179249Y-112214630D01*
X112156081Y-112212020D01*
X112091667Y-112184953D01*
X112082285Y-112176481D01*
X109456296Y-109550492D01*
X109422811Y-109489169D01*
X109419977Y-109462811D01*
X109419977Y-100037189D01*
X109439662Y-99970150D01*
X109456297Y-99949507D01*
X109497506Y-99908298D01*
X109497509Y-99908295D01*
X109546541Y-99834913D01*
X109567603Y-99803392D01*
X109567605Y-99803388D01*
X109603864Y-99715851D01*
X109615886Y-99686827D01*
X109621980Y-99656188D01*
X109654362Y-99594279D01*
X109715077Y-99559703D01*
X109784847Y-99563441D01*
X109841520Y-99604306D01*
X109850984Y-99618379D01*
X109922280Y-99741866D01*
X109922279Y-99741866D01*
X110048943Y-99882540D01*
X110202079Y-99993800D01*
X110202084Y-99993803D01*
X110375006Y-100070794D01*
X110375011Y-100070796D01*
X110560168Y-100110152D01*
X110560169Y-100110152D01*
X110749458Y-100110152D01*
X110749460Y-100110152D01*
X110934617Y-100070796D01*
X111107544Y-99993803D01*
X111260685Y-99882540D01*
X111387347Y-99741868D01*
X111481993Y-99577936D01*
X111540488Y-99397908D01*
X111560274Y-99209652D01*
X111540488Y-99021396D01*
X111481993Y-98841368D01*
X111387347Y-98677436D01*
X111282350Y-98560825D01*
X111252120Y-98497834D01*
X111250500Y-98477853D01*
X111250500Y-86720949D01*
X111239234Y-86664316D01*
X111239234Y-86664311D01*
X111228631Y-86611009D01*
X111221659Y-86575956D01*
X111167408Y-86444985D01*
X111165764Y-86440391D01*
X111139287Y-86400764D01*
X111118409Y-86334087D01*
X111136894Y-86266707D01*
X111188873Y-86220017D01*
X111257843Y-86208841D01*
X111321906Y-86236727D01*
X111330070Y-86244193D01*
X119361647Y-94275770D01*
X119395132Y-94337093D01*
X119390148Y-94406785D01*
X119348276Y-94462718D01*
X119314925Y-94480491D01*
X119305294Y-94483861D01*
X119152551Y-94579836D01*
X119024998Y-94707389D01*
X118929025Y-94860128D01*
X118869445Y-95030397D01*
X118869444Y-95030402D01*
X118849249Y-95209648D01*
X118849249Y-95209655D01*
X118869444Y-95388901D01*
X118869445Y-95388906D01*
X118929025Y-95559175D01*
X119024999Y-95711915D01*
X119027259Y-95714749D01*
X119028148Y-95716927D01*
X119028703Y-95717810D01*
X119028548Y-95717907D01*
X119053669Y-95779435D01*
X119054314Y-95792064D01*
X119054314Y-96622982D01*
X119054313Y-96623000D01*
X119054313Y-96788706D01*
X119054312Y-96788706D01*
X119095237Y-96941439D01*
X119095238Y-96941440D01*
X119119298Y-96983113D01*
X119135771Y-97051013D01*
X119112918Y-97117040D01*
X119099593Y-97132793D01*
X119024999Y-97207388D01*
X119024998Y-97207389D01*
X118929025Y-97360128D01*
X118869445Y-97530397D01*
X118869444Y-97530402D01*
X118849249Y-97709648D01*
X118849249Y-97709655D01*
X118869444Y-97888901D01*
X118869445Y-97888906D01*
X118929025Y-98059175D01*
X119024998Y-98211914D01*
X119152552Y-98339468D01*
X119305292Y-98435441D01*
X119403676Y-98469867D01*
X119475559Y-98495020D01*
X119475564Y-98495021D01*
X119654810Y-98515217D01*
X119654814Y-98515217D01*
X119654818Y-98515217D01*
X119834063Y-98495021D01*
X119834066Y-98495020D01*
X119834069Y-98495020D01*
X119942324Y-98457139D01*
X119983279Y-98450182D01*
X122149052Y-98450182D01*
X122216091Y-98469867D01*
X122261846Y-98522671D01*
X122271790Y-98591829D01*
X122265234Y-98617515D01*
X122255908Y-98642517D01*
X122249501Y-98702116D01*
X122249501Y-98702123D01*
X122249500Y-98702135D01*
X122249500Y-100297870D01*
X122249501Y-100297876D01*
X122255908Y-100357483D01*
X122306202Y-100492328D01*
X122306206Y-100492335D01*
X122392452Y-100607544D01*
X122392455Y-100607547D01*
X122507664Y-100693793D01*
X122507671Y-100693797D01*
X122642517Y-100744091D01*
X122642516Y-100744091D01*
X122649444Y-100744835D01*
X122702127Y-100750500D01*
X124297872Y-100750499D01*
X124357483Y-100744091D01*
X124492331Y-100693796D01*
X124607546Y-100607546D01*
X124693796Y-100492331D01*
X124744091Y-100357483D01*
X124750500Y-100297873D01*
X124750500Y-99702135D01*
X125749500Y-99702135D01*
X125749500Y-101297870D01*
X125749501Y-101297876D01*
X125755908Y-101357483D01*
X125806202Y-101492328D01*
X125806206Y-101492335D01*
X125892452Y-101607544D01*
X125892455Y-101607547D01*
X126007664Y-101693793D01*
X126007671Y-101693797D01*
X126142517Y-101744091D01*
X126142516Y-101744091D01*
X126149444Y-101744835D01*
X126202127Y-101750500D01*
X127797872Y-101750499D01*
X127857483Y-101744091D01*
X127992331Y-101693796D01*
X128107546Y-101607546D01*
X128193796Y-101492331D01*
X128244091Y-101357483D01*
X128250500Y-101297873D01*
X128250499Y-99702128D01*
X128244091Y-99642517D01*
X128242725Y-99638855D01*
X128193797Y-99507671D01*
X128193793Y-99507664D01*
X128107547Y-99392455D01*
X128107544Y-99392452D01*
X127992335Y-99306206D01*
X127992328Y-99306202D01*
X127857482Y-99255908D01*
X127857483Y-99255908D01*
X127797883Y-99249501D01*
X127797881Y-99249500D01*
X127797873Y-99249500D01*
X127797864Y-99249500D01*
X126202129Y-99249500D01*
X126202123Y-99249501D01*
X126142516Y-99255908D01*
X126007671Y-99306202D01*
X126007664Y-99306206D01*
X125892455Y-99392452D01*
X125892452Y-99392455D01*
X125806206Y-99507664D01*
X125806202Y-99507671D01*
X125755908Y-99642517D01*
X125749501Y-99702116D01*
X125749501Y-99702123D01*
X125749500Y-99702135D01*
X124750500Y-99702135D01*
X124750499Y-98702128D01*
X124744091Y-98642517D01*
X124734766Y-98617515D01*
X124729782Y-98547824D01*
X124763267Y-98486501D01*
X124824590Y-98453016D01*
X124850948Y-98450182D01*
X131675704Y-98450182D01*
X131742743Y-98469867D01*
X131788498Y-98522671D01*
X131798442Y-98591829D01*
X131780697Y-98640155D01*
X131774211Y-98650475D01*
X131714631Y-98820745D01*
X131714630Y-98820750D01*
X131694435Y-98999996D01*
X131694435Y-99000003D01*
X131714630Y-99179249D01*
X131714631Y-99179254D01*
X131774211Y-99349523D01*
X131819089Y-99420945D01*
X131870184Y-99502262D01*
X131997738Y-99629816D01*
X132012125Y-99638856D01*
X132021913Y-99645006D01*
X132068204Y-99697341D01*
X132078852Y-99766395D01*
X132050477Y-99830243D01*
X132021913Y-99854994D01*
X131997737Y-99870184D01*
X131870184Y-99997737D01*
X131774211Y-100150476D01*
X131714631Y-100320745D01*
X131714630Y-100320750D01*
X131694435Y-100499996D01*
X131694435Y-100500003D01*
X131714630Y-100679249D01*
X131714631Y-100679254D01*
X131774211Y-100849523D01*
X131870185Y-101002263D01*
X131872445Y-101005097D01*
X131873334Y-101007275D01*
X131873889Y-101008158D01*
X131873734Y-101008255D01*
X131898855Y-101069783D01*
X131899500Y-101082412D01*
X131899500Y-101413330D01*
X131899499Y-101413348D01*
X131899499Y-101579054D01*
X131899498Y-101579054D01*
X131940424Y-101731789D01*
X131940425Y-101731790D01*
X131961455Y-101768214D01*
X131961456Y-101768216D01*
X132019475Y-101868709D01*
X132019481Y-101868717D01*
X132138349Y-101987585D01*
X132138355Y-101987590D01*
X135169298Y-105018533D01*
X135202783Y-105079856D01*
X135204837Y-105092330D01*
X135214630Y-105179249D01*
X135274210Y-105349521D01*
X135347196Y-105465677D01*
X135370184Y-105502262D01*
X135497738Y-105629816D01*
X135650478Y-105725789D01*
X135803258Y-105779249D01*
X135820745Y-105785368D01*
X135820750Y-105785369D01*
X135999996Y-105805565D01*
X136000000Y-105805565D01*
X136000004Y-105805565D01*
X136179249Y-105785369D01*
X136179252Y-105785368D01*
X136179255Y-105785368D01*
X136349522Y-105725789D01*
X136502262Y-105629816D01*
X136629816Y-105502262D01*
X136725789Y-105349522D01*
X136785368Y-105179255D01*
X136795162Y-105092330D01*
X136805565Y-105000003D01*
X136805565Y-104999996D01*
X136785369Y-104820750D01*
X136785368Y-104820745D01*
X136725788Y-104650476D01*
X136629815Y-104497737D01*
X136502262Y-104370184D01*
X136349521Y-104274210D01*
X136179249Y-104214630D01*
X136092330Y-104204837D01*
X136027916Y-104177770D01*
X136018533Y-104169298D01*
X133136819Y-101287584D01*
X133103334Y-101226261D01*
X133100500Y-101199903D01*
X133100500Y-101082412D01*
X133120185Y-101015373D01*
X133127555Y-101005097D01*
X133129815Y-101002263D01*
X133129816Y-101002262D01*
X133210398Y-100874015D01*
X133262731Y-100827725D01*
X133331785Y-100817076D01*
X133395633Y-100845451D01*
X133403072Y-100852307D01*
X138169298Y-105618533D01*
X138202783Y-105679856D01*
X138204837Y-105692330D01*
X138214630Y-105779249D01*
X138274210Y-105949521D01*
X138305928Y-106000000D01*
X138370184Y-106102262D01*
X138497738Y-106229816D01*
X138650478Y-106325789D01*
X138771902Y-106368277D01*
X138820745Y-106385368D01*
X138820750Y-106385369D01*
X138999996Y-106405565D01*
X139000000Y-106405565D01*
X139000004Y-106405565D01*
X139179249Y-106385369D01*
X139179252Y-106385368D01*
X139179255Y-106385368D01*
X139349522Y-106325789D01*
X139502262Y-106229816D01*
X139629816Y-106102262D01*
X139725789Y-105949522D01*
X139785368Y-105779255D01*
X139791392Y-105725789D01*
X139805565Y-105600003D01*
X139805565Y-105599996D01*
X139785369Y-105420750D01*
X139785368Y-105420745D01*
X139725788Y-105250476D01*
X139629815Y-105097737D01*
X139502262Y-104970184D01*
X139349521Y-104874210D01*
X139179249Y-104814630D01*
X139092330Y-104804837D01*
X139027916Y-104777770D01*
X139018533Y-104769298D01*
X133341884Y-99092649D01*
X133308399Y-99031326D01*
X133305565Y-99004968D01*
X133305565Y-98999997D01*
X133285369Y-98820750D01*
X133285368Y-98820745D01*
X133225788Y-98650475D01*
X133219303Y-98640155D01*
X133200302Y-98572919D01*
X133220669Y-98506083D01*
X133273936Y-98460869D01*
X133324296Y-98450182D01*
X140901221Y-98450182D01*
X140968260Y-98469867D01*
X141014015Y-98522671D01*
X141023959Y-98591829D01*
X140994934Y-98655385D01*
X140988907Y-98661857D01*
X140809397Y-98841367D01*
X140631286Y-99019478D01*
X140519481Y-99131282D01*
X140519480Y-99131284D01*
X140483020Y-99194435D01*
X140440423Y-99268215D01*
X140399499Y-99420943D01*
X140399499Y-99420945D01*
X140399499Y-99589046D01*
X140399500Y-99589059D01*
X140399500Y-107437948D01*
X140379815Y-107504987D01*
X140327011Y-107550742D01*
X140257853Y-107560686D01*
X140213502Y-107545336D01*
X140193191Y-107533610D01*
X140193188Y-107533609D01*
X140193187Y-107533608D01*
X140193186Y-107533608D01*
X140065892Y-107499500D01*
X119065892Y-107499500D01*
X118934108Y-107499500D01*
X118806812Y-107533608D01*
X118692686Y-107599500D01*
X118692683Y-107599502D01*
X118599502Y-107692683D01*
X118599500Y-107692686D01*
X118533608Y-107806812D01*
X118499500Y-107934108D01*
X118499500Y-122015574D01*
X118530621Y-122131722D01*
X118533609Y-122142870D01*
X118533609Y-122142871D01*
X118574387Y-122213500D01*
X118590860Y-122281400D01*
X118568008Y-122347427D01*
X118513086Y-122390618D01*
X118467000Y-122399500D01*
X116738140Y-122399500D01*
X116738124Y-122399499D01*
X116730528Y-122399499D01*
X116572414Y-122399499D01*
X116465058Y-122428265D01*
X116419681Y-122440424D01*
X116419680Y-122440425D01*
X116384537Y-122460716D01*
X116384535Y-122460717D01*
X116282761Y-122519475D01*
X116282753Y-122519481D01*
X114419479Y-124382755D01*
X114411152Y-124397179D01*
X114389588Y-124434530D01*
X114340423Y-124519686D01*
X114299499Y-124672414D01*
X114299499Y-124672416D01*
X114299499Y-124840517D01*
X114299500Y-124840530D01*
X114299500Y-126161859D01*
X114299499Y-126161877D01*
X114299499Y-126327583D01*
X114299498Y-126327583D01*
X114299499Y-126327586D01*
X114340423Y-126480314D01*
X114344028Y-126486558D01*
X114349306Y-126495701D01*
X114349308Y-126495703D01*
X114419477Y-126617241D01*
X114419481Y-126617246D01*
X114538349Y-126736114D01*
X114538355Y-126736119D01*
X114863181Y-127060945D01*
X114896666Y-127122268D01*
X114899500Y-127148626D01*
X114899500Y-127538770D01*
X114879815Y-127605809D01*
X114827011Y-127651564D01*
X114757853Y-127661508D01*
X114694297Y-127632483D01*
X114687819Y-127626451D01*
X113786819Y-126725451D01*
X113753334Y-126664128D01*
X113750500Y-126637770D01*
X113750500Y-122362230D01*
X113770185Y-122295191D01*
X113786819Y-122274549D01*
X116082947Y-119978421D01*
X116082949Y-119978419D01*
X116082952Y-119978416D01*
X116107275Y-119942012D01*
X116156246Y-119868723D01*
X116156250Y-119868716D01*
X116165084Y-119855495D01*
X116221658Y-119718913D01*
X116250500Y-119573918D01*
X116250500Y-107534321D01*
X116267113Y-107472321D01*
X116286958Y-107437948D01*
X116327179Y-107368284D01*
X116385674Y-107188256D01*
X116405460Y-107000000D01*
X116385674Y-106811744D01*
X116327179Y-106631716D01*
X116232533Y-106467784D01*
X116105871Y-106327112D01*
X116104049Y-106325788D01*
X115952734Y-106215851D01*
X115952729Y-106215848D01*
X115779807Y-106138857D01*
X115779802Y-106138855D01*
X115607640Y-106102262D01*
X115594646Y-106099500D01*
X115405354Y-106099500D01*
X115392360Y-106102262D01*
X115220197Y-106138855D01*
X115220192Y-106138857D01*
X115047270Y-106215848D01*
X115047265Y-106215851D01*
X114894129Y-106327111D01*
X114767466Y-106467785D01*
X114672821Y-106631715D01*
X114672818Y-106631722D01*
X114614327Y-106811740D01*
X114614326Y-106811744D01*
X114594540Y-107000000D01*
X114614326Y-107188256D01*
X114614327Y-107188259D01*
X114672818Y-107368277D01*
X114672821Y-107368284D01*
X114732887Y-107472321D01*
X114749500Y-107534321D01*
X114749500Y-119137769D01*
X114729815Y-119204808D01*
X114713181Y-119225450D01*
X112417052Y-121521578D01*
X112417049Y-121521581D01*
X112386298Y-121567603D01*
X112386299Y-121567604D01*
X112338691Y-121638856D01*
X112334914Y-121644508D01*
X112278343Y-121781082D01*
X112278340Y-121781092D01*
X112249500Y-121926079D01*
X112249500Y-121926082D01*
X112249500Y-127073918D01*
X112249500Y-127073920D01*
X112249499Y-127073920D01*
X112278340Y-127218907D01*
X112278343Y-127218917D01*
X112334914Y-127355492D01*
X112367812Y-127404727D01*
X112367813Y-127404730D01*
X112417046Y-127478414D01*
X112417052Y-127478421D01*
X113878732Y-128940100D01*
X113912217Y-129001423D01*
X113907233Y-129071115D01*
X113878732Y-129115462D01*
X111917713Y-131076481D01*
X111856390Y-131109966D01*
X111843918Y-131112020D01*
X111820750Y-131114630D01*
X111650478Y-131174210D01*
X111497737Y-131270184D01*
X111370184Y-131397737D01*
X111274211Y-131550476D01*
X111214631Y-131720745D01*
X111214630Y-131720750D01*
X111194435Y-131899996D01*
X111194435Y-131900003D01*
X111214630Y-132079249D01*
X111214631Y-132079254D01*
X111274211Y-132249523D01*
X111321815Y-132325284D01*
X111370184Y-132402262D01*
X111497738Y-132529816D01*
X111528613Y-132549216D01*
X111632721Y-132614632D01*
X111650478Y-132625789D01*
X111788860Y-132674211D01*
X111820745Y-132685368D01*
X111820750Y-132685369D01*
X111999996Y-132705565D01*
X112000000Y-132705565D01*
X112000004Y-132705565D01*
X112179249Y-132685369D01*
X112179252Y-132685368D01*
X112179255Y-132685368D01*
X112349522Y-132625789D01*
X112502262Y-132529816D01*
X112629816Y-132402262D01*
X112725789Y-132249522D01*
X112785368Y-132079255D01*
X112787978Y-132056084D01*
X112815041Y-131991673D01*
X112823507Y-131982295D01*
X114383137Y-130422665D01*
X114444458Y-130389182D01*
X114514150Y-130394166D01*
X114570083Y-130436038D01*
X114594036Y-130496465D01*
X114614630Y-130679249D01*
X114614631Y-130679254D01*
X114674211Y-130849523D01*
X114773889Y-131008158D01*
X114772656Y-131008932D01*
X114796077Y-131066306D01*
X114783318Y-131135001D01*
X114777720Y-131144892D01*
X114774209Y-131150479D01*
X114714633Y-131320737D01*
X114714630Y-131320750D01*
X114694435Y-131499996D01*
X114694435Y-131500003D01*
X114714630Y-131679249D01*
X114714631Y-131679254D01*
X114774211Y-131849523D01*
X114859632Y-131985468D01*
X114870184Y-132002262D01*
X114997738Y-132129816D01*
X115150478Y-132225789D01*
X115218306Y-132249523D01*
X115320745Y-132285368D01*
X115320750Y-132285369D01*
X115499996Y-132305565D01*
X115500000Y-132305565D01*
X115500004Y-132305565D01*
X115679249Y-132285369D01*
X115679252Y-132285368D01*
X115679255Y-132285368D01*
X115849522Y-132225789D01*
X116002262Y-132129816D01*
X116129816Y-132002262D01*
X116225789Y-131849522D01*
X116285368Y-131679255D01*
X116295161Y-131592330D01*
X116322226Y-131527920D01*
X116330700Y-131518534D01*
X116480520Y-131368716D01*
X116482338Y-131365568D01*
X116537407Y-131270184D01*
X116559577Y-131231784D01*
X116600501Y-131079057D01*
X116600501Y-130920942D01*
X116600501Y-130913347D01*
X116600500Y-130913329D01*
X116600500Y-126300096D01*
X116620185Y-126233057D01*
X116636815Y-126212419D01*
X116770897Y-126078336D01*
X116832220Y-126044852D01*
X116901912Y-126049836D01*
X116946259Y-126078337D01*
X116997738Y-126129816D01*
X117150478Y-126225789D01*
X117316455Y-126283867D01*
X117373230Y-126324588D01*
X117398978Y-126389540D01*
X117399500Y-126400908D01*
X117399500Y-133413330D01*
X117399499Y-133413348D01*
X117399499Y-133579054D01*
X117399498Y-133579054D01*
X117440423Y-133731785D01*
X117469358Y-133781900D01*
X117469359Y-133781904D01*
X117469360Y-133781904D01*
X117519479Y-133868714D01*
X117519481Y-133868717D01*
X117888265Y-134237501D01*
X117921750Y-134298824D01*
X117916766Y-134368516D01*
X117874894Y-134424449D01*
X117809430Y-134448866D01*
X117800584Y-134449182D01*
X108043977Y-134449182D01*
X107976938Y-134429497D01*
X107931183Y-134376693D01*
X107919977Y-134325182D01*
X107919977Y-127883792D01*
X107919977Y-127883790D01*
X107885869Y-127756496D01*
X107819977Y-127642368D01*
X107726791Y-127549182D01*
X107650434Y-127505097D01*
X107612664Y-127483290D01*
X107569996Y-127471857D01*
X107511382Y-127456152D01*
X107451723Y-127419788D01*
X107421194Y-127356941D01*
X107419477Y-127336378D01*
X107419477Y-124956390D01*
X107419646Y-124951433D01*
X107419646Y-124947921D01*
X107419477Y-124942975D01*
X107419477Y-122949682D01*
X107419476Y-122949681D01*
X106145922Y-121888386D01*
X104891768Y-120843258D01*
X104852870Y-120785220D01*
X104851524Y-120715363D01*
X104867981Y-120679213D01*
X104872468Y-120672484D01*
X104873763Y-120668652D01*
X104883843Y-120646375D01*
X104885869Y-120642868D01*
X104897717Y-120598647D01*
X104900024Y-120591024D01*
X104914699Y-120547649D01*
X104914960Y-120543599D01*
X104918929Y-120519482D01*
X104919977Y-120515574D01*
X104919977Y-120469800D01*
X104920234Y-120461820D01*
X104923180Y-120416139D01*
X104922384Y-120412163D01*
X104919977Y-120387846D01*
X104919977Y-82119988D01*
X118214766Y-82119988D01*
X118214766Y-82119989D01*
X118234430Y-82332205D01*
X118234431Y-82332208D01*
X118292751Y-82537185D01*
X118292757Y-82537200D01*
X118387754Y-82727980D01*
X118387757Y-82727985D01*
X118396529Y-82739599D01*
X119016140Y-82119989D01*
X119016140Y-82119988D01*
X118970061Y-82073909D01*
X119019680Y-82073909D01*
X119019680Y-82166069D01*
X119043533Y-82255089D01*
X119089613Y-82334902D01*
X119154780Y-82400069D01*
X119234593Y-82446149D01*
X119323613Y-82470002D01*
X119415773Y-82470002D01*
X119504793Y-82446149D01*
X119584606Y-82400069D01*
X119649773Y-82334902D01*
X119695853Y-82255089D01*
X119719706Y-82166069D01*
X119719706Y-82119988D01*
X119723246Y-82119988D01*
X119723246Y-82119989D01*
X120342855Y-82739598D01*
X120342856Y-82739598D01*
X120351633Y-82727977D01*
X120351635Y-82727974D01*
X120446626Y-82537205D01*
X120446634Y-82537185D01*
X120504954Y-82332208D01*
X120504955Y-82332205D01*
X120524620Y-82119989D01*
X120524620Y-82119988D01*
X120524596Y-82119734D01*
X123064652Y-82119734D01*
X123064652Y-82119735D01*
X123084316Y-82331951D01*
X123084317Y-82331954D01*
X123142637Y-82536931D01*
X123142643Y-82536946D01*
X123237640Y-82727726D01*
X123237643Y-82727731D01*
X123246415Y-82739345D01*
X123866026Y-82119735D01*
X123866026Y-82119734D01*
X123819947Y-82073655D01*
X123869566Y-82073655D01*
X123869566Y-82165815D01*
X123893419Y-82254835D01*
X123939499Y-82334648D01*
X124004666Y-82399815D01*
X124084479Y-82445895D01*
X124173499Y-82469748D01*
X124265659Y-82469748D01*
X124354679Y-82445895D01*
X124434492Y-82399815D01*
X124499659Y-82334648D01*
X124545739Y-82254835D01*
X124569592Y-82165815D01*
X124569592Y-82119734D01*
X124573132Y-82119734D01*
X124573132Y-82119735D01*
X125192741Y-82739344D01*
X125192742Y-82739344D01*
X125201519Y-82727723D01*
X125201521Y-82727720D01*
X125296512Y-82536951D01*
X125296520Y-82536931D01*
X125354840Y-82331954D01*
X125354841Y-82331951D01*
X125374506Y-82119735D01*
X125374506Y-82119734D01*
X125354841Y-81907518D01*
X125354840Y-81907515D01*
X125296520Y-81702538D01*
X125296512Y-81702518D01*
X125201521Y-81511749D01*
X125201516Y-81511741D01*
X125192742Y-81500124D01*
X124573132Y-82119734D01*
X124569592Y-82119734D01*
X124569592Y-82073655D01*
X124545739Y-81984635D01*
X124499659Y-81904822D01*
X124434492Y-81839655D01*
X124354679Y-81793575D01*
X124265659Y-81769722D01*
X124173499Y-81769722D01*
X124084479Y-81793575D01*
X124004666Y-81839655D01*
X123939499Y-81904822D01*
X123893419Y-81984635D01*
X123869566Y-82073655D01*
X123819947Y-82073655D01*
X123246415Y-81500123D01*
X123237638Y-81511745D01*
X123142645Y-81702518D01*
X123142637Y-81702538D01*
X123084317Y-81907515D01*
X123084316Y-81907518D01*
X123064652Y-82119734D01*
X120524596Y-82119734D01*
X120504955Y-81907772D01*
X120504954Y-81907769D01*
X120446634Y-81702792D01*
X120446626Y-81702772D01*
X120351635Y-81512003D01*
X120351630Y-81511995D01*
X120342856Y-81500378D01*
X119723246Y-82119988D01*
X119719706Y-82119988D01*
X119719706Y-82073909D01*
X119695853Y-81984889D01*
X119649773Y-81905076D01*
X119584606Y-81839909D01*
X119504793Y-81793829D01*
X119415773Y-81769976D01*
X119323613Y-81769976D01*
X119234593Y-81793829D01*
X119154780Y-81839909D01*
X119089613Y-81905076D01*
X119043533Y-81984889D01*
X119019680Y-82073909D01*
X118970061Y-82073909D01*
X118396529Y-81500377D01*
X118387752Y-81511999D01*
X118292759Y-81702772D01*
X118292751Y-81702792D01*
X118234431Y-81907769D01*
X118234430Y-81907772D01*
X118214766Y-82119988D01*
X104919977Y-82119988D01*
X104919977Y-82074182D01*
X104939662Y-82007143D01*
X104992466Y-81961388D01*
X105043977Y-81950182D01*
X109485367Y-81950182D01*
X109485369Y-81950182D01*
X109612663Y-81916074D01*
X109726791Y-81850182D01*
X109819977Y-81756996D01*
X109885869Y-81642868D01*
X109919977Y-81515574D01*
X109919977Y-81149428D01*
X118752684Y-81149428D01*
X119369693Y-81766436D01*
X119369694Y-81766436D01*
X119986700Y-81149428D01*
X119986290Y-81149174D01*
X123602570Y-81149174D01*
X124219579Y-81766182D01*
X124219580Y-81766182D01*
X124836586Y-81149174D01*
X124734372Y-81085886D01*
X124734368Y-81085884D01*
X124535642Y-81008898D01*
X124535637Y-81008897D01*
X124326140Y-80969735D01*
X124113018Y-80969735D01*
X123903520Y-81008897D01*
X123903515Y-81008898D01*
X123704789Y-81085884D01*
X123704780Y-81085889D01*
X123602571Y-81149173D01*
X123602570Y-81149174D01*
X119986290Y-81149174D01*
X119884486Y-81086140D01*
X119884482Y-81086138D01*
X119685756Y-81009152D01*
X119685751Y-81009151D01*
X119476254Y-80969989D01*
X119263132Y-80969989D01*
X119053634Y-81009151D01*
X119053629Y-81009152D01*
X118854903Y-81086138D01*
X118854894Y-81086143D01*
X118752685Y-81149427D01*
X118752684Y-81149428D01*
X109919977Y-81149428D01*
X109919977Y-74257285D01*
X109939662Y-74190246D01*
X109992466Y-74144491D01*
X110061624Y-74134547D01*
X110125180Y-74163572D01*
X110161396Y-74217427D01*
X110200624Y-74332991D01*
X110200628Y-74333001D01*
X110334165Y-74603787D01*
X110501912Y-74854837D01*
X110700985Y-75081839D01*
X110819211Y-75185519D01*
X110927989Y-75280914D01*
X111109770Y-75402376D01*
X111179037Y-75448659D01*
X111449823Y-75582196D01*
X111449833Y-75582200D01*
X111735719Y-75679245D01*
X111735723Y-75679246D01*
X111735732Y-75679249D01*
X111935915Y-75719068D01*
X112031849Y-75738151D01*
X112031850Y-75738151D01*
X112031860Y-75738153D01*
X112333143Y-75757900D01*
X112634426Y-75738153D01*
X112930554Y-75679249D01*
X112930566Y-75679245D01*
X113216452Y-75582200D01*
X113216462Y-75582196D01*
X113487248Y-75448659D01*
X113487248Y-75448658D01*
X113487252Y-75448657D01*
X113738297Y-75280914D01*
X113965300Y-75081839D01*
X114164375Y-74854836D01*
X114332118Y-74603791D01*
X114465658Y-74332999D01*
X114491360Y-74257285D01*
X114562706Y-74047105D01*
X114562706Y-74047104D01*
X114562710Y-74047093D01*
X114621614Y-73750965D01*
X114641361Y-73449682D01*
X114621614Y-73148399D01*
X114562710Y-72852271D01*
X114554764Y-72828862D01*
X114465661Y-72566372D01*
X114465657Y-72566362D01*
X114332120Y-72295576D01*
X114233116Y-72147406D01*
X114164375Y-72044528D01*
X113986958Y-71842221D01*
X113965300Y-71817524D01*
X113794126Y-71667410D01*
X113756702Y-71608409D01*
X113757118Y-71538540D01*
X113795241Y-71479988D01*
X113858968Y-71451341D01*
X113875885Y-71450182D01*
X115794977Y-71450182D01*
X115862016Y-71469867D01*
G37*
%TD.AperFunction*%
%TD*%
M02*
