%TF.GenerationSoftware,KiCad,Pcbnew,8.0.4*%
%TF.CreationDate,2024-10-09T22:08:27+01:00*%
%TF.ProjectId,esp32,65737033-322e-46b6-9963-61645f706362,rev?*%
%TF.SameCoordinates,Original*%
%TF.FileFunction,Legend,Top*%
%TF.FilePolarity,Positive*%
%FSLAX46Y46*%
G04 Gerber Fmt 4.6, Leading zero omitted, Abs format (unit mm)*
G04 Created by KiCad (PCBNEW 8.0.4) date 2024-10-09 22:08:27*
%MOMM*%
%LPD*%
G01*
G04 APERTURE LIST*
%ADD10C,0.100000*%
%ADD11C,0.150000*%
%ADD12C,0.200000*%
%ADD13C,0.300000*%
%ADD14C,0.151994*%
%ADD15C,0.152400*%
%ADD16C,0.120000*%
%ADD17C,0.059995*%
%ADD18C,0.254000*%
%ADD19C,0.150114*%
%ADD20R,0.800000X0.280010*%
%ADD21R,0.280010X0.800000*%
%ADD22R,2.700000X2.700000*%
%ADD23R,0.750013X1.000000*%
%ADD24C,1.000000*%
%ADD25R,1.410008X1.350013*%
%ADD26R,0.800000X0.300000*%
%ADD27R,0.800000X0.450013*%
%ADD28R,1.000000X1.700000*%
%ADD29R,2.000000X2.000000*%
%ADD30R,1.000000X0.750013*%
%ADD31O,1.745009X0.559995*%
%ADD32R,0.700025X0.299975*%
%ADD33R,1.000000X0.299975*%
%ADD34R,1.250013X0.700000*%
%ADD35R,1.132537X1.377013*%
%ADD36R,2.500000X2.500000*%
%ADD37R,2.100000X0.950013*%
%ADD38R,0.950013X2.100000*%
%ADD39R,0.900000X0.900000*%
%ADD40R,0.400000X1.600000*%
%ADD41C,1.300000*%
%ADD42O,1.300000X1.800000*%
%ADD43R,0.565659X0.540005*%
%ADD44R,1.377013X1.132537*%
%ADD45R,0.600000X0.800000*%
%ADD46R,0.250013X0.800000*%
%ADD47O,2.231013X0.602007*%
%ADD48O,1.620015X0.280010*%
%ADD49R,1.399543X1.000000*%
%ADD50R,2.500000X1.100000*%
%ADD51R,2.340005X3.600000*%
%ADD52R,0.299975X0.700025*%
%ADD53R,0.299975X1.000000*%
G04 APERTURE END LIST*
D10*
X141500000Y-124500000D02*
G75*
G02*
X140500000Y-124500000I-500000J0D01*
G01*
X140500000Y-124500000D02*
G75*
G02*
X141500000Y-124500000I500000J0D01*
G01*
X142500000Y-116000000D02*
G75*
G02*
X141500000Y-116000000I-500000J0D01*
G01*
X141500000Y-116000000D02*
G75*
G02*
X142500000Y-116000000I500000J0D01*
G01*
X142500000Y-107000000D02*
G75*
G02*
X141500000Y-107000000I-500000J0D01*
G01*
X141500000Y-107000000D02*
G75*
G02*
X142500000Y-107000000I500000J0D01*
G01*
X118000000Y-117500000D02*
G75*
G02*
X117000000Y-117500000I-500000J0D01*
G01*
X117000000Y-117500000D02*
G75*
G02*
X118000000Y-117500000I500000J0D01*
G01*
X128000000Y-124000000D02*
G75*
G02*
X127000000Y-124000000I-500000J0D01*
G01*
X127000000Y-124000000D02*
G75*
G02*
X128000000Y-124000000I500000J0D01*
G01*
X117184836Y-125933609D02*
X117184836Y-125433609D01*
X117399122Y-125933609D02*
X117399122Y-125671704D01*
X117399122Y-125671704D02*
X117375312Y-125624085D01*
X117375312Y-125624085D02*
X117327693Y-125600276D01*
X117327693Y-125600276D02*
X117256265Y-125600276D01*
X117256265Y-125600276D02*
X117208646Y-125624085D01*
X117208646Y-125624085D02*
X117184836Y-125647895D01*
X117708646Y-125933609D02*
X117661027Y-125909800D01*
X117661027Y-125909800D02*
X117637217Y-125885990D01*
X117637217Y-125885990D02*
X117613408Y-125838371D01*
X117613408Y-125838371D02*
X117613408Y-125695514D01*
X117613408Y-125695514D02*
X117637217Y-125647895D01*
X117637217Y-125647895D02*
X117661027Y-125624085D01*
X117661027Y-125624085D02*
X117708646Y-125600276D01*
X117708646Y-125600276D02*
X117780074Y-125600276D01*
X117780074Y-125600276D02*
X117827693Y-125624085D01*
X117827693Y-125624085D02*
X117851503Y-125647895D01*
X117851503Y-125647895D02*
X117875312Y-125695514D01*
X117875312Y-125695514D02*
X117875312Y-125838371D01*
X117875312Y-125838371D02*
X117851503Y-125885990D01*
X117851503Y-125885990D02*
X117827693Y-125909800D01*
X117827693Y-125909800D02*
X117780074Y-125933609D01*
X117780074Y-125933609D02*
X117708646Y-125933609D01*
X118089598Y-125933609D02*
X118089598Y-125600276D01*
X118089598Y-125647895D02*
X118113408Y-125624085D01*
X118113408Y-125624085D02*
X118161027Y-125600276D01*
X118161027Y-125600276D02*
X118232455Y-125600276D01*
X118232455Y-125600276D02*
X118280074Y-125624085D01*
X118280074Y-125624085D02*
X118303884Y-125671704D01*
X118303884Y-125671704D02*
X118303884Y-125933609D01*
X118303884Y-125671704D02*
X118327693Y-125624085D01*
X118327693Y-125624085D02*
X118375312Y-125600276D01*
X118375312Y-125600276D02*
X118446741Y-125600276D01*
X118446741Y-125600276D02*
X118494360Y-125624085D01*
X118494360Y-125624085D02*
X118518170Y-125671704D01*
X118518170Y-125671704D02*
X118518170Y-125933609D01*
X118946741Y-125909800D02*
X118899122Y-125933609D01*
X118899122Y-125933609D02*
X118803884Y-125933609D01*
X118803884Y-125933609D02*
X118756265Y-125909800D01*
X118756265Y-125909800D02*
X118732456Y-125862180D01*
X118732456Y-125862180D02*
X118732456Y-125671704D01*
X118732456Y-125671704D02*
X118756265Y-125624085D01*
X118756265Y-125624085D02*
X118803884Y-125600276D01*
X118803884Y-125600276D02*
X118899122Y-125600276D01*
X118899122Y-125600276D02*
X118946741Y-125624085D01*
X118946741Y-125624085D02*
X118970551Y-125671704D01*
X118970551Y-125671704D02*
X118970551Y-125719323D01*
X118970551Y-125719323D02*
X118732456Y-125766942D01*
G36*
X106906664Y-121330488D02*
G01*
X106858629Y-121318597D01*
X106841451Y-121305331D01*
X106527599Y-120990990D01*
X106502695Y-120948308D01*
X106500000Y-120925778D01*
X106512698Y-120877921D01*
X106526866Y-120859832D01*
X106569349Y-120835369D01*
X106592323Y-120832721D01*
X106641236Y-120846222D01*
X106656803Y-120858855D01*
X106812630Y-121015170D01*
X106812630Y-120359623D01*
X106825329Y-120312102D01*
X106839497Y-120294166D01*
X106883768Y-120269199D01*
X106903977Y-120267055D01*
X106951718Y-120279869D01*
X106969678Y-120294166D01*
X106994142Y-120336649D01*
X106996789Y-120359623D01*
X106996789Y-121020788D01*
X107145289Y-120878394D01*
X107190713Y-120855452D01*
X107211235Y-120853482D01*
X107258556Y-120866180D01*
X107276936Y-120880348D01*
X107302802Y-120924170D01*
X107305024Y-120944340D01*
X107291286Y-120992837D01*
X107275959Y-121010530D01*
X106972121Y-121302644D01*
X106928588Y-121327769D01*
X106906664Y-121330488D01*
G37*
X146803884Y-111705752D02*
X146803884Y-112705752D01*
X146803884Y-111753371D02*
X146899122Y-111705752D01*
X146899122Y-111705752D02*
X147089598Y-111705752D01*
X147089598Y-111705752D02*
X147184836Y-111753371D01*
X147184836Y-111753371D02*
X147232455Y-111800990D01*
X147232455Y-111800990D02*
X147280074Y-111896228D01*
X147280074Y-111896228D02*
X147280074Y-112181942D01*
X147280074Y-112181942D02*
X147232455Y-112277180D01*
X147232455Y-112277180D02*
X147184836Y-112324800D01*
X147184836Y-112324800D02*
X147089598Y-112372419D01*
X147089598Y-112372419D02*
X146899122Y-112372419D01*
X146899122Y-112372419D02*
X146803884Y-112324800D01*
X147661027Y-111467657D02*
X147708646Y-111420038D01*
X147708646Y-111420038D02*
X147803884Y-111372419D01*
X147803884Y-111372419D02*
X148041979Y-111372419D01*
X148041979Y-111372419D02*
X148137217Y-111420038D01*
X148137217Y-111420038D02*
X148184836Y-111467657D01*
X148184836Y-111467657D02*
X148232455Y-111562895D01*
X148232455Y-111562895D02*
X148232455Y-111658133D01*
X148232455Y-111658133D02*
X148184836Y-111800990D01*
X148184836Y-111800990D02*
X147613408Y-112372419D01*
X147613408Y-112372419D02*
X148232455Y-112372419D01*
G36*
X166549041Y-122442829D02*
G01*
X166601921Y-122448954D01*
X166651761Y-122462430D01*
X166698561Y-122483255D01*
X166742321Y-122511431D01*
X166783042Y-122546957D01*
X166795730Y-122560193D01*
X166828883Y-122601927D01*
X166854669Y-122646701D01*
X166873088Y-122694514D01*
X166884139Y-122745367D01*
X166887822Y-122799260D01*
X166887413Y-122817384D01*
X166881273Y-122869800D01*
X166867767Y-122919279D01*
X166846892Y-122965822D01*
X166818651Y-123009428D01*
X166783042Y-123050097D01*
X166769806Y-123062756D01*
X166728072Y-123095832D01*
X166683298Y-123121557D01*
X166635485Y-123139933D01*
X166584632Y-123150958D01*
X166530739Y-123154633D01*
X166512614Y-123154225D01*
X166460184Y-123148100D01*
X166410673Y-123134624D01*
X166364082Y-123113799D01*
X166320410Y-123085623D01*
X166279658Y-123050097D01*
X166266999Y-123036867D01*
X166233923Y-122995219D01*
X166208197Y-122950634D01*
X166189822Y-122903113D01*
X166178797Y-122852655D01*
X166175122Y-122799260D01*
X166250104Y-122799260D01*
X166250185Y-122806478D01*
X166256615Y-122861852D01*
X166273334Y-122913014D01*
X166300342Y-122959962D01*
X166332414Y-122997585D01*
X166337606Y-123002649D01*
X166381478Y-123037373D01*
X166429502Y-123061809D01*
X166481679Y-123075956D01*
X166530739Y-123079895D01*
X166545257Y-123079573D01*
X166593922Y-123073384D01*
X166645446Y-123056665D01*
X166692604Y-123029657D01*
X166730286Y-122997585D01*
X166735365Y-122992408D01*
X166770192Y-122948620D01*
X166794700Y-122900618D01*
X166808889Y-122848404D01*
X166812840Y-122799260D01*
X166812517Y-122784712D01*
X166806310Y-122735959D01*
X166789541Y-122684363D01*
X166762453Y-122637163D01*
X166730286Y-122599469D01*
X166725107Y-122594405D01*
X166681224Y-122559681D01*
X166632974Y-122535245D01*
X166580359Y-122521098D01*
X166530739Y-122517159D01*
X166523536Y-122517240D01*
X166468245Y-122523670D01*
X166417107Y-122540389D01*
X166370121Y-122567397D01*
X166332414Y-122599469D01*
X166327350Y-122604648D01*
X166292626Y-122648551D01*
X166268190Y-122696850D01*
X166254043Y-122749545D01*
X166250104Y-122799260D01*
X166175122Y-122799260D01*
X166175530Y-122780958D01*
X166181655Y-122728078D01*
X166195130Y-122678238D01*
X166215956Y-122631438D01*
X166244132Y-122587678D01*
X166279658Y-122546957D01*
X166292917Y-122534298D01*
X166334643Y-122501222D01*
X166379288Y-122475497D01*
X166426852Y-122457121D01*
X166477336Y-122446096D01*
X166530739Y-122442421D01*
X166549041Y-122442829D01*
G37*
G36*
X166584976Y-122269486D02*
G01*
X166637168Y-122276779D01*
X166687314Y-122288933D01*
X166735415Y-122305950D01*
X166781470Y-122327829D01*
X166825479Y-122354570D01*
X166867443Y-122386173D01*
X166907362Y-122422637D01*
X166943826Y-122462502D01*
X166975429Y-122504428D01*
X167002170Y-122548415D01*
X167024049Y-122594462D01*
X167041066Y-122642570D01*
X167053220Y-122692739D01*
X167060513Y-122744969D01*
X167062944Y-122799260D01*
X167060513Y-122853211D01*
X167053220Y-122905154D01*
X167041066Y-122955091D01*
X167024049Y-123003019D01*
X167002170Y-123048941D01*
X166975429Y-123092855D01*
X166943826Y-123134762D01*
X166907362Y-123174661D01*
X166867443Y-123211068D01*
X166825479Y-123242622D01*
X166781470Y-123269320D01*
X166735415Y-123291165D01*
X166687314Y-123308155D01*
X166637168Y-123320291D01*
X166584976Y-123327572D01*
X166530739Y-123330000D01*
X166476845Y-123327572D01*
X166424952Y-123320291D01*
X166375057Y-123308155D01*
X166327163Y-123291165D01*
X166281268Y-123269320D01*
X166237373Y-123242622D01*
X166195478Y-123211068D01*
X166155582Y-123174661D01*
X166119117Y-123134762D01*
X166087515Y-123092855D01*
X166060774Y-123048941D01*
X166038895Y-123003019D01*
X166021878Y-122955091D01*
X166009723Y-122905154D01*
X166002430Y-122853211D01*
X166000000Y-122799260D01*
X166076203Y-122799260D01*
X166076724Y-122822554D01*
X166082585Y-122878921D01*
X166094957Y-122932616D01*
X166113840Y-122983640D01*
X166139235Y-123031993D01*
X166171142Y-123077674D01*
X166209560Y-123120683D01*
X166226442Y-123136832D01*
X166270510Y-123172646D01*
X166317237Y-123201948D01*
X166366623Y-123224738D01*
X166418669Y-123241017D01*
X166473374Y-123250784D01*
X166530739Y-123254040D01*
X166554182Y-123253519D01*
X166610876Y-123247659D01*
X166664840Y-123235287D01*
X166716073Y-123216403D01*
X166764574Y-123191008D01*
X166810345Y-123159102D01*
X166853384Y-123120683D01*
X166869533Y-123103800D01*
X166905346Y-123059722D01*
X166934648Y-123012972D01*
X166957439Y-122963551D01*
X166973717Y-122911459D01*
X166983485Y-122856695D01*
X166986741Y-122799260D01*
X166986220Y-122775788D01*
X166980359Y-122719027D01*
X166967987Y-122665010D01*
X166949104Y-122613736D01*
X166923709Y-122565205D01*
X166891802Y-122519416D01*
X166853384Y-122476371D01*
X166836496Y-122460222D01*
X166792364Y-122424409D01*
X166745501Y-122395107D01*
X166695907Y-122372316D01*
X166643582Y-122356037D01*
X166588526Y-122346270D01*
X166530739Y-122343014D01*
X166507474Y-122343535D01*
X166451173Y-122349395D01*
X166397531Y-122361767D01*
X166346549Y-122380651D01*
X166298227Y-122406046D01*
X166252564Y-122437953D01*
X166209560Y-122476371D01*
X166193411Y-122493260D01*
X166157598Y-122537402D01*
X166128296Y-122584288D01*
X166105505Y-122633916D01*
X166089226Y-122686288D01*
X166079459Y-122741402D01*
X166076203Y-122799260D01*
X166000000Y-122799260D01*
X166002438Y-122745301D01*
X166009754Y-122693335D01*
X166021947Y-122643360D01*
X166039017Y-122595378D01*
X166060965Y-122549388D01*
X166087790Y-122505390D01*
X166119491Y-122463384D01*
X166156071Y-122423370D01*
X166196119Y-122386734D01*
X166238106Y-122354982D01*
X166282031Y-122328115D01*
X166327896Y-122306133D01*
X166375698Y-122289036D01*
X166425440Y-122276824D01*
X166477120Y-122269497D01*
X166530739Y-122267055D01*
X166584976Y-122269486D01*
G37*
G36*
X161321144Y-122551598D02*
G01*
X161079099Y-122793642D01*
X161320900Y-123035687D01*
X161267166Y-123089420D01*
X161025366Y-122847620D01*
X160783565Y-123089420D01*
X160731053Y-123035687D01*
X160972854Y-122793642D01*
X160729588Y-122551842D01*
X160783565Y-122497864D01*
X161025366Y-122741130D01*
X161268387Y-122497864D01*
X161321144Y-122551598D01*
G37*
G36*
X161084976Y-122269486D02*
G01*
X161137168Y-122276779D01*
X161187314Y-122288933D01*
X161235415Y-122305950D01*
X161281470Y-122327829D01*
X161325479Y-122354570D01*
X161367443Y-122386173D01*
X161407362Y-122422637D01*
X161443826Y-122462502D01*
X161475429Y-122504428D01*
X161502170Y-122548415D01*
X161524049Y-122594462D01*
X161541066Y-122642570D01*
X161553220Y-122692739D01*
X161560513Y-122744969D01*
X161562944Y-122799260D01*
X161560513Y-122853211D01*
X161553220Y-122905154D01*
X161541066Y-122955091D01*
X161524049Y-123003019D01*
X161502170Y-123048941D01*
X161475429Y-123092855D01*
X161443826Y-123134762D01*
X161407362Y-123174661D01*
X161367443Y-123211068D01*
X161325479Y-123242622D01*
X161281470Y-123269320D01*
X161235415Y-123291165D01*
X161187314Y-123308155D01*
X161137168Y-123320291D01*
X161084976Y-123327572D01*
X161030739Y-123330000D01*
X160976845Y-123327572D01*
X160924952Y-123320291D01*
X160875057Y-123308155D01*
X160827163Y-123291165D01*
X160781268Y-123269320D01*
X160737373Y-123242622D01*
X160695478Y-123211068D01*
X160655582Y-123174661D01*
X160619117Y-123134762D01*
X160587515Y-123092855D01*
X160560774Y-123048941D01*
X160538895Y-123003019D01*
X160521878Y-122955091D01*
X160509723Y-122905154D01*
X160502430Y-122853211D01*
X160500000Y-122799260D01*
X160576203Y-122799260D01*
X160576724Y-122822554D01*
X160582585Y-122878921D01*
X160594957Y-122932616D01*
X160613840Y-122983640D01*
X160639235Y-123031993D01*
X160671142Y-123077674D01*
X160709560Y-123120683D01*
X160726442Y-123136832D01*
X160770510Y-123172646D01*
X160817237Y-123201948D01*
X160866623Y-123224738D01*
X160918669Y-123241017D01*
X160973374Y-123250784D01*
X161030739Y-123254040D01*
X161054182Y-123253519D01*
X161110876Y-123247659D01*
X161164840Y-123235287D01*
X161216073Y-123216403D01*
X161264574Y-123191008D01*
X161310345Y-123159102D01*
X161353384Y-123120683D01*
X161369533Y-123103800D01*
X161405346Y-123059722D01*
X161434648Y-123012972D01*
X161457439Y-122963551D01*
X161473717Y-122911459D01*
X161483485Y-122856695D01*
X161486741Y-122799260D01*
X161486220Y-122775788D01*
X161480359Y-122719027D01*
X161467987Y-122665010D01*
X161449104Y-122613736D01*
X161423709Y-122565205D01*
X161391802Y-122519416D01*
X161353384Y-122476371D01*
X161336496Y-122460222D01*
X161292364Y-122424409D01*
X161245501Y-122395107D01*
X161195907Y-122372316D01*
X161143582Y-122356037D01*
X161088526Y-122346270D01*
X161030739Y-122343014D01*
X161007474Y-122343535D01*
X160951173Y-122349395D01*
X160897531Y-122361767D01*
X160846549Y-122380651D01*
X160798227Y-122406046D01*
X160752564Y-122437953D01*
X160709560Y-122476371D01*
X160693411Y-122493260D01*
X160657598Y-122537402D01*
X160628296Y-122584288D01*
X160605505Y-122633916D01*
X160589226Y-122686288D01*
X160579459Y-122741402D01*
X160576203Y-122799260D01*
X160500000Y-122799260D01*
X160502438Y-122745301D01*
X160509754Y-122693335D01*
X160521947Y-122643360D01*
X160539017Y-122595378D01*
X160560965Y-122549388D01*
X160587790Y-122505390D01*
X160619491Y-122463384D01*
X160656071Y-122423370D01*
X160696119Y-122386734D01*
X160738106Y-122354982D01*
X160782031Y-122328115D01*
X160827896Y-122306133D01*
X160875698Y-122289036D01*
X160925440Y-122276824D01*
X160977120Y-122269497D01*
X161030739Y-122267055D01*
X161084976Y-122269486D01*
G37*
X116372419Y-117219925D02*
X116372419Y-117696115D01*
X116372419Y-117696115D02*
X115372419Y-117696115D01*
X151527233Y-82405767D02*
X150860566Y-82405767D01*
X150955804Y-82405767D02*
X150908185Y-82358148D01*
X150908185Y-82358148D02*
X150860566Y-82262910D01*
X150860566Y-82262910D02*
X150860566Y-82120053D01*
X150860566Y-82120053D02*
X150908185Y-82024815D01*
X150908185Y-82024815D02*
X151003423Y-81977196D01*
X151003423Y-81977196D02*
X151527233Y-81977196D01*
X151003423Y-81977196D02*
X150908185Y-81929577D01*
X150908185Y-81929577D02*
X150860566Y-81834339D01*
X150860566Y-81834339D02*
X150860566Y-81691482D01*
X150860566Y-81691482D02*
X150908185Y-81596243D01*
X150908185Y-81596243D02*
X151003423Y-81548624D01*
X151003423Y-81548624D02*
X151527233Y-81548624D01*
X151527233Y-80929577D02*
X151479614Y-81024815D01*
X151479614Y-81024815D02*
X151431994Y-81072434D01*
X151431994Y-81072434D02*
X151336756Y-81120053D01*
X151336756Y-81120053D02*
X151051042Y-81120053D01*
X151051042Y-81120053D02*
X150955804Y-81072434D01*
X150955804Y-81072434D02*
X150908185Y-81024815D01*
X150908185Y-81024815D02*
X150860566Y-80929577D01*
X150860566Y-80929577D02*
X150860566Y-80786720D01*
X150860566Y-80786720D02*
X150908185Y-80691482D01*
X150908185Y-80691482D02*
X150955804Y-80643863D01*
X150955804Y-80643863D02*
X151051042Y-80596244D01*
X151051042Y-80596244D02*
X151336756Y-80596244D01*
X151336756Y-80596244D02*
X151431994Y-80643863D01*
X151431994Y-80643863D02*
X151479614Y-80691482D01*
X151479614Y-80691482D02*
X151527233Y-80786720D01*
X151527233Y-80786720D02*
X151527233Y-80929577D01*
X151527233Y-79739101D02*
X150527233Y-79739101D01*
X151479614Y-79739101D02*
X151527233Y-79834339D01*
X151527233Y-79834339D02*
X151527233Y-80024815D01*
X151527233Y-80024815D02*
X151479614Y-80120053D01*
X151479614Y-80120053D02*
X151431994Y-80167672D01*
X151431994Y-80167672D02*
X151336756Y-80215291D01*
X151336756Y-80215291D02*
X151051042Y-80215291D01*
X151051042Y-80215291D02*
X150955804Y-80167672D01*
X150955804Y-80167672D02*
X150908185Y-80120053D01*
X150908185Y-80120053D02*
X150860566Y-80024815D01*
X150860566Y-80024815D02*
X150860566Y-79834339D01*
X150860566Y-79834339D02*
X150908185Y-79739101D01*
X151479614Y-78881958D02*
X151527233Y-78977196D01*
X151527233Y-78977196D02*
X151527233Y-79167672D01*
X151527233Y-79167672D02*
X151479614Y-79262910D01*
X151479614Y-79262910D02*
X151384375Y-79310529D01*
X151384375Y-79310529D02*
X151003423Y-79310529D01*
X151003423Y-79310529D02*
X150908185Y-79262910D01*
X150908185Y-79262910D02*
X150860566Y-79167672D01*
X150860566Y-79167672D02*
X150860566Y-78977196D01*
X150860566Y-78977196D02*
X150908185Y-78881958D01*
X150908185Y-78881958D02*
X151003423Y-78834339D01*
X151003423Y-78834339D02*
X151098661Y-78834339D01*
X151098661Y-78834339D02*
X151193899Y-79310529D01*
X153303884Y-112991466D02*
X154065789Y-112991466D01*
X153684836Y-113372419D02*
X153684836Y-112610514D01*
X154446741Y-112705752D02*
X154684836Y-113372419D01*
X154684836Y-113372419D02*
X154922931Y-112705752D01*
X145872419Y-123791353D02*
X145872419Y-123172306D01*
X145872419Y-123172306D02*
X146253371Y-123505639D01*
X146253371Y-123505639D02*
X146253371Y-123362782D01*
X146253371Y-123362782D02*
X146300990Y-123267544D01*
X146300990Y-123267544D02*
X146348609Y-123219925D01*
X146348609Y-123219925D02*
X146443847Y-123172306D01*
X146443847Y-123172306D02*
X146681942Y-123172306D01*
X146681942Y-123172306D02*
X146777180Y-123219925D01*
X146777180Y-123219925D02*
X146824800Y-123267544D01*
X146824800Y-123267544D02*
X146872419Y-123362782D01*
X146872419Y-123362782D02*
X146872419Y-123648496D01*
X146872419Y-123648496D02*
X146824800Y-123743734D01*
X146824800Y-123743734D02*
X146777180Y-123791353D01*
X146872419Y-122743734D02*
X145872419Y-122743734D01*
X146872419Y-122172306D02*
X146300990Y-122600877D01*
X145872419Y-122172306D02*
X146443847Y-122743734D01*
X146872419Y-120981829D02*
X145872419Y-120981829D01*
X146205752Y-120505639D02*
X146872419Y-120505639D01*
X146300990Y-120505639D02*
X146253371Y-120458020D01*
X146253371Y-120458020D02*
X146205752Y-120362782D01*
X146205752Y-120362782D02*
X146205752Y-120219925D01*
X146205752Y-120219925D02*
X146253371Y-120124687D01*
X146253371Y-120124687D02*
X146348609Y-120077068D01*
X146348609Y-120077068D02*
X146872419Y-120077068D01*
X146205752Y-119743734D02*
X146205752Y-119362782D01*
X145872419Y-119600877D02*
X146729561Y-119600877D01*
X146729561Y-119600877D02*
X146824800Y-119553258D01*
X146824800Y-119553258D02*
X146872419Y-119458020D01*
X146872419Y-119458020D02*
X146872419Y-119362782D01*
X146824800Y-118648496D02*
X146872419Y-118743734D01*
X146872419Y-118743734D02*
X146872419Y-118934210D01*
X146872419Y-118934210D02*
X146824800Y-119029448D01*
X146824800Y-119029448D02*
X146729561Y-119077067D01*
X146729561Y-119077067D02*
X146348609Y-119077067D01*
X146348609Y-119077067D02*
X146253371Y-119029448D01*
X146253371Y-119029448D02*
X146205752Y-118934210D01*
X146205752Y-118934210D02*
X146205752Y-118743734D01*
X146205752Y-118743734D02*
X146253371Y-118648496D01*
X146253371Y-118648496D02*
X146348609Y-118600877D01*
X146348609Y-118600877D02*
X146443847Y-118600877D01*
X146443847Y-118600877D02*
X146539085Y-119077067D01*
X146872419Y-118172305D02*
X146205752Y-118172305D01*
X146396228Y-118172305D02*
X146300990Y-118124686D01*
X146300990Y-118124686D02*
X146253371Y-118077067D01*
X146253371Y-118077067D02*
X146205752Y-117981829D01*
X146205752Y-117981829D02*
X146205752Y-117886591D01*
X146205752Y-117553257D02*
X146872419Y-117553257D01*
X146300990Y-117553257D02*
X146253371Y-117505638D01*
X146253371Y-117505638D02*
X146205752Y-117410400D01*
X146205752Y-117410400D02*
X146205752Y-117267543D01*
X146205752Y-117267543D02*
X146253371Y-117172305D01*
X146253371Y-117172305D02*
X146348609Y-117124686D01*
X146348609Y-117124686D02*
X146872419Y-117124686D01*
X146872419Y-116219924D02*
X146348609Y-116219924D01*
X146348609Y-116219924D02*
X146253371Y-116267543D01*
X146253371Y-116267543D02*
X146205752Y-116362781D01*
X146205752Y-116362781D02*
X146205752Y-116553257D01*
X146205752Y-116553257D02*
X146253371Y-116648495D01*
X146824800Y-116219924D02*
X146872419Y-116315162D01*
X146872419Y-116315162D02*
X146872419Y-116553257D01*
X146872419Y-116553257D02*
X146824800Y-116648495D01*
X146824800Y-116648495D02*
X146729561Y-116696114D01*
X146729561Y-116696114D02*
X146634323Y-116696114D01*
X146634323Y-116696114D02*
X146539085Y-116648495D01*
X146539085Y-116648495D02*
X146491466Y-116553257D01*
X146491466Y-116553257D02*
X146491466Y-116315162D01*
X146491466Y-116315162D02*
X146443847Y-116219924D01*
X146872419Y-115600876D02*
X146824800Y-115696114D01*
X146824800Y-115696114D02*
X146729561Y-115743733D01*
X146729561Y-115743733D02*
X145872419Y-115743733D01*
X130375312Y-124372419D02*
X130041979Y-123896228D01*
X129803884Y-124372419D02*
X129803884Y-123372419D01*
X129803884Y-123372419D02*
X130184836Y-123372419D01*
X130184836Y-123372419D02*
X130280074Y-123420038D01*
X130280074Y-123420038D02*
X130327693Y-123467657D01*
X130327693Y-123467657D02*
X130375312Y-123562895D01*
X130375312Y-123562895D02*
X130375312Y-123705752D01*
X130375312Y-123705752D02*
X130327693Y-123800990D01*
X130327693Y-123800990D02*
X130280074Y-123848609D01*
X130280074Y-123848609D02*
X130184836Y-123896228D01*
X130184836Y-123896228D02*
X129803884Y-123896228D01*
X165282394Y-79513536D02*
X165949061Y-79513536D01*
X165758585Y-79513536D02*
X165853823Y-79561155D01*
X165853823Y-79561155D02*
X165901442Y-79608774D01*
X165901442Y-79608774D02*
X165949061Y-79704012D01*
X165949061Y-79704012D02*
X165949061Y-79799250D01*
X165330014Y-80513536D02*
X165282394Y-80418298D01*
X165282394Y-80418298D02*
X165282394Y-80227822D01*
X165282394Y-80227822D02*
X165330014Y-80132584D01*
X165330014Y-80132584D02*
X165425252Y-80084965D01*
X165425252Y-80084965D02*
X165806204Y-80084965D01*
X165806204Y-80084965D02*
X165901442Y-80132584D01*
X165901442Y-80132584D02*
X165949061Y-80227822D01*
X165949061Y-80227822D02*
X165949061Y-80418298D01*
X165949061Y-80418298D02*
X165901442Y-80513536D01*
X165901442Y-80513536D02*
X165806204Y-80561155D01*
X165806204Y-80561155D02*
X165710966Y-80561155D01*
X165710966Y-80561155D02*
X165615728Y-80084965D01*
X165330014Y-80942108D02*
X165282394Y-81037346D01*
X165282394Y-81037346D02*
X165282394Y-81227822D01*
X165282394Y-81227822D02*
X165330014Y-81323060D01*
X165330014Y-81323060D02*
X165425252Y-81370679D01*
X165425252Y-81370679D02*
X165472871Y-81370679D01*
X165472871Y-81370679D02*
X165568109Y-81323060D01*
X165568109Y-81323060D02*
X165615728Y-81227822D01*
X165615728Y-81227822D02*
X165615728Y-81084965D01*
X165615728Y-81084965D02*
X165663347Y-80989727D01*
X165663347Y-80989727D02*
X165758585Y-80942108D01*
X165758585Y-80942108D02*
X165806204Y-80942108D01*
X165806204Y-80942108D02*
X165901442Y-80989727D01*
X165901442Y-80989727D02*
X165949061Y-81084965D01*
X165949061Y-81084965D02*
X165949061Y-81227822D01*
X165949061Y-81227822D02*
X165901442Y-81323060D01*
X165330014Y-82180203D02*
X165282394Y-82084965D01*
X165282394Y-82084965D02*
X165282394Y-81894489D01*
X165282394Y-81894489D02*
X165330014Y-81799251D01*
X165330014Y-81799251D02*
X165425252Y-81751632D01*
X165425252Y-81751632D02*
X165806204Y-81751632D01*
X165806204Y-81751632D02*
X165901442Y-81799251D01*
X165901442Y-81799251D02*
X165949061Y-81894489D01*
X165949061Y-81894489D02*
X165949061Y-82084965D01*
X165949061Y-82084965D02*
X165901442Y-82180203D01*
X165901442Y-82180203D02*
X165806204Y-82227822D01*
X165806204Y-82227822D02*
X165710966Y-82227822D01*
X165710966Y-82227822D02*
X165615728Y-81751632D01*
X165949061Y-82513537D02*
X165949061Y-82894489D01*
X166282394Y-82656394D02*
X165425252Y-82656394D01*
X165425252Y-82656394D02*
X165330014Y-82704013D01*
X165330014Y-82704013D02*
X165282394Y-82799251D01*
X165282394Y-82799251D02*
X165282394Y-82894489D01*
X151803884Y-109205752D02*
X151803884Y-110205752D01*
X151803884Y-109253371D02*
X151899122Y-109205752D01*
X151899122Y-109205752D02*
X152089598Y-109205752D01*
X152089598Y-109205752D02*
X152184836Y-109253371D01*
X152184836Y-109253371D02*
X152232455Y-109300990D01*
X152232455Y-109300990D02*
X152280074Y-109396228D01*
X152280074Y-109396228D02*
X152280074Y-109681942D01*
X152280074Y-109681942D02*
X152232455Y-109777180D01*
X152232455Y-109777180D02*
X152184836Y-109824800D01*
X152184836Y-109824800D02*
X152089598Y-109872419D01*
X152089598Y-109872419D02*
X151899122Y-109872419D01*
X151899122Y-109872419D02*
X151803884Y-109824800D01*
X153232455Y-109872419D02*
X152661027Y-109872419D01*
X152946741Y-109872419D02*
X152946741Y-108872419D01*
X152946741Y-108872419D02*
X152851503Y-109015276D01*
X152851503Y-109015276D02*
X152756265Y-109110514D01*
X152756265Y-109110514D02*
X152661027Y-109158133D01*
X113223361Y-78322101D02*
X113223361Y-77322101D01*
X113223361Y-77322101D02*
X113604313Y-77322101D01*
X113604313Y-77322101D02*
X113699551Y-77369720D01*
X113699551Y-77369720D02*
X113747170Y-77417339D01*
X113747170Y-77417339D02*
X113794789Y-77512577D01*
X113794789Y-77512577D02*
X113794789Y-77655434D01*
X113794789Y-77655434D02*
X113747170Y-77750672D01*
X113747170Y-77750672D02*
X113699551Y-77798291D01*
X113699551Y-77798291D02*
X113604313Y-77845910D01*
X113604313Y-77845910D02*
X113223361Y-77845910D01*
X114128123Y-77322101D02*
X114366218Y-78322101D01*
X114366218Y-78322101D02*
X114556694Y-77607815D01*
X114556694Y-77607815D02*
X114747170Y-78322101D01*
X114747170Y-78322101D02*
X114985266Y-77322101D01*
X115937646Y-78322101D02*
X115604313Y-77845910D01*
X115366218Y-78322101D02*
X115366218Y-77322101D01*
X115366218Y-77322101D02*
X115747170Y-77322101D01*
X115747170Y-77322101D02*
X115842408Y-77369720D01*
X115842408Y-77369720D02*
X115890027Y-77417339D01*
X115890027Y-77417339D02*
X115937646Y-77512577D01*
X115937646Y-77512577D02*
X115937646Y-77655434D01*
X115937646Y-77655434D02*
X115890027Y-77750672D01*
X115890027Y-77750672D02*
X115842408Y-77798291D01*
X115842408Y-77798291D02*
X115747170Y-77845910D01*
X115747170Y-77845910D02*
X115366218Y-77845910D01*
G36*
X161381716Y-129577941D02*
G01*
X160681228Y-129577941D01*
X160719211Y-129501737D01*
X160804082Y-129501737D01*
X161258862Y-129501737D01*
X161030739Y-129045491D01*
X160804082Y-129501737D01*
X160719211Y-129501737D01*
X161030739Y-128876720D01*
X161381716Y-129577941D01*
G37*
G36*
X161084976Y-128769486D02*
G01*
X161137168Y-128776779D01*
X161187314Y-128788933D01*
X161235415Y-128805950D01*
X161281470Y-128827829D01*
X161325479Y-128854570D01*
X161367443Y-128886173D01*
X161407362Y-128922637D01*
X161443826Y-128962502D01*
X161475429Y-129004428D01*
X161502170Y-129048415D01*
X161524049Y-129094462D01*
X161541066Y-129142570D01*
X161553220Y-129192739D01*
X161560513Y-129244969D01*
X161562944Y-129299260D01*
X161560513Y-129353211D01*
X161553220Y-129405154D01*
X161541066Y-129455091D01*
X161524049Y-129503019D01*
X161502170Y-129548941D01*
X161475429Y-129592855D01*
X161443826Y-129634762D01*
X161407362Y-129674661D01*
X161367443Y-129711068D01*
X161325479Y-129742622D01*
X161281470Y-129769320D01*
X161235415Y-129791165D01*
X161187314Y-129808155D01*
X161137168Y-129820291D01*
X161084976Y-129827572D01*
X161030739Y-129830000D01*
X160976845Y-129827572D01*
X160924952Y-129820291D01*
X160875057Y-129808155D01*
X160827163Y-129791165D01*
X160781268Y-129769320D01*
X160737373Y-129742622D01*
X160695478Y-129711068D01*
X160655582Y-129674661D01*
X160619117Y-129634762D01*
X160587515Y-129592855D01*
X160560774Y-129548941D01*
X160538895Y-129503019D01*
X160521878Y-129455091D01*
X160509723Y-129405154D01*
X160502430Y-129353211D01*
X160500000Y-129299260D01*
X160576203Y-129299260D01*
X160576724Y-129322554D01*
X160582585Y-129378921D01*
X160594957Y-129432616D01*
X160613840Y-129483640D01*
X160639235Y-129531993D01*
X160671142Y-129577674D01*
X160709560Y-129620683D01*
X160726442Y-129636832D01*
X160770510Y-129672646D01*
X160817237Y-129701948D01*
X160866623Y-129724738D01*
X160918669Y-129741017D01*
X160973374Y-129750784D01*
X161030739Y-129754040D01*
X161054182Y-129753519D01*
X161110876Y-129747659D01*
X161164840Y-129735287D01*
X161216073Y-129716403D01*
X161264574Y-129691008D01*
X161310345Y-129659102D01*
X161353384Y-129620683D01*
X161369533Y-129603800D01*
X161405346Y-129559722D01*
X161434648Y-129512972D01*
X161457439Y-129463551D01*
X161473717Y-129411459D01*
X161483485Y-129356695D01*
X161486741Y-129299260D01*
X161486220Y-129275788D01*
X161480359Y-129219027D01*
X161467987Y-129165010D01*
X161449104Y-129113736D01*
X161423709Y-129065205D01*
X161391802Y-129019416D01*
X161353384Y-128976371D01*
X161336496Y-128960222D01*
X161292364Y-128924409D01*
X161245501Y-128895107D01*
X161195907Y-128872316D01*
X161143582Y-128856037D01*
X161088526Y-128846270D01*
X161030739Y-128843014D01*
X161007474Y-128843535D01*
X160951173Y-128849395D01*
X160897531Y-128861767D01*
X160846549Y-128880651D01*
X160798227Y-128906046D01*
X160752564Y-128937953D01*
X160709560Y-128976371D01*
X160693411Y-128993260D01*
X160657598Y-129037402D01*
X160628296Y-129084288D01*
X160605505Y-129133916D01*
X160589226Y-129186288D01*
X160579459Y-129241402D01*
X160576203Y-129299260D01*
X160500000Y-129299260D01*
X160502438Y-129245301D01*
X160509754Y-129193335D01*
X160521947Y-129143360D01*
X160539017Y-129095378D01*
X160560965Y-129049388D01*
X160587790Y-129005390D01*
X160619491Y-128963384D01*
X160656071Y-128923370D01*
X160696119Y-128886734D01*
X160738106Y-128854982D01*
X160782031Y-128828115D01*
X160827896Y-128806133D01*
X160875698Y-128789036D01*
X160925440Y-128776824D01*
X160977120Y-128769497D01*
X161030739Y-128767055D01*
X161084976Y-128769486D01*
G37*
X118875312Y-124277180D02*
X118827693Y-124324800D01*
X118827693Y-124324800D02*
X118684836Y-124372419D01*
X118684836Y-124372419D02*
X118589598Y-124372419D01*
X118589598Y-124372419D02*
X118446741Y-124324800D01*
X118446741Y-124324800D02*
X118351503Y-124229561D01*
X118351503Y-124229561D02*
X118303884Y-124134323D01*
X118303884Y-124134323D02*
X118256265Y-123943847D01*
X118256265Y-123943847D02*
X118256265Y-123800990D01*
X118256265Y-123800990D02*
X118303884Y-123610514D01*
X118303884Y-123610514D02*
X118351503Y-123515276D01*
X118351503Y-123515276D02*
X118446741Y-123420038D01*
X118446741Y-123420038D02*
X118589598Y-123372419D01*
X118589598Y-123372419D02*
X118684836Y-123372419D01*
X118684836Y-123372419D02*
X118827693Y-123420038D01*
X118827693Y-123420038D02*
X118875312Y-123467657D01*
G36*
X112406664Y-120267055D02*
G01*
X112358629Y-120278830D01*
X112341451Y-120291967D01*
X112027599Y-120605331D01*
X112002695Y-120648118D01*
X112000000Y-120670544D01*
X112012698Y-120718180D01*
X112026866Y-120736245D01*
X112069349Y-120760709D01*
X112092323Y-120763356D01*
X112141236Y-120749855D01*
X112156803Y-120737222D01*
X112312630Y-120580907D01*
X112312630Y-121236454D01*
X112325329Y-121284090D01*
X112339497Y-121302156D01*
X112383768Y-121326897D01*
X112403977Y-121329023D01*
X112451718Y-121316324D01*
X112469678Y-121302156D01*
X112494142Y-121259452D01*
X112496789Y-121236454D01*
X112496789Y-120575289D01*
X112645289Y-120717683D01*
X112690713Y-120740625D01*
X112711235Y-120742595D01*
X112758556Y-120730012D01*
X112776936Y-120715973D01*
X112802281Y-120674183D01*
X112805024Y-120651981D01*
X112791286Y-120603600D01*
X112775959Y-120586036D01*
X112472121Y-120294654D01*
X112428588Y-120269750D01*
X112406664Y-120267055D01*
G37*
G36*
X129647408Y-125490033D02*
G01*
X129677282Y-125529800D01*
X129679274Y-125549853D01*
X129637752Y-125549853D01*
X129599227Y-125517496D01*
X129594277Y-125517369D01*
X129555931Y-125542526D01*
X129589637Y-125569148D01*
X129637825Y-125580268D01*
X129652651Y-125584535D01*
X129685907Y-125620653D01*
X129687578Y-125635094D01*
X129671683Y-125682845D01*
X129623999Y-125703856D01*
X129604535Y-125704947D01*
X129553919Y-125696780D01*
X129518757Y-125659317D01*
X129515631Y-125635826D01*
X129555931Y-125635826D01*
X129592239Y-125668752D01*
X129600139Y-125669043D01*
X129644137Y-125647726D01*
X129644836Y-125641200D01*
X129611618Y-125615799D01*
X129563214Y-125603934D01*
X129548848Y-125599190D01*
X129517221Y-125561433D01*
X129515631Y-125545945D01*
X129533663Y-125498786D01*
X129583031Y-125480821D01*
X129597697Y-125480244D01*
X129647408Y-125490033D01*
G37*
G36*
X129874912Y-125523475D02*
G01*
X129809944Y-125523475D01*
X129809944Y-125699330D01*
X129765736Y-125699330D01*
X129765736Y-125523475D01*
X129703210Y-125523475D01*
X129703210Y-125486106D01*
X129874912Y-125486106D01*
X129874912Y-125523475D01*
G37*
G36*
X130084717Y-125699330D02*
G01*
X130037822Y-125699330D01*
X130024145Y-125658053D01*
X129945254Y-125658053D01*
X129931577Y-125699330D01*
X129884682Y-125699330D01*
X129912609Y-125620683D01*
X129957711Y-125620683D01*
X130011688Y-125620683D01*
X129985310Y-125534466D01*
X129984089Y-125534466D01*
X129957711Y-125620683D01*
X129912609Y-125620683D01*
X129960397Y-125486106D01*
X130010223Y-125486106D01*
X130084717Y-125699330D01*
G37*
G36*
X130265457Y-125501249D02*
G01*
X130281577Y-125546678D01*
X130259809Y-125591403D01*
X130248604Y-125596503D01*
X130275772Y-125638177D01*
X130276203Y-125647306D01*
X130276203Y-125660006D01*
X130276203Y-125670997D01*
X130287683Y-125693712D01*
X130287683Y-125699330D01*
X130234682Y-125699330D01*
X130232625Y-125649935D01*
X130231995Y-125642909D01*
X130199267Y-125614577D01*
X130156524Y-125614577D01*
X130156524Y-125699330D01*
X130113782Y-125699330D01*
X130113782Y-125579895D01*
X130156524Y-125579895D01*
X130203175Y-125579895D01*
X130234682Y-125551074D01*
X130206838Y-125523475D01*
X130156524Y-125523475D01*
X130156524Y-125579895D01*
X130113782Y-125579895D01*
X130113782Y-125486106D01*
X130217096Y-125486106D01*
X130265457Y-125501249D01*
G37*
G36*
X130484787Y-125523475D02*
G01*
X130419818Y-125523475D01*
X130419818Y-125699330D01*
X130375366Y-125699330D01*
X130375366Y-125523475D01*
X130311618Y-125523475D01*
X130311618Y-125486106D01*
X130484787Y-125486106D01*
X130484787Y-125523475D01*
G37*
G36*
X129654651Y-124992231D02*
G01*
X129719402Y-125007783D01*
X129784690Y-125023528D01*
X129836180Y-125035970D01*
X129894040Y-125049966D01*
X129958272Y-125065517D01*
X130028876Y-125082624D01*
X130105850Y-125101285D01*
X130189196Y-125121502D01*
X130278914Y-125143274D01*
X130375002Y-125166601D01*
X130425436Y-125178848D01*
X130439357Y-125187152D01*
X130389373Y-125203915D01*
X130335493Y-125220064D01*
X130278367Y-125236821D01*
X130227343Y-125251628D01*
X130169308Y-125268354D01*
X130104262Y-125287000D01*
X130057003Y-125300496D01*
X130032205Y-125307564D01*
X129982799Y-125321613D01*
X129914272Y-125340986D01*
X129852442Y-125358321D01*
X129797310Y-125373616D01*
X129748875Y-125386871D01*
X129694714Y-125401373D01*
X129643757Y-125414402D01*
X129598918Y-125423579D01*
X129575226Y-125397445D01*
X129575226Y-125007390D01*
X129601605Y-124979790D01*
X129654651Y-124992231D01*
G37*
G36*
X115563433Y-120815624D02*
G01*
X115551658Y-120767484D01*
X115538520Y-120750411D01*
X115224668Y-120435338D01*
X115181881Y-120410434D01*
X115159455Y-120407739D01*
X115111599Y-120420899D01*
X115093510Y-120435582D01*
X115069046Y-120478149D01*
X115066399Y-120500551D01*
X115078866Y-120548166D01*
X115092777Y-120565764D01*
X115249092Y-120722568D01*
X114592812Y-120722568D01*
X114544955Y-120735382D01*
X114526866Y-120749678D01*
X114502623Y-120792161D01*
X114500000Y-120815136D01*
X114513879Y-120863933D01*
X114526866Y-120880348D01*
X114569685Y-120905253D01*
X114592812Y-120907948D01*
X115254710Y-120907948D01*
X115112072Y-121055471D01*
X115089130Y-121099292D01*
X115087159Y-121119462D01*
X115099858Y-121167539D01*
X115114026Y-121185652D01*
X115157946Y-121210618D01*
X115178018Y-121212763D01*
X115226399Y-121199025D01*
X115243963Y-121183698D01*
X115535833Y-120879616D01*
X115560738Y-120836881D01*
X115563433Y-120815624D01*
G37*
G36*
X166532250Y-129204890D02*
G01*
X166535136Y-129223056D01*
X166506147Y-129264501D01*
X166483600Y-129267264D01*
X166406420Y-129267264D01*
X166406420Y-129181535D01*
X166488974Y-129181535D01*
X166532250Y-129204890D01*
G37*
G36*
X167189951Y-129011786D02*
G01*
X167203628Y-129044759D01*
X167203628Y-129564263D01*
X167189951Y-129597480D01*
X167156734Y-129611158D01*
X166046894Y-129611158D01*
X166013677Y-129597480D01*
X166000000Y-129564263D01*
X166000000Y-129448004D01*
X166340718Y-129448004D01*
X166406420Y-129448004D01*
X166406420Y-129322219D01*
X166476273Y-129322219D01*
X166522645Y-129340206D01*
X166530983Y-129363984D01*
X166534450Y-129413635D01*
X166535136Y-129448004D01*
X166615247Y-129448004D01*
X166615247Y-129439699D01*
X166593998Y-129405505D01*
X166593998Y-129387920D01*
X166593998Y-129370334D01*
X166584289Y-129322158D01*
X166555163Y-129293398D01*
X166596013Y-129266104D01*
X166609630Y-129216950D01*
X166601049Y-129184466D01*
X166666294Y-129184466D01*
X166666294Y-129228674D01*
X166738101Y-129228674D01*
X166738101Y-129448004D01*
X166797941Y-129448004D01*
X166797941Y-129130732D01*
X166747383Y-129130732D01*
X166721726Y-129174181D01*
X166671283Y-129184413D01*
X166666294Y-129184466D01*
X166601049Y-129184466D01*
X166597007Y-129169165D01*
X166580321Y-129150516D01*
X166535225Y-129129408D01*
X166506315Y-129126580D01*
X166340718Y-129126580D01*
X166340718Y-129448004D01*
X166000000Y-129448004D01*
X166000000Y-129044759D01*
X166013677Y-129011786D01*
X166046894Y-128997864D01*
X167156734Y-128997864D01*
X167189951Y-129011786D01*
G37*
G36*
X109500000Y-120815624D02*
G01*
X109511890Y-120767484D01*
X109525157Y-120750411D01*
X109839741Y-120435338D01*
X109882644Y-120410434D01*
X109905198Y-120407739D01*
X109953275Y-120420899D01*
X109971388Y-120435582D01*
X109995852Y-120478149D01*
X109998499Y-120500551D01*
X109986031Y-120548166D01*
X109972121Y-120565764D01*
X109815806Y-120722568D01*
X110472086Y-120722568D01*
X110519827Y-120735382D01*
X110537787Y-120749678D01*
X110562251Y-120792161D01*
X110564898Y-120815136D01*
X110550893Y-120863933D01*
X110537787Y-120880348D01*
X110495189Y-120905253D01*
X110472086Y-120907948D01*
X109810188Y-120907948D01*
X109952826Y-121055471D01*
X109975768Y-121099292D01*
X109977739Y-121119462D01*
X109965040Y-121167539D01*
X109950872Y-121185652D01*
X109906825Y-121210618D01*
X109886636Y-121212763D01*
X109838139Y-121199025D01*
X109820446Y-121183698D01*
X109527843Y-120879616D01*
X109502719Y-120836881D01*
X109500000Y-120815624D01*
G37*
G36*
X164084976Y-128769486D02*
G01*
X164137168Y-128776779D01*
X164187314Y-128788933D01*
X164235415Y-128805950D01*
X164281470Y-128827829D01*
X164325479Y-128854570D01*
X164367443Y-128886173D01*
X164407362Y-128922637D01*
X164443826Y-128962502D01*
X164475429Y-129004428D01*
X164502170Y-129048415D01*
X164524049Y-129094462D01*
X164541066Y-129142570D01*
X164553220Y-129192739D01*
X164560513Y-129244969D01*
X164562944Y-129299260D01*
X164560513Y-129353211D01*
X164553220Y-129405154D01*
X164541066Y-129455091D01*
X164524049Y-129503019D01*
X164502170Y-129548941D01*
X164475429Y-129592855D01*
X164443826Y-129634762D01*
X164407362Y-129674661D01*
X164367443Y-129711068D01*
X164325479Y-129742622D01*
X164281470Y-129769320D01*
X164235415Y-129791165D01*
X164187314Y-129808155D01*
X164137168Y-129820291D01*
X164084976Y-129827572D01*
X164030739Y-129830000D01*
X163976845Y-129827572D01*
X163924952Y-129820291D01*
X163875057Y-129808155D01*
X163827163Y-129791165D01*
X163781268Y-129769320D01*
X163737373Y-129742622D01*
X163695478Y-129711068D01*
X163655582Y-129674661D01*
X163619117Y-129634762D01*
X163611447Y-129624591D01*
X163713468Y-129624591D01*
X163730281Y-129640267D01*
X163774110Y-129675031D01*
X163820503Y-129703474D01*
X163869460Y-129725597D01*
X163920982Y-129741398D01*
X163975067Y-129750880D01*
X164031716Y-129754040D01*
X164054689Y-129753534D01*
X164110377Y-129747846D01*
X164163573Y-129735836D01*
X164214276Y-129717506D01*
X164262487Y-129692855D01*
X164308205Y-129661884D01*
X164351430Y-129624591D01*
X163713468Y-129624591D01*
X163611447Y-129624591D01*
X163587515Y-129592855D01*
X163560774Y-129548941D01*
X163538895Y-129503019D01*
X163521878Y-129455091D01*
X163509723Y-129405154D01*
X163502430Y-129353211D01*
X163500000Y-129299260D01*
X163500044Y-129298283D01*
X163576203Y-129298283D01*
X163576707Y-129321249D01*
X163582374Y-129376862D01*
X163594338Y-129429899D01*
X163612599Y-129480360D01*
X163637157Y-129528245D01*
X163668012Y-129573554D01*
X163705163Y-129616287D01*
X164359734Y-129616287D01*
X164375114Y-129599331D01*
X164409222Y-129555239D01*
X164437129Y-129508713D01*
X164458834Y-129459755D01*
X164474338Y-129408364D01*
X164483640Y-129354540D01*
X164486741Y-129298283D01*
X164486244Y-129275109D01*
X164480663Y-129219037D01*
X164468880Y-129165625D01*
X164450896Y-129114871D01*
X164426710Y-129066778D01*
X164396323Y-129021344D01*
X164359734Y-128978569D01*
X164359734Y-129616287D01*
X163705163Y-129616287D01*
X163705163Y-129548632D01*
X163781367Y-129548632D01*
X164283531Y-129548632D01*
X164283531Y-129046224D01*
X163781367Y-129046224D01*
X163781367Y-129548632D01*
X163705163Y-129548632D01*
X163705163Y-128978569D01*
X163689547Y-128995360D01*
X163654914Y-129039198D01*
X163626578Y-129085696D01*
X163604539Y-129134854D01*
X163588797Y-129186671D01*
X163579352Y-129241147D01*
X163576203Y-129298283D01*
X163500044Y-129298283D01*
X163502438Y-129245301D01*
X163509754Y-129193335D01*
X163521947Y-129143360D01*
X163539017Y-129095378D01*
X163560965Y-129049388D01*
X163587790Y-129005390D01*
X163614298Y-128970265D01*
X163713468Y-128970265D01*
X164351430Y-128970265D01*
X164334611Y-128954855D01*
X164290717Y-128920682D01*
X164244188Y-128892721D01*
X164195024Y-128870974D01*
X164143224Y-128855441D01*
X164088788Y-128846121D01*
X164031716Y-128843014D01*
X164008749Y-128843511D01*
X163953125Y-128849103D01*
X163900065Y-128860909D01*
X163849570Y-128878928D01*
X163801638Y-128903160D01*
X163756271Y-128933606D01*
X163713468Y-128970265D01*
X163614298Y-128970265D01*
X163619491Y-128963384D01*
X163656071Y-128923370D01*
X163696119Y-128886734D01*
X163738106Y-128854982D01*
X163782031Y-128828115D01*
X163827896Y-128806133D01*
X163875698Y-128789036D01*
X163925440Y-128776824D01*
X163977120Y-128769497D01*
X164030739Y-128767055D01*
X164084976Y-128769486D01*
G37*
X166958698Y-98915404D02*
X166958698Y-99915404D01*
X166958698Y-98963023D02*
X167053936Y-98915404D01*
X167053936Y-98915404D02*
X167244412Y-98915404D01*
X167244412Y-98915404D02*
X167339650Y-98963023D01*
X167339650Y-98963023D02*
X167387269Y-99010642D01*
X167387269Y-99010642D02*
X167434888Y-99105880D01*
X167434888Y-99105880D02*
X167434888Y-99391594D01*
X167434888Y-99391594D02*
X167387269Y-99486832D01*
X167387269Y-99486832D02*
X167339650Y-99534452D01*
X167339650Y-99534452D02*
X167244412Y-99582071D01*
X167244412Y-99582071D02*
X167053936Y-99582071D01*
X167053936Y-99582071D02*
X166958698Y-99534452D01*
X167768222Y-98915404D02*
X167958698Y-99582071D01*
X167958698Y-99582071D02*
X168149174Y-99105880D01*
X168149174Y-99105880D02*
X168339650Y-99582071D01*
X168339650Y-99582071D02*
X168530126Y-98915404D01*
X168911079Y-99582071D02*
X168911079Y-98915404D01*
X168911079Y-99105880D02*
X168958698Y-99010642D01*
X168958698Y-99010642D02*
X169006317Y-98963023D01*
X169006317Y-98963023D02*
X169101555Y-98915404D01*
X169101555Y-98915404D02*
X169196793Y-98915404D01*
X169292032Y-99677309D02*
X170053936Y-99677309D01*
X170720603Y-99582071D02*
X170720603Y-98582071D01*
X170720603Y-99534452D02*
X170625365Y-99582071D01*
X170625365Y-99582071D02*
X170434889Y-99582071D01*
X170434889Y-99582071D02*
X170339651Y-99534452D01*
X170339651Y-99534452D02*
X170292032Y-99486832D01*
X170292032Y-99486832D02*
X170244413Y-99391594D01*
X170244413Y-99391594D02*
X170244413Y-99105880D01*
X170244413Y-99105880D02*
X170292032Y-99010642D01*
X170292032Y-99010642D02*
X170339651Y-98963023D01*
X170339651Y-98963023D02*
X170434889Y-98915404D01*
X170434889Y-98915404D02*
X170625365Y-98915404D01*
X170625365Y-98915404D02*
X170720603Y-98963023D01*
G36*
X118198255Y-120527173D02*
G01*
X118212177Y-120560390D01*
X118212177Y-121080139D01*
X118198255Y-121113112D01*
X118165038Y-121126789D01*
X117047138Y-121126789D01*
X117013677Y-121113112D01*
X117000000Y-121080139D01*
X117000000Y-120963635D01*
X117366852Y-120963635D01*
X117593998Y-120963635D01*
X117593998Y-120905017D01*
X117433775Y-120905017D01*
X117433775Y-120701074D01*
X117636741Y-120701074D01*
X117636741Y-120744794D01*
X117712944Y-120744794D01*
X117712944Y-120963635D01*
X117781577Y-120963635D01*
X117781577Y-120646364D01*
X117726378Y-120646364D01*
X117699012Y-120689053D01*
X117647109Y-120700860D01*
X117636741Y-120701074D01*
X117433775Y-120701074D01*
X117433775Y-120642212D01*
X117366852Y-120642212D01*
X117366852Y-120963635D01*
X117000000Y-120963635D01*
X117000000Y-120560390D01*
X117013677Y-120527173D01*
X117047138Y-120513496D01*
X118165038Y-120513496D01*
X118198255Y-120527173D01*
G37*
X163434836Y-122600276D02*
X163434836Y-123100276D01*
X163434836Y-122624085D02*
X163482455Y-122600276D01*
X163482455Y-122600276D02*
X163577693Y-122600276D01*
X163577693Y-122600276D02*
X163625312Y-122624085D01*
X163625312Y-122624085D02*
X163649122Y-122647895D01*
X163649122Y-122647895D02*
X163672931Y-122695514D01*
X163672931Y-122695514D02*
X163672931Y-122838371D01*
X163672931Y-122838371D02*
X163649122Y-122885990D01*
X163649122Y-122885990D02*
X163625312Y-122909800D01*
X163625312Y-122909800D02*
X163577693Y-122933609D01*
X163577693Y-122933609D02*
X163482455Y-122933609D01*
X163482455Y-122933609D02*
X163434836Y-122909800D01*
X163839598Y-122600276D02*
X163934836Y-122933609D01*
X163934836Y-122933609D02*
X164030074Y-122695514D01*
X164030074Y-122695514D02*
X164125312Y-122933609D01*
X164125312Y-122933609D02*
X164220550Y-122600276D01*
X164411027Y-122933609D02*
X164411027Y-122600276D01*
X164411027Y-122695514D02*
X164434837Y-122647895D01*
X164434837Y-122647895D02*
X164458646Y-122624085D01*
X164458646Y-122624085D02*
X164506265Y-122600276D01*
X164506265Y-122600276D02*
X164553884Y-122600276D01*
X164911079Y-87534452D02*
X165006317Y-87582071D01*
X165006317Y-87582071D02*
X165196793Y-87582071D01*
X165196793Y-87582071D02*
X165292031Y-87534452D01*
X165292031Y-87534452D02*
X165339650Y-87439213D01*
X165339650Y-87439213D02*
X165339650Y-87391594D01*
X165339650Y-87391594D02*
X165292031Y-87296356D01*
X165292031Y-87296356D02*
X165196793Y-87248737D01*
X165196793Y-87248737D02*
X165053936Y-87248737D01*
X165053936Y-87248737D02*
X164958698Y-87201118D01*
X164958698Y-87201118D02*
X164911079Y-87105880D01*
X164911079Y-87105880D02*
X164911079Y-87058261D01*
X164911079Y-87058261D02*
X164958698Y-86963023D01*
X164958698Y-86963023D02*
X165053936Y-86915404D01*
X165053936Y-86915404D02*
X165196793Y-86915404D01*
X165196793Y-86915404D02*
X165292031Y-86963023D01*
X166196793Y-87534452D02*
X166101555Y-87582071D01*
X166101555Y-87582071D02*
X165911079Y-87582071D01*
X165911079Y-87582071D02*
X165815841Y-87534452D01*
X165815841Y-87534452D02*
X165768222Y-87486832D01*
X165768222Y-87486832D02*
X165720603Y-87391594D01*
X165720603Y-87391594D02*
X165720603Y-87105880D01*
X165720603Y-87105880D02*
X165768222Y-87010642D01*
X165768222Y-87010642D02*
X165815841Y-86963023D01*
X165815841Y-86963023D02*
X165911079Y-86915404D01*
X165911079Y-86915404D02*
X166101555Y-86915404D01*
X166101555Y-86915404D02*
X166196793Y-86963023D01*
X166625365Y-87582071D02*
X166625365Y-86915404D01*
X166625365Y-87105880D02*
X166672984Y-87010642D01*
X166672984Y-87010642D02*
X166720603Y-86963023D01*
X166720603Y-86963023D02*
X166815841Y-86915404D01*
X166815841Y-86915404D02*
X166911079Y-86915404D01*
X167625365Y-87534452D02*
X167530127Y-87582071D01*
X167530127Y-87582071D02*
X167339651Y-87582071D01*
X167339651Y-87582071D02*
X167244413Y-87534452D01*
X167244413Y-87534452D02*
X167196794Y-87439213D01*
X167196794Y-87439213D02*
X167196794Y-87058261D01*
X167196794Y-87058261D02*
X167244413Y-86963023D01*
X167244413Y-86963023D02*
X167339651Y-86915404D01*
X167339651Y-86915404D02*
X167530127Y-86915404D01*
X167530127Y-86915404D02*
X167625365Y-86963023D01*
X167625365Y-86963023D02*
X167672984Y-87058261D01*
X167672984Y-87058261D02*
X167672984Y-87153499D01*
X167672984Y-87153499D02*
X167196794Y-87248737D01*
X168482508Y-87534452D02*
X168387270Y-87582071D01*
X168387270Y-87582071D02*
X168196794Y-87582071D01*
X168196794Y-87582071D02*
X168101556Y-87534452D01*
X168101556Y-87534452D02*
X168053937Y-87439213D01*
X168053937Y-87439213D02*
X168053937Y-87058261D01*
X168053937Y-87058261D02*
X168101556Y-86963023D01*
X168101556Y-86963023D02*
X168196794Y-86915404D01*
X168196794Y-86915404D02*
X168387270Y-86915404D01*
X168387270Y-86915404D02*
X168482508Y-86963023D01*
X168482508Y-86963023D02*
X168530127Y-87058261D01*
X168530127Y-87058261D02*
X168530127Y-87153499D01*
X168530127Y-87153499D02*
X168053937Y-87248737D01*
X168958699Y-86915404D02*
X168958699Y-87582071D01*
X168958699Y-87010642D02*
X169006318Y-86963023D01*
X169006318Y-86963023D02*
X169101556Y-86915404D01*
X169101556Y-86915404D02*
X169244413Y-86915404D01*
X169244413Y-86915404D02*
X169339651Y-86963023D01*
X169339651Y-86963023D02*
X169387270Y-87058261D01*
X169387270Y-87058261D02*
X169387270Y-87582071D01*
X169625366Y-87677309D02*
X170387270Y-87677309D01*
X171053937Y-87582071D02*
X171053937Y-86582071D01*
X171053937Y-87534452D02*
X170958699Y-87582071D01*
X170958699Y-87582071D02*
X170768223Y-87582071D01*
X170768223Y-87582071D02*
X170672985Y-87534452D01*
X170672985Y-87534452D02*
X170625366Y-87486832D01*
X170625366Y-87486832D02*
X170577747Y-87391594D01*
X170577747Y-87391594D02*
X170577747Y-87105880D01*
X170577747Y-87105880D02*
X170625366Y-87010642D01*
X170625366Y-87010642D02*
X170672985Y-86963023D01*
X170672985Y-86963023D02*
X170768223Y-86915404D01*
X170768223Y-86915404D02*
X170958699Y-86915404D01*
X170958699Y-86915404D02*
X171053937Y-86963023D01*
X150815161Y-132762475D02*
X150815161Y-131762475D01*
X150815161Y-131762475D02*
X151196113Y-131762475D01*
X151196113Y-131762475D02*
X151291351Y-131810094D01*
X151291351Y-131810094D02*
X151338970Y-131857713D01*
X151338970Y-131857713D02*
X151386589Y-131952951D01*
X151386589Y-131952951D02*
X151386589Y-132095808D01*
X151386589Y-132095808D02*
X151338970Y-132191046D01*
X151338970Y-132191046D02*
X151291351Y-132238665D01*
X151291351Y-132238665D02*
X151196113Y-132286284D01*
X151196113Y-132286284D02*
X150815161Y-132286284D01*
X151767542Y-132714856D02*
X151910399Y-132762475D01*
X151910399Y-132762475D02*
X152148494Y-132762475D01*
X152148494Y-132762475D02*
X152243732Y-132714856D01*
X152243732Y-132714856D02*
X152291351Y-132667236D01*
X152291351Y-132667236D02*
X152338970Y-132571998D01*
X152338970Y-132571998D02*
X152338970Y-132476760D01*
X152338970Y-132476760D02*
X152291351Y-132381522D01*
X152291351Y-132381522D02*
X152243732Y-132333903D01*
X152243732Y-132333903D02*
X152148494Y-132286284D01*
X152148494Y-132286284D02*
X151958018Y-132238665D01*
X151958018Y-132238665D02*
X151862780Y-132191046D01*
X151862780Y-132191046D02*
X151815161Y-132143427D01*
X151815161Y-132143427D02*
X151767542Y-132048189D01*
X151767542Y-132048189D02*
X151767542Y-131952951D01*
X151767542Y-131952951D02*
X151815161Y-131857713D01*
X151815161Y-131857713D02*
X151862780Y-131810094D01*
X151862780Y-131810094D02*
X151958018Y-131762475D01*
X151958018Y-131762475D02*
X152196113Y-131762475D01*
X152196113Y-131762475D02*
X152338970Y-131810094D01*
X152767542Y-132762475D02*
X152767542Y-131762475D01*
X152767542Y-131762475D02*
X153148494Y-131762475D01*
X153148494Y-131762475D02*
X153243732Y-131810094D01*
X153243732Y-131810094D02*
X153291351Y-131857713D01*
X153291351Y-131857713D02*
X153338970Y-131952951D01*
X153338970Y-131952951D02*
X153338970Y-132095808D01*
X153338970Y-132095808D02*
X153291351Y-132191046D01*
X153291351Y-132191046D02*
X153243732Y-132238665D01*
X153243732Y-132238665D02*
X153148494Y-132286284D01*
X153148494Y-132286284D02*
X152767542Y-132286284D01*
X154862780Y-132238665D02*
X155005637Y-132286284D01*
X155005637Y-132286284D02*
X155053256Y-132333903D01*
X155053256Y-132333903D02*
X155100875Y-132429141D01*
X155100875Y-132429141D02*
X155100875Y-132571998D01*
X155100875Y-132571998D02*
X155053256Y-132667236D01*
X155053256Y-132667236D02*
X155005637Y-132714856D01*
X155005637Y-132714856D02*
X154910399Y-132762475D01*
X154910399Y-132762475D02*
X154529447Y-132762475D01*
X154529447Y-132762475D02*
X154529447Y-131762475D01*
X154529447Y-131762475D02*
X154862780Y-131762475D01*
X154862780Y-131762475D02*
X154958018Y-131810094D01*
X154958018Y-131810094D02*
X155005637Y-131857713D01*
X155005637Y-131857713D02*
X155053256Y-131952951D01*
X155053256Y-131952951D02*
X155053256Y-132048189D01*
X155053256Y-132048189D02*
X155005637Y-132143427D01*
X155005637Y-132143427D02*
X154958018Y-132191046D01*
X154958018Y-132191046D02*
X154862780Y-132238665D01*
X154862780Y-132238665D02*
X154529447Y-132238665D01*
X155672304Y-132762475D02*
X155577066Y-132714856D01*
X155577066Y-132714856D02*
X155529447Y-132619617D01*
X155529447Y-132619617D02*
X155529447Y-131762475D01*
X156481828Y-132095808D02*
X156481828Y-132762475D01*
X156053257Y-132095808D02*
X156053257Y-132619617D01*
X156053257Y-132619617D02*
X156100876Y-132714856D01*
X156100876Y-132714856D02*
X156196114Y-132762475D01*
X156196114Y-132762475D02*
X156338971Y-132762475D01*
X156338971Y-132762475D02*
X156434209Y-132714856D01*
X156434209Y-132714856D02*
X156481828Y-132667236D01*
X157338971Y-132714856D02*
X157243733Y-132762475D01*
X157243733Y-132762475D02*
X157053257Y-132762475D01*
X157053257Y-132762475D02*
X156958019Y-132714856D01*
X156958019Y-132714856D02*
X156910400Y-132619617D01*
X156910400Y-132619617D02*
X156910400Y-132238665D01*
X156910400Y-132238665D02*
X156958019Y-132143427D01*
X156958019Y-132143427D02*
X157053257Y-132095808D01*
X157053257Y-132095808D02*
X157243733Y-132095808D01*
X157243733Y-132095808D02*
X157338971Y-132143427D01*
X157338971Y-132143427D02*
X157386590Y-132238665D01*
X157386590Y-132238665D02*
X157386590Y-132333903D01*
X157386590Y-132333903D02*
X156910400Y-132429141D01*
X157672305Y-132095808D02*
X158053257Y-132095808D01*
X157815162Y-131762475D02*
X157815162Y-132619617D01*
X157815162Y-132619617D02*
X157862781Y-132714856D01*
X157862781Y-132714856D02*
X157958019Y-132762475D01*
X157958019Y-132762475D02*
X158053257Y-132762475D01*
X158529448Y-132762475D02*
X158434210Y-132714856D01*
X158434210Y-132714856D02*
X158386591Y-132667236D01*
X158386591Y-132667236D02*
X158338972Y-132571998D01*
X158338972Y-132571998D02*
X158338972Y-132286284D01*
X158338972Y-132286284D02*
X158386591Y-132191046D01*
X158386591Y-132191046D02*
X158434210Y-132143427D01*
X158434210Y-132143427D02*
X158529448Y-132095808D01*
X158529448Y-132095808D02*
X158672305Y-132095808D01*
X158672305Y-132095808D02*
X158767543Y-132143427D01*
X158767543Y-132143427D02*
X158815162Y-132191046D01*
X158815162Y-132191046D02*
X158862781Y-132286284D01*
X158862781Y-132286284D02*
X158862781Y-132571998D01*
X158862781Y-132571998D02*
X158815162Y-132667236D01*
X158815162Y-132667236D02*
X158767543Y-132714856D01*
X158767543Y-132714856D02*
X158672305Y-132762475D01*
X158672305Y-132762475D02*
X158529448Y-132762475D01*
X159434210Y-132762475D02*
X159338972Y-132714856D01*
X159338972Y-132714856D02*
X159291353Y-132667236D01*
X159291353Y-132667236D02*
X159243734Y-132571998D01*
X159243734Y-132571998D02*
X159243734Y-132286284D01*
X159243734Y-132286284D02*
X159291353Y-132191046D01*
X159291353Y-132191046D02*
X159338972Y-132143427D01*
X159338972Y-132143427D02*
X159434210Y-132095808D01*
X159434210Y-132095808D02*
X159577067Y-132095808D01*
X159577067Y-132095808D02*
X159672305Y-132143427D01*
X159672305Y-132143427D02*
X159719924Y-132191046D01*
X159719924Y-132191046D02*
X159767543Y-132286284D01*
X159767543Y-132286284D02*
X159767543Y-132571998D01*
X159767543Y-132571998D02*
X159719924Y-132667236D01*
X159719924Y-132667236D02*
X159672305Y-132714856D01*
X159672305Y-132714856D02*
X159577067Y-132762475D01*
X159577067Y-132762475D02*
X159434210Y-132762475D01*
X160053258Y-132095808D02*
X160434210Y-132095808D01*
X160196115Y-131762475D02*
X160196115Y-132619617D01*
X160196115Y-132619617D02*
X160243734Y-132714856D01*
X160243734Y-132714856D02*
X160338972Y-132762475D01*
X160338972Y-132762475D02*
X160434210Y-132762475D01*
X160767544Y-132762475D02*
X160767544Y-131762475D01*
X161196115Y-132762475D02*
X161196115Y-132238665D01*
X161196115Y-132238665D02*
X161148496Y-132143427D01*
X161148496Y-132143427D02*
X161053258Y-132095808D01*
X161053258Y-132095808D02*
X160910401Y-132095808D01*
X160910401Y-132095808D02*
X160815163Y-132143427D01*
X160815163Y-132143427D02*
X160767544Y-132191046D01*
X126577065Y-134372419D02*
X126577065Y-133372419D01*
X127005636Y-134372419D02*
X127005636Y-133848609D01*
X127005636Y-133848609D02*
X126958017Y-133753371D01*
X126958017Y-133753371D02*
X126862779Y-133705752D01*
X126862779Y-133705752D02*
X126719922Y-133705752D01*
X126719922Y-133705752D02*
X126624684Y-133753371D01*
X126624684Y-133753371D02*
X126577065Y-133800990D01*
X127338970Y-133705752D02*
X127719922Y-133705752D01*
X127481827Y-133372419D02*
X127481827Y-134229561D01*
X127481827Y-134229561D02*
X127529446Y-134324800D01*
X127529446Y-134324800D02*
X127624684Y-134372419D01*
X127624684Y-134372419D02*
X127719922Y-134372419D01*
X127910399Y-133705752D02*
X128291351Y-133705752D01*
X128053256Y-133372419D02*
X128053256Y-134229561D01*
X128053256Y-134229561D02*
X128100875Y-134324800D01*
X128100875Y-134324800D02*
X128196113Y-134372419D01*
X128196113Y-134372419D02*
X128291351Y-134372419D01*
X128624685Y-133705752D02*
X128624685Y-134705752D01*
X128624685Y-133753371D02*
X128719923Y-133705752D01*
X128719923Y-133705752D02*
X128910399Y-133705752D01*
X128910399Y-133705752D02*
X129005637Y-133753371D01*
X129005637Y-133753371D02*
X129053256Y-133800990D01*
X129053256Y-133800990D02*
X129100875Y-133896228D01*
X129100875Y-133896228D02*
X129100875Y-134181942D01*
X129100875Y-134181942D02*
X129053256Y-134277180D01*
X129053256Y-134277180D02*
X129005637Y-134324800D01*
X129005637Y-134324800D02*
X128910399Y-134372419D01*
X128910399Y-134372419D02*
X128719923Y-134372419D01*
X128719923Y-134372419D02*
X128624685Y-134324800D01*
X129481828Y-134324800D02*
X129577066Y-134372419D01*
X129577066Y-134372419D02*
X129767542Y-134372419D01*
X129767542Y-134372419D02*
X129862780Y-134324800D01*
X129862780Y-134324800D02*
X129910399Y-134229561D01*
X129910399Y-134229561D02*
X129910399Y-134181942D01*
X129910399Y-134181942D02*
X129862780Y-134086704D01*
X129862780Y-134086704D02*
X129767542Y-134039085D01*
X129767542Y-134039085D02*
X129624685Y-134039085D01*
X129624685Y-134039085D02*
X129529447Y-133991466D01*
X129529447Y-133991466D02*
X129481828Y-133896228D01*
X129481828Y-133896228D02*
X129481828Y-133848609D01*
X129481828Y-133848609D02*
X129529447Y-133753371D01*
X129529447Y-133753371D02*
X129624685Y-133705752D01*
X129624685Y-133705752D02*
X129767542Y-133705752D01*
X129767542Y-133705752D02*
X129862780Y-133753371D01*
X130338971Y-134277180D02*
X130386590Y-134324800D01*
X130386590Y-134324800D02*
X130338971Y-134372419D01*
X130338971Y-134372419D02*
X130291352Y-134324800D01*
X130291352Y-134324800D02*
X130338971Y-134277180D01*
X130338971Y-134277180D02*
X130338971Y-134372419D01*
X130338971Y-133753371D02*
X130386590Y-133800990D01*
X130386590Y-133800990D02*
X130338971Y-133848609D01*
X130338971Y-133848609D02*
X130291352Y-133800990D01*
X130291352Y-133800990D02*
X130338971Y-133753371D01*
X130338971Y-133753371D02*
X130338971Y-133848609D01*
X131529446Y-133324800D02*
X130672304Y-134610514D01*
X132577065Y-133324800D02*
X131719923Y-134610514D01*
X133338970Y-133705752D02*
X133338970Y-134515276D01*
X133338970Y-134515276D02*
X133291351Y-134610514D01*
X133291351Y-134610514D02*
X133243732Y-134658133D01*
X133243732Y-134658133D02*
X133148494Y-134705752D01*
X133148494Y-134705752D02*
X133005637Y-134705752D01*
X133005637Y-134705752D02*
X132910399Y-134658133D01*
X133338970Y-134324800D02*
X133243732Y-134372419D01*
X133243732Y-134372419D02*
X133053256Y-134372419D01*
X133053256Y-134372419D02*
X132958018Y-134324800D01*
X132958018Y-134324800D02*
X132910399Y-134277180D01*
X132910399Y-134277180D02*
X132862780Y-134181942D01*
X132862780Y-134181942D02*
X132862780Y-133896228D01*
X132862780Y-133896228D02*
X132910399Y-133800990D01*
X132910399Y-133800990D02*
X132958018Y-133753371D01*
X132958018Y-133753371D02*
X133053256Y-133705752D01*
X133053256Y-133705752D02*
X133243732Y-133705752D01*
X133243732Y-133705752D02*
X133338970Y-133753371D01*
X133815161Y-134372419D02*
X133815161Y-133705752D01*
X133815161Y-133372419D02*
X133767542Y-133420038D01*
X133767542Y-133420038D02*
X133815161Y-133467657D01*
X133815161Y-133467657D02*
X133862780Y-133420038D01*
X133862780Y-133420038D02*
X133815161Y-133372419D01*
X133815161Y-133372419D02*
X133815161Y-133467657D01*
X134148494Y-133705752D02*
X134529446Y-133705752D01*
X134291351Y-133372419D02*
X134291351Y-134229561D01*
X134291351Y-134229561D02*
X134338970Y-134324800D01*
X134338970Y-134324800D02*
X134434208Y-134372419D01*
X134434208Y-134372419D02*
X134529446Y-134372419D01*
X134862780Y-134372419D02*
X134862780Y-133372419D01*
X135291351Y-134372419D02*
X135291351Y-133848609D01*
X135291351Y-133848609D02*
X135243732Y-133753371D01*
X135243732Y-133753371D02*
X135148494Y-133705752D01*
X135148494Y-133705752D02*
X135005637Y-133705752D01*
X135005637Y-133705752D02*
X134910399Y-133753371D01*
X134910399Y-133753371D02*
X134862780Y-133800990D01*
X136196113Y-133705752D02*
X136196113Y-134372419D01*
X135767542Y-133705752D02*
X135767542Y-134229561D01*
X135767542Y-134229561D02*
X135815161Y-134324800D01*
X135815161Y-134324800D02*
X135910399Y-134372419D01*
X135910399Y-134372419D02*
X136053256Y-134372419D01*
X136053256Y-134372419D02*
X136148494Y-134324800D01*
X136148494Y-134324800D02*
X136196113Y-134277180D01*
X136672304Y-134372419D02*
X136672304Y-133372419D01*
X136672304Y-133753371D02*
X136767542Y-133705752D01*
X136767542Y-133705752D02*
X136958018Y-133705752D01*
X136958018Y-133705752D02*
X137053256Y-133753371D01*
X137053256Y-133753371D02*
X137100875Y-133800990D01*
X137100875Y-133800990D02*
X137148494Y-133896228D01*
X137148494Y-133896228D02*
X137148494Y-134181942D01*
X137148494Y-134181942D02*
X137100875Y-134277180D01*
X137100875Y-134277180D02*
X137053256Y-134324800D01*
X137053256Y-134324800D02*
X136958018Y-134372419D01*
X136958018Y-134372419D02*
X136767542Y-134372419D01*
X136767542Y-134372419D02*
X136672304Y-134324800D01*
X137577066Y-134277180D02*
X137624685Y-134324800D01*
X137624685Y-134324800D02*
X137577066Y-134372419D01*
X137577066Y-134372419D02*
X137529447Y-134324800D01*
X137529447Y-134324800D02*
X137577066Y-134277180D01*
X137577066Y-134277180D02*
X137577066Y-134372419D01*
X138481827Y-134324800D02*
X138386589Y-134372419D01*
X138386589Y-134372419D02*
X138196113Y-134372419D01*
X138196113Y-134372419D02*
X138100875Y-134324800D01*
X138100875Y-134324800D02*
X138053256Y-134277180D01*
X138053256Y-134277180D02*
X138005637Y-134181942D01*
X138005637Y-134181942D02*
X138005637Y-133896228D01*
X138005637Y-133896228D02*
X138053256Y-133800990D01*
X138053256Y-133800990D02*
X138100875Y-133753371D01*
X138100875Y-133753371D02*
X138196113Y-133705752D01*
X138196113Y-133705752D02*
X138386589Y-133705752D01*
X138386589Y-133705752D02*
X138481827Y-133753371D01*
X139053256Y-134372419D02*
X138958018Y-134324800D01*
X138958018Y-134324800D02*
X138910399Y-134277180D01*
X138910399Y-134277180D02*
X138862780Y-134181942D01*
X138862780Y-134181942D02*
X138862780Y-133896228D01*
X138862780Y-133896228D02*
X138910399Y-133800990D01*
X138910399Y-133800990D02*
X138958018Y-133753371D01*
X138958018Y-133753371D02*
X139053256Y-133705752D01*
X139053256Y-133705752D02*
X139196113Y-133705752D01*
X139196113Y-133705752D02*
X139291351Y-133753371D01*
X139291351Y-133753371D02*
X139338970Y-133800990D01*
X139338970Y-133800990D02*
X139386589Y-133896228D01*
X139386589Y-133896228D02*
X139386589Y-134181942D01*
X139386589Y-134181942D02*
X139338970Y-134277180D01*
X139338970Y-134277180D02*
X139291351Y-134324800D01*
X139291351Y-134324800D02*
X139196113Y-134372419D01*
X139196113Y-134372419D02*
X139053256Y-134372419D01*
X139815161Y-134372419D02*
X139815161Y-133705752D01*
X139815161Y-133800990D02*
X139862780Y-133753371D01*
X139862780Y-133753371D02*
X139958018Y-133705752D01*
X139958018Y-133705752D02*
X140100875Y-133705752D01*
X140100875Y-133705752D02*
X140196113Y-133753371D01*
X140196113Y-133753371D02*
X140243732Y-133848609D01*
X140243732Y-133848609D02*
X140243732Y-134372419D01*
X140243732Y-133848609D02*
X140291351Y-133753371D01*
X140291351Y-133753371D02*
X140386589Y-133705752D01*
X140386589Y-133705752D02*
X140529446Y-133705752D01*
X140529446Y-133705752D02*
X140624685Y-133753371D01*
X140624685Y-133753371D02*
X140672304Y-133848609D01*
X140672304Y-133848609D02*
X140672304Y-134372419D01*
X141862779Y-133324800D02*
X141005637Y-134610514D01*
X142148494Y-134324800D02*
X142243732Y-134372419D01*
X142243732Y-134372419D02*
X142434208Y-134372419D01*
X142434208Y-134372419D02*
X142529446Y-134324800D01*
X142529446Y-134324800D02*
X142577065Y-134229561D01*
X142577065Y-134229561D02*
X142577065Y-134181942D01*
X142577065Y-134181942D02*
X142529446Y-134086704D01*
X142529446Y-134086704D02*
X142434208Y-134039085D01*
X142434208Y-134039085D02*
X142291351Y-134039085D01*
X142291351Y-134039085D02*
X142196113Y-133991466D01*
X142196113Y-133991466D02*
X142148494Y-133896228D01*
X142148494Y-133896228D02*
X142148494Y-133848609D01*
X142148494Y-133848609D02*
X142196113Y-133753371D01*
X142196113Y-133753371D02*
X142291351Y-133705752D01*
X142291351Y-133705752D02*
X142434208Y-133705752D01*
X142434208Y-133705752D02*
X142529446Y-133753371D01*
X142862780Y-133705752D02*
X143243732Y-133705752D01*
X143005637Y-133372419D02*
X143005637Y-134229561D01*
X143005637Y-134229561D02*
X143053256Y-134324800D01*
X143053256Y-134324800D02*
X143148494Y-134372419D01*
X143148494Y-134372419D02*
X143243732Y-134372419D01*
X143958018Y-134324800D02*
X143862780Y-134372419D01*
X143862780Y-134372419D02*
X143672304Y-134372419D01*
X143672304Y-134372419D02*
X143577066Y-134324800D01*
X143577066Y-134324800D02*
X143529447Y-134229561D01*
X143529447Y-134229561D02*
X143529447Y-133848609D01*
X143529447Y-133848609D02*
X143577066Y-133753371D01*
X143577066Y-133753371D02*
X143672304Y-133705752D01*
X143672304Y-133705752D02*
X143862780Y-133705752D01*
X143862780Y-133705752D02*
X143958018Y-133753371D01*
X143958018Y-133753371D02*
X144005637Y-133848609D01*
X144005637Y-133848609D02*
X144005637Y-133943847D01*
X144005637Y-133943847D02*
X143529447Y-134039085D01*
X144386590Y-133467657D02*
X144434209Y-133420038D01*
X144434209Y-133420038D02*
X144529447Y-133372419D01*
X144529447Y-133372419D02*
X144767542Y-133372419D01*
X144767542Y-133372419D02*
X144862780Y-133420038D01*
X144862780Y-133420038D02*
X144910399Y-133467657D01*
X144910399Y-133467657D02*
X144958018Y-133562895D01*
X144958018Y-133562895D02*
X144958018Y-133658133D01*
X144958018Y-133658133D02*
X144910399Y-133800990D01*
X144910399Y-133800990D02*
X144338971Y-134372419D01*
X144338971Y-134372419D02*
X144958018Y-134372419D01*
X145815161Y-133705752D02*
X145815161Y-134372419D01*
X145577066Y-133324800D02*
X145338971Y-134039085D01*
X145338971Y-134039085D02*
X145958018Y-134039085D01*
X146291352Y-133467657D02*
X146338971Y-133420038D01*
X146338971Y-133420038D02*
X146434209Y-133372419D01*
X146434209Y-133372419D02*
X146672304Y-133372419D01*
X146672304Y-133372419D02*
X146767542Y-133420038D01*
X146767542Y-133420038D02*
X146815161Y-133467657D01*
X146815161Y-133467657D02*
X146862780Y-133562895D01*
X146862780Y-133562895D02*
X146862780Y-133658133D01*
X146862780Y-133658133D02*
X146815161Y-133800990D01*
X146815161Y-133800990D02*
X146243733Y-134372419D01*
X146243733Y-134372419D02*
X146862780Y-134372419D01*
X147767542Y-133372419D02*
X147291352Y-133372419D01*
X147291352Y-133372419D02*
X147243733Y-133848609D01*
X147243733Y-133848609D02*
X147291352Y-133800990D01*
X147291352Y-133800990D02*
X147386590Y-133753371D01*
X147386590Y-133753371D02*
X147624685Y-133753371D01*
X147624685Y-133753371D02*
X147719923Y-133800990D01*
X147719923Y-133800990D02*
X147767542Y-133848609D01*
X147767542Y-133848609D02*
X147815161Y-133943847D01*
X147815161Y-133943847D02*
X147815161Y-134181942D01*
X147815161Y-134181942D02*
X147767542Y-134277180D01*
X147767542Y-134277180D02*
X147719923Y-134324800D01*
X147719923Y-134324800D02*
X147624685Y-134372419D01*
X147624685Y-134372419D02*
X147386590Y-134372419D01*
X147386590Y-134372419D02*
X147291352Y-134324800D01*
X147291352Y-134324800D02*
X147243733Y-134277180D01*
X148958018Y-133324800D02*
X148100876Y-134610514D01*
X149291352Y-134372419D02*
X149291352Y-133372419D01*
X149291352Y-133372419D02*
X149672304Y-133372419D01*
X149672304Y-133372419D02*
X149767542Y-133420038D01*
X149767542Y-133420038D02*
X149815161Y-133467657D01*
X149815161Y-133467657D02*
X149862780Y-133562895D01*
X149862780Y-133562895D02*
X149862780Y-133705752D01*
X149862780Y-133705752D02*
X149815161Y-133800990D01*
X149815161Y-133800990D02*
X149767542Y-133848609D01*
X149767542Y-133848609D02*
X149672304Y-133896228D01*
X149672304Y-133896228D02*
X149291352Y-133896228D01*
X150243733Y-134324800D02*
X150386590Y-134372419D01*
X150386590Y-134372419D02*
X150624685Y-134372419D01*
X150624685Y-134372419D02*
X150719923Y-134324800D01*
X150719923Y-134324800D02*
X150767542Y-134277180D01*
X150767542Y-134277180D02*
X150815161Y-134181942D01*
X150815161Y-134181942D02*
X150815161Y-134086704D01*
X150815161Y-134086704D02*
X150767542Y-133991466D01*
X150767542Y-133991466D02*
X150719923Y-133943847D01*
X150719923Y-133943847D02*
X150624685Y-133896228D01*
X150624685Y-133896228D02*
X150434209Y-133848609D01*
X150434209Y-133848609D02*
X150338971Y-133800990D01*
X150338971Y-133800990D02*
X150291352Y-133753371D01*
X150291352Y-133753371D02*
X150243733Y-133658133D01*
X150243733Y-133658133D02*
X150243733Y-133562895D01*
X150243733Y-133562895D02*
X150291352Y-133467657D01*
X150291352Y-133467657D02*
X150338971Y-133420038D01*
X150338971Y-133420038D02*
X150434209Y-133372419D01*
X150434209Y-133372419D02*
X150672304Y-133372419D01*
X150672304Y-133372419D02*
X150815161Y-133420038D01*
X151243733Y-134372419D02*
X151243733Y-133372419D01*
X151243733Y-133372419D02*
X151624685Y-133372419D01*
X151624685Y-133372419D02*
X151719923Y-133420038D01*
X151719923Y-133420038D02*
X151767542Y-133467657D01*
X151767542Y-133467657D02*
X151815161Y-133562895D01*
X151815161Y-133562895D02*
X151815161Y-133705752D01*
X151815161Y-133705752D02*
X151767542Y-133800990D01*
X151767542Y-133800990D02*
X151719923Y-133848609D01*
X151719923Y-133848609D02*
X151624685Y-133896228D01*
X151624685Y-133896228D02*
X151243733Y-133896228D01*
X152243733Y-133991466D02*
X153005638Y-133991466D01*
X153815161Y-133848609D02*
X153958018Y-133896228D01*
X153958018Y-133896228D02*
X154005637Y-133943847D01*
X154005637Y-133943847D02*
X154053256Y-134039085D01*
X154053256Y-134039085D02*
X154053256Y-134181942D01*
X154053256Y-134181942D02*
X154005637Y-134277180D01*
X154005637Y-134277180D02*
X153958018Y-134324800D01*
X153958018Y-134324800D02*
X153862780Y-134372419D01*
X153862780Y-134372419D02*
X153481828Y-134372419D01*
X153481828Y-134372419D02*
X153481828Y-133372419D01*
X153481828Y-133372419D02*
X153815161Y-133372419D01*
X153815161Y-133372419D02*
X153910399Y-133420038D01*
X153910399Y-133420038D02*
X153958018Y-133467657D01*
X153958018Y-133467657D02*
X154005637Y-133562895D01*
X154005637Y-133562895D02*
X154005637Y-133658133D01*
X154005637Y-133658133D02*
X153958018Y-133753371D01*
X153958018Y-133753371D02*
X153910399Y-133800990D01*
X153910399Y-133800990D02*
X153815161Y-133848609D01*
X153815161Y-133848609D02*
X153481828Y-133848609D01*
X154624685Y-134372419D02*
X154529447Y-134324800D01*
X154529447Y-134324800D02*
X154481828Y-134229561D01*
X154481828Y-134229561D02*
X154481828Y-133372419D01*
X155434209Y-133705752D02*
X155434209Y-134372419D01*
X155005638Y-133705752D02*
X155005638Y-134229561D01*
X155005638Y-134229561D02*
X155053257Y-134324800D01*
X155053257Y-134324800D02*
X155148495Y-134372419D01*
X155148495Y-134372419D02*
X155291352Y-134372419D01*
X155291352Y-134372419D02*
X155386590Y-134324800D01*
X155386590Y-134324800D02*
X155434209Y-134277180D01*
X156291352Y-134324800D02*
X156196114Y-134372419D01*
X156196114Y-134372419D02*
X156005638Y-134372419D01*
X156005638Y-134372419D02*
X155910400Y-134324800D01*
X155910400Y-134324800D02*
X155862781Y-134229561D01*
X155862781Y-134229561D02*
X155862781Y-133848609D01*
X155862781Y-133848609D02*
X155910400Y-133753371D01*
X155910400Y-133753371D02*
X156005638Y-133705752D01*
X156005638Y-133705752D02*
X156196114Y-133705752D01*
X156196114Y-133705752D02*
X156291352Y-133753371D01*
X156291352Y-133753371D02*
X156338971Y-133848609D01*
X156338971Y-133848609D02*
X156338971Y-133943847D01*
X156338971Y-133943847D02*
X155862781Y-134039085D01*
X156624686Y-133705752D02*
X157005638Y-133705752D01*
X156767543Y-133372419D02*
X156767543Y-134229561D01*
X156767543Y-134229561D02*
X156815162Y-134324800D01*
X156815162Y-134324800D02*
X156910400Y-134372419D01*
X156910400Y-134372419D02*
X157005638Y-134372419D01*
X157481829Y-134372419D02*
X157386591Y-134324800D01*
X157386591Y-134324800D02*
X157338972Y-134277180D01*
X157338972Y-134277180D02*
X157291353Y-134181942D01*
X157291353Y-134181942D02*
X157291353Y-133896228D01*
X157291353Y-133896228D02*
X157338972Y-133800990D01*
X157338972Y-133800990D02*
X157386591Y-133753371D01*
X157386591Y-133753371D02*
X157481829Y-133705752D01*
X157481829Y-133705752D02*
X157624686Y-133705752D01*
X157624686Y-133705752D02*
X157719924Y-133753371D01*
X157719924Y-133753371D02*
X157767543Y-133800990D01*
X157767543Y-133800990D02*
X157815162Y-133896228D01*
X157815162Y-133896228D02*
X157815162Y-134181942D01*
X157815162Y-134181942D02*
X157767543Y-134277180D01*
X157767543Y-134277180D02*
X157719924Y-134324800D01*
X157719924Y-134324800D02*
X157624686Y-134372419D01*
X157624686Y-134372419D02*
X157481829Y-134372419D01*
X158386591Y-134372419D02*
X158291353Y-134324800D01*
X158291353Y-134324800D02*
X158243734Y-134277180D01*
X158243734Y-134277180D02*
X158196115Y-134181942D01*
X158196115Y-134181942D02*
X158196115Y-133896228D01*
X158196115Y-133896228D02*
X158243734Y-133800990D01*
X158243734Y-133800990D02*
X158291353Y-133753371D01*
X158291353Y-133753371D02*
X158386591Y-133705752D01*
X158386591Y-133705752D02*
X158529448Y-133705752D01*
X158529448Y-133705752D02*
X158624686Y-133753371D01*
X158624686Y-133753371D02*
X158672305Y-133800990D01*
X158672305Y-133800990D02*
X158719924Y-133896228D01*
X158719924Y-133896228D02*
X158719924Y-134181942D01*
X158719924Y-134181942D02*
X158672305Y-134277180D01*
X158672305Y-134277180D02*
X158624686Y-134324800D01*
X158624686Y-134324800D02*
X158529448Y-134372419D01*
X158529448Y-134372419D02*
X158386591Y-134372419D01*
X159005639Y-133705752D02*
X159386591Y-133705752D01*
X159148496Y-133372419D02*
X159148496Y-134229561D01*
X159148496Y-134229561D02*
X159196115Y-134324800D01*
X159196115Y-134324800D02*
X159291353Y-134372419D01*
X159291353Y-134372419D02*
X159386591Y-134372419D01*
X159719925Y-134372419D02*
X159719925Y-133372419D01*
X160148496Y-134372419D02*
X160148496Y-133848609D01*
X160148496Y-133848609D02*
X160100877Y-133753371D01*
X160100877Y-133753371D02*
X160005639Y-133705752D01*
X160005639Y-133705752D02*
X159862782Y-133705752D01*
X159862782Y-133705752D02*
X159767544Y-133753371D01*
X159767544Y-133753371D02*
X159719925Y-133800990D01*
X161338972Y-133324800D02*
X160481830Y-134610514D01*
X127161027Y-125909800D02*
X127208646Y-125933609D01*
X127208646Y-125933609D02*
X127303884Y-125933609D01*
X127303884Y-125933609D02*
X127351503Y-125909800D01*
X127351503Y-125909800D02*
X127375312Y-125862180D01*
X127375312Y-125862180D02*
X127375312Y-125838371D01*
X127375312Y-125838371D02*
X127351503Y-125790752D01*
X127351503Y-125790752D02*
X127303884Y-125766942D01*
X127303884Y-125766942D02*
X127232455Y-125766942D01*
X127232455Y-125766942D02*
X127184836Y-125743133D01*
X127184836Y-125743133D02*
X127161027Y-125695514D01*
X127161027Y-125695514D02*
X127161027Y-125671704D01*
X127161027Y-125671704D02*
X127184836Y-125624085D01*
X127184836Y-125624085D02*
X127232455Y-125600276D01*
X127232455Y-125600276D02*
X127303884Y-125600276D01*
X127303884Y-125600276D02*
X127351503Y-125624085D01*
X127780074Y-125909800D02*
X127732455Y-125933609D01*
X127732455Y-125933609D02*
X127637217Y-125933609D01*
X127637217Y-125933609D02*
X127589598Y-125909800D01*
X127589598Y-125909800D02*
X127565789Y-125862180D01*
X127565789Y-125862180D02*
X127565789Y-125671704D01*
X127565789Y-125671704D02*
X127589598Y-125624085D01*
X127589598Y-125624085D02*
X127637217Y-125600276D01*
X127637217Y-125600276D02*
X127732455Y-125600276D01*
X127732455Y-125600276D02*
X127780074Y-125624085D01*
X127780074Y-125624085D02*
X127803884Y-125671704D01*
X127803884Y-125671704D02*
X127803884Y-125719323D01*
X127803884Y-125719323D02*
X127565789Y-125766942D01*
X128089598Y-125933609D02*
X128041979Y-125909800D01*
X128041979Y-125909800D02*
X128018169Y-125862180D01*
X128018169Y-125862180D02*
X128018169Y-125433609D01*
D11*
X120181382Y-78904501D02*
X120181382Y-79714024D01*
X120181382Y-79714024D02*
X120229001Y-79809262D01*
X120229001Y-79809262D02*
X120276620Y-79856882D01*
X120276620Y-79856882D02*
X120371858Y-79904501D01*
X120371858Y-79904501D02*
X120562334Y-79904501D01*
X120562334Y-79904501D02*
X120657572Y-79856882D01*
X120657572Y-79856882D02*
X120705191Y-79809262D01*
X120705191Y-79809262D02*
X120752810Y-79714024D01*
X120752810Y-79714024D02*
X120752810Y-78904501D01*
X121181382Y-79856882D02*
X121324239Y-79904501D01*
X121324239Y-79904501D02*
X121562334Y-79904501D01*
X121562334Y-79904501D02*
X121657572Y-79856882D01*
X121657572Y-79856882D02*
X121705191Y-79809262D01*
X121705191Y-79809262D02*
X121752810Y-79714024D01*
X121752810Y-79714024D02*
X121752810Y-79618786D01*
X121752810Y-79618786D02*
X121705191Y-79523548D01*
X121705191Y-79523548D02*
X121657572Y-79475929D01*
X121657572Y-79475929D02*
X121562334Y-79428310D01*
X121562334Y-79428310D02*
X121371858Y-79380691D01*
X121371858Y-79380691D02*
X121276620Y-79333072D01*
X121276620Y-79333072D02*
X121229001Y-79285453D01*
X121229001Y-79285453D02*
X121181382Y-79190215D01*
X121181382Y-79190215D02*
X121181382Y-79094977D01*
X121181382Y-79094977D02*
X121229001Y-78999739D01*
X121229001Y-78999739D02*
X121276620Y-78952120D01*
X121276620Y-78952120D02*
X121371858Y-78904501D01*
X121371858Y-78904501D02*
X121609953Y-78904501D01*
X121609953Y-78904501D02*
X121752810Y-78952120D01*
X122514715Y-79380691D02*
X122657572Y-79428310D01*
X122657572Y-79428310D02*
X122705191Y-79475929D01*
X122705191Y-79475929D02*
X122752810Y-79571167D01*
X122752810Y-79571167D02*
X122752810Y-79714024D01*
X122752810Y-79714024D02*
X122705191Y-79809262D01*
X122705191Y-79809262D02*
X122657572Y-79856882D01*
X122657572Y-79856882D02*
X122562334Y-79904501D01*
X122562334Y-79904501D02*
X122181382Y-79904501D01*
X122181382Y-79904501D02*
X122181382Y-78904501D01*
X122181382Y-78904501D02*
X122514715Y-78904501D01*
X122514715Y-78904501D02*
X122609953Y-78952120D01*
X122609953Y-78952120D02*
X122657572Y-78999739D01*
X122657572Y-78999739D02*
X122705191Y-79094977D01*
X122705191Y-79094977D02*
X122705191Y-79190215D01*
X122705191Y-79190215D02*
X122657572Y-79285453D01*
X122657572Y-79285453D02*
X122609953Y-79333072D01*
X122609953Y-79333072D02*
X122514715Y-79380691D01*
X122514715Y-79380691D02*
X122181382Y-79380691D01*
X123705191Y-79904501D02*
X123133763Y-79904501D01*
X123419477Y-79904501D02*
X123419477Y-78904501D01*
X123419477Y-78904501D02*
X123324239Y-79047358D01*
X123324239Y-79047358D02*
X123229001Y-79142596D01*
X123229001Y-79142596D02*
X123133763Y-79190215D01*
X119609633Y-97876318D02*
X119133442Y-98209651D01*
X119609633Y-98447746D02*
X118609633Y-98447746D01*
X118609633Y-98447746D02*
X118609633Y-98066794D01*
X118609633Y-98066794D02*
X118657252Y-97971556D01*
X118657252Y-97971556D02*
X118704871Y-97923937D01*
X118704871Y-97923937D02*
X118800109Y-97876318D01*
X118800109Y-97876318D02*
X118942966Y-97876318D01*
X118942966Y-97876318D02*
X119038204Y-97923937D01*
X119038204Y-97923937D02*
X119085823Y-97971556D01*
X119085823Y-97971556D02*
X119133442Y-98066794D01*
X119133442Y-98066794D02*
X119133442Y-98447746D01*
X119609633Y-96923937D02*
X119609633Y-97495365D01*
X119609633Y-97209651D02*
X118609633Y-97209651D01*
X118609633Y-97209651D02*
X118752490Y-97304889D01*
X118752490Y-97304889D02*
X118847728Y-97400127D01*
X118847728Y-97400127D02*
X118895347Y-97495365D01*
X119874296Y-95852509D02*
X119398105Y-96185842D01*
X119874296Y-96423937D02*
X118874296Y-96423937D01*
X118874296Y-96423937D02*
X118874296Y-96042985D01*
X118874296Y-96042985D02*
X118921915Y-95947747D01*
X118921915Y-95947747D02*
X118969534Y-95900128D01*
X118969534Y-95900128D02*
X119064772Y-95852509D01*
X119064772Y-95852509D02*
X119207629Y-95852509D01*
X119207629Y-95852509D02*
X119302867Y-95900128D01*
X119302867Y-95900128D02*
X119350486Y-95947747D01*
X119350486Y-95947747D02*
X119398105Y-96042985D01*
X119398105Y-96042985D02*
X119398105Y-96423937D01*
X119874296Y-94900128D02*
X119874296Y-95471556D01*
X119874296Y-95185842D02*
X118874296Y-95185842D01*
X118874296Y-95185842D02*
X119017153Y-95281080D01*
X119017153Y-95281080D02*
X119112391Y-95376318D01*
X119112391Y-95376318D02*
X119160010Y-95471556D01*
X118874296Y-94281080D02*
X118874296Y-94185842D01*
X118874296Y-94185842D02*
X118921915Y-94090604D01*
X118921915Y-94090604D02*
X118969534Y-94042985D01*
X118969534Y-94042985D02*
X119064772Y-93995366D01*
X119064772Y-93995366D02*
X119255248Y-93947747D01*
X119255248Y-93947747D02*
X119493343Y-93947747D01*
X119493343Y-93947747D02*
X119683819Y-93995366D01*
X119683819Y-93995366D02*
X119779057Y-94042985D01*
X119779057Y-94042985D02*
X119826677Y-94090604D01*
X119826677Y-94090604D02*
X119874296Y-94185842D01*
X119874296Y-94185842D02*
X119874296Y-94281080D01*
X119874296Y-94281080D02*
X119826677Y-94376318D01*
X119826677Y-94376318D02*
X119779057Y-94423937D01*
X119779057Y-94423937D02*
X119683819Y-94471556D01*
X119683819Y-94471556D02*
X119493343Y-94519175D01*
X119493343Y-94519175D02*
X119255248Y-94519175D01*
X119255248Y-94519175D02*
X119064772Y-94471556D01*
X119064772Y-94471556D02*
X118969534Y-94423937D01*
X118969534Y-94423937D02*
X118921915Y-94376318D01*
X118921915Y-94376318D02*
X118874296Y-94281080D01*
D12*
%TO.C,U4*%
X109849987Y-126349987D02*
X109849987Y-126975006D01*
X109849987Y-130024994D02*
X109849987Y-130650013D01*
X109849987Y-130650013D02*
X110475006Y-130650013D01*
X110475006Y-126349987D02*
X109849987Y-126349987D01*
X114150013Y-126349987D02*
X113524994Y-126349987D01*
X114150013Y-126975006D02*
X114150013Y-126349987D01*
X114150013Y-130024994D02*
X114150013Y-130650013D01*
X114150013Y-130650013D02*
X113524994Y-130650013D01*
D13*
X114524765Y-130448184D02*
G75*
G02*
X114524762Y-130450305I150007J-1273D01*
G01*
D14*
%TO.C,D24*%
X116273787Y-122598755D02*
X116470003Y-122598755D01*
D15*
X116273787Y-123946761D02*
X117726213Y-123946761D01*
X116273787Y-124351207D02*
X116273787Y-122598755D01*
D14*
X117726213Y-122598755D02*
X117519990Y-122598755D01*
D15*
X117726213Y-124351207D02*
X117726213Y-122598755D01*
D14*
%TO.C,D25*%
X124773787Y-129098755D02*
X124970003Y-129098755D01*
D15*
X124773787Y-130446761D02*
X126226213Y-130446761D01*
X124773787Y-130851207D02*
X124773787Y-129098755D01*
D14*
X126226213Y-129098755D02*
X126019990Y-129098755D01*
D15*
X126226213Y-130851207D02*
X126226213Y-129098755D01*
D12*
%TO.C,U1*%
X146849987Y-124849987D02*
X146849987Y-125475006D01*
X146849987Y-128524994D02*
X146849987Y-129150013D01*
X146849987Y-129150013D02*
X147475006Y-129150013D01*
X147475006Y-124849987D02*
X146849987Y-124849987D01*
X150524994Y-124849987D02*
X151150013Y-124849987D01*
X150524994Y-129150013D02*
X151150013Y-129150013D01*
X151150013Y-124849987D02*
X151150013Y-125475006D01*
X151150013Y-129150013D02*
X151150013Y-128524994D01*
D13*
X150948184Y-124475235D02*
G75*
G02*
X150950305Y-124475238I1273J150007D01*
G01*
D16*
%TO.C,TP21*%
X110700000Y-119500000D02*
G75*
G02*
X109300000Y-119500000I-700000J0D01*
G01*
X109300000Y-119500000D02*
G75*
G02*
X110700000Y-119500000I700000J0D01*
G01*
D15*
%TO.C,C11*%
X123191212Y-85960859D02*
X123191212Y-84458445D01*
X123343613Y-84306045D02*
X124753620Y-84306045D01*
X124753620Y-86113259D02*
X123343613Y-86113259D01*
X125556008Y-86113259D02*
X126966015Y-86113259D01*
X126966015Y-84306045D02*
X125556008Y-84306045D01*
X127118416Y-85960859D02*
X127118416Y-84458445D01*
X123191212Y-84458445D02*
G75*
G02*
X123343613Y-84306044I152400J1D01*
G01*
X123343613Y-86113259D02*
G75*
G02*
X123191213Y-85960859I0J152400D01*
G01*
X126966015Y-84306045D02*
G75*
G02*
X127118421Y-84458445I-1J-152407D01*
G01*
X127118416Y-85960859D02*
G75*
G02*
X126966015Y-86113254I-152402J7D01*
G01*
%TO.C,C1*%
X110191212Y-99958445D02*
X110191212Y-101460859D01*
X110343613Y-101613259D02*
X111753620Y-101613259D01*
X111753620Y-99806045D02*
X110343613Y-99806045D01*
X112556008Y-99806045D02*
X113966015Y-99806045D01*
X113966015Y-101613259D02*
X112556008Y-101613259D01*
X114118416Y-99958445D02*
X114118416Y-101460859D01*
X110191212Y-99958445D02*
G75*
G02*
X110343613Y-99806050I152402J-7D01*
G01*
X110343613Y-101613259D02*
G75*
G02*
X110191207Y-101460859I1J152407D01*
G01*
X113966015Y-99806045D02*
G75*
G02*
X114118415Y-99958445I0J-152400D01*
G01*
X114118416Y-101460859D02*
G75*
G02*
X113966015Y-101613260I-152400J-1D01*
G01*
D14*
%TO.C,D10*%
X137273787Y-130098755D02*
X137470003Y-130098755D01*
D15*
X137273787Y-131446761D02*
X138726213Y-131446761D01*
X137273787Y-131851207D02*
X137273787Y-130098755D01*
D14*
X138726213Y-130098755D02*
X138519990Y-130098755D01*
D15*
X138726213Y-131851207D02*
X138726213Y-130098755D01*
D10*
%TO.C,U7*%
X141457556Y-116725044D02*
X141457556Y-116725044D01*
X141457556Y-120725044D02*
X141457556Y-116725044D01*
X142554178Y-116725044D02*
X144357556Y-116725044D01*
X144357556Y-116725044D02*
X144357556Y-117670840D01*
X144357556Y-119778994D02*
X144357556Y-120725044D01*
X144357556Y-120725044D02*
X142554178Y-120725044D01*
D17*
X144727457Y-116725044D02*
G75*
G02*
X144667513Y-116725044I-29972J0D01*
G01*
X144667513Y-116725044D02*
G75*
G02*
X144727457Y-116725044I29972J0D01*
G01*
D10*
X144988062Y-117384937D02*
G75*
G02*
X144795528Y-117384937I-96267J0D01*
G01*
X144795528Y-117384937D02*
G75*
G02*
X144988062Y-117384937I96267J0D01*
G01*
D14*
%TO.C,D27*%
X120773787Y-129098755D02*
X120970003Y-129098755D01*
D15*
X120773787Y-130446761D02*
X122226213Y-130446761D01*
X120773787Y-130851207D02*
X120773787Y-129098755D01*
D14*
X122226213Y-129098755D02*
X122019990Y-129098755D01*
D15*
X122226213Y-130851207D02*
X122226213Y-129098755D01*
D14*
%TO.C,D20*%
X126773787Y-129098755D02*
X126970003Y-129098755D01*
D15*
X126773787Y-130446761D02*
X128226213Y-130446761D01*
X126773787Y-130851207D02*
X126773787Y-129098755D01*
D14*
X128226213Y-129098755D02*
X128019990Y-129098755D01*
D15*
X128226213Y-130851207D02*
X128226213Y-129098755D01*
D18*
%TO.C,MODE1*%
X152454840Y-79634594D02*
X153349912Y-78739522D01*
X152454840Y-82184760D02*
X152454840Y-79634594D01*
X152454840Y-82184760D02*
X153349912Y-83079832D01*
X153204141Y-80010515D02*
X154105843Y-79108813D01*
X153204141Y-81910439D02*
X153204141Y-80010515D01*
X153836603Y-78359512D02*
X156173407Y-78359512D01*
X153836603Y-83459842D02*
X156173407Y-83459842D01*
X154004243Y-82710541D02*
X153204141Y-81910439D01*
X154105843Y-79108813D02*
X155904167Y-79108813D01*
X155904167Y-79108813D02*
X156904929Y-80109575D01*
X156003227Y-82710541D02*
X154004243Y-82710541D01*
X156660098Y-78739522D02*
X157555170Y-79634594D01*
X156660098Y-83079832D02*
X157555170Y-82184760D01*
X156904929Y-80109575D02*
X156904929Y-81808839D01*
X156904929Y-81808839D02*
X156003227Y-82710541D01*
X157555170Y-82184760D02*
X157555170Y-79634594D01*
X156280088Y-80909677D02*
G75*
G02*
X153729922Y-80909677I-1275083J0D01*
G01*
X153729922Y-80909677D02*
G75*
G02*
X156280088Y-80909677I1275083J0D01*
G01*
D16*
%TO.C,TP2*%
X148200000Y-110500000D02*
G75*
G02*
X146800000Y-110500000I-700000J0D01*
G01*
X146800000Y-110500000D02*
G75*
G02*
X148200000Y-110500000I700000J0D01*
G01*
%TO.C,TP18*%
X113200000Y-119500000D02*
G75*
G02*
X111800000Y-119500000I-700000J0D01*
G01*
X111800000Y-119500000D02*
G75*
G02*
X113200000Y-119500000I700000J0D01*
G01*
%TO.C,TP17*%
X113219477Y-78749682D02*
X115619477Y-78749682D01*
X113219477Y-81149682D02*
X113219477Y-78749682D01*
X115619477Y-78749682D02*
X115619477Y-81149682D01*
X115619477Y-81149682D02*
X113219477Y-81149682D01*
D14*
%TO.C,D5*%
X110273787Y-122598755D02*
X110470003Y-122598755D01*
D15*
X110273787Y-123946761D02*
X111726213Y-123946761D01*
X110273787Y-124351207D02*
X110273787Y-122598755D01*
D14*
X111726213Y-122598755D02*
X111519990Y-122598755D01*
D15*
X111726213Y-124351207D02*
X111726213Y-122598755D01*
%TO.C,D21*%
X166303607Y-91983439D02*
X168056059Y-91983439D01*
X166303607Y-93435865D02*
X168056059Y-93435865D01*
X166708053Y-91983439D02*
X166708053Y-93435865D01*
D14*
X168056059Y-91983439D02*
X168056059Y-92179655D01*
X168056059Y-93435865D02*
X168056059Y-93229642D01*
%TO.C,D6*%
X108273787Y-122598755D02*
X108470003Y-122598755D01*
D15*
X108273787Y-123946761D02*
X109726213Y-123946761D01*
X108273787Y-124351207D02*
X108273787Y-122598755D01*
D14*
X109726213Y-122598755D02*
X109519990Y-122598755D01*
D15*
X109726213Y-124351207D02*
X109726213Y-122598755D01*
%TO.C,C9*%
X115691212Y-100748793D02*
X115691212Y-102251207D01*
X115843613Y-102403607D02*
X117253620Y-102403607D01*
X117253620Y-100596393D02*
X115843613Y-100596393D01*
X118056008Y-100596393D02*
X119466015Y-100596393D01*
X119466015Y-102403607D02*
X118056008Y-102403607D01*
X119618416Y-100748793D02*
X119618416Y-102251207D01*
X115691212Y-100748793D02*
G75*
G02*
X115843613Y-100596398I152402J-7D01*
G01*
X115843613Y-102403607D02*
G75*
G02*
X115691207Y-102251207I1J152407D01*
G01*
X119466015Y-100596393D02*
G75*
G02*
X119618415Y-100748793I0J-152400D01*
G01*
X119618416Y-102251207D02*
G75*
G02*
X119466015Y-102403608I-152400J-1D01*
G01*
D16*
%TO.C,TP34*%
X119200000Y-127500000D02*
G75*
G02*
X117800000Y-127500000I-700000J0D01*
G01*
X117800000Y-127500000D02*
G75*
G02*
X119200000Y-127500000I700000J0D01*
G01*
%TO.C,TP4*%
X126800000Y-103800000D02*
X129200000Y-103800000D01*
X126800000Y-106200000D02*
X126800000Y-103800000D01*
X129200000Y-103800000D02*
X129200000Y-106200000D01*
X129200000Y-106200000D02*
X126800000Y-106200000D01*
D15*
%TO.C,U2*%
X107883414Y-88133452D02*
X111426214Y-88133452D01*
X107883414Y-98285852D02*
X107883414Y-88133452D01*
X111426214Y-88133452D02*
X111426214Y-98285852D01*
X111426214Y-98285852D02*
X107883414Y-98285852D01*
D13*
X112677420Y-98386944D02*
G75*
G02*
X112377192Y-98386944I-150114J0D01*
G01*
X112377192Y-98386944D02*
G75*
G02*
X112677420Y-98386944I150114J0D01*
G01*
D19*
%TO.C,Analog1*%
X141500000Y-110000000D02*
X142483973Y-109546990D01*
X141500127Y-108000000D02*
X141500127Y-115000000D01*
X142483973Y-109546990D02*
X141499771Y-109249987D01*
X143000254Y-109000000D02*
X141750064Y-109000000D01*
X143000254Y-109000000D02*
X143000254Y-114000000D01*
X143000254Y-114000000D02*
X141750064Y-114000000D01*
X144000254Y-108749809D02*
X144000254Y-114249936D01*
X144000254Y-114249936D02*
X145250191Y-114249936D01*
X145250191Y-108000000D02*
X141500127Y-108000000D01*
X145250191Y-108099822D02*
X145250191Y-114899924D01*
X145250191Y-108749809D02*
X144000254Y-108749809D01*
X145250191Y-115000000D02*
X141500127Y-115000000D01*
D17*
X145080061Y-108149378D02*
G75*
G02*
X145020067Y-108149378I-29997J0D01*
G01*
X145020067Y-108149378D02*
G75*
G02*
X145080061Y-108149378I29997J0D01*
G01*
D16*
%TO.C,TP3*%
X152700000Y-113000000D02*
G75*
G02*
X151300000Y-113000000I-700000J0D01*
G01*
X151300000Y-113000000D02*
G75*
G02*
X152700000Y-113000000I700000J0D01*
G01*
D15*
%TO.C,U8*%
X106223749Y-114423749D02*
X107676175Y-114423749D01*
X106223749Y-116405360D02*
X106223749Y-115494564D01*
X106223749Y-117476175D02*
X107676175Y-117476175D01*
X107676175Y-114423749D02*
X107676175Y-115455372D01*
X107676175Y-117476175D02*
X107676175Y-116444552D01*
D17*
X105779959Y-114499949D02*
G75*
G02*
X105719965Y-114499949I-29997J0D01*
G01*
X105719965Y-114499949D02*
G75*
G02*
X105779959Y-114499949I29997J0D01*
G01*
D16*
%TO.C,TP19*%
X107700000Y-119500000D02*
G75*
G02*
X106300000Y-119500000I-700000J0D01*
G01*
X106300000Y-119500000D02*
G75*
G02*
X107700000Y-119500000I700000J0D01*
G01*
D15*
%TO.C,R5*%
X150238862Y-86292558D02*
X151523800Y-86292558D01*
X150238862Y-88126746D02*
X150238862Y-86292558D01*
X151523800Y-88126746D02*
X150238862Y-88126746D01*
X152476200Y-88126746D02*
X153761138Y-88126746D01*
X153761138Y-86292558D02*
X152476200Y-86292558D01*
X153761138Y-88126746D02*
X153761138Y-86292558D01*
D16*
%TO.C,TP28*%
X130700000Y-126500000D02*
G75*
G02*
X129300000Y-126500000I-700000J0D01*
G01*
X129300000Y-126500000D02*
G75*
G02*
X130700000Y-126500000I700000J0D01*
G01*
%TO.C,TP29*%
X128200000Y-127000000D02*
G75*
G02*
X126800000Y-127000000I-700000J0D01*
G01*
X126800000Y-127000000D02*
G75*
G02*
X128200000Y-127000000I700000J0D01*
G01*
%TO.C,TP5*%
X167704814Y-95259652D02*
X170604814Y-95259652D01*
X167704814Y-98159652D02*
X167704814Y-95259652D01*
X170604814Y-95259652D02*
X170604814Y-98159652D01*
X170604814Y-98159652D02*
X167704814Y-98159652D01*
D15*
%TO.C,C12*%
X115191212Y-88958445D02*
X115191212Y-90460859D01*
X115343613Y-90613259D02*
X116753620Y-90613259D01*
X116753620Y-88806045D02*
X115343613Y-88806045D01*
X117556008Y-88806045D02*
X118966015Y-88806045D01*
X118966015Y-90613259D02*
X117556008Y-90613259D01*
X119118416Y-88958445D02*
X119118416Y-90460859D01*
X115191212Y-88958445D02*
G75*
G02*
X115343613Y-88806050I152402J-7D01*
G01*
X115343613Y-90613259D02*
G75*
G02*
X115191207Y-90460859I1J152407D01*
G01*
X118966015Y-88806045D02*
G75*
G02*
X119118415Y-88958445I0J-152400D01*
G01*
X119118416Y-90460859D02*
G75*
G02*
X118966015Y-90613260I-152400J-1D01*
G01*
D14*
%TO.C,D2*%
X116693264Y-83548437D02*
X116889480Y-83548437D01*
D15*
X116693264Y-84896443D02*
X118145690Y-84896443D01*
X116693264Y-85300889D02*
X116693264Y-83548437D01*
D14*
X118145690Y-83548437D02*
X117939467Y-83548437D01*
D15*
X118145690Y-85300889D02*
X118145690Y-83548437D01*
%TO.C,C8*%
X123191212Y-88460859D02*
X123191212Y-86958445D01*
X123343613Y-86806045D02*
X124753620Y-86806045D01*
X124753620Y-88613259D02*
X123343613Y-88613259D01*
X125556008Y-88613259D02*
X126966015Y-88613259D01*
X126966015Y-86806045D02*
X125556008Y-86806045D01*
X127118416Y-88460859D02*
X127118416Y-86958445D01*
X123191212Y-86958445D02*
G75*
G02*
X123343613Y-86806044I152400J1D01*
G01*
X123343613Y-88613259D02*
G75*
G02*
X123191213Y-88460859I0J152400D01*
G01*
X126966015Y-86806045D02*
G75*
G02*
X127118421Y-86958445I-1J-152407D01*
G01*
X127118416Y-88460859D02*
G75*
G02*
X126966015Y-88613254I-152402J7D01*
G01*
D19*
%TO.C,Left1*%
X114999745Y-109549911D02*
X118749809Y-109549911D01*
X114999745Y-115800102D02*
X116249682Y-115800102D01*
X114999745Y-116450089D02*
X114999745Y-109649987D01*
X114999745Y-116549911D02*
X118749809Y-116549911D01*
X116249682Y-110299975D02*
X114999745Y-110299975D01*
X116249682Y-115800102D02*
X116249682Y-110299975D01*
X117249682Y-110549911D02*
X118499872Y-110549911D01*
X117249682Y-115549911D02*
X117249682Y-110549911D01*
X117249682Y-115549911D02*
X118499872Y-115549911D01*
X117765963Y-115002921D02*
X118750165Y-115299924D01*
X118749809Y-116549911D02*
X118749809Y-109549911D01*
X118749936Y-114549911D02*
X117765963Y-115002921D01*
D17*
X115229869Y-116400533D02*
G75*
G02*
X115169875Y-116400533I-29997J0D01*
G01*
X115169875Y-116400533D02*
G75*
G02*
X115229869Y-116400533I29997J0D01*
G01*
D18*
%TO.C,U12*%
X129919401Y-83519609D02*
X129919401Y-84028473D01*
X129919401Y-101900864D02*
X129919401Y-102735662D01*
X129919401Y-102735662D02*
X132523287Y-102735662D01*
X145315591Y-102735662D02*
X147936444Y-102735662D01*
X147919452Y-83519609D02*
X129919401Y-83519609D01*
X147936444Y-84028473D02*
X147936444Y-83519609D01*
X147936444Y-102735662D02*
X147936444Y-101900864D01*
D14*
%TO.C,D29*%
X116773787Y-129598755D02*
X116970003Y-129598755D01*
D15*
X116773787Y-130946761D02*
X118226213Y-130946761D01*
X116773787Y-131351207D02*
X116773787Y-129598755D01*
D14*
X118226213Y-129598755D02*
X118019990Y-129598755D01*
D15*
X118226213Y-131351207D02*
X118226213Y-129598755D01*
D14*
%TO.C,D11*%
X139273787Y-129771348D02*
X139470003Y-129771348D01*
D15*
X139273787Y-131119354D02*
X140726213Y-131119354D01*
X139273787Y-131523800D02*
X139273787Y-129771348D01*
D14*
X140726213Y-129771348D02*
X140519990Y-129771348D01*
D15*
X140726213Y-131523800D02*
X140726213Y-129771348D01*
D16*
%TO.C,TP20*%
X115700000Y-119500000D02*
G75*
G02*
X114300000Y-119500000I-700000J0D01*
G01*
X114300000Y-119500000D02*
G75*
G02*
X115700000Y-119500000I700000J0D01*
G01*
D18*
%TO.C,USB1*%
X118004644Y-82356007D02*
X118004644Y-80565176D01*
X118520849Y-82356007D02*
X118004644Y-82356007D01*
X120063496Y-82739217D02*
X119995652Y-82738963D01*
X123608225Y-82753289D02*
X123525751Y-82752959D01*
X125527351Y-80770840D02*
X125526513Y-80945415D01*
X125529637Y-80770485D02*
X125525929Y-80978257D01*
X125540102Y-80572517D02*
X125540102Y-82356007D01*
X125540102Y-82356007D02*
X125068347Y-82356007D01*
D17*
X125794636Y-82811887D02*
G75*
G02*
X125734692Y-82811887I-29972J0D01*
G01*
X125734692Y-82811887D02*
G75*
G02*
X125794636Y-82811887I29972J0D01*
G01*
D15*
%TO.C,R4*%
X150393676Y-90082906D02*
X151678614Y-90082906D01*
X150393676Y-91917094D02*
X150393676Y-90082906D01*
X151678614Y-91917094D02*
X150393676Y-91917094D01*
X152631014Y-91917094D02*
X153915952Y-91917094D01*
X153915952Y-90082906D02*
X152631014Y-90082906D01*
X153915952Y-91917094D02*
X153915952Y-90082906D01*
D18*
%TO.C,BOOT1*%
X155604649Y-92434569D02*
X156499721Y-91539497D01*
X155604649Y-94984735D02*
X155604649Y-92434569D01*
X155604649Y-94984735D02*
X156499721Y-95879807D01*
X156353950Y-92810490D02*
X157255652Y-91908788D01*
X156353950Y-94710414D02*
X156353950Y-92810490D01*
X156986412Y-91159487D02*
X159323216Y-91159487D01*
X156986412Y-96259817D02*
X159323216Y-96259817D01*
X157154052Y-95510516D02*
X156353950Y-94710414D01*
X157255652Y-91908788D02*
X159053976Y-91908788D01*
X159053976Y-91908788D02*
X160054738Y-92909550D01*
X159153036Y-95510516D02*
X157154052Y-95510516D01*
X159809907Y-91539497D02*
X160704979Y-92434569D01*
X159809907Y-95879807D02*
X160704979Y-94984735D01*
X160054738Y-92909550D02*
X160054738Y-94608814D01*
X160054738Y-94608814D02*
X159153036Y-95510516D01*
X160704979Y-94984735D02*
X160704979Y-92434569D01*
X159429897Y-93709652D02*
G75*
G02*
X156879731Y-93709652I-1275083J0D01*
G01*
X156879731Y-93709652D02*
G75*
G02*
X159429897Y-93709652I1275083J0D01*
G01*
D15*
%TO.C,D13*%
X157148793Y-101773787D02*
X158901245Y-101773787D01*
X157148793Y-103226213D02*
X158901245Y-103226213D01*
X157553239Y-101773787D02*
X157553239Y-103226213D01*
D14*
X158901245Y-101773787D02*
X158901245Y-101970003D01*
X158901245Y-103226213D02*
X158901245Y-103019990D01*
D15*
%TO.C,C4*%
X160191212Y-85958445D02*
X160191212Y-87460859D01*
X160343613Y-87613259D02*
X161753620Y-87613259D01*
X161753620Y-85806045D02*
X160343613Y-85806045D01*
X162556008Y-85806045D02*
X163966015Y-85806045D01*
X163966015Y-87613259D02*
X162556008Y-87613259D01*
X164118416Y-85958445D02*
X164118416Y-87460859D01*
X160191212Y-85958445D02*
G75*
G02*
X160343613Y-85806050I152402J-7D01*
G01*
X160343613Y-87613259D02*
G75*
G02*
X160191207Y-87460859I1J152407D01*
G01*
X163966015Y-85806045D02*
G75*
G02*
X164118415Y-85958445I0J-152400D01*
G01*
X164118416Y-87460859D02*
G75*
G02*
X163966015Y-87613260I-152400J-1D01*
G01*
%TO.C,R7*%
X124710567Y-89211049D02*
X124710567Y-90208255D01*
X124710567Y-90208255D02*
X125428601Y-90208255D01*
X125428601Y-89211049D02*
X124710567Y-89211049D01*
X125881027Y-89211049D02*
X126599061Y-89211049D01*
X126599061Y-89211049D02*
X126599061Y-90208255D01*
X126599061Y-90208255D02*
X125881027Y-90208255D01*
%TO.C,R1*%
X114893676Y-96792558D02*
X114893676Y-98626746D01*
X114893676Y-98626746D02*
X116178614Y-98626746D01*
X116178614Y-96792558D02*
X114893676Y-96792558D01*
X117131014Y-96792558D02*
X118415952Y-96792558D01*
X118415952Y-96792558D02*
X118415952Y-98626746D01*
X118415952Y-98626746D02*
X117131014Y-98626746D01*
%TO.C,R9*%
X106502383Y-83188544D02*
X108336571Y-83188544D01*
X106502383Y-84473482D02*
X106502383Y-83188544D01*
X106502383Y-85425882D02*
X106502383Y-86710820D01*
X106502383Y-86710820D02*
X108336571Y-86710820D01*
X108336571Y-83188544D02*
X108336571Y-84473482D01*
X108336571Y-86710820D02*
X108336571Y-85425882D01*
D16*
%TO.C,TP25*%
X161700000Y-127500000D02*
G75*
G02*
X160300000Y-127500000I-700000J0D01*
G01*
X160300000Y-127500000D02*
G75*
G02*
X161700000Y-127500000I700000J0D01*
G01*
%TO.C,TP23*%
X167200000Y-124500000D02*
G75*
G02*
X165800000Y-124500000I-700000J0D01*
G01*
X165800000Y-124500000D02*
G75*
G02*
X167200000Y-124500000I700000J0D01*
G01*
D18*
%TO.C,RESET1*%
X159604649Y-79434569D02*
X159604649Y-81984735D01*
X160254890Y-79810490D02*
X161156592Y-78908788D01*
X160254890Y-81509754D02*
X160254890Y-79810490D01*
X160499721Y-78539497D02*
X159604649Y-79434569D01*
X160499721Y-82879807D02*
X159604649Y-81984735D01*
X161156592Y-78908788D02*
X163155576Y-78908788D01*
X161255652Y-82510516D02*
X160254890Y-81509754D01*
X163053976Y-82510516D02*
X161255652Y-82510516D01*
X163155576Y-78908788D02*
X163955678Y-79708890D01*
X163323216Y-78159487D02*
X160986412Y-78159487D01*
X163323216Y-83259817D02*
X160986412Y-83259817D01*
X163955678Y-79708890D02*
X163955678Y-81608814D01*
X163955678Y-81608814D02*
X163053976Y-82510516D01*
X164704979Y-79434569D02*
X163809907Y-78539497D01*
X164704979Y-79434569D02*
X164704979Y-81984735D01*
X164704979Y-81984735D02*
X163809907Y-82879807D01*
X163429897Y-80709652D02*
G75*
G02*
X160879731Y-80709652I-1275083J0D01*
G01*
X160879731Y-80709652D02*
G75*
G02*
X163429897Y-80709652I1275083J0D01*
G01*
D15*
%TO.C,R2*%
X109532868Y-110238862D02*
X109532868Y-111523800D01*
X109532868Y-113761138D02*
X109532868Y-112476200D01*
X111367056Y-110238862D02*
X109532868Y-110238862D01*
X111367056Y-111523800D02*
X111367056Y-110238862D01*
X111367056Y-112476200D02*
X111367056Y-113761138D01*
X111367056Y-113761138D02*
X109532868Y-113761138D01*
D14*
%TO.C,D9*%
X135273787Y-130598755D02*
X135470003Y-130598755D01*
D15*
X135273787Y-131946761D02*
X136726213Y-131946761D01*
X135273787Y-132351207D02*
X135273787Y-130598755D01*
D14*
X136726213Y-130598755D02*
X136519990Y-130598755D01*
D15*
X136726213Y-132351207D02*
X136726213Y-130598755D01*
D16*
%TO.C,TP22*%
X164700000Y-124500000D02*
G75*
G02*
X163300000Y-124500000I-700000J0D01*
G01*
X163300000Y-124500000D02*
G75*
G02*
X164700000Y-124500000I700000J0D01*
G01*
D14*
%TO.C,D3*%
X114273787Y-122598755D02*
X114470003Y-122598755D01*
D15*
X114273787Y-123946761D02*
X115726213Y-123946761D01*
X114273787Y-124351207D02*
X114273787Y-122598755D01*
D14*
X115726213Y-122598755D02*
X115519990Y-122598755D01*
D15*
X115726213Y-124351207D02*
X115726213Y-122598755D01*
D16*
%TO.C,TP6*%
X167704814Y-83259652D02*
X170604814Y-83259652D01*
X167704814Y-86159652D02*
X167704814Y-83259652D01*
X170604814Y-83259652D02*
X170604814Y-86159652D01*
X170604814Y-86159652D02*
X167704814Y-86159652D01*
%TO.C,TP26*%
X164700000Y-127500000D02*
G75*
G02*
X163300000Y-127500000I-700000J0D01*
G01*
X163300000Y-127500000D02*
G75*
G02*
X164700000Y-127500000I700000J0D01*
G01*
D14*
%TO.C,D26*%
X122773787Y-129098755D02*
X122970003Y-129098755D01*
D15*
X122773787Y-130446761D02*
X124226213Y-130446761D01*
X122773787Y-130851207D02*
X122773787Y-129098755D01*
D14*
X124226213Y-129098755D02*
X124019990Y-129098755D01*
D15*
X124226213Y-130851207D02*
X124226213Y-129098755D01*
D14*
%TO.C,D1*%
X128773787Y-129098755D02*
X128970003Y-129098755D01*
D15*
X128773787Y-130446761D02*
X130226213Y-130446761D01*
X128773787Y-130851207D02*
X128773787Y-129098755D01*
D14*
X130226213Y-129098755D02*
X130019990Y-129098755D01*
D15*
X130226213Y-130851207D02*
X130226213Y-129098755D01*
%TO.C,R3*%
X109532868Y-114238862D02*
X109532868Y-115523800D01*
X109532868Y-117761138D02*
X109532868Y-116476200D01*
X111367056Y-114238862D02*
X109532868Y-114238862D01*
X111367056Y-115523800D02*
X111367056Y-114238862D01*
X111367056Y-116476200D02*
X111367056Y-117761138D01*
X111367056Y-117761138D02*
X109532868Y-117761138D01*
D14*
%TO.C,D8*%
X133273787Y-130598755D02*
X133470003Y-130598755D01*
D15*
X133273787Y-131946761D02*
X134726213Y-131946761D01*
X133273787Y-132351207D02*
X133273787Y-130598755D01*
D14*
X134726213Y-130598755D02*
X134519990Y-130598755D01*
D15*
X134726213Y-132351207D02*
X134726213Y-130598755D01*
D18*
%TO.C,Right1*%
X130975997Y-126210998D02*
X130975997Y-124413995D01*
X131003988Y-123154001D02*
X139997003Y-123154001D01*
X131907010Y-126210998D02*
X130975997Y-126210998D01*
X138984049Y-127040081D02*
X139492050Y-126532080D01*
X139123012Y-126191999D02*
X139988011Y-126191999D01*
X139492050Y-126532080D02*
X140000051Y-127040081D01*
X139988011Y-126191999D02*
X139988011Y-124405004D01*
X140000051Y-127040081D02*
X138984049Y-127040081D01*
D17*
X140029997Y-126474067D02*
G75*
G02*
X139970003Y-126474067I-29997J0D01*
G01*
X139970003Y-126474067D02*
G75*
G02*
X140029997Y-126474067I29997J0D01*
G01*
D14*
%TO.C,D4*%
X112273787Y-122598755D02*
X112470003Y-122598755D01*
D15*
X112273787Y-123946761D02*
X113726213Y-123946761D01*
X112273787Y-124351207D02*
X112273787Y-122598755D01*
D14*
X113726213Y-122598755D02*
X113519990Y-122598755D01*
D15*
X113726213Y-124351207D02*
X113726213Y-122598755D01*
%TO.C,U5*%
X158778588Y-104823800D02*
X163221412Y-104823800D01*
X158778588Y-115176200D02*
X158778588Y-104823800D01*
X163221412Y-104823800D02*
X163221412Y-115176200D01*
X163221412Y-115176200D02*
X158778588Y-115176200D01*
D13*
X158150114Y-105000000D02*
G75*
G02*
X157849886Y-105000000I-150114J0D01*
G01*
X157849886Y-105000000D02*
G75*
G02*
X158150114Y-105000000I150114J0D01*
G01*
D15*
%TO.C,C13*%
X123191212Y-91458445D02*
X123191212Y-92960859D01*
X123343613Y-93113259D02*
X124753620Y-93113259D01*
X124753620Y-91306045D02*
X123343613Y-91306045D01*
X125556008Y-91306045D02*
X126966015Y-91306045D01*
X126966015Y-93113259D02*
X125556008Y-93113259D01*
X127118416Y-91458445D02*
X127118416Y-92960859D01*
X123191212Y-91458445D02*
G75*
G02*
X123343613Y-91306050I152402J-7D01*
G01*
X123343613Y-93113259D02*
G75*
G02*
X123191207Y-92960859I1J152407D01*
G01*
X126966015Y-91306045D02*
G75*
G02*
X127118415Y-91458445I0J-152400D01*
G01*
X127118416Y-92960859D02*
G75*
G02*
X126966015Y-93113260I-152400J-1D01*
G01*
%TO.C,C2*%
X155691212Y-87960859D02*
X155691212Y-86458445D01*
X155843613Y-86306045D02*
X157253620Y-86306045D01*
X157253620Y-88113259D02*
X155843613Y-88113259D01*
X158056008Y-88113259D02*
X159466015Y-88113259D01*
X159466015Y-86306045D02*
X158056008Y-86306045D01*
X159618416Y-87960859D02*
X159618416Y-86458445D01*
X155691212Y-86458445D02*
G75*
G02*
X155843613Y-86306044I152400J1D01*
G01*
X155843613Y-88113259D02*
G75*
G02*
X155691213Y-87960859I0J152400D01*
G01*
X159466015Y-86306045D02*
G75*
G02*
X159618421Y-86458445I-1J-152407D01*
G01*
X159618416Y-87960859D02*
G75*
G02*
X159466015Y-88113254I-152402J7D01*
G01*
%TO.C,C6*%
X115691212Y-103248793D02*
X115691212Y-104751207D01*
X115843613Y-104903607D02*
X117253620Y-104903607D01*
X117253620Y-103096393D02*
X115843613Y-103096393D01*
X118056008Y-103096393D02*
X119466015Y-103096393D01*
X119466015Y-104903607D02*
X118056008Y-104903607D01*
X119618416Y-103248793D02*
X119618416Y-104751207D01*
X115691212Y-103248793D02*
G75*
G02*
X115843613Y-103096398I152402J-7D01*
G01*
X115843613Y-104903607D02*
G75*
G02*
X115691207Y-104751207I1J152407D01*
G01*
X119466015Y-103096393D02*
G75*
G02*
X119618415Y-103248793I0J-152400D01*
G01*
X119618416Y-104751207D02*
G75*
G02*
X119466015Y-104903608I-152400J-1D01*
G01*
%TO.C,D22*%
X166303607Y-89483439D02*
X168056059Y-89483439D01*
X166303607Y-90935865D02*
X168056059Y-90935865D01*
X166708053Y-89483439D02*
X166708053Y-90935865D01*
D14*
X168056059Y-89483439D02*
X168056059Y-89679655D01*
X168056059Y-90935865D02*
X168056059Y-90729642D01*
D15*
%TO.C,C10*%
X155691212Y-100460859D02*
X155691212Y-98958445D01*
X155843613Y-98806045D02*
X157253620Y-98806045D01*
X157253620Y-100613259D02*
X155843613Y-100613259D01*
X158056008Y-100613259D02*
X159466015Y-100613259D01*
X159466015Y-98806045D02*
X158056008Y-98806045D01*
X159618416Y-100460859D02*
X159618416Y-98958445D01*
X155691212Y-98958445D02*
G75*
G02*
X155843613Y-98806044I152400J1D01*
G01*
X155843613Y-100613259D02*
G75*
G02*
X155691213Y-100460859I0J152400D01*
G01*
X159466015Y-98806045D02*
G75*
G02*
X159618421Y-98958445I-1J-152407D01*
G01*
X159618416Y-100460859D02*
G75*
G02*
X159466015Y-100613254I-152402J7D01*
G01*
%TO.C,R6*%
X148055753Y-107501397D02*
X148773787Y-107501397D01*
X148055753Y-108498603D02*
X148055753Y-107501397D01*
X148773787Y-108498603D02*
X148055753Y-108498603D01*
X149226213Y-108498603D02*
X149944247Y-108498603D01*
X149944247Y-107501397D02*
X149226213Y-107501397D01*
X149944247Y-108498603D02*
X149944247Y-107501397D01*
%TO.C,U6*%
X150428600Y-116423800D02*
X152571400Y-116423800D01*
X150428600Y-119576200D02*
X150428600Y-116423800D01*
X152571400Y-116423800D02*
X152571400Y-119576200D01*
X152571400Y-119576200D02*
X150428600Y-119576200D01*
D17*
X149079883Y-116500127D02*
G75*
G02*
X149019939Y-116500127I-29972J0D01*
G01*
X149019939Y-116500127D02*
G75*
G02*
X149079883Y-116500127I29972J0D01*
G01*
D13*
X149540132Y-116407671D02*
G75*
G02*
X149239904Y-116407671I-150114J0D01*
G01*
X149239904Y-116407671D02*
G75*
G02*
X149540132Y-116407671I150114J0D01*
G01*
X151331089Y-117000000D02*
G75*
G02*
X151030861Y-117000000I-150114J0D01*
G01*
X151030861Y-117000000D02*
G75*
G02*
X151331089Y-117000000I150114J0D01*
G01*
D18*
%TO.C,LED1*%
X110376805Y-81682600D02*
X110783206Y-81276200D01*
X110376805Y-83155803D02*
X110376805Y-81682600D01*
X110402205Y-83943205D02*
X110402205Y-85492608D01*
X110402205Y-85492608D02*
X112434209Y-85492608D01*
X110783206Y-81276200D02*
X112053208Y-81276200D01*
X111319223Y-83299974D02*
X110919223Y-83699974D01*
X111419477Y-83199974D02*
X111319223Y-83299974D01*
X111519477Y-83299974D02*
X111419477Y-83199974D01*
X111919477Y-83699974D02*
X110919223Y-83699974D01*
X111919477Y-83699974D02*
X111519477Y-83299974D01*
X112053208Y-81276200D02*
X112434209Y-81657200D01*
X112434209Y-81657200D02*
X112434209Y-83181203D01*
X112434209Y-85492608D02*
X112434209Y-83943205D01*
D14*
%TO.C,D23*%
X120428601Y-88308407D02*
X120624817Y-88308407D01*
D15*
X120428601Y-89656413D02*
X121881027Y-89656413D01*
X120428601Y-90060859D02*
X120428601Y-88308407D01*
D14*
X121881027Y-88308407D02*
X121674804Y-88308407D01*
D15*
X121881027Y-90060859D02*
X121881027Y-88308407D01*
D16*
%TO.C,TP7*%
X159200000Y-118000000D02*
G75*
G02*
X157800000Y-118000000I-700000J0D01*
G01*
X157800000Y-118000000D02*
G75*
G02*
X159200000Y-118000000I700000J0D01*
G01*
D14*
%TO.C,D28*%
X118773787Y-129098755D02*
X118970003Y-129098755D01*
D15*
X118773787Y-130446761D02*
X120226213Y-130446761D01*
X118773787Y-130851207D02*
X118773787Y-129098755D01*
D14*
X120226213Y-129098755D02*
X120019990Y-129098755D01*
D15*
X120226213Y-130851207D02*
X120226213Y-129098755D01*
%TO.C,R10*%
X114893676Y-94292558D02*
X114893676Y-96126746D01*
X114893676Y-96126746D02*
X116178614Y-96126746D01*
X116178614Y-94292558D02*
X114893676Y-94292558D01*
X117131014Y-94292558D02*
X118415952Y-94292558D01*
X118415952Y-94292558D02*
X118415952Y-96126746D01*
X118415952Y-96126746D02*
X117131014Y-96126746D01*
%TO.C,C5*%
X115191212Y-91458445D02*
X115191212Y-92960859D01*
X115343613Y-93113259D02*
X116753620Y-93113259D01*
X116753620Y-91306045D02*
X115343613Y-91306045D01*
X117556008Y-91306045D02*
X118966015Y-91306045D01*
X118966015Y-93113259D02*
X117556008Y-93113259D01*
X119118416Y-91458445D02*
X119118416Y-92960859D01*
X115191212Y-91458445D02*
G75*
G02*
X115343613Y-91306050I152402J-7D01*
G01*
X115343613Y-93113259D02*
G75*
G02*
X115191207Y-92960859I1J152407D01*
G01*
X118966015Y-91306045D02*
G75*
G02*
X119118415Y-91458445I0J-152400D01*
G01*
X119118416Y-92960859D02*
G75*
G02*
X118966015Y-93113260I-152400J-1D01*
G01*
%TO.C,U3*%
X106273787Y-110473787D02*
X107726213Y-110473787D01*
X106273787Y-112455398D02*
X106273787Y-111544602D01*
X106273787Y-113526213D02*
X107726213Y-113526213D01*
X107726213Y-110473787D02*
X107726213Y-111505410D01*
X107726213Y-113526213D02*
X107726213Y-112494590D01*
D17*
X105829997Y-110549987D02*
G75*
G02*
X105770003Y-110549987I-29997J0D01*
G01*
X105770003Y-110549987D02*
G75*
G02*
X105829997Y-110549987I29997J0D01*
G01*
D14*
%TO.C,D7*%
X131273787Y-129098755D02*
X131470003Y-129098755D01*
D15*
X131273787Y-130446761D02*
X132726213Y-130446761D01*
X131273787Y-130851207D02*
X131273787Y-129098755D01*
D14*
X132726213Y-129098755D02*
X132519990Y-129098755D01*
D15*
X132726213Y-130851207D02*
X132726213Y-129098755D01*
D16*
%TO.C,TP24*%
X167200000Y-127500000D02*
G75*
G02*
X165800000Y-127500000I-700000J0D01*
G01*
X165800000Y-127500000D02*
G75*
G02*
X167200000Y-127500000I700000J0D01*
G01*
D15*
%TO.C,U9*%
X108083389Y-102883439D02*
X111026188Y-102883439D01*
X108083389Y-109535865D02*
X108083389Y-102883439D01*
X111026188Y-102883439D02*
X111026188Y-109535865D01*
X111026188Y-109535865D02*
X108083389Y-109535865D01*
D17*
X113084888Y-109459588D02*
G75*
G02*
X113024944Y-109459588I-29972J0D01*
G01*
X113024944Y-109459588D02*
G75*
G02*
X113084888Y-109459588I29972J0D01*
G01*
D19*
%TO.C,Center1*%
X119450089Y-127000255D02*
X119450089Y-123250191D01*
X120200153Y-125750318D02*
X120200153Y-127000255D01*
X120450089Y-124750318D02*
X120450089Y-123500128D01*
X124450089Y-123250064D02*
X124903099Y-124234037D01*
X124903099Y-124234037D02*
X125200102Y-123249835D01*
X125450089Y-124750318D02*
X120450089Y-124750318D01*
X125450089Y-124750318D02*
X125450089Y-123500128D01*
X125700280Y-125750318D02*
X120200153Y-125750318D01*
X125700280Y-127000255D02*
X125700280Y-125750318D01*
X126350267Y-127000255D02*
X119550165Y-127000255D01*
X126450089Y-123250191D02*
X119450089Y-123250191D01*
X126450089Y-127000255D02*
X126450089Y-123250191D01*
D17*
X126330708Y-126800128D02*
G75*
G02*
X126270714Y-126800128I-29997J0D01*
G01*
X126270714Y-126800128D02*
G75*
G02*
X126330708Y-126800128I29997J0D01*
G01*
D14*
%TO.C,D12*%
X141273787Y-129098755D02*
X141470003Y-129098755D01*
D15*
X141273787Y-130446761D02*
X142726213Y-130446761D01*
X141273787Y-130851207D02*
X141273787Y-129098755D01*
D14*
X142726213Y-129098755D02*
X142519990Y-129098755D01*
D15*
X142726213Y-130851207D02*
X142726213Y-129098755D01*
D16*
%TO.C,TP1*%
X151200000Y-110000000D02*
G75*
G02*
X149800000Y-110000000I-700000J0D01*
G01*
X149800000Y-110000000D02*
G75*
G02*
X151200000Y-110000000I700000J0D01*
G01*
%TO.C,TP27*%
X161700000Y-124500000D02*
G75*
G02*
X160300000Y-124500000I-700000J0D01*
G01*
X160300000Y-124500000D02*
G75*
G02*
X161700000Y-124500000I700000J0D01*
G01*
%TO.C,TP9*%
X118200000Y-119500000D02*
G75*
G02*
X116800000Y-119500000I-700000J0D01*
G01*
X116800000Y-119500000D02*
G75*
G02*
X118200000Y-119500000I700000J0D01*
G01*
%TD*%
%LPC*%
D20*
%TO.C,U4*%
X114000000Y-129500000D03*
X114000000Y-128999873D03*
X114000000Y-128500000D03*
X114000000Y-127999873D03*
X114000000Y-127500000D03*
D21*
X113000000Y-126500000D03*
X112499873Y-126500000D03*
X112000000Y-126500000D03*
X111499873Y-126500000D03*
X111000000Y-126500000D03*
D20*
X110000000Y-127500000D03*
X110000000Y-127999873D03*
X110000000Y-128500000D03*
X110000000Y-128999873D03*
X110000000Y-129500000D03*
D21*
X111000000Y-130500000D03*
X111499873Y-130500000D03*
X112000000Y-130500000D03*
X112499873Y-130500000D03*
X113000000Y-130500000D03*
D22*
X112000000Y-128500000D03*
%TD*%
D23*
%TO.C,D24*%
X117000000Y-124672593D03*
X117000000Y-122327407D03*
%TD*%
%TO.C,D25*%
X125500000Y-131172593D03*
X125500000Y-128827407D03*
%TD*%
D21*
%TO.C,U1*%
X150000000Y-125000000D03*
X149499873Y-125000000D03*
X149000000Y-125000000D03*
X148499873Y-125000000D03*
X148000000Y-125000000D03*
D20*
X147000000Y-126000000D03*
X147000000Y-126500127D03*
X147000000Y-127000000D03*
X147000000Y-127500127D03*
X147000000Y-128000000D03*
D21*
X148000000Y-129000000D03*
X148499873Y-129000000D03*
X149000000Y-129000000D03*
X149499873Y-129000000D03*
X150000000Y-129000000D03*
D20*
X151000000Y-128000000D03*
X151000000Y-127500127D03*
X151000000Y-127000000D03*
X151000000Y-126500127D03*
X151000000Y-126000000D03*
D22*
X149000000Y-127000000D03*
%TD*%
D24*
%TO.C,TP21*%
X110000000Y-119500000D03*
%TD*%
D25*
%TO.C,C11*%
X124154814Y-85209652D03*
X126154814Y-85209652D03*
%TD*%
%TO.C,C1*%
X113154814Y-100709652D03*
X111154814Y-100709652D03*
%TD*%
D23*
%TO.C,D10*%
X138000000Y-132172593D03*
X138000000Y-129827407D03*
%TD*%
D26*
%TO.C,U7*%
X144495046Y-117974980D03*
X144495046Y-118474853D03*
X144495046Y-118974980D03*
X144495046Y-119474853D03*
D27*
X142000000Y-120500000D03*
X142000000Y-116950088D03*
%TD*%
D23*
%TO.C,D27*%
X121500000Y-131172593D03*
X121500000Y-128827407D03*
%TD*%
%TO.C,D20*%
X127500000Y-131172593D03*
X127500000Y-128827407D03*
%TD*%
D28*
%TO.C,MODE1*%
X153154814Y-84209652D03*
X153154789Y-77609702D03*
X156855221Y-84209652D03*
X156855196Y-77609702D03*
%TD*%
D24*
%TO.C,TP2*%
X147500000Y-110500000D03*
%TD*%
%TO.C,TP18*%
X112500000Y-119500000D03*
%TD*%
D29*
%TO.C,TP17*%
X114419477Y-79949682D03*
%TD*%
D23*
%TO.C,D5*%
X111000000Y-124672593D03*
X111000000Y-122327407D03*
%TD*%
D30*
%TO.C,D21*%
X165982221Y-92709652D03*
X168327407Y-92709652D03*
%TD*%
D23*
%TO.C,D6*%
X109000000Y-124672593D03*
X109000000Y-122327407D03*
%TD*%
D25*
%TO.C,C9*%
X118654814Y-101500000D03*
X116654814Y-101500000D03*
%TD*%
D24*
%TO.C,TP34*%
X118500000Y-127500000D03*
%TD*%
D29*
%TO.C,TP4*%
X128000000Y-105000000D03*
%TD*%
D31*
%TO.C,U2*%
X112527306Y-97654661D03*
X112527306Y-96384658D03*
X112527306Y-95114656D03*
X112527306Y-93844653D03*
X112527306Y-92574651D03*
X112527306Y-91304648D03*
X112527306Y-90034646D03*
X112527306Y-88764643D03*
X106782322Y-88764643D03*
X106782322Y-90034646D03*
X106782322Y-91304648D03*
X106782322Y-92574651D03*
X106782322Y-93844653D03*
X106782322Y-95114656D03*
X106782322Y-96384658D03*
X106782322Y-97654661D03*
%TD*%
D32*
%TO.C,Analog1*%
X144750064Y-109250445D03*
X144750064Y-109750572D03*
X144750064Y-110250445D03*
X144750064Y-110750572D03*
X144750064Y-111250445D03*
X144750064Y-111750572D03*
X144750064Y-112250445D03*
X144750064Y-112750572D03*
X144750064Y-113250445D03*
X144750064Y-113750064D03*
D33*
X142249936Y-108450089D03*
X142249936Y-114549911D03*
%TD*%
D24*
%TO.C,TP3*%
X152000000Y-113000000D03*
%TD*%
D34*
%TO.C,U8*%
X105949962Y-115000000D03*
X105949962Y-116899924D03*
X107949962Y-115949962D03*
%TD*%
D24*
%TO.C,TP19*%
X107000000Y-119500000D03*
%TD*%
D35*
%TO.C,R5*%
X151000000Y-87209652D03*
X153000000Y-87209652D03*
%TD*%
D24*
%TO.C,TP28*%
X130000000Y-126500000D03*
%TD*%
%TO.C,TP29*%
X127500000Y-127000000D03*
%TD*%
D36*
%TO.C,TP5*%
X169154814Y-96709652D03*
%TD*%
D25*
%TO.C,C12*%
X118154814Y-89709652D03*
X116154814Y-89709652D03*
%TD*%
D23*
%TO.C,D2*%
X117419477Y-85622275D03*
X117419477Y-83277089D03*
%TD*%
D25*
%TO.C,C8*%
X124154814Y-87709652D03*
X126154814Y-87709652D03*
%TD*%
D32*
%TO.C,Left1*%
X115499872Y-115299466D03*
X115499872Y-114799339D03*
X115499872Y-114299466D03*
X115499872Y-113799339D03*
X115499872Y-113299466D03*
X115499872Y-112799339D03*
X115499872Y-112299466D03*
X115499872Y-111799339D03*
X115499872Y-111299466D03*
X115499872Y-110799847D03*
D33*
X118000000Y-116099822D03*
X118000000Y-110000000D03*
%TD*%
D37*
%TO.C,U12*%
X129919223Y-84709652D03*
X129919223Y-85979655D03*
X129919223Y-87249657D03*
X129919223Y-88519660D03*
X129919223Y-89789662D03*
X129919223Y-91059665D03*
X129919223Y-92329667D03*
X129919223Y-93599670D03*
X129919223Y-94869672D03*
X129919223Y-96139675D03*
X129919223Y-97409677D03*
X129919223Y-98679680D03*
X129919223Y-99949682D03*
X129919223Y-101219685D03*
D38*
X133204466Y-102714732D03*
X134474468Y-102714732D03*
X135744471Y-102714732D03*
X137014473Y-102714732D03*
X138284476Y-102714732D03*
X139554478Y-102714732D03*
X140824481Y-102714732D03*
X142094483Y-102714732D03*
X143364486Y-102714732D03*
X144634488Y-102714732D03*
D37*
X147919477Y-101219685D03*
X147919477Y-99949682D03*
X147919477Y-98679680D03*
X147919477Y-97409677D03*
X147919477Y-96139675D03*
X147919477Y-94869672D03*
X147919477Y-93599670D03*
X147919477Y-92329667D03*
X147919477Y-91059665D03*
X147919477Y-89789662D03*
X147919477Y-88519660D03*
X147919477Y-87249657D03*
X147919477Y-85979655D03*
X147919477Y-84709652D03*
D39*
X138819401Y-90990577D03*
X137419350Y-90990577D03*
X136019299Y-90990577D03*
X138819401Y-92390627D03*
X137419096Y-92390627D03*
X136019299Y-92390627D03*
X138819401Y-93790678D03*
X137419350Y-93790678D03*
X136019299Y-93790678D03*
%TD*%
D23*
%TO.C,D29*%
X117500000Y-131672593D03*
X117500000Y-129327407D03*
%TD*%
%TO.C,D11*%
X140000000Y-131845186D03*
X140000000Y-129500000D03*
%TD*%
D24*
%TO.C,TP20*%
X115000000Y-119500000D03*
%TD*%
D40*
%TO.C,USB1*%
X123094611Y-82642468D03*
X122444623Y-82642468D03*
X121794636Y-82642468D03*
X121144649Y-82642468D03*
X120494661Y-82642468D03*
D41*
X119369693Y-82119989D03*
D42*
X118169795Y-79449682D03*
X125419477Y-79449682D03*
D41*
X124219579Y-82119735D03*
%TD*%
D35*
%TO.C,R4*%
X151154814Y-91000000D03*
X153154814Y-91000000D03*
%TD*%
D28*
%TO.C,BOOT1*%
X156304623Y-97009627D03*
X156304598Y-90409677D03*
X160005030Y-97009627D03*
X160005005Y-90409677D03*
%TD*%
D30*
%TO.C,D13*%
X156827407Y-102500000D03*
X159172593Y-102500000D03*
%TD*%
D25*
%TO.C,C4*%
X163154814Y-86709652D03*
X161154814Y-86709652D03*
%TD*%
D43*
%TO.C,R7*%
X126087631Y-89709652D03*
X125221997Y-89709652D03*
%TD*%
D35*
%TO.C,R1*%
X117654814Y-97709652D03*
X115654814Y-97709652D03*
%TD*%
D44*
%TO.C,R9*%
X107419477Y-83949682D03*
X107419477Y-85949682D03*
%TD*%
D24*
%TO.C,TP25*%
X161000000Y-127500000D03*
%TD*%
%TO.C,TP23*%
X166500000Y-124500000D03*
%TD*%
D28*
%TO.C,RESET1*%
X164005005Y-77409677D03*
X164005030Y-84009627D03*
X160304598Y-77409677D03*
X160304623Y-84009627D03*
%TD*%
D44*
%TO.C,R2*%
X110449962Y-113000000D03*
X110449962Y-111000000D03*
%TD*%
D23*
%TO.C,D9*%
X136000000Y-132672593D03*
X136000000Y-130327407D03*
%TD*%
D24*
%TO.C,TP22*%
X164000000Y-124500000D03*
%TD*%
D23*
%TO.C,D3*%
X115000000Y-124672593D03*
X115000000Y-122327407D03*
%TD*%
D36*
%TO.C,TP6*%
X169154814Y-84709652D03*
%TD*%
D24*
%TO.C,TP26*%
X164000000Y-127500000D03*
%TD*%
D23*
%TO.C,D26*%
X123500000Y-131172593D03*
X123500000Y-128827407D03*
%TD*%
%TO.C,D1*%
X129500000Y-131172593D03*
X129500000Y-128827407D03*
%TD*%
D44*
%TO.C,R3*%
X110449962Y-117000000D03*
X110449962Y-115000000D03*
%TD*%
D23*
%TO.C,D8*%
X134000000Y-132672593D03*
X134000000Y-130327407D03*
%TD*%
D45*
%TO.C,Right1*%
X139750064Y-123749936D03*
X131249936Y-123749936D03*
D46*
X138750064Y-126250064D03*
X138249936Y-126250064D03*
X137750064Y-126250064D03*
X137249936Y-126250064D03*
X136750064Y-126250064D03*
X136249936Y-126250064D03*
X135750064Y-126250064D03*
X135249936Y-126250064D03*
X134750064Y-126250064D03*
X134249936Y-126250064D03*
X133750064Y-126250064D03*
X133249936Y-126250064D03*
X132750064Y-126250064D03*
X132249936Y-126250064D03*
%TD*%
D23*
%TO.C,D4*%
X113000000Y-124672593D03*
X113000000Y-122327407D03*
%TD*%
D47*
%TO.C,U5*%
X157434595Y-106189992D03*
X157434595Y-107459995D03*
X157434595Y-108729997D03*
X157434595Y-110000000D03*
X157434595Y-111270003D03*
X157434595Y-112540005D03*
X157434595Y-113810008D03*
X164565405Y-113810008D03*
X164565405Y-112540005D03*
X164565405Y-111270003D03*
X164565405Y-110000000D03*
X164565405Y-108729997D03*
X164565405Y-107459995D03*
X164565405Y-106189992D03*
%TD*%
D25*
%TO.C,C13*%
X126154814Y-92209652D03*
X124154814Y-92209652D03*
%TD*%
%TO.C,C2*%
X156654814Y-87209652D03*
X158654814Y-87209652D03*
%TD*%
%TO.C,C6*%
X118654814Y-104000000D03*
X116654814Y-104000000D03*
%TD*%
D30*
%TO.C,D22*%
X165982221Y-90209652D03*
X168327407Y-90209652D03*
%TD*%
D25*
%TO.C,C10*%
X156654814Y-99709652D03*
X158654814Y-99709652D03*
%TD*%
D43*
%TO.C,R6*%
X148567183Y-108000000D03*
X149432817Y-108000000D03*
%TD*%
D48*
%TO.C,U6*%
X149390018Y-117000000D03*
X149390018Y-117500127D03*
X149390018Y-118000000D03*
X149390018Y-118500127D03*
X149390018Y-119000000D03*
X153609982Y-119000000D03*
X153609982Y-118500127D03*
X153609982Y-118000000D03*
X153609982Y-117500127D03*
X153609982Y-117000000D03*
%TD*%
D49*
%TO.C,LED1*%
X111419477Y-84550266D03*
X111419477Y-82449682D03*
%TD*%
D23*
%TO.C,D23*%
X121154814Y-90382245D03*
X121154814Y-88037059D03*
%TD*%
D24*
%TO.C,TP7*%
X158500000Y-118000000D03*
%TD*%
D23*
%TO.C,D28*%
X119500000Y-131172593D03*
X119500000Y-128827407D03*
%TD*%
D35*
%TO.C,R10*%
X117654814Y-95209652D03*
X115654814Y-95209652D03*
%TD*%
D25*
%TO.C,C5*%
X118154814Y-92209652D03*
X116154814Y-92209652D03*
%TD*%
D34*
%TO.C,U3*%
X106000000Y-111050038D03*
X106000000Y-112949962D03*
X108000000Y-112000000D03*
%TD*%
D23*
%TO.C,D7*%
X132000000Y-131172593D03*
X132000000Y-128827407D03*
%TD*%
D24*
%TO.C,TP24*%
X166500000Y-127500000D03*
%TD*%
D50*
%TO.C,U9*%
X112624766Y-108509627D03*
X112624766Y-106209652D03*
X112624766Y-103909677D03*
D51*
X106684837Y-106209652D03*
%TD*%
D52*
%TO.C,Center1*%
X125199644Y-126500128D03*
X124699517Y-126500128D03*
X124199644Y-126500128D03*
X123699517Y-126500128D03*
X123199644Y-126500128D03*
X122699517Y-126500128D03*
X122199644Y-126500128D03*
X121699517Y-126500128D03*
X121199644Y-126500128D03*
X120700025Y-126500128D03*
D53*
X126000000Y-124000000D03*
X119900178Y-124000000D03*
%TD*%
D23*
%TO.C,D12*%
X142000000Y-131172593D03*
X142000000Y-128827407D03*
%TD*%
D24*
%TO.C,TP1*%
X150500000Y-110000000D03*
%TD*%
%TO.C,TP27*%
X161000000Y-124500000D03*
%TD*%
%TO.C,TP9*%
X117500000Y-119500000D03*
%TD*%
%LPD*%
M02*
