%TF.GenerationSoftware,KiCad,Pcbnew,8.0.4*%
%TF.CreationDate,2024-08-09T22:10:12+01:00*%
%TF.ProjectId,esp32,65737033-322e-46b6-9963-61645f706362,rev?*%
%TF.SameCoordinates,Original*%
%TF.FileFunction,Soldermask,Top*%
%TF.FilePolarity,Negative*%
%FSLAX46Y46*%
G04 Gerber Fmt 4.6, Leading zero omitted, Abs format (unit mm)*
G04 Created by KiCad (PCBNEW 8.0.4) date 2024-08-09 22:10:12*
%MOMM*%
%LPD*%
G01*
G04 APERTURE LIST*
%ADD10R,0.600000X0.800000*%
%ADD11R,0.250013X0.800000*%
%ADD12R,0.750013X1.000000*%
%ADD13R,1.000000X0.750013*%
%ADD14R,1.410008X1.350013*%
%ADD15R,0.280010X0.800000*%
%ADD16R,0.800000X0.280010*%
%ADD17R,2.700000X2.700000*%
%ADD18R,0.700025X0.299975*%
%ADD19R,1.000000X0.299975*%
%ADD20R,1.000000X1.700000*%
%ADD21R,2.000000X2.000000*%
%ADD22R,0.299975X0.700025*%
%ADD23R,0.299975X1.000000*%
%ADD24R,1.132537X1.377013*%
%ADD25O,1.745009X0.559995*%
%ADD26R,1.250013X0.700000*%
%ADD27R,2.500000X2.500000*%
%ADD28R,2.100000X0.950013*%
%ADD29R,0.950013X2.100000*%
%ADD30R,0.900000X0.900000*%
%ADD31R,0.400000X1.600000*%
%ADD32C,1.300000*%
%ADD33O,1.300000X1.800000*%
%ADD34R,0.565659X0.540005*%
%ADD35R,1.377013X1.132537*%
%ADD36R,1.500000X1.500000*%
%ADD37O,0.602007X2.231013*%
%ADD38R,1.399543X1.000000*%
%ADD39R,2.500000X1.100000*%
%ADD40R,2.340005X3.600000*%
G04 APERTURE END LIST*
D10*
%TO.C,Right1*%
X147419477Y-123449682D03*
X138919349Y-123449682D03*
D11*
X146419477Y-125949810D03*
X145919349Y-125949810D03*
X145419477Y-125949810D03*
X144919349Y-125949810D03*
X144419477Y-125949810D03*
X143919349Y-125949810D03*
X143419477Y-125949810D03*
X142919349Y-125949810D03*
X142419477Y-125949810D03*
X141919349Y-125949810D03*
X141419477Y-125949810D03*
X140919349Y-125949810D03*
X140419477Y-125949810D03*
X139919349Y-125949810D03*
%TD*%
D12*
%TO.C,D24*%
X136669541Y-131449682D03*
X136669541Y-129104496D03*
%TD*%
D13*
%TO.C,D25*%
X159500000Y-112604826D03*
X157154814Y-112604826D03*
%TD*%
D14*
%TO.C,C11*%
X124154814Y-85209652D03*
X126154814Y-85209652D03*
%TD*%
%TO.C,C1*%
X113154814Y-100709652D03*
X111154814Y-100709652D03*
%TD*%
D12*
%TO.C,D10*%
X144669541Y-131449682D03*
X144669541Y-129104496D03*
%TD*%
D15*
%TO.C,U1*%
X156154814Y-126209652D03*
X155654687Y-126209652D03*
X155154814Y-126209652D03*
X154654687Y-126209652D03*
X154154814Y-126209652D03*
D16*
X153154814Y-127209652D03*
X153154814Y-127709779D03*
X153154814Y-128209652D03*
X153154814Y-128709779D03*
X153154814Y-129209652D03*
D15*
X154154814Y-130209652D03*
X154654687Y-130209652D03*
X155154814Y-130209652D03*
X155654687Y-130209652D03*
X156154814Y-130209652D03*
D16*
X157154814Y-129209652D03*
X157154814Y-128709779D03*
X157154814Y-128209652D03*
X157154814Y-127709779D03*
X157154814Y-127209652D03*
D17*
X155154814Y-128209652D03*
%TD*%
D13*
%TO.C,D27*%
X159500000Y-117814478D03*
X157154814Y-117814478D03*
%TD*%
%TO.C,D20*%
X159500000Y-110000000D03*
X157154814Y-110000000D03*
%TD*%
D18*
%TO.C,Center2*%
X152404878Y-116460097D03*
X152404878Y-116960224D03*
X152404878Y-117460097D03*
X152404878Y-117960224D03*
X152404878Y-118460097D03*
X152404878Y-118960224D03*
X152404878Y-119460097D03*
X152404878Y-119960224D03*
X152404878Y-120460097D03*
X152404878Y-120959716D03*
D19*
X149904750Y-115659741D03*
X149904750Y-121759563D03*
%TD*%
D20*
%TO.C,MODE1*%
X153154814Y-84209652D03*
X153154789Y-77609702D03*
X156855221Y-84209652D03*
X156855196Y-77609702D03*
%TD*%
D21*
%TO.C,TP17*%
X114419477Y-79949682D03*
%TD*%
D12*
%TO.C,D5*%
X130669541Y-130949682D03*
X130669541Y-128604496D03*
%TD*%
D13*
%TO.C,D21*%
X165982221Y-92709652D03*
X168327407Y-92709652D03*
%TD*%
D12*
%TO.C,D6*%
X127919477Y-130949682D03*
X127919477Y-128604496D03*
%TD*%
D14*
%TO.C,C9*%
X118654814Y-103709652D03*
X116654814Y-103709652D03*
%TD*%
D18*
%TO.C,Center1*%
X152404878Y-108960097D03*
X152404878Y-109460224D03*
X152404878Y-109960097D03*
X152404878Y-110460224D03*
X152404878Y-110960097D03*
X152404878Y-111460224D03*
X152404878Y-111960097D03*
X152404878Y-112460224D03*
X152404878Y-112960097D03*
X152404878Y-113459716D03*
D19*
X149904750Y-108159741D03*
X149904750Y-114259563D03*
%TD*%
D22*
%TO.C,Left1*%
X134419096Y-125699746D03*
X133918969Y-125699746D03*
X133419096Y-125699746D03*
X132918969Y-125699746D03*
X132419096Y-125699746D03*
X131918969Y-125699746D03*
X131419096Y-125699746D03*
X130918969Y-125699746D03*
X130419096Y-125699746D03*
X129919477Y-125699746D03*
D23*
X135219452Y-123199618D03*
X129119630Y-123199618D03*
%TD*%
D24*
%TO.C,R6*%
X151154814Y-87209652D03*
X153154814Y-87209652D03*
%TD*%
D15*
%TO.C,U4*%
X166419477Y-122949682D03*
X166919604Y-122949682D03*
X167419477Y-122949682D03*
X167919604Y-122949682D03*
X168419477Y-122949682D03*
D16*
X169419477Y-121949682D03*
X169419477Y-121449555D03*
X169419477Y-120949682D03*
X169419477Y-120449555D03*
X169419477Y-119949682D03*
D15*
X168419477Y-118949682D03*
X167919604Y-118949682D03*
X167419477Y-118949682D03*
X166919604Y-118949682D03*
X166419477Y-118949682D03*
D16*
X165419477Y-119949682D03*
X165419477Y-120449555D03*
X165419477Y-120949682D03*
X165419477Y-121449555D03*
X165419477Y-121949682D03*
D17*
X167419477Y-120949682D03*
%TD*%
D25*
%TO.C,U2*%
X112527306Y-97654661D03*
X112527306Y-96384658D03*
X112527306Y-95114656D03*
X112527306Y-93844653D03*
X112527306Y-92574651D03*
X112527306Y-91304648D03*
X112527306Y-90034646D03*
X112527306Y-88764643D03*
X106782322Y-88764643D03*
X106782322Y-90034646D03*
X106782322Y-91304648D03*
X106782322Y-92574651D03*
X106782322Y-93844653D03*
X106782322Y-95114656D03*
X106782322Y-96384658D03*
X106782322Y-97654661D03*
%TD*%
D26*
%TO.C,U8*%
X111654814Y-117809728D03*
X111654814Y-119709652D03*
X113654814Y-118759690D03*
%TD*%
D27*
%TO.C,TP5*%
X169154814Y-96709652D03*
%TD*%
D14*
%TO.C,C12*%
X118154814Y-89709652D03*
X116154814Y-89709652D03*
%TD*%
D12*
%TO.C,D2*%
X117419477Y-85622275D03*
X117419477Y-83277089D03*
%TD*%
D14*
%TO.C,C8*%
X124154814Y-87709652D03*
X126154814Y-87709652D03*
%TD*%
D28*
%TO.C,U12*%
X129919223Y-84709652D03*
X129919223Y-85979655D03*
X129919223Y-87249657D03*
X129919223Y-88519660D03*
X129919223Y-89789662D03*
X129919223Y-91059665D03*
X129919223Y-92329667D03*
X129919223Y-93599670D03*
X129919223Y-94869672D03*
X129919223Y-96139675D03*
X129919223Y-97409677D03*
X129919223Y-98679680D03*
X129919223Y-99949682D03*
X129919223Y-101219685D03*
D29*
X133204466Y-102714732D03*
X134474468Y-102714732D03*
X135744471Y-102714732D03*
X137014473Y-102714732D03*
X138284476Y-102714732D03*
X139554478Y-102714732D03*
X140824481Y-102714732D03*
X142094483Y-102714732D03*
X143364486Y-102714732D03*
X144634488Y-102714732D03*
D28*
X147919477Y-101219685D03*
X147919477Y-99949682D03*
X147919477Y-98679680D03*
X147919477Y-97409677D03*
X147919477Y-96139675D03*
X147919477Y-94869672D03*
X147919477Y-93599670D03*
X147919477Y-92329667D03*
X147919477Y-91059665D03*
X147919477Y-89789662D03*
X147919477Y-88519660D03*
X147919477Y-87249657D03*
X147919477Y-85979655D03*
X147919477Y-84709652D03*
D30*
X138819401Y-90990577D03*
X137419350Y-90990577D03*
X136019299Y-90990577D03*
X138819401Y-92390627D03*
X137419096Y-92390627D03*
X136019299Y-92390627D03*
X138819401Y-93790678D03*
X137419350Y-93790678D03*
X136019299Y-93790678D03*
%TD*%
D13*
%TO.C,D29*%
X159500000Y-123024130D03*
X157154814Y-123024130D03*
%TD*%
D12*
%TO.C,D11*%
X146669541Y-131449682D03*
X146669541Y-129104496D03*
%TD*%
D31*
%TO.C,USB1*%
X123094611Y-82642468D03*
X122444623Y-82642468D03*
X121794636Y-82642468D03*
X121144649Y-82642468D03*
X120494661Y-82642468D03*
D32*
X119369693Y-82119989D03*
D33*
X118169795Y-79449682D03*
X125419477Y-79449682D03*
D32*
X124219579Y-82119735D03*
%TD*%
D20*
%TO.C,BOOT1*%
X156304623Y-97009627D03*
X156304598Y-90409677D03*
X160005030Y-97009627D03*
X160005005Y-90409677D03*
%TD*%
D14*
%TO.C,C4*%
X163154814Y-86709652D03*
X161154814Y-86709652D03*
%TD*%
D34*
%TO.C,R7*%
X126087631Y-89709652D03*
X125221997Y-89709652D03*
%TD*%
D24*
%TO.C,R1*%
X117654814Y-97709652D03*
X115654814Y-97709652D03*
%TD*%
D35*
%TO.C,R9*%
X107419477Y-83949682D03*
X107419477Y-85949682D03*
%TD*%
D20*
%TO.C,RESET1*%
X164005005Y-77409677D03*
X164005030Y-84009627D03*
X160304598Y-77409677D03*
X160304623Y-84009627D03*
%TD*%
D18*
%TO.C,Analog1*%
X124169413Y-114449809D03*
X124169413Y-113949682D03*
X124169413Y-113449809D03*
X124169413Y-112949682D03*
X124169413Y-112449809D03*
X124169413Y-111949682D03*
X124169413Y-111449809D03*
X124169413Y-110949682D03*
X124169413Y-110449809D03*
X124169413Y-109950190D03*
D19*
X126669541Y-115250165D03*
X126669541Y-109150343D03*
%TD*%
D24*
%TO.C,R2*%
X107154814Y-112709652D03*
X109154814Y-112709652D03*
%TD*%
D12*
%TO.C,D9*%
X142669541Y-131449682D03*
X142669541Y-129104496D03*
%TD*%
%TO.C,D3*%
X134669541Y-131122275D03*
X134669541Y-128777089D03*
%TD*%
D27*
%TO.C,TP6*%
X169154814Y-84709652D03*
%TD*%
D36*
%TO.C,TP36*%
X125419477Y-97449682D03*
%TD*%
D13*
%TO.C,D26*%
X159500000Y-115209652D03*
X157154814Y-115209652D03*
%TD*%
%TO.C,D1*%
X159500000Y-107395174D03*
X157154814Y-107395174D03*
%TD*%
D24*
%TO.C,R3*%
X107154814Y-117709652D03*
X109154814Y-117709652D03*
%TD*%
D12*
%TO.C,D8*%
X140669541Y-131449682D03*
X140669541Y-129104496D03*
%TD*%
%TO.C,D4*%
X132669541Y-131122275D03*
X132669541Y-128777089D03*
%TD*%
D37*
%TO.C,U5*%
X115344806Y-130275057D03*
X116614809Y-130275057D03*
X117884811Y-130275057D03*
X119154814Y-130275057D03*
X120424817Y-130275057D03*
X121694819Y-130275057D03*
X122964822Y-130275057D03*
X122964822Y-123144247D03*
X121694819Y-123144247D03*
X120424817Y-123144247D03*
X119154814Y-123144247D03*
X117884811Y-123144247D03*
X116614809Y-123144247D03*
X115344806Y-123144247D03*
%TD*%
D14*
%TO.C,C13*%
X126154814Y-92209652D03*
X124154814Y-92209652D03*
%TD*%
%TO.C,C2*%
X156654814Y-87209652D03*
X158654814Y-87209652D03*
%TD*%
%TO.C,C6*%
X118654814Y-106209652D03*
X116654814Y-106209652D03*
%TD*%
D13*
%TO.C,D22*%
X165982221Y-90209652D03*
X168327407Y-90209652D03*
%TD*%
D14*
%TO.C,C10*%
X156654814Y-99709652D03*
X158654814Y-99709652D03*
%TD*%
D38*
%TO.C,LED1*%
X111419477Y-84550266D03*
X111419477Y-82449682D03*
%TD*%
D12*
%TO.C,D23*%
X121154814Y-90382245D03*
X121154814Y-88037059D03*
%TD*%
D13*
%TO.C,D28*%
X159500000Y-120419304D03*
X157154814Y-120419304D03*
%TD*%
D24*
%TO.C,R10*%
X117654814Y-95209652D03*
X115654814Y-95209652D03*
%TD*%
D14*
%TO.C,C5*%
X118154814Y-92209652D03*
X116154814Y-92209652D03*
%TD*%
D24*
%TO.C,R5*%
X151154814Y-90709652D03*
X153154814Y-90709652D03*
%TD*%
D26*
%TO.C,U3*%
X111654814Y-112809728D03*
X111654814Y-114709652D03*
X113654814Y-113759690D03*
%TD*%
D12*
%TO.C,D7*%
X138669541Y-131449682D03*
X138669541Y-129104496D03*
%TD*%
D39*
%TO.C,U9*%
X112624766Y-108509627D03*
X112624766Y-106209652D03*
X112624766Y-103909677D03*
D40*
X106684837Y-106209652D03*
%TD*%
D36*
%TO.C,TP35*%
X125419477Y-100949682D03*
%TD*%
D12*
%TO.C,D12*%
X148669541Y-131449682D03*
X148669541Y-129104496D03*
%TD*%
M02*
