M48
; DRILL file {KiCad 8.0.4} date 2024-09-05T22:12:40+0100
; FORMAT={-:-/ absolute / inch / decimal}
; #@! TF.CreationDate,2024-09-05T22:12:40+01:00
; #@! TF.GenerationSoftware,Kicad,Pcbnew,8.0.4
; #@! TF.FileFunction,Plated,1,2,PTH
FMAT,2
INCH
; #@! TA.AperFunction,Plated,PTH,ViaDrill
T1C0.0118
; #@! TA.AperFunction,Plated,PTH,ViaDrill
T2C0.0157
; #@! TA.AperFunction,Plated,PTH,ComponentDrill
T3C0.0276
%
G90
G05
T1
X4.1929Y-4.6457
X4.2291Y-3.4429
X4.252Y-4.4685
X4.2661Y-3.7402
X4.2717Y-3.6614
X4.2717Y-4.6063
X4.3079Y-3.9547
X4.3275Y-4.1122
X4.3275Y-4.25
X4.3701Y-5.1929
X4.3866Y-3.1279
X4.4094Y-4.4488
X4.4094Y-5.1929
X4.4291Y-4.3307
X4.4488Y-4.0157
X4.485Y-3.8957
X4.5047Y-3.0098
X4.5047Y-3.2854
X4.5236Y-5.0591
X4.5433Y-5.1378
X4.5472Y-5.1772
X4.626Y-4.1732
X4.626Y-4.9409
X4.6654Y-4.9213
X4.7108Y-3.7484
X4.7108Y-3.8468
X4.7441Y-3.9961
X4.7441Y-4.0945
X4.8197Y-3.6004
X4.859Y-4.0335
X4.9575Y-4.2106
X4.9803Y-4.0551
X5.0Y-4.8425
X5.0165Y-3.561
X5.0165Y-3.8957
X5.0197Y-5.2165
X5.0362Y-3.6791
X5.0362Y-3.7878
X5.0591Y-4.8425
X5.0984Y-4.9213
X5.0984Y-5.2165
X5.1378Y-4.1929
X5.1378Y-4.9803
X5.1575Y-5.2165
X5.2029Y-3.4335
X5.2029Y-3.6697
X5.2029Y-3.7878
X5.2134Y-3.4823
X5.2165Y-3.8976
X5.2165Y-3.9567
X5.2331Y-3.3248
X5.2817Y-3.4925
X5.2921Y-3.6201
X5.2953Y-3.9173
X5.3211Y-3.7878
X5.3543Y-4.1339
X5.3708Y-3.3248
X5.4102Y-3.5216
X5.4724Y-3.9173
X5.4724Y-4.1575
X5.489Y-3.5216
X5.5283Y-3.5807
X5.5315Y-3.6811
X5.5376Y-3.3547
X5.5906Y-3.937
X5.5906Y-4.8819
X5.6124Y-3.7852
X5.636Y-3.8075
X5.6496Y-4.9803
X5.6693Y-5.0591
X5.6693Y-5.252
X5.7087Y-3.3071
X5.7087Y-3.8386
X5.7283Y-4.5669
X5.7283Y-5.0
X5.7344Y-3.7287
X5.748Y-4.6654
X5.7677Y-4.6063
X5.7677Y-4.7638
X5.8268Y-4.0748
X5.8268Y-4.3307
X5.8268Y-4.626
X5.8465Y-4.2913
X5.8465Y-4.4291
X5.8858Y-3.937
X5.8858Y-4.6457
X5.9055Y-4.5472
X5.9252Y-3.709
X5.9417Y-3.0492
X5.9417Y-3.2657
X5.9449Y-3.9567
X5.9449Y-4.8622
X5.9843Y-3.9567
X5.9843Y-4.8228
X6.063Y-3.8189
X6.0691Y-3.65
X6.0691Y-3.709
X6.0795Y-3.876
X6.0827Y-4.5276
X6.1189Y-2.9705
X6.1872Y-3.65
X6.2173Y-3.8563
X6.237Y-3.0492
X6.2795Y-4.4882
X6.2992Y-4.626
X6.3644Y-3.7287
X6.3748Y-2.9508
X6.3976Y-4.4882
X6.4037Y-3.65
X6.4567Y-4.7992
X6.4825Y-3.5516
X6.5323Y-3.0689
X6.5323Y-3.3248
X6.5551Y-4.7047
X6.6142Y-4.7047
T2
X4.3171Y-3.3838
X4.3565Y-3.9059
X4.5472Y-4.2126
X4.573Y-3.4728
X4.8486Y-3.5319
X5.2029Y-3.3941
X5.8465Y-4.8228
X6.0297Y-3.4925
X6.063Y-3.9567
X6.063Y-4.9016
X6.6732Y-4.1732
T3
X4.6996Y-3.2331
X4.8905Y-3.2331
T3
G00X4.6524Y-3.1358
M15
G01X4.6524Y-3.1201
M16
G05
G00X4.9378Y-3.1358
M15
G01X4.9378Y-3.1201
M16
G05
M30
