%TF.GenerationSoftware,KiCad,Pcbnew,(6.0.1)*%
%TF.CreationDate,2022-09-26T20:39:58+01:00*%
%TF.ProjectId,psp-bluetooth,7073702d-626c-4756-9574-6f6f74682e6b,4*%
%TF.SameCoordinates,Original*%
%TF.FileFunction,Soldermask,Bot*%
%TF.FilePolarity,Negative*%
%FSLAX46Y46*%
G04 Gerber Fmt 4.6, Leading zero omitted, Abs format (unit mm)*
G04 Created by KiCad (PCBNEW (6.0.1)) date 2022-09-26 20:39:58*
%MOMM*%
%LPD*%
G01*
G04 APERTURE LIST*
%ADD10C,2.500000*%
%ADD11R,1.600000X1.600000*%
%ADD12O,1.600000X1.600000*%
%ADD13R,1.700000X1.700000*%
%ADD14O,1.700000X1.700000*%
%ADD15C,1.600000*%
%ADD16C,3.000000*%
%ADD17C,1.700000*%
%ADD18R,1.800000X1.800000*%
%ADD19C,1.800000*%
G04 APERTURE END LIST*
D10*
%TO.C,H4*%
X111760000Y-93980000D03*
%TD*%
D11*
%TO.C,U1*%
X141500000Y-66500000D03*
D12*
X141500000Y-69040000D03*
X141500000Y-71580000D03*
X141500000Y-74120000D03*
X141500000Y-76660000D03*
X141500000Y-79200000D03*
X141500000Y-81740000D03*
X149120000Y-81740000D03*
X149120000Y-79200000D03*
X149120000Y-76660000D03*
X149120000Y-74120000D03*
X149120000Y-71580000D03*
X149120000Y-69040000D03*
X149120000Y-66500000D03*
%TD*%
D13*
%TO.C,J2*%
X169500000Y-82000000D03*
D14*
X166960000Y-82000000D03*
%TD*%
D10*
%TO.C,H2*%
X198120000Y-27940000D03*
%TD*%
D13*
%TO.C,J7*%
X176500000Y-45725000D03*
D14*
X176500000Y-48265000D03*
%TD*%
D15*
%TO.C,R1*%
X168920000Y-34000000D03*
D12*
X179080000Y-34000000D03*
%TD*%
D10*
%TO.C,H3*%
X198120000Y-93980000D03*
%TD*%
%TO.C,H5*%
X111760000Y-48260000D03*
%TD*%
D13*
%TO.C,J4*%
X130500000Y-82200000D03*
D14*
X130500000Y-84740000D03*
X130500000Y-87280000D03*
X130500000Y-89820000D03*
%TD*%
D16*
%TO.C,REF\u002A\u002A*%
X174750000Y-91000000D03*
%TD*%
D13*
%TO.C,J3*%
X180225000Y-81750000D03*
D14*
X182765000Y-81750000D03*
%TD*%
D17*
%TO.C,J1*%
X197105000Y-57380000D03*
D14*
X194565000Y-57380000D03*
X192025000Y-57380000D03*
X189485000Y-57380000D03*
X186945000Y-57380000D03*
X184405000Y-57380000D03*
X181865000Y-57380000D03*
X179325000Y-57380000D03*
X176785000Y-57380000D03*
X174245000Y-57380000D03*
X171705000Y-57380000D03*
X169165000Y-57380000D03*
X166625000Y-57380000D03*
X164085000Y-57380000D03*
X161545000Y-57380000D03*
D17*
X161545000Y-72620000D03*
D14*
X164085000Y-72620000D03*
X166625000Y-72620000D03*
X169165000Y-72620000D03*
X171705000Y-72620000D03*
X174245000Y-72620000D03*
X176785000Y-72620000D03*
X179325000Y-72620000D03*
X181865000Y-72620000D03*
X184405000Y-72620000D03*
X186945000Y-72620000D03*
X189485000Y-72620000D03*
X192025000Y-72620000D03*
X194565000Y-72620000D03*
X197105000Y-72620000D03*
%TD*%
D10*
%TO.C,H1*%
X162560000Y-27940000D03*
%TD*%
D18*
%TO.C,D1*%
X181590000Y-29495000D03*
D19*
X179050000Y-29495000D03*
%TD*%
D16*
%TO.C,REF\u002A\u002A*%
X186000000Y-90500000D03*
%TD*%
D13*
%TO.C,J8*%
X162750000Y-48975000D03*
D14*
X162750000Y-51515000D03*
%TD*%
D16*
%TO.C,REF\u002A\u002A*%
X163500000Y-90750000D03*
%TD*%
M02*
