%TF.GenerationSoftware,KiCad,Pcbnew,(6.0.1)*%
%TF.CreationDate,2022-09-26T20:39:57+01:00*%
%TF.ProjectId,psp-bluetooth,7073702d-626c-4756-9574-6f6f74682e6b,4*%
%TF.SameCoordinates,Original*%
%TF.FileFunction,Legend,Top*%
%TF.FilePolarity,Positive*%
%FSLAX46Y46*%
G04 Gerber Fmt 4.6, Leading zero omitted, Abs format (unit mm)*
G04 Created by KiCad (PCBNEW (6.0.1)) date 2022-09-26 20:39:57*
%MOMM*%
%LPD*%
G01*
G04 APERTURE LIST*
%ADD10C,0.150000*%
%ADD11C,0.120000*%
%ADD12C,0.254001*%
%ADD13C,0.059995*%
G04 APERTURE END LIST*
D10*
X187500000Y-87625000D02*
X187500000Y-79500000D01*
X175000000Y-79500000D02*
X175000000Y-87625000D01*
X162250000Y-79500000D02*
X174750000Y-79500000D01*
X175000000Y-79500000D02*
X187500000Y-79500000D01*
X174750000Y-87750000D02*
X162250000Y-87750000D01*
X187500000Y-87750000D02*
X175000000Y-87750000D01*
X174750000Y-79500000D02*
X174750000Y-87750000D01*
X162250000Y-87750000D02*
X162250000Y-79500000D01*
X120047619Y-58333333D02*
X120047619Y-57857142D01*
X121047619Y-57857142D01*
X120142857Y-60000000D02*
X120095238Y-59952380D01*
X120047619Y-59809523D01*
X120047619Y-59714285D01*
X120095238Y-59571428D01*
X120190476Y-59476190D01*
X120285714Y-59428571D01*
X120476190Y-59380952D01*
X120619047Y-59380952D01*
X120809523Y-59428571D01*
X120904761Y-59476190D01*
X121000000Y-59571428D01*
X121047619Y-59714285D01*
X121047619Y-59809523D01*
X121000000Y-59952380D01*
X120952380Y-60000000D01*
X120047619Y-60571428D02*
X120095238Y-60476190D01*
X120142857Y-60428571D01*
X120238095Y-60380952D01*
X120523809Y-60380952D01*
X120619047Y-60428571D01*
X120666666Y-60476190D01*
X120714285Y-60571428D01*
X120714285Y-60714285D01*
X120666666Y-60809523D01*
X120619047Y-60857142D01*
X120523809Y-60904761D01*
X120238095Y-60904761D01*
X120142857Y-60857142D01*
X120095238Y-60809523D01*
X120047619Y-60714285D01*
X120047619Y-60571428D01*
X120714285Y-61333333D02*
X120047619Y-61333333D01*
X120619047Y-61333333D02*
X120666666Y-61380952D01*
X120714285Y-61476190D01*
X120714285Y-61619047D01*
X120666666Y-61714285D01*
X120571428Y-61761904D01*
X120047619Y-61761904D01*
X120714285Y-62238095D02*
X120047619Y-62238095D01*
X120619047Y-62238095D02*
X120666666Y-62285714D01*
X120714285Y-62380952D01*
X120714285Y-62523809D01*
X120666666Y-62619047D01*
X120571428Y-62666666D01*
X120047619Y-62666666D01*
X120142857Y-63142857D02*
X120095238Y-63190476D01*
X120047619Y-63142857D01*
X120095238Y-63095238D01*
X120142857Y-63142857D01*
X120047619Y-63142857D01*
X127388333Y-83690476D02*
X127388333Y-84166666D01*
X127102619Y-83595238D02*
X128102619Y-83928571D01*
X127102619Y-84261904D01*
X127769285Y-84595238D02*
X127102619Y-84595238D01*
X127674047Y-84595238D02*
X127721666Y-84642857D01*
X127769285Y-84738095D01*
X127769285Y-84880952D01*
X127721666Y-84976190D01*
X127626428Y-85023809D01*
X127102619Y-85023809D01*
X127102619Y-85928571D02*
X127626428Y-85928571D01*
X127721666Y-85880952D01*
X127769285Y-85785714D01*
X127769285Y-85595238D01*
X127721666Y-85500000D01*
X127150238Y-85928571D02*
X127102619Y-85833333D01*
X127102619Y-85595238D01*
X127150238Y-85500000D01*
X127245476Y-85452380D01*
X127340714Y-85452380D01*
X127435952Y-85500000D01*
X127483571Y-85595238D01*
X127483571Y-85833333D01*
X127531190Y-85928571D01*
X127102619Y-86547619D02*
X127150238Y-86452380D01*
X127245476Y-86404761D01*
X128102619Y-86404761D01*
X127102619Y-87071428D02*
X127150238Y-86976190D01*
X127197857Y-86928571D01*
X127293095Y-86880952D01*
X127578809Y-86880952D01*
X127674047Y-86928571D01*
X127721666Y-86976190D01*
X127769285Y-87071428D01*
X127769285Y-87214285D01*
X127721666Y-87309523D01*
X127674047Y-87357142D01*
X127578809Y-87404761D01*
X127293095Y-87404761D01*
X127197857Y-87357142D01*
X127150238Y-87309523D01*
X127102619Y-87214285D01*
X127102619Y-87071428D01*
X127769285Y-88261904D02*
X126959761Y-88261904D01*
X126864523Y-88214285D01*
X126816904Y-88166666D01*
X126769285Y-88071428D01*
X126769285Y-87928571D01*
X126816904Y-87833333D01*
X127150238Y-88261904D02*
X127102619Y-88166666D01*
X127102619Y-87976190D01*
X127150238Y-87880952D01*
X127197857Y-87833333D01*
X127293095Y-87785714D01*
X127578809Y-87785714D01*
X127674047Y-87833333D01*
X127721666Y-87880952D01*
X127769285Y-87976190D01*
X127769285Y-88166666D01*
X127721666Y-88261904D01*
X125540238Y-84357142D02*
X125492619Y-84500000D01*
X125492619Y-84738095D01*
X125540238Y-84833333D01*
X125587857Y-84880952D01*
X125683095Y-84928571D01*
X125778333Y-84928571D01*
X125873571Y-84880952D01*
X125921190Y-84833333D01*
X125968809Y-84738095D01*
X126016428Y-84547619D01*
X126064047Y-84452380D01*
X126111666Y-84404761D01*
X126206904Y-84357142D01*
X126302142Y-84357142D01*
X126397380Y-84404761D01*
X126445000Y-84452380D01*
X126492619Y-84547619D01*
X126492619Y-84785714D01*
X126445000Y-84928571D01*
X126159285Y-85214285D02*
X126159285Y-85595238D01*
X126492619Y-85357142D02*
X125635476Y-85357142D01*
X125540238Y-85404761D01*
X125492619Y-85500000D01*
X125492619Y-85595238D01*
X125492619Y-85928571D02*
X126159285Y-85928571D01*
X126492619Y-85928571D02*
X126445000Y-85880952D01*
X126397380Y-85928571D01*
X126445000Y-85976190D01*
X126492619Y-85928571D01*
X126397380Y-85928571D01*
X125540238Y-86833333D02*
X125492619Y-86738095D01*
X125492619Y-86547619D01*
X125540238Y-86452380D01*
X125587857Y-86404761D01*
X125683095Y-86357142D01*
X125968809Y-86357142D01*
X126064047Y-86404761D01*
X126111666Y-86452380D01*
X126159285Y-86547619D01*
X126159285Y-86738095D01*
X126111666Y-86833333D01*
X125492619Y-87261904D02*
X126492619Y-87261904D01*
X125873571Y-87357142D02*
X125492619Y-87642857D01*
X126159285Y-87642857D02*
X125778333Y-87261904D01*
X169119047Y-84821428D02*
X169880952Y-84821428D01*
X169500000Y-85202380D02*
X169500000Y-84440476D01*
X117880952Y-94452380D02*
X117880952Y-93452380D01*
X118309523Y-94452380D02*
X118309523Y-93928571D01*
X118261904Y-93833333D01*
X118166666Y-93785714D01*
X118023809Y-93785714D01*
X117928571Y-93833333D01*
X117880952Y-93880952D01*
X118642857Y-93785714D02*
X119023809Y-93785714D01*
X118785714Y-93452380D02*
X118785714Y-94309523D01*
X118833333Y-94404761D01*
X118928571Y-94452380D01*
X119023809Y-94452380D01*
X119214285Y-93785714D02*
X119595238Y-93785714D01*
X119357142Y-93452380D02*
X119357142Y-94309523D01*
X119404761Y-94404761D01*
X119499999Y-94452380D01*
X119595238Y-94452380D01*
X119928571Y-93785714D02*
X119928571Y-94785714D01*
X119928571Y-93833333D02*
X120023809Y-93785714D01*
X120214285Y-93785714D01*
X120309523Y-93833333D01*
X120357142Y-93880952D01*
X120404761Y-93976190D01*
X120404761Y-94261904D01*
X120357142Y-94357142D01*
X120309523Y-94404761D01*
X120214285Y-94452380D01*
X120023809Y-94452380D01*
X119928571Y-94404761D01*
X120785714Y-94404761D02*
X120880952Y-94452380D01*
X121071428Y-94452380D01*
X121166666Y-94404761D01*
X121214285Y-94309523D01*
X121214285Y-94261904D01*
X121166666Y-94166666D01*
X121071428Y-94119047D01*
X120928571Y-94119047D01*
X120833333Y-94071428D01*
X120785714Y-93976190D01*
X120785714Y-93928571D01*
X120833333Y-93833333D01*
X120928571Y-93785714D01*
X121071428Y-93785714D01*
X121166666Y-93833333D01*
X121642857Y-94357142D02*
X121690476Y-94404761D01*
X121642857Y-94452380D01*
X121595238Y-94404761D01*
X121642857Y-94357142D01*
X121642857Y-94452380D01*
X121642857Y-93833333D02*
X121690476Y-93880952D01*
X121642857Y-93928571D01*
X121595238Y-93880952D01*
X121642857Y-93833333D01*
X121642857Y-93928571D01*
X122833333Y-93404761D02*
X121976190Y-94690476D01*
X123880952Y-93404761D02*
X123023809Y-94690476D01*
X124642857Y-93785714D02*
X124642857Y-94595238D01*
X124595238Y-94690476D01*
X124547619Y-94738095D01*
X124452380Y-94785714D01*
X124309523Y-94785714D01*
X124214285Y-94738095D01*
X124642857Y-94404761D02*
X124547619Y-94452380D01*
X124357142Y-94452380D01*
X124261904Y-94404761D01*
X124214285Y-94357142D01*
X124166666Y-94261904D01*
X124166666Y-93976190D01*
X124214285Y-93880952D01*
X124261904Y-93833333D01*
X124357142Y-93785714D01*
X124547619Y-93785714D01*
X124642857Y-93833333D01*
X125119047Y-94452380D02*
X125119047Y-93785714D01*
X125119047Y-93452380D02*
X125071428Y-93500000D01*
X125119047Y-93547619D01*
X125166666Y-93500000D01*
X125119047Y-93452380D01*
X125119047Y-93547619D01*
X125452380Y-93785714D02*
X125833333Y-93785714D01*
X125595238Y-93452380D02*
X125595238Y-94309523D01*
X125642857Y-94404761D01*
X125738095Y-94452380D01*
X125833333Y-94452380D01*
X126166666Y-94452380D02*
X126166666Y-93452380D01*
X126595238Y-94452380D02*
X126595238Y-93928571D01*
X126547619Y-93833333D01*
X126452380Y-93785714D01*
X126309523Y-93785714D01*
X126214285Y-93833333D01*
X126166666Y-93880952D01*
X127499999Y-93785714D02*
X127499999Y-94452380D01*
X127071428Y-93785714D02*
X127071428Y-94309523D01*
X127119047Y-94404761D01*
X127214285Y-94452380D01*
X127357142Y-94452380D01*
X127452380Y-94404761D01*
X127499999Y-94357142D01*
X127976190Y-94452380D02*
X127976190Y-93452380D01*
X127976190Y-93833333D02*
X128071428Y-93785714D01*
X128261904Y-93785714D01*
X128357142Y-93833333D01*
X128404761Y-93880952D01*
X128452380Y-93976190D01*
X128452380Y-94261904D01*
X128404761Y-94357142D01*
X128357142Y-94404761D01*
X128261904Y-94452380D01*
X128071428Y-94452380D01*
X127976190Y-94404761D01*
X128880952Y-94357142D02*
X128928571Y-94404761D01*
X128880952Y-94452380D01*
X128833333Y-94404761D01*
X128880952Y-94357142D01*
X128880952Y-94452380D01*
X129785714Y-94404761D02*
X129690476Y-94452380D01*
X129499999Y-94452380D01*
X129404761Y-94404761D01*
X129357142Y-94357142D01*
X129309523Y-94261904D01*
X129309523Y-93976190D01*
X129357142Y-93880952D01*
X129404761Y-93833333D01*
X129499999Y-93785714D01*
X129690476Y-93785714D01*
X129785714Y-93833333D01*
X130357142Y-94452380D02*
X130261904Y-94404761D01*
X130214285Y-94357142D01*
X130166666Y-94261904D01*
X130166666Y-93976190D01*
X130214285Y-93880952D01*
X130261904Y-93833333D01*
X130357142Y-93785714D01*
X130499999Y-93785714D01*
X130595238Y-93833333D01*
X130642857Y-93880952D01*
X130690476Y-93976190D01*
X130690476Y-94261904D01*
X130642857Y-94357142D01*
X130595238Y-94404761D01*
X130499999Y-94452380D01*
X130357142Y-94452380D01*
X131119047Y-94452380D02*
X131119047Y-93785714D01*
X131119047Y-93880952D02*
X131166666Y-93833333D01*
X131261904Y-93785714D01*
X131404761Y-93785714D01*
X131499999Y-93833333D01*
X131547619Y-93928571D01*
X131547619Y-94452380D01*
X131547619Y-93928571D02*
X131595238Y-93833333D01*
X131690476Y-93785714D01*
X131833333Y-93785714D01*
X131928571Y-93833333D01*
X131976190Y-93928571D01*
X131976190Y-94452380D01*
X133166666Y-93404761D02*
X132309523Y-94690476D01*
X133452380Y-94404761D02*
X133547619Y-94452380D01*
X133738095Y-94452380D01*
X133833333Y-94404761D01*
X133880952Y-94309523D01*
X133880952Y-94261904D01*
X133833333Y-94166666D01*
X133738095Y-94119047D01*
X133595238Y-94119047D01*
X133499999Y-94071428D01*
X133452380Y-93976190D01*
X133452380Y-93928571D01*
X133499999Y-93833333D01*
X133595238Y-93785714D01*
X133738095Y-93785714D01*
X133833333Y-93833333D01*
X134166666Y-93785714D02*
X134547619Y-93785714D01*
X134309523Y-93452380D02*
X134309523Y-94309523D01*
X134357142Y-94404761D01*
X134452380Y-94452380D01*
X134547619Y-94452380D01*
X135261904Y-94404761D02*
X135166666Y-94452380D01*
X134976190Y-94452380D01*
X134880952Y-94404761D01*
X134833333Y-94309523D01*
X134833333Y-93928571D01*
X134880952Y-93833333D01*
X134976190Y-93785714D01*
X135166666Y-93785714D01*
X135261904Y-93833333D01*
X135309523Y-93928571D01*
X135309523Y-94023809D01*
X134833333Y-94119047D01*
X135690476Y-93547619D02*
X135738095Y-93500000D01*
X135833333Y-93452380D01*
X136071428Y-93452380D01*
X136166666Y-93500000D01*
X136214285Y-93547619D01*
X136261904Y-93642857D01*
X136261904Y-93738095D01*
X136214285Y-93880952D01*
X135642857Y-94452380D01*
X136261904Y-94452380D01*
X137119047Y-93785714D02*
X137119047Y-94452380D01*
X136880952Y-93404761D02*
X136642857Y-94119047D01*
X137261904Y-94119047D01*
X137595238Y-93547619D02*
X137642857Y-93500000D01*
X137738095Y-93452380D01*
X137976190Y-93452380D01*
X138071428Y-93500000D01*
X138119047Y-93547619D01*
X138166666Y-93642857D01*
X138166666Y-93738095D01*
X138119047Y-93880952D01*
X137547619Y-94452380D01*
X138166666Y-94452380D01*
X139071428Y-93452380D02*
X138595238Y-93452380D01*
X138547619Y-93928571D01*
X138595238Y-93880952D01*
X138690476Y-93833333D01*
X138928571Y-93833333D01*
X139023809Y-93880952D01*
X139071428Y-93928571D01*
X139119047Y-94023809D01*
X139119047Y-94261904D01*
X139071428Y-94357142D01*
X139023809Y-94404761D01*
X138928571Y-94452380D01*
X138690476Y-94452380D01*
X138595238Y-94404761D01*
X138547619Y-94357142D01*
X140261904Y-93404761D02*
X139404761Y-94690476D01*
X140595238Y-94452380D02*
X140595238Y-93452380D01*
X140976190Y-93452380D01*
X141071428Y-93500000D01*
X141119047Y-93547619D01*
X141166666Y-93642857D01*
X141166666Y-93785714D01*
X141119047Y-93880952D01*
X141071428Y-93928571D01*
X140976190Y-93976190D01*
X140595238Y-93976190D01*
X141547619Y-94404761D02*
X141690476Y-94452380D01*
X141928571Y-94452380D01*
X142023809Y-94404761D01*
X142071428Y-94357142D01*
X142119047Y-94261904D01*
X142119047Y-94166666D01*
X142071428Y-94071428D01*
X142023809Y-94023809D01*
X141928571Y-93976190D01*
X141738095Y-93928571D01*
X141642857Y-93880952D01*
X141595238Y-93833333D01*
X141547619Y-93738095D01*
X141547619Y-93642857D01*
X141595238Y-93547619D01*
X141642857Y-93500000D01*
X141738095Y-93452380D01*
X141976190Y-93452380D01*
X142119047Y-93500000D01*
X142547619Y-94452380D02*
X142547619Y-93452380D01*
X142928571Y-93452380D01*
X143023809Y-93500000D01*
X143071428Y-93547619D01*
X143119047Y-93642857D01*
X143119047Y-93785714D01*
X143071428Y-93880952D01*
X143023809Y-93928571D01*
X142928571Y-93976190D01*
X142547619Y-93976190D01*
X143547619Y-94071428D02*
X144309523Y-94071428D01*
X145357142Y-94357142D02*
X145309523Y-94404761D01*
X145166666Y-94452380D01*
X145071428Y-94452380D01*
X144928571Y-94404761D01*
X144833333Y-94309523D01*
X144785714Y-94214285D01*
X144738095Y-94023809D01*
X144738095Y-93880952D01*
X144785714Y-93690476D01*
X144833333Y-93595238D01*
X144928571Y-93500000D01*
X145071428Y-93452380D01*
X145166666Y-93452380D01*
X145309523Y-93500000D01*
X145357142Y-93547619D01*
X145928571Y-94452380D02*
X145833333Y-94404761D01*
X145785714Y-94357142D01*
X145738095Y-94261904D01*
X145738095Y-93976190D01*
X145785714Y-93880952D01*
X145833333Y-93833333D01*
X145928571Y-93785714D01*
X146071428Y-93785714D01*
X146166666Y-93833333D01*
X146214285Y-93880952D01*
X146261904Y-93976190D01*
X146261904Y-94261904D01*
X146214285Y-94357142D01*
X146166666Y-94404761D01*
X146071428Y-94452380D01*
X145928571Y-94452380D01*
X146690476Y-93785714D02*
X146690476Y-94452380D01*
X146690476Y-93880952D02*
X146738095Y-93833333D01*
X146833333Y-93785714D01*
X146976190Y-93785714D01*
X147071428Y-93833333D01*
X147119047Y-93928571D01*
X147119047Y-94452380D01*
X147547619Y-94404761D02*
X147642857Y-94452380D01*
X147833333Y-94452380D01*
X147928571Y-94404761D01*
X147976190Y-94309523D01*
X147976190Y-94261904D01*
X147928571Y-94166666D01*
X147833333Y-94119047D01*
X147690476Y-94119047D01*
X147595238Y-94071428D01*
X147547619Y-93976190D01*
X147547619Y-93928571D01*
X147595238Y-93833333D01*
X147690476Y-93785714D01*
X147833333Y-93785714D01*
X147928571Y-93833333D01*
X148547619Y-94452380D02*
X148452380Y-94404761D01*
X148404761Y-94357142D01*
X148357142Y-94261904D01*
X148357142Y-93976190D01*
X148404761Y-93880952D01*
X148452380Y-93833333D01*
X148547619Y-93785714D01*
X148690476Y-93785714D01*
X148785714Y-93833333D01*
X148833333Y-93880952D01*
X148880952Y-93976190D01*
X148880952Y-94261904D01*
X148833333Y-94357142D01*
X148785714Y-94404761D01*
X148690476Y-94452380D01*
X148547619Y-94452380D01*
X149452380Y-94452380D02*
X149357142Y-94404761D01*
X149309523Y-94309523D01*
X149309523Y-93452380D01*
X149833333Y-94452380D02*
X149833333Y-93785714D01*
X149833333Y-93452380D02*
X149785714Y-93500000D01*
X149833333Y-93547619D01*
X149880952Y-93500000D01*
X149833333Y-93452380D01*
X149833333Y-93547619D01*
X150214285Y-93785714D02*
X150738095Y-93785714D01*
X150214285Y-94452380D01*
X150738095Y-94452380D01*
X151500000Y-94404761D02*
X151404761Y-94452380D01*
X151214285Y-94452380D01*
X151119047Y-94404761D01*
X151071428Y-94309523D01*
X151071428Y-93928571D01*
X151119047Y-93833333D01*
X151214285Y-93785714D01*
X151404761Y-93785714D01*
X151500000Y-93833333D01*
X151547619Y-93928571D01*
X151547619Y-94023809D01*
X151071428Y-94119047D01*
X151976190Y-94452380D02*
X151976190Y-93785714D01*
X151976190Y-93976190D02*
X152023809Y-93880952D01*
X152071428Y-93833333D01*
X152166666Y-93785714D01*
X152261904Y-93785714D01*
X197964285Y-64357142D02*
X197297619Y-64357142D01*
X197964285Y-63928571D02*
X197440476Y-63928571D01*
X197345238Y-63976190D01*
X197297619Y-64071428D01*
X197297619Y-64214285D01*
X197345238Y-64309523D01*
X197392857Y-64357142D01*
X197345238Y-64785714D02*
X197297619Y-64880952D01*
X197297619Y-65071428D01*
X197345238Y-65166666D01*
X197440476Y-65214285D01*
X197488095Y-65214285D01*
X197583333Y-65166666D01*
X197630952Y-65071428D01*
X197630952Y-64928571D01*
X197678571Y-64833333D01*
X197773809Y-64785714D01*
X197821428Y-64785714D01*
X197916666Y-64833333D01*
X197964285Y-64928571D01*
X197964285Y-65071428D01*
X197916666Y-65166666D01*
X197297619Y-65642857D02*
X198297619Y-65642857D01*
X197916666Y-65642857D02*
X197964285Y-65738095D01*
X197964285Y-65928571D01*
X197916666Y-66023809D01*
X197869047Y-66071428D01*
X197773809Y-66119047D01*
X197488095Y-66119047D01*
X197392857Y-66071428D01*
X197345238Y-66023809D01*
X197297619Y-65928571D01*
X197297619Y-65738095D01*
X197345238Y-65642857D01*
X152892857Y-50952380D02*
X152892857Y-49952380D01*
X153273809Y-49952380D01*
X153369047Y-50000000D01*
X153416666Y-50047619D01*
X153464285Y-50142857D01*
X153464285Y-50285714D01*
X153416666Y-50380952D01*
X153369047Y-50428571D01*
X153273809Y-50476190D01*
X152892857Y-50476190D01*
X153797619Y-49952380D02*
X154035714Y-50952380D01*
X154226190Y-50238095D01*
X154416666Y-50952380D01*
X154654761Y-49952380D01*
X155607142Y-50952380D02*
X155273809Y-50476190D01*
X155035714Y-50952380D02*
X155035714Y-49952380D01*
X155416666Y-49952380D01*
X155511904Y-50000000D01*
X155559523Y-50047619D01*
X155607142Y-50142857D01*
X155607142Y-50285714D01*
X155559523Y-50380952D01*
X155511904Y-50428571D01*
X155416666Y-50476190D01*
X155035714Y-50476190D01*
X156654761Y-49952380D02*
X157226190Y-49952380D01*
X156940476Y-50952380D02*
X156940476Y-49952380D01*
X158083333Y-50000000D02*
X157988095Y-49952380D01*
X157845238Y-49952380D01*
X157702380Y-50000000D01*
X157607142Y-50095238D01*
X157559523Y-50190476D01*
X157511904Y-50380952D01*
X157511904Y-50523809D01*
X157559523Y-50714285D01*
X157607142Y-50809523D01*
X157702380Y-50904761D01*
X157845238Y-50952380D01*
X157940476Y-50952380D01*
X158083333Y-50904761D01*
X158130952Y-50857142D01*
X158130952Y-50523809D01*
X157940476Y-50523809D01*
X159035714Y-50952380D02*
X158559523Y-50952380D01*
X158559523Y-49952380D01*
X160654761Y-50952380D02*
X160083333Y-50952380D01*
X160369047Y-50952380D02*
X160369047Y-49952380D01*
X160273809Y-50095238D01*
X160178571Y-50190476D01*
X160083333Y-50238095D01*
X180107142Y-84452380D02*
X179630952Y-84452380D01*
X179583333Y-84928571D01*
X179630952Y-84880952D01*
X179726190Y-84833333D01*
X179964285Y-84833333D01*
X180059523Y-84880952D01*
X180107142Y-84928571D01*
X180154761Y-85023809D01*
X180154761Y-85261904D01*
X180107142Y-85357142D01*
X180059523Y-85404761D01*
X179964285Y-85452380D01*
X179726190Y-85452380D01*
X179630952Y-85404761D01*
X179583333Y-85357142D01*
X180488095Y-84785714D02*
X180726190Y-85452380D01*
X180964285Y-84785714D01*
X120142857Y-77833333D02*
X120095238Y-77785714D01*
X120047619Y-77642857D01*
X120047619Y-77547619D01*
X120095238Y-77404761D01*
X120190476Y-77309523D01*
X120285714Y-77261904D01*
X120476190Y-77214285D01*
X120619047Y-77214285D01*
X120809523Y-77261904D01*
X120904761Y-77309523D01*
X121000000Y-77404761D01*
X121047619Y-77547619D01*
X121047619Y-77642857D01*
X121000000Y-77785714D01*
X120952380Y-77833333D01*
X120142857Y-79595238D02*
X120095238Y-79547619D01*
X120047619Y-79404761D01*
X120047619Y-79309523D01*
X120095238Y-79166666D01*
X120190476Y-79071428D01*
X120285714Y-79023809D01*
X120476190Y-78976190D01*
X120619047Y-78976190D01*
X120809523Y-79023809D01*
X120904761Y-79071428D01*
X121000000Y-79166666D01*
X121047619Y-79309523D01*
X121047619Y-79404761D01*
X121000000Y-79547619D01*
X120952380Y-79595238D01*
X120047619Y-80166666D02*
X120095238Y-80071428D01*
X120142857Y-80023809D01*
X120238095Y-79976190D01*
X120523809Y-79976190D01*
X120619047Y-80023809D01*
X120666666Y-80071428D01*
X120714285Y-80166666D01*
X120714285Y-80309523D01*
X120666666Y-80404761D01*
X120619047Y-80452380D01*
X120523809Y-80500000D01*
X120238095Y-80500000D01*
X120142857Y-80452380D01*
X120095238Y-80404761D01*
X120047619Y-80309523D01*
X120047619Y-80166666D01*
X120714285Y-80928571D02*
X120047619Y-80928571D01*
X120619047Y-80928571D02*
X120666666Y-80976190D01*
X120714285Y-81071428D01*
X120714285Y-81214285D01*
X120666666Y-81309523D01*
X120571428Y-81357142D01*
X120047619Y-81357142D01*
X120714285Y-81833333D02*
X120047619Y-81833333D01*
X120619047Y-81833333D02*
X120666666Y-81880952D01*
X120714285Y-81976190D01*
X120714285Y-82119047D01*
X120666666Y-82214285D01*
X120571428Y-82261904D01*
X120047619Y-82261904D01*
X120142857Y-82738095D02*
X120095238Y-82785714D01*
X120047619Y-82738095D01*
X120095238Y-82690476D01*
X120142857Y-82738095D01*
X120047619Y-82738095D01*
X179940476Y-47452380D02*
X179940476Y-46452380D01*
X180321428Y-46452380D01*
X180416666Y-46500000D01*
X180464285Y-46547619D01*
X180511904Y-46642857D01*
X180511904Y-46785714D01*
X180464285Y-46880952D01*
X180416666Y-46928571D01*
X180321428Y-46976190D01*
X179940476Y-46976190D01*
X181511904Y-47452380D02*
X181178571Y-46976190D01*
X180940476Y-47452380D02*
X180940476Y-46452380D01*
X181321428Y-46452380D01*
X181416666Y-46500000D01*
X181464285Y-46547619D01*
X181511904Y-46642857D01*
X181511904Y-46785714D01*
X181464285Y-46880952D01*
X181416666Y-46928571D01*
X181321428Y-46976190D01*
X180940476Y-46976190D01*
X182130952Y-46452380D02*
X182321428Y-46452380D01*
X182416666Y-46500000D01*
X182511904Y-46595238D01*
X182559523Y-46785714D01*
X182559523Y-47119047D01*
X182511904Y-47309523D01*
X182416666Y-47404761D01*
X182321428Y-47452380D01*
X182130952Y-47452380D01*
X182035714Y-47404761D01*
X181940476Y-47309523D01*
X181892857Y-47119047D01*
X181892857Y-46785714D01*
X181940476Y-46595238D01*
X182035714Y-46500000D01*
X182130952Y-46452380D01*
X183511904Y-46500000D02*
X183416666Y-46452380D01*
X183273809Y-46452380D01*
X183130952Y-46500000D01*
X183035714Y-46595238D01*
X182988095Y-46690476D01*
X182940476Y-46880952D01*
X182940476Y-47023809D01*
X182988095Y-47214285D01*
X183035714Y-47309523D01*
X183130952Y-47404761D01*
X183273809Y-47452380D01*
X183369047Y-47452380D01*
X183511904Y-47404761D01*
X183559523Y-47357142D01*
X183559523Y-47023809D01*
X183369047Y-47023809D01*
X184607142Y-46452380D02*
X185178571Y-46452380D01*
X184892857Y-47452380D02*
X184892857Y-46452380D01*
X186035714Y-46500000D02*
X185940476Y-46452380D01*
X185797619Y-46452380D01*
X185654761Y-46500000D01*
X185559523Y-46595238D01*
X185511904Y-46690476D01*
X185464285Y-46880952D01*
X185464285Y-47023809D01*
X185511904Y-47214285D01*
X185559523Y-47309523D01*
X185654761Y-47404761D01*
X185797619Y-47452380D01*
X185892857Y-47452380D01*
X186035714Y-47404761D01*
X186083333Y-47357142D01*
X186083333Y-47023809D01*
X185892857Y-47023809D01*
X186988095Y-47452380D02*
X186511904Y-47452380D01*
X186511904Y-46452380D01*
X188607142Y-47452380D02*
X188035714Y-47452380D01*
X188321428Y-47452380D02*
X188321428Y-46452380D01*
X188226190Y-46595238D01*
X188130952Y-46690476D01*
X188035714Y-46738095D01*
X169285714Y-67666666D02*
X169761904Y-67666666D01*
X169190476Y-67952380D02*
X169523809Y-66952380D01*
X169857142Y-67952380D01*
X170190476Y-67952380D02*
X170190476Y-67285714D01*
X170190476Y-67476190D02*
X170238095Y-67380952D01*
X170285714Y-67333333D01*
X170380952Y-67285714D01*
X170476190Y-67285714D01*
X171238095Y-67952380D02*
X171238095Y-66952380D01*
X171238095Y-67904761D02*
X171142857Y-67952380D01*
X170952380Y-67952380D01*
X170857142Y-67904761D01*
X170809523Y-67857142D01*
X170761904Y-67761904D01*
X170761904Y-67476190D01*
X170809523Y-67380952D01*
X170857142Y-67333333D01*
X170952380Y-67285714D01*
X171142857Y-67285714D01*
X171238095Y-67333333D01*
X172142857Y-67285714D02*
X172142857Y-67952380D01*
X171714285Y-67285714D02*
X171714285Y-67809523D01*
X171761904Y-67904761D01*
X171857142Y-67952380D01*
X172000000Y-67952380D01*
X172095238Y-67904761D01*
X172142857Y-67857142D01*
X172619047Y-67952380D02*
X172619047Y-67285714D01*
X172619047Y-66952380D02*
X172571428Y-67000000D01*
X172619047Y-67047619D01*
X172666666Y-67000000D01*
X172619047Y-66952380D01*
X172619047Y-67047619D01*
X173095238Y-67285714D02*
X173095238Y-67952380D01*
X173095238Y-67380952D02*
X173142857Y-67333333D01*
X173238095Y-67285714D01*
X173380952Y-67285714D01*
X173476190Y-67333333D01*
X173523809Y-67428571D01*
X173523809Y-67952380D01*
X174142857Y-67952380D02*
X174047619Y-67904761D01*
X174000000Y-67857142D01*
X173952380Y-67761904D01*
X173952380Y-67476190D01*
X174000000Y-67380952D01*
X174047619Y-67333333D01*
X174142857Y-67285714D01*
X174285714Y-67285714D01*
X174380952Y-67333333D01*
X174428571Y-67380952D01*
X174476190Y-67476190D01*
X174476190Y-67761904D01*
X174428571Y-67857142D01*
X174380952Y-67904761D01*
X174285714Y-67952380D01*
X174142857Y-67952380D01*
X175666666Y-67952380D02*
X175666666Y-66952380D01*
X176238095Y-67952380D01*
X176238095Y-66952380D01*
X177142857Y-67952380D02*
X177142857Y-67428571D01*
X177095238Y-67333333D01*
X177000000Y-67285714D01*
X176809523Y-67285714D01*
X176714285Y-67333333D01*
X177142857Y-67904761D02*
X177047619Y-67952380D01*
X176809523Y-67952380D01*
X176714285Y-67904761D01*
X176666666Y-67809523D01*
X176666666Y-67714285D01*
X176714285Y-67619047D01*
X176809523Y-67571428D01*
X177047619Y-67571428D01*
X177142857Y-67523809D01*
X177619047Y-67285714D02*
X177619047Y-67952380D01*
X177619047Y-67380952D02*
X177666666Y-67333333D01*
X177761904Y-67285714D01*
X177904761Y-67285714D01*
X178000000Y-67333333D01*
X178047619Y-67428571D01*
X178047619Y-67952380D01*
X178666666Y-67952380D02*
X178571428Y-67904761D01*
X178523809Y-67857142D01*
X178476190Y-67761904D01*
X178476190Y-67476190D01*
X178523809Y-67380952D01*
X178571428Y-67333333D01*
X178666666Y-67285714D01*
X178809523Y-67285714D01*
X178904761Y-67333333D01*
X178952380Y-67380952D01*
X179000000Y-67476190D01*
X179000000Y-67761904D01*
X178952380Y-67857142D01*
X178904761Y-67904761D01*
X178809523Y-67952380D01*
X178666666Y-67952380D01*
X180095238Y-66952380D02*
X180714285Y-66952380D01*
X180380952Y-67333333D01*
X180523809Y-67333333D01*
X180619047Y-67380952D01*
X180666666Y-67428571D01*
X180714285Y-67523809D01*
X180714285Y-67761904D01*
X180666666Y-67857142D01*
X180619047Y-67904761D01*
X180523809Y-67952380D01*
X180238095Y-67952380D01*
X180142857Y-67904761D01*
X180095238Y-67857142D01*
X181047619Y-66952380D02*
X181666666Y-66952380D01*
X181333333Y-67333333D01*
X181476190Y-67333333D01*
X181571428Y-67380952D01*
X181619047Y-67428571D01*
X181666666Y-67523809D01*
X181666666Y-67761904D01*
X181619047Y-67857142D01*
X181571428Y-67904761D01*
X181476190Y-67952380D01*
X181190476Y-67952380D01*
X181095238Y-67904761D01*
X181047619Y-67857142D01*
X182857142Y-67952380D02*
X182857142Y-66952380D01*
X183523809Y-66952380D02*
X183714285Y-66952380D01*
X183809523Y-67000000D01*
X183904761Y-67095238D01*
X183952380Y-67285714D01*
X183952380Y-67619047D01*
X183904761Y-67809523D01*
X183809523Y-67904761D01*
X183714285Y-67952380D01*
X183523809Y-67952380D01*
X183428571Y-67904761D01*
X183333333Y-67809523D01*
X183285714Y-67619047D01*
X183285714Y-67285714D01*
X183333333Y-67095238D01*
X183428571Y-67000000D01*
X183523809Y-66952380D01*
X184238095Y-66952380D02*
X184809523Y-66952380D01*
X184523809Y-67952380D02*
X184523809Y-66952380D01*
X164559523Y-87452380D02*
X164559523Y-86452380D01*
X164940476Y-86452380D01*
X165035714Y-86500000D01*
X165083333Y-86547619D01*
X165130952Y-86642857D01*
X165130952Y-86785714D01*
X165083333Y-86880952D01*
X165035714Y-86928571D01*
X164940476Y-86976190D01*
X164559523Y-86976190D01*
X165511904Y-87404761D02*
X165654761Y-87452380D01*
X165892857Y-87452380D01*
X165988095Y-87404761D01*
X166035714Y-87357142D01*
X166083333Y-87261904D01*
X166083333Y-87166666D01*
X166035714Y-87071428D01*
X165988095Y-87023809D01*
X165892857Y-86976190D01*
X165702380Y-86928571D01*
X165607142Y-86880952D01*
X165559523Y-86833333D01*
X165511904Y-86738095D01*
X165511904Y-86642857D01*
X165559523Y-86547619D01*
X165607142Y-86500000D01*
X165702380Y-86452380D01*
X165940476Y-86452380D01*
X166083333Y-86500000D01*
X166511904Y-87452380D02*
X166511904Y-86452380D01*
X166892857Y-86452380D01*
X166988095Y-86500000D01*
X167035714Y-86547619D01*
X167083333Y-86642857D01*
X167083333Y-86785714D01*
X167035714Y-86880952D01*
X166988095Y-86928571D01*
X166892857Y-86976190D01*
X166511904Y-86976190D01*
X168273809Y-87452380D02*
X168273809Y-86452380D01*
X168654761Y-86452380D01*
X168750000Y-86500000D01*
X168797619Y-86547619D01*
X168845238Y-86642857D01*
X168845238Y-86785714D01*
X168797619Y-86880952D01*
X168750000Y-86928571D01*
X168654761Y-86976190D01*
X168273809Y-86976190D01*
X169178571Y-86452380D02*
X169416666Y-87452380D01*
X169607142Y-86738095D01*
X169797619Y-87452380D01*
X170035714Y-86452380D01*
X170988095Y-87452380D02*
X170654761Y-86976190D01*
X170416666Y-87452380D02*
X170416666Y-86452380D01*
X170797619Y-86452380D01*
X170892857Y-86500000D01*
X170940476Y-86547619D01*
X170988095Y-86642857D01*
X170988095Y-86785714D01*
X170940476Y-86880952D01*
X170892857Y-86928571D01*
X170797619Y-86976190D01*
X170416666Y-86976190D01*
X139833333Y-57452380D02*
X139500000Y-56976190D01*
X139261904Y-57452380D02*
X139261904Y-56452380D01*
X139642857Y-56452380D01*
X139738095Y-56500000D01*
X139785714Y-56547619D01*
X139833333Y-56642857D01*
X139833333Y-56785714D01*
X139785714Y-56880952D01*
X139738095Y-56928571D01*
X139642857Y-56976190D01*
X139261904Y-56976190D01*
X141595238Y-57357142D02*
X141547619Y-57404761D01*
X141404761Y-57452380D01*
X141309523Y-57452380D01*
X141166666Y-57404761D01*
X141071428Y-57309523D01*
X141023809Y-57214285D01*
X140976190Y-57023809D01*
X140976190Y-56880952D01*
X141023809Y-56690476D01*
X141071428Y-56595238D01*
X141166666Y-56500000D01*
X141309523Y-56452380D01*
X141404761Y-56452380D01*
X141547619Y-56500000D01*
X141595238Y-56547619D01*
X142166666Y-57452380D02*
X142071428Y-57404761D01*
X142023809Y-57357142D01*
X141976190Y-57261904D01*
X141976190Y-56976190D01*
X142023809Y-56880952D01*
X142071428Y-56833333D01*
X142166666Y-56785714D01*
X142309523Y-56785714D01*
X142404761Y-56833333D01*
X142452380Y-56880952D01*
X142500000Y-56976190D01*
X142500000Y-57261904D01*
X142452380Y-57357142D01*
X142404761Y-57404761D01*
X142309523Y-57452380D01*
X142166666Y-57452380D01*
X142928571Y-56785714D02*
X142928571Y-57452380D01*
X142928571Y-56880952D02*
X142976190Y-56833333D01*
X143071428Y-56785714D01*
X143214285Y-56785714D01*
X143309523Y-56833333D01*
X143357142Y-56928571D01*
X143357142Y-57452380D01*
X143833333Y-56785714D02*
X143833333Y-57452380D01*
X143833333Y-56880952D02*
X143880952Y-56833333D01*
X143976190Y-56785714D01*
X144119047Y-56785714D01*
X144214285Y-56833333D01*
X144261904Y-56928571D01*
X144261904Y-57452380D01*
X144738095Y-57357142D02*
X144785714Y-57404761D01*
X144738095Y-57452380D01*
X144690476Y-57404761D01*
X144738095Y-57357142D01*
X144738095Y-57452380D01*
X114571428Y-93785714D02*
X114809523Y-94452380D01*
X115047619Y-93785714D01*
X115952380Y-94452380D02*
X115380952Y-94452380D01*
X115666666Y-94452380D02*
X115666666Y-93452380D01*
X115571428Y-93595238D01*
X115476190Y-93690476D01*
X115380952Y-93738095D01*
X116380952Y-94357142D02*
X116428571Y-94404761D01*
X116380952Y-94452380D01*
X116333333Y-94404761D01*
X116380952Y-94357142D01*
X116380952Y-94452380D01*
X117047619Y-93452380D02*
X117142857Y-93452380D01*
X117238095Y-93500000D01*
X117285714Y-93547619D01*
X117333333Y-93642857D01*
X117380952Y-93833333D01*
X117380952Y-94071428D01*
X117333333Y-94261904D01*
X117285714Y-94357142D01*
X117238095Y-94404761D01*
X117142857Y-94452380D01*
X117047619Y-94452380D01*
X116952380Y-94404761D01*
X116904761Y-94357142D01*
X116857142Y-94261904D01*
X116809523Y-94071428D01*
X116809523Y-93833333D01*
X116857142Y-93642857D01*
X116904761Y-93547619D01*
X116952380Y-93500000D01*
X117047619Y-93452380D01*
X179273809Y-87452380D02*
X179273809Y-86452380D01*
X179654761Y-86452380D01*
X179750000Y-86500000D01*
X179797619Y-86547619D01*
X179845238Y-86642857D01*
X179845238Y-86785714D01*
X179797619Y-86880952D01*
X179750000Y-86928571D01*
X179654761Y-86976190D01*
X179273809Y-86976190D01*
X180178571Y-86452380D02*
X180416666Y-87452380D01*
X180607142Y-86738095D01*
X180797619Y-87452380D01*
X181035714Y-86452380D01*
X181988095Y-87452380D02*
X181654761Y-86976190D01*
X181416666Y-87452380D02*
X181416666Y-86452380D01*
X181797619Y-86452380D01*
X181892857Y-86500000D01*
X181940476Y-86547619D01*
X181988095Y-86642857D01*
X181988095Y-86785714D01*
X181940476Y-86880952D01*
X181892857Y-86928571D01*
X181797619Y-86976190D01*
X181416666Y-86976190D01*
X183178571Y-87452380D02*
X183178571Y-86452380D01*
X183654761Y-87452380D02*
X183654761Y-86452380D01*
X184226190Y-87452380D01*
X184226190Y-86452380D01*
X124138333Y-68440476D02*
X124138333Y-68916666D01*
X123852619Y-68345238D02*
X124852619Y-68678571D01*
X123852619Y-69011904D01*
X124519285Y-69345238D02*
X123852619Y-69345238D01*
X124424047Y-69345238D02*
X124471666Y-69392857D01*
X124519285Y-69488095D01*
X124519285Y-69630952D01*
X124471666Y-69726190D01*
X124376428Y-69773809D01*
X123852619Y-69773809D01*
X123852619Y-70678571D02*
X124376428Y-70678571D01*
X124471666Y-70630952D01*
X124519285Y-70535714D01*
X124519285Y-70345238D01*
X124471666Y-70250000D01*
X123900238Y-70678571D02*
X123852619Y-70583333D01*
X123852619Y-70345238D01*
X123900238Y-70250000D01*
X123995476Y-70202380D01*
X124090714Y-70202380D01*
X124185952Y-70250000D01*
X124233571Y-70345238D01*
X124233571Y-70583333D01*
X124281190Y-70678571D01*
X123852619Y-71297619D02*
X123900238Y-71202380D01*
X123995476Y-71154761D01*
X124852619Y-71154761D01*
X123852619Y-71821428D02*
X123900238Y-71726190D01*
X123947857Y-71678571D01*
X124043095Y-71630952D01*
X124328809Y-71630952D01*
X124424047Y-71678571D01*
X124471666Y-71726190D01*
X124519285Y-71821428D01*
X124519285Y-71964285D01*
X124471666Y-72059523D01*
X124424047Y-72107142D01*
X124328809Y-72154761D01*
X124043095Y-72154761D01*
X123947857Y-72107142D01*
X123900238Y-72059523D01*
X123852619Y-71964285D01*
X123852619Y-71821428D01*
X124519285Y-73011904D02*
X123709761Y-73011904D01*
X123614523Y-72964285D01*
X123566904Y-72916666D01*
X123519285Y-72821428D01*
X123519285Y-72678571D01*
X123566904Y-72583333D01*
X123900238Y-73011904D02*
X123852619Y-72916666D01*
X123852619Y-72726190D01*
X123900238Y-72630952D01*
X123947857Y-72583333D01*
X124043095Y-72535714D01*
X124328809Y-72535714D01*
X124424047Y-72583333D01*
X124471666Y-72630952D01*
X124519285Y-72726190D01*
X124519285Y-72916666D01*
X124471666Y-73011904D01*
X122290238Y-69107142D02*
X122242619Y-69250000D01*
X122242619Y-69488095D01*
X122290238Y-69583333D01*
X122337857Y-69630952D01*
X122433095Y-69678571D01*
X122528333Y-69678571D01*
X122623571Y-69630952D01*
X122671190Y-69583333D01*
X122718809Y-69488095D01*
X122766428Y-69297619D01*
X122814047Y-69202380D01*
X122861666Y-69154761D01*
X122956904Y-69107142D01*
X123052142Y-69107142D01*
X123147380Y-69154761D01*
X123195000Y-69202380D01*
X123242619Y-69297619D01*
X123242619Y-69535714D01*
X123195000Y-69678571D01*
X122909285Y-69964285D02*
X122909285Y-70345238D01*
X123242619Y-70107142D02*
X122385476Y-70107142D01*
X122290238Y-70154761D01*
X122242619Y-70250000D01*
X122242619Y-70345238D01*
X122242619Y-70678571D02*
X122909285Y-70678571D01*
X123242619Y-70678571D02*
X123195000Y-70630952D01*
X123147380Y-70678571D01*
X123195000Y-70726190D01*
X123242619Y-70678571D01*
X123147380Y-70678571D01*
X122290238Y-71583333D02*
X122242619Y-71488095D01*
X122242619Y-71297619D01*
X122290238Y-71202380D01*
X122337857Y-71154761D01*
X122433095Y-71107142D01*
X122718809Y-71107142D01*
X122814047Y-71154761D01*
X122861666Y-71202380D01*
X122909285Y-71297619D01*
X122909285Y-71488095D01*
X122861666Y-71583333D01*
X122242619Y-72011904D02*
X123242619Y-72011904D01*
X122623571Y-72107142D02*
X122242619Y-72392857D01*
X122909285Y-72392857D02*
X122528333Y-72011904D01*
X176619047Y-29571428D02*
X177380952Y-29571428D01*
X177000000Y-29952380D02*
X177000000Y-29190476D01*
X182369047Y-84821428D02*
X183130952Y-84821428D01*
X142011904Y-84702380D02*
X142011904Y-83702380D01*
X142345238Y-84416666D01*
X142678571Y-83702380D01*
X142678571Y-84702380D01*
X143726190Y-84607142D02*
X143678571Y-84654761D01*
X143535714Y-84702380D01*
X143440476Y-84702380D01*
X143297619Y-84654761D01*
X143202380Y-84559523D01*
X143154761Y-84464285D01*
X143107142Y-84273809D01*
X143107142Y-84130952D01*
X143154761Y-83940476D01*
X143202380Y-83845238D01*
X143297619Y-83750000D01*
X143440476Y-83702380D01*
X143535714Y-83702380D01*
X143678571Y-83750000D01*
X143726190Y-83797619D01*
X144154761Y-84702380D02*
X144154761Y-83702380D01*
X144535714Y-83702380D01*
X144630952Y-83750000D01*
X144678571Y-83797619D01*
X144726190Y-83892857D01*
X144726190Y-84035714D01*
X144678571Y-84130952D01*
X144630952Y-84178571D01*
X144535714Y-84226190D01*
X144154761Y-84226190D01*
X145583333Y-84035714D02*
X145583333Y-84702380D01*
X145345238Y-83654761D02*
X145107142Y-84369047D01*
X145726190Y-84369047D01*
X146059523Y-83797619D02*
X146107142Y-83750000D01*
X146202380Y-83702380D01*
X146440476Y-83702380D01*
X146535714Y-83750000D01*
X146583333Y-83797619D01*
X146630952Y-83892857D01*
X146630952Y-83988095D01*
X146583333Y-84130952D01*
X146011904Y-84702380D01*
X146630952Y-84702380D01*
X147535714Y-83702380D02*
X147059523Y-83702380D01*
X147011904Y-84178571D01*
X147059523Y-84130952D01*
X147154761Y-84083333D01*
X147392857Y-84083333D01*
X147488095Y-84130952D01*
X147535714Y-84178571D01*
X147583333Y-84273809D01*
X147583333Y-84511904D01*
X147535714Y-84607142D01*
X147488095Y-84654761D01*
X147392857Y-84702380D01*
X147154761Y-84702380D01*
X147059523Y-84654761D01*
X147011904Y-84607142D01*
X148535714Y-84702380D02*
X147964285Y-84702380D01*
X148250000Y-84702380D02*
X148250000Y-83702380D01*
X148154761Y-83845238D01*
X148059523Y-83940476D01*
X147964285Y-83988095D01*
X184976190Y-43357142D02*
X184928571Y-43404761D01*
X184785714Y-43452380D01*
X184690476Y-43452380D01*
X184547619Y-43404761D01*
X184452380Y-43309523D01*
X184404761Y-43214285D01*
X184357142Y-43023809D01*
X184357142Y-42880952D01*
X184404761Y-42690476D01*
X184452380Y-42595238D01*
X184547619Y-42500000D01*
X184690476Y-42452380D01*
X184785714Y-42452380D01*
X184928571Y-42500000D01*
X184976190Y-42547619D01*
X185547619Y-43452380D02*
X185452380Y-43404761D01*
X185404761Y-43357142D01*
X185357142Y-43261904D01*
X185357142Y-42976190D01*
X185404761Y-42880952D01*
X185452380Y-42833333D01*
X185547619Y-42785714D01*
X185690476Y-42785714D01*
X185785714Y-42833333D01*
X185833333Y-42880952D01*
X185880952Y-42976190D01*
X185880952Y-43261904D01*
X185833333Y-43357142D01*
X185785714Y-43404761D01*
X185690476Y-43452380D01*
X185547619Y-43452380D01*
X186309523Y-42785714D02*
X186309523Y-43452380D01*
X186309523Y-42880952D02*
X186357142Y-42833333D01*
X186452380Y-42785714D01*
X186595238Y-42785714D01*
X186690476Y-42833333D01*
X186738095Y-42928571D01*
X186738095Y-43452380D01*
X187071428Y-42785714D02*
X187452380Y-42785714D01*
X187214285Y-42452380D02*
X187214285Y-43309523D01*
X187261904Y-43404761D01*
X187357142Y-43452380D01*
X187452380Y-43452380D01*
X187785714Y-43452380D02*
X187785714Y-42785714D01*
X187785714Y-42976190D02*
X187833333Y-42880952D01*
X187880952Y-42833333D01*
X187976190Y-42785714D01*
X188071428Y-42785714D01*
X188547619Y-43452380D02*
X188452380Y-43404761D01*
X188404761Y-43357142D01*
X188357142Y-43261904D01*
X188357142Y-42976190D01*
X188404761Y-42880952D01*
X188452380Y-42833333D01*
X188547619Y-42785714D01*
X188690476Y-42785714D01*
X188785714Y-42833333D01*
X188833333Y-42880952D01*
X188880952Y-42976190D01*
X188880952Y-43261904D01*
X188833333Y-43357142D01*
X188785714Y-43404761D01*
X188690476Y-43452380D01*
X188547619Y-43452380D01*
X189452380Y-43452380D02*
X189357142Y-43404761D01*
X189309523Y-43309523D01*
X189309523Y-42452380D01*
X189976190Y-43452380D02*
X189880952Y-43404761D01*
X189833333Y-43309523D01*
X189833333Y-42452380D01*
X190738095Y-43404761D02*
X190642857Y-43452380D01*
X190452380Y-43452380D01*
X190357142Y-43404761D01*
X190309523Y-43309523D01*
X190309523Y-42928571D01*
X190357142Y-42833333D01*
X190452380Y-42785714D01*
X190642857Y-42785714D01*
X190738095Y-42833333D01*
X190785714Y-42928571D01*
X190785714Y-43023809D01*
X190309523Y-43119047D01*
X191214285Y-43452380D02*
X191214285Y-42785714D01*
X191214285Y-42976190D02*
X191261904Y-42880952D01*
X191309523Y-42833333D01*
X191404761Y-42785714D01*
X191500000Y-42785714D01*
X192547619Y-43404761D02*
X192690476Y-43452380D01*
X192928571Y-43452380D01*
X193023809Y-43404761D01*
X193071428Y-43357142D01*
X193119047Y-43261904D01*
X193119047Y-43166666D01*
X193071428Y-43071428D01*
X193023809Y-43023809D01*
X192928571Y-42976190D01*
X192738095Y-42928571D01*
X192642857Y-42880952D01*
X192595238Y-42833333D01*
X192547619Y-42738095D01*
X192547619Y-42642857D01*
X192595238Y-42547619D01*
X192642857Y-42500000D01*
X192738095Y-42452380D01*
X192976190Y-42452380D01*
X193119047Y-42500000D01*
X193452380Y-42785714D02*
X193690476Y-43452380D01*
X193928571Y-42785714D02*
X193690476Y-43452380D01*
X193595238Y-43690476D01*
X193547619Y-43738095D01*
X193452380Y-43785714D01*
X194309523Y-42785714D02*
X194309523Y-43452380D01*
X194309523Y-42880952D02*
X194357142Y-42833333D01*
X194452380Y-42785714D01*
X194595238Y-42785714D01*
X194690476Y-42833333D01*
X194738095Y-42928571D01*
X194738095Y-43452380D01*
X195642857Y-43404761D02*
X195547619Y-43452380D01*
X195357142Y-43452380D01*
X195261904Y-43404761D01*
X195214285Y-43357142D01*
X195166666Y-43261904D01*
X195166666Y-42976190D01*
X195214285Y-42880952D01*
X195261904Y-42833333D01*
X195357142Y-42785714D01*
X195547619Y-42785714D01*
X195642857Y-42833333D01*
X166619047Y-84821428D02*
X167380952Y-84821428D01*
%TO.C,U1*%
X144548095Y-63622380D02*
X144548095Y-64431904D01*
X144595714Y-64527142D01*
X144643333Y-64574761D01*
X144738571Y-64622380D01*
X144929047Y-64622380D01*
X145024285Y-64574761D01*
X145071904Y-64527142D01*
X145119523Y-64431904D01*
X145119523Y-63622380D01*
X146119523Y-64622380D02*
X145548095Y-64622380D01*
X145833809Y-64622380D02*
X145833809Y-63622380D01*
X145738571Y-63765238D01*
X145643333Y-63860476D01*
X145548095Y-63908095D01*
%TO.C,JP1*%
X167166666Y-48412380D02*
X167166666Y-49126666D01*
X167119047Y-49269523D01*
X167023809Y-49364761D01*
X166880952Y-49412380D01*
X166785714Y-49412380D01*
X167642857Y-49412380D02*
X167642857Y-48412380D01*
X168023809Y-48412380D01*
X168119047Y-48460000D01*
X168166666Y-48507619D01*
X168214285Y-48602857D01*
X168214285Y-48745714D01*
X168166666Y-48840952D01*
X168119047Y-48888571D01*
X168023809Y-48936190D01*
X167642857Y-48936190D01*
X169166666Y-49412380D02*
X168595238Y-49412380D01*
X168880952Y-49412380D02*
X168880952Y-48412380D01*
X168785714Y-48555238D01*
X168690476Y-48650476D01*
X168595238Y-48698095D01*
%TO.C,JP2*%
X175666666Y-38152380D02*
X175666666Y-38866666D01*
X175619047Y-39009523D01*
X175523809Y-39104761D01*
X175380952Y-39152380D01*
X175285714Y-39152380D01*
X176142857Y-39152380D02*
X176142857Y-38152380D01*
X176523809Y-38152380D01*
X176619047Y-38200000D01*
X176666666Y-38247619D01*
X176714285Y-38342857D01*
X176714285Y-38485714D01*
X176666666Y-38580952D01*
X176619047Y-38628571D01*
X176523809Y-38676190D01*
X176142857Y-38676190D01*
X177095238Y-38247619D02*
X177142857Y-38200000D01*
X177238095Y-38152380D01*
X177476190Y-38152380D01*
X177571428Y-38200000D01*
X177619047Y-38247619D01*
X177666666Y-38342857D01*
X177666666Y-38438095D01*
X177619047Y-38580952D01*
X177047619Y-39152380D01*
X177666666Y-39152380D01*
%TO.C,J7*%
X176166666Y-42847380D02*
X176166666Y-43561666D01*
X176119047Y-43704523D01*
X176023809Y-43799761D01*
X175880952Y-43847380D01*
X175785714Y-43847380D01*
X176547619Y-42847380D02*
X177214285Y-42847380D01*
X176785714Y-43847380D01*
%TO.C,R1*%
X173833333Y-32082380D02*
X173500000Y-31606190D01*
X173261904Y-32082380D02*
X173261904Y-31082380D01*
X173642857Y-31082380D01*
X173738095Y-31130000D01*
X173785714Y-31177619D01*
X173833333Y-31272857D01*
X173833333Y-31415714D01*
X173785714Y-31510952D01*
X173738095Y-31558571D01*
X173642857Y-31606190D01*
X173261904Y-31606190D01*
X174785714Y-32082380D02*
X174214285Y-32082380D01*
X174500000Y-32082380D02*
X174500000Y-31082380D01*
X174404761Y-31225238D01*
X174309523Y-31320476D01*
X174214285Y-31368095D01*
%TO.C,U5*%
X188738095Y-32952380D02*
X188738095Y-33761904D01*
X188785714Y-33857142D01*
X188833333Y-33904761D01*
X188928571Y-33952380D01*
X189119047Y-33952380D01*
X189214285Y-33904761D01*
X189261904Y-33857142D01*
X189309523Y-33761904D01*
X189309523Y-32952380D01*
X190261904Y-32952380D02*
X189785714Y-32952380D01*
X189738095Y-33428571D01*
X189785714Y-33380952D01*
X189880952Y-33333333D01*
X190119047Y-33333333D01*
X190214285Y-33380952D01*
X190261904Y-33428571D01*
X190309523Y-33523809D01*
X190309523Y-33761904D01*
X190261904Y-33857142D01*
X190214285Y-33904761D01*
X190119047Y-33952380D01*
X189880952Y-33952380D01*
X189785714Y-33904761D01*
X189738095Y-33857142D01*
%TO.C,U3*%
X141738095Y-46984956D02*
X141738095Y-47794480D01*
X141785714Y-47889718D01*
X141833333Y-47937337D01*
X141928571Y-47984956D01*
X142119047Y-47984956D01*
X142214285Y-47937337D01*
X142261904Y-47889718D01*
X142309523Y-47794480D01*
X142309523Y-46984956D01*
X142690476Y-46984956D02*
X143309523Y-46984956D01*
X142976190Y-47365909D01*
X143119047Y-47365909D01*
X143214285Y-47413528D01*
X143261904Y-47461147D01*
X143309523Y-47556385D01*
X143309523Y-47794480D01*
X143261904Y-47889718D01*
X143214285Y-47937337D01*
X143119047Y-47984956D01*
X142833333Y-47984956D01*
X142738095Y-47937337D01*
X142690476Y-47889718D01*
%TO.C,J4*%
X130166666Y-79322380D02*
X130166666Y-80036666D01*
X130119047Y-80179523D01*
X130023809Y-80274761D01*
X129880952Y-80322380D01*
X129785714Y-80322380D01*
X131071428Y-79655714D02*
X131071428Y-80322380D01*
X130833333Y-79274761D02*
X130595238Y-79989047D01*
X131214285Y-79989047D01*
%TO.C,D1*%
X179581904Y-31907380D02*
X179581904Y-30907380D01*
X179820000Y-30907380D01*
X179962857Y-30955000D01*
X180058095Y-31050238D01*
X180105714Y-31145476D01*
X180153333Y-31335952D01*
X180153333Y-31478809D01*
X180105714Y-31669285D01*
X180058095Y-31764523D01*
X179962857Y-31859761D01*
X179820000Y-31907380D01*
X179581904Y-31907380D01*
X181105714Y-31907380D02*
X180534285Y-31907380D01*
X180820000Y-31907380D02*
X180820000Y-30907380D01*
X180724761Y-31050238D01*
X180629523Y-31145476D01*
X180534285Y-31193095D01*
%TO.C,P1*%
X134629418Y-71488095D02*
X133629418Y-71488095D01*
X133629418Y-71107142D01*
X133677038Y-71011904D01*
X133724657Y-70964285D01*
X133819895Y-70916666D01*
X133962752Y-70916666D01*
X134057990Y-70964285D01*
X134105609Y-71011904D01*
X134153228Y-71107142D01*
X134153228Y-71488095D01*
X134629418Y-69964285D02*
X134629418Y-70535714D01*
X134629418Y-70250000D02*
X133629418Y-70250000D01*
X133772276Y-70345238D01*
X133867514Y-70440476D01*
X133915133Y-70535714D01*
%TO.C,U4*%
X113952380Y-73761904D02*
X114761904Y-73761904D01*
X114857142Y-73714285D01*
X114904761Y-73666666D01*
X114952380Y-73571428D01*
X114952380Y-73380952D01*
X114904761Y-73285714D01*
X114857142Y-73238095D01*
X114761904Y-73190476D01*
X113952380Y-73190476D01*
X114285714Y-72285714D02*
X114952380Y-72285714D01*
X113904761Y-72523809D02*
X114619047Y-72761904D01*
X114619047Y-72142857D01*
%TO.C,J8*%
X162416666Y-45702380D02*
X162416666Y-46416666D01*
X162369047Y-46559523D01*
X162273809Y-46654761D01*
X162130952Y-46702380D01*
X162035714Y-46702380D01*
X163035714Y-46130952D02*
X162940476Y-46083333D01*
X162892857Y-46035714D01*
X162845238Y-45940476D01*
X162845238Y-45892857D01*
X162892857Y-45797619D01*
X162940476Y-45750000D01*
X163035714Y-45702380D01*
X163226190Y-45702380D01*
X163321428Y-45750000D01*
X163369047Y-45797619D01*
X163416666Y-45892857D01*
X163416666Y-45940476D01*
X163369047Y-46035714D01*
X163321428Y-46083333D01*
X163226190Y-46130952D01*
X163035714Y-46130952D01*
X162940476Y-46178571D01*
X162892857Y-46226190D01*
X162845238Y-46321428D01*
X162845238Y-46511904D01*
X162892857Y-46607142D01*
X162940476Y-46654761D01*
X163035714Y-46702380D01*
X163226190Y-46702380D01*
X163321428Y-46654761D01*
X163369047Y-46607142D01*
X163416666Y-46511904D01*
X163416666Y-46321428D01*
X163369047Y-46226190D01*
X163321428Y-46178571D01*
X163226190Y-46130952D01*
%TO.C,U2*%
X113952380Y-54261904D02*
X114761904Y-54261904D01*
X114857142Y-54214285D01*
X114904761Y-54166666D01*
X114952380Y-54071428D01*
X114952380Y-53880952D01*
X114904761Y-53785714D01*
X114857142Y-53738095D01*
X114761904Y-53690476D01*
X113952380Y-53690476D01*
X114047619Y-53261904D02*
X114000000Y-53214285D01*
X113952380Y-53119047D01*
X113952380Y-52880952D01*
X114000000Y-52785714D01*
X114047619Y-52738095D01*
X114142857Y-52690476D01*
X114238095Y-52690476D01*
X114380952Y-52738095D01*
X114952380Y-53309523D01*
X114952380Y-52690476D01*
D11*
%TO.C,U1*%
X144310000Y-65170000D02*
X142660000Y-65170000D01*
X142660000Y-83070000D02*
X147960000Y-83070000D01*
X147960000Y-65170000D02*
X146310000Y-65170000D01*
X147960000Y-83070000D02*
X147960000Y-65170000D01*
X142660000Y-65170000D02*
X142660000Y-83070000D01*
X144310000Y-65170000D02*
G75*
G03*
X146310000Y-65170000I1000000J0D01*
G01*
%TO.C,JP1*%
X169400000Y-50500000D02*
X169400000Y-52500000D01*
X166600000Y-52500000D02*
X166600000Y-50500000D01*
X169400000Y-52500000D02*
X166600000Y-52500000D01*
X166600000Y-50500000D02*
X169400000Y-50500000D01*
%TO.C,JP2*%
X177900000Y-39500000D02*
X177900000Y-41500000D01*
X177900000Y-41500000D02*
X175100000Y-41500000D01*
X175100000Y-41500000D02*
X175100000Y-39500000D01*
X175100000Y-39500000D02*
X177900000Y-39500000D01*
%TO.C,J2*%
X168230000Y-80670000D02*
X165630000Y-80670000D01*
X169500000Y-80670000D02*
X170830000Y-80670000D01*
X165630000Y-80670000D02*
X165630000Y-83330000D01*
X170830000Y-80670000D02*
X170830000Y-82000000D01*
X168230000Y-83330000D02*
X165630000Y-83330000D01*
X168230000Y-80670000D02*
X168230000Y-83330000D01*
%TO.C,J7*%
X175170000Y-44395000D02*
X176500000Y-44395000D01*
X175170000Y-46995000D02*
X175170000Y-49595000D01*
X175170000Y-49595000D02*
X177830000Y-49595000D01*
X175170000Y-45725000D02*
X175170000Y-44395000D01*
X175170000Y-46995000D02*
X177830000Y-46995000D01*
X177830000Y-46995000D02*
X177830000Y-49595000D01*
%TO.C,R1*%
X170730000Y-35370000D02*
X177270000Y-35370000D01*
X170730000Y-32630000D02*
X170730000Y-35370000D01*
X177270000Y-35370000D02*
X177270000Y-32630000D01*
X178040000Y-34000000D02*
X177270000Y-34000000D01*
X177270000Y-32630000D02*
X170730000Y-32630000D01*
X169960000Y-34000000D02*
X170730000Y-34000000D01*
D12*
%TO.C,U5*%
X186500000Y-41499809D02*
X186500000Y-41457950D01*
X186500000Y-40041694D02*
X186500000Y-36957925D01*
X192500000Y-40041694D02*
X192500000Y-36957925D01*
X192500000Y-35541669D02*
X192500000Y-35500191D01*
X192500000Y-41499809D02*
X186500000Y-41499809D01*
X192500000Y-41499809D02*
X192500000Y-41457950D01*
X186500000Y-35541669D02*
X186500000Y-35500191D01*
X186500254Y-35500191D02*
X192499746Y-35500191D01*
X187860681Y-40499682D02*
G75*
G03*
X187860681Y-40499682I-360681J0D01*
G01*
X191860681Y-40499682D02*
G75*
G03*
X191860681Y-40499682I-360681J0D01*
G01*
X187860681Y-36499682D02*
G75*
G03*
X187860681Y-36499682I-360681J0D01*
G01*
X191860681Y-36499682D02*
G75*
G03*
X191860681Y-36499682I-360681J0D01*
G01*
X190900051Y-38499936D02*
G75*
G03*
X190900051Y-38499936I-1400051J0D01*
G01*
D13*
X194129997Y-41499809D02*
G75*
G03*
X194129997Y-41499809I-29997J0D01*
G01*
%TO.C,G\u002A\u002A\u002A*%
G36*
X152741031Y-84797221D02*
G01*
X152864347Y-84835427D01*
X152902068Y-84854890D01*
X153007603Y-84940202D01*
X153078354Y-85050152D01*
X153102925Y-85127533D01*
X153118040Y-85199004D01*
X152975500Y-85199004D01*
X152898334Y-85197949D01*
X152853483Y-85191653D01*
X152829283Y-85175423D01*
X152814071Y-85144563D01*
X152809699Y-85132276D01*
X152766580Y-85069278D01*
X152696480Y-85027658D01*
X152611965Y-85009545D01*
X152525597Y-85017065D01*
X152449943Y-85052344D01*
X152431587Y-85068283D01*
X152391969Y-85130461D01*
X152394715Y-85192728D01*
X152438283Y-85252629D01*
X152521128Y-85307711D01*
X152604517Y-85343111D01*
X152782573Y-85414244D01*
X152917200Y-85485058D01*
X153008181Y-85555426D01*
X153038233Y-85591897D01*
X153091847Y-85707588D01*
X153105828Y-85825679D01*
X153081967Y-85938282D01*
X153022055Y-86037510D01*
X152927883Y-86115475D01*
X152918093Y-86121013D01*
X152819502Y-86157781D01*
X152696247Y-86179068D01*
X152565256Y-86183691D01*
X152443459Y-86170470D01*
X152393709Y-86157595D01*
X152277746Y-86102836D01*
X152179424Y-86023969D01*
X152106156Y-85929451D01*
X152065357Y-85827742D01*
X152059444Y-85776277D01*
X152062529Y-85749429D01*
X152079066Y-85734577D01*
X152118985Y-85728207D01*
X152192215Y-85726800D01*
X152199156Y-85726797D01*
X152275264Y-85727756D01*
X152318406Y-85733763D01*
X152339597Y-85749510D01*
X152349852Y-85779689D01*
X152352408Y-85792083D01*
X152389083Y-85875981D01*
X152459712Y-85932122D01*
X152548303Y-85958036D01*
X152648753Y-85959971D01*
X152731089Y-85937033D01*
X152789725Y-85894538D01*
X152819079Y-85837800D01*
X152813566Y-85772135D01*
X152789556Y-85728410D01*
X152746197Y-85689722D01*
X152677401Y-85648396D01*
X152617729Y-85621356D01*
X152465923Y-85559541D01*
X152350178Y-85504883D01*
X152264064Y-85453194D01*
X152201147Y-85400282D01*
X152154997Y-85341960D01*
X152134807Y-85306789D01*
X152105847Y-85205686D01*
X152113819Y-85096798D01*
X152155898Y-84991145D01*
X152229256Y-84899744D01*
X152242117Y-84888499D01*
X152342104Y-84830368D01*
X152467115Y-84795343D01*
X152604356Y-84784077D01*
X152741031Y-84797221D01*
G37*
G36*
X152279671Y-87697894D02*
G01*
X152302068Y-87650653D01*
X152384348Y-87533411D01*
X152490963Y-87452092D01*
X152619430Y-87408397D01*
X152663521Y-87402739D01*
X152809963Y-87408931D01*
X152934051Y-87451851D01*
X153033336Y-87529003D01*
X153105368Y-87637894D01*
X153147697Y-87776031D01*
X153158528Y-87906704D01*
X153158528Y-88035888D01*
X152839654Y-88035888D01*
X152711201Y-88037327D01*
X152612191Y-88041433D01*
X152547273Y-88047892D01*
X152521096Y-88056387D01*
X152520779Y-88057532D01*
X152534317Y-88086291D01*
X152568098Y-88131611D01*
X152581256Y-88146855D01*
X152663274Y-88208389D01*
X152760721Y-88230905D01*
X152867192Y-88213564D01*
X152919161Y-88191078D01*
X153011725Y-88142831D01*
X153077904Y-88209010D01*
X153118100Y-88253044D01*
X153129416Y-88281791D01*
X153116340Y-88308617D01*
X153112821Y-88312977D01*
X153075565Y-88343512D01*
X153014246Y-88380512D01*
X152971602Y-88402030D01*
X152824692Y-88447886D01*
X152676419Y-88450008D01*
X152529573Y-88408447D01*
X152497341Y-88393247D01*
X152405785Y-88336136D01*
X152338654Y-88264795D01*
X152311969Y-88224539D01*
X152278014Y-88164088D01*
X152258128Y-88110430D01*
X152248654Y-88047726D01*
X152245941Y-87960135D01*
X152245888Y-87938064D01*
X152248541Y-87836737D01*
X152251869Y-87812360D01*
X152527299Y-87812360D01*
X152534231Y-87826973D01*
X152561353Y-87834597D01*
X152616640Y-87837504D01*
X152706224Y-87837966D01*
X152799575Y-87836662D01*
X152856849Y-87831805D01*
X152885900Y-87821972D01*
X152894581Y-87805745D01*
X152894632Y-87803886D01*
X152879338Y-87740958D01*
X152841533Y-87678906D01*
X152793328Y-87635389D01*
X152773280Y-87626982D01*
X152682710Y-87622855D01*
X152608783Y-87658832D01*
X152553584Y-87733516D01*
X152532583Y-87788485D01*
X152527299Y-87812360D01*
X152251869Y-87812360D01*
X152258702Y-87762308D01*
X152279671Y-87697894D01*
G37*
G36*
X156867609Y-90187056D02*
G01*
X156968263Y-90126147D01*
X157101096Y-90090548D01*
X157232424Y-90081205D01*
X157303623Y-90079879D01*
X157341399Y-90072958D01*
X157356299Y-90055763D01*
X157358875Y-90025104D01*
X157343248Y-89971763D01*
X157305025Y-89916629D01*
X157257196Y-89874855D01*
X157218362Y-89861169D01*
X157159689Y-89871240D01*
X157106812Y-89895841D01*
X157075747Y-89926552D01*
X157072987Y-89937594D01*
X157063992Y-89956201D01*
X157031434Y-89966621D01*
X156966957Y-89970781D01*
X156927659Y-89971126D01*
X156782332Y-89971126D01*
X156796484Y-89910649D01*
X156830288Y-89842843D01*
X156893163Y-89774598D01*
X156971964Y-89717820D01*
X157043421Y-89686968D01*
X157179654Y-89665031D01*
X157314782Y-89671535D01*
X157432312Y-89705589D01*
X157438075Y-89708310D01*
X157495632Y-89738783D01*
X157538945Y-89771287D01*
X157570332Y-89812494D01*
X157592112Y-89869080D01*
X157606600Y-89947719D01*
X157616114Y-90055085D01*
X157622973Y-90197854D01*
X157624766Y-90246017D01*
X157630177Y-90372214D01*
X157636633Y-90484895D01*
X157643539Y-90575908D01*
X157650302Y-90637105D01*
X157654844Y-90658355D01*
X157659288Y-90678945D01*
X157644692Y-90690561D01*
X157602718Y-90695694D01*
X157526162Y-90696840D01*
X157445235Y-90694699D01*
X157399954Y-90687037D01*
X157382137Y-90671997D01*
X157380866Y-90663853D01*
X157379952Y-90640976D01*
X157370454Y-90634156D01*
X157342233Y-90644519D01*
X157285153Y-90673192D01*
X157281905Y-90674849D01*
X157164938Y-90712284D01*
X157043317Y-90712408D01*
X156941477Y-90680312D01*
X156847183Y-90611192D01*
X156789064Y-90519026D01*
X156769806Y-90408563D01*
X156771313Y-90379330D01*
X156776844Y-90359484D01*
X157053183Y-90359484D01*
X157055479Y-90422193D01*
X157075097Y-90470058D01*
X157077385Y-90472528D01*
X157126168Y-90495003D01*
X157194891Y-90498394D01*
X157264577Y-90484105D01*
X157314892Y-90454935D01*
X157351646Y-90387080D01*
X157358875Y-90322987D01*
X157356098Y-90266489D01*
X157342016Y-90241371D01*
X157307999Y-90235112D01*
X157298253Y-90235022D01*
X157224082Y-90242418D01*
X157149986Y-90261273D01*
X157092070Y-90286587D01*
X157069372Y-90306092D01*
X157053183Y-90359484D01*
X156776844Y-90359484D01*
X156801253Y-90271907D01*
X156867609Y-90187056D01*
G37*
G36*
X153532381Y-85517879D02*
G01*
X153532768Y-85653296D01*
X153534436Y-85751774D01*
X153538145Y-85820350D01*
X153544658Y-85866066D01*
X153554734Y-85895959D01*
X153569136Y-85917071D01*
X153576364Y-85924719D01*
X153638534Y-85958900D01*
X153715178Y-85964019D01*
X153789544Y-85941993D01*
X153844883Y-85894736D01*
X153845421Y-85893937D01*
X153850895Y-85864688D01*
X153855618Y-85799434D01*
X153859245Y-85706154D01*
X153861430Y-85592825D01*
X153861914Y-85512381D01*
X153862251Y-85155022D01*
X154148139Y-85155022D01*
X154148139Y-86166624D01*
X154016191Y-86166624D01*
X153939574Y-86164090D01*
X153898439Y-86155110D01*
X153884503Y-86137611D01*
X153884243Y-86133636D01*
X153881452Y-86109327D01*
X153866794Y-86103815D01*
X153830837Y-86118093D01*
X153780030Y-86144632D01*
X153672995Y-86180377D01*
X153554853Y-86185422D01*
X153444597Y-86159475D01*
X153424289Y-86150096D01*
X153373884Y-86120029D01*
X153335528Y-86084098D01*
X153307622Y-86036218D01*
X153288570Y-85970304D01*
X153276773Y-85880272D01*
X153270635Y-85760037D01*
X153268557Y-85603516D01*
X153268485Y-85556707D01*
X153268485Y-85155022D01*
X153532381Y-85155022D01*
X153532381Y-85517879D01*
G37*
G36*
X155863463Y-89685238D02*
G01*
X155936856Y-89686663D01*
X155976502Y-89693404D01*
X155992607Y-89709158D01*
X155995411Y-89733054D01*
X155995411Y-89780870D01*
X156049020Y-89730507D01*
X156120447Y-89689139D01*
X156215460Y-89668341D01*
X156317621Y-89670446D01*
X156376553Y-89684015D01*
X156462179Y-89731852D01*
X156539411Y-89809550D01*
X156595706Y-89903184D01*
X156609847Y-89943035D01*
X156624050Y-90024057D01*
X156631247Y-90128762D01*
X156631491Y-90241102D01*
X156624840Y-90345028D01*
X156611349Y-90424492D01*
X156608132Y-90435160D01*
X156549106Y-90554440D01*
X156465743Y-90643594D01*
X156364679Y-90699624D01*
X156252551Y-90719534D01*
X156135995Y-90700325D01*
X156077553Y-90674806D01*
X155995411Y-90630780D01*
X155995411Y-91092684D01*
X155731515Y-91092684D01*
X155731515Y-90191039D01*
X155995411Y-90191039D01*
X155996038Y-90290935D01*
X155999374Y-90356750D01*
X156007608Y-90398384D01*
X156022926Y-90425734D01*
X156047515Y-90448701D01*
X156053355Y-90453339D01*
X156133011Y-90492695D01*
X156214078Y-90491993D01*
X156286544Y-90451512D01*
X156291533Y-90446701D01*
X156335579Y-90375664D01*
X156360608Y-90279050D01*
X156366621Y-90170943D01*
X156353616Y-90065424D01*
X156321595Y-89976577D01*
X156291533Y-89935378D01*
X156220155Y-89891812D01*
X156139399Y-89888004D01*
X156059274Y-89924232D01*
X156053355Y-89928739D01*
X156026778Y-89951987D01*
X156009883Y-89977757D01*
X156000483Y-90015947D01*
X155996392Y-90076457D01*
X155995423Y-90169184D01*
X155995411Y-90191039D01*
X155731515Y-90191039D01*
X155731515Y-89685238D01*
X155863463Y-89685238D01*
G37*
G36*
X148820290Y-87641249D02*
G01*
X148862483Y-87566788D01*
X148917940Y-87470066D01*
X148982168Y-87358923D01*
X149040649Y-87258375D01*
X149105154Y-87147381D01*
X149161230Y-87050072D01*
X149205395Y-86972560D01*
X149234165Y-86920957D01*
X149244069Y-86901443D01*
X149254995Y-86880140D01*
X149283552Y-86832523D01*
X149321039Y-86772869D01*
X149360478Y-86709831D01*
X149388237Y-86662820D01*
X149398009Y-86642811D01*
X149408602Y-86621681D01*
X149438076Y-86568725D01*
X149482974Y-86490004D01*
X149539838Y-86391578D01*
X149605210Y-86279510D01*
X149606927Y-86276580D01*
X149672446Y-86164360D01*
X149729551Y-86065753D01*
X149774787Y-85986791D01*
X149804700Y-85933502D01*
X149815836Y-85911919D01*
X149815844Y-85911833D01*
X149826769Y-85890530D01*
X149855327Y-85842912D01*
X149892814Y-85783258D01*
X149932248Y-85720262D01*
X149960006Y-85673339D01*
X149969784Y-85653433D01*
X149980430Y-85632661D01*
X150010407Y-85579094D01*
X150056771Y-85497862D01*
X150116581Y-85394095D01*
X150186892Y-85272923D01*
X150255671Y-85155022D01*
X150332789Y-85022923D01*
X150402026Y-84903910D01*
X150460446Y-84803064D01*
X150505110Y-84725469D01*
X150533082Y-84676206D01*
X150541559Y-84660309D01*
X150552169Y-84640519D01*
X150581926Y-84588177D01*
X150627723Y-84508670D01*
X150686450Y-84407381D01*
X150754999Y-84289697D01*
X150797165Y-84217534D01*
X150872535Y-84088473D01*
X150942302Y-83968611D01*
X151002753Y-83864359D01*
X151050171Y-83782131D01*
X151080844Y-83728339D01*
X151088550Y-83714463D01*
X151109816Y-83676562D01*
X151149509Y-83607117D01*
X151203910Y-83512583D01*
X151269298Y-83399418D01*
X151341956Y-83274076D01*
X151376765Y-83214160D01*
X151629201Y-82779957D01*
X154483042Y-82779957D01*
X154895340Y-82779964D01*
X155265884Y-82780010D01*
X155596903Y-82780127D01*
X155890627Y-82780351D01*
X156149284Y-82780717D01*
X156375104Y-82781257D01*
X156570315Y-82782007D01*
X156737146Y-82783001D01*
X156877827Y-82784273D01*
X156994587Y-82785858D01*
X157089654Y-82787790D01*
X157165258Y-82790104D01*
X157223627Y-82792833D01*
X157266991Y-82796012D01*
X157297578Y-82799676D01*
X157317619Y-82803859D01*
X157329340Y-82808595D01*
X157334973Y-82813918D01*
X157336745Y-82819863D01*
X157336883Y-82823940D01*
X157341920Y-82859996D01*
X157364075Y-82864048D01*
X157400856Y-82847002D01*
X157428568Y-82840716D01*
X157454609Y-82860328D01*
X157487916Y-82912928D01*
X157490997Y-82918474D01*
X157514711Y-82960466D01*
X157557310Y-83034944D01*
X157615596Y-83136357D01*
X157686373Y-83259152D01*
X157766443Y-83397778D01*
X157852608Y-83546684D01*
X157886181Y-83604632D01*
X158238463Y-84213025D01*
X158594606Y-84829168D01*
X158944224Y-85435088D01*
X159124968Y-85748788D01*
X159204870Y-85887219D01*
X159280257Y-86017227D01*
X159347517Y-86132629D01*
X159403037Y-86227241D01*
X159443203Y-86294879D01*
X159461966Y-86325589D01*
X159493507Y-86377150D01*
X159512003Y-86411026D01*
X159514026Y-86416735D01*
X159524616Y-86437676D01*
X159554083Y-86490459D01*
X159598970Y-86569036D01*
X159655821Y-86667356D01*
X159721180Y-86779372D01*
X159722944Y-86782381D01*
X159788435Y-86894452D01*
X159845520Y-86992744D01*
X159890751Y-87071270D01*
X159920678Y-87124040D01*
X159931852Y-87145065D01*
X159931862Y-87145140D01*
X159942388Y-87165241D01*
X159971461Y-87216695D01*
X160015322Y-87292951D01*
X160070210Y-87387456D01*
X160107792Y-87451764D01*
X160167633Y-87554459D01*
X160218742Y-87643184D01*
X160257351Y-87711314D01*
X160279692Y-87752228D01*
X160283723Y-87760996D01*
X160273182Y-87782010D01*
X160244070Y-87834289D01*
X160200155Y-87911211D01*
X160145204Y-88006152D01*
X160107792Y-88070228D01*
X160047992Y-88172697D01*
X159996908Y-88260946D01*
X159958301Y-88328420D01*
X159935930Y-88368568D01*
X159931862Y-88376851D01*
X159921285Y-88396862D01*
X159891855Y-88448792D01*
X159847021Y-88526653D01*
X159790232Y-88624455D01*
X159724937Y-88736209D01*
X159722944Y-88739611D01*
X159657424Y-88851831D01*
X159600320Y-88950438D01*
X159555084Y-89029400D01*
X159525170Y-89082688D01*
X159514034Y-89104272D01*
X159514026Y-89104358D01*
X159503101Y-89125661D01*
X159474544Y-89173278D01*
X159437056Y-89232932D01*
X159397617Y-89295970D01*
X159369859Y-89342982D01*
X159360087Y-89362990D01*
X159349494Y-89384120D01*
X159320019Y-89437076D01*
X159275122Y-89515797D01*
X159218258Y-89614223D01*
X159152886Y-89726291D01*
X159151169Y-89729221D01*
X159085677Y-89841299D01*
X159028590Y-89939607D01*
X158983359Y-90018154D01*
X158953433Y-90070950D01*
X158942261Y-90092002D01*
X158942251Y-90092078D01*
X158931674Y-90112120D01*
X158902243Y-90164080D01*
X158857407Y-90241965D01*
X158800616Y-90339784D01*
X158735319Y-90451547D01*
X158733333Y-90454935D01*
X158667801Y-90567223D01*
X158610688Y-90665972D01*
X158565449Y-90745132D01*
X158535542Y-90798655D01*
X158524423Y-90820492D01*
X158524416Y-90820581D01*
X158513718Y-90843010D01*
X158486761Y-90888805D01*
X158472462Y-90911727D01*
X158445213Y-90956557D01*
X158400625Y-91032001D01*
X158343135Y-91130458D01*
X158277183Y-91244328D01*
X158207204Y-91366011D01*
X158206307Y-91367576D01*
X158134479Y-91492768D01*
X158064986Y-91613578D01*
X158002760Y-91721457D01*
X157952732Y-91807854D01*
X157920915Y-91862381D01*
X157887584Y-91919396D01*
X157837062Y-92006306D01*
X157774114Y-92114893D01*
X157703501Y-92236939D01*
X157629989Y-92364226D01*
X157624535Y-92373680D01*
X157399345Y-92764026D01*
X151641677Y-92764026D01*
X151589621Y-92681559D01*
X151557709Y-92629180D01*
X151510768Y-92549865D01*
X151455451Y-92454940D01*
X151405525Y-92368182D01*
X151314780Y-92209721D01*
X151206889Y-92021701D01*
X151086748Y-91812623D01*
X150959250Y-91590991D01*
X150829293Y-91365305D01*
X150701771Y-91144068D01*
X150581579Y-90935781D01*
X150473612Y-90748948D01*
X150398884Y-90619870D01*
X150341579Y-90520739D01*
X150286513Y-90425037D01*
X150240902Y-90345324D01*
X150217142Y-90303417D01*
X150186672Y-90250031D01*
X150139449Y-90168256D01*
X150081002Y-90067623D01*
X150016858Y-89957665D01*
X149989351Y-89910655D01*
X149929981Y-89808884D01*
X149879357Y-89721324D01*
X149841267Y-89654587D01*
X149819499Y-89615289D01*
X149815844Y-89607670D01*
X149805431Y-89587025D01*
X149777608Y-89537637D01*
X149737503Y-89468532D01*
X149718280Y-89435884D01*
X149670300Y-89354251D01*
X149608248Y-89247984D01*
X149537393Y-89126174D01*
X149463001Y-88997916D01*
X149390341Y-88872300D01*
X149324679Y-88758419D01*
X149271283Y-88665367D01*
X149238473Y-88607662D01*
X149211584Y-88560565D01*
X149167981Y-88484899D01*
X149113111Y-88390086D01*
X149052420Y-88285551D01*
X149035112Y-88255801D01*
X148971748Y-88146597D01*
X148910778Y-88040921D01*
X148858344Y-87949460D01*
X148820592Y-87882901D01*
X148814796Y-87872535D01*
X148754475Y-87764161D01*
X148756142Y-87760996D01*
X148980173Y-87760996D01*
X148990577Y-87785149D01*
X149018939Y-87839345D01*
X149060991Y-87915679D01*
X149112460Y-88006243D01*
X149115128Y-88010869D01*
X149172065Y-88109703D01*
X149225152Y-88202094D01*
X149268171Y-88277209D01*
X149293531Y-88321775D01*
X149342072Y-88407154D01*
X149402531Y-88512562D01*
X149470710Y-88630782D01*
X149542414Y-88754597D01*
X149613447Y-88876789D01*
X149679612Y-88990140D01*
X149736714Y-89087433D01*
X149780555Y-89161452D01*
X149806941Y-89204977D01*
X149807874Y-89206455D01*
X149839358Y-89258029D01*
X149857814Y-89291905D01*
X149859827Y-89297601D01*
X149870417Y-89318542D01*
X149899884Y-89371325D01*
X149944771Y-89449902D01*
X150001622Y-89548222D01*
X150066981Y-89660238D01*
X150068745Y-89663247D01*
X150134234Y-89775307D01*
X150191318Y-89873579D01*
X150236548Y-89952075D01*
X150266476Y-90004810D01*
X150277653Y-90025797D01*
X150277662Y-90025872D01*
X150288297Y-90045712D01*
X150318241Y-90098405D01*
X150364558Y-90178866D01*
X150424309Y-90282007D01*
X150494558Y-90402741D01*
X150563550Y-90520909D01*
X150640671Y-90653021D01*
X150709910Y-90772062D01*
X150768330Y-90872946D01*
X150812994Y-90950588D01*
X150840964Y-90999903D01*
X150849437Y-91015848D01*
X150859971Y-91035858D01*
X150889082Y-91087277D01*
X150933039Y-91163610D01*
X150988110Y-91258362D01*
X151028053Y-91326676D01*
X151116432Y-91477752D01*
X151209567Y-91637514D01*
X151311435Y-91812807D01*
X151426015Y-92010481D01*
X151557284Y-92237381D01*
X151601108Y-92313204D01*
X151644051Y-92389086D01*
X151683847Y-92461964D01*
X151700943Y-92494632D01*
X151737237Y-92566104D01*
X154512376Y-92566104D01*
X154935150Y-92566022D01*
X155315861Y-92565763D01*
X155656429Y-92565309D01*
X155958772Y-92564641D01*
X156224811Y-92563739D01*
X156456465Y-92562585D01*
X156655653Y-92561161D01*
X156824294Y-92559446D01*
X156964309Y-92557423D01*
X157077617Y-92555072D01*
X157166136Y-92552375D01*
X157231787Y-92549313D01*
X157276489Y-92545867D01*
X157302161Y-92542018D01*
X157310305Y-92538615D01*
X157331933Y-92506796D01*
X157367682Y-92448575D01*
X157410212Y-92375940D01*
X157414648Y-92368182D01*
X157454068Y-92299102D01*
X157488676Y-92238509D01*
X157521805Y-92180599D01*
X157556787Y-92119567D01*
X157596956Y-92049608D01*
X157645645Y-91964918D01*
X157706186Y-91859691D01*
X157781912Y-91728125D01*
X157876157Y-91564413D01*
X157879160Y-91559196D01*
X157961309Y-91416401D01*
X158038961Y-91281234D01*
X158108589Y-91159850D01*
X158166666Y-91058402D01*
X158209665Y-90983046D01*
X158233370Y-90941166D01*
X158263733Y-90887784D01*
X158310864Y-90806015D01*
X158369243Y-90705389D01*
X158433348Y-90595437D01*
X158460866Y-90548404D01*
X158520227Y-90446686D01*
X158570845Y-90359235D01*
X158608934Y-90292651D01*
X158630710Y-90253530D01*
X158634372Y-90246017D01*
X158644895Y-90225944D01*
X158673937Y-90174562D01*
X158717714Y-90098469D01*
X158772441Y-90004263D01*
X158807879Y-89943631D01*
X158872768Y-89832596D01*
X158934298Y-89726855D01*
X158986941Y-89635939D01*
X159025170Y-89569379D01*
X159035660Y-89550869D01*
X159066274Y-89496964D01*
X159113331Y-89414768D01*
X159171225Y-89314048D01*
X159234348Y-89204569D01*
X159257498Y-89164501D01*
X159319724Y-89056824D01*
X159377440Y-88956862D01*
X159425502Y-88873531D01*
X159458766Y-88815745D01*
X159466854Y-88801644D01*
X159499275Y-88745257D01*
X159544087Y-88667647D01*
X159591557Y-88585671D01*
X159649178Y-88485913D01*
X159719510Y-88363525D01*
X159795819Y-88230284D01*
X159871374Y-88097964D01*
X159939442Y-87978341D01*
X159993290Y-87883192D01*
X159999965Y-87871329D01*
X160061566Y-87761749D01*
X160000516Y-87651416D01*
X159969746Y-87596622D01*
X159921787Y-87512210D01*
X159861467Y-87406634D01*
X159793617Y-87288350D01*
X159730225Y-87178225D01*
X159575223Y-86909471D01*
X159440219Y-86675485D01*
X159323278Y-86472916D01*
X159222463Y-86298411D01*
X159135837Y-86148615D01*
X159063495Y-86023680D01*
X159008049Y-85927859D01*
X158956613Y-85838717D01*
X158915634Y-85767444D01*
X158894673Y-85730737D01*
X158869011Y-85685836D01*
X158826449Y-85611782D01*
X158772120Y-85517489D01*
X158711155Y-85411870D01*
X158685733Y-85367880D01*
X158608754Y-85234659D01*
X158522082Y-85084556D01*
X158436191Y-84935721D01*
X158361561Y-84806302D01*
X158359750Y-84803160D01*
X158288202Y-84679112D01*
X158210472Y-84544500D01*
X158135930Y-84415544D01*
X158073948Y-84308465D01*
X158073884Y-84308355D01*
X158018151Y-84211994D01*
X157966161Y-84121774D01*
X157924479Y-84049110D01*
X157903072Y-84011472D01*
X157876179Y-83964375D01*
X157832573Y-83888708D01*
X157777700Y-83793895D01*
X157717008Y-83689360D01*
X157699701Y-83659611D01*
X157636452Y-83550611D01*
X157575708Y-83445338D01*
X157523570Y-83354407D01*
X157486142Y-83288433D01*
X157480345Y-83278065D01*
X157432099Y-83192548D01*
X157379917Y-83101734D01*
X157360902Y-83069147D01*
X157300818Y-82966883D01*
X154527283Y-82961301D01*
X151753747Y-82955719D01*
X151629075Y-83170219D01*
X151567724Y-83275721D01*
X151504135Y-83384987D01*
X151447657Y-83481954D01*
X151421007Y-83527662D01*
X151386401Y-83587160D01*
X151333998Y-83677488D01*
X151268002Y-83791392D01*
X151192613Y-83921616D01*
X151112035Y-84060906D01*
X151057973Y-84154416D01*
X150975833Y-84296528D01*
X150895720Y-84435132D01*
X150821936Y-84562787D01*
X150758781Y-84672051D01*
X150710556Y-84755484D01*
X150689354Y-84792165D01*
X150637448Y-84881521D01*
X150585059Y-84970994D01*
X150543078Y-85041983D01*
X150541237Y-85045065D01*
X150510850Y-85096585D01*
X150463131Y-85178279D01*
X150402682Y-85282200D01*
X150334103Y-85400398D01*
X150261996Y-85524924D01*
X150190962Y-85647829D01*
X150125602Y-85761164D01*
X150070518Y-85856980D01*
X150030309Y-85927329D01*
X150019335Y-85946710D01*
X149977430Y-86020362D01*
X149916678Y-86126102D01*
X149840471Y-86258070D01*
X149752199Y-86410407D01*
X149655253Y-86577254D01*
X149553026Y-86752750D01*
X149529325Y-86793377D01*
X149462725Y-86907654D01*
X149400775Y-87014230D01*
X149348199Y-87104961D01*
X149309719Y-87171700D01*
X149293452Y-87200217D01*
X149265233Y-87249842D01*
X149221217Y-87326716D01*
X149167618Y-87420008D01*
X149115128Y-87511123D01*
X149063309Y-87602176D01*
X149020701Y-87679384D01*
X148991574Y-87734840D01*
X148980199Y-87760635D01*
X148980173Y-87760996D01*
X148756142Y-87760996D01*
X148795852Y-87685609D01*
X148820290Y-87641249D01*
G37*
G36*
X154609957Y-90191039D02*
G01*
X154627481Y-90031018D01*
X154677990Y-89896223D01*
X154758388Y-89789691D01*
X154865581Y-89714462D01*
X154996474Y-89673573D01*
X155141290Y-89669424D01*
X155282961Y-89701114D01*
X155397768Y-89766841D01*
X155484110Y-89864637D01*
X155540383Y-89992535D01*
X155564987Y-90148566D01*
X155566001Y-90191039D01*
X155550382Y-90351957D01*
X155502634Y-90484405D01*
X155421419Y-90591317D01*
X155361011Y-90640995D01*
X155254663Y-90692039D01*
X155128808Y-90716139D01*
X154999650Y-90712027D01*
X154883393Y-90678434D01*
X154883293Y-90678388D01*
X154769167Y-90601837D01*
X154684062Y-90494437D01*
X154630262Y-90360262D01*
X154610627Y-90207831D01*
X154890420Y-90207831D01*
X154897157Y-90299084D01*
X154927146Y-90391568D01*
X154982586Y-90458144D01*
X155055289Y-90493804D01*
X155137064Y-90493539D01*
X155185039Y-90475156D01*
X155236901Y-90425141D01*
X155271401Y-90347204D01*
X155288816Y-90252158D01*
X155289426Y-90150813D01*
X155273509Y-90053982D01*
X155241342Y-89972477D01*
X155193203Y-89917108D01*
X155170368Y-89905012D01*
X155089040Y-89884974D01*
X155023465Y-89898065D01*
X154973322Y-89932641D01*
X154928131Y-89997491D01*
X154899736Y-90092881D01*
X154890420Y-90207831D01*
X154610627Y-90207831D01*
X154610055Y-90203388D01*
X154609957Y-90191039D01*
G37*
G36*
X152059300Y-89327438D02*
G01*
X152182615Y-89365643D01*
X152220337Y-89385107D01*
X152325871Y-89470418D01*
X152396622Y-89580369D01*
X152421193Y-89657749D01*
X152436309Y-89729221D01*
X152293769Y-89729221D01*
X152216603Y-89728165D01*
X152171752Y-89721870D01*
X152147552Y-89705639D01*
X152132339Y-89674779D01*
X152127968Y-89662493D01*
X152084848Y-89599494D01*
X152014749Y-89557875D01*
X151930233Y-89539762D01*
X151843866Y-89547281D01*
X151768211Y-89582560D01*
X151749856Y-89598499D01*
X151710237Y-89660677D01*
X151712984Y-89722944D01*
X151756552Y-89782845D01*
X151839396Y-89837927D01*
X151922785Y-89873327D01*
X152100841Y-89944461D01*
X152235468Y-90015274D01*
X152326449Y-90085643D01*
X152356501Y-90122113D01*
X152410115Y-90237805D01*
X152424096Y-90355896D01*
X152400235Y-90468499D01*
X152340323Y-90567726D01*
X152246152Y-90645691D01*
X152236361Y-90651229D01*
X152137770Y-90687998D01*
X152014515Y-90709284D01*
X151883524Y-90713907D01*
X151761727Y-90700687D01*
X151711977Y-90687811D01*
X151596015Y-90633053D01*
X151497692Y-90554185D01*
X151424424Y-90459667D01*
X151383625Y-90357958D01*
X151377713Y-90306494D01*
X151380797Y-90279645D01*
X151397335Y-90264794D01*
X151437254Y-90258423D01*
X151510484Y-90257017D01*
X151517424Y-90257013D01*
X151593532Y-90257973D01*
X151636674Y-90263980D01*
X151657865Y-90279726D01*
X151668121Y-90309906D01*
X151670677Y-90322300D01*
X151707351Y-90406197D01*
X151777980Y-90462339D01*
X151866572Y-90488252D01*
X151967022Y-90490187D01*
X152049357Y-90467250D01*
X152107994Y-90424754D01*
X152137347Y-90368017D01*
X152131834Y-90302352D01*
X152107824Y-90258627D01*
X152064465Y-90219939D01*
X151995669Y-90178612D01*
X151935997Y-90151573D01*
X151784191Y-90089757D01*
X151668447Y-90035100D01*
X151582332Y-89983410D01*
X151519416Y-89930499D01*
X151473265Y-89872176D01*
X151453076Y-89837005D01*
X151424115Y-89735903D01*
X151432087Y-89627015D01*
X151474166Y-89521361D01*
X151547524Y-89429961D01*
X151560385Y-89418716D01*
X151660372Y-89360584D01*
X151785384Y-89325560D01*
X151922624Y-89314294D01*
X152059300Y-89327438D01*
G37*
G36*
X151349740Y-87072226D02*
G01*
X151499183Y-87078667D01*
X151613981Y-87090764D01*
X151703388Y-87111449D01*
X151776655Y-87143657D01*
X151843037Y-87190322D01*
X151906040Y-87248601D01*
X151976932Y-87331439D01*
X152025333Y-87420276D01*
X152054593Y-87525359D01*
X152068061Y-87656932D01*
X152069957Y-87750000D01*
X152064154Y-87901760D01*
X152044514Y-88021051D01*
X152007687Y-88118120D01*
X151950323Y-88203213D01*
X151906040Y-88251399D01*
X151837815Y-88313970D01*
X151771225Y-88359382D01*
X151697017Y-88390571D01*
X151605937Y-88410469D01*
X151488733Y-88422011D01*
X151349740Y-88427774D01*
X151047359Y-88435949D01*
X151047359Y-88217972D01*
X151333247Y-88217972D01*
X151458403Y-88205054D01*
X151543060Y-88189609D01*
X151614549Y-88164797D01*
X151639832Y-88150198D01*
X151712287Y-88077120D01*
X151759898Y-87981038D01*
X151785891Y-87854514D01*
X151790416Y-87802618D01*
X151788535Y-87637298D01*
X151758802Y-87505554D01*
X151700219Y-87406131D01*
X151611791Y-87337775D01*
X151492521Y-87299230D01*
X151382727Y-87289140D01*
X151333247Y-87288182D01*
X151333247Y-88217972D01*
X151047359Y-88217972D01*
X151047359Y-87064051D01*
X151349740Y-87072226D01*
G37*
G36*
X156259307Y-87420130D02*
G01*
X156332700Y-87421555D01*
X156372346Y-87428295D01*
X156388451Y-87444050D01*
X156391256Y-87467946D01*
X156391256Y-87515762D01*
X156444865Y-87465399D01*
X156516291Y-87424031D01*
X156611304Y-87403233D01*
X156713465Y-87405338D01*
X156772397Y-87418907D01*
X156858023Y-87466744D01*
X156935255Y-87544442D01*
X156991550Y-87638076D01*
X157005691Y-87677927D01*
X157019894Y-87758949D01*
X157027091Y-87863654D01*
X157027335Y-87975993D01*
X157020684Y-88079919D01*
X157007194Y-88159384D01*
X157003976Y-88170052D01*
X156944950Y-88289332D01*
X156861587Y-88378486D01*
X156760523Y-88434516D01*
X156648395Y-88454426D01*
X156531839Y-88435217D01*
X156473397Y-88409698D01*
X156391256Y-88365672D01*
X156391256Y-88827576D01*
X156127359Y-88827576D01*
X156127359Y-87925931D01*
X156391256Y-87925931D01*
X156391882Y-88025827D01*
X156395219Y-88091642D01*
X156403452Y-88133276D01*
X156418770Y-88160626D01*
X156443359Y-88183593D01*
X156449200Y-88188231D01*
X156528855Y-88227587D01*
X156609922Y-88226884D01*
X156682388Y-88186404D01*
X156687377Y-88181592D01*
X156731423Y-88110555D01*
X156756452Y-88013942D01*
X156762465Y-87905835D01*
X156749461Y-87800316D01*
X156717439Y-87711469D01*
X156687377Y-87670269D01*
X156616000Y-87626704D01*
X156535243Y-87622896D01*
X156455119Y-87659124D01*
X156449200Y-87663631D01*
X156422622Y-87686879D01*
X156405727Y-87712649D01*
X156396328Y-87750839D01*
X156392236Y-87811348D01*
X156391267Y-87904076D01*
X156391256Y-87925931D01*
X156127359Y-87925931D01*
X156127359Y-87420130D01*
X156259307Y-87420130D01*
G37*
G36*
X157263453Y-87921948D02*
G01*
X157364107Y-87861038D01*
X157496940Y-87825440D01*
X157628269Y-87816097D01*
X157699468Y-87814771D01*
X157737243Y-87807850D01*
X157752143Y-87790655D01*
X157754719Y-87759996D01*
X157739092Y-87706655D01*
X157700869Y-87651521D01*
X157653040Y-87609747D01*
X157614206Y-87596061D01*
X157555533Y-87606132D01*
X157502656Y-87630733D01*
X157471591Y-87661444D01*
X157468831Y-87672486D01*
X157459836Y-87691093D01*
X157427278Y-87701513D01*
X157362801Y-87705673D01*
X157323504Y-87706017D01*
X157178176Y-87706017D01*
X157192328Y-87645541D01*
X157226132Y-87577735D01*
X157289007Y-87509489D01*
X157367808Y-87452711D01*
X157439266Y-87421860D01*
X157575498Y-87399923D01*
X157710626Y-87406427D01*
X157828156Y-87440480D01*
X157833919Y-87443201D01*
X157891476Y-87473675D01*
X157934789Y-87506178D01*
X157966177Y-87547386D01*
X157987956Y-87603971D01*
X158002444Y-87682610D01*
X158011958Y-87789977D01*
X158018817Y-87932746D01*
X158020611Y-87980909D01*
X158026021Y-88107106D01*
X158032477Y-88219786D01*
X158039383Y-88310800D01*
X158046146Y-88371997D01*
X158050688Y-88393247D01*
X158055132Y-88413837D01*
X158040536Y-88425452D01*
X157998562Y-88430586D01*
X157922007Y-88431732D01*
X157841079Y-88429591D01*
X157795798Y-88421929D01*
X157777981Y-88406889D01*
X157776710Y-88398745D01*
X157775797Y-88375868D01*
X157766298Y-88369048D01*
X157738077Y-88379411D01*
X157680997Y-88408084D01*
X157677749Y-88409740D01*
X157560782Y-88447175D01*
X157439161Y-88447299D01*
X157337322Y-88415204D01*
X157243027Y-88346084D01*
X157184908Y-88253917D01*
X157165650Y-88143454D01*
X157167157Y-88114221D01*
X157172688Y-88094376D01*
X157449027Y-88094376D01*
X157451323Y-88157085D01*
X157470941Y-88204950D01*
X157473230Y-88207420D01*
X157522012Y-88229895D01*
X157590735Y-88233286D01*
X157660421Y-88218997D01*
X157710736Y-88189827D01*
X157747490Y-88121972D01*
X157754719Y-88057879D01*
X157751942Y-88001380D01*
X157737860Y-87976262D01*
X157703844Y-87970004D01*
X157694097Y-87969914D01*
X157619926Y-87977310D01*
X157545831Y-87996165D01*
X157487914Y-88021478D01*
X157465216Y-88040984D01*
X157449027Y-88094376D01*
X157172688Y-88094376D01*
X157197097Y-88006799D01*
X157263453Y-87921948D01*
G37*
G36*
X153110431Y-89674512D02*
G01*
X153229944Y-89713199D01*
X153324557Y-89781327D01*
X153389171Y-89875423D01*
X153416555Y-89972155D01*
X153428216Y-90059091D01*
X153308441Y-90059091D01*
X153238485Y-90057308D01*
X153198070Y-90047258D01*
X153172773Y-90021885D01*
X153152237Y-89982699D01*
X153101671Y-89919002D01*
X153034133Y-89887824D01*
X152961545Y-89889309D01*
X152895827Y-89923601D01*
X152854052Y-89979109D01*
X152835711Y-90043930D01*
X152826222Y-90133138D01*
X152825372Y-90231809D01*
X152832945Y-90325016D01*
X152848729Y-90397834D01*
X152860423Y-90423169D01*
X152918331Y-90476476D01*
X152991633Y-90496911D01*
X153067158Y-90485051D01*
X153131740Y-90441471D01*
X153154506Y-90410302D01*
X153180475Y-90372169D01*
X153211863Y-90352761D01*
X153263507Y-90345852D01*
X153309847Y-90345118D01*
X153428179Y-90344978D01*
X153415655Y-90422157D01*
X153378024Y-90526325D01*
X153306600Y-90611757D01*
X153208910Y-90674793D01*
X153092478Y-90711774D01*
X152964831Y-90719040D01*
X152848749Y-90697814D01*
X152738490Y-90644202D01*
X152648576Y-90554611D01*
X152613341Y-90501296D01*
X152584816Y-90448283D01*
X152567132Y-90398826D01*
X152557763Y-90339773D01*
X152554185Y-90257971D01*
X152553766Y-90191039D01*
X152555030Y-90088965D01*
X152560523Y-90017649D01*
X152572799Y-89963896D01*
X152594411Y-89914515D01*
X152614048Y-89879576D01*
X152690921Y-89778919D01*
X152786302Y-89712701D01*
X152907889Y-89676377D01*
X152971117Y-89668738D01*
X153110431Y-89674512D01*
G37*
G36*
X153532381Y-90191039D02*
G01*
X153549905Y-90031018D01*
X153600414Y-89896223D01*
X153680812Y-89789691D01*
X153788006Y-89714462D01*
X153918899Y-89673573D01*
X154063714Y-89669424D01*
X154205385Y-89701114D01*
X154320193Y-89766841D01*
X154406534Y-89864637D01*
X154462808Y-89992535D01*
X154487411Y-90148566D01*
X154488426Y-90191039D01*
X154472807Y-90351957D01*
X154425058Y-90484405D01*
X154343844Y-90591317D01*
X154283435Y-90640995D01*
X154177087Y-90692039D01*
X154051232Y-90716139D01*
X153922074Y-90712027D01*
X153805817Y-90678434D01*
X153805717Y-90678388D01*
X153691591Y-90601837D01*
X153606486Y-90494437D01*
X153552687Y-90360262D01*
X153533051Y-90207831D01*
X153812844Y-90207831D01*
X153819582Y-90299084D01*
X153849570Y-90391568D01*
X153905011Y-90458144D01*
X153977713Y-90493804D01*
X154059488Y-90493539D01*
X154107463Y-90475156D01*
X154159325Y-90425141D01*
X154193825Y-90347204D01*
X154211241Y-90252158D01*
X154211850Y-90150813D01*
X154195933Y-90053982D01*
X154163766Y-89972477D01*
X154115628Y-89917108D01*
X154092792Y-89905012D01*
X154011464Y-89884974D01*
X153945889Y-89898065D01*
X153895746Y-89932641D01*
X153850555Y-89997491D01*
X153822160Y-90092881D01*
X153812844Y-90207831D01*
X153533051Y-90207831D01*
X153532479Y-90203388D01*
X153532381Y-90191039D01*
G37*
G36*
X155424433Y-85432786D02*
G01*
X155446829Y-85385545D01*
X155529110Y-85268303D01*
X155635725Y-85186983D01*
X155764192Y-85143289D01*
X155808283Y-85137631D01*
X155954724Y-85143823D01*
X156078813Y-85186742D01*
X156178098Y-85263895D01*
X156250130Y-85372786D01*
X156292459Y-85510922D01*
X156303290Y-85641596D01*
X156303290Y-85770779D01*
X155984416Y-85770779D01*
X155855963Y-85772218D01*
X155756952Y-85776325D01*
X155692035Y-85782784D01*
X155665858Y-85791279D01*
X155665541Y-85792424D01*
X155679079Y-85821183D01*
X155712860Y-85866503D01*
X155726017Y-85881747D01*
X155808036Y-85943281D01*
X155905483Y-85965796D01*
X156011954Y-85948455D01*
X156063923Y-85925969D01*
X156156487Y-85877722D01*
X156222666Y-85943901D01*
X156262862Y-85987936D01*
X156274178Y-86016683D01*
X156261102Y-86043509D01*
X156257583Y-86047869D01*
X156220327Y-86078404D01*
X156159008Y-86115404D01*
X156116364Y-86136921D01*
X155969454Y-86182778D01*
X155821181Y-86184900D01*
X155674334Y-86143339D01*
X155642102Y-86128139D01*
X155550547Y-86071028D01*
X155483416Y-85999687D01*
X155456730Y-85959430D01*
X155422776Y-85898979D01*
X155402889Y-85845322D01*
X155393416Y-85782618D01*
X155390703Y-85695027D01*
X155390649Y-85672956D01*
X155393303Y-85571629D01*
X155396631Y-85547252D01*
X155672061Y-85547252D01*
X155678993Y-85561865D01*
X155706115Y-85569489D01*
X155761402Y-85572395D01*
X155850986Y-85572857D01*
X155944337Y-85571554D01*
X156001611Y-85566696D01*
X156030662Y-85556864D01*
X156039343Y-85540637D01*
X156039394Y-85538778D01*
X156024100Y-85475850D01*
X155986294Y-85413798D01*
X155938090Y-85370281D01*
X155918042Y-85361874D01*
X155827472Y-85357747D01*
X155753545Y-85393724D01*
X155698346Y-85468408D01*
X155677345Y-85523377D01*
X155672061Y-85547252D01*
X155396631Y-85547252D01*
X155403464Y-85497200D01*
X155424433Y-85432786D01*
G37*
G36*
X157029004Y-85391331D02*
G01*
X156914948Y-85402290D01*
X156847478Y-85411268D01*
X156797752Y-85427400D01*
X156763080Y-85456749D01*
X156740771Y-85505380D01*
X156728137Y-85579355D01*
X156722486Y-85684737D01*
X156721129Y-85827590D01*
X156721126Y-85839190D01*
X156721126Y-86166624D01*
X156457230Y-86166624D01*
X156457230Y-85155022D01*
X156589178Y-85155022D01*
X156662699Y-85156530D01*
X156702420Y-85163410D01*
X156718487Y-85179193D01*
X156721126Y-85200959D01*
X156723380Y-85228303D01*
X156736458Y-85230432D01*
X156769828Y-85205805D01*
X156788787Y-85189964D01*
X156870006Y-85143327D01*
X156942726Y-85133030D01*
X157029004Y-85133030D01*
X157029004Y-85391331D01*
G37*
G36*
X155313680Y-87782987D02*
G01*
X155314067Y-87918405D01*
X155315734Y-88016882D01*
X155319444Y-88085459D01*
X155325956Y-88131174D01*
X155336033Y-88161068D01*
X155350435Y-88182179D01*
X155357662Y-88189827D01*
X155419833Y-88224008D01*
X155496476Y-88229128D01*
X155570842Y-88207101D01*
X155626182Y-88159844D01*
X155626720Y-88159046D01*
X155632194Y-88129796D01*
X155636917Y-88064542D01*
X155640543Y-87971262D01*
X155642729Y-87857933D01*
X155643213Y-87777489D01*
X155643550Y-87420130D01*
X155929437Y-87420130D01*
X155929437Y-88431732D01*
X155797489Y-88431732D01*
X155720873Y-88429198D01*
X155679738Y-88420218D01*
X155665801Y-88402719D01*
X155665541Y-88398745D01*
X155662751Y-88374436D01*
X155648093Y-88368923D01*
X155612136Y-88383201D01*
X155561328Y-88409740D01*
X155454293Y-88445485D01*
X155336151Y-88450530D01*
X155225896Y-88424584D01*
X155205588Y-88415204D01*
X155155183Y-88385138D01*
X155116826Y-88349207D01*
X155088921Y-88301326D01*
X155069869Y-88235412D01*
X155058072Y-88145380D01*
X155051934Y-88025146D01*
X155049856Y-87868624D01*
X155049784Y-87821815D01*
X155049784Y-87420130D01*
X155313680Y-87420130D01*
X155313680Y-87782987D01*
G37*
G36*
X154120649Y-87072226D02*
G01*
X154270093Y-87078667D01*
X154384891Y-87090764D01*
X154474297Y-87111449D01*
X154547564Y-87143657D01*
X154613946Y-87190322D01*
X154676949Y-87248601D01*
X154747841Y-87331439D01*
X154796242Y-87420276D01*
X154825502Y-87525359D01*
X154838970Y-87656932D01*
X154840866Y-87750000D01*
X154835064Y-87901760D01*
X154815424Y-88021051D01*
X154778596Y-88118120D01*
X154721232Y-88203213D01*
X154676949Y-88251399D01*
X154608724Y-88313970D01*
X154542134Y-88359382D01*
X154467926Y-88390571D01*
X154376847Y-88410469D01*
X154259642Y-88422011D01*
X154120649Y-88427774D01*
X153818269Y-88435949D01*
X153818269Y-88217972D01*
X154104156Y-88217972D01*
X154229312Y-88205054D01*
X154313969Y-88189609D01*
X154385458Y-88164797D01*
X154410741Y-88150198D01*
X154483196Y-88077120D01*
X154530808Y-87981038D01*
X154556800Y-87854514D01*
X154561325Y-87802618D01*
X154559444Y-87637298D01*
X154529711Y-87505554D01*
X154471128Y-87406131D01*
X154382700Y-87337775D01*
X154263430Y-87299230D01*
X154153636Y-87289140D01*
X154104156Y-87288182D01*
X154104156Y-88217972D01*
X153818269Y-88217972D01*
X153818269Y-87064051D01*
X154120649Y-87072226D01*
G37*
G36*
X154478009Y-85155022D02*
G01*
X154551402Y-85156447D01*
X154591048Y-85163187D01*
X154607153Y-85178942D01*
X154609957Y-85202838D01*
X154609957Y-85250654D01*
X154663566Y-85200291D01*
X154734992Y-85158923D01*
X154830005Y-85138124D01*
X154932166Y-85140229D01*
X154991098Y-85153798D01*
X155076725Y-85201636D01*
X155153956Y-85279334D01*
X155210251Y-85372968D01*
X155224392Y-85412819D01*
X155238596Y-85493841D01*
X155245792Y-85598546D01*
X155246037Y-85710885D01*
X155239386Y-85814811D01*
X155225895Y-85894275D01*
X155222677Y-85904944D01*
X155163651Y-86024223D01*
X155080288Y-86113377D01*
X154979224Y-86169408D01*
X154867096Y-86189318D01*
X154750540Y-86170109D01*
X154692099Y-86144589D01*
X154609957Y-86100564D01*
X154609957Y-86562468D01*
X154346061Y-86562468D01*
X154346061Y-85660823D01*
X154609957Y-85660823D01*
X154610583Y-85760719D01*
X154613920Y-85826534D01*
X154622154Y-85868167D01*
X154637472Y-85895518D01*
X154662060Y-85918484D01*
X154667901Y-85923123D01*
X154747557Y-85962478D01*
X154828623Y-85961776D01*
X154901089Y-85921295D01*
X154906078Y-85916484D01*
X154950124Y-85845447D01*
X154975154Y-85748834D01*
X154981166Y-85640726D01*
X154968162Y-85535208D01*
X154936141Y-85446361D01*
X154906078Y-85405161D01*
X154834701Y-85361596D01*
X154753945Y-85357788D01*
X154673820Y-85394016D01*
X154667901Y-85398523D01*
X154641324Y-85421771D01*
X154624429Y-85447540D01*
X154615029Y-85485731D01*
X154610938Y-85546240D01*
X154609969Y-85638968D01*
X154609957Y-85660823D01*
X154346061Y-85660823D01*
X154346061Y-85155022D01*
X154478009Y-85155022D01*
G37*
D12*
%TO.C,U3*%
X138866789Y-54467424D02*
X136200013Y-54467424D01*
X148799987Y-49532576D02*
X148799987Y-54467424D01*
X136200013Y-54467424D02*
X136200013Y-49532576D01*
X136200013Y-49532576D02*
X148799987Y-49532576D01*
X148799962Y-54467424D02*
X146129070Y-54467424D01*
D13*
X148829934Y-54697701D02*
G75*
G03*
X148829934Y-54697701I-29972J0D01*
G01*
D11*
%TO.C,J4*%
X129170000Y-91150000D02*
X131830000Y-91150000D01*
X129170000Y-80870000D02*
X130500000Y-80870000D01*
X129170000Y-83470000D02*
X131830000Y-83470000D01*
X129170000Y-83470000D02*
X129170000Y-91150000D01*
X129170000Y-82200000D02*
X129170000Y-80870000D01*
X131830000Y-83470000D02*
X131830000Y-91150000D01*
%TO.C,J3*%
X181495000Y-83080000D02*
X184095000Y-83080000D01*
X178895000Y-83080000D02*
X178895000Y-81750000D01*
X181495000Y-80420000D02*
X184095000Y-80420000D01*
X181495000Y-83080000D02*
X181495000Y-80420000D01*
X184095000Y-83080000D02*
X184095000Y-80420000D01*
X180225000Y-83080000D02*
X178895000Y-83080000D01*
%TO.C,D1*%
X181880000Y-28285000D02*
X178760000Y-28285000D01*
X179050000Y-28285000D02*
X179050000Y-28415000D01*
X178360000Y-28285000D02*
X178360000Y-27165000D01*
X178760000Y-28285000D02*
X178760000Y-24425000D01*
X181590000Y-28285000D02*
X181590000Y-28415000D01*
X179050000Y-28415000D02*
X179050000Y-28285000D01*
X181590000Y-28415000D02*
X181590000Y-28285000D01*
X179050000Y-28285000D02*
X179050000Y-28285000D01*
X178360000Y-27165000D02*
X178760000Y-27165000D01*
X181590000Y-28415000D02*
X181590000Y-28415000D01*
X181590000Y-28285000D02*
X181590000Y-28285000D01*
X179050000Y-28415000D02*
X179050000Y-28415000D01*
X178760000Y-28285000D02*
X178360000Y-28285000D01*
X178760000Y-27165000D02*
X178760000Y-28285000D01*
X181880000Y-28285000D02*
X181880000Y-24425000D01*
X181880000Y-24425000D02*
G75*
G03*
X178760000Y-24425000I-1560000J0D01*
G01*
D12*
%TO.C,P1*%
X131414478Y-68589091D02*
X131414478Y-68775933D01*
X131429769Y-69760084D02*
X131429769Y-69768618D01*
X131429769Y-71759576D02*
X131429769Y-71767856D01*
X125822962Y-76454089D02*
X126652781Y-76454089D01*
X125822962Y-76454089D02*
X125822962Y-75253937D01*
X125824232Y-65045911D02*
X126654051Y-65045911D01*
X125822962Y-65045911D02*
X125822962Y-75244031D01*
X126662941Y-75220079D02*
X128120904Y-75220079D01*
X126662941Y-76453835D02*
X126662941Y-65045911D01*
X131429769Y-72759322D02*
X131429769Y-72946596D01*
X126662941Y-66221196D02*
X128121158Y-66221196D01*
X131429769Y-70760084D02*
X131429769Y-70768110D01*
D13*
X132556946Y-65264097D02*
G75*
G03*
X132556946Y-65264097I-29997J0D01*
G01*
D12*
%TO.C,U4*%
X111274943Y-85300025D02*
X111274943Y-74700000D01*
X111274943Y-74699975D02*
X117674994Y-74699975D01*
X117675019Y-85300025D02*
X111274943Y-85300025D01*
X117674994Y-82631166D02*
X117674994Y-85300025D01*
X117674994Y-74699975D02*
X117674994Y-77368885D01*
D13*
X118155080Y-74600178D02*
G75*
G03*
X118155080Y-74600178I-29972J0D01*
G01*
D11*
%TO.C,J8*%
X164080000Y-50245000D02*
X164080000Y-52845000D01*
X161420000Y-50245000D02*
X164080000Y-50245000D01*
X161420000Y-50245000D02*
X161420000Y-52845000D01*
X161420000Y-52845000D02*
X164080000Y-52845000D01*
X161420000Y-48975000D02*
X161420000Y-47645000D01*
X161420000Y-47645000D02*
X162750000Y-47645000D01*
D12*
%TO.C,U2*%
X111274943Y-55199975D02*
X117674994Y-55199975D01*
X117674994Y-55199975D02*
X117674994Y-57868885D01*
X117675019Y-65800025D02*
X111274943Y-65800025D01*
X117674994Y-63131166D02*
X117674994Y-65800025D01*
X111274943Y-65800025D02*
X111274943Y-55200000D01*
D13*
X118155080Y-55100178D02*
G75*
G03*
X118155080Y-55100178I-29972J0D01*
G01*
%TD*%
M02*
