%TF.GenerationSoftware,KiCad,Pcbnew,(6.0.1)*%
%TF.CreationDate,2022-09-26T20:39:57+01:00*%
%TF.ProjectId,psp-bluetooth,7073702d-626c-4756-9574-6f6f74682e6b,4*%
%TF.SameCoordinates,Original*%
%TF.FileFunction,Copper,L1,Top*%
%TF.FilePolarity,Positive*%
%FSLAX46Y46*%
G04 Gerber Fmt 4.6, Leading zero omitted, Abs format (unit mm)*
G04 Created by KiCad (PCBNEW (6.0.1)) date 2022-09-26 20:39:57*
%MOMM*%
%LPD*%
G01*
G04 APERTURE LIST*
%TA.AperFunction,ComponentPad*%
%ADD10R,1.600000X1.600000*%
%TD*%
%TA.AperFunction,ComponentPad*%
%ADD11O,1.600000X1.600000*%
%TD*%
%TA.AperFunction,SMDPad,CuDef*%
%ADD12R,1.000000X1.500000*%
%TD*%
%TA.AperFunction,ComponentPad*%
%ADD13R,1.700000X1.700000*%
%TD*%
%TA.AperFunction,ComponentPad*%
%ADD14O,1.700000X1.700000*%
%TD*%
%TA.AperFunction,ComponentPad*%
%ADD15C,1.600000*%
%TD*%
%TA.AperFunction,SMDPad,CuDef*%
%ADD16R,1.800000X1.300000*%
%TD*%
%TA.AperFunction,SMDPad,CuDef*%
%ADD17R,0.250013X1.200000*%
%TD*%
%TA.AperFunction,SMDPad,CuDef*%
%ADD18R,2.200000X3.300000*%
%TD*%
%TA.AperFunction,SMDPad,CuDef*%
%ADD19O,1.700000X3.000000*%
%TD*%
%TA.AperFunction,ComponentPad*%
%ADD20C,1.700000*%
%TD*%
%TA.AperFunction,ComponentPad*%
%ADD21R,1.800000X1.800000*%
%TD*%
%TA.AperFunction,ComponentPad*%
%ADD22C,1.800000*%
%TD*%
%TA.AperFunction,SMDPad,CuDef*%
%ADD23R,2.200000X0.599949*%
%TD*%
%TA.AperFunction,SMDPad,CuDef*%
%ADD24R,3.000000X3.400000*%
%TD*%
%TA.AperFunction,SMDPad,CuDef*%
%ADD25R,1.200000X0.300000*%
%TD*%
%TA.AperFunction,SMDPad,CuDef*%
%ADD26R,3.300000X2.200000*%
%TD*%
%TA.AperFunction,ViaPad*%
%ADD27C,0.600000*%
%TD*%
%TA.AperFunction,Conductor*%
%ADD28C,0.400000*%
%TD*%
%TA.AperFunction,Conductor*%
%ADD29C,0.250000*%
%TD*%
%TA.AperFunction,Conductor*%
%ADD30C,0.700000*%
%TD*%
G04 APERTURE END LIST*
D10*
%TO.P,U1,1,~{CS}*%
%TO.N,/10(\u002A\u002A{slash}SS)*%
X141500000Y-66500000D03*
D11*
%TO.P,U1,2,SCK*%
%TO.N,/13(SCK)*%
X141500000Y-69040000D03*
%TO.P,U1,3,SDI*%
%TO.N,/11(\u002A\u002A{slash}MOSI)*%
X141500000Y-71580000D03*
%TO.P,U1,4,VSS*%
%TO.N,GND*%
X141500000Y-74120000D03*
%TO.P,U1,5,P1B*%
X141500000Y-76660000D03*
%TO.P,U1,6,P1W*%
%TO.N,/P1W*%
X141500000Y-79200000D03*
%TO.P,U1,7,P1A*%
%TO.N,/P0A{slash}P1A*%
X141500000Y-81740000D03*
%TO.P,U1,8,P0A*%
X149120000Y-81740000D03*
%TO.P,U1,9,P0W*%
%TO.N,/P0W*%
X149120000Y-79200000D03*
%TO.P,U1,10,P0B*%
%TO.N,GND*%
X149120000Y-76660000D03*
%TO.P,U1,11,~{WP}*%
%TO.N,unconnected-(U1-Pad11)*%
X149120000Y-74120000D03*
%TO.P,U1,12,~{SHDN}*%
%TO.N,unconnected-(U1-Pad12)*%
X149120000Y-71580000D03*
%TO.P,U1,13,SDO*%
%TO.N,/12(MISO)*%
X149120000Y-69040000D03*
%TO.P,U1,14,VDD*%
%TO.N,+3V3*%
X149120000Y-66500000D03*
%TD*%
D12*
%TO.P,JP1,1,A*%
%TO.N,Net-(J8-Pad1)*%
X168650000Y-51500000D03*
%TO.P,JP1,2,B*%
%TO.N,VIN*%
X167350000Y-51500000D03*
%TD*%
%TO.P,JP2,1,A*%
%TO.N,Net-(J7-Pad1)*%
X175850000Y-40500000D03*
%TO.P,JP2,2,B*%
%TO.N,/1(Tx)*%
X177150000Y-40500000D03*
%TD*%
D13*
%TO.P,J2,1,Pin_1*%
%TO.N,Net-(J8-Pad1)*%
X169500000Y-82000000D03*
D14*
%TO.P,J2,2,Pin_2*%
%TO.N,GND*%
X166960000Y-82000000D03*
%TD*%
D13*
%TO.P,J7,1,Pin_1*%
%TO.N,Net-(J7-Pad1)*%
X176500000Y-45725000D03*
D14*
%TO.P,J7,2,Pin_2*%
%TO.N,/1(Tx)*%
X176500000Y-48265000D03*
%TD*%
D15*
%TO.P,R1,1*%
%TO.N,Net-(J7-Pad1)*%
X168920000Y-34000000D03*
D11*
%TO.P,R1,2*%
%TO.N,Net-(D1-Pad2)*%
X179080000Y-34000000D03*
%TD*%
D16*
%TO.P,U5,1,1*%
%TO.N,/A6 (D20)*%
X193699898Y-40749873D03*
%TO.P,U5,2,2*%
%TO.N,unconnected-(U5-Pad2)*%
X185300102Y-40749873D03*
%TO.P,U5,3,3*%
%TO.N,GND*%
X193699898Y-36249746D03*
%TO.P,U5,4,4*%
%TO.N,unconnected-(U5-Pad4)*%
X185300102Y-36249746D03*
%TD*%
D17*
%TO.P,U3,1,1*%
%TO.N,/A5 (D19)*%
X145747892Y-54368009D03*
%TO.P,U3,2,2*%
%TO.N,/5(\u002A\u002A)*%
X145248019Y-54368009D03*
%TO.P,U3,3,3*%
%TO.N,/4*%
X144747892Y-54368009D03*
%TO.P,U3,4,4*%
%TO.N,/3(\u002A\u002A)*%
X144248019Y-54368009D03*
%TO.P,U3,5,5*%
%TO.N,/2*%
X143747892Y-54368009D03*
%TO.P,U3,6,6*%
%TO.N,GND*%
X143248019Y-54368009D03*
%TO.P,U3,7,7*%
X142747892Y-54368009D03*
%TO.P,U3,8,8*%
X142248019Y-54368009D03*
%TO.P,U3,9,9*%
X141747892Y-54368009D03*
%TO.P,U3,10,10*%
%TO.N,/A7 (D21)*%
X141248019Y-54368009D03*
%TO.P,U3,11,11*%
%TO.N,unconnected-(U3-Pad11)*%
X140747892Y-54368009D03*
%TO.P,U3,12,12*%
%TO.N,unconnected-(U3-Pad12)*%
X140248019Y-54368009D03*
%TO.P,U3,13,13*%
%TO.N,unconnected-(U3-Pad13)*%
X139747892Y-54368009D03*
%TO.P,U3,14,14*%
%TO.N,unconnected-(U3-Pad14)*%
X139248019Y-54368009D03*
D18*
%TO.P,U3,15,15*%
%TO.N,unconnected-(U3-Pad15)*%
X147349873Y-52197828D03*
%TO.P,U3,16,16*%
%TO.N,unconnected-(U3-Pad16)*%
X137650102Y-52197320D03*
%TD*%
D13*
%TO.P,J4,1,Pin_1*%
%TO.N,GND*%
X130500000Y-82200000D03*
D14*
%TO.P,J4,2,Pin_2*%
%TO.N,/P1W*%
X130500000Y-84740000D03*
%TO.P,J4,3,Pin_3*%
%TO.N,/P0A{slash}P1A*%
X130500000Y-87280000D03*
%TO.P,J4,4,Pin_4*%
%TO.N,/P0W*%
X130500000Y-89820000D03*
%TD*%
D13*
%TO.P,J3,1,Pin_1*%
%TO.N,Net-(J8-Pad1)*%
X180225000Y-81750000D03*
D14*
%TO.P,J3,2,Pin_2*%
%TO.N,GND*%
X182765000Y-81750000D03*
%TD*%
D19*
%TO.P,J1,1,D13*%
%TO.N,/13(SCK)*%
X197105000Y-56745000D03*
D20*
X197105000Y-57380000D03*
D14*
%TO.P,J1,2,+3.3v*%
%TO.N,+3V3*%
X194565000Y-57380000D03*
D19*
X194565000Y-56745000D03*
D14*
%TO.P,J1,3,AREF*%
%TO.N,unconnected-(J1-Pad3)*%
X192025000Y-57380000D03*
D19*
X192025000Y-56745000D03*
%TO.P,J1,4,D14*%
%TO.N,/A0 (D14)*%
X189485000Y-56745000D03*
D14*
X189485000Y-57380000D03*
D19*
%TO.P,J1,5,D15*%
%TO.N,/A1 (D15)*%
X186945000Y-56745000D03*
D14*
X186945000Y-57380000D03*
D19*
%TO.P,J1,6,D16~*%
%TO.N,/A2 (D16)*%
X184405000Y-56745000D03*
D14*
X184405000Y-57380000D03*
D19*
%TO.P,J1,7,D17~*%
%TO.N,/A3 (D17)*%
X181865000Y-56745000D03*
D14*
X181865000Y-57380000D03*
D19*
%TO.P,J1,8,D18*%
%TO.N,/A4 (D18)*%
X179325000Y-56745000D03*
D14*
X179325000Y-57380000D03*
%TO.P,J1,9,D19~*%
%TO.N,/A5 (D19)*%
X176785000Y-57380000D03*
D19*
X176785000Y-56745000D03*
%TO.P,J1,10,D20*%
%TO.N,/A6 (D20)*%
X174245000Y-56745000D03*
D14*
X174245000Y-57380000D03*
%TO.P,J1,11,D21*%
%TO.N,/A7 (D21)*%
X171705000Y-57380000D03*
D19*
X171705000Y-56745000D03*
%TO.P,J1,12,+5v*%
%TO.N,+5V*%
X169165000Y-56745000D03*
D14*
X169165000Y-57380000D03*
D19*
%TO.P,J1,13,~{RESET}*%
%TO.N,unconnected-(J1-Pad13)*%
X166625000Y-56745000D03*
D14*
X166625000Y-57380000D03*
D19*
%TO.P,J1,14,GND*%
%TO.N,GND*%
X164085000Y-56745000D03*
D14*
X164085000Y-57380000D03*
D19*
%TO.P,J1,15,VIN*%
%TO.N,VIN*%
X161545000Y-56745000D03*
D14*
X161545000Y-57380000D03*
D19*
%TO.P,J1,16,TX*%
%TO.N,/1(Tx)*%
X161545000Y-73255000D03*
D20*
X161545000Y-72620000D03*
D14*
%TO.P,J1,17,RX*%
%TO.N,/0(Rx)*%
X164085000Y-72620000D03*
D19*
X164085000Y-73255000D03*
D14*
%TO.P,J1,18,~{RESET}*%
%TO.N,unconnected-(J1-Pad18)*%
X166625000Y-72620000D03*
D19*
X166625000Y-73255000D03*
D14*
%TO.P,J1,19,GND*%
%TO.N,GND*%
X169165000Y-72620000D03*
D19*
X169165000Y-73255000D03*
D14*
%TO.P,J1,20,D2~*%
%TO.N,/2*%
X171705000Y-72620000D03*
D19*
X171705000Y-73255000D03*
D14*
%TO.P,J1,21,D3~*%
%TO.N,/3(\u002A\u002A)*%
X174245000Y-72620000D03*
D19*
X174245000Y-73255000D03*
D14*
%TO.P,J1,22,D4*%
%TO.N,/4*%
X176785000Y-72620000D03*
D19*
X176785000Y-73255000D03*
%TO.P,J1,23,D5~*%
%TO.N,/5(\u002A\u002A)*%
X179325000Y-73255000D03*
D14*
X179325000Y-72620000D03*
%TO.P,J1,24,D6~*%
%TO.N,/6(\u002A\u002A)*%
X181865000Y-72620000D03*
D19*
X181865000Y-73255000D03*
%TO.P,J1,25,D7*%
%TO.N,/7*%
X184405000Y-73255000D03*
D14*
X184405000Y-72620000D03*
%TO.P,J1,26,D8*%
%TO.N,/8*%
X186945000Y-72620000D03*
D19*
X186945000Y-73255000D03*
D14*
%TO.P,J1,27,D9~*%
%TO.N,/9(\u002A\u002A)*%
X189485000Y-72620000D03*
D19*
X189485000Y-73255000D03*
%TO.P,J1,28,D10~*%
%TO.N,/10(\u002A\u002A{slash}SS)*%
X192025000Y-73255000D03*
D14*
X192025000Y-72620000D03*
%TO.P,J1,29,D11~*%
%TO.N,/11(\u002A\u002A{slash}MOSI)*%
X194565000Y-72620000D03*
D19*
X194565000Y-73255000D03*
%TO.P,J1,30,D12~*%
%TO.N,/12(MISO)*%
X197105000Y-73255000D03*
D14*
X197105000Y-72620000D03*
%TD*%
D21*
%TO.P,D1,1,K*%
%TO.N,GND*%
X181590000Y-29495000D03*
D22*
%TO.P,D1,2,A*%
%TO.N,Net-(D1-Pad2)*%
X179050000Y-29495000D03*
%TD*%
D23*
%TO.P,P1,1,1*%
%TO.N,GND*%
X132177038Y-72263335D03*
%TO.P,P1,2,2*%
%TO.N,/P1W*%
X132177038Y-71263589D03*
%TO.P,P1,3,3*%
%TO.N,/P0A{slash}P1A*%
X132177038Y-70264097D03*
%TO.P,P1,4,4*%
%TO.N,/P0W*%
X132177038Y-69264097D03*
D24*
%TO.P,P1,5,5*%
%TO.N,unconnected-(P1-Pad5)*%
X129852172Y-66664148D03*
%TO.P,P1,6,6*%
%TO.N,unconnected-(P1-Pad6)*%
X129851918Y-74864046D03*
%TD*%
D25*
%TO.P,U4,1,1*%
%TO.N,/A3 (D17)*%
X117725057Y-77750038D03*
%TO.P,U4,2,2*%
%TO.N,unconnected-(U4-Pad2)*%
X117725057Y-78249911D03*
%TO.P,U4,3,3*%
%TO.N,unconnected-(U4-Pad3)*%
X117725057Y-78750038D03*
%TO.P,U4,4,4*%
%TO.N,GND*%
X117725057Y-79249911D03*
%TO.P,U4,5,5*%
X117725057Y-79750038D03*
%TO.P,U4,6,6*%
X117725057Y-80249911D03*
%TO.P,U4,7,7*%
%TO.N,/A2 (D16)*%
X117725057Y-80750038D03*
%TO.P,U4,8,8*%
%TO.N,unconnected-(U4-Pad8)*%
X117725057Y-81249911D03*
%TO.P,U4,9,9*%
%TO.N,/A1 (D15)*%
X117725057Y-81750038D03*
%TO.P,U4,10,10*%
%TO.N,/A0 (D14)*%
X117725057Y-82249911D03*
D26*
%TO.P,U4,11,11*%
%TO.N,unconnected-(U4-Pad11)*%
X115554877Y-83850114D03*
%TO.P,U4,12,12*%
%TO.N,unconnected-(U4-Pad12)*%
X115554877Y-76150089D03*
%TD*%
D13*
%TO.P,J8,1,Pin_1*%
%TO.N,Net-(J8-Pad1)*%
X162750000Y-48975000D03*
D14*
%TO.P,J8,2,Pin_2*%
%TO.N,VIN*%
X162750000Y-51515000D03*
%TD*%
D25*
%TO.P,U2,1,1*%
%TO.N,GND*%
X117725057Y-58250038D03*
%TO.P,U2,2,2*%
X117725057Y-58749911D03*
%TO.P,U2,3,3*%
X117725057Y-59250038D03*
%TO.P,U2,4,4*%
X117725057Y-59749911D03*
%TO.P,U2,5,5*%
X117725057Y-60250038D03*
%TO.P,U2,6,6*%
%TO.N,/9(\u002A\u002A)*%
X117725057Y-60749911D03*
%TO.P,U2,7,7*%
%TO.N,/8*%
X117725057Y-61250038D03*
%TO.P,U2,8,8*%
%TO.N,/7*%
X117725057Y-61749911D03*
%TO.P,U2,9,9*%
%TO.N,/A4 (D18)*%
X117725057Y-62250038D03*
%TO.P,U2,10,10*%
%TO.N,/6(\u002A\u002A)*%
X117725057Y-62749911D03*
D26*
%TO.P,U2,11,11*%
%TO.N,unconnected-(U2-Pad11)*%
X115554877Y-64350114D03*
%TO.P,U2,12,12*%
%TO.N,unconnected-(U2-Pad12)*%
X115554877Y-56650089D03*
%TD*%
D27*
%TO.N,GND*%
X133250000Y-76750000D03*
X120250000Y-79250000D03*
X143750000Y-57250000D03*
%TO.N,/2*%
X172000000Y-65250000D03*
%TO.N,/3(\u002A\u002A)*%
X174250000Y-65250000D03*
%TO.N,/4*%
X177000000Y-65250000D03*
%TO.N,/5(\u002A\u002A)*%
X179250000Y-65500000D03*
%TO.N,/6(\u002A\u002A)*%
X120750000Y-63123549D03*
%TO.N,/7*%
X120000000Y-61874538D03*
%TO.N,/8*%
X121000000Y-61374411D03*
%TO.N,/9(\u002A\u002A)*%
X121750000Y-60750000D03*
%TO.N,/A4 (D18)*%
X124000000Y-60000000D03*
%TO.N,/A0 (D14)*%
X132500000Y-52375500D03*
%TO.N,/A1 (D15)*%
X130500000Y-52875500D03*
%TO.N,/A2 (D16)*%
X128250000Y-53500000D03*
%TO.N,/A3 (D17)*%
X126000000Y-54250000D03*
%TO.N,/13(SCK)*%
X190750000Y-67750000D03*
%TO.N,/10(\u002A\u002A{slash}SS)*%
X152250000Y-65250000D03*
X152250000Y-69750000D03*
%TO.N,/A7 (D21)*%
X145250000Y-59250000D03*
%TO.N,/A6 (D20)*%
X192000000Y-49750000D03*
X192000000Y-53750000D03*
%TD*%
D28*
%TO.N,/1(Tx)*%
X177985000Y-48265000D02*
X179000000Y-47250000D01*
X179000000Y-47250000D02*
X179000000Y-42350000D01*
X176500000Y-48265000D02*
X177985000Y-48265000D01*
X179000000Y-42350000D02*
X177150000Y-40500000D01*
D29*
%TO.N,GND*%
X141747892Y-54368009D02*
X141747892Y-56247892D01*
X116500000Y-79500000D02*
X116500000Y-80000000D01*
X142500000Y-56500000D02*
X142248019Y-56248019D01*
X142747892Y-54368009D02*
X142747892Y-56252108D01*
X118749962Y-60250038D02*
X119000000Y-60000000D01*
X142747892Y-56252108D02*
X142500000Y-56500000D01*
X117725057Y-79750038D02*
X116750038Y-79750038D01*
X116500000Y-80000000D02*
X116749911Y-80249911D01*
X143000000Y-56500000D02*
X143248019Y-56251981D01*
X117725057Y-60250038D02*
X118749962Y-60250038D01*
X143248019Y-56251981D02*
X143248019Y-54368009D01*
X116750038Y-79750038D02*
X116500000Y-79500000D01*
X116749911Y-80249911D02*
X117725057Y-80249911D01*
X119000000Y-60000000D02*
X118749911Y-59749911D01*
X118749911Y-59749911D02*
X117725057Y-59749911D01*
X142000000Y-56500000D02*
X143000000Y-56500000D01*
X117725057Y-79249911D02*
X116750089Y-79249911D01*
X142248019Y-56248019D02*
X142248019Y-54368009D01*
X116750089Y-79249911D02*
X116500000Y-79500000D01*
X141747892Y-56247892D02*
X142000000Y-56500000D01*
%TO.N,/2*%
X149005212Y-61048080D02*
X149500000Y-61048080D01*
X149500000Y-61048080D02*
X171298080Y-61048080D01*
X171298080Y-61048080D02*
X172000000Y-61750000D01*
X143747892Y-54368009D02*
X143747892Y-55790760D01*
X172000000Y-61750000D02*
X172000000Y-65250000D01*
X143747892Y-55790760D02*
X149005212Y-61048080D01*
%TO.N,/3(\u002A\u002A)*%
X174250000Y-61750000D02*
X174250000Y-65250000D01*
X149191409Y-60598560D02*
X169500000Y-60598560D01*
X144248019Y-54368009D02*
X144248019Y-55655170D01*
X174000000Y-61500000D02*
X174250000Y-61750000D01*
X144248019Y-55655170D02*
X149191409Y-60598560D01*
X169500000Y-60598560D02*
X173098560Y-60598560D01*
X173098560Y-60598560D02*
X174000000Y-61500000D01*
%TO.N,/4*%
X176750000Y-61000000D02*
X177000000Y-61250000D01*
X151000000Y-60149040D02*
X175899040Y-60149040D01*
X144747892Y-55519326D02*
X149377606Y-60149040D01*
X149377606Y-60149040D02*
X151000000Y-60149040D01*
X177000000Y-61250000D02*
X177000000Y-65250000D01*
X144747892Y-54368009D02*
X144747892Y-55519326D01*
X175899040Y-60149040D02*
X176750000Y-61000000D01*
%TO.N,/5(\u002A\u002A)*%
X178199520Y-59699520D02*
X179000000Y-60500000D01*
X164500000Y-59699520D02*
X178199520Y-59699520D01*
X179000000Y-60500000D02*
X179250000Y-60750000D01*
X149563803Y-59699520D02*
X164500000Y-59699520D01*
X145248019Y-54368009D02*
X145248019Y-55383737D01*
X179250000Y-60750000D02*
X179250000Y-65500000D01*
X145248019Y-55383737D02*
X149563803Y-59699520D01*
%TO.N,/6(\u002A\u002A)*%
X118098695Y-63123549D02*
X120750000Y-63123549D01*
X117725057Y-62749911D02*
X118098695Y-63123549D01*
%TO.N,/7*%
X119875373Y-61749911D02*
X120000000Y-61874538D01*
X117725057Y-61749911D02*
X119875373Y-61749911D01*
%TO.N,/8*%
X117725057Y-61250038D02*
X120875627Y-61250038D01*
X120875627Y-61250038D02*
X121000000Y-61374411D01*
%TO.N,/9(\u002A\u002A)*%
X121749911Y-60749911D02*
X121750000Y-60750000D01*
X117725057Y-60749911D02*
X121749911Y-60749911D01*
%TO.N,/A4 (D18)*%
X121500951Y-62499049D02*
X124000000Y-60000000D01*
X117725057Y-62250038D02*
X119492307Y-62250038D01*
X119741318Y-62499049D02*
X121500951Y-62499049D01*
X119492307Y-62250038D02*
X119741318Y-62499049D01*
%TO.N,/A5 (D19)*%
X176250000Y-59250000D02*
X176785000Y-58715000D01*
X176785000Y-58715000D02*
X176785000Y-57380000D01*
X145747892Y-55247892D02*
X149750000Y-59250000D01*
X145747892Y-54368009D02*
X145747892Y-55247892D01*
X149750000Y-59250000D02*
X176250000Y-59250000D01*
%TO.N,/A0 (D14)*%
X126649040Y-76508113D02*
X120907242Y-82249911D01*
X132500000Y-52375500D02*
X131366044Y-53509456D01*
X131366044Y-53509456D02*
X129759455Y-53509456D01*
X120907242Y-82249911D02*
X117725057Y-82249911D01*
X129759455Y-53509456D02*
X126649040Y-56619871D01*
X126649040Y-56619871D02*
X126649040Y-76508113D01*
%TO.N,/A1 (D15)*%
X120771397Y-81750038D02*
X117725057Y-81750038D01*
X126199520Y-76321915D02*
X120771397Y-81750038D01*
X129757693Y-52875500D02*
X126199520Y-56433673D01*
X126199520Y-56433673D02*
X126199520Y-76321915D01*
X130500000Y-52875500D02*
X129757693Y-52875500D01*
%TO.N,/A2 (D16)*%
X121135679Y-80750038D02*
X117725057Y-80750038D01*
X128250000Y-53500000D02*
X125750000Y-56000000D01*
X125750000Y-76135717D02*
X121135679Y-80750038D01*
X125750000Y-56000000D02*
X125750000Y-76135717D01*
%TO.N,/A3 (D17)*%
X117725057Y-77750038D02*
X123499962Y-77750038D01*
X125250000Y-76000000D02*
X125250000Y-55000000D01*
X124000000Y-77250000D02*
X125250000Y-76000000D01*
X123499962Y-77750038D02*
X124000000Y-77250000D01*
X125250000Y-55000000D02*
X126000000Y-54250000D01*
%TO.N,/13(SCK)*%
X141500000Y-69040000D02*
X142624511Y-67915489D01*
X190584511Y-67915489D02*
X190750000Y-67750000D01*
X142624511Y-67915489D02*
X190584511Y-67915489D01*
D28*
%TO.N,+3V3*%
X193500000Y-66500000D02*
X194565000Y-65435000D01*
X149120000Y-66500000D02*
X193500000Y-66500000D01*
X194565000Y-65435000D02*
X194565000Y-57380000D01*
D29*
%TO.N,/12(MISO)*%
X149120000Y-69040000D02*
X196040000Y-69040000D01*
X197105000Y-70105000D02*
X197105000Y-72620000D01*
X196040000Y-69040000D02*
X197105000Y-70105000D01*
%TO.N,/10(\u002A\u002A{slash}SS)*%
X191500000Y-69750000D02*
X192025000Y-70275000D01*
X152250000Y-69750000D02*
X191500000Y-69750000D01*
X152250000Y-65000000D02*
X152250000Y-65250000D01*
X141500000Y-66500000D02*
X145250000Y-66500000D01*
X192025000Y-70275000D02*
X192025000Y-72620000D01*
X145250000Y-66500000D02*
X147250000Y-64500000D01*
X147250000Y-64500000D02*
X151750000Y-64500000D01*
X151750000Y-64500000D02*
X152250000Y-65000000D01*
%TO.N,/11(\u002A\u002A{slash}MOSI)*%
X145170000Y-75250000D02*
X193137081Y-75250000D01*
X194565000Y-73822081D02*
X194565000Y-72620000D01*
X193137081Y-75250000D02*
X194565000Y-73822081D01*
X141500000Y-71580000D02*
X145170000Y-75250000D01*
%TO.N,/A7 (D21)*%
X141248019Y-54368009D02*
X141248019Y-56383737D01*
X141248019Y-56383737D02*
X144114282Y-59250000D01*
X144114282Y-59250000D02*
X145250000Y-59250000D01*
%TO.N,/P1W*%
X138700000Y-79200000D02*
X141500000Y-79200000D01*
X138250000Y-75986551D02*
X138250000Y-78750000D01*
X138250000Y-78750000D02*
X138700000Y-79200000D01*
X133527038Y-71263589D02*
X138250000Y-75986551D01*
X132177038Y-71263589D02*
X133527038Y-71263589D01*
%TO.N,/P0A{slash}P1A*%
X129750000Y-79500000D02*
X137500000Y-79500000D01*
X127500000Y-77250000D02*
X129750000Y-79500000D01*
X141500000Y-81740000D02*
X149120000Y-81740000D01*
X128485903Y-70264097D02*
X127500000Y-71250000D01*
X137500000Y-79500000D02*
X139740000Y-81740000D01*
X127500000Y-71250000D02*
X127500000Y-77250000D01*
X139740000Y-81740000D02*
X141500000Y-81740000D01*
X132177038Y-70264097D02*
X128485903Y-70264097D01*
%TO.N,/P0W*%
X132177038Y-69264097D02*
X133527038Y-69264097D01*
X140075489Y-78075489D02*
X147995489Y-78075489D01*
X139000000Y-74737059D02*
X139000000Y-77000000D01*
X133527038Y-69264097D02*
X139000000Y-74737059D01*
X147995489Y-78075489D02*
X149120000Y-79200000D01*
X139000000Y-77000000D02*
X140075489Y-78075489D01*
D30*
%TO.N,VIN*%
X161500000Y-52765000D02*
X161500000Y-53250000D01*
X167335000Y-51515000D02*
X167350000Y-51500000D01*
X161500000Y-53250000D02*
X161545000Y-53295000D01*
X162750000Y-51515000D02*
X161500000Y-52765000D01*
X162750000Y-51515000D02*
X167335000Y-51515000D01*
X161545000Y-53295000D02*
X161545000Y-56745000D01*
D29*
%TO.N,/A6 (D20)*%
X174245000Y-56745000D02*
X174245000Y-54755000D01*
X193750000Y-40799975D02*
X193699898Y-40749873D01*
X193750000Y-48000000D02*
X193750000Y-40799975D01*
X174245000Y-54755000D02*
X175250000Y-53750000D01*
X175250000Y-53750000D02*
X192000000Y-53750000D01*
X192000000Y-49750000D02*
X193750000Y-48000000D01*
D28*
%TO.N,Net-(D1-Pad2)*%
X179080000Y-29525000D02*
X179050000Y-29495000D01*
X179080000Y-34000000D02*
X179080000Y-29525000D01*
%TO.N,Net-(J7-Pad1)*%
X175420000Y-40500000D02*
X175850000Y-40500000D01*
X175850000Y-45075000D02*
X176500000Y-45725000D01*
X168920000Y-34000000D02*
X175420000Y-40500000D01*
X175850000Y-40500000D02*
X175850000Y-45075000D01*
D30*
%TO.N,Net-(J8-Pad1)*%
X199250000Y-52750000D02*
X199250000Y-76750000D01*
X169250000Y-51500000D02*
X169500000Y-51250000D01*
X182000000Y-78250000D02*
X172000000Y-78250000D01*
X168750000Y-51400000D02*
X168850000Y-51500000D01*
X199250000Y-76750000D02*
X197750000Y-78250000D01*
X168650000Y-51500000D02*
X168650000Y-50050000D01*
X169500000Y-51250000D02*
X197750000Y-51250000D01*
X168650000Y-50050000D02*
X167575000Y-48975000D01*
X197750000Y-78250000D02*
X182000000Y-78250000D01*
X169750000Y-81750000D02*
X169500000Y-82000000D01*
X180225000Y-80025000D02*
X180225000Y-81750000D01*
X182000000Y-78250000D02*
X180225000Y-80025000D01*
X172000000Y-78250000D02*
X169500000Y-80750000D01*
X168650000Y-51500000D02*
X169250000Y-51500000D01*
X169500000Y-80750000D02*
X169500000Y-82000000D01*
X180225000Y-81750000D02*
X169750000Y-81750000D01*
X167575000Y-48975000D02*
X162750000Y-48975000D01*
X197750000Y-51250000D02*
X199250000Y-52750000D01*
%TD*%
%TA.AperFunction,Conductor*%
%TO.N,GND*%
G36*
X200094121Y-25928002D02*
G01*
X200140614Y-25981658D01*
X200152000Y-26034000D01*
X200152000Y-52136752D01*
X200131998Y-52204873D01*
X200078342Y-52251366D01*
X200008068Y-52261470D01*
X199943488Y-52231976D01*
X199926585Y-52213911D01*
X199924891Y-52211241D01*
X199921070Y-52206968D01*
X199867092Y-52152990D01*
X199864638Y-52150468D01*
X199831874Y-52115821D01*
X199809692Y-52092364D01*
X199804044Y-52088526D01*
X199798852Y-52084107D01*
X199799192Y-52083707D01*
X199791200Y-52077098D01*
X198386320Y-50672217D01*
X198379177Y-50664450D01*
X198349935Y-50629847D01*
X198345529Y-50624633D01*
X198281031Y-50575321D01*
X198278615Y-50573427D01*
X198220583Y-50526768D01*
X198220582Y-50526767D01*
X198215262Y-50522490D01*
X198209143Y-50519453D01*
X198206348Y-50517665D01*
X198205987Y-50517412D01*
X198205620Y-50517210D01*
X198202762Y-50515479D01*
X198197348Y-50511340D01*
X198123736Y-50477014D01*
X198120964Y-50475680D01*
X198054296Y-50442586D01*
X198048186Y-50439553D01*
X198041565Y-50437902D01*
X198038437Y-50436751D01*
X198038044Y-50436587D01*
X198037639Y-50436468D01*
X198034475Y-50435391D01*
X198028296Y-50432510D01*
X197949000Y-50414785D01*
X197946002Y-50414076D01*
X197873821Y-50396079D01*
X197873820Y-50396079D01*
X197867199Y-50394428D01*
X197860378Y-50394237D01*
X197857075Y-50393785D01*
X197856191Y-50393626D01*
X197851308Y-50392948D01*
X197846260Y-50391820D01*
X197840537Y-50391500D01*
X197764156Y-50391500D01*
X197760637Y-50391451D01*
X197680743Y-50389219D01*
X197674039Y-50390498D01*
X197667238Y-50391045D01*
X197667196Y-50390525D01*
X197656875Y-50391500D01*
X192779511Y-50391500D01*
X192711390Y-50371498D01*
X192664897Y-50317842D01*
X192654793Y-50247568D01*
X192674562Y-50195776D01*
X192723643Y-50121902D01*
X192788055Y-49952338D01*
X192789039Y-49945341D01*
X192797639Y-49884145D01*
X192826927Y-49819471D01*
X192833318Y-49812586D01*
X193487054Y-49158851D01*
X194142253Y-48503652D01*
X194150539Y-48496112D01*
X194157018Y-48492000D01*
X194203644Y-48442348D01*
X194206398Y-48439507D01*
X194226135Y-48419770D01*
X194228615Y-48416573D01*
X194236320Y-48407551D01*
X194246024Y-48397217D01*
X194266586Y-48375321D01*
X194270405Y-48368375D01*
X194270407Y-48368372D01*
X194276348Y-48357566D01*
X194287199Y-48341047D01*
X194294758Y-48331301D01*
X194299614Y-48325041D01*
X194302759Y-48317772D01*
X194302762Y-48317768D01*
X194317174Y-48284463D01*
X194322391Y-48273813D01*
X194343695Y-48235060D01*
X194348733Y-48215437D01*
X194355137Y-48196734D01*
X194360033Y-48185420D01*
X194360033Y-48185419D01*
X194363181Y-48178145D01*
X194364420Y-48170322D01*
X194364423Y-48170312D01*
X194370099Y-48134476D01*
X194372505Y-48122856D01*
X194381528Y-48087711D01*
X194381528Y-48087710D01*
X194383500Y-48080030D01*
X194383500Y-48059776D01*
X194385051Y-48040065D01*
X194386980Y-48027886D01*
X194388220Y-48020057D01*
X194384059Y-47976038D01*
X194383500Y-47964181D01*
X194383500Y-42034373D01*
X194403502Y-41966252D01*
X194457158Y-41919759D01*
X194509500Y-41908373D01*
X194648032Y-41908373D01*
X194710214Y-41901618D01*
X194846603Y-41850488D01*
X194963159Y-41763134D01*
X195050513Y-41646578D01*
X195101643Y-41510189D01*
X195108398Y-41448007D01*
X195108398Y-40051739D01*
X195101643Y-39989557D01*
X195050513Y-39853168D01*
X194963159Y-39736612D01*
X194846603Y-39649258D01*
X194710214Y-39598128D01*
X194648032Y-39591373D01*
X192751764Y-39591373D01*
X192689582Y-39598128D01*
X192553193Y-39649258D01*
X192436637Y-39736612D01*
X192349283Y-39853168D01*
X192298153Y-39989557D01*
X192291398Y-40051739D01*
X192291398Y-41448007D01*
X192298153Y-41510189D01*
X192349283Y-41646578D01*
X192436637Y-41763134D01*
X192553193Y-41850488D01*
X192689582Y-41901618D01*
X192751764Y-41908373D01*
X192990500Y-41908373D01*
X193058621Y-41928375D01*
X193105114Y-41982031D01*
X193116500Y-42034373D01*
X193116500Y-47685406D01*
X193096498Y-47753527D01*
X193079595Y-47774501D01*
X191938908Y-48915187D01*
X191876596Y-48949213D01*
X191862986Y-48951402D01*
X191854210Y-48952324D01*
X191832288Y-48954628D01*
X191832286Y-48954628D01*
X191825288Y-48955364D01*
X191653579Y-49013818D01*
X191647575Y-49017512D01*
X191505095Y-49105166D01*
X191505092Y-49105168D01*
X191499088Y-49108862D01*
X191494053Y-49113793D01*
X191494050Y-49113795D01*
X191462908Y-49144292D01*
X191369493Y-49235771D01*
X191271235Y-49388238D01*
X191268826Y-49394858D01*
X191268824Y-49394861D01*
X191220405Y-49527891D01*
X191209197Y-49558685D01*
X191186463Y-49738640D01*
X191204163Y-49919160D01*
X191261418Y-50091273D01*
X191265065Y-50097295D01*
X191265066Y-50097297D01*
X191268277Y-50102599D01*
X191324705Y-50195772D01*
X191327404Y-50200229D01*
X191345583Y-50268858D01*
X191323773Y-50336422D01*
X191268897Y-50381468D01*
X191219628Y-50391500D01*
X169634500Y-50391500D01*
X169566379Y-50371498D01*
X169519886Y-50317842D01*
X169508500Y-50265500D01*
X169508500Y-50091391D01*
X169508942Y-50080848D01*
X169511933Y-50045230D01*
X169513304Y-50028902D01*
X169509853Y-50003031D01*
X169502563Y-49948395D01*
X169502193Y-49945341D01*
X169494154Y-49871349D01*
X169493417Y-49864563D01*
X169491239Y-49858092D01*
X169490527Y-49854852D01*
X169490450Y-49854417D01*
X169490334Y-49854017D01*
X169489537Y-49850774D01*
X169488635Y-49844012D01*
X169460839Y-49767644D01*
X169459841Y-49764794D01*
X169453400Y-49745653D01*
X169433922Y-49687777D01*
X169430409Y-49681930D01*
X169429007Y-49678896D01*
X169428847Y-49678508D01*
X169428636Y-49678121D01*
X169427172Y-49675147D01*
X169424838Y-49668733D01*
X169381276Y-49600090D01*
X169379751Y-49597621D01*
X169337853Y-49527891D01*
X169333163Y-49522932D01*
X169331148Y-49520277D01*
X169330640Y-49519546D01*
X169327662Y-49515608D01*
X169324891Y-49511241D01*
X169321071Y-49506968D01*
X169267075Y-49452972D01*
X169264621Y-49450450D01*
X169214381Y-49397323D01*
X169209692Y-49392364D01*
X169204044Y-49388526D01*
X169198852Y-49384107D01*
X169199192Y-49383707D01*
X169191203Y-49377100D01*
X168211320Y-48397217D01*
X168204177Y-48389450D01*
X168174935Y-48354847D01*
X168170529Y-48349633D01*
X168106031Y-48300321D01*
X168103615Y-48298427D01*
X168045583Y-48251768D01*
X168045582Y-48251767D01*
X168040262Y-48247490D01*
X168034143Y-48244453D01*
X168031348Y-48242665D01*
X168030987Y-48242412D01*
X168030620Y-48242210D01*
X168027762Y-48240479D01*
X168022348Y-48236340D01*
X167948736Y-48202014D01*
X167945964Y-48200680D01*
X167879296Y-48167586D01*
X167873186Y-48164553D01*
X167866565Y-48162902D01*
X167863437Y-48161751D01*
X167863044Y-48161587D01*
X167862639Y-48161468D01*
X167859475Y-48160391D01*
X167853296Y-48157510D01*
X167774000Y-48139785D01*
X167771002Y-48139076D01*
X167698821Y-48121079D01*
X167698820Y-48121079D01*
X167692199Y-48119428D01*
X167685378Y-48119237D01*
X167682075Y-48118785D01*
X167681191Y-48118626D01*
X167676308Y-48117948D01*
X167671260Y-48116820D01*
X167665537Y-48116500D01*
X167589156Y-48116500D01*
X167585637Y-48116451D01*
X167505743Y-48114219D01*
X167499039Y-48115498D01*
X167492238Y-48116045D01*
X167492196Y-48115525D01*
X167481875Y-48116500D01*
X164224493Y-48116500D01*
X164156372Y-48096498D01*
X164109879Y-48042842D01*
X164102457Y-48021237D01*
X164101745Y-48014684D01*
X164098972Y-48007285D01*
X164053767Y-47886703D01*
X164050615Y-47878295D01*
X163963261Y-47761739D01*
X163846705Y-47674385D01*
X163710316Y-47623255D01*
X163648134Y-47616500D01*
X161851866Y-47616500D01*
X161789684Y-47623255D01*
X161653295Y-47674385D01*
X161536739Y-47761739D01*
X161449385Y-47878295D01*
X161398255Y-48014684D01*
X161391500Y-48076866D01*
X161391500Y-49873134D01*
X161398255Y-49935316D01*
X161449385Y-50071705D01*
X161536739Y-50188261D01*
X161653295Y-50275615D01*
X161661704Y-50278767D01*
X161661705Y-50278768D01*
X161770451Y-50319535D01*
X161827216Y-50362176D01*
X161851916Y-50428738D01*
X161836709Y-50498087D01*
X161817316Y-50524568D01*
X161721692Y-50624633D01*
X161690629Y-50657138D01*
X161564743Y-50841680D01*
X161470688Y-51044305D01*
X161410989Y-51259570D01*
X161387251Y-51481695D01*
X161387548Y-51486848D01*
X161387548Y-51486851D01*
X161393918Y-51597327D01*
X161377870Y-51666486D01*
X161357222Y-51693675D01*
X160922217Y-52128680D01*
X160914451Y-52135822D01*
X160874633Y-52169471D01*
X160870486Y-52174895D01*
X160870485Y-52174896D01*
X160825326Y-52233962D01*
X160823432Y-52236379D01*
X160820683Y-52239798D01*
X160777493Y-52293516D01*
X160772490Y-52299738D01*
X160769453Y-52305857D01*
X160767665Y-52308652D01*
X160767412Y-52309013D01*
X160767210Y-52309380D01*
X160765479Y-52312238D01*
X160761340Y-52317652D01*
X160729805Y-52385279D01*
X160727015Y-52391262D01*
X160725681Y-52394033D01*
X160689553Y-52466814D01*
X160687902Y-52473435D01*
X160686751Y-52476563D01*
X160686587Y-52476956D01*
X160686468Y-52477361D01*
X160685391Y-52480525D01*
X160682510Y-52486704D01*
X160669701Y-52544011D01*
X160664785Y-52566002D01*
X160664076Y-52568998D01*
X160644428Y-52647801D01*
X160644237Y-52654622D01*
X160643785Y-52657925D01*
X160643626Y-52658809D01*
X160642948Y-52663692D01*
X160641820Y-52668740D01*
X160641500Y-52674463D01*
X160641500Y-52750844D01*
X160641451Y-52754363D01*
X160639219Y-52834257D01*
X160640498Y-52840961D01*
X160641045Y-52847762D01*
X160640525Y-52847804D01*
X160641500Y-52858125D01*
X160641500Y-53208610D01*
X160641058Y-53219152D01*
X160636696Y-53271099D01*
X160637598Y-53277859D01*
X160637598Y-53277861D01*
X160647437Y-53351602D01*
X160647807Y-53354657D01*
X160651309Y-53386889D01*
X160656583Y-53435437D01*
X160658758Y-53441901D01*
X160659478Y-53445176D01*
X160659549Y-53445577D01*
X160659671Y-53445998D01*
X160660463Y-53449222D01*
X160661366Y-53455989D01*
X160663699Y-53462399D01*
X160663700Y-53462403D01*
X160678901Y-53504166D01*
X160686500Y-53547261D01*
X160686500Y-54983774D01*
X160666498Y-55051895D01*
X160643080Y-55078940D01*
X160567555Y-55144477D01*
X160564168Y-55148608D01*
X160424760Y-55318627D01*
X160424756Y-55318633D01*
X160421376Y-55322755D01*
X160418737Y-55327391D01*
X160418735Y-55327394D01*
X160324423Y-55493076D01*
X160307325Y-55523114D01*
X160228663Y-55739825D01*
X160227714Y-55745074D01*
X160227713Y-55745077D01*
X160188377Y-55962608D01*
X160188376Y-55962615D01*
X160187639Y-55966692D01*
X160186500Y-55990844D01*
X160186500Y-57300219D01*
X160185787Y-57313607D01*
X160182251Y-57346695D01*
X160182548Y-57351848D01*
X160182548Y-57351851D01*
X160186291Y-57416763D01*
X160186500Y-57424016D01*
X160186500Y-57452890D01*
X160186725Y-57455537D01*
X160192205Y-57520121D01*
X160192447Y-57523518D01*
X160195110Y-57569715D01*
X160196247Y-57574759D01*
X160196966Y-57579878D01*
X160196742Y-57579909D01*
X160197929Y-57587591D01*
X160201080Y-57624720D01*
X160202420Y-57629882D01*
X160254977Y-57832375D01*
X160258999Y-57847872D01*
X160261191Y-57852738D01*
X160261192Y-57852741D01*
X160273882Y-57880911D01*
X160353688Y-58058075D01*
X160482441Y-58249319D01*
X160486120Y-58253176D01*
X160486122Y-58253178D01*
X160629549Y-58403528D01*
X160662096Y-58466625D01*
X160655364Y-58537302D01*
X160611491Y-58593119D01*
X160538379Y-58616500D01*
X150064595Y-58616500D01*
X149996474Y-58596498D01*
X149975500Y-58579595D01*
X146418303Y-55022398D01*
X146384277Y-54960086D01*
X146381398Y-54933303D01*
X146381398Y-54482328D01*
X146401400Y-54414207D01*
X146455056Y-54367714D01*
X146507398Y-54356328D01*
X148498007Y-54356328D01*
X148560189Y-54349573D01*
X148696578Y-54298443D01*
X148813134Y-54211089D01*
X148900488Y-54094533D01*
X148951618Y-53958144D01*
X148958373Y-53895962D01*
X148958373Y-50499694D01*
X148951618Y-50437512D01*
X148900488Y-50301123D01*
X148813134Y-50184567D01*
X148696578Y-50097213D01*
X148560189Y-50046083D01*
X148498007Y-50039328D01*
X146201739Y-50039328D01*
X146139557Y-50046083D01*
X146003168Y-50097213D01*
X145886612Y-50184567D01*
X145799258Y-50301123D01*
X145748128Y-50437512D01*
X145741373Y-50499694D01*
X145741373Y-53133509D01*
X145721371Y-53201630D01*
X145667715Y-53248123D01*
X145615373Y-53259509D01*
X145574752Y-53259509D01*
X145571355Y-53259878D01*
X145534856Y-53263843D01*
X145512570Y-53266264D01*
X145512306Y-53263830D01*
X145483605Y-53263832D01*
X145483341Y-53266264D01*
X145424556Y-53259878D01*
X145421159Y-53259509D01*
X145074879Y-53259509D01*
X145071482Y-53259878D01*
X145034983Y-53263843D01*
X145012697Y-53266264D01*
X145012434Y-53263841D01*
X144983477Y-53263843D01*
X144983214Y-53266264D01*
X144924429Y-53259878D01*
X144921032Y-53259509D01*
X144574752Y-53259509D01*
X144571355Y-53259878D01*
X144534856Y-53263843D01*
X144512570Y-53266264D01*
X144512306Y-53263830D01*
X144483605Y-53263832D01*
X144483341Y-53266264D01*
X144424556Y-53259878D01*
X144421159Y-53259509D01*
X144074879Y-53259509D01*
X144071482Y-53259878D01*
X144034983Y-53263843D01*
X144012697Y-53266264D01*
X144012434Y-53263841D01*
X143983477Y-53263843D01*
X143983214Y-53266264D01*
X143924429Y-53259878D01*
X143921032Y-53259509D01*
X143574752Y-53259509D01*
X143571355Y-53259878D01*
X143534856Y-53263843D01*
X143512570Y-53266264D01*
X143512324Y-53264002D01*
X143483549Y-53263837D01*
X143483232Y-53266757D01*
X143424511Y-53260378D01*
X143417698Y-53260009D01*
X143078345Y-53260010D01*
X143071523Y-53260380D01*
X143012806Y-53266757D01*
X143012547Y-53264368D01*
X142983365Y-53264368D01*
X142983105Y-53266757D01*
X142924384Y-53260378D01*
X142917571Y-53260009D01*
X142578218Y-53260010D01*
X142571396Y-53260380D01*
X142512679Y-53266757D01*
X142512416Y-53264332D01*
X142483495Y-53264332D01*
X142483232Y-53266757D01*
X142424511Y-53260378D01*
X142417698Y-53260009D01*
X142078345Y-53260010D01*
X142071523Y-53260380D01*
X142012806Y-53266757D01*
X142012547Y-53264368D01*
X141983365Y-53264368D01*
X141983105Y-53266757D01*
X141924384Y-53260378D01*
X141917571Y-53260009D01*
X141578218Y-53260010D01*
X141571396Y-53260380D01*
X141512679Y-53266757D01*
X141512404Y-53264224D01*
X141483573Y-53264129D01*
X141483341Y-53266264D01*
X141424556Y-53259878D01*
X141421159Y-53259509D01*
X141074879Y-53259509D01*
X141071482Y-53259878D01*
X141034983Y-53263843D01*
X141012697Y-53266264D01*
X141012434Y-53263841D01*
X140983477Y-53263843D01*
X140983214Y-53266264D01*
X140924429Y-53259878D01*
X140921032Y-53259509D01*
X140574752Y-53259509D01*
X140571355Y-53259878D01*
X140534856Y-53263843D01*
X140512570Y-53266264D01*
X140512306Y-53263830D01*
X140483605Y-53263832D01*
X140483341Y-53266264D01*
X140424556Y-53259878D01*
X140421159Y-53259509D01*
X140074879Y-53259509D01*
X140071482Y-53259878D01*
X140034983Y-53263843D01*
X140012697Y-53266264D01*
X140012434Y-53263841D01*
X139983477Y-53263843D01*
X139983214Y-53266264D01*
X139924429Y-53259878D01*
X139921032Y-53259509D01*
X139574752Y-53259509D01*
X139571355Y-53259878D01*
X139534856Y-53263843D01*
X139512570Y-53266264D01*
X139512306Y-53263830D01*
X139483605Y-53263832D01*
X139483341Y-53266264D01*
X139424556Y-53259878D01*
X139421159Y-53259509D01*
X139384602Y-53259509D01*
X139316481Y-53239507D01*
X139269988Y-53185851D01*
X139258602Y-53133509D01*
X139258602Y-50499186D01*
X139251847Y-50437004D01*
X139200717Y-50300615D01*
X139113363Y-50184059D01*
X138996807Y-50096705D01*
X138860418Y-50045575D01*
X138798236Y-50038820D01*
X136501968Y-50038820D01*
X136439786Y-50045575D01*
X136303397Y-50096705D01*
X136186841Y-50184059D01*
X136099487Y-50300615D01*
X136048357Y-50437004D01*
X136041602Y-50499186D01*
X136041602Y-53895454D01*
X136048357Y-53957636D01*
X136099487Y-54094025D01*
X136186841Y-54210581D01*
X136303397Y-54297935D01*
X136439786Y-54349065D01*
X136501968Y-54355820D01*
X138488513Y-54355820D01*
X138556634Y-54375822D01*
X138603127Y-54429478D01*
X138614513Y-54481820D01*
X138614513Y-55016143D01*
X138621268Y-55078325D01*
X138672398Y-55214714D01*
X138759752Y-55331270D01*
X138876308Y-55418624D01*
X139012697Y-55469754D01*
X139074879Y-55476509D01*
X139421159Y-55476509D01*
X139429159Y-55475640D01*
X139483341Y-55469754D01*
X139483605Y-55472188D01*
X139512306Y-55472186D01*
X139512570Y-55469754D01*
X139566753Y-55475640D01*
X139574752Y-55476509D01*
X139921032Y-55476509D01*
X139929032Y-55475640D01*
X139983214Y-55469754D01*
X139983477Y-55472177D01*
X140012434Y-55472175D01*
X140012697Y-55469754D01*
X140066880Y-55475640D01*
X140074879Y-55476509D01*
X140421159Y-55476509D01*
X140424554Y-55476140D01*
X140424558Y-55476140D01*
X140474912Y-55470670D01*
X140544794Y-55483198D01*
X140596810Y-55531519D01*
X140614519Y-55595933D01*
X140614519Y-56304970D01*
X140613992Y-56316153D01*
X140612317Y-56323646D01*
X140612566Y-56331572D01*
X140612566Y-56331573D01*
X140614457Y-56391723D01*
X140614519Y-56395682D01*
X140614519Y-56423593D01*
X140615016Y-56427527D01*
X140615016Y-56427528D01*
X140615024Y-56427593D01*
X140615957Y-56439430D01*
X140617346Y-56483626D01*
X140622997Y-56503076D01*
X140627006Y-56522437D01*
X140629545Y-56542534D01*
X140632464Y-56549905D01*
X140632464Y-56549907D01*
X140645823Y-56583649D01*
X140649668Y-56594879D01*
X140662001Y-56637330D01*
X140666034Y-56644149D01*
X140666036Y-56644154D01*
X140672312Y-56654765D01*
X140681007Y-56672513D01*
X140688467Y-56691354D01*
X140693129Y-56697770D01*
X140693129Y-56697771D01*
X140714455Y-56727124D01*
X140720971Y-56737044D01*
X140743477Y-56775099D01*
X140757798Y-56789420D01*
X140770638Y-56804453D01*
X140782547Y-56820844D01*
X140788653Y-56825895D01*
X140816624Y-56849035D01*
X140825403Y-56857025D01*
X143610630Y-59642253D01*
X143618170Y-59650539D01*
X143622282Y-59657018D01*
X143628059Y-59662443D01*
X143671933Y-59703643D01*
X143674775Y-59706398D01*
X143694512Y-59726135D01*
X143697709Y-59728615D01*
X143706729Y-59736318D01*
X143738961Y-59766586D01*
X143745907Y-59770405D01*
X143745910Y-59770407D01*
X143756716Y-59776348D01*
X143773235Y-59787199D01*
X143789241Y-59799614D01*
X143796510Y-59802759D01*
X143796514Y-59802762D01*
X143829819Y-59817174D01*
X143840469Y-59822391D01*
X143879222Y-59843695D01*
X143886897Y-59845666D01*
X143886898Y-59845666D01*
X143898844Y-59848733D01*
X143917549Y-59855137D01*
X143936137Y-59863181D01*
X143943960Y-59864420D01*
X143943970Y-59864423D01*
X143979806Y-59870099D01*
X143991426Y-59872505D01*
X144026571Y-59881528D01*
X144034252Y-59883500D01*
X144054506Y-59883500D01*
X144074216Y-59885051D01*
X144094225Y-59888220D01*
X144102117Y-59887474D01*
X144138243Y-59884059D01*
X144150101Y-59883500D01*
X144703903Y-59883500D01*
X144772896Y-59904068D01*
X144858741Y-59960243D01*
X144883159Y-59976222D01*
X144889763Y-59978678D01*
X144889765Y-59978679D01*
X145046558Y-60036990D01*
X145046560Y-60036990D01*
X145053168Y-60039448D01*
X145136995Y-60050633D01*
X145225980Y-60062507D01*
X145225984Y-60062507D01*
X145232961Y-60063438D01*
X145239972Y-60062800D01*
X145239976Y-60062800D01*
X145396547Y-60048550D01*
X145413600Y-60046998D01*
X145420302Y-60044820D01*
X145420304Y-60044820D01*
X145579409Y-59993124D01*
X145579412Y-59993123D01*
X145586108Y-59990947D01*
X145726318Y-59907365D01*
X145735860Y-59901677D01*
X145735862Y-59901676D01*
X145741912Y-59898069D01*
X145873266Y-59772982D01*
X145973643Y-59621902D01*
X146025127Y-59486372D01*
X146035555Y-59458920D01*
X146035556Y-59458918D01*
X146038055Y-59452338D01*
X146039128Y-59444706D01*
X146061478Y-59285678D01*
X146090766Y-59221004D01*
X146150371Y-59182431D01*
X146221367Y-59182206D01*
X146275347Y-59214119D01*
X148501555Y-61440327D01*
X148509099Y-61448617D01*
X148513212Y-61455098D01*
X148518989Y-61460523D01*
X148562879Y-61501738D01*
X148565721Y-61504493D01*
X148585442Y-61524214D01*
X148588637Y-61526692D01*
X148597659Y-61534398D01*
X148629891Y-61564666D01*
X148636840Y-61568486D01*
X148647644Y-61574426D01*
X148664168Y-61585279D01*
X148680171Y-61597693D01*
X148720755Y-61615256D01*
X148731385Y-61620463D01*
X148770152Y-61641775D01*
X148777829Y-61643746D01*
X148777834Y-61643748D01*
X148789770Y-61646812D01*
X148808478Y-61653217D01*
X148827067Y-61661261D01*
X148834895Y-61662501D01*
X148834902Y-61662503D01*
X148870736Y-61668179D01*
X148882356Y-61670585D01*
X148917501Y-61679608D01*
X148925182Y-61681580D01*
X148945436Y-61681580D01*
X148965146Y-61683131D01*
X148985155Y-61686300D01*
X148993047Y-61685554D01*
X149029173Y-61682139D01*
X149041031Y-61681580D01*
X170983485Y-61681580D01*
X171051606Y-61701582D01*
X171072581Y-61718485D01*
X171329596Y-61975501D01*
X171363621Y-62037813D01*
X171366500Y-62064596D01*
X171366500Y-64703331D01*
X171346411Y-64771586D01*
X171275054Y-64882310D01*
X171275050Y-64882319D01*
X171271235Y-64888238D01*
X171268826Y-64894858D01*
X171268825Y-64894859D01*
X171222700Y-65021586D01*
X171209197Y-65058685D01*
X171186463Y-65238640D01*
X171204163Y-65419160D01*
X171261418Y-65591273D01*
X171266843Y-65600230D01*
X171267408Y-65602366D01*
X171268022Y-65603694D01*
X171267789Y-65603802D01*
X171285021Y-65668858D01*
X171263211Y-65736421D01*
X171208335Y-65781468D01*
X171159066Y-65791500D01*
X153091866Y-65791500D01*
X153023745Y-65771498D01*
X152977252Y-65717842D01*
X152967148Y-65647568D01*
X152974078Y-65620756D01*
X152980519Y-65603802D01*
X153021446Y-65496062D01*
X153035555Y-65458920D01*
X153035556Y-65458918D01*
X153038055Y-65452338D01*
X153039035Y-65445366D01*
X153062748Y-65276639D01*
X153062748Y-65276636D01*
X153063299Y-65272717D01*
X153063452Y-65261738D01*
X153063561Y-65253962D01*
X153063561Y-65253957D01*
X153063616Y-65250000D01*
X153043397Y-65069745D01*
X153041080Y-65063091D01*
X152986064Y-64905106D01*
X152986062Y-64905103D01*
X152983745Y-64898448D01*
X152887626Y-64744624D01*
X152853498Y-64710257D01*
X152761207Y-64617319D01*
X152756523Y-64611988D01*
X152754542Y-64608638D01*
X152740221Y-64594317D01*
X152727380Y-64579283D01*
X152720132Y-64569307D01*
X152715472Y-64562893D01*
X152681407Y-64534712D01*
X152672626Y-64526722D01*
X152253647Y-64107742D01*
X152246113Y-64099463D01*
X152242000Y-64092982D01*
X152192348Y-64046356D01*
X152189507Y-64043602D01*
X152169770Y-64023865D01*
X152166573Y-64021385D01*
X152157551Y-64013680D01*
X152144122Y-64001069D01*
X152125321Y-63983414D01*
X152118375Y-63979595D01*
X152118372Y-63979593D01*
X152107566Y-63973652D01*
X152091047Y-63962801D01*
X152090583Y-63962441D01*
X152075041Y-63950386D01*
X152067772Y-63947241D01*
X152067768Y-63947238D01*
X152034463Y-63932826D01*
X152023813Y-63927609D01*
X151985060Y-63906305D01*
X151965437Y-63901267D01*
X151946734Y-63894863D01*
X151935420Y-63889967D01*
X151935419Y-63889967D01*
X151928145Y-63886819D01*
X151920322Y-63885580D01*
X151920312Y-63885577D01*
X151884476Y-63879901D01*
X151872856Y-63877495D01*
X151837711Y-63868472D01*
X151837710Y-63868472D01*
X151830030Y-63866500D01*
X151809776Y-63866500D01*
X151790065Y-63864949D01*
X151777886Y-63863020D01*
X151770057Y-63861780D01*
X151740786Y-63864547D01*
X151726039Y-63865941D01*
X151714181Y-63866500D01*
X147328767Y-63866500D01*
X147317584Y-63865973D01*
X147310091Y-63864298D01*
X147302165Y-63864547D01*
X147302164Y-63864547D01*
X147242014Y-63866438D01*
X147238055Y-63866500D01*
X147210144Y-63866500D01*
X147206210Y-63866997D01*
X147206209Y-63866997D01*
X147206144Y-63867005D01*
X147194307Y-63867938D01*
X147162490Y-63868938D01*
X147158029Y-63869078D01*
X147150110Y-63869327D01*
X147132454Y-63874456D01*
X147130658Y-63874978D01*
X147111306Y-63878986D01*
X147104235Y-63879880D01*
X147091203Y-63881526D01*
X147083834Y-63884443D01*
X147083832Y-63884444D01*
X147050097Y-63897800D01*
X147038869Y-63901645D01*
X146996407Y-63913982D01*
X146989584Y-63918017D01*
X146989582Y-63918018D01*
X146978972Y-63924293D01*
X146961224Y-63932988D01*
X146942383Y-63940448D01*
X146935967Y-63945110D01*
X146935966Y-63945110D01*
X146906613Y-63966436D01*
X146896693Y-63972952D01*
X146865465Y-63991420D01*
X146865462Y-63991422D01*
X146858638Y-63995458D01*
X146844317Y-64009779D01*
X146829284Y-64022619D01*
X146812893Y-64034528D01*
X146804217Y-64045016D01*
X146784702Y-64068605D01*
X146776712Y-64077384D01*
X145024500Y-65829595D01*
X144962188Y-65863621D01*
X144935405Y-65866500D01*
X142934500Y-65866500D01*
X142866379Y-65846498D01*
X142819886Y-65792842D01*
X142808500Y-65740500D01*
X142808500Y-65651866D01*
X142801745Y-65589684D01*
X142750615Y-65453295D01*
X142663261Y-65336739D01*
X142546705Y-65249385D01*
X142410316Y-65198255D01*
X142348134Y-65191500D01*
X140651866Y-65191500D01*
X140589684Y-65198255D01*
X140453295Y-65249385D01*
X140336739Y-65336739D01*
X140249385Y-65453295D01*
X140198255Y-65589684D01*
X140191500Y-65651866D01*
X140191500Y-67348134D01*
X140198255Y-67410316D01*
X140249385Y-67546705D01*
X140336739Y-67663261D01*
X140453295Y-67750615D01*
X140589684Y-67801745D01*
X140600474Y-67802917D01*
X140602606Y-67803803D01*
X140605222Y-67804425D01*
X140605121Y-67804848D01*
X140666035Y-67830155D01*
X140706463Y-67888517D01*
X140708922Y-67959471D01*
X140672629Y-68020490D01*
X140663969Y-68027489D01*
X140660207Y-68030646D01*
X140655700Y-68033802D01*
X140493802Y-68195700D01*
X140362477Y-68383251D01*
X140360154Y-68388233D01*
X140360151Y-68388238D01*
X140269052Y-68583602D01*
X140265716Y-68590757D01*
X140264294Y-68596065D01*
X140264293Y-68596067D01*
X140213537Y-68785489D01*
X140206457Y-68811913D01*
X140186502Y-69040000D01*
X140206457Y-69268087D01*
X140265716Y-69489243D01*
X140268039Y-69494224D01*
X140268039Y-69494225D01*
X140360151Y-69691762D01*
X140360154Y-69691767D01*
X140362477Y-69696749D01*
X140425476Y-69786721D01*
X140488501Y-69876729D01*
X140493802Y-69884300D01*
X140655700Y-70046198D01*
X140660208Y-70049355D01*
X140660211Y-70049357D01*
X140722647Y-70093075D01*
X140843251Y-70177523D01*
X140848233Y-70179846D01*
X140848238Y-70179849D01*
X140882457Y-70195805D01*
X140935742Y-70242722D01*
X140955203Y-70310999D01*
X140934661Y-70378959D01*
X140882457Y-70424195D01*
X140848238Y-70440151D01*
X140848233Y-70440154D01*
X140843251Y-70442477D01*
X140738389Y-70515902D01*
X140660211Y-70570643D01*
X140660208Y-70570645D01*
X140655700Y-70573802D01*
X140493802Y-70735700D01*
X140490645Y-70740208D01*
X140490643Y-70740211D01*
X140457563Y-70787454D01*
X140362477Y-70923251D01*
X140360154Y-70928233D01*
X140360151Y-70928238D01*
X140315685Y-71023597D01*
X140265716Y-71130757D01*
X140264294Y-71136065D01*
X140264293Y-71136067D01*
X140208405Y-71344643D01*
X140206457Y-71351913D01*
X140186502Y-71580000D01*
X140206457Y-71808087D01*
X140207881Y-71813400D01*
X140207881Y-71813402D01*
X140260382Y-72009335D01*
X140265716Y-72029243D01*
X140268039Y-72034224D01*
X140268039Y-72034225D01*
X140360151Y-72231762D01*
X140360154Y-72231767D01*
X140362477Y-72236749D01*
X140434031Y-72338938D01*
X140473352Y-72395094D01*
X140493802Y-72424300D01*
X140655700Y-72586198D01*
X140660208Y-72589355D01*
X140660211Y-72589357D01*
X140663713Y-72591809D01*
X140843251Y-72717523D01*
X140848233Y-72719846D01*
X140848238Y-72719849D01*
X140883049Y-72736081D01*
X140936334Y-72782998D01*
X140955795Y-72851275D01*
X140935253Y-72919235D01*
X140883049Y-72964471D01*
X140848489Y-72980586D01*
X140838993Y-72986069D01*
X140660533Y-73111028D01*
X140652125Y-73118084D01*
X140498084Y-73272125D01*
X140491028Y-73280533D01*
X140366069Y-73458993D01*
X140360586Y-73468489D01*
X140268510Y-73665947D01*
X140264764Y-73676239D01*
X140218606Y-73848503D01*
X140218942Y-73862599D01*
X140226884Y-73866000D01*
X142767965Y-73866000D01*
X142790643Y-73859341D01*
X142861639Y-73859341D01*
X142915237Y-73891142D01*
X144666348Y-75642253D01*
X144673888Y-75650539D01*
X144678000Y-75657018D01*
X144683777Y-75662443D01*
X144727651Y-75703643D01*
X144730493Y-75706398D01*
X144750230Y-75726135D01*
X144753427Y-75728615D01*
X144762447Y-75736318D01*
X144794679Y-75766586D01*
X144801625Y-75770405D01*
X144801628Y-75770407D01*
X144812434Y-75776348D01*
X144828953Y-75787199D01*
X144844959Y-75799614D01*
X144852228Y-75802759D01*
X144852232Y-75802762D01*
X144885537Y-75817174D01*
X144896187Y-75822391D01*
X144934940Y-75843695D01*
X144942615Y-75845666D01*
X144942616Y-75845666D01*
X144954562Y-75848733D01*
X144973267Y-75855137D01*
X144991855Y-75863181D01*
X144999678Y-75864420D01*
X144999688Y-75864423D01*
X145035524Y-75870099D01*
X145047144Y-75872505D01*
X145078959Y-75880673D01*
X145089970Y-75883500D01*
X145110224Y-75883500D01*
X145129934Y-75885051D01*
X145149943Y-75888220D01*
X145157835Y-75887474D01*
X145176580Y-75885702D01*
X145193962Y-75884059D01*
X145205819Y-75883500D01*
X147841089Y-75883500D01*
X147909210Y-75903502D01*
X147955703Y-75957158D01*
X147965807Y-76027432D01*
X147955284Y-76062750D01*
X147888510Y-76205947D01*
X147884764Y-76216239D01*
X147838606Y-76388503D01*
X147838942Y-76402599D01*
X147846884Y-76406000D01*
X150387967Y-76406000D01*
X150401498Y-76402027D01*
X150402727Y-76393478D01*
X150355236Y-76216239D01*
X150351490Y-76205947D01*
X150284716Y-76062750D01*
X150274055Y-75992558D01*
X150303035Y-75927746D01*
X150362455Y-75888889D01*
X150398911Y-75883500D01*
X193058314Y-75883500D01*
X193069497Y-75884027D01*
X193076990Y-75885702D01*
X193084916Y-75885453D01*
X193084917Y-75885453D01*
X193145067Y-75883562D01*
X193149026Y-75883500D01*
X193176937Y-75883500D01*
X193180872Y-75883003D01*
X193180937Y-75882995D01*
X193192774Y-75882062D01*
X193225032Y-75881048D01*
X193229051Y-75880922D01*
X193236970Y-75880673D01*
X193256424Y-75875021D01*
X193275781Y-75871013D01*
X193288011Y-75869468D01*
X193288012Y-75869468D01*
X193295878Y-75868474D01*
X193303249Y-75865555D01*
X193303251Y-75865555D01*
X193336993Y-75852196D01*
X193348223Y-75848351D01*
X193383064Y-75838229D01*
X193383065Y-75838229D01*
X193390674Y-75836018D01*
X193397493Y-75831985D01*
X193397498Y-75831983D01*
X193408109Y-75825707D01*
X193425857Y-75817012D01*
X193444698Y-75809552D01*
X193480468Y-75783564D01*
X193490388Y-75777048D01*
X193521616Y-75758580D01*
X193521619Y-75758578D01*
X193528443Y-75754542D01*
X193542764Y-75740221D01*
X193557798Y-75727380D01*
X193567775Y-75720131D01*
X193574188Y-75715472D01*
X193602379Y-75681395D01*
X193610369Y-75672616D01*
X194046091Y-75236894D01*
X194108403Y-75202868D01*
X194172551Y-75205657D01*
X194267126Y-75235024D01*
X194267136Y-75235026D01*
X194272227Y-75236607D01*
X194277513Y-75237308D01*
X194277515Y-75237308D01*
X194495489Y-75266198D01*
X194495494Y-75266198D01*
X194500774Y-75266898D01*
X194506103Y-75266698D01*
X194506105Y-75266698D01*
X194615966Y-75262573D01*
X194731158Y-75258249D01*
X194956791Y-75210907D01*
X194961750Y-75208949D01*
X194961752Y-75208948D01*
X195166256Y-75128185D01*
X195166258Y-75128184D01*
X195171221Y-75126224D01*
X195178321Y-75121916D01*
X195363757Y-75009390D01*
X195363756Y-75009390D01*
X195368317Y-75006623D01*
X195453882Y-74932374D01*
X195538412Y-74859023D01*
X195538414Y-74859021D01*
X195542445Y-74855523D01*
X195596808Y-74789223D01*
X195685240Y-74681373D01*
X195685244Y-74681367D01*
X195688624Y-74677245D01*
X195724878Y-74613556D01*
X195775959Y-74564251D01*
X195845589Y-74550389D01*
X195911660Y-74576372D01*
X195938898Y-74605521D01*
X196042441Y-74759319D01*
X196046120Y-74763176D01*
X196046122Y-74763178D01*
X196063130Y-74781007D01*
X196201576Y-74926135D01*
X196386542Y-75063754D01*
X196391293Y-75066170D01*
X196391297Y-75066172D01*
X196489297Y-75115997D01*
X196592051Y-75168240D01*
X196597145Y-75169822D01*
X196597148Y-75169823D01*
X196797020Y-75231885D01*
X196812227Y-75236607D01*
X196817516Y-75237308D01*
X197035489Y-75266198D01*
X197035494Y-75266198D01*
X197040774Y-75266898D01*
X197046103Y-75266698D01*
X197046105Y-75266698D01*
X197155966Y-75262573D01*
X197271158Y-75258249D01*
X197496791Y-75210907D01*
X197501750Y-75208949D01*
X197501752Y-75208948D01*
X197706256Y-75128185D01*
X197706258Y-75128184D01*
X197711221Y-75126224D01*
X197718321Y-75121916D01*
X197903757Y-75009390D01*
X197903756Y-75009390D01*
X197908317Y-75006623D01*
X197993882Y-74932374D01*
X198078412Y-74859023D01*
X198078414Y-74859021D01*
X198082445Y-74855523D01*
X198158163Y-74763178D01*
X198168066Y-74751101D01*
X198226726Y-74711106D01*
X198297696Y-74709175D01*
X198358444Y-74745919D01*
X198389683Y-74809674D01*
X198391500Y-74830992D01*
X198391500Y-76342208D01*
X198371498Y-76410329D01*
X198354599Y-76431299D01*
X197431300Y-77354597D01*
X197368990Y-77388621D01*
X197342207Y-77391500D01*
X182041390Y-77391500D01*
X182030847Y-77391058D01*
X181978901Y-77386696D01*
X181951192Y-77390393D01*
X181934530Y-77391500D01*
X172041390Y-77391500D01*
X172030847Y-77391058D01*
X171978901Y-77386696D01*
X171972141Y-77387598D01*
X171972139Y-77387598D01*
X171898398Y-77397437D01*
X171895343Y-77397807D01*
X171863111Y-77401309D01*
X171814563Y-77406583D01*
X171808099Y-77408758D01*
X171804824Y-77409478D01*
X171804428Y-77409548D01*
X171804004Y-77409671D01*
X171800784Y-77410462D01*
X171794011Y-77411366D01*
X171717677Y-77439149D01*
X171714802Y-77440156D01*
X171709356Y-77441989D01*
X171637777Y-77466078D01*
X171631923Y-77469596D01*
X171628916Y-77470985D01*
X171628511Y-77471152D01*
X171628135Y-77471357D01*
X171625148Y-77472827D01*
X171618732Y-77475162D01*
X171550080Y-77518730D01*
X171547611Y-77520255D01*
X171477891Y-77562147D01*
X171472934Y-77566834D01*
X171470277Y-77568851D01*
X171469543Y-77569361D01*
X171465605Y-77572339D01*
X171461241Y-77575109D01*
X171456968Y-77578929D01*
X171402972Y-77632925D01*
X171400450Y-77635379D01*
X171342364Y-77690308D01*
X171338526Y-77695956D01*
X171334107Y-77701148D01*
X171333707Y-77700808D01*
X171327100Y-77708797D01*
X168922217Y-80113680D01*
X168914451Y-80120822D01*
X168874633Y-80154471D01*
X168870486Y-80159895D01*
X168870485Y-80159896D01*
X168841145Y-80198271D01*
X168832670Y-80209357D01*
X168825326Y-80218962D01*
X168823427Y-80221385D01*
X168795737Y-80255825D01*
X168772490Y-80284738D01*
X168769453Y-80290857D01*
X168767665Y-80293652D01*
X168767412Y-80294013D01*
X168767210Y-80294380D01*
X168765479Y-80297238D01*
X168761340Y-80302652D01*
X168737822Y-80353087D01*
X168727015Y-80376262D01*
X168725681Y-80379033D01*
X168689553Y-80451814D01*
X168687902Y-80458435D01*
X168686751Y-80461563D01*
X168686587Y-80461956D01*
X168686468Y-80462361D01*
X168685391Y-80465525D01*
X168682510Y-80471704D01*
X168681023Y-80478358D01*
X168665297Y-80548712D01*
X168630916Y-80610829D01*
X168568411Y-80644497D01*
X168555940Y-80646489D01*
X168554789Y-80646614D01*
X168539684Y-80648255D01*
X168403295Y-80699385D01*
X168286739Y-80786739D01*
X168199385Y-80903295D01*
X168196233Y-80911704D01*
X168196232Y-80911705D01*
X168154722Y-81022433D01*
X168112081Y-81079198D01*
X168045519Y-81103898D01*
X167976170Y-81088691D01*
X167943546Y-81063004D01*
X167892799Y-81007234D01*
X167885273Y-81000215D01*
X167718139Y-80868222D01*
X167709552Y-80862517D01*
X167523117Y-80759599D01*
X167513705Y-80755369D01*
X167312959Y-80684280D01*
X167302988Y-80681646D01*
X167231837Y-80668972D01*
X167218540Y-80670432D01*
X167214000Y-80684989D01*
X167214000Y-83318517D01*
X167218064Y-83332359D01*
X167231478Y-83334393D01*
X167238184Y-83333534D01*
X167248262Y-83331392D01*
X167452255Y-83270191D01*
X167461842Y-83266433D01*
X167653095Y-83172739D01*
X167661945Y-83167464D01*
X167835328Y-83043792D01*
X167843193Y-83037145D01*
X167947897Y-82932805D01*
X168010268Y-82898889D01*
X168081075Y-82904077D01*
X168137837Y-82946723D01*
X168154819Y-82977826D01*
X168199385Y-83096705D01*
X168286739Y-83213261D01*
X168403295Y-83300615D01*
X168539684Y-83351745D01*
X168601866Y-83358500D01*
X170398134Y-83358500D01*
X170460316Y-83351745D01*
X170596705Y-83300615D01*
X170713261Y-83213261D01*
X170800615Y-83096705D01*
X170851745Y-82960316D01*
X170858500Y-82898134D01*
X170858500Y-82734500D01*
X170878502Y-82666379D01*
X170932158Y-82619886D01*
X170984500Y-82608500D01*
X178750507Y-82608500D01*
X178818628Y-82628502D01*
X178865121Y-82682158D01*
X178872543Y-82703763D01*
X178873255Y-82710316D01*
X178876027Y-82717711D01*
X178876028Y-82717714D01*
X178908676Y-82804801D01*
X178924385Y-82846705D01*
X179011739Y-82963261D01*
X179128295Y-83050615D01*
X179264684Y-83101745D01*
X179326866Y-83108500D01*
X181123134Y-83108500D01*
X181185316Y-83101745D01*
X181321705Y-83050615D01*
X181438261Y-82963261D01*
X181525615Y-82846705D01*
X181541324Y-82804801D01*
X181569798Y-82728848D01*
X181612440Y-82672084D01*
X181679001Y-82647384D01*
X181748350Y-82662592D01*
X181783017Y-82690580D01*
X181808218Y-82719673D01*
X181815580Y-82726883D01*
X181979434Y-82862916D01*
X181987881Y-82868831D01*
X182171756Y-82976279D01*
X182181042Y-82980729D01*
X182380001Y-83056703D01*
X182389899Y-83059579D01*
X182493250Y-83080606D01*
X182507299Y-83079410D01*
X182511000Y-83069065D01*
X182511000Y-83068517D01*
X183019000Y-83068517D01*
X183023064Y-83082359D01*
X183036478Y-83084393D01*
X183043184Y-83083534D01*
X183053262Y-83081392D01*
X183257255Y-83020191D01*
X183266842Y-83016433D01*
X183458095Y-82922739D01*
X183466945Y-82917464D01*
X183640328Y-82793792D01*
X183648200Y-82787139D01*
X183799052Y-82636812D01*
X183805730Y-82628965D01*
X183930003Y-82456020D01*
X183935313Y-82447183D01*
X184029670Y-82256267D01*
X184033469Y-82246672D01*
X184095377Y-82042910D01*
X184097555Y-82032837D01*
X184098986Y-82021962D01*
X184096775Y-82007778D01*
X184083617Y-82004000D01*
X183037115Y-82004000D01*
X183021876Y-82008475D01*
X183020671Y-82009865D01*
X183019000Y-82017548D01*
X183019000Y-83068517D01*
X182511000Y-83068517D01*
X182511000Y-81477885D01*
X183019000Y-81477885D01*
X183023475Y-81493124D01*
X183024865Y-81494329D01*
X183032548Y-81496000D01*
X184083344Y-81496000D01*
X184096875Y-81492027D01*
X184098180Y-81482947D01*
X184056214Y-81315875D01*
X184052894Y-81306124D01*
X183967972Y-81110814D01*
X183963105Y-81101739D01*
X183847426Y-80922926D01*
X183841136Y-80914757D01*
X183697806Y-80757240D01*
X183690273Y-80750215D01*
X183523139Y-80618222D01*
X183514552Y-80612517D01*
X183328117Y-80509599D01*
X183318705Y-80505369D01*
X183117959Y-80434280D01*
X183107988Y-80431646D01*
X183036837Y-80418972D01*
X183023540Y-80420432D01*
X183019000Y-80434989D01*
X183019000Y-81477885D01*
X182511000Y-81477885D01*
X182511000Y-80433102D01*
X182507082Y-80419758D01*
X182492806Y-80417771D01*
X182454324Y-80423660D01*
X182444288Y-80426051D01*
X182241868Y-80492212D01*
X182232359Y-80496209D01*
X182043463Y-80594542D01*
X182034738Y-80600036D01*
X181864433Y-80727905D01*
X181856726Y-80734748D01*
X181779478Y-80815584D01*
X181717954Y-80851014D01*
X181647042Y-80847557D01*
X181589255Y-80806311D01*
X181570402Y-80772763D01*
X181528767Y-80661703D01*
X181525615Y-80653295D01*
X181438261Y-80536739D01*
X181321705Y-80449385D01*
X181313296Y-80446233D01*
X181313295Y-80446232D01*
X181281669Y-80434376D01*
X181224904Y-80391735D01*
X181200204Y-80325174D01*
X181215411Y-80255825D01*
X181236803Y-80227299D01*
X182318697Y-79145405D01*
X182381009Y-79111379D01*
X182407792Y-79108500D01*
X197708610Y-79108500D01*
X197719152Y-79108942D01*
X197771099Y-79113304D01*
X197777859Y-79112402D01*
X197777861Y-79112402D01*
X197851602Y-79102563D01*
X197854657Y-79102193D01*
X197886889Y-79098691D01*
X197935437Y-79093417D01*
X197941901Y-79091242D01*
X197945176Y-79090522D01*
X197945572Y-79090452D01*
X197945996Y-79090329D01*
X197949216Y-79089538D01*
X197955989Y-79088634D01*
X198032323Y-79060851D01*
X198035198Y-79059844D01*
X198069119Y-79048428D01*
X198112223Y-79033922D01*
X198118077Y-79030404D01*
X198121084Y-79029015D01*
X198121489Y-79028848D01*
X198121865Y-79028643D01*
X198124852Y-79027173D01*
X198131268Y-79024838D01*
X198199920Y-78981270D01*
X198202389Y-78979745D01*
X198272109Y-78937853D01*
X198277066Y-78933166D01*
X198279723Y-78931149D01*
X198280469Y-78930631D01*
X198284402Y-78927656D01*
X198288759Y-78924891D01*
X198293032Y-78921070D01*
X198347010Y-78867092D01*
X198349532Y-78864638D01*
X198402680Y-78814379D01*
X198402682Y-78814377D01*
X198407636Y-78809692D01*
X198411471Y-78804050D01*
X198415894Y-78798852D01*
X198416290Y-78799189D01*
X198422904Y-78791198D01*
X199827776Y-77386326D01*
X199835543Y-77379183D01*
X199835924Y-77378861D01*
X199875367Y-77345529D01*
X199901376Y-77311511D01*
X199924710Y-77280992D01*
X199926584Y-77278601D01*
X199927778Y-77277115D01*
X199986039Y-77236541D01*
X200056986Y-77233906D01*
X200118096Y-77270046D01*
X200149966Y-77333487D01*
X200152000Y-77356036D01*
X200152000Y-95886000D01*
X200131998Y-95954121D01*
X200078342Y-96000614D01*
X200026000Y-96012000D01*
X109854000Y-96012000D01*
X109785879Y-95991998D01*
X109739386Y-95938342D01*
X109728000Y-95886000D01*
X109728000Y-94087655D01*
X109999858Y-94087655D01*
X110035104Y-94346638D01*
X110036412Y-94351124D01*
X110036412Y-94351126D01*
X110056098Y-94418664D01*
X110108243Y-94597567D01*
X110217668Y-94834928D01*
X110220231Y-94838837D01*
X110358410Y-95049596D01*
X110358414Y-95049601D01*
X110360976Y-95053509D01*
X110535018Y-95248506D01*
X110735970Y-95415637D01*
X110739973Y-95418066D01*
X110955422Y-95548804D01*
X110955426Y-95548806D01*
X110959419Y-95551229D01*
X111200455Y-95652303D01*
X111453783Y-95716641D01*
X111458434Y-95717109D01*
X111458438Y-95717110D01*
X111651308Y-95736531D01*
X111670867Y-95738500D01*
X111826354Y-95738500D01*
X111828679Y-95738327D01*
X111828685Y-95738327D01*
X112016000Y-95724407D01*
X112016004Y-95724406D01*
X112020652Y-95724061D01*
X112025200Y-95723032D01*
X112025206Y-95723031D01*
X112211601Y-95680853D01*
X112275577Y-95666377D01*
X112311769Y-95652303D01*
X112514824Y-95573340D01*
X112514827Y-95573339D01*
X112519177Y-95571647D01*
X112746098Y-95441951D01*
X112951357Y-95280138D01*
X113130443Y-95089763D01*
X113279424Y-94875009D01*
X113395025Y-94640593D01*
X113474707Y-94391665D01*
X113516721Y-94133693D01*
X113517324Y-94087655D01*
X196359858Y-94087655D01*
X196395104Y-94346638D01*
X196396412Y-94351124D01*
X196396412Y-94351126D01*
X196416098Y-94418664D01*
X196468243Y-94597567D01*
X196577668Y-94834928D01*
X196580231Y-94838837D01*
X196718410Y-95049596D01*
X196718414Y-95049601D01*
X196720976Y-95053509D01*
X196895018Y-95248506D01*
X197095970Y-95415637D01*
X197099973Y-95418066D01*
X197315422Y-95548804D01*
X197315426Y-95548806D01*
X197319419Y-95551229D01*
X197560455Y-95652303D01*
X197813783Y-95716641D01*
X197818434Y-95717109D01*
X197818438Y-95717110D01*
X198011308Y-95736531D01*
X198030867Y-95738500D01*
X198186354Y-95738500D01*
X198188679Y-95738327D01*
X198188685Y-95738327D01*
X198376000Y-95724407D01*
X198376004Y-95724406D01*
X198380652Y-95724061D01*
X198385200Y-95723032D01*
X198385206Y-95723031D01*
X198571601Y-95680853D01*
X198635577Y-95666377D01*
X198671769Y-95652303D01*
X198874824Y-95573340D01*
X198874827Y-95573339D01*
X198879177Y-95571647D01*
X199106098Y-95441951D01*
X199311357Y-95280138D01*
X199490443Y-95089763D01*
X199639424Y-94875009D01*
X199755025Y-94640593D01*
X199834707Y-94391665D01*
X199876721Y-94133693D01*
X199880142Y-93872345D01*
X199844896Y-93613362D01*
X199830473Y-93563877D01*
X199773068Y-93366932D01*
X199771757Y-93362433D01*
X199662332Y-93125072D01*
X199559479Y-92968195D01*
X199521590Y-92910404D01*
X199521586Y-92910399D01*
X199519024Y-92906491D01*
X199344982Y-92711494D01*
X199144030Y-92544363D01*
X199021515Y-92470019D01*
X198924578Y-92411196D01*
X198924574Y-92411194D01*
X198920581Y-92408771D01*
X198679545Y-92307697D01*
X198426217Y-92243359D01*
X198421566Y-92242891D01*
X198421562Y-92242890D01*
X198212271Y-92221816D01*
X198209133Y-92221500D01*
X198053646Y-92221500D01*
X198051321Y-92221673D01*
X198051315Y-92221673D01*
X197864000Y-92235593D01*
X197863996Y-92235594D01*
X197859348Y-92235939D01*
X197854800Y-92236968D01*
X197854794Y-92236969D01*
X197684939Y-92275404D01*
X197604423Y-92293623D01*
X197600071Y-92295315D01*
X197600069Y-92295316D01*
X197365176Y-92386660D01*
X197365173Y-92386661D01*
X197360823Y-92388353D01*
X197356769Y-92390670D01*
X197356767Y-92390671D01*
X197278492Y-92435409D01*
X197133902Y-92518049D01*
X196928643Y-92679862D01*
X196749557Y-92870237D01*
X196600576Y-93084991D01*
X196484975Y-93319407D01*
X196405293Y-93568335D01*
X196363279Y-93826307D01*
X196359858Y-94087655D01*
X113517324Y-94087655D01*
X113520142Y-93872345D01*
X113484896Y-93613362D01*
X113470473Y-93563877D01*
X113413068Y-93366932D01*
X113411757Y-93362433D01*
X113302332Y-93125072D01*
X113199479Y-92968195D01*
X113161590Y-92910404D01*
X113161586Y-92910399D01*
X113159024Y-92906491D01*
X112984982Y-92711494D01*
X112784030Y-92544363D01*
X112661515Y-92470019D01*
X112564578Y-92411196D01*
X112564574Y-92411194D01*
X112560581Y-92408771D01*
X112319545Y-92307697D01*
X112066217Y-92243359D01*
X112061566Y-92242891D01*
X112061562Y-92242890D01*
X111852271Y-92221816D01*
X111849133Y-92221500D01*
X111693646Y-92221500D01*
X111691321Y-92221673D01*
X111691315Y-92221673D01*
X111504000Y-92235593D01*
X111503996Y-92235594D01*
X111499348Y-92235939D01*
X111494800Y-92236968D01*
X111494794Y-92236969D01*
X111324939Y-92275404D01*
X111244423Y-92293623D01*
X111240071Y-92295315D01*
X111240069Y-92295316D01*
X111005176Y-92386660D01*
X111005173Y-92386661D01*
X111000823Y-92388353D01*
X110996769Y-92390670D01*
X110996767Y-92390671D01*
X110918492Y-92435409D01*
X110773902Y-92518049D01*
X110568643Y-92679862D01*
X110389557Y-92870237D01*
X110240576Y-93084991D01*
X110124975Y-93319407D01*
X110045293Y-93568335D01*
X110003279Y-93826307D01*
X109999858Y-94087655D01*
X109728000Y-94087655D01*
X109728000Y-89786695D01*
X129137251Y-89786695D01*
X129137548Y-89791848D01*
X129137548Y-89791851D01*
X129143011Y-89886590D01*
X129150110Y-90009715D01*
X129151247Y-90014761D01*
X129151248Y-90014767D01*
X129171119Y-90102939D01*
X129199222Y-90227639D01*
X129283266Y-90434616D01*
X129285965Y-90439020D01*
X129347565Y-90539542D01*
X129399987Y-90625088D01*
X129546250Y-90793938D01*
X129718126Y-90936632D01*
X129911000Y-91049338D01*
X130119692Y-91129030D01*
X130124760Y-91130061D01*
X130124763Y-91130062D01*
X130232017Y-91151883D01*
X130338597Y-91173567D01*
X130343772Y-91173757D01*
X130343774Y-91173757D01*
X130556673Y-91181564D01*
X130556677Y-91181564D01*
X130561837Y-91181753D01*
X130566957Y-91181097D01*
X130566959Y-91181097D01*
X130778288Y-91154025D01*
X130778289Y-91154025D01*
X130783416Y-91153368D01*
X130788366Y-91151883D01*
X130992429Y-91090661D01*
X130992434Y-91090659D01*
X130997384Y-91089174D01*
X131197994Y-90990896D01*
X131379860Y-90861173D01*
X131387166Y-90853893D01*
X131526757Y-90714788D01*
X131538096Y-90703489D01*
X131555166Y-90679733D01*
X161487822Y-90679733D01*
X161487975Y-90684121D01*
X161487975Y-90684127D01*
X161496706Y-90934127D01*
X161497625Y-90960458D01*
X161498387Y-90964781D01*
X161498388Y-90964788D01*
X161522164Y-91099624D01*
X161546402Y-91237087D01*
X161633203Y-91504235D01*
X161756340Y-91756702D01*
X161758795Y-91760341D01*
X161758798Y-91760347D01*
X161815064Y-91843764D01*
X161913415Y-91989576D01*
X162101371Y-92198322D01*
X162316550Y-92378879D01*
X162554764Y-92527731D01*
X162688484Y-92587267D01*
X162775594Y-92626051D01*
X162811375Y-92641982D01*
X162815603Y-92643194D01*
X162815602Y-92643194D01*
X163046945Y-92709530D01*
X163081390Y-92719407D01*
X163085740Y-92720018D01*
X163085743Y-92720019D01*
X163188690Y-92734487D01*
X163359552Y-92758500D01*
X163570146Y-92758500D01*
X163572332Y-92758347D01*
X163572336Y-92758347D01*
X163775827Y-92744118D01*
X163775832Y-92744117D01*
X163780212Y-92743811D01*
X164054970Y-92685409D01*
X164059099Y-92683906D01*
X164059103Y-92683905D01*
X164314781Y-92590846D01*
X164314785Y-92590844D01*
X164318926Y-92589337D01*
X164566942Y-92457464D01*
X164596042Y-92436322D01*
X164790629Y-92294947D01*
X164790632Y-92294944D01*
X164794192Y-92292358D01*
X164807491Y-92279516D01*
X164894947Y-92195060D01*
X164996252Y-92097231D01*
X165169188Y-91875882D01*
X165171384Y-91872078D01*
X165171389Y-91872071D01*
X165307435Y-91636431D01*
X165309636Y-91632619D01*
X165414862Y-91372176D01*
X165415928Y-91367901D01*
X165481753Y-91103893D01*
X165481754Y-91103888D01*
X165482817Y-91099624D01*
X165483916Y-91089174D01*
X165500673Y-90929733D01*
X172737822Y-90929733D01*
X172737975Y-90934121D01*
X172737975Y-90934127D01*
X172746623Y-91181753D01*
X172747625Y-91210458D01*
X172748387Y-91214781D01*
X172748388Y-91214788D01*
X172772164Y-91349624D01*
X172796402Y-91487087D01*
X172883203Y-91754235D01*
X173006340Y-92006702D01*
X173008795Y-92010341D01*
X173008798Y-92010347D01*
X173030390Y-92042358D01*
X173163415Y-92239576D01*
X173166360Y-92242847D01*
X173166361Y-92242848D01*
X173251376Y-92337267D01*
X173351371Y-92448322D01*
X173566550Y-92628879D01*
X173804764Y-92777731D01*
X173938484Y-92837267D01*
X174021176Y-92874084D01*
X174061375Y-92891982D01*
X174331390Y-92969407D01*
X174335740Y-92970018D01*
X174335743Y-92970019D01*
X174438690Y-92984487D01*
X174609552Y-93008500D01*
X174820146Y-93008500D01*
X174822332Y-93008347D01*
X174822336Y-93008347D01*
X175025827Y-92994118D01*
X175025832Y-92994117D01*
X175030212Y-92993811D01*
X175304970Y-92935409D01*
X175309099Y-92933906D01*
X175309103Y-92933905D01*
X175564781Y-92840846D01*
X175564785Y-92840844D01*
X175568926Y-92839337D01*
X175816942Y-92707464D01*
X175846042Y-92686322D01*
X176040629Y-92544947D01*
X176040632Y-92544944D01*
X176044192Y-92542358D01*
X176057491Y-92529516D01*
X176144947Y-92445060D01*
X176246252Y-92347231D01*
X176419188Y-92125882D01*
X176421384Y-92122078D01*
X176421389Y-92122071D01*
X176557435Y-91886431D01*
X176559636Y-91882619D01*
X176664862Y-91622176D01*
X176694268Y-91504235D01*
X176731753Y-91353893D01*
X176731754Y-91353888D01*
X176732817Y-91349624D01*
X176745100Y-91232764D01*
X176761719Y-91074636D01*
X176761719Y-91074633D01*
X176762178Y-91070267D01*
X176761512Y-91051181D01*
X176752529Y-90793939D01*
X176752528Y-90793933D01*
X176752375Y-90789542D01*
X176738431Y-90710458D01*
X176704360Y-90517236D01*
X176703598Y-90512913D01*
X176676571Y-90429733D01*
X183987822Y-90429733D01*
X183987975Y-90434121D01*
X183987975Y-90434127D01*
X183997382Y-90703489D01*
X183997625Y-90710458D01*
X183998387Y-90714781D01*
X183998388Y-90714788D01*
X184024200Y-90861173D01*
X184046402Y-90987087D01*
X184133203Y-91254235D01*
X184135131Y-91258188D01*
X184135133Y-91258193D01*
X184181810Y-91353893D01*
X184256340Y-91506702D01*
X184258795Y-91510341D01*
X184258798Y-91510347D01*
X184331344Y-91617901D01*
X184413415Y-91739576D01*
X184601371Y-91948322D01*
X184816550Y-92128879D01*
X185054764Y-92277731D01*
X185188484Y-92337267D01*
X185299422Y-92386660D01*
X185311375Y-92391982D01*
X185315603Y-92393194D01*
X185315602Y-92393194D01*
X185546945Y-92459530D01*
X185581390Y-92469407D01*
X185585740Y-92470018D01*
X185585743Y-92470019D01*
X185688690Y-92484487D01*
X185859552Y-92508500D01*
X186070146Y-92508500D01*
X186072332Y-92508347D01*
X186072336Y-92508347D01*
X186275827Y-92494118D01*
X186275832Y-92494117D01*
X186280212Y-92493811D01*
X186554970Y-92435409D01*
X186559099Y-92433906D01*
X186559103Y-92433905D01*
X186814781Y-92340846D01*
X186814785Y-92340844D01*
X186818926Y-92339337D01*
X187066942Y-92207464D01*
X187171896Y-92131211D01*
X187290629Y-92044947D01*
X187290632Y-92044944D01*
X187294192Y-92042358D01*
X187327341Y-92010347D01*
X187455659Y-91886431D01*
X187496252Y-91847231D01*
X187669188Y-91625882D01*
X187671384Y-91622078D01*
X187671389Y-91622071D01*
X187807435Y-91386431D01*
X187809636Y-91382619D01*
X187914862Y-91122176D01*
X187915928Y-91117901D01*
X187981753Y-90853893D01*
X187981754Y-90853888D01*
X187982817Y-90849624D01*
X187985444Y-90824636D01*
X188011719Y-90574636D01*
X188011719Y-90574633D01*
X188012178Y-90570267D01*
X188011259Y-90543939D01*
X188002529Y-90293939D01*
X188002528Y-90293933D01*
X188002375Y-90289542D01*
X187978608Y-90154749D01*
X187954360Y-90017236D01*
X187953598Y-90012913D01*
X187866797Y-89745765D01*
X187743660Y-89493298D01*
X187741205Y-89489659D01*
X187741202Y-89489653D01*
X187614411Y-89301678D01*
X187586585Y-89260424D01*
X187398629Y-89051678D01*
X187183450Y-88871121D01*
X186945236Y-88722269D01*
X186730516Y-88626669D01*
X186692639Y-88609805D01*
X186692637Y-88609804D01*
X186688625Y-88608018D01*
X186533992Y-88563678D01*
X186422837Y-88531805D01*
X186422836Y-88531805D01*
X186418610Y-88530593D01*
X186414260Y-88529982D01*
X186414257Y-88529981D01*
X186267372Y-88509338D01*
X186140448Y-88491500D01*
X185929854Y-88491500D01*
X185927668Y-88491653D01*
X185927664Y-88491653D01*
X185724173Y-88505882D01*
X185724168Y-88505883D01*
X185719788Y-88506189D01*
X185445030Y-88564591D01*
X185440901Y-88566094D01*
X185440897Y-88566095D01*
X185185219Y-88659154D01*
X185185215Y-88659156D01*
X185181074Y-88660663D01*
X184933058Y-88792536D01*
X184929499Y-88795122D01*
X184929497Y-88795123D01*
X184824895Y-88871121D01*
X184705808Y-88957642D01*
X184702644Y-88960698D01*
X184702641Y-88960700D01*
X184630899Y-89029981D01*
X184503748Y-89152769D01*
X184330812Y-89374118D01*
X184328616Y-89377922D01*
X184328611Y-89377929D01*
X184250008Y-89514075D01*
X184190364Y-89617381D01*
X184085138Y-89877824D01*
X184084073Y-89882097D01*
X184084072Y-89882099D01*
X184022806Y-90127824D01*
X184017183Y-90150376D01*
X184016724Y-90154744D01*
X184016723Y-90154749D01*
X183999165Y-90321811D01*
X183987822Y-90429733D01*
X176676571Y-90429733D01*
X176616797Y-90245765D01*
X176607957Y-90227639D01*
X176504131Y-90014767D01*
X176493660Y-89993298D01*
X176491205Y-89989659D01*
X176491202Y-89989653D01*
X176374507Y-89816646D01*
X176336585Y-89760424D01*
X176148629Y-89551678D01*
X175933450Y-89371121D01*
X175695236Y-89222269D01*
X175515376Y-89142190D01*
X175442639Y-89109805D01*
X175442637Y-89109804D01*
X175438625Y-89108018D01*
X175232301Y-89048856D01*
X175172837Y-89031805D01*
X175172836Y-89031805D01*
X175168610Y-89030593D01*
X175164260Y-89029982D01*
X175164257Y-89029981D01*
X175061310Y-89015513D01*
X174890448Y-88991500D01*
X174679854Y-88991500D01*
X174677668Y-88991653D01*
X174677664Y-88991653D01*
X174474173Y-89005882D01*
X174474168Y-89005883D01*
X174469788Y-89006189D01*
X174195030Y-89064591D01*
X174190901Y-89066094D01*
X174190897Y-89066095D01*
X173935219Y-89159154D01*
X173935215Y-89159156D01*
X173931074Y-89160663D01*
X173683058Y-89292536D01*
X173679499Y-89295122D01*
X173679497Y-89295123D01*
X173526563Y-89406236D01*
X173455808Y-89457642D01*
X173452644Y-89460698D01*
X173452641Y-89460700D01*
X173397370Y-89514075D01*
X173253748Y-89652769D01*
X173080812Y-89874118D01*
X173078616Y-89877922D01*
X173078611Y-89877929D01*
X172999608Y-90014767D01*
X172940364Y-90117381D01*
X172835138Y-90377824D01*
X172834073Y-90382097D01*
X172834072Y-90382099D01*
X172774585Y-90620689D01*
X172767183Y-90650376D01*
X172766724Y-90654744D01*
X172766723Y-90654749D01*
X172738281Y-90925364D01*
X172737822Y-90929733D01*
X165500673Y-90929733D01*
X165511719Y-90824636D01*
X165511719Y-90824633D01*
X165512178Y-90820267D01*
X165511259Y-90793938D01*
X165502529Y-90543939D01*
X165502528Y-90543933D01*
X165502375Y-90539542D01*
X165499296Y-90522077D01*
X165454360Y-90267236D01*
X165453598Y-90262913D01*
X165366797Y-89995765D01*
X165243660Y-89743298D01*
X165241205Y-89739659D01*
X165241202Y-89739653D01*
X165148706Y-89602522D01*
X165086585Y-89510424D01*
X164898629Y-89301678D01*
X164683450Y-89121121D01*
X164445236Y-88972269D01*
X164265376Y-88892190D01*
X164192639Y-88859805D01*
X164192637Y-88859804D01*
X164188625Y-88858018D01*
X163977677Y-88797530D01*
X163922837Y-88781805D01*
X163922836Y-88781805D01*
X163918610Y-88780593D01*
X163914260Y-88779982D01*
X163914257Y-88779981D01*
X163811310Y-88765513D01*
X163640448Y-88741500D01*
X163429854Y-88741500D01*
X163427668Y-88741653D01*
X163427664Y-88741653D01*
X163224173Y-88755882D01*
X163224168Y-88755883D01*
X163219788Y-88756189D01*
X162945030Y-88814591D01*
X162940901Y-88816094D01*
X162940897Y-88816095D01*
X162685219Y-88909154D01*
X162685215Y-88909156D01*
X162681074Y-88910663D01*
X162433058Y-89042536D01*
X162429499Y-89045122D01*
X162429497Y-89045123D01*
X162249580Y-89175840D01*
X162205808Y-89207642D01*
X162202644Y-89210698D01*
X162202641Y-89210700D01*
X162147370Y-89264075D01*
X162003748Y-89402769D01*
X161919639Y-89510424D01*
X161847685Y-89602522D01*
X161830812Y-89624118D01*
X161828616Y-89627922D01*
X161828611Y-89627929D01*
X161736948Y-89786695D01*
X161690364Y-89867381D01*
X161585138Y-90127824D01*
X161584073Y-90132097D01*
X161584072Y-90132099D01*
X161522806Y-90377824D01*
X161517183Y-90400376D01*
X161516724Y-90404744D01*
X161516723Y-90404749D01*
X161493565Y-90625088D01*
X161487822Y-90679733D01*
X131555166Y-90679733D01*
X131597594Y-90620689D01*
X131665435Y-90526277D01*
X131668453Y-90522077D01*
X131711921Y-90434127D01*
X131765136Y-90326453D01*
X131765137Y-90326451D01*
X131767430Y-90321811D01*
X131799900Y-90214940D01*
X131830865Y-90113023D01*
X131830865Y-90113021D01*
X131832370Y-90108069D01*
X131861529Y-89886590D01*
X131861899Y-89871461D01*
X131863074Y-89823365D01*
X131863074Y-89823361D01*
X131863156Y-89820000D01*
X131844852Y-89597361D01*
X131790431Y-89380702D01*
X131701354Y-89175840D01*
X131621030Y-89051678D01*
X131582822Y-88992617D01*
X131582820Y-88992614D01*
X131580014Y-88988277D01*
X131429670Y-88823051D01*
X131425619Y-88819852D01*
X131425615Y-88819848D01*
X131258414Y-88687800D01*
X131258410Y-88687798D01*
X131254359Y-88684598D01*
X131213053Y-88661796D01*
X131163084Y-88611364D01*
X131148312Y-88541921D01*
X131173428Y-88475516D01*
X131200780Y-88448909D01*
X131244603Y-88417650D01*
X131379860Y-88321173D01*
X131538096Y-88163489D01*
X131597594Y-88080689D01*
X131665435Y-87986277D01*
X131668453Y-87982077D01*
X131767430Y-87781811D01*
X131832370Y-87568069D01*
X131861529Y-87346590D01*
X131863156Y-87280000D01*
X131844852Y-87057361D01*
X131790431Y-86840702D01*
X131701354Y-86635840D01*
X131580014Y-86448277D01*
X131429670Y-86283051D01*
X131425619Y-86279852D01*
X131425615Y-86279848D01*
X131258414Y-86147800D01*
X131258410Y-86147798D01*
X131254359Y-86144598D01*
X131213053Y-86121796D01*
X131163084Y-86071364D01*
X131148312Y-86001921D01*
X131173428Y-85935516D01*
X131200780Y-85908909D01*
X131244603Y-85877650D01*
X131379860Y-85781173D01*
X131538096Y-85623489D01*
X131597594Y-85540689D01*
X131665435Y-85446277D01*
X131668453Y-85442077D01*
X131688889Y-85400729D01*
X131765136Y-85246453D01*
X131765137Y-85246451D01*
X131767430Y-85241811D01*
X131832370Y-85028069D01*
X131861529Y-84806590D01*
X131863156Y-84740000D01*
X131844852Y-84517361D01*
X131790431Y-84300702D01*
X131701354Y-84095840D01*
X131580014Y-83908277D01*
X131576540Y-83904459D01*
X131576533Y-83904450D01*
X131432435Y-83746088D01*
X131401383Y-83682242D01*
X131409779Y-83611744D01*
X131454956Y-83556976D01*
X131481400Y-83543307D01*
X131588052Y-83503325D01*
X131603649Y-83494786D01*
X131705724Y-83418285D01*
X131718285Y-83405724D01*
X131794786Y-83303649D01*
X131803324Y-83288054D01*
X131848478Y-83167606D01*
X131852105Y-83152351D01*
X131857631Y-83101486D01*
X131858000Y-83094672D01*
X131858000Y-82472115D01*
X131853525Y-82456876D01*
X131852135Y-82455671D01*
X131844452Y-82454000D01*
X129160116Y-82454000D01*
X129144877Y-82458475D01*
X129143672Y-82459865D01*
X129142001Y-82467548D01*
X129142001Y-83094669D01*
X129142371Y-83101490D01*
X129147895Y-83152352D01*
X129151521Y-83167604D01*
X129196676Y-83288054D01*
X129205214Y-83303649D01*
X129281715Y-83405724D01*
X129294276Y-83418285D01*
X129396351Y-83494786D01*
X129411946Y-83503324D01*
X129520827Y-83544142D01*
X129577591Y-83586784D01*
X129602291Y-83653345D01*
X129587083Y-83722694D01*
X129567691Y-83749175D01*
X129444200Y-83878401D01*
X129440629Y-83882138D01*
X129314743Y-84066680D01*
X129220688Y-84269305D01*
X129160989Y-84484570D01*
X129137251Y-84706695D01*
X129137548Y-84711848D01*
X129137548Y-84711851D01*
X129143011Y-84806590D01*
X129150110Y-84929715D01*
X129151247Y-84934761D01*
X129151248Y-84934767D01*
X129164785Y-84994831D01*
X129199222Y-85147639D01*
X129283266Y-85354616D01*
X129399987Y-85545088D01*
X129546250Y-85713938D01*
X129718126Y-85856632D01*
X129788595Y-85897811D01*
X129791445Y-85899476D01*
X129840169Y-85951114D01*
X129853240Y-86020897D01*
X129826509Y-86086669D01*
X129786055Y-86120027D01*
X129773607Y-86126507D01*
X129769474Y-86129610D01*
X129769471Y-86129612D01*
X129745247Y-86147800D01*
X129594965Y-86260635D01*
X129440629Y-86422138D01*
X129314743Y-86606680D01*
X129220688Y-86809305D01*
X129160989Y-87024570D01*
X129137251Y-87246695D01*
X129137548Y-87251848D01*
X129137548Y-87251851D01*
X129143011Y-87346590D01*
X129150110Y-87469715D01*
X129151247Y-87474761D01*
X129151248Y-87474767D01*
X129171119Y-87562939D01*
X129199222Y-87687639D01*
X129283266Y-87894616D01*
X129399987Y-88085088D01*
X129546250Y-88253938D01*
X129718126Y-88396632D01*
X129788595Y-88437811D01*
X129791445Y-88439476D01*
X129840169Y-88491114D01*
X129853240Y-88560897D01*
X129826509Y-88626669D01*
X129786055Y-88660027D01*
X129773607Y-88666507D01*
X129769474Y-88669610D01*
X129769471Y-88669612D01*
X129602306Y-88795123D01*
X129594965Y-88800635D01*
X129591393Y-88804373D01*
X129447400Y-88955053D01*
X129440629Y-88962138D01*
X129437715Y-88966410D01*
X129437714Y-88966411D01*
X129385785Y-89042536D01*
X129314743Y-89146680D01*
X129279656Y-89222269D01*
X129242796Y-89301678D01*
X129220688Y-89349305D01*
X129160989Y-89564570D01*
X129137251Y-89786695D01*
X109728000Y-89786695D01*
X109728000Y-84998248D01*
X113396377Y-84998248D01*
X113403132Y-85060430D01*
X113454262Y-85196819D01*
X113541616Y-85313375D01*
X113658172Y-85400729D01*
X113794561Y-85451859D01*
X113856743Y-85458614D01*
X117253011Y-85458614D01*
X117315193Y-85451859D01*
X117451582Y-85400729D01*
X117568138Y-85313375D01*
X117655492Y-85196819D01*
X117706622Y-85060430D01*
X117713377Y-84998248D01*
X117713377Y-83034411D01*
X117733379Y-82966290D01*
X117787035Y-82919797D01*
X117839377Y-82908411D01*
X118373191Y-82908411D01*
X118435373Y-82901656D01*
X118462653Y-82891429D01*
X118506883Y-82883411D01*
X120828475Y-82883411D01*
X120839658Y-82883938D01*
X120847151Y-82885613D01*
X120855077Y-82885364D01*
X120855078Y-82885364D01*
X120915228Y-82883473D01*
X120919187Y-82883411D01*
X120947098Y-82883411D01*
X120951033Y-82882914D01*
X120951098Y-82882906D01*
X120962935Y-82881973D01*
X120995193Y-82880959D01*
X120999212Y-82880833D01*
X121007131Y-82880584D01*
X121026585Y-82874932D01*
X121045942Y-82870924D01*
X121058172Y-82869379D01*
X121058173Y-82869379D01*
X121066039Y-82868385D01*
X121073410Y-82865466D01*
X121073412Y-82865466D01*
X121107154Y-82852107D01*
X121118384Y-82848262D01*
X121153225Y-82838140D01*
X121153226Y-82838140D01*
X121160835Y-82835929D01*
X121167654Y-82831896D01*
X121167659Y-82831894D01*
X121178270Y-82825618D01*
X121196018Y-82816923D01*
X121214859Y-82809463D01*
X121250629Y-82783475D01*
X121260549Y-82776959D01*
X121291777Y-82758491D01*
X121291780Y-82758489D01*
X121298604Y-82754453D01*
X121312925Y-82740132D01*
X121327959Y-82727291D01*
X121337936Y-82720042D01*
X121344349Y-82715383D01*
X121372540Y-82681306D01*
X121380530Y-82672527D01*
X122125172Y-81927885D01*
X129142000Y-81927885D01*
X129146475Y-81943124D01*
X129147865Y-81944329D01*
X129155548Y-81946000D01*
X130227885Y-81946000D01*
X130243124Y-81941525D01*
X130244329Y-81940135D01*
X130246000Y-81932452D01*
X130246000Y-81927885D01*
X130754000Y-81927885D01*
X130758475Y-81943124D01*
X130759865Y-81944329D01*
X130767548Y-81946000D01*
X131839884Y-81946000D01*
X131855123Y-81941525D01*
X131856328Y-81940135D01*
X131857999Y-81932452D01*
X131857999Y-81305331D01*
X131857629Y-81298510D01*
X131852105Y-81247648D01*
X131848479Y-81232396D01*
X131803324Y-81111946D01*
X131794786Y-81096351D01*
X131718285Y-80994276D01*
X131705724Y-80981715D01*
X131603649Y-80905214D01*
X131588054Y-80896676D01*
X131467606Y-80851522D01*
X131452351Y-80847895D01*
X131401486Y-80842369D01*
X131394672Y-80842000D01*
X130772115Y-80842000D01*
X130756876Y-80846475D01*
X130755671Y-80847865D01*
X130754000Y-80855548D01*
X130754000Y-81927885D01*
X130246000Y-81927885D01*
X130246000Y-80860116D01*
X130241525Y-80844877D01*
X130240135Y-80843672D01*
X130232452Y-80842001D01*
X129605331Y-80842001D01*
X129598510Y-80842371D01*
X129547648Y-80847895D01*
X129532396Y-80851521D01*
X129411946Y-80896676D01*
X129396351Y-80905214D01*
X129294276Y-80981715D01*
X129281715Y-80994276D01*
X129205214Y-81096351D01*
X129196676Y-81111946D01*
X129151522Y-81232394D01*
X129147895Y-81247649D01*
X129142369Y-81298514D01*
X129142000Y-81305328D01*
X129142000Y-81927885D01*
X122125172Y-81927885D01*
X126678595Y-77374462D01*
X126740907Y-77340436D01*
X126811722Y-77345501D01*
X126868558Y-77388048D01*
X126884842Y-77417173D01*
X126897804Y-77449911D01*
X126901649Y-77461142D01*
X126913982Y-77503593D01*
X126918015Y-77510412D01*
X126918017Y-77510417D01*
X126924293Y-77521028D01*
X126932988Y-77538776D01*
X126940448Y-77557617D01*
X126945110Y-77564033D01*
X126945110Y-77564034D01*
X126966436Y-77593387D01*
X126972952Y-77603307D01*
X126978892Y-77613350D01*
X126995458Y-77641362D01*
X127009779Y-77655683D01*
X127022619Y-77670716D01*
X127034528Y-77687107D01*
X127050564Y-77700373D01*
X127068605Y-77715298D01*
X127077384Y-77723288D01*
X129246343Y-79892247D01*
X129253887Y-79900537D01*
X129258000Y-79907018D01*
X129263777Y-79912443D01*
X129307667Y-79953658D01*
X129310509Y-79956413D01*
X129330231Y-79976135D01*
X129333355Y-79978558D01*
X129333359Y-79978562D01*
X129333424Y-79978612D01*
X129342445Y-79986317D01*
X129374679Y-80016586D01*
X129381627Y-80020405D01*
X129381629Y-80020407D01*
X129392432Y-80026346D01*
X129408959Y-80037202D01*
X129418698Y-80044757D01*
X129418700Y-80044758D01*
X129424960Y-80049614D01*
X129465540Y-80067174D01*
X129476188Y-80072391D01*
X129503557Y-80087437D01*
X129514940Y-80093695D01*
X129522616Y-80095666D01*
X129522619Y-80095667D01*
X129534562Y-80098733D01*
X129553267Y-80105137D01*
X129571855Y-80113181D01*
X129579678Y-80114420D01*
X129579688Y-80114423D01*
X129615524Y-80120099D01*
X129627144Y-80122505D01*
X129662289Y-80131528D01*
X129669970Y-80133500D01*
X129690224Y-80133500D01*
X129709934Y-80135051D01*
X129729943Y-80138220D01*
X129737835Y-80137474D01*
X129773961Y-80134059D01*
X129785819Y-80133500D01*
X137185406Y-80133500D01*
X137253527Y-80153502D01*
X137274501Y-80170405D01*
X139236343Y-82132247D01*
X139243887Y-82140537D01*
X139248000Y-82147018D01*
X139253777Y-82152443D01*
X139297667Y-82193658D01*
X139300509Y-82196413D01*
X139320230Y-82216134D01*
X139323425Y-82218612D01*
X139332447Y-82226318D01*
X139364679Y-82256586D01*
X139371628Y-82260406D01*
X139382432Y-82266346D01*
X139398956Y-82277199D01*
X139414959Y-82289613D01*
X139455543Y-82307176D01*
X139466173Y-82312383D01*
X139504940Y-82333695D01*
X139512617Y-82335666D01*
X139512622Y-82335668D01*
X139524558Y-82338732D01*
X139543266Y-82345137D01*
X139561855Y-82353181D01*
X139569680Y-82354420D01*
X139569682Y-82354421D01*
X139605519Y-82360097D01*
X139617140Y-82362504D01*
X139652289Y-82371528D01*
X139659970Y-82373500D01*
X139680231Y-82373500D01*
X139699940Y-82375051D01*
X139719943Y-82378219D01*
X139727835Y-82377473D01*
X139733062Y-82376979D01*
X139763954Y-82374059D01*
X139775811Y-82373500D01*
X140280606Y-82373500D01*
X140348727Y-82393502D01*
X140383819Y-82427229D01*
X140490643Y-82579789D01*
X140493802Y-82584300D01*
X140655700Y-82746198D01*
X140660208Y-82749355D01*
X140660211Y-82749357D01*
X140723671Y-82793792D01*
X140843251Y-82877523D01*
X140848233Y-82879846D01*
X140848238Y-82879849D01*
X141045775Y-82971961D01*
X141050757Y-82974284D01*
X141056065Y-82975706D01*
X141056067Y-82975707D01*
X141266598Y-83032119D01*
X141266600Y-83032119D01*
X141271913Y-83033543D01*
X141500000Y-83053498D01*
X141728087Y-83033543D01*
X141733400Y-83032119D01*
X141733402Y-83032119D01*
X141943933Y-82975707D01*
X141943935Y-82975706D01*
X141949243Y-82974284D01*
X141954225Y-82971961D01*
X142151762Y-82879849D01*
X142151767Y-82879846D01*
X142156749Y-82877523D01*
X142276329Y-82793792D01*
X142339789Y-82749357D01*
X142339792Y-82749355D01*
X142344300Y-82746198D01*
X142506198Y-82584300D01*
X142509357Y-82579789D01*
X142616181Y-82427229D01*
X142671638Y-82382901D01*
X142719394Y-82373500D01*
X147900606Y-82373500D01*
X147968727Y-82393502D01*
X148003819Y-82427229D01*
X148110643Y-82579789D01*
X148113802Y-82584300D01*
X148275700Y-82746198D01*
X148280208Y-82749355D01*
X148280211Y-82749357D01*
X148343671Y-82793792D01*
X148463251Y-82877523D01*
X148468233Y-82879846D01*
X148468238Y-82879849D01*
X148665775Y-82971961D01*
X148670757Y-82974284D01*
X148676065Y-82975706D01*
X148676067Y-82975707D01*
X148886598Y-83032119D01*
X148886600Y-83032119D01*
X148891913Y-83033543D01*
X149120000Y-83053498D01*
X149348087Y-83033543D01*
X149353400Y-83032119D01*
X149353402Y-83032119D01*
X149563933Y-82975707D01*
X149563935Y-82975706D01*
X149569243Y-82974284D01*
X149574225Y-82971961D01*
X149771762Y-82879849D01*
X149771767Y-82879846D01*
X149776749Y-82877523D01*
X149896329Y-82793792D01*
X149959789Y-82749357D01*
X149959792Y-82749355D01*
X149964300Y-82746198D01*
X150126198Y-82584300D01*
X150257523Y-82396749D01*
X150259846Y-82391767D01*
X150259849Y-82391762D01*
X150317575Y-82267966D01*
X165628257Y-82267966D01*
X165658565Y-82402446D01*
X165661645Y-82412275D01*
X165741770Y-82609603D01*
X165746413Y-82618794D01*
X165857694Y-82800388D01*
X165863777Y-82808699D01*
X166003213Y-82969667D01*
X166010580Y-82976883D01*
X166174434Y-83112916D01*
X166182881Y-83118831D01*
X166366756Y-83226279D01*
X166376042Y-83230729D01*
X166575001Y-83306703D01*
X166584899Y-83309579D01*
X166688250Y-83330606D01*
X166702299Y-83329410D01*
X166706000Y-83319065D01*
X166706000Y-82272115D01*
X166701525Y-82256876D01*
X166700135Y-82255671D01*
X166692452Y-82254000D01*
X165643225Y-82254000D01*
X165629694Y-82257973D01*
X165628257Y-82267966D01*
X150317575Y-82267966D01*
X150351961Y-82194225D01*
X150351961Y-82194224D01*
X150354284Y-82189243D01*
X150413543Y-81968087D01*
X150433498Y-81740000D01*
X150432989Y-81734183D01*
X165624389Y-81734183D01*
X165625912Y-81742607D01*
X165638292Y-81746000D01*
X166687885Y-81746000D01*
X166703124Y-81741525D01*
X166704329Y-81740135D01*
X166706000Y-81732452D01*
X166706000Y-80683102D01*
X166702082Y-80669758D01*
X166687806Y-80667771D01*
X166649324Y-80673660D01*
X166639288Y-80676051D01*
X166436868Y-80742212D01*
X166427359Y-80746209D01*
X166238463Y-80844542D01*
X166229738Y-80850036D01*
X166059433Y-80977905D01*
X166051726Y-80984748D01*
X165904590Y-81138717D01*
X165898104Y-81146727D01*
X165778098Y-81322649D01*
X165773000Y-81331623D01*
X165683338Y-81524783D01*
X165679775Y-81534470D01*
X165624389Y-81734183D01*
X150432989Y-81734183D01*
X150413543Y-81511913D01*
X150409279Y-81496000D01*
X150355707Y-81296067D01*
X150355706Y-81296065D01*
X150354284Y-81290757D01*
X150327069Y-81232394D01*
X150259849Y-81088238D01*
X150259846Y-81088233D01*
X150257523Y-81083251D01*
X150165319Y-80951570D01*
X150129357Y-80900211D01*
X150129355Y-80900208D01*
X150126198Y-80895700D01*
X149964300Y-80733802D01*
X149959792Y-80730645D01*
X149959789Y-80730643D01*
X149878409Y-80673660D01*
X149776749Y-80602477D01*
X149771767Y-80600154D01*
X149771762Y-80600151D01*
X149737543Y-80584195D01*
X149684258Y-80537278D01*
X149664797Y-80469001D01*
X149685339Y-80401041D01*
X149737543Y-80355805D01*
X149771762Y-80339849D01*
X149771767Y-80339846D01*
X149776749Y-80337523D01*
X149942611Y-80221385D01*
X149959789Y-80209357D01*
X149959792Y-80209355D01*
X149964300Y-80206198D01*
X150126198Y-80044300D01*
X150135426Y-80031122D01*
X150191159Y-79951526D01*
X150257523Y-79856749D01*
X150259846Y-79851767D01*
X150259849Y-79851762D01*
X150351961Y-79654225D01*
X150351961Y-79654224D01*
X150354284Y-79649243D01*
X150372323Y-79581923D01*
X150412119Y-79433402D01*
X150412119Y-79433400D01*
X150413543Y-79428087D01*
X150433498Y-79200000D01*
X150413543Y-78971913D01*
X150402620Y-78931149D01*
X150355707Y-78756067D01*
X150355706Y-78756065D01*
X150354284Y-78750757D01*
X150346528Y-78734124D01*
X150259849Y-78548238D01*
X150259846Y-78548233D01*
X150257523Y-78543251D01*
X150159696Y-78403540D01*
X150129357Y-78360211D01*
X150129355Y-78360208D01*
X150126198Y-78355700D01*
X149964300Y-78193802D01*
X149959792Y-78190645D01*
X149959789Y-78190643D01*
X149881611Y-78135902D01*
X149776749Y-78062477D01*
X149771767Y-78060154D01*
X149771762Y-78060151D01*
X149736951Y-78043919D01*
X149683666Y-77997002D01*
X149664205Y-77928725D01*
X149684747Y-77860765D01*
X149736951Y-77815529D01*
X149771511Y-77799414D01*
X149781007Y-77793931D01*
X149959467Y-77668972D01*
X149967875Y-77661916D01*
X150121916Y-77507875D01*
X150128972Y-77499467D01*
X150253931Y-77321007D01*
X150259414Y-77311511D01*
X150351490Y-77114053D01*
X150355236Y-77103761D01*
X150401394Y-76931497D01*
X150401058Y-76917401D01*
X150393116Y-76914000D01*
X147852033Y-76914000D01*
X147838502Y-76917973D01*
X147837273Y-76926522D01*
X147884764Y-77103761D01*
X147888510Y-77114053D01*
X147957844Y-77262739D01*
X147968505Y-77332930D01*
X147939525Y-77397743D01*
X147880106Y-77436600D01*
X147843649Y-77441989D01*
X142776351Y-77441989D01*
X142708230Y-77421987D01*
X142661737Y-77368331D01*
X142651633Y-77298057D01*
X142662156Y-77262739D01*
X142731490Y-77114053D01*
X142735236Y-77103761D01*
X142781394Y-76931497D01*
X142781058Y-76917401D01*
X142773116Y-76914000D01*
X140232033Y-76914000D01*
X140218502Y-76917973D01*
X140217273Y-76926522D01*
X140240090Y-77011677D01*
X140238400Y-77082654D01*
X140198606Y-77141449D01*
X140133341Y-77169397D01*
X140063327Y-77157623D01*
X140029287Y-77133383D01*
X139978559Y-77082654D01*
X139670404Y-76774499D01*
X139636379Y-76712187D01*
X139633500Y-76685404D01*
X139633500Y-74815826D01*
X139634027Y-74804643D01*
X139635702Y-74797150D01*
X139634255Y-74751101D01*
X139633562Y-74729073D01*
X139633500Y-74725114D01*
X139633500Y-74697203D01*
X139632995Y-74693203D01*
X139632062Y-74681360D01*
X139630922Y-74645088D01*
X139630673Y-74637169D01*
X139625022Y-74617717D01*
X139621014Y-74598365D01*
X139620120Y-74591294D01*
X139618474Y-74578262D01*
X139615556Y-74570891D01*
X139602200Y-74537156D01*
X139598355Y-74525929D01*
X139593458Y-74509074D01*
X139586018Y-74483466D01*
X139575707Y-74466031D01*
X139567012Y-74448283D01*
X139559552Y-74429442D01*
X139533564Y-74393672D01*
X139528867Y-74386522D01*
X140217273Y-74386522D01*
X140264764Y-74563761D01*
X140268510Y-74574053D01*
X140360586Y-74771511D01*
X140366069Y-74781007D01*
X140491028Y-74959467D01*
X140498084Y-74967875D01*
X140652125Y-75121916D01*
X140660533Y-75128972D01*
X140838993Y-75253931D01*
X140848489Y-75259414D01*
X140883641Y-75275805D01*
X140936926Y-75322722D01*
X140956387Y-75390999D01*
X140935845Y-75458959D01*
X140883641Y-75504195D01*
X140848489Y-75520586D01*
X140838993Y-75526069D01*
X140660533Y-75651028D01*
X140652125Y-75658084D01*
X140498084Y-75812125D01*
X140491028Y-75820533D01*
X140366069Y-75998993D01*
X140360586Y-76008489D01*
X140268510Y-76205947D01*
X140264764Y-76216239D01*
X140218606Y-76388503D01*
X140218942Y-76402599D01*
X140226884Y-76406000D01*
X141227885Y-76406000D01*
X141243124Y-76401525D01*
X141244329Y-76400135D01*
X141246000Y-76392452D01*
X141246000Y-76387885D01*
X141754000Y-76387885D01*
X141758475Y-76403124D01*
X141759865Y-76404329D01*
X141767548Y-76406000D01*
X142767967Y-76406000D01*
X142781498Y-76402027D01*
X142782727Y-76393478D01*
X142735236Y-76216239D01*
X142731490Y-76205947D01*
X142639414Y-76008489D01*
X142633931Y-75998993D01*
X142508972Y-75820533D01*
X142501916Y-75812125D01*
X142347875Y-75658084D01*
X142339467Y-75651028D01*
X142161007Y-75526069D01*
X142151511Y-75520586D01*
X142116359Y-75504195D01*
X142063074Y-75457278D01*
X142043613Y-75389001D01*
X142064155Y-75321041D01*
X142116359Y-75275805D01*
X142151511Y-75259414D01*
X142161007Y-75253931D01*
X142339467Y-75128972D01*
X142347875Y-75121916D01*
X142501916Y-74967875D01*
X142508972Y-74959467D01*
X142633931Y-74781007D01*
X142639414Y-74771511D01*
X142731490Y-74574053D01*
X142735236Y-74563761D01*
X142781394Y-74391497D01*
X142781058Y-74377401D01*
X142773116Y-74374000D01*
X141772115Y-74374000D01*
X141756876Y-74378475D01*
X141755671Y-74379865D01*
X141754000Y-74387548D01*
X141754000Y-76387885D01*
X141246000Y-76387885D01*
X141246000Y-74392115D01*
X141241525Y-74376876D01*
X141240135Y-74375671D01*
X141232452Y-74374000D01*
X140232033Y-74374000D01*
X140218502Y-74377973D01*
X140217273Y-74386522D01*
X139528867Y-74386522D01*
X139527048Y-74383752D01*
X139508580Y-74352524D01*
X139508578Y-74352521D01*
X139504542Y-74345697D01*
X139490221Y-74331376D01*
X139477380Y-74316342D01*
X139470131Y-74306365D01*
X139465472Y-74299952D01*
X139431395Y-74271761D01*
X139422616Y-74263771D01*
X134030690Y-68871844D01*
X134023150Y-68863558D01*
X134019038Y-68857079D01*
X133969386Y-68810453D01*
X133966545Y-68807699D01*
X133946808Y-68787962D01*
X133943611Y-68785482D01*
X133934589Y-68777777D01*
X133908138Y-68752938D01*
X133902359Y-68747511D01*
X133895413Y-68743692D01*
X133895410Y-68743690D01*
X133884604Y-68737749D01*
X133868085Y-68726898D01*
X133867621Y-68726538D01*
X133852079Y-68714483D01*
X133844810Y-68711338D01*
X133844806Y-68711335D01*
X133811501Y-68696923D01*
X133800851Y-68691706D01*
X133762098Y-68670402D01*
X133742475Y-68665364D01*
X133723772Y-68658960D01*
X133712456Y-68654063D01*
X133712454Y-68654062D01*
X133705183Y-68650916D01*
X133705590Y-68649975D01*
X133651772Y-68615601D01*
X133645948Y-68608399D01*
X133640299Y-68600862D01*
X133523743Y-68513508D01*
X133387354Y-68462378D01*
X133325172Y-68455623D01*
X131986672Y-68455623D01*
X131918551Y-68435621D01*
X131872058Y-68381965D01*
X131860672Y-68329623D01*
X131860672Y-64916014D01*
X131853917Y-64853832D01*
X131802787Y-64717443D01*
X131715433Y-64600887D01*
X131598877Y-64513533D01*
X131462488Y-64462403D01*
X131400306Y-64455648D01*
X128304038Y-64455648D01*
X128241856Y-64462403D01*
X128105467Y-64513533D01*
X127988911Y-64600887D01*
X127901557Y-64717443D01*
X127850427Y-64853832D01*
X127843672Y-64916014D01*
X127843672Y-68412282D01*
X127850427Y-68474464D01*
X127901557Y-68610853D01*
X127988911Y-68727409D01*
X128105467Y-68814763D01*
X128241856Y-68865893D01*
X128304038Y-68872648D01*
X130442538Y-68872648D01*
X130510659Y-68892650D01*
X130557152Y-68946306D01*
X130568538Y-68998648D01*
X130568538Y-69504597D01*
X130548536Y-69572718D01*
X130494880Y-69619211D01*
X130442538Y-69630597D01*
X128564666Y-69630597D01*
X128553482Y-69630070D01*
X128545994Y-69628396D01*
X128538071Y-69628645D01*
X128477936Y-69630535D01*
X128473978Y-69630597D01*
X128446047Y-69630597D01*
X128442132Y-69631092D01*
X128442128Y-69631092D01*
X128442070Y-69631100D01*
X128442041Y-69631103D01*
X128430199Y-69632036D01*
X128386013Y-69633424D01*
X128377394Y-69635928D01*
X128366561Y-69639075D01*
X128347209Y-69643083D01*
X128334971Y-69644629D01*
X128334969Y-69644630D01*
X128327106Y-69645623D01*
X128285989Y-69661903D01*
X128274788Y-69665738D01*
X128232309Y-69678079D01*
X128225490Y-69682112D01*
X128225485Y-69682114D01*
X128214874Y-69688390D01*
X128197124Y-69697087D01*
X128178286Y-69704545D01*
X128171870Y-69709206D01*
X128171869Y-69709207D01*
X128142528Y-69730525D01*
X128132604Y-69737044D01*
X128101363Y-69755519D01*
X128101358Y-69755523D01*
X128094540Y-69759555D01*
X128080216Y-69773879D01*
X128065184Y-69786718D01*
X128048796Y-69798625D01*
X128034247Y-69816212D01*
X128020615Y-69832690D01*
X128012625Y-69841470D01*
X127497635Y-70356460D01*
X127435323Y-70390486D01*
X127364508Y-70385421D01*
X127307672Y-70342874D01*
X127282861Y-70276354D01*
X127282540Y-70267365D01*
X127282540Y-56934465D01*
X127302542Y-56866344D01*
X127319445Y-56845370D01*
X129984955Y-54179861D01*
X130047267Y-54145835D01*
X130074050Y-54142956D01*
X131287277Y-54142956D01*
X131298460Y-54143483D01*
X131305953Y-54145158D01*
X131313879Y-54144909D01*
X131313880Y-54144909D01*
X131374030Y-54143018D01*
X131377989Y-54142956D01*
X131405900Y-54142956D01*
X131409835Y-54142459D01*
X131409900Y-54142451D01*
X131421737Y-54141518D01*
X131453995Y-54140504D01*
X131458014Y-54140378D01*
X131465933Y-54140129D01*
X131485387Y-54134477D01*
X131504744Y-54130469D01*
X131516974Y-54128924D01*
X131516975Y-54128924D01*
X131524841Y-54127930D01*
X131532212Y-54125011D01*
X131532214Y-54125011D01*
X131565956Y-54111652D01*
X131577186Y-54107807D01*
X131612027Y-54097685D01*
X131612028Y-54097685D01*
X131619637Y-54095474D01*
X131626456Y-54091441D01*
X131626461Y-54091439D01*
X131637072Y-54085163D01*
X131654820Y-54076468D01*
X131673661Y-54069008D01*
X131709431Y-54043020D01*
X131719351Y-54036504D01*
X131750579Y-54018036D01*
X131750582Y-54018034D01*
X131757406Y-54013998D01*
X131771727Y-53999677D01*
X131786761Y-53986836D01*
X131796738Y-53979587D01*
X131803151Y-53974928D01*
X131831342Y-53940851D01*
X131839332Y-53932072D01*
X132560177Y-53211227D01*
X132622489Y-53177201D01*
X132637837Y-53174843D01*
X132663600Y-53172498D01*
X132670302Y-53170320D01*
X132670304Y-53170320D01*
X132829409Y-53118624D01*
X132829412Y-53118623D01*
X132836108Y-53116447D01*
X132991912Y-53023569D01*
X133123266Y-52898482D01*
X133223643Y-52747402D01*
X133274599Y-52613261D01*
X133285555Y-52584420D01*
X133285556Y-52584418D01*
X133288055Y-52577838D01*
X133289035Y-52570866D01*
X133312748Y-52402139D01*
X133312748Y-52402136D01*
X133313299Y-52398217D01*
X133313616Y-52375500D01*
X133293397Y-52195245D01*
X133290823Y-52187853D01*
X133236064Y-52030606D01*
X133236062Y-52030603D01*
X133233745Y-52023948D01*
X133137626Y-51870124D01*
X133123941Y-51856343D01*
X133014778Y-51746415D01*
X133014774Y-51746412D01*
X133009815Y-51741418D01*
X132998697Y-51734362D01*
X132934584Y-51693675D01*
X132856666Y-51644227D01*
X132827463Y-51633828D01*
X132692425Y-51585743D01*
X132692420Y-51585742D01*
X132685790Y-51583381D01*
X132678802Y-51582548D01*
X132678799Y-51582547D01*
X132555698Y-51567868D01*
X132505680Y-51561904D01*
X132498677Y-51562640D01*
X132498676Y-51562640D01*
X132332288Y-51580128D01*
X132332286Y-51580129D01*
X132325288Y-51580864D01*
X132153579Y-51639318D01*
X132147575Y-51643012D01*
X132005095Y-51730666D01*
X132005092Y-51730668D01*
X131999088Y-51734362D01*
X131994053Y-51739293D01*
X131994050Y-51739295D01*
X131874525Y-51856343D01*
X131869493Y-51861271D01*
X131771235Y-52013738D01*
X131768826Y-52020358D01*
X131768824Y-52020361D01*
X131723312Y-52145405D01*
X131709197Y-52184185D01*
X131702138Y-52240067D01*
X131673757Y-52305141D01*
X131666227Y-52313368D01*
X131430869Y-52548726D01*
X131368557Y-52582752D01*
X131297742Y-52577687D01*
X131240906Y-52535140D01*
X131234021Y-52523776D01*
X131233745Y-52523948D01*
X131141359Y-52376098D01*
X131137626Y-52370124D01*
X131091655Y-52323831D01*
X131014778Y-52246415D01*
X131014774Y-52246412D01*
X131009815Y-52241418D01*
X131001885Y-52236385D01*
X130930632Y-52191167D01*
X130856666Y-52144227D01*
X130812505Y-52128502D01*
X130692425Y-52085743D01*
X130692420Y-52085742D01*
X130685790Y-52083381D01*
X130678802Y-52082548D01*
X130678799Y-52082547D01*
X130555698Y-52067868D01*
X130505680Y-52061904D01*
X130498677Y-52062640D01*
X130498676Y-52062640D01*
X130332288Y-52080128D01*
X130332286Y-52080129D01*
X130325288Y-52080864D01*
X130153579Y-52139318D01*
X130017039Y-52223319D01*
X129951019Y-52242000D01*
X129836461Y-52242000D01*
X129825278Y-52241473D01*
X129817785Y-52239798D01*
X129809859Y-52240047D01*
X129809858Y-52240047D01*
X129749695Y-52241938D01*
X129745737Y-52242000D01*
X129717837Y-52242000D01*
X129713847Y-52242504D01*
X129702013Y-52243436D01*
X129657804Y-52244826D01*
X129650188Y-52247039D01*
X129650186Y-52247039D01*
X129638345Y-52250479D01*
X129618986Y-52254488D01*
X129617676Y-52254654D01*
X129598896Y-52257026D01*
X129591530Y-52259942D01*
X129591524Y-52259944D01*
X129557791Y-52273300D01*
X129546561Y-52277145D01*
X129511710Y-52287270D01*
X129504100Y-52289481D01*
X129497277Y-52293516D01*
X129486659Y-52299795D01*
X129468906Y-52308492D01*
X129461261Y-52311519D01*
X129450076Y-52315948D01*
X129443661Y-52320609D01*
X129414305Y-52341937D01*
X129404388Y-52348451D01*
X129366331Y-52370958D01*
X129352010Y-52385279D01*
X129336977Y-52398119D01*
X129320586Y-52410028D01*
X129315535Y-52416134D01*
X129292395Y-52444105D01*
X129284405Y-52452884D01*
X128899440Y-52837849D01*
X128837128Y-52871875D01*
X128766313Y-52866810D01*
X128742833Y-52855141D01*
X128606666Y-52768727D01*
X128561401Y-52752609D01*
X128442425Y-52710243D01*
X128442420Y-52710242D01*
X128435790Y-52707881D01*
X128428802Y-52707048D01*
X128428799Y-52707047D01*
X128305698Y-52692368D01*
X128255680Y-52686404D01*
X128248677Y-52687140D01*
X128248676Y-52687140D01*
X128082288Y-52704628D01*
X128082286Y-52704629D01*
X128075288Y-52705364D01*
X127903579Y-52763818D01*
X127841109Y-52802250D01*
X127755095Y-52855166D01*
X127755092Y-52855168D01*
X127749088Y-52858862D01*
X127744053Y-52863793D01*
X127744050Y-52863795D01*
X127647973Y-52957881D01*
X127619493Y-52985771D01*
X127539715Y-53109563D01*
X127526201Y-53130533D01*
X127521235Y-53138238D01*
X127518826Y-53144858D01*
X127518824Y-53144861D01*
X127471857Y-53273902D01*
X127459197Y-53308685D01*
X127452138Y-53364567D01*
X127423757Y-53429641D01*
X127416227Y-53437868D01*
X126930869Y-53923226D01*
X126868557Y-53957252D01*
X126797742Y-53952187D01*
X126740906Y-53909640D01*
X126734021Y-53898276D01*
X126733745Y-53898448D01*
X126641359Y-53750598D01*
X126637626Y-53744624D01*
X126551300Y-53657693D01*
X126514778Y-53620915D01*
X126514774Y-53620912D01*
X126509815Y-53615918D01*
X126498697Y-53608862D01*
X126437058Y-53569745D01*
X126356666Y-53518727D01*
X126315774Y-53504166D01*
X126192425Y-53460243D01*
X126192420Y-53460242D01*
X126185790Y-53457881D01*
X126178802Y-53457048D01*
X126178799Y-53457047D01*
X126055698Y-53442368D01*
X126005680Y-53436404D01*
X125998677Y-53437140D01*
X125998676Y-53437140D01*
X125832288Y-53454628D01*
X125832286Y-53454629D01*
X125825288Y-53455364D01*
X125653579Y-53513818D01*
X125591109Y-53552250D01*
X125505095Y-53605166D01*
X125505092Y-53605168D01*
X125499088Y-53608862D01*
X125494053Y-53613793D01*
X125494050Y-53613795D01*
X125385725Y-53719875D01*
X125369493Y-53735771D01*
X125271235Y-53888238D01*
X125268826Y-53894858D01*
X125268824Y-53894861D01*
X125211606Y-54052066D01*
X125209197Y-54058685D01*
X125202137Y-54114568D01*
X125173757Y-54179641D01*
X125166227Y-54187868D01*
X124857747Y-54496348D01*
X124849461Y-54503888D01*
X124842982Y-54508000D01*
X124837557Y-54513777D01*
X124796357Y-54557651D01*
X124793602Y-54560493D01*
X124773865Y-54580230D01*
X124771385Y-54583427D01*
X124763682Y-54592447D01*
X124733414Y-54624679D01*
X124729595Y-54631625D01*
X124729593Y-54631628D01*
X124723652Y-54642434D01*
X124712801Y-54658953D01*
X124700386Y-54674959D01*
X124697241Y-54682228D01*
X124697238Y-54682232D01*
X124682826Y-54715537D01*
X124677609Y-54726187D01*
X124656305Y-54764940D01*
X124654334Y-54772615D01*
X124654334Y-54772616D01*
X124651267Y-54784562D01*
X124644863Y-54803266D01*
X124636819Y-54821855D01*
X124635580Y-54829678D01*
X124635577Y-54829688D01*
X124629901Y-54865524D01*
X124627495Y-54877144D01*
X124616500Y-54919970D01*
X124616500Y-54940224D01*
X124614949Y-54959934D01*
X124611780Y-54979943D01*
X124612526Y-54987835D01*
X124615941Y-55023961D01*
X124616500Y-55035819D01*
X124616500Y-59204430D01*
X124596498Y-59272551D01*
X124542842Y-59319044D01*
X124472568Y-59329148D01*
X124422986Y-59310815D01*
X124356666Y-59268727D01*
X124327463Y-59258328D01*
X124192425Y-59210243D01*
X124192420Y-59210242D01*
X124185790Y-59207881D01*
X124178802Y-59207048D01*
X124178799Y-59207047D01*
X124055698Y-59192368D01*
X124005680Y-59186404D01*
X123998677Y-59187140D01*
X123998676Y-59187140D01*
X123832288Y-59204628D01*
X123832286Y-59204629D01*
X123825288Y-59205364D01*
X123653579Y-59263818D01*
X123647575Y-59267512D01*
X123505095Y-59355166D01*
X123505092Y-59355168D01*
X123499088Y-59358862D01*
X123494053Y-59363793D01*
X123494050Y-59363795D01*
X123396912Y-59458920D01*
X123369493Y-59485771D01*
X123271235Y-59638238D01*
X123268826Y-59644858D01*
X123268824Y-59644861D01*
X123211606Y-59802066D01*
X123209197Y-59808685D01*
X123202138Y-59864567D01*
X123173757Y-59929641D01*
X123166227Y-59937868D01*
X122680869Y-60423226D01*
X122618557Y-60457252D01*
X122547742Y-60452187D01*
X122490906Y-60409640D01*
X122484021Y-60398276D01*
X122483745Y-60398448D01*
X122391359Y-60250598D01*
X122387626Y-60244624D01*
X122382664Y-60239627D01*
X122264778Y-60120915D01*
X122264774Y-60120912D01*
X122259815Y-60115918D01*
X122248697Y-60108862D01*
X122175652Y-60062507D01*
X122106666Y-60018727D01*
X122077463Y-60008328D01*
X121942425Y-59960243D01*
X121942420Y-59960242D01*
X121935790Y-59957881D01*
X121928802Y-59957048D01*
X121928799Y-59957047D01*
X121805698Y-59942368D01*
X121755680Y-59936404D01*
X121748677Y-59937140D01*
X121748676Y-59937140D01*
X121582288Y-59954628D01*
X121582286Y-59954629D01*
X121575288Y-59955364D01*
X121403579Y-60013818D01*
X121277454Y-60091411D01*
X121267186Y-60097728D01*
X121201164Y-60116411D01*
X118955191Y-60116411D01*
X118887070Y-60096409D01*
X118840577Y-60042753D01*
X118829928Y-59976804D01*
X118832688Y-59951399D01*
X118833057Y-59944582D01*
X118833057Y-59918026D01*
X118828582Y-59902787D01*
X118827192Y-59901582D01*
X118819509Y-59899911D01*
X117893172Y-59899911D01*
X117877933Y-59904386D01*
X117876728Y-59905776D01*
X117875057Y-59913459D01*
X117875057Y-59965411D01*
X117855055Y-60033532D01*
X117801399Y-60080025D01*
X117749057Y-60091411D01*
X117701057Y-60091411D01*
X117632936Y-60071409D01*
X117586443Y-60017753D01*
X117575057Y-59965411D01*
X117575057Y-59918026D01*
X117570582Y-59902787D01*
X117569192Y-59901582D01*
X117561509Y-59899911D01*
X116635173Y-59899911D01*
X116619934Y-59904386D01*
X116618729Y-59905776D01*
X116617058Y-59913459D01*
X116617058Y-59944580D01*
X116617428Y-59951404D01*
X116621225Y-59986368D01*
X116621225Y-60013579D01*
X116617426Y-60048550D01*
X116617057Y-60055367D01*
X116617057Y-60081923D01*
X116621532Y-60097162D01*
X116622922Y-60098367D01*
X116639740Y-60102025D01*
X116702053Y-60136049D01*
X116736079Y-60198361D01*
X116731015Y-60269177D01*
X116713785Y-60300710D01*
X116674442Y-60353206D01*
X116674193Y-60353019D01*
X116627906Y-60399202D01*
X116622654Y-60401374D01*
X116618729Y-60405903D01*
X116617058Y-60413586D01*
X116617058Y-60444707D01*
X116617428Y-60451528D01*
X116620959Y-60484042D01*
X116620959Y-60511255D01*
X116616557Y-60551777D01*
X116616557Y-60948045D01*
X116619917Y-60978971D01*
X116620720Y-60986366D01*
X116620720Y-61013580D01*
X116616557Y-61051904D01*
X116616557Y-61448172D01*
X116619903Y-61478971D01*
X116620706Y-61486367D01*
X116620706Y-61513581D01*
X116617340Y-61544572D01*
X116616557Y-61551777D01*
X116616557Y-61948045D01*
X116616926Y-61951442D01*
X116620720Y-61986366D01*
X116620720Y-62013580D01*
X116616557Y-62051904D01*
X116616557Y-62448172D01*
X116616926Y-62451567D01*
X116616926Y-62451571D01*
X116620706Y-62486367D01*
X116620706Y-62513580D01*
X116616557Y-62551777D01*
X116616557Y-62615614D01*
X116596555Y-62683735D01*
X116542899Y-62730228D01*
X116490557Y-62741614D01*
X113856743Y-62741614D01*
X113794561Y-62748369D01*
X113658172Y-62799499D01*
X113541616Y-62886853D01*
X113454262Y-63003409D01*
X113403132Y-63139798D01*
X113396377Y-63201980D01*
X113396377Y-65498248D01*
X113403132Y-65560430D01*
X113454262Y-65696819D01*
X113541616Y-65813375D01*
X113658172Y-65900729D01*
X113794561Y-65951859D01*
X113856743Y-65958614D01*
X117253011Y-65958614D01*
X117315193Y-65951859D01*
X117451582Y-65900729D01*
X117568138Y-65813375D01*
X117655492Y-65696819D01*
X117706622Y-65560430D01*
X117713377Y-65498248D01*
X117713377Y-63841102D01*
X117733379Y-63772981D01*
X117787035Y-63726488D01*
X117857309Y-63716384D01*
X117870704Y-63719059D01*
X117883262Y-63722283D01*
X117901962Y-63728686D01*
X117920550Y-63736730D01*
X117928373Y-63737969D01*
X117928383Y-63737972D01*
X117964219Y-63743648D01*
X117975839Y-63746054D01*
X118010984Y-63755077D01*
X118018665Y-63757049D01*
X118038919Y-63757049D01*
X118058629Y-63758600D01*
X118078638Y-63761769D01*
X118086530Y-63761023D01*
X118122656Y-63757608D01*
X118134514Y-63757049D01*
X120203903Y-63757049D01*
X120272896Y-63777617D01*
X120383159Y-63849771D01*
X120389763Y-63852227D01*
X120389765Y-63852228D01*
X120546558Y-63910539D01*
X120546560Y-63910539D01*
X120553168Y-63912997D01*
X120636995Y-63924182D01*
X120725980Y-63936056D01*
X120725984Y-63936056D01*
X120732961Y-63936987D01*
X120739972Y-63936349D01*
X120739976Y-63936349D01*
X120882459Y-63923381D01*
X120913600Y-63920547D01*
X120920302Y-63918369D01*
X120920304Y-63918369D01*
X121079409Y-63866673D01*
X121079412Y-63866672D01*
X121086108Y-63864496D01*
X121241912Y-63771618D01*
X121373266Y-63646531D01*
X121473643Y-63495451D01*
X121538055Y-63325887D01*
X121552290Y-63224602D01*
X121581578Y-63159928D01*
X121645731Y-63120096D01*
X121651882Y-63118517D01*
X121659748Y-63117523D01*
X121667119Y-63114604D01*
X121667121Y-63114604D01*
X121700863Y-63101245D01*
X121712093Y-63097400D01*
X121746934Y-63087278D01*
X121746935Y-63087278D01*
X121754544Y-63085067D01*
X121761363Y-63081034D01*
X121761368Y-63081032D01*
X121771979Y-63074756D01*
X121789727Y-63066061D01*
X121808568Y-63058601D01*
X121844338Y-63032613D01*
X121854258Y-63026097D01*
X121885486Y-63007629D01*
X121885489Y-63007627D01*
X121892313Y-63003591D01*
X121906634Y-62989270D01*
X121921668Y-62976429D01*
X121931645Y-62969180D01*
X121938058Y-62964521D01*
X121966249Y-62930444D01*
X121974239Y-62921665D01*
X124060178Y-60835727D01*
X124122490Y-60801701D01*
X124137837Y-60799343D01*
X124163600Y-60796998D01*
X124170302Y-60794820D01*
X124170304Y-60794820D01*
X124329409Y-60743124D01*
X124329412Y-60743123D01*
X124336108Y-60740947D01*
X124381146Y-60714099D01*
X124425983Y-60687371D01*
X124494738Y-60669671D01*
X124562147Y-60691953D01*
X124606809Y-60747142D01*
X124616500Y-60795600D01*
X124616500Y-75685406D01*
X124596498Y-75753527D01*
X124579595Y-75774501D01*
X124011887Y-76342208D01*
X123523862Y-76830233D01*
X123274461Y-77079633D01*
X123212149Y-77113659D01*
X123185366Y-77116538D01*
X118506883Y-77116538D01*
X118462653Y-77108520D01*
X118435373Y-77098293D01*
X118373191Y-77091538D01*
X117839377Y-77091538D01*
X117771256Y-77071536D01*
X117724763Y-77017880D01*
X117713377Y-76965538D01*
X117713377Y-75001955D01*
X117706622Y-74939773D01*
X117655492Y-74803384D01*
X117568138Y-74686828D01*
X117451582Y-74599474D01*
X117315193Y-74548344D01*
X117253011Y-74541589D01*
X113856743Y-74541589D01*
X113794561Y-74548344D01*
X113658172Y-74599474D01*
X113541616Y-74686828D01*
X113454262Y-74803384D01*
X113403132Y-74939773D01*
X113396377Y-75001955D01*
X113396377Y-77298223D01*
X113403132Y-77360405D01*
X113454262Y-77496794D01*
X113541616Y-77613350D01*
X113658172Y-77700704D01*
X113794561Y-77751834D01*
X113856743Y-77758589D01*
X116490557Y-77758589D01*
X116558678Y-77778591D01*
X116605171Y-77832247D01*
X116616557Y-77884589D01*
X116616557Y-77948172D01*
X116616926Y-77951568D01*
X116616926Y-77951570D01*
X116620706Y-77986367D01*
X116620706Y-78013581D01*
X116617411Y-78043919D01*
X116616557Y-78051777D01*
X116616557Y-78448045D01*
X116616926Y-78451440D01*
X116616926Y-78451444D01*
X116620720Y-78486368D01*
X116620720Y-78513581D01*
X116616557Y-78551904D01*
X116616557Y-78948172D01*
X116620959Y-78988694D01*
X116620959Y-79015907D01*
X116617426Y-79048428D01*
X116617057Y-79055239D01*
X116617057Y-79081796D01*
X116621532Y-79097035D01*
X116647227Y-79119300D01*
X116646753Y-79119847D01*
X116659081Y-79126579D01*
X116674283Y-79146862D01*
X116674442Y-79146743D01*
X116713976Y-79199493D01*
X116738824Y-79265999D01*
X116723771Y-79335382D01*
X116673597Y-79385612D01*
X116648649Y-79395954D01*
X116619934Y-79404386D01*
X116618729Y-79405776D01*
X116617058Y-79413459D01*
X116617058Y-79444580D01*
X116617428Y-79451404D01*
X116621225Y-79486368D01*
X116621225Y-79513579D01*
X116617426Y-79548550D01*
X116617057Y-79555367D01*
X116617057Y-79581923D01*
X116621532Y-79597162D01*
X116622922Y-79598367D01*
X116630605Y-79600038D01*
X117556942Y-79600038D01*
X117572181Y-79595563D01*
X117573386Y-79594173D01*
X117575057Y-79586490D01*
X117575057Y-79534538D01*
X117595059Y-79466417D01*
X117648715Y-79419924D01*
X117701057Y-79408538D01*
X117749057Y-79408538D01*
X117817178Y-79428540D01*
X117863671Y-79482196D01*
X117875057Y-79534538D01*
X117875057Y-79581923D01*
X117879532Y-79597162D01*
X117880922Y-79598367D01*
X117888605Y-79600038D01*
X118814941Y-79600038D01*
X118830180Y-79595563D01*
X118831385Y-79594173D01*
X118833056Y-79586490D01*
X118833056Y-79555369D01*
X118832687Y-79548561D01*
X118828888Y-79513577D01*
X118828889Y-79486366D01*
X118832688Y-79451397D01*
X118833057Y-79444582D01*
X118833057Y-79418026D01*
X118828582Y-79402787D01*
X118827192Y-79401582D01*
X118810374Y-79397924D01*
X118748061Y-79363900D01*
X118714035Y-79301588D01*
X118719099Y-79230772D01*
X118736329Y-79199238D01*
X118770288Y-79153927D01*
X118770288Y-79153926D01*
X118775672Y-79146743D01*
X118775921Y-79146930D01*
X118822208Y-79100747D01*
X118827460Y-79098575D01*
X118831385Y-79094046D01*
X118833056Y-79086363D01*
X118833056Y-79055242D01*
X118832686Y-79048418D01*
X118829155Y-79015902D01*
X118829155Y-78988694D01*
X118833557Y-78948172D01*
X118833557Y-78551904D01*
X118832413Y-78541368D01*
X118830433Y-78523145D01*
X118842961Y-78453263D01*
X118891283Y-78401247D01*
X118955696Y-78383538D01*
X122302084Y-78383538D01*
X122370205Y-78403540D01*
X122416698Y-78457196D01*
X122426802Y-78527470D01*
X122397308Y-78592050D01*
X122391179Y-78598633D01*
X120910179Y-80079633D01*
X120847867Y-80113659D01*
X120821084Y-80116538D01*
X118955191Y-80116538D01*
X118887070Y-80096536D01*
X118840577Y-80042880D01*
X118829928Y-79976931D01*
X118832688Y-79951526D01*
X118833057Y-79944709D01*
X118833057Y-79918153D01*
X118828582Y-79902914D01*
X118827192Y-79901709D01*
X118819509Y-79900038D01*
X117893172Y-79900038D01*
X117877933Y-79904513D01*
X117876728Y-79905903D01*
X117875057Y-79913586D01*
X117875057Y-79965538D01*
X117855055Y-80033659D01*
X117801399Y-80080152D01*
X117749057Y-80091538D01*
X117701057Y-80091538D01*
X117632936Y-80071536D01*
X117586443Y-80017880D01*
X117575057Y-79965538D01*
X117575057Y-79918153D01*
X117570582Y-79902914D01*
X117569192Y-79901709D01*
X117561509Y-79900038D01*
X116635173Y-79900038D01*
X116619934Y-79904513D01*
X116618729Y-79905903D01*
X116617058Y-79913586D01*
X116617058Y-79944706D01*
X116617428Y-79951530D01*
X116621211Y-79986367D01*
X116621211Y-80013577D01*
X116617426Y-80048420D01*
X116617057Y-80055240D01*
X116617057Y-80081796D01*
X116621532Y-80097035D01*
X116622922Y-80098240D01*
X116639905Y-80101934D01*
X116702217Y-80135959D01*
X116736242Y-80198271D01*
X116731178Y-80269087D01*
X116713948Y-80300620D01*
X116679824Y-80346151D01*
X116679822Y-80346154D01*
X116674442Y-80353333D01*
X116674114Y-80353087D01*
X116628073Y-80399026D01*
X116622626Y-80401278D01*
X116618729Y-80405776D01*
X116617058Y-80413459D01*
X116617058Y-80444581D01*
X116617427Y-80451399D01*
X116620973Y-80484042D01*
X116620973Y-80511253D01*
X116616557Y-80551904D01*
X116616557Y-80948172D01*
X116616926Y-80951568D01*
X116616926Y-80951570D01*
X116620706Y-80986367D01*
X116620706Y-81013581D01*
X116617871Y-81039684D01*
X116616557Y-81051777D01*
X116616557Y-81448045D01*
X116616926Y-81451440D01*
X116616926Y-81451444D01*
X116620720Y-81486368D01*
X116620720Y-81513581D01*
X116616557Y-81551904D01*
X116616557Y-81948172D01*
X116616926Y-81951567D01*
X116616926Y-81951571D01*
X116620706Y-81986367D01*
X116620706Y-82013580D01*
X116619796Y-82021962D01*
X116616557Y-82051777D01*
X116616557Y-82115614D01*
X116596555Y-82183735D01*
X116542899Y-82230228D01*
X116490557Y-82241614D01*
X113856743Y-82241614D01*
X113794561Y-82248369D01*
X113658172Y-82299499D01*
X113541616Y-82386853D01*
X113454262Y-82503409D01*
X113403132Y-82639798D01*
X113396377Y-82701980D01*
X113396377Y-84998248D01*
X109728000Y-84998248D01*
X109728000Y-59581796D01*
X116617057Y-59581796D01*
X116621532Y-59597035D01*
X116622922Y-59598240D01*
X116630605Y-59599911D01*
X117556942Y-59599911D01*
X117572181Y-59595436D01*
X117573386Y-59594046D01*
X117575057Y-59586363D01*
X117575057Y-59581796D01*
X117875057Y-59581796D01*
X117879532Y-59597035D01*
X117880922Y-59598240D01*
X117888605Y-59599911D01*
X118814941Y-59599911D01*
X118830180Y-59595436D01*
X118831385Y-59594046D01*
X118833056Y-59586363D01*
X118833056Y-59555243D01*
X118832686Y-59548419D01*
X118828903Y-59513582D01*
X118828903Y-59486372D01*
X118832688Y-59451529D01*
X118833057Y-59444709D01*
X118833057Y-59418153D01*
X118828582Y-59402914D01*
X118827192Y-59401709D01*
X118819509Y-59400038D01*
X117893172Y-59400038D01*
X117877933Y-59404513D01*
X117876728Y-59405903D01*
X117875057Y-59413586D01*
X117875057Y-59581796D01*
X117575057Y-59581796D01*
X117575057Y-59418153D01*
X117570582Y-59402914D01*
X117569192Y-59401709D01*
X117561509Y-59400038D01*
X116635173Y-59400038D01*
X116619934Y-59404513D01*
X116618729Y-59405903D01*
X116617058Y-59413586D01*
X116617058Y-59444706D01*
X116617428Y-59451530D01*
X116621211Y-59486367D01*
X116621211Y-59513577D01*
X116617426Y-59548420D01*
X116617057Y-59555240D01*
X116617057Y-59581796D01*
X109728000Y-59581796D01*
X109728000Y-59081923D01*
X116617057Y-59081923D01*
X116621532Y-59097162D01*
X116622922Y-59098367D01*
X116630605Y-59100038D01*
X117556942Y-59100038D01*
X117572181Y-59095563D01*
X117573386Y-59094173D01*
X117575057Y-59086490D01*
X117575057Y-59081923D01*
X117875057Y-59081923D01*
X117879532Y-59097162D01*
X117880922Y-59098367D01*
X117888605Y-59100038D01*
X118814941Y-59100038D01*
X118830180Y-59095563D01*
X118831385Y-59094173D01*
X118833056Y-59086490D01*
X118833056Y-59055369D01*
X118832687Y-59048561D01*
X118828888Y-59013577D01*
X118828889Y-58986366D01*
X118832688Y-58951397D01*
X118833057Y-58944582D01*
X118833057Y-58918026D01*
X118828582Y-58902787D01*
X118827192Y-58901582D01*
X118819509Y-58899911D01*
X117893172Y-58899911D01*
X117877933Y-58904386D01*
X117876728Y-58905776D01*
X117875057Y-58913459D01*
X117875057Y-59081923D01*
X117575057Y-59081923D01*
X117575057Y-58918026D01*
X117570582Y-58902787D01*
X117569192Y-58901582D01*
X117561509Y-58899911D01*
X116635173Y-58899911D01*
X116619934Y-58904386D01*
X116618729Y-58905776D01*
X116617058Y-58913459D01*
X116617058Y-58944580D01*
X116617428Y-58951404D01*
X116621225Y-58986368D01*
X116621225Y-59013579D01*
X116617426Y-59048550D01*
X116617057Y-59055367D01*
X116617057Y-59081923D01*
X109728000Y-59081923D01*
X109728000Y-57798223D01*
X113396377Y-57798223D01*
X113403132Y-57860405D01*
X113454262Y-57996794D01*
X113541616Y-58113350D01*
X113658172Y-58200704D01*
X113794561Y-58251834D01*
X113856743Y-58258589D01*
X116491058Y-58258589D01*
X116559179Y-58278591D01*
X116605672Y-58332247D01*
X116617058Y-58384589D01*
X116617058Y-58444706D01*
X116617428Y-58451530D01*
X116621211Y-58486367D01*
X116621211Y-58513577D01*
X116617426Y-58548420D01*
X116617057Y-58555240D01*
X116617057Y-58581796D01*
X116621532Y-58597035D01*
X116622922Y-58598240D01*
X116630605Y-58599911D01*
X117556942Y-58599911D01*
X117572181Y-58595436D01*
X117573386Y-58594046D01*
X117575057Y-58586363D01*
X117575057Y-58581796D01*
X117875057Y-58581796D01*
X117879532Y-58597035D01*
X117880922Y-58598240D01*
X117888605Y-58599911D01*
X118814941Y-58599911D01*
X118830180Y-58595436D01*
X118831385Y-58594046D01*
X118833056Y-58586363D01*
X118833056Y-58555243D01*
X118832686Y-58548419D01*
X118828903Y-58513582D01*
X118828903Y-58486372D01*
X118832688Y-58451529D01*
X118833057Y-58444709D01*
X118833057Y-58418153D01*
X118828582Y-58402914D01*
X118827192Y-58401709D01*
X118819509Y-58400038D01*
X117893172Y-58400038D01*
X117877933Y-58404513D01*
X117876728Y-58405903D01*
X117875057Y-58413586D01*
X117875057Y-58581796D01*
X117575057Y-58581796D01*
X117575057Y-58177911D01*
X117595059Y-58109790D01*
X117648715Y-58063297D01*
X117701057Y-58051911D01*
X117780313Y-58051911D01*
X117848434Y-58071913D01*
X117862825Y-58082686D01*
X117880922Y-58098367D01*
X117888605Y-58100038D01*
X118814941Y-58100038D01*
X118830180Y-58095563D01*
X118831385Y-58094173D01*
X118833056Y-58086490D01*
X118833056Y-58055369D01*
X118832686Y-58048547D01*
X118827162Y-57997686D01*
X118823536Y-57982434D01*
X118778381Y-57861984D01*
X118769843Y-57846389D01*
X118693342Y-57744314D01*
X118680781Y-57731753D01*
X118578706Y-57655252D01*
X118563111Y-57646714D01*
X118442663Y-57601560D01*
X118427408Y-57597933D01*
X118376543Y-57592407D01*
X118369730Y-57592038D01*
X117839377Y-57592039D01*
X117771256Y-57572037D01*
X117724763Y-57518382D01*
X117713377Y-57466039D01*
X117713377Y-55501955D01*
X117706622Y-55439773D01*
X117655492Y-55303384D01*
X117568138Y-55186828D01*
X117451582Y-55099474D01*
X117315193Y-55048344D01*
X117253011Y-55041589D01*
X113856743Y-55041589D01*
X113794561Y-55048344D01*
X113658172Y-55099474D01*
X113541616Y-55186828D01*
X113454262Y-55303384D01*
X113403132Y-55439773D01*
X113396377Y-55501955D01*
X113396377Y-57798223D01*
X109728000Y-57798223D01*
X109728000Y-48367655D01*
X109999858Y-48367655D01*
X110035104Y-48626638D01*
X110036412Y-48631124D01*
X110036412Y-48631126D01*
X110049907Y-48677425D01*
X110108243Y-48877567D01*
X110110203Y-48881820D01*
X110110204Y-48881821D01*
X110125586Y-48915187D01*
X110217668Y-49114928D01*
X110220231Y-49118837D01*
X110358410Y-49329596D01*
X110358414Y-49329601D01*
X110360976Y-49333509D01*
X110535018Y-49528506D01*
X110735970Y-49695637D01*
X110739973Y-49698066D01*
X110955422Y-49828804D01*
X110955426Y-49828806D01*
X110959419Y-49831229D01*
X111200455Y-49932303D01*
X111453783Y-49996641D01*
X111458434Y-49997109D01*
X111458438Y-49997110D01*
X111651308Y-50016531D01*
X111670867Y-50018500D01*
X111826354Y-50018500D01*
X111828679Y-50018327D01*
X111828685Y-50018327D01*
X112016000Y-50004407D01*
X112016004Y-50004406D01*
X112020652Y-50004061D01*
X112025200Y-50003032D01*
X112025206Y-50003031D01*
X112249233Y-49952338D01*
X112275577Y-49946377D01*
X112284994Y-49942715D01*
X112514824Y-49853340D01*
X112514827Y-49853339D01*
X112519177Y-49851647D01*
X112532536Y-49844012D01*
X112729135Y-49731646D01*
X112746098Y-49721951D01*
X112951357Y-49560138D01*
X113130443Y-49369763D01*
X113279424Y-49155009D01*
X113281492Y-49150816D01*
X113392960Y-48924781D01*
X113392961Y-48924778D01*
X113395025Y-48920593D01*
X113396756Y-48915187D01*
X113473280Y-48676123D01*
X113474707Y-48671665D01*
X113516721Y-48413693D01*
X113518966Y-48242210D01*
X113520081Y-48157022D01*
X113520081Y-48157019D01*
X113520142Y-48152345D01*
X113484896Y-47893362D01*
X113470473Y-47843877D01*
X113438025Y-47732555D01*
X113411757Y-47642433D01*
X113302332Y-47405072D01*
X113216770Y-47274568D01*
X113161590Y-47190404D01*
X113161586Y-47190399D01*
X113159024Y-47186491D01*
X112984982Y-46991494D01*
X112784030Y-46824363D01*
X112567081Y-46692715D01*
X112564578Y-46691196D01*
X112564574Y-46691194D01*
X112560581Y-46688771D01*
X112319545Y-46587697D01*
X112066217Y-46523359D01*
X112061566Y-46522891D01*
X112061562Y-46522890D01*
X111852271Y-46501816D01*
X111849133Y-46501500D01*
X111693646Y-46501500D01*
X111691321Y-46501673D01*
X111691315Y-46501673D01*
X111504000Y-46515593D01*
X111503996Y-46515594D01*
X111499348Y-46515939D01*
X111494800Y-46516968D01*
X111494794Y-46516969D01*
X111308399Y-46559147D01*
X111244423Y-46573623D01*
X111240071Y-46575315D01*
X111240069Y-46575316D01*
X111005176Y-46666660D01*
X111005173Y-46666661D01*
X111000823Y-46668353D01*
X110773902Y-46798049D01*
X110568643Y-46959862D01*
X110389557Y-47150237D01*
X110240576Y-47364991D01*
X110238510Y-47369181D01*
X110238508Y-47369184D01*
X110128786Y-47591680D01*
X110124975Y-47599407D01*
X110123553Y-47603850D01*
X110123552Y-47603852D01*
X110101983Y-47671233D01*
X110045293Y-47848335D01*
X110003279Y-48106307D01*
X110001790Y-48220058D01*
X110000026Y-48354847D01*
X109999858Y-48367655D01*
X109728000Y-48367655D01*
X109728000Y-46354000D01*
X109748002Y-46285879D01*
X109801658Y-46239386D01*
X109854000Y-46228000D01*
X160011298Y-46228000D01*
X160012069Y-46228002D01*
X160089652Y-46228476D01*
X160098281Y-46226010D01*
X160098286Y-46226009D01*
X160118048Y-46220361D01*
X160134809Y-46216783D01*
X160155152Y-46213870D01*
X160155162Y-46213867D01*
X160164045Y-46212595D01*
X160187395Y-46201979D01*
X160204907Y-46195536D01*
X160220937Y-46190954D01*
X160229565Y-46188488D01*
X160254548Y-46172726D01*
X160269614Y-46164596D01*
X160296510Y-46152367D01*
X160315939Y-46135626D01*
X160330947Y-46124521D01*
X160345039Y-46115630D01*
X160352631Y-46110840D01*
X160372182Y-46088703D01*
X160384374Y-46076659D01*
X160399949Y-46063239D01*
X160399950Y-46063237D01*
X160406747Y-46057381D01*
X160411626Y-46049853D01*
X160411629Y-46049850D01*
X160420696Y-46035861D01*
X160431986Y-46020987D01*
X160443012Y-46008502D01*
X160448956Y-46001772D01*
X160461510Y-45975034D01*
X160469824Y-45960065D01*
X160485893Y-45935273D01*
X160493239Y-45910709D01*
X160499901Y-45893264D01*
X160506983Y-45878179D01*
X160510799Y-45870052D01*
X160515343Y-45840870D01*
X160519126Y-45824151D01*
X160525014Y-45804464D01*
X160525015Y-45804461D01*
X160527587Y-45795859D01*
X160527797Y-45761444D01*
X160527830Y-45760672D01*
X160528000Y-45759577D01*
X160528000Y-45728702D01*
X160528002Y-45727932D01*
X160528452Y-45654284D01*
X160528452Y-45654283D01*
X160528476Y-45650348D01*
X160528092Y-45649004D01*
X160528000Y-45647659D01*
X160528000Y-34000000D01*
X167606502Y-34000000D01*
X167626457Y-34228087D01*
X167685716Y-34449243D01*
X167688039Y-34454224D01*
X167688039Y-34454225D01*
X167780151Y-34651762D01*
X167780154Y-34651767D01*
X167782477Y-34656749D01*
X167913802Y-34844300D01*
X168075700Y-35006198D01*
X168080208Y-35009355D01*
X168080211Y-35009357D01*
X168158389Y-35064098D01*
X168263251Y-35137523D01*
X168268233Y-35139846D01*
X168268238Y-35139849D01*
X168463937Y-35231104D01*
X168470757Y-35234284D01*
X168476065Y-35235706D01*
X168476067Y-35235707D01*
X168686598Y-35292119D01*
X168686600Y-35292119D01*
X168691913Y-35293543D01*
X168920000Y-35313498D01*
X169147936Y-35293556D01*
X169217540Y-35307545D01*
X169248012Y-35329982D01*
X174804595Y-40886566D01*
X174838621Y-40948878D01*
X174841500Y-40975661D01*
X174841500Y-41298134D01*
X174848255Y-41360316D01*
X174899385Y-41496705D01*
X174986739Y-41613261D01*
X174993919Y-41618642D01*
X175091065Y-41691449D01*
X175133580Y-41748308D01*
X175141500Y-41792275D01*
X175141500Y-45046088D01*
X175141208Y-45054658D01*
X175137791Y-45104775D01*
X175137791Y-45104779D01*
X175137275Y-45112352D01*
X175138580Y-45119829D01*
X175138580Y-45119832D01*
X175139624Y-45125812D01*
X175141500Y-45147474D01*
X175141500Y-46623134D01*
X175148255Y-46685316D01*
X175199385Y-46821705D01*
X175286739Y-46938261D01*
X175403295Y-47025615D01*
X175411704Y-47028767D01*
X175411705Y-47028768D01*
X175520451Y-47069535D01*
X175577216Y-47112176D01*
X175601916Y-47178738D01*
X175586709Y-47248087D01*
X175567316Y-47274568D01*
X175440629Y-47407138D01*
X175314743Y-47591680D01*
X175289096Y-47646932D01*
X175229881Y-47774501D01*
X175220688Y-47794305D01*
X175160989Y-48009570D01*
X175137251Y-48231695D01*
X175137548Y-48236848D01*
X175137548Y-48236851D01*
X175145357Y-48372289D01*
X175150110Y-48454715D01*
X175151247Y-48459761D01*
X175151248Y-48459767D01*
X175175304Y-48566508D01*
X175199222Y-48672639D01*
X175232190Y-48753830D01*
X175266535Y-48838411D01*
X175283266Y-48879616D01*
X175399987Y-49070088D01*
X175546250Y-49238938D01*
X175718126Y-49381632D01*
X175911000Y-49494338D01*
X175915825Y-49496180D01*
X175915826Y-49496181D01*
X175945808Y-49507630D01*
X176119692Y-49574030D01*
X176124760Y-49575061D01*
X176124763Y-49575062D01*
X176232017Y-49596883D01*
X176338597Y-49618567D01*
X176343772Y-49618757D01*
X176343774Y-49618757D01*
X176556673Y-49626564D01*
X176556677Y-49626564D01*
X176561837Y-49626753D01*
X176566957Y-49626097D01*
X176566959Y-49626097D01*
X176778288Y-49599025D01*
X176778289Y-49599025D01*
X176783416Y-49598368D01*
X176788366Y-49596883D01*
X176992429Y-49535661D01*
X176992434Y-49535659D01*
X176997384Y-49534174D01*
X177197994Y-49435896D01*
X177379860Y-49306173D01*
X177538096Y-49148489D01*
X177626132Y-49025974D01*
X177682127Y-48982326D01*
X177728455Y-48973500D01*
X177956088Y-48973500D01*
X177964658Y-48973792D01*
X178014776Y-48977209D01*
X178014780Y-48977209D01*
X178022352Y-48977725D01*
X178029829Y-48976420D01*
X178029830Y-48976420D01*
X178056308Y-48971799D01*
X178085303Y-48966738D01*
X178091821Y-48965777D01*
X178155242Y-48958102D01*
X178162343Y-48955419D01*
X178164952Y-48954778D01*
X178181262Y-48950315D01*
X178183798Y-48949550D01*
X178191284Y-48948243D01*
X178249800Y-48922556D01*
X178255904Y-48920065D01*
X178266271Y-48916148D01*
X178315656Y-48897487D01*
X178321919Y-48893183D01*
X178324285Y-48891946D01*
X178339097Y-48883701D01*
X178341351Y-48882368D01*
X178348305Y-48879315D01*
X178399002Y-48840413D01*
X178404332Y-48836541D01*
X178450720Y-48804661D01*
X178450725Y-48804656D01*
X178456981Y-48800357D01*
X178498436Y-48753829D01*
X178503416Y-48748554D01*
X179480520Y-47771450D01*
X179486785Y-47765596D01*
X179500620Y-47753527D01*
X179530385Y-47727561D01*
X179567114Y-47675300D01*
X179571046Y-47670005D01*
X179605791Y-47625694D01*
X179610477Y-47619718D01*
X179613602Y-47612796D01*
X179614964Y-47610548D01*
X179623368Y-47595815D01*
X179624622Y-47593476D01*
X179628990Y-47587261D01*
X179631749Y-47580185D01*
X179631751Y-47580181D01*
X179652200Y-47527731D01*
X179654749Y-47521666D01*
X179681045Y-47463427D01*
X179682429Y-47455962D01*
X179683226Y-47453418D01*
X179687859Y-47437152D01*
X179688521Y-47434572D01*
X179691282Y-47427491D01*
X179693675Y-47409318D01*
X179699621Y-47364147D01*
X179700653Y-47357629D01*
X179712296Y-47294813D01*
X179708709Y-47232607D01*
X179708500Y-47225353D01*
X179708500Y-42378912D01*
X179708792Y-42370342D01*
X179712209Y-42320224D01*
X179712209Y-42320220D01*
X179712725Y-42312648D01*
X179701738Y-42249697D01*
X179700776Y-42243175D01*
X179694014Y-42187298D01*
X179693102Y-42179758D01*
X179690419Y-42172657D01*
X179689778Y-42170048D01*
X179685315Y-42153738D01*
X179684550Y-42151202D01*
X179683243Y-42143716D01*
X179657556Y-42085200D01*
X179655065Y-42079096D01*
X179635173Y-42026452D01*
X179635172Y-42026451D01*
X179632487Y-42019344D01*
X179628183Y-42013081D01*
X179626946Y-42010715D01*
X179618701Y-41995903D01*
X179617368Y-41993649D01*
X179614315Y-41986695D01*
X179575413Y-41935998D01*
X179571541Y-41930668D01*
X179539661Y-41884280D01*
X179539656Y-41884275D01*
X179535357Y-41878019D01*
X179488829Y-41836564D01*
X179483554Y-41831584D01*
X179099977Y-41448007D01*
X183891602Y-41448007D01*
X183898357Y-41510189D01*
X183949487Y-41646578D01*
X184036841Y-41763134D01*
X184153397Y-41850488D01*
X184289786Y-41901618D01*
X184351968Y-41908373D01*
X186248236Y-41908373D01*
X186310418Y-41901618D01*
X186446807Y-41850488D01*
X186563363Y-41763134D01*
X186650717Y-41646578D01*
X186701847Y-41510189D01*
X186708602Y-41448007D01*
X186708602Y-40051739D01*
X186701847Y-39989557D01*
X186650717Y-39853168D01*
X186563363Y-39736612D01*
X186446807Y-39649258D01*
X186310418Y-39598128D01*
X186248236Y-39591373D01*
X184351968Y-39591373D01*
X184289786Y-39598128D01*
X184153397Y-39649258D01*
X184036841Y-39736612D01*
X183949487Y-39853168D01*
X183898357Y-39989557D01*
X183891602Y-40051739D01*
X183891602Y-41448007D01*
X179099977Y-41448007D01*
X178195405Y-40543435D01*
X178161379Y-40481123D01*
X178158500Y-40454340D01*
X178158500Y-39701866D01*
X178151745Y-39639684D01*
X178100615Y-39503295D01*
X178013261Y-39386739D01*
X177896705Y-39299385D01*
X177760316Y-39248255D01*
X177698134Y-39241500D01*
X176601866Y-39241500D01*
X176539684Y-39248255D01*
X176532285Y-39251029D01*
X176529146Y-39251775D01*
X176470854Y-39251775D01*
X176467715Y-39251029D01*
X176460316Y-39248255D01*
X176398134Y-39241500D01*
X175301866Y-39241500D01*
X175239684Y-39248255D01*
X175239377Y-39245429D01*
X175181979Y-39242441D01*
X175134619Y-39212649D01*
X172869850Y-36947880D01*
X183891602Y-36947880D01*
X183898357Y-37010062D01*
X183949487Y-37146451D01*
X184036841Y-37263007D01*
X184153397Y-37350361D01*
X184289786Y-37401491D01*
X184351968Y-37408246D01*
X186248236Y-37408246D01*
X186310418Y-37401491D01*
X186446807Y-37350361D01*
X186563363Y-37263007D01*
X186650717Y-37146451D01*
X186701847Y-37010062D01*
X186708602Y-36947880D01*
X186708602Y-36944415D01*
X192291899Y-36944415D01*
X192292269Y-36951236D01*
X192297793Y-37002098D01*
X192301419Y-37017350D01*
X192346574Y-37137800D01*
X192355112Y-37153395D01*
X192431613Y-37255470D01*
X192444174Y-37268031D01*
X192546249Y-37344532D01*
X192561844Y-37353070D01*
X192682292Y-37398224D01*
X192697547Y-37401851D01*
X192748412Y-37407377D01*
X192755226Y-37407746D01*
X193427783Y-37407746D01*
X193443022Y-37403271D01*
X193444227Y-37401881D01*
X193445898Y-37394198D01*
X193445898Y-37389630D01*
X193953898Y-37389630D01*
X193958373Y-37404869D01*
X193959763Y-37406074D01*
X193967446Y-37407745D01*
X194644567Y-37407745D01*
X194651388Y-37407375D01*
X194702250Y-37401851D01*
X194717502Y-37398225D01*
X194837952Y-37353070D01*
X194853547Y-37344532D01*
X194955622Y-37268031D01*
X194968183Y-37255470D01*
X195044684Y-37153395D01*
X195053222Y-37137800D01*
X195098376Y-37017352D01*
X195102003Y-37002097D01*
X195107529Y-36951232D01*
X195107898Y-36944418D01*
X195107898Y-36521861D01*
X195103423Y-36506622D01*
X195102033Y-36505417D01*
X195094350Y-36503746D01*
X193972013Y-36503746D01*
X193956774Y-36508221D01*
X193955569Y-36509611D01*
X193953898Y-36517294D01*
X193953898Y-37389630D01*
X193445898Y-37389630D01*
X193445898Y-36521861D01*
X193441423Y-36506622D01*
X193440033Y-36505417D01*
X193432350Y-36503746D01*
X192310014Y-36503746D01*
X192294775Y-36508221D01*
X192293570Y-36509611D01*
X192291899Y-36517294D01*
X192291899Y-36944415D01*
X186708602Y-36944415D01*
X186708602Y-35977631D01*
X192291898Y-35977631D01*
X192296373Y-35992870D01*
X192297763Y-35994075D01*
X192305446Y-35995746D01*
X193427783Y-35995746D01*
X193443022Y-35991271D01*
X193444227Y-35989881D01*
X193445898Y-35982198D01*
X193445898Y-35977631D01*
X193953898Y-35977631D01*
X193958373Y-35992870D01*
X193959763Y-35994075D01*
X193967446Y-35995746D01*
X195089782Y-35995746D01*
X195105021Y-35991271D01*
X195106226Y-35989881D01*
X195107897Y-35982198D01*
X195107897Y-35555077D01*
X195107527Y-35548256D01*
X195102003Y-35497394D01*
X195098377Y-35482142D01*
X195053222Y-35361692D01*
X195044684Y-35346097D01*
X194968183Y-35244022D01*
X194955622Y-35231461D01*
X194853547Y-35154960D01*
X194837952Y-35146422D01*
X194717504Y-35101268D01*
X194702249Y-35097641D01*
X194651384Y-35092115D01*
X194644570Y-35091746D01*
X193972013Y-35091746D01*
X193956774Y-35096221D01*
X193955569Y-35097611D01*
X193953898Y-35105294D01*
X193953898Y-35977631D01*
X193445898Y-35977631D01*
X193445898Y-35109862D01*
X193441423Y-35094623D01*
X193440033Y-35093418D01*
X193432350Y-35091747D01*
X192755229Y-35091747D01*
X192748408Y-35092117D01*
X192697546Y-35097641D01*
X192682294Y-35101267D01*
X192561844Y-35146422D01*
X192546249Y-35154960D01*
X192444174Y-35231461D01*
X192431613Y-35244022D01*
X192355112Y-35346097D01*
X192346574Y-35361692D01*
X192301420Y-35482140D01*
X192297793Y-35497395D01*
X192292267Y-35548260D01*
X192291898Y-35555074D01*
X192291898Y-35977631D01*
X186708602Y-35977631D01*
X186708602Y-35551612D01*
X186701847Y-35489430D01*
X186650717Y-35353041D01*
X186563363Y-35236485D01*
X186446807Y-35149131D01*
X186310418Y-35098001D01*
X186248236Y-35091246D01*
X184351968Y-35091246D01*
X184289786Y-35098001D01*
X184153397Y-35149131D01*
X184036841Y-35236485D01*
X183949487Y-35353041D01*
X183898357Y-35489430D01*
X183891602Y-35551612D01*
X183891602Y-36947880D01*
X172869850Y-36947880D01*
X170249982Y-34328012D01*
X170215956Y-34265700D01*
X170213556Y-34227935D01*
X170233019Y-34005475D01*
X170233498Y-34000000D01*
X170213543Y-33771913D01*
X170154284Y-33550757D01*
X170151961Y-33545775D01*
X170059849Y-33348238D01*
X170059846Y-33348233D01*
X170057523Y-33343251D01*
X169926198Y-33155700D01*
X169764300Y-32993802D01*
X169759792Y-32990645D01*
X169759789Y-32990643D01*
X169632112Y-32901243D01*
X169576749Y-32862477D01*
X169571767Y-32860154D01*
X169571762Y-32860151D01*
X169374225Y-32768039D01*
X169374224Y-32768039D01*
X169369243Y-32765716D01*
X169363935Y-32764294D01*
X169363933Y-32764293D01*
X169153402Y-32707881D01*
X169153400Y-32707881D01*
X169148087Y-32706457D01*
X168920000Y-32686502D01*
X168691913Y-32706457D01*
X168686600Y-32707881D01*
X168686598Y-32707881D01*
X168476067Y-32764293D01*
X168476065Y-32764294D01*
X168470757Y-32765716D01*
X168465776Y-32768039D01*
X168465775Y-32768039D01*
X168268238Y-32860151D01*
X168268233Y-32860154D01*
X168263251Y-32862477D01*
X168207888Y-32901243D01*
X168080211Y-32990643D01*
X168080208Y-32990645D01*
X168075700Y-32993802D01*
X167913802Y-33155700D01*
X167782477Y-33343251D01*
X167780154Y-33348233D01*
X167780151Y-33348238D01*
X167688039Y-33545775D01*
X167685716Y-33550757D01*
X167626457Y-33771913D01*
X167606502Y-34000000D01*
X160528000Y-34000000D01*
X160528000Y-28047655D01*
X160799858Y-28047655D01*
X160835104Y-28306638D01*
X160836412Y-28311124D01*
X160836412Y-28311126D01*
X160849767Y-28356946D01*
X160908243Y-28557567D01*
X161017668Y-28794928D01*
X161020231Y-28798837D01*
X161158410Y-29009596D01*
X161158414Y-29009601D01*
X161160976Y-29013509D01*
X161335018Y-29208506D01*
X161535970Y-29375637D01*
X161539973Y-29378066D01*
X161755422Y-29508804D01*
X161755426Y-29508806D01*
X161759419Y-29511229D01*
X162000455Y-29612303D01*
X162253783Y-29676641D01*
X162258434Y-29677109D01*
X162258438Y-29677110D01*
X162451308Y-29696531D01*
X162470867Y-29698500D01*
X162626354Y-29698500D01*
X162628679Y-29698327D01*
X162628685Y-29698327D01*
X162816000Y-29684407D01*
X162816004Y-29684406D01*
X162820652Y-29684061D01*
X162825200Y-29683032D01*
X162825206Y-29683031D01*
X163011601Y-29640853D01*
X163075577Y-29626377D01*
X163111769Y-29612303D01*
X163314824Y-29533340D01*
X163314827Y-29533339D01*
X163319177Y-29531647D01*
X163443713Y-29460469D01*
X177637095Y-29460469D01*
X177637392Y-29465622D01*
X177637392Y-29465625D01*
X177646563Y-29624684D01*
X177650427Y-29691697D01*
X177651564Y-29696743D01*
X177651565Y-29696749D01*
X177666394Y-29762548D01*
X177701346Y-29917642D01*
X177703288Y-29922424D01*
X177703289Y-29922428D01*
X177786540Y-30127450D01*
X177788484Y-30132237D01*
X177909501Y-30329719D01*
X178061147Y-30504784D01*
X178239349Y-30652730D01*
X178243812Y-30655338D01*
X178243815Y-30655340D01*
X178309070Y-30693471D01*
X178357794Y-30745109D01*
X178371500Y-30802259D01*
X178371500Y-32833122D01*
X178351498Y-32901243D01*
X178317771Y-32936335D01*
X178240211Y-32990643D01*
X178240208Y-32990645D01*
X178235700Y-32993802D01*
X178073802Y-33155700D01*
X177942477Y-33343251D01*
X177940154Y-33348233D01*
X177940151Y-33348238D01*
X177848039Y-33545775D01*
X177845716Y-33550757D01*
X177786457Y-33771913D01*
X177766502Y-34000000D01*
X177786457Y-34228087D01*
X177845716Y-34449243D01*
X177848039Y-34454224D01*
X177848039Y-34454225D01*
X177940151Y-34651762D01*
X177940154Y-34651767D01*
X177942477Y-34656749D01*
X178073802Y-34844300D01*
X178235700Y-35006198D01*
X178240208Y-35009355D01*
X178240211Y-35009357D01*
X178318389Y-35064098D01*
X178423251Y-35137523D01*
X178428233Y-35139846D01*
X178428238Y-35139849D01*
X178623937Y-35231104D01*
X178630757Y-35234284D01*
X178636065Y-35235706D01*
X178636067Y-35235707D01*
X178846598Y-35292119D01*
X178846600Y-35292119D01*
X178851913Y-35293543D01*
X179080000Y-35313498D01*
X179308087Y-35293543D01*
X179313400Y-35292119D01*
X179313402Y-35292119D01*
X179523933Y-35235707D01*
X179523935Y-35235706D01*
X179529243Y-35234284D01*
X179536063Y-35231104D01*
X179731762Y-35139849D01*
X179731767Y-35139846D01*
X179736749Y-35137523D01*
X179841611Y-35064098D01*
X179919789Y-35009357D01*
X179919792Y-35009355D01*
X179924300Y-35006198D01*
X180086198Y-34844300D01*
X180217523Y-34656749D01*
X180219846Y-34651767D01*
X180219849Y-34651762D01*
X180311961Y-34454225D01*
X180311961Y-34454224D01*
X180314284Y-34449243D01*
X180373543Y-34228087D01*
X180393498Y-34000000D01*
X180373543Y-33771913D01*
X180314284Y-33550757D01*
X180311961Y-33545775D01*
X180219849Y-33348238D01*
X180219846Y-33348233D01*
X180217523Y-33343251D01*
X180086198Y-33155700D01*
X179924300Y-32993802D01*
X179919792Y-32990645D01*
X179919789Y-32990643D01*
X179842229Y-32936335D01*
X179797901Y-32880878D01*
X179788500Y-32833122D01*
X179788500Y-30763318D01*
X179808502Y-30695197D01*
X179841331Y-30660739D01*
X179848900Y-30655340D01*
X179962243Y-30574494D01*
X179965898Y-30570852D01*
X179965906Y-30570845D01*
X180007697Y-30529199D01*
X180070068Y-30495282D01*
X180140875Y-30500470D01*
X180197637Y-30543116D01*
X180214619Y-30574218D01*
X180236677Y-30633056D01*
X180245214Y-30648649D01*
X180321715Y-30750724D01*
X180334276Y-30763285D01*
X180436351Y-30839786D01*
X180451946Y-30848324D01*
X180572394Y-30893478D01*
X180587649Y-30897105D01*
X180638514Y-30902631D01*
X180645328Y-30903000D01*
X181317885Y-30903000D01*
X181333124Y-30898525D01*
X181334329Y-30897135D01*
X181336000Y-30889452D01*
X181336000Y-30884884D01*
X181844000Y-30884884D01*
X181848475Y-30900123D01*
X181849865Y-30901328D01*
X181857548Y-30902999D01*
X182534669Y-30902999D01*
X182541490Y-30902629D01*
X182592352Y-30897105D01*
X182607604Y-30893479D01*
X182728054Y-30848324D01*
X182743649Y-30839786D01*
X182845724Y-30763285D01*
X182858285Y-30750724D01*
X182934786Y-30648649D01*
X182943324Y-30633054D01*
X182988478Y-30512606D01*
X182992105Y-30497351D01*
X182997631Y-30446486D01*
X182998000Y-30439672D01*
X182998000Y-29767115D01*
X182993525Y-29751876D01*
X182992135Y-29750671D01*
X182984452Y-29749000D01*
X181862115Y-29749000D01*
X181846876Y-29753475D01*
X181845671Y-29754865D01*
X181844000Y-29762548D01*
X181844000Y-30884884D01*
X181336000Y-30884884D01*
X181336000Y-29222885D01*
X181844000Y-29222885D01*
X181848475Y-29238124D01*
X181849865Y-29239329D01*
X181857548Y-29241000D01*
X182979884Y-29241000D01*
X182995123Y-29236525D01*
X182996328Y-29235135D01*
X182997999Y-29227452D01*
X182997999Y-28550331D01*
X182997629Y-28543510D01*
X182992105Y-28492648D01*
X182988479Y-28477396D01*
X182943324Y-28356946D01*
X182934786Y-28341351D01*
X182858285Y-28239276D01*
X182845724Y-28226715D01*
X182743649Y-28150214D01*
X182728054Y-28141676D01*
X182607606Y-28096522D01*
X182592351Y-28092895D01*
X182541486Y-28087369D01*
X182534672Y-28087000D01*
X181862115Y-28087000D01*
X181846876Y-28091475D01*
X181845671Y-28092865D01*
X181844000Y-28100548D01*
X181844000Y-29222885D01*
X181336000Y-29222885D01*
X181336000Y-28105116D01*
X181331525Y-28089877D01*
X181330135Y-28088672D01*
X181322452Y-28087001D01*
X180645331Y-28087001D01*
X180638510Y-28087371D01*
X180587648Y-28092895D01*
X180572396Y-28096521D01*
X180451946Y-28141676D01*
X180436351Y-28150214D01*
X180334276Y-28226715D01*
X180321715Y-28239276D01*
X180245214Y-28341351D01*
X180236675Y-28356948D01*
X180215934Y-28412275D01*
X180173293Y-28469040D01*
X180106731Y-28493740D01*
X180037383Y-28478533D01*
X180014388Y-28461909D01*
X180013887Y-28461358D01*
X179951737Y-28412275D01*
X179836177Y-28321011D01*
X179836172Y-28321008D01*
X179832123Y-28317810D01*
X179827607Y-28315317D01*
X179827604Y-28315315D01*
X179633879Y-28208373D01*
X179633875Y-28208371D01*
X179629355Y-28205876D01*
X179624486Y-28204152D01*
X179624482Y-28204150D01*
X179415903Y-28130288D01*
X179415899Y-28130287D01*
X179411028Y-28128562D01*
X179405935Y-28127655D01*
X179405932Y-28127654D01*
X179188095Y-28088851D01*
X179188089Y-28088850D01*
X179183006Y-28087945D01*
X179105644Y-28087000D01*
X178956581Y-28085179D01*
X178956579Y-28085179D01*
X178951411Y-28085116D01*
X178722464Y-28120150D01*
X178502314Y-28192106D01*
X178497726Y-28194494D01*
X178497722Y-28194496D01*
X178301461Y-28296663D01*
X178296872Y-28299052D01*
X178292739Y-28302155D01*
X178292736Y-28302157D01*
X178146073Y-28412275D01*
X178111655Y-28438117D01*
X177951639Y-28605564D01*
X177821119Y-28796899D01*
X177723602Y-29006981D01*
X177661707Y-29230169D01*
X177637095Y-29460469D01*
X163443713Y-29460469D01*
X163546098Y-29401951D01*
X163751357Y-29240138D01*
X163930443Y-29049763D01*
X164079424Y-28835009D01*
X164099190Y-28794928D01*
X164192960Y-28604781D01*
X164192961Y-28604778D01*
X164195025Y-28600593D01*
X164234097Y-28478533D01*
X164273280Y-28356123D01*
X164274707Y-28351665D01*
X164316721Y-28093693D01*
X164317324Y-28047655D01*
X196359858Y-28047655D01*
X196395104Y-28306638D01*
X196396412Y-28311124D01*
X196396412Y-28311126D01*
X196409767Y-28356946D01*
X196468243Y-28557567D01*
X196577668Y-28794928D01*
X196580231Y-28798837D01*
X196718410Y-29009596D01*
X196718414Y-29009601D01*
X196720976Y-29013509D01*
X196895018Y-29208506D01*
X197095970Y-29375637D01*
X197099973Y-29378066D01*
X197315422Y-29508804D01*
X197315426Y-29508806D01*
X197319419Y-29511229D01*
X197560455Y-29612303D01*
X197813783Y-29676641D01*
X197818434Y-29677109D01*
X197818438Y-29677110D01*
X198011308Y-29696531D01*
X198030867Y-29698500D01*
X198186354Y-29698500D01*
X198188679Y-29698327D01*
X198188685Y-29698327D01*
X198376000Y-29684407D01*
X198376004Y-29684406D01*
X198380652Y-29684061D01*
X198385200Y-29683032D01*
X198385206Y-29683031D01*
X198571601Y-29640853D01*
X198635577Y-29626377D01*
X198671769Y-29612303D01*
X198874824Y-29533340D01*
X198874827Y-29533339D01*
X198879177Y-29531647D01*
X199106098Y-29401951D01*
X199311357Y-29240138D01*
X199490443Y-29049763D01*
X199639424Y-28835009D01*
X199659190Y-28794928D01*
X199752960Y-28604781D01*
X199752961Y-28604778D01*
X199755025Y-28600593D01*
X199794097Y-28478533D01*
X199833280Y-28356123D01*
X199834707Y-28351665D01*
X199876721Y-28093693D01*
X199880142Y-27832345D01*
X199844896Y-27573362D01*
X199830473Y-27523877D01*
X199773068Y-27326932D01*
X199771757Y-27322433D01*
X199662332Y-27085072D01*
X199629519Y-27035024D01*
X199521590Y-26870404D01*
X199521586Y-26870399D01*
X199519024Y-26866491D01*
X199344982Y-26671494D01*
X199144030Y-26504363D01*
X199096844Y-26475730D01*
X198924578Y-26371196D01*
X198924574Y-26371194D01*
X198920581Y-26368771D01*
X198679545Y-26267697D01*
X198426217Y-26203359D01*
X198421566Y-26202891D01*
X198421562Y-26202890D01*
X198212271Y-26181816D01*
X198209133Y-26181500D01*
X198053646Y-26181500D01*
X198051321Y-26181673D01*
X198051315Y-26181673D01*
X197864000Y-26195593D01*
X197863996Y-26195594D01*
X197859348Y-26195939D01*
X197854800Y-26196968D01*
X197854794Y-26196969D01*
X197668399Y-26239147D01*
X197604423Y-26253623D01*
X197600071Y-26255315D01*
X197600069Y-26255316D01*
X197365176Y-26346660D01*
X197365173Y-26346661D01*
X197360823Y-26348353D01*
X197133902Y-26478049D01*
X196928643Y-26639862D01*
X196749557Y-26830237D01*
X196600576Y-27044991D01*
X196484975Y-27279407D01*
X196405293Y-27528335D01*
X196363279Y-27786307D01*
X196359858Y-28047655D01*
X164317324Y-28047655D01*
X164320142Y-27832345D01*
X164284896Y-27573362D01*
X164270473Y-27523877D01*
X164213068Y-27326932D01*
X164211757Y-27322433D01*
X164102332Y-27085072D01*
X164069519Y-27035024D01*
X163961590Y-26870404D01*
X163961586Y-26870399D01*
X163959024Y-26866491D01*
X163784982Y-26671494D01*
X163584030Y-26504363D01*
X163536844Y-26475730D01*
X163364578Y-26371196D01*
X163364574Y-26371194D01*
X163360581Y-26368771D01*
X163119545Y-26267697D01*
X162866217Y-26203359D01*
X162861566Y-26202891D01*
X162861562Y-26202890D01*
X162652271Y-26181816D01*
X162649133Y-26181500D01*
X162493646Y-26181500D01*
X162491321Y-26181673D01*
X162491315Y-26181673D01*
X162304000Y-26195593D01*
X162303996Y-26195594D01*
X162299348Y-26195939D01*
X162294800Y-26196968D01*
X162294794Y-26196969D01*
X162108399Y-26239147D01*
X162044423Y-26253623D01*
X162040071Y-26255315D01*
X162040069Y-26255316D01*
X161805176Y-26346660D01*
X161805173Y-26346661D01*
X161800823Y-26348353D01*
X161573902Y-26478049D01*
X161368643Y-26639862D01*
X161189557Y-26830237D01*
X161040576Y-27044991D01*
X160924975Y-27279407D01*
X160845293Y-27528335D01*
X160803279Y-27786307D01*
X160799858Y-28047655D01*
X160528000Y-28047655D01*
X160528000Y-26034000D01*
X160548002Y-25965879D01*
X160601658Y-25919386D01*
X160654000Y-25908000D01*
X200026000Y-25908000D01*
X200094121Y-25928002D01*
G37*
%TD.AperFunction*%
%TA.AperFunction,Conductor*%
G36*
X130510659Y-70917599D02*
G01*
X130557152Y-70971255D01*
X130568538Y-71023597D01*
X130568538Y-71611697D01*
X130575293Y-71673879D01*
X130578065Y-71681272D01*
X130578065Y-71681274D01*
X130592562Y-71719945D01*
X130597745Y-71790753D01*
X130592562Y-71808403D01*
X130578558Y-71845759D01*
X130574933Y-71861004D01*
X130569407Y-71911875D01*
X130569038Y-71918689D01*
X130569038Y-71991220D01*
X130573513Y-72006459D01*
X130574903Y-72007664D01*
X130582586Y-72009335D01*
X130794572Y-72009335D01*
X130838801Y-72017353D01*
X130959320Y-72062534D01*
X130959326Y-72062536D01*
X130966722Y-72065308D01*
X131028904Y-72072063D01*
X132305038Y-72072063D01*
X132373159Y-72092065D01*
X132419652Y-72145721D01*
X132431038Y-72198063D01*
X132431038Y-73053193D01*
X132435513Y-73068432D01*
X132436903Y-73069637D01*
X132444586Y-73071308D01*
X133321707Y-73071308D01*
X133328528Y-73070938D01*
X133379390Y-73065414D01*
X133394642Y-73061788D01*
X133515092Y-73016633D01*
X133530687Y-73008095D01*
X133632762Y-72931594D01*
X133645323Y-72919033D01*
X133721824Y-72816958D01*
X133730362Y-72801363D01*
X133775518Y-72680911D01*
X133775769Y-72679854D01*
X133776191Y-72679116D01*
X133778290Y-72673516D01*
X133779196Y-72673855D01*
X133810984Y-72618207D01*
X133873939Y-72585385D01*
X133944644Y-72591809D01*
X133987447Y-72619902D01*
X135790569Y-74423025D01*
X137579595Y-76212051D01*
X137613621Y-76274363D01*
X137616500Y-76301146D01*
X137616500Y-78671233D01*
X137615973Y-78682416D01*
X137614298Y-78689909D01*
X137614547Y-78697834D01*
X137614547Y-78697835D01*
X137615688Y-78734124D01*
X137597836Y-78802839D01*
X137545668Y-78850995D01*
X137501608Y-78863524D01*
X137476039Y-78865941D01*
X137464181Y-78866500D01*
X130064594Y-78866500D01*
X129996473Y-78846498D01*
X129975499Y-78829595D01*
X128433546Y-77287641D01*
X128399520Y-77225329D01*
X128404585Y-77154513D01*
X128447132Y-77097678D01*
X128513652Y-77072867D01*
X128522641Y-77072546D01*
X131400052Y-77072546D01*
X131462234Y-77065791D01*
X131598623Y-77014661D01*
X131715179Y-76927307D01*
X131802533Y-76810751D01*
X131853663Y-76674362D01*
X131860418Y-76612180D01*
X131860418Y-73178699D01*
X131880420Y-73110578D01*
X131897284Y-73095965D01*
X131895934Y-73094795D01*
X131921367Y-73065444D01*
X131923038Y-73057761D01*
X131923038Y-72535450D01*
X131918563Y-72520211D01*
X131917173Y-72519006D01*
X131909490Y-72517335D01*
X130587154Y-72517335D01*
X130571915Y-72521810D01*
X130570710Y-72523200D01*
X130566160Y-72544118D01*
X130564844Y-72543832D01*
X130549037Y-72597667D01*
X130495381Y-72644160D01*
X130443039Y-72655546D01*
X128303784Y-72655546D01*
X128300392Y-72655914D01*
X128300382Y-72655915D01*
X128273106Y-72658878D01*
X128203224Y-72646349D01*
X128151209Y-72598028D01*
X128133500Y-72533615D01*
X128133500Y-71564594D01*
X128153502Y-71496473D01*
X128170405Y-71475499D01*
X128711402Y-70934502D01*
X128773714Y-70900476D01*
X128800497Y-70897597D01*
X130442538Y-70897597D01*
X130510659Y-70917599D01*
G37*
%TD.AperFunction*%
%TA.AperFunction,Conductor*%
G36*
X151383947Y-69693502D02*
G01*
X151430440Y-69747158D01*
X151441225Y-69787204D01*
X151454163Y-69919160D01*
X151511418Y-70091273D01*
X151515065Y-70097295D01*
X151515066Y-70097297D01*
X151598549Y-70235144D01*
X151605380Y-70246424D01*
X151610269Y-70251487D01*
X151610270Y-70251488D01*
X151632284Y-70274284D01*
X151731382Y-70376902D01*
X151752141Y-70390486D01*
X151836416Y-70445634D01*
X151883159Y-70476222D01*
X151889763Y-70478678D01*
X151889765Y-70478679D01*
X152046558Y-70536990D01*
X152046560Y-70536990D01*
X152053168Y-70539448D01*
X152136995Y-70550633D01*
X152225980Y-70562507D01*
X152225984Y-70562507D01*
X152232961Y-70563438D01*
X152239972Y-70562800D01*
X152239976Y-70562800D01*
X152382459Y-70549832D01*
X152413600Y-70546998D01*
X152420302Y-70544820D01*
X152420304Y-70544820D01*
X152579409Y-70493124D01*
X152579412Y-70493123D01*
X152586108Y-70490947D01*
X152736540Y-70401271D01*
X152801058Y-70383500D01*
X191185405Y-70383500D01*
X191253526Y-70403502D01*
X191274501Y-70420405D01*
X191354596Y-70500501D01*
X191388621Y-70562814D01*
X191391500Y-70589596D01*
X191391500Y-71329404D01*
X191371498Y-71397525D01*
X191330867Y-71437122D01*
X191221683Y-71503377D01*
X191217653Y-71506874D01*
X191096855Y-71611697D01*
X191047555Y-71654477D01*
X191044168Y-71658608D01*
X190904760Y-71828627D01*
X190904756Y-71828633D01*
X190901376Y-71832755D01*
X190898574Y-71837678D01*
X190865123Y-71896443D01*
X190814041Y-71945749D01*
X190744411Y-71959611D01*
X190678340Y-71933628D01*
X190651101Y-71904478D01*
X190645692Y-71896443D01*
X190547559Y-71750681D01*
X190388424Y-71583865D01*
X190203458Y-71446246D01*
X190198707Y-71443830D01*
X190198703Y-71443828D01*
X190080588Y-71383776D01*
X189997949Y-71341760D01*
X189992855Y-71340178D01*
X189992852Y-71340177D01*
X189782871Y-71274976D01*
X189777773Y-71273393D01*
X189772484Y-71272692D01*
X189554511Y-71243802D01*
X189554506Y-71243802D01*
X189549226Y-71243102D01*
X189543897Y-71243302D01*
X189543895Y-71243302D01*
X189434034Y-71247426D01*
X189318842Y-71251751D01*
X189093209Y-71299093D01*
X189088250Y-71301051D01*
X189088248Y-71301052D01*
X188883744Y-71381815D01*
X188883742Y-71381816D01*
X188878779Y-71383776D01*
X188874220Y-71386543D01*
X188874217Y-71386544D01*
X188779113Y-71444255D01*
X188681683Y-71503377D01*
X188677653Y-71506874D01*
X188556855Y-71611697D01*
X188507555Y-71654477D01*
X188504168Y-71658608D01*
X188364760Y-71828627D01*
X188364756Y-71828633D01*
X188361376Y-71832755D01*
X188358574Y-71837678D01*
X188325123Y-71896443D01*
X188274041Y-71945749D01*
X188204411Y-71959611D01*
X188138340Y-71933628D01*
X188111101Y-71904478D01*
X188105692Y-71896443D01*
X188007559Y-71750681D01*
X187848424Y-71583865D01*
X187663458Y-71446246D01*
X187658707Y-71443830D01*
X187658703Y-71443828D01*
X187540588Y-71383776D01*
X187457949Y-71341760D01*
X187452855Y-71340178D01*
X187452852Y-71340177D01*
X187242871Y-71274976D01*
X187237773Y-71273393D01*
X187232484Y-71272692D01*
X187014511Y-71243802D01*
X187014506Y-71243802D01*
X187009226Y-71243102D01*
X187003897Y-71243302D01*
X187003895Y-71243302D01*
X186894034Y-71247426D01*
X186778842Y-71251751D01*
X186553209Y-71299093D01*
X186548250Y-71301051D01*
X186548248Y-71301052D01*
X186343744Y-71381815D01*
X186343742Y-71381816D01*
X186338779Y-71383776D01*
X186334220Y-71386543D01*
X186334217Y-71386544D01*
X186239113Y-71444255D01*
X186141683Y-71503377D01*
X186137653Y-71506874D01*
X186016855Y-71611697D01*
X185967555Y-71654477D01*
X185964168Y-71658608D01*
X185824760Y-71828627D01*
X185824756Y-71828633D01*
X185821376Y-71832755D01*
X185818574Y-71837678D01*
X185785123Y-71896443D01*
X185734041Y-71945749D01*
X185664411Y-71959611D01*
X185598340Y-71933628D01*
X185571101Y-71904478D01*
X185565692Y-71896443D01*
X185467559Y-71750681D01*
X185308424Y-71583865D01*
X185123458Y-71446246D01*
X185118707Y-71443830D01*
X185118703Y-71443828D01*
X185000588Y-71383776D01*
X184917949Y-71341760D01*
X184912855Y-71340178D01*
X184912852Y-71340177D01*
X184702871Y-71274976D01*
X184697773Y-71273393D01*
X184692484Y-71272692D01*
X184474511Y-71243802D01*
X184474506Y-71243802D01*
X184469226Y-71243102D01*
X184463897Y-71243302D01*
X184463895Y-71243302D01*
X184354034Y-71247426D01*
X184238842Y-71251751D01*
X184013209Y-71299093D01*
X184008250Y-71301051D01*
X184008248Y-71301052D01*
X183803744Y-71381815D01*
X183803742Y-71381816D01*
X183798779Y-71383776D01*
X183794220Y-71386543D01*
X183794217Y-71386544D01*
X183699113Y-71444255D01*
X183601683Y-71503377D01*
X183597653Y-71506874D01*
X183476855Y-71611697D01*
X183427555Y-71654477D01*
X183424168Y-71658608D01*
X183284760Y-71828627D01*
X183284756Y-71828633D01*
X183281376Y-71832755D01*
X183278574Y-71837678D01*
X183245123Y-71896443D01*
X183194041Y-71945749D01*
X183124411Y-71959611D01*
X183058340Y-71933628D01*
X183031101Y-71904478D01*
X183025692Y-71896443D01*
X182927559Y-71750681D01*
X182768424Y-71583865D01*
X182583458Y-71446246D01*
X182578707Y-71443830D01*
X182578703Y-71443828D01*
X182460588Y-71383776D01*
X182377949Y-71341760D01*
X182372855Y-71340178D01*
X182372852Y-71340177D01*
X182162871Y-71274976D01*
X182157773Y-71273393D01*
X182152484Y-71272692D01*
X181934511Y-71243802D01*
X181934506Y-71243802D01*
X181929226Y-71243102D01*
X181923897Y-71243302D01*
X181923895Y-71243302D01*
X181814034Y-71247426D01*
X181698842Y-71251751D01*
X181473209Y-71299093D01*
X181468250Y-71301051D01*
X181468248Y-71301052D01*
X181263744Y-71381815D01*
X181263742Y-71381816D01*
X181258779Y-71383776D01*
X181254220Y-71386543D01*
X181254217Y-71386544D01*
X181159113Y-71444255D01*
X181061683Y-71503377D01*
X181057653Y-71506874D01*
X180936855Y-71611697D01*
X180887555Y-71654477D01*
X180884168Y-71658608D01*
X180744760Y-71828627D01*
X180744756Y-71828633D01*
X180741376Y-71832755D01*
X180738574Y-71837678D01*
X180705123Y-71896443D01*
X180654041Y-71945749D01*
X180584411Y-71959611D01*
X180518340Y-71933628D01*
X180491101Y-71904478D01*
X180485692Y-71896443D01*
X180387559Y-71750681D01*
X180228424Y-71583865D01*
X180043458Y-71446246D01*
X180038707Y-71443830D01*
X180038703Y-71443828D01*
X179920588Y-71383776D01*
X179837949Y-71341760D01*
X179832855Y-71340178D01*
X179832852Y-71340177D01*
X179622871Y-71274976D01*
X179617773Y-71273393D01*
X179612484Y-71272692D01*
X179394511Y-71243802D01*
X179394506Y-71243802D01*
X179389226Y-71243102D01*
X179383897Y-71243302D01*
X179383895Y-71243302D01*
X179274034Y-71247426D01*
X179158842Y-71251751D01*
X178933209Y-71299093D01*
X178928250Y-71301051D01*
X178928248Y-71301052D01*
X178723744Y-71381815D01*
X178723742Y-71381816D01*
X178718779Y-71383776D01*
X178714220Y-71386543D01*
X178714217Y-71386544D01*
X178619113Y-71444255D01*
X178521683Y-71503377D01*
X178517653Y-71506874D01*
X178396855Y-71611697D01*
X178347555Y-71654477D01*
X178344168Y-71658608D01*
X178204760Y-71828627D01*
X178204756Y-71828633D01*
X178201376Y-71832755D01*
X178198574Y-71837678D01*
X178165123Y-71896443D01*
X178114041Y-71945749D01*
X178044411Y-71959611D01*
X177978340Y-71933628D01*
X177951101Y-71904478D01*
X177945692Y-71896443D01*
X177847559Y-71750681D01*
X177688424Y-71583865D01*
X177503458Y-71446246D01*
X177498707Y-71443830D01*
X177498703Y-71443828D01*
X177380588Y-71383776D01*
X177297949Y-71341760D01*
X177292855Y-71340178D01*
X177292852Y-71340177D01*
X177082871Y-71274976D01*
X177077773Y-71273393D01*
X177072484Y-71272692D01*
X176854511Y-71243802D01*
X176854506Y-71243802D01*
X176849226Y-71243102D01*
X176843897Y-71243302D01*
X176843895Y-71243302D01*
X176734034Y-71247426D01*
X176618842Y-71251751D01*
X176393209Y-71299093D01*
X176388250Y-71301051D01*
X176388248Y-71301052D01*
X176183744Y-71381815D01*
X176183742Y-71381816D01*
X176178779Y-71383776D01*
X176174220Y-71386543D01*
X176174217Y-71386544D01*
X176079113Y-71444255D01*
X175981683Y-71503377D01*
X175977653Y-71506874D01*
X175856855Y-71611697D01*
X175807555Y-71654477D01*
X175804168Y-71658608D01*
X175664760Y-71828627D01*
X175664756Y-71828633D01*
X175661376Y-71832755D01*
X175658574Y-71837678D01*
X175625123Y-71896443D01*
X175574041Y-71945749D01*
X175504411Y-71959611D01*
X175438340Y-71933628D01*
X175411101Y-71904478D01*
X175405692Y-71896443D01*
X175307559Y-71750681D01*
X175148424Y-71583865D01*
X174963458Y-71446246D01*
X174958707Y-71443830D01*
X174958703Y-71443828D01*
X174840588Y-71383776D01*
X174757949Y-71341760D01*
X174752855Y-71340178D01*
X174752852Y-71340177D01*
X174542871Y-71274976D01*
X174537773Y-71273393D01*
X174532484Y-71272692D01*
X174314511Y-71243802D01*
X174314506Y-71243802D01*
X174309226Y-71243102D01*
X174303897Y-71243302D01*
X174303895Y-71243302D01*
X174194034Y-71247426D01*
X174078842Y-71251751D01*
X173853209Y-71299093D01*
X173848250Y-71301051D01*
X173848248Y-71301052D01*
X173643744Y-71381815D01*
X173643742Y-71381816D01*
X173638779Y-71383776D01*
X173634220Y-71386543D01*
X173634217Y-71386544D01*
X173539113Y-71444255D01*
X173441683Y-71503377D01*
X173437653Y-71506874D01*
X173316855Y-71611697D01*
X173267555Y-71654477D01*
X173264168Y-71658608D01*
X173124760Y-71828627D01*
X173124756Y-71828633D01*
X173121376Y-71832755D01*
X173118574Y-71837678D01*
X173085123Y-71896443D01*
X173034041Y-71945749D01*
X172964411Y-71959611D01*
X172898340Y-71933628D01*
X172871101Y-71904478D01*
X172865692Y-71896443D01*
X172767559Y-71750681D01*
X172608424Y-71583865D01*
X172423458Y-71446246D01*
X172418707Y-71443830D01*
X172418703Y-71443828D01*
X172300588Y-71383776D01*
X172217949Y-71341760D01*
X172212855Y-71340178D01*
X172212852Y-71340177D01*
X172002871Y-71274976D01*
X171997773Y-71273393D01*
X171992484Y-71272692D01*
X171774511Y-71243802D01*
X171774506Y-71243802D01*
X171769226Y-71243102D01*
X171763897Y-71243302D01*
X171763895Y-71243302D01*
X171654034Y-71247426D01*
X171538842Y-71251751D01*
X171313209Y-71299093D01*
X171308250Y-71301051D01*
X171308248Y-71301052D01*
X171103744Y-71381815D01*
X171103742Y-71381816D01*
X171098779Y-71383776D01*
X171094220Y-71386543D01*
X171094217Y-71386544D01*
X170999113Y-71444255D01*
X170901683Y-71503377D01*
X170897653Y-71506874D01*
X170776855Y-71611697D01*
X170727555Y-71654477D01*
X170724168Y-71658608D01*
X170584760Y-71828627D01*
X170584756Y-71828633D01*
X170581376Y-71832755D01*
X170544860Y-71896906D01*
X170544847Y-71896928D01*
X170493765Y-71946234D01*
X170424135Y-71960096D01*
X170358064Y-71934113D01*
X170330825Y-71904963D01*
X170230150Y-71755425D01*
X170223481Y-71747130D01*
X170071772Y-71588100D01*
X170063814Y-71581059D01*
X169887475Y-71449859D01*
X169878438Y-71444255D01*
X169682516Y-71344643D01*
X169672665Y-71340643D01*
X169462760Y-71275466D01*
X169452376Y-71273183D01*
X169436957Y-71271139D01*
X169422793Y-71273335D01*
X169419000Y-71286522D01*
X169419000Y-73892000D01*
X169398998Y-73960121D01*
X169345342Y-74006614D01*
X169293000Y-74018000D01*
X169037000Y-74018000D01*
X168968879Y-73997998D01*
X168922386Y-73944342D01*
X168911000Y-73892000D01*
X168911000Y-71288808D01*
X168907027Y-71275277D01*
X168896420Y-71273752D01*
X168778579Y-71298477D01*
X168768383Y-71301537D01*
X168563971Y-71382263D01*
X168554439Y-71386994D01*
X168366538Y-71501016D01*
X168357948Y-71507280D01*
X168191948Y-71651327D01*
X168184528Y-71658958D01*
X168045174Y-71828911D01*
X168039150Y-71837678D01*
X168005435Y-71896906D01*
X167954353Y-71946212D01*
X167884723Y-71960074D01*
X167818652Y-71934091D01*
X167791413Y-71904941D01*
X167746129Y-71837678D01*
X167687559Y-71750681D01*
X167528424Y-71583865D01*
X167343458Y-71446246D01*
X167338707Y-71443830D01*
X167338703Y-71443828D01*
X167220588Y-71383776D01*
X167137949Y-71341760D01*
X167132855Y-71340178D01*
X167132852Y-71340177D01*
X166922871Y-71274976D01*
X166917773Y-71273393D01*
X166912484Y-71272692D01*
X166694511Y-71243802D01*
X166694506Y-71243802D01*
X166689226Y-71243102D01*
X166683897Y-71243302D01*
X166683895Y-71243302D01*
X166574034Y-71247426D01*
X166458842Y-71251751D01*
X166233209Y-71299093D01*
X166228250Y-71301051D01*
X166228248Y-71301052D01*
X166023744Y-71381815D01*
X166023742Y-71381816D01*
X166018779Y-71383776D01*
X166014220Y-71386543D01*
X166014217Y-71386544D01*
X165919113Y-71444255D01*
X165821683Y-71503377D01*
X165817653Y-71506874D01*
X165696855Y-71611697D01*
X165647555Y-71654477D01*
X165644168Y-71658608D01*
X165504760Y-71828627D01*
X165504756Y-71828633D01*
X165501376Y-71832755D01*
X165498574Y-71837678D01*
X165465123Y-71896443D01*
X165414041Y-71945749D01*
X165344411Y-71959611D01*
X165278340Y-71933628D01*
X165251101Y-71904478D01*
X165245692Y-71896443D01*
X165147559Y-71750681D01*
X164988424Y-71583865D01*
X164803458Y-71446246D01*
X164798707Y-71443830D01*
X164798703Y-71443828D01*
X164680588Y-71383776D01*
X164597949Y-71341760D01*
X164592855Y-71340178D01*
X164592852Y-71340177D01*
X164382871Y-71274976D01*
X164377773Y-71273393D01*
X164372484Y-71272692D01*
X164154511Y-71243802D01*
X164154506Y-71243802D01*
X164149226Y-71243102D01*
X164143897Y-71243302D01*
X164143895Y-71243302D01*
X164034034Y-71247426D01*
X163918842Y-71251751D01*
X163693209Y-71299093D01*
X163688250Y-71301051D01*
X163688248Y-71301052D01*
X163483744Y-71381815D01*
X163483742Y-71381816D01*
X163478779Y-71383776D01*
X163474220Y-71386543D01*
X163474217Y-71386544D01*
X163379113Y-71444255D01*
X163281683Y-71503377D01*
X163277653Y-71506874D01*
X163156855Y-71611697D01*
X163107555Y-71654477D01*
X163104168Y-71658608D01*
X162964760Y-71828627D01*
X162964756Y-71828633D01*
X162961376Y-71832755D01*
X162958574Y-71837678D01*
X162925123Y-71896443D01*
X162874041Y-71945749D01*
X162804411Y-71959611D01*
X162738340Y-71933628D01*
X162711101Y-71904478D01*
X162705692Y-71896443D01*
X162607559Y-71750681D01*
X162448424Y-71583865D01*
X162263458Y-71446246D01*
X162258707Y-71443830D01*
X162258703Y-71443828D01*
X162140588Y-71383776D01*
X162057949Y-71341760D01*
X162052855Y-71340178D01*
X162052852Y-71340177D01*
X161842871Y-71274976D01*
X161837773Y-71273393D01*
X161832484Y-71272692D01*
X161614511Y-71243802D01*
X161614506Y-71243802D01*
X161609226Y-71243102D01*
X161603897Y-71243302D01*
X161603895Y-71243302D01*
X161494034Y-71247426D01*
X161378842Y-71251751D01*
X161153209Y-71299093D01*
X161148250Y-71301051D01*
X161148248Y-71301052D01*
X160943744Y-71381815D01*
X160943742Y-71381816D01*
X160938779Y-71383776D01*
X160934220Y-71386543D01*
X160934217Y-71386544D01*
X160839113Y-71444255D01*
X160741683Y-71503377D01*
X160737653Y-71506874D01*
X160616855Y-71611697D01*
X160567555Y-71654477D01*
X160564168Y-71658608D01*
X160424760Y-71828627D01*
X160424756Y-71828633D01*
X160421376Y-71832755D01*
X160418737Y-71837391D01*
X160418735Y-71837394D01*
X160356780Y-71946234D01*
X160307325Y-72033114D01*
X160228663Y-72249825D01*
X160227713Y-72255077D01*
X160227713Y-72255078D01*
X160212549Y-72338938D01*
X160209981Y-72350178D01*
X160205989Y-72364570D01*
X160205439Y-72369715D01*
X160205439Y-72369716D01*
X160203693Y-72386058D01*
X160202397Y-72395079D01*
X160187639Y-72476692D01*
X160186500Y-72500844D01*
X160186500Y-72540219D01*
X160185787Y-72553607D01*
X160182251Y-72586695D01*
X160182548Y-72591848D01*
X160182548Y-72591851D01*
X160186291Y-72656763D01*
X160186500Y-72664016D01*
X160186500Y-73962890D01*
X160186725Y-73965539D01*
X160200296Y-74125475D01*
X160201080Y-74134720D01*
X160202418Y-74139875D01*
X160202419Y-74139881D01*
X160255037Y-74342607D01*
X160258999Y-74357872D01*
X160295432Y-74438751D01*
X160305173Y-74509074D01*
X160275348Y-74573502D01*
X160215425Y-74611578D01*
X160180550Y-74616500D01*
X150505828Y-74616500D01*
X150437707Y-74596498D01*
X150391214Y-74542842D01*
X150381110Y-74472568D01*
X150384122Y-74457888D01*
X150412118Y-74353409D01*
X150412120Y-74353398D01*
X150413543Y-74348087D01*
X150433498Y-74120000D01*
X150413543Y-73891913D01*
X150354284Y-73670757D01*
X150259966Y-73468489D01*
X150259849Y-73468238D01*
X150259846Y-73468233D01*
X150257523Y-73463251D01*
X150126198Y-73275700D01*
X149964300Y-73113802D01*
X149959792Y-73110645D01*
X149959789Y-73110643D01*
X149877742Y-73053193D01*
X149776749Y-72982477D01*
X149771767Y-72980154D01*
X149771762Y-72980151D01*
X149737543Y-72964195D01*
X149684258Y-72917278D01*
X149664797Y-72849001D01*
X149685339Y-72781041D01*
X149737543Y-72735805D01*
X149771762Y-72719849D01*
X149771767Y-72719846D01*
X149776749Y-72717523D01*
X149956287Y-72591809D01*
X149959789Y-72589357D01*
X149959792Y-72589355D01*
X149964300Y-72586198D01*
X150126198Y-72424300D01*
X150146649Y-72395094D01*
X150185969Y-72338938D01*
X150257523Y-72236749D01*
X150259846Y-72231767D01*
X150259849Y-72231762D01*
X150351961Y-72034225D01*
X150351961Y-72034224D01*
X150354284Y-72029243D01*
X150359619Y-72009335D01*
X150412119Y-71813402D01*
X150412119Y-71813400D01*
X150413543Y-71808087D01*
X150433498Y-71580000D01*
X150413543Y-71351913D01*
X150411595Y-71344643D01*
X150355707Y-71136067D01*
X150355706Y-71136065D01*
X150354284Y-71130757D01*
X150304315Y-71023597D01*
X150259849Y-70928238D01*
X150259846Y-70928233D01*
X150257523Y-70923251D01*
X150162437Y-70787454D01*
X150129357Y-70740211D01*
X150129355Y-70740208D01*
X150126198Y-70735700D01*
X149964300Y-70573802D01*
X149959792Y-70570645D01*
X149959789Y-70570643D01*
X149881611Y-70515902D01*
X149776749Y-70442477D01*
X149771767Y-70440154D01*
X149771762Y-70440151D01*
X149737543Y-70424195D01*
X149684258Y-70377278D01*
X149664797Y-70309001D01*
X149685339Y-70241041D01*
X149737543Y-70195805D01*
X149771762Y-70179849D01*
X149771767Y-70179846D01*
X149776749Y-70177523D01*
X149897353Y-70093075D01*
X149959789Y-70049357D01*
X149959792Y-70049355D01*
X149964300Y-70046198D01*
X150126198Y-69884300D01*
X150129357Y-69879789D01*
X150236181Y-69727229D01*
X150291638Y-69682901D01*
X150339394Y-69673500D01*
X151315826Y-69673500D01*
X151383947Y-69693502D01*
G37*
%TD.AperFunction*%
%TA.AperFunction,Conductor*%
G36*
X142571400Y-55475640D02*
G01*
X142578213Y-55476009D01*
X142917566Y-55476008D01*
X142924386Y-55475639D01*
X142974786Y-55470164D01*
X143044668Y-55482693D01*
X143096683Y-55531014D01*
X143114392Y-55595427D01*
X143114392Y-55711993D01*
X143113865Y-55723176D01*
X143112190Y-55730669D01*
X143112439Y-55738595D01*
X143112439Y-55738596D01*
X143114330Y-55798746D01*
X143114392Y-55802705D01*
X143114392Y-55830616D01*
X143114889Y-55834550D01*
X143114889Y-55834551D01*
X143114897Y-55834616D01*
X143115830Y-55846453D01*
X143117219Y-55890649D01*
X143122870Y-55910099D01*
X143126879Y-55929460D01*
X143129418Y-55949557D01*
X143132337Y-55956928D01*
X143132337Y-55956930D01*
X143145696Y-55990672D01*
X143149541Y-56001902D01*
X143161874Y-56044353D01*
X143165907Y-56051172D01*
X143165909Y-56051177D01*
X143172185Y-56061788D01*
X143180880Y-56079536D01*
X143188340Y-56098377D01*
X143193002Y-56104793D01*
X143193002Y-56104794D01*
X143214328Y-56134147D01*
X143220844Y-56144067D01*
X143243350Y-56182122D01*
X143257671Y-56196443D01*
X143270511Y-56211476D01*
X143282420Y-56227867D01*
X143288526Y-56232918D01*
X143316497Y-56256058D01*
X143325276Y-56264048D01*
X145287828Y-58226600D01*
X145321854Y-58288912D01*
X145316789Y-58359727D01*
X145274242Y-58416563D01*
X145211904Y-58441005D01*
X145082288Y-58454628D01*
X145082286Y-58454629D01*
X145075288Y-58455364D01*
X144903579Y-58513818D01*
X144767039Y-58597819D01*
X144701019Y-58616500D01*
X144428876Y-58616500D01*
X144360755Y-58596498D01*
X144339781Y-58579595D01*
X141918424Y-56158237D01*
X141884398Y-56095925D01*
X141881519Y-56069142D01*
X141881519Y-55595428D01*
X141901521Y-55527307D01*
X141955177Y-55480814D01*
X142021126Y-55470165D01*
X142071525Y-55475640D01*
X142078340Y-55476009D01*
X142417693Y-55476008D01*
X142424515Y-55475638D01*
X142483232Y-55469261D01*
X142483495Y-55471686D01*
X142512416Y-55471686D01*
X142512679Y-55469261D01*
X142571400Y-55475640D01*
G37*
%TD.AperFunction*%
%TA.AperFunction,Conductor*%
G36*
X197410329Y-52128502D02*
G01*
X197431303Y-52145405D01*
X198354595Y-53068697D01*
X198388621Y-53131009D01*
X198391500Y-53157792D01*
X198391500Y-55162131D01*
X198371498Y-55230252D01*
X198317842Y-55276745D01*
X198247568Y-55286849D01*
X198182988Y-55257355D01*
X198169048Y-55242892D01*
X198167559Y-55240681D01*
X198008424Y-55073865D01*
X197957289Y-55035819D01*
X197842135Y-54950142D01*
X197823458Y-54936246D01*
X197818707Y-54933830D01*
X197818703Y-54933828D01*
X197700588Y-54873776D01*
X197617949Y-54831760D01*
X197612855Y-54830178D01*
X197612852Y-54830177D01*
X197402871Y-54764976D01*
X197397773Y-54763393D01*
X197392484Y-54762692D01*
X197174511Y-54733802D01*
X197174506Y-54733802D01*
X197169226Y-54733102D01*
X197163897Y-54733302D01*
X197163895Y-54733302D01*
X197054034Y-54737427D01*
X196938842Y-54741751D01*
X196713209Y-54789093D01*
X196708250Y-54791051D01*
X196708248Y-54791052D01*
X196503744Y-54871815D01*
X196503742Y-54871816D01*
X196498779Y-54873776D01*
X196494220Y-54876543D01*
X196494217Y-54876544D01*
X196399113Y-54934255D01*
X196301683Y-54993377D01*
X196297653Y-54996874D01*
X196173210Y-55104860D01*
X196127555Y-55144477D01*
X196124168Y-55148608D01*
X195984760Y-55318627D01*
X195984756Y-55318633D01*
X195981376Y-55322755D01*
X195945123Y-55386443D01*
X195894041Y-55435749D01*
X195824411Y-55449611D01*
X195758340Y-55423628D01*
X195731101Y-55394478D01*
X195725692Y-55386443D01*
X195627559Y-55240681D01*
X195468424Y-55073865D01*
X195417289Y-55035819D01*
X195302135Y-54950142D01*
X195283458Y-54936246D01*
X195278707Y-54933830D01*
X195278703Y-54933828D01*
X195160588Y-54873776D01*
X195077949Y-54831760D01*
X195072855Y-54830178D01*
X195072852Y-54830177D01*
X194862871Y-54764976D01*
X194857773Y-54763393D01*
X194852484Y-54762692D01*
X194634511Y-54733802D01*
X194634506Y-54733802D01*
X194629226Y-54733102D01*
X194623897Y-54733302D01*
X194623895Y-54733302D01*
X194514034Y-54737427D01*
X194398842Y-54741751D01*
X194173209Y-54789093D01*
X194168250Y-54791051D01*
X194168248Y-54791052D01*
X193963744Y-54871815D01*
X193963742Y-54871816D01*
X193958779Y-54873776D01*
X193954220Y-54876543D01*
X193954217Y-54876544D01*
X193859113Y-54934255D01*
X193761683Y-54993377D01*
X193757653Y-54996874D01*
X193633210Y-55104860D01*
X193587555Y-55144477D01*
X193584168Y-55148608D01*
X193444760Y-55318627D01*
X193444756Y-55318633D01*
X193441376Y-55322755D01*
X193405123Y-55386443D01*
X193354041Y-55435749D01*
X193284411Y-55449611D01*
X193218340Y-55423628D01*
X193191101Y-55394478D01*
X193185692Y-55386443D01*
X193087559Y-55240681D01*
X192928424Y-55073865D01*
X192877289Y-55035819D01*
X192762135Y-54950142D01*
X192743458Y-54936246D01*
X192738707Y-54933830D01*
X192738703Y-54933828D01*
X192620588Y-54873776D01*
X192537949Y-54831760D01*
X192532855Y-54830178D01*
X192532852Y-54830177D01*
X192322871Y-54764976D01*
X192317773Y-54763393D01*
X192286129Y-54759199D01*
X192221227Y-54730420D01*
X192182187Y-54671121D01*
X192181404Y-54600128D01*
X192219126Y-54539982D01*
X192263748Y-54514458D01*
X192268239Y-54512999D01*
X192294898Y-54504337D01*
X192329409Y-54493124D01*
X192329412Y-54493123D01*
X192336108Y-54490947D01*
X192454443Y-54420405D01*
X192485860Y-54401677D01*
X192485862Y-54401676D01*
X192491912Y-54398069D01*
X192623266Y-54272982D01*
X192723643Y-54121902D01*
X192788055Y-53952338D01*
X192789035Y-53945366D01*
X192812748Y-53776639D01*
X192812748Y-53776636D01*
X192813299Y-53772717D01*
X192813616Y-53750000D01*
X192793397Y-53569745D01*
X192785567Y-53547261D01*
X192736064Y-53405106D01*
X192736062Y-53405103D01*
X192733745Y-53398448D01*
X192649941Y-53264332D01*
X192641359Y-53250598D01*
X192637626Y-53244624D01*
X192607105Y-53213889D01*
X192514778Y-53120915D01*
X192514774Y-53120912D01*
X192509815Y-53115918D01*
X192499802Y-53109563D01*
X192405703Y-53049847D01*
X192356666Y-53018727D01*
X192327463Y-53008328D01*
X192192425Y-52960243D01*
X192192420Y-52960242D01*
X192185790Y-52957881D01*
X192178802Y-52957048D01*
X192178799Y-52957047D01*
X192055698Y-52942368D01*
X192005680Y-52936404D01*
X191998677Y-52937140D01*
X191998676Y-52937140D01*
X191832288Y-52954628D01*
X191832286Y-52954629D01*
X191825288Y-52955364D01*
X191653579Y-53013818D01*
X191517039Y-53097819D01*
X191451019Y-53116500D01*
X175328768Y-53116500D01*
X175317585Y-53115973D01*
X175310092Y-53114298D01*
X175302166Y-53114547D01*
X175302165Y-53114547D01*
X175242002Y-53116438D01*
X175238044Y-53116500D01*
X175210144Y-53116500D01*
X175206154Y-53117004D01*
X175194320Y-53117936D01*
X175150111Y-53119326D01*
X175142495Y-53121539D01*
X175142493Y-53121539D01*
X175130652Y-53124979D01*
X175111293Y-53128988D01*
X175109983Y-53129154D01*
X175091203Y-53131526D01*
X175083837Y-53134442D01*
X175083831Y-53134444D01*
X175050098Y-53147800D01*
X175038868Y-53151645D01*
X175017710Y-53157792D01*
X174996407Y-53163981D01*
X174989584Y-53168016D01*
X174978966Y-53174295D01*
X174961213Y-53182992D01*
X174953993Y-53185851D01*
X174942383Y-53190448D01*
X174935968Y-53195109D01*
X174906612Y-53216437D01*
X174896695Y-53222951D01*
X174858638Y-53245458D01*
X174844317Y-53259779D01*
X174829284Y-53272619D01*
X174812893Y-53284528D01*
X174807843Y-53290632D01*
X174807838Y-53290637D01*
X174784707Y-53318598D01*
X174776717Y-53327379D01*
X173852742Y-54251353D01*
X173844463Y-54258887D01*
X173837982Y-54263000D01*
X173810234Y-54292549D01*
X173791357Y-54312651D01*
X173788602Y-54315493D01*
X173768865Y-54335230D01*
X173766385Y-54338427D01*
X173758682Y-54347447D01*
X173728414Y-54379679D01*
X173724595Y-54386625D01*
X173724593Y-54386628D01*
X173718652Y-54397434D01*
X173707801Y-54413953D01*
X173695386Y-54429959D01*
X173692241Y-54437228D01*
X173692238Y-54437232D01*
X173677826Y-54470537D01*
X173672609Y-54481187D01*
X173651305Y-54519940D01*
X173649334Y-54527615D01*
X173649334Y-54527616D01*
X173646267Y-54539562D01*
X173639863Y-54558266D01*
X173631819Y-54576855D01*
X173630580Y-54584678D01*
X173630577Y-54584688D01*
X173624901Y-54620524D01*
X173622495Y-54632144D01*
X173617624Y-54651117D01*
X173611500Y-54674970D01*
X173611500Y-54695224D01*
X173609949Y-54714934D01*
X173606780Y-54734943D01*
X173610927Y-54778808D01*
X173610941Y-54778961D01*
X173611500Y-54790819D01*
X173611500Y-54819404D01*
X173591498Y-54887525D01*
X173550867Y-54927122D01*
X173441683Y-54993377D01*
X173437653Y-54996874D01*
X173313210Y-55104860D01*
X173267555Y-55144477D01*
X173264168Y-55148608D01*
X173124760Y-55318627D01*
X173124756Y-55318633D01*
X173121376Y-55322755D01*
X173085123Y-55386443D01*
X173034041Y-55435749D01*
X172964411Y-55449611D01*
X172898340Y-55423628D01*
X172871101Y-55394478D01*
X172865692Y-55386443D01*
X172767559Y-55240681D01*
X172608424Y-55073865D01*
X172557289Y-55035819D01*
X172442135Y-54950142D01*
X172423458Y-54936246D01*
X172418707Y-54933830D01*
X172418703Y-54933828D01*
X172300588Y-54873776D01*
X172217949Y-54831760D01*
X172212855Y-54830178D01*
X172212852Y-54830177D01*
X172002871Y-54764976D01*
X171997773Y-54763393D01*
X171992484Y-54762692D01*
X171774511Y-54733802D01*
X171774506Y-54733802D01*
X171769226Y-54733102D01*
X171763897Y-54733302D01*
X171763895Y-54733302D01*
X171654034Y-54737427D01*
X171538842Y-54741751D01*
X171313209Y-54789093D01*
X171308250Y-54791051D01*
X171308248Y-54791052D01*
X171103744Y-54871815D01*
X171103742Y-54871816D01*
X171098779Y-54873776D01*
X171094220Y-54876543D01*
X171094217Y-54876544D01*
X170999113Y-54934255D01*
X170901683Y-54993377D01*
X170897653Y-54996874D01*
X170773210Y-55104860D01*
X170727555Y-55144477D01*
X170724168Y-55148608D01*
X170584760Y-55318627D01*
X170584756Y-55318633D01*
X170581376Y-55322755D01*
X170545123Y-55386443D01*
X170494041Y-55435749D01*
X170424411Y-55449611D01*
X170358340Y-55423628D01*
X170331101Y-55394478D01*
X170325692Y-55386443D01*
X170227559Y-55240681D01*
X170068424Y-55073865D01*
X170017289Y-55035819D01*
X169902135Y-54950142D01*
X169883458Y-54936246D01*
X169878707Y-54933830D01*
X169878703Y-54933828D01*
X169760588Y-54873776D01*
X169677949Y-54831760D01*
X169672855Y-54830178D01*
X169672852Y-54830177D01*
X169462871Y-54764976D01*
X169457773Y-54763393D01*
X169452484Y-54762692D01*
X169234511Y-54733802D01*
X169234506Y-54733802D01*
X169229226Y-54733102D01*
X169223897Y-54733302D01*
X169223895Y-54733302D01*
X169114034Y-54737427D01*
X168998842Y-54741751D01*
X168773209Y-54789093D01*
X168768250Y-54791051D01*
X168768248Y-54791052D01*
X168563744Y-54871815D01*
X168563742Y-54871816D01*
X168558779Y-54873776D01*
X168554220Y-54876543D01*
X168554217Y-54876544D01*
X168459113Y-54934255D01*
X168361683Y-54993377D01*
X168357653Y-54996874D01*
X168233210Y-55104860D01*
X168187555Y-55144477D01*
X168184168Y-55148608D01*
X168044760Y-55318627D01*
X168044756Y-55318633D01*
X168041376Y-55322755D01*
X168005123Y-55386443D01*
X167954041Y-55435749D01*
X167884411Y-55449611D01*
X167818340Y-55423628D01*
X167791101Y-55394478D01*
X167785692Y-55386443D01*
X167687559Y-55240681D01*
X167528424Y-55073865D01*
X167477289Y-55035819D01*
X167362135Y-54950142D01*
X167343458Y-54936246D01*
X167338707Y-54933830D01*
X167338703Y-54933828D01*
X167220588Y-54873776D01*
X167137949Y-54831760D01*
X167132855Y-54830178D01*
X167132852Y-54830177D01*
X166922871Y-54764976D01*
X166917773Y-54763393D01*
X166912484Y-54762692D01*
X166694511Y-54733802D01*
X166694506Y-54733802D01*
X166689226Y-54733102D01*
X166683897Y-54733302D01*
X166683895Y-54733302D01*
X166574034Y-54737427D01*
X166458842Y-54741751D01*
X166233209Y-54789093D01*
X166228250Y-54791051D01*
X166228248Y-54791052D01*
X166023744Y-54871815D01*
X166023742Y-54871816D01*
X166018779Y-54873776D01*
X166014220Y-54876543D01*
X166014217Y-54876544D01*
X165919113Y-54934255D01*
X165821683Y-54993377D01*
X165817653Y-54996874D01*
X165693210Y-55104860D01*
X165647555Y-55144477D01*
X165644168Y-55148608D01*
X165504760Y-55318627D01*
X165504756Y-55318633D01*
X165501376Y-55322755D01*
X165464860Y-55386906D01*
X165464847Y-55386928D01*
X165413765Y-55436234D01*
X165344135Y-55450096D01*
X165278064Y-55424113D01*
X165250825Y-55394963D01*
X165150150Y-55245425D01*
X165143481Y-55237130D01*
X164991772Y-55078100D01*
X164983814Y-55071059D01*
X164807475Y-54939859D01*
X164798438Y-54934255D01*
X164602516Y-54834643D01*
X164592665Y-54830643D01*
X164382760Y-54765466D01*
X164372376Y-54763183D01*
X164356957Y-54761139D01*
X164342793Y-54763335D01*
X164339000Y-54776522D01*
X164339000Y-58490500D01*
X164318998Y-58558621D01*
X164265342Y-58605114D01*
X164213000Y-58616500D01*
X163957000Y-58616500D01*
X163888879Y-58596498D01*
X163842386Y-58542842D01*
X163831000Y-58490500D01*
X163831000Y-54778808D01*
X163827027Y-54765277D01*
X163816420Y-54763752D01*
X163698579Y-54788477D01*
X163688383Y-54791537D01*
X163483971Y-54872263D01*
X163474439Y-54876994D01*
X163286538Y-54991016D01*
X163277948Y-54997280D01*
X163111948Y-55141327D01*
X163104528Y-55148958D01*
X162965174Y-55318911D01*
X162959150Y-55327678D01*
X162925435Y-55386906D01*
X162874353Y-55436212D01*
X162804723Y-55450074D01*
X162738652Y-55424091D01*
X162711413Y-55394941D01*
X162666129Y-55327678D01*
X162607559Y-55240681D01*
X162448424Y-55073865D01*
X162445702Y-55071840D01*
X162408245Y-55012215D01*
X162403500Y-54977963D01*
X162403500Y-53336391D01*
X162403942Y-53325848D01*
X162407733Y-53280700D01*
X162408304Y-53273902D01*
X162406961Y-53263832D01*
X162397563Y-53193395D01*
X162397193Y-53190342D01*
X162394089Y-53161770D01*
X162393087Y-53152551D01*
X162405614Y-53082669D01*
X162429255Y-53049847D01*
X162570927Y-52908175D01*
X162633239Y-52874149D01*
X162664637Y-52871355D01*
X162742224Y-52874200D01*
X162806673Y-52876564D01*
X162806677Y-52876564D01*
X162811837Y-52876753D01*
X162816957Y-52876097D01*
X162816959Y-52876097D01*
X163028288Y-52849025D01*
X163028289Y-52849025D01*
X163033416Y-52848368D01*
X163040596Y-52846214D01*
X163242429Y-52785661D01*
X163242434Y-52785659D01*
X163247384Y-52784174D01*
X163447994Y-52685896D01*
X163629860Y-52556173D01*
X163662371Y-52523776D01*
X163776295Y-52410249D01*
X163838667Y-52376333D01*
X163865235Y-52373500D01*
X166265870Y-52373500D01*
X166333991Y-52393502D01*
X166380484Y-52447158D01*
X166383851Y-52455269D01*
X166399385Y-52496705D01*
X166486739Y-52613261D01*
X166603295Y-52700615D01*
X166739684Y-52751745D01*
X166801866Y-52758500D01*
X167898134Y-52758500D01*
X167960316Y-52751745D01*
X167967715Y-52748971D01*
X167970854Y-52748225D01*
X168029146Y-52748225D01*
X168032285Y-52748971D01*
X168039684Y-52751745D01*
X168101866Y-52758500D01*
X169198134Y-52758500D01*
X169260316Y-52751745D01*
X169396705Y-52700615D01*
X169513261Y-52613261D01*
X169600615Y-52496705D01*
X169651745Y-52360316D01*
X169656628Y-52315363D01*
X169683869Y-52249801D01*
X169716992Y-52220971D01*
X169772109Y-52187853D01*
X169777066Y-52183166D01*
X169779723Y-52181149D01*
X169780469Y-52180631D01*
X169784402Y-52177656D01*
X169788759Y-52174891D01*
X169793032Y-52171070D01*
X169818697Y-52145405D01*
X169881009Y-52111379D01*
X169907792Y-52108500D01*
X197342208Y-52108500D01*
X197410329Y-52128502D01*
G37*
%TD.AperFunction*%
%TD*%
M02*
