%TF.GenerationSoftware,KiCad,Pcbnew,(6.0.1)*%
%TF.CreationDate,2022-09-26T20:39:57+01:00*%
%TF.ProjectId,psp-bluetooth,7073702d-626c-4756-9574-6f6f74682e6b,4*%
%TF.SameCoordinates,Original*%
%TF.FileFunction,Copper,L2,Bot*%
%TF.FilePolarity,Positive*%
%FSLAX46Y46*%
G04 Gerber Fmt 4.6, Leading zero omitted, Abs format (unit mm)*
G04 Created by KiCad (PCBNEW (6.0.1)) date 2022-09-26 20:39:57*
%MOMM*%
%LPD*%
G01*
G04 APERTURE LIST*
%TA.AperFunction,ComponentPad*%
%ADD10R,1.600000X1.600000*%
%TD*%
%TA.AperFunction,ComponentPad*%
%ADD11O,1.600000X1.600000*%
%TD*%
%TA.AperFunction,ComponentPad*%
%ADD12R,1.700000X1.700000*%
%TD*%
%TA.AperFunction,ComponentPad*%
%ADD13O,1.700000X1.700000*%
%TD*%
%TA.AperFunction,ComponentPad*%
%ADD14C,1.600000*%
%TD*%
%TA.AperFunction,ComponentPad*%
%ADD15C,1.700000*%
%TD*%
%TA.AperFunction,ComponentPad*%
%ADD16R,1.800000X1.800000*%
%TD*%
%TA.AperFunction,ComponentPad*%
%ADD17C,1.800000*%
%TD*%
%TA.AperFunction,ViaPad*%
%ADD18C,0.600000*%
%TD*%
%TA.AperFunction,Conductor*%
%ADD19C,0.400000*%
%TD*%
%TA.AperFunction,Conductor*%
%ADD20C,0.250000*%
%TD*%
G04 APERTURE END LIST*
D10*
%TO.P,U1,1,~{CS}*%
%TO.N,/10(\u002A\u002A{slash}SS)*%
X141500000Y-66500000D03*
D11*
%TO.P,U1,2,SCK*%
%TO.N,/13(SCK)*%
X141500000Y-69040000D03*
%TO.P,U1,3,SDI*%
%TO.N,/11(\u002A\u002A{slash}MOSI)*%
X141500000Y-71580000D03*
%TO.P,U1,4,VSS*%
%TO.N,GND*%
X141500000Y-74120000D03*
%TO.P,U1,5,P1B*%
X141500000Y-76660000D03*
%TO.P,U1,6,P1W*%
%TO.N,/P1W*%
X141500000Y-79200000D03*
%TO.P,U1,7,P1A*%
%TO.N,/P0A{slash}P1A*%
X141500000Y-81740000D03*
%TO.P,U1,8,P0A*%
X149120000Y-81740000D03*
%TO.P,U1,9,P0W*%
%TO.N,/P0W*%
X149120000Y-79200000D03*
%TO.P,U1,10,P0B*%
%TO.N,GND*%
X149120000Y-76660000D03*
%TO.P,U1,11,~{WP}*%
%TO.N,unconnected-(U1-Pad11)*%
X149120000Y-74120000D03*
%TO.P,U1,12,~{SHDN}*%
%TO.N,unconnected-(U1-Pad12)*%
X149120000Y-71580000D03*
%TO.P,U1,13,SDO*%
%TO.N,/12(MISO)*%
X149120000Y-69040000D03*
%TO.P,U1,14,VDD*%
%TO.N,+3V3*%
X149120000Y-66500000D03*
%TD*%
D12*
%TO.P,J2,1,Pin_1*%
%TO.N,Net-(J8-Pad1)*%
X169500000Y-82000000D03*
D13*
%TO.P,J2,2,Pin_2*%
%TO.N,GND*%
X166960000Y-82000000D03*
%TD*%
D12*
%TO.P,J7,1,Pin_1*%
%TO.N,Net-(J7-Pad1)*%
X176500000Y-45725000D03*
D13*
%TO.P,J7,2,Pin_2*%
%TO.N,/1(Tx)*%
X176500000Y-48265000D03*
%TD*%
D14*
%TO.P,R1,1*%
%TO.N,Net-(J7-Pad1)*%
X168920000Y-34000000D03*
D11*
%TO.P,R1,2*%
%TO.N,Net-(D1-Pad2)*%
X179080000Y-34000000D03*
%TD*%
D12*
%TO.P,J4,1,Pin_1*%
%TO.N,GND*%
X130500000Y-82200000D03*
D13*
%TO.P,J4,2,Pin_2*%
%TO.N,/P1W*%
X130500000Y-84740000D03*
%TO.P,J4,3,Pin_3*%
%TO.N,/P0A{slash}P1A*%
X130500000Y-87280000D03*
%TO.P,J4,4,Pin_4*%
%TO.N,/P0W*%
X130500000Y-89820000D03*
%TD*%
D12*
%TO.P,J3,1,Pin_1*%
%TO.N,Net-(J8-Pad1)*%
X180225000Y-81750000D03*
D13*
%TO.P,J3,2,Pin_2*%
%TO.N,GND*%
X182765000Y-81750000D03*
%TD*%
D15*
%TO.P,J1,1,D13*%
%TO.N,/13(SCK)*%
X197105000Y-57380000D03*
D13*
%TO.P,J1,2,+3.3v*%
%TO.N,+3V3*%
X194565000Y-57380000D03*
%TO.P,J1,3,AREF*%
%TO.N,unconnected-(J1-Pad3)*%
X192025000Y-57380000D03*
%TO.P,J1,4,D14*%
%TO.N,/A0 (D14)*%
X189485000Y-57380000D03*
%TO.P,J1,5,D15*%
%TO.N,/A1 (D15)*%
X186945000Y-57380000D03*
%TO.P,J1,6,D16~*%
%TO.N,/A2 (D16)*%
X184405000Y-57380000D03*
%TO.P,J1,7,D17~*%
%TO.N,/A3 (D17)*%
X181865000Y-57380000D03*
%TO.P,J1,8,D18*%
%TO.N,/A4 (D18)*%
X179325000Y-57380000D03*
%TO.P,J1,9,D19~*%
%TO.N,/A5 (D19)*%
X176785000Y-57380000D03*
%TO.P,J1,10,D20*%
%TO.N,/A6 (D20)*%
X174245000Y-57380000D03*
%TO.P,J1,11,D21*%
%TO.N,/A7 (D21)*%
X171705000Y-57380000D03*
%TO.P,J1,12,+5v*%
%TO.N,+5V*%
X169165000Y-57380000D03*
%TO.P,J1,13,~{RESET}*%
%TO.N,unconnected-(J1-Pad13)*%
X166625000Y-57380000D03*
%TO.P,J1,14,GND*%
%TO.N,GND*%
X164085000Y-57380000D03*
%TO.P,J1,15,VIN*%
%TO.N,VIN*%
X161545000Y-57380000D03*
D15*
%TO.P,J1,16,TX*%
%TO.N,/1(Tx)*%
X161545000Y-72620000D03*
D13*
%TO.P,J1,17,RX*%
%TO.N,/0(Rx)*%
X164085000Y-72620000D03*
%TO.P,J1,18,~{RESET}*%
%TO.N,unconnected-(J1-Pad18)*%
X166625000Y-72620000D03*
%TO.P,J1,19,GND*%
%TO.N,GND*%
X169165000Y-72620000D03*
%TO.P,J1,20,D2~*%
%TO.N,/2*%
X171705000Y-72620000D03*
%TO.P,J1,21,D3~*%
%TO.N,/3(\u002A\u002A)*%
X174245000Y-72620000D03*
%TO.P,J1,22,D4*%
%TO.N,/4*%
X176785000Y-72620000D03*
%TO.P,J1,23,D5~*%
%TO.N,/5(\u002A\u002A)*%
X179325000Y-72620000D03*
%TO.P,J1,24,D6~*%
%TO.N,/6(\u002A\u002A)*%
X181865000Y-72620000D03*
%TO.P,J1,25,D7*%
%TO.N,/7*%
X184405000Y-72620000D03*
%TO.P,J1,26,D8*%
%TO.N,/8*%
X186945000Y-72620000D03*
%TO.P,J1,27,D9~*%
%TO.N,/9(\u002A\u002A)*%
X189485000Y-72620000D03*
%TO.P,J1,28,D10~*%
%TO.N,/10(\u002A\u002A{slash}SS)*%
X192025000Y-72620000D03*
%TO.P,J1,29,D11~*%
%TO.N,/11(\u002A\u002A{slash}MOSI)*%
X194565000Y-72620000D03*
%TO.P,J1,30,D12~*%
%TO.N,/12(MISO)*%
X197105000Y-72620000D03*
%TD*%
D16*
%TO.P,D1,1,K*%
%TO.N,GND*%
X181590000Y-29495000D03*
D17*
%TO.P,D1,2,A*%
%TO.N,Net-(D1-Pad2)*%
X179050000Y-29495000D03*
%TD*%
D12*
%TO.P,J8,1,Pin_1*%
%TO.N,Net-(J8-Pad1)*%
X162750000Y-48975000D03*
D13*
%TO.P,J8,2,Pin_2*%
%TO.N,VIN*%
X162750000Y-51515000D03*
%TD*%
D18*
%TO.N,GND*%
X133250000Y-76750000D03*
X120250000Y-79250000D03*
X143750000Y-57250000D03*
%TO.N,/2*%
X172000000Y-65250000D03*
%TO.N,/3(\u002A\u002A)*%
X174250000Y-65250000D03*
%TO.N,/4*%
X177000000Y-65250000D03*
%TO.N,/5(\u002A\u002A)*%
X179250000Y-65500000D03*
%TO.N,/6(\u002A\u002A)*%
X120750000Y-63123549D03*
%TO.N,/7*%
X120000000Y-61874538D03*
%TO.N,/8*%
X121000000Y-61374411D03*
%TO.N,/9(\u002A\u002A)*%
X121750000Y-60750000D03*
%TO.N,/A4 (D18)*%
X124000000Y-60000000D03*
%TO.N,/A0 (D14)*%
X132500000Y-52375500D03*
%TO.N,/A1 (D15)*%
X130500000Y-52875500D03*
%TO.N,/A2 (D16)*%
X128250000Y-53500000D03*
%TO.N,/A3 (D17)*%
X126000000Y-54250000D03*
%TO.N,/13(SCK)*%
X190750000Y-67750000D03*
%TO.N,/10(\u002A\u002A{slash}SS)*%
X152250000Y-65250000D03*
X152250000Y-69750000D03*
%TO.N,/A7 (D21)*%
X145250000Y-59250000D03*
%TO.N,/A6 (D20)*%
X192000000Y-49750000D03*
X192000000Y-53750000D03*
%TD*%
D19*
%TO.N,/1(Tx)*%
X199500000Y-50500000D02*
X197265000Y-48265000D01*
X161545000Y-72620000D02*
X161545000Y-73955000D01*
X161545000Y-73955000D02*
X161500000Y-74000000D01*
X197265000Y-48265000D02*
X176500000Y-48265000D01*
X199500000Y-74500000D02*
X199500000Y-50500000D01*
X161500000Y-74000000D02*
X161500000Y-75000000D01*
X161500000Y-75000000D02*
X162000000Y-75500000D01*
X198500000Y-75500000D02*
X199500000Y-74500000D01*
X162000000Y-75500000D02*
X198500000Y-75500000D01*
D20*
%TO.N,/2*%
X172000000Y-65250000D02*
X171705000Y-65545000D01*
X171705000Y-65545000D02*
X171705000Y-72620000D01*
%TO.N,/3(\u002A\u002A)*%
X174250000Y-65250000D02*
X174245000Y-65255000D01*
X174245000Y-65255000D02*
X174245000Y-72620000D01*
%TO.N,/4*%
X176785000Y-72620000D02*
X176785000Y-65465000D01*
X176785000Y-65465000D02*
X177000000Y-65250000D01*
%TO.N,/5(\u002A\u002A)*%
X179250000Y-65500000D02*
X179325000Y-65575000D01*
X179325000Y-65575000D02*
X179325000Y-72620000D01*
%TO.N,/6(\u002A\u002A)*%
X181449520Y-62449520D02*
X121424029Y-62449520D01*
X181865000Y-62865000D02*
X181449520Y-62449520D01*
X121424029Y-62449520D02*
X120750000Y-63123549D01*
X181865000Y-72620000D02*
X181865000Y-62865000D01*
%TO.N,/7*%
X120000000Y-61874538D02*
X120125462Y-62000000D01*
X184405000Y-62655000D02*
X184405000Y-72620000D01*
X120125462Y-62000000D02*
X183750000Y-62000000D01*
X183750000Y-62000000D02*
X184405000Y-62655000D01*
%TO.N,/8*%
X121000000Y-61374411D02*
X121000100Y-61374511D01*
X186124511Y-61374511D02*
X186945000Y-62195000D01*
X186945000Y-62195000D02*
X186945000Y-72620000D01*
X121000100Y-61374511D02*
X186124511Y-61374511D01*
%TO.N,/9(\u002A\u002A)*%
X121750000Y-60750000D02*
X188250000Y-60750000D01*
X188250000Y-60750000D02*
X189500000Y-62000000D01*
X189500000Y-62000000D02*
X189485000Y-62015000D01*
X189485000Y-62015000D02*
X189485000Y-72620000D01*
%TO.N,/A4 (D18)*%
X179325000Y-59425000D02*
X179325000Y-57380000D01*
X124000000Y-60000000D02*
X178750000Y-60000000D01*
X178750000Y-60000000D02*
X179325000Y-59425000D01*
%TO.N,/A0 (D14)*%
X189485000Y-57380000D02*
X184655480Y-52550480D01*
X181000000Y-52550480D02*
X132674980Y-52550480D01*
X184655480Y-52550480D02*
X181000000Y-52550480D01*
X132674980Y-52550480D02*
X132500000Y-52375500D01*
%TO.N,/A1 (D15)*%
X130624500Y-53000000D02*
X130500000Y-52875500D01*
X177750000Y-53000000D02*
X130624500Y-53000000D01*
X182565000Y-53000000D02*
X177750000Y-53000000D01*
X186945000Y-57380000D02*
X182565000Y-53000000D01*
%TO.N,/A2 (D16)*%
X181727081Y-53500000D02*
X165000000Y-53500000D01*
X184405000Y-56177919D02*
X181727081Y-53500000D01*
X184405000Y-57380000D02*
X184405000Y-56177919D01*
X165000000Y-53500000D02*
X128250000Y-53500000D01*
%TO.N,/A3 (D17)*%
X181865000Y-55115000D02*
X181865000Y-57380000D01*
X181000000Y-54250000D02*
X181865000Y-55115000D01*
X126000000Y-54250000D02*
X181000000Y-54250000D01*
%TO.N,/13(SCK)*%
X197105000Y-65895000D02*
X197105000Y-57380000D01*
X195250000Y-67750000D02*
X197105000Y-65895000D01*
X190750000Y-67750000D02*
X195250000Y-67750000D01*
%TO.N,/10(\u002A\u002A{slash}SS)*%
X152250000Y-65250000D02*
X152250000Y-69750000D01*
%TO.N,/A7 (D21)*%
X145250000Y-59250000D02*
X171250000Y-59250000D01*
X171750000Y-58750000D02*
X171705000Y-58705000D01*
X171250000Y-59250000D02*
X171750000Y-58750000D01*
X171705000Y-58705000D02*
X171705000Y-57380000D01*
%TO.N,/P1W*%
X134260000Y-84740000D02*
X130500000Y-84740000D01*
X139800000Y-79200000D02*
X134260000Y-84740000D01*
X141500000Y-79200000D02*
X139800000Y-79200000D01*
%TO.N,/P0A{slash}P1A*%
X141500000Y-81740000D02*
X135960000Y-87280000D01*
X135960000Y-87280000D02*
X130500000Y-87280000D01*
%TO.N,/P0W*%
X146800000Y-79200000D02*
X136180000Y-89820000D01*
X136180000Y-89820000D02*
X130500000Y-89820000D01*
X149120000Y-79200000D02*
X146800000Y-79200000D01*
%TO.N,/A6 (D20)*%
X192000000Y-53750000D02*
X192000000Y-49750000D01*
%TD*%
%TA.AperFunction,Conductor*%
%TO.N,GND*%
G36*
X200094121Y-25928002D02*
G01*
X200140614Y-25981658D01*
X200152000Y-26034000D01*
X200152000Y-49845840D01*
X200131998Y-49913961D01*
X200078342Y-49960454D01*
X200008068Y-49970558D01*
X199943488Y-49941064D01*
X199936905Y-49934935D01*
X197786450Y-47784480D01*
X197780596Y-47778215D01*
X197780201Y-47777762D01*
X197742561Y-47734615D01*
X197690280Y-47697871D01*
X197684986Y-47693939D01*
X197640693Y-47659209D01*
X197634718Y-47654524D01*
X197627802Y-47651401D01*
X197625516Y-47650017D01*
X197610835Y-47641643D01*
X197608475Y-47640378D01*
X197602261Y-47636010D01*
X197595182Y-47633250D01*
X197595180Y-47633249D01*
X197542725Y-47612798D01*
X197536656Y-47610247D01*
X197478427Y-47583955D01*
X197470960Y-47582571D01*
X197468405Y-47581770D01*
X197452152Y-47577141D01*
X197449572Y-47576478D01*
X197442491Y-47573718D01*
X197434960Y-47572727D01*
X197434958Y-47572726D01*
X197405339Y-47568827D01*
X197379139Y-47565378D01*
X197372641Y-47564348D01*
X197309814Y-47552704D01*
X197302234Y-47553141D01*
X197302233Y-47553141D01*
X197247608Y-47556291D01*
X197240354Y-47556500D01*
X177728286Y-47556500D01*
X177660165Y-47536498D01*
X177622494Y-47498941D01*
X177582818Y-47437612D01*
X177580014Y-47433277D01*
X177576532Y-47429450D01*
X177432798Y-47271488D01*
X177401746Y-47207642D01*
X177410141Y-47137143D01*
X177455317Y-47082375D01*
X177481761Y-47068706D01*
X177588297Y-47028767D01*
X177596705Y-47025615D01*
X177713261Y-46938261D01*
X177800615Y-46821705D01*
X177851745Y-46685316D01*
X177858500Y-46623134D01*
X177858500Y-44826866D01*
X177851745Y-44764684D01*
X177800615Y-44628295D01*
X177713261Y-44511739D01*
X177596705Y-44424385D01*
X177460316Y-44373255D01*
X177398134Y-44366500D01*
X175601866Y-44366500D01*
X175539684Y-44373255D01*
X175403295Y-44424385D01*
X175286739Y-44511739D01*
X175199385Y-44628295D01*
X175148255Y-44764684D01*
X175141500Y-44826866D01*
X175141500Y-46623134D01*
X175148255Y-46685316D01*
X175199385Y-46821705D01*
X175286739Y-46938261D01*
X175403295Y-47025615D01*
X175411704Y-47028767D01*
X175411705Y-47028768D01*
X175520451Y-47069535D01*
X175577216Y-47112176D01*
X175601916Y-47178738D01*
X175586709Y-47248087D01*
X175567316Y-47274568D01*
X175440629Y-47407138D01*
X175314743Y-47591680D01*
X175289156Y-47646803D01*
X175225249Y-47784480D01*
X175220688Y-47794305D01*
X175160989Y-48009570D01*
X175137251Y-48231695D01*
X175137548Y-48236848D01*
X175137548Y-48236851D01*
X175145090Y-48367655D01*
X175150110Y-48454715D01*
X175151247Y-48459761D01*
X175151248Y-48459767D01*
X175175304Y-48566508D01*
X175199222Y-48672639D01*
X175283266Y-48879616D01*
X175285965Y-48884020D01*
X175385936Y-49047158D01*
X175399987Y-49070088D01*
X175546250Y-49238938D01*
X175718126Y-49381632D01*
X175911000Y-49494338D01*
X176119692Y-49574030D01*
X176124760Y-49575061D01*
X176124763Y-49575062D01*
X176232017Y-49596883D01*
X176338597Y-49618567D01*
X176343772Y-49618757D01*
X176343774Y-49618757D01*
X176556673Y-49626564D01*
X176556677Y-49626564D01*
X176561837Y-49626753D01*
X176566957Y-49626097D01*
X176566959Y-49626097D01*
X176778288Y-49599025D01*
X176778289Y-49599025D01*
X176783416Y-49598368D01*
X176788366Y-49596883D01*
X176992429Y-49535661D01*
X176992434Y-49535659D01*
X176997384Y-49534174D01*
X177197994Y-49435896D01*
X177379860Y-49306173D01*
X177441625Y-49244624D01*
X177534435Y-49152137D01*
X177538096Y-49148489D01*
X177626132Y-49025974D01*
X177682127Y-48982326D01*
X177728455Y-48973500D01*
X191328562Y-48973500D01*
X191396683Y-48993502D01*
X191443176Y-49047158D01*
X191453280Y-49117432D01*
X191423786Y-49182012D01*
X191416721Y-49189522D01*
X191369493Y-49235771D01*
X191271235Y-49388238D01*
X191268826Y-49394858D01*
X191268824Y-49394861D01*
X191220181Y-49528506D01*
X191209197Y-49558685D01*
X191186463Y-49738640D01*
X191204163Y-49919160D01*
X191261418Y-50091273D01*
X191265065Y-50097295D01*
X191265066Y-50097297D01*
X191348276Y-50234694D01*
X191366500Y-50299965D01*
X191366500Y-53203331D01*
X191346411Y-53271586D01*
X191275054Y-53382310D01*
X191275050Y-53382319D01*
X191271235Y-53388238D01*
X191268826Y-53394858D01*
X191268825Y-53394859D01*
X191222365Y-53522506D01*
X191209197Y-53558685D01*
X191186463Y-53738640D01*
X191204163Y-53919160D01*
X191261418Y-54091273D01*
X191265065Y-54097295D01*
X191265066Y-54097297D01*
X191275978Y-54115314D01*
X191355380Y-54246424D01*
X191481382Y-54376902D01*
X191633159Y-54476222D01*
X191639763Y-54478678D01*
X191639765Y-54478679D01*
X191796558Y-54536990D01*
X191796560Y-54536990D01*
X191803168Y-54539448D01*
X191886995Y-54550633D01*
X191975980Y-54562507D01*
X191975984Y-54562507D01*
X191982961Y-54563438D01*
X191989972Y-54562800D01*
X191989976Y-54562800D01*
X192132459Y-54549832D01*
X192163600Y-54546998D01*
X192170302Y-54544820D01*
X192170304Y-54544820D01*
X192329409Y-54493124D01*
X192329412Y-54493123D01*
X192336108Y-54490947D01*
X192456532Y-54419160D01*
X192485860Y-54401677D01*
X192485862Y-54401676D01*
X192491912Y-54398069D01*
X192623266Y-54272982D01*
X192723643Y-54121902D01*
X192788055Y-53952338D01*
X192789035Y-53945366D01*
X192812748Y-53776639D01*
X192812748Y-53776636D01*
X192813299Y-53772717D01*
X192813616Y-53750000D01*
X192793397Y-53569745D01*
X192790037Y-53560097D01*
X192736064Y-53405106D01*
X192736062Y-53405103D01*
X192733745Y-53398448D01*
X192682023Y-53315675D01*
X192652646Y-53268661D01*
X192633500Y-53201892D01*
X192633500Y-50295620D01*
X192654552Y-50225893D01*
X192656069Y-50223610D01*
X192723643Y-50121902D01*
X192788055Y-49952338D01*
X192789131Y-49944684D01*
X192812748Y-49776639D01*
X192812748Y-49776636D01*
X192813299Y-49772717D01*
X192813616Y-49750000D01*
X192793397Y-49569745D01*
X192791058Y-49563029D01*
X192736064Y-49405106D01*
X192736062Y-49405103D01*
X192733745Y-49398448D01*
X192637626Y-49244624D01*
X192581678Y-49188284D01*
X192547871Y-49125853D01*
X192553183Y-49055056D01*
X192595928Y-48998369D01*
X192662534Y-48973790D01*
X192671084Y-48973500D01*
X196919340Y-48973500D01*
X196987461Y-48993502D01*
X197008435Y-49010405D01*
X198754595Y-50756566D01*
X198788621Y-50818878D01*
X198791500Y-50845661D01*
X198791500Y-74154338D01*
X198771498Y-74222459D01*
X198754596Y-74243433D01*
X198243435Y-74754595D01*
X198181122Y-74788620D01*
X198154339Y-74791500D01*
X162345660Y-74791500D01*
X162277539Y-74771498D01*
X162256565Y-74754595D01*
X162245405Y-74743435D01*
X162211379Y-74681123D01*
X162208500Y-74654340D01*
X162208500Y-74234412D01*
X162219663Y-74182563D01*
X162222918Y-74175354D01*
X162222920Y-74175346D01*
X162226045Y-74168426D01*
X162227428Y-74160964D01*
X162228227Y-74158414D01*
X162232867Y-74142122D01*
X162233523Y-74139567D01*
X162236282Y-74132491D01*
X162244621Y-74069149D01*
X162245653Y-74062633D01*
X162255912Y-74007280D01*
X162257296Y-73999813D01*
X162253709Y-73937602D01*
X162253500Y-73930349D01*
X162253500Y-73848297D01*
X162273502Y-73780176D01*
X162306332Y-73745718D01*
X162420656Y-73664172D01*
X162420659Y-73664170D01*
X162424860Y-73661173D01*
X162583096Y-73503489D01*
X162615070Y-73458993D01*
X162713453Y-73322077D01*
X162714776Y-73323028D01*
X162761645Y-73279857D01*
X162831580Y-73267625D01*
X162897026Y-73295144D01*
X162924875Y-73326994D01*
X162984987Y-73425088D01*
X163131250Y-73593938D01*
X163303126Y-73736632D01*
X163496000Y-73849338D01*
X163500825Y-73851180D01*
X163500826Y-73851181D01*
X163529229Y-73862027D01*
X163704692Y-73929030D01*
X163709760Y-73930061D01*
X163709763Y-73930062D01*
X163804862Y-73949410D01*
X163923597Y-73973567D01*
X163928772Y-73973757D01*
X163928774Y-73973757D01*
X164141673Y-73981564D01*
X164141677Y-73981564D01*
X164146837Y-73981753D01*
X164151957Y-73981097D01*
X164151959Y-73981097D01*
X164363288Y-73954025D01*
X164363289Y-73954025D01*
X164368416Y-73953368D01*
X164373366Y-73951883D01*
X164577429Y-73890661D01*
X164577434Y-73890659D01*
X164582384Y-73889174D01*
X164782994Y-73790896D01*
X164964860Y-73661173D01*
X165123096Y-73503489D01*
X165155070Y-73458993D01*
X165253453Y-73322077D01*
X165254776Y-73323028D01*
X165301645Y-73279857D01*
X165371580Y-73267625D01*
X165437026Y-73295144D01*
X165464875Y-73326994D01*
X165524987Y-73425088D01*
X165671250Y-73593938D01*
X165843126Y-73736632D01*
X166036000Y-73849338D01*
X166040825Y-73851180D01*
X166040826Y-73851181D01*
X166069229Y-73862027D01*
X166244692Y-73929030D01*
X166249760Y-73930061D01*
X166249763Y-73930062D01*
X166344862Y-73949410D01*
X166463597Y-73973567D01*
X166468772Y-73973757D01*
X166468774Y-73973757D01*
X166681673Y-73981564D01*
X166681677Y-73981564D01*
X166686837Y-73981753D01*
X166691957Y-73981097D01*
X166691959Y-73981097D01*
X166903288Y-73954025D01*
X166903289Y-73954025D01*
X166908416Y-73953368D01*
X166913366Y-73951883D01*
X167117429Y-73890661D01*
X167117434Y-73890659D01*
X167122384Y-73889174D01*
X167322994Y-73790896D01*
X167504860Y-73661173D01*
X167663096Y-73503489D01*
X167695070Y-73458993D01*
X167793453Y-73322077D01*
X167794640Y-73322930D01*
X167841960Y-73279362D01*
X167911897Y-73267145D01*
X167977338Y-73294678D01*
X168005166Y-73326511D01*
X168062694Y-73420388D01*
X168068777Y-73428699D01*
X168208213Y-73589667D01*
X168215580Y-73596883D01*
X168379434Y-73732916D01*
X168387881Y-73738831D01*
X168571756Y-73846279D01*
X168581042Y-73850729D01*
X168780001Y-73926703D01*
X168789899Y-73929579D01*
X168893250Y-73950606D01*
X168907299Y-73949410D01*
X168911000Y-73939065D01*
X168911000Y-71303102D01*
X168907082Y-71289758D01*
X168892806Y-71287771D01*
X168854324Y-71293660D01*
X168844288Y-71296051D01*
X168641868Y-71362212D01*
X168632359Y-71366209D01*
X168443463Y-71464542D01*
X168434738Y-71470036D01*
X168264433Y-71597905D01*
X168256726Y-71604748D01*
X168109590Y-71758717D01*
X168103109Y-71766722D01*
X167998498Y-71920074D01*
X167943587Y-71965076D01*
X167873062Y-71973247D01*
X167809315Y-71941993D01*
X167788618Y-71917509D01*
X167707822Y-71792617D01*
X167707820Y-71792614D01*
X167705014Y-71788277D01*
X167554670Y-71623051D01*
X167550619Y-71619852D01*
X167550615Y-71619848D01*
X167383414Y-71487800D01*
X167383410Y-71487798D01*
X167379359Y-71484598D01*
X167374831Y-71482098D01*
X167258988Y-71418150D01*
X167183789Y-71376638D01*
X167178920Y-71374914D01*
X167178916Y-71374912D01*
X166978087Y-71303795D01*
X166978083Y-71303794D01*
X166973212Y-71302069D01*
X166968119Y-71301162D01*
X166968116Y-71301161D01*
X166758373Y-71263800D01*
X166758367Y-71263799D01*
X166753284Y-71262894D01*
X166679452Y-71261992D01*
X166535081Y-71260228D01*
X166535079Y-71260228D01*
X166529911Y-71260165D01*
X166309091Y-71293955D01*
X166096756Y-71363357D01*
X166019853Y-71403390D01*
X165922975Y-71453822D01*
X165898607Y-71466507D01*
X165894474Y-71469610D01*
X165894471Y-71469612D01*
X165870247Y-71487800D01*
X165719965Y-71600635D01*
X165565629Y-71762138D01*
X165458201Y-71919621D01*
X165403293Y-71964621D01*
X165332768Y-71972792D01*
X165269021Y-71941538D01*
X165248324Y-71917054D01*
X165167822Y-71792617D01*
X165167820Y-71792614D01*
X165165014Y-71788277D01*
X165014670Y-71623051D01*
X165010619Y-71619852D01*
X165010615Y-71619848D01*
X164843414Y-71487800D01*
X164843410Y-71487798D01*
X164839359Y-71484598D01*
X164834831Y-71482098D01*
X164718988Y-71418150D01*
X164643789Y-71376638D01*
X164638920Y-71374914D01*
X164638916Y-71374912D01*
X164438087Y-71303795D01*
X164438083Y-71303794D01*
X164433212Y-71302069D01*
X164428119Y-71301162D01*
X164428116Y-71301161D01*
X164218373Y-71263800D01*
X164218367Y-71263799D01*
X164213284Y-71262894D01*
X164139452Y-71261992D01*
X163995081Y-71260228D01*
X163995079Y-71260228D01*
X163989911Y-71260165D01*
X163769091Y-71293955D01*
X163556756Y-71363357D01*
X163479853Y-71403390D01*
X163382975Y-71453822D01*
X163358607Y-71466507D01*
X163354474Y-71469610D01*
X163354471Y-71469612D01*
X163330247Y-71487800D01*
X163179965Y-71600635D01*
X163025629Y-71762138D01*
X162918201Y-71919621D01*
X162863293Y-71964621D01*
X162792768Y-71972792D01*
X162729021Y-71941538D01*
X162708324Y-71917054D01*
X162627822Y-71792617D01*
X162627820Y-71792614D01*
X162625014Y-71788277D01*
X162474670Y-71623051D01*
X162470619Y-71619852D01*
X162470615Y-71619848D01*
X162303414Y-71487800D01*
X162303410Y-71487798D01*
X162299359Y-71484598D01*
X162294831Y-71482098D01*
X162178988Y-71418150D01*
X162103789Y-71376638D01*
X162098920Y-71374914D01*
X162098916Y-71374912D01*
X161898087Y-71303795D01*
X161898083Y-71303794D01*
X161893212Y-71302069D01*
X161888119Y-71301162D01*
X161888116Y-71301161D01*
X161678373Y-71263800D01*
X161678367Y-71263799D01*
X161673284Y-71262894D01*
X161599452Y-71261992D01*
X161455081Y-71260228D01*
X161455079Y-71260228D01*
X161449911Y-71260165D01*
X161229091Y-71293955D01*
X161016756Y-71363357D01*
X160939853Y-71403390D01*
X160842975Y-71453822D01*
X160818607Y-71466507D01*
X160814474Y-71469610D01*
X160814471Y-71469612D01*
X160790247Y-71487800D01*
X160639965Y-71600635D01*
X160485629Y-71762138D01*
X160359743Y-71946680D01*
X160265688Y-72149305D01*
X160205989Y-72364570D01*
X160182251Y-72586695D01*
X160182548Y-72591848D01*
X160182548Y-72591851D01*
X160194812Y-72804547D01*
X160195110Y-72809715D01*
X160196247Y-72814761D01*
X160196248Y-72814767D01*
X160216119Y-72902939D01*
X160244222Y-73027639D01*
X160328266Y-73234616D01*
X160379019Y-73317438D01*
X160442291Y-73420688D01*
X160444987Y-73425088D01*
X160591250Y-73593938D01*
X160683779Y-73670757D01*
X160760902Y-73734786D01*
X160800537Y-73793689D01*
X160805339Y-73848175D01*
X160803516Y-73862027D01*
X160800379Y-73885852D01*
X160799348Y-73892359D01*
X160787704Y-73955186D01*
X160788141Y-73962766D01*
X160788141Y-73962767D01*
X160791291Y-74017392D01*
X160791500Y-74024646D01*
X160791500Y-74971088D01*
X160791208Y-74979658D01*
X160788567Y-75018405D01*
X160787275Y-75037352D01*
X160788580Y-75044829D01*
X160788580Y-75044830D01*
X160798261Y-75100299D01*
X160799223Y-75106821D01*
X160806898Y-75170242D01*
X160809581Y-75177343D01*
X160810222Y-75179952D01*
X160814685Y-75196262D01*
X160815450Y-75198798D01*
X160816757Y-75206284D01*
X160819811Y-75213241D01*
X160842442Y-75264795D01*
X160844933Y-75270899D01*
X160867513Y-75330656D01*
X160871817Y-75336919D01*
X160873054Y-75339285D01*
X160881299Y-75354097D01*
X160882632Y-75356351D01*
X160885685Y-75363305D01*
X160905615Y-75389277D01*
X160924579Y-75413991D01*
X160928459Y-75419332D01*
X160960339Y-75465720D01*
X160960344Y-75465725D01*
X160964643Y-75471981D01*
X160970313Y-75477032D01*
X160970314Y-75477034D01*
X161011170Y-75513435D01*
X161016446Y-75518416D01*
X161478550Y-75980520D01*
X161484404Y-75986785D01*
X161522439Y-76030385D01*
X161528657Y-76034755D01*
X161574697Y-76067112D01*
X161579993Y-76071045D01*
X161630282Y-76110477D01*
X161637204Y-76113602D01*
X161639452Y-76114964D01*
X161654185Y-76123368D01*
X161656524Y-76124622D01*
X161662739Y-76128990D01*
X161669815Y-76131749D01*
X161669819Y-76131751D01*
X161722269Y-76152200D01*
X161728334Y-76154749D01*
X161786573Y-76181045D01*
X161794038Y-76182429D01*
X161796582Y-76183226D01*
X161812848Y-76187859D01*
X161815428Y-76188521D01*
X161822509Y-76191282D01*
X161830042Y-76192274D01*
X161830043Y-76192274D01*
X161843261Y-76194014D01*
X161885857Y-76199622D01*
X161892355Y-76200650D01*
X161955187Y-76212296D01*
X161962767Y-76211859D01*
X161962768Y-76211859D01*
X162017393Y-76208709D01*
X162024647Y-76208500D01*
X198471088Y-76208500D01*
X198479658Y-76208792D01*
X198529776Y-76212209D01*
X198529780Y-76212209D01*
X198537352Y-76212725D01*
X198544829Y-76211420D01*
X198544830Y-76211420D01*
X198576189Y-76205947D01*
X198600303Y-76201738D01*
X198606821Y-76200777D01*
X198670242Y-76193102D01*
X198677343Y-76190419D01*
X198679952Y-76189778D01*
X198696262Y-76185315D01*
X198698798Y-76184550D01*
X198706284Y-76183243D01*
X198764800Y-76157556D01*
X198770904Y-76155065D01*
X198775319Y-76153397D01*
X198830656Y-76132487D01*
X198836919Y-76128183D01*
X198839285Y-76126946D01*
X198854097Y-76118701D01*
X198856351Y-76117368D01*
X198863305Y-76114315D01*
X198914002Y-76075413D01*
X198919332Y-76071541D01*
X198965720Y-76039661D01*
X198965725Y-76039656D01*
X198971981Y-76035357D01*
X199013436Y-75988829D01*
X199018416Y-75983554D01*
X199936905Y-75065065D01*
X199999217Y-75031039D01*
X200070032Y-75036104D01*
X200126868Y-75078651D01*
X200151679Y-75145171D01*
X200152000Y-75154160D01*
X200152000Y-95886000D01*
X200131998Y-95954121D01*
X200078342Y-96000614D01*
X200026000Y-96012000D01*
X109854000Y-96012000D01*
X109785879Y-95991998D01*
X109739386Y-95938342D01*
X109728000Y-95886000D01*
X109728000Y-94087655D01*
X109999858Y-94087655D01*
X110035104Y-94346638D01*
X110036412Y-94351124D01*
X110036412Y-94351126D01*
X110056098Y-94418664D01*
X110108243Y-94597567D01*
X110217668Y-94834928D01*
X110220231Y-94838837D01*
X110358410Y-95049596D01*
X110358414Y-95049601D01*
X110360976Y-95053509D01*
X110535018Y-95248506D01*
X110735970Y-95415637D01*
X110739973Y-95418066D01*
X110955422Y-95548804D01*
X110955426Y-95548806D01*
X110959419Y-95551229D01*
X111200455Y-95652303D01*
X111453783Y-95716641D01*
X111458434Y-95717109D01*
X111458438Y-95717110D01*
X111651308Y-95736531D01*
X111670867Y-95738500D01*
X111826354Y-95738500D01*
X111828679Y-95738327D01*
X111828685Y-95738327D01*
X112016000Y-95724407D01*
X112016004Y-95724406D01*
X112020652Y-95724061D01*
X112025200Y-95723032D01*
X112025206Y-95723031D01*
X112211601Y-95680853D01*
X112275577Y-95666377D01*
X112311769Y-95652303D01*
X112514824Y-95573340D01*
X112514827Y-95573339D01*
X112519177Y-95571647D01*
X112746098Y-95441951D01*
X112951357Y-95280138D01*
X113130443Y-95089763D01*
X113279424Y-94875009D01*
X113395025Y-94640593D01*
X113474707Y-94391665D01*
X113516721Y-94133693D01*
X113517324Y-94087655D01*
X196359858Y-94087655D01*
X196395104Y-94346638D01*
X196396412Y-94351124D01*
X196396412Y-94351126D01*
X196416098Y-94418664D01*
X196468243Y-94597567D01*
X196577668Y-94834928D01*
X196580231Y-94838837D01*
X196718410Y-95049596D01*
X196718414Y-95049601D01*
X196720976Y-95053509D01*
X196895018Y-95248506D01*
X197095970Y-95415637D01*
X197099973Y-95418066D01*
X197315422Y-95548804D01*
X197315426Y-95548806D01*
X197319419Y-95551229D01*
X197560455Y-95652303D01*
X197813783Y-95716641D01*
X197818434Y-95717109D01*
X197818438Y-95717110D01*
X198011308Y-95736531D01*
X198030867Y-95738500D01*
X198186354Y-95738500D01*
X198188679Y-95738327D01*
X198188685Y-95738327D01*
X198376000Y-95724407D01*
X198376004Y-95724406D01*
X198380652Y-95724061D01*
X198385200Y-95723032D01*
X198385206Y-95723031D01*
X198571601Y-95680853D01*
X198635577Y-95666377D01*
X198671769Y-95652303D01*
X198874824Y-95573340D01*
X198874827Y-95573339D01*
X198879177Y-95571647D01*
X199106098Y-95441951D01*
X199311357Y-95280138D01*
X199490443Y-95089763D01*
X199639424Y-94875009D01*
X199755025Y-94640593D01*
X199834707Y-94391665D01*
X199876721Y-94133693D01*
X199880142Y-93872345D01*
X199844896Y-93613362D01*
X199830473Y-93563877D01*
X199773068Y-93366932D01*
X199771757Y-93362433D01*
X199662332Y-93125072D01*
X199559479Y-92968195D01*
X199521590Y-92910404D01*
X199521586Y-92910399D01*
X199519024Y-92906491D01*
X199344982Y-92711494D01*
X199144030Y-92544363D01*
X199021515Y-92470019D01*
X198924578Y-92411196D01*
X198924574Y-92411194D01*
X198920581Y-92408771D01*
X198679545Y-92307697D01*
X198426217Y-92243359D01*
X198421566Y-92242891D01*
X198421562Y-92242890D01*
X198212271Y-92221816D01*
X198209133Y-92221500D01*
X198053646Y-92221500D01*
X198051321Y-92221673D01*
X198051315Y-92221673D01*
X197864000Y-92235593D01*
X197863996Y-92235594D01*
X197859348Y-92235939D01*
X197854800Y-92236968D01*
X197854794Y-92236969D01*
X197684939Y-92275404D01*
X197604423Y-92293623D01*
X197600071Y-92295315D01*
X197600069Y-92295316D01*
X197365176Y-92386660D01*
X197365173Y-92386661D01*
X197360823Y-92388353D01*
X197356769Y-92390670D01*
X197356767Y-92390671D01*
X197278492Y-92435409D01*
X197133902Y-92518049D01*
X196928643Y-92679862D01*
X196749557Y-92870237D01*
X196600576Y-93084991D01*
X196484975Y-93319407D01*
X196405293Y-93568335D01*
X196363279Y-93826307D01*
X196359858Y-94087655D01*
X113517324Y-94087655D01*
X113520142Y-93872345D01*
X113484896Y-93613362D01*
X113470473Y-93563877D01*
X113413068Y-93366932D01*
X113411757Y-93362433D01*
X113302332Y-93125072D01*
X113199479Y-92968195D01*
X113161590Y-92910404D01*
X113161586Y-92910399D01*
X113159024Y-92906491D01*
X112984982Y-92711494D01*
X112784030Y-92544363D01*
X112661515Y-92470019D01*
X112564578Y-92411196D01*
X112564574Y-92411194D01*
X112560581Y-92408771D01*
X112319545Y-92307697D01*
X112066217Y-92243359D01*
X112061566Y-92242891D01*
X112061562Y-92242890D01*
X111852271Y-92221816D01*
X111849133Y-92221500D01*
X111693646Y-92221500D01*
X111691321Y-92221673D01*
X111691315Y-92221673D01*
X111504000Y-92235593D01*
X111503996Y-92235594D01*
X111499348Y-92235939D01*
X111494800Y-92236968D01*
X111494794Y-92236969D01*
X111324939Y-92275404D01*
X111244423Y-92293623D01*
X111240071Y-92295315D01*
X111240069Y-92295316D01*
X111005176Y-92386660D01*
X111005173Y-92386661D01*
X111000823Y-92388353D01*
X110996769Y-92390670D01*
X110996767Y-92390671D01*
X110918492Y-92435409D01*
X110773902Y-92518049D01*
X110568643Y-92679862D01*
X110389557Y-92870237D01*
X110240576Y-93084991D01*
X110124975Y-93319407D01*
X110045293Y-93568335D01*
X110003279Y-93826307D01*
X109999858Y-94087655D01*
X109728000Y-94087655D01*
X109728000Y-89786695D01*
X129137251Y-89786695D01*
X129137548Y-89791848D01*
X129137548Y-89791851D01*
X129142505Y-89877824D01*
X129150110Y-90009715D01*
X129151247Y-90014761D01*
X129151248Y-90014767D01*
X129173515Y-90113569D01*
X129199222Y-90227639D01*
X129258547Y-90373741D01*
X129276662Y-90418351D01*
X129283266Y-90434616D01*
X129302816Y-90466518D01*
X129347565Y-90539542D01*
X129399987Y-90625088D01*
X129546250Y-90793938D01*
X129718126Y-90936632D01*
X129911000Y-91049338D01*
X130119692Y-91129030D01*
X130124760Y-91130061D01*
X130124763Y-91130062D01*
X130232017Y-91151883D01*
X130338597Y-91173567D01*
X130343772Y-91173757D01*
X130343774Y-91173757D01*
X130556673Y-91181564D01*
X130556677Y-91181564D01*
X130561837Y-91181753D01*
X130566957Y-91181097D01*
X130566959Y-91181097D01*
X130778288Y-91154025D01*
X130778289Y-91154025D01*
X130783416Y-91153368D01*
X130788366Y-91151883D01*
X130992429Y-91090661D01*
X130992434Y-91090659D01*
X130997384Y-91089174D01*
X131197994Y-90990896D01*
X131379860Y-90861173D01*
X131387166Y-90853893D01*
X131526757Y-90714788D01*
X131538096Y-90703489D01*
X131555166Y-90679733D01*
X161487822Y-90679733D01*
X161487975Y-90684121D01*
X161487975Y-90684127D01*
X161496706Y-90934127D01*
X161497625Y-90960458D01*
X161498387Y-90964781D01*
X161498388Y-90964788D01*
X161522164Y-91099624D01*
X161546402Y-91237087D01*
X161633203Y-91504235D01*
X161756340Y-91756702D01*
X161758795Y-91760341D01*
X161758798Y-91760347D01*
X161815064Y-91843764D01*
X161913415Y-91989576D01*
X162101371Y-92198322D01*
X162316550Y-92378879D01*
X162554764Y-92527731D01*
X162688484Y-92587267D01*
X162775594Y-92626051D01*
X162811375Y-92641982D01*
X162815603Y-92643194D01*
X162815602Y-92643194D01*
X163046945Y-92709530D01*
X163081390Y-92719407D01*
X163085740Y-92720018D01*
X163085743Y-92720019D01*
X163188690Y-92734487D01*
X163359552Y-92758500D01*
X163570146Y-92758500D01*
X163572332Y-92758347D01*
X163572336Y-92758347D01*
X163775827Y-92744118D01*
X163775832Y-92744117D01*
X163780212Y-92743811D01*
X164054970Y-92685409D01*
X164059099Y-92683906D01*
X164059103Y-92683905D01*
X164314781Y-92590846D01*
X164314785Y-92590844D01*
X164318926Y-92589337D01*
X164566942Y-92457464D01*
X164596042Y-92436322D01*
X164790629Y-92294947D01*
X164790632Y-92294944D01*
X164794192Y-92292358D01*
X164807491Y-92279516D01*
X164894947Y-92195060D01*
X164996252Y-92097231D01*
X165169188Y-91875882D01*
X165171384Y-91872078D01*
X165171389Y-91872071D01*
X165307435Y-91636431D01*
X165309636Y-91632619D01*
X165414862Y-91372176D01*
X165415928Y-91367901D01*
X165481753Y-91103893D01*
X165481754Y-91103888D01*
X165482817Y-91099624D01*
X165483916Y-91089174D01*
X165500673Y-90929733D01*
X172737822Y-90929733D01*
X172737975Y-90934121D01*
X172737975Y-90934127D01*
X172746623Y-91181753D01*
X172747625Y-91210458D01*
X172748387Y-91214781D01*
X172748388Y-91214788D01*
X172772164Y-91349624D01*
X172796402Y-91487087D01*
X172883203Y-91754235D01*
X173006340Y-92006702D01*
X173008795Y-92010341D01*
X173008798Y-92010347D01*
X173030390Y-92042358D01*
X173163415Y-92239576D01*
X173166360Y-92242847D01*
X173166361Y-92242848D01*
X173251376Y-92337267D01*
X173351371Y-92448322D01*
X173566550Y-92628879D01*
X173804764Y-92777731D01*
X173938484Y-92837267D01*
X174021176Y-92874084D01*
X174061375Y-92891982D01*
X174331390Y-92969407D01*
X174335740Y-92970018D01*
X174335743Y-92970019D01*
X174438690Y-92984487D01*
X174609552Y-93008500D01*
X174820146Y-93008500D01*
X174822332Y-93008347D01*
X174822336Y-93008347D01*
X175025827Y-92994118D01*
X175025832Y-92994117D01*
X175030212Y-92993811D01*
X175304970Y-92935409D01*
X175309099Y-92933906D01*
X175309103Y-92933905D01*
X175564781Y-92840846D01*
X175564785Y-92840844D01*
X175568926Y-92839337D01*
X175816942Y-92707464D01*
X175846042Y-92686322D01*
X176040629Y-92544947D01*
X176040632Y-92544944D01*
X176044192Y-92542358D01*
X176057491Y-92529516D01*
X176144947Y-92445060D01*
X176246252Y-92347231D01*
X176419188Y-92125882D01*
X176421384Y-92122078D01*
X176421389Y-92122071D01*
X176557435Y-91886431D01*
X176559636Y-91882619D01*
X176664862Y-91622176D01*
X176694268Y-91504235D01*
X176731753Y-91353893D01*
X176731754Y-91353888D01*
X176732817Y-91349624D01*
X176745100Y-91232764D01*
X176761719Y-91074636D01*
X176761719Y-91074633D01*
X176762178Y-91070267D01*
X176761512Y-91051181D01*
X176752529Y-90793939D01*
X176752528Y-90793933D01*
X176752375Y-90789542D01*
X176738431Y-90710458D01*
X176704360Y-90517236D01*
X176703598Y-90512913D01*
X176676571Y-90429733D01*
X183987822Y-90429733D01*
X183987975Y-90434121D01*
X183987975Y-90434127D01*
X183997382Y-90703489D01*
X183997625Y-90710458D01*
X183998387Y-90714781D01*
X183998388Y-90714788D01*
X184024200Y-90861173D01*
X184046402Y-90987087D01*
X184133203Y-91254235D01*
X184135131Y-91258188D01*
X184135133Y-91258193D01*
X184181810Y-91353893D01*
X184256340Y-91506702D01*
X184258795Y-91510341D01*
X184258798Y-91510347D01*
X184331344Y-91617901D01*
X184413415Y-91739576D01*
X184601371Y-91948322D01*
X184816550Y-92128879D01*
X185054764Y-92277731D01*
X185188484Y-92337267D01*
X185299422Y-92386660D01*
X185311375Y-92391982D01*
X185315603Y-92393194D01*
X185315602Y-92393194D01*
X185546945Y-92459530D01*
X185581390Y-92469407D01*
X185585740Y-92470018D01*
X185585743Y-92470019D01*
X185688690Y-92484487D01*
X185859552Y-92508500D01*
X186070146Y-92508500D01*
X186072332Y-92508347D01*
X186072336Y-92508347D01*
X186275827Y-92494118D01*
X186275832Y-92494117D01*
X186280212Y-92493811D01*
X186554970Y-92435409D01*
X186559099Y-92433906D01*
X186559103Y-92433905D01*
X186814781Y-92340846D01*
X186814785Y-92340844D01*
X186818926Y-92339337D01*
X187066942Y-92207464D01*
X187171896Y-92131211D01*
X187290629Y-92044947D01*
X187290632Y-92044944D01*
X187294192Y-92042358D01*
X187327341Y-92010347D01*
X187455659Y-91886431D01*
X187496252Y-91847231D01*
X187669188Y-91625882D01*
X187671384Y-91622078D01*
X187671389Y-91622071D01*
X187807435Y-91386431D01*
X187809636Y-91382619D01*
X187914862Y-91122176D01*
X187915928Y-91117901D01*
X187981753Y-90853893D01*
X187981754Y-90853888D01*
X187982817Y-90849624D01*
X187985444Y-90824636D01*
X188011719Y-90574636D01*
X188011719Y-90574633D01*
X188012178Y-90570267D01*
X188011259Y-90543939D01*
X188002529Y-90293939D01*
X188002528Y-90293933D01*
X188002375Y-90289542D01*
X187994844Y-90246827D01*
X187954360Y-90017236D01*
X187953598Y-90012913D01*
X187866797Y-89745765D01*
X187743660Y-89493298D01*
X187741205Y-89489659D01*
X187741202Y-89489653D01*
X187614411Y-89301678D01*
X187586585Y-89260424D01*
X187398629Y-89051678D01*
X187183450Y-88871121D01*
X186945236Y-88722269D01*
X186730516Y-88626669D01*
X186692639Y-88609805D01*
X186692637Y-88609804D01*
X186688625Y-88608018D01*
X186533992Y-88563678D01*
X186422837Y-88531805D01*
X186422836Y-88531805D01*
X186418610Y-88530593D01*
X186414260Y-88529982D01*
X186414257Y-88529981D01*
X186267372Y-88509338D01*
X186140448Y-88491500D01*
X185929854Y-88491500D01*
X185927668Y-88491653D01*
X185927664Y-88491653D01*
X185724173Y-88505882D01*
X185724168Y-88505883D01*
X185719788Y-88506189D01*
X185445030Y-88564591D01*
X185440901Y-88566094D01*
X185440897Y-88566095D01*
X185185219Y-88659154D01*
X185185215Y-88659156D01*
X185181074Y-88660663D01*
X184933058Y-88792536D01*
X184929499Y-88795122D01*
X184929497Y-88795123D01*
X184824895Y-88871121D01*
X184705808Y-88957642D01*
X184702644Y-88960698D01*
X184702641Y-88960700D01*
X184630899Y-89029981D01*
X184503748Y-89152769D01*
X184330812Y-89374118D01*
X184328616Y-89377922D01*
X184328611Y-89377929D01*
X184250008Y-89514075D01*
X184190364Y-89617381D01*
X184085138Y-89877824D01*
X184084073Y-89882097D01*
X184084072Y-89882099D01*
X184022806Y-90127824D01*
X184017183Y-90150376D01*
X184016724Y-90154744D01*
X184016723Y-90154749D01*
X183990448Y-90404749D01*
X183987822Y-90429733D01*
X176676571Y-90429733D01*
X176616797Y-90245765D01*
X176607957Y-90227639D01*
X176504131Y-90014767D01*
X176493660Y-89993298D01*
X176491205Y-89989659D01*
X176491202Y-89989653D01*
X176406157Y-89863569D01*
X176336585Y-89760424D01*
X176148629Y-89551678D01*
X175933450Y-89371121D01*
X175695236Y-89222269D01*
X175515376Y-89142190D01*
X175442639Y-89109805D01*
X175442637Y-89109804D01*
X175438625Y-89108018D01*
X175232301Y-89048856D01*
X175172837Y-89031805D01*
X175172836Y-89031805D01*
X175168610Y-89030593D01*
X175164260Y-89029982D01*
X175164257Y-89029981D01*
X175061310Y-89015513D01*
X174890448Y-88991500D01*
X174679854Y-88991500D01*
X174677668Y-88991653D01*
X174677664Y-88991653D01*
X174474173Y-89005882D01*
X174474168Y-89005883D01*
X174469788Y-89006189D01*
X174195030Y-89064591D01*
X174190901Y-89066094D01*
X174190897Y-89066095D01*
X173935219Y-89159154D01*
X173935215Y-89159156D01*
X173931074Y-89160663D01*
X173683058Y-89292536D01*
X173679499Y-89295122D01*
X173679497Y-89295123D01*
X173526563Y-89406236D01*
X173455808Y-89457642D01*
X173452644Y-89460698D01*
X173452641Y-89460700D01*
X173397370Y-89514075D01*
X173253748Y-89652769D01*
X173080812Y-89874118D01*
X173078616Y-89877922D01*
X173078611Y-89877929D01*
X172999608Y-90014767D01*
X172940364Y-90117381D01*
X172835138Y-90377824D01*
X172834073Y-90382097D01*
X172834072Y-90382099D01*
X172774585Y-90620689D01*
X172767183Y-90650376D01*
X172766724Y-90654744D01*
X172766723Y-90654749D01*
X172738281Y-90925364D01*
X172737822Y-90929733D01*
X165500673Y-90929733D01*
X165511719Y-90824636D01*
X165511719Y-90824633D01*
X165512178Y-90820267D01*
X165511259Y-90793938D01*
X165502529Y-90543939D01*
X165502528Y-90543933D01*
X165502375Y-90539542D01*
X165499296Y-90522077D01*
X165454360Y-90267236D01*
X165453598Y-90262913D01*
X165366797Y-89995765D01*
X165243660Y-89743298D01*
X165241205Y-89739659D01*
X165241202Y-89739653D01*
X165156157Y-89613569D01*
X165086585Y-89510424D01*
X164898629Y-89301678D01*
X164683450Y-89121121D01*
X164445236Y-88972269D01*
X164265376Y-88892190D01*
X164192639Y-88859805D01*
X164192637Y-88859804D01*
X164188625Y-88858018D01*
X163977677Y-88797530D01*
X163922837Y-88781805D01*
X163922836Y-88781805D01*
X163918610Y-88780593D01*
X163914260Y-88779982D01*
X163914257Y-88779981D01*
X163811310Y-88765513D01*
X163640448Y-88741500D01*
X163429854Y-88741500D01*
X163427668Y-88741653D01*
X163427664Y-88741653D01*
X163224173Y-88755882D01*
X163224168Y-88755883D01*
X163219788Y-88756189D01*
X162945030Y-88814591D01*
X162940901Y-88816094D01*
X162940897Y-88816095D01*
X162685219Y-88909154D01*
X162685215Y-88909156D01*
X162681074Y-88910663D01*
X162433058Y-89042536D01*
X162429499Y-89045122D01*
X162429497Y-89045123D01*
X162234908Y-89186500D01*
X162205808Y-89207642D01*
X162202644Y-89210698D01*
X162202641Y-89210700D01*
X162147370Y-89264075D01*
X162003748Y-89402769D01*
X161830812Y-89624118D01*
X161828616Y-89627922D01*
X161828611Y-89627929D01*
X161736948Y-89786695D01*
X161690364Y-89867381D01*
X161585138Y-90127824D01*
X161584073Y-90132097D01*
X161584072Y-90132099D01*
X161519606Y-90390659D01*
X161517183Y-90400376D01*
X161516724Y-90404744D01*
X161516723Y-90404749D01*
X161493565Y-90625088D01*
X161487822Y-90679733D01*
X131555166Y-90679733D01*
X131597594Y-90620689D01*
X131665435Y-90526277D01*
X131668453Y-90522077D01*
X131670746Y-90517437D01*
X131672446Y-90514608D01*
X131724674Y-90466518D01*
X131780451Y-90453500D01*
X136101233Y-90453500D01*
X136112416Y-90454027D01*
X136119909Y-90455702D01*
X136127835Y-90455453D01*
X136127836Y-90455453D01*
X136187986Y-90453562D01*
X136191945Y-90453500D01*
X136219856Y-90453500D01*
X136223791Y-90453003D01*
X136223856Y-90452995D01*
X136235693Y-90452062D01*
X136267951Y-90451048D01*
X136271970Y-90450922D01*
X136279889Y-90450673D01*
X136299343Y-90445021D01*
X136318700Y-90441013D01*
X136330930Y-90439468D01*
X136330931Y-90439468D01*
X136338797Y-90438474D01*
X136346168Y-90435555D01*
X136346170Y-90435555D01*
X136379912Y-90422196D01*
X136391142Y-90418351D01*
X136425983Y-90408229D01*
X136425984Y-90408229D01*
X136433593Y-90406018D01*
X136440412Y-90401985D01*
X136440417Y-90401983D01*
X136451028Y-90395707D01*
X136468776Y-90387012D01*
X136487617Y-90379552D01*
X136523387Y-90353564D01*
X136533307Y-90347048D01*
X136564535Y-90328580D01*
X136564538Y-90328578D01*
X136571362Y-90324542D01*
X136585683Y-90310221D01*
X136600717Y-90297380D01*
X136610694Y-90290131D01*
X136617107Y-90285472D01*
X136645298Y-90251395D01*
X136653288Y-90242616D01*
X147025500Y-79870405D01*
X147087812Y-79836379D01*
X147114595Y-79833500D01*
X147900606Y-79833500D01*
X147968727Y-79853502D01*
X148003819Y-79887229D01*
X148113802Y-80044300D01*
X148275700Y-80206198D01*
X148280208Y-80209355D01*
X148280211Y-80209357D01*
X148358389Y-80264098D01*
X148463251Y-80337523D01*
X148468233Y-80339846D01*
X148468238Y-80339849D01*
X148502457Y-80355805D01*
X148555742Y-80402722D01*
X148575203Y-80470999D01*
X148554661Y-80538959D01*
X148502457Y-80584195D01*
X148468238Y-80600151D01*
X148468233Y-80600154D01*
X148463251Y-80602477D01*
X148361591Y-80673660D01*
X148280211Y-80730643D01*
X148280208Y-80730645D01*
X148275700Y-80733802D01*
X148113802Y-80895700D01*
X148110645Y-80900208D01*
X148110643Y-80900211D01*
X148102595Y-80911705D01*
X147982477Y-81083251D01*
X147980154Y-81088233D01*
X147980151Y-81088238D01*
X147912931Y-81232394D01*
X147885716Y-81290757D01*
X147884294Y-81296065D01*
X147884293Y-81296067D01*
X147830721Y-81496000D01*
X147826457Y-81511913D01*
X147806502Y-81740000D01*
X147826457Y-81968087D01*
X147827881Y-81973400D01*
X147827881Y-81973402D01*
X147862478Y-82102517D01*
X147885716Y-82189243D01*
X147888039Y-82194224D01*
X147888039Y-82194225D01*
X147980151Y-82391762D01*
X147980154Y-82391767D01*
X147982477Y-82396749D01*
X148113802Y-82584300D01*
X148275700Y-82746198D01*
X148280208Y-82749355D01*
X148280211Y-82749357D01*
X148343671Y-82793792D01*
X148463251Y-82877523D01*
X148468233Y-82879846D01*
X148468238Y-82879849D01*
X148665775Y-82971961D01*
X148670757Y-82974284D01*
X148676065Y-82975706D01*
X148676067Y-82975707D01*
X148886598Y-83032119D01*
X148886600Y-83032119D01*
X148891913Y-83033543D01*
X149120000Y-83053498D01*
X149348087Y-83033543D01*
X149353400Y-83032119D01*
X149353402Y-83032119D01*
X149563933Y-82975707D01*
X149563935Y-82975706D01*
X149569243Y-82974284D01*
X149574225Y-82971961D01*
X149771762Y-82879849D01*
X149771767Y-82879846D01*
X149776749Y-82877523D01*
X149896329Y-82793792D01*
X149959789Y-82749357D01*
X149959792Y-82749355D01*
X149964300Y-82746198D01*
X150126198Y-82584300D01*
X150257523Y-82396749D01*
X150259846Y-82391767D01*
X150259849Y-82391762D01*
X150317575Y-82267966D01*
X165628257Y-82267966D01*
X165658565Y-82402446D01*
X165661645Y-82412275D01*
X165741770Y-82609603D01*
X165746413Y-82618794D01*
X165857694Y-82800388D01*
X165863777Y-82808699D01*
X166003213Y-82969667D01*
X166010580Y-82976883D01*
X166174434Y-83112916D01*
X166182881Y-83118831D01*
X166366756Y-83226279D01*
X166376042Y-83230729D01*
X166575001Y-83306703D01*
X166584899Y-83309579D01*
X166688250Y-83330606D01*
X166702299Y-83329410D01*
X166706000Y-83319065D01*
X166706000Y-83318517D01*
X167214000Y-83318517D01*
X167218064Y-83332359D01*
X167231478Y-83334393D01*
X167238184Y-83333534D01*
X167248262Y-83331392D01*
X167452255Y-83270191D01*
X167461842Y-83266433D01*
X167653095Y-83172739D01*
X167661945Y-83167464D01*
X167835328Y-83043792D01*
X167843193Y-83037145D01*
X167947897Y-82932805D01*
X168010268Y-82898889D01*
X168081075Y-82904077D01*
X168137837Y-82946723D01*
X168154819Y-82977826D01*
X168174973Y-83031587D01*
X168199385Y-83096705D01*
X168286739Y-83213261D01*
X168403295Y-83300615D01*
X168539684Y-83351745D01*
X168601866Y-83358500D01*
X170398134Y-83358500D01*
X170460316Y-83351745D01*
X170596705Y-83300615D01*
X170713261Y-83213261D01*
X170800615Y-83096705D01*
X170851745Y-82960316D01*
X170858500Y-82898134D01*
X170858500Y-82648134D01*
X178866500Y-82648134D01*
X178873255Y-82710316D01*
X178924385Y-82846705D01*
X179011739Y-82963261D01*
X179128295Y-83050615D01*
X179264684Y-83101745D01*
X179326866Y-83108500D01*
X181123134Y-83108500D01*
X181185316Y-83101745D01*
X181321705Y-83050615D01*
X181438261Y-82963261D01*
X181525615Y-82846705D01*
X181539863Y-82808699D01*
X181569798Y-82728848D01*
X181612440Y-82672084D01*
X181679001Y-82647384D01*
X181748350Y-82662592D01*
X181783017Y-82690580D01*
X181808218Y-82719673D01*
X181815580Y-82726883D01*
X181979434Y-82862916D01*
X181987881Y-82868831D01*
X182171756Y-82976279D01*
X182181042Y-82980729D01*
X182380001Y-83056703D01*
X182389899Y-83059579D01*
X182493250Y-83080606D01*
X182507299Y-83079410D01*
X182511000Y-83069065D01*
X182511000Y-83068517D01*
X183019000Y-83068517D01*
X183023064Y-83082359D01*
X183036478Y-83084393D01*
X183043184Y-83083534D01*
X183053262Y-83081392D01*
X183257255Y-83020191D01*
X183266842Y-83016433D01*
X183458095Y-82922739D01*
X183466945Y-82917464D01*
X183640328Y-82793792D01*
X183648200Y-82787139D01*
X183799052Y-82636812D01*
X183805730Y-82628965D01*
X183930003Y-82456020D01*
X183935313Y-82447183D01*
X184029670Y-82256267D01*
X184033469Y-82246672D01*
X184095377Y-82042910D01*
X184097555Y-82032837D01*
X184098986Y-82021962D01*
X184096775Y-82007778D01*
X184083617Y-82004000D01*
X183037115Y-82004000D01*
X183021876Y-82008475D01*
X183020671Y-82009865D01*
X183019000Y-82017548D01*
X183019000Y-83068517D01*
X182511000Y-83068517D01*
X182511000Y-81477885D01*
X183019000Y-81477885D01*
X183023475Y-81493124D01*
X183024865Y-81494329D01*
X183032548Y-81496000D01*
X184083344Y-81496000D01*
X184096875Y-81492027D01*
X184098180Y-81482947D01*
X184056214Y-81315875D01*
X184052894Y-81306124D01*
X183967972Y-81110814D01*
X183963105Y-81101739D01*
X183847426Y-80922926D01*
X183841136Y-80914757D01*
X183697806Y-80757240D01*
X183690273Y-80750215D01*
X183523139Y-80618222D01*
X183514552Y-80612517D01*
X183328117Y-80509599D01*
X183318705Y-80505369D01*
X183117959Y-80434280D01*
X183107988Y-80431646D01*
X183036837Y-80418972D01*
X183023540Y-80420432D01*
X183019000Y-80434989D01*
X183019000Y-81477885D01*
X182511000Y-81477885D01*
X182511000Y-80433102D01*
X182507082Y-80419758D01*
X182492806Y-80417771D01*
X182454324Y-80423660D01*
X182444288Y-80426051D01*
X182241868Y-80492212D01*
X182232359Y-80496209D01*
X182043463Y-80594542D01*
X182034738Y-80600036D01*
X181864433Y-80727905D01*
X181856726Y-80734748D01*
X181779478Y-80815584D01*
X181717954Y-80851014D01*
X181647042Y-80847557D01*
X181589255Y-80806311D01*
X181570402Y-80772763D01*
X181528767Y-80661703D01*
X181525615Y-80653295D01*
X181438261Y-80536739D01*
X181321705Y-80449385D01*
X181185316Y-80398255D01*
X181123134Y-80391500D01*
X179326866Y-80391500D01*
X179264684Y-80398255D01*
X179128295Y-80449385D01*
X179011739Y-80536739D01*
X178924385Y-80653295D01*
X178873255Y-80789684D01*
X178866500Y-80851866D01*
X178866500Y-82648134D01*
X170858500Y-82648134D01*
X170858500Y-81101866D01*
X170851745Y-81039684D01*
X170800615Y-80903295D01*
X170713261Y-80786739D01*
X170596705Y-80699385D01*
X170460316Y-80648255D01*
X170398134Y-80641500D01*
X168601866Y-80641500D01*
X168539684Y-80648255D01*
X168403295Y-80699385D01*
X168286739Y-80786739D01*
X168199385Y-80903295D01*
X168196233Y-80911703D01*
X168196232Y-80911705D01*
X168154722Y-81022433D01*
X168112081Y-81079198D01*
X168045519Y-81103898D01*
X167976170Y-81088691D01*
X167943546Y-81063004D01*
X167892799Y-81007234D01*
X167885273Y-81000215D01*
X167718139Y-80868222D01*
X167709552Y-80862517D01*
X167523117Y-80759599D01*
X167513705Y-80755369D01*
X167312959Y-80684280D01*
X167302988Y-80681646D01*
X167231837Y-80668972D01*
X167218540Y-80670432D01*
X167214000Y-80684989D01*
X167214000Y-83318517D01*
X166706000Y-83318517D01*
X166706000Y-82272115D01*
X166701525Y-82256876D01*
X166700135Y-82255671D01*
X166692452Y-82254000D01*
X165643225Y-82254000D01*
X165629694Y-82257973D01*
X165628257Y-82267966D01*
X150317575Y-82267966D01*
X150351961Y-82194225D01*
X150351961Y-82194224D01*
X150354284Y-82189243D01*
X150377523Y-82102517D01*
X150412119Y-81973402D01*
X150412119Y-81973400D01*
X150413543Y-81968087D01*
X150433498Y-81740000D01*
X150432989Y-81734183D01*
X165624389Y-81734183D01*
X165625912Y-81742607D01*
X165638292Y-81746000D01*
X166687885Y-81746000D01*
X166703124Y-81741525D01*
X166704329Y-81740135D01*
X166706000Y-81732452D01*
X166706000Y-80683102D01*
X166702082Y-80669758D01*
X166687806Y-80667771D01*
X166649324Y-80673660D01*
X166639288Y-80676051D01*
X166436868Y-80742212D01*
X166427359Y-80746209D01*
X166238463Y-80844542D01*
X166229738Y-80850036D01*
X166059433Y-80977905D01*
X166051726Y-80984748D01*
X165904590Y-81138717D01*
X165898104Y-81146727D01*
X165778098Y-81322649D01*
X165773000Y-81331623D01*
X165683338Y-81524783D01*
X165679775Y-81534470D01*
X165624389Y-81734183D01*
X150432989Y-81734183D01*
X150413543Y-81511913D01*
X150409279Y-81496000D01*
X150355707Y-81296067D01*
X150355706Y-81296065D01*
X150354284Y-81290757D01*
X150327069Y-81232394D01*
X150259849Y-81088238D01*
X150259846Y-81088233D01*
X150257523Y-81083251D01*
X150137405Y-80911705D01*
X150129357Y-80900211D01*
X150129355Y-80900208D01*
X150126198Y-80895700D01*
X149964300Y-80733802D01*
X149959792Y-80730645D01*
X149959789Y-80730643D01*
X149878409Y-80673660D01*
X149776749Y-80602477D01*
X149771767Y-80600154D01*
X149771762Y-80600151D01*
X149737543Y-80584195D01*
X149684258Y-80537278D01*
X149664797Y-80469001D01*
X149685339Y-80401041D01*
X149737543Y-80355805D01*
X149771762Y-80339849D01*
X149771767Y-80339846D01*
X149776749Y-80337523D01*
X149881611Y-80264098D01*
X149959789Y-80209357D01*
X149959792Y-80209355D01*
X149964300Y-80206198D01*
X150126198Y-80044300D01*
X150257523Y-79856749D01*
X150259846Y-79851767D01*
X150259849Y-79851762D01*
X150351961Y-79654225D01*
X150351961Y-79654224D01*
X150354284Y-79649243D01*
X150413543Y-79428087D01*
X150433498Y-79200000D01*
X150413543Y-78971913D01*
X150361419Y-78777384D01*
X150355707Y-78756067D01*
X150355706Y-78756065D01*
X150354284Y-78750757D01*
X150341164Y-78722620D01*
X150259849Y-78548238D01*
X150259846Y-78548233D01*
X150257523Y-78543251D01*
X150126198Y-78355700D01*
X149964300Y-78193802D01*
X149959792Y-78190645D01*
X149959789Y-78190643D01*
X149881611Y-78135902D01*
X149776749Y-78062477D01*
X149771767Y-78060154D01*
X149771762Y-78060151D01*
X149736951Y-78043919D01*
X149683666Y-77997002D01*
X149664205Y-77928725D01*
X149684747Y-77860765D01*
X149736951Y-77815529D01*
X149771511Y-77799414D01*
X149781007Y-77793931D01*
X149959467Y-77668972D01*
X149967875Y-77661916D01*
X150121916Y-77507875D01*
X150128972Y-77499467D01*
X150253931Y-77321007D01*
X150259414Y-77311511D01*
X150351490Y-77114053D01*
X150355236Y-77103761D01*
X150401394Y-76931497D01*
X150401058Y-76917401D01*
X150393116Y-76914000D01*
X147852033Y-76914000D01*
X147838502Y-76917973D01*
X147837273Y-76926522D01*
X147884764Y-77103761D01*
X147888510Y-77114053D01*
X147980586Y-77311511D01*
X147986069Y-77321007D01*
X148111028Y-77499467D01*
X148118084Y-77507875D01*
X148272125Y-77661916D01*
X148280533Y-77668972D01*
X148458993Y-77793931D01*
X148468489Y-77799414D01*
X148503049Y-77815529D01*
X148556334Y-77862446D01*
X148575795Y-77930723D01*
X148555253Y-77998683D01*
X148503049Y-78043919D01*
X148468238Y-78060151D01*
X148468233Y-78060154D01*
X148463251Y-78062477D01*
X148358389Y-78135902D01*
X148280211Y-78190643D01*
X148280208Y-78190645D01*
X148275700Y-78193802D01*
X148113802Y-78355700D01*
X148110645Y-78360208D01*
X148110643Y-78360211D01*
X148003819Y-78512771D01*
X147948362Y-78557099D01*
X147900606Y-78566500D01*
X146878767Y-78566500D01*
X146867584Y-78565973D01*
X146860091Y-78564298D01*
X146852165Y-78564547D01*
X146852164Y-78564547D01*
X146792014Y-78566438D01*
X146788055Y-78566500D01*
X146760144Y-78566500D01*
X146756210Y-78566997D01*
X146756209Y-78566997D01*
X146756144Y-78567005D01*
X146744307Y-78567938D01*
X146712049Y-78568952D01*
X146708030Y-78569078D01*
X146700111Y-78569327D01*
X146680657Y-78574979D01*
X146661300Y-78578987D01*
X146649070Y-78580532D01*
X146649069Y-78580532D01*
X146641203Y-78581526D01*
X146633832Y-78584445D01*
X146633830Y-78584445D01*
X146600088Y-78597804D01*
X146588858Y-78601649D01*
X146554017Y-78611771D01*
X146554016Y-78611771D01*
X146546407Y-78613982D01*
X146539588Y-78618015D01*
X146539583Y-78618017D01*
X146528972Y-78624293D01*
X146511224Y-78632988D01*
X146492383Y-78640448D01*
X146485967Y-78645110D01*
X146485966Y-78645110D01*
X146456613Y-78666436D01*
X146446693Y-78672952D01*
X146415465Y-78691420D01*
X146415462Y-78691422D01*
X146408638Y-78695458D01*
X146394317Y-78709779D01*
X146379284Y-78722619D01*
X146362893Y-78734528D01*
X146334702Y-78768605D01*
X146326712Y-78777384D01*
X143000700Y-82103395D01*
X142938388Y-82137421D01*
X142867572Y-82132356D01*
X142810737Y-82089809D01*
X142785926Y-82023289D01*
X142789899Y-81981686D01*
X142792119Y-81973402D01*
X142792119Y-81973400D01*
X142793543Y-81968087D01*
X142813498Y-81740000D01*
X142793543Y-81511913D01*
X142789279Y-81496000D01*
X142735707Y-81296067D01*
X142735706Y-81296065D01*
X142734284Y-81290757D01*
X142707069Y-81232394D01*
X142639849Y-81088238D01*
X142639846Y-81088233D01*
X142637523Y-81083251D01*
X142517405Y-80911705D01*
X142509357Y-80900211D01*
X142509355Y-80900208D01*
X142506198Y-80895700D01*
X142344300Y-80733802D01*
X142339792Y-80730645D01*
X142339789Y-80730643D01*
X142258409Y-80673660D01*
X142156749Y-80602477D01*
X142151767Y-80600154D01*
X142151762Y-80600151D01*
X142117543Y-80584195D01*
X142064258Y-80537278D01*
X142044797Y-80469001D01*
X142065339Y-80401041D01*
X142117543Y-80355805D01*
X142151762Y-80339849D01*
X142151767Y-80339846D01*
X142156749Y-80337523D01*
X142261611Y-80264098D01*
X142339789Y-80209357D01*
X142339792Y-80209355D01*
X142344300Y-80206198D01*
X142506198Y-80044300D01*
X142637523Y-79856749D01*
X142639846Y-79851767D01*
X142639849Y-79851762D01*
X142731961Y-79654225D01*
X142731961Y-79654224D01*
X142734284Y-79649243D01*
X142793543Y-79428087D01*
X142813498Y-79200000D01*
X142793543Y-78971913D01*
X142741419Y-78777384D01*
X142735707Y-78756067D01*
X142735706Y-78756065D01*
X142734284Y-78750757D01*
X142721164Y-78722620D01*
X142639849Y-78548238D01*
X142639846Y-78548233D01*
X142637523Y-78543251D01*
X142506198Y-78355700D01*
X142344300Y-78193802D01*
X142339792Y-78190645D01*
X142339789Y-78190643D01*
X142261611Y-78135902D01*
X142156749Y-78062477D01*
X142151767Y-78060154D01*
X142151762Y-78060151D01*
X142116951Y-78043919D01*
X142063666Y-77997002D01*
X142044205Y-77928725D01*
X142064747Y-77860765D01*
X142116951Y-77815529D01*
X142151511Y-77799414D01*
X142161007Y-77793931D01*
X142339467Y-77668972D01*
X142347875Y-77661916D01*
X142501916Y-77507875D01*
X142508972Y-77499467D01*
X142633931Y-77321007D01*
X142639414Y-77311511D01*
X142731490Y-77114053D01*
X142735236Y-77103761D01*
X142781394Y-76931497D01*
X142781058Y-76917401D01*
X142773116Y-76914000D01*
X140232033Y-76914000D01*
X140218502Y-76917973D01*
X140217273Y-76926522D01*
X140264764Y-77103761D01*
X140268510Y-77114053D01*
X140360586Y-77311511D01*
X140366069Y-77321007D01*
X140491028Y-77499467D01*
X140498084Y-77507875D01*
X140652125Y-77661916D01*
X140660533Y-77668972D01*
X140838993Y-77793931D01*
X140848489Y-77799414D01*
X140883049Y-77815529D01*
X140936334Y-77862446D01*
X140955795Y-77930723D01*
X140935253Y-77998683D01*
X140883049Y-78043919D01*
X140848238Y-78060151D01*
X140848233Y-78060154D01*
X140843251Y-78062477D01*
X140738389Y-78135902D01*
X140660211Y-78190643D01*
X140660208Y-78190645D01*
X140655700Y-78193802D01*
X140493802Y-78355700D01*
X140490645Y-78360208D01*
X140490643Y-78360211D01*
X140383819Y-78512771D01*
X140328362Y-78557099D01*
X140280606Y-78566500D01*
X139878767Y-78566500D01*
X139867584Y-78565973D01*
X139860091Y-78564298D01*
X139852165Y-78564547D01*
X139852164Y-78564547D01*
X139792014Y-78566438D01*
X139788055Y-78566500D01*
X139760144Y-78566500D01*
X139756210Y-78566997D01*
X139756209Y-78566997D01*
X139756144Y-78567005D01*
X139744307Y-78567938D01*
X139712490Y-78568938D01*
X139708029Y-78569078D01*
X139700110Y-78569327D01*
X139682454Y-78574456D01*
X139680658Y-78574978D01*
X139661306Y-78578986D01*
X139654235Y-78579880D01*
X139641203Y-78581526D01*
X139633834Y-78584443D01*
X139633832Y-78584444D01*
X139600097Y-78597800D01*
X139588869Y-78601645D01*
X139546407Y-78613982D01*
X139539584Y-78618017D01*
X139539582Y-78618018D01*
X139528972Y-78624293D01*
X139511224Y-78632988D01*
X139492383Y-78640448D01*
X139485967Y-78645110D01*
X139485966Y-78645110D01*
X139456613Y-78666436D01*
X139446693Y-78672952D01*
X139415465Y-78691420D01*
X139415462Y-78691422D01*
X139408638Y-78695458D01*
X139394317Y-78709779D01*
X139379284Y-78722619D01*
X139362893Y-78734528D01*
X139334702Y-78768605D01*
X139326712Y-78777384D01*
X134034500Y-84069595D01*
X133972188Y-84103621D01*
X133945405Y-84106500D01*
X131776805Y-84106500D01*
X131708684Y-84086498D01*
X131671013Y-84048940D01*
X131582822Y-83912617D01*
X131582820Y-83912614D01*
X131580014Y-83908277D01*
X131576540Y-83904459D01*
X131576533Y-83904450D01*
X131432435Y-83746088D01*
X131401383Y-83682242D01*
X131409779Y-83611744D01*
X131454956Y-83556976D01*
X131481400Y-83543307D01*
X131588052Y-83503325D01*
X131603649Y-83494786D01*
X131705724Y-83418285D01*
X131718285Y-83405724D01*
X131794786Y-83303649D01*
X131803324Y-83288054D01*
X131848478Y-83167606D01*
X131852105Y-83152351D01*
X131857631Y-83101486D01*
X131858000Y-83094672D01*
X131858000Y-82472115D01*
X131853525Y-82456876D01*
X131852135Y-82455671D01*
X131844452Y-82454000D01*
X129160116Y-82454000D01*
X129144877Y-82458475D01*
X129143672Y-82459865D01*
X129142001Y-82467548D01*
X129142001Y-83094669D01*
X129142371Y-83101490D01*
X129147895Y-83152352D01*
X129151521Y-83167604D01*
X129196676Y-83288054D01*
X129205214Y-83303649D01*
X129281715Y-83405724D01*
X129294276Y-83418285D01*
X129396351Y-83494786D01*
X129411946Y-83503324D01*
X129520827Y-83544142D01*
X129577591Y-83586784D01*
X129602291Y-83653345D01*
X129587083Y-83722694D01*
X129567691Y-83749175D01*
X129444200Y-83878401D01*
X129440629Y-83882138D01*
X129314743Y-84066680D01*
X129220688Y-84269305D01*
X129160989Y-84484570D01*
X129137251Y-84706695D01*
X129150110Y-84929715D01*
X129151247Y-84934761D01*
X129151248Y-84934767D01*
X129175304Y-85041508D01*
X129199222Y-85147639D01*
X129259014Y-85294890D01*
X129276662Y-85338351D01*
X129283266Y-85354616D01*
X129399987Y-85545088D01*
X129546250Y-85713938D01*
X129718126Y-85856632D01*
X129788595Y-85897811D01*
X129791445Y-85899476D01*
X129840169Y-85951114D01*
X129853240Y-86020897D01*
X129826509Y-86086669D01*
X129786055Y-86120027D01*
X129773607Y-86126507D01*
X129769474Y-86129610D01*
X129769471Y-86129612D01*
X129745247Y-86147800D01*
X129594965Y-86260635D01*
X129440629Y-86422138D01*
X129314743Y-86606680D01*
X129220688Y-86809305D01*
X129160989Y-87024570D01*
X129137251Y-87246695D01*
X129150110Y-87469715D01*
X129151247Y-87474761D01*
X129151248Y-87474767D01*
X129175304Y-87581508D01*
X129199222Y-87687639D01*
X129259014Y-87834890D01*
X129276662Y-87878351D01*
X129283266Y-87894616D01*
X129399987Y-88085088D01*
X129546250Y-88253938D01*
X129718126Y-88396632D01*
X129788595Y-88437811D01*
X129791445Y-88439476D01*
X129840169Y-88491114D01*
X129853240Y-88560897D01*
X129826509Y-88626669D01*
X129786055Y-88660027D01*
X129773607Y-88666507D01*
X129769474Y-88669610D01*
X129769471Y-88669612D01*
X129602306Y-88795123D01*
X129594965Y-88800635D01*
X129591393Y-88804373D01*
X129447400Y-88955053D01*
X129440629Y-88962138D01*
X129437715Y-88966410D01*
X129437714Y-88966411D01*
X129385785Y-89042536D01*
X129314743Y-89146680D01*
X129279656Y-89222269D01*
X129242796Y-89301678D01*
X129220688Y-89349305D01*
X129160989Y-89564570D01*
X129137251Y-89786695D01*
X109728000Y-89786695D01*
X109728000Y-81927885D01*
X129142000Y-81927885D01*
X129146475Y-81943124D01*
X129147865Y-81944329D01*
X129155548Y-81946000D01*
X130227885Y-81946000D01*
X130243124Y-81941525D01*
X130244329Y-81940135D01*
X130246000Y-81932452D01*
X130246000Y-81927885D01*
X130754000Y-81927885D01*
X130758475Y-81943124D01*
X130759865Y-81944329D01*
X130767548Y-81946000D01*
X131839884Y-81946000D01*
X131855123Y-81941525D01*
X131856328Y-81940135D01*
X131857999Y-81932452D01*
X131857999Y-81305331D01*
X131857629Y-81298510D01*
X131852105Y-81247648D01*
X131848479Y-81232396D01*
X131803324Y-81111946D01*
X131794786Y-81096351D01*
X131718285Y-80994276D01*
X131705724Y-80981715D01*
X131603649Y-80905214D01*
X131588054Y-80896676D01*
X131467606Y-80851522D01*
X131452351Y-80847895D01*
X131401486Y-80842369D01*
X131394672Y-80842000D01*
X130772115Y-80842000D01*
X130756876Y-80846475D01*
X130755671Y-80847865D01*
X130754000Y-80855548D01*
X130754000Y-81927885D01*
X130246000Y-81927885D01*
X130246000Y-80860116D01*
X130241525Y-80844877D01*
X130240135Y-80843672D01*
X130232452Y-80842001D01*
X129605331Y-80842001D01*
X129598510Y-80842371D01*
X129547648Y-80847895D01*
X129532396Y-80851521D01*
X129411946Y-80896676D01*
X129396351Y-80905214D01*
X129294276Y-80981715D01*
X129281715Y-80994276D01*
X129205214Y-81096351D01*
X129196676Y-81111946D01*
X129151522Y-81232394D01*
X129147895Y-81247649D01*
X129142369Y-81298514D01*
X129142000Y-81305328D01*
X129142000Y-81927885D01*
X109728000Y-81927885D01*
X109728000Y-74386522D01*
X140217273Y-74386522D01*
X140264764Y-74563761D01*
X140268510Y-74574053D01*
X140360586Y-74771511D01*
X140366069Y-74781007D01*
X140491028Y-74959467D01*
X140498084Y-74967875D01*
X140652125Y-75121916D01*
X140660533Y-75128972D01*
X140838993Y-75253931D01*
X140848489Y-75259414D01*
X140883641Y-75275805D01*
X140936926Y-75322722D01*
X140956387Y-75390999D01*
X140935845Y-75458959D01*
X140883641Y-75504195D01*
X140848489Y-75520586D01*
X140838993Y-75526069D01*
X140660533Y-75651028D01*
X140652125Y-75658084D01*
X140498084Y-75812125D01*
X140491028Y-75820533D01*
X140366069Y-75998993D01*
X140360586Y-76008489D01*
X140268510Y-76205947D01*
X140264764Y-76216239D01*
X140218606Y-76388503D01*
X140218942Y-76402599D01*
X140226884Y-76406000D01*
X141227885Y-76406000D01*
X141243124Y-76401525D01*
X141244329Y-76400135D01*
X141246000Y-76392452D01*
X141246000Y-76387885D01*
X141754000Y-76387885D01*
X141758475Y-76403124D01*
X141759865Y-76404329D01*
X141767548Y-76406000D01*
X142767967Y-76406000D01*
X142781498Y-76402027D01*
X142782727Y-76393478D01*
X142735236Y-76216239D01*
X142731490Y-76205947D01*
X142639414Y-76008489D01*
X142633931Y-75998993D01*
X142508972Y-75820533D01*
X142501916Y-75812125D01*
X142347875Y-75658084D01*
X142339467Y-75651028D01*
X142161007Y-75526069D01*
X142151511Y-75520586D01*
X142116359Y-75504195D01*
X142063074Y-75457278D01*
X142043613Y-75389001D01*
X142064155Y-75321041D01*
X142116359Y-75275805D01*
X142151511Y-75259414D01*
X142161007Y-75253931D01*
X142339467Y-75128972D01*
X142347875Y-75121916D01*
X142501916Y-74967875D01*
X142508972Y-74959467D01*
X142633931Y-74781007D01*
X142639414Y-74771511D01*
X142731490Y-74574053D01*
X142735236Y-74563761D01*
X142781394Y-74391497D01*
X142781058Y-74377401D01*
X142773116Y-74374000D01*
X141772115Y-74374000D01*
X141756876Y-74378475D01*
X141755671Y-74379865D01*
X141754000Y-74387548D01*
X141754000Y-76387885D01*
X141246000Y-76387885D01*
X141246000Y-74392115D01*
X141241525Y-74376876D01*
X141240135Y-74375671D01*
X141232452Y-74374000D01*
X140232033Y-74374000D01*
X140218502Y-74377973D01*
X140217273Y-74386522D01*
X109728000Y-74386522D01*
X109728000Y-74120000D01*
X147806502Y-74120000D01*
X147826457Y-74348087D01*
X147827881Y-74353400D01*
X147827881Y-74353402D01*
X147837031Y-74387548D01*
X147885716Y-74569243D01*
X147888039Y-74574224D01*
X147888039Y-74574225D01*
X147980151Y-74771762D01*
X147980154Y-74771767D01*
X147982477Y-74776749D01*
X148113802Y-74964300D01*
X148275700Y-75126198D01*
X148280208Y-75129355D01*
X148280211Y-75129357D01*
X148327833Y-75162702D01*
X148463251Y-75257523D01*
X148468233Y-75259846D01*
X148468238Y-75259849D01*
X148503049Y-75276081D01*
X148556334Y-75322998D01*
X148575795Y-75391275D01*
X148555253Y-75459235D01*
X148503049Y-75504471D01*
X148468489Y-75520586D01*
X148458993Y-75526069D01*
X148280533Y-75651028D01*
X148272125Y-75658084D01*
X148118084Y-75812125D01*
X148111028Y-75820533D01*
X147986069Y-75998993D01*
X147980586Y-76008489D01*
X147888510Y-76205947D01*
X147884764Y-76216239D01*
X147838606Y-76388503D01*
X147838942Y-76402599D01*
X147846884Y-76406000D01*
X150387967Y-76406000D01*
X150401498Y-76402027D01*
X150402727Y-76393478D01*
X150355236Y-76216239D01*
X150351490Y-76205947D01*
X150259414Y-76008489D01*
X150253931Y-75998993D01*
X150128972Y-75820533D01*
X150121916Y-75812125D01*
X149967875Y-75658084D01*
X149959467Y-75651028D01*
X149781007Y-75526069D01*
X149771511Y-75520586D01*
X149736951Y-75504471D01*
X149683666Y-75457554D01*
X149664205Y-75389277D01*
X149684747Y-75321317D01*
X149736951Y-75276081D01*
X149771762Y-75259849D01*
X149771767Y-75259846D01*
X149776749Y-75257523D01*
X149912167Y-75162702D01*
X149959789Y-75129357D01*
X149959792Y-75129355D01*
X149964300Y-75126198D01*
X150126198Y-74964300D01*
X150257523Y-74776749D01*
X150259846Y-74771767D01*
X150259849Y-74771762D01*
X150351961Y-74574225D01*
X150351961Y-74574224D01*
X150354284Y-74569243D01*
X150402970Y-74387548D01*
X150412119Y-74353402D01*
X150412119Y-74353400D01*
X150413543Y-74348087D01*
X150433498Y-74120000D01*
X150413543Y-73891913D01*
X150401824Y-73848176D01*
X150355707Y-73676067D01*
X150355706Y-73676065D01*
X150354284Y-73670757D01*
X150351961Y-73665775D01*
X150259849Y-73468238D01*
X150259846Y-73468233D01*
X150257523Y-73463251D01*
X150161776Y-73326511D01*
X150129357Y-73280211D01*
X150129355Y-73280208D01*
X150126198Y-73275700D01*
X149964300Y-73113802D01*
X149959792Y-73110645D01*
X149959789Y-73110643D01*
X149841247Y-73027639D01*
X149776749Y-72982477D01*
X149771767Y-72980154D01*
X149771762Y-72980151D01*
X149737543Y-72964195D01*
X149684258Y-72917278D01*
X149664797Y-72849001D01*
X149685339Y-72781041D01*
X149737543Y-72735805D01*
X149771762Y-72719849D01*
X149771767Y-72719846D01*
X149776749Y-72717523D01*
X149956227Y-72591851D01*
X149959789Y-72589357D01*
X149959792Y-72589355D01*
X149964300Y-72586198D01*
X150126198Y-72424300D01*
X150148576Y-72392342D01*
X150254366Y-72241257D01*
X150257523Y-72236749D01*
X150259846Y-72231767D01*
X150259849Y-72231762D01*
X150351961Y-72034225D01*
X150351961Y-72034224D01*
X150354284Y-72029243D01*
X150368594Y-71975840D01*
X150412119Y-71813402D01*
X150412119Y-71813400D01*
X150413543Y-71808087D01*
X150433498Y-71580000D01*
X150413543Y-71351913D01*
X150397069Y-71290432D01*
X150355707Y-71136067D01*
X150355706Y-71136065D01*
X150354284Y-71130757D01*
X150351961Y-71125775D01*
X150259849Y-70928238D01*
X150259846Y-70928233D01*
X150257523Y-70923251D01*
X150126198Y-70735700D01*
X149964300Y-70573802D01*
X149959792Y-70570645D01*
X149959789Y-70570643D01*
X149840820Y-70487340D01*
X149776749Y-70442477D01*
X149771767Y-70440154D01*
X149771762Y-70440151D01*
X149737543Y-70424195D01*
X149684258Y-70377278D01*
X149664797Y-70309001D01*
X149685339Y-70241041D01*
X149737543Y-70195805D01*
X149771762Y-70179849D01*
X149771767Y-70179846D01*
X149776749Y-70177523D01*
X149891323Y-70097297D01*
X149959789Y-70049357D01*
X149959792Y-70049355D01*
X149964300Y-70046198D01*
X150126198Y-69884300D01*
X150228191Y-69738640D01*
X151436463Y-69738640D01*
X151454163Y-69919160D01*
X151511418Y-70091273D01*
X151515065Y-70097295D01*
X151515066Y-70097297D01*
X151525978Y-70115314D01*
X151605380Y-70246424D01*
X151731382Y-70376902D01*
X151737278Y-70380760D01*
X151836416Y-70445634D01*
X151883159Y-70476222D01*
X151889763Y-70478678D01*
X151889765Y-70478679D01*
X152046558Y-70536990D01*
X152046560Y-70536990D01*
X152053168Y-70539448D01*
X152136995Y-70550633D01*
X152225980Y-70562507D01*
X152225984Y-70562507D01*
X152232961Y-70563438D01*
X152239972Y-70562800D01*
X152239976Y-70562800D01*
X152382459Y-70549832D01*
X152413600Y-70546998D01*
X152420302Y-70544820D01*
X152420304Y-70544820D01*
X152579409Y-70493124D01*
X152579412Y-70493123D01*
X152586108Y-70490947D01*
X152741912Y-70398069D01*
X152873266Y-70272982D01*
X152973643Y-70121902D01*
X153038055Y-69952338D01*
X153039035Y-69945366D01*
X153062748Y-69776639D01*
X153062748Y-69776636D01*
X153063299Y-69772717D01*
X153063616Y-69750000D01*
X153043397Y-69569745D01*
X153041080Y-69563091D01*
X152986064Y-69405106D01*
X152986062Y-69405103D01*
X152983745Y-69398448D01*
X152902646Y-69268661D01*
X152883500Y-69201892D01*
X152883500Y-65795620D01*
X152904552Y-65725893D01*
X152946902Y-65662151D01*
X152973643Y-65621902D01*
X153038055Y-65452338D01*
X153040195Y-65437114D01*
X153062748Y-65276639D01*
X153062748Y-65276636D01*
X153063299Y-65272717D01*
X153063488Y-65259166D01*
X153063561Y-65253962D01*
X153063561Y-65253957D01*
X153063616Y-65250000D01*
X153043397Y-65069745D01*
X153041080Y-65063091D01*
X152986064Y-64905106D01*
X152986062Y-64905103D01*
X152983745Y-64898448D01*
X152956700Y-64855166D01*
X152891359Y-64750598D01*
X152887626Y-64744624D01*
X152851139Y-64707881D01*
X152764778Y-64620915D01*
X152764774Y-64620912D01*
X152759815Y-64615918D01*
X152748697Y-64608862D01*
X152700538Y-64578300D01*
X152606666Y-64518727D01*
X152577463Y-64508328D01*
X152442425Y-64460243D01*
X152442420Y-64460242D01*
X152435790Y-64457881D01*
X152428802Y-64457048D01*
X152428799Y-64457047D01*
X152305698Y-64442368D01*
X152255680Y-64436404D01*
X152248677Y-64437140D01*
X152248676Y-64437140D01*
X152082288Y-64454628D01*
X152082286Y-64454629D01*
X152075288Y-64455364D01*
X151903579Y-64513818D01*
X151897575Y-64517512D01*
X151755095Y-64605166D01*
X151755092Y-64605168D01*
X151749088Y-64608862D01*
X151744053Y-64613793D01*
X151744050Y-64613795D01*
X151647973Y-64707881D01*
X151619493Y-64735771D01*
X151521235Y-64888238D01*
X151518826Y-64894858D01*
X151518824Y-64894861D01*
X151484332Y-64989627D01*
X151459197Y-65058685D01*
X151436463Y-65238640D01*
X151454163Y-65419160D01*
X151511418Y-65591273D01*
X151515065Y-65597295D01*
X151515066Y-65597297D01*
X151598276Y-65734694D01*
X151616500Y-65799965D01*
X151616500Y-69203331D01*
X151596411Y-69271586D01*
X151525054Y-69382310D01*
X151525050Y-69382319D01*
X151521235Y-69388238D01*
X151518826Y-69394858D01*
X151518825Y-69394859D01*
X151486405Y-69483933D01*
X151459197Y-69558685D01*
X151436463Y-69738640D01*
X150228191Y-69738640D01*
X150257523Y-69696749D01*
X150259846Y-69691767D01*
X150259849Y-69691762D01*
X150351961Y-69494225D01*
X150351961Y-69494224D01*
X150354284Y-69489243D01*
X150381349Y-69388238D01*
X150412119Y-69273402D01*
X150412119Y-69273400D01*
X150413543Y-69268087D01*
X150433498Y-69040000D01*
X150413543Y-68811913D01*
X150354284Y-68590757D01*
X150333879Y-68546998D01*
X150259849Y-68388238D01*
X150259846Y-68388233D01*
X150257523Y-68383251D01*
X150183159Y-68277048D01*
X150129357Y-68200211D01*
X150129355Y-68200208D01*
X150126198Y-68195700D01*
X149964300Y-68033802D01*
X149959792Y-68030645D01*
X149959789Y-68030643D01*
X149881611Y-67975902D01*
X149776749Y-67902477D01*
X149771767Y-67900154D01*
X149771762Y-67900151D01*
X149737543Y-67884195D01*
X149684258Y-67837278D01*
X149664797Y-67769001D01*
X149685339Y-67701041D01*
X149737543Y-67655805D01*
X149771762Y-67639849D01*
X149771767Y-67639846D01*
X149776749Y-67637523D01*
X149918458Y-67538297D01*
X149959789Y-67509357D01*
X149959792Y-67509355D01*
X149964300Y-67506198D01*
X150126198Y-67344300D01*
X150257523Y-67156749D01*
X150259846Y-67151767D01*
X150259849Y-67151762D01*
X150351961Y-66954225D01*
X150351961Y-66954224D01*
X150354284Y-66949243D01*
X150413543Y-66728087D01*
X150433498Y-66500000D01*
X150413543Y-66271913D01*
X150412119Y-66266598D01*
X150355707Y-66056067D01*
X150355706Y-66056065D01*
X150354284Y-66050757D01*
X150338942Y-66017856D01*
X150259849Y-65848238D01*
X150259846Y-65848233D01*
X150257523Y-65843251D01*
X150163463Y-65708920D01*
X150129357Y-65660211D01*
X150129355Y-65660208D01*
X150126198Y-65655700D01*
X149964300Y-65493802D01*
X149959792Y-65490645D01*
X149959789Y-65490643D01*
X149851962Y-65415142D01*
X149776749Y-65362477D01*
X149771767Y-65360154D01*
X149771762Y-65360151D01*
X149574225Y-65268039D01*
X149574224Y-65268039D01*
X149569243Y-65265716D01*
X149563935Y-65264294D01*
X149563933Y-65264293D01*
X149353402Y-65207881D01*
X149353400Y-65207881D01*
X149348087Y-65206457D01*
X149120000Y-65186502D01*
X148891913Y-65206457D01*
X148886600Y-65207881D01*
X148886598Y-65207881D01*
X148676067Y-65264293D01*
X148676065Y-65264294D01*
X148670757Y-65265716D01*
X148665776Y-65268039D01*
X148665775Y-65268039D01*
X148468238Y-65360151D01*
X148468233Y-65360154D01*
X148463251Y-65362477D01*
X148388038Y-65415142D01*
X148280211Y-65490643D01*
X148280208Y-65490645D01*
X148275700Y-65493802D01*
X148113802Y-65655700D01*
X148110645Y-65660208D01*
X148110643Y-65660211D01*
X148076537Y-65708920D01*
X147982477Y-65843251D01*
X147980154Y-65848233D01*
X147980151Y-65848238D01*
X147901058Y-66017856D01*
X147885716Y-66050757D01*
X147884294Y-66056065D01*
X147884293Y-66056067D01*
X147827881Y-66266598D01*
X147826457Y-66271913D01*
X147806502Y-66500000D01*
X147826457Y-66728087D01*
X147885716Y-66949243D01*
X147888039Y-66954224D01*
X147888039Y-66954225D01*
X147980151Y-67151762D01*
X147980154Y-67151767D01*
X147982477Y-67156749D01*
X148113802Y-67344300D01*
X148275700Y-67506198D01*
X148280208Y-67509355D01*
X148280211Y-67509357D01*
X148321542Y-67538297D01*
X148463251Y-67637523D01*
X148468233Y-67639846D01*
X148468238Y-67639849D01*
X148502457Y-67655805D01*
X148555742Y-67702722D01*
X148575203Y-67770999D01*
X148554661Y-67838959D01*
X148502457Y-67884195D01*
X148468238Y-67900151D01*
X148468233Y-67900154D01*
X148463251Y-67902477D01*
X148358389Y-67975902D01*
X148280211Y-68030643D01*
X148280208Y-68030645D01*
X148275700Y-68033802D01*
X148113802Y-68195700D01*
X148110645Y-68200208D01*
X148110643Y-68200211D01*
X148056841Y-68277048D01*
X147982477Y-68383251D01*
X147980154Y-68388233D01*
X147980151Y-68388238D01*
X147906121Y-68546998D01*
X147885716Y-68590757D01*
X147826457Y-68811913D01*
X147806502Y-69040000D01*
X147826457Y-69268087D01*
X147827881Y-69273400D01*
X147827881Y-69273402D01*
X147858652Y-69388238D01*
X147885716Y-69489243D01*
X147888039Y-69494224D01*
X147888039Y-69494225D01*
X147980151Y-69691762D01*
X147980154Y-69691767D01*
X147982477Y-69696749D01*
X148113802Y-69884300D01*
X148275700Y-70046198D01*
X148280208Y-70049355D01*
X148280211Y-70049357D01*
X148348677Y-70097297D01*
X148463251Y-70177523D01*
X148468233Y-70179846D01*
X148468238Y-70179849D01*
X148502457Y-70195805D01*
X148555742Y-70242722D01*
X148575203Y-70310999D01*
X148554661Y-70378959D01*
X148502457Y-70424195D01*
X148468238Y-70440151D01*
X148468233Y-70440154D01*
X148463251Y-70442477D01*
X148399180Y-70487340D01*
X148280211Y-70570643D01*
X148280208Y-70570645D01*
X148275700Y-70573802D01*
X148113802Y-70735700D01*
X147982477Y-70923251D01*
X147980154Y-70928233D01*
X147980151Y-70928238D01*
X147888039Y-71125775D01*
X147885716Y-71130757D01*
X147884294Y-71136065D01*
X147884293Y-71136067D01*
X147842931Y-71290432D01*
X147826457Y-71351913D01*
X147806502Y-71580000D01*
X147826457Y-71808087D01*
X147827881Y-71813400D01*
X147827881Y-71813402D01*
X147871407Y-71975840D01*
X147885716Y-72029243D01*
X147888039Y-72034224D01*
X147888039Y-72034225D01*
X147980151Y-72231762D01*
X147980154Y-72231767D01*
X147982477Y-72236749D01*
X147985634Y-72241257D01*
X148091425Y-72392342D01*
X148113802Y-72424300D01*
X148275700Y-72586198D01*
X148280208Y-72589355D01*
X148280211Y-72589357D01*
X148283773Y-72591851D01*
X148463251Y-72717523D01*
X148468233Y-72719846D01*
X148468238Y-72719849D01*
X148502457Y-72735805D01*
X148555742Y-72782722D01*
X148575203Y-72850999D01*
X148554661Y-72918959D01*
X148502457Y-72964195D01*
X148468238Y-72980151D01*
X148468233Y-72980154D01*
X148463251Y-72982477D01*
X148398753Y-73027639D01*
X148280211Y-73110643D01*
X148280208Y-73110645D01*
X148275700Y-73113802D01*
X148113802Y-73275700D01*
X148110645Y-73280208D01*
X148110643Y-73280211D01*
X148078224Y-73326511D01*
X147982477Y-73463251D01*
X147980154Y-73468233D01*
X147980151Y-73468238D01*
X147888039Y-73665775D01*
X147885716Y-73670757D01*
X147884294Y-73676065D01*
X147884293Y-73676067D01*
X147838176Y-73848176D01*
X147826457Y-73891913D01*
X147806502Y-74120000D01*
X109728000Y-74120000D01*
X109728000Y-71580000D01*
X140186502Y-71580000D01*
X140206457Y-71808087D01*
X140207881Y-71813400D01*
X140207881Y-71813402D01*
X140251407Y-71975840D01*
X140265716Y-72029243D01*
X140268039Y-72034224D01*
X140268039Y-72034225D01*
X140360151Y-72231762D01*
X140360154Y-72231767D01*
X140362477Y-72236749D01*
X140365634Y-72241257D01*
X140471425Y-72392342D01*
X140493802Y-72424300D01*
X140655700Y-72586198D01*
X140660208Y-72589355D01*
X140660211Y-72589357D01*
X140663773Y-72591851D01*
X140843251Y-72717523D01*
X140848233Y-72719846D01*
X140848238Y-72719849D01*
X140883049Y-72736081D01*
X140936334Y-72782998D01*
X140955795Y-72851275D01*
X140935253Y-72919235D01*
X140883049Y-72964471D01*
X140848489Y-72980586D01*
X140838993Y-72986069D01*
X140660533Y-73111028D01*
X140652125Y-73118084D01*
X140498084Y-73272125D01*
X140491028Y-73280533D01*
X140366069Y-73458993D01*
X140360586Y-73468489D01*
X140268510Y-73665947D01*
X140264764Y-73676239D01*
X140218606Y-73848503D01*
X140218942Y-73862599D01*
X140226884Y-73866000D01*
X142767967Y-73866000D01*
X142781498Y-73862027D01*
X142782727Y-73853478D01*
X142735236Y-73676239D01*
X142731490Y-73665947D01*
X142639414Y-73468489D01*
X142633931Y-73458993D01*
X142508972Y-73280533D01*
X142501916Y-73272125D01*
X142347875Y-73118084D01*
X142339467Y-73111028D01*
X142161007Y-72986069D01*
X142151511Y-72980586D01*
X142116951Y-72964471D01*
X142063666Y-72917554D01*
X142044205Y-72849277D01*
X142064747Y-72781317D01*
X142116951Y-72736081D01*
X142151762Y-72719849D01*
X142151767Y-72719846D01*
X142156749Y-72717523D01*
X142336227Y-72591851D01*
X142339789Y-72589357D01*
X142339792Y-72589355D01*
X142344300Y-72586198D01*
X142506198Y-72424300D01*
X142528576Y-72392342D01*
X142634366Y-72241257D01*
X142637523Y-72236749D01*
X142639846Y-72231767D01*
X142639849Y-72231762D01*
X142731961Y-72034225D01*
X142731961Y-72034224D01*
X142734284Y-72029243D01*
X142748594Y-71975840D01*
X142792119Y-71813402D01*
X142792119Y-71813400D01*
X142793543Y-71808087D01*
X142813498Y-71580000D01*
X142793543Y-71351913D01*
X142777069Y-71290432D01*
X142735707Y-71136067D01*
X142735706Y-71136065D01*
X142734284Y-71130757D01*
X142731961Y-71125775D01*
X142639849Y-70928238D01*
X142639846Y-70928233D01*
X142637523Y-70923251D01*
X142506198Y-70735700D01*
X142344300Y-70573802D01*
X142339792Y-70570645D01*
X142339789Y-70570643D01*
X142220820Y-70487340D01*
X142156749Y-70442477D01*
X142151767Y-70440154D01*
X142151762Y-70440151D01*
X142117543Y-70424195D01*
X142064258Y-70377278D01*
X142044797Y-70309001D01*
X142065339Y-70241041D01*
X142117543Y-70195805D01*
X142151762Y-70179849D01*
X142151767Y-70179846D01*
X142156749Y-70177523D01*
X142271323Y-70097297D01*
X142339789Y-70049357D01*
X142339792Y-70049355D01*
X142344300Y-70046198D01*
X142506198Y-69884300D01*
X142637523Y-69696749D01*
X142639846Y-69691767D01*
X142639849Y-69691762D01*
X142731961Y-69494225D01*
X142731961Y-69494224D01*
X142734284Y-69489243D01*
X142761349Y-69388238D01*
X142792119Y-69273402D01*
X142792119Y-69273400D01*
X142793543Y-69268087D01*
X142813498Y-69040000D01*
X142793543Y-68811913D01*
X142734284Y-68590757D01*
X142713879Y-68546998D01*
X142639849Y-68388238D01*
X142639846Y-68388233D01*
X142637523Y-68383251D01*
X142563159Y-68277048D01*
X142509357Y-68200211D01*
X142509355Y-68200208D01*
X142506198Y-68195700D01*
X142344300Y-68033802D01*
X142339789Y-68030643D01*
X142335576Y-68027108D01*
X142336527Y-68025974D01*
X142296529Y-67975929D01*
X142289224Y-67905310D01*
X142321258Y-67841951D01*
X142382462Y-67805970D01*
X142399517Y-67802918D01*
X142410316Y-67801745D01*
X142546705Y-67750615D01*
X142663261Y-67663261D01*
X142750615Y-67546705D01*
X142801745Y-67410316D01*
X142808500Y-67348134D01*
X142808500Y-65651866D01*
X142801745Y-65589684D01*
X142750615Y-65453295D01*
X142663261Y-65336739D01*
X142546705Y-65249385D01*
X142410316Y-65198255D01*
X142348134Y-65191500D01*
X140651866Y-65191500D01*
X140589684Y-65198255D01*
X140453295Y-65249385D01*
X140336739Y-65336739D01*
X140249385Y-65453295D01*
X140198255Y-65589684D01*
X140191500Y-65651866D01*
X140191500Y-67348134D01*
X140198255Y-67410316D01*
X140249385Y-67546705D01*
X140336739Y-67663261D01*
X140453295Y-67750615D01*
X140589684Y-67801745D01*
X140600474Y-67802917D01*
X140602606Y-67803803D01*
X140605222Y-67804425D01*
X140605121Y-67804848D01*
X140666035Y-67830155D01*
X140706463Y-67888517D01*
X140708922Y-67959471D01*
X140672629Y-68020490D01*
X140663969Y-68027489D01*
X140660207Y-68030646D01*
X140655700Y-68033802D01*
X140493802Y-68195700D01*
X140490645Y-68200208D01*
X140490643Y-68200211D01*
X140436841Y-68277048D01*
X140362477Y-68383251D01*
X140360154Y-68388233D01*
X140360151Y-68388238D01*
X140286121Y-68546998D01*
X140265716Y-68590757D01*
X140206457Y-68811913D01*
X140186502Y-69040000D01*
X140206457Y-69268087D01*
X140207881Y-69273400D01*
X140207881Y-69273402D01*
X140238652Y-69388238D01*
X140265716Y-69489243D01*
X140268039Y-69494224D01*
X140268039Y-69494225D01*
X140360151Y-69691762D01*
X140360154Y-69691767D01*
X140362477Y-69696749D01*
X140493802Y-69884300D01*
X140655700Y-70046198D01*
X140660208Y-70049355D01*
X140660211Y-70049357D01*
X140728677Y-70097297D01*
X140843251Y-70177523D01*
X140848233Y-70179846D01*
X140848238Y-70179849D01*
X140882457Y-70195805D01*
X140935742Y-70242722D01*
X140955203Y-70310999D01*
X140934661Y-70378959D01*
X140882457Y-70424195D01*
X140848238Y-70440151D01*
X140848233Y-70440154D01*
X140843251Y-70442477D01*
X140779180Y-70487340D01*
X140660211Y-70570643D01*
X140660208Y-70570645D01*
X140655700Y-70573802D01*
X140493802Y-70735700D01*
X140362477Y-70923251D01*
X140360154Y-70928233D01*
X140360151Y-70928238D01*
X140268039Y-71125775D01*
X140265716Y-71130757D01*
X140264294Y-71136065D01*
X140264293Y-71136067D01*
X140222931Y-71290432D01*
X140206457Y-71351913D01*
X140186502Y-71580000D01*
X109728000Y-71580000D01*
X109728000Y-61863178D01*
X119186463Y-61863178D01*
X119204163Y-62043698D01*
X119261418Y-62215811D01*
X119265065Y-62221833D01*
X119265066Y-62221835D01*
X119313430Y-62301693D01*
X119355380Y-62370962D01*
X119360269Y-62376025D01*
X119360270Y-62376026D01*
X119392134Y-62409022D01*
X119481382Y-62501440D01*
X119633159Y-62600760D01*
X119639763Y-62603216D01*
X119639765Y-62603217D01*
X119796558Y-62661528D01*
X119796560Y-62661528D01*
X119803168Y-62663986D01*
X119810153Y-62664918D01*
X119810157Y-62664919D01*
X119851275Y-62670405D01*
X119889748Y-62675538D01*
X119954624Y-62704373D01*
X119993612Y-62763707D01*
X119994333Y-62834700D01*
X119991484Y-62843525D01*
X119964594Y-62917405D01*
X119959197Y-62932234D01*
X119936463Y-63112189D01*
X119954163Y-63292709D01*
X120011418Y-63464822D01*
X120015065Y-63470844D01*
X120015066Y-63470846D01*
X120025978Y-63488863D01*
X120105380Y-63619973D01*
X120231382Y-63750451D01*
X120383159Y-63849771D01*
X120389763Y-63852227D01*
X120389765Y-63852228D01*
X120546558Y-63910539D01*
X120546560Y-63910539D01*
X120553168Y-63912997D01*
X120636995Y-63924182D01*
X120725980Y-63936056D01*
X120725984Y-63936056D01*
X120732961Y-63936987D01*
X120739972Y-63936349D01*
X120739976Y-63936349D01*
X120882459Y-63923381D01*
X120913600Y-63920547D01*
X120920302Y-63918369D01*
X120920304Y-63918369D01*
X121079409Y-63866673D01*
X121079412Y-63866672D01*
X121086108Y-63864496D01*
X121241912Y-63771618D01*
X121373266Y-63646531D01*
X121473643Y-63495451D01*
X121538055Y-63325887D01*
X121547639Y-63257695D01*
X121576927Y-63193021D01*
X121583318Y-63186136D01*
X121649529Y-63119925D01*
X121711841Y-63085899D01*
X121738624Y-63083020D01*
X181105500Y-63083020D01*
X181173621Y-63103022D01*
X181220114Y-63156678D01*
X181231500Y-63209020D01*
X181231500Y-71341692D01*
X181211498Y-71409813D01*
X181163683Y-71453453D01*
X181138607Y-71466507D01*
X181134474Y-71469610D01*
X181134471Y-71469612D01*
X181110247Y-71487800D01*
X180959965Y-71600635D01*
X180805629Y-71762138D01*
X180698201Y-71919621D01*
X180643293Y-71964621D01*
X180572768Y-71972792D01*
X180509021Y-71941538D01*
X180488324Y-71917054D01*
X180407822Y-71792617D01*
X180407820Y-71792614D01*
X180405014Y-71788277D01*
X180254670Y-71623051D01*
X180250619Y-71619852D01*
X180250615Y-71619848D01*
X180083414Y-71487800D01*
X180083410Y-71487798D01*
X180079359Y-71484598D01*
X180074835Y-71482101D01*
X180074831Y-71482098D01*
X180023608Y-71453822D01*
X179973636Y-71403390D01*
X179958500Y-71343513D01*
X179958500Y-65930132D01*
X179971983Y-65874400D01*
X179973643Y-65871902D01*
X179976218Y-65865125D01*
X180035555Y-65708920D01*
X180035556Y-65708918D01*
X180038055Y-65702338D01*
X180039035Y-65695366D01*
X180062748Y-65526639D01*
X180062748Y-65526636D01*
X180063299Y-65522717D01*
X180063616Y-65500000D01*
X180043397Y-65319745D01*
X180039983Y-65309940D01*
X179986064Y-65155106D01*
X179986062Y-65155103D01*
X179983745Y-65148448D01*
X179887626Y-64994624D01*
X179873941Y-64980843D01*
X179764778Y-64870915D01*
X179764774Y-64870912D01*
X179759815Y-64865918D01*
X179748697Y-64858862D01*
X179700538Y-64828300D01*
X179606666Y-64768727D01*
X179538977Y-64744624D01*
X179442425Y-64710243D01*
X179442420Y-64710242D01*
X179435790Y-64707881D01*
X179428802Y-64707048D01*
X179428799Y-64707047D01*
X179305698Y-64692368D01*
X179255680Y-64686404D01*
X179248677Y-64687140D01*
X179248676Y-64687140D01*
X179082288Y-64704628D01*
X179082286Y-64704629D01*
X179075288Y-64705364D01*
X178903579Y-64763818D01*
X178897575Y-64767512D01*
X178755095Y-64855166D01*
X178755092Y-64855168D01*
X178749088Y-64858862D01*
X178744053Y-64863793D01*
X178744050Y-64863795D01*
X178712327Y-64894861D01*
X178619493Y-64985771D01*
X178521235Y-65138238D01*
X178518826Y-65144858D01*
X178518824Y-65144861D01*
X178461606Y-65302066D01*
X178459197Y-65308685D01*
X178436463Y-65488640D01*
X178454163Y-65669160D01*
X178511418Y-65841273D01*
X178515065Y-65847295D01*
X178515066Y-65847297D01*
X178601730Y-65990398D01*
X178601733Y-65990401D01*
X178605380Y-65996424D01*
X178656138Y-66048985D01*
X178689069Y-66111879D01*
X178691500Y-66136510D01*
X178691500Y-71341692D01*
X178671498Y-71409813D01*
X178623683Y-71453453D01*
X178598607Y-71466507D01*
X178594474Y-71469610D01*
X178594471Y-71469612D01*
X178570247Y-71487800D01*
X178419965Y-71600635D01*
X178265629Y-71762138D01*
X178158201Y-71919621D01*
X178103293Y-71964621D01*
X178032768Y-71972792D01*
X177969021Y-71941538D01*
X177948324Y-71917054D01*
X177867822Y-71792617D01*
X177867820Y-71792614D01*
X177865014Y-71788277D01*
X177714670Y-71623051D01*
X177710619Y-71619852D01*
X177710615Y-71619848D01*
X177543414Y-71487800D01*
X177543410Y-71487798D01*
X177539359Y-71484598D01*
X177534835Y-71482101D01*
X177534831Y-71482098D01*
X177483608Y-71453822D01*
X177433636Y-71403390D01*
X177418500Y-71343513D01*
X177418500Y-66013409D01*
X177438502Y-65945288D01*
X177479983Y-65905180D01*
X177485860Y-65901677D01*
X177485862Y-65901676D01*
X177491912Y-65898069D01*
X177623266Y-65772982D01*
X177723643Y-65621902D01*
X177788055Y-65452338D01*
X177790195Y-65437114D01*
X177812748Y-65276639D01*
X177812748Y-65276636D01*
X177813299Y-65272717D01*
X177813488Y-65259166D01*
X177813561Y-65253962D01*
X177813561Y-65253957D01*
X177813616Y-65250000D01*
X177793397Y-65069745D01*
X177791080Y-65063091D01*
X177736064Y-64905106D01*
X177736062Y-64905103D01*
X177733745Y-64898448D01*
X177706700Y-64855166D01*
X177641359Y-64750598D01*
X177637626Y-64744624D01*
X177601139Y-64707881D01*
X177514778Y-64620915D01*
X177514774Y-64620912D01*
X177509815Y-64615918D01*
X177498697Y-64608862D01*
X177450538Y-64578300D01*
X177356666Y-64518727D01*
X177327463Y-64508328D01*
X177192425Y-64460243D01*
X177192420Y-64460242D01*
X177185790Y-64457881D01*
X177178802Y-64457048D01*
X177178799Y-64457047D01*
X177055698Y-64442368D01*
X177005680Y-64436404D01*
X176998677Y-64437140D01*
X176998676Y-64437140D01*
X176832288Y-64454628D01*
X176832286Y-64454629D01*
X176825288Y-64455364D01*
X176653579Y-64513818D01*
X176647575Y-64517512D01*
X176505095Y-64605166D01*
X176505092Y-64605168D01*
X176499088Y-64608862D01*
X176494053Y-64613793D01*
X176494050Y-64613795D01*
X176397973Y-64707881D01*
X176369493Y-64735771D01*
X176271235Y-64888238D01*
X176268826Y-64894858D01*
X176268824Y-64894861D01*
X176234332Y-64989627D01*
X176209197Y-65058685D01*
X176186463Y-65238640D01*
X176184851Y-65238436D01*
X176177070Y-65274720D01*
X176171819Y-65286855D01*
X176170580Y-65294678D01*
X176170577Y-65294688D01*
X176164901Y-65330524D01*
X176162495Y-65342144D01*
X176158019Y-65359580D01*
X176151500Y-65384970D01*
X176151500Y-65405224D01*
X176149949Y-65424934D01*
X176146780Y-65444943D01*
X176147526Y-65452835D01*
X176147947Y-65457289D01*
X176150250Y-65481646D01*
X176150941Y-65488961D01*
X176151500Y-65500819D01*
X176151500Y-71341692D01*
X176131498Y-71409813D01*
X176083683Y-71453453D01*
X176058607Y-71466507D01*
X176054474Y-71469610D01*
X176054471Y-71469612D01*
X176030247Y-71487800D01*
X175879965Y-71600635D01*
X175725629Y-71762138D01*
X175618201Y-71919621D01*
X175563293Y-71964621D01*
X175492768Y-71972792D01*
X175429021Y-71941538D01*
X175408324Y-71917054D01*
X175327822Y-71792617D01*
X175327820Y-71792614D01*
X175325014Y-71788277D01*
X175174670Y-71623051D01*
X175170619Y-71619852D01*
X175170615Y-71619848D01*
X175003414Y-71487800D01*
X175003410Y-71487798D01*
X174999359Y-71484598D01*
X174994835Y-71482101D01*
X174994831Y-71482098D01*
X174943608Y-71453822D01*
X174893636Y-71403390D01*
X174878500Y-71343513D01*
X174878500Y-65803145D01*
X174899552Y-65733418D01*
X174973643Y-65621902D01*
X175038055Y-65452338D01*
X175040195Y-65437114D01*
X175062748Y-65276639D01*
X175062748Y-65276636D01*
X175063299Y-65272717D01*
X175063488Y-65259166D01*
X175063561Y-65253962D01*
X175063561Y-65253957D01*
X175063616Y-65250000D01*
X175043397Y-65069745D01*
X175041080Y-65063091D01*
X174986064Y-64905106D01*
X174986062Y-64905103D01*
X174983745Y-64898448D01*
X174956700Y-64855166D01*
X174891359Y-64750598D01*
X174887626Y-64744624D01*
X174851139Y-64707881D01*
X174764778Y-64620915D01*
X174764774Y-64620912D01*
X174759815Y-64615918D01*
X174748697Y-64608862D01*
X174700538Y-64578300D01*
X174606666Y-64518727D01*
X174577463Y-64508328D01*
X174442425Y-64460243D01*
X174442420Y-64460242D01*
X174435790Y-64457881D01*
X174428802Y-64457048D01*
X174428799Y-64457047D01*
X174305698Y-64442368D01*
X174255680Y-64436404D01*
X174248677Y-64437140D01*
X174248676Y-64437140D01*
X174082288Y-64454628D01*
X174082286Y-64454629D01*
X174075288Y-64455364D01*
X173903579Y-64513818D01*
X173897575Y-64517512D01*
X173755095Y-64605166D01*
X173755092Y-64605168D01*
X173749088Y-64608862D01*
X173744053Y-64613793D01*
X173744050Y-64613795D01*
X173647973Y-64707881D01*
X173619493Y-64735771D01*
X173521235Y-64888238D01*
X173518826Y-64894858D01*
X173518824Y-64894861D01*
X173484332Y-64989627D01*
X173459197Y-65058685D01*
X173436463Y-65238640D01*
X173454163Y-65419160D01*
X173511418Y-65591273D01*
X173515065Y-65597295D01*
X173515066Y-65597297D01*
X173593276Y-65726438D01*
X173611500Y-65791709D01*
X173611500Y-71341692D01*
X173591498Y-71409813D01*
X173543683Y-71453453D01*
X173518607Y-71466507D01*
X173514474Y-71469610D01*
X173514471Y-71469612D01*
X173490247Y-71487800D01*
X173339965Y-71600635D01*
X173185629Y-71762138D01*
X173078201Y-71919621D01*
X173023293Y-71964621D01*
X172952768Y-71972792D01*
X172889021Y-71941538D01*
X172868324Y-71917054D01*
X172787822Y-71792617D01*
X172787820Y-71792614D01*
X172785014Y-71788277D01*
X172634670Y-71623051D01*
X172630619Y-71619852D01*
X172630615Y-71619848D01*
X172463414Y-71487800D01*
X172463410Y-71487798D01*
X172459359Y-71484598D01*
X172454835Y-71482101D01*
X172454831Y-71482098D01*
X172403608Y-71453822D01*
X172353636Y-71403390D01*
X172338500Y-71343513D01*
X172338500Y-66061099D01*
X172358502Y-65992978D01*
X172399981Y-65952871D01*
X172491912Y-65898069D01*
X172623266Y-65772982D01*
X172723643Y-65621902D01*
X172788055Y-65452338D01*
X172790195Y-65437114D01*
X172812748Y-65276639D01*
X172812748Y-65276636D01*
X172813299Y-65272717D01*
X172813488Y-65259166D01*
X172813561Y-65253962D01*
X172813561Y-65253957D01*
X172813616Y-65250000D01*
X172793397Y-65069745D01*
X172791080Y-65063091D01*
X172736064Y-64905106D01*
X172736062Y-64905103D01*
X172733745Y-64898448D01*
X172706700Y-64855166D01*
X172641359Y-64750598D01*
X172637626Y-64744624D01*
X172601139Y-64707881D01*
X172514778Y-64620915D01*
X172514774Y-64620912D01*
X172509815Y-64615918D01*
X172498697Y-64608862D01*
X172450538Y-64578300D01*
X172356666Y-64518727D01*
X172327463Y-64508328D01*
X172192425Y-64460243D01*
X172192420Y-64460242D01*
X172185790Y-64457881D01*
X172178802Y-64457048D01*
X172178799Y-64457047D01*
X172055698Y-64442368D01*
X172005680Y-64436404D01*
X171998677Y-64437140D01*
X171998676Y-64437140D01*
X171832288Y-64454628D01*
X171832286Y-64454629D01*
X171825288Y-64455364D01*
X171653579Y-64513818D01*
X171647575Y-64517512D01*
X171505095Y-64605166D01*
X171505092Y-64605168D01*
X171499088Y-64608862D01*
X171494053Y-64613793D01*
X171494050Y-64613795D01*
X171397973Y-64707881D01*
X171369493Y-64735771D01*
X171271235Y-64888238D01*
X171268826Y-64894858D01*
X171268824Y-64894861D01*
X171234332Y-64989627D01*
X171209197Y-65058685D01*
X171208314Y-65065675D01*
X171200205Y-65129863D01*
X171185611Y-65174776D01*
X171178651Y-65187435D01*
X171167801Y-65203953D01*
X171155386Y-65219959D01*
X171152241Y-65227228D01*
X171152238Y-65227232D01*
X171137826Y-65260537D01*
X171132609Y-65271187D01*
X171111305Y-65309940D01*
X171109334Y-65317615D01*
X171109334Y-65317616D01*
X171106267Y-65329562D01*
X171099863Y-65348266D01*
X171091819Y-65366855D01*
X171090580Y-65374678D01*
X171090577Y-65374688D01*
X171084901Y-65410524D01*
X171082495Y-65422144D01*
X171073472Y-65457289D01*
X171071500Y-65464970D01*
X171071500Y-65485224D01*
X171069949Y-65504934D01*
X171066780Y-65524943D01*
X171067526Y-65532835D01*
X171070941Y-65568961D01*
X171071500Y-65580819D01*
X171071500Y-71341692D01*
X171051498Y-71409813D01*
X171003683Y-71453453D01*
X170978607Y-71466507D01*
X170974474Y-71469610D01*
X170974471Y-71469612D01*
X170950247Y-71487800D01*
X170799965Y-71600635D01*
X170645629Y-71762138D01*
X170538204Y-71919618D01*
X170537898Y-71920066D01*
X170482987Y-71965069D01*
X170412462Y-71973240D01*
X170348715Y-71941986D01*
X170328018Y-71917502D01*
X170247426Y-71792926D01*
X170241136Y-71784757D01*
X170097806Y-71627240D01*
X170090273Y-71620215D01*
X169923139Y-71488222D01*
X169914552Y-71482517D01*
X169728117Y-71379599D01*
X169718705Y-71375369D01*
X169517959Y-71304280D01*
X169507988Y-71301646D01*
X169436837Y-71288972D01*
X169423540Y-71290432D01*
X169419000Y-71304989D01*
X169419000Y-73938517D01*
X169423064Y-73952359D01*
X169436478Y-73954393D01*
X169443184Y-73953534D01*
X169453262Y-73951392D01*
X169657255Y-73890191D01*
X169666842Y-73886433D01*
X169858095Y-73792739D01*
X169866945Y-73787464D01*
X170040328Y-73663792D01*
X170048200Y-73657139D01*
X170199052Y-73506812D01*
X170205730Y-73498965D01*
X170333022Y-73321819D01*
X170334279Y-73322722D01*
X170381373Y-73279362D01*
X170451311Y-73267145D01*
X170516751Y-73294678D01*
X170544579Y-73326511D01*
X170604987Y-73425088D01*
X170751250Y-73593938D01*
X170923126Y-73736632D01*
X171116000Y-73849338D01*
X171120825Y-73851180D01*
X171120826Y-73851181D01*
X171149229Y-73862027D01*
X171324692Y-73929030D01*
X171329760Y-73930061D01*
X171329763Y-73930062D01*
X171424862Y-73949410D01*
X171543597Y-73973567D01*
X171548772Y-73973757D01*
X171548774Y-73973757D01*
X171761673Y-73981564D01*
X171761677Y-73981564D01*
X171766837Y-73981753D01*
X171771957Y-73981097D01*
X171771959Y-73981097D01*
X171983288Y-73954025D01*
X171983289Y-73954025D01*
X171988416Y-73953368D01*
X171993366Y-73951883D01*
X172197429Y-73890661D01*
X172197434Y-73890659D01*
X172202384Y-73889174D01*
X172402994Y-73790896D01*
X172584860Y-73661173D01*
X172743096Y-73503489D01*
X172775070Y-73458993D01*
X172873453Y-73322077D01*
X172874776Y-73323028D01*
X172921645Y-73279857D01*
X172991580Y-73267625D01*
X173057026Y-73295144D01*
X173084875Y-73326994D01*
X173144987Y-73425088D01*
X173291250Y-73593938D01*
X173463126Y-73736632D01*
X173656000Y-73849338D01*
X173660825Y-73851180D01*
X173660826Y-73851181D01*
X173689229Y-73862027D01*
X173864692Y-73929030D01*
X173869760Y-73930061D01*
X173869763Y-73930062D01*
X173964862Y-73949410D01*
X174083597Y-73973567D01*
X174088772Y-73973757D01*
X174088774Y-73973757D01*
X174301673Y-73981564D01*
X174301677Y-73981564D01*
X174306837Y-73981753D01*
X174311957Y-73981097D01*
X174311959Y-73981097D01*
X174523288Y-73954025D01*
X174523289Y-73954025D01*
X174528416Y-73953368D01*
X174533366Y-73951883D01*
X174737429Y-73890661D01*
X174737434Y-73890659D01*
X174742384Y-73889174D01*
X174942994Y-73790896D01*
X175124860Y-73661173D01*
X175283096Y-73503489D01*
X175315070Y-73458993D01*
X175413453Y-73322077D01*
X175414776Y-73323028D01*
X175461645Y-73279857D01*
X175531580Y-73267625D01*
X175597026Y-73295144D01*
X175624875Y-73326994D01*
X175684987Y-73425088D01*
X175831250Y-73593938D01*
X176003126Y-73736632D01*
X176196000Y-73849338D01*
X176200825Y-73851180D01*
X176200826Y-73851181D01*
X176229229Y-73862027D01*
X176404692Y-73929030D01*
X176409760Y-73930061D01*
X176409763Y-73930062D01*
X176504862Y-73949410D01*
X176623597Y-73973567D01*
X176628772Y-73973757D01*
X176628774Y-73973757D01*
X176841673Y-73981564D01*
X176841677Y-73981564D01*
X176846837Y-73981753D01*
X176851957Y-73981097D01*
X176851959Y-73981097D01*
X177063288Y-73954025D01*
X177063289Y-73954025D01*
X177068416Y-73953368D01*
X177073366Y-73951883D01*
X177277429Y-73890661D01*
X177277434Y-73890659D01*
X177282384Y-73889174D01*
X177482994Y-73790896D01*
X177664860Y-73661173D01*
X177823096Y-73503489D01*
X177855070Y-73458993D01*
X177953453Y-73322077D01*
X177954776Y-73323028D01*
X178001645Y-73279857D01*
X178071580Y-73267625D01*
X178137026Y-73295144D01*
X178164875Y-73326994D01*
X178224987Y-73425088D01*
X178371250Y-73593938D01*
X178543126Y-73736632D01*
X178736000Y-73849338D01*
X178740825Y-73851180D01*
X178740826Y-73851181D01*
X178769229Y-73862027D01*
X178944692Y-73929030D01*
X178949760Y-73930061D01*
X178949763Y-73930062D01*
X179044862Y-73949410D01*
X179163597Y-73973567D01*
X179168772Y-73973757D01*
X179168774Y-73973757D01*
X179381673Y-73981564D01*
X179381677Y-73981564D01*
X179386837Y-73981753D01*
X179391957Y-73981097D01*
X179391959Y-73981097D01*
X179603288Y-73954025D01*
X179603289Y-73954025D01*
X179608416Y-73953368D01*
X179613366Y-73951883D01*
X179817429Y-73890661D01*
X179817434Y-73890659D01*
X179822384Y-73889174D01*
X180022994Y-73790896D01*
X180204860Y-73661173D01*
X180363096Y-73503489D01*
X180395070Y-73458993D01*
X180493453Y-73322077D01*
X180494776Y-73323028D01*
X180541645Y-73279857D01*
X180611580Y-73267625D01*
X180677026Y-73295144D01*
X180704875Y-73326994D01*
X180764987Y-73425088D01*
X180911250Y-73593938D01*
X181083126Y-73736632D01*
X181276000Y-73849338D01*
X181280825Y-73851180D01*
X181280826Y-73851181D01*
X181309229Y-73862027D01*
X181484692Y-73929030D01*
X181489760Y-73930061D01*
X181489763Y-73930062D01*
X181584862Y-73949410D01*
X181703597Y-73973567D01*
X181708772Y-73973757D01*
X181708774Y-73973757D01*
X181921673Y-73981564D01*
X181921677Y-73981564D01*
X181926837Y-73981753D01*
X181931957Y-73981097D01*
X181931959Y-73981097D01*
X182143288Y-73954025D01*
X182143289Y-73954025D01*
X182148416Y-73953368D01*
X182153366Y-73951883D01*
X182357429Y-73890661D01*
X182357434Y-73890659D01*
X182362384Y-73889174D01*
X182562994Y-73790896D01*
X182744860Y-73661173D01*
X182903096Y-73503489D01*
X182935070Y-73458993D01*
X183033453Y-73322077D01*
X183034776Y-73323028D01*
X183081645Y-73279857D01*
X183151580Y-73267625D01*
X183217026Y-73295144D01*
X183244875Y-73326994D01*
X183304987Y-73425088D01*
X183451250Y-73593938D01*
X183623126Y-73736632D01*
X183816000Y-73849338D01*
X183820825Y-73851180D01*
X183820826Y-73851181D01*
X183849229Y-73862027D01*
X184024692Y-73929030D01*
X184029760Y-73930061D01*
X184029763Y-73930062D01*
X184124862Y-73949410D01*
X184243597Y-73973567D01*
X184248772Y-73973757D01*
X184248774Y-73973757D01*
X184461673Y-73981564D01*
X184461677Y-73981564D01*
X184466837Y-73981753D01*
X184471957Y-73981097D01*
X184471959Y-73981097D01*
X184683288Y-73954025D01*
X184683289Y-73954025D01*
X184688416Y-73953368D01*
X184693366Y-73951883D01*
X184897429Y-73890661D01*
X184897434Y-73890659D01*
X184902384Y-73889174D01*
X185102994Y-73790896D01*
X185284860Y-73661173D01*
X185443096Y-73503489D01*
X185475070Y-73458993D01*
X185573453Y-73322077D01*
X185574776Y-73323028D01*
X185621645Y-73279857D01*
X185691580Y-73267625D01*
X185757026Y-73295144D01*
X185784875Y-73326994D01*
X185844987Y-73425088D01*
X185991250Y-73593938D01*
X186163126Y-73736632D01*
X186356000Y-73849338D01*
X186360825Y-73851180D01*
X186360826Y-73851181D01*
X186389229Y-73862027D01*
X186564692Y-73929030D01*
X186569760Y-73930061D01*
X186569763Y-73930062D01*
X186664862Y-73949410D01*
X186783597Y-73973567D01*
X186788772Y-73973757D01*
X186788774Y-73973757D01*
X187001673Y-73981564D01*
X187001677Y-73981564D01*
X187006837Y-73981753D01*
X187011957Y-73981097D01*
X187011959Y-73981097D01*
X187223288Y-73954025D01*
X187223289Y-73954025D01*
X187228416Y-73953368D01*
X187233366Y-73951883D01*
X187437429Y-73890661D01*
X187437434Y-73890659D01*
X187442384Y-73889174D01*
X187642994Y-73790896D01*
X187824860Y-73661173D01*
X187983096Y-73503489D01*
X188015070Y-73458993D01*
X188113453Y-73322077D01*
X188114776Y-73323028D01*
X188161645Y-73279857D01*
X188231580Y-73267625D01*
X188297026Y-73295144D01*
X188324875Y-73326994D01*
X188384987Y-73425088D01*
X188531250Y-73593938D01*
X188703126Y-73736632D01*
X188896000Y-73849338D01*
X188900825Y-73851180D01*
X188900826Y-73851181D01*
X188929229Y-73862027D01*
X189104692Y-73929030D01*
X189109760Y-73930061D01*
X189109763Y-73930062D01*
X189204862Y-73949410D01*
X189323597Y-73973567D01*
X189328772Y-73973757D01*
X189328774Y-73973757D01*
X189541673Y-73981564D01*
X189541677Y-73981564D01*
X189546837Y-73981753D01*
X189551957Y-73981097D01*
X189551959Y-73981097D01*
X189763288Y-73954025D01*
X189763289Y-73954025D01*
X189768416Y-73953368D01*
X189773366Y-73951883D01*
X189977429Y-73890661D01*
X189977434Y-73890659D01*
X189982384Y-73889174D01*
X190182994Y-73790896D01*
X190364860Y-73661173D01*
X190523096Y-73503489D01*
X190555070Y-73458993D01*
X190653453Y-73322077D01*
X190654776Y-73323028D01*
X190701645Y-73279857D01*
X190771580Y-73267625D01*
X190837026Y-73295144D01*
X190864875Y-73326994D01*
X190924987Y-73425088D01*
X191071250Y-73593938D01*
X191243126Y-73736632D01*
X191436000Y-73849338D01*
X191440825Y-73851180D01*
X191440826Y-73851181D01*
X191469229Y-73862027D01*
X191644692Y-73929030D01*
X191649760Y-73930061D01*
X191649763Y-73930062D01*
X191744862Y-73949410D01*
X191863597Y-73973567D01*
X191868772Y-73973757D01*
X191868774Y-73973757D01*
X192081673Y-73981564D01*
X192081677Y-73981564D01*
X192086837Y-73981753D01*
X192091957Y-73981097D01*
X192091959Y-73981097D01*
X192303288Y-73954025D01*
X192303289Y-73954025D01*
X192308416Y-73953368D01*
X192313366Y-73951883D01*
X192517429Y-73890661D01*
X192517434Y-73890659D01*
X192522384Y-73889174D01*
X192722994Y-73790896D01*
X192904860Y-73661173D01*
X193063096Y-73503489D01*
X193095070Y-73458993D01*
X193193453Y-73322077D01*
X193194776Y-73323028D01*
X193241645Y-73279857D01*
X193311580Y-73267625D01*
X193377026Y-73295144D01*
X193404875Y-73326994D01*
X193464987Y-73425088D01*
X193611250Y-73593938D01*
X193783126Y-73736632D01*
X193976000Y-73849338D01*
X193980825Y-73851180D01*
X193980826Y-73851181D01*
X194009229Y-73862027D01*
X194184692Y-73929030D01*
X194189760Y-73930061D01*
X194189763Y-73930062D01*
X194284862Y-73949410D01*
X194403597Y-73973567D01*
X194408772Y-73973757D01*
X194408774Y-73973757D01*
X194621673Y-73981564D01*
X194621677Y-73981564D01*
X194626837Y-73981753D01*
X194631957Y-73981097D01*
X194631959Y-73981097D01*
X194843288Y-73954025D01*
X194843289Y-73954025D01*
X194848416Y-73953368D01*
X194853366Y-73951883D01*
X195057429Y-73890661D01*
X195057434Y-73890659D01*
X195062384Y-73889174D01*
X195262994Y-73790896D01*
X195444860Y-73661173D01*
X195603096Y-73503489D01*
X195635070Y-73458993D01*
X195733453Y-73322077D01*
X195734776Y-73323028D01*
X195781645Y-73279857D01*
X195851580Y-73267625D01*
X195917026Y-73295144D01*
X195944875Y-73326994D01*
X196004987Y-73425088D01*
X196151250Y-73593938D01*
X196323126Y-73736632D01*
X196516000Y-73849338D01*
X196520825Y-73851180D01*
X196520826Y-73851181D01*
X196549229Y-73862027D01*
X196724692Y-73929030D01*
X196729760Y-73930061D01*
X196729763Y-73930062D01*
X196824862Y-73949410D01*
X196943597Y-73973567D01*
X196948772Y-73973757D01*
X196948774Y-73973757D01*
X197161673Y-73981564D01*
X197161677Y-73981564D01*
X197166837Y-73981753D01*
X197171957Y-73981097D01*
X197171959Y-73981097D01*
X197383288Y-73954025D01*
X197383289Y-73954025D01*
X197388416Y-73953368D01*
X197393366Y-73951883D01*
X197597429Y-73890661D01*
X197597434Y-73890659D01*
X197602384Y-73889174D01*
X197802994Y-73790896D01*
X197984860Y-73661173D01*
X198143096Y-73503489D01*
X198175070Y-73458993D01*
X198270435Y-73326277D01*
X198273453Y-73322077D01*
X198286995Y-73294678D01*
X198370136Y-73126453D01*
X198370137Y-73126451D01*
X198372430Y-73121811D01*
X198420318Y-72964195D01*
X198435865Y-72913023D01*
X198435865Y-72913021D01*
X198437370Y-72908069D01*
X198466529Y-72686590D01*
X198468156Y-72620000D01*
X198449852Y-72397361D01*
X198395431Y-72180702D01*
X198306354Y-71975840D01*
X198197830Y-71808087D01*
X198187822Y-71792617D01*
X198187820Y-71792614D01*
X198185014Y-71788277D01*
X198034670Y-71623051D01*
X198030619Y-71619852D01*
X198030615Y-71619848D01*
X197863414Y-71487800D01*
X197863410Y-71487798D01*
X197859359Y-71484598D01*
X197854831Y-71482098D01*
X197738988Y-71418150D01*
X197663789Y-71376638D01*
X197658920Y-71374914D01*
X197658916Y-71374912D01*
X197458087Y-71303795D01*
X197458083Y-71303794D01*
X197453212Y-71302069D01*
X197448119Y-71301162D01*
X197448116Y-71301161D01*
X197238373Y-71263800D01*
X197238367Y-71263799D01*
X197233284Y-71262894D01*
X197159452Y-71261992D01*
X197015081Y-71260228D01*
X197015079Y-71260228D01*
X197009911Y-71260165D01*
X196789091Y-71293955D01*
X196576756Y-71363357D01*
X196499853Y-71403390D01*
X196402975Y-71453822D01*
X196378607Y-71466507D01*
X196374474Y-71469610D01*
X196374471Y-71469612D01*
X196350247Y-71487800D01*
X196199965Y-71600635D01*
X196045629Y-71762138D01*
X195938201Y-71919621D01*
X195883293Y-71964621D01*
X195812768Y-71972792D01*
X195749021Y-71941538D01*
X195728324Y-71917054D01*
X195647822Y-71792617D01*
X195647820Y-71792614D01*
X195645014Y-71788277D01*
X195494670Y-71623051D01*
X195490619Y-71619852D01*
X195490615Y-71619848D01*
X195323414Y-71487800D01*
X195323410Y-71487798D01*
X195319359Y-71484598D01*
X195314831Y-71482098D01*
X195198988Y-71418150D01*
X195123789Y-71376638D01*
X195118920Y-71374914D01*
X195118916Y-71374912D01*
X194918087Y-71303795D01*
X194918083Y-71303794D01*
X194913212Y-71302069D01*
X194908119Y-71301162D01*
X194908116Y-71301161D01*
X194698373Y-71263800D01*
X194698367Y-71263799D01*
X194693284Y-71262894D01*
X194619452Y-71261992D01*
X194475081Y-71260228D01*
X194475079Y-71260228D01*
X194469911Y-71260165D01*
X194249091Y-71293955D01*
X194036756Y-71363357D01*
X193959853Y-71403390D01*
X193862975Y-71453822D01*
X193838607Y-71466507D01*
X193834474Y-71469610D01*
X193834471Y-71469612D01*
X193810247Y-71487800D01*
X193659965Y-71600635D01*
X193505629Y-71762138D01*
X193398201Y-71919621D01*
X193343293Y-71964621D01*
X193272768Y-71972792D01*
X193209021Y-71941538D01*
X193188324Y-71917054D01*
X193107822Y-71792617D01*
X193107820Y-71792614D01*
X193105014Y-71788277D01*
X192954670Y-71623051D01*
X192950619Y-71619852D01*
X192950615Y-71619848D01*
X192783414Y-71487800D01*
X192783410Y-71487798D01*
X192779359Y-71484598D01*
X192774831Y-71482098D01*
X192658988Y-71418150D01*
X192583789Y-71376638D01*
X192578920Y-71374914D01*
X192578916Y-71374912D01*
X192378087Y-71303795D01*
X192378083Y-71303794D01*
X192373212Y-71302069D01*
X192368119Y-71301162D01*
X192368116Y-71301161D01*
X192158373Y-71263800D01*
X192158367Y-71263799D01*
X192153284Y-71262894D01*
X192079452Y-71261992D01*
X191935081Y-71260228D01*
X191935079Y-71260228D01*
X191929911Y-71260165D01*
X191709091Y-71293955D01*
X191496756Y-71363357D01*
X191419853Y-71403390D01*
X191322975Y-71453822D01*
X191298607Y-71466507D01*
X191294474Y-71469610D01*
X191294471Y-71469612D01*
X191270247Y-71487800D01*
X191119965Y-71600635D01*
X190965629Y-71762138D01*
X190858201Y-71919621D01*
X190803293Y-71964621D01*
X190732768Y-71972792D01*
X190669021Y-71941538D01*
X190648324Y-71917054D01*
X190567822Y-71792617D01*
X190567820Y-71792614D01*
X190565014Y-71788277D01*
X190414670Y-71623051D01*
X190410619Y-71619852D01*
X190410615Y-71619848D01*
X190243414Y-71487800D01*
X190243410Y-71487798D01*
X190239359Y-71484598D01*
X190234835Y-71482101D01*
X190234831Y-71482098D01*
X190183608Y-71453822D01*
X190133636Y-71403390D01*
X190118500Y-71343513D01*
X190118500Y-68536066D01*
X190138502Y-68467945D01*
X190192158Y-68421452D01*
X190262432Y-68411348D01*
X190313493Y-68430634D01*
X190383159Y-68476222D01*
X190389763Y-68478678D01*
X190389765Y-68478679D01*
X190546558Y-68536990D01*
X190546560Y-68536990D01*
X190553168Y-68539448D01*
X190636995Y-68550633D01*
X190725980Y-68562507D01*
X190725984Y-68562507D01*
X190732961Y-68563438D01*
X190739972Y-68562800D01*
X190739976Y-68562800D01*
X190882459Y-68549832D01*
X190913600Y-68546998D01*
X190920302Y-68544820D01*
X190920304Y-68544820D01*
X191079409Y-68493124D01*
X191079412Y-68493123D01*
X191086108Y-68490947D01*
X191202687Y-68421452D01*
X191236541Y-68401271D01*
X191301058Y-68383500D01*
X195171233Y-68383500D01*
X195182416Y-68384027D01*
X195189909Y-68385702D01*
X195197835Y-68385453D01*
X195197836Y-68385453D01*
X195257986Y-68383562D01*
X195261945Y-68383500D01*
X195289856Y-68383500D01*
X195293791Y-68383003D01*
X195293856Y-68382995D01*
X195305693Y-68382062D01*
X195337951Y-68381048D01*
X195341970Y-68380922D01*
X195349889Y-68380673D01*
X195369343Y-68375021D01*
X195388700Y-68371013D01*
X195400930Y-68369468D01*
X195400931Y-68369468D01*
X195408797Y-68368474D01*
X195416168Y-68365555D01*
X195416170Y-68365555D01*
X195449912Y-68352196D01*
X195461142Y-68348351D01*
X195495983Y-68338229D01*
X195495984Y-68338229D01*
X195503593Y-68336018D01*
X195510412Y-68331985D01*
X195510417Y-68331983D01*
X195521028Y-68325707D01*
X195538776Y-68317012D01*
X195557617Y-68309552D01*
X195593387Y-68283564D01*
X195603307Y-68277048D01*
X195634535Y-68258580D01*
X195634538Y-68258578D01*
X195641362Y-68254542D01*
X195655683Y-68240221D01*
X195670717Y-68227380D01*
X195680694Y-68220131D01*
X195687107Y-68215472D01*
X195715298Y-68181395D01*
X195723288Y-68172616D01*
X197497247Y-66398657D01*
X197505537Y-66391113D01*
X197512018Y-66387000D01*
X197558659Y-66337332D01*
X197561413Y-66334491D01*
X197581134Y-66314770D01*
X197583612Y-66311575D01*
X197591318Y-66302553D01*
X197616158Y-66276101D01*
X197621586Y-66270321D01*
X197631346Y-66252568D01*
X197642199Y-66236045D01*
X197649753Y-66226306D01*
X197654613Y-66220041D01*
X197672176Y-66179457D01*
X197677383Y-66168827D01*
X197698695Y-66130060D01*
X197700666Y-66122383D01*
X197700668Y-66122378D01*
X197703732Y-66110442D01*
X197710138Y-66091730D01*
X197715033Y-66080419D01*
X197718181Y-66073145D01*
X197719421Y-66065317D01*
X197719423Y-66065310D01*
X197725099Y-66029476D01*
X197727505Y-66017856D01*
X197736528Y-65982711D01*
X197736528Y-65982710D01*
X197738500Y-65975030D01*
X197738500Y-65954776D01*
X197740051Y-65935065D01*
X197741980Y-65922886D01*
X197743220Y-65915057D01*
X197739059Y-65871038D01*
X197738500Y-65859181D01*
X197738500Y-58660427D01*
X197758502Y-58592306D01*
X197799618Y-58552550D01*
X197802994Y-58550896D01*
X197984860Y-58421173D01*
X198143096Y-58263489D01*
X198202594Y-58180689D01*
X198270435Y-58086277D01*
X198273453Y-58082077D01*
X198286995Y-58054678D01*
X198370136Y-57886453D01*
X198370137Y-57886451D01*
X198372430Y-57881811D01*
X198437370Y-57668069D01*
X198466529Y-57446590D01*
X198468156Y-57380000D01*
X198449852Y-57157361D01*
X198395431Y-56940702D01*
X198306354Y-56735840D01*
X198185014Y-56548277D01*
X198034670Y-56383051D01*
X198030619Y-56379852D01*
X198030615Y-56379848D01*
X197863414Y-56247800D01*
X197863410Y-56247798D01*
X197859359Y-56244598D01*
X197854831Y-56242098D01*
X197738988Y-56178150D01*
X197663789Y-56136638D01*
X197658920Y-56134914D01*
X197658916Y-56134912D01*
X197458087Y-56063795D01*
X197458083Y-56063794D01*
X197453212Y-56062069D01*
X197448119Y-56061162D01*
X197448116Y-56061161D01*
X197238373Y-56023800D01*
X197238367Y-56023799D01*
X197233284Y-56022894D01*
X197159452Y-56021992D01*
X197015081Y-56020228D01*
X197015079Y-56020228D01*
X197009911Y-56020165D01*
X196789091Y-56053955D01*
X196576756Y-56123357D01*
X196499853Y-56163390D01*
X196402975Y-56213822D01*
X196378607Y-56226507D01*
X196374474Y-56229610D01*
X196374471Y-56229612D01*
X196204100Y-56357530D01*
X196199965Y-56360635D01*
X196045629Y-56522138D01*
X195938201Y-56679621D01*
X195883293Y-56724621D01*
X195812768Y-56732792D01*
X195749021Y-56701538D01*
X195728324Y-56677054D01*
X195647822Y-56552617D01*
X195647820Y-56552614D01*
X195645014Y-56548277D01*
X195494670Y-56383051D01*
X195490619Y-56379852D01*
X195490615Y-56379848D01*
X195323414Y-56247800D01*
X195323410Y-56247798D01*
X195319359Y-56244598D01*
X195314831Y-56242098D01*
X195198988Y-56178150D01*
X195123789Y-56136638D01*
X195118920Y-56134914D01*
X195118916Y-56134912D01*
X194918087Y-56063795D01*
X194918083Y-56063794D01*
X194913212Y-56062069D01*
X194908119Y-56061162D01*
X194908116Y-56061161D01*
X194698373Y-56023800D01*
X194698367Y-56023799D01*
X194693284Y-56022894D01*
X194619452Y-56021992D01*
X194475081Y-56020228D01*
X194475079Y-56020228D01*
X194469911Y-56020165D01*
X194249091Y-56053955D01*
X194036756Y-56123357D01*
X193959853Y-56163390D01*
X193862975Y-56213822D01*
X193838607Y-56226507D01*
X193834474Y-56229610D01*
X193834471Y-56229612D01*
X193664100Y-56357530D01*
X193659965Y-56360635D01*
X193505629Y-56522138D01*
X193398201Y-56679621D01*
X193343293Y-56724621D01*
X193272768Y-56732792D01*
X193209021Y-56701538D01*
X193188324Y-56677054D01*
X193107822Y-56552617D01*
X193107820Y-56552614D01*
X193105014Y-56548277D01*
X192954670Y-56383051D01*
X192950619Y-56379852D01*
X192950615Y-56379848D01*
X192783414Y-56247800D01*
X192783410Y-56247798D01*
X192779359Y-56244598D01*
X192774831Y-56242098D01*
X192658988Y-56178150D01*
X192583789Y-56136638D01*
X192578920Y-56134914D01*
X192578916Y-56134912D01*
X192378087Y-56063795D01*
X192378083Y-56063794D01*
X192373212Y-56062069D01*
X192368119Y-56061162D01*
X192368116Y-56061161D01*
X192158373Y-56023800D01*
X192158367Y-56023799D01*
X192153284Y-56022894D01*
X192079452Y-56021992D01*
X191935081Y-56020228D01*
X191935079Y-56020228D01*
X191929911Y-56020165D01*
X191709091Y-56053955D01*
X191496756Y-56123357D01*
X191419853Y-56163390D01*
X191322975Y-56213822D01*
X191298607Y-56226507D01*
X191294474Y-56229610D01*
X191294471Y-56229612D01*
X191124100Y-56357530D01*
X191119965Y-56360635D01*
X190965629Y-56522138D01*
X190858201Y-56679621D01*
X190803293Y-56724621D01*
X190732768Y-56732792D01*
X190669021Y-56701538D01*
X190648324Y-56677054D01*
X190567822Y-56552617D01*
X190567820Y-56552614D01*
X190565014Y-56548277D01*
X190414670Y-56383051D01*
X190410619Y-56379852D01*
X190410615Y-56379848D01*
X190243414Y-56247800D01*
X190243410Y-56247798D01*
X190239359Y-56244598D01*
X190234831Y-56242098D01*
X190118988Y-56178150D01*
X190043789Y-56136638D01*
X190038920Y-56134914D01*
X190038916Y-56134912D01*
X189838087Y-56063795D01*
X189838083Y-56063794D01*
X189833212Y-56062069D01*
X189828119Y-56061162D01*
X189828116Y-56061161D01*
X189618373Y-56023800D01*
X189618367Y-56023799D01*
X189613284Y-56022894D01*
X189539452Y-56021992D01*
X189395081Y-56020228D01*
X189395079Y-56020228D01*
X189389911Y-56020165D01*
X189169091Y-56053955D01*
X189156532Y-56058060D01*
X189085568Y-56060210D01*
X189028294Y-56027389D01*
X185159132Y-52158227D01*
X185151592Y-52149941D01*
X185147480Y-52143462D01*
X185097828Y-52096836D01*
X185094987Y-52094082D01*
X185075250Y-52074345D01*
X185072053Y-52071865D01*
X185063031Y-52064160D01*
X185061517Y-52062738D01*
X185030801Y-52033894D01*
X185023855Y-52030075D01*
X185023852Y-52030073D01*
X185013046Y-52024132D01*
X184996527Y-52013281D01*
X184989476Y-52007812D01*
X184980521Y-52000866D01*
X184973252Y-51997721D01*
X184973248Y-51997718D01*
X184939943Y-51983306D01*
X184929293Y-51978089D01*
X184890540Y-51956785D01*
X184870917Y-51951747D01*
X184852214Y-51945343D01*
X184840900Y-51940447D01*
X184840899Y-51940447D01*
X184833625Y-51937299D01*
X184825802Y-51936060D01*
X184825792Y-51936057D01*
X184789956Y-51930381D01*
X184778336Y-51927975D01*
X184743191Y-51918952D01*
X184743190Y-51918952D01*
X184735510Y-51916980D01*
X184715256Y-51916980D01*
X184695545Y-51915429D01*
X184683366Y-51913500D01*
X184675537Y-51912260D01*
X184667645Y-51913006D01*
X184631519Y-51916421D01*
X184619661Y-51916980D01*
X164211049Y-51916980D01*
X164142928Y-51896978D01*
X164096435Y-51843322D01*
X164086127Y-51774533D01*
X164111092Y-51584908D01*
X164111529Y-51581590D01*
X164113156Y-51515000D01*
X164094852Y-51292361D01*
X164040431Y-51075702D01*
X163951354Y-50870840D01*
X163830014Y-50683277D01*
X163826532Y-50679450D01*
X163682798Y-50521488D01*
X163651746Y-50457642D01*
X163660141Y-50387143D01*
X163705317Y-50332375D01*
X163731761Y-50318706D01*
X163838297Y-50278767D01*
X163846705Y-50275615D01*
X163963261Y-50188261D01*
X164050615Y-50071705D01*
X164101745Y-49935316D01*
X164108500Y-49873134D01*
X164108500Y-48076866D01*
X164101745Y-48014684D01*
X164050615Y-47878295D01*
X163963261Y-47761739D01*
X163846705Y-47674385D01*
X163710316Y-47623255D01*
X163648134Y-47616500D01*
X161851866Y-47616500D01*
X161789684Y-47623255D01*
X161653295Y-47674385D01*
X161536739Y-47761739D01*
X161449385Y-47878295D01*
X161398255Y-48014684D01*
X161391500Y-48076866D01*
X161391500Y-49873134D01*
X161398255Y-49935316D01*
X161449385Y-50071705D01*
X161536739Y-50188261D01*
X161653295Y-50275615D01*
X161661704Y-50278767D01*
X161661705Y-50278768D01*
X161770451Y-50319535D01*
X161827216Y-50362176D01*
X161851916Y-50428738D01*
X161836709Y-50498087D01*
X161817316Y-50524568D01*
X161690629Y-50657138D01*
X161564743Y-50841680D01*
X161470688Y-51044305D01*
X161410989Y-51259570D01*
X161387251Y-51481695D01*
X161387548Y-51486848D01*
X161387548Y-51486851D01*
X161392926Y-51580128D01*
X161400110Y-51704715D01*
X161401247Y-51709761D01*
X161401248Y-51709767D01*
X161413308Y-51763279D01*
X161408772Y-51834131D01*
X161366650Y-51891282D01*
X161300317Y-51916588D01*
X161290391Y-51916980D01*
X133234673Y-51916980D01*
X133166552Y-51896978D01*
X133138574Y-51871642D01*
X133137626Y-51870124D01*
X133123941Y-51856343D01*
X133014778Y-51746415D01*
X133014774Y-51746412D01*
X133009815Y-51741418D01*
X132998697Y-51734362D01*
X132943837Y-51699547D01*
X132856666Y-51644227D01*
X132827463Y-51633828D01*
X132692425Y-51585743D01*
X132692420Y-51585742D01*
X132685790Y-51583381D01*
X132678802Y-51582548D01*
X132678799Y-51582547D01*
X132555698Y-51567868D01*
X132505680Y-51561904D01*
X132498677Y-51562640D01*
X132498676Y-51562640D01*
X132332288Y-51580128D01*
X132332286Y-51580129D01*
X132325288Y-51580864D01*
X132153579Y-51639318D01*
X132147575Y-51643012D01*
X132005095Y-51730666D01*
X132005092Y-51730668D01*
X131999088Y-51734362D01*
X131994053Y-51739293D01*
X131994050Y-51739295D01*
X131897207Y-51834131D01*
X131869493Y-51861271D01*
X131771235Y-52013738D01*
X131768826Y-52020358D01*
X131768824Y-52020361D01*
X131722365Y-52148006D01*
X131709197Y-52184185D01*
X131700087Y-52256296D01*
X131671707Y-52321368D01*
X131612647Y-52360770D01*
X131575082Y-52366500D01*
X131186476Y-52366500D01*
X131118355Y-52346498D01*
X131097070Y-52329284D01*
X131014778Y-52246415D01*
X131014774Y-52246412D01*
X131009815Y-52241418D01*
X130998697Y-52234362D01*
X130909200Y-52177566D01*
X130856666Y-52144227D01*
X130827463Y-52133828D01*
X130692425Y-52085743D01*
X130692420Y-52085742D01*
X130685790Y-52083381D01*
X130678802Y-52082548D01*
X130678799Y-52082547D01*
X130555698Y-52067868D01*
X130505680Y-52061904D01*
X130498677Y-52062640D01*
X130498676Y-52062640D01*
X130332288Y-52080128D01*
X130332286Y-52080129D01*
X130325288Y-52080864D01*
X130153579Y-52139318D01*
X130145600Y-52144227D01*
X130005095Y-52230666D01*
X130005092Y-52230668D01*
X129999088Y-52234362D01*
X129994053Y-52239293D01*
X129994050Y-52239295D01*
X129874525Y-52356343D01*
X129869493Y-52361271D01*
X129771235Y-52513738D01*
X129709197Y-52684185D01*
X129700087Y-52756296D01*
X129671707Y-52821368D01*
X129612647Y-52860770D01*
X129575082Y-52866500D01*
X128797338Y-52866500D01*
X128729824Y-52846885D01*
X128689615Y-52821368D01*
X128606666Y-52768727D01*
X128571744Y-52756292D01*
X128442425Y-52710243D01*
X128442420Y-52710242D01*
X128435790Y-52707881D01*
X128428802Y-52707048D01*
X128428799Y-52707047D01*
X128295615Y-52691166D01*
X128255680Y-52686404D01*
X128248677Y-52687140D01*
X128248676Y-52687140D01*
X128082288Y-52704628D01*
X128082286Y-52704629D01*
X128075288Y-52705364D01*
X127903579Y-52763818D01*
X127897575Y-52767512D01*
X127755095Y-52855166D01*
X127755092Y-52855168D01*
X127749088Y-52858862D01*
X127744053Y-52863793D01*
X127744050Y-52863795D01*
X127741288Y-52866500D01*
X127619493Y-52985771D01*
X127521235Y-53138238D01*
X127518826Y-53144858D01*
X127518824Y-53144861D01*
X127472700Y-53271586D01*
X127459197Y-53308685D01*
X127436463Y-53488640D01*
X127436910Y-53493196D01*
X127416244Y-53560097D01*
X127361944Y-53605835D01*
X127311210Y-53616500D01*
X126547338Y-53616500D01*
X126479824Y-53596885D01*
X126409200Y-53552066D01*
X126356666Y-53518727D01*
X126327463Y-53508328D01*
X126192425Y-53460243D01*
X126192420Y-53460242D01*
X126185790Y-53457881D01*
X126178802Y-53457048D01*
X126178799Y-53457047D01*
X126055698Y-53442368D01*
X126005680Y-53436404D01*
X125998677Y-53437140D01*
X125998676Y-53437140D01*
X125832288Y-53454628D01*
X125832286Y-53454629D01*
X125825288Y-53455364D01*
X125653579Y-53513818D01*
X125647575Y-53517512D01*
X125505095Y-53605166D01*
X125505092Y-53605168D01*
X125499088Y-53608862D01*
X125494053Y-53613793D01*
X125494050Y-53613795D01*
X125491288Y-53616500D01*
X125369493Y-53735771D01*
X125271235Y-53888238D01*
X125268826Y-53894858D01*
X125268824Y-53894861D01*
X125211606Y-54052066D01*
X125209197Y-54058685D01*
X125186463Y-54238640D01*
X125204163Y-54419160D01*
X125261418Y-54591273D01*
X125355380Y-54746424D01*
X125481382Y-54876902D01*
X125633159Y-54976222D01*
X125639763Y-54978678D01*
X125639765Y-54978679D01*
X125796558Y-55036990D01*
X125796560Y-55036990D01*
X125803168Y-55039448D01*
X125886995Y-55050633D01*
X125975980Y-55062507D01*
X125975984Y-55062507D01*
X125982961Y-55063438D01*
X125989972Y-55062800D01*
X125989976Y-55062800D01*
X126132459Y-55049832D01*
X126163600Y-55046998D01*
X126170302Y-55044820D01*
X126170304Y-55044820D01*
X126329409Y-54993124D01*
X126329412Y-54993123D01*
X126336108Y-54990947D01*
X126486540Y-54901271D01*
X126551058Y-54883500D01*
X180685405Y-54883500D01*
X180753526Y-54903502D01*
X180774501Y-54920405D01*
X181194596Y-55340501D01*
X181228621Y-55402813D01*
X181231500Y-55429596D01*
X181231500Y-56101692D01*
X181211498Y-56169813D01*
X181163683Y-56213453D01*
X181138607Y-56226507D01*
X181134474Y-56229610D01*
X181134471Y-56229612D01*
X180964100Y-56357530D01*
X180959965Y-56360635D01*
X180805629Y-56522138D01*
X180698201Y-56679621D01*
X180643293Y-56724621D01*
X180572768Y-56732792D01*
X180509021Y-56701538D01*
X180488324Y-56677054D01*
X180407822Y-56552617D01*
X180407820Y-56552614D01*
X180405014Y-56548277D01*
X180254670Y-56383051D01*
X180250619Y-56379852D01*
X180250615Y-56379848D01*
X180083414Y-56247800D01*
X180083410Y-56247798D01*
X180079359Y-56244598D01*
X180074831Y-56242098D01*
X179958988Y-56178150D01*
X179883789Y-56136638D01*
X179878920Y-56134914D01*
X179878916Y-56134912D01*
X179678087Y-56063795D01*
X179678083Y-56063794D01*
X179673212Y-56062069D01*
X179668119Y-56061162D01*
X179668116Y-56061161D01*
X179458373Y-56023800D01*
X179458367Y-56023799D01*
X179453284Y-56022894D01*
X179379452Y-56021992D01*
X179235081Y-56020228D01*
X179235079Y-56020228D01*
X179229911Y-56020165D01*
X179009091Y-56053955D01*
X178796756Y-56123357D01*
X178719853Y-56163390D01*
X178622975Y-56213822D01*
X178598607Y-56226507D01*
X178594474Y-56229610D01*
X178594471Y-56229612D01*
X178424100Y-56357530D01*
X178419965Y-56360635D01*
X178265629Y-56522138D01*
X178158201Y-56679621D01*
X178103293Y-56724621D01*
X178032768Y-56732792D01*
X177969021Y-56701538D01*
X177948324Y-56677054D01*
X177867822Y-56552617D01*
X177867820Y-56552614D01*
X177865014Y-56548277D01*
X177714670Y-56383051D01*
X177710619Y-56379852D01*
X177710615Y-56379848D01*
X177543414Y-56247800D01*
X177543410Y-56247798D01*
X177539359Y-56244598D01*
X177534831Y-56242098D01*
X177418988Y-56178150D01*
X177343789Y-56136638D01*
X177338920Y-56134914D01*
X177338916Y-56134912D01*
X177138087Y-56063795D01*
X177138083Y-56063794D01*
X177133212Y-56062069D01*
X177128119Y-56061162D01*
X177128116Y-56061161D01*
X176918373Y-56023800D01*
X176918367Y-56023799D01*
X176913284Y-56022894D01*
X176839452Y-56021992D01*
X176695081Y-56020228D01*
X176695079Y-56020228D01*
X176689911Y-56020165D01*
X176469091Y-56053955D01*
X176256756Y-56123357D01*
X176179853Y-56163390D01*
X176082975Y-56213822D01*
X176058607Y-56226507D01*
X176054474Y-56229610D01*
X176054471Y-56229612D01*
X175884100Y-56357530D01*
X175879965Y-56360635D01*
X175725629Y-56522138D01*
X175618201Y-56679621D01*
X175563293Y-56724621D01*
X175492768Y-56732792D01*
X175429021Y-56701538D01*
X175408324Y-56677054D01*
X175327822Y-56552617D01*
X175327820Y-56552614D01*
X175325014Y-56548277D01*
X175174670Y-56383051D01*
X175170619Y-56379852D01*
X175170615Y-56379848D01*
X175003414Y-56247800D01*
X175003410Y-56247798D01*
X174999359Y-56244598D01*
X174994831Y-56242098D01*
X174878988Y-56178150D01*
X174803789Y-56136638D01*
X174798920Y-56134914D01*
X174798916Y-56134912D01*
X174598087Y-56063795D01*
X174598083Y-56063794D01*
X174593212Y-56062069D01*
X174588119Y-56061162D01*
X174588116Y-56061161D01*
X174378373Y-56023800D01*
X174378367Y-56023799D01*
X174373284Y-56022894D01*
X174299452Y-56021992D01*
X174155081Y-56020228D01*
X174155079Y-56020228D01*
X174149911Y-56020165D01*
X173929091Y-56053955D01*
X173716756Y-56123357D01*
X173639853Y-56163390D01*
X173542975Y-56213822D01*
X173518607Y-56226507D01*
X173514474Y-56229610D01*
X173514471Y-56229612D01*
X173344100Y-56357530D01*
X173339965Y-56360635D01*
X173185629Y-56522138D01*
X173078201Y-56679621D01*
X173023293Y-56724621D01*
X172952768Y-56732792D01*
X172889021Y-56701538D01*
X172868324Y-56677054D01*
X172787822Y-56552617D01*
X172787820Y-56552614D01*
X172785014Y-56548277D01*
X172634670Y-56383051D01*
X172630619Y-56379852D01*
X172630615Y-56379848D01*
X172463414Y-56247800D01*
X172463410Y-56247798D01*
X172459359Y-56244598D01*
X172454831Y-56242098D01*
X172338988Y-56178150D01*
X172263789Y-56136638D01*
X172258920Y-56134914D01*
X172258916Y-56134912D01*
X172058087Y-56063795D01*
X172058083Y-56063794D01*
X172053212Y-56062069D01*
X172048119Y-56061162D01*
X172048116Y-56061161D01*
X171838373Y-56023800D01*
X171838367Y-56023799D01*
X171833284Y-56022894D01*
X171759452Y-56021992D01*
X171615081Y-56020228D01*
X171615079Y-56020228D01*
X171609911Y-56020165D01*
X171389091Y-56053955D01*
X171176756Y-56123357D01*
X171099853Y-56163390D01*
X171002975Y-56213822D01*
X170978607Y-56226507D01*
X170974474Y-56229610D01*
X170974471Y-56229612D01*
X170804100Y-56357530D01*
X170799965Y-56360635D01*
X170645629Y-56522138D01*
X170538201Y-56679621D01*
X170483293Y-56724621D01*
X170412768Y-56732792D01*
X170349021Y-56701538D01*
X170328324Y-56677054D01*
X170247822Y-56552617D01*
X170247820Y-56552614D01*
X170245014Y-56548277D01*
X170094670Y-56383051D01*
X170090619Y-56379852D01*
X170090615Y-56379848D01*
X169923414Y-56247800D01*
X169923410Y-56247798D01*
X169919359Y-56244598D01*
X169914831Y-56242098D01*
X169798988Y-56178150D01*
X169723789Y-56136638D01*
X169718920Y-56134914D01*
X169718916Y-56134912D01*
X169518087Y-56063795D01*
X169518083Y-56063794D01*
X169513212Y-56062069D01*
X169508119Y-56061162D01*
X169508116Y-56061161D01*
X169298373Y-56023800D01*
X169298367Y-56023799D01*
X169293284Y-56022894D01*
X169219452Y-56021992D01*
X169075081Y-56020228D01*
X169075079Y-56020228D01*
X169069911Y-56020165D01*
X168849091Y-56053955D01*
X168636756Y-56123357D01*
X168559853Y-56163390D01*
X168462975Y-56213822D01*
X168438607Y-56226507D01*
X168434474Y-56229610D01*
X168434471Y-56229612D01*
X168264100Y-56357530D01*
X168259965Y-56360635D01*
X168105629Y-56522138D01*
X167998201Y-56679621D01*
X167943293Y-56724621D01*
X167872768Y-56732792D01*
X167809021Y-56701538D01*
X167788324Y-56677054D01*
X167707822Y-56552617D01*
X167707820Y-56552614D01*
X167705014Y-56548277D01*
X167554670Y-56383051D01*
X167550619Y-56379852D01*
X167550615Y-56379848D01*
X167383414Y-56247800D01*
X167383410Y-56247798D01*
X167379359Y-56244598D01*
X167374831Y-56242098D01*
X167258988Y-56178150D01*
X167183789Y-56136638D01*
X167178920Y-56134914D01*
X167178916Y-56134912D01*
X166978087Y-56063795D01*
X166978083Y-56063794D01*
X166973212Y-56062069D01*
X166968119Y-56061162D01*
X166968116Y-56061161D01*
X166758373Y-56023800D01*
X166758367Y-56023799D01*
X166753284Y-56022894D01*
X166679452Y-56021992D01*
X166535081Y-56020228D01*
X166535079Y-56020228D01*
X166529911Y-56020165D01*
X166309091Y-56053955D01*
X166096756Y-56123357D01*
X166019853Y-56163390D01*
X165922975Y-56213822D01*
X165898607Y-56226507D01*
X165894474Y-56229610D01*
X165894471Y-56229612D01*
X165724100Y-56357530D01*
X165719965Y-56360635D01*
X165565629Y-56522138D01*
X165458204Y-56679618D01*
X165457898Y-56680066D01*
X165402987Y-56725069D01*
X165332462Y-56733240D01*
X165268715Y-56701986D01*
X165248018Y-56677502D01*
X165167426Y-56552926D01*
X165161136Y-56544757D01*
X165017806Y-56387240D01*
X165010273Y-56380215D01*
X164843139Y-56248222D01*
X164834552Y-56242517D01*
X164648117Y-56139599D01*
X164638705Y-56135369D01*
X164437959Y-56064280D01*
X164427988Y-56061646D01*
X164356837Y-56048972D01*
X164343540Y-56050432D01*
X164339000Y-56064989D01*
X164339000Y-57508000D01*
X164318998Y-57576121D01*
X164265342Y-57622614D01*
X164213000Y-57634000D01*
X163957000Y-57634000D01*
X163888879Y-57613998D01*
X163842386Y-57560342D01*
X163831000Y-57508000D01*
X163831000Y-56063102D01*
X163827082Y-56049758D01*
X163812806Y-56047771D01*
X163774324Y-56053660D01*
X163764288Y-56056051D01*
X163561868Y-56122212D01*
X163552359Y-56126209D01*
X163363463Y-56224542D01*
X163354738Y-56230036D01*
X163184433Y-56357905D01*
X163176726Y-56364748D01*
X163029590Y-56518717D01*
X163023109Y-56526722D01*
X162918498Y-56680074D01*
X162863587Y-56725076D01*
X162793062Y-56733247D01*
X162729315Y-56701993D01*
X162708618Y-56677509D01*
X162627822Y-56552617D01*
X162627820Y-56552614D01*
X162625014Y-56548277D01*
X162474670Y-56383051D01*
X162470619Y-56379852D01*
X162470615Y-56379848D01*
X162303414Y-56247800D01*
X162303410Y-56247798D01*
X162299359Y-56244598D01*
X162294831Y-56242098D01*
X162178988Y-56178150D01*
X162103789Y-56136638D01*
X162098920Y-56134914D01*
X162098916Y-56134912D01*
X161898087Y-56063795D01*
X161898083Y-56063794D01*
X161893212Y-56062069D01*
X161888119Y-56061162D01*
X161888116Y-56061161D01*
X161678373Y-56023800D01*
X161678367Y-56023799D01*
X161673284Y-56022894D01*
X161599452Y-56021992D01*
X161455081Y-56020228D01*
X161455079Y-56020228D01*
X161449911Y-56020165D01*
X161229091Y-56053955D01*
X161016756Y-56123357D01*
X160939853Y-56163390D01*
X160842975Y-56213822D01*
X160818607Y-56226507D01*
X160814474Y-56229610D01*
X160814471Y-56229612D01*
X160644100Y-56357530D01*
X160639965Y-56360635D01*
X160485629Y-56522138D01*
X160359743Y-56706680D01*
X160265688Y-56909305D01*
X160205989Y-57124570D01*
X160182251Y-57346695D01*
X160182548Y-57351848D01*
X160182548Y-57351851D01*
X160188011Y-57446590D01*
X160195110Y-57569715D01*
X160196247Y-57574761D01*
X160196248Y-57574767D01*
X160207031Y-57622614D01*
X160244222Y-57787639D01*
X160328266Y-57994616D01*
X160379019Y-58077438D01*
X160442291Y-58180688D01*
X160444987Y-58185088D01*
X160591250Y-58353938D01*
X160595225Y-58357238D01*
X160595228Y-58357241D01*
X160638970Y-58393556D01*
X160678605Y-58452459D01*
X160680103Y-58523440D01*
X160642988Y-58583962D01*
X160579044Y-58614811D01*
X160558485Y-58616500D01*
X145797338Y-58616500D01*
X145729824Y-58596885D01*
X145691066Y-58572289D01*
X145606666Y-58518727D01*
X145544616Y-58496632D01*
X145442425Y-58460243D01*
X145442420Y-58460242D01*
X145435790Y-58457881D01*
X145428802Y-58457048D01*
X145428799Y-58457047D01*
X145305698Y-58442368D01*
X145255680Y-58436404D01*
X145248677Y-58437140D01*
X145248676Y-58437140D01*
X145082288Y-58454628D01*
X145082286Y-58454629D01*
X145075288Y-58455364D01*
X144903579Y-58513818D01*
X144849882Y-58546853D01*
X144755095Y-58605166D01*
X144755092Y-58605168D01*
X144749088Y-58608862D01*
X144744053Y-58613793D01*
X144744050Y-58613795D01*
X144624525Y-58730843D01*
X144619493Y-58735771D01*
X144521235Y-58888238D01*
X144518826Y-58894858D01*
X144518824Y-58894861D01*
X144492824Y-58966296D01*
X144459197Y-59058685D01*
X144436463Y-59238640D01*
X144436910Y-59243196D01*
X144416244Y-59310097D01*
X144361944Y-59355835D01*
X144311210Y-59366500D01*
X124547338Y-59366500D01*
X124479824Y-59346885D01*
X124394665Y-59292842D01*
X124356666Y-59268727D01*
X124327463Y-59258328D01*
X124192425Y-59210243D01*
X124192420Y-59210242D01*
X124185790Y-59207881D01*
X124178802Y-59207048D01*
X124178799Y-59207047D01*
X124055698Y-59192368D01*
X124005680Y-59186404D01*
X123998677Y-59187140D01*
X123998676Y-59187140D01*
X123832288Y-59204628D01*
X123832286Y-59204629D01*
X123825288Y-59205364D01*
X123653579Y-59263818D01*
X123591109Y-59302250D01*
X123505095Y-59355166D01*
X123505092Y-59355168D01*
X123499088Y-59358862D01*
X123494053Y-59363793D01*
X123494050Y-59363795D01*
X123403074Y-59452886D01*
X123369493Y-59485771D01*
X123271235Y-59638238D01*
X123268826Y-59644858D01*
X123268824Y-59644861D01*
X123212241Y-59800321D01*
X123209197Y-59808685D01*
X123186463Y-59988640D01*
X123186910Y-59993196D01*
X123166244Y-60060097D01*
X123111944Y-60105835D01*
X123061210Y-60116500D01*
X122297338Y-60116500D01*
X122229824Y-60096885D01*
X122144665Y-60042842D01*
X122106666Y-60018727D01*
X122077463Y-60008328D01*
X121942425Y-59960243D01*
X121942420Y-59960242D01*
X121935790Y-59957881D01*
X121928802Y-59957048D01*
X121928799Y-59957047D01*
X121805698Y-59942368D01*
X121755680Y-59936404D01*
X121748677Y-59937140D01*
X121748676Y-59937140D01*
X121582288Y-59954628D01*
X121582286Y-59954629D01*
X121575288Y-59955364D01*
X121403579Y-60013818D01*
X121341109Y-60052250D01*
X121255095Y-60105166D01*
X121255092Y-60105168D01*
X121249088Y-60108862D01*
X121244053Y-60113793D01*
X121244050Y-60113795D01*
X121124525Y-60230843D01*
X121119493Y-60235771D01*
X121021235Y-60388238D01*
X121018824Y-60394862D01*
X121018823Y-60394864D01*
X120983471Y-60491993D01*
X120941377Y-60549165D01*
X120878242Y-60574209D01*
X120832288Y-60579039D01*
X120832286Y-60579040D01*
X120825288Y-60579775D01*
X120653579Y-60638229D01*
X120647575Y-60641923D01*
X120505095Y-60729577D01*
X120505092Y-60729579D01*
X120499088Y-60733273D01*
X120494053Y-60738204D01*
X120494050Y-60738206D01*
X120374525Y-60855254D01*
X120369493Y-60860182D01*
X120271235Y-61012649D01*
X120270703Y-61012306D01*
X120225911Y-61060744D01*
X120157179Y-61078534D01*
X120146335Y-61077714D01*
X120005680Y-61060942D01*
X119998677Y-61061678D01*
X119998676Y-61061678D01*
X119832288Y-61079166D01*
X119832286Y-61079167D01*
X119825288Y-61079902D01*
X119653579Y-61138356D01*
X119647575Y-61142050D01*
X119505095Y-61229704D01*
X119505092Y-61229706D01*
X119499088Y-61233400D01*
X119494053Y-61238331D01*
X119494050Y-61238333D01*
X119374525Y-61355381D01*
X119369493Y-61360309D01*
X119271235Y-61512776D01*
X119268826Y-61519396D01*
X119268824Y-61519399D01*
X119239999Y-61598595D01*
X119209197Y-61683223D01*
X119186463Y-61863178D01*
X109728000Y-61863178D01*
X109728000Y-48367655D01*
X109999858Y-48367655D01*
X110035104Y-48626638D01*
X110036412Y-48631124D01*
X110036412Y-48631126D01*
X110049907Y-48677425D01*
X110108243Y-48877567D01*
X110217668Y-49114928D01*
X110220231Y-49118837D01*
X110358410Y-49329596D01*
X110358414Y-49329601D01*
X110360976Y-49333509D01*
X110535018Y-49528506D01*
X110735970Y-49695637D01*
X110739973Y-49698066D01*
X110955422Y-49828804D01*
X110955426Y-49828806D01*
X110959419Y-49831229D01*
X111200455Y-49932303D01*
X111453783Y-49996641D01*
X111458434Y-49997109D01*
X111458438Y-49997110D01*
X111651308Y-50016531D01*
X111670867Y-50018500D01*
X111826354Y-50018500D01*
X111828679Y-50018327D01*
X111828685Y-50018327D01*
X112016000Y-50004407D01*
X112016004Y-50004406D01*
X112020652Y-50004061D01*
X112025200Y-50003032D01*
X112025206Y-50003031D01*
X112249233Y-49952338D01*
X112275577Y-49946377D01*
X112284994Y-49942715D01*
X112514824Y-49853340D01*
X112514827Y-49853339D01*
X112519177Y-49851647D01*
X112746098Y-49721951D01*
X112951357Y-49560138D01*
X113130443Y-49369763D01*
X113279424Y-49155009D01*
X113281492Y-49150816D01*
X113392960Y-48924781D01*
X113392961Y-48924778D01*
X113395025Y-48920593D01*
X113474707Y-48671665D01*
X113516721Y-48413693D01*
X113520142Y-48152345D01*
X113484896Y-47893362D01*
X113470473Y-47843877D01*
X113444963Y-47756358D01*
X113411757Y-47642433D01*
X113302332Y-47405072D01*
X113216770Y-47274568D01*
X113161590Y-47190404D01*
X113161586Y-47190399D01*
X113159024Y-47186491D01*
X112984982Y-46991494D01*
X112784030Y-46824363D01*
X112567081Y-46692715D01*
X112564578Y-46691196D01*
X112564574Y-46691194D01*
X112560581Y-46688771D01*
X112319545Y-46587697D01*
X112066217Y-46523359D01*
X112061566Y-46522891D01*
X112061562Y-46522890D01*
X111852271Y-46501816D01*
X111849133Y-46501500D01*
X111693646Y-46501500D01*
X111691321Y-46501673D01*
X111691315Y-46501673D01*
X111504000Y-46515593D01*
X111503996Y-46515594D01*
X111499348Y-46515939D01*
X111494800Y-46516968D01*
X111494794Y-46516969D01*
X111308399Y-46559147D01*
X111244423Y-46573623D01*
X111240071Y-46575315D01*
X111240069Y-46575316D01*
X111005176Y-46666660D01*
X111005173Y-46666661D01*
X111000823Y-46668353D01*
X110773902Y-46798049D01*
X110568643Y-46959862D01*
X110389557Y-47150237D01*
X110240576Y-47364991D01*
X110238510Y-47369181D01*
X110238508Y-47369184D01*
X110128786Y-47591680D01*
X110124975Y-47599407D01*
X110123553Y-47603850D01*
X110123552Y-47603852D01*
X110109762Y-47646932D01*
X110045293Y-47848335D01*
X110003279Y-48106307D01*
X109999858Y-48367655D01*
X109728000Y-48367655D01*
X109728000Y-46354000D01*
X109748002Y-46285879D01*
X109801658Y-46239386D01*
X109854000Y-46228000D01*
X160011298Y-46228000D01*
X160012069Y-46228002D01*
X160089652Y-46228476D01*
X160098281Y-46226010D01*
X160098286Y-46226009D01*
X160118048Y-46220361D01*
X160134809Y-46216783D01*
X160155152Y-46213870D01*
X160155162Y-46213867D01*
X160164045Y-46212595D01*
X160187395Y-46201979D01*
X160204907Y-46195536D01*
X160220937Y-46190954D01*
X160229565Y-46188488D01*
X160254548Y-46172726D01*
X160269614Y-46164596D01*
X160296510Y-46152367D01*
X160315939Y-46135626D01*
X160330947Y-46124521D01*
X160345039Y-46115630D01*
X160352631Y-46110840D01*
X160372182Y-46088703D01*
X160384374Y-46076659D01*
X160399949Y-46063239D01*
X160399950Y-46063237D01*
X160406747Y-46057381D01*
X160411626Y-46049853D01*
X160411629Y-46049850D01*
X160420696Y-46035861D01*
X160431986Y-46020987D01*
X160443012Y-46008502D01*
X160448956Y-46001772D01*
X160461510Y-45975034D01*
X160469824Y-45960065D01*
X160485893Y-45935273D01*
X160493239Y-45910709D01*
X160499901Y-45893264D01*
X160506983Y-45878179D01*
X160510799Y-45870052D01*
X160515343Y-45840870D01*
X160519126Y-45824151D01*
X160525014Y-45804464D01*
X160525015Y-45804461D01*
X160527587Y-45795859D01*
X160527797Y-45761444D01*
X160527830Y-45760672D01*
X160528000Y-45759577D01*
X160528000Y-45728702D01*
X160528002Y-45727932D01*
X160528452Y-45654284D01*
X160528452Y-45654283D01*
X160528476Y-45650348D01*
X160528092Y-45649004D01*
X160528000Y-45647659D01*
X160528000Y-34000000D01*
X167606502Y-34000000D01*
X167626457Y-34228087D01*
X167685716Y-34449243D01*
X167688039Y-34454224D01*
X167688039Y-34454225D01*
X167780151Y-34651762D01*
X167780154Y-34651767D01*
X167782477Y-34656749D01*
X167913802Y-34844300D01*
X168075700Y-35006198D01*
X168080208Y-35009355D01*
X168080211Y-35009357D01*
X168158389Y-35064098D01*
X168263251Y-35137523D01*
X168268233Y-35139846D01*
X168268238Y-35139849D01*
X168465775Y-35231961D01*
X168470757Y-35234284D01*
X168476065Y-35235706D01*
X168476067Y-35235707D01*
X168686598Y-35292119D01*
X168686600Y-35292119D01*
X168691913Y-35293543D01*
X168920000Y-35313498D01*
X169148087Y-35293543D01*
X169153400Y-35292119D01*
X169153402Y-35292119D01*
X169363933Y-35235707D01*
X169363935Y-35235706D01*
X169369243Y-35234284D01*
X169374225Y-35231961D01*
X169571762Y-35139849D01*
X169571767Y-35139846D01*
X169576749Y-35137523D01*
X169681611Y-35064098D01*
X169759789Y-35009357D01*
X169759792Y-35009355D01*
X169764300Y-35006198D01*
X169926198Y-34844300D01*
X170057523Y-34656749D01*
X170059846Y-34651767D01*
X170059849Y-34651762D01*
X170151961Y-34454225D01*
X170151961Y-34454224D01*
X170154284Y-34449243D01*
X170213543Y-34228087D01*
X170233498Y-34000000D01*
X177766502Y-34000000D01*
X177786457Y-34228087D01*
X177845716Y-34449243D01*
X177848039Y-34454224D01*
X177848039Y-34454225D01*
X177940151Y-34651762D01*
X177940154Y-34651767D01*
X177942477Y-34656749D01*
X178073802Y-34844300D01*
X178235700Y-35006198D01*
X178240208Y-35009355D01*
X178240211Y-35009357D01*
X178318389Y-35064098D01*
X178423251Y-35137523D01*
X178428233Y-35139846D01*
X178428238Y-35139849D01*
X178625775Y-35231961D01*
X178630757Y-35234284D01*
X178636065Y-35235706D01*
X178636067Y-35235707D01*
X178846598Y-35292119D01*
X178846600Y-35292119D01*
X178851913Y-35293543D01*
X179080000Y-35313498D01*
X179308087Y-35293543D01*
X179313400Y-35292119D01*
X179313402Y-35292119D01*
X179523933Y-35235707D01*
X179523935Y-35235706D01*
X179529243Y-35234284D01*
X179534225Y-35231961D01*
X179731762Y-35139849D01*
X179731767Y-35139846D01*
X179736749Y-35137523D01*
X179841611Y-35064098D01*
X179919789Y-35009357D01*
X179919792Y-35009355D01*
X179924300Y-35006198D01*
X180086198Y-34844300D01*
X180217523Y-34656749D01*
X180219846Y-34651767D01*
X180219849Y-34651762D01*
X180311961Y-34454225D01*
X180311961Y-34454224D01*
X180314284Y-34449243D01*
X180373543Y-34228087D01*
X180393498Y-34000000D01*
X180373543Y-33771913D01*
X180314284Y-33550757D01*
X180311961Y-33545775D01*
X180219849Y-33348238D01*
X180219846Y-33348233D01*
X180217523Y-33343251D01*
X180086198Y-33155700D01*
X179924300Y-32993802D01*
X179919792Y-32990645D01*
X179919789Y-32990643D01*
X179841611Y-32935902D01*
X179736749Y-32862477D01*
X179731767Y-32860154D01*
X179731762Y-32860151D01*
X179534225Y-32768039D01*
X179534224Y-32768039D01*
X179529243Y-32765716D01*
X179523935Y-32764294D01*
X179523933Y-32764293D01*
X179313402Y-32707881D01*
X179313400Y-32707881D01*
X179308087Y-32706457D01*
X179080000Y-32686502D01*
X178851913Y-32706457D01*
X178846600Y-32707881D01*
X178846598Y-32707881D01*
X178636067Y-32764293D01*
X178636065Y-32764294D01*
X178630757Y-32765716D01*
X178625776Y-32768039D01*
X178625775Y-32768039D01*
X178428238Y-32860151D01*
X178428233Y-32860154D01*
X178423251Y-32862477D01*
X178318389Y-32935902D01*
X178240211Y-32990643D01*
X178240208Y-32990645D01*
X178235700Y-32993802D01*
X178073802Y-33155700D01*
X177942477Y-33343251D01*
X177940154Y-33348233D01*
X177940151Y-33348238D01*
X177848039Y-33545775D01*
X177845716Y-33550757D01*
X177786457Y-33771913D01*
X177766502Y-34000000D01*
X170233498Y-34000000D01*
X170213543Y-33771913D01*
X170154284Y-33550757D01*
X170151961Y-33545775D01*
X170059849Y-33348238D01*
X170059846Y-33348233D01*
X170057523Y-33343251D01*
X169926198Y-33155700D01*
X169764300Y-32993802D01*
X169759792Y-32990645D01*
X169759789Y-32990643D01*
X169681611Y-32935902D01*
X169576749Y-32862477D01*
X169571767Y-32860154D01*
X169571762Y-32860151D01*
X169374225Y-32768039D01*
X169374224Y-32768039D01*
X169369243Y-32765716D01*
X169363935Y-32764294D01*
X169363933Y-32764293D01*
X169153402Y-32707881D01*
X169153400Y-32707881D01*
X169148087Y-32706457D01*
X168920000Y-32686502D01*
X168691913Y-32706457D01*
X168686600Y-32707881D01*
X168686598Y-32707881D01*
X168476067Y-32764293D01*
X168476065Y-32764294D01*
X168470757Y-32765716D01*
X168465776Y-32768039D01*
X168465775Y-32768039D01*
X168268238Y-32860151D01*
X168268233Y-32860154D01*
X168263251Y-32862477D01*
X168158389Y-32935902D01*
X168080211Y-32990643D01*
X168080208Y-32990645D01*
X168075700Y-32993802D01*
X167913802Y-33155700D01*
X167782477Y-33343251D01*
X167780154Y-33348233D01*
X167780151Y-33348238D01*
X167688039Y-33545775D01*
X167685716Y-33550757D01*
X167626457Y-33771913D01*
X167606502Y-34000000D01*
X160528000Y-34000000D01*
X160528000Y-28047655D01*
X160799858Y-28047655D01*
X160835104Y-28306638D01*
X160836412Y-28311124D01*
X160836412Y-28311126D01*
X160849767Y-28356946D01*
X160908243Y-28557567D01*
X161017668Y-28794928D01*
X161020231Y-28798837D01*
X161158410Y-29009596D01*
X161158414Y-29009601D01*
X161160976Y-29013509D01*
X161335018Y-29208506D01*
X161535970Y-29375637D01*
X161539973Y-29378066D01*
X161755422Y-29508804D01*
X161755426Y-29508806D01*
X161759419Y-29511229D01*
X162000455Y-29612303D01*
X162253783Y-29676641D01*
X162258434Y-29677109D01*
X162258438Y-29677110D01*
X162451308Y-29696531D01*
X162470867Y-29698500D01*
X162626354Y-29698500D01*
X162628679Y-29698327D01*
X162628685Y-29698327D01*
X162816000Y-29684407D01*
X162816004Y-29684406D01*
X162820652Y-29684061D01*
X162825200Y-29683032D01*
X162825206Y-29683031D01*
X163011601Y-29640853D01*
X163075577Y-29626377D01*
X163111769Y-29612303D01*
X163314824Y-29533340D01*
X163314827Y-29533339D01*
X163319177Y-29531647D01*
X163443713Y-29460469D01*
X177637095Y-29460469D01*
X177637392Y-29465622D01*
X177637392Y-29465625D01*
X177646563Y-29624684D01*
X177650427Y-29691697D01*
X177651564Y-29696743D01*
X177651565Y-29696749D01*
X177666394Y-29762548D01*
X177701346Y-29917642D01*
X177703288Y-29922424D01*
X177703289Y-29922428D01*
X177786540Y-30127450D01*
X177788484Y-30132237D01*
X177909501Y-30329719D01*
X178061147Y-30504784D01*
X178239349Y-30652730D01*
X178439322Y-30769584D01*
X178655694Y-30852209D01*
X178660760Y-30853240D01*
X178660761Y-30853240D01*
X178713846Y-30864040D01*
X178882656Y-30898385D01*
X179013324Y-30903176D01*
X179108949Y-30906683D01*
X179108953Y-30906683D01*
X179114113Y-30906872D01*
X179119233Y-30906216D01*
X179119235Y-30906216D01*
X179218668Y-30893478D01*
X179343847Y-30877442D01*
X179348795Y-30875957D01*
X179348802Y-30875956D01*
X179560747Y-30812369D01*
X179565690Y-30810886D01*
X179646236Y-30771427D01*
X179769049Y-30711262D01*
X179769052Y-30711260D01*
X179773684Y-30708991D01*
X179962243Y-30574494D01*
X179965898Y-30570852D01*
X179965906Y-30570845D01*
X180007697Y-30529199D01*
X180070068Y-30495282D01*
X180140875Y-30500470D01*
X180197637Y-30543116D01*
X180214619Y-30574218D01*
X180236677Y-30633056D01*
X180245214Y-30648649D01*
X180321715Y-30750724D01*
X180334276Y-30763285D01*
X180436351Y-30839786D01*
X180451946Y-30848324D01*
X180572394Y-30893478D01*
X180587649Y-30897105D01*
X180638514Y-30902631D01*
X180645328Y-30903000D01*
X181317885Y-30903000D01*
X181333124Y-30898525D01*
X181334329Y-30897135D01*
X181336000Y-30889452D01*
X181336000Y-30884884D01*
X181844000Y-30884884D01*
X181848475Y-30900123D01*
X181849865Y-30901328D01*
X181857548Y-30902999D01*
X182534669Y-30902999D01*
X182541490Y-30902629D01*
X182592352Y-30897105D01*
X182607604Y-30893479D01*
X182728054Y-30848324D01*
X182743649Y-30839786D01*
X182845724Y-30763285D01*
X182858285Y-30750724D01*
X182934786Y-30648649D01*
X182943324Y-30633054D01*
X182988478Y-30512606D01*
X182992105Y-30497351D01*
X182997631Y-30446486D01*
X182998000Y-30439672D01*
X182998000Y-29767115D01*
X182993525Y-29751876D01*
X182992135Y-29750671D01*
X182984452Y-29749000D01*
X181862115Y-29749000D01*
X181846876Y-29753475D01*
X181845671Y-29754865D01*
X181844000Y-29762548D01*
X181844000Y-30884884D01*
X181336000Y-30884884D01*
X181336000Y-29222885D01*
X181844000Y-29222885D01*
X181848475Y-29238124D01*
X181849865Y-29239329D01*
X181857548Y-29241000D01*
X182979884Y-29241000D01*
X182995123Y-29236525D01*
X182996328Y-29235135D01*
X182997999Y-29227452D01*
X182997999Y-28550331D01*
X182997629Y-28543510D01*
X182992105Y-28492648D01*
X182988479Y-28477396D01*
X182943324Y-28356946D01*
X182934786Y-28341351D01*
X182858285Y-28239276D01*
X182845724Y-28226715D01*
X182743649Y-28150214D01*
X182728054Y-28141676D01*
X182607606Y-28096522D01*
X182592351Y-28092895D01*
X182541486Y-28087369D01*
X182534672Y-28087000D01*
X181862115Y-28087000D01*
X181846876Y-28091475D01*
X181845671Y-28092865D01*
X181844000Y-28100548D01*
X181844000Y-29222885D01*
X181336000Y-29222885D01*
X181336000Y-28105116D01*
X181331525Y-28089877D01*
X181330135Y-28088672D01*
X181322452Y-28087001D01*
X180645331Y-28087001D01*
X180638510Y-28087371D01*
X180587648Y-28092895D01*
X180572396Y-28096521D01*
X180451946Y-28141676D01*
X180436351Y-28150214D01*
X180334276Y-28226715D01*
X180321715Y-28239276D01*
X180245214Y-28341351D01*
X180236675Y-28356948D01*
X180215934Y-28412275D01*
X180173293Y-28469040D01*
X180106731Y-28493740D01*
X180037383Y-28478533D01*
X180014388Y-28461909D01*
X180013887Y-28461358D01*
X179951737Y-28412275D01*
X179836177Y-28321011D01*
X179836172Y-28321008D01*
X179832123Y-28317810D01*
X179827607Y-28315317D01*
X179827604Y-28315315D01*
X179633879Y-28208373D01*
X179633875Y-28208371D01*
X179629355Y-28205876D01*
X179624486Y-28204152D01*
X179624482Y-28204150D01*
X179415903Y-28130288D01*
X179415899Y-28130287D01*
X179411028Y-28128562D01*
X179405935Y-28127655D01*
X179405932Y-28127654D01*
X179188095Y-28088851D01*
X179188089Y-28088850D01*
X179183006Y-28087945D01*
X179105644Y-28087000D01*
X178956581Y-28085179D01*
X178956579Y-28085179D01*
X178951411Y-28085116D01*
X178722464Y-28120150D01*
X178502314Y-28192106D01*
X178497726Y-28194494D01*
X178497722Y-28194496D01*
X178301461Y-28296663D01*
X178296872Y-28299052D01*
X178292739Y-28302155D01*
X178292736Y-28302157D01*
X178146073Y-28412275D01*
X178111655Y-28438117D01*
X177951639Y-28605564D01*
X177821119Y-28796899D01*
X177723602Y-29006981D01*
X177661707Y-29230169D01*
X177637095Y-29460469D01*
X163443713Y-29460469D01*
X163546098Y-29401951D01*
X163751357Y-29240138D01*
X163930443Y-29049763D01*
X164079424Y-28835009D01*
X164099190Y-28794928D01*
X164192960Y-28604781D01*
X164192961Y-28604778D01*
X164195025Y-28600593D01*
X164234097Y-28478533D01*
X164273280Y-28356123D01*
X164274707Y-28351665D01*
X164316721Y-28093693D01*
X164317324Y-28047655D01*
X196359858Y-28047655D01*
X196395104Y-28306638D01*
X196396412Y-28311124D01*
X196396412Y-28311126D01*
X196409767Y-28356946D01*
X196468243Y-28557567D01*
X196577668Y-28794928D01*
X196580231Y-28798837D01*
X196718410Y-29009596D01*
X196718414Y-29009601D01*
X196720976Y-29013509D01*
X196895018Y-29208506D01*
X197095970Y-29375637D01*
X197099973Y-29378066D01*
X197315422Y-29508804D01*
X197315426Y-29508806D01*
X197319419Y-29511229D01*
X197560455Y-29612303D01*
X197813783Y-29676641D01*
X197818434Y-29677109D01*
X197818438Y-29677110D01*
X198011308Y-29696531D01*
X198030867Y-29698500D01*
X198186354Y-29698500D01*
X198188679Y-29698327D01*
X198188685Y-29698327D01*
X198376000Y-29684407D01*
X198376004Y-29684406D01*
X198380652Y-29684061D01*
X198385200Y-29683032D01*
X198385206Y-29683031D01*
X198571601Y-29640853D01*
X198635577Y-29626377D01*
X198671769Y-29612303D01*
X198874824Y-29533340D01*
X198874827Y-29533339D01*
X198879177Y-29531647D01*
X199106098Y-29401951D01*
X199311357Y-29240138D01*
X199490443Y-29049763D01*
X199639424Y-28835009D01*
X199659190Y-28794928D01*
X199752960Y-28604781D01*
X199752961Y-28604778D01*
X199755025Y-28600593D01*
X199794097Y-28478533D01*
X199833280Y-28356123D01*
X199834707Y-28351665D01*
X199876721Y-28093693D01*
X199880142Y-27832345D01*
X199844896Y-27573362D01*
X199830473Y-27523877D01*
X199773068Y-27326932D01*
X199771757Y-27322433D01*
X199662332Y-27085072D01*
X199629519Y-27035024D01*
X199521590Y-26870404D01*
X199521586Y-26870399D01*
X199519024Y-26866491D01*
X199344982Y-26671494D01*
X199144030Y-26504363D01*
X199096844Y-26475730D01*
X198924578Y-26371196D01*
X198924574Y-26371194D01*
X198920581Y-26368771D01*
X198679545Y-26267697D01*
X198426217Y-26203359D01*
X198421566Y-26202891D01*
X198421562Y-26202890D01*
X198212271Y-26181816D01*
X198209133Y-26181500D01*
X198053646Y-26181500D01*
X198051321Y-26181673D01*
X198051315Y-26181673D01*
X197864000Y-26195593D01*
X197863996Y-26195594D01*
X197859348Y-26195939D01*
X197854800Y-26196968D01*
X197854794Y-26196969D01*
X197668399Y-26239147D01*
X197604423Y-26253623D01*
X197600071Y-26255315D01*
X197600069Y-26255316D01*
X197365176Y-26346660D01*
X197365173Y-26346661D01*
X197360823Y-26348353D01*
X197133902Y-26478049D01*
X196928643Y-26639862D01*
X196749557Y-26830237D01*
X196600576Y-27044991D01*
X196484975Y-27279407D01*
X196405293Y-27528335D01*
X196363279Y-27786307D01*
X196359858Y-28047655D01*
X164317324Y-28047655D01*
X164320142Y-27832345D01*
X164284896Y-27573362D01*
X164270473Y-27523877D01*
X164213068Y-27326932D01*
X164211757Y-27322433D01*
X164102332Y-27085072D01*
X164069519Y-27035024D01*
X163961590Y-26870404D01*
X163961586Y-26870399D01*
X163959024Y-26866491D01*
X163784982Y-26671494D01*
X163584030Y-26504363D01*
X163536844Y-26475730D01*
X163364578Y-26371196D01*
X163364574Y-26371194D01*
X163360581Y-26368771D01*
X163119545Y-26267697D01*
X162866217Y-26203359D01*
X162861566Y-26202891D01*
X162861562Y-26202890D01*
X162652271Y-26181816D01*
X162649133Y-26181500D01*
X162493646Y-26181500D01*
X162491321Y-26181673D01*
X162491315Y-26181673D01*
X162304000Y-26195593D01*
X162303996Y-26195594D01*
X162299348Y-26195939D01*
X162294800Y-26196968D01*
X162294794Y-26196969D01*
X162108399Y-26239147D01*
X162044423Y-26253623D01*
X162040071Y-26255315D01*
X162040069Y-26255316D01*
X161805176Y-26346660D01*
X161805173Y-26346661D01*
X161800823Y-26348353D01*
X161573902Y-26478049D01*
X161368643Y-26639862D01*
X161189557Y-26830237D01*
X161040576Y-27044991D01*
X160924975Y-27279407D01*
X160845293Y-27528335D01*
X160803279Y-27786307D01*
X160799858Y-28047655D01*
X160528000Y-28047655D01*
X160528000Y-26034000D01*
X160548002Y-25965879D01*
X160601658Y-25919386D01*
X160654000Y-25908000D01*
X200026000Y-25908000D01*
X200094121Y-25928002D01*
G37*
%TD.AperFunction*%
%TD*%
M02*
