M48
; DRILL file {KiCad (6.0.1)} date Mon Sep 26 20:40:01 2022
; FORMAT={-:-/ absolute / inch / decimal}
; #@! TF.CreationDate,2022-09-26T20:40:01+01:00
; #@! TF.GenerationSoftware,Kicad,Pcbnew,(6.0.1)
; #@! TF.FileFunction,Plated,1,2,PTH
FMAT,2
INCH
; #@! TA.AperFunction,Plated,PTH,ViaDrill
T1C0.0157
; #@! TA.AperFunction,Plated,PTH,ComponentDrill
T2C0.0315
; #@! TA.AperFunction,Plated,PTH,ComponentDrill
T3C0.0354
; #@! TA.AperFunction,Plated,PTH,ComponentDrill
T4C0.0394
%
G90
G05
T1
X4.7244Y-2.436
X4.7343Y-3.1201
X4.7539Y-2.4852
X4.7638Y-2.4163
X4.7933Y-2.3917
X4.8819Y-2.3622
X4.9606Y-2.1358
X5.0492Y-2.1063
X5.1378Y-2.0817
X5.2165Y-2.062
X5.2461Y-3.0217
X5.6594Y-2.2539
X5.7185Y-2.3327
X5.9941Y-2.5689
X5.9941Y-2.7461
X6.7717Y-2.5689
X6.8602Y-2.5689
X6.9685Y-2.5689
X7.0571Y-2.5787
X7.5098Y-2.6673
X7.5591Y-1.9587
X7.5591Y-2.1161
T2
X5.5709Y-2.6181
X5.5709Y-2.7181
X5.5709Y-2.8181
X5.5709Y-2.9181
X5.5709Y-3.0181
X5.5709Y-3.1181
X5.5709Y-3.2181
X5.8709Y-2.6181
X5.8709Y-2.7181
X5.8709Y-2.8181
X5.8709Y-2.9181
X5.8709Y-3.0181
X5.8709Y-3.1181
X5.8709Y-3.2181
X6.6504Y-1.3386
X7.0504Y-1.3386
T3
X7.0492Y-1.1612
X7.1492Y-1.1612
T4
X5.1378Y-3.2362
X5.1378Y-3.3362
X5.1378Y-3.4362
X5.1378Y-3.5362
X6.36Y-2.2591
X6.36Y-2.8591
X6.4075Y-1.9281
X6.4075Y-2.0281
X6.46Y-2.2591
X6.46Y-2.8591
X6.56Y-2.2591
X6.56Y-2.8591
X6.5732Y-3.2283
X6.66Y-2.2591
X6.66Y-2.8591
X6.6732Y-3.2283
X6.76Y-2.2591
X6.76Y-2.8591
X6.86Y-2.2591
X6.86Y-2.8591
X6.9488Y-1.8002
X6.9488Y-1.9002
X6.96Y-2.2591
X6.96Y-2.8591
X7.06Y-2.2591
X7.06Y-2.8591
X7.0955Y-3.2185
X7.16Y-2.2591
X7.16Y-2.8591
X7.1955Y-3.2185
X7.26Y-2.2591
X7.26Y-2.8591
X7.36Y-2.2591
X7.36Y-2.8591
X7.46Y-2.2591
X7.46Y-2.8591
X7.56Y-2.2591
X7.56Y-2.8591
X7.66Y-2.2591
X7.66Y-2.8591
X7.76Y-2.2591
X7.76Y-2.8591
T0
M30
