%TF.GenerationSoftware,KiCad,Pcbnew,8.0.4*%
%TF.CreationDate,2024-08-19T21:12:56+01:00*%
%TF.ProjectId,buttonsSuper,62757474-6f6e-4735-9375-7065722e6b69,rev?*%
%TF.SameCoordinates,Original*%
%TF.FileFunction,Paste,Top*%
%TF.FilePolarity,Positive*%
%FSLAX46Y46*%
G04 Gerber Fmt 4.6, Leading zero omitted, Abs format (unit mm)*
G04 Created by KiCad (PCBNEW 8.0.4) date 2024-08-19 21:12:56*
%MOMM*%
%LPD*%
G01*
G04 APERTURE LIST*
G04 Aperture macros list*
%AMRoundRect*
0 Rectangle with rounded corners*
0 $1 Rounding radius*
0 $2 $3 $4 $5 $6 $7 $8 $9 X,Y pos of 4 corners*
0 Add a 4 corners polygon primitive as box body*
4,1,4,$2,$3,$4,$5,$6,$7,$8,$9,$2,$3,0*
0 Add four circle primitives for the rounded corners*
1,1,$1+$1,$2,$3*
1,1,$1+$1,$4,$5*
1,1,$1+$1,$6,$7*
1,1,$1+$1,$8,$9*
0 Add four rect primitives between the rounded corners*
20,1,$1+$1,$2,$3,$4,$5,0*
20,1,$1+$1,$4,$5,$6,$7,0*
20,1,$1+$1,$6,$7,$8,$9,0*
20,1,$1+$1,$8,$9,$2,$3,0*%
%AMFreePoly0*
4,1,154,0.500000,-0.550000,0.488233,-0.550000,0.934787,-0.791141,1.076149,-0.631259,1.307724,-0.423236,1.561625,-0.243140,1.834504,-0.093348,2.122760,0.024164,2.422590,0.107845,2.730038,0.156591,2.978729,0.167121,2.980491,0.167851,2.995963,0.167851,3.041048,0.169760,3.351516,0.147177,3.657346,0.089141,3.954504,-0.003583,4.239068,-0.129772,4.507285,-0.287761,4.755615,-0.475464,
4.980782,-0.690407,5.064755,-0.791388,5.952485,-0.312010,5.970563,-0.304430,6.009377,-0.300441,6.046763,-0.311608,6.077030,-0.336232,6.095570,-0.370564,6.099559,-0.409377,6.088392,-0.446763,6.063768,-0.477030,6.047515,-0.487990,5.192760,-0.949561,5.350090,-1.190342,5.489358,-1.468739,5.595782,-1.761270,5.595899,-1.765237,5.598078,-1.770496,5.599999,-1.790005,5.600000,-2.540005,
5.598079,-2.559514,5.583147,-2.595562,5.555557,-2.623152,5.519509,-2.638084,5.480491,-2.638084,5.444443,-2.623152,5.416853,-2.595562,5.401921,-2.559514,5.400000,-2.540005,5.399999,-1.804669,5.360775,-1.673820,5.239649,-1.396541,5.100000,-1.159427,5.100000,-3.290005,5.098079,-3.309514,5.083147,-3.345562,5.055557,-3.373152,5.019509,-3.388084,4.980491,-3.388084,4.944443,-3.373152,
4.916853,-3.345562,4.901921,-3.309514,4.900000,-3.290005,4.900000,-0.940005,4.900687,-0.933024,4.900441,-0.930628,4.901160,-0.928219,4.901921,-0.920496,4.907465,-0.907111,4.908534,-0.903530,4.902339,-0.895425,4.691039,-0.678844,4.455256,-0.489209,4.198402,-0.329266,4.100000,-0.283355,4.100000,-4.290005,4.098079,-4.309514,4.083147,-4.345562,4.055557,-4.373152,4.019509,-4.388084,
3.980491,-4.388084,3.944443,-4.373152,3.916853,-4.345562,3.901921,-4.309514,3.900000,-4.290005,3.900000,-0.193416,3.636613,-0.107258,3.339810,-0.048406,3.100000,-0.030302,3.100000,-4.540005,3.098079,-4.559514,3.083147,-4.595562,3.055557,-4.623152,3.019509,-4.638084,2.980491,-4.638084,2.944443,-4.623152,2.916853,-4.595562,2.901921,-4.559514,2.900000,-4.540005,2.900000,-0.031854,
2.735814,-0.039257,2.437365,-0.089091,2.147062,-0.174412,2.100000,-0.194657,2.100000,-4.290005,2.098079,-4.309514,2.083147,-4.345562,2.055557,-4.373152,2.019509,-4.388084,1.980491,-4.388084,1.944443,-4.373152,1.916853,-4.345562,1.901921,-4.309514,1.900000,-4.290005,1.900000,-0.280693,1.869109,-0.293982,1.607529,-0.446071,1.366110,-0.628477,1.148347,-0.838560,1.092548,-0.907145,
1.098079,-0.920496,1.098839,-0.928219,1.099559,-0.930628,1.099312,-0.933024,1.100000,-0.940005,1.100000,-3.290005,1.098079,-3.309514,1.083147,-3.345562,1.055557,-3.373152,1.019509,-3.388084,0.980491,-3.388084,0.944443,-3.373152,0.916853,-3.345562,0.901921,-3.309514,0.900000,-3.290005,0.900000,-1.164302,0.796013,-1.329229,0.666544,-1.602712,0.618733,-1.746249,0.618732,-1.746249,
0.590211,-1.789446,0.543912,-1.812596,0.492241,-1.809494,0.449044,-1.780973,0.425894,-1.734674,0.428996,-1.683003,0.544232,-1.393830,0.691869,-1.119779,0.809681,-0.950880,0.067317,-0.550000,-0.500000,-0.550000,-0.500000,0.550000,0.500000,0.550000,0.500000,-0.550000,0.500000,-0.550000,$1*%
%AMFreePoly1*
4,1,131,2.555557,4.623152,2.583147,4.595562,2.598079,4.559514,2.600000,4.540005,2.600000,0.061426,2.694366,0.043985,3.000000,0.025342,3.305634,0.043985,3.400000,0.061426,3.400000,4.540005,3.401921,4.559514,3.416853,4.595562,3.444443,4.623152,3.480491,4.638084,3.519509,4.638084,3.555557,4.623152,3.583147,4.595562,3.598079,4.559514,3.600000,4.540005,3.600000,0.098391,
3.606736,0.099636,3.898842,0.191471,4.177620,0.318127,4.400000,0.453946,4.400000,4.040005,4.401921,4.059514,4.416853,4.095562,4.444443,4.123152,4.480491,4.138084,4.519509,4.138084,4.555557,4.123152,4.583147,4.095562,4.598079,4.059514,4.600000,4.040005,4.600000,0.605363,4.678921,0.667906,4.894010,0.885842,5.081017,1.128305,5.237168,1.391698,5.360149,1.672118,
5.404216,1.818740,5.431416,1.862781,5.476993,1.887323,5.528734,1.885788,5.572775,1.858588,5.597317,1.813011,5.595782,1.761270,5.595781,1.761270,5.487879,1.465313,5.346363,1.183876,5.173144,0.920761,4.970564,0.679525,4.813743,0.531672,6.002666,0.499964,6.022117,0.497524,6.057754,0.481636,6.084598,0.453321,6.098564,0.416887,6.097524,0.377883,6.081636,0.342246,
6.053320,0.315401,6.016887,0.301436,5.997334,0.300036,4.572818,0.338027,4.488625,0.275385,4.215779,0.117942,3.926505,-0.006776,3.624714,-0.097084,3.314481,-0.151762,3.000000,-0.170070,2.685519,-0.151762,2.375286,-0.097084,2.073495,-0.006776,1.784221,0.117942,1.511375,0.275385,1.427181,0.338027,0.500000,0.313299,0.500000,-0.550000,-0.500000,-0.550000,-0.500000,0.550000,
0.500000,0.550000,0.500000,0.513369,1.186256,0.531672,1.029436,0.679525,0.826856,0.920761,0.653637,1.183876,0.512121,1.465313,0.404219,1.761270,0.404218,1.761270,0.404100,1.765237,0.401922,1.770496,0.400001,1.790005,0.400000,2.540005,0.401921,2.559514,0.416853,2.595562,0.444443,2.623152,0.480491,2.638084,0.519509,2.638084,0.555557,2.623152,0.583147,2.595562,
0.598079,2.559514,0.600000,2.540005,0.600000,1.804709,0.639851,1.672118,0.762832,1.391698,0.918983,1.128305,1.105990,0.885842,1.321079,0.667906,1.400000,0.605363,1.400000,4.040005,1.401921,4.059514,1.416853,4.095562,1.444443,4.123152,1.480491,4.138084,1.519509,4.138084,1.555557,4.123152,1.583147,4.095562,1.598079,4.059514,1.600000,4.040005,1.600000,0.453946,
1.822380,0.318127,2.101158,0.191471,2.393264,0.099636,2.400000,0.098391,2.400000,4.540005,2.401921,4.559514,2.416853,4.595562,2.444443,4.623152,2.480491,4.638084,2.519509,4.638084,2.555557,4.623152,2.555557,4.623152,$1*%
G04 Aperture macros list end*
%ADD10FreePoly0,90.000000*%
%ADD11R,1.100000X1.000000*%
%ADD12FreePoly1,90.000000*%
%ADD13R,2.000000X0.250000*%
%ADD14FreePoly0,0.000000*%
%ADD15R,1.000000X1.100000*%
%ADD16FreePoly1,0.000000*%
%ADD17R,4.000000X0.250000*%
%ADD18RoundRect,0.312500X-0.312500X0.312500X-0.312500X-0.312500X0.312500X-0.312500X0.312500X0.312500X0*%
%ADD19R,0.900000X1.200000*%
%ADD20FreePoly0,180.000000*%
%ADD21FreePoly1,180.000000*%
%ADD22R,0.250000X2.000000*%
G04 APERTURE END LIST*
D10*
%TO.C,L6*%
X193959995Y-118250000D03*
D11*
X193959995Y-112250000D03*
D12*
X199040005Y-118250000D03*
D11*
X199040005Y-112250000D03*
%TD*%
D13*
%TO.C,C8*%
X110462538Y-108600026D03*
X110462538Y-109100026D03*
X110462538Y-109600026D03*
X110462538Y-110100026D03*
X110462538Y-110600026D03*
X110462538Y-111100026D03*
X110462538Y-111600026D03*
X110462538Y-112100026D03*
X110462538Y-112600026D03*
X110462538Y-113100026D03*
%TD*%
D14*
%TO.C,LEFT1*%
X210425165Y-68959868D03*
D15*
X216425165Y-68959868D03*
D16*
X210425165Y-74039878D03*
D15*
X216425165Y-74039878D03*
%TD*%
D10*
%TO.C,L4*%
X183959995Y-108500000D03*
D11*
X183959995Y-102500000D03*
D12*
X189040005Y-108500000D03*
D11*
X189040005Y-102500000D03*
%TD*%
D17*
%TO.C,C4*%
X139075000Y-117499873D03*
X139075000Y-116999873D03*
X139075000Y-116499873D03*
X139075000Y-115999873D03*
X139075000Y-115499873D03*
X139075000Y-114999873D03*
X139075000Y-114499873D03*
X139075000Y-113999873D03*
X139075000Y-113499873D03*
X139075000Y-112999873D03*
X139075000Y-112499873D03*
X139075000Y-111999873D03*
X139075000Y-111499873D03*
X139075000Y-110999873D03*
%TD*%
D14*
%TO.C,L3*%
X182699962Y-84279972D03*
D15*
X188699962Y-84279972D03*
D16*
X182699962Y-89359982D03*
D15*
X188699962Y-89359982D03*
%TD*%
D18*
%TO.C,C6*%
X101673531Y-136499873D03*
X101673531Y-138499873D03*
X101673531Y-140499873D03*
X101673531Y-142499873D03*
%TD*%
D19*
%TO.C,U1*%
X82262538Y-76449810D03*
X86162716Y-76449810D03*
X82262538Y-72400026D03*
X86162716Y-72400026D03*
%TD*%
D17*
%TO.C,C3*%
X190500000Y-142499873D03*
X190500000Y-141999873D03*
X190500000Y-141499873D03*
X190500000Y-140999873D03*
X190500000Y-140499873D03*
X190500000Y-139999873D03*
X190500000Y-139499873D03*
X190500000Y-138999873D03*
%TD*%
D13*
%TO.C,C9*%
X158462538Y-101100026D03*
X158462538Y-101600026D03*
X158462538Y-102100026D03*
X158462538Y-102600026D03*
X158462538Y-103100026D03*
X158462538Y-103600026D03*
X158462538Y-104100026D03*
X158462538Y-104600026D03*
X158462538Y-105100026D03*
X158462538Y-105600026D03*
%TD*%
D19*
%TO.C,U6*%
X82262538Y-136800026D03*
X86162716Y-136800026D03*
X82262538Y-132750242D03*
X86162716Y-132750242D03*
%TD*%
D20*
%TO.C,UP1*%
X208925165Y-81539878D03*
D15*
X202925165Y-81539878D03*
D21*
X208925165Y-76459868D03*
D15*
X202925165Y-76459868D03*
%TD*%
D19*
%TO.C,U7*%
X82262538Y-149600026D03*
X86162716Y-149600026D03*
X82262538Y-145550242D03*
X86162716Y-145550242D03*
%TD*%
%TO.C,U4*%
X82312449Y-66224918D03*
X86212627Y-66224918D03*
X82312449Y-62175134D03*
X86212627Y-62175134D03*
%TD*%
D17*
%TO.C,C7*%
X249549939Y-145499873D03*
X249549939Y-145999873D03*
X249549939Y-146499873D03*
X249549939Y-146999873D03*
X249549939Y-147499873D03*
X249549939Y-147999873D03*
X249549939Y-148499873D03*
X249549939Y-148999873D03*
X249549939Y-149499873D03*
X249549024Y-149998859D03*
%TD*%
D20*
%TO.C,DOWN1*%
X208925165Y-66539878D03*
D15*
X202925165Y-66539878D03*
D21*
X208925165Y-61459868D03*
D15*
X202925165Y-61459868D03*
%TD*%
D10*
%TO.C,L2*%
X184209995Y-128250000D03*
D11*
X184209995Y-122250000D03*
D12*
X189290005Y-128250000D03*
D11*
X189290005Y-122250000D03*
%TD*%
D19*
%TO.C,U5*%
X82262538Y-125849810D03*
X86162716Y-125849810D03*
X82262538Y-121800026D03*
X86162716Y-121800026D03*
%TD*%
%TO.C,U3*%
X82262538Y-55249810D03*
X86162716Y-55249810D03*
X82262538Y-51200026D03*
X86162716Y-51200026D03*
%TD*%
D13*
%TO.C,C1*%
X94925038Y-55999873D03*
X94925038Y-55499873D03*
X94925038Y-54999873D03*
X94925038Y-54499873D03*
X94925038Y-53999873D03*
X94925038Y-53499873D03*
X94925038Y-52999873D03*
X94925038Y-52499873D03*
X94925038Y-51999873D03*
X94925038Y-51499873D03*
%TD*%
D10*
%TO.C,L5*%
X174459995Y-118500000D03*
D11*
X174459995Y-112500000D03*
D12*
X179540005Y-118500000D03*
D11*
X179540005Y-112500000D03*
%TD*%
D22*
%TO.C,C2*%
X184425038Y-63749873D03*
X183925038Y-63749873D03*
X183425038Y-63749873D03*
X182925038Y-63749873D03*
X182425038Y-63749873D03*
X181925038Y-63749873D03*
X181425038Y-63749873D03*
X180925038Y-63749873D03*
X180425038Y-63749873D03*
X179925038Y-63749873D03*
%TD*%
D19*
%TO.C,U2*%
X82312449Y-84124918D03*
X86212627Y-84124918D03*
X82312449Y-80075134D03*
X86212627Y-80075134D03*
%TD*%
D20*
%TO.C,L1*%
X210605188Y-102539878D03*
D15*
X204605188Y-102539878D03*
D21*
X210605188Y-97459868D03*
D15*
X204605188Y-97459868D03*
%TD*%
D14*
%TO.C,RIGHT1*%
X195425165Y-68959868D03*
D15*
X201425165Y-68959868D03*
D16*
X195425165Y-74039878D03*
D15*
X201425165Y-74039878D03*
%TD*%
M02*
