M48
; DRILL file {KiCad 7.0.5} date Tue Jul 25 15:15:19 2023
; FORMAT={-:-/ absolute / inch / decimal}
; #@! TF.CreationDate,2023-07-25T15:15:19+01:00
; #@! TF.GenerationSoftware,Kicad,Pcbnew,7.0.5
; #@! TF.FileFunction,Plated,1,2,PTH
FMAT,2
INCH
; #@! TA.AperFunction,Plated,PTH,ViaDrill
T1C0.0157
%
G90
G05
T1
X1.6043Y-4.4193
X1.9488Y-4.7146
X2.2736Y-4.4094
X2.2736Y-5.1181
X2.313Y-5.0787
X2.3524Y-5.0492
X2.5394Y-5.0295
X2.5886Y-5.0
X2.628Y-4.9803
X2.8346Y-5.0984
X2.8698Y-5.0659
X2.9035Y-5.0374
X2.9429Y-5.0088
X2.9724Y-4.9606
X3.0413Y-5.0689
X5.748Y-3.9469
X5.9547Y-4.2224
X6.0138Y-3.7402
X6.0728Y-3.8189
X6.0827Y-4.065
X6.124Y-3.8189
X6.2008Y-3.8681
X6.2795Y-3.9075
T0
M30
