%TF.GenerationSoftware,KiCad,Pcbnew,8.0.4*%
%TF.CreationDate,2024-08-19T21:12:56+01:00*%
%TF.ProjectId,buttonsSuper,62757474-6f6e-4735-9375-7065722e6b69,rev?*%
%TF.SameCoordinates,Original*%
%TF.FileFunction,OtherDrawing,Comment*%
%FSLAX46Y46*%
G04 Gerber Fmt 4.6, Leading zero omitted, Abs format (unit mm)*
G04 Created by KiCad (PCBNEW 8.0.4) date 2024-08-19 21:12:56*
%MOMM*%
%LPD*%
G01*
G04 APERTURE LIST*
%ADD10C,0.100000*%
G04 APERTURE END LIST*
D10*
%TO.C,C8*%
X111712538Y-113600026D02*
X109274538Y-113605026D01*
X109282538Y-108095026D01*
X111712538Y-108095026D01*
X111712538Y-113600026D01*
G36*
X111712538Y-113600026D02*
G01*
X109274538Y-113605026D01*
X109282538Y-108095026D01*
X111712538Y-108095026D01*
X111712538Y-113600026D01*
G37*
%TO.C,C4*%
X141075000Y-117749873D02*
X137075000Y-117749873D01*
X137075000Y-110749873D01*
X141075000Y-110749873D01*
X141075000Y-117749873D01*
G36*
X141075000Y-117749873D02*
G01*
X137075000Y-117749873D01*
X137075000Y-110749873D01*
X141075000Y-110749873D01*
X141075000Y-117749873D01*
G37*
%TO.C,C3*%
X192677600Y-143001438D02*
X187317600Y-143001438D01*
X187325600Y-138496438D01*
X192685600Y-138496438D01*
X192677600Y-143001438D01*
G36*
X192677600Y-143001438D02*
G01*
X187317600Y-143001438D01*
X187325600Y-138496438D01*
X192685600Y-138496438D01*
X192677600Y-143001438D01*
G37*
%TO.C,C9*%
X159712538Y-106100026D02*
X157274538Y-106105026D01*
X157282538Y-100595026D01*
X159712538Y-100595026D01*
X159712538Y-106100026D01*
G36*
X159712538Y-106100026D02*
G01*
X157274538Y-106105026D01*
X157282538Y-100595026D01*
X159712538Y-100595026D01*
X159712538Y-106100026D01*
G37*
%TO.C,C7*%
X251721939Y-150504873D02*
X246361939Y-150504873D01*
X246369939Y-144994873D01*
X251729939Y-144994873D01*
X251721939Y-150504873D01*
G36*
X251721939Y-150504873D02*
G01*
X246361939Y-150504873D01*
X246369939Y-144994873D01*
X251729939Y-144994873D01*
X251721939Y-150504873D01*
G37*
%TO.C,C1*%
X96105038Y-56504873D02*
X93675038Y-56504873D01*
X93675038Y-50999873D01*
X96113038Y-50994873D01*
X96105038Y-56504873D01*
G36*
X96105038Y-56504873D02*
G01*
X93675038Y-56504873D01*
X93675038Y-50999873D01*
X96113038Y-50994873D01*
X96105038Y-56504873D01*
G37*
%TO.C,C2*%
X184930038Y-62569873D02*
X184930038Y-64999873D01*
X179425038Y-64999873D01*
X179420038Y-62561873D01*
X184930038Y-62569873D01*
G36*
X184930038Y-62569873D02*
G01*
X184930038Y-64999873D01*
X179425038Y-64999873D01*
X179420038Y-62561873D01*
X184930038Y-62569873D01*
G37*
%TO.C,C5*%
X97688000Y-128754873D02*
X92328000Y-128754873D01*
X92320000Y-123244873D01*
X97680000Y-123244873D01*
X97688000Y-128754873D01*
G36*
X97688000Y-128754873D02*
G01*
X92328000Y-128754873D01*
X92320000Y-123244873D01*
X97680000Y-123244873D01*
X97688000Y-128754873D01*
G37*
%TD*%
M02*
