M48
; DRILL file {KiCad 8.0.4} date 2024-08-19T21:12:59+0100
; FORMAT={-:-/ absolute / inch / decimal}
; #@! TF.CreationDate,2024-08-19T21:12:59+01:00
; #@! TF.GenerationSoftware,Kicad,Pcbnew,8.0.4
; #@! TF.FileFunction,Plated,1,2,PTH
FMAT,2
INCH
; #@! TA.AperFunction,Plated,PTH,ViaDrill
T1C0.0157
%
G90
G05
T1
X3.2677Y-4.5079
X3.2859Y-4.2953
X3.2859Y-4.3543
X3.2869Y-4.1772
X3.2928Y-4.0979
X3.3056Y-3.4488
X3.3071Y-4.5512
X3.3071Y-4.626
X3.3246Y-4.0009
X3.3253Y-3.9213
X3.345Y-2.6614
X3.3558Y-5.1614
X3.3844Y-2.7598
X3.3844Y-3.0945
X3.3844Y-3.4291
X3.3844Y-3.5276
X3.3844Y-5.6535
X3.7205Y-4.1427
X3.7402Y-4.0837
X3.7992Y-4.1142
X3.8897Y-5.8464
X3.9094Y-5.5315
X3.9291Y-5.374
X4.0078Y-5.8956
X6.7018Y-2.0659
X6.7608Y-2.0856
X6.8199Y-2.1161
X6.8593Y-2.1555
X6.8898Y-4.7736
X6.938Y-2.1752
X7.0177Y-5.1083
X7.0866Y-4.9803
X7.0955Y-4.3799
X7.0965Y-5.0492
X7.1348Y-2.0768
X7.1545Y-2.1161
X7.2146Y-4.6457
X7.2333Y-2.1161
X7.2657Y-4.6457
X7.3317Y-4.3799
X7.3425Y-4.6949
X7.3514Y-2.1358
X7.3514Y-3.9075
X7.4104Y-3.9665
X7.4301Y-2.1752
X7.7254Y-2.6279
X7.7825Y-2.0374
X7.8238Y-2.5295
X7.9031Y-2.9818
X7.9813Y-4.0059
X8.0089Y-3.3071
X8.2766Y-2.6279
X8.3041Y-3.0315
X8.4734Y-2.5689
M30
