%TF.GenerationSoftware,KiCad,Pcbnew,8.0.4*%
%TF.CreationDate,2024-08-19T21:12:56+01:00*%
%TF.ProjectId,buttonsSuper,62757474-6f6e-4735-9375-7065722e6b69,rev?*%
%TF.SameCoordinates,Original*%
%TF.FileFunction,Other,Comment*%
%FSLAX46Y46*%
G04 Gerber Fmt 4.6, Leading zero omitted, Abs format (unit mm)*
G04 Created by KiCad (PCBNEW 8.0.4) date 2024-08-19 21:12:56*
%MOMM*%
%LPD*%
G01*
G04 APERTURE LIST*
%ADD10C,0.150000*%
G04 APERTURE END LIST*
D10*
X107789160Y-36272480D02*
X107926064Y-36320099D01*
X107926064Y-36320099D02*
X108164160Y-36320099D01*
X108164160Y-36320099D02*
X108265350Y-36272480D01*
X108265350Y-36272480D02*
X108318922Y-36224860D01*
X108318922Y-36224860D02*
X108378445Y-36129622D01*
X108378445Y-36129622D02*
X108390350Y-36034384D01*
X108390350Y-36034384D02*
X108354636Y-35939146D01*
X108354636Y-35939146D02*
X108312969Y-35891527D01*
X108312969Y-35891527D02*
X108223684Y-35843908D01*
X108223684Y-35843908D02*
X108039160Y-35796289D01*
X108039160Y-35796289D02*
X107949874Y-35748670D01*
X107949874Y-35748670D02*
X107908207Y-35701051D01*
X107908207Y-35701051D02*
X107872493Y-35605813D01*
X107872493Y-35605813D02*
X107884398Y-35510575D01*
X107884398Y-35510575D02*
X107943922Y-35415337D01*
X107943922Y-35415337D02*
X107997493Y-35367718D01*
X107997493Y-35367718D02*
X108098684Y-35320099D01*
X108098684Y-35320099D02*
X108336779Y-35320099D01*
X108336779Y-35320099D02*
X108473684Y-35367718D01*
X108723684Y-35653432D02*
X109104636Y-35653432D01*
X108908207Y-35320099D02*
X108801065Y-36177241D01*
X108801065Y-36177241D02*
X108836779Y-36272480D01*
X108836779Y-36272480D02*
X108926065Y-36320099D01*
X108926065Y-36320099D02*
X109021303Y-36320099D01*
X109354636Y-36320099D02*
X109437970Y-35653432D01*
X109479636Y-35320099D02*
X109426065Y-35367718D01*
X109426065Y-35367718D02*
X109467732Y-35415337D01*
X109467732Y-35415337D02*
X109521303Y-35367718D01*
X109521303Y-35367718D02*
X109479636Y-35320099D01*
X109479636Y-35320099D02*
X109467732Y-35415337D01*
X109771303Y-35653432D02*
X110152255Y-35653432D01*
X109830826Y-36320099D02*
X109937969Y-35462956D01*
X109937969Y-35462956D02*
X109997493Y-35367718D01*
X109997493Y-35367718D02*
X110098684Y-35320099D01*
X110098684Y-35320099D02*
X110193922Y-35320099D01*
X110342732Y-35653432D02*
X110723684Y-35653432D01*
X110402255Y-36320099D02*
X110509398Y-35462956D01*
X110509398Y-35462956D02*
X110568922Y-35367718D01*
X110568922Y-35367718D02*
X110670113Y-35320099D01*
X110670113Y-35320099D02*
X110765351Y-35320099D01*
X111360589Y-36272480D02*
X111259399Y-36320099D01*
X111259399Y-36320099D02*
X111068922Y-36320099D01*
X111068922Y-36320099D02*
X110979637Y-36272480D01*
X110979637Y-36272480D02*
X110943922Y-36177241D01*
X110943922Y-36177241D02*
X110991542Y-35796289D01*
X110991542Y-35796289D02*
X111051065Y-35701051D01*
X111051065Y-35701051D02*
X111152256Y-35653432D01*
X111152256Y-35653432D02*
X111342732Y-35653432D01*
X111342732Y-35653432D02*
X111432018Y-35701051D01*
X111432018Y-35701051D02*
X111467732Y-35796289D01*
X111467732Y-35796289D02*
X111455827Y-35891527D01*
X111455827Y-35891527D02*
X110967732Y-35986765D01*
X111914161Y-35653432D02*
X111830827Y-36320099D01*
X111902256Y-35748670D02*
X111955827Y-35701051D01*
X111955827Y-35701051D02*
X112057018Y-35653432D01*
X112057018Y-35653432D02*
X112199875Y-35653432D01*
X112199875Y-35653432D02*
X112289161Y-35701051D01*
X112289161Y-35701051D02*
X112324875Y-35796289D01*
X112324875Y-35796289D02*
X112259399Y-36320099D01*
X113122494Y-36272480D02*
X113021304Y-36320099D01*
X113021304Y-36320099D02*
X112830827Y-36320099D01*
X112830827Y-36320099D02*
X112741542Y-36272480D01*
X112741542Y-36272480D02*
X112705827Y-36177241D01*
X112705827Y-36177241D02*
X112753447Y-35796289D01*
X112753447Y-35796289D02*
X112812970Y-35701051D01*
X112812970Y-35701051D02*
X112914161Y-35653432D01*
X112914161Y-35653432D02*
X113104637Y-35653432D01*
X113104637Y-35653432D02*
X113193923Y-35701051D01*
X113193923Y-35701051D02*
X113229637Y-35796289D01*
X113229637Y-35796289D02*
X113217732Y-35891527D01*
X113217732Y-35891527D02*
X112729637Y-35986765D01*
X113592732Y-36320099D02*
X113676066Y-35653432D01*
X113652256Y-35843908D02*
X113711780Y-35748670D01*
X113711780Y-35748670D02*
X113765351Y-35701051D01*
X113765351Y-35701051D02*
X113866542Y-35653432D01*
X113866542Y-35653432D02*
X113961780Y-35653432D01*
X114223685Y-36224860D02*
X114265352Y-36272480D01*
X114265352Y-36272480D02*
X114211780Y-36320099D01*
X114211780Y-36320099D02*
X114170114Y-36272480D01*
X114170114Y-36272480D02*
X114223685Y-36224860D01*
X114223685Y-36224860D02*
X114211780Y-36320099D01*
X114289161Y-35701051D02*
X114330828Y-35748670D01*
X114330828Y-35748670D02*
X114277257Y-35796289D01*
X114277257Y-35796289D02*
X114235590Y-35748670D01*
X114235590Y-35748670D02*
X114289161Y-35701051D01*
X114289161Y-35701051D02*
X114277257Y-35796289D01*
X115449875Y-36320099D02*
X115574875Y-35320099D01*
X115574875Y-35320099D02*
X115955828Y-35320099D01*
X115955828Y-35320099D02*
X116045113Y-35367718D01*
X116045113Y-35367718D02*
X116086780Y-35415337D01*
X116086780Y-35415337D02*
X116122494Y-35510575D01*
X116122494Y-35510575D02*
X116104637Y-35653432D01*
X116104637Y-35653432D02*
X116045113Y-35748670D01*
X116045113Y-35748670D02*
X115991542Y-35796289D01*
X115991542Y-35796289D02*
X115890352Y-35843908D01*
X115890352Y-35843908D02*
X115509399Y-35843908D01*
X116592733Y-36320099D02*
X116503447Y-36272480D01*
X116503447Y-36272480D02*
X116461780Y-36224860D01*
X116461780Y-36224860D02*
X116426066Y-36129622D01*
X116426066Y-36129622D02*
X116461780Y-35843908D01*
X116461780Y-35843908D02*
X116521304Y-35748670D01*
X116521304Y-35748670D02*
X116574875Y-35701051D01*
X116574875Y-35701051D02*
X116676066Y-35653432D01*
X116676066Y-35653432D02*
X116818923Y-35653432D01*
X116818923Y-35653432D02*
X116908209Y-35701051D01*
X116908209Y-35701051D02*
X116949875Y-35748670D01*
X116949875Y-35748670D02*
X116985590Y-35843908D01*
X116985590Y-35843908D02*
X116949875Y-36129622D01*
X116949875Y-36129622D02*
X116890352Y-36224860D01*
X116890352Y-36224860D02*
X116836780Y-36272480D01*
X116836780Y-36272480D02*
X116735590Y-36320099D01*
X116735590Y-36320099D02*
X116592733Y-36320099D01*
X117497495Y-36320099D02*
X117408209Y-36272480D01*
X117408209Y-36272480D02*
X117372495Y-36177241D01*
X117372495Y-36177241D02*
X117479637Y-35320099D01*
X117866543Y-35653432D02*
X118021305Y-36320099D01*
X118342733Y-35653432D02*
X118021305Y-36320099D01*
X118021305Y-36320099D02*
X117896305Y-36558194D01*
X117896305Y-36558194D02*
X117842733Y-36605813D01*
X117842733Y-36605813D02*
X117741543Y-36653432D01*
X118640352Y-36320099D02*
X118723686Y-35653432D01*
X118765352Y-35320099D02*
X118711781Y-35367718D01*
X118711781Y-35367718D02*
X118753448Y-35415337D01*
X118753448Y-35415337D02*
X118807019Y-35367718D01*
X118807019Y-35367718D02*
X118765352Y-35320099D01*
X118765352Y-35320099D02*
X118753448Y-35415337D01*
X119116542Y-36320099D02*
X119199876Y-35653432D01*
X119187971Y-35748670D02*
X119241542Y-35701051D01*
X119241542Y-35701051D02*
X119342733Y-35653432D01*
X119342733Y-35653432D02*
X119485590Y-35653432D01*
X119485590Y-35653432D02*
X119574876Y-35701051D01*
X119574876Y-35701051D02*
X119610590Y-35796289D01*
X119610590Y-35796289D02*
X119545114Y-36320099D01*
X119610590Y-35796289D02*
X119670114Y-35701051D01*
X119670114Y-35701051D02*
X119771304Y-35653432D01*
X119771304Y-35653432D02*
X119914161Y-35653432D01*
X119914161Y-35653432D02*
X120003447Y-35701051D01*
X120003447Y-35701051D02*
X120039161Y-35796289D01*
X120039161Y-35796289D02*
X119973685Y-36320099D01*
X120449875Y-36320099D02*
X120533209Y-35653432D01*
X120574875Y-35320099D02*
X120521304Y-35367718D01*
X120521304Y-35367718D02*
X120562971Y-35415337D01*
X120562971Y-35415337D02*
X120616542Y-35367718D01*
X120616542Y-35367718D02*
X120574875Y-35320099D01*
X120574875Y-35320099D02*
X120562971Y-35415337D01*
X121354637Y-36320099D02*
X121479637Y-35320099D01*
X121360589Y-36272480D02*
X121259399Y-36320099D01*
X121259399Y-36320099D02*
X121068923Y-36320099D01*
X121068923Y-36320099D02*
X120979637Y-36272480D01*
X120979637Y-36272480D02*
X120937970Y-36224860D01*
X120937970Y-36224860D02*
X120902256Y-36129622D01*
X120902256Y-36129622D02*
X120937970Y-35843908D01*
X120937970Y-35843908D02*
X120997494Y-35748670D01*
X120997494Y-35748670D02*
X121051065Y-35701051D01*
X121051065Y-35701051D02*
X121152256Y-35653432D01*
X121152256Y-35653432D02*
X121342732Y-35653432D01*
X121342732Y-35653432D02*
X121432018Y-35701051D01*
X122217732Y-36272480D02*
X122116542Y-36320099D01*
X122116542Y-36320099D02*
X121926065Y-36320099D01*
X121926065Y-36320099D02*
X121836780Y-36272480D01*
X121836780Y-36272480D02*
X121801065Y-36177241D01*
X121801065Y-36177241D02*
X121848685Y-35796289D01*
X121848685Y-35796289D02*
X121908208Y-35701051D01*
X121908208Y-35701051D02*
X122009399Y-35653432D01*
X122009399Y-35653432D02*
X122199875Y-35653432D01*
X122199875Y-35653432D02*
X122289161Y-35701051D01*
X122289161Y-35701051D02*
X122324875Y-35796289D01*
X122324875Y-35796289D02*
X122312970Y-35891527D01*
X122312970Y-35891527D02*
X121824875Y-35986765D01*
X107789160Y-37882424D02*
X107926064Y-37930043D01*
X107926064Y-37930043D02*
X108164160Y-37930043D01*
X108164160Y-37930043D02*
X108265350Y-37882424D01*
X108265350Y-37882424D02*
X108318922Y-37834804D01*
X108318922Y-37834804D02*
X108378445Y-37739566D01*
X108378445Y-37739566D02*
X108390350Y-37644328D01*
X108390350Y-37644328D02*
X108354636Y-37549090D01*
X108354636Y-37549090D02*
X108312969Y-37501471D01*
X108312969Y-37501471D02*
X108223684Y-37453852D01*
X108223684Y-37453852D02*
X108039160Y-37406233D01*
X108039160Y-37406233D02*
X107949874Y-37358614D01*
X107949874Y-37358614D02*
X107908207Y-37310995D01*
X107908207Y-37310995D02*
X107872493Y-37215757D01*
X107872493Y-37215757D02*
X107884398Y-37120519D01*
X107884398Y-37120519D02*
X107943922Y-37025281D01*
X107943922Y-37025281D02*
X107997493Y-36977662D01*
X107997493Y-36977662D02*
X108098684Y-36930043D01*
X108098684Y-36930043D02*
X108336779Y-36930043D01*
X108336779Y-36930043D02*
X108473684Y-36977662D01*
X108723684Y-37263376D02*
X109104636Y-37263376D01*
X108908207Y-36930043D02*
X108801065Y-37787185D01*
X108801065Y-37787185D02*
X108836779Y-37882424D01*
X108836779Y-37882424D02*
X108926065Y-37930043D01*
X108926065Y-37930043D02*
X109021303Y-37930043D01*
X109354636Y-37930043D02*
X109437970Y-37263376D01*
X109479636Y-36930043D02*
X109426065Y-36977662D01*
X109426065Y-36977662D02*
X109467732Y-37025281D01*
X109467732Y-37025281D02*
X109521303Y-36977662D01*
X109521303Y-36977662D02*
X109479636Y-36930043D01*
X109479636Y-36930043D02*
X109467732Y-37025281D01*
X109771303Y-37263376D02*
X110152255Y-37263376D01*
X109830826Y-37930043D02*
X109937969Y-37072900D01*
X109937969Y-37072900D02*
X109997493Y-36977662D01*
X109997493Y-36977662D02*
X110098684Y-36930043D01*
X110098684Y-36930043D02*
X110193922Y-36930043D01*
X110342732Y-37263376D02*
X110723684Y-37263376D01*
X110402255Y-37930043D02*
X110509398Y-37072900D01*
X110509398Y-37072900D02*
X110568922Y-36977662D01*
X110568922Y-36977662D02*
X110670113Y-36930043D01*
X110670113Y-36930043D02*
X110765351Y-36930043D01*
X111360589Y-37882424D02*
X111259399Y-37930043D01*
X111259399Y-37930043D02*
X111068922Y-37930043D01*
X111068922Y-37930043D02*
X110979637Y-37882424D01*
X110979637Y-37882424D02*
X110943922Y-37787185D01*
X110943922Y-37787185D02*
X110991542Y-37406233D01*
X110991542Y-37406233D02*
X111051065Y-37310995D01*
X111051065Y-37310995D02*
X111152256Y-37263376D01*
X111152256Y-37263376D02*
X111342732Y-37263376D01*
X111342732Y-37263376D02*
X111432018Y-37310995D01*
X111432018Y-37310995D02*
X111467732Y-37406233D01*
X111467732Y-37406233D02*
X111455827Y-37501471D01*
X111455827Y-37501471D02*
X110967732Y-37596709D01*
X111914161Y-37263376D02*
X111830827Y-37930043D01*
X111902256Y-37358614D02*
X111955827Y-37310995D01*
X111955827Y-37310995D02*
X112057018Y-37263376D01*
X112057018Y-37263376D02*
X112199875Y-37263376D01*
X112199875Y-37263376D02*
X112289161Y-37310995D01*
X112289161Y-37310995D02*
X112324875Y-37406233D01*
X112324875Y-37406233D02*
X112259399Y-37930043D01*
X113122494Y-37882424D02*
X113021304Y-37930043D01*
X113021304Y-37930043D02*
X112830827Y-37930043D01*
X112830827Y-37930043D02*
X112741542Y-37882424D01*
X112741542Y-37882424D02*
X112705827Y-37787185D01*
X112705827Y-37787185D02*
X112753447Y-37406233D01*
X112753447Y-37406233D02*
X112812970Y-37310995D01*
X112812970Y-37310995D02*
X112914161Y-37263376D01*
X112914161Y-37263376D02*
X113104637Y-37263376D01*
X113104637Y-37263376D02*
X113193923Y-37310995D01*
X113193923Y-37310995D02*
X113229637Y-37406233D01*
X113229637Y-37406233D02*
X113217732Y-37501471D01*
X113217732Y-37501471D02*
X112729637Y-37596709D01*
X113592732Y-37930043D02*
X113676066Y-37263376D01*
X113652256Y-37453852D02*
X113711780Y-37358614D01*
X113711780Y-37358614D02*
X113765351Y-37310995D01*
X113765351Y-37310995D02*
X113866542Y-37263376D01*
X113866542Y-37263376D02*
X113961780Y-37263376D01*
X114914162Y-37263376D02*
X115295114Y-37263376D01*
X115098685Y-36930043D02*
X114991543Y-37787185D01*
X114991543Y-37787185D02*
X115027257Y-37882424D01*
X115027257Y-37882424D02*
X115116543Y-37930043D01*
X115116543Y-37930043D02*
X115211781Y-37930043D01*
X115545114Y-37930043D02*
X115670114Y-36930043D01*
X115973686Y-37930043D02*
X116039162Y-37406233D01*
X116039162Y-37406233D02*
X116003448Y-37310995D01*
X116003448Y-37310995D02*
X115914162Y-37263376D01*
X115914162Y-37263376D02*
X115771305Y-37263376D01*
X115771305Y-37263376D02*
X115670114Y-37310995D01*
X115670114Y-37310995D02*
X115616543Y-37358614D01*
X116449876Y-37930043D02*
X116533210Y-37263376D01*
X116574876Y-36930043D02*
X116521305Y-36977662D01*
X116521305Y-36977662D02*
X116562972Y-37025281D01*
X116562972Y-37025281D02*
X116616543Y-36977662D01*
X116616543Y-36977662D02*
X116574876Y-36930043D01*
X116574876Y-36930043D02*
X116562972Y-37025281D01*
X117360590Y-37882424D02*
X117259400Y-37930043D01*
X117259400Y-37930043D02*
X117068924Y-37930043D01*
X117068924Y-37930043D02*
X116979638Y-37882424D01*
X116979638Y-37882424D02*
X116937971Y-37834804D01*
X116937971Y-37834804D02*
X116902257Y-37739566D01*
X116902257Y-37739566D02*
X116937971Y-37453852D01*
X116937971Y-37453852D02*
X116997495Y-37358614D01*
X116997495Y-37358614D02*
X117051066Y-37310995D01*
X117051066Y-37310995D02*
X117152257Y-37263376D01*
X117152257Y-37263376D02*
X117342733Y-37263376D01*
X117342733Y-37263376D02*
X117432019Y-37310995D01*
X117783209Y-37930043D02*
X117908209Y-36930043D01*
X117926067Y-37549090D02*
X118164162Y-37930043D01*
X118247495Y-37263376D02*
X117818924Y-37644328D01*
X118676067Y-37263376D02*
X118592733Y-37930043D01*
X118664162Y-37358614D02*
X118717733Y-37310995D01*
X118717733Y-37310995D02*
X118818924Y-37263376D01*
X118818924Y-37263376D02*
X118961781Y-37263376D01*
X118961781Y-37263376D02*
X119051067Y-37310995D01*
X119051067Y-37310995D02*
X119086781Y-37406233D01*
X119086781Y-37406233D02*
X119021305Y-37930043D01*
X119884400Y-37882424D02*
X119783210Y-37930043D01*
X119783210Y-37930043D02*
X119592733Y-37930043D01*
X119592733Y-37930043D02*
X119503448Y-37882424D01*
X119503448Y-37882424D02*
X119467733Y-37787185D01*
X119467733Y-37787185D02*
X119515353Y-37406233D01*
X119515353Y-37406233D02*
X119574876Y-37310995D01*
X119574876Y-37310995D02*
X119676067Y-37263376D01*
X119676067Y-37263376D02*
X119866543Y-37263376D01*
X119866543Y-37263376D02*
X119955829Y-37310995D01*
X119955829Y-37310995D02*
X119991543Y-37406233D01*
X119991543Y-37406233D02*
X119979638Y-37501471D01*
X119979638Y-37501471D02*
X119491543Y-37596709D01*
X120312972Y-37882424D02*
X120402257Y-37930043D01*
X120402257Y-37930043D02*
X120592734Y-37930043D01*
X120592734Y-37930043D02*
X120693924Y-37882424D01*
X120693924Y-37882424D02*
X120753448Y-37787185D01*
X120753448Y-37787185D02*
X120759400Y-37739566D01*
X120759400Y-37739566D02*
X120723686Y-37644328D01*
X120723686Y-37644328D02*
X120634400Y-37596709D01*
X120634400Y-37596709D02*
X120491543Y-37596709D01*
X120491543Y-37596709D02*
X120402257Y-37549090D01*
X120402257Y-37549090D02*
X120366543Y-37453852D01*
X120366543Y-37453852D02*
X120372496Y-37406233D01*
X120372496Y-37406233D02*
X120432019Y-37310995D01*
X120432019Y-37310995D02*
X120533210Y-37263376D01*
X120533210Y-37263376D02*
X120676067Y-37263376D01*
X120676067Y-37263376D02*
X120765353Y-37310995D01*
X121122496Y-37882424D02*
X121211781Y-37930043D01*
X121211781Y-37930043D02*
X121402258Y-37930043D01*
X121402258Y-37930043D02*
X121503448Y-37882424D01*
X121503448Y-37882424D02*
X121562972Y-37787185D01*
X121562972Y-37787185D02*
X121568924Y-37739566D01*
X121568924Y-37739566D02*
X121533210Y-37644328D01*
X121533210Y-37644328D02*
X121443924Y-37596709D01*
X121443924Y-37596709D02*
X121301067Y-37596709D01*
X121301067Y-37596709D02*
X121211781Y-37549090D01*
X121211781Y-37549090D02*
X121176067Y-37453852D01*
X121176067Y-37453852D02*
X121182020Y-37406233D01*
X121182020Y-37406233D02*
X121241543Y-37310995D01*
X121241543Y-37310995D02*
X121342734Y-37263376D01*
X121342734Y-37263376D02*
X121485591Y-37263376D01*
X121485591Y-37263376D02*
X121574877Y-37310995D01*
X121985591Y-37834804D02*
X122027258Y-37882424D01*
X122027258Y-37882424D02*
X121973686Y-37930043D01*
X121973686Y-37930043D02*
X121932020Y-37882424D01*
X121932020Y-37882424D02*
X121985591Y-37834804D01*
X121985591Y-37834804D02*
X121973686Y-37930043D01*
X122051067Y-37310995D02*
X122092734Y-37358614D01*
X122092734Y-37358614D02*
X122039163Y-37406233D01*
X122039163Y-37406233D02*
X121997496Y-37358614D01*
X121997496Y-37358614D02*
X122051067Y-37310995D01*
X122051067Y-37310995D02*
X122039163Y-37406233D01*
X123527258Y-36930043D02*
X123622496Y-36930043D01*
X123622496Y-36930043D02*
X123711781Y-36977662D01*
X123711781Y-36977662D02*
X123753448Y-37025281D01*
X123753448Y-37025281D02*
X123789162Y-37120519D01*
X123789162Y-37120519D02*
X123812972Y-37310995D01*
X123812972Y-37310995D02*
X123783210Y-37549090D01*
X123783210Y-37549090D02*
X123711781Y-37739566D01*
X123711781Y-37739566D02*
X123652258Y-37834804D01*
X123652258Y-37834804D02*
X123598686Y-37882424D01*
X123598686Y-37882424D02*
X123497496Y-37930043D01*
X123497496Y-37930043D02*
X123402258Y-37930043D01*
X123402258Y-37930043D02*
X123312972Y-37882424D01*
X123312972Y-37882424D02*
X123271305Y-37834804D01*
X123271305Y-37834804D02*
X123235591Y-37739566D01*
X123235591Y-37739566D02*
X123211781Y-37549090D01*
X123211781Y-37549090D02*
X123241543Y-37310995D01*
X123241543Y-37310995D02*
X123312972Y-37120519D01*
X123312972Y-37120519D02*
X123372496Y-37025281D01*
X123372496Y-37025281D02*
X123426067Y-36977662D01*
X123426067Y-36977662D02*
X123527258Y-36930043D01*
X124176067Y-37834804D02*
X124217734Y-37882424D01*
X124217734Y-37882424D02*
X124164162Y-37930043D01*
X124164162Y-37930043D02*
X124122496Y-37882424D01*
X124122496Y-37882424D02*
X124176067Y-37834804D01*
X124176067Y-37834804D02*
X124164162Y-37930043D01*
X124705829Y-37025281D02*
X124759400Y-36977662D01*
X124759400Y-36977662D02*
X124860590Y-36930043D01*
X124860590Y-36930043D02*
X125098686Y-36930043D01*
X125098686Y-36930043D02*
X125187971Y-36977662D01*
X125187971Y-36977662D02*
X125229638Y-37025281D01*
X125229638Y-37025281D02*
X125265352Y-37120519D01*
X125265352Y-37120519D02*
X125253448Y-37215757D01*
X125253448Y-37215757D02*
X125187971Y-37358614D01*
X125187971Y-37358614D02*
X124545114Y-37930043D01*
X124545114Y-37930043D02*
X125164162Y-37930043D01*
X125592733Y-37930043D02*
X125676067Y-37263376D01*
X125664162Y-37358614D02*
X125717733Y-37310995D01*
X125717733Y-37310995D02*
X125818924Y-37263376D01*
X125818924Y-37263376D02*
X125961781Y-37263376D01*
X125961781Y-37263376D02*
X126051067Y-37310995D01*
X126051067Y-37310995D02*
X126086781Y-37406233D01*
X126086781Y-37406233D02*
X126021305Y-37930043D01*
X126086781Y-37406233D02*
X126146305Y-37310995D01*
X126146305Y-37310995D02*
X126247495Y-37263376D01*
X126247495Y-37263376D02*
X126390352Y-37263376D01*
X126390352Y-37263376D02*
X126479638Y-37310995D01*
X126479638Y-37310995D02*
X126515352Y-37406233D01*
X126515352Y-37406233D02*
X126449876Y-37930043D01*
X126926066Y-37930043D02*
X127009400Y-37263376D01*
X126997495Y-37358614D02*
X127051066Y-37310995D01*
X127051066Y-37310995D02*
X127152257Y-37263376D01*
X127152257Y-37263376D02*
X127295114Y-37263376D01*
X127295114Y-37263376D02*
X127384400Y-37310995D01*
X127384400Y-37310995D02*
X127420114Y-37406233D01*
X127420114Y-37406233D02*
X127354638Y-37930043D01*
X127420114Y-37406233D02*
X127479638Y-37310995D01*
X127479638Y-37310995D02*
X127580828Y-37263376D01*
X127580828Y-37263376D02*
X127723685Y-37263376D01*
X127723685Y-37263376D02*
X127812971Y-37310995D01*
X127812971Y-37310995D02*
X127848685Y-37406233D01*
X127848685Y-37406233D02*
X127783209Y-37930043D01*
X107789160Y-39492368D02*
X107926064Y-39539987D01*
X107926064Y-39539987D02*
X108164160Y-39539987D01*
X108164160Y-39539987D02*
X108265350Y-39492368D01*
X108265350Y-39492368D02*
X108318922Y-39444748D01*
X108318922Y-39444748D02*
X108378445Y-39349510D01*
X108378445Y-39349510D02*
X108390350Y-39254272D01*
X108390350Y-39254272D02*
X108354636Y-39159034D01*
X108354636Y-39159034D02*
X108312969Y-39111415D01*
X108312969Y-39111415D02*
X108223684Y-39063796D01*
X108223684Y-39063796D02*
X108039160Y-39016177D01*
X108039160Y-39016177D02*
X107949874Y-38968558D01*
X107949874Y-38968558D02*
X107908207Y-38920939D01*
X107908207Y-38920939D02*
X107872493Y-38825701D01*
X107872493Y-38825701D02*
X107884398Y-38730463D01*
X107884398Y-38730463D02*
X107943922Y-38635225D01*
X107943922Y-38635225D02*
X107997493Y-38587606D01*
X107997493Y-38587606D02*
X108098684Y-38539987D01*
X108098684Y-38539987D02*
X108336779Y-38539987D01*
X108336779Y-38539987D02*
X108473684Y-38587606D01*
X108723684Y-38873320D02*
X109104636Y-38873320D01*
X108908207Y-38539987D02*
X108801065Y-39397129D01*
X108801065Y-39397129D02*
X108836779Y-39492368D01*
X108836779Y-39492368D02*
X108926065Y-39539987D01*
X108926065Y-39539987D02*
X109021303Y-39539987D01*
X109354636Y-39539987D02*
X109437970Y-38873320D01*
X109479636Y-38539987D02*
X109426065Y-38587606D01*
X109426065Y-38587606D02*
X109467732Y-38635225D01*
X109467732Y-38635225D02*
X109521303Y-38587606D01*
X109521303Y-38587606D02*
X109479636Y-38539987D01*
X109479636Y-38539987D02*
X109467732Y-38635225D01*
X109771303Y-38873320D02*
X110152255Y-38873320D01*
X109830826Y-39539987D02*
X109937969Y-38682844D01*
X109937969Y-38682844D02*
X109997493Y-38587606D01*
X109997493Y-38587606D02*
X110098684Y-38539987D01*
X110098684Y-38539987D02*
X110193922Y-38539987D01*
X110342732Y-38873320D02*
X110723684Y-38873320D01*
X110402255Y-39539987D02*
X110509398Y-38682844D01*
X110509398Y-38682844D02*
X110568922Y-38587606D01*
X110568922Y-38587606D02*
X110670113Y-38539987D01*
X110670113Y-38539987D02*
X110765351Y-38539987D01*
X111360589Y-39492368D02*
X111259399Y-39539987D01*
X111259399Y-39539987D02*
X111068922Y-39539987D01*
X111068922Y-39539987D02*
X110979637Y-39492368D01*
X110979637Y-39492368D02*
X110943922Y-39397129D01*
X110943922Y-39397129D02*
X110991542Y-39016177D01*
X110991542Y-39016177D02*
X111051065Y-38920939D01*
X111051065Y-38920939D02*
X111152256Y-38873320D01*
X111152256Y-38873320D02*
X111342732Y-38873320D01*
X111342732Y-38873320D02*
X111432018Y-38920939D01*
X111432018Y-38920939D02*
X111467732Y-39016177D01*
X111467732Y-39016177D02*
X111455827Y-39111415D01*
X111455827Y-39111415D02*
X110967732Y-39206653D01*
X111914161Y-38873320D02*
X111830827Y-39539987D01*
X111902256Y-38968558D02*
X111955827Y-38920939D01*
X111955827Y-38920939D02*
X112057018Y-38873320D01*
X112057018Y-38873320D02*
X112199875Y-38873320D01*
X112199875Y-38873320D02*
X112289161Y-38920939D01*
X112289161Y-38920939D02*
X112324875Y-39016177D01*
X112324875Y-39016177D02*
X112259399Y-39539987D01*
X113122494Y-39492368D02*
X113021304Y-39539987D01*
X113021304Y-39539987D02*
X112830827Y-39539987D01*
X112830827Y-39539987D02*
X112741542Y-39492368D01*
X112741542Y-39492368D02*
X112705827Y-39397129D01*
X112705827Y-39397129D02*
X112753447Y-39016177D01*
X112753447Y-39016177D02*
X112812970Y-38920939D01*
X112812970Y-38920939D02*
X112914161Y-38873320D01*
X112914161Y-38873320D02*
X113104637Y-38873320D01*
X113104637Y-38873320D02*
X113193923Y-38920939D01*
X113193923Y-38920939D02*
X113229637Y-39016177D01*
X113229637Y-39016177D02*
X113217732Y-39111415D01*
X113217732Y-39111415D02*
X112729637Y-39206653D01*
X113592732Y-39539987D02*
X113676066Y-38873320D01*
X113652256Y-39063796D02*
X113711780Y-38968558D01*
X113711780Y-38968558D02*
X113765351Y-38920939D01*
X113765351Y-38920939D02*
X113866542Y-38873320D01*
X113866542Y-38873320D02*
X113961780Y-38873320D01*
X115449876Y-39539987D02*
X114973685Y-39539987D01*
X114973685Y-39539987D02*
X115098685Y-38539987D01*
X115926067Y-39539987D02*
X115836781Y-39492368D01*
X115836781Y-39492368D02*
X115795114Y-39444748D01*
X115795114Y-39444748D02*
X115759400Y-39349510D01*
X115759400Y-39349510D02*
X115795114Y-39063796D01*
X115795114Y-39063796D02*
X115854638Y-38968558D01*
X115854638Y-38968558D02*
X115908209Y-38920939D01*
X115908209Y-38920939D02*
X116009400Y-38873320D01*
X116009400Y-38873320D02*
X116152257Y-38873320D01*
X116152257Y-38873320D02*
X116241543Y-38920939D01*
X116241543Y-38920939D02*
X116283209Y-38968558D01*
X116283209Y-38968558D02*
X116318924Y-39063796D01*
X116318924Y-39063796D02*
X116283209Y-39349510D01*
X116283209Y-39349510D02*
X116223686Y-39444748D01*
X116223686Y-39444748D02*
X116170114Y-39492368D01*
X116170114Y-39492368D02*
X116068924Y-39539987D01*
X116068924Y-39539987D02*
X115926067Y-39539987D01*
X117122495Y-39492368D02*
X117021305Y-39539987D01*
X117021305Y-39539987D02*
X116830829Y-39539987D01*
X116830829Y-39539987D02*
X116741543Y-39492368D01*
X116741543Y-39492368D02*
X116699876Y-39444748D01*
X116699876Y-39444748D02*
X116664162Y-39349510D01*
X116664162Y-39349510D02*
X116699876Y-39063796D01*
X116699876Y-39063796D02*
X116759400Y-38968558D01*
X116759400Y-38968558D02*
X116812971Y-38920939D01*
X116812971Y-38920939D02*
X116914162Y-38873320D01*
X116914162Y-38873320D02*
X117104638Y-38873320D01*
X117104638Y-38873320D02*
X117193924Y-38920939D01*
X117973686Y-39539987D02*
X118039162Y-39016177D01*
X118039162Y-39016177D02*
X118003448Y-38920939D01*
X118003448Y-38920939D02*
X117914162Y-38873320D01*
X117914162Y-38873320D02*
X117723686Y-38873320D01*
X117723686Y-38873320D02*
X117622495Y-38920939D01*
X117979638Y-39492368D02*
X117878448Y-39539987D01*
X117878448Y-39539987D02*
X117640352Y-39539987D01*
X117640352Y-39539987D02*
X117551067Y-39492368D01*
X117551067Y-39492368D02*
X117515352Y-39397129D01*
X117515352Y-39397129D02*
X117527257Y-39301891D01*
X117527257Y-39301891D02*
X117586781Y-39206653D01*
X117586781Y-39206653D02*
X117687972Y-39159034D01*
X117687972Y-39159034D02*
X117926067Y-39159034D01*
X117926067Y-39159034D02*
X118027257Y-39111415D01*
X118390353Y-38873320D02*
X118771305Y-38873320D01*
X118574876Y-38539987D02*
X118467734Y-39397129D01*
X118467734Y-39397129D02*
X118503448Y-39492368D01*
X118503448Y-39492368D02*
X118592734Y-39539987D01*
X118592734Y-39539987D02*
X118687972Y-39539987D01*
X119021305Y-39539987D02*
X119104639Y-38873320D01*
X119146305Y-38539987D02*
X119092734Y-38587606D01*
X119092734Y-38587606D02*
X119134401Y-38635225D01*
X119134401Y-38635225D02*
X119187972Y-38587606D01*
X119187972Y-38587606D02*
X119146305Y-38539987D01*
X119146305Y-38539987D02*
X119134401Y-38635225D01*
X119640353Y-39539987D02*
X119551067Y-39492368D01*
X119551067Y-39492368D02*
X119509400Y-39444748D01*
X119509400Y-39444748D02*
X119473686Y-39349510D01*
X119473686Y-39349510D02*
X119509400Y-39063796D01*
X119509400Y-39063796D02*
X119568924Y-38968558D01*
X119568924Y-38968558D02*
X119622495Y-38920939D01*
X119622495Y-38920939D02*
X119723686Y-38873320D01*
X119723686Y-38873320D02*
X119866543Y-38873320D01*
X119866543Y-38873320D02*
X119955829Y-38920939D01*
X119955829Y-38920939D02*
X119997495Y-38968558D01*
X119997495Y-38968558D02*
X120033210Y-39063796D01*
X120033210Y-39063796D02*
X119997495Y-39349510D01*
X119997495Y-39349510D02*
X119937972Y-39444748D01*
X119937972Y-39444748D02*
X119884400Y-39492368D01*
X119884400Y-39492368D02*
X119783210Y-39539987D01*
X119783210Y-39539987D02*
X119640353Y-39539987D01*
X120485591Y-38873320D02*
X120402257Y-39539987D01*
X120473686Y-38968558D02*
X120527257Y-38920939D01*
X120527257Y-38920939D02*
X120628448Y-38873320D01*
X120628448Y-38873320D02*
X120771305Y-38873320D01*
X120771305Y-38873320D02*
X120860591Y-38920939D01*
X120860591Y-38920939D02*
X120896305Y-39016177D01*
X120896305Y-39016177D02*
X120830829Y-39539987D01*
X121318924Y-39444748D02*
X121360591Y-39492368D01*
X121360591Y-39492368D02*
X121307019Y-39539987D01*
X121307019Y-39539987D02*
X121265353Y-39492368D01*
X121265353Y-39492368D02*
X121318924Y-39444748D01*
X121318924Y-39444748D02*
X121307019Y-39539987D01*
X121384400Y-38920939D02*
X121426067Y-38968558D01*
X121426067Y-38968558D02*
X121372496Y-39016177D01*
X121372496Y-39016177D02*
X121330829Y-38968558D01*
X121330829Y-38968558D02*
X121384400Y-38920939D01*
X121384400Y-38920939D02*
X121372496Y-39016177D01*
X123116543Y-39539987D02*
X122842733Y-39063796D01*
X122545114Y-39539987D02*
X122670114Y-38539987D01*
X122670114Y-38539987D02*
X123051067Y-38539987D01*
X123051067Y-38539987D02*
X123140352Y-38587606D01*
X123140352Y-38587606D02*
X123182019Y-38635225D01*
X123182019Y-38635225D02*
X123217733Y-38730463D01*
X123217733Y-38730463D02*
X123199876Y-38873320D01*
X123199876Y-38873320D02*
X123140352Y-38968558D01*
X123140352Y-38968558D02*
X123086781Y-39016177D01*
X123086781Y-39016177D02*
X122985591Y-39063796D01*
X122985591Y-39063796D02*
X122604638Y-39063796D01*
X123932019Y-39492368D02*
X123830829Y-39539987D01*
X123830829Y-39539987D02*
X123640352Y-39539987D01*
X123640352Y-39539987D02*
X123551067Y-39492368D01*
X123551067Y-39492368D02*
X123515352Y-39397129D01*
X123515352Y-39397129D02*
X123562972Y-39016177D01*
X123562972Y-39016177D02*
X123622495Y-38920939D01*
X123622495Y-38920939D02*
X123723686Y-38873320D01*
X123723686Y-38873320D02*
X123914162Y-38873320D01*
X123914162Y-38873320D02*
X124003448Y-38920939D01*
X124003448Y-38920939D02*
X124039162Y-39016177D01*
X124039162Y-39016177D02*
X124027257Y-39111415D01*
X124027257Y-39111415D02*
X123539162Y-39206653D01*
X124342734Y-38873320D02*
X124723686Y-38873320D01*
X124402257Y-39539987D02*
X124509400Y-38682844D01*
X124509400Y-38682844D02*
X124568924Y-38587606D01*
X124568924Y-38587606D02*
X124670115Y-38539987D01*
X124670115Y-38539987D02*
X124765353Y-38539987D01*
X125360591Y-39492368D02*
X125259401Y-39539987D01*
X125259401Y-39539987D02*
X125068924Y-39539987D01*
X125068924Y-39539987D02*
X124979639Y-39492368D01*
X124979639Y-39492368D02*
X124943924Y-39397129D01*
X124943924Y-39397129D02*
X124991544Y-39016177D01*
X124991544Y-39016177D02*
X125051067Y-38920939D01*
X125051067Y-38920939D02*
X125152258Y-38873320D01*
X125152258Y-38873320D02*
X125342734Y-38873320D01*
X125342734Y-38873320D02*
X125432020Y-38920939D01*
X125432020Y-38920939D02*
X125467734Y-39016177D01*
X125467734Y-39016177D02*
X125455829Y-39111415D01*
X125455829Y-39111415D02*
X124967734Y-39206653D01*
X125830829Y-39539987D02*
X125914163Y-38873320D01*
X125890353Y-39063796D02*
X125949877Y-38968558D01*
X125949877Y-38968558D02*
X126003448Y-38920939D01*
X126003448Y-38920939D02*
X126104639Y-38873320D01*
X126104639Y-38873320D02*
X126199877Y-38873320D01*
X127152259Y-38873320D02*
X127533211Y-38873320D01*
X127336782Y-38539987D02*
X127229640Y-39397129D01*
X127229640Y-39397129D02*
X127265354Y-39492368D01*
X127265354Y-39492368D02*
X127354640Y-39539987D01*
X127354640Y-39539987D02*
X127449878Y-39539987D01*
X127926069Y-39539987D02*
X127836783Y-39492368D01*
X127836783Y-39492368D02*
X127795116Y-39444748D01*
X127795116Y-39444748D02*
X127759402Y-39349510D01*
X127759402Y-39349510D02*
X127795116Y-39063796D01*
X127795116Y-39063796D02*
X127854640Y-38968558D01*
X127854640Y-38968558D02*
X127908211Y-38920939D01*
X127908211Y-38920939D02*
X128009402Y-38873320D01*
X128009402Y-38873320D02*
X128152259Y-38873320D01*
X128152259Y-38873320D02*
X128241545Y-38920939D01*
X128241545Y-38920939D02*
X128283211Y-38968558D01*
X128283211Y-38968558D02*
X128318926Y-39063796D01*
X128318926Y-39063796D02*
X128283211Y-39349510D01*
X128283211Y-39349510D02*
X128223688Y-39444748D01*
X128223688Y-39444748D02*
X128170116Y-39492368D01*
X128170116Y-39492368D02*
X128068926Y-39539987D01*
X128068926Y-39539987D02*
X127926069Y-39539987D01*
X129574878Y-38539987D02*
X129473688Y-39349510D01*
X129473688Y-39349510D02*
X129509402Y-39444748D01*
X129509402Y-39444748D02*
X129551069Y-39492368D01*
X129551069Y-39492368D02*
X129640355Y-39539987D01*
X129640355Y-39539987D02*
X129830831Y-39539987D01*
X129830831Y-39539987D02*
X129932021Y-39492368D01*
X129932021Y-39492368D02*
X129985593Y-39444748D01*
X129985593Y-39444748D02*
X130045116Y-39349510D01*
X130045116Y-39349510D02*
X130146307Y-38539987D01*
X130455831Y-39492368D02*
X130545116Y-39539987D01*
X130545116Y-39539987D02*
X130735593Y-39539987D01*
X130735593Y-39539987D02*
X130836783Y-39492368D01*
X130836783Y-39492368D02*
X130896307Y-39397129D01*
X130896307Y-39397129D02*
X130902259Y-39349510D01*
X130902259Y-39349510D02*
X130866545Y-39254272D01*
X130866545Y-39254272D02*
X130777259Y-39206653D01*
X130777259Y-39206653D02*
X130634402Y-39206653D01*
X130634402Y-39206653D02*
X130545116Y-39159034D01*
X130545116Y-39159034D02*
X130509402Y-39063796D01*
X130509402Y-39063796D02*
X130515355Y-39016177D01*
X130515355Y-39016177D02*
X130574878Y-38920939D01*
X130574878Y-38920939D02*
X130676069Y-38873320D01*
X130676069Y-38873320D02*
X130818926Y-38873320D01*
X130818926Y-38873320D02*
X130908212Y-38920939D01*
X131693926Y-39492368D02*
X131592736Y-39539987D01*
X131592736Y-39539987D02*
X131402259Y-39539987D01*
X131402259Y-39539987D02*
X131312974Y-39492368D01*
X131312974Y-39492368D02*
X131277259Y-39397129D01*
X131277259Y-39397129D02*
X131324879Y-39016177D01*
X131324879Y-39016177D02*
X131384402Y-38920939D01*
X131384402Y-38920939D02*
X131485593Y-38873320D01*
X131485593Y-38873320D02*
X131676069Y-38873320D01*
X131676069Y-38873320D02*
X131765355Y-38920939D01*
X131765355Y-38920939D02*
X131801069Y-39016177D01*
X131801069Y-39016177D02*
X131789164Y-39111415D01*
X131789164Y-39111415D02*
X131301069Y-39206653D01*
X132164164Y-39539987D02*
X132247498Y-38873320D01*
X132223688Y-39063796D02*
X132283212Y-38968558D01*
X132283212Y-38968558D02*
X132336783Y-38920939D01*
X132336783Y-38920939D02*
X132437974Y-38873320D01*
X132437974Y-38873320D02*
X132533212Y-38873320D01*
X132795117Y-39444748D02*
X132836784Y-39492368D01*
X132836784Y-39492368D02*
X132783212Y-39539987D01*
X132783212Y-39539987D02*
X132741546Y-39492368D01*
X132741546Y-39492368D02*
X132795117Y-39444748D01*
X132795117Y-39444748D02*
X132783212Y-39539987D01*
X133259402Y-39539987D02*
X133384402Y-38539987D01*
X133384402Y-38539987D02*
X133622498Y-38539987D01*
X133622498Y-38539987D02*
X133759402Y-38587606D01*
X133759402Y-38587606D02*
X133842736Y-38682844D01*
X133842736Y-38682844D02*
X133878450Y-38778082D01*
X133878450Y-38778082D02*
X133902260Y-38968558D01*
X133902260Y-38968558D02*
X133884402Y-39111415D01*
X133884402Y-39111415D02*
X133812974Y-39301891D01*
X133812974Y-39301891D02*
X133753450Y-39397129D01*
X133753450Y-39397129D02*
X133646307Y-39492368D01*
X133646307Y-39492368D02*
X133497498Y-39539987D01*
X133497498Y-39539987D02*
X133259402Y-39539987D01*
X134259402Y-39539987D02*
X134342736Y-38873320D01*
X134318926Y-39063796D02*
X134378450Y-38968558D01*
X134378450Y-38968558D02*
X134432021Y-38920939D01*
X134432021Y-38920939D02*
X134533212Y-38873320D01*
X134533212Y-38873320D02*
X134628450Y-38873320D01*
X135307022Y-39539987D02*
X135372498Y-39016177D01*
X135372498Y-39016177D02*
X135336784Y-38920939D01*
X135336784Y-38920939D02*
X135247498Y-38873320D01*
X135247498Y-38873320D02*
X135057022Y-38873320D01*
X135057022Y-38873320D02*
X134955831Y-38920939D01*
X135312974Y-39492368D02*
X135211784Y-39539987D01*
X135211784Y-39539987D02*
X134973688Y-39539987D01*
X134973688Y-39539987D02*
X134884403Y-39492368D01*
X134884403Y-39492368D02*
X134848688Y-39397129D01*
X134848688Y-39397129D02*
X134860593Y-39301891D01*
X134860593Y-39301891D02*
X134920117Y-39206653D01*
X134920117Y-39206653D02*
X135021308Y-39159034D01*
X135021308Y-39159034D02*
X135259403Y-39159034D01*
X135259403Y-39159034D02*
X135360593Y-39111415D01*
X135771308Y-38873320D02*
X135878450Y-39539987D01*
X135878450Y-39539987D02*
X136128450Y-39063796D01*
X136128450Y-39063796D02*
X136259403Y-39539987D01*
X136259403Y-39539987D02*
X136533212Y-38873320D01*
X136830831Y-39539987D02*
X136914165Y-38873320D01*
X136955831Y-38539987D02*
X136902260Y-38587606D01*
X136902260Y-38587606D02*
X136943927Y-38635225D01*
X136943927Y-38635225D02*
X136997498Y-38587606D01*
X136997498Y-38587606D02*
X136955831Y-38539987D01*
X136955831Y-38539987D02*
X136943927Y-38635225D01*
X137390355Y-38873320D02*
X137307021Y-39539987D01*
X137378450Y-38968558D02*
X137432021Y-38920939D01*
X137432021Y-38920939D02*
X137533212Y-38873320D01*
X137533212Y-38873320D02*
X137676069Y-38873320D01*
X137676069Y-38873320D02*
X137765355Y-38920939D01*
X137765355Y-38920939D02*
X137801069Y-39016177D01*
X137801069Y-39016177D02*
X137735593Y-39539987D01*
X138723688Y-38873320D02*
X138622498Y-39682844D01*
X138622498Y-39682844D02*
X138562974Y-39778082D01*
X138562974Y-39778082D02*
X138509402Y-39825701D01*
X138509402Y-39825701D02*
X138408212Y-39873320D01*
X138408212Y-39873320D02*
X138265355Y-39873320D01*
X138265355Y-39873320D02*
X138176069Y-39825701D01*
X138646307Y-39492368D02*
X138545117Y-39539987D01*
X138545117Y-39539987D02*
X138354641Y-39539987D01*
X138354641Y-39539987D02*
X138265355Y-39492368D01*
X138265355Y-39492368D02*
X138223688Y-39444748D01*
X138223688Y-39444748D02*
X138187974Y-39349510D01*
X138187974Y-39349510D02*
X138223688Y-39063796D01*
X138223688Y-39063796D02*
X138283212Y-38968558D01*
X138283212Y-38968558D02*
X138336783Y-38920939D01*
X138336783Y-38920939D02*
X138437974Y-38873320D01*
X138437974Y-38873320D02*
X138628450Y-38873320D01*
X138628450Y-38873320D02*
X138717736Y-38920939D01*
X139074879Y-39492368D02*
X139164164Y-39539987D01*
X139164164Y-39539987D02*
X139354641Y-39539987D01*
X139354641Y-39539987D02*
X139455831Y-39492368D01*
X139455831Y-39492368D02*
X139515355Y-39397129D01*
X139515355Y-39397129D02*
X139521307Y-39349510D01*
X139521307Y-39349510D02*
X139485593Y-39254272D01*
X139485593Y-39254272D02*
X139396307Y-39206653D01*
X139396307Y-39206653D02*
X139253450Y-39206653D01*
X139253450Y-39206653D02*
X139164164Y-39159034D01*
X139164164Y-39159034D02*
X139128450Y-39063796D01*
X139128450Y-39063796D02*
X139134403Y-39016177D01*
X139134403Y-39016177D02*
X139193926Y-38920939D01*
X139193926Y-38920939D02*
X139295117Y-38873320D01*
X139295117Y-38873320D02*
X139437974Y-38873320D01*
X139437974Y-38873320D02*
X139527260Y-38920939D01*
X140830832Y-39539987D02*
X140741546Y-39492368D01*
X140741546Y-39492368D02*
X140705832Y-39397129D01*
X140705832Y-39397129D02*
X140812974Y-38539987D01*
X141640356Y-39539987D02*
X141705832Y-39016177D01*
X141705832Y-39016177D02*
X141670118Y-38920939D01*
X141670118Y-38920939D02*
X141580832Y-38873320D01*
X141580832Y-38873320D02*
X141390356Y-38873320D01*
X141390356Y-38873320D02*
X141289165Y-38920939D01*
X141646308Y-39492368D02*
X141545118Y-39539987D01*
X141545118Y-39539987D02*
X141307022Y-39539987D01*
X141307022Y-39539987D02*
X141217737Y-39492368D01*
X141217737Y-39492368D02*
X141182022Y-39397129D01*
X141182022Y-39397129D02*
X141193927Y-39301891D01*
X141193927Y-39301891D02*
X141253451Y-39206653D01*
X141253451Y-39206653D02*
X141354642Y-39159034D01*
X141354642Y-39159034D02*
X141592737Y-39159034D01*
X141592737Y-39159034D02*
X141693927Y-39111415D01*
X142104642Y-38873320D02*
X142259404Y-39539987D01*
X142580832Y-38873320D02*
X142259404Y-39539987D01*
X142259404Y-39539987D02*
X142134404Y-39778082D01*
X142134404Y-39778082D02*
X142080832Y-39825701D01*
X142080832Y-39825701D02*
X141979642Y-39873320D01*
X143265356Y-39492368D02*
X143164166Y-39539987D01*
X143164166Y-39539987D02*
X142973689Y-39539987D01*
X142973689Y-39539987D02*
X142884404Y-39492368D01*
X142884404Y-39492368D02*
X142848689Y-39397129D01*
X142848689Y-39397129D02*
X142896309Y-39016177D01*
X142896309Y-39016177D02*
X142955832Y-38920939D01*
X142955832Y-38920939D02*
X143057023Y-38873320D01*
X143057023Y-38873320D02*
X143247499Y-38873320D01*
X143247499Y-38873320D02*
X143336785Y-38920939D01*
X143336785Y-38920939D02*
X143372499Y-39016177D01*
X143372499Y-39016177D02*
X143360594Y-39111415D01*
X143360594Y-39111415D02*
X142872499Y-39206653D01*
X143735594Y-39539987D02*
X143818928Y-38873320D01*
X143795118Y-39063796D02*
X143854642Y-38968558D01*
X143854642Y-38968558D02*
X143908213Y-38920939D01*
X143908213Y-38920939D02*
X144009404Y-38873320D01*
X144009404Y-38873320D02*
X144104642Y-38873320D01*
X107812969Y-40149931D02*
X108384398Y-40149931D01*
X107973684Y-41149931D02*
X108098684Y-40149931D01*
X108592731Y-41149931D02*
X108717731Y-40149931D01*
X109021303Y-41149931D02*
X109086779Y-40626121D01*
X109086779Y-40626121D02*
X109051065Y-40530883D01*
X109051065Y-40530883D02*
X108961779Y-40483264D01*
X108961779Y-40483264D02*
X108818922Y-40483264D01*
X108818922Y-40483264D02*
X108717731Y-40530883D01*
X108717731Y-40530883D02*
X108664160Y-40578502D01*
X109497493Y-41149931D02*
X109580827Y-40483264D01*
X109622493Y-40149931D02*
X109568922Y-40197550D01*
X109568922Y-40197550D02*
X109610589Y-40245169D01*
X109610589Y-40245169D02*
X109664160Y-40197550D01*
X109664160Y-40197550D02*
X109622493Y-40149931D01*
X109622493Y-40149931D02*
X109610589Y-40245169D01*
X109932017Y-41102312D02*
X110021302Y-41149931D01*
X110021302Y-41149931D02*
X110211779Y-41149931D01*
X110211779Y-41149931D02*
X110312969Y-41102312D01*
X110312969Y-41102312D02*
X110372493Y-41007073D01*
X110372493Y-41007073D02*
X110378445Y-40959454D01*
X110378445Y-40959454D02*
X110342731Y-40864216D01*
X110342731Y-40864216D02*
X110253445Y-40816597D01*
X110253445Y-40816597D02*
X110110588Y-40816597D01*
X110110588Y-40816597D02*
X110021302Y-40768978D01*
X110021302Y-40768978D02*
X109985588Y-40673740D01*
X109985588Y-40673740D02*
X109991541Y-40626121D01*
X109991541Y-40626121D02*
X110051064Y-40530883D01*
X110051064Y-40530883D02*
X110152255Y-40483264D01*
X110152255Y-40483264D02*
X110295112Y-40483264D01*
X110295112Y-40483264D02*
X110384398Y-40530883D01*
X111545112Y-41149931D02*
X111628446Y-40483264D01*
X111670112Y-40149931D02*
X111616541Y-40197550D01*
X111616541Y-40197550D02*
X111658208Y-40245169D01*
X111658208Y-40245169D02*
X111711779Y-40197550D01*
X111711779Y-40197550D02*
X111670112Y-40149931D01*
X111670112Y-40149931D02*
X111658208Y-40245169D01*
X111979636Y-41102312D02*
X112068921Y-41149931D01*
X112068921Y-41149931D02*
X112259398Y-41149931D01*
X112259398Y-41149931D02*
X112360588Y-41102312D01*
X112360588Y-41102312D02*
X112420112Y-41007073D01*
X112420112Y-41007073D02*
X112426064Y-40959454D01*
X112426064Y-40959454D02*
X112390350Y-40864216D01*
X112390350Y-40864216D02*
X112301064Y-40816597D01*
X112301064Y-40816597D02*
X112158207Y-40816597D01*
X112158207Y-40816597D02*
X112068921Y-40768978D01*
X112068921Y-40768978D02*
X112033207Y-40673740D01*
X112033207Y-40673740D02*
X112039160Y-40626121D01*
X112039160Y-40626121D02*
X112098683Y-40530883D01*
X112098683Y-40530883D02*
X112199874Y-40483264D01*
X112199874Y-40483264D02*
X112342731Y-40483264D01*
X112342731Y-40483264D02*
X112432017Y-40530883D01*
X113592731Y-41149931D02*
X113676065Y-40483264D01*
X113717731Y-40149931D02*
X113664160Y-40197550D01*
X113664160Y-40197550D02*
X113705827Y-40245169D01*
X113705827Y-40245169D02*
X113759398Y-40197550D01*
X113759398Y-40197550D02*
X113717731Y-40149931D01*
X113717731Y-40149931D02*
X113705827Y-40245169D01*
X114152255Y-40483264D02*
X114068921Y-41149931D01*
X114140350Y-40578502D02*
X114193921Y-40530883D01*
X114193921Y-40530883D02*
X114295112Y-40483264D01*
X114295112Y-40483264D02*
X114437969Y-40483264D01*
X114437969Y-40483264D02*
X114527255Y-40530883D01*
X114527255Y-40530883D02*
X114562969Y-40626121D01*
X114562969Y-40626121D02*
X114497493Y-41149931D01*
X114914160Y-40483264D02*
X115295112Y-40483264D01*
X115098683Y-40149931D02*
X114991541Y-41007073D01*
X114991541Y-41007073D02*
X115027255Y-41102312D01*
X115027255Y-41102312D02*
X115116541Y-41149931D01*
X115116541Y-41149931D02*
X115211779Y-41149931D01*
X115932017Y-41102312D02*
X115830827Y-41149931D01*
X115830827Y-41149931D02*
X115640350Y-41149931D01*
X115640350Y-41149931D02*
X115551065Y-41102312D01*
X115551065Y-41102312D02*
X115515350Y-41007073D01*
X115515350Y-41007073D02*
X115562970Y-40626121D01*
X115562970Y-40626121D02*
X115622493Y-40530883D01*
X115622493Y-40530883D02*
X115723684Y-40483264D01*
X115723684Y-40483264D02*
X115914160Y-40483264D01*
X115914160Y-40483264D02*
X116003446Y-40530883D01*
X116003446Y-40530883D02*
X116039160Y-40626121D01*
X116039160Y-40626121D02*
X116027255Y-40721359D01*
X116027255Y-40721359D02*
X115539160Y-40816597D01*
X116485589Y-40483264D02*
X116402255Y-41149931D01*
X116473684Y-40578502D02*
X116527255Y-40530883D01*
X116527255Y-40530883D02*
X116628446Y-40483264D01*
X116628446Y-40483264D02*
X116771303Y-40483264D01*
X116771303Y-40483264D02*
X116860589Y-40530883D01*
X116860589Y-40530883D02*
X116896303Y-40626121D01*
X116896303Y-40626121D02*
X116830827Y-41149931D01*
X117735589Y-41149931D02*
X117860589Y-40149931D01*
X117741541Y-41102312D02*
X117640351Y-41149931D01*
X117640351Y-41149931D02*
X117449875Y-41149931D01*
X117449875Y-41149931D02*
X117360589Y-41102312D01*
X117360589Y-41102312D02*
X117318922Y-41054692D01*
X117318922Y-41054692D02*
X117283208Y-40959454D01*
X117283208Y-40959454D02*
X117318922Y-40673740D01*
X117318922Y-40673740D02*
X117378446Y-40578502D01*
X117378446Y-40578502D02*
X117432017Y-40530883D01*
X117432017Y-40530883D02*
X117533208Y-40483264D01*
X117533208Y-40483264D02*
X117723684Y-40483264D01*
X117723684Y-40483264D02*
X117812970Y-40530883D01*
X118598684Y-41102312D02*
X118497494Y-41149931D01*
X118497494Y-41149931D02*
X118307017Y-41149931D01*
X118307017Y-41149931D02*
X118217732Y-41102312D01*
X118217732Y-41102312D02*
X118182017Y-41007073D01*
X118182017Y-41007073D02*
X118229637Y-40626121D01*
X118229637Y-40626121D02*
X118289160Y-40530883D01*
X118289160Y-40530883D02*
X118390351Y-40483264D01*
X118390351Y-40483264D02*
X118580827Y-40483264D01*
X118580827Y-40483264D02*
X118670113Y-40530883D01*
X118670113Y-40530883D02*
X118705827Y-40626121D01*
X118705827Y-40626121D02*
X118693922Y-40721359D01*
X118693922Y-40721359D02*
X118205827Y-40816597D01*
X119497494Y-41149931D02*
X119622494Y-40149931D01*
X119503446Y-41102312D02*
X119402256Y-41149931D01*
X119402256Y-41149931D02*
X119211780Y-41149931D01*
X119211780Y-41149931D02*
X119122494Y-41102312D01*
X119122494Y-41102312D02*
X119080827Y-41054692D01*
X119080827Y-41054692D02*
X119045113Y-40959454D01*
X119045113Y-40959454D02*
X119080827Y-40673740D01*
X119080827Y-40673740D02*
X119140351Y-40578502D01*
X119140351Y-40578502D02*
X119193922Y-40530883D01*
X119193922Y-40530883D02*
X119295113Y-40483264D01*
X119295113Y-40483264D02*
X119485589Y-40483264D01*
X119485589Y-40483264D02*
X119574875Y-40530883D01*
X120676066Y-40483264D02*
X121057018Y-40483264D01*
X120860589Y-40149931D02*
X120753447Y-41007073D01*
X120753447Y-41007073D02*
X120789161Y-41102312D01*
X120789161Y-41102312D02*
X120878447Y-41149931D01*
X120878447Y-41149931D02*
X120973685Y-41149931D01*
X121449876Y-41149931D02*
X121360590Y-41102312D01*
X121360590Y-41102312D02*
X121318923Y-41054692D01*
X121318923Y-41054692D02*
X121283209Y-40959454D01*
X121283209Y-40959454D02*
X121318923Y-40673740D01*
X121318923Y-40673740D02*
X121378447Y-40578502D01*
X121378447Y-40578502D02*
X121432018Y-40530883D01*
X121432018Y-40530883D02*
X121533209Y-40483264D01*
X121533209Y-40483264D02*
X121676066Y-40483264D01*
X121676066Y-40483264D02*
X121765352Y-40530883D01*
X121765352Y-40530883D02*
X121807018Y-40578502D01*
X121807018Y-40578502D02*
X121842733Y-40673740D01*
X121842733Y-40673740D02*
X121807018Y-40959454D01*
X121807018Y-40959454D02*
X121747495Y-41054692D01*
X121747495Y-41054692D02*
X121693923Y-41102312D01*
X121693923Y-41102312D02*
X121592733Y-41149931D01*
X121592733Y-41149931D02*
X121449876Y-41149931D01*
X122973685Y-41149931D02*
X123098685Y-40149931D01*
X123051066Y-40530883D02*
X123152257Y-40483264D01*
X123152257Y-40483264D02*
X123342733Y-40483264D01*
X123342733Y-40483264D02*
X123432019Y-40530883D01*
X123432019Y-40530883D02*
X123473685Y-40578502D01*
X123473685Y-40578502D02*
X123509400Y-40673740D01*
X123509400Y-40673740D02*
X123473685Y-40959454D01*
X123473685Y-40959454D02*
X123414162Y-41054692D01*
X123414162Y-41054692D02*
X123360590Y-41102312D01*
X123360590Y-41102312D02*
X123259400Y-41149931D01*
X123259400Y-41149931D02*
X123068923Y-41149931D01*
X123068923Y-41149931D02*
X122979638Y-41102312D01*
X124265352Y-41102312D02*
X124164162Y-41149931D01*
X124164162Y-41149931D02*
X123973685Y-41149931D01*
X123973685Y-41149931D02*
X123884400Y-41102312D01*
X123884400Y-41102312D02*
X123848685Y-41007073D01*
X123848685Y-41007073D02*
X123896305Y-40626121D01*
X123896305Y-40626121D02*
X123955828Y-40530883D01*
X123955828Y-40530883D02*
X124057019Y-40483264D01*
X124057019Y-40483264D02*
X124247495Y-40483264D01*
X124247495Y-40483264D02*
X124336781Y-40530883D01*
X124336781Y-40530883D02*
X124372495Y-40626121D01*
X124372495Y-40626121D02*
X124360590Y-40721359D01*
X124360590Y-40721359D02*
X123872495Y-40816597D01*
X125497495Y-41149931D02*
X125580829Y-40483264D01*
X125568924Y-40578502D02*
X125622495Y-40530883D01*
X125622495Y-40530883D02*
X125723686Y-40483264D01*
X125723686Y-40483264D02*
X125866543Y-40483264D01*
X125866543Y-40483264D02*
X125955829Y-40530883D01*
X125955829Y-40530883D02*
X125991543Y-40626121D01*
X125991543Y-40626121D02*
X125926067Y-41149931D01*
X125991543Y-40626121D02*
X126051067Y-40530883D01*
X126051067Y-40530883D02*
X126152257Y-40483264D01*
X126152257Y-40483264D02*
X126295114Y-40483264D01*
X126295114Y-40483264D02*
X126384400Y-40530883D01*
X126384400Y-40530883D02*
X126420114Y-40626121D01*
X126420114Y-40626121D02*
X126354638Y-41149931D01*
X127259400Y-41149931D02*
X127324876Y-40626121D01*
X127324876Y-40626121D02*
X127289162Y-40530883D01*
X127289162Y-40530883D02*
X127199876Y-40483264D01*
X127199876Y-40483264D02*
X127009400Y-40483264D01*
X127009400Y-40483264D02*
X126908209Y-40530883D01*
X127265352Y-41102312D02*
X127164162Y-41149931D01*
X127164162Y-41149931D02*
X126926066Y-41149931D01*
X126926066Y-41149931D02*
X126836781Y-41102312D01*
X126836781Y-41102312D02*
X126801066Y-41007073D01*
X126801066Y-41007073D02*
X126812971Y-40911835D01*
X126812971Y-40911835D02*
X126872495Y-40816597D01*
X126872495Y-40816597D02*
X126973686Y-40768978D01*
X126973686Y-40768978D02*
X127211781Y-40768978D01*
X127211781Y-40768978D02*
X127312971Y-40721359D01*
X127818924Y-40483264D02*
X127735590Y-41149931D01*
X127807019Y-40578502D02*
X127860590Y-40530883D01*
X127860590Y-40530883D02*
X127961781Y-40483264D01*
X127961781Y-40483264D02*
X128104638Y-40483264D01*
X128104638Y-40483264D02*
X128193924Y-40530883D01*
X128193924Y-40530883D02*
X128229638Y-40626121D01*
X128229638Y-40626121D02*
X128164162Y-41149931D01*
X129152257Y-40483264D02*
X129068924Y-41149931D01*
X128723686Y-40483264D02*
X128658210Y-41007073D01*
X128658210Y-41007073D02*
X128693924Y-41102312D01*
X128693924Y-41102312D02*
X128783210Y-41149931D01*
X128783210Y-41149931D02*
X128926067Y-41149931D01*
X128926067Y-41149931D02*
X129027257Y-41102312D01*
X129027257Y-41102312D02*
X129080829Y-41054692D01*
X129485591Y-40483264D02*
X129866543Y-40483264D01*
X129545114Y-41149931D02*
X129652257Y-40292788D01*
X129652257Y-40292788D02*
X129711781Y-40197550D01*
X129711781Y-40197550D02*
X129812972Y-40149931D01*
X129812972Y-40149931D02*
X129908210Y-40149931D01*
X130545115Y-41149931D02*
X130610591Y-40626121D01*
X130610591Y-40626121D02*
X130574877Y-40530883D01*
X130574877Y-40530883D02*
X130485591Y-40483264D01*
X130485591Y-40483264D02*
X130295115Y-40483264D01*
X130295115Y-40483264D02*
X130193924Y-40530883D01*
X130551067Y-41102312D02*
X130449877Y-41149931D01*
X130449877Y-41149931D02*
X130211781Y-41149931D01*
X130211781Y-41149931D02*
X130122496Y-41102312D01*
X130122496Y-41102312D02*
X130086781Y-41007073D01*
X130086781Y-41007073D02*
X130098686Y-40911835D01*
X130098686Y-40911835D02*
X130158210Y-40816597D01*
X130158210Y-40816597D02*
X130259401Y-40768978D01*
X130259401Y-40768978D02*
X130497496Y-40768978D01*
X130497496Y-40768978D02*
X130598686Y-40721359D01*
X131455829Y-41102312D02*
X131354639Y-41149931D01*
X131354639Y-41149931D02*
X131164163Y-41149931D01*
X131164163Y-41149931D02*
X131074877Y-41102312D01*
X131074877Y-41102312D02*
X131033210Y-41054692D01*
X131033210Y-41054692D02*
X130997496Y-40959454D01*
X130997496Y-40959454D02*
X131033210Y-40673740D01*
X131033210Y-40673740D02*
X131092734Y-40578502D01*
X131092734Y-40578502D02*
X131146305Y-40530883D01*
X131146305Y-40530883D02*
X131247496Y-40483264D01*
X131247496Y-40483264D02*
X131437972Y-40483264D01*
X131437972Y-40483264D02*
X131527258Y-40530883D01*
X131818925Y-40483264D02*
X132199877Y-40483264D01*
X132003448Y-40149931D02*
X131896306Y-41007073D01*
X131896306Y-41007073D02*
X131932020Y-41102312D01*
X131932020Y-41102312D02*
X132021306Y-41149931D01*
X132021306Y-41149931D02*
X132116544Y-41149931D01*
X132961782Y-40483264D02*
X132878449Y-41149931D01*
X132533211Y-40483264D02*
X132467735Y-41007073D01*
X132467735Y-41007073D02*
X132503449Y-41102312D01*
X132503449Y-41102312D02*
X132592735Y-41149931D01*
X132592735Y-41149931D02*
X132735592Y-41149931D01*
X132735592Y-41149931D02*
X132836782Y-41102312D01*
X132836782Y-41102312D02*
X132890354Y-41054692D01*
X133354639Y-41149931D02*
X133437973Y-40483264D01*
X133414163Y-40673740D02*
X133473687Y-40578502D01*
X133473687Y-40578502D02*
X133527258Y-40530883D01*
X133527258Y-40530883D02*
X133628449Y-40483264D01*
X133628449Y-40483264D02*
X133723687Y-40483264D01*
X134360592Y-41102312D02*
X134259402Y-41149931D01*
X134259402Y-41149931D02*
X134068925Y-41149931D01*
X134068925Y-41149931D02*
X133979640Y-41102312D01*
X133979640Y-41102312D02*
X133943925Y-41007073D01*
X133943925Y-41007073D02*
X133991545Y-40626121D01*
X133991545Y-40626121D02*
X134051068Y-40530883D01*
X134051068Y-40530883D02*
X134152259Y-40483264D01*
X134152259Y-40483264D02*
X134342735Y-40483264D01*
X134342735Y-40483264D02*
X134432021Y-40530883D01*
X134432021Y-40530883D02*
X134467735Y-40626121D01*
X134467735Y-40626121D02*
X134455830Y-40721359D01*
X134455830Y-40721359D02*
X133967735Y-40816597D01*
X135259402Y-41149931D02*
X135384402Y-40149931D01*
X135265354Y-41102312D02*
X135164164Y-41149931D01*
X135164164Y-41149931D02*
X134973688Y-41149931D01*
X134973688Y-41149931D02*
X134884402Y-41102312D01*
X134884402Y-41102312D02*
X134842735Y-41054692D01*
X134842735Y-41054692D02*
X134807021Y-40959454D01*
X134807021Y-40959454D02*
X134842735Y-40673740D01*
X134842735Y-40673740D02*
X134902259Y-40578502D01*
X134902259Y-40578502D02*
X134955830Y-40530883D01*
X134955830Y-40530883D02*
X135057021Y-40483264D01*
X135057021Y-40483264D02*
X135247497Y-40483264D01*
X135247497Y-40483264D02*
X135336783Y-40530883D01*
X136926069Y-41149931D02*
X136991545Y-40626121D01*
X136991545Y-40626121D02*
X136955831Y-40530883D01*
X136955831Y-40530883D02*
X136866545Y-40483264D01*
X136866545Y-40483264D02*
X136676069Y-40483264D01*
X136676069Y-40483264D02*
X136574878Y-40530883D01*
X136932021Y-41102312D02*
X136830831Y-41149931D01*
X136830831Y-41149931D02*
X136592735Y-41149931D01*
X136592735Y-41149931D02*
X136503450Y-41102312D01*
X136503450Y-41102312D02*
X136467735Y-41007073D01*
X136467735Y-41007073D02*
X136479640Y-40911835D01*
X136479640Y-40911835D02*
X136539164Y-40816597D01*
X136539164Y-40816597D02*
X136640355Y-40768978D01*
X136640355Y-40768978D02*
X136878450Y-40768978D01*
X136878450Y-40768978D02*
X136979640Y-40721359D01*
X137360593Y-41102312D02*
X137449878Y-41149931D01*
X137449878Y-41149931D02*
X137640355Y-41149931D01*
X137640355Y-41149931D02*
X137741545Y-41102312D01*
X137741545Y-41102312D02*
X137801069Y-41007073D01*
X137801069Y-41007073D02*
X137807021Y-40959454D01*
X137807021Y-40959454D02*
X137771307Y-40864216D01*
X137771307Y-40864216D02*
X137682021Y-40816597D01*
X137682021Y-40816597D02*
X137539164Y-40816597D01*
X137539164Y-40816597D02*
X137449878Y-40768978D01*
X137449878Y-40768978D02*
X137414164Y-40673740D01*
X137414164Y-40673740D02*
X137420117Y-40626121D01*
X137420117Y-40626121D02*
X137479640Y-40530883D01*
X137479640Y-40530883D02*
X137580831Y-40483264D01*
X137580831Y-40483264D02*
X137723688Y-40483264D01*
X137723688Y-40483264D02*
X137812974Y-40530883D01*
X139402260Y-41149931D02*
X139467736Y-40626121D01*
X139467736Y-40626121D02*
X139432022Y-40530883D01*
X139432022Y-40530883D02*
X139342736Y-40483264D01*
X139342736Y-40483264D02*
X139152260Y-40483264D01*
X139152260Y-40483264D02*
X139051069Y-40530883D01*
X139408212Y-41102312D02*
X139307022Y-41149931D01*
X139307022Y-41149931D02*
X139068926Y-41149931D01*
X139068926Y-41149931D02*
X138979641Y-41102312D01*
X138979641Y-41102312D02*
X138943926Y-41007073D01*
X138943926Y-41007073D02*
X138955831Y-40911835D01*
X138955831Y-40911835D02*
X139015355Y-40816597D01*
X139015355Y-40816597D02*
X139116546Y-40768978D01*
X139116546Y-40768978D02*
X139354641Y-40768978D01*
X139354641Y-40768978D02*
X139455831Y-40721359D01*
X140598689Y-41102312D02*
X140687974Y-41149931D01*
X140687974Y-41149931D02*
X140878451Y-41149931D01*
X140878451Y-41149931D02*
X140979641Y-41102312D01*
X140979641Y-41102312D02*
X141039165Y-41007073D01*
X141039165Y-41007073D02*
X141045117Y-40959454D01*
X141045117Y-40959454D02*
X141009403Y-40864216D01*
X141009403Y-40864216D02*
X140920117Y-40816597D01*
X140920117Y-40816597D02*
X140777260Y-40816597D01*
X140777260Y-40816597D02*
X140687974Y-40768978D01*
X140687974Y-40768978D02*
X140652260Y-40673740D01*
X140652260Y-40673740D02*
X140658213Y-40626121D01*
X140658213Y-40626121D02*
X140717736Y-40530883D01*
X140717736Y-40530883D02*
X140818927Y-40483264D01*
X140818927Y-40483264D02*
X140961784Y-40483264D01*
X140961784Y-40483264D02*
X141051070Y-40530883D01*
X141449879Y-41149931D02*
X141533213Y-40483264D01*
X141574879Y-40149931D02*
X141521308Y-40197550D01*
X141521308Y-40197550D02*
X141562975Y-40245169D01*
X141562975Y-40245169D02*
X141616546Y-40197550D01*
X141616546Y-40197550D02*
X141574879Y-40149931D01*
X141574879Y-40149931D02*
X141562975Y-40245169D01*
X142009403Y-40483264D02*
X141926069Y-41149931D01*
X141997498Y-40578502D02*
X142051069Y-40530883D01*
X142051069Y-40530883D02*
X142152260Y-40483264D01*
X142152260Y-40483264D02*
X142295117Y-40483264D01*
X142295117Y-40483264D02*
X142384403Y-40530883D01*
X142384403Y-40530883D02*
X142420117Y-40626121D01*
X142420117Y-40626121D02*
X142354641Y-41149931D01*
X143342736Y-40483264D02*
X143241546Y-41292788D01*
X143241546Y-41292788D02*
X143182022Y-41388026D01*
X143182022Y-41388026D02*
X143128450Y-41435645D01*
X143128450Y-41435645D02*
X143027260Y-41483264D01*
X143027260Y-41483264D02*
X142884403Y-41483264D01*
X142884403Y-41483264D02*
X142795117Y-41435645D01*
X143265355Y-41102312D02*
X143164165Y-41149931D01*
X143164165Y-41149931D02*
X142973689Y-41149931D01*
X142973689Y-41149931D02*
X142884403Y-41102312D01*
X142884403Y-41102312D02*
X142842736Y-41054692D01*
X142842736Y-41054692D02*
X142807022Y-40959454D01*
X142807022Y-40959454D02*
X142842736Y-40673740D01*
X142842736Y-40673740D02*
X142902260Y-40578502D01*
X142902260Y-40578502D02*
X142955831Y-40530883D01*
X142955831Y-40530883D02*
X143057022Y-40483264D01*
X143057022Y-40483264D02*
X143247498Y-40483264D01*
X143247498Y-40483264D02*
X143336784Y-40530883D01*
X143878451Y-41149931D02*
X143789165Y-41102312D01*
X143789165Y-41102312D02*
X143753451Y-41007073D01*
X143753451Y-41007073D02*
X143860593Y-40149931D01*
X144646308Y-41102312D02*
X144545118Y-41149931D01*
X144545118Y-41149931D02*
X144354641Y-41149931D01*
X144354641Y-41149931D02*
X144265356Y-41102312D01*
X144265356Y-41102312D02*
X144229641Y-41007073D01*
X144229641Y-41007073D02*
X144277261Y-40626121D01*
X144277261Y-40626121D02*
X144336784Y-40530883D01*
X144336784Y-40530883D02*
X144437975Y-40483264D01*
X144437975Y-40483264D02*
X144628451Y-40483264D01*
X144628451Y-40483264D02*
X144717737Y-40530883D01*
X144717737Y-40530883D02*
X144753451Y-40626121D01*
X144753451Y-40626121D02*
X144741546Y-40721359D01*
X144741546Y-40721359D02*
X144253451Y-40816597D01*
X145878451Y-41149931D02*
X146003451Y-40149931D01*
X145955832Y-40530883D02*
X146057023Y-40483264D01*
X146057023Y-40483264D02*
X146247499Y-40483264D01*
X146247499Y-40483264D02*
X146336785Y-40530883D01*
X146336785Y-40530883D02*
X146378451Y-40578502D01*
X146378451Y-40578502D02*
X146414166Y-40673740D01*
X146414166Y-40673740D02*
X146378451Y-40959454D01*
X146378451Y-40959454D02*
X146318928Y-41054692D01*
X146318928Y-41054692D02*
X146265356Y-41102312D01*
X146265356Y-41102312D02*
X146164166Y-41149931D01*
X146164166Y-41149931D02*
X145973689Y-41149931D01*
X145973689Y-41149931D02*
X145884404Y-41102312D01*
X146926071Y-41149931D02*
X146836785Y-41102312D01*
X146836785Y-41102312D02*
X146795118Y-41054692D01*
X146795118Y-41054692D02*
X146759404Y-40959454D01*
X146759404Y-40959454D02*
X146795118Y-40673740D01*
X146795118Y-40673740D02*
X146854642Y-40578502D01*
X146854642Y-40578502D02*
X146908213Y-40530883D01*
X146908213Y-40530883D02*
X147009404Y-40483264D01*
X147009404Y-40483264D02*
X147152261Y-40483264D01*
X147152261Y-40483264D02*
X147241547Y-40530883D01*
X147241547Y-40530883D02*
X147283213Y-40578502D01*
X147283213Y-40578502D02*
X147318928Y-40673740D01*
X147318928Y-40673740D02*
X147283213Y-40959454D01*
X147283213Y-40959454D02*
X147223690Y-41054692D01*
X147223690Y-41054692D02*
X147170118Y-41102312D01*
X147170118Y-41102312D02*
X147068928Y-41149931D01*
X147068928Y-41149931D02*
X146926071Y-41149931D01*
X148116547Y-41149931D02*
X148182023Y-40626121D01*
X148182023Y-40626121D02*
X148146309Y-40530883D01*
X148146309Y-40530883D02*
X148057023Y-40483264D01*
X148057023Y-40483264D02*
X147866547Y-40483264D01*
X147866547Y-40483264D02*
X147765356Y-40530883D01*
X148122499Y-41102312D02*
X148021309Y-41149931D01*
X148021309Y-41149931D02*
X147783213Y-41149931D01*
X147783213Y-41149931D02*
X147693928Y-41102312D01*
X147693928Y-41102312D02*
X147658213Y-41007073D01*
X147658213Y-41007073D02*
X147670118Y-40911835D01*
X147670118Y-40911835D02*
X147729642Y-40816597D01*
X147729642Y-40816597D02*
X147830833Y-40768978D01*
X147830833Y-40768978D02*
X148068928Y-40768978D01*
X148068928Y-40768978D02*
X148170118Y-40721359D01*
X148592737Y-41149931D02*
X148676071Y-40483264D01*
X148652261Y-40673740D02*
X148711785Y-40578502D01*
X148711785Y-40578502D02*
X148765356Y-40530883D01*
X148765356Y-40530883D02*
X148866547Y-40483264D01*
X148866547Y-40483264D02*
X148961785Y-40483264D01*
X149640357Y-41149931D02*
X149765357Y-40149931D01*
X149646309Y-41102312D02*
X149545119Y-41149931D01*
X149545119Y-41149931D02*
X149354643Y-41149931D01*
X149354643Y-41149931D02*
X149265357Y-41102312D01*
X149265357Y-41102312D02*
X149223690Y-41054692D01*
X149223690Y-41054692D02*
X149187976Y-40959454D01*
X149187976Y-40959454D02*
X149223690Y-40673740D01*
X149223690Y-40673740D02*
X149283214Y-40578502D01*
X149283214Y-40578502D02*
X149336785Y-40530883D01*
X149336785Y-40530883D02*
X149437976Y-40483264D01*
X149437976Y-40483264D02*
X149628452Y-40483264D01*
X149628452Y-40483264D02*
X149717738Y-40530883D01*
X150170119Y-41102312D02*
X150164166Y-41149931D01*
X150164166Y-41149931D02*
X150104643Y-41245169D01*
X150104643Y-41245169D02*
X150051071Y-41292788D01*
X151437976Y-40483264D02*
X151354642Y-41149931D01*
X151426071Y-40578502D02*
X151479642Y-40530883D01*
X151479642Y-40530883D02*
X151580833Y-40483264D01*
X151580833Y-40483264D02*
X151723690Y-40483264D01*
X151723690Y-40483264D02*
X151812976Y-40530883D01*
X151812976Y-40530883D02*
X151848690Y-40626121D01*
X151848690Y-40626121D02*
X151783214Y-41149931D01*
X152402262Y-41149931D02*
X152312976Y-41102312D01*
X152312976Y-41102312D02*
X152271309Y-41054692D01*
X152271309Y-41054692D02*
X152235595Y-40959454D01*
X152235595Y-40959454D02*
X152271309Y-40673740D01*
X152271309Y-40673740D02*
X152330833Y-40578502D01*
X152330833Y-40578502D02*
X152384404Y-40530883D01*
X152384404Y-40530883D02*
X152485595Y-40483264D01*
X152485595Y-40483264D02*
X152628452Y-40483264D01*
X152628452Y-40483264D02*
X152717738Y-40530883D01*
X152717738Y-40530883D02*
X152759404Y-40578502D01*
X152759404Y-40578502D02*
X152795119Y-40673740D01*
X152795119Y-40673740D02*
X152759404Y-40959454D01*
X152759404Y-40959454D02*
X152699881Y-41054692D01*
X152699881Y-41054692D02*
X152646309Y-41102312D01*
X152646309Y-41102312D02*
X152545119Y-41149931D01*
X152545119Y-41149931D02*
X152402262Y-41149931D01*
X153104643Y-40483264D02*
X153485595Y-40483264D01*
X153289166Y-40149931D02*
X153182024Y-41007073D01*
X153182024Y-41007073D02*
X153217738Y-41102312D01*
X153217738Y-41102312D02*
X153307024Y-41149931D01*
X153307024Y-41149931D02*
X153402262Y-41149931D01*
X154926072Y-41149931D02*
X154991548Y-40626121D01*
X154991548Y-40626121D02*
X154955834Y-40530883D01*
X154955834Y-40530883D02*
X154866548Y-40483264D01*
X154866548Y-40483264D02*
X154676072Y-40483264D01*
X154676072Y-40483264D02*
X154574881Y-40530883D01*
X154932024Y-41102312D02*
X154830834Y-41149931D01*
X154830834Y-41149931D02*
X154592738Y-41149931D01*
X154592738Y-41149931D02*
X154503453Y-41102312D01*
X154503453Y-41102312D02*
X154467738Y-41007073D01*
X154467738Y-41007073D02*
X154479643Y-40911835D01*
X154479643Y-40911835D02*
X154539167Y-40816597D01*
X154539167Y-40816597D02*
X154640358Y-40768978D01*
X154640358Y-40768978D02*
X154878453Y-40768978D01*
X154878453Y-40768978D02*
X154979643Y-40721359D01*
X155360596Y-41102312D02*
X155449881Y-41149931D01*
X155449881Y-41149931D02*
X155640358Y-41149931D01*
X155640358Y-41149931D02*
X155741548Y-41102312D01*
X155741548Y-41102312D02*
X155801072Y-41007073D01*
X155801072Y-41007073D02*
X155807024Y-40959454D01*
X155807024Y-40959454D02*
X155771310Y-40864216D01*
X155771310Y-40864216D02*
X155682024Y-40816597D01*
X155682024Y-40816597D02*
X155539167Y-40816597D01*
X155539167Y-40816597D02*
X155449881Y-40768978D01*
X155449881Y-40768978D02*
X155414167Y-40673740D01*
X155414167Y-40673740D02*
X155420120Y-40626121D01*
X155420120Y-40626121D02*
X155479643Y-40530883D01*
X155479643Y-40530883D02*
X155580834Y-40483264D01*
X155580834Y-40483264D02*
X155723691Y-40483264D01*
X155723691Y-40483264D02*
X155812977Y-40530883D01*
X156973691Y-41149931D02*
X157057025Y-40483264D01*
X157045120Y-40578502D02*
X157098691Y-40530883D01*
X157098691Y-40530883D02*
X157199882Y-40483264D01*
X157199882Y-40483264D02*
X157342739Y-40483264D01*
X157342739Y-40483264D02*
X157432025Y-40530883D01*
X157432025Y-40530883D02*
X157467739Y-40626121D01*
X157467739Y-40626121D02*
X157402263Y-41149931D01*
X157467739Y-40626121D02*
X157527263Y-40530883D01*
X157527263Y-40530883D02*
X157628453Y-40483264D01*
X157628453Y-40483264D02*
X157771310Y-40483264D01*
X157771310Y-40483264D02*
X157860596Y-40530883D01*
X157860596Y-40530883D02*
X157896310Y-40626121D01*
X157896310Y-40626121D02*
X157830834Y-41149931D01*
X158818929Y-40483264D02*
X158735596Y-41149931D01*
X158390358Y-40483264D02*
X158324882Y-41007073D01*
X158324882Y-41007073D02*
X158360596Y-41102312D01*
X158360596Y-41102312D02*
X158449882Y-41149931D01*
X158449882Y-41149931D02*
X158592739Y-41149931D01*
X158592739Y-41149931D02*
X158693929Y-41102312D01*
X158693929Y-41102312D02*
X158747501Y-41054692D01*
X159354644Y-41149931D02*
X159265358Y-41102312D01*
X159265358Y-41102312D02*
X159229644Y-41007073D01*
X159229644Y-41007073D02*
X159336786Y-40149931D01*
X159676073Y-40483264D02*
X160057025Y-40483264D01*
X159860596Y-40149931D02*
X159753454Y-41007073D01*
X159753454Y-41007073D02*
X159789168Y-41102312D01*
X159789168Y-41102312D02*
X159878454Y-41149931D01*
X159878454Y-41149931D02*
X159973692Y-41149931D01*
X160307025Y-41149931D02*
X160390359Y-40483264D01*
X160432025Y-40149931D02*
X160378454Y-40197550D01*
X160378454Y-40197550D02*
X160420121Y-40245169D01*
X160420121Y-40245169D02*
X160473692Y-40197550D01*
X160473692Y-40197550D02*
X160432025Y-40149931D01*
X160432025Y-40149931D02*
X160420121Y-40245169D01*
X160866549Y-40483264D02*
X160741549Y-41483264D01*
X160860596Y-40530883D02*
X160961787Y-40483264D01*
X160961787Y-40483264D02*
X161152263Y-40483264D01*
X161152263Y-40483264D02*
X161241549Y-40530883D01*
X161241549Y-40530883D02*
X161283215Y-40578502D01*
X161283215Y-40578502D02*
X161318930Y-40673740D01*
X161318930Y-40673740D02*
X161283215Y-40959454D01*
X161283215Y-40959454D02*
X161223692Y-41054692D01*
X161223692Y-41054692D02*
X161170120Y-41102312D01*
X161170120Y-41102312D02*
X161068930Y-41149931D01*
X161068930Y-41149931D02*
X160878453Y-41149931D01*
X160878453Y-41149931D02*
X160789168Y-41102312D01*
X161830835Y-41149931D02*
X161741549Y-41102312D01*
X161741549Y-41102312D02*
X161705835Y-41007073D01*
X161705835Y-41007073D02*
X161812977Y-40149931D01*
X162598692Y-41102312D02*
X162497502Y-41149931D01*
X162497502Y-41149931D02*
X162307025Y-41149931D01*
X162307025Y-41149931D02*
X162217740Y-41102312D01*
X162217740Y-41102312D02*
X162182025Y-41007073D01*
X162182025Y-41007073D02*
X162229645Y-40626121D01*
X162229645Y-40626121D02*
X162289168Y-40530883D01*
X162289168Y-40530883D02*
X162390359Y-40483264D01*
X162390359Y-40483264D02*
X162580835Y-40483264D01*
X162580835Y-40483264D02*
X162670121Y-40530883D01*
X162670121Y-40530883D02*
X162705835Y-40626121D01*
X162705835Y-40626121D02*
X162693930Y-40721359D01*
X162693930Y-40721359D02*
X162205835Y-40816597D01*
X163830835Y-41149931D02*
X163914169Y-40483264D01*
X163955835Y-40149931D02*
X163902264Y-40197550D01*
X163902264Y-40197550D02*
X163943931Y-40245169D01*
X163943931Y-40245169D02*
X163997502Y-40197550D01*
X163997502Y-40197550D02*
X163955835Y-40149931D01*
X163955835Y-40149931D02*
X163943931Y-40245169D01*
X164390359Y-40483264D02*
X164307025Y-41149931D01*
X164378454Y-40578502D02*
X164432025Y-40530883D01*
X164432025Y-40530883D02*
X164533216Y-40483264D01*
X164533216Y-40483264D02*
X164676073Y-40483264D01*
X164676073Y-40483264D02*
X164765359Y-40530883D01*
X164765359Y-40530883D02*
X164801073Y-40626121D01*
X164801073Y-40626121D02*
X164735597Y-41149931D01*
X165640359Y-41149931D02*
X165765359Y-40149931D01*
X165646311Y-41102312D02*
X165545121Y-41149931D01*
X165545121Y-41149931D02*
X165354645Y-41149931D01*
X165354645Y-41149931D02*
X165265359Y-41102312D01*
X165265359Y-41102312D02*
X165223692Y-41054692D01*
X165223692Y-41054692D02*
X165187978Y-40959454D01*
X165187978Y-40959454D02*
X165223692Y-40673740D01*
X165223692Y-40673740D02*
X165283216Y-40578502D01*
X165283216Y-40578502D02*
X165336787Y-40530883D01*
X165336787Y-40530883D02*
X165437978Y-40483264D01*
X165437978Y-40483264D02*
X165628454Y-40483264D01*
X165628454Y-40483264D02*
X165717740Y-40530883D01*
X166116549Y-41149931D02*
X166199883Y-40483264D01*
X166241549Y-40149931D02*
X166187978Y-40197550D01*
X166187978Y-40197550D02*
X166229645Y-40245169D01*
X166229645Y-40245169D02*
X166283216Y-40197550D01*
X166283216Y-40197550D02*
X166241549Y-40149931D01*
X166241549Y-40149931D02*
X166229645Y-40245169D01*
X166580835Y-40483264D02*
X166735597Y-41149931D01*
X166735597Y-41149931D02*
X167057025Y-40483264D01*
X167354644Y-41149931D02*
X167437978Y-40483264D01*
X167479644Y-40149931D02*
X167426073Y-40197550D01*
X167426073Y-40197550D02*
X167467740Y-40245169D01*
X167467740Y-40245169D02*
X167521311Y-40197550D01*
X167521311Y-40197550D02*
X167479644Y-40149931D01*
X167479644Y-40149931D02*
X167467740Y-40245169D01*
X168259406Y-41149931D02*
X168384406Y-40149931D01*
X168265358Y-41102312D02*
X168164168Y-41149931D01*
X168164168Y-41149931D02*
X167973692Y-41149931D01*
X167973692Y-41149931D02*
X167884406Y-41102312D01*
X167884406Y-41102312D02*
X167842739Y-41054692D01*
X167842739Y-41054692D02*
X167807025Y-40959454D01*
X167807025Y-40959454D02*
X167842739Y-40673740D01*
X167842739Y-40673740D02*
X167902263Y-40578502D01*
X167902263Y-40578502D02*
X167955834Y-40530883D01*
X167955834Y-40530883D02*
X168057025Y-40483264D01*
X168057025Y-40483264D02*
X168247501Y-40483264D01*
X168247501Y-40483264D02*
X168336787Y-40530883D01*
X169247501Y-40483264D02*
X169164168Y-41149931D01*
X168818930Y-40483264D02*
X168753454Y-41007073D01*
X168753454Y-41007073D02*
X168789168Y-41102312D01*
X168789168Y-41102312D02*
X168878454Y-41149931D01*
X168878454Y-41149931D02*
X169021311Y-41149931D01*
X169021311Y-41149931D02*
X169122501Y-41102312D01*
X169122501Y-41102312D02*
X169176073Y-41054692D01*
X170068930Y-41149931D02*
X170134406Y-40626121D01*
X170134406Y-40626121D02*
X170098692Y-40530883D01*
X170098692Y-40530883D02*
X170009406Y-40483264D01*
X170009406Y-40483264D02*
X169818930Y-40483264D01*
X169818930Y-40483264D02*
X169717739Y-40530883D01*
X170074882Y-41102312D02*
X169973692Y-41149931D01*
X169973692Y-41149931D02*
X169735596Y-41149931D01*
X169735596Y-41149931D02*
X169646311Y-41102312D01*
X169646311Y-41102312D02*
X169610596Y-41007073D01*
X169610596Y-41007073D02*
X169622501Y-40911835D01*
X169622501Y-40911835D02*
X169682025Y-40816597D01*
X169682025Y-40816597D02*
X169783216Y-40768978D01*
X169783216Y-40768978D02*
X170021311Y-40768978D01*
X170021311Y-40768978D02*
X170122501Y-40721359D01*
X170687978Y-41149931D02*
X170598692Y-41102312D01*
X170598692Y-41102312D02*
X170562978Y-41007073D01*
X170562978Y-41007073D02*
X170670120Y-40149931D01*
X171830835Y-41149931D02*
X171955835Y-40149931D01*
X171908216Y-40530883D02*
X172009407Y-40483264D01*
X172009407Y-40483264D02*
X172199883Y-40483264D01*
X172199883Y-40483264D02*
X172289169Y-40530883D01*
X172289169Y-40530883D02*
X172330835Y-40578502D01*
X172330835Y-40578502D02*
X172366550Y-40673740D01*
X172366550Y-40673740D02*
X172330835Y-40959454D01*
X172330835Y-40959454D02*
X172271312Y-41054692D01*
X172271312Y-41054692D02*
X172217740Y-41102312D01*
X172217740Y-41102312D02*
X172116550Y-41149931D01*
X172116550Y-41149931D02*
X171926073Y-41149931D01*
X171926073Y-41149931D02*
X171836788Y-41102312D01*
X172878455Y-41149931D02*
X172789169Y-41102312D01*
X172789169Y-41102312D02*
X172747502Y-41054692D01*
X172747502Y-41054692D02*
X172711788Y-40959454D01*
X172711788Y-40959454D02*
X172747502Y-40673740D01*
X172747502Y-40673740D02*
X172807026Y-40578502D01*
X172807026Y-40578502D02*
X172860597Y-40530883D01*
X172860597Y-40530883D02*
X172961788Y-40483264D01*
X172961788Y-40483264D02*
X173104645Y-40483264D01*
X173104645Y-40483264D02*
X173193931Y-40530883D01*
X173193931Y-40530883D02*
X173235597Y-40578502D01*
X173235597Y-40578502D02*
X173271312Y-40673740D01*
X173271312Y-40673740D02*
X173235597Y-40959454D01*
X173235597Y-40959454D02*
X173176074Y-41054692D01*
X173176074Y-41054692D02*
X173122502Y-41102312D01*
X173122502Y-41102312D02*
X173021312Y-41149931D01*
X173021312Y-41149931D02*
X172878455Y-41149931D01*
X174068931Y-41149931D02*
X174134407Y-40626121D01*
X174134407Y-40626121D02*
X174098693Y-40530883D01*
X174098693Y-40530883D02*
X174009407Y-40483264D01*
X174009407Y-40483264D02*
X173818931Y-40483264D01*
X173818931Y-40483264D02*
X173717740Y-40530883D01*
X174074883Y-41102312D02*
X173973693Y-41149931D01*
X173973693Y-41149931D02*
X173735597Y-41149931D01*
X173735597Y-41149931D02*
X173646312Y-41102312D01*
X173646312Y-41102312D02*
X173610597Y-41007073D01*
X173610597Y-41007073D02*
X173622502Y-40911835D01*
X173622502Y-40911835D02*
X173682026Y-40816597D01*
X173682026Y-40816597D02*
X173783217Y-40768978D01*
X173783217Y-40768978D02*
X174021312Y-40768978D01*
X174021312Y-40768978D02*
X174122502Y-40721359D01*
X174545121Y-41149931D02*
X174628455Y-40483264D01*
X174604645Y-40673740D02*
X174664169Y-40578502D01*
X174664169Y-40578502D02*
X174717740Y-40530883D01*
X174717740Y-40530883D02*
X174818931Y-40483264D01*
X174818931Y-40483264D02*
X174914169Y-40483264D01*
X175592741Y-41149931D02*
X175717741Y-40149931D01*
X175598693Y-41102312D02*
X175497503Y-41149931D01*
X175497503Y-41149931D02*
X175307027Y-41149931D01*
X175307027Y-41149931D02*
X175217741Y-41102312D01*
X175217741Y-41102312D02*
X175176074Y-41054692D01*
X175176074Y-41054692D02*
X175140360Y-40959454D01*
X175140360Y-40959454D02*
X175176074Y-40673740D01*
X175176074Y-40673740D02*
X175235598Y-40578502D01*
X175235598Y-40578502D02*
X175289169Y-40530883D01*
X175289169Y-40530883D02*
X175390360Y-40483264D01*
X175390360Y-40483264D02*
X175580836Y-40483264D01*
X175580836Y-40483264D02*
X175670122Y-40530883D01*
X176027265Y-41102312D02*
X176116550Y-41149931D01*
X176116550Y-41149931D02*
X176307027Y-41149931D01*
X176307027Y-41149931D02*
X176408217Y-41102312D01*
X176408217Y-41102312D02*
X176467741Y-41007073D01*
X176467741Y-41007073D02*
X176473693Y-40959454D01*
X176473693Y-40959454D02*
X176437979Y-40864216D01*
X176437979Y-40864216D02*
X176348693Y-40816597D01*
X176348693Y-40816597D02*
X176205836Y-40816597D01*
X176205836Y-40816597D02*
X176116550Y-40768978D01*
X176116550Y-40768978D02*
X176080836Y-40673740D01*
X176080836Y-40673740D02*
X176086789Y-40626121D01*
X176086789Y-40626121D02*
X176146312Y-40530883D01*
X176146312Y-40530883D02*
X176247503Y-40483264D01*
X176247503Y-40483264D02*
X176390360Y-40483264D01*
X176390360Y-40483264D02*
X176479646Y-40530883D01*
X176890360Y-41054692D02*
X176932027Y-41102312D01*
X176932027Y-41102312D02*
X176878455Y-41149931D01*
X176878455Y-41149931D02*
X176836789Y-41102312D01*
X176836789Y-41102312D02*
X176890360Y-41054692D01*
X176890360Y-41054692D02*
X176878455Y-41149931D01*
X107812969Y-43369819D02*
X108384398Y-43369819D01*
X107973684Y-44369819D02*
X108098684Y-43369819D01*
X108592731Y-44369819D02*
X108717731Y-43369819D01*
X109021303Y-44369819D02*
X109086779Y-43846009D01*
X109086779Y-43846009D02*
X109051065Y-43750771D01*
X109051065Y-43750771D02*
X108961779Y-43703152D01*
X108961779Y-43703152D02*
X108818922Y-43703152D01*
X108818922Y-43703152D02*
X108717731Y-43750771D01*
X108717731Y-43750771D02*
X108664160Y-43798390D01*
X109926065Y-44369819D02*
X109991541Y-43846009D01*
X109991541Y-43846009D02*
X109955827Y-43750771D01*
X109955827Y-43750771D02*
X109866541Y-43703152D01*
X109866541Y-43703152D02*
X109676065Y-43703152D01*
X109676065Y-43703152D02*
X109574874Y-43750771D01*
X109932017Y-44322200D02*
X109830827Y-44369819D01*
X109830827Y-44369819D02*
X109592731Y-44369819D01*
X109592731Y-44369819D02*
X109503446Y-44322200D01*
X109503446Y-44322200D02*
X109467731Y-44226961D01*
X109467731Y-44226961D02*
X109479636Y-44131723D01*
X109479636Y-44131723D02*
X109539160Y-44036485D01*
X109539160Y-44036485D02*
X109640351Y-43988866D01*
X109640351Y-43988866D02*
X109878446Y-43988866D01*
X109878446Y-43988866D02*
X109979636Y-43941247D01*
X110485589Y-43703152D02*
X110402255Y-44369819D01*
X110473684Y-43798390D02*
X110527255Y-43750771D01*
X110527255Y-43750771D02*
X110628446Y-43703152D01*
X110628446Y-43703152D02*
X110771303Y-43703152D01*
X110771303Y-43703152D02*
X110860589Y-43750771D01*
X110860589Y-43750771D02*
X110896303Y-43846009D01*
X110896303Y-43846009D02*
X110830827Y-44369819D01*
X111307017Y-44369819D02*
X111432017Y-43369819D01*
X111449875Y-43988866D02*
X111687970Y-44369819D01*
X111771303Y-43703152D02*
X111342732Y-44084104D01*
X112074875Y-44322200D02*
X112164160Y-44369819D01*
X112164160Y-44369819D02*
X112354637Y-44369819D01*
X112354637Y-44369819D02*
X112455827Y-44322200D01*
X112455827Y-44322200D02*
X112515351Y-44226961D01*
X112515351Y-44226961D02*
X112521303Y-44179342D01*
X112521303Y-44179342D02*
X112485589Y-44084104D01*
X112485589Y-44084104D02*
X112396303Y-44036485D01*
X112396303Y-44036485D02*
X112253446Y-44036485D01*
X112253446Y-44036485D02*
X112164160Y-43988866D01*
X112164160Y-43988866D02*
X112128446Y-43893628D01*
X112128446Y-43893628D02*
X112134399Y-43846009D01*
X112134399Y-43846009D02*
X112193922Y-43750771D01*
X112193922Y-43750771D02*
X112295113Y-43703152D01*
X112295113Y-43703152D02*
X112437970Y-43703152D01*
X112437970Y-43703152D02*
X112527256Y-43750771D01*
X113699875Y-44274580D02*
X113741542Y-44322200D01*
X113741542Y-44322200D02*
X113687970Y-44369819D01*
X113687970Y-44369819D02*
X113646304Y-44322200D01*
X113646304Y-44322200D02*
X113699875Y-44274580D01*
X113699875Y-44274580D02*
X113687970Y-44369819D01*
X113765351Y-43750771D02*
X113807018Y-43798390D01*
X113807018Y-43798390D02*
X113753447Y-43846009D01*
X113753447Y-43846009D02*
X113711780Y-43798390D01*
X113711780Y-43798390D02*
X113765351Y-43750771D01*
X113765351Y-43750771D02*
X113753447Y-43846009D01*
X114021303Y-44750771D02*
X114074875Y-44703152D01*
X114074875Y-44703152D02*
X114187970Y-44560295D01*
X114187970Y-44560295D02*
X114247494Y-44465057D01*
X114247494Y-44465057D02*
X114312970Y-44322200D01*
X114312970Y-44322200D02*
X114390351Y-44084104D01*
X114390351Y-44084104D02*
X114414160Y-43893628D01*
X114414160Y-43893628D02*
X114396303Y-43655533D01*
X114396303Y-43655533D02*
X114366541Y-43512676D01*
X114366541Y-43512676D02*
X114330827Y-43417438D01*
X114330827Y-43417438D02*
X114253446Y-43274580D01*
X114253446Y-43274580D02*
X114211779Y-43226961D01*
M02*
