%TF.GenerationSoftware,KiCad,Pcbnew,7.0.5*%
%TF.CreationDate,2023-07-25T15:15:16+01:00*%
%TF.ProjectId,buttonsSuper,62757474-6f6e-4735-9375-7065722e6b69,rev?*%
%TF.SameCoordinates,Original*%
%TF.FileFunction,Profile,NP*%
%FSLAX46Y46*%
G04 Gerber Fmt 4.6, Leading zero omitted, Abs format (unit mm)*
G04 Created by KiCad (PCBNEW 7.0.5) date 2023-07-25 15:15:16*
%MOMM*%
%LPD*%
G01*
G04 APERTURE LIST*
%TA.AperFunction,Profile*%
%ADD10C,0.100000*%
%TD*%
%TA.AperFunction,Profile*%
%ADD11C,0.150000*%
%TD*%
%TA.AperFunction,Profile*%
%ADD12C,0.120000*%
%TD*%
G04 APERTURE END LIST*
D10*
X150750000Y-71000000D02*
X150750000Y-62500000D01*
X162250000Y-84000000D02*
X160500000Y-78750000D01*
X158500000Y-94250000D02*
G75*
G03*
X158500000Y-94250000I-1000000J0D01*
G01*
X163250000Y-62500000D02*
X163250000Y-64250000D01*
X152000000Y-62500000D02*
X150750000Y-62500000D01*
X151250000Y-60000000D02*
G75*
G03*
X150750000Y-60500000I0J-500000D01*
G01*
X171750000Y-99750000D02*
X165750000Y-106000000D01*
X58000000Y-103750000D02*
X54750000Y-100750000D01*
X150000001Y-85500000D02*
X144750000Y-90000000D01*
X55750000Y-87750000D02*
X55750000Y-75750000D01*
X43750000Y-77750000D02*
X40750000Y-77750000D01*
X173750000Y-91500000D02*
X173750000Y-99750000D01*
X163250000Y-65250000D02*
X163250000Y-70500000D01*
X144750000Y-90000000D02*
X144750000Y-100250000D01*
X150750000Y-71000000D02*
G75*
G03*
X151250000Y-71500000I500000J0D01*
G01*
X162250000Y-71500000D02*
G75*
G03*
X163250000Y-70500000I0J1000000D01*
G01*
X39750000Y-101750000D02*
X39750000Y-95750000D01*
X162250000Y-73750000D02*
X160500000Y-78750000D01*
X149750000Y-125250000D02*
X159250000Y-125250000D01*
X121790569Y-98500000D02*
G75*
G03*
X121790569Y-98500000I-790569J0D01*
G01*
X40750000Y-77750000D02*
X40750000Y-87750000D01*
X131500000Y-89500000D02*
X141500000Y-100250000D01*
X156696227Y-77015508D02*
G75*
G03*
X156696227Y-77015508I-696227J0D01*
G01*
X76000000Y-125250000D02*
X79500000Y-125250000D01*
X123000000Y-97000000D02*
X128250000Y-97000000D01*
X51750000Y-88750000D02*
X51750000Y-95750000D01*
X154750000Y-112000000D02*
G75*
G03*
X153250000Y-112000000I-750000J0D01*
G01*
X133250000Y-102250000D02*
X133000000Y-102250000D01*
X153250000Y-112000000D02*
X153250000Y-113500000D01*
X43750000Y-75750000D02*
X43750000Y-77750000D01*
X149750000Y-122000000D02*
X153500000Y-122000000D01*
X70500000Y-119250000D02*
X70500000Y-125750000D01*
X166207107Y-89250000D02*
G75*
G03*
X166207107Y-89250000I-707107J0D01*
G01*
X163250000Y-110000000D02*
X163250000Y-109000000D01*
X54750000Y-87750000D02*
X55750000Y-87750000D01*
X159500000Y-71500000D02*
X151250000Y-71500000D01*
X149290569Y-89250000D02*
G75*
G03*
X149290569Y-89250000I-790569J0D01*
G01*
X158250000Y-76750000D02*
X159500000Y-73000000D01*
X152559017Y-70250000D02*
G75*
G03*
X152559017Y-70250000I-559017J0D01*
G01*
X150750000Y-61750000D02*
X152000000Y-61750000D01*
X162250000Y-65250000D02*
X163250000Y-65250000D01*
X56000000Y-130750000D02*
X56000000Y-122750000D01*
X168000000Y-87184928D02*
X164500000Y-87250000D01*
X128750000Y-102250000D02*
X73500000Y-102250000D01*
X39985773Y-119013103D02*
X40000000Y-122750000D01*
X172500000Y-89500000D02*
X173250000Y-90500000D01*
X40000000Y-122750000D02*
X56000000Y-122750000D01*
X79500000Y-125250000D02*
X79500000Y-107750000D01*
X162250000Y-71750000D02*
X162250000Y-73750000D01*
X55750000Y-75750000D02*
X43750000Y-75750000D01*
X171250000Y-88500000D02*
X172500000Y-89500000D01*
X119000001Y-98750000D02*
G75*
G03*
X122999999Y-98750000I1999999J750000D01*
G01*
X154230156Y-77958785D02*
G75*
G03*
X150000002Y-85500000I3269844J-6791215D01*
G01*
X152000000Y-62500000D02*
G75*
G03*
X152000000Y-61750000I0J375000D01*
G01*
X141500000Y-100250000D02*
X144750000Y-100250000D01*
X133000000Y-102250000D02*
X128750000Y-102250000D01*
X164250000Y-109000000D02*
G75*
G03*
X163250000Y-109000000I-500000J0D01*
G01*
X128250000Y-97000000D02*
X133250000Y-102250000D01*
X150750000Y-60500000D02*
X150750000Y-61750000D01*
X165750000Y-106000000D02*
X165750000Y-110500000D01*
X164250000Y-109000000D02*
X164250000Y-110000000D01*
X173250000Y-90500000D02*
X173750000Y-91500000D01*
X76000000Y-130750000D02*
X159250000Y-130750000D01*
X170000000Y-87750000D02*
X171250000Y-88500000D01*
X131500000Y-89500000D02*
X113575000Y-89500254D01*
X151250000Y-60000000D02*
X160250000Y-60000000D01*
X79500000Y-107750000D02*
X73500915Y-107750000D01*
D11*
X52000000Y-110250000D02*
G75*
G03*
X52000000Y-110250000I-2500000J0D01*
G01*
D10*
X149750000Y-122000000D02*
X149750000Y-125250000D01*
X173750000Y-99750000D02*
X171750000Y-99750000D01*
X56000000Y-130750000D02*
X76000000Y-130750000D01*
X153250000Y-113500000D02*
X152000000Y-113500000D01*
X157499999Y-76750000D02*
G75*
G03*
X154500001Y-76750000I-1499999J-265499D01*
G01*
X168500000Y-87250000D02*
X170000000Y-87750000D01*
X162250000Y-71500000D02*
X162250000Y-71750000D01*
X154230156Y-77958785D02*
X154500000Y-77500000D01*
X163500000Y-113500000D02*
X154750000Y-113500000D01*
X163250000Y-110000000D02*
G75*
G03*
X164250000Y-110000000I500000J0D01*
G01*
X162250000Y-64250000D02*
G75*
G03*
X162250000Y-65250000I0J-500000D01*
G01*
X119000000Y-97000000D02*
X113575000Y-96999747D01*
X76000000Y-125250000D02*
X76000000Y-119250000D01*
X54750000Y-100750000D02*
X54750000Y-95750000D01*
X119000000Y-97000000D02*
X119000000Y-98750000D01*
X154750000Y-113500000D02*
X154750000Y-112000000D01*
X40750000Y-87750000D02*
X51750000Y-87750000D01*
X61000000Y-103750000D02*
X58000000Y-103750000D01*
X54750000Y-87750000D02*
X54750000Y-95750000D01*
X70500000Y-125750000D02*
X61000000Y-125750000D01*
X154500000Y-77500000D02*
X154500001Y-76750000D01*
X163250000Y-64250000D02*
X162250000Y-64250000D01*
X61000000Y-125750000D02*
X61000000Y-103750000D01*
X165750000Y-110500000D02*
X163500000Y-113500000D01*
X152000000Y-113500000D02*
X152000000Y-117500000D01*
X157500000Y-76750000D02*
X158250000Y-76750000D01*
X168000000Y-87184928D02*
X168500000Y-87250000D01*
X39750000Y-95750000D02*
X51750000Y-95750000D01*
X162750000Y-61750000D02*
X163250000Y-62500000D01*
X164500000Y-87250000D02*
X162250000Y-84000000D01*
X51750000Y-87750000D02*
X51750000Y-88750000D01*
X159500000Y-73000000D02*
X159500000Y-71500000D01*
X160250000Y-61750000D02*
X162750000Y-61750000D01*
X152000000Y-117500000D02*
X153499085Y-117500000D01*
X160250000Y-60000000D02*
X160250000Y-61750000D01*
X161809017Y-63000000D02*
G75*
G03*
X161809017Y-63000000I-559017J0D01*
G01*
X123000000Y-98750000D02*
X123000000Y-97000000D01*
X39750001Y-101750001D02*
G75*
G03*
X39985774Y-119013102I9749999J-8499999D01*
G01*
D12*
%TO.C,C4*%
X107895000Y-97000000D02*
X107895915Y-89500000D01*
X113575000Y-96999493D02*
X107895000Y-96999493D01*
X113575000Y-89500000D02*
X107895915Y-89500000D01*
%TO.C,C3*%
X153499085Y-122000000D02*
X163679085Y-122000000D01*
X153500000Y-117500000D02*
X163680000Y-117500000D01*
X163680000Y-117500000D02*
X163679085Y-122000000D01*
%TO.C,C1*%
X161750000Y-125250000D02*
X159250000Y-125250000D01*
X161750000Y-125500000D02*
X161750000Y-125250000D01*
X161750000Y-125500000D02*
X161750000Y-130500000D01*
X161750000Y-130500000D02*
X161750000Y-130750000D01*
X161750000Y-130750000D02*
X159250000Y-130750000D01*
%TO.C,C2*%
X70500000Y-116750000D02*
X70500000Y-119250000D01*
X70750000Y-116750000D02*
X70500000Y-116750000D01*
X70750000Y-116750000D02*
X75750000Y-116750000D01*
X75750000Y-116750000D02*
X76000000Y-116750000D01*
X76000000Y-116750000D02*
X76000000Y-119250000D01*
%TO.C,C5*%
X73500000Y-102250000D02*
X63320000Y-102250000D01*
X63320000Y-102250000D02*
X63320915Y-107750000D01*
X73500915Y-107750000D02*
X63320915Y-107750000D01*
%TD*%
M02*
