%TF.GenerationSoftware,KiCad,Pcbnew,8.0.4*%
%TF.CreationDate,2024-08-19T21:12:56+01:00*%
%TF.ProjectId,buttonsSuper,62757474-6f6e-4735-9375-7065722e6b69,rev?*%
%TF.SameCoordinates,Original*%
%TF.FileFunction,Copper,L2,Bot*%
%TF.FilePolarity,Positive*%
%FSLAX46Y46*%
G04 Gerber Fmt 4.6, Leading zero omitted, Abs format (unit mm)*
G04 Created by KiCad (PCBNEW 8.0.4) date 2024-08-19 21:12:56*
%MOMM*%
%LPD*%
G01*
G04 APERTURE LIST*
G04 Aperture macros list*
%AMRoundRect*
0 Rectangle with rounded corners*
0 $1 Rounding radius*
0 $2 $3 $4 $5 $6 $7 $8 $9 X,Y pos of 4 corners*
0 Add a 4 corners polygon primitive as box body*
4,1,4,$2,$3,$4,$5,$6,$7,$8,$9,$2,$3,0*
0 Add four circle primitives for the rounded corners*
1,1,$1+$1,$2,$3*
1,1,$1+$1,$4,$5*
1,1,$1+$1,$6,$7*
1,1,$1+$1,$8,$9*
0 Add four rect primitives between the rounded corners*
20,1,$1+$1,$2,$3,$4,$5,0*
20,1,$1+$1,$4,$5,$6,$7,0*
20,1,$1+$1,$6,$7,$8,$9,0*
20,1,$1+$1,$8,$9,$2,$3,0*%
%AMFreePoly0*
4,1,5,0.125000,-9.000000,-0.125000,-9.000000,-0.125000,1.000000,0.125000,1.000000,0.125000,-9.000000,0.125000,-9.000000,$1*%
G04 Aperture macros list end*
%TA.AperFunction,SMDPad,CuDef*%
%ADD10RoundRect,0.312500X-0.312500X0.312500X-0.312500X-0.312500X0.312500X-0.312500X0.312500X0.312500X0*%
%TD*%
%TA.AperFunction,SMDPad,CuDef*%
%ADD11FreePoly0,270.000000*%
%TD*%
%TA.AperFunction,ViaPad*%
%ADD12C,0.800000*%
%TD*%
%TA.AperFunction,Conductor*%
%ADD13C,0.250000*%
%TD*%
G04 APERTURE END LIST*
D10*
%TO.P,C6,5,GND_[2]*%
%TO.N,/gnd3*%
X101673531Y-136499873D03*
%TO.P,C6,6,X_[2]*%
%TO.N,/X_2*%
X101673531Y-138499873D03*
%TO.P,C6,7,+v_[2]*%
%TO.N,/+v*%
X101673531Y-140499873D03*
%TO.P,C6,8,Y_[2]*%
%TO.N,/Y_2*%
X101673531Y-142499873D03*
%TD*%
D11*
%TO.P,C5,1,1*%
%TO.N,/Square*%
X101500000Y-123749873D03*
%TO.P,C5,2,2*%
%TO.N,/R1*%
X101500000Y-124249873D03*
%TO.P,C5,3,3*%
%TO.N,/Triangle*%
X101500000Y-124749873D03*
%TO.P,C5,4,4*%
%TO.N,/Circle*%
X101500000Y-125249873D03*
%TO.P,C5,5,5*%
%TO.N,/cross*%
X101500000Y-125749873D03*
%TO.P,C5,6,6*%
%TO.N,/gnd*%
X101500000Y-126249873D03*
%TO.P,C5,7,7*%
X101500000Y-126749873D03*
%TO.P,C5,8,8*%
X101500000Y-127249873D03*
%TO.P,C5,9,9*%
X101500000Y-127749873D03*
%TO.P,C5,10,10*%
%TO.N,/keyPower*%
X101500000Y-128249873D03*
%TD*%
D12*
%TO.N,/l1*%
X188725184Y-55249873D03*
X176225184Y-55249873D03*
X202725184Y-101749873D03*
X196225184Y-66749873D03*
%TO.N,/right*%
X186725184Y-54249873D03*
X174225184Y-54749873D03*
%TO.N,/up*%
X173225184Y-53749873D03*
X183725184Y-53749873D03*
%TO.N,/left*%
X171725184Y-52974873D03*
X181725184Y-53749873D03*
%TO.N,/down*%
X181225184Y-52749873D03*
X170225184Y-52474873D03*
X210225184Y-66749873D03*
X215225184Y-65249873D03*
%TO.N,GND*%
X198725184Y-64249873D03*
X203425038Y-83999873D03*
X200737837Y-75737220D03*
X210925038Y-76999873D03*
X197675038Y-51749873D03*
%TO.N,/gnd*%
X180225184Y-111249873D03*
X186225184Y-111249873D03*
X186725184Y-99249873D03*
X188225184Y-100749873D03*
X180250000Y-128249873D03*
%TO.N,/cross*%
X180000000Y-126500000D03*
%TO.N,/Circle*%
X186500000Y-119249873D03*
%TO.N,/Triangle*%
X184550038Y-117999873D03*
%TO.N,/R1*%
X183250000Y-117999873D03*
%TO.N,/Square*%
X175000000Y-121249873D03*
%TO.N,/+v*%
X99299024Y-140498859D03*
%TO.N,/X_2*%
X98799024Y-148498859D03*
%TO.N,/Y_2*%
X101799024Y-149748859D03*
%TO.N,/keyPower*%
X178250000Y-129749873D03*
%TO.N,/start*%
X85962538Y-70100026D03*
X83637538Y-104087373D03*
X85962538Y-89600026D03*
%TO.N,/screen*%
X83462538Y-110600026D03*
X83962538Y-87600026D03*
%TO.N,/vol up*%
X95000000Y-103725026D03*
X83000000Y-114500000D03*
%TO.N,/music*%
X85962538Y-78600026D03*
X85962538Y-87100026D03*
%TO.N,/vol down*%
X85237538Y-131100026D03*
X96500000Y-104500000D03*
X84000000Y-115600026D03*
%TO.N,/home*%
X94500000Y-105225000D03*
X84000000Y-117500000D03*
X85962538Y-143600026D03*
%TO.N,/select*%
X84962538Y-67600026D03*
X84462538Y-99600026D03*
X83487449Y-106100026D03*
%TO.N,/gnd2*%
X83462538Y-109100026D03*
X84444133Y-101623862D03*
%TO.N,/gnd3*%
X99799024Y-136498859D03*
%TD*%
D13*
%TO.N,/l1*%
X180915691Y-55374873D02*
X180790691Y-55249873D01*
X202725184Y-79749873D02*
X202700038Y-79775019D01*
X180790691Y-55249873D02*
X176225184Y-55249873D01*
X188725184Y-55249873D02*
X183886885Y-55249873D01*
X202700038Y-79775019D02*
X202700038Y-96724727D01*
X183761885Y-55374873D02*
X180915691Y-55374873D01*
X196225184Y-66749873D02*
X196225184Y-72249873D01*
X202725184Y-78749873D02*
X202725184Y-79749873D01*
X196225184Y-72249873D02*
X202725184Y-78749873D01*
X202700038Y-96724727D02*
X202725184Y-96749873D01*
X183886885Y-55249873D02*
X183761885Y-55374873D01*
X202725184Y-96749873D02*
X202725184Y-101749873D01*
%TO.N,/right*%
X183575489Y-54924873D02*
X184250489Y-54249873D01*
X174225184Y-54749873D02*
X174725184Y-54249873D01*
X180427087Y-54249873D02*
X181102087Y-54924873D01*
X174725184Y-54249873D02*
X180427087Y-54249873D01*
X184250489Y-54249873D02*
X186725184Y-54249873D01*
X181102087Y-54924873D02*
X183575489Y-54924873D01*
%TO.N,/up*%
X173225184Y-53749873D02*
X180563483Y-53749873D01*
X182025489Y-54474873D02*
X182250489Y-54249873D01*
X182250489Y-54249873D02*
X183225184Y-54249873D01*
X181288483Y-54474873D02*
X182025489Y-54474873D01*
X183225184Y-54249873D02*
X183725184Y-53749873D01*
X180563483Y-53749873D02*
X181288483Y-54474873D01*
%TO.N,/left*%
X171725184Y-52974873D02*
X171950184Y-52749873D01*
X171950184Y-52749873D02*
X180199879Y-52749873D01*
X180199879Y-52749873D02*
X181199879Y-53749873D01*
X181199879Y-53749873D02*
X181725184Y-53749873D01*
%TO.N,/down*%
X213225184Y-67249873D02*
X210725184Y-67249873D01*
X170450184Y-52249873D02*
X180725184Y-52249873D01*
X210725184Y-67249873D02*
X210225184Y-66749873D01*
X180725184Y-52249873D02*
X181225184Y-52749873D01*
X213225184Y-67249873D02*
X215225184Y-65249873D01*
X170225184Y-52474873D02*
X170450184Y-52249873D01*
%TO.N,GND*%
X203425038Y-83999873D02*
X210175038Y-83999873D01*
X203425038Y-83999873D02*
X203425038Y-78424421D01*
X210175038Y-83999873D02*
X210925038Y-83249873D01*
X198725184Y-64249873D02*
X198725184Y-73724567D01*
X210925038Y-83249873D02*
X210925038Y-76999873D01*
X203425038Y-78424421D02*
X200737837Y-75737220D01*
X197675038Y-51749873D02*
X197675038Y-63199727D01*
X197675038Y-63199727D02*
X198725184Y-64249873D01*
X198725184Y-73724567D02*
X200737837Y-75737220D01*
%TO.N,/gnd*%
X179250000Y-127249873D02*
X179125000Y-127124873D01*
X186225184Y-111249873D02*
X188725184Y-113749873D01*
X101500000Y-127749873D02*
X179750000Y-127749873D01*
X178750000Y-126749873D02*
X178250000Y-126249873D01*
X186725184Y-99249873D02*
X188225184Y-100749873D01*
X180525305Y-128249873D02*
X180250000Y-128249873D01*
X180250000Y-128249873D02*
X179750000Y-127749873D01*
X101500000Y-127249873D02*
X179250000Y-127249873D01*
X179125000Y-127124873D02*
X178750000Y-126749873D01*
X179750000Y-127749873D02*
X179250000Y-127249873D01*
X188725184Y-113749873D02*
X188725184Y-120049994D01*
X186225184Y-111249873D02*
X180225184Y-111249873D01*
X178250000Y-126249873D02*
X101500000Y-126249873D01*
X101500000Y-126749873D02*
X178750000Y-126749873D01*
X188725184Y-120049994D02*
X180525305Y-128249873D01*
%TO.N,/cross*%
X179249873Y-125749873D02*
X101500000Y-125749873D01*
X180000000Y-126500000D02*
X179249873Y-125749873D01*
%TO.N,/Circle*%
X180500000Y-125249873D02*
X186500000Y-119249873D01*
X101500000Y-125249873D02*
X180500000Y-125249873D01*
%TO.N,/Triangle*%
X101500000Y-124749873D02*
X180363604Y-124749873D01*
X184550038Y-120563439D02*
X184550038Y-117999873D01*
X180363604Y-124749873D02*
X184550038Y-120563439D01*
%TO.N,/R1*%
X183250000Y-121227081D02*
X183250000Y-117999873D01*
X180227208Y-124249873D02*
X183250000Y-121227081D01*
X101500000Y-124249873D02*
X180227208Y-124249873D01*
%TO.N,/Square*%
X172500000Y-123749873D02*
X175000000Y-121249873D01*
X101500000Y-123749873D02*
X172500000Y-123749873D01*
%TO.N,/+v*%
X101674024Y-140498859D02*
X99299024Y-140498859D01*
%TO.N,/X_2*%
X98299024Y-139998859D02*
X99799024Y-138498859D01*
X98299024Y-147998859D02*
X98299024Y-139998859D01*
X98799024Y-148498859D02*
X98299024Y-147998859D01*
X99799024Y-138498859D02*
X101674024Y-138498859D01*
%TO.N,/Y_2*%
X101799024Y-142623859D02*
X101674024Y-142498859D01*
X101799024Y-149748859D02*
X101799024Y-142623859D01*
%TO.N,/keyPower*%
X178250000Y-129749873D02*
X176750000Y-128249873D01*
X176750000Y-128249873D02*
X101500000Y-128249873D01*
%TO.N,/start*%
X85462538Y-99625331D02*
X85462538Y-99462538D01*
X85462538Y-99462538D02*
X82900000Y-96900000D01*
X84237538Y-100325026D02*
X84762843Y-100325026D01*
X82900000Y-91662564D02*
X85237538Y-89325026D01*
X82900000Y-96900000D02*
X82900000Y-91662564D01*
X85237538Y-70825026D02*
X85962538Y-70100026D01*
X83462538Y-103912373D02*
X83462538Y-101100026D01*
X83637538Y-104087373D02*
X83462538Y-103912373D01*
X84762843Y-100325026D02*
X85462538Y-99625331D01*
X83462538Y-101100026D02*
X84237538Y-100325026D01*
X85237538Y-89325026D02*
X85237538Y-88875026D01*
X85962538Y-89600026D02*
X85237538Y-88875026D01*
X85237538Y-88875026D02*
X85237538Y-70825026D01*
%TO.N,/screen*%
X82000000Y-109137488D02*
X82000000Y-88000000D01*
X83462538Y-110600026D02*
X82000000Y-109137488D01*
X82399974Y-87600026D02*
X83962538Y-87600026D01*
X82000000Y-88000000D02*
X82399974Y-87600026D01*
%TO.N,/vol up*%
X83000000Y-112087869D02*
X83000000Y-114500000D01*
X95000000Y-103725026D02*
X85387233Y-103725026D01*
X84812538Y-110275331D02*
X83000000Y-112087869D01*
X85387233Y-103725026D02*
X84812538Y-104299721D01*
X84812538Y-104299721D02*
X84812538Y-110275331D01*
%TO.N,/music*%
X85962538Y-87100026D02*
X85962538Y-78600026D01*
%TO.N,/vol down*%
X83000000Y-116600026D02*
X83000000Y-128862488D01*
X85262538Y-110461727D02*
X85737538Y-110936727D01*
X96500000Y-104500000D02*
X86062259Y-104500000D01*
X85737538Y-110936727D02*
X85737538Y-113862488D01*
X84000000Y-115600026D02*
X83000000Y-116600026D01*
X85262538Y-105299721D02*
X85262538Y-110461727D01*
X85737538Y-113862488D02*
X84000000Y-115600026D01*
X86062259Y-104500000D02*
X85262538Y-105299721D01*
X83000000Y-128862488D02*
X85237538Y-131100026D01*
%TO.N,/home*%
X85962538Y-121962538D02*
X85962538Y-143600026D01*
X84000000Y-120000000D02*
X85962538Y-121962538D01*
X86462538Y-115037462D02*
X84000000Y-117500000D01*
X84000000Y-117500000D02*
X84000000Y-120000000D01*
X86462538Y-105537462D02*
X86462538Y-115037462D01*
X94500000Y-105225000D02*
X86775000Y-105225000D01*
X86775000Y-105225000D02*
X86462538Y-105537462D01*
%TO.N,/select*%
X83487449Y-105124937D02*
X82912538Y-104550026D01*
X83462538Y-99600026D02*
X82450000Y-98587488D01*
X83487449Y-106100026D02*
X83487449Y-105124937D01*
X82912538Y-104550026D02*
X82912538Y-100150026D01*
X83462538Y-69100026D02*
X84962538Y-67600026D01*
X84787538Y-87925546D02*
X84787538Y-72425026D01*
X84462538Y-99600026D02*
X83462538Y-99600026D01*
X82450000Y-90263084D02*
X84787538Y-87925546D01*
X82450000Y-98587488D02*
X82450000Y-90263084D01*
X83462538Y-71100026D02*
X83462538Y-69100026D01*
X82912538Y-100150026D02*
X83462538Y-99600026D01*
X84787538Y-72425026D02*
X83462538Y-71100026D01*
%TO.N,/gnd2*%
X83962538Y-103387068D02*
X84362538Y-103787068D01*
X84362538Y-103787068D02*
X84362538Y-108200026D01*
X84362538Y-108200026D02*
X83462538Y-109100026D01*
X84444133Y-101623862D02*
X83962538Y-102105457D01*
X83962538Y-102105457D02*
X83962538Y-103387068D01*
%TO.N,/gnd3*%
X101674024Y-136498859D02*
X99799024Y-136498859D01*
%TD*%
M02*
