%TF.GenerationSoftware,KiCad,Pcbnew,8.0.4*%
%TF.CreationDate,2024-08-19T21:12:56+01:00*%
%TF.ProjectId,buttonsSuper,62757474-6f6e-4735-9375-7065722e6b69,rev?*%
%TF.SameCoordinates,Original*%
%TF.FileFunction,Legend,Top*%
%TF.FilePolarity,Positive*%
%FSLAX46Y46*%
G04 Gerber Fmt 4.6, Leading zero omitted, Abs format (unit mm)*
G04 Created by KiCad (PCBNEW 8.0.4) date 2024-08-19 21:12:56*
%MOMM*%
%LPD*%
G01*
G04 APERTURE LIST*
%ADD10C,0.100000*%
%ADD11C,0.150000*%
%ADD12C,0.254000*%
%ADD13C,0.059995*%
%ADD14C,0.120000*%
G04 APERTURE END LIST*
D10*
X86962538Y-141249873D02*
X86962538Y-141249873D01*
X86962538Y-140849873D02*
X86962538Y-140849873D01*
X86962538Y-140449873D02*
X86962538Y-140449873D01*
X86962538Y-140049873D02*
X86962538Y-140049873D01*
X86962538Y-139649873D02*
X86962538Y-139649873D01*
X86962538Y-139249873D02*
X86962538Y-139249873D01*
X86962538Y-138849873D02*
X86962538Y-138849873D01*
X86962538Y-138449873D02*
X86962538Y-138449873D01*
X86962538Y-138049873D02*
X86962538Y-138049873D01*
X86962538Y-137649873D02*
X86962538Y-137649873D01*
X87462538Y-62600026D02*
X87462538Y-62600026D01*
X87462538Y-63000026D02*
X87462538Y-63000026D01*
X87462538Y-63400026D02*
X87462538Y-63400026D01*
X87462538Y-63800026D02*
X87462538Y-63800026D01*
X87462538Y-64200026D02*
X87462538Y-64200026D01*
X87462538Y-64600026D02*
X87462538Y-64600026D01*
X87462538Y-65000026D02*
X87462538Y-65000026D01*
X87462538Y-65400026D02*
X87462538Y-65400026D01*
X86962538Y-59500000D02*
X86962538Y-59500000D01*
X86962538Y-59900000D02*
X86962538Y-59900000D01*
X86962538Y-60300000D02*
X86962538Y-60300000D01*
X86962538Y-60700000D02*
X86962538Y-60700000D01*
X86962538Y-61100000D02*
X86962538Y-61100000D01*
X86962538Y-61500000D02*
X86962538Y-61500000D01*
X220725184Y-144999873D02*
X220725184Y-144999873D01*
X221125184Y-144999873D02*
X221125184Y-144999873D01*
X221525184Y-144999873D02*
X221525184Y-144999873D01*
X221925184Y-144999873D02*
X221925184Y-144999873D01*
X222325184Y-144999873D02*
X222325184Y-144999873D01*
X222725184Y-144999873D02*
X222725184Y-144999873D01*
X223125184Y-144999873D02*
X223125184Y-144999873D01*
X223525184Y-144999873D02*
X223525184Y-144999873D01*
X223925184Y-144999873D02*
X223925184Y-144999873D01*
X224325184Y-144999873D02*
X224325184Y-144999873D01*
X224725184Y-144999873D02*
X224725184Y-144999873D01*
X225125184Y-144999873D02*
X225125184Y-144999873D01*
X225525184Y-144999873D02*
X225525184Y-144999873D01*
X225925184Y-144999873D02*
X225925184Y-144999873D01*
X226325184Y-144999873D02*
X226325184Y-144999873D01*
X226725184Y-144999873D02*
X226725184Y-144999873D01*
X227125184Y-144999873D02*
X227125184Y-144999873D01*
X227525184Y-144999873D02*
X227525184Y-144999873D01*
X227925184Y-144999873D02*
X227925184Y-144999873D01*
X228325184Y-144999873D02*
X228325184Y-144999873D01*
X228725184Y-144999873D02*
X228725184Y-144999873D01*
X229125184Y-144999873D02*
X229125184Y-144999873D01*
X229525184Y-144999873D02*
X229525184Y-144999873D01*
X229925184Y-144999873D02*
X229925184Y-144999873D01*
X230325184Y-144999873D02*
X230325184Y-144999873D01*
X230725184Y-144999873D02*
X230725184Y-144999873D01*
X231125184Y-144999873D02*
X231125184Y-144999873D01*
X231525184Y-144999873D02*
X231525184Y-144999873D01*
X231925184Y-144999873D02*
X231925184Y-144999873D01*
X232325184Y-144999873D02*
X232325184Y-144999873D01*
X232725184Y-144999873D02*
X232725184Y-144999873D01*
X233125184Y-144999873D02*
X233125184Y-144999873D01*
X233525184Y-144999873D02*
X233525184Y-144999873D01*
X233925184Y-144999873D02*
X233925184Y-144999873D01*
X234325184Y-144999873D02*
X234325184Y-144999873D01*
X234725184Y-144999873D02*
X234725184Y-144999873D01*
X235125184Y-144999873D02*
X235125184Y-144999873D01*
X235525184Y-144999873D02*
X235525184Y-144999873D01*
X176000000Y-140249873D02*
X176000000Y-140249873D01*
X176000000Y-139849873D02*
X176000000Y-139849873D01*
X176000000Y-139449873D02*
X176000000Y-139449873D01*
X176000000Y-139049873D02*
X176000000Y-139049873D01*
X176000000Y-138649873D02*
X176000000Y-138649873D01*
X176000000Y-138249873D02*
X176000000Y-138249873D01*
X176000000Y-137849873D02*
X176000000Y-137849873D01*
X176000000Y-137449873D02*
X176000000Y-137449873D01*
X176000000Y-137049873D02*
X176000000Y-137049873D01*
X176000000Y-136649873D02*
X176000000Y-136649873D01*
X176000000Y-136249873D02*
X176000000Y-136249873D01*
X176000000Y-135849873D02*
X176000000Y-135849873D01*
X176000000Y-135449873D02*
X176000000Y-135449873D01*
X176000000Y-135049873D02*
X176000000Y-135049873D01*
X176000000Y-134649873D02*
X176000000Y-134649873D01*
X176000000Y-134249873D02*
X176000000Y-134249873D01*
X176000000Y-133849873D02*
X176000000Y-133849873D01*
X176000000Y-133449873D02*
X176000000Y-133449873D01*
X176000000Y-133049873D02*
X176000000Y-133049873D01*
X154725184Y-110499873D02*
X154725184Y-110499873D01*
X154325184Y-110499873D02*
X154325184Y-110499873D01*
X153925184Y-110499873D02*
X153925184Y-110499873D01*
X153525184Y-110499873D02*
X153525184Y-110499873D01*
X153125184Y-110499873D02*
X153125184Y-110499873D01*
X152725184Y-110499873D02*
X152725184Y-110499873D01*
X152325184Y-110499873D02*
X152325184Y-110499873D01*
X151925184Y-110499873D02*
X151925184Y-110499873D01*
X151525184Y-110499873D02*
X151525184Y-110499873D01*
X151125184Y-110499873D02*
X151125184Y-110499873D01*
X150725184Y-110499873D02*
X150725184Y-110499873D01*
X150325184Y-110499873D02*
X150325184Y-110499873D01*
X149925184Y-110499873D02*
X149925184Y-110499873D01*
X149525184Y-110499873D02*
X149525184Y-110499873D01*
X149125184Y-110499873D02*
X149125184Y-110499873D01*
X148725184Y-110499873D02*
X148725184Y-110499873D01*
X148325184Y-110499873D02*
X148325184Y-110499873D01*
X147925184Y-110499873D02*
X147925184Y-110499873D01*
X147525184Y-110499873D02*
X147525184Y-110499873D01*
X147125184Y-110499873D02*
X147125184Y-110499873D01*
X146725184Y-110499873D02*
X146725184Y-110499873D01*
X146325184Y-110499873D02*
X146325184Y-110499873D01*
X145925184Y-110499873D02*
X145925184Y-110499873D01*
X145525184Y-110499873D02*
X145525184Y-110499873D01*
X145125184Y-110499873D02*
X145125184Y-110499873D01*
X144725184Y-110499873D02*
X144725184Y-110499873D01*
X144325184Y-110499873D02*
X144325184Y-110499873D01*
X154725184Y-106100026D02*
X154725184Y-106100026D01*
X154325184Y-106100026D02*
X154325184Y-106100026D01*
X153925184Y-106100026D02*
X153925184Y-106100026D01*
X153525184Y-106100026D02*
X153525184Y-106100026D01*
X153125184Y-106100026D02*
X153125184Y-106100026D01*
X152725184Y-106100026D02*
X152725184Y-106100026D01*
X152325184Y-106100026D02*
X152325184Y-106100026D01*
X151925184Y-106100026D02*
X151925184Y-106100026D01*
X151525184Y-106100026D02*
X151525184Y-106100026D01*
X151125184Y-106100026D02*
X151125184Y-106100026D01*
X150725184Y-106100026D02*
X150725184Y-106100026D01*
X150325184Y-106100026D02*
X150325184Y-106100026D01*
X149925184Y-106100026D02*
X149925184Y-106100026D01*
X149525184Y-106100026D02*
X149525184Y-106100026D01*
X149125184Y-106100026D02*
X149125184Y-106100026D01*
X148725184Y-106100026D02*
X148725184Y-106100026D01*
X148325184Y-106100026D02*
X148325184Y-106100026D01*
X147925184Y-106100026D02*
X147925184Y-106100026D01*
X147525184Y-106100026D02*
X147525184Y-106100026D01*
X147125184Y-106100026D02*
X147125184Y-106100026D01*
X146725184Y-106100026D02*
X146725184Y-106100026D01*
X146325184Y-106100026D02*
X146325184Y-106100026D01*
X145925184Y-106100026D02*
X145925184Y-106100026D01*
X145525184Y-106100026D02*
X145525184Y-106100026D01*
X145125184Y-106100026D02*
X145125184Y-106100026D01*
X144725184Y-106100026D02*
X144725184Y-106100026D01*
X144325184Y-106100026D02*
X144325184Y-106100026D01*
X176000000Y-132749873D02*
X176000000Y-132749873D01*
X175821115Y-132392102D02*
X175821115Y-132392102D01*
X175642229Y-132034331D02*
X175642229Y-132034331D01*
X175463344Y-131676560D02*
X175463344Y-131676560D01*
X175284458Y-131318789D02*
X175284458Y-131318789D01*
X175105573Y-130961019D02*
X175105573Y-130961019D01*
X174926687Y-130603248D02*
X174926687Y-130603248D01*
X174747802Y-130245477D02*
X174747802Y-130245477D01*
X174568916Y-129887706D02*
X174568916Y-129887706D01*
X174390031Y-129529935D02*
X174390031Y-129529935D01*
X174211146Y-129172164D02*
X174211146Y-129172164D01*
X174032260Y-128814393D02*
X174032260Y-128814393D01*
X147225184Y-56499873D02*
X147225184Y-56499873D01*
X146825184Y-56499873D02*
X146825184Y-56499873D01*
X146425184Y-56499873D02*
X146425184Y-56499873D01*
X146025184Y-56499873D02*
X146025184Y-56499873D01*
X145625184Y-56499873D02*
X145625184Y-56499873D01*
X145225184Y-56499873D02*
X145225184Y-56499873D01*
X144825184Y-56499873D02*
X144825184Y-56499873D01*
X144425184Y-56499873D02*
X144425184Y-56499873D01*
X144025184Y-56499873D02*
X144025184Y-56499873D01*
X143625184Y-56499873D02*
X143625184Y-56499873D01*
X143225184Y-56499873D02*
X143225184Y-56499873D01*
X142825184Y-56499873D02*
X142825184Y-56499873D01*
X142425184Y-56499873D02*
X142425184Y-56499873D01*
X142025184Y-56499873D02*
X142025184Y-56499873D01*
X141625184Y-56499873D02*
X141625184Y-56499873D01*
X141225184Y-56499873D02*
X141225184Y-56499873D01*
X140825184Y-56499873D02*
X140825184Y-56499873D01*
X140425184Y-56499873D02*
X140425184Y-56499873D01*
X140025184Y-56499873D02*
X140025184Y-56499873D01*
X139625184Y-56499873D02*
X139625184Y-56499873D01*
X139225184Y-56499873D02*
X139225184Y-56499873D01*
X138825184Y-56499873D02*
X138825184Y-56499873D01*
X138425184Y-56499873D02*
X138425184Y-56499873D01*
X138025184Y-56499873D02*
X138025184Y-56499873D01*
X137625184Y-56499873D02*
X137625184Y-56499873D01*
X137225184Y-56499873D02*
X137225184Y-56499873D01*
X136825184Y-56499873D02*
X136825184Y-56499873D01*
X136425184Y-56499873D02*
X136425184Y-56499873D01*
X136025184Y-56499873D02*
X136025184Y-56499873D01*
X135625184Y-56499873D02*
X135625184Y-56499873D01*
X135225184Y-56499873D02*
X135225184Y-56499873D01*
X134825184Y-56499873D02*
X134825184Y-56499873D01*
X134425184Y-56499873D02*
X134425184Y-56499873D01*
X134025184Y-56499873D02*
X134025184Y-56499873D01*
X133625184Y-56499873D02*
X133625184Y-56499873D01*
X133225184Y-56499873D02*
X133225184Y-56499873D01*
X132825184Y-56499873D02*
X132825184Y-56499873D01*
X132425184Y-56499873D02*
X132425184Y-56499873D01*
X132025184Y-56499873D02*
X132025184Y-56499873D01*
X131625184Y-56499873D02*
X131625184Y-56499873D01*
X131225184Y-56499873D02*
X131225184Y-56499873D01*
X130825184Y-56499873D02*
X130825184Y-56499873D01*
X130425184Y-56499873D02*
X130425184Y-56499873D01*
X130025184Y-56499873D02*
X130025184Y-56499873D01*
X129625184Y-56499873D02*
X129625184Y-56499873D01*
X129225184Y-56499873D02*
X129225184Y-56499873D01*
X128825184Y-56499873D02*
X128825184Y-56499873D01*
X128425184Y-56499873D02*
X128425184Y-56499873D01*
X128025184Y-56499873D02*
X128025184Y-56499873D01*
X127625184Y-56499873D02*
X127625184Y-56499873D01*
X127225184Y-56499873D02*
X127225184Y-56499873D01*
X126825184Y-56499873D02*
X126825184Y-56499873D01*
X126425184Y-56499873D02*
X126425184Y-56499873D01*
X126025184Y-56499873D02*
X126025184Y-56499873D01*
X125625184Y-56499873D02*
X125625184Y-56499873D01*
X125225184Y-56499873D02*
X125225184Y-56499873D01*
X124825184Y-56499873D02*
X124825184Y-56499873D01*
X124425184Y-56499873D02*
X124425184Y-56499873D01*
X124025184Y-56499873D02*
X124025184Y-56499873D01*
X123625184Y-56499873D02*
X123625184Y-56499873D01*
X123225184Y-56499873D02*
X123225184Y-56499873D01*
X122825184Y-56499873D02*
X122825184Y-56499873D01*
X122425184Y-56499873D02*
X122425184Y-56499873D01*
X122025184Y-56499873D02*
X122025184Y-56499873D01*
X121625184Y-56499873D02*
X121625184Y-56499873D01*
X121225184Y-56499873D02*
X121225184Y-56499873D01*
X120825184Y-56499873D02*
X120825184Y-56499873D01*
X120425184Y-56499873D02*
X120425184Y-56499873D01*
X120025184Y-56499873D02*
X120025184Y-56499873D01*
X119625184Y-56499873D02*
X119625184Y-56499873D01*
X119225184Y-56499873D02*
X119225184Y-56499873D01*
X118825184Y-56499873D02*
X118825184Y-56499873D01*
X118425184Y-56499873D02*
X118425184Y-56499873D01*
X118025184Y-56499873D02*
X118025184Y-56499873D01*
X117625184Y-56499873D02*
X117625184Y-56499873D01*
X117225184Y-56499873D02*
X117225184Y-56499873D01*
X116825184Y-56499873D02*
X116825184Y-56499873D01*
X116425184Y-56499873D02*
X116425184Y-56499873D01*
X116025184Y-56499873D02*
X116025184Y-56499873D01*
X115625184Y-56499873D02*
X115625184Y-56499873D01*
X115225184Y-56499873D02*
X115225184Y-56499873D01*
X114825184Y-56499873D02*
X114825184Y-56499873D01*
X114425184Y-56499873D02*
X114425184Y-56499873D01*
X114025184Y-56499873D02*
X114025184Y-56499873D01*
X113625184Y-56499873D02*
X113625184Y-56499873D01*
X113225184Y-56499873D02*
X113225184Y-56499873D01*
X112825184Y-56499873D02*
X112825184Y-56499873D01*
X112425184Y-56499873D02*
X112425184Y-56499873D01*
X112025184Y-56499873D02*
X112025184Y-56499873D01*
X111625184Y-56499873D02*
X111625184Y-56499873D01*
X111225184Y-56499873D02*
X111225184Y-56499873D01*
X110825184Y-56499873D02*
X110825184Y-56499873D01*
X110425184Y-56499873D02*
X110425184Y-56499873D01*
X110025184Y-56499873D02*
X110025184Y-56499873D01*
X109625184Y-56499873D02*
X109625184Y-56499873D01*
X109225184Y-56499873D02*
X109225184Y-56499873D01*
X108825184Y-56499873D02*
X108825184Y-56499873D01*
X108425184Y-56499873D02*
X108425184Y-56499873D01*
X108025184Y-56499873D02*
X108025184Y-56499873D01*
X107625184Y-56499873D02*
X107625184Y-56499873D01*
X107225184Y-56499873D02*
X107225184Y-56499873D01*
X106825184Y-56499873D02*
X106825184Y-56499873D01*
X106425184Y-56499873D02*
X106425184Y-56499873D01*
X106025184Y-56499873D02*
X106025184Y-56499873D01*
X105625184Y-56499873D02*
X105625184Y-56499873D01*
X105225184Y-56499873D02*
X105225184Y-56499873D01*
X104825184Y-56499873D02*
X104825184Y-56499873D01*
X104425184Y-56499873D02*
X104425184Y-56499873D01*
X213425038Y-102749873D02*
X213425038Y-102749873D01*
X213425038Y-102349873D02*
X213425038Y-102349873D01*
X213425038Y-101949873D02*
X213425038Y-101949873D01*
X213425038Y-101549873D02*
X213425038Y-101549873D01*
X213425038Y-101149873D02*
X213425038Y-101149873D01*
X213425038Y-100749873D02*
X213425038Y-100749873D01*
X213425038Y-100349873D02*
X213425038Y-100349873D01*
X213425038Y-99949873D02*
X213425038Y-99949873D01*
X213425038Y-99549873D02*
X213425038Y-99549873D01*
X213425038Y-99149873D02*
X213425038Y-99149873D01*
X213425038Y-98749873D02*
X213425038Y-98749873D01*
X213425038Y-98349873D02*
X213425038Y-98349873D01*
X213425038Y-97949873D02*
X213425038Y-97949873D01*
X213425038Y-97549873D02*
X213425038Y-97549873D01*
X213425038Y-97149873D02*
X213425038Y-97149873D01*
X213425038Y-96749873D02*
X213425038Y-96749873D01*
X213425038Y-96349873D02*
X213425038Y-96349873D01*
X213425038Y-95949873D02*
X213425038Y-95949873D01*
X213425038Y-95549873D02*
X213425038Y-95549873D01*
X213425038Y-95149873D02*
X213425038Y-95149873D01*
X213425038Y-94749873D02*
X213425038Y-94749873D01*
X178750000Y-142999873D02*
X178750000Y-142999873D01*
X179150000Y-142999873D02*
X179150000Y-142999873D01*
X179550000Y-142999873D02*
X179550000Y-142999873D01*
X179950000Y-142999873D02*
X179950000Y-142999873D01*
X180350000Y-142999873D02*
X180350000Y-142999873D01*
X180750000Y-142999873D02*
X180750000Y-142999873D01*
X181150000Y-142999873D02*
X181150000Y-142999873D01*
X181550000Y-142999873D02*
X181550000Y-142999873D01*
X181950000Y-142999873D02*
X181950000Y-142999873D01*
X120725184Y-128749873D02*
X120725184Y-128749873D01*
X121125184Y-128749873D02*
X121125184Y-128749873D01*
X121525184Y-128749873D02*
X121525184Y-128749873D01*
X121925184Y-128749873D02*
X121925184Y-128749873D01*
X122325184Y-128749873D02*
X122325184Y-128749873D01*
X122725184Y-128749873D02*
X122725184Y-128749873D01*
X123125184Y-128749873D02*
X123125184Y-128749873D01*
X123525184Y-128749873D02*
X123525184Y-128749873D01*
X123925184Y-128749873D02*
X123925184Y-128749873D01*
X124325184Y-128749873D02*
X124325184Y-128749873D01*
X124725184Y-128749873D02*
X124725184Y-128749873D01*
X125125184Y-128749873D02*
X125125184Y-128749873D01*
X125525184Y-128749873D02*
X125525184Y-128749873D01*
X125925184Y-128749873D02*
X125925184Y-128749873D01*
X126325184Y-128749873D02*
X126325184Y-128749873D01*
X126725184Y-128749873D02*
X126725184Y-128749873D01*
X127125184Y-128749873D02*
X127125184Y-128749873D01*
X127525184Y-128749873D02*
X127525184Y-128749873D01*
X127925184Y-128749873D02*
X127925184Y-128749873D01*
X128325184Y-128749873D02*
X128325184Y-128749873D01*
X128725184Y-128749873D02*
X128725184Y-128749873D01*
X129125184Y-128749873D02*
X129125184Y-128749873D01*
X129525184Y-128749873D02*
X129525184Y-128749873D01*
X129925184Y-128749873D02*
X129925184Y-128749873D01*
X130325184Y-128749873D02*
X130325184Y-128749873D01*
X130725184Y-128749873D02*
X130725184Y-128749873D01*
X131125184Y-128749873D02*
X131125184Y-128749873D01*
X131525184Y-128749873D02*
X131525184Y-128749873D01*
X131925184Y-128749873D02*
X131925184Y-128749873D01*
X132325184Y-128749873D02*
X132325184Y-128749873D01*
X132725184Y-128749873D02*
X132725184Y-128749873D01*
X133125184Y-128749873D02*
X133125184Y-128749873D01*
X133525184Y-128749873D02*
X133525184Y-128749873D01*
X133925184Y-128749873D02*
X133925184Y-128749873D01*
X134325184Y-128749873D02*
X134325184Y-128749873D01*
X134725184Y-128749873D02*
X134725184Y-128749873D01*
X135125184Y-128749873D02*
X135125184Y-128749873D01*
X135525184Y-128749873D02*
X135525184Y-128749873D01*
X135925184Y-128749873D02*
X135925184Y-128749873D01*
X136325184Y-128749873D02*
X136325184Y-128749873D01*
X136725184Y-128749873D02*
X136725184Y-128749873D01*
X137125184Y-128749873D02*
X137125184Y-128749873D01*
X137525184Y-128749873D02*
X137525184Y-128749873D01*
X137925184Y-128749873D02*
X137925184Y-128749873D01*
X138325184Y-128749873D02*
X138325184Y-128749873D01*
X138725184Y-128749873D02*
X138725184Y-128749873D01*
X139125184Y-128749873D02*
X139125184Y-128749873D01*
X139525184Y-128749873D02*
X139525184Y-128749873D01*
X139925184Y-128749873D02*
X139925184Y-128749873D01*
X140325184Y-128749873D02*
X140325184Y-128749873D01*
X140725184Y-128749873D02*
X140725184Y-128749873D01*
X141125184Y-128749873D02*
X141125184Y-128749873D01*
X141525184Y-128749873D02*
X141525184Y-128749873D01*
X141925184Y-128749873D02*
X141925184Y-128749873D01*
X142325184Y-128749873D02*
X142325184Y-128749873D01*
X142725184Y-128749873D02*
X142725184Y-128749873D01*
X143125184Y-128749873D02*
X143125184Y-128749873D01*
X143525184Y-128749873D02*
X143525184Y-128749873D01*
X143925184Y-128749873D02*
X143925184Y-128749873D01*
X144325184Y-128749873D02*
X144325184Y-128749873D01*
X144725184Y-128749873D02*
X144725184Y-128749873D01*
X145125184Y-128749873D02*
X145125184Y-128749873D01*
X145525184Y-128749873D02*
X145525184Y-128749873D01*
X145925184Y-128749873D02*
X145925184Y-128749873D01*
X146325184Y-128749873D02*
X146325184Y-128749873D01*
X146725184Y-128749873D02*
X146725184Y-128749873D01*
X147125184Y-128749873D02*
X147125184Y-128749873D01*
X147525184Y-128749873D02*
X147525184Y-128749873D01*
X147925184Y-128749873D02*
X147925184Y-128749873D01*
X148325184Y-128749873D02*
X148325184Y-128749873D01*
X148725184Y-128749873D02*
X148725184Y-128749873D01*
X149125184Y-128749873D02*
X149125184Y-128749873D01*
X149525184Y-128749873D02*
X149525184Y-128749873D01*
X149925184Y-128749873D02*
X149925184Y-128749873D01*
X150325184Y-128749873D02*
X150325184Y-128749873D01*
X150725184Y-128749873D02*
X150725184Y-128749873D01*
X151125184Y-128749873D02*
X151125184Y-128749873D01*
X151525184Y-128749873D02*
X151525184Y-128749873D01*
X151925184Y-128749873D02*
X151925184Y-128749873D01*
X152325184Y-128749873D02*
X152325184Y-128749873D01*
X152725184Y-128749873D02*
X152725184Y-128749873D01*
X153125184Y-128749873D02*
X153125184Y-128749873D01*
X153525184Y-128749873D02*
X153525184Y-128749873D01*
X153925184Y-128749873D02*
X153925184Y-128749873D01*
X154325184Y-128749873D02*
X154325184Y-128749873D01*
X154725184Y-128749873D02*
X154725184Y-128749873D01*
X155125184Y-128749873D02*
X155125184Y-128749873D01*
X155525184Y-128749873D02*
X155525184Y-128749873D01*
X155925184Y-128749873D02*
X155925184Y-128749873D01*
X156325184Y-128749873D02*
X156325184Y-128749873D01*
X156725184Y-128749873D02*
X156725184Y-128749873D01*
X157125184Y-128749873D02*
X157125184Y-128749873D01*
X157525184Y-128749873D02*
X157525184Y-128749873D01*
X157925184Y-128749873D02*
X157925184Y-128749873D01*
X158325184Y-128749873D02*
X158325184Y-128749873D01*
X158725184Y-128749873D02*
X158725184Y-128749873D01*
X159125184Y-128749873D02*
X159125184Y-128749873D01*
X159525184Y-128749873D02*
X159525184Y-128749873D01*
X159925184Y-128749873D02*
X159925184Y-128749873D01*
X160325184Y-128749873D02*
X160325184Y-128749873D01*
X160725184Y-128749873D02*
X160725184Y-128749873D01*
X161125184Y-128749873D02*
X161125184Y-128749873D01*
X161525184Y-128749873D02*
X161525184Y-128749873D01*
X161925184Y-128749873D02*
X161925184Y-128749873D01*
X162325184Y-128749873D02*
X162325184Y-128749873D01*
X162725184Y-128749873D02*
X162725184Y-128749873D01*
X163125184Y-128749873D02*
X163125184Y-128749873D01*
X163525184Y-128749873D02*
X163525184Y-128749873D01*
X163925184Y-128749873D02*
X163925184Y-128749873D01*
X164325184Y-128749873D02*
X164325184Y-128749873D01*
X164725184Y-128749873D02*
X164725184Y-128749873D01*
X165125184Y-128749873D02*
X165125184Y-128749873D01*
X165525184Y-128749873D02*
X165525184Y-128749873D01*
X165925184Y-128749873D02*
X165925184Y-128749873D01*
X166325184Y-128749873D02*
X166325184Y-128749873D01*
X166725184Y-128749873D02*
X166725184Y-128749873D01*
X167125184Y-128749873D02*
X167125184Y-128749873D01*
X167525184Y-128749873D02*
X167525184Y-128749873D01*
X167925184Y-128749873D02*
X167925184Y-128749873D01*
X168325184Y-128749873D02*
X168325184Y-128749873D01*
X168725184Y-128749873D02*
X168725184Y-128749873D01*
X169125184Y-128749873D02*
X169125184Y-128749873D01*
X169525184Y-128749873D02*
X169525184Y-128749873D01*
X169925184Y-128749873D02*
X169925184Y-128749873D01*
X170325184Y-128749873D02*
X170325184Y-128749873D01*
X170725184Y-128749873D02*
X170725184Y-128749873D01*
X171125184Y-128749873D02*
X171125184Y-128749873D01*
X171525184Y-128749873D02*
X171525184Y-128749873D01*
X171925184Y-128749873D02*
X171925184Y-128749873D01*
X172325184Y-128749873D02*
X172325184Y-128749873D01*
X172725184Y-128749873D02*
X172725184Y-128749873D01*
X173125184Y-128749873D02*
X173125184Y-128749873D01*
X173525184Y-128749873D02*
X173525184Y-128749873D01*
X173925184Y-128749873D02*
X173925184Y-128749873D01*
X94299024Y-141249873D02*
X94299024Y-141249873D01*
X94299024Y-140849873D02*
X94299024Y-140849873D01*
X94299024Y-140449873D02*
X94299024Y-140449873D01*
X94299024Y-140049873D02*
X94299024Y-140049873D01*
X94299024Y-139649873D02*
X94299024Y-139649873D01*
X94299024Y-139249873D02*
X94299024Y-139249873D01*
X94299024Y-138849873D02*
X94299024Y-138849873D01*
X94299024Y-138449873D02*
X94299024Y-138449873D01*
X94299024Y-138049873D02*
X94299024Y-138049873D01*
X94299024Y-137649873D02*
X94299024Y-137649873D01*
X94299024Y-137249873D02*
X94299024Y-137249873D01*
X94299024Y-136849873D02*
X94299024Y-136849873D01*
X94299024Y-136449873D02*
X94299024Y-136449873D01*
X94299024Y-136049873D02*
X94299024Y-136049873D01*
X94299024Y-135649873D02*
X94299024Y-135649873D01*
X94299024Y-135249873D02*
X94299024Y-135249873D01*
X94299024Y-134849873D02*
X94299024Y-134849873D01*
X94299024Y-134449873D02*
X94299024Y-134449873D01*
X94299024Y-134049873D02*
X94299024Y-134049873D01*
X94299024Y-133649873D02*
X94299024Y-133649873D01*
X94299024Y-133249873D02*
X94299024Y-133249873D01*
X94299024Y-132849873D02*
X94299024Y-132849873D01*
X213425038Y-94749873D02*
X213075038Y-94149873D01*
X87462538Y-133100026D02*
X87462538Y-133100026D01*
X87310238Y-132730155D02*
X87310238Y-132730155D01*
X87157938Y-132360284D02*
X87157938Y-132360284D01*
X87462538Y-136600026D02*
X87462538Y-136600026D01*
X87462538Y-136200026D02*
X87462538Y-136200026D01*
X87462538Y-135800026D02*
X87462538Y-135800026D01*
X87462538Y-135400026D02*
X87462538Y-135400026D01*
X87462538Y-135000026D02*
X87462538Y-135000026D01*
X87462538Y-134600026D02*
X87462538Y-134600026D01*
X87462538Y-134200026D02*
X87462538Y-134200026D01*
X87462538Y-133800026D02*
X87462538Y-133800026D01*
X87462538Y-133400026D02*
X87462538Y-133400026D01*
X86962538Y-61600026D02*
X86962538Y-61600026D01*
X87141423Y-61957797D02*
X87141423Y-61957797D01*
X87320309Y-62315568D02*
X87320309Y-62315568D01*
X178750000Y-142999873D02*
X178750000Y-142999873D01*
X178351409Y-142970833D02*
X178351409Y-142970833D01*
X177961236Y-142884326D02*
X177961236Y-142884326D01*
X177587722Y-142742180D02*
X177587722Y-142742180D01*
X177238756Y-142547397D02*
X177238756Y-142547397D01*
X176921707Y-142304090D02*
X176921707Y-142304090D01*
X176643272Y-142017398D02*
X176643272Y-142017398D01*
X176409332Y-141693376D02*
X176409332Y-141693376D01*
X176224827Y-141338868D02*
X176224827Y-141338868D01*
X176093654Y-140961361D02*
X176093654Y-140961361D01*
X176018583Y-140568828D02*
X176018583Y-140568828D01*
X147725184Y-100600026D02*
X147725184Y-100600026D01*
X147325184Y-100600026D02*
X147325184Y-100600026D01*
X146925184Y-100600026D02*
X146925184Y-100600026D01*
X146525184Y-100600026D02*
X146525184Y-100600026D01*
X146125184Y-100600026D02*
X146125184Y-100600026D01*
X145725184Y-100600026D02*
X145725184Y-100600026D01*
X145325184Y-100600026D02*
X145325184Y-100600026D01*
X144925184Y-100600026D02*
X144925184Y-100600026D01*
X144525184Y-100600026D02*
X144525184Y-100600026D01*
X144125184Y-100600026D02*
X144125184Y-100600026D01*
X143725184Y-100600026D02*
X143725184Y-100600026D01*
X143325184Y-100600026D02*
X143325184Y-100600026D01*
X142925184Y-100600026D02*
X142925184Y-100600026D01*
X142525184Y-100600026D02*
X142525184Y-100600026D01*
X142125184Y-100600026D02*
X142125184Y-100600026D01*
X141725184Y-100600026D02*
X141725184Y-100600026D01*
X141325184Y-100600026D02*
X141325184Y-100600026D01*
X140925184Y-100600026D02*
X140925184Y-100600026D01*
X140525184Y-100600026D02*
X140525184Y-100600026D01*
X140125184Y-100600026D02*
X140125184Y-100600026D01*
X139725184Y-100600026D02*
X139725184Y-100600026D01*
X139325184Y-100600026D02*
X139325184Y-100600026D01*
X138925184Y-100600026D02*
X138925184Y-100600026D01*
X138525184Y-100600026D02*
X138525184Y-100600026D01*
X138125184Y-100600026D02*
X138125184Y-100600026D01*
X137725184Y-100600026D02*
X137725184Y-100600026D01*
X137325184Y-100600026D02*
X137325184Y-100600026D01*
X136925184Y-100600026D02*
X136925184Y-100600026D01*
X136525184Y-100600026D02*
X136525184Y-100600026D01*
X136125184Y-100600026D02*
X136125184Y-100600026D01*
X135725184Y-100600026D02*
X135725184Y-100600026D01*
X135325184Y-100600026D02*
X135325184Y-100600026D01*
X134925184Y-100600026D02*
X134925184Y-100600026D01*
X134525184Y-100600026D02*
X134525184Y-100600026D01*
X134125184Y-100600026D02*
X134125184Y-100600026D01*
X133725184Y-100600026D02*
X133725184Y-100600026D01*
X133325184Y-100600026D02*
X133325184Y-100600026D01*
X132925184Y-100600026D02*
X132925184Y-100600026D01*
X132525184Y-100600026D02*
X132525184Y-100600026D01*
X132125184Y-100600026D02*
X132125184Y-100600026D01*
X131725184Y-100600026D02*
X131725184Y-100600026D01*
X131325184Y-100600026D02*
X131325184Y-100600026D01*
X130925184Y-100600026D02*
X130925184Y-100600026D01*
X130525184Y-100600026D02*
X130525184Y-100600026D01*
X130125184Y-100600026D02*
X130125184Y-100600026D01*
X129725184Y-100600026D02*
X129725184Y-100600026D01*
X129325184Y-100600026D02*
X129325184Y-100600026D01*
X128925184Y-100600026D02*
X128925184Y-100600026D01*
X128525184Y-100600026D02*
X128525184Y-100600026D01*
X128125184Y-100600026D02*
X128125184Y-100600026D01*
X127725184Y-100600026D02*
X127725184Y-100600026D01*
X127325184Y-100600026D02*
X127325184Y-100600026D01*
X126925184Y-100600026D02*
X126925184Y-100600026D01*
X126525184Y-100600026D02*
X126525184Y-100600026D01*
X126125184Y-100600026D02*
X126125184Y-100600026D01*
X125725184Y-100600026D02*
X125725184Y-100600026D01*
X125325184Y-100600026D02*
X125325184Y-100600026D01*
X124925184Y-100600026D02*
X124925184Y-100600026D01*
X124525184Y-100600026D02*
X124525184Y-100600026D01*
X124125184Y-100600026D02*
X124125184Y-100600026D01*
X123725184Y-100600026D02*
X123725184Y-100600026D01*
X123325184Y-100600026D02*
X123325184Y-100600026D01*
X122925184Y-100600026D02*
X122925184Y-100600026D01*
X122525184Y-100600026D02*
X122525184Y-100600026D01*
X122125184Y-100600026D02*
X122125184Y-100600026D01*
X121725184Y-100600026D02*
X121725184Y-100600026D01*
X121325184Y-100600026D02*
X121325184Y-100600026D01*
X120925184Y-100600026D02*
X120925184Y-100600026D01*
X120525184Y-100600026D02*
X120525184Y-100600026D01*
X120125184Y-100600026D02*
X120125184Y-100600026D01*
X119725184Y-100600026D02*
X119725184Y-100600026D01*
X119325184Y-100600026D02*
X119325184Y-100600026D01*
X118925184Y-100600026D02*
X118925184Y-100600026D01*
X118525184Y-100600026D02*
X118525184Y-100600026D01*
X118125184Y-100600026D02*
X118125184Y-100600026D01*
X117725184Y-100600026D02*
X117725184Y-100600026D01*
X117325184Y-100600026D02*
X117325184Y-100600026D01*
X116925184Y-100600026D02*
X116925184Y-100600026D01*
X116525184Y-100600026D02*
X116525184Y-100600026D01*
X116125184Y-100600026D02*
X116125184Y-100600026D01*
X115725184Y-100600026D02*
X115725184Y-100600026D01*
X115325184Y-100600026D02*
X115325184Y-100600026D01*
X114925184Y-100600026D02*
X114925184Y-100600026D01*
X114525184Y-100600026D02*
X114525184Y-100600026D01*
X114125184Y-100600026D02*
X114125184Y-100600026D01*
X113725184Y-100600026D02*
X113725184Y-100600026D01*
X113325184Y-100600026D02*
X113325184Y-100600026D01*
X112925184Y-100600026D02*
X112925184Y-100600026D01*
X112525184Y-100600026D02*
X112525184Y-100600026D01*
X112125184Y-100600026D02*
X112125184Y-100600026D01*
X111725184Y-100600026D02*
X111725184Y-100600026D01*
X111325184Y-100600026D02*
X111325184Y-100600026D01*
X110925184Y-100600026D02*
X110925184Y-100600026D01*
X110525184Y-100600026D02*
X110525184Y-100600026D01*
X110125184Y-100600026D02*
X110125184Y-100600026D01*
X109725184Y-100600026D02*
X109725184Y-100600026D01*
X109325184Y-100600026D02*
X109325184Y-100600026D01*
X108925184Y-100600026D02*
X108925184Y-100600026D01*
X108525184Y-100600026D02*
X108525184Y-100600026D01*
X108125184Y-100600026D02*
X108125184Y-100600026D01*
X107725184Y-100600026D02*
X107725184Y-100600026D01*
X107325184Y-100600026D02*
X107325184Y-100600026D01*
X106925184Y-100600026D02*
X106925184Y-100600026D01*
X106525184Y-100600026D02*
X106525184Y-100600026D01*
X106125184Y-100600026D02*
X106125184Y-100600026D01*
X105725184Y-100600026D02*
X105725184Y-100600026D01*
X105325184Y-100600026D02*
X105325184Y-100600026D01*
X104925184Y-100600026D02*
X104925184Y-100600026D01*
X104525184Y-100600026D02*
X104525184Y-100600026D01*
X120725184Y-144999873D02*
X120725184Y-144999873D01*
X121125184Y-144999873D02*
X121125184Y-144999873D01*
X121525184Y-144999873D02*
X121525184Y-144999873D01*
X121925184Y-144999873D02*
X121925184Y-144999873D01*
X122325184Y-144999873D02*
X122325184Y-144999873D01*
X122725184Y-144999873D02*
X122725184Y-144999873D01*
X123125184Y-144999873D02*
X123125184Y-144999873D01*
X123525184Y-144999873D02*
X123525184Y-144999873D01*
X123925184Y-144999873D02*
X123925184Y-144999873D01*
X124325184Y-144999873D02*
X124325184Y-144999873D01*
X124725184Y-144999873D02*
X124725184Y-144999873D01*
X125125184Y-144999873D02*
X125125184Y-144999873D01*
X125525184Y-144999873D02*
X125525184Y-144999873D01*
X125925184Y-144999873D02*
X125925184Y-144999873D01*
X126325184Y-144999873D02*
X126325184Y-144999873D01*
X126725184Y-144999873D02*
X126725184Y-144999873D01*
X127125184Y-144999873D02*
X127125184Y-144999873D01*
X127525184Y-144999873D02*
X127525184Y-144999873D01*
X127925184Y-144999873D02*
X127925184Y-144999873D01*
X128325184Y-144999873D02*
X128325184Y-144999873D01*
X128725184Y-144999873D02*
X128725184Y-144999873D01*
X129125184Y-144999873D02*
X129125184Y-144999873D01*
X129525184Y-144999873D02*
X129525184Y-144999873D01*
X129925184Y-144999873D02*
X129925184Y-144999873D01*
X130325184Y-144999873D02*
X130325184Y-144999873D01*
X130725184Y-144999873D02*
X130725184Y-144999873D01*
X131125184Y-144999873D02*
X131125184Y-144999873D01*
X131525184Y-144999873D02*
X131525184Y-144999873D01*
X131925184Y-144999873D02*
X131925184Y-144999873D01*
X132325184Y-144999873D02*
X132325184Y-144999873D01*
X132725184Y-144999873D02*
X132725184Y-144999873D01*
X133125184Y-144999873D02*
X133125184Y-144999873D01*
X133525184Y-144999873D02*
X133525184Y-144999873D01*
X133925184Y-144999873D02*
X133925184Y-144999873D01*
X134325184Y-144999873D02*
X134325184Y-144999873D01*
X134725184Y-144999873D02*
X134725184Y-144999873D01*
X135125184Y-144999873D02*
X135125184Y-144999873D01*
X135525184Y-144999873D02*
X135525184Y-144999873D01*
X135925184Y-144999873D02*
X135925184Y-144999873D01*
X136325184Y-144999873D02*
X136325184Y-144999873D01*
X136725184Y-144999873D02*
X136725184Y-144999873D01*
X137125184Y-144999873D02*
X137125184Y-144999873D01*
X137525184Y-144999873D02*
X137525184Y-144999873D01*
X137925184Y-144999873D02*
X137925184Y-144999873D01*
X138325184Y-144999873D02*
X138325184Y-144999873D01*
X138725184Y-144999873D02*
X138725184Y-144999873D01*
X139125184Y-144999873D02*
X139125184Y-144999873D01*
X139525184Y-144999873D02*
X139525184Y-144999873D01*
X139925184Y-144999873D02*
X139925184Y-144999873D01*
X140325184Y-144999873D02*
X140325184Y-144999873D01*
X140725184Y-144999873D02*
X140725184Y-144999873D01*
X141125184Y-144999873D02*
X141125184Y-144999873D01*
X141525184Y-144999873D02*
X141525184Y-144999873D01*
X141925184Y-144999873D02*
X141925184Y-144999873D01*
X142325184Y-144999873D02*
X142325184Y-144999873D01*
X142725184Y-144999873D02*
X142725184Y-144999873D01*
X143125184Y-144999873D02*
X143125184Y-144999873D01*
X143525184Y-144999873D02*
X143525184Y-144999873D01*
X143925184Y-144999873D02*
X143925184Y-144999873D01*
X144325184Y-144999873D02*
X144325184Y-144999873D01*
X144725184Y-144999873D02*
X144725184Y-144999873D01*
X145125184Y-144999873D02*
X145125184Y-144999873D01*
X145525184Y-144999873D02*
X145525184Y-144999873D01*
X145925184Y-144999873D02*
X145925184Y-144999873D01*
X146325184Y-144999873D02*
X146325184Y-144999873D01*
X146725184Y-144999873D02*
X146725184Y-144999873D01*
X147125184Y-144999873D02*
X147125184Y-144999873D01*
X147525184Y-144999873D02*
X147525184Y-144999873D01*
X147925184Y-144999873D02*
X147925184Y-144999873D01*
X148325184Y-144999873D02*
X148325184Y-144999873D01*
X148725184Y-144999873D02*
X148725184Y-144999873D01*
X149125184Y-144999873D02*
X149125184Y-144999873D01*
X149525184Y-144999873D02*
X149525184Y-144999873D01*
X149925184Y-144999873D02*
X149925184Y-144999873D01*
X150325184Y-144999873D02*
X150325184Y-144999873D01*
X150725184Y-144999873D02*
X150725184Y-144999873D01*
X151125184Y-144999873D02*
X151125184Y-144999873D01*
X151525184Y-144999873D02*
X151525184Y-144999873D01*
X151925184Y-144999873D02*
X151925184Y-144999873D01*
X152325184Y-144999873D02*
X152325184Y-144999873D01*
X152725184Y-144999873D02*
X152725184Y-144999873D01*
X153125184Y-144999873D02*
X153125184Y-144999873D01*
X153525184Y-144999873D02*
X153525184Y-144999873D01*
X153925184Y-144999873D02*
X153925184Y-144999873D01*
X154325184Y-144999873D02*
X154325184Y-144999873D01*
X154725184Y-144999873D02*
X154725184Y-144999873D01*
X155125184Y-144999873D02*
X155125184Y-144999873D01*
X155525184Y-144999873D02*
X155525184Y-144999873D01*
X155925184Y-144999873D02*
X155925184Y-144999873D01*
X156325184Y-144999873D02*
X156325184Y-144999873D01*
X156725184Y-144999873D02*
X156725184Y-144999873D01*
X157125184Y-144999873D02*
X157125184Y-144999873D01*
X157525184Y-144999873D02*
X157525184Y-144999873D01*
X157925184Y-144999873D02*
X157925184Y-144999873D01*
X158325184Y-144999873D02*
X158325184Y-144999873D01*
X158725184Y-144999873D02*
X158725184Y-144999873D01*
X159125184Y-144999873D02*
X159125184Y-144999873D01*
X159525184Y-144999873D02*
X159525184Y-144999873D01*
X159925184Y-144999873D02*
X159925184Y-144999873D01*
X160325184Y-144999873D02*
X160325184Y-144999873D01*
X160725184Y-144999873D02*
X160725184Y-144999873D01*
X161125184Y-144999873D02*
X161125184Y-144999873D01*
X161525184Y-144999873D02*
X161525184Y-144999873D01*
X161925184Y-144999873D02*
X161925184Y-144999873D01*
X162325184Y-144999873D02*
X162325184Y-144999873D01*
X162725184Y-144999873D02*
X162725184Y-144999873D01*
X163125184Y-144999873D02*
X163125184Y-144999873D01*
X163525184Y-144999873D02*
X163525184Y-144999873D01*
X163925184Y-144999873D02*
X163925184Y-144999873D01*
X164325184Y-144999873D02*
X164325184Y-144999873D01*
X164725184Y-144999873D02*
X164725184Y-144999873D01*
X165125184Y-144999873D02*
X165125184Y-144999873D01*
X165525184Y-144999873D02*
X165525184Y-144999873D01*
X165925184Y-144999873D02*
X165925184Y-144999873D01*
X166325184Y-144999873D02*
X166325184Y-144999873D01*
X166725184Y-144999873D02*
X166725184Y-144999873D01*
X167125184Y-144999873D02*
X167125184Y-144999873D01*
X167525184Y-144999873D02*
X167525184Y-144999873D01*
X167925184Y-144999873D02*
X167925184Y-144999873D01*
X168325184Y-144999873D02*
X168325184Y-144999873D01*
X168725184Y-144999873D02*
X168725184Y-144999873D01*
X169125184Y-144999873D02*
X169125184Y-144999873D01*
X169525184Y-144999873D02*
X169525184Y-144999873D01*
X169925184Y-144999873D02*
X169925184Y-144999873D01*
X170325184Y-144999873D02*
X170325184Y-144999873D01*
X170725184Y-144999873D02*
X170725184Y-144999873D01*
X171125184Y-144999873D02*
X171125184Y-144999873D01*
X171525184Y-144999873D02*
X171525184Y-144999873D01*
X171925184Y-144999873D02*
X171925184Y-144999873D01*
X172325184Y-144999873D02*
X172325184Y-144999873D01*
X172725184Y-144999873D02*
X172725184Y-144999873D01*
X173125184Y-144999873D02*
X173125184Y-144999873D01*
X173525184Y-144999873D02*
X173525184Y-144999873D01*
X173925184Y-144999873D02*
X173925184Y-144999873D01*
X174325184Y-144999873D02*
X174325184Y-144999873D01*
X174725184Y-144999873D02*
X174725184Y-144999873D01*
X175125184Y-144999873D02*
X175125184Y-144999873D01*
X175525184Y-144999873D02*
X175525184Y-144999873D01*
X175925184Y-144999873D02*
X175925184Y-144999873D01*
X176325184Y-144999873D02*
X176325184Y-144999873D01*
X176725184Y-144999873D02*
X176725184Y-144999873D01*
X177125184Y-144999873D02*
X177125184Y-144999873D01*
X177525184Y-144999873D02*
X177525184Y-144999873D01*
X177925184Y-144999873D02*
X177925184Y-144999873D01*
X178325184Y-144999873D02*
X178325184Y-144999873D01*
X178725184Y-144999873D02*
X178725184Y-144999873D01*
X179125184Y-144999873D02*
X179125184Y-144999873D01*
X179525184Y-144999873D02*
X179525184Y-144999873D01*
X179925184Y-144999873D02*
X179925184Y-144999873D01*
X180325184Y-144999873D02*
X180325184Y-144999873D01*
X180725184Y-144999873D02*
X180725184Y-144999873D01*
X181125184Y-144999873D02*
X181125184Y-144999873D01*
X181525184Y-144999873D02*
X181525184Y-144999873D01*
X181925184Y-144999873D02*
X181925184Y-144999873D01*
X200725184Y-90249873D02*
X200725184Y-90249873D01*
X200725184Y-89849873D02*
X200725184Y-89849873D01*
X200725184Y-89449873D02*
X200725184Y-89449873D01*
X200725184Y-89049873D02*
X200725184Y-89049873D01*
X200725184Y-88649873D02*
X200725184Y-88649873D01*
X200725184Y-88249873D02*
X200725184Y-88249873D01*
X200725184Y-87849873D02*
X200725184Y-87849873D01*
X200725184Y-87449873D02*
X200725184Y-87449873D01*
X200725184Y-87049873D02*
X200725184Y-87049873D01*
D11*
X192225184Y-86749873D02*
X192225184Y-86749873D01*
X192225184Y-87349873D02*
X192225184Y-87349873D01*
X192225184Y-87949873D02*
X192225184Y-87949873D01*
X192225184Y-88549873D02*
X192225184Y-88549873D01*
X192225184Y-89149873D02*
X192225184Y-89149873D01*
X192225184Y-89749873D02*
X192225184Y-89749873D01*
D10*
X87462538Y-65600026D02*
X87462538Y-65600026D01*
X87283653Y-65957797D02*
X87283653Y-65957797D01*
X87104767Y-66315568D02*
X87104767Y-66315568D01*
X86962538Y-137600026D02*
X86962538Y-137600026D01*
X87141423Y-137242255D02*
X87141423Y-137242255D01*
X87320309Y-136884484D02*
X87320309Y-136884484D01*
X86962538Y-66600026D02*
X86962538Y-66600026D01*
D11*
X98595003Y-54440349D02*
X98595003Y-54916539D01*
X98595003Y-54916539D02*
X97595003Y-54916539D01*
X98547384Y-53726063D02*
X98595003Y-53821301D01*
X98595003Y-53821301D02*
X98595003Y-54011777D01*
X98595003Y-54011777D02*
X98547384Y-54107015D01*
X98547384Y-54107015D02*
X98452145Y-54154634D01*
X98452145Y-54154634D02*
X98071193Y-54154634D01*
X98071193Y-54154634D02*
X97975955Y-54107015D01*
X97975955Y-54107015D02*
X97928336Y-54011777D01*
X97928336Y-54011777D02*
X97928336Y-53821301D01*
X97928336Y-53821301D02*
X97975955Y-53726063D01*
X97975955Y-53726063D02*
X98071193Y-53678444D01*
X98071193Y-53678444D02*
X98166431Y-53678444D01*
X98166431Y-53678444D02*
X98261669Y-54154634D01*
X97928336Y-53392729D02*
X97928336Y-53011777D01*
X98595003Y-53249872D02*
X97737860Y-53249872D01*
X97737860Y-53249872D02*
X97642622Y-53202253D01*
X97642622Y-53202253D02*
X97595003Y-53107015D01*
X97595003Y-53107015D02*
X97595003Y-53011777D01*
X97928336Y-52821300D02*
X97928336Y-52440348D01*
X97595003Y-52678443D02*
X98452145Y-52678443D01*
X98452145Y-52678443D02*
X98547384Y-52630824D01*
X98547384Y-52630824D02*
X98595003Y-52535586D01*
X98595003Y-52535586D02*
X98595003Y-52440348D01*
X100595003Y-126868920D02*
X100118812Y-127202253D01*
X100595003Y-127440348D02*
X99595003Y-127440348D01*
X99595003Y-127440348D02*
X99595003Y-127059396D01*
X99595003Y-127059396D02*
X99642622Y-126964158D01*
X99642622Y-126964158D02*
X99690241Y-126916539D01*
X99690241Y-126916539D02*
X99785479Y-126868920D01*
X99785479Y-126868920D02*
X99928336Y-126868920D01*
X99928336Y-126868920D02*
X100023574Y-126916539D01*
X100023574Y-126916539D02*
X100071193Y-126964158D01*
X100071193Y-126964158D02*
X100118812Y-127059396D01*
X100118812Y-127059396D02*
X100118812Y-127440348D01*
X100595003Y-126440348D02*
X99928336Y-126440348D01*
X99595003Y-126440348D02*
X99642622Y-126487967D01*
X99642622Y-126487967D02*
X99690241Y-126440348D01*
X99690241Y-126440348D02*
X99642622Y-126392729D01*
X99642622Y-126392729D02*
X99595003Y-126440348D01*
X99595003Y-126440348D02*
X99690241Y-126440348D01*
X99928336Y-125535587D02*
X100737860Y-125535587D01*
X100737860Y-125535587D02*
X100833098Y-125583206D01*
X100833098Y-125583206D02*
X100880717Y-125630825D01*
X100880717Y-125630825D02*
X100928336Y-125726063D01*
X100928336Y-125726063D02*
X100928336Y-125868920D01*
X100928336Y-125868920D02*
X100880717Y-125964158D01*
X100547384Y-125535587D02*
X100595003Y-125630825D01*
X100595003Y-125630825D02*
X100595003Y-125821301D01*
X100595003Y-125821301D02*
X100547384Y-125916539D01*
X100547384Y-125916539D02*
X100499764Y-125964158D01*
X100499764Y-125964158D02*
X100404526Y-126011777D01*
X100404526Y-126011777D02*
X100118812Y-126011777D01*
X100118812Y-126011777D02*
X100023574Y-125964158D01*
X100023574Y-125964158D02*
X99975955Y-125916539D01*
X99975955Y-125916539D02*
X99928336Y-125821301D01*
X99928336Y-125821301D02*
X99928336Y-125630825D01*
X99928336Y-125630825D02*
X99975955Y-125535587D01*
X100595003Y-125059396D02*
X99595003Y-125059396D01*
X100595003Y-124630825D02*
X100071193Y-124630825D01*
X100071193Y-124630825D02*
X99975955Y-124678444D01*
X99975955Y-124678444D02*
X99928336Y-124773682D01*
X99928336Y-124773682D02*
X99928336Y-124916539D01*
X99928336Y-124916539D02*
X99975955Y-125011777D01*
X99975955Y-125011777D02*
X100023574Y-125059396D01*
X99928336Y-124297491D02*
X99928336Y-123916539D01*
X99595003Y-124154634D02*
X100452145Y-124154634D01*
X100452145Y-124154634D02*
X100547384Y-124107015D01*
X100547384Y-124107015D02*
X100595003Y-124011777D01*
X100595003Y-124011777D02*
X100595003Y-123916539D01*
X154450603Y-101654634D02*
X154402984Y-101607015D01*
X154402984Y-101607015D02*
X154355364Y-101464158D01*
X154355364Y-101464158D02*
X154355364Y-101368920D01*
X154355364Y-101368920D02*
X154402984Y-101226063D01*
X154402984Y-101226063D02*
X154498222Y-101130825D01*
X154498222Y-101130825D02*
X154593460Y-101083206D01*
X154593460Y-101083206D02*
X154783936Y-101035587D01*
X154783936Y-101035587D02*
X154926793Y-101035587D01*
X154926793Y-101035587D02*
X155117269Y-101083206D01*
X155117269Y-101083206D02*
X155212507Y-101130825D01*
X155212507Y-101130825D02*
X155307745Y-101226063D01*
X155307745Y-101226063D02*
X155355364Y-101368920D01*
X155355364Y-101368920D02*
X155355364Y-101464158D01*
X155355364Y-101464158D02*
X155307745Y-101607015D01*
X155307745Y-101607015D02*
X155260126Y-101654634D01*
X154402984Y-102464158D02*
X154355364Y-102368920D01*
X154355364Y-102368920D02*
X154355364Y-102178444D01*
X154355364Y-102178444D02*
X154402984Y-102083206D01*
X154402984Y-102083206D02*
X154498222Y-102035587D01*
X154498222Y-102035587D02*
X154879174Y-102035587D01*
X154879174Y-102035587D02*
X154974412Y-102083206D01*
X154974412Y-102083206D02*
X155022031Y-102178444D01*
X155022031Y-102178444D02*
X155022031Y-102368920D01*
X155022031Y-102368920D02*
X154974412Y-102464158D01*
X154974412Y-102464158D02*
X154879174Y-102511777D01*
X154879174Y-102511777D02*
X154783936Y-102511777D01*
X154783936Y-102511777D02*
X154688698Y-102035587D01*
X155022031Y-102940349D02*
X154355364Y-102940349D01*
X154926793Y-102940349D02*
X154974412Y-102987968D01*
X154974412Y-102987968D02*
X155022031Y-103083206D01*
X155022031Y-103083206D02*
X155022031Y-103226063D01*
X155022031Y-103226063D02*
X154974412Y-103321301D01*
X154974412Y-103321301D02*
X154879174Y-103368920D01*
X154879174Y-103368920D02*
X154355364Y-103368920D01*
X155022031Y-103702254D02*
X155022031Y-104083206D01*
X155355364Y-103845111D02*
X154498222Y-103845111D01*
X154498222Y-103845111D02*
X154402984Y-103892730D01*
X154402984Y-103892730D02*
X154355364Y-103987968D01*
X154355364Y-103987968D02*
X154355364Y-104083206D01*
X154402984Y-104797492D02*
X154355364Y-104702254D01*
X154355364Y-104702254D02*
X154355364Y-104511778D01*
X154355364Y-104511778D02*
X154402984Y-104416540D01*
X154402984Y-104416540D02*
X154498222Y-104368921D01*
X154498222Y-104368921D02*
X154879174Y-104368921D01*
X154879174Y-104368921D02*
X154974412Y-104416540D01*
X154974412Y-104416540D02*
X155022031Y-104511778D01*
X155022031Y-104511778D02*
X155022031Y-104702254D01*
X155022031Y-104702254D02*
X154974412Y-104797492D01*
X154974412Y-104797492D02*
X154879174Y-104845111D01*
X154879174Y-104845111D02*
X154783936Y-104845111D01*
X154783936Y-104845111D02*
X154688698Y-104368921D01*
X154355364Y-105273683D02*
X155022031Y-105273683D01*
X154831555Y-105273683D02*
X154926793Y-105321302D01*
X154926793Y-105321302D02*
X154974412Y-105368921D01*
X154974412Y-105368921D02*
X155022031Y-105464159D01*
X155022031Y-105464159D02*
X155022031Y-105559397D01*
X110561963Y-65130196D02*
X110561963Y-64130196D01*
X110561963Y-64130196D02*
X110942915Y-64130196D01*
X110942915Y-64130196D02*
X111038153Y-64177815D01*
X111038153Y-64177815D02*
X111085772Y-64225434D01*
X111085772Y-64225434D02*
X111133391Y-64320672D01*
X111133391Y-64320672D02*
X111133391Y-64463529D01*
X111133391Y-64463529D02*
X111085772Y-64558767D01*
X111085772Y-64558767D02*
X111038153Y-64606386D01*
X111038153Y-64606386D02*
X110942915Y-64654005D01*
X110942915Y-64654005D02*
X110561963Y-64654005D01*
X111514344Y-65082577D02*
X111657201Y-65130196D01*
X111657201Y-65130196D02*
X111895296Y-65130196D01*
X111895296Y-65130196D02*
X111990534Y-65082577D01*
X111990534Y-65082577D02*
X112038153Y-65034957D01*
X112038153Y-65034957D02*
X112085772Y-64939719D01*
X112085772Y-64939719D02*
X112085772Y-64844481D01*
X112085772Y-64844481D02*
X112038153Y-64749243D01*
X112038153Y-64749243D02*
X111990534Y-64701624D01*
X111990534Y-64701624D02*
X111895296Y-64654005D01*
X111895296Y-64654005D02*
X111704820Y-64606386D01*
X111704820Y-64606386D02*
X111609582Y-64558767D01*
X111609582Y-64558767D02*
X111561963Y-64511148D01*
X111561963Y-64511148D02*
X111514344Y-64415910D01*
X111514344Y-64415910D02*
X111514344Y-64320672D01*
X111514344Y-64320672D02*
X111561963Y-64225434D01*
X111561963Y-64225434D02*
X111609582Y-64177815D01*
X111609582Y-64177815D02*
X111704820Y-64130196D01*
X111704820Y-64130196D02*
X111942915Y-64130196D01*
X111942915Y-64130196D02*
X112085772Y-64177815D01*
X112514344Y-65130196D02*
X112514344Y-64130196D01*
X112514344Y-64130196D02*
X112895296Y-64130196D01*
X112895296Y-64130196D02*
X112990534Y-64177815D01*
X112990534Y-64177815D02*
X113038153Y-64225434D01*
X113038153Y-64225434D02*
X113085772Y-64320672D01*
X113085772Y-64320672D02*
X113085772Y-64463529D01*
X113085772Y-64463529D02*
X113038153Y-64558767D01*
X113038153Y-64558767D02*
X112990534Y-64606386D01*
X112990534Y-64606386D02*
X112895296Y-64654005D01*
X112895296Y-64654005D02*
X112514344Y-64654005D01*
X114609582Y-64606386D02*
X114752439Y-64654005D01*
X114752439Y-64654005D02*
X114800058Y-64701624D01*
X114800058Y-64701624D02*
X114847677Y-64796862D01*
X114847677Y-64796862D02*
X114847677Y-64939719D01*
X114847677Y-64939719D02*
X114800058Y-65034957D01*
X114800058Y-65034957D02*
X114752439Y-65082577D01*
X114752439Y-65082577D02*
X114657201Y-65130196D01*
X114657201Y-65130196D02*
X114276249Y-65130196D01*
X114276249Y-65130196D02*
X114276249Y-64130196D01*
X114276249Y-64130196D02*
X114609582Y-64130196D01*
X114609582Y-64130196D02*
X114704820Y-64177815D01*
X114704820Y-64177815D02*
X114752439Y-64225434D01*
X114752439Y-64225434D02*
X114800058Y-64320672D01*
X114800058Y-64320672D02*
X114800058Y-64415910D01*
X114800058Y-64415910D02*
X114752439Y-64511148D01*
X114752439Y-64511148D02*
X114704820Y-64558767D01*
X114704820Y-64558767D02*
X114609582Y-64606386D01*
X114609582Y-64606386D02*
X114276249Y-64606386D01*
X115419106Y-65130196D02*
X115323868Y-65082577D01*
X115323868Y-65082577D02*
X115276249Y-64987338D01*
X115276249Y-64987338D02*
X115276249Y-64130196D01*
X116228630Y-64463529D02*
X116228630Y-65130196D01*
X115800059Y-64463529D02*
X115800059Y-64987338D01*
X115800059Y-64987338D02*
X115847678Y-65082577D01*
X115847678Y-65082577D02*
X115942916Y-65130196D01*
X115942916Y-65130196D02*
X116085773Y-65130196D01*
X116085773Y-65130196D02*
X116181011Y-65082577D01*
X116181011Y-65082577D02*
X116228630Y-65034957D01*
X117085773Y-65082577D02*
X116990535Y-65130196D01*
X116990535Y-65130196D02*
X116800059Y-65130196D01*
X116800059Y-65130196D02*
X116704821Y-65082577D01*
X116704821Y-65082577D02*
X116657202Y-64987338D01*
X116657202Y-64987338D02*
X116657202Y-64606386D01*
X116657202Y-64606386D02*
X116704821Y-64511148D01*
X116704821Y-64511148D02*
X116800059Y-64463529D01*
X116800059Y-64463529D02*
X116990535Y-64463529D01*
X116990535Y-64463529D02*
X117085773Y-64511148D01*
X117085773Y-64511148D02*
X117133392Y-64606386D01*
X117133392Y-64606386D02*
X117133392Y-64701624D01*
X117133392Y-64701624D02*
X116657202Y-64796862D01*
X117419107Y-64463529D02*
X117800059Y-64463529D01*
X117561964Y-64130196D02*
X117561964Y-64987338D01*
X117561964Y-64987338D02*
X117609583Y-65082577D01*
X117609583Y-65082577D02*
X117704821Y-65130196D01*
X117704821Y-65130196D02*
X117800059Y-65130196D01*
X118276250Y-65130196D02*
X118181012Y-65082577D01*
X118181012Y-65082577D02*
X118133393Y-65034957D01*
X118133393Y-65034957D02*
X118085774Y-64939719D01*
X118085774Y-64939719D02*
X118085774Y-64654005D01*
X118085774Y-64654005D02*
X118133393Y-64558767D01*
X118133393Y-64558767D02*
X118181012Y-64511148D01*
X118181012Y-64511148D02*
X118276250Y-64463529D01*
X118276250Y-64463529D02*
X118419107Y-64463529D01*
X118419107Y-64463529D02*
X118514345Y-64511148D01*
X118514345Y-64511148D02*
X118561964Y-64558767D01*
X118561964Y-64558767D02*
X118609583Y-64654005D01*
X118609583Y-64654005D02*
X118609583Y-64939719D01*
X118609583Y-64939719D02*
X118561964Y-65034957D01*
X118561964Y-65034957D02*
X118514345Y-65082577D01*
X118514345Y-65082577D02*
X118419107Y-65130196D01*
X118419107Y-65130196D02*
X118276250Y-65130196D01*
X119181012Y-65130196D02*
X119085774Y-65082577D01*
X119085774Y-65082577D02*
X119038155Y-65034957D01*
X119038155Y-65034957D02*
X118990536Y-64939719D01*
X118990536Y-64939719D02*
X118990536Y-64654005D01*
X118990536Y-64654005D02*
X119038155Y-64558767D01*
X119038155Y-64558767D02*
X119085774Y-64511148D01*
X119085774Y-64511148D02*
X119181012Y-64463529D01*
X119181012Y-64463529D02*
X119323869Y-64463529D01*
X119323869Y-64463529D02*
X119419107Y-64511148D01*
X119419107Y-64511148D02*
X119466726Y-64558767D01*
X119466726Y-64558767D02*
X119514345Y-64654005D01*
X119514345Y-64654005D02*
X119514345Y-64939719D01*
X119514345Y-64939719D02*
X119466726Y-65034957D01*
X119466726Y-65034957D02*
X119419107Y-65082577D01*
X119419107Y-65082577D02*
X119323869Y-65130196D01*
X119323869Y-65130196D02*
X119181012Y-65130196D01*
X119800060Y-64463529D02*
X120181012Y-64463529D01*
X119942917Y-64130196D02*
X119942917Y-64987338D01*
X119942917Y-64987338D02*
X119990536Y-65082577D01*
X119990536Y-65082577D02*
X120085774Y-65130196D01*
X120085774Y-65130196D02*
X120181012Y-65130196D01*
X120514346Y-65130196D02*
X120514346Y-64130196D01*
X120942917Y-65130196D02*
X120942917Y-64606386D01*
X120942917Y-64606386D02*
X120895298Y-64511148D01*
X120895298Y-64511148D02*
X120800060Y-64463529D01*
X120800060Y-64463529D02*
X120657203Y-64463529D01*
X120657203Y-64463529D02*
X120561965Y-64511148D01*
X120561965Y-64511148D02*
X120514346Y-64558767D01*
X110514344Y-65835378D02*
X110561963Y-65787759D01*
X110561963Y-65787759D02*
X110657201Y-65740140D01*
X110657201Y-65740140D02*
X110895296Y-65740140D01*
X110895296Y-65740140D02*
X110990534Y-65787759D01*
X110990534Y-65787759D02*
X111038153Y-65835378D01*
X111038153Y-65835378D02*
X111085772Y-65930616D01*
X111085772Y-65930616D02*
X111085772Y-66025854D01*
X111085772Y-66025854D02*
X111038153Y-66168711D01*
X111038153Y-66168711D02*
X110466725Y-66740140D01*
X110466725Y-66740140D02*
X111085772Y-66740140D01*
X111514344Y-66740140D02*
X111514344Y-65740140D01*
X112085772Y-66740140D02*
X111657201Y-66168711D01*
X112085772Y-65740140D02*
X111514344Y-66311568D01*
X113609582Y-66216330D02*
X113752439Y-66263949D01*
X113752439Y-66263949D02*
X113800058Y-66311568D01*
X113800058Y-66311568D02*
X113847677Y-66406806D01*
X113847677Y-66406806D02*
X113847677Y-66549663D01*
X113847677Y-66549663D02*
X113800058Y-66644901D01*
X113800058Y-66644901D02*
X113752439Y-66692521D01*
X113752439Y-66692521D02*
X113657201Y-66740140D01*
X113657201Y-66740140D02*
X113276249Y-66740140D01*
X113276249Y-66740140D02*
X113276249Y-65740140D01*
X113276249Y-65740140D02*
X113609582Y-65740140D01*
X113609582Y-65740140D02*
X113704820Y-65787759D01*
X113704820Y-65787759D02*
X113752439Y-65835378D01*
X113752439Y-65835378D02*
X113800058Y-65930616D01*
X113800058Y-65930616D02*
X113800058Y-66025854D01*
X113800058Y-66025854D02*
X113752439Y-66121092D01*
X113752439Y-66121092D02*
X113704820Y-66168711D01*
X113704820Y-66168711D02*
X113609582Y-66216330D01*
X113609582Y-66216330D02*
X113276249Y-66216330D01*
X114704820Y-66073473D02*
X114704820Y-66740140D01*
X114276249Y-66073473D02*
X114276249Y-66597282D01*
X114276249Y-66597282D02*
X114323868Y-66692521D01*
X114323868Y-66692521D02*
X114419106Y-66740140D01*
X114419106Y-66740140D02*
X114561963Y-66740140D01*
X114561963Y-66740140D02*
X114657201Y-66692521D01*
X114657201Y-66692521D02*
X114704820Y-66644901D01*
X115038154Y-66073473D02*
X115419106Y-66073473D01*
X115181011Y-65740140D02*
X115181011Y-66597282D01*
X115181011Y-66597282D02*
X115228630Y-66692521D01*
X115228630Y-66692521D02*
X115323868Y-66740140D01*
X115323868Y-66740140D02*
X115419106Y-66740140D01*
X115609583Y-66073473D02*
X115990535Y-66073473D01*
X115752440Y-65740140D02*
X115752440Y-66597282D01*
X115752440Y-66597282D02*
X115800059Y-66692521D01*
X115800059Y-66692521D02*
X115895297Y-66740140D01*
X115895297Y-66740140D02*
X115990535Y-66740140D01*
X116466726Y-66740140D02*
X116371488Y-66692521D01*
X116371488Y-66692521D02*
X116323869Y-66644901D01*
X116323869Y-66644901D02*
X116276250Y-66549663D01*
X116276250Y-66549663D02*
X116276250Y-66263949D01*
X116276250Y-66263949D02*
X116323869Y-66168711D01*
X116323869Y-66168711D02*
X116371488Y-66121092D01*
X116371488Y-66121092D02*
X116466726Y-66073473D01*
X116466726Y-66073473D02*
X116609583Y-66073473D01*
X116609583Y-66073473D02*
X116704821Y-66121092D01*
X116704821Y-66121092D02*
X116752440Y-66168711D01*
X116752440Y-66168711D02*
X116800059Y-66263949D01*
X116800059Y-66263949D02*
X116800059Y-66549663D01*
X116800059Y-66549663D02*
X116752440Y-66644901D01*
X116752440Y-66644901D02*
X116704821Y-66692521D01*
X116704821Y-66692521D02*
X116609583Y-66740140D01*
X116609583Y-66740140D02*
X116466726Y-66740140D01*
X117228631Y-66073473D02*
X117228631Y-66740140D01*
X117228631Y-66168711D02*
X117276250Y-66121092D01*
X117276250Y-66121092D02*
X117371488Y-66073473D01*
X117371488Y-66073473D02*
X117514345Y-66073473D01*
X117514345Y-66073473D02*
X117609583Y-66121092D01*
X117609583Y-66121092D02*
X117657202Y-66216330D01*
X117657202Y-66216330D02*
X117657202Y-66740140D01*
X119228631Y-66216330D02*
X118895298Y-66216330D01*
X118895298Y-66740140D02*
X118895298Y-65740140D01*
X118895298Y-65740140D02*
X119371488Y-65740140D01*
X119752441Y-66740140D02*
X119752441Y-65740140D01*
X119752441Y-65740140D02*
X120133393Y-65740140D01*
X120133393Y-65740140D02*
X120228631Y-65787759D01*
X120228631Y-65787759D02*
X120276250Y-65835378D01*
X120276250Y-65835378D02*
X120323869Y-65930616D01*
X120323869Y-65930616D02*
X120323869Y-66073473D01*
X120323869Y-66073473D02*
X120276250Y-66168711D01*
X120276250Y-66168711D02*
X120228631Y-66216330D01*
X120228631Y-66216330D02*
X120133393Y-66263949D01*
X120133393Y-66263949D02*
X119752441Y-66263949D01*
X121323869Y-66644901D02*
X121276250Y-66692521D01*
X121276250Y-66692521D02*
X121133393Y-66740140D01*
X121133393Y-66740140D02*
X121038155Y-66740140D01*
X121038155Y-66740140D02*
X120895298Y-66692521D01*
X120895298Y-66692521D02*
X120800060Y-66597282D01*
X120800060Y-66597282D02*
X120752441Y-66502044D01*
X120752441Y-66502044D02*
X120704822Y-66311568D01*
X120704822Y-66311568D02*
X120704822Y-66168711D01*
X120704822Y-66168711D02*
X120752441Y-65978235D01*
X120752441Y-65978235D02*
X120800060Y-65882997D01*
X120800060Y-65882997D02*
X120895298Y-65787759D01*
X120895298Y-65787759D02*
X121038155Y-65740140D01*
X121038155Y-65740140D02*
X121133393Y-65740140D01*
X121133393Y-65740140D02*
X121276250Y-65787759D01*
X121276250Y-65787759D02*
X121323869Y-65835378D01*
X121800060Y-65740140D02*
X121704822Y-65930616D01*
X122181012Y-66692521D02*
X122276250Y-66740140D01*
X122276250Y-66740140D02*
X122466726Y-66740140D01*
X122466726Y-66740140D02*
X122561964Y-66692521D01*
X122561964Y-66692521D02*
X122609583Y-66597282D01*
X122609583Y-66597282D02*
X122609583Y-66549663D01*
X122609583Y-66549663D02*
X122561964Y-66454425D01*
X122561964Y-66454425D02*
X122466726Y-66406806D01*
X122466726Y-66406806D02*
X122323869Y-66406806D01*
X122323869Y-66406806D02*
X122228631Y-66359187D01*
X122228631Y-66359187D02*
X122181012Y-66263949D01*
X122181012Y-66263949D02*
X122181012Y-66216330D01*
X122181012Y-66216330D02*
X122228631Y-66121092D01*
X122228631Y-66121092D02*
X122323869Y-66073473D01*
X122323869Y-66073473D02*
X122466726Y-66073473D01*
X122466726Y-66073473D02*
X122561964Y-66121092D01*
X111133391Y-69864789D02*
X111085772Y-69912409D01*
X111085772Y-69912409D02*
X110942915Y-69960028D01*
X110942915Y-69960028D02*
X110847677Y-69960028D01*
X110847677Y-69960028D02*
X110704820Y-69912409D01*
X110704820Y-69912409D02*
X110609582Y-69817170D01*
X110609582Y-69817170D02*
X110561963Y-69721932D01*
X110561963Y-69721932D02*
X110514344Y-69531456D01*
X110514344Y-69531456D02*
X110514344Y-69388599D01*
X110514344Y-69388599D02*
X110561963Y-69198123D01*
X110561963Y-69198123D02*
X110609582Y-69102885D01*
X110609582Y-69102885D02*
X110704820Y-69007647D01*
X110704820Y-69007647D02*
X110847677Y-68960028D01*
X110847677Y-68960028D02*
X110942915Y-68960028D01*
X110942915Y-68960028D02*
X111085772Y-69007647D01*
X111085772Y-69007647D02*
X111133391Y-69055266D01*
X111990534Y-69293361D02*
X111990534Y-69960028D01*
X111561963Y-69293361D02*
X111561963Y-69817170D01*
X111561963Y-69817170D02*
X111609582Y-69912409D01*
X111609582Y-69912409D02*
X111704820Y-69960028D01*
X111704820Y-69960028D02*
X111847677Y-69960028D01*
X111847677Y-69960028D02*
X111942915Y-69912409D01*
X111942915Y-69912409D02*
X111990534Y-69864789D01*
X112323868Y-69293361D02*
X112704820Y-69293361D01*
X112466725Y-68960028D02*
X112466725Y-69817170D01*
X112466725Y-69817170D02*
X112514344Y-69912409D01*
X112514344Y-69912409D02*
X112609582Y-69960028D01*
X112609582Y-69960028D02*
X112704820Y-69960028D01*
X114228630Y-69960028D02*
X114228630Y-69436218D01*
X114228630Y-69436218D02*
X114181011Y-69340980D01*
X114181011Y-69340980D02*
X114085773Y-69293361D01*
X114085773Y-69293361D02*
X113895297Y-69293361D01*
X113895297Y-69293361D02*
X113800059Y-69340980D01*
X114228630Y-69912409D02*
X114133392Y-69960028D01*
X114133392Y-69960028D02*
X113895297Y-69960028D01*
X113895297Y-69960028D02*
X113800059Y-69912409D01*
X113800059Y-69912409D02*
X113752440Y-69817170D01*
X113752440Y-69817170D02*
X113752440Y-69721932D01*
X113752440Y-69721932D02*
X113800059Y-69626694D01*
X113800059Y-69626694D02*
X113895297Y-69579075D01*
X113895297Y-69579075D02*
X114133392Y-69579075D01*
X114133392Y-69579075D02*
X114228630Y-69531456D01*
X114847678Y-69960028D02*
X114752440Y-69912409D01*
X114752440Y-69912409D02*
X114704821Y-69817170D01*
X114704821Y-69817170D02*
X114704821Y-68960028D01*
X115371488Y-69960028D02*
X115276250Y-69912409D01*
X115276250Y-69912409D02*
X115228631Y-69864789D01*
X115228631Y-69864789D02*
X115181012Y-69769551D01*
X115181012Y-69769551D02*
X115181012Y-69483837D01*
X115181012Y-69483837D02*
X115228631Y-69388599D01*
X115228631Y-69388599D02*
X115276250Y-69340980D01*
X115276250Y-69340980D02*
X115371488Y-69293361D01*
X115371488Y-69293361D02*
X115514345Y-69293361D01*
X115514345Y-69293361D02*
X115609583Y-69340980D01*
X115609583Y-69340980D02*
X115657202Y-69388599D01*
X115657202Y-69388599D02*
X115704821Y-69483837D01*
X115704821Y-69483837D02*
X115704821Y-69769551D01*
X115704821Y-69769551D02*
X115657202Y-69864789D01*
X115657202Y-69864789D02*
X115609583Y-69912409D01*
X115609583Y-69912409D02*
X115514345Y-69960028D01*
X115514345Y-69960028D02*
X115371488Y-69960028D01*
X116133393Y-69293361D02*
X116133393Y-69960028D01*
X116133393Y-69388599D02*
X116181012Y-69340980D01*
X116181012Y-69340980D02*
X116276250Y-69293361D01*
X116276250Y-69293361D02*
X116419107Y-69293361D01*
X116419107Y-69293361D02*
X116514345Y-69340980D01*
X116514345Y-69340980D02*
X116561964Y-69436218D01*
X116561964Y-69436218D02*
X116561964Y-69960028D01*
X117466726Y-69293361D02*
X117466726Y-70102885D01*
X117466726Y-70102885D02*
X117419107Y-70198123D01*
X117419107Y-70198123D02*
X117371488Y-70245742D01*
X117371488Y-70245742D02*
X117276250Y-70293361D01*
X117276250Y-70293361D02*
X117133393Y-70293361D01*
X117133393Y-70293361D02*
X117038155Y-70245742D01*
X117466726Y-69912409D02*
X117371488Y-69960028D01*
X117371488Y-69960028D02*
X117181012Y-69960028D01*
X117181012Y-69960028D02*
X117085774Y-69912409D01*
X117085774Y-69912409D02*
X117038155Y-69864789D01*
X117038155Y-69864789D02*
X116990536Y-69769551D01*
X116990536Y-69769551D02*
X116990536Y-69483837D01*
X116990536Y-69483837D02*
X117038155Y-69388599D01*
X117038155Y-69388599D02*
X117085774Y-69340980D01*
X117085774Y-69340980D02*
X117181012Y-69293361D01*
X117181012Y-69293361D02*
X117371488Y-69293361D01*
X117371488Y-69293361D02*
X117466726Y-69340980D01*
X119133393Y-69960028D02*
X119133393Y-68960028D01*
X119133393Y-69912409D02*
X119038155Y-69960028D01*
X119038155Y-69960028D02*
X118847679Y-69960028D01*
X118847679Y-69960028D02*
X118752441Y-69912409D01*
X118752441Y-69912409D02*
X118704822Y-69864789D01*
X118704822Y-69864789D02*
X118657203Y-69769551D01*
X118657203Y-69769551D02*
X118657203Y-69483837D01*
X118657203Y-69483837D02*
X118704822Y-69388599D01*
X118704822Y-69388599D02*
X118752441Y-69340980D01*
X118752441Y-69340980D02*
X118847679Y-69293361D01*
X118847679Y-69293361D02*
X119038155Y-69293361D01*
X119038155Y-69293361D02*
X119133393Y-69340980D01*
X119752441Y-69960028D02*
X119657203Y-69912409D01*
X119657203Y-69912409D02*
X119609584Y-69864789D01*
X119609584Y-69864789D02*
X119561965Y-69769551D01*
X119561965Y-69769551D02*
X119561965Y-69483837D01*
X119561965Y-69483837D02*
X119609584Y-69388599D01*
X119609584Y-69388599D02*
X119657203Y-69340980D01*
X119657203Y-69340980D02*
X119752441Y-69293361D01*
X119752441Y-69293361D02*
X119895298Y-69293361D01*
X119895298Y-69293361D02*
X119990536Y-69340980D01*
X119990536Y-69340980D02*
X120038155Y-69388599D01*
X120038155Y-69388599D02*
X120085774Y-69483837D01*
X120085774Y-69483837D02*
X120085774Y-69769551D01*
X120085774Y-69769551D02*
X120038155Y-69864789D01*
X120038155Y-69864789D02*
X119990536Y-69912409D01*
X119990536Y-69912409D02*
X119895298Y-69960028D01*
X119895298Y-69960028D02*
X119752441Y-69960028D01*
X120371489Y-69293361D02*
X120752441Y-69293361D01*
X120514346Y-68960028D02*
X120514346Y-69817170D01*
X120514346Y-69817170D02*
X120561965Y-69912409D01*
X120561965Y-69912409D02*
X120657203Y-69960028D01*
X120657203Y-69960028D02*
X120752441Y-69960028D01*
X120942918Y-69293361D02*
X121323870Y-69293361D01*
X121085775Y-68960028D02*
X121085775Y-69817170D01*
X121085775Y-69817170D02*
X121133394Y-69912409D01*
X121133394Y-69912409D02*
X121228632Y-69960028D01*
X121228632Y-69960028D02*
X121323870Y-69960028D01*
X122038156Y-69912409D02*
X121942918Y-69960028D01*
X121942918Y-69960028D02*
X121752442Y-69960028D01*
X121752442Y-69960028D02*
X121657204Y-69912409D01*
X121657204Y-69912409D02*
X121609585Y-69817170D01*
X121609585Y-69817170D02*
X121609585Y-69436218D01*
X121609585Y-69436218D02*
X121657204Y-69340980D01*
X121657204Y-69340980D02*
X121752442Y-69293361D01*
X121752442Y-69293361D02*
X121942918Y-69293361D01*
X121942918Y-69293361D02*
X122038156Y-69340980D01*
X122038156Y-69340980D02*
X122085775Y-69436218D01*
X122085775Y-69436218D02*
X122085775Y-69531456D01*
X122085775Y-69531456D02*
X121609585Y-69626694D01*
X122942918Y-69960028D02*
X122942918Y-68960028D01*
X122942918Y-69912409D02*
X122847680Y-69960028D01*
X122847680Y-69960028D02*
X122657204Y-69960028D01*
X122657204Y-69960028D02*
X122561966Y-69912409D01*
X122561966Y-69912409D02*
X122514347Y-69864789D01*
X122514347Y-69864789D02*
X122466728Y-69769551D01*
X122466728Y-69769551D02*
X122466728Y-69483837D01*
X122466728Y-69483837D02*
X122514347Y-69388599D01*
X122514347Y-69388599D02*
X122561966Y-69340980D01*
X122561966Y-69340980D02*
X122657204Y-69293361D01*
X122657204Y-69293361D02*
X122847680Y-69293361D01*
X122847680Y-69293361D02*
X122942918Y-69340980D01*
X124323871Y-69960028D02*
X124228633Y-69912409D01*
X124228633Y-69912409D02*
X124181014Y-69817170D01*
X124181014Y-69817170D02*
X124181014Y-68960028D01*
X124704824Y-69960028D02*
X124704824Y-69293361D01*
X124704824Y-68960028D02*
X124657205Y-69007647D01*
X124657205Y-69007647D02*
X124704824Y-69055266D01*
X124704824Y-69055266D02*
X124752443Y-69007647D01*
X124752443Y-69007647D02*
X124704824Y-68960028D01*
X124704824Y-68960028D02*
X124704824Y-69055266D01*
X125181014Y-69293361D02*
X125181014Y-69960028D01*
X125181014Y-69388599D02*
X125228633Y-69340980D01*
X125228633Y-69340980D02*
X125323871Y-69293361D01*
X125323871Y-69293361D02*
X125466728Y-69293361D01*
X125466728Y-69293361D02*
X125561966Y-69340980D01*
X125561966Y-69340980D02*
X125609585Y-69436218D01*
X125609585Y-69436218D02*
X125609585Y-69960028D01*
X126466728Y-69912409D02*
X126371490Y-69960028D01*
X126371490Y-69960028D02*
X126181014Y-69960028D01*
X126181014Y-69960028D02*
X126085776Y-69912409D01*
X126085776Y-69912409D02*
X126038157Y-69817170D01*
X126038157Y-69817170D02*
X126038157Y-69436218D01*
X126038157Y-69436218D02*
X126085776Y-69340980D01*
X126085776Y-69340980D02*
X126181014Y-69293361D01*
X126181014Y-69293361D02*
X126371490Y-69293361D01*
X126371490Y-69293361D02*
X126466728Y-69340980D01*
X126466728Y-69340980D02*
X126514347Y-69436218D01*
X126514347Y-69436218D02*
X126514347Y-69531456D01*
X126514347Y-69531456D02*
X126038157Y-69626694D01*
X126895300Y-69912409D02*
X126990538Y-69960028D01*
X126990538Y-69960028D02*
X127181014Y-69960028D01*
X127181014Y-69960028D02*
X127276252Y-69912409D01*
X127276252Y-69912409D02*
X127323871Y-69817170D01*
X127323871Y-69817170D02*
X127323871Y-69769551D01*
X127323871Y-69769551D02*
X127276252Y-69674313D01*
X127276252Y-69674313D02*
X127181014Y-69626694D01*
X127181014Y-69626694D02*
X127038157Y-69626694D01*
X127038157Y-69626694D02*
X126942919Y-69579075D01*
X126942919Y-69579075D02*
X126895300Y-69483837D01*
X126895300Y-69483837D02*
X126895300Y-69436218D01*
X126895300Y-69436218D02*
X126942919Y-69340980D01*
X126942919Y-69340980D02*
X127038157Y-69293361D01*
X127038157Y-69293361D02*
X127181014Y-69293361D01*
X127181014Y-69293361D02*
X127276252Y-69340980D01*
X128371491Y-69293361D02*
X128752443Y-69293361D01*
X128514348Y-68960028D02*
X128514348Y-69817170D01*
X128514348Y-69817170D02*
X128561967Y-69912409D01*
X128561967Y-69912409D02*
X128657205Y-69960028D01*
X128657205Y-69960028D02*
X128752443Y-69960028D01*
X129228634Y-69960028D02*
X129133396Y-69912409D01*
X129133396Y-69912409D02*
X129085777Y-69864789D01*
X129085777Y-69864789D02*
X129038158Y-69769551D01*
X129038158Y-69769551D02*
X129038158Y-69483837D01*
X129038158Y-69483837D02*
X129085777Y-69388599D01*
X129085777Y-69388599D02*
X129133396Y-69340980D01*
X129133396Y-69340980D02*
X129228634Y-69293361D01*
X129228634Y-69293361D02*
X129371491Y-69293361D01*
X129371491Y-69293361D02*
X129466729Y-69340980D01*
X129466729Y-69340980D02*
X129514348Y-69388599D01*
X129514348Y-69388599D02*
X129561967Y-69483837D01*
X129561967Y-69483837D02*
X129561967Y-69769551D01*
X129561967Y-69769551D02*
X129514348Y-69864789D01*
X129514348Y-69864789D02*
X129466729Y-69912409D01*
X129466729Y-69912409D02*
X129371491Y-69960028D01*
X129371491Y-69960028D02*
X129228634Y-69960028D01*
X130704825Y-69912409D02*
X130800063Y-69960028D01*
X130800063Y-69960028D02*
X130990539Y-69960028D01*
X130990539Y-69960028D02*
X131085777Y-69912409D01*
X131085777Y-69912409D02*
X131133396Y-69817170D01*
X131133396Y-69817170D02*
X131133396Y-69769551D01*
X131133396Y-69769551D02*
X131085777Y-69674313D01*
X131085777Y-69674313D02*
X130990539Y-69626694D01*
X130990539Y-69626694D02*
X130847682Y-69626694D01*
X130847682Y-69626694D02*
X130752444Y-69579075D01*
X130752444Y-69579075D02*
X130704825Y-69483837D01*
X130704825Y-69483837D02*
X130704825Y-69436218D01*
X130704825Y-69436218D02*
X130752444Y-69340980D01*
X130752444Y-69340980D02*
X130847682Y-69293361D01*
X130847682Y-69293361D02*
X130990539Y-69293361D01*
X130990539Y-69293361D02*
X131085777Y-69340980D01*
X131942920Y-69912409D02*
X131847682Y-69960028D01*
X131847682Y-69960028D02*
X131657206Y-69960028D01*
X131657206Y-69960028D02*
X131561968Y-69912409D01*
X131561968Y-69912409D02*
X131514349Y-69817170D01*
X131514349Y-69817170D02*
X131514349Y-69436218D01*
X131514349Y-69436218D02*
X131561968Y-69340980D01*
X131561968Y-69340980D02*
X131657206Y-69293361D01*
X131657206Y-69293361D02*
X131847682Y-69293361D01*
X131847682Y-69293361D02*
X131942920Y-69340980D01*
X131942920Y-69340980D02*
X131990539Y-69436218D01*
X131990539Y-69436218D02*
X131990539Y-69531456D01*
X131990539Y-69531456D02*
X131514349Y-69626694D01*
X132419111Y-69293361D02*
X132419111Y-70293361D01*
X132419111Y-69340980D02*
X132514349Y-69293361D01*
X132514349Y-69293361D02*
X132704825Y-69293361D01*
X132704825Y-69293361D02*
X132800063Y-69340980D01*
X132800063Y-69340980D02*
X132847682Y-69388599D01*
X132847682Y-69388599D02*
X132895301Y-69483837D01*
X132895301Y-69483837D02*
X132895301Y-69769551D01*
X132895301Y-69769551D02*
X132847682Y-69864789D01*
X132847682Y-69864789D02*
X132800063Y-69912409D01*
X132800063Y-69912409D02*
X132704825Y-69960028D01*
X132704825Y-69960028D02*
X132514349Y-69960028D01*
X132514349Y-69960028D02*
X132419111Y-69912409D01*
X133752444Y-69960028D02*
X133752444Y-69436218D01*
X133752444Y-69436218D02*
X133704825Y-69340980D01*
X133704825Y-69340980D02*
X133609587Y-69293361D01*
X133609587Y-69293361D02*
X133419111Y-69293361D01*
X133419111Y-69293361D02*
X133323873Y-69340980D01*
X133752444Y-69912409D02*
X133657206Y-69960028D01*
X133657206Y-69960028D02*
X133419111Y-69960028D01*
X133419111Y-69960028D02*
X133323873Y-69912409D01*
X133323873Y-69912409D02*
X133276254Y-69817170D01*
X133276254Y-69817170D02*
X133276254Y-69721932D01*
X133276254Y-69721932D02*
X133323873Y-69626694D01*
X133323873Y-69626694D02*
X133419111Y-69579075D01*
X133419111Y-69579075D02*
X133657206Y-69579075D01*
X133657206Y-69579075D02*
X133752444Y-69531456D01*
X134228635Y-69960028D02*
X134228635Y-69293361D01*
X134228635Y-69483837D02*
X134276254Y-69388599D01*
X134276254Y-69388599D02*
X134323873Y-69340980D01*
X134323873Y-69340980D02*
X134419111Y-69293361D01*
X134419111Y-69293361D02*
X134514349Y-69293361D01*
X135276254Y-69960028D02*
X135276254Y-69436218D01*
X135276254Y-69436218D02*
X135228635Y-69340980D01*
X135228635Y-69340980D02*
X135133397Y-69293361D01*
X135133397Y-69293361D02*
X134942921Y-69293361D01*
X134942921Y-69293361D02*
X134847683Y-69340980D01*
X135276254Y-69912409D02*
X135181016Y-69960028D01*
X135181016Y-69960028D02*
X134942921Y-69960028D01*
X134942921Y-69960028D02*
X134847683Y-69912409D01*
X134847683Y-69912409D02*
X134800064Y-69817170D01*
X134800064Y-69817170D02*
X134800064Y-69721932D01*
X134800064Y-69721932D02*
X134847683Y-69626694D01*
X134847683Y-69626694D02*
X134942921Y-69579075D01*
X134942921Y-69579075D02*
X135181016Y-69579075D01*
X135181016Y-69579075D02*
X135276254Y-69531456D01*
X135609588Y-69293361D02*
X135990540Y-69293361D01*
X135752445Y-68960028D02*
X135752445Y-69817170D01*
X135752445Y-69817170D02*
X135800064Y-69912409D01*
X135800064Y-69912409D02*
X135895302Y-69960028D01*
X135895302Y-69960028D02*
X135990540Y-69960028D01*
X136704826Y-69912409D02*
X136609588Y-69960028D01*
X136609588Y-69960028D02*
X136419112Y-69960028D01*
X136419112Y-69960028D02*
X136323874Y-69912409D01*
X136323874Y-69912409D02*
X136276255Y-69817170D01*
X136276255Y-69817170D02*
X136276255Y-69436218D01*
X136276255Y-69436218D02*
X136323874Y-69340980D01*
X136323874Y-69340980D02*
X136419112Y-69293361D01*
X136419112Y-69293361D02*
X136609588Y-69293361D01*
X136609588Y-69293361D02*
X136704826Y-69340980D01*
X136704826Y-69340980D02*
X136752445Y-69436218D01*
X136752445Y-69436218D02*
X136752445Y-69531456D01*
X136752445Y-69531456D02*
X136276255Y-69626694D01*
X137181017Y-69864789D02*
X137228636Y-69912409D01*
X137228636Y-69912409D02*
X137181017Y-69960028D01*
X137181017Y-69960028D02*
X137133398Y-69912409D01*
X137133398Y-69912409D02*
X137181017Y-69864789D01*
X137181017Y-69864789D02*
X137181017Y-69960028D01*
X111133391Y-73179916D02*
X110800058Y-72703725D01*
X110561963Y-73179916D02*
X110561963Y-72179916D01*
X110561963Y-72179916D02*
X110942915Y-72179916D01*
X110942915Y-72179916D02*
X111038153Y-72227535D01*
X111038153Y-72227535D02*
X111085772Y-72275154D01*
X111085772Y-72275154D02*
X111133391Y-72370392D01*
X111133391Y-72370392D02*
X111133391Y-72513249D01*
X111133391Y-72513249D02*
X111085772Y-72608487D01*
X111085772Y-72608487D02*
X111038153Y-72656106D01*
X111038153Y-72656106D02*
X110942915Y-72703725D01*
X110942915Y-72703725D02*
X110561963Y-72703725D01*
X111942915Y-73132297D02*
X111847677Y-73179916D01*
X111847677Y-73179916D02*
X111657201Y-73179916D01*
X111657201Y-73179916D02*
X111561963Y-73132297D01*
X111561963Y-73132297D02*
X111514344Y-73037058D01*
X111514344Y-73037058D02*
X111514344Y-72656106D01*
X111514344Y-72656106D02*
X111561963Y-72560868D01*
X111561963Y-72560868D02*
X111657201Y-72513249D01*
X111657201Y-72513249D02*
X111847677Y-72513249D01*
X111847677Y-72513249D02*
X111942915Y-72560868D01*
X111942915Y-72560868D02*
X111990534Y-72656106D01*
X111990534Y-72656106D02*
X111990534Y-72751344D01*
X111990534Y-72751344D02*
X111514344Y-72846582D01*
X112847677Y-73132297D02*
X112752439Y-73179916D01*
X112752439Y-73179916D02*
X112561963Y-73179916D01*
X112561963Y-73179916D02*
X112466725Y-73132297D01*
X112466725Y-73132297D02*
X112419106Y-73084677D01*
X112419106Y-73084677D02*
X112371487Y-72989439D01*
X112371487Y-72989439D02*
X112371487Y-72703725D01*
X112371487Y-72703725D02*
X112419106Y-72608487D01*
X112419106Y-72608487D02*
X112466725Y-72560868D01*
X112466725Y-72560868D02*
X112561963Y-72513249D01*
X112561963Y-72513249D02*
X112752439Y-72513249D01*
X112752439Y-72513249D02*
X112847677Y-72560868D01*
X113419106Y-73179916D02*
X113323868Y-73132297D01*
X113323868Y-73132297D02*
X113276249Y-73084677D01*
X113276249Y-73084677D02*
X113228630Y-72989439D01*
X113228630Y-72989439D02*
X113228630Y-72703725D01*
X113228630Y-72703725D02*
X113276249Y-72608487D01*
X113276249Y-72608487D02*
X113323868Y-72560868D01*
X113323868Y-72560868D02*
X113419106Y-72513249D01*
X113419106Y-72513249D02*
X113561963Y-72513249D01*
X113561963Y-72513249D02*
X113657201Y-72560868D01*
X113657201Y-72560868D02*
X113704820Y-72608487D01*
X113704820Y-72608487D02*
X113752439Y-72703725D01*
X113752439Y-72703725D02*
X113752439Y-72989439D01*
X113752439Y-72989439D02*
X113704820Y-73084677D01*
X113704820Y-73084677D02*
X113657201Y-73132297D01*
X113657201Y-73132297D02*
X113561963Y-73179916D01*
X113561963Y-73179916D02*
X113419106Y-73179916D01*
X114181011Y-73179916D02*
X114181011Y-72513249D01*
X114181011Y-72608487D02*
X114228630Y-72560868D01*
X114228630Y-72560868D02*
X114323868Y-72513249D01*
X114323868Y-72513249D02*
X114466725Y-72513249D01*
X114466725Y-72513249D02*
X114561963Y-72560868D01*
X114561963Y-72560868D02*
X114609582Y-72656106D01*
X114609582Y-72656106D02*
X114609582Y-73179916D01*
X114609582Y-72656106D02*
X114657201Y-72560868D01*
X114657201Y-72560868D02*
X114752439Y-72513249D01*
X114752439Y-72513249D02*
X114895296Y-72513249D01*
X114895296Y-72513249D02*
X114990535Y-72560868D01*
X114990535Y-72560868D02*
X115038154Y-72656106D01*
X115038154Y-72656106D02*
X115038154Y-73179916D01*
X115514344Y-73179916D02*
X115514344Y-72513249D01*
X115514344Y-72608487D02*
X115561963Y-72560868D01*
X115561963Y-72560868D02*
X115657201Y-72513249D01*
X115657201Y-72513249D02*
X115800058Y-72513249D01*
X115800058Y-72513249D02*
X115895296Y-72560868D01*
X115895296Y-72560868D02*
X115942915Y-72656106D01*
X115942915Y-72656106D02*
X115942915Y-73179916D01*
X115942915Y-72656106D02*
X115990534Y-72560868D01*
X115990534Y-72560868D02*
X116085772Y-72513249D01*
X116085772Y-72513249D02*
X116228629Y-72513249D01*
X116228629Y-72513249D02*
X116323868Y-72560868D01*
X116323868Y-72560868D02*
X116371487Y-72656106D01*
X116371487Y-72656106D02*
X116371487Y-73179916D01*
X117228629Y-73132297D02*
X117133391Y-73179916D01*
X117133391Y-73179916D02*
X116942915Y-73179916D01*
X116942915Y-73179916D02*
X116847677Y-73132297D01*
X116847677Y-73132297D02*
X116800058Y-73037058D01*
X116800058Y-73037058D02*
X116800058Y-72656106D01*
X116800058Y-72656106D02*
X116847677Y-72560868D01*
X116847677Y-72560868D02*
X116942915Y-72513249D01*
X116942915Y-72513249D02*
X117133391Y-72513249D01*
X117133391Y-72513249D02*
X117228629Y-72560868D01*
X117228629Y-72560868D02*
X117276248Y-72656106D01*
X117276248Y-72656106D02*
X117276248Y-72751344D01*
X117276248Y-72751344D02*
X116800058Y-72846582D01*
X117704820Y-72513249D02*
X117704820Y-73179916D01*
X117704820Y-72608487D02*
X117752439Y-72560868D01*
X117752439Y-72560868D02*
X117847677Y-72513249D01*
X117847677Y-72513249D02*
X117990534Y-72513249D01*
X117990534Y-72513249D02*
X118085772Y-72560868D01*
X118085772Y-72560868D02*
X118133391Y-72656106D01*
X118133391Y-72656106D02*
X118133391Y-73179916D01*
X119038153Y-73179916D02*
X119038153Y-72179916D01*
X119038153Y-73132297D02*
X118942915Y-73179916D01*
X118942915Y-73179916D02*
X118752439Y-73179916D01*
X118752439Y-73179916D02*
X118657201Y-73132297D01*
X118657201Y-73132297D02*
X118609582Y-73084677D01*
X118609582Y-73084677D02*
X118561963Y-72989439D01*
X118561963Y-72989439D02*
X118561963Y-72703725D01*
X118561963Y-72703725D02*
X118609582Y-72608487D01*
X118609582Y-72608487D02*
X118657201Y-72560868D01*
X118657201Y-72560868D02*
X118752439Y-72513249D01*
X118752439Y-72513249D02*
X118942915Y-72513249D01*
X118942915Y-72513249D02*
X119038153Y-72560868D01*
X119895296Y-73132297D02*
X119800058Y-73179916D01*
X119800058Y-73179916D02*
X119609582Y-73179916D01*
X119609582Y-73179916D02*
X119514344Y-73132297D01*
X119514344Y-73132297D02*
X119466725Y-73037058D01*
X119466725Y-73037058D02*
X119466725Y-72656106D01*
X119466725Y-72656106D02*
X119514344Y-72560868D01*
X119514344Y-72560868D02*
X119609582Y-72513249D01*
X119609582Y-72513249D02*
X119800058Y-72513249D01*
X119800058Y-72513249D02*
X119895296Y-72560868D01*
X119895296Y-72560868D02*
X119942915Y-72656106D01*
X119942915Y-72656106D02*
X119942915Y-72751344D01*
X119942915Y-72751344D02*
X119466725Y-72846582D01*
X120800058Y-73179916D02*
X120800058Y-72179916D01*
X120800058Y-73132297D02*
X120704820Y-73179916D01*
X120704820Y-73179916D02*
X120514344Y-73179916D01*
X120514344Y-73179916D02*
X120419106Y-73132297D01*
X120419106Y-73132297D02*
X120371487Y-73084677D01*
X120371487Y-73084677D02*
X120323868Y-72989439D01*
X120323868Y-72989439D02*
X120323868Y-72703725D01*
X120323868Y-72703725D02*
X120371487Y-72608487D01*
X120371487Y-72608487D02*
X120419106Y-72560868D01*
X120419106Y-72560868D02*
X120514344Y-72513249D01*
X120514344Y-72513249D02*
X120704820Y-72513249D01*
X120704820Y-72513249D02*
X120800058Y-72560868D01*
X121895297Y-72513249D02*
X122276249Y-72513249D01*
X122038154Y-72179916D02*
X122038154Y-73037058D01*
X122038154Y-73037058D02*
X122085773Y-73132297D01*
X122085773Y-73132297D02*
X122181011Y-73179916D01*
X122181011Y-73179916D02*
X122276249Y-73179916D01*
X123038154Y-73179916D02*
X123038154Y-72656106D01*
X123038154Y-72656106D02*
X122990535Y-72560868D01*
X122990535Y-72560868D02*
X122895297Y-72513249D01*
X122895297Y-72513249D02*
X122704821Y-72513249D01*
X122704821Y-72513249D02*
X122609583Y-72560868D01*
X123038154Y-73132297D02*
X122942916Y-73179916D01*
X122942916Y-73179916D02*
X122704821Y-73179916D01*
X122704821Y-73179916D02*
X122609583Y-73132297D01*
X122609583Y-73132297D02*
X122561964Y-73037058D01*
X122561964Y-73037058D02*
X122561964Y-72941820D01*
X122561964Y-72941820D02*
X122609583Y-72846582D01*
X122609583Y-72846582D02*
X122704821Y-72798963D01*
X122704821Y-72798963D02*
X122942916Y-72798963D01*
X122942916Y-72798963D02*
X123038154Y-72751344D01*
X123942916Y-73132297D02*
X123847678Y-73179916D01*
X123847678Y-73179916D02*
X123657202Y-73179916D01*
X123657202Y-73179916D02*
X123561964Y-73132297D01*
X123561964Y-73132297D02*
X123514345Y-73084677D01*
X123514345Y-73084677D02*
X123466726Y-72989439D01*
X123466726Y-72989439D02*
X123466726Y-72703725D01*
X123466726Y-72703725D02*
X123514345Y-72608487D01*
X123514345Y-72608487D02*
X123561964Y-72560868D01*
X123561964Y-72560868D02*
X123657202Y-72513249D01*
X123657202Y-72513249D02*
X123847678Y-72513249D01*
X123847678Y-72513249D02*
X123942916Y-72560868D01*
X124228631Y-72513249D02*
X124609583Y-72513249D01*
X124371488Y-72179916D02*
X124371488Y-73037058D01*
X124371488Y-73037058D02*
X124419107Y-73132297D01*
X124419107Y-73132297D02*
X124514345Y-73179916D01*
X124514345Y-73179916D02*
X124609583Y-73179916D01*
X125704822Y-73179916D02*
X125704822Y-72179916D01*
X125704822Y-72560868D02*
X125800060Y-72513249D01*
X125800060Y-72513249D02*
X125990536Y-72513249D01*
X125990536Y-72513249D02*
X126085774Y-72560868D01*
X126085774Y-72560868D02*
X126133393Y-72608487D01*
X126133393Y-72608487D02*
X126181012Y-72703725D01*
X126181012Y-72703725D02*
X126181012Y-72989439D01*
X126181012Y-72989439D02*
X126133393Y-73084677D01*
X126133393Y-73084677D02*
X126085774Y-73132297D01*
X126085774Y-73132297D02*
X125990536Y-73179916D01*
X125990536Y-73179916D02*
X125800060Y-73179916D01*
X125800060Y-73179916D02*
X125704822Y-73132297D01*
X127038155Y-72513249D02*
X127038155Y-73179916D01*
X126609584Y-72513249D02*
X126609584Y-73037058D01*
X126609584Y-73037058D02*
X126657203Y-73132297D01*
X126657203Y-73132297D02*
X126752441Y-73179916D01*
X126752441Y-73179916D02*
X126895298Y-73179916D01*
X126895298Y-73179916D02*
X126990536Y-73132297D01*
X126990536Y-73132297D02*
X127038155Y-73084677D01*
X127371489Y-72513249D02*
X127752441Y-72513249D01*
X127514346Y-72179916D02*
X127514346Y-73037058D01*
X127514346Y-73037058D02*
X127561965Y-73132297D01*
X127561965Y-73132297D02*
X127657203Y-73179916D01*
X127657203Y-73179916D02*
X127752441Y-73179916D01*
X127942918Y-72513249D02*
X128323870Y-72513249D01*
X128085775Y-72179916D02*
X128085775Y-73037058D01*
X128085775Y-73037058D02*
X128133394Y-73132297D01*
X128133394Y-73132297D02*
X128228632Y-73179916D01*
X128228632Y-73179916D02*
X128323870Y-73179916D01*
X128800061Y-73179916D02*
X128704823Y-73132297D01*
X128704823Y-73132297D02*
X128657204Y-73084677D01*
X128657204Y-73084677D02*
X128609585Y-72989439D01*
X128609585Y-72989439D02*
X128609585Y-72703725D01*
X128609585Y-72703725D02*
X128657204Y-72608487D01*
X128657204Y-72608487D02*
X128704823Y-72560868D01*
X128704823Y-72560868D02*
X128800061Y-72513249D01*
X128800061Y-72513249D02*
X128942918Y-72513249D01*
X128942918Y-72513249D02*
X129038156Y-72560868D01*
X129038156Y-72560868D02*
X129085775Y-72608487D01*
X129085775Y-72608487D02*
X129133394Y-72703725D01*
X129133394Y-72703725D02*
X129133394Y-72989439D01*
X129133394Y-72989439D02*
X129085775Y-73084677D01*
X129085775Y-73084677D02*
X129038156Y-73132297D01*
X129038156Y-73132297D02*
X128942918Y-73179916D01*
X128942918Y-73179916D02*
X128800061Y-73179916D01*
X129561966Y-72513249D02*
X129561966Y-73179916D01*
X129561966Y-72608487D02*
X129609585Y-72560868D01*
X129609585Y-72560868D02*
X129704823Y-72513249D01*
X129704823Y-72513249D02*
X129847680Y-72513249D01*
X129847680Y-72513249D02*
X129942918Y-72560868D01*
X129942918Y-72560868D02*
X129990537Y-72656106D01*
X129990537Y-72656106D02*
X129990537Y-73179916D01*
X130419109Y-73132297D02*
X130514347Y-73179916D01*
X130514347Y-73179916D02*
X130704823Y-73179916D01*
X130704823Y-73179916D02*
X130800061Y-73132297D01*
X130800061Y-73132297D02*
X130847680Y-73037058D01*
X130847680Y-73037058D02*
X130847680Y-72989439D01*
X130847680Y-72989439D02*
X130800061Y-72894201D01*
X130800061Y-72894201D02*
X130704823Y-72846582D01*
X130704823Y-72846582D02*
X130561966Y-72846582D01*
X130561966Y-72846582D02*
X130466728Y-72798963D01*
X130466728Y-72798963D02*
X130419109Y-72703725D01*
X130419109Y-72703725D02*
X130419109Y-72656106D01*
X130419109Y-72656106D02*
X130466728Y-72560868D01*
X130466728Y-72560868D02*
X130561966Y-72513249D01*
X130561966Y-72513249D02*
X130704823Y-72513249D01*
X130704823Y-72513249D02*
X130800061Y-72560868D01*
X131276252Y-73084677D02*
X131323871Y-73132297D01*
X131323871Y-73132297D02*
X131276252Y-73179916D01*
X131276252Y-73179916D02*
X131228633Y-73132297D01*
X131228633Y-73132297D02*
X131276252Y-73084677D01*
X131276252Y-73084677D02*
X131276252Y-73179916D01*
X131276252Y-72560868D02*
X131323871Y-72608487D01*
X131323871Y-72608487D02*
X131276252Y-72656106D01*
X131276252Y-72656106D02*
X131228633Y-72608487D01*
X131228633Y-72608487D02*
X131276252Y-72560868D01*
X131276252Y-72560868D02*
X131276252Y-72656106D01*
X110514344Y-74742241D02*
X110657201Y-74789860D01*
X110657201Y-74789860D02*
X110895296Y-74789860D01*
X110895296Y-74789860D02*
X110990534Y-74742241D01*
X110990534Y-74742241D02*
X111038153Y-74694621D01*
X111038153Y-74694621D02*
X111085772Y-74599383D01*
X111085772Y-74599383D02*
X111085772Y-74504145D01*
X111085772Y-74504145D02*
X111038153Y-74408907D01*
X111038153Y-74408907D02*
X110990534Y-74361288D01*
X110990534Y-74361288D02*
X110895296Y-74313669D01*
X110895296Y-74313669D02*
X110704820Y-74266050D01*
X110704820Y-74266050D02*
X110609582Y-74218431D01*
X110609582Y-74218431D02*
X110561963Y-74170812D01*
X110561963Y-74170812D02*
X110514344Y-74075574D01*
X110514344Y-74075574D02*
X110514344Y-73980336D01*
X110514344Y-73980336D02*
X110561963Y-73885098D01*
X110561963Y-73885098D02*
X110609582Y-73837479D01*
X110609582Y-73837479D02*
X110704820Y-73789860D01*
X110704820Y-73789860D02*
X110942915Y-73789860D01*
X110942915Y-73789860D02*
X111085772Y-73837479D01*
X111514344Y-74789860D02*
X111514344Y-73789860D01*
X112085772Y-74789860D02*
X111657201Y-74218431D01*
X112085772Y-73789860D02*
X111514344Y-74361288D01*
X113085772Y-74789860D02*
X112752439Y-74313669D01*
X112514344Y-74789860D02*
X112514344Y-73789860D01*
X112514344Y-73789860D02*
X112895296Y-73789860D01*
X112895296Y-73789860D02*
X112990534Y-73837479D01*
X112990534Y-73837479D02*
X113038153Y-73885098D01*
X113038153Y-73885098D02*
X113085772Y-73980336D01*
X113085772Y-73980336D02*
X113085772Y-74123193D01*
X113085772Y-74123193D02*
X113038153Y-74218431D01*
X113038153Y-74218431D02*
X112990534Y-74266050D01*
X112990534Y-74266050D02*
X112895296Y-74313669D01*
X112895296Y-74313669D02*
X112514344Y-74313669D01*
X114085772Y-74789860D02*
X113752439Y-74313669D01*
X113514344Y-74789860D02*
X113514344Y-73789860D01*
X113514344Y-73789860D02*
X113895296Y-73789860D01*
X113895296Y-73789860D02*
X113990534Y-73837479D01*
X113990534Y-73837479D02*
X114038153Y-73885098D01*
X114038153Y-73885098D02*
X114085772Y-73980336D01*
X114085772Y-73980336D02*
X114085772Y-74123193D01*
X114085772Y-74123193D02*
X114038153Y-74218431D01*
X114038153Y-74218431D02*
X113990534Y-74266050D01*
X113990534Y-74266050D02*
X113895296Y-74313669D01*
X113895296Y-74313669D02*
X113514344Y-74313669D01*
X114466725Y-74504145D02*
X114942915Y-74504145D01*
X114371487Y-74789860D02*
X114704820Y-73789860D01*
X114704820Y-73789860D02*
X115038153Y-74789860D01*
X115704820Y-74266050D02*
X115847677Y-74313669D01*
X115847677Y-74313669D02*
X115895296Y-74361288D01*
X115895296Y-74361288D02*
X115942915Y-74456526D01*
X115942915Y-74456526D02*
X115942915Y-74599383D01*
X115942915Y-74599383D02*
X115895296Y-74694621D01*
X115895296Y-74694621D02*
X115847677Y-74742241D01*
X115847677Y-74742241D02*
X115752439Y-74789860D01*
X115752439Y-74789860D02*
X115371487Y-74789860D01*
X115371487Y-74789860D02*
X115371487Y-73789860D01*
X115371487Y-73789860D02*
X115704820Y-73789860D01*
X115704820Y-73789860D02*
X115800058Y-73837479D01*
X115800058Y-73837479D02*
X115847677Y-73885098D01*
X115847677Y-73885098D02*
X115895296Y-73980336D01*
X115895296Y-73980336D02*
X115895296Y-74075574D01*
X115895296Y-74075574D02*
X115847677Y-74170812D01*
X115847677Y-74170812D02*
X115800058Y-74218431D01*
X115800058Y-74218431D02*
X115704820Y-74266050D01*
X115704820Y-74266050D02*
X115371487Y-74266050D01*
X116371487Y-74266050D02*
X116704820Y-74266050D01*
X116847677Y-74789860D02*
X116371487Y-74789860D01*
X116371487Y-74789860D02*
X116371487Y-73789860D01*
X116371487Y-73789860D02*
X116847677Y-73789860D01*
X117466725Y-73789860D02*
X117561963Y-73789860D01*
X117561963Y-73789860D02*
X117657201Y-73837479D01*
X117657201Y-73837479D02*
X117704820Y-73885098D01*
X117704820Y-73885098D02*
X117752439Y-73980336D01*
X117752439Y-73980336D02*
X117800058Y-74170812D01*
X117800058Y-74170812D02*
X117800058Y-74408907D01*
X117800058Y-74408907D02*
X117752439Y-74599383D01*
X117752439Y-74599383D02*
X117704820Y-74694621D01*
X117704820Y-74694621D02*
X117657201Y-74742241D01*
X117657201Y-74742241D02*
X117561963Y-74789860D01*
X117561963Y-74789860D02*
X117466725Y-74789860D01*
X117466725Y-74789860D02*
X117371487Y-74742241D01*
X117371487Y-74742241D02*
X117323868Y-74694621D01*
X117323868Y-74694621D02*
X117276249Y-74599383D01*
X117276249Y-74599383D02*
X117228630Y-74408907D01*
X117228630Y-74408907D02*
X117228630Y-74170812D01*
X117228630Y-74170812D02*
X117276249Y-73980336D01*
X117276249Y-73980336D02*
X117323868Y-73885098D01*
X117323868Y-73885098D02*
X117371487Y-73837479D01*
X117371487Y-73837479D02*
X117466725Y-73789860D01*
X118752439Y-74789860D02*
X118181011Y-74789860D01*
X118466725Y-74789860D02*
X118466725Y-73789860D01*
X118466725Y-73789860D02*
X118371487Y-73932717D01*
X118371487Y-73932717D02*
X118276249Y-74027955D01*
X118276249Y-74027955D02*
X118181011Y-74075574D01*
X119371487Y-73789860D02*
X119466725Y-73789860D01*
X119466725Y-73789860D02*
X119561963Y-73837479D01*
X119561963Y-73837479D02*
X119609582Y-73885098D01*
X119609582Y-73885098D02*
X119657201Y-73980336D01*
X119657201Y-73980336D02*
X119704820Y-74170812D01*
X119704820Y-74170812D02*
X119704820Y-74408907D01*
X119704820Y-74408907D02*
X119657201Y-74599383D01*
X119657201Y-74599383D02*
X119609582Y-74694621D01*
X119609582Y-74694621D02*
X119561963Y-74742241D01*
X119561963Y-74742241D02*
X119466725Y-74789860D01*
X119466725Y-74789860D02*
X119371487Y-74789860D01*
X119371487Y-74789860D02*
X119276249Y-74742241D01*
X119276249Y-74742241D02*
X119228630Y-74694621D01*
X119228630Y-74694621D02*
X119181011Y-74599383D01*
X119181011Y-74599383D02*
X119133392Y-74408907D01*
X119133392Y-74408907D02*
X119133392Y-74170812D01*
X119133392Y-74170812D02*
X119181011Y-73980336D01*
X119181011Y-73980336D02*
X119228630Y-73885098D01*
X119228630Y-73885098D02*
X119276249Y-73837479D01*
X119276249Y-73837479D02*
X119371487Y-73789860D01*
X120895297Y-74408907D02*
X121657202Y-74408907D01*
X123371487Y-74789860D02*
X122895297Y-74789860D01*
X122895297Y-74789860D02*
X122895297Y-73789860D01*
X124085773Y-74742241D02*
X123990535Y-74789860D01*
X123990535Y-74789860D02*
X123800059Y-74789860D01*
X123800059Y-74789860D02*
X123704821Y-74742241D01*
X123704821Y-74742241D02*
X123657202Y-74647002D01*
X123657202Y-74647002D02*
X123657202Y-74266050D01*
X123657202Y-74266050D02*
X123704821Y-74170812D01*
X123704821Y-74170812D02*
X123800059Y-74123193D01*
X123800059Y-74123193D02*
X123990535Y-74123193D01*
X123990535Y-74123193D02*
X124085773Y-74170812D01*
X124085773Y-74170812D02*
X124133392Y-74266050D01*
X124133392Y-74266050D02*
X124133392Y-74361288D01*
X124133392Y-74361288D02*
X123657202Y-74456526D01*
X124419107Y-74123193D02*
X124800059Y-74123193D01*
X124561964Y-74789860D02*
X124561964Y-73932717D01*
X124561964Y-73932717D02*
X124609583Y-73837479D01*
X124609583Y-73837479D02*
X124704821Y-73789860D01*
X124704821Y-73789860D02*
X124800059Y-73789860D01*
X124990536Y-74123193D02*
X125371488Y-74123193D01*
X125133393Y-73789860D02*
X125133393Y-74647002D01*
X125133393Y-74647002D02*
X125181012Y-74742241D01*
X125181012Y-74742241D02*
X125276250Y-74789860D01*
X125276250Y-74789860D02*
X125371488Y-74789860D01*
X127276251Y-74789860D02*
X127228632Y-74789860D01*
X127228632Y-74789860D02*
X127133393Y-74742241D01*
X127133393Y-74742241D02*
X126990536Y-74599383D01*
X126990536Y-74599383D02*
X126752441Y-74313669D01*
X126752441Y-74313669D02*
X126657203Y-74170812D01*
X126657203Y-74170812D02*
X126609584Y-74027955D01*
X126609584Y-74027955D02*
X126609584Y-73932717D01*
X126609584Y-73932717D02*
X126657203Y-73837479D01*
X126657203Y-73837479D02*
X126752441Y-73789860D01*
X126752441Y-73789860D02*
X126800060Y-73789860D01*
X126800060Y-73789860D02*
X126895298Y-73837479D01*
X126895298Y-73837479D02*
X126942917Y-73932717D01*
X126942917Y-73932717D02*
X126942917Y-73980336D01*
X126942917Y-73980336D02*
X126895298Y-74075574D01*
X126895298Y-74075574D02*
X126847679Y-74123193D01*
X126847679Y-74123193D02*
X126561965Y-74313669D01*
X126561965Y-74313669D02*
X126514346Y-74361288D01*
X126514346Y-74361288D02*
X126466727Y-74456526D01*
X126466727Y-74456526D02*
X126466727Y-74599383D01*
X126466727Y-74599383D02*
X126514346Y-74694621D01*
X126514346Y-74694621D02*
X126561965Y-74742241D01*
X126561965Y-74742241D02*
X126657203Y-74789860D01*
X126657203Y-74789860D02*
X126800060Y-74789860D01*
X126800060Y-74789860D02*
X126895298Y-74742241D01*
X126895298Y-74742241D02*
X126942917Y-74694621D01*
X126942917Y-74694621D02*
X127085774Y-74504145D01*
X127085774Y-74504145D02*
X127133393Y-74361288D01*
X127133393Y-74361288D02*
X127133393Y-74266050D01*
X129038155Y-74789860D02*
X128704822Y-74313669D01*
X128466727Y-74789860D02*
X128466727Y-73789860D01*
X128466727Y-73789860D02*
X128847679Y-73789860D01*
X128847679Y-73789860D02*
X128942917Y-73837479D01*
X128942917Y-73837479D02*
X128990536Y-73885098D01*
X128990536Y-73885098D02*
X129038155Y-73980336D01*
X129038155Y-73980336D02*
X129038155Y-74123193D01*
X129038155Y-74123193D02*
X128990536Y-74218431D01*
X128990536Y-74218431D02*
X128942917Y-74266050D01*
X128942917Y-74266050D02*
X128847679Y-74313669D01*
X128847679Y-74313669D02*
X128466727Y-74313669D01*
X129466727Y-74789860D02*
X129466727Y-74123193D01*
X129466727Y-73789860D02*
X129419108Y-73837479D01*
X129419108Y-73837479D02*
X129466727Y-73885098D01*
X129466727Y-73885098D02*
X129514346Y-73837479D01*
X129514346Y-73837479D02*
X129466727Y-73789860D01*
X129466727Y-73789860D02*
X129466727Y-73885098D01*
X130371488Y-74123193D02*
X130371488Y-74932717D01*
X130371488Y-74932717D02*
X130323869Y-75027955D01*
X130323869Y-75027955D02*
X130276250Y-75075574D01*
X130276250Y-75075574D02*
X130181012Y-75123193D01*
X130181012Y-75123193D02*
X130038155Y-75123193D01*
X130038155Y-75123193D02*
X129942917Y-75075574D01*
X130371488Y-74742241D02*
X130276250Y-74789860D01*
X130276250Y-74789860D02*
X130085774Y-74789860D01*
X130085774Y-74789860D02*
X129990536Y-74742241D01*
X129990536Y-74742241D02*
X129942917Y-74694621D01*
X129942917Y-74694621D02*
X129895298Y-74599383D01*
X129895298Y-74599383D02*
X129895298Y-74313669D01*
X129895298Y-74313669D02*
X129942917Y-74218431D01*
X129942917Y-74218431D02*
X129990536Y-74170812D01*
X129990536Y-74170812D02*
X130085774Y-74123193D01*
X130085774Y-74123193D02*
X130276250Y-74123193D01*
X130276250Y-74123193D02*
X130371488Y-74170812D01*
X130847679Y-74789860D02*
X130847679Y-73789860D01*
X131276250Y-74789860D02*
X131276250Y-74266050D01*
X131276250Y-74266050D02*
X131228631Y-74170812D01*
X131228631Y-74170812D02*
X131133393Y-74123193D01*
X131133393Y-74123193D02*
X130990536Y-74123193D01*
X130990536Y-74123193D02*
X130895298Y-74170812D01*
X130895298Y-74170812D02*
X130847679Y-74218431D01*
X131609584Y-74123193D02*
X131990536Y-74123193D01*
X131752441Y-73789860D02*
X131752441Y-74647002D01*
X131752441Y-74647002D02*
X131800060Y-74742241D01*
X131800060Y-74742241D02*
X131895298Y-74789860D01*
X131895298Y-74789860D02*
X131990536Y-74789860D01*
X110514344Y-76352185D02*
X110657201Y-76399804D01*
X110657201Y-76399804D02*
X110895296Y-76399804D01*
X110895296Y-76399804D02*
X110990534Y-76352185D01*
X110990534Y-76352185D02*
X111038153Y-76304565D01*
X111038153Y-76304565D02*
X111085772Y-76209327D01*
X111085772Y-76209327D02*
X111085772Y-76114089D01*
X111085772Y-76114089D02*
X111038153Y-76018851D01*
X111038153Y-76018851D02*
X110990534Y-75971232D01*
X110990534Y-75971232D02*
X110895296Y-75923613D01*
X110895296Y-75923613D02*
X110704820Y-75875994D01*
X110704820Y-75875994D02*
X110609582Y-75828375D01*
X110609582Y-75828375D02*
X110561963Y-75780756D01*
X110561963Y-75780756D02*
X110514344Y-75685518D01*
X110514344Y-75685518D02*
X110514344Y-75590280D01*
X110514344Y-75590280D02*
X110561963Y-75495042D01*
X110561963Y-75495042D02*
X110609582Y-75447423D01*
X110609582Y-75447423D02*
X110704820Y-75399804D01*
X110704820Y-75399804D02*
X110942915Y-75399804D01*
X110942915Y-75399804D02*
X111085772Y-75447423D01*
X111514344Y-76399804D02*
X111514344Y-75399804D01*
X112085772Y-76399804D02*
X111657201Y-75828375D01*
X112085772Y-75399804D02*
X111514344Y-75971232D01*
X113085772Y-76399804D02*
X112752439Y-75923613D01*
X112514344Y-76399804D02*
X112514344Y-75399804D01*
X112514344Y-75399804D02*
X112895296Y-75399804D01*
X112895296Y-75399804D02*
X112990534Y-75447423D01*
X112990534Y-75447423D02*
X113038153Y-75495042D01*
X113038153Y-75495042D02*
X113085772Y-75590280D01*
X113085772Y-75590280D02*
X113085772Y-75733137D01*
X113085772Y-75733137D02*
X113038153Y-75828375D01*
X113038153Y-75828375D02*
X112990534Y-75875994D01*
X112990534Y-75875994D02*
X112895296Y-75923613D01*
X112895296Y-75923613D02*
X112514344Y-75923613D01*
X113847677Y-75875994D02*
X113990534Y-75923613D01*
X113990534Y-75923613D02*
X114038153Y-75971232D01*
X114038153Y-75971232D02*
X114085772Y-76066470D01*
X114085772Y-76066470D02*
X114085772Y-76209327D01*
X114085772Y-76209327D02*
X114038153Y-76304565D01*
X114038153Y-76304565D02*
X113990534Y-76352185D01*
X113990534Y-76352185D02*
X113895296Y-76399804D01*
X113895296Y-76399804D02*
X113514344Y-76399804D01*
X113514344Y-76399804D02*
X113514344Y-75399804D01*
X113514344Y-75399804D02*
X113847677Y-75399804D01*
X113847677Y-75399804D02*
X113942915Y-75447423D01*
X113942915Y-75447423D02*
X113990534Y-75495042D01*
X113990534Y-75495042D02*
X114038153Y-75590280D01*
X114038153Y-75590280D02*
X114038153Y-75685518D01*
X114038153Y-75685518D02*
X113990534Y-75780756D01*
X113990534Y-75780756D02*
X113942915Y-75828375D01*
X113942915Y-75828375D02*
X113847677Y-75875994D01*
X113847677Y-75875994D02*
X113514344Y-75875994D01*
X114466725Y-76114089D02*
X114942915Y-76114089D01*
X114371487Y-76399804D02*
X114704820Y-75399804D01*
X114704820Y-75399804D02*
X115038153Y-76399804D01*
X115323868Y-76114089D02*
X115800058Y-76114089D01*
X115228630Y-76399804D02*
X115561963Y-75399804D01*
X115561963Y-75399804D02*
X115895296Y-76399804D01*
X116228630Y-75875994D02*
X116561963Y-75875994D01*
X116704820Y-76399804D02*
X116228630Y-76399804D01*
X116228630Y-76399804D02*
X116228630Y-75399804D01*
X116228630Y-75399804D02*
X116704820Y-75399804D01*
X117323868Y-75399804D02*
X117419106Y-75399804D01*
X117419106Y-75399804D02*
X117514344Y-75447423D01*
X117514344Y-75447423D02*
X117561963Y-75495042D01*
X117561963Y-75495042D02*
X117609582Y-75590280D01*
X117609582Y-75590280D02*
X117657201Y-75780756D01*
X117657201Y-75780756D02*
X117657201Y-76018851D01*
X117657201Y-76018851D02*
X117609582Y-76209327D01*
X117609582Y-76209327D02*
X117561963Y-76304565D01*
X117561963Y-76304565D02*
X117514344Y-76352185D01*
X117514344Y-76352185D02*
X117419106Y-76399804D01*
X117419106Y-76399804D02*
X117323868Y-76399804D01*
X117323868Y-76399804D02*
X117228630Y-76352185D01*
X117228630Y-76352185D02*
X117181011Y-76304565D01*
X117181011Y-76304565D02*
X117133392Y-76209327D01*
X117133392Y-76209327D02*
X117085773Y-76018851D01*
X117085773Y-76018851D02*
X117085773Y-75780756D01*
X117085773Y-75780756D02*
X117133392Y-75590280D01*
X117133392Y-75590280D02*
X117181011Y-75495042D01*
X117181011Y-75495042D02*
X117228630Y-75447423D01*
X117228630Y-75447423D02*
X117323868Y-75399804D01*
X118609582Y-76399804D02*
X118038154Y-76399804D01*
X118323868Y-76399804D02*
X118323868Y-75399804D01*
X118323868Y-75399804D02*
X118228630Y-75542661D01*
X118228630Y-75542661D02*
X118133392Y-75637899D01*
X118133392Y-75637899D02*
X118038154Y-75685518D01*
X119228630Y-75399804D02*
X119323868Y-75399804D01*
X119323868Y-75399804D02*
X119419106Y-75447423D01*
X119419106Y-75447423D02*
X119466725Y-75495042D01*
X119466725Y-75495042D02*
X119514344Y-75590280D01*
X119514344Y-75590280D02*
X119561963Y-75780756D01*
X119561963Y-75780756D02*
X119561963Y-76018851D01*
X119561963Y-76018851D02*
X119514344Y-76209327D01*
X119514344Y-76209327D02*
X119466725Y-76304565D01*
X119466725Y-76304565D02*
X119419106Y-76352185D01*
X119419106Y-76352185D02*
X119323868Y-76399804D01*
X119323868Y-76399804D02*
X119228630Y-76399804D01*
X119228630Y-76399804D02*
X119133392Y-76352185D01*
X119133392Y-76352185D02*
X119085773Y-76304565D01*
X119085773Y-76304565D02*
X119038154Y-76209327D01*
X119038154Y-76209327D02*
X118990535Y-76018851D01*
X118990535Y-76018851D02*
X118990535Y-75780756D01*
X118990535Y-75780756D02*
X119038154Y-75590280D01*
X119038154Y-75590280D02*
X119085773Y-75495042D01*
X119085773Y-75495042D02*
X119133392Y-75447423D01*
X119133392Y-75447423D02*
X119228630Y-75399804D01*
X120752440Y-76018851D02*
X121514345Y-76018851D01*
X123323868Y-76304565D02*
X123276249Y-76352185D01*
X123276249Y-76352185D02*
X123133392Y-76399804D01*
X123133392Y-76399804D02*
X123038154Y-76399804D01*
X123038154Y-76399804D02*
X122895297Y-76352185D01*
X122895297Y-76352185D02*
X122800059Y-76256946D01*
X122800059Y-76256946D02*
X122752440Y-76161708D01*
X122752440Y-76161708D02*
X122704821Y-75971232D01*
X122704821Y-75971232D02*
X122704821Y-75828375D01*
X122704821Y-75828375D02*
X122752440Y-75637899D01*
X122752440Y-75637899D02*
X122800059Y-75542661D01*
X122800059Y-75542661D02*
X122895297Y-75447423D01*
X122895297Y-75447423D02*
X123038154Y-75399804D01*
X123038154Y-75399804D02*
X123133392Y-75399804D01*
X123133392Y-75399804D02*
X123276249Y-75447423D01*
X123276249Y-75447423D02*
X123323868Y-75495042D01*
X124133392Y-76352185D02*
X124038154Y-76399804D01*
X124038154Y-76399804D02*
X123847678Y-76399804D01*
X123847678Y-76399804D02*
X123752440Y-76352185D01*
X123752440Y-76352185D02*
X123704821Y-76256946D01*
X123704821Y-76256946D02*
X123704821Y-75875994D01*
X123704821Y-75875994D02*
X123752440Y-75780756D01*
X123752440Y-75780756D02*
X123847678Y-75733137D01*
X123847678Y-75733137D02*
X124038154Y-75733137D01*
X124038154Y-75733137D02*
X124133392Y-75780756D01*
X124133392Y-75780756D02*
X124181011Y-75875994D01*
X124181011Y-75875994D02*
X124181011Y-75971232D01*
X124181011Y-75971232D02*
X123704821Y-76066470D01*
X124609583Y-75733137D02*
X124609583Y-76399804D01*
X124609583Y-75828375D02*
X124657202Y-75780756D01*
X124657202Y-75780756D02*
X124752440Y-75733137D01*
X124752440Y-75733137D02*
X124895297Y-75733137D01*
X124895297Y-75733137D02*
X124990535Y-75780756D01*
X124990535Y-75780756D02*
X125038154Y-75875994D01*
X125038154Y-75875994D02*
X125038154Y-76399804D01*
X125371488Y-75733137D02*
X125752440Y-75733137D01*
X125514345Y-75399804D02*
X125514345Y-76256946D01*
X125514345Y-76256946D02*
X125561964Y-76352185D01*
X125561964Y-76352185D02*
X125657202Y-76399804D01*
X125657202Y-76399804D02*
X125752440Y-76399804D01*
X126466726Y-76352185D02*
X126371488Y-76399804D01*
X126371488Y-76399804D02*
X126181012Y-76399804D01*
X126181012Y-76399804D02*
X126085774Y-76352185D01*
X126085774Y-76352185D02*
X126038155Y-76256946D01*
X126038155Y-76256946D02*
X126038155Y-75875994D01*
X126038155Y-75875994D02*
X126085774Y-75780756D01*
X126085774Y-75780756D02*
X126181012Y-75733137D01*
X126181012Y-75733137D02*
X126371488Y-75733137D01*
X126371488Y-75733137D02*
X126466726Y-75780756D01*
X126466726Y-75780756D02*
X126514345Y-75875994D01*
X126514345Y-75875994D02*
X126514345Y-75971232D01*
X126514345Y-75971232D02*
X126038155Y-76066470D01*
X126942917Y-76399804D02*
X126942917Y-75733137D01*
X126942917Y-75923613D02*
X126990536Y-75828375D01*
X126990536Y-75828375D02*
X127038155Y-75780756D01*
X127038155Y-75780756D02*
X127133393Y-75733137D01*
X127133393Y-75733137D02*
X127228631Y-75733137D01*
X110561963Y-79619692D02*
X110561963Y-78619692D01*
X110990534Y-79619692D02*
X110990534Y-79095882D01*
X110990534Y-79095882D02*
X110942915Y-79000644D01*
X110942915Y-79000644D02*
X110847677Y-78953025D01*
X110847677Y-78953025D02*
X110704820Y-78953025D01*
X110704820Y-78953025D02*
X110609582Y-79000644D01*
X110609582Y-79000644D02*
X110561963Y-79048263D01*
X111323868Y-78953025D02*
X111704820Y-78953025D01*
X111466725Y-78619692D02*
X111466725Y-79476834D01*
X111466725Y-79476834D02*
X111514344Y-79572073D01*
X111514344Y-79572073D02*
X111609582Y-79619692D01*
X111609582Y-79619692D02*
X111704820Y-79619692D01*
X111895297Y-78953025D02*
X112276249Y-78953025D01*
X112038154Y-78619692D02*
X112038154Y-79476834D01*
X112038154Y-79476834D02*
X112085773Y-79572073D01*
X112085773Y-79572073D02*
X112181011Y-79619692D01*
X112181011Y-79619692D02*
X112276249Y-79619692D01*
X112609583Y-78953025D02*
X112609583Y-79953025D01*
X112609583Y-79000644D02*
X112704821Y-78953025D01*
X112704821Y-78953025D02*
X112895297Y-78953025D01*
X112895297Y-78953025D02*
X112990535Y-79000644D01*
X112990535Y-79000644D02*
X113038154Y-79048263D01*
X113038154Y-79048263D02*
X113085773Y-79143501D01*
X113085773Y-79143501D02*
X113085773Y-79429215D01*
X113085773Y-79429215D02*
X113038154Y-79524453D01*
X113038154Y-79524453D02*
X112990535Y-79572073D01*
X112990535Y-79572073D02*
X112895297Y-79619692D01*
X112895297Y-79619692D02*
X112704821Y-79619692D01*
X112704821Y-79619692D02*
X112609583Y-79572073D01*
X113466726Y-79572073D02*
X113561964Y-79619692D01*
X113561964Y-79619692D02*
X113752440Y-79619692D01*
X113752440Y-79619692D02*
X113847678Y-79572073D01*
X113847678Y-79572073D02*
X113895297Y-79476834D01*
X113895297Y-79476834D02*
X113895297Y-79429215D01*
X113895297Y-79429215D02*
X113847678Y-79333977D01*
X113847678Y-79333977D02*
X113752440Y-79286358D01*
X113752440Y-79286358D02*
X113609583Y-79286358D01*
X113609583Y-79286358D02*
X113514345Y-79238739D01*
X113514345Y-79238739D02*
X113466726Y-79143501D01*
X113466726Y-79143501D02*
X113466726Y-79095882D01*
X113466726Y-79095882D02*
X113514345Y-79000644D01*
X113514345Y-79000644D02*
X113609583Y-78953025D01*
X113609583Y-78953025D02*
X113752440Y-78953025D01*
X113752440Y-78953025D02*
X113847678Y-79000644D01*
X114323869Y-79524453D02*
X114371488Y-79572073D01*
X114371488Y-79572073D02*
X114323869Y-79619692D01*
X114323869Y-79619692D02*
X114276250Y-79572073D01*
X114276250Y-79572073D02*
X114323869Y-79524453D01*
X114323869Y-79524453D02*
X114323869Y-79619692D01*
X114323869Y-79000644D02*
X114371488Y-79048263D01*
X114371488Y-79048263D02*
X114323869Y-79095882D01*
X114323869Y-79095882D02*
X114276250Y-79048263D01*
X114276250Y-79048263D02*
X114323869Y-79000644D01*
X114323869Y-79000644D02*
X114323869Y-79095882D01*
X115514344Y-78572073D02*
X114657202Y-79857787D01*
X116561963Y-78572073D02*
X115704821Y-79857787D01*
X116847678Y-79572073D02*
X116942916Y-79619692D01*
X116942916Y-79619692D02*
X117133392Y-79619692D01*
X117133392Y-79619692D02*
X117228630Y-79572073D01*
X117228630Y-79572073D02*
X117276249Y-79476834D01*
X117276249Y-79476834D02*
X117276249Y-79429215D01*
X117276249Y-79429215D02*
X117228630Y-79333977D01*
X117228630Y-79333977D02*
X117133392Y-79286358D01*
X117133392Y-79286358D02*
X116990535Y-79286358D01*
X116990535Y-79286358D02*
X116895297Y-79238739D01*
X116895297Y-79238739D02*
X116847678Y-79143501D01*
X116847678Y-79143501D02*
X116847678Y-79095882D01*
X116847678Y-79095882D02*
X116895297Y-79000644D01*
X116895297Y-79000644D02*
X116990535Y-78953025D01*
X116990535Y-78953025D02*
X117133392Y-78953025D01*
X117133392Y-78953025D02*
X117228630Y-79000644D01*
X117561964Y-78953025D02*
X117942916Y-78953025D01*
X117704821Y-78619692D02*
X117704821Y-79476834D01*
X117704821Y-79476834D02*
X117752440Y-79572073D01*
X117752440Y-79572073D02*
X117847678Y-79619692D01*
X117847678Y-79619692D02*
X117942916Y-79619692D01*
X118657202Y-79572073D02*
X118561964Y-79619692D01*
X118561964Y-79619692D02*
X118371488Y-79619692D01*
X118371488Y-79619692D02*
X118276250Y-79572073D01*
X118276250Y-79572073D02*
X118228631Y-79476834D01*
X118228631Y-79476834D02*
X118228631Y-79095882D01*
X118228631Y-79095882D02*
X118276250Y-79000644D01*
X118276250Y-79000644D02*
X118371488Y-78953025D01*
X118371488Y-78953025D02*
X118561964Y-78953025D01*
X118561964Y-78953025D02*
X118657202Y-79000644D01*
X118657202Y-79000644D02*
X118704821Y-79095882D01*
X118704821Y-79095882D02*
X118704821Y-79191120D01*
X118704821Y-79191120D02*
X118228631Y-79286358D01*
X119085774Y-78714930D02*
X119133393Y-78667311D01*
X119133393Y-78667311D02*
X119228631Y-78619692D01*
X119228631Y-78619692D02*
X119466726Y-78619692D01*
X119466726Y-78619692D02*
X119561964Y-78667311D01*
X119561964Y-78667311D02*
X119609583Y-78714930D01*
X119609583Y-78714930D02*
X119657202Y-78810168D01*
X119657202Y-78810168D02*
X119657202Y-78905406D01*
X119657202Y-78905406D02*
X119609583Y-79048263D01*
X119609583Y-79048263D02*
X119038155Y-79619692D01*
X119038155Y-79619692D02*
X119657202Y-79619692D01*
X120514345Y-78953025D02*
X120514345Y-79619692D01*
X120276250Y-78572073D02*
X120038155Y-79286358D01*
X120038155Y-79286358D02*
X120657202Y-79286358D01*
X120990536Y-78714930D02*
X121038155Y-78667311D01*
X121038155Y-78667311D02*
X121133393Y-78619692D01*
X121133393Y-78619692D02*
X121371488Y-78619692D01*
X121371488Y-78619692D02*
X121466726Y-78667311D01*
X121466726Y-78667311D02*
X121514345Y-78714930D01*
X121514345Y-78714930D02*
X121561964Y-78810168D01*
X121561964Y-78810168D02*
X121561964Y-78905406D01*
X121561964Y-78905406D02*
X121514345Y-79048263D01*
X121514345Y-79048263D02*
X120942917Y-79619692D01*
X120942917Y-79619692D02*
X121561964Y-79619692D01*
X122466726Y-78619692D02*
X121990536Y-78619692D01*
X121990536Y-78619692D02*
X121942917Y-79095882D01*
X121942917Y-79095882D02*
X121990536Y-79048263D01*
X121990536Y-79048263D02*
X122085774Y-79000644D01*
X122085774Y-79000644D02*
X122323869Y-79000644D01*
X122323869Y-79000644D02*
X122419107Y-79048263D01*
X122419107Y-79048263D02*
X122466726Y-79095882D01*
X122466726Y-79095882D02*
X122514345Y-79191120D01*
X122514345Y-79191120D02*
X122514345Y-79429215D01*
X122514345Y-79429215D02*
X122466726Y-79524453D01*
X122466726Y-79524453D02*
X122419107Y-79572073D01*
X122419107Y-79572073D02*
X122323869Y-79619692D01*
X122323869Y-79619692D02*
X122085774Y-79619692D01*
X122085774Y-79619692D02*
X121990536Y-79572073D01*
X121990536Y-79572073D02*
X121942917Y-79524453D01*
X122942917Y-79524453D02*
X122990536Y-79572073D01*
X122990536Y-79572073D02*
X122942917Y-79619692D01*
X122942917Y-79619692D02*
X122895298Y-79572073D01*
X122895298Y-79572073D02*
X122942917Y-79524453D01*
X122942917Y-79524453D02*
X122942917Y-79619692D01*
X123847678Y-78953025D02*
X123847678Y-79762549D01*
X123847678Y-79762549D02*
X123800059Y-79857787D01*
X123800059Y-79857787D02*
X123752440Y-79905406D01*
X123752440Y-79905406D02*
X123657202Y-79953025D01*
X123657202Y-79953025D02*
X123514345Y-79953025D01*
X123514345Y-79953025D02*
X123419107Y-79905406D01*
X123847678Y-79572073D02*
X123752440Y-79619692D01*
X123752440Y-79619692D02*
X123561964Y-79619692D01*
X123561964Y-79619692D02*
X123466726Y-79572073D01*
X123466726Y-79572073D02*
X123419107Y-79524453D01*
X123419107Y-79524453D02*
X123371488Y-79429215D01*
X123371488Y-79429215D02*
X123371488Y-79143501D01*
X123371488Y-79143501D02*
X123419107Y-79048263D01*
X123419107Y-79048263D02*
X123466726Y-79000644D01*
X123466726Y-79000644D02*
X123561964Y-78953025D01*
X123561964Y-78953025D02*
X123752440Y-78953025D01*
X123752440Y-78953025D02*
X123847678Y-79000644D01*
X124323869Y-79619692D02*
X124323869Y-78953025D01*
X124323869Y-78619692D02*
X124276250Y-78667311D01*
X124276250Y-78667311D02*
X124323869Y-78714930D01*
X124323869Y-78714930D02*
X124371488Y-78667311D01*
X124371488Y-78667311D02*
X124323869Y-78619692D01*
X124323869Y-78619692D02*
X124323869Y-78714930D01*
X124657202Y-78953025D02*
X125038154Y-78953025D01*
X124800059Y-78619692D02*
X124800059Y-79476834D01*
X124800059Y-79476834D02*
X124847678Y-79572073D01*
X124847678Y-79572073D02*
X124942916Y-79619692D01*
X124942916Y-79619692D02*
X125038154Y-79619692D01*
X125371488Y-79619692D02*
X125371488Y-78619692D01*
X125800059Y-79619692D02*
X125800059Y-79095882D01*
X125800059Y-79095882D02*
X125752440Y-79000644D01*
X125752440Y-79000644D02*
X125657202Y-78953025D01*
X125657202Y-78953025D02*
X125514345Y-78953025D01*
X125514345Y-78953025D02*
X125419107Y-79000644D01*
X125419107Y-79000644D02*
X125371488Y-79048263D01*
X126704821Y-78953025D02*
X126704821Y-79619692D01*
X126276250Y-78953025D02*
X126276250Y-79476834D01*
X126276250Y-79476834D02*
X126323869Y-79572073D01*
X126323869Y-79572073D02*
X126419107Y-79619692D01*
X126419107Y-79619692D02*
X126561964Y-79619692D01*
X126561964Y-79619692D02*
X126657202Y-79572073D01*
X126657202Y-79572073D02*
X126704821Y-79524453D01*
X127181012Y-79619692D02*
X127181012Y-78619692D01*
X127181012Y-79000644D02*
X127276250Y-78953025D01*
X127276250Y-78953025D02*
X127466726Y-78953025D01*
X127466726Y-78953025D02*
X127561964Y-79000644D01*
X127561964Y-79000644D02*
X127609583Y-79048263D01*
X127609583Y-79048263D02*
X127657202Y-79143501D01*
X127657202Y-79143501D02*
X127657202Y-79429215D01*
X127657202Y-79429215D02*
X127609583Y-79524453D01*
X127609583Y-79524453D02*
X127561964Y-79572073D01*
X127561964Y-79572073D02*
X127466726Y-79619692D01*
X127466726Y-79619692D02*
X127276250Y-79619692D01*
X127276250Y-79619692D02*
X127181012Y-79572073D01*
X128085774Y-79524453D02*
X128133393Y-79572073D01*
X128133393Y-79572073D02*
X128085774Y-79619692D01*
X128085774Y-79619692D02*
X128038155Y-79572073D01*
X128038155Y-79572073D02*
X128085774Y-79524453D01*
X128085774Y-79524453D02*
X128085774Y-79619692D01*
X128561964Y-79619692D02*
X128561964Y-78953025D01*
X128561964Y-78619692D02*
X128514345Y-78667311D01*
X128514345Y-78667311D02*
X128561964Y-78714930D01*
X128561964Y-78714930D02*
X128609583Y-78667311D01*
X128609583Y-78667311D02*
X128561964Y-78619692D01*
X128561964Y-78619692D02*
X128561964Y-78714930D01*
X129181011Y-79619692D02*
X129085773Y-79572073D01*
X129085773Y-79572073D02*
X129038154Y-79524453D01*
X129038154Y-79524453D02*
X128990535Y-79429215D01*
X128990535Y-79429215D02*
X128990535Y-79143501D01*
X128990535Y-79143501D02*
X129038154Y-79048263D01*
X129038154Y-79048263D02*
X129085773Y-79000644D01*
X129085773Y-79000644D02*
X129181011Y-78953025D01*
X129181011Y-78953025D02*
X129323868Y-78953025D01*
X129323868Y-78953025D02*
X129419106Y-79000644D01*
X129419106Y-79000644D02*
X129466725Y-79048263D01*
X129466725Y-79048263D02*
X129514344Y-79143501D01*
X129514344Y-79143501D02*
X129514344Y-79429215D01*
X129514344Y-79429215D02*
X129466725Y-79524453D01*
X129466725Y-79524453D02*
X129419106Y-79572073D01*
X129419106Y-79572073D02*
X129323868Y-79619692D01*
X129323868Y-79619692D02*
X129181011Y-79619692D01*
X130657201Y-78572073D02*
X129800059Y-79857787D01*
X130990535Y-79619692D02*
X130990535Y-78619692D01*
X130990535Y-78619692D02*
X131371487Y-78619692D01*
X131371487Y-78619692D02*
X131466725Y-78667311D01*
X131466725Y-78667311D02*
X131514344Y-78714930D01*
X131514344Y-78714930D02*
X131561963Y-78810168D01*
X131561963Y-78810168D02*
X131561963Y-78953025D01*
X131561963Y-78953025D02*
X131514344Y-79048263D01*
X131514344Y-79048263D02*
X131466725Y-79095882D01*
X131466725Y-79095882D02*
X131371487Y-79143501D01*
X131371487Y-79143501D02*
X130990535Y-79143501D01*
X131942916Y-79572073D02*
X132085773Y-79619692D01*
X132085773Y-79619692D02*
X132323868Y-79619692D01*
X132323868Y-79619692D02*
X132419106Y-79572073D01*
X132419106Y-79572073D02*
X132466725Y-79524453D01*
X132466725Y-79524453D02*
X132514344Y-79429215D01*
X132514344Y-79429215D02*
X132514344Y-79333977D01*
X132514344Y-79333977D02*
X132466725Y-79238739D01*
X132466725Y-79238739D02*
X132419106Y-79191120D01*
X132419106Y-79191120D02*
X132323868Y-79143501D01*
X132323868Y-79143501D02*
X132133392Y-79095882D01*
X132133392Y-79095882D02*
X132038154Y-79048263D01*
X132038154Y-79048263D02*
X131990535Y-79000644D01*
X131990535Y-79000644D02*
X131942916Y-78905406D01*
X131942916Y-78905406D02*
X131942916Y-78810168D01*
X131942916Y-78810168D02*
X131990535Y-78714930D01*
X131990535Y-78714930D02*
X132038154Y-78667311D01*
X132038154Y-78667311D02*
X132133392Y-78619692D01*
X132133392Y-78619692D02*
X132371487Y-78619692D01*
X132371487Y-78619692D02*
X132514344Y-78667311D01*
X132942916Y-79619692D02*
X132942916Y-78619692D01*
X132942916Y-78619692D02*
X133323868Y-78619692D01*
X133323868Y-78619692D02*
X133419106Y-78667311D01*
X133419106Y-78667311D02*
X133466725Y-78714930D01*
X133466725Y-78714930D02*
X133514344Y-78810168D01*
X133514344Y-78810168D02*
X133514344Y-78953025D01*
X133514344Y-78953025D02*
X133466725Y-79048263D01*
X133466725Y-79048263D02*
X133419106Y-79095882D01*
X133419106Y-79095882D02*
X133323868Y-79143501D01*
X133323868Y-79143501D02*
X132942916Y-79143501D01*
X133942916Y-79238739D02*
X134704821Y-79238739D01*
X135514344Y-79095882D02*
X135657201Y-79143501D01*
X135657201Y-79143501D02*
X135704820Y-79191120D01*
X135704820Y-79191120D02*
X135752439Y-79286358D01*
X135752439Y-79286358D02*
X135752439Y-79429215D01*
X135752439Y-79429215D02*
X135704820Y-79524453D01*
X135704820Y-79524453D02*
X135657201Y-79572073D01*
X135657201Y-79572073D02*
X135561963Y-79619692D01*
X135561963Y-79619692D02*
X135181011Y-79619692D01*
X135181011Y-79619692D02*
X135181011Y-78619692D01*
X135181011Y-78619692D02*
X135514344Y-78619692D01*
X135514344Y-78619692D02*
X135609582Y-78667311D01*
X135609582Y-78667311D02*
X135657201Y-78714930D01*
X135657201Y-78714930D02*
X135704820Y-78810168D01*
X135704820Y-78810168D02*
X135704820Y-78905406D01*
X135704820Y-78905406D02*
X135657201Y-79000644D01*
X135657201Y-79000644D02*
X135609582Y-79048263D01*
X135609582Y-79048263D02*
X135514344Y-79095882D01*
X135514344Y-79095882D02*
X135181011Y-79095882D01*
X136323868Y-79619692D02*
X136228630Y-79572073D01*
X136228630Y-79572073D02*
X136181011Y-79476834D01*
X136181011Y-79476834D02*
X136181011Y-78619692D01*
X137133392Y-78953025D02*
X137133392Y-79619692D01*
X136704821Y-78953025D02*
X136704821Y-79476834D01*
X136704821Y-79476834D02*
X136752440Y-79572073D01*
X136752440Y-79572073D02*
X136847678Y-79619692D01*
X136847678Y-79619692D02*
X136990535Y-79619692D01*
X136990535Y-79619692D02*
X137085773Y-79572073D01*
X137085773Y-79572073D02*
X137133392Y-79524453D01*
X137990535Y-79572073D02*
X137895297Y-79619692D01*
X137895297Y-79619692D02*
X137704821Y-79619692D01*
X137704821Y-79619692D02*
X137609583Y-79572073D01*
X137609583Y-79572073D02*
X137561964Y-79476834D01*
X137561964Y-79476834D02*
X137561964Y-79095882D01*
X137561964Y-79095882D02*
X137609583Y-79000644D01*
X137609583Y-79000644D02*
X137704821Y-78953025D01*
X137704821Y-78953025D02*
X137895297Y-78953025D01*
X137895297Y-78953025D02*
X137990535Y-79000644D01*
X137990535Y-79000644D02*
X138038154Y-79095882D01*
X138038154Y-79095882D02*
X138038154Y-79191120D01*
X138038154Y-79191120D02*
X137561964Y-79286358D01*
X138323869Y-78953025D02*
X138704821Y-78953025D01*
X138466726Y-78619692D02*
X138466726Y-79476834D01*
X138466726Y-79476834D02*
X138514345Y-79572073D01*
X138514345Y-79572073D02*
X138609583Y-79619692D01*
X138609583Y-79619692D02*
X138704821Y-79619692D01*
X139181012Y-79619692D02*
X139085774Y-79572073D01*
X139085774Y-79572073D02*
X139038155Y-79524453D01*
X139038155Y-79524453D02*
X138990536Y-79429215D01*
X138990536Y-79429215D02*
X138990536Y-79143501D01*
X138990536Y-79143501D02*
X139038155Y-79048263D01*
X139038155Y-79048263D02*
X139085774Y-79000644D01*
X139085774Y-79000644D02*
X139181012Y-78953025D01*
X139181012Y-78953025D02*
X139323869Y-78953025D01*
X139323869Y-78953025D02*
X139419107Y-79000644D01*
X139419107Y-79000644D02*
X139466726Y-79048263D01*
X139466726Y-79048263D02*
X139514345Y-79143501D01*
X139514345Y-79143501D02*
X139514345Y-79429215D01*
X139514345Y-79429215D02*
X139466726Y-79524453D01*
X139466726Y-79524453D02*
X139419107Y-79572073D01*
X139419107Y-79572073D02*
X139323869Y-79619692D01*
X139323869Y-79619692D02*
X139181012Y-79619692D01*
X140085774Y-79619692D02*
X139990536Y-79572073D01*
X139990536Y-79572073D02*
X139942917Y-79524453D01*
X139942917Y-79524453D02*
X139895298Y-79429215D01*
X139895298Y-79429215D02*
X139895298Y-79143501D01*
X139895298Y-79143501D02*
X139942917Y-79048263D01*
X139942917Y-79048263D02*
X139990536Y-79000644D01*
X139990536Y-79000644D02*
X140085774Y-78953025D01*
X140085774Y-78953025D02*
X140228631Y-78953025D01*
X140228631Y-78953025D02*
X140323869Y-79000644D01*
X140323869Y-79000644D02*
X140371488Y-79048263D01*
X140371488Y-79048263D02*
X140419107Y-79143501D01*
X140419107Y-79143501D02*
X140419107Y-79429215D01*
X140419107Y-79429215D02*
X140371488Y-79524453D01*
X140371488Y-79524453D02*
X140323869Y-79572073D01*
X140323869Y-79572073D02*
X140228631Y-79619692D01*
X140228631Y-79619692D02*
X140085774Y-79619692D01*
X140704822Y-78953025D02*
X141085774Y-78953025D01*
X140847679Y-78619692D02*
X140847679Y-79476834D01*
X140847679Y-79476834D02*
X140895298Y-79572073D01*
X140895298Y-79572073D02*
X140990536Y-79619692D01*
X140990536Y-79619692D02*
X141085774Y-79619692D01*
X141419108Y-79619692D02*
X141419108Y-78619692D01*
X141847679Y-79619692D02*
X141847679Y-79095882D01*
X141847679Y-79095882D02*
X141800060Y-79000644D01*
X141800060Y-79000644D02*
X141704822Y-78953025D01*
X141704822Y-78953025D02*
X141561965Y-78953025D01*
X141561965Y-78953025D02*
X141466727Y-79000644D01*
X141466727Y-79000644D02*
X141419108Y-79048263D01*
X143038155Y-78572073D02*
X142181013Y-79857787D01*
X240251023Y-145440349D02*
X240251023Y-145916539D01*
X239965308Y-145345111D02*
X240965308Y-145678444D01*
X240965308Y-145678444D02*
X239965308Y-146011777D01*
X240631975Y-146345111D02*
X239965308Y-146345111D01*
X240536737Y-146345111D02*
X240584356Y-146392730D01*
X240584356Y-146392730D02*
X240631975Y-146487968D01*
X240631975Y-146487968D02*
X240631975Y-146630825D01*
X240631975Y-146630825D02*
X240584356Y-146726063D01*
X240584356Y-146726063D02*
X240489118Y-146773682D01*
X240489118Y-146773682D02*
X239965308Y-146773682D01*
X239965308Y-147678444D02*
X240489118Y-147678444D01*
X240489118Y-147678444D02*
X240584356Y-147630825D01*
X240584356Y-147630825D02*
X240631975Y-147535587D01*
X240631975Y-147535587D02*
X240631975Y-147345111D01*
X240631975Y-147345111D02*
X240584356Y-147249873D01*
X240012928Y-147678444D02*
X239965308Y-147583206D01*
X239965308Y-147583206D02*
X239965308Y-147345111D01*
X239965308Y-147345111D02*
X240012928Y-147249873D01*
X240012928Y-147249873D02*
X240108166Y-147202254D01*
X240108166Y-147202254D02*
X240203404Y-147202254D01*
X240203404Y-147202254D02*
X240298642Y-147249873D01*
X240298642Y-147249873D02*
X240346261Y-147345111D01*
X240346261Y-147345111D02*
X240346261Y-147583206D01*
X240346261Y-147583206D02*
X240393880Y-147678444D01*
X239965308Y-148297492D02*
X240012928Y-148202254D01*
X240012928Y-148202254D02*
X240108166Y-148154635D01*
X240108166Y-148154635D02*
X240965308Y-148154635D01*
X239965308Y-148821302D02*
X240012928Y-148726064D01*
X240012928Y-148726064D02*
X240060547Y-148678445D01*
X240060547Y-148678445D02*
X240155785Y-148630826D01*
X240155785Y-148630826D02*
X240441499Y-148630826D01*
X240441499Y-148630826D02*
X240536737Y-148678445D01*
X240536737Y-148678445D02*
X240584356Y-148726064D01*
X240584356Y-148726064D02*
X240631975Y-148821302D01*
X240631975Y-148821302D02*
X240631975Y-148964159D01*
X240631975Y-148964159D02*
X240584356Y-149059397D01*
X240584356Y-149059397D02*
X240536737Y-149107016D01*
X240536737Y-149107016D02*
X240441499Y-149154635D01*
X240441499Y-149154635D02*
X240155785Y-149154635D01*
X240155785Y-149154635D02*
X240060547Y-149107016D01*
X240060547Y-149107016D02*
X240012928Y-149059397D01*
X240012928Y-149059397D02*
X239965308Y-148964159D01*
X239965308Y-148964159D02*
X239965308Y-148821302D01*
X240631975Y-150011778D02*
X239822451Y-150011778D01*
X239822451Y-150011778D02*
X239727213Y-149964159D01*
X239727213Y-149964159D02*
X239679594Y-149916540D01*
X239679594Y-149916540D02*
X239631975Y-149821302D01*
X239631975Y-149821302D02*
X239631975Y-149678445D01*
X239631975Y-149678445D02*
X239679594Y-149583207D01*
X240012928Y-150011778D02*
X239965308Y-149916540D01*
X239965308Y-149916540D02*
X239965308Y-149726064D01*
X239965308Y-149726064D02*
X240012928Y-149630826D01*
X240012928Y-149630826D02*
X240060547Y-149583207D01*
X240060547Y-149583207D02*
X240155785Y-149535588D01*
X240155785Y-149535588D02*
X240441499Y-149535588D01*
X240441499Y-149535588D02*
X240536737Y-149583207D01*
X240536737Y-149583207D02*
X240584356Y-149630826D01*
X240584356Y-149630826D02*
X240631975Y-149726064D01*
X240631975Y-149726064D02*
X240631975Y-149916540D01*
X240631975Y-149916540D02*
X240584356Y-150011778D01*
X238402984Y-146107016D02*
X238355364Y-146249873D01*
X238355364Y-146249873D02*
X238355364Y-146487968D01*
X238355364Y-146487968D02*
X238402984Y-146583206D01*
X238402984Y-146583206D02*
X238450603Y-146630825D01*
X238450603Y-146630825D02*
X238545841Y-146678444D01*
X238545841Y-146678444D02*
X238641079Y-146678444D01*
X238641079Y-146678444D02*
X238736317Y-146630825D01*
X238736317Y-146630825D02*
X238783936Y-146583206D01*
X238783936Y-146583206D02*
X238831555Y-146487968D01*
X238831555Y-146487968D02*
X238879174Y-146297492D01*
X238879174Y-146297492D02*
X238926793Y-146202254D01*
X238926793Y-146202254D02*
X238974412Y-146154635D01*
X238974412Y-146154635D02*
X239069650Y-146107016D01*
X239069650Y-146107016D02*
X239164888Y-146107016D01*
X239164888Y-146107016D02*
X239260126Y-146154635D01*
X239260126Y-146154635D02*
X239307745Y-146202254D01*
X239307745Y-146202254D02*
X239355364Y-146297492D01*
X239355364Y-146297492D02*
X239355364Y-146535587D01*
X239355364Y-146535587D02*
X239307745Y-146678444D01*
X239022031Y-146964159D02*
X239022031Y-147345111D01*
X239355364Y-147107016D02*
X238498222Y-147107016D01*
X238498222Y-147107016D02*
X238402984Y-147154635D01*
X238402984Y-147154635D02*
X238355364Y-147249873D01*
X238355364Y-147249873D02*
X238355364Y-147345111D01*
X238355364Y-147678445D02*
X239022031Y-147678445D01*
X239355364Y-147678445D02*
X239307745Y-147630826D01*
X239307745Y-147630826D02*
X239260126Y-147678445D01*
X239260126Y-147678445D02*
X239307745Y-147726064D01*
X239307745Y-147726064D02*
X239355364Y-147678445D01*
X239355364Y-147678445D02*
X239260126Y-147678445D01*
X238402984Y-148583206D02*
X238355364Y-148487968D01*
X238355364Y-148487968D02*
X238355364Y-148297492D01*
X238355364Y-148297492D02*
X238402984Y-148202254D01*
X238402984Y-148202254D02*
X238450603Y-148154635D01*
X238450603Y-148154635D02*
X238545841Y-148107016D01*
X238545841Y-148107016D02*
X238831555Y-148107016D01*
X238831555Y-148107016D02*
X238926793Y-148154635D01*
X238926793Y-148154635D02*
X238974412Y-148202254D01*
X238974412Y-148202254D02*
X239022031Y-148297492D01*
X239022031Y-148297492D02*
X239022031Y-148487968D01*
X239022031Y-148487968D02*
X238974412Y-148583206D01*
X238355364Y-149011778D02*
X239355364Y-149011778D01*
X238736317Y-149107016D02*
X238355364Y-149392730D01*
X239022031Y-149392730D02*
X238641079Y-149011778D01*
X143615037Y-114916539D02*
X143662657Y-114964158D01*
X143662657Y-114964158D02*
X143710276Y-115107015D01*
X143710276Y-115107015D02*
X143710276Y-115202253D01*
X143710276Y-115202253D02*
X143662657Y-115345110D01*
X143662657Y-115345110D02*
X143567418Y-115440348D01*
X143567418Y-115440348D02*
X143472180Y-115487967D01*
X143472180Y-115487967D02*
X143281704Y-115535586D01*
X143281704Y-115535586D02*
X143138847Y-115535586D01*
X143138847Y-115535586D02*
X142948371Y-115487967D01*
X142948371Y-115487967D02*
X142853133Y-115440348D01*
X142853133Y-115440348D02*
X142757895Y-115345110D01*
X142757895Y-115345110D02*
X142710276Y-115202253D01*
X142710276Y-115202253D02*
X142710276Y-115107015D01*
X142710276Y-115107015D02*
X142757895Y-114964158D01*
X142757895Y-114964158D02*
X142805514Y-114916539D01*
X143043609Y-114059396D02*
X143710276Y-114059396D01*
X142662657Y-114297491D02*
X143376942Y-114535586D01*
X143376942Y-114535586D02*
X143376942Y-113916539D01*
X245729062Y-148166032D02*
X245776682Y-148213651D01*
X245776682Y-148213651D02*
X245824301Y-148356508D01*
X245824301Y-148356508D02*
X245824301Y-148451746D01*
X245824301Y-148451746D02*
X245776682Y-148594603D01*
X245776682Y-148594603D02*
X245681443Y-148689841D01*
X245681443Y-148689841D02*
X245586205Y-148737460D01*
X245586205Y-148737460D02*
X245395729Y-148785079D01*
X245395729Y-148785079D02*
X245252872Y-148785079D01*
X245252872Y-148785079D02*
X245062396Y-148737460D01*
X245062396Y-148737460D02*
X244967158Y-148689841D01*
X244967158Y-148689841D02*
X244871920Y-148594603D01*
X244871920Y-148594603D02*
X244824301Y-148451746D01*
X244824301Y-148451746D02*
X244824301Y-148356508D01*
X244824301Y-148356508D02*
X244871920Y-148213651D01*
X244871920Y-148213651D02*
X244919539Y-148166032D01*
X244824301Y-147832698D02*
X244824301Y-147166032D01*
X244824301Y-147166032D02*
X245824301Y-147594603D01*
D12*
%TO.C,L6*%
X193000127Y-111450152D02*
X200000127Y-111450152D01*
X193000127Y-119050356D02*
X193000127Y-111450152D01*
X195799975Y-111450152D02*
X195799975Y-111450406D01*
X197200025Y-119050356D02*
X197223292Y-119050356D01*
X200000127Y-111450152D02*
X200000127Y-119050356D01*
X200000127Y-119050356D02*
X193000127Y-119050356D01*
D13*
X193030100Y-119000064D02*
G75*
G02*
X192970154Y-119000064I-29973J0D01*
G01*
X192970154Y-119000064D02*
G75*
G02*
X193030100Y-119000064I29973J0D01*
G01*
D14*
%TO.C,C8*%
X109212538Y-108600026D02*
X109212538Y-113100026D01*
D12*
%TO.C,LEFT1*%
X209624809Y-68000000D02*
X217225013Y-68000000D01*
X209624809Y-72199898D02*
X209624809Y-72223165D01*
X209624809Y-75000000D02*
X209624809Y-68000000D01*
X217225013Y-68000000D02*
X217225013Y-75000000D01*
X217225013Y-70799848D02*
X217224759Y-70799848D01*
X217225013Y-75000000D02*
X209624809Y-75000000D01*
D13*
X209705074Y-68000000D02*
G75*
G02*
X209645128Y-68000000I-29973J0D01*
G01*
X209645128Y-68000000D02*
G75*
G02*
X209705074Y-68000000I29973J0D01*
G01*
D12*
%TO.C,L4*%
X183000127Y-101700152D02*
X190000127Y-101700152D01*
X183000127Y-109300356D02*
X183000127Y-101700152D01*
X185799975Y-101700152D02*
X185799975Y-101700406D01*
X187200025Y-109300356D02*
X187223292Y-109300356D01*
X190000127Y-101700152D02*
X190000127Y-109300356D01*
X190000127Y-109300356D02*
X183000127Y-109300356D01*
D13*
X183030100Y-109250064D02*
G75*
G02*
X182970154Y-109250064I-29973J0D01*
G01*
X182970154Y-109250064D02*
G75*
G02*
X183030100Y-109250064I29973J0D01*
G01*
D14*
%TO.C,C4*%
X141255000Y-117774873D02*
X141255915Y-110649873D01*
D12*
%TO.C,L3*%
X181899606Y-83320104D02*
X189499810Y-83320104D01*
X181899606Y-87520002D02*
X181899606Y-87543269D01*
X181899606Y-90320104D02*
X181899606Y-83320104D01*
X189499810Y-83320104D02*
X189499810Y-90320104D01*
X189499810Y-86119952D02*
X189499556Y-86119952D01*
X189499810Y-90320104D02*
X181899606Y-90320104D01*
D13*
X181979871Y-83320104D02*
G75*
G02*
X181919925Y-83320104I-29973J0D01*
G01*
X181919925Y-83320104D02*
G75*
G02*
X181979871Y-83320104I29973J0D01*
G01*
D14*
%TO.C,C6*%
X100548531Y-135249873D02*
X100548531Y-143749873D01*
D10*
X100548531Y-143749873D02*
X102298531Y-143749873D01*
X102298531Y-135249873D02*
X100548531Y-135249873D01*
D12*
%TO.C,U1*%
X81812449Y-75623800D02*
X81812449Y-73226036D01*
X82932617Y-76884786D02*
X85470387Y-76884786D01*
X85502619Y-71904801D02*
X82964850Y-71904801D01*
X86612551Y-73226036D02*
X86612551Y-75623800D01*
X85990504Y-74424918D02*
G75*
G02*
X82434496Y-74424918I-1778004J0D01*
G01*
X82434496Y-74424918D02*
G75*
G02*
X85990504Y-74424918I1778004J0D01*
G01*
X84720501Y-74424918D02*
G75*
G02*
X83704499Y-74424918I-508001J0D01*
G01*
X83704499Y-74424918D02*
G75*
G02*
X84720501Y-74424918I508001J0D01*
G01*
D14*
%TO.C,C3*%
X188320000Y-138999873D02*
X188319085Y-142499873D01*
%TO.C,C9*%
X157212538Y-101100026D02*
X157212538Y-105600026D01*
D12*
%TO.C,U6*%
X81812449Y-135974016D02*
X81812449Y-133576252D01*
X82932617Y-137235002D02*
X85470387Y-137235002D01*
X85502619Y-132255017D02*
X82964850Y-132255017D01*
X86612551Y-133576252D02*
X86612551Y-135974016D01*
X85990504Y-134775134D02*
G75*
G02*
X82434496Y-134775134I-1778004J0D01*
G01*
X82434496Y-134775134D02*
G75*
G02*
X85990504Y-134775134I1778004J0D01*
G01*
X84720501Y-134775134D02*
G75*
G02*
X83704499Y-134775134I-508001J0D01*
G01*
X83704499Y-134775134D02*
G75*
G02*
X84720501Y-134775134I508001J0D01*
G01*
%TO.C,UP1*%
X202125317Y-75499746D02*
X209725521Y-75499746D01*
X202125317Y-79699898D02*
X202125571Y-79699898D01*
X202125317Y-82499746D02*
X202125317Y-75499746D01*
X209725521Y-75499746D02*
X209725521Y-82499746D01*
X209725521Y-78299848D02*
X209725521Y-78276581D01*
X209725521Y-82499746D02*
X202125317Y-82499746D01*
D13*
X209705202Y-82499746D02*
G75*
G02*
X209645256Y-82499746I-29973J0D01*
G01*
X209645256Y-82499746D02*
G75*
G02*
X209705202Y-82499746I29973J0D01*
G01*
D12*
%TO.C,U7*%
X81812449Y-148774016D02*
X81812449Y-146376252D01*
X82932617Y-150035002D02*
X85470387Y-150035002D01*
X85502619Y-145055017D02*
X82964850Y-145055017D01*
X86612551Y-146376252D02*
X86612551Y-148774016D01*
X85990504Y-147575134D02*
G75*
G02*
X82434496Y-147575134I-1778004J0D01*
G01*
X82434496Y-147575134D02*
G75*
G02*
X85990504Y-147575134I1778004J0D01*
G01*
X84720501Y-147575134D02*
G75*
G02*
X83704499Y-147575134I-508001J0D01*
G01*
X83704499Y-147575134D02*
G75*
G02*
X84720501Y-147575134I508001J0D01*
G01*
%TO.C,U4*%
X81862360Y-65398908D02*
X81862360Y-63001144D01*
X82982528Y-66659894D02*
X85520298Y-66659894D01*
X85552530Y-61679909D02*
X83014761Y-61679909D01*
X86662462Y-63001144D02*
X86662462Y-65398908D01*
X86040415Y-64200026D02*
G75*
G02*
X82484407Y-64200026I-1778004J0D01*
G01*
X82484407Y-64200026D02*
G75*
G02*
X86040415Y-64200026I1778004J0D01*
G01*
X84770412Y-64200026D02*
G75*
G02*
X83754410Y-64200026I-508001J0D01*
G01*
X83754410Y-64200026D02*
G75*
G02*
X84770412Y-64200026I508001J0D01*
G01*
D14*
%TO.C,C7*%
X247369939Y-145499873D02*
X247369024Y-149999873D01*
D12*
%TO.C,DOWN1*%
X202125317Y-60499746D02*
X209725521Y-60499746D01*
X202125317Y-64699898D02*
X202125571Y-64699898D01*
X202125317Y-67499746D02*
X202125317Y-60499746D01*
X209725521Y-60499746D02*
X209725521Y-67499746D01*
X209725521Y-63299848D02*
X209725521Y-63276581D01*
X209725521Y-67499746D02*
X202125317Y-67499746D01*
D13*
X209705202Y-67499746D02*
G75*
G02*
X209645256Y-67499746I-29973J0D01*
G01*
X209645256Y-67499746D02*
G75*
G02*
X209705202Y-67499746I29973J0D01*
G01*
D12*
%TO.C,L2*%
X183250127Y-121450152D02*
X190250127Y-121450152D01*
X183250127Y-129050356D02*
X183250127Y-121450152D01*
X186049975Y-121450152D02*
X186049975Y-121450406D01*
X187450025Y-129050356D02*
X187473292Y-129050356D01*
X190250127Y-121450152D02*
X190250127Y-129050356D01*
X190250127Y-129050356D02*
X183250127Y-129050356D01*
D13*
X183280100Y-129000064D02*
G75*
G02*
X183220154Y-129000064I-29973J0D01*
G01*
X183220154Y-129000064D02*
G75*
G02*
X183280100Y-129000064I29973J0D01*
G01*
D12*
%TO.C,U5*%
X81812449Y-125023800D02*
X81812449Y-122626036D01*
X82932617Y-126284786D02*
X85470387Y-126284786D01*
X85502619Y-121304801D02*
X82964850Y-121304801D01*
X86612551Y-122626036D02*
X86612551Y-125023800D01*
X85990504Y-123824918D02*
G75*
G02*
X82434496Y-123824918I-1778004J0D01*
G01*
X82434496Y-123824918D02*
G75*
G02*
X85990504Y-123824918I1778004J0D01*
G01*
X84720501Y-123824918D02*
G75*
G02*
X83704499Y-123824918I-508001J0D01*
G01*
X83704499Y-123824918D02*
G75*
G02*
X84720501Y-123824918I508001J0D01*
G01*
%TO.C,U3*%
X81812449Y-54423800D02*
X81812449Y-52026036D01*
X82932617Y-55684786D02*
X85470387Y-55684786D01*
X85502619Y-50704801D02*
X82964850Y-50704801D01*
X86612551Y-52026036D02*
X86612551Y-54423800D01*
X85990504Y-53224918D02*
G75*
G02*
X82434496Y-53224918I-1778004J0D01*
G01*
X82434496Y-53224918D02*
G75*
G02*
X85990504Y-53224918I1778004J0D01*
G01*
X84720501Y-53224918D02*
G75*
G02*
X83704499Y-53224918I-508001J0D01*
G01*
X83704499Y-53224918D02*
G75*
G02*
X84720501Y-53224918I508001J0D01*
G01*
D14*
%TO.C,C1*%
X96175038Y-55999873D02*
X96175038Y-51499873D01*
D12*
%TO.C,L5*%
X173500127Y-111700152D02*
X180500127Y-111700152D01*
X173500127Y-119300356D02*
X173500127Y-111700152D01*
X176299975Y-111700152D02*
X176299975Y-111700406D01*
X177700025Y-119300356D02*
X177723292Y-119300356D01*
X180500127Y-111700152D02*
X180500127Y-119300356D01*
X180500127Y-119300356D02*
X173500127Y-119300356D01*
D13*
X173530100Y-119250064D02*
G75*
G02*
X173470154Y-119250064I-29973J0D01*
G01*
X173470154Y-119250064D02*
G75*
G02*
X173530100Y-119250064I29973J0D01*
G01*
D14*
%TO.C,C2*%
X184425038Y-62499873D02*
X179925038Y-62499873D01*
D12*
%TO.C,U2*%
X81862360Y-83298908D02*
X81862360Y-80901144D01*
X82982528Y-84559894D02*
X85520298Y-84559894D01*
X85552530Y-79579909D02*
X83014761Y-79579909D01*
X86662462Y-80901144D02*
X86662462Y-83298908D01*
X86040415Y-82100026D02*
G75*
G02*
X82484407Y-82100026I-1778004J0D01*
G01*
X82484407Y-82100026D02*
G75*
G02*
X86040415Y-82100026I1778004J0D01*
G01*
X84770412Y-82100026D02*
G75*
G02*
X83754410Y-82100026I-508001J0D01*
G01*
X83754410Y-82100026D02*
G75*
G02*
X84770412Y-82100026I508001J0D01*
G01*
%TO.C,L1*%
X203805340Y-96499746D02*
X211405544Y-96499746D01*
X203805340Y-100699898D02*
X203805594Y-100699898D01*
X203805340Y-103499746D02*
X203805340Y-96499746D01*
X211405544Y-96499746D02*
X211405544Y-103499746D01*
X211405544Y-99299848D02*
X211405544Y-99276581D01*
X211405544Y-103499746D02*
X203805340Y-103499746D01*
D13*
X211385225Y-103499746D02*
G75*
G02*
X211325279Y-103499746I-29973J0D01*
G01*
X211325279Y-103499746D02*
G75*
G02*
X211385225Y-103499746I29973J0D01*
G01*
D12*
%TO.C,RIGHT1*%
X194624809Y-68000000D02*
X202225013Y-68000000D01*
X194624809Y-72199898D02*
X194624809Y-72223165D01*
X194624809Y-75000000D02*
X194624809Y-68000000D01*
X202225013Y-68000000D02*
X202225013Y-75000000D01*
X202225013Y-70799848D02*
X202224759Y-70799848D01*
X202225013Y-75000000D02*
X194624809Y-75000000D01*
D13*
X194705074Y-68000000D02*
G75*
G02*
X194645128Y-68000000I-29973J0D01*
G01*
X194645128Y-68000000D02*
G75*
G02*
X194705074Y-68000000I29973J0D01*
G01*
%TD*%
M02*
