M48
; DRILL file {KiCad (6.0.1)} date Tue Jun  7 11:34:37 2022
; FORMAT={-:-/ absolute / inch / decimal}
; #@! TF.CreationDate,2022-06-07T11:34:37+01:00
; #@! TF.GenerationSoftware,Kicad,Pcbnew,(6.0.1)
; #@! TF.FileFunction,Plated,1,2,PTH
FMAT,2
INCH
; #@! TA.AperFunction,Plated,PTH,ComponentDrill
T1C0.0315
; #@! TA.AperFunction,Plated,PTH,ComponentDrill
T2C0.0394
; #@! TA.AperFunction,Plated,PTH,ComponentDrill
T3C0.0400
; #@! TA.AperFunction,Plated,PTH,ComponentDrill
T4C0.0650
; #@! TA.AperFunction,Plated,PTH,ComponentDrill
T5C0.0700
%
G90
G05
T1
X4.6498Y-4.1246
X4.6498Y-4.4246
X4.7498Y-4.1246
X4.7498Y-4.4246
X4.8498Y-4.1246
X4.8498Y-4.4246
X4.9498Y-4.1246
X4.9498Y-4.4246
X5.0498Y-4.1246
X5.0498Y-4.4246
X5.1498Y-4.1246
X5.1498Y-4.4246
X5.2498Y-4.1246
X5.2498Y-4.4246
T2
X4.65Y-2.15
X4.65Y-2.25
X4.9Y-2.1498
X4.9Y-2.2498
X5.0504Y-4.6
X5.1504Y-4.6
X5.2504Y-4.6
X5.3504Y-4.6
X5.9Y-2.1498
X5.9Y-2.2498
X6.1Y-2.3998
X6.1Y-2.4998
T3
X5.49Y-2.805
X5.49Y-2.905
X5.49Y-3.005
X5.49Y-3.105
X5.49Y-3.205
X5.49Y-3.305
X5.49Y-3.405
X5.49Y-3.505
X5.49Y-3.605
X5.49Y-3.705
X5.49Y-3.805
X5.49Y-3.905
X5.49Y-4.005
X5.49Y-4.105
X5.49Y-4.205
X6.09Y-2.805
X6.09Y-2.905
X6.09Y-3.005
X6.09Y-3.105
X6.09Y-3.205
X6.09Y-3.305
X6.09Y-3.405
X6.09Y-3.505
X6.09Y-3.605
X6.09Y-3.705
X6.09Y-3.805
X6.09Y-3.905
X6.09Y-4.005
X6.09Y-4.105
X6.09Y-4.205
T4
X5.213Y-2.2706
X5.4Y-2.2706
X5.587Y-2.2706
T5
X4.6Y-1.9
X4.6Y-4.6
X6.1Y-1.9
X6.1Y-4.575
T0
M30
