%TF.GenerationSoftware,KiCad,Pcbnew,(6.0.1)*%
%TF.CreationDate,2022-06-07T11:34:35+01:00*%
%TF.ProjectId,psp-bluetooth,7073702d-626c-4756-9574-6f6f74682e6b,rev?*%
%TF.SameCoordinates,Original*%
%TF.FileFunction,Soldermask,Bot*%
%TF.FilePolarity,Negative*%
%FSLAX46Y46*%
G04 Gerber Fmt 4.6, Leading zero omitted, Abs format (unit mm)*
G04 Created by KiCad (PCBNEW (6.0.1)) date 2022-06-07 11:34:35*
%MOMM*%
%LPD*%
G01*
G04 APERTURE LIST*
%ADD10O,2.032000X1.727200*%
%ADD11C,2.540000*%
%ADD12R,2.475000X2.475000*%
%ADD13C,2.475000*%
%ADD14R,1.600000X1.600000*%
%ADD15O,1.600000X1.600000*%
%ADD16R,1.700000X1.700000*%
%ADD17O,1.700000X1.700000*%
%ADD18R,1.300000X0.300000*%
%ADD19R,2.200000X1.800000*%
G04 APERTURE END LIST*
D10*
%TO.C,P1*%
X139446000Y-71247000D03*
X139446000Y-73787000D03*
X139446000Y-76327000D03*
X139446000Y-78867000D03*
X139446000Y-81407000D03*
X139446000Y-83947000D03*
X139446000Y-86487000D03*
X139446000Y-89027000D03*
X139446000Y-91567000D03*
X139446000Y-94107000D03*
X139446000Y-96647000D03*
X139446000Y-99187000D03*
X139446000Y-101727000D03*
X139446000Y-104267000D03*
X139446000Y-106807000D03*
%TD*%
%TO.C,P2*%
X154686000Y-71247000D03*
X154686000Y-73787000D03*
X154686000Y-76327000D03*
X154686000Y-78867000D03*
X154686000Y-81407000D03*
X154686000Y-83947000D03*
X154686000Y-86487000D03*
X154686000Y-89027000D03*
X154686000Y-91567000D03*
X154686000Y-94107000D03*
X154686000Y-96647000D03*
X154686000Y-99187000D03*
X154686000Y-101727000D03*
X154686000Y-104267000D03*
X154686000Y-106807000D03*
%TD*%
D11*
%TO.C,P3*%
X116840000Y-48260000D03*
%TD*%
%TO.C,P4*%
X116840000Y-116840000D03*
%TD*%
%TO.C,P5*%
X154940000Y-116205000D03*
%TD*%
%TO.C,P6*%
X154940000Y-48260000D03*
%TD*%
D12*
%TO.C,S1*%
X141910000Y-57672500D03*
D13*
X137160000Y-57672500D03*
X132410000Y-57672500D03*
%TD*%
D14*
%TO.C,U1*%
X118105000Y-112385000D03*
D15*
X120645000Y-112385000D03*
X123185000Y-112385000D03*
X125725000Y-112385000D03*
X128265000Y-112385000D03*
X130805000Y-112385000D03*
X133345000Y-112385000D03*
X133345000Y-104765000D03*
X130805000Y-104765000D03*
X128265000Y-104765000D03*
X125725000Y-104765000D03*
X123185000Y-104765000D03*
X120645000Y-104765000D03*
X118105000Y-104765000D03*
%TD*%
D16*
%TO.C,J7*%
X118110000Y-54610000D03*
D17*
X118110000Y-57150000D03*
%TD*%
D16*
%TO.C,J4*%
X128280000Y-116840000D03*
D17*
X130820000Y-116840000D03*
X133360000Y-116840000D03*
X135900000Y-116840000D03*
%TD*%
D16*
%TO.C,J5*%
X149860000Y-54605000D03*
D17*
X149860000Y-57145000D03*
%TD*%
D16*
%TO.C,J8*%
X154940000Y-60955000D03*
D17*
X154940000Y-63495000D03*
%TD*%
D16*
%TO.C,J6*%
X124460000Y-54605000D03*
D17*
X124460000Y-57145000D03*
%TD*%
D18*
%TO.C,J3*%
X123450000Y-85800000D03*
X123450000Y-85300000D03*
X123450000Y-84800000D03*
X123450000Y-84300000D03*
X123450000Y-83800000D03*
X123450000Y-83300000D03*
X123450000Y-82800000D03*
X123450000Y-82300000D03*
X123450000Y-81800000D03*
X123450000Y-81300000D03*
X123450000Y-80800000D03*
X123450000Y-80300000D03*
X123450000Y-79800000D03*
X123450000Y-79300000D03*
D19*
X120200000Y-87700000D03*
X120200000Y-77400000D03*
%TD*%
D18*
%TO.C,J1*%
X123450000Y-98770000D03*
X123450000Y-98270000D03*
X123450000Y-97770000D03*
X123450000Y-97270000D03*
X123450000Y-96770000D03*
X123450000Y-96270000D03*
X123450000Y-95770000D03*
X123450000Y-95270000D03*
X123450000Y-94770000D03*
X123450000Y-94270000D03*
D19*
X120200000Y-100670000D03*
X120200000Y-92370000D03*
%TD*%
D18*
%TO.C,J2*%
X123135000Y-71465000D03*
X123135000Y-70965000D03*
X123135000Y-70465000D03*
X123135000Y-69965000D03*
X123135000Y-69465000D03*
X123135000Y-68965000D03*
X123135000Y-68465000D03*
X123135000Y-67965000D03*
X123135000Y-67465000D03*
X123135000Y-66965000D03*
D19*
X119885000Y-65065000D03*
X119885000Y-73365000D03*
%TD*%
M02*
