%TF.GenerationSoftware,KiCad,Pcbnew,(6.0.1)*%
%TF.CreationDate,2022-06-07T11:34:35+01:00*%
%TF.ProjectId,psp-bluetooth,7073702d-626c-4756-9574-6f6f74682e6b,rev?*%
%TF.SameCoordinates,Original*%
%TF.FileFunction,Copper,L2,Bot*%
%TF.FilePolarity,Positive*%
%FSLAX46Y46*%
G04 Gerber Fmt 4.6, Leading zero omitted, Abs format (unit mm)*
G04 Created by KiCad (PCBNEW (6.0.1)) date 2022-06-07 11:34:35*
%MOMM*%
%LPD*%
G01*
G04 APERTURE LIST*
%TA.AperFunction,ComponentPad*%
%ADD10O,2.032000X1.727200*%
%TD*%
%TA.AperFunction,ComponentPad*%
%ADD11C,2.540000*%
%TD*%
%TA.AperFunction,ComponentPad*%
%ADD12R,2.475000X2.475000*%
%TD*%
%TA.AperFunction,ComponentPad*%
%ADD13C,2.475000*%
%TD*%
%TA.AperFunction,ComponentPad*%
%ADD14R,1.600000X1.600000*%
%TD*%
%TA.AperFunction,ComponentPad*%
%ADD15O,1.600000X1.600000*%
%TD*%
%TA.AperFunction,ComponentPad*%
%ADD16R,1.700000X1.700000*%
%TD*%
%TA.AperFunction,ComponentPad*%
%ADD17O,1.700000X1.700000*%
%TD*%
%TA.AperFunction,SMDPad,CuDef*%
%ADD18R,1.300000X0.300000*%
%TD*%
%TA.AperFunction,SMDPad,CuDef*%
%ADD19R,2.200000X1.800000*%
%TD*%
%TA.AperFunction,Conductor*%
%ADD20C,0.250000*%
%TD*%
G04 APERTURE END LIST*
D10*
%TO.P,P1,1,Pin_1*%
%TO.N,/1(Tx)*%
X139446000Y-71247000D03*
%TO.P,P1,2,Pin_2*%
%TO.N,/0(Rx)*%
X139446000Y-73787000D03*
%TO.P,P1,3,Pin_3*%
%TO.N,/Reset*%
X139446000Y-76327000D03*
%TO.P,P1,4,Pin_4*%
%TO.N,GND*%
X139446000Y-78867000D03*
%TO.P,P1,5,Pin_5*%
%TO.N,/2*%
X139446000Y-81407000D03*
%TO.P,P1,6,Pin_6*%
%TO.N,/3(\u002A\u002A)*%
X139446000Y-83947000D03*
%TO.P,P1,7,Pin_7*%
%TO.N,/4*%
X139446000Y-86487000D03*
%TO.P,P1,8,Pin_8*%
%TO.N,/5(\u002A\u002A)*%
X139446000Y-89027000D03*
%TO.P,P1,9,Pin_9*%
%TO.N,/6(\u002A\u002A)*%
X139446000Y-91567000D03*
%TO.P,P1,10,Pin_10*%
%TO.N,/7*%
X139446000Y-94107000D03*
%TO.P,P1,11,Pin_11*%
%TO.N,/8*%
X139446000Y-96647000D03*
%TO.P,P1,12,Pin_12*%
%TO.N,/9(\u002A\u002A)*%
X139446000Y-99187000D03*
%TO.P,P1,13,Pin_13*%
%TO.N,/10(\u002A\u002A{slash}SS)*%
X139446000Y-101727000D03*
%TO.P,P1,14,Pin_14*%
%TO.N,/11(\u002A\u002A{slash}MOSI)*%
X139446000Y-104267000D03*
%TO.P,P1,15,Pin_15*%
%TO.N,/12(MISO)*%
X139446000Y-106807000D03*
%TD*%
%TO.P,P2,1,Pin_1*%
%TO.N,VIN*%
X154686000Y-71247000D03*
%TO.P,P2,2,Pin_2*%
%TO.N,GND*%
X154686000Y-73787000D03*
%TO.P,P2,3,Pin_3*%
%TO.N,/Reset*%
X154686000Y-76327000D03*
%TO.P,P2,4,Pin_4*%
%TO.N,+5V*%
X154686000Y-78867000D03*
%TO.P,P2,5,Pin_5*%
%TO.N,/A7 (D21)*%
X154686000Y-81407000D03*
%TO.P,P2,6,Pin_6*%
%TO.N,/A6 (D20)*%
X154686000Y-83947000D03*
%TO.P,P2,7,Pin_7*%
%TO.N,/A5 (D19)*%
X154686000Y-86487000D03*
%TO.P,P2,8,Pin_8*%
%TO.N,/A4 (D18)*%
X154686000Y-89027000D03*
%TO.P,P2,9,Pin_9*%
%TO.N,/A3 (D17)*%
X154686000Y-91567000D03*
%TO.P,P2,10,Pin_10*%
%TO.N,/A2 (D16)*%
X154686000Y-94107000D03*
%TO.P,P2,11,Pin_11*%
%TO.N,/A1 (D15)*%
X154686000Y-96647000D03*
%TO.P,P2,12,Pin_12*%
%TO.N,/A0 (D14)*%
X154686000Y-99187000D03*
%TO.P,P2,13,Pin_13*%
%TO.N,/AREF*%
X154686000Y-101727000D03*
%TO.P,P2,14,Pin_14*%
%TO.N,+3V3*%
X154686000Y-104267000D03*
%TO.P,P2,15,Pin_15*%
%TO.N,/13(SCK)*%
X154686000Y-106807000D03*
%TD*%
D11*
%TO.P,P3,1,Pin_1*%
%TO.N,unconnected-(P3-Pad1)*%
X116840000Y-48260000D03*
%TD*%
%TO.P,P4,1,Pin_1*%
%TO.N,unconnected-(P4-Pad1)*%
X116840000Y-116840000D03*
%TD*%
%TO.P,P5,1,Pin_1*%
%TO.N,unconnected-(P5-Pad1)*%
X154940000Y-116205000D03*
%TD*%
%TO.P,P6,1,Pin_1*%
%TO.N,unconnected-(P6-Pad1)*%
X154940000Y-48260000D03*
%TD*%
D12*
%TO.P,S1,1*%
%TO.N,unconnected-(S1-Pad1)*%
X141910000Y-57672500D03*
D13*
%TO.P,S1,2*%
%TO.N,Net-(J5-Pad2)*%
X137160000Y-57672500D03*
%TO.P,S1,3*%
%TO.N,Net-(J6-Pad2)*%
X132410000Y-57672500D03*
%TD*%
D14*
%TO.P,U1,1,~{CS}*%
%TO.N,/10(\u002A\u002A{slash}SS)*%
X118105000Y-112385000D03*
D15*
%TO.P,U1,2,SCK*%
%TO.N,/13(SCK)*%
X120645000Y-112385000D03*
%TO.P,U1,3,SDI*%
%TO.N,/11(\u002A\u002A{slash}MOSI)*%
X123185000Y-112385000D03*
%TO.P,U1,4,VSS*%
%TO.N,GND*%
X125725000Y-112385000D03*
%TO.P,U1,5,P1B*%
X128265000Y-112385000D03*
%TO.P,U1,6,P1W*%
%TO.N,Net-(J4-Pad2)*%
X130805000Y-112385000D03*
%TO.P,U1,7,P1A*%
%TO.N,Net-(J4-Pad3)*%
X133345000Y-112385000D03*
%TO.P,U1,8,P0A*%
X133345000Y-104765000D03*
%TO.P,U1,9,P0W*%
%TO.N,Net-(J4-Pad4)*%
X130805000Y-104765000D03*
%TO.P,U1,10,P0B*%
%TO.N,GND*%
X128265000Y-104765000D03*
%TO.P,U1,11,~{WP}*%
%TO.N,unconnected-(U1-Pad11)*%
X125725000Y-104765000D03*
%TO.P,U1,12,~{SHDN}*%
%TO.N,unconnected-(U1-Pad12)*%
X123185000Y-104765000D03*
%TO.P,U1,13,SDO*%
%TO.N,/12(MISO)*%
X120645000Y-104765000D03*
%TO.P,U1,14,VDD*%
%TO.N,+3V3*%
X118105000Y-104765000D03*
%TD*%
D16*
%TO.P,J7,1,Pin_1*%
%TO.N,/1(Tx)*%
X118110000Y-54610000D03*
D17*
%TO.P,J7,2,Pin_2*%
%TO.N,/0(Rx)*%
X118110000Y-57150000D03*
%TD*%
D16*
%TO.P,J4,1,Pin_1*%
%TO.N,GND*%
X128280000Y-116840000D03*
D17*
%TO.P,J4,2,Pin_2*%
%TO.N,Net-(J4-Pad2)*%
X130820000Y-116840000D03*
%TO.P,J4,3,Pin_3*%
%TO.N,Net-(J4-Pad3)*%
X133360000Y-116840000D03*
%TO.P,J4,4,Pin_4*%
%TO.N,Net-(J4-Pad4)*%
X135900000Y-116840000D03*
%TD*%
D16*
%TO.P,J5,1,Pin_1*%
%TO.N,GND*%
X149860000Y-54605000D03*
D17*
%TO.P,J5,2,Pin_2*%
%TO.N,Net-(J5-Pad2)*%
X149860000Y-57145000D03*
%TD*%
D16*
%TO.P,J8,1,Pin_1*%
%TO.N,Net-(J5-Pad2)*%
X154940000Y-60955000D03*
D17*
%TO.P,J8,2,Pin_2*%
%TO.N,VIN*%
X154940000Y-63495000D03*
%TD*%
D16*
%TO.P,J6,1,Pin_1*%
%TO.N,GND*%
X124460000Y-54605000D03*
D17*
%TO.P,J6,2,Pin_2*%
%TO.N,Net-(J6-Pad2)*%
X124460000Y-57145000D03*
%TD*%
D18*
%TO.P,J3,1,Pin_1*%
%TO.N,/A5 (D19)*%
X123450000Y-85800000D03*
%TO.P,J3,2,Pin_2*%
%TO.N,/5(\u002A\u002A)*%
X123450000Y-85300000D03*
%TO.P,J3,3,Pin_3*%
%TO.N,/4*%
X123450000Y-84800000D03*
%TO.P,J3,4,Pin_4*%
%TO.N,/3(\u002A\u002A)*%
X123450000Y-84300000D03*
%TO.P,J3,5,Pin_5*%
%TO.N,/2*%
X123450000Y-83800000D03*
%TO.P,J3,6,Pin_6*%
%TO.N,GND*%
X123450000Y-83300000D03*
%TO.P,J3,7,Pin_7*%
X123450000Y-82800000D03*
%TO.P,J3,8,Pin_8*%
X123450000Y-82300000D03*
%TO.P,J3,9,Pin_9*%
X123450000Y-81800000D03*
%TO.P,J3,10,Pin_10*%
%TO.N,/A7 (D21)*%
X123450000Y-81300000D03*
%TO.P,J3,11,Pin_11*%
%TO.N,unconnected-(J3-Pad11)*%
X123450000Y-80800000D03*
%TO.P,J3,12,Pin_12*%
%TO.N,unconnected-(J3-Pad12)*%
X123450000Y-80300000D03*
%TO.P,J3,13,Pin_13*%
%TO.N,unconnected-(J3-Pad13)*%
X123450000Y-79800000D03*
%TO.P,J3,14,Pin_14*%
%TO.N,unconnected-(J3-Pad14)*%
X123450000Y-79300000D03*
D19*
%TO.P,J3,MP*%
%TO.N,N/C*%
X120200000Y-87700000D03*
X120200000Y-77400000D03*
%TD*%
D18*
%TO.P,J1,1,Pin_1*%
%TO.N,GND*%
X123450000Y-98770000D03*
%TO.P,J1,2,Pin_2*%
X123450000Y-98270000D03*
%TO.P,J1,3,Pin_3*%
X123450000Y-97770000D03*
%TO.P,J1,4,Pin_4*%
X123450000Y-97270000D03*
%TO.P,J1,5,Pin_5*%
X123450000Y-96770000D03*
%TO.P,J1,6,Pin_6*%
%TO.N,/9(\u002A\u002A)*%
X123450000Y-96270000D03*
%TO.P,J1,7,Pin_7*%
%TO.N,/8*%
X123450000Y-95770000D03*
%TO.P,J1,8,Pin_8*%
%TO.N,/7*%
X123450000Y-95270000D03*
%TO.P,J1,9,Pin_9*%
%TO.N,/A4 (D18)*%
X123450000Y-94770000D03*
%TO.P,J1,10,Pin_10*%
%TO.N,/6(\u002A\u002A)*%
X123450000Y-94270000D03*
D19*
%TO.P,J1,MP*%
%TO.N,N/C*%
X120200000Y-100670000D03*
X120200000Y-92370000D03*
%TD*%
D18*
%TO.P,J2,1,Pin_1*%
%TO.N,/A3 (D17)*%
X123135000Y-71465000D03*
%TO.P,J2,2,Pin_2*%
%TO.N,unconnected-(J2-Pad2)*%
X123135000Y-70965000D03*
%TO.P,J2,3,Pin_3*%
%TO.N,unconnected-(J2-Pad3)*%
X123135000Y-70465000D03*
%TO.P,J2,4,Pin_4*%
%TO.N,GND*%
X123135000Y-69965000D03*
%TO.P,J2,5,Pin_5*%
X123135000Y-69465000D03*
%TO.P,J2,6,Pin_6*%
X123135000Y-68965000D03*
%TO.P,J2,7,Pin_7*%
%TO.N,/A2 (D16)*%
X123135000Y-68465000D03*
%TO.P,J2,8,Pin_8*%
%TO.N,unconnected-(J2-Pad8)*%
X123135000Y-67965000D03*
%TO.P,J2,9,Pin_9*%
%TO.N,/A1 (D15)*%
X123135000Y-67465000D03*
%TO.P,J2,10,Pin_10*%
%TO.N,/A0 (D14)*%
X123135000Y-66965000D03*
D19*
%TO.P,J2,MP*%
%TO.N,N/C*%
X119885000Y-65065000D03*
X119885000Y-73365000D03*
%TD*%
D20*
%TO.N,/10(\u002A\u002A{slash}SS)*%
X136525000Y-102870000D02*
X137668000Y-101727000D01*
X116840000Y-102870000D02*
X136525000Y-102870000D01*
X137668000Y-101727000D02*
X139446000Y-101727000D01*
X116205000Y-103505000D02*
X116840000Y-102870000D01*
X116205000Y-107315000D02*
X116205000Y-103505000D01*
X118105000Y-109215000D02*
X116205000Y-107315000D01*
X118105000Y-112385000D02*
X118105000Y-109215000D01*
%TO.N,/12(MISO)*%
X120645000Y-106040000D02*
X121412000Y-106807000D01*
X120645000Y-104765000D02*
X120645000Y-106040000D01*
X121412000Y-106807000D02*
X139446000Y-106807000D01*
%TO.N,/11(\u002A\u002A{slash}MOSI)*%
X140462000Y-104267000D02*
X139446000Y-104267000D01*
X142875000Y-106680000D02*
X140462000Y-104267000D01*
X142875000Y-113030000D02*
X142875000Y-106680000D01*
X141605000Y-114300000D02*
X142875000Y-113030000D01*
X125100000Y-114300000D02*
X141605000Y-114300000D01*
X123185000Y-112385000D02*
X125100000Y-114300000D01*
%TO.N,/13(SCK)*%
X121920000Y-114935000D02*
X146558000Y-114935000D01*
X120645000Y-113660000D02*
X121920000Y-114935000D01*
X120645000Y-112385000D02*
X120645000Y-113660000D01*
X146558000Y-114935000D02*
X154686000Y-106807000D01*
%TO.N,GND*%
X123135000Y-69465000D02*
X123575000Y-69465000D01*
X123825000Y-69215000D02*
X123575000Y-68965000D01*
X123135000Y-68965000D02*
X123575000Y-68965000D01*
X123825000Y-69850000D02*
X123825000Y-69215000D01*
X123710000Y-69965000D02*
X123825000Y-69850000D01*
X123135000Y-69965000D02*
X123710000Y-69965000D01*
X124460000Y-98425000D02*
X124115000Y-98770000D01*
X124305000Y-98270000D02*
X124460000Y-98425000D01*
X123450000Y-98270000D02*
X124305000Y-98270000D01*
X124460000Y-98425000D02*
X124460000Y-97790000D01*
X123450000Y-98770000D02*
X124115000Y-98770000D01*
X124440000Y-97770000D02*
X124460000Y-97790000D01*
X123450000Y-97770000D02*
X124440000Y-97770000D01*
X124345000Y-97270000D02*
X124460000Y-97155000D01*
X123450000Y-97270000D02*
X124345000Y-97270000D01*
X124460000Y-97155000D02*
X124460000Y-97790000D01*
X124075000Y-96770000D02*
X124460000Y-97155000D01*
X123450000Y-96770000D02*
X124075000Y-96770000D01*
%TO.N,/Reset*%
X154686000Y-76327000D02*
X139446000Y-76327000D01*
%TO.N,GND*%
X124210000Y-82300000D02*
X124460000Y-82550000D01*
X124345000Y-81800000D02*
X124460000Y-81915000D01*
X123450000Y-81800000D02*
X124345000Y-81800000D01*
X124460000Y-81915000D02*
X124460000Y-82550000D01*
X124460000Y-82550000D02*
X124460000Y-83185000D01*
X123450000Y-82300000D02*
X124210000Y-82300000D01*
X124345000Y-83300000D02*
X123450000Y-83300000D01*
X124460000Y-83185000D02*
X124345000Y-83300000D01*
X123450000Y-82800000D02*
X124210000Y-82800000D01*
X124210000Y-82800000D02*
X124460000Y-82550000D01*
%TO.N,/2*%
X132080000Y-81915000D02*
X138938000Y-81915000D01*
X129540000Y-83820000D02*
X130175000Y-83820000D01*
X129520000Y-83800000D02*
X129540000Y-83820000D01*
X130175000Y-83820000D02*
X132080000Y-81915000D01*
X138938000Y-81915000D02*
X139446000Y-81407000D01*
X123450000Y-83800000D02*
X129520000Y-83800000D01*
%TO.N,/3(\u002A\u002A)*%
X139093000Y-84300000D02*
X139446000Y-83947000D01*
X123450000Y-84300000D02*
X139093000Y-84300000D01*
%TO.N,/4*%
X123450000Y-84800000D02*
X137759000Y-84800000D01*
X137759000Y-84800000D02*
X139446000Y-86487000D01*
%TO.N,/5(\u002A\u002A)*%
X123450000Y-85300000D02*
X135719000Y-85300000D01*
X135719000Y-85300000D02*
X139446000Y-89027000D01*
%TO.N,/6(\u002A\u002A)*%
X126075000Y-94270000D02*
X128778000Y-91567000D01*
X123450000Y-94270000D02*
X126075000Y-94270000D01*
X128778000Y-91567000D02*
X139446000Y-91567000D01*
%TO.N,/7*%
X127615000Y-95270000D02*
X128778000Y-94107000D01*
X123450000Y-95270000D02*
X127615000Y-95270000D01*
X128778000Y-94107000D02*
X139446000Y-94107000D01*
%TO.N,/8*%
X123450000Y-95770000D02*
X127520000Y-95770000D01*
X127520000Y-95770000D02*
X128397000Y-96647000D01*
X128397000Y-96647000D02*
X139446000Y-96647000D01*
%TO.N,/9(\u002A\u002A)*%
X123450000Y-96270000D02*
X126750000Y-96270000D01*
X129667000Y-99187000D02*
X139446000Y-99187000D01*
X126750000Y-96270000D02*
X129667000Y-99187000D01*
%TO.N,/A4 (D18)*%
X128905000Y-92710000D02*
X128950120Y-92755120D01*
X123450000Y-94770000D02*
X126845000Y-94770000D01*
X126845000Y-94770000D02*
X128905000Y-92710000D01*
X128950120Y-92755120D02*
X150957880Y-92755120D01*
X150957880Y-92755120D02*
X154686000Y-89027000D01*
%TO.N,/A5 (D19)*%
X134060000Y-85800000D02*
X138475120Y-90215120D01*
X150957880Y-90215120D02*
X154686000Y-86487000D01*
X138475120Y-90215120D02*
X150957880Y-90215120D01*
X123450000Y-85800000D02*
X134060000Y-85800000D01*
%TO.N,/A0 (D14)*%
X123135000Y-66965000D02*
X156500000Y-66965000D01*
X158750000Y-97790000D02*
X157353000Y-99187000D01*
X156500000Y-66965000D02*
X158750000Y-69215000D01*
X158750000Y-69215000D02*
X158750000Y-97790000D01*
X157353000Y-99187000D02*
X154686000Y-99187000D01*
%TO.N,/A1 (D15)*%
X123135000Y-67465000D02*
X156364282Y-67465000D01*
X157353000Y-96647000D02*
X154686000Y-96647000D01*
X156364282Y-67465000D02*
X158114641Y-69215359D01*
X158114641Y-69215359D02*
X158114641Y-95885359D01*
X158114641Y-95885359D02*
X157353000Y-96647000D01*
%TO.N,/A2 (D16)*%
X157479282Y-93345718D02*
X156718000Y-94107000D01*
X156718000Y-94107000D02*
X154686000Y-94107000D01*
X123135000Y-68465000D02*
X125210000Y-68465000D01*
X125210000Y-68465000D02*
X125730000Y-67945000D01*
X157479282Y-69215718D02*
X157479282Y-93345718D01*
X156208564Y-67945000D02*
X157479282Y-69215718D01*
X125730000Y-67945000D02*
X156208564Y-67945000D01*
%TO.N,/A3 (D17)*%
X127635000Y-68580000D02*
X156207846Y-68580000D01*
X123135000Y-71465000D02*
X124750000Y-71465000D01*
X156083000Y-91567000D02*
X154686000Y-91567000D01*
X157029762Y-90620238D02*
X156083000Y-91567000D01*
X156207846Y-68580000D02*
X157029762Y-69401916D01*
X124750000Y-71465000D02*
X127635000Y-68580000D01*
X157029762Y-69401916D02*
X157029762Y-90620238D01*
%TO.N,/A7 (D21)*%
X149987000Y-81407000D02*
X154686000Y-81407000D01*
X148635120Y-80055120D02*
X149987000Y-81407000D01*
X137556585Y-81300000D02*
X138801465Y-80055120D01*
X138801465Y-80055120D02*
X148635120Y-80055120D01*
X123450000Y-81300000D02*
X137556585Y-81300000D01*
%TD*%
%TA.AperFunction,Conductor*%
%TO.N,GND*%
G36*
X116734733Y-46229292D02*
G01*
X116744153Y-46228000D01*
X154830334Y-46228000D01*
X154834733Y-46229292D01*
X154844153Y-46228000D01*
X159386000Y-46228000D01*
X159454121Y-46248002D01*
X159500614Y-46301658D01*
X159512000Y-46354000D01*
X159512000Y-68798241D01*
X159491998Y-68866362D01*
X159438342Y-68912855D01*
X159368068Y-68922959D01*
X159303488Y-68893465D01*
X159284023Y-68872245D01*
X159283523Y-68871556D01*
X159277047Y-68861692D01*
X159258578Y-68830463D01*
X159254542Y-68823638D01*
X159240221Y-68809317D01*
X159227380Y-68794283D01*
X159220131Y-68784306D01*
X159215472Y-68777893D01*
X159181395Y-68749702D01*
X159172616Y-68741712D01*
X157003652Y-66572747D01*
X156996112Y-66564461D01*
X156992000Y-66557982D01*
X156942348Y-66511356D01*
X156939507Y-66508602D01*
X156919770Y-66488865D01*
X156916573Y-66486385D01*
X156907551Y-66478680D01*
X156895750Y-66467598D01*
X156875321Y-66448414D01*
X156868375Y-66444595D01*
X156868372Y-66444593D01*
X156857566Y-66438652D01*
X156841047Y-66427801D01*
X156840583Y-66427441D01*
X156825041Y-66415386D01*
X156817772Y-66412241D01*
X156817768Y-66412238D01*
X156784463Y-66397826D01*
X156773813Y-66392609D01*
X156735060Y-66371305D01*
X156715437Y-66366267D01*
X156696734Y-66359863D01*
X156685420Y-66354967D01*
X156685419Y-66354967D01*
X156678145Y-66351819D01*
X156670322Y-66350580D01*
X156670312Y-66350577D01*
X156634476Y-66344901D01*
X156622856Y-66342495D01*
X156587711Y-66333472D01*
X156587710Y-66333472D01*
X156580030Y-66331500D01*
X156559776Y-66331500D01*
X156540065Y-66329949D01*
X156527886Y-66328020D01*
X156520057Y-66326780D01*
X156512165Y-66327526D01*
X156476039Y-66330941D01*
X156464181Y-66331500D01*
X123966826Y-66331500D01*
X123922596Y-66323482D01*
X123895316Y-66313255D01*
X123833134Y-66306500D01*
X122436866Y-66306500D01*
X122374684Y-66313255D01*
X122238295Y-66364385D01*
X122121739Y-66451739D01*
X122034385Y-66568295D01*
X121983255Y-66704684D01*
X121976500Y-66766866D01*
X121976500Y-67163134D01*
X121976869Y-67166529D01*
X121976869Y-67166533D01*
X121980656Y-67201393D01*
X121980656Y-67228606D01*
X121976500Y-67266866D01*
X121976500Y-67663134D01*
X121976869Y-67666529D01*
X121976869Y-67666533D01*
X121980656Y-67701393D01*
X121980656Y-67728606D01*
X121976500Y-67766866D01*
X121976500Y-68163134D01*
X121976869Y-68166529D01*
X121976869Y-68166533D01*
X121980656Y-68201393D01*
X121980656Y-68228606D01*
X121976500Y-68266866D01*
X121976500Y-68663134D01*
X121980909Y-68703720D01*
X121980909Y-68730933D01*
X121977369Y-68763517D01*
X121977000Y-68770328D01*
X121977000Y-68796885D01*
X121981475Y-68812124D01*
X122007170Y-68834389D01*
X122006712Y-68834918D01*
X122019100Y-68841682D01*
X122034207Y-68861839D01*
X122034385Y-68861705D01*
X122073997Y-68914559D01*
X122098845Y-68981065D01*
X122083792Y-69050448D01*
X122033618Y-69100678D01*
X122008670Y-69111020D01*
X121979877Y-69119475D01*
X121978672Y-69120865D01*
X121977001Y-69128548D01*
X121977001Y-69159669D01*
X121977371Y-69166493D01*
X121981161Y-69201393D01*
X121981161Y-69228603D01*
X121977369Y-69263510D01*
X121977000Y-69270329D01*
X121977000Y-69296885D01*
X121981475Y-69312124D01*
X121982865Y-69313329D01*
X121990548Y-69315000D01*
X122966885Y-69315000D01*
X122982124Y-69310525D01*
X122983329Y-69309135D01*
X122985000Y-69301452D01*
X122985000Y-69249500D01*
X123005002Y-69181379D01*
X123058658Y-69134886D01*
X123111000Y-69123500D01*
X123159000Y-69123500D01*
X123227121Y-69143502D01*
X123273614Y-69197158D01*
X123285000Y-69249500D01*
X123285000Y-69296885D01*
X123289475Y-69312124D01*
X123290865Y-69313329D01*
X123298548Y-69315000D01*
X124274884Y-69315000D01*
X124290123Y-69310525D01*
X124291328Y-69309135D01*
X124292999Y-69301452D01*
X124292999Y-69270331D01*
X124292630Y-69263512D01*
X124289870Y-69238106D01*
X124302399Y-69168224D01*
X124350720Y-69116209D01*
X124415133Y-69098500D01*
X125131233Y-69098500D01*
X125142416Y-69099027D01*
X125149909Y-69100702D01*
X125157835Y-69100453D01*
X125157836Y-69100453D01*
X125217986Y-69098562D01*
X125221945Y-69098500D01*
X125249856Y-69098500D01*
X125253791Y-69098003D01*
X125253856Y-69097995D01*
X125265693Y-69097062D01*
X125297951Y-69096048D01*
X125301970Y-69095922D01*
X125309889Y-69095673D01*
X125329343Y-69090021D01*
X125348700Y-69086013D01*
X125360930Y-69084468D01*
X125360931Y-69084468D01*
X125368797Y-69083474D01*
X125376168Y-69080555D01*
X125376170Y-69080555D01*
X125409912Y-69067196D01*
X125421142Y-69063351D01*
X125455983Y-69053229D01*
X125455984Y-69053229D01*
X125463593Y-69051018D01*
X125470412Y-69046985D01*
X125470417Y-69046983D01*
X125481028Y-69040707D01*
X125498776Y-69032012D01*
X125517617Y-69024552D01*
X125553387Y-68998564D01*
X125563307Y-68992048D01*
X125594535Y-68973580D01*
X125594538Y-68973578D01*
X125601362Y-68969542D01*
X125615683Y-68955221D01*
X125630717Y-68942380D01*
X125640693Y-68935132D01*
X125647107Y-68930472D01*
X125675288Y-68896407D01*
X125683278Y-68887626D01*
X125955501Y-68615404D01*
X126017813Y-68581379D01*
X126044596Y-68578500D01*
X126436406Y-68578500D01*
X126504527Y-68598502D01*
X126551020Y-68652158D01*
X126561124Y-68722432D01*
X126531630Y-68787012D01*
X126525502Y-68793594D01*
X125523981Y-69795114D01*
X124524500Y-70794595D01*
X124462188Y-70828621D01*
X124435405Y-70831500D01*
X124415639Y-70831500D01*
X124347518Y-70811498D01*
X124301025Y-70757842D01*
X124290376Y-70691893D01*
X124293131Y-70666533D01*
X124293131Y-70666529D01*
X124293500Y-70663134D01*
X124293500Y-70266866D01*
X124289091Y-70226280D01*
X124289091Y-70199065D01*
X124292631Y-70166481D01*
X124293000Y-70159672D01*
X124293000Y-70133115D01*
X124288525Y-70117876D01*
X124262830Y-70095611D01*
X124263288Y-70095082D01*
X124250900Y-70088318D01*
X124235793Y-70068161D01*
X124235615Y-70068295D01*
X124219466Y-70046747D01*
X124196003Y-70015441D01*
X124171155Y-69948935D01*
X124186208Y-69879552D01*
X124236382Y-69829322D01*
X124261330Y-69818980D01*
X124290123Y-69810525D01*
X124291328Y-69809135D01*
X124292999Y-69801452D01*
X124292999Y-69770331D01*
X124292630Y-69763525D01*
X124288838Y-69728605D01*
X124288839Y-69701394D01*
X124292631Y-69666488D01*
X124293000Y-69659671D01*
X124293000Y-69633115D01*
X124288525Y-69617876D01*
X124287135Y-69616671D01*
X124279452Y-69615000D01*
X123303115Y-69615000D01*
X123287876Y-69619475D01*
X123286671Y-69620865D01*
X123285000Y-69628548D01*
X123285000Y-69680500D01*
X123264998Y-69748621D01*
X123211342Y-69795114D01*
X123159000Y-69806500D01*
X123111000Y-69806500D01*
X123042879Y-69786498D01*
X122996386Y-69732842D01*
X122985000Y-69680500D01*
X122985000Y-69633115D01*
X122980525Y-69617876D01*
X122979135Y-69616671D01*
X122971452Y-69615000D01*
X121995116Y-69615000D01*
X121979877Y-69619475D01*
X121978672Y-69620865D01*
X121977001Y-69628548D01*
X121977001Y-69659669D01*
X121977371Y-69666493D01*
X121981161Y-69701393D01*
X121981161Y-69728603D01*
X121977369Y-69763510D01*
X121977000Y-69770329D01*
X121977000Y-69796885D01*
X121981475Y-69812124D01*
X121982865Y-69813329D01*
X121999765Y-69817005D01*
X122062078Y-69851030D01*
X122096103Y-69913342D01*
X122091039Y-69984157D01*
X122073810Y-70015690D01*
X122052771Y-70043762D01*
X122034386Y-70068294D01*
X122034097Y-70068078D01*
X121987935Y-70114139D01*
X121982582Y-70116353D01*
X121978672Y-70120865D01*
X121977001Y-70128548D01*
X121977001Y-70159670D01*
X121977370Y-70166488D01*
X121980909Y-70199067D01*
X121980909Y-70226280D01*
X121976500Y-70266866D01*
X121976500Y-70663134D01*
X121976869Y-70666529D01*
X121976869Y-70666533D01*
X121980656Y-70701393D01*
X121980656Y-70728606D01*
X121976500Y-70766866D01*
X121976500Y-71163134D01*
X121976869Y-71166529D01*
X121976869Y-71166533D01*
X121980656Y-71201393D01*
X121980656Y-71228606D01*
X121976500Y-71266866D01*
X121976500Y-71663134D01*
X121983255Y-71725316D01*
X122034385Y-71861705D01*
X122121739Y-71978261D01*
X122238295Y-72065615D01*
X122374684Y-72116745D01*
X122436866Y-72123500D01*
X123833134Y-72123500D01*
X123895316Y-72116745D01*
X123922596Y-72106518D01*
X123966826Y-72098500D01*
X124671233Y-72098500D01*
X124682416Y-72099027D01*
X124689909Y-72100702D01*
X124697835Y-72100453D01*
X124697836Y-72100453D01*
X124757986Y-72098562D01*
X124761945Y-72098500D01*
X124789856Y-72098500D01*
X124793791Y-72098003D01*
X124793856Y-72097995D01*
X124805693Y-72097062D01*
X124837951Y-72096048D01*
X124841970Y-72095922D01*
X124849889Y-72095673D01*
X124869343Y-72090021D01*
X124888700Y-72086013D01*
X124900930Y-72084468D01*
X124900931Y-72084468D01*
X124908797Y-72083474D01*
X124916168Y-72080555D01*
X124916170Y-72080555D01*
X124949912Y-72067196D01*
X124961142Y-72063351D01*
X124995983Y-72053229D01*
X124995984Y-72053229D01*
X125003593Y-72051018D01*
X125010412Y-72046985D01*
X125010417Y-72046983D01*
X125021028Y-72040707D01*
X125038776Y-72032012D01*
X125057617Y-72024552D01*
X125093387Y-71998564D01*
X125103307Y-71992048D01*
X125134535Y-71973580D01*
X125134538Y-71973578D01*
X125141362Y-71969542D01*
X125155683Y-71955221D01*
X125170717Y-71942380D01*
X125180694Y-71935131D01*
X125187107Y-71930472D01*
X125215298Y-71896395D01*
X125223288Y-71887616D01*
X127860500Y-69250405D01*
X127922812Y-69216379D01*
X127949595Y-69213500D01*
X155893251Y-69213500D01*
X155961372Y-69233502D01*
X155982347Y-69250405D01*
X156359358Y-69627417D01*
X156393383Y-69689729D01*
X156396262Y-69716512D01*
X156396262Y-70794092D01*
X156376260Y-70862213D01*
X156322604Y-70908706D01*
X156252330Y-70918810D01*
X156187750Y-70889316D01*
X156153070Y-70840373D01*
X156131672Y-70786190D01*
X156071850Y-70634710D01*
X155951051Y-70435641D01*
X155798439Y-70259770D01*
X155794313Y-70256387D01*
X155794309Y-70256383D01*
X155673374Y-70157224D01*
X155618376Y-70112128D01*
X155613740Y-70109489D01*
X155613737Y-70109487D01*
X155420654Y-69999578D01*
X155416011Y-69996935D01*
X155410995Y-69995114D01*
X155410990Y-69995112D01*
X155202146Y-69919305D01*
X155202142Y-69919304D01*
X155197131Y-69917485D01*
X155191882Y-69916536D01*
X155191879Y-69916535D01*
X155111771Y-69902049D01*
X154967993Y-69876050D01*
X154963854Y-69875855D01*
X154963847Y-69875854D01*
X154945095Y-69874970D01*
X154945086Y-69874970D01*
X154943606Y-69874900D01*
X154475132Y-69874900D01*
X154407625Y-69880628D01*
X154306891Y-69889175D01*
X154306887Y-69889176D01*
X154301580Y-69889626D01*
X154296423Y-69890964D01*
X154296420Y-69890965D01*
X154081363Y-69946783D01*
X154081359Y-69946784D01*
X154076194Y-69948125D01*
X154071328Y-69950317D01*
X154071325Y-69950318D01*
X153926205Y-70015690D01*
X153863887Y-70043762D01*
X153859454Y-70046746D01*
X153859453Y-70046747D01*
X153833838Y-70063992D01*
X153670728Y-70173804D01*
X153666871Y-70177483D01*
X153666869Y-70177485D01*
X153638357Y-70204684D01*
X153502242Y-70334532D01*
X153363246Y-70521350D01*
X153257714Y-70728916D01*
X153244869Y-70770284D01*
X153190247Y-70946193D01*
X153190246Y-70946199D01*
X153188663Y-70951296D01*
X153158068Y-71182132D01*
X153166803Y-71414822D01*
X153214620Y-71642713D01*
X153300150Y-71859290D01*
X153420949Y-72058359D01*
X153424446Y-72062389D01*
X153553498Y-72211109D01*
X153573561Y-72234230D01*
X153577687Y-72237613D01*
X153577691Y-72237617D01*
X153673915Y-72316515D01*
X153753624Y-72381872D01*
X153799739Y-72408122D01*
X153849044Y-72459202D01*
X153862906Y-72528832D01*
X153836923Y-72594904D01*
X153807773Y-72622143D01*
X153675470Y-72711215D01*
X153667184Y-72717876D01*
X153506480Y-72871180D01*
X153499431Y-72879148D01*
X153366856Y-73057336D01*
X153361257Y-73066366D01*
X153260598Y-73264347D01*
X153256595Y-73274208D01*
X153190737Y-73486301D01*
X153188452Y-73496696D01*
X153186020Y-73515041D01*
X153188217Y-73529208D01*
X153201401Y-73533000D01*
X154814000Y-73533000D01*
X154882121Y-73553002D01*
X154928614Y-73606658D01*
X154940000Y-73659000D01*
X154940000Y-73915000D01*
X154919998Y-73983121D01*
X154866342Y-74029614D01*
X154814000Y-74041000D01*
X153203512Y-74041000D01*
X153189981Y-74044973D01*
X153188456Y-74055580D01*
X153214004Y-74177343D01*
X153217064Y-74187539D01*
X153298637Y-74394097D01*
X153303371Y-74403634D01*
X153418586Y-74593503D01*
X153424850Y-74602093D01*
X153570411Y-74769837D01*
X153578041Y-74777257D01*
X153749780Y-74918073D01*
X153758551Y-74924102D01*
X153799715Y-74947533D01*
X153849022Y-74998615D01*
X153862884Y-75068245D01*
X153836901Y-75134316D01*
X153807751Y-75161555D01*
X153670728Y-75253804D01*
X153502242Y-75414532D01*
X153363246Y-75601350D01*
X153351423Y-75624605D01*
X153302719Y-75676263D01*
X153239106Y-75693500D01*
X140889904Y-75693500D01*
X140821783Y-75673498D01*
X140782185Y-75632866D01*
X140765949Y-75606109D01*
X140711051Y-75515641D01*
X140558439Y-75339770D01*
X140554313Y-75336387D01*
X140554309Y-75336383D01*
X140382504Y-75195513D01*
X140378376Y-75192128D01*
X140373740Y-75189489D01*
X140373737Y-75189487D01*
X140332748Y-75166155D01*
X140283442Y-75115073D01*
X140269580Y-75045442D01*
X140295563Y-74979371D01*
X140324713Y-74952133D01*
X140376842Y-74917037D01*
X140461272Y-74860196D01*
X140629758Y-74699468D01*
X140768754Y-74512650D01*
X140874286Y-74305084D01*
X140928813Y-74129480D01*
X140941753Y-74087807D01*
X140941754Y-74087801D01*
X140943337Y-74082704D01*
X140960993Y-73949491D01*
X140973232Y-73857152D01*
X140973232Y-73857148D01*
X140973932Y-73851868D01*
X140965197Y-73619178D01*
X140925645Y-73430678D01*
X140918477Y-73396514D01*
X140918476Y-73396511D01*
X140917380Y-73391287D01*
X140831850Y-73174710D01*
X140711051Y-72975641D01*
X140558439Y-72799770D01*
X140554313Y-72796387D01*
X140554309Y-72796383D01*
X140382504Y-72655513D01*
X140378376Y-72652128D01*
X140373740Y-72649489D01*
X140373737Y-72649487D01*
X140332748Y-72626155D01*
X140283442Y-72575073D01*
X140269580Y-72505442D01*
X140295563Y-72439371D01*
X140324713Y-72412133D01*
X140421035Y-72347285D01*
X140461272Y-72320196D01*
X140629758Y-72159468D01*
X140768754Y-71972650D01*
X140874286Y-71765084D01*
X140937136Y-71562676D01*
X140941753Y-71547807D01*
X140941754Y-71547801D01*
X140943337Y-71542704D01*
X140973932Y-71311868D01*
X140965197Y-71079178D01*
X140929428Y-70908706D01*
X140918477Y-70856514D01*
X140918476Y-70856511D01*
X140917380Y-70851287D01*
X140831850Y-70634710D01*
X140711051Y-70435641D01*
X140558439Y-70259770D01*
X140554313Y-70256387D01*
X140554309Y-70256383D01*
X140433374Y-70157224D01*
X140378376Y-70112128D01*
X140373740Y-70109489D01*
X140373737Y-70109487D01*
X140180654Y-69999578D01*
X140176011Y-69996935D01*
X140170995Y-69995114D01*
X140170990Y-69995112D01*
X139962146Y-69919305D01*
X139962142Y-69919304D01*
X139957131Y-69917485D01*
X139951882Y-69916536D01*
X139951879Y-69916535D01*
X139871771Y-69902049D01*
X139727993Y-69876050D01*
X139723854Y-69875855D01*
X139723847Y-69875854D01*
X139705095Y-69874970D01*
X139705086Y-69874970D01*
X139703606Y-69874900D01*
X139235132Y-69874900D01*
X139167625Y-69880628D01*
X139066891Y-69889175D01*
X139066887Y-69889176D01*
X139061580Y-69889626D01*
X139056423Y-69890964D01*
X139056420Y-69890965D01*
X138841363Y-69946783D01*
X138841359Y-69946784D01*
X138836194Y-69948125D01*
X138831328Y-69950317D01*
X138831325Y-69950318D01*
X138686205Y-70015690D01*
X138623887Y-70043762D01*
X138619454Y-70046746D01*
X138619453Y-70046747D01*
X138593838Y-70063992D01*
X138430728Y-70173804D01*
X138426871Y-70177483D01*
X138426869Y-70177485D01*
X138398357Y-70204684D01*
X138262242Y-70334532D01*
X138123246Y-70521350D01*
X138017714Y-70728916D01*
X138004869Y-70770284D01*
X137950247Y-70946193D01*
X137950246Y-70946199D01*
X137948663Y-70951296D01*
X137918068Y-71182132D01*
X137926803Y-71414822D01*
X137974620Y-71642713D01*
X138060150Y-71859290D01*
X138180949Y-72058359D01*
X138184446Y-72062389D01*
X138313498Y-72211109D01*
X138333561Y-72234230D01*
X138337687Y-72237613D01*
X138337691Y-72237617D01*
X138433915Y-72316515D01*
X138513624Y-72381872D01*
X138518260Y-72384511D01*
X138518263Y-72384513D01*
X138559252Y-72407845D01*
X138608558Y-72458927D01*
X138622420Y-72528558D01*
X138596437Y-72594629D01*
X138567287Y-72621867D01*
X138526262Y-72649487D01*
X138430728Y-72713804D01*
X138262242Y-72874532D01*
X138123246Y-73061350D01*
X138017714Y-73268916D01*
X137983189Y-73380106D01*
X137950247Y-73486193D01*
X137950246Y-73486199D01*
X137948663Y-73491296D01*
X137933373Y-73606658D01*
X137926436Y-73659000D01*
X137918068Y-73722132D01*
X137926803Y-73954822D01*
X137927898Y-73960040D01*
X137957473Y-74100990D01*
X137974620Y-74182713D01*
X138060150Y-74399290D01*
X138180949Y-74598359D01*
X138184446Y-74602389D01*
X138324659Y-74763971D01*
X138333561Y-74774230D01*
X138337687Y-74777613D01*
X138337691Y-74777617D01*
X138433438Y-74856124D01*
X138513624Y-74921872D01*
X138518260Y-74924511D01*
X138518263Y-74924513D01*
X138559252Y-74947845D01*
X138608558Y-74998927D01*
X138622420Y-75068558D01*
X138596437Y-75134629D01*
X138567287Y-75161867D01*
X138560918Y-75166155D01*
X138430728Y-75253804D01*
X138262242Y-75414532D01*
X138123246Y-75601350D01*
X138017714Y-75808916D01*
X137997476Y-75874092D01*
X137950247Y-76026193D01*
X137950246Y-76026199D01*
X137948663Y-76031296D01*
X137945552Y-76054771D01*
X137920192Y-76246109D01*
X137918068Y-76262132D01*
X137926803Y-76494822D01*
X137974620Y-76722713D01*
X138060150Y-76939290D01*
X138180949Y-77138359D01*
X138333561Y-77314230D01*
X138337687Y-77317613D01*
X138337691Y-77317617D01*
X138433915Y-77396515D01*
X138513624Y-77461872D01*
X138559739Y-77488122D01*
X138609044Y-77539202D01*
X138622906Y-77608832D01*
X138596923Y-77674904D01*
X138567773Y-77702143D01*
X138435470Y-77791215D01*
X138427184Y-77797876D01*
X138266480Y-77951180D01*
X138259431Y-77959148D01*
X138126856Y-78137336D01*
X138121257Y-78146366D01*
X138020598Y-78344347D01*
X138016595Y-78354208D01*
X137950737Y-78566301D01*
X137948452Y-78576696D01*
X137946020Y-78595041D01*
X137948217Y-78609208D01*
X137961401Y-78613000D01*
X140928488Y-78613000D01*
X140942019Y-78609027D01*
X140943544Y-78598420D01*
X140917996Y-78476657D01*
X140914936Y-78466461D01*
X140833363Y-78259903D01*
X140828629Y-78250366D01*
X140713414Y-78060497D01*
X140707150Y-78051907D01*
X140561589Y-77884163D01*
X140553959Y-77876743D01*
X140382220Y-77735927D01*
X140373449Y-77729898D01*
X140332285Y-77706467D01*
X140282978Y-77655385D01*
X140269116Y-77585755D01*
X140295099Y-77519684D01*
X140324249Y-77492445D01*
X140461272Y-77400196D01*
X140629758Y-77239468D01*
X140768754Y-77052650D01*
X140780578Y-77029394D01*
X140829281Y-76977737D01*
X140892894Y-76960500D01*
X153242096Y-76960500D01*
X153310217Y-76980502D01*
X153349814Y-77021133D01*
X153420949Y-77138359D01*
X153573561Y-77314230D01*
X153577687Y-77317613D01*
X153577691Y-77317617D01*
X153673915Y-77396515D01*
X153753624Y-77461872D01*
X153758260Y-77464511D01*
X153758263Y-77464513D01*
X153799252Y-77487845D01*
X153848558Y-77538927D01*
X153862420Y-77608558D01*
X153836437Y-77674629D01*
X153807287Y-77701867D01*
X153766262Y-77729487D01*
X153670728Y-77793804D01*
X153502242Y-77954532D01*
X153363246Y-78141350D01*
X153257714Y-78348916D01*
X153256071Y-78354208D01*
X153190247Y-78566193D01*
X153190246Y-78566199D01*
X153188663Y-78571296D01*
X153185516Y-78595041D01*
X153159157Y-78793919D01*
X153158068Y-78802132D01*
X153166803Y-79034822D01*
X153214620Y-79262713D01*
X153300150Y-79479290D01*
X153420949Y-79678359D01*
X153424446Y-79682389D01*
X153520206Y-79792743D01*
X153573561Y-79854230D01*
X153577687Y-79857613D01*
X153577691Y-79857617D01*
X153673915Y-79936515D01*
X153753624Y-80001872D01*
X153758260Y-80004511D01*
X153758263Y-80004513D01*
X153799252Y-80027845D01*
X153848558Y-80078927D01*
X153862420Y-80148558D01*
X153836437Y-80214629D01*
X153807287Y-80241867D01*
X153670728Y-80333804D01*
X153502242Y-80494532D01*
X153401753Y-80629595D01*
X153389177Y-80646498D01*
X153363246Y-80681350D01*
X153351423Y-80704605D01*
X153302719Y-80756263D01*
X153239106Y-80773500D01*
X150301594Y-80773500D01*
X150233473Y-80753498D01*
X150212499Y-80736595D01*
X149690534Y-80214629D01*
X149138772Y-79662867D01*
X149131232Y-79654581D01*
X149127120Y-79648102D01*
X149077468Y-79601476D01*
X149074627Y-79598722D01*
X149054890Y-79578985D01*
X149051693Y-79576505D01*
X149042671Y-79568800D01*
X149037141Y-79563607D01*
X149010441Y-79538534D01*
X149003495Y-79534715D01*
X149003492Y-79534713D01*
X148992686Y-79528772D01*
X148976167Y-79517921D01*
X148975703Y-79517561D01*
X148960161Y-79505506D01*
X148952892Y-79502361D01*
X148952888Y-79502358D01*
X148919583Y-79487946D01*
X148908933Y-79482729D01*
X148870180Y-79461425D01*
X148850557Y-79456387D01*
X148831854Y-79449983D01*
X148820540Y-79445087D01*
X148820539Y-79445087D01*
X148813265Y-79441939D01*
X148805442Y-79440700D01*
X148805432Y-79440697D01*
X148769596Y-79435021D01*
X148757976Y-79432615D01*
X148722831Y-79423592D01*
X148722830Y-79423592D01*
X148715150Y-79421620D01*
X148694896Y-79421620D01*
X148675185Y-79420069D01*
X148663006Y-79418140D01*
X148655177Y-79416900D01*
X148647285Y-79417646D01*
X148611159Y-79421061D01*
X148599301Y-79421620D01*
X141033476Y-79421620D01*
X140965355Y-79401618D01*
X140918862Y-79347962D01*
X140908758Y-79277688D01*
X140913143Y-79258256D01*
X140941265Y-79167688D01*
X140943548Y-79157304D01*
X140945980Y-79138959D01*
X140943783Y-79124792D01*
X140930599Y-79121000D01*
X137963512Y-79121000D01*
X137949981Y-79124973D01*
X137948456Y-79135580D01*
X137974004Y-79257343D01*
X137977064Y-79267539D01*
X138058637Y-79474097D01*
X138063371Y-79483634D01*
X138168297Y-79656547D01*
X138186536Y-79725161D01*
X138164784Y-79792743D01*
X138149673Y-79811007D01*
X137331085Y-80629595D01*
X137268773Y-80663621D01*
X137241990Y-80666500D01*
X124730639Y-80666500D01*
X124662518Y-80646498D01*
X124616025Y-80592842D01*
X124605376Y-80526893D01*
X124608131Y-80501533D01*
X124608131Y-80501529D01*
X124608500Y-80498134D01*
X124608500Y-80101866D01*
X124604344Y-80063606D01*
X124604344Y-80036393D01*
X124608131Y-80001533D01*
X124608131Y-80001529D01*
X124608500Y-79998134D01*
X124608500Y-79601866D01*
X124604344Y-79563606D01*
X124604344Y-79536393D01*
X124608131Y-79501533D01*
X124608131Y-79501529D01*
X124608500Y-79498134D01*
X124608500Y-79101866D01*
X124601745Y-79039684D01*
X124550615Y-78903295D01*
X124463261Y-78786739D01*
X124346705Y-78699385D01*
X124210316Y-78648255D01*
X124148134Y-78641500D01*
X122751866Y-78641500D01*
X122689684Y-78648255D01*
X122553295Y-78699385D01*
X122436739Y-78786739D01*
X122349385Y-78903295D01*
X122298255Y-79039684D01*
X122291500Y-79101866D01*
X122291500Y-79498134D01*
X122291869Y-79501529D01*
X122291869Y-79501533D01*
X122295656Y-79536393D01*
X122295656Y-79563606D01*
X122291500Y-79601866D01*
X122291500Y-79998134D01*
X122291869Y-80001529D01*
X122291869Y-80001533D01*
X122295656Y-80036393D01*
X122295656Y-80063606D01*
X122291500Y-80101866D01*
X122291500Y-80498134D01*
X122291869Y-80501529D01*
X122291869Y-80501533D01*
X122295656Y-80536393D01*
X122295656Y-80563606D01*
X122291500Y-80601866D01*
X122291500Y-80998134D01*
X122291869Y-81001529D01*
X122291869Y-81001533D01*
X122295656Y-81036393D01*
X122295656Y-81063606D01*
X122291500Y-81101866D01*
X122291500Y-81498134D01*
X122295909Y-81538720D01*
X122295909Y-81565933D01*
X122292369Y-81598517D01*
X122292000Y-81605328D01*
X122292000Y-81631885D01*
X122296475Y-81647124D01*
X122322170Y-81669389D01*
X122321712Y-81669918D01*
X122334100Y-81676682D01*
X122349207Y-81696839D01*
X122349385Y-81696705D01*
X122357706Y-81707807D01*
X122388997Y-81749559D01*
X122413845Y-81816065D01*
X122398792Y-81885448D01*
X122348618Y-81935678D01*
X122323670Y-81946020D01*
X122294877Y-81954475D01*
X122293672Y-81955865D01*
X122292001Y-81963548D01*
X122292001Y-81994669D01*
X122292371Y-82001493D01*
X122296161Y-82036393D01*
X122296161Y-82063603D01*
X122292369Y-82098510D01*
X122292000Y-82105329D01*
X122292000Y-82131885D01*
X122296475Y-82147124D01*
X122297865Y-82148329D01*
X122305548Y-82150000D01*
X123281885Y-82150000D01*
X123297124Y-82145525D01*
X123298329Y-82144135D01*
X123300000Y-82136452D01*
X123300000Y-82084500D01*
X123320002Y-82016379D01*
X123373658Y-81969886D01*
X123426000Y-81958500D01*
X123474000Y-81958500D01*
X123542121Y-81978502D01*
X123588614Y-82032158D01*
X123600000Y-82084500D01*
X123600000Y-82131885D01*
X123604475Y-82147124D01*
X123605865Y-82148329D01*
X123613548Y-82150000D01*
X124589884Y-82150000D01*
X124605123Y-82145525D01*
X124606328Y-82144135D01*
X124607999Y-82136452D01*
X124607999Y-82105331D01*
X124607630Y-82098512D01*
X124604870Y-82073106D01*
X124617399Y-82003224D01*
X124665720Y-81951209D01*
X124730133Y-81933500D01*
X130861406Y-81933500D01*
X130929527Y-81953502D01*
X130976020Y-82007158D01*
X130986124Y-82077432D01*
X130956630Y-82142012D01*
X130950503Y-82148593D01*
X130449095Y-82650000D01*
X129949500Y-83149595D01*
X129887188Y-83183621D01*
X129860405Y-83186500D01*
X129706045Y-83186500D01*
X129686344Y-83184950D01*
X129654465Y-83179900D01*
X129642875Y-83177500D01*
X129600030Y-83166500D01*
X129579776Y-83166500D01*
X129560065Y-83164949D01*
X129547886Y-83163020D01*
X129540057Y-83161780D01*
X129532165Y-83162526D01*
X129496039Y-83165941D01*
X129484181Y-83166500D01*
X124730134Y-83166500D01*
X124662013Y-83146498D01*
X124615520Y-83092842D01*
X124604871Y-83026893D01*
X124607631Y-83001488D01*
X124608000Y-82994671D01*
X124608000Y-82968115D01*
X124603525Y-82952876D01*
X124602135Y-82951671D01*
X124594452Y-82950000D01*
X123618115Y-82950000D01*
X123602876Y-82954475D01*
X123601671Y-82955865D01*
X123600000Y-82963548D01*
X123600000Y-83015500D01*
X123579998Y-83083621D01*
X123526342Y-83130114D01*
X123474000Y-83141500D01*
X123426000Y-83141500D01*
X123357879Y-83121498D01*
X123311386Y-83067842D01*
X123300000Y-83015500D01*
X123300000Y-82968115D01*
X123295525Y-82952876D01*
X123294135Y-82951671D01*
X123286452Y-82950000D01*
X122310116Y-82950000D01*
X122294877Y-82954475D01*
X122293672Y-82955865D01*
X122292001Y-82963548D01*
X122292001Y-82994669D01*
X122292371Y-83001493D01*
X122296161Y-83036393D01*
X122296161Y-83063603D01*
X122292369Y-83098510D01*
X122292000Y-83105329D01*
X122292000Y-83131885D01*
X122296475Y-83147124D01*
X122297865Y-83148329D01*
X122314765Y-83152005D01*
X122377078Y-83186030D01*
X122411103Y-83248342D01*
X122406039Y-83319157D01*
X122388810Y-83350690D01*
X122349386Y-83403294D01*
X122349097Y-83403078D01*
X122302935Y-83449139D01*
X122297582Y-83451353D01*
X122293672Y-83455865D01*
X122292001Y-83463548D01*
X122292001Y-83494670D01*
X122292370Y-83501488D01*
X122295909Y-83534067D01*
X122295909Y-83561280D01*
X122291500Y-83601866D01*
X122291500Y-83998134D01*
X122291869Y-84001529D01*
X122291869Y-84001533D01*
X122295656Y-84036393D01*
X122295656Y-84063606D01*
X122291500Y-84101866D01*
X122291500Y-84498134D01*
X122291869Y-84501529D01*
X122291869Y-84501533D01*
X122295656Y-84536393D01*
X122295656Y-84563606D01*
X122291500Y-84601866D01*
X122291500Y-84998134D01*
X122291869Y-85001529D01*
X122291869Y-85001533D01*
X122295656Y-85036393D01*
X122295656Y-85063606D01*
X122291500Y-85101866D01*
X122291500Y-85498134D01*
X122291869Y-85501529D01*
X122291869Y-85501533D01*
X122295656Y-85536393D01*
X122295656Y-85563606D01*
X122291500Y-85601866D01*
X122291500Y-85998134D01*
X122298255Y-86060316D01*
X122349385Y-86196705D01*
X122436739Y-86313261D01*
X122553295Y-86400615D01*
X122689684Y-86451745D01*
X122751866Y-86458500D01*
X124148134Y-86458500D01*
X124210316Y-86451745D01*
X124237596Y-86441518D01*
X124281826Y-86433500D01*
X133745406Y-86433500D01*
X133813527Y-86453502D01*
X133834501Y-86470405D01*
X137971463Y-90607367D01*
X137979007Y-90615657D01*
X137983120Y-90622138D01*
X137988897Y-90627563D01*
X138032787Y-90668778D01*
X138035629Y-90671533D01*
X138055351Y-90691255D01*
X138058475Y-90693678D01*
X138058479Y-90693682D01*
X138058544Y-90693732D01*
X138067563Y-90701435D01*
X138071723Y-90705341D01*
X138082699Y-90715648D01*
X138118666Y-90776860D01*
X138115830Y-90847800D01*
X138075091Y-90905945D01*
X138009383Y-90932834D01*
X137996448Y-90933500D01*
X128856767Y-90933500D01*
X128845584Y-90932973D01*
X128838091Y-90931298D01*
X128830165Y-90931547D01*
X128830164Y-90931547D01*
X128770014Y-90933438D01*
X128766055Y-90933500D01*
X128738144Y-90933500D01*
X128734210Y-90933997D01*
X128734209Y-90933997D01*
X128734144Y-90934005D01*
X128722307Y-90934938D01*
X128690490Y-90935938D01*
X128686029Y-90936078D01*
X128678110Y-90936327D01*
X128660454Y-90941456D01*
X128658658Y-90941978D01*
X128639306Y-90945986D01*
X128632235Y-90946880D01*
X128619203Y-90948526D01*
X128611834Y-90951443D01*
X128611832Y-90951444D01*
X128578097Y-90964800D01*
X128566869Y-90968645D01*
X128524407Y-90980982D01*
X128517585Y-90985016D01*
X128517579Y-90985019D01*
X128506968Y-90991294D01*
X128489218Y-90999990D01*
X128477756Y-91004528D01*
X128477751Y-91004531D01*
X128470383Y-91007448D01*
X128453953Y-91019385D01*
X128434625Y-91033427D01*
X128424707Y-91039943D01*
X128406019Y-91050995D01*
X128386637Y-91062458D01*
X128372313Y-91076782D01*
X128357281Y-91089621D01*
X128340893Y-91101528D01*
X128312712Y-91135593D01*
X128304722Y-91144373D01*
X125849500Y-93599595D01*
X125787188Y-93633621D01*
X125760405Y-93636500D01*
X124281826Y-93636500D01*
X124237596Y-93628482D01*
X124210316Y-93618255D01*
X124148134Y-93611500D01*
X122751866Y-93611500D01*
X122689684Y-93618255D01*
X122553295Y-93669385D01*
X122436739Y-93756739D01*
X122349385Y-93873295D01*
X122298255Y-94009684D01*
X122291500Y-94071866D01*
X122291500Y-94468134D01*
X122291869Y-94471529D01*
X122291869Y-94471533D01*
X122295656Y-94506393D01*
X122295656Y-94533606D01*
X122291500Y-94571866D01*
X122291500Y-94968134D01*
X122291869Y-94971529D01*
X122291869Y-94971533D01*
X122295656Y-95006393D01*
X122295656Y-95033606D01*
X122291500Y-95071866D01*
X122291500Y-95468134D01*
X122291869Y-95471529D01*
X122291869Y-95471533D01*
X122295656Y-95506393D01*
X122295656Y-95533606D01*
X122291500Y-95571866D01*
X122291500Y-95968134D01*
X122291869Y-95971529D01*
X122291869Y-95971533D01*
X122295656Y-96006393D01*
X122295656Y-96033606D01*
X122291500Y-96071866D01*
X122291500Y-96468134D01*
X122295909Y-96508720D01*
X122295909Y-96535933D01*
X122292369Y-96568517D01*
X122292000Y-96575328D01*
X122292000Y-96601885D01*
X122296475Y-96617124D01*
X122322170Y-96639389D01*
X122321712Y-96639918D01*
X122334100Y-96646682D01*
X122349207Y-96666839D01*
X122349385Y-96666705D01*
X122379238Y-96706537D01*
X122388997Y-96719559D01*
X122413845Y-96786065D01*
X122398792Y-96855448D01*
X122348618Y-96905678D01*
X122323670Y-96916020D01*
X122294877Y-96924475D01*
X122293672Y-96925865D01*
X122292001Y-96933548D01*
X122292001Y-96964669D01*
X122292371Y-96971493D01*
X122296161Y-97006393D01*
X122296161Y-97033603D01*
X122292369Y-97068510D01*
X122292000Y-97075329D01*
X122292000Y-97101885D01*
X122296475Y-97117124D01*
X122297865Y-97118329D01*
X122305548Y-97120000D01*
X123281885Y-97120000D01*
X123297124Y-97115525D01*
X123298329Y-97114135D01*
X123300000Y-97106452D01*
X123300000Y-97054500D01*
X123320002Y-96986379D01*
X123373658Y-96939886D01*
X123426000Y-96928500D01*
X123474000Y-96928500D01*
X123542121Y-96948502D01*
X123588614Y-97002158D01*
X123600000Y-97054500D01*
X123600000Y-97101885D01*
X123604475Y-97117124D01*
X123605865Y-97118329D01*
X123613548Y-97120000D01*
X124589884Y-97120000D01*
X124605123Y-97115525D01*
X124606328Y-97114135D01*
X124607999Y-97106452D01*
X124607999Y-97075331D01*
X124607630Y-97068512D01*
X124604870Y-97043106D01*
X124617399Y-96973224D01*
X124665720Y-96921209D01*
X124730133Y-96903500D01*
X126435406Y-96903500D01*
X126503527Y-96923502D01*
X126524501Y-96940405D01*
X129163348Y-99579253D01*
X129170888Y-99587539D01*
X129175000Y-99594018D01*
X129180777Y-99599443D01*
X129224651Y-99640643D01*
X129227493Y-99643398D01*
X129247230Y-99663135D01*
X129250427Y-99665615D01*
X129259447Y-99673318D01*
X129291679Y-99703586D01*
X129298625Y-99707405D01*
X129298628Y-99707407D01*
X129309434Y-99713348D01*
X129325953Y-99724199D01*
X129341959Y-99736614D01*
X129349228Y-99739759D01*
X129349232Y-99739762D01*
X129382537Y-99754174D01*
X129393187Y-99759391D01*
X129431940Y-99780695D01*
X129439615Y-99782666D01*
X129439616Y-99782666D01*
X129451562Y-99785733D01*
X129470267Y-99792137D01*
X129488855Y-99800181D01*
X129496678Y-99801420D01*
X129496688Y-99801423D01*
X129532524Y-99807099D01*
X129544144Y-99809505D01*
X129575959Y-99817673D01*
X129586970Y-99820500D01*
X129607224Y-99820500D01*
X129626934Y-99822051D01*
X129646943Y-99825220D01*
X129654835Y-99824474D01*
X129673580Y-99822702D01*
X129690962Y-99821059D01*
X129702819Y-99820500D01*
X138002096Y-99820500D01*
X138070217Y-99840502D01*
X138109814Y-99881133D01*
X138180949Y-99998359D01*
X138333561Y-100174230D01*
X138337687Y-100177613D01*
X138337691Y-100177617D01*
X138433915Y-100256515D01*
X138513624Y-100321872D01*
X138518260Y-100324511D01*
X138518263Y-100324513D01*
X138559252Y-100347845D01*
X138608558Y-100398927D01*
X138622420Y-100468558D01*
X138596437Y-100534629D01*
X138567287Y-100561867D01*
X138430728Y-100653804D01*
X138262242Y-100814532D01*
X138123246Y-101001350D01*
X138111423Y-101024605D01*
X138062719Y-101076263D01*
X137999106Y-101093500D01*
X137746767Y-101093500D01*
X137735584Y-101092973D01*
X137728091Y-101091298D01*
X137720165Y-101091547D01*
X137720164Y-101091547D01*
X137660014Y-101093438D01*
X137656055Y-101093500D01*
X137628144Y-101093500D01*
X137624210Y-101093997D01*
X137624209Y-101093997D01*
X137624144Y-101094005D01*
X137612307Y-101094938D01*
X137580490Y-101095938D01*
X137576029Y-101096078D01*
X137568110Y-101096327D01*
X137550454Y-101101456D01*
X137548658Y-101101978D01*
X137529306Y-101105986D01*
X137522235Y-101106880D01*
X137509203Y-101108526D01*
X137501834Y-101111443D01*
X137501832Y-101111444D01*
X137468097Y-101124800D01*
X137456869Y-101128645D01*
X137414407Y-101140982D01*
X137407584Y-101145017D01*
X137407582Y-101145018D01*
X137396972Y-101151293D01*
X137379224Y-101159988D01*
X137360383Y-101167448D01*
X137353967Y-101172110D01*
X137353966Y-101172110D01*
X137324613Y-101193436D01*
X137314693Y-101199952D01*
X137283465Y-101218420D01*
X137283462Y-101218422D01*
X137276638Y-101222458D01*
X137262317Y-101236779D01*
X137247284Y-101249619D01*
X137230893Y-101261528D01*
X137225843Y-101267632D01*
X137225838Y-101267637D01*
X137202707Y-101295598D01*
X137194717Y-101304379D01*
X136299499Y-102199596D01*
X136237187Y-102233621D01*
X136210404Y-102236500D01*
X121636869Y-102236500D01*
X121568748Y-102216498D01*
X121522255Y-102162842D01*
X121512151Y-102092568D01*
X121541645Y-102027988D01*
X121561304Y-102009674D01*
X121656080Y-101938643D01*
X121656081Y-101938642D01*
X121663261Y-101933261D01*
X121750615Y-101816705D01*
X121801745Y-101680316D01*
X121808500Y-101618134D01*
X121808500Y-99721866D01*
X121801745Y-99659684D01*
X121750615Y-99523295D01*
X121663261Y-99406739D01*
X121546705Y-99319385D01*
X121410316Y-99268255D01*
X121348134Y-99261500D01*
X119051866Y-99261500D01*
X118989684Y-99268255D01*
X118853295Y-99319385D01*
X118736739Y-99406739D01*
X118649385Y-99523295D01*
X118598255Y-99659684D01*
X118591500Y-99721866D01*
X118591500Y-101618134D01*
X118598255Y-101680316D01*
X118649385Y-101816705D01*
X118736739Y-101933261D01*
X118743919Y-101938642D01*
X118743920Y-101938643D01*
X118838696Y-102009674D01*
X118881211Y-102066533D01*
X118886237Y-102137352D01*
X118852177Y-102199645D01*
X118789845Y-102233635D01*
X118763131Y-102236500D01*
X116918768Y-102236500D01*
X116907585Y-102235973D01*
X116900092Y-102234298D01*
X116892166Y-102234547D01*
X116892165Y-102234547D01*
X116832002Y-102236438D01*
X116828044Y-102236500D01*
X116800144Y-102236500D01*
X116796154Y-102237004D01*
X116784320Y-102237936D01*
X116740111Y-102239326D01*
X116732495Y-102241539D01*
X116732493Y-102241539D01*
X116720652Y-102244979D01*
X116701293Y-102248988D01*
X116699983Y-102249154D01*
X116681203Y-102251526D01*
X116673837Y-102254442D01*
X116673831Y-102254444D01*
X116640098Y-102267800D01*
X116628868Y-102271645D01*
X116594017Y-102281770D01*
X116586407Y-102283981D01*
X116579584Y-102288016D01*
X116568966Y-102294295D01*
X116551213Y-102302992D01*
X116543568Y-102306019D01*
X116532383Y-102310448D01*
X116525968Y-102315109D01*
X116496612Y-102336437D01*
X116486695Y-102342951D01*
X116448638Y-102365458D01*
X116434317Y-102379779D01*
X116419284Y-102392619D01*
X116402893Y-102404528D01*
X116376516Y-102436413D01*
X116374712Y-102438593D01*
X116366722Y-102447374D01*
X115812742Y-103001353D01*
X115804463Y-103008887D01*
X115797982Y-103013000D01*
X115758473Y-103055073D01*
X115751357Y-103062651D01*
X115748602Y-103065493D01*
X115728865Y-103085230D01*
X115726385Y-103088427D01*
X115718682Y-103097447D01*
X115688414Y-103129679D01*
X115684595Y-103136625D01*
X115684593Y-103136628D01*
X115678652Y-103147434D01*
X115667801Y-103163953D01*
X115655386Y-103179959D01*
X115652241Y-103187228D01*
X115652238Y-103187232D01*
X115637826Y-103220537D01*
X115632609Y-103231187D01*
X115611305Y-103269940D01*
X115609334Y-103277615D01*
X115609334Y-103277616D01*
X115606267Y-103289562D01*
X115599863Y-103308266D01*
X115591819Y-103326855D01*
X115590580Y-103334678D01*
X115590577Y-103334688D01*
X115584901Y-103370524D01*
X115582495Y-103382144D01*
X115571500Y-103424970D01*
X115571500Y-103445224D01*
X115569949Y-103464934D01*
X115566780Y-103484943D01*
X115567526Y-103492835D01*
X115570941Y-103528961D01*
X115571500Y-103540819D01*
X115571500Y-107236233D01*
X115570973Y-107247416D01*
X115569298Y-107254909D01*
X115569547Y-107262835D01*
X115569547Y-107262836D01*
X115571438Y-107322986D01*
X115571500Y-107326945D01*
X115571500Y-107354856D01*
X115571997Y-107358790D01*
X115571997Y-107358791D01*
X115572005Y-107358856D01*
X115572938Y-107370693D01*
X115574327Y-107414889D01*
X115579978Y-107434339D01*
X115583987Y-107453700D01*
X115586526Y-107473797D01*
X115589445Y-107481168D01*
X115589445Y-107481170D01*
X115602804Y-107514912D01*
X115606649Y-107526142D01*
X115618982Y-107568593D01*
X115623015Y-107575412D01*
X115623017Y-107575417D01*
X115629293Y-107586028D01*
X115637988Y-107603776D01*
X115645448Y-107622617D01*
X115650110Y-107629033D01*
X115650110Y-107629034D01*
X115671436Y-107658387D01*
X115677952Y-107668307D01*
X115700458Y-107706362D01*
X115714779Y-107720683D01*
X115727619Y-107735716D01*
X115739528Y-107752107D01*
X115745634Y-107757158D01*
X115773605Y-107780298D01*
X115782384Y-107788288D01*
X117434595Y-109440500D01*
X117468621Y-109502812D01*
X117471500Y-109529595D01*
X117471500Y-110950500D01*
X117451498Y-111018621D01*
X117397842Y-111065114D01*
X117345500Y-111076500D01*
X117256866Y-111076500D01*
X117194684Y-111083255D01*
X117058295Y-111134385D01*
X116941739Y-111221739D01*
X116854385Y-111338295D01*
X116803255Y-111474684D01*
X116796500Y-111536866D01*
X116796500Y-113233134D01*
X116803255Y-113295316D01*
X116854385Y-113431705D01*
X116941739Y-113548261D01*
X117058295Y-113635615D01*
X117194684Y-113686745D01*
X117256866Y-113693500D01*
X118953134Y-113693500D01*
X119015316Y-113686745D01*
X119151705Y-113635615D01*
X119268261Y-113548261D01*
X119355615Y-113431705D01*
X119406745Y-113295316D01*
X119407917Y-113284526D01*
X119408803Y-113282394D01*
X119409425Y-113279778D01*
X119409848Y-113279879D01*
X119435155Y-113218965D01*
X119493517Y-113178537D01*
X119564471Y-113176078D01*
X119625490Y-113212371D01*
X119632489Y-113221031D01*
X119635643Y-113224789D01*
X119638802Y-113229300D01*
X119800700Y-113391198D01*
X119805208Y-113394355D01*
X119805211Y-113394357D01*
X119955717Y-113499743D01*
X120000045Y-113555200D01*
X120006694Y-113599991D01*
X120009298Y-113599909D01*
X120011438Y-113667986D01*
X120011500Y-113671945D01*
X120011500Y-113699856D01*
X120011997Y-113703790D01*
X120011997Y-113703791D01*
X120012005Y-113703856D01*
X120012938Y-113715693D01*
X120014327Y-113759889D01*
X120019978Y-113779339D01*
X120023987Y-113798700D01*
X120026526Y-113818797D01*
X120029445Y-113826168D01*
X120029445Y-113826170D01*
X120042804Y-113859912D01*
X120046649Y-113871142D01*
X120058982Y-113913593D01*
X120063015Y-113920412D01*
X120063017Y-113920417D01*
X120069293Y-113931028D01*
X120077988Y-113948776D01*
X120085448Y-113967617D01*
X120090110Y-113974033D01*
X120090110Y-113974034D01*
X120111436Y-114003387D01*
X120117952Y-114013307D01*
X120140458Y-114051362D01*
X120154779Y-114065683D01*
X120167619Y-114080716D01*
X120179528Y-114097107D01*
X120185634Y-114102158D01*
X120213605Y-114125298D01*
X120222384Y-114133288D01*
X121416343Y-115327247D01*
X121423887Y-115335537D01*
X121428000Y-115342018D01*
X121433777Y-115347443D01*
X121477667Y-115388658D01*
X121480509Y-115391413D01*
X121500230Y-115411134D01*
X121503425Y-115413612D01*
X121512447Y-115421318D01*
X121544679Y-115451586D01*
X121551628Y-115455406D01*
X121562432Y-115461346D01*
X121578956Y-115472199D01*
X121594959Y-115484613D01*
X121635543Y-115502176D01*
X121646173Y-115507383D01*
X121684940Y-115528695D01*
X121692617Y-115530666D01*
X121692622Y-115530668D01*
X121704558Y-115533732D01*
X121723266Y-115540137D01*
X121741855Y-115548181D01*
X121749683Y-115549421D01*
X121749690Y-115549423D01*
X121785524Y-115555099D01*
X121797144Y-115557505D01*
X121828959Y-115565673D01*
X121839970Y-115568500D01*
X121860224Y-115568500D01*
X121879934Y-115570051D01*
X121899943Y-115573220D01*
X121907835Y-115572474D01*
X121926580Y-115570702D01*
X121943962Y-115569059D01*
X121955819Y-115568500D01*
X126864478Y-115568500D01*
X126932599Y-115588502D01*
X126979092Y-115642158D01*
X126989196Y-115712432D01*
X126978935Y-115743203D01*
X126979828Y-115743538D01*
X126931522Y-115872394D01*
X126927895Y-115887649D01*
X126922369Y-115938514D01*
X126922000Y-115945328D01*
X126922000Y-116567885D01*
X126926475Y-116583124D01*
X126927865Y-116584329D01*
X126935548Y-116586000D01*
X128408000Y-116586000D01*
X128476121Y-116606002D01*
X128522614Y-116659658D01*
X128534000Y-116712000D01*
X128534000Y-118179884D01*
X128538475Y-118195123D01*
X128539865Y-118196328D01*
X128547548Y-118197999D01*
X129174669Y-118197999D01*
X129181490Y-118197629D01*
X129232352Y-118192105D01*
X129247604Y-118188479D01*
X129368054Y-118143324D01*
X129383649Y-118134786D01*
X129485724Y-118058285D01*
X129498285Y-118045724D01*
X129574786Y-117943649D01*
X129583324Y-117928054D01*
X129624225Y-117818952D01*
X129666867Y-117762188D01*
X129733428Y-117737488D01*
X129802777Y-117752696D01*
X129837444Y-117780684D01*
X129862865Y-117810031D01*
X129862869Y-117810035D01*
X129866250Y-117813938D01*
X130038126Y-117956632D01*
X130231000Y-118069338D01*
X130439692Y-118149030D01*
X130444760Y-118150061D01*
X130444763Y-118150062D01*
X130552017Y-118171883D01*
X130658597Y-118193567D01*
X130663772Y-118193757D01*
X130663774Y-118193757D01*
X130876673Y-118201564D01*
X130876677Y-118201564D01*
X130881837Y-118201753D01*
X130886957Y-118201097D01*
X130886959Y-118201097D01*
X131098288Y-118174025D01*
X131098289Y-118174025D01*
X131103416Y-118173368D01*
X131108366Y-118171883D01*
X131312429Y-118110661D01*
X131312434Y-118110659D01*
X131317384Y-118109174D01*
X131517994Y-118010896D01*
X131699860Y-117881173D01*
X131858096Y-117723489D01*
X131974731Y-117561174D01*
X131988453Y-117542077D01*
X131989776Y-117543028D01*
X132036645Y-117499857D01*
X132106580Y-117487625D01*
X132172026Y-117515144D01*
X132199875Y-117546994D01*
X132259987Y-117645088D01*
X132406250Y-117813938D01*
X132578126Y-117956632D01*
X132771000Y-118069338D01*
X132979692Y-118149030D01*
X132984760Y-118150061D01*
X132984763Y-118150062D01*
X133092017Y-118171883D01*
X133198597Y-118193567D01*
X133203772Y-118193757D01*
X133203774Y-118193757D01*
X133416673Y-118201564D01*
X133416677Y-118201564D01*
X133421837Y-118201753D01*
X133426957Y-118201097D01*
X133426959Y-118201097D01*
X133638288Y-118174025D01*
X133638289Y-118174025D01*
X133643416Y-118173368D01*
X133648366Y-118171883D01*
X133852429Y-118110661D01*
X133852434Y-118110659D01*
X133857384Y-118109174D01*
X134057994Y-118010896D01*
X134239860Y-117881173D01*
X134398096Y-117723489D01*
X134514731Y-117561174D01*
X134528453Y-117542077D01*
X134529776Y-117543028D01*
X134576645Y-117499857D01*
X134646580Y-117487625D01*
X134712026Y-117515144D01*
X134739875Y-117546994D01*
X134799987Y-117645088D01*
X134946250Y-117813938D01*
X135118126Y-117956632D01*
X135311000Y-118069338D01*
X135519692Y-118149030D01*
X135524760Y-118150061D01*
X135524763Y-118150062D01*
X135632017Y-118171883D01*
X135738597Y-118193567D01*
X135743772Y-118193757D01*
X135743774Y-118193757D01*
X135956673Y-118201564D01*
X135956677Y-118201564D01*
X135961837Y-118201753D01*
X135966957Y-118201097D01*
X135966959Y-118201097D01*
X136178288Y-118174025D01*
X136178289Y-118174025D01*
X136183416Y-118173368D01*
X136188366Y-118171883D01*
X136392429Y-118110661D01*
X136392434Y-118110659D01*
X136397384Y-118109174D01*
X136597994Y-118010896D01*
X136779860Y-117881173D01*
X136938096Y-117723489D01*
X137068453Y-117542077D01*
X137089320Y-117499857D01*
X137165136Y-117346453D01*
X137165137Y-117346451D01*
X137167430Y-117341811D01*
X137232370Y-117128069D01*
X137261529Y-116906590D01*
X137263156Y-116840000D01*
X137244852Y-116617361D01*
X137190431Y-116400702D01*
X137101354Y-116195840D01*
X137077077Y-116158314D01*
X153157124Y-116158314D01*
X153157348Y-116162980D01*
X153157348Y-116162985D01*
X153159518Y-116208160D01*
X153169807Y-116422352D01*
X153221378Y-116681616D01*
X153222957Y-116686014D01*
X153222959Y-116686021D01*
X153284065Y-116856214D01*
X153310704Y-116930410D01*
X153312921Y-116934536D01*
X153416910Y-117128069D01*
X153435822Y-117163267D01*
X153438617Y-117167011D01*
X153438619Y-117167013D01*
X153521743Y-117278329D01*
X153593985Y-117375073D01*
X153597292Y-117378351D01*
X153597297Y-117378357D01*
X153778402Y-117557887D01*
X153781718Y-117561174D01*
X153785485Y-117563936D01*
X153785486Y-117563937D01*
X153903312Y-117650331D01*
X153994896Y-117717483D01*
X153999031Y-117719659D01*
X153999035Y-117719661D01*
X154079866Y-117762188D01*
X154228836Y-117840565D01*
X154345120Y-117881173D01*
X154437202Y-117913329D01*
X154478400Y-117927716D01*
X154482993Y-117928588D01*
X154733515Y-117976151D01*
X154733518Y-117976151D01*
X154738104Y-117977022D01*
X154870174Y-117982212D01*
X154997575Y-117987218D01*
X154997581Y-117987218D01*
X155002243Y-117987401D01*
X155265015Y-117958622D01*
X155269526Y-117957434D01*
X155269528Y-117957434D01*
X155516124Y-117892511D01*
X155516126Y-117892510D01*
X155520647Y-117891320D01*
X155544265Y-117881173D01*
X155759229Y-117788817D01*
X155759231Y-117788816D01*
X155763523Y-117786972D01*
X155988307Y-117647871D01*
X156080841Y-117569536D01*
X156186496Y-117480093D01*
X156186498Y-117480091D01*
X156190063Y-117477073D01*
X156364356Y-117278329D01*
X156384097Y-117247639D01*
X156480042Y-117098475D01*
X156507359Y-117056006D01*
X156615930Y-116814988D01*
X156618539Y-116805739D01*
X156652302Y-116686021D01*
X156687683Y-116560570D01*
X156705861Y-116417680D01*
X156720645Y-116301471D01*
X156720645Y-116301465D01*
X156721043Y-116298340D01*
X156723487Y-116205000D01*
X156713941Y-116076542D01*
X156704243Y-115946036D01*
X156704242Y-115946032D01*
X156703897Y-115941384D01*
X156645557Y-115683559D01*
X156629457Y-115642158D01*
X156551442Y-115441542D01*
X156551441Y-115441540D01*
X156549749Y-115437189D01*
X156538353Y-115417249D01*
X156473223Y-115303296D01*
X156418578Y-115207687D01*
X156254925Y-115000094D01*
X156062385Y-114818970D01*
X156025212Y-114793182D01*
X155849026Y-114670958D01*
X155849021Y-114670955D01*
X155845188Y-114668296D01*
X155840997Y-114666229D01*
X155612294Y-114553445D01*
X155612291Y-114553444D01*
X155608106Y-114551380D01*
X155551150Y-114533148D01*
X155360792Y-114472214D01*
X155360794Y-114472214D01*
X155356347Y-114470791D01*
X155213825Y-114447580D01*
X155100053Y-114429051D01*
X155100052Y-114429051D01*
X155095441Y-114428300D01*
X154963281Y-114426570D01*
X154835798Y-114424901D01*
X154835795Y-114424901D01*
X154831121Y-114424840D01*
X154569192Y-114460486D01*
X154564702Y-114461795D01*
X154564696Y-114461796D01*
X154456732Y-114493265D01*
X154315410Y-114534457D01*
X154311163Y-114536415D01*
X154311160Y-114536416D01*
X154220950Y-114578004D01*
X154075348Y-114645127D01*
X154071439Y-114647690D01*
X153858195Y-114787499D01*
X153858190Y-114787503D01*
X153854282Y-114790065D01*
X153657067Y-114966086D01*
X153488036Y-115169324D01*
X153350901Y-115395314D01*
X153349095Y-115399622D01*
X153349094Y-115399623D01*
X153257061Y-115619098D01*
X153248677Y-115639091D01*
X153247526Y-115643623D01*
X153247525Y-115643626D01*
X153236854Y-115685645D01*
X153183608Y-115895301D01*
X153157124Y-116158314D01*
X137077077Y-116158314D01*
X136997058Y-116034623D01*
X136982822Y-116012617D01*
X136982820Y-116012614D01*
X136980014Y-116008277D01*
X136829670Y-115843051D01*
X136766777Y-115793381D01*
X136725715Y-115735465D01*
X136722483Y-115664542D01*
X136758108Y-115603130D01*
X136821279Y-115570728D01*
X136844870Y-115568500D01*
X146479233Y-115568500D01*
X146490416Y-115569027D01*
X146497909Y-115570702D01*
X146505835Y-115570453D01*
X146505836Y-115570453D01*
X146565986Y-115568562D01*
X146569945Y-115568500D01*
X146597856Y-115568500D01*
X146601791Y-115568003D01*
X146601856Y-115567995D01*
X146613693Y-115567062D01*
X146645951Y-115566048D01*
X146649970Y-115565922D01*
X146657889Y-115565673D01*
X146677343Y-115560021D01*
X146696700Y-115556013D01*
X146708930Y-115554468D01*
X146708931Y-115554468D01*
X146716797Y-115553474D01*
X146724168Y-115550555D01*
X146724170Y-115550555D01*
X146757912Y-115537196D01*
X146769142Y-115533351D01*
X146803983Y-115523229D01*
X146803984Y-115523229D01*
X146811593Y-115521018D01*
X146818412Y-115516985D01*
X146818417Y-115516983D01*
X146829028Y-115510707D01*
X146846776Y-115502012D01*
X146865617Y-115494552D01*
X146885987Y-115479753D01*
X146901387Y-115468564D01*
X146911307Y-115462048D01*
X146942535Y-115443580D01*
X146942538Y-115443578D01*
X146949362Y-115439542D01*
X146963683Y-115425221D01*
X146978717Y-115412380D01*
X146980432Y-115411134D01*
X146995107Y-115400472D01*
X147023298Y-115366395D01*
X147031288Y-115357616D01*
X154193890Y-108195014D01*
X154256202Y-108160988D01*
X154305406Y-108160120D01*
X154321527Y-108163035D01*
X154404007Y-108177950D01*
X154408146Y-108178145D01*
X154408153Y-108178146D01*
X154426905Y-108179030D01*
X154426914Y-108179030D01*
X154428394Y-108179100D01*
X154896868Y-108179100D01*
X154964375Y-108173372D01*
X155065109Y-108164825D01*
X155065113Y-108164824D01*
X155070420Y-108164374D01*
X155075577Y-108163036D01*
X155075580Y-108163035D01*
X155290637Y-108107217D01*
X155290641Y-108107216D01*
X155295806Y-108105875D01*
X155300672Y-108103683D01*
X155300675Y-108103682D01*
X155503240Y-108012433D01*
X155508113Y-108010238D01*
X155701272Y-107880196D01*
X155869758Y-107719468D01*
X156008754Y-107532650D01*
X156096655Y-107359762D01*
X156111867Y-107329842D01*
X156111867Y-107329841D01*
X156114286Y-107325084D01*
X156153906Y-107197486D01*
X156181753Y-107107807D01*
X156181754Y-107107801D01*
X156183337Y-107102704D01*
X156213932Y-106871868D01*
X156205197Y-106639178D01*
X156178364Y-106511296D01*
X156158477Y-106416514D01*
X156158476Y-106416511D01*
X156157380Y-106411287D01*
X156071850Y-106194710D01*
X155951051Y-105995641D01*
X155872266Y-105904849D01*
X155801939Y-105823803D01*
X155801937Y-105823801D01*
X155798439Y-105819770D01*
X155794313Y-105816387D01*
X155794309Y-105816383D01*
X155622504Y-105675513D01*
X155618376Y-105672128D01*
X155613740Y-105669489D01*
X155613737Y-105669487D01*
X155572748Y-105646155D01*
X155523442Y-105595073D01*
X155509580Y-105525442D01*
X155535563Y-105459371D01*
X155564713Y-105432133D01*
X155616842Y-105397037D01*
X155701272Y-105340196D01*
X155707166Y-105334574D01*
X155865896Y-105183152D01*
X155869758Y-105179468D01*
X156008754Y-104992650D01*
X156114286Y-104785084D01*
X156153906Y-104657486D01*
X156181753Y-104567807D01*
X156181754Y-104567801D01*
X156183337Y-104562704D01*
X156213932Y-104331868D01*
X156205197Y-104099178D01*
X156166998Y-103917125D01*
X156158477Y-103876514D01*
X156158476Y-103876511D01*
X156157380Y-103871287D01*
X156071850Y-103654710D01*
X155951051Y-103455641D01*
X155938050Y-103440659D01*
X155801939Y-103283803D01*
X155801937Y-103283801D01*
X155798439Y-103279770D01*
X155794313Y-103276387D01*
X155794309Y-103276383D01*
X155669076Y-103173699D01*
X155618376Y-103132128D01*
X155613740Y-103129489D01*
X155613737Y-103129487D01*
X155572748Y-103106155D01*
X155523442Y-103055073D01*
X155509580Y-102985442D01*
X155535563Y-102919371D01*
X155564713Y-102892133D01*
X155616842Y-102857037D01*
X155701272Y-102800196D01*
X155869758Y-102639468D01*
X156008754Y-102452650D01*
X156068916Y-102334321D01*
X156111867Y-102249842D01*
X156111867Y-102249841D01*
X156114286Y-102245084D01*
X156166012Y-102078500D01*
X156181753Y-102027807D01*
X156181754Y-102027801D01*
X156183337Y-102022704D01*
X156213932Y-101791868D01*
X156205197Y-101559178D01*
X156157380Y-101331287D01*
X156071850Y-101114710D01*
X155951051Y-100915641D01*
X155798439Y-100739770D01*
X155794313Y-100736387D01*
X155794309Y-100736383D01*
X155622504Y-100595513D01*
X155618376Y-100592128D01*
X155613740Y-100589489D01*
X155613737Y-100589487D01*
X155572748Y-100566155D01*
X155523442Y-100515073D01*
X155509580Y-100445442D01*
X155535563Y-100379371D01*
X155564713Y-100352133D01*
X155616842Y-100317037D01*
X155701272Y-100260196D01*
X155869758Y-100099468D01*
X156008754Y-99912650D01*
X156020578Y-99889394D01*
X156069281Y-99837737D01*
X156132894Y-99820500D01*
X157274233Y-99820500D01*
X157285416Y-99821027D01*
X157292909Y-99822702D01*
X157300835Y-99822453D01*
X157300836Y-99822453D01*
X157360986Y-99820562D01*
X157364945Y-99820500D01*
X157392856Y-99820500D01*
X157396791Y-99820003D01*
X157396856Y-99819995D01*
X157408693Y-99819062D01*
X157440951Y-99818048D01*
X157444970Y-99817922D01*
X157452889Y-99817673D01*
X157472343Y-99812021D01*
X157491700Y-99808013D01*
X157503930Y-99806468D01*
X157503931Y-99806468D01*
X157511797Y-99805474D01*
X157519168Y-99802555D01*
X157519170Y-99802555D01*
X157552912Y-99789196D01*
X157564142Y-99785351D01*
X157598983Y-99775229D01*
X157598984Y-99775229D01*
X157606593Y-99773018D01*
X157613412Y-99768985D01*
X157613417Y-99768983D01*
X157624028Y-99762707D01*
X157641776Y-99754012D01*
X157660617Y-99746552D01*
X157696387Y-99720564D01*
X157706307Y-99714048D01*
X157737535Y-99695580D01*
X157737538Y-99695578D01*
X157744362Y-99691542D01*
X157758683Y-99677221D01*
X157773717Y-99664380D01*
X157779290Y-99660331D01*
X157790107Y-99652472D01*
X157818298Y-99618395D01*
X157826288Y-99609616D01*
X159142247Y-98293657D01*
X159150537Y-98286113D01*
X159157018Y-98282000D01*
X159203659Y-98232332D01*
X159206413Y-98229491D01*
X159226134Y-98209770D01*
X159228612Y-98206575D01*
X159236318Y-98197553D01*
X159261158Y-98171101D01*
X159266586Y-98165321D01*
X159270408Y-98158369D01*
X159275586Y-98148951D01*
X159325931Y-98098892D01*
X159395348Y-98083999D01*
X159461797Y-98109000D01*
X159504181Y-98165957D01*
X159512000Y-98209652D01*
X159512000Y-118746000D01*
X159491998Y-118814121D01*
X159438342Y-118860614D01*
X159386000Y-118872000D01*
X116931045Y-118872000D01*
X116885598Y-118858656D01*
X116869385Y-118868197D01*
X116838661Y-118872000D01*
X114934000Y-118872000D01*
X114865879Y-118851998D01*
X114819386Y-118798342D01*
X114808000Y-118746000D01*
X114808000Y-116856214D01*
X114822677Y-116806230D01*
X114822427Y-116805739D01*
X115045271Y-116805739D01*
X115054896Y-116820716D01*
X115059855Y-116850169D01*
X115069807Y-117057352D01*
X115079792Y-117107548D01*
X115107658Y-117247639D01*
X115121378Y-117316616D01*
X115122957Y-117321014D01*
X115122959Y-117321021D01*
X115170925Y-117454616D01*
X115210704Y-117565410D01*
X115212921Y-117569536D01*
X115297603Y-117727137D01*
X115335822Y-117798267D01*
X115338617Y-117802011D01*
X115338619Y-117802013D01*
X115469441Y-117977205D01*
X115493985Y-118010073D01*
X115497292Y-118013351D01*
X115497297Y-118013357D01*
X115678046Y-118192534D01*
X115681718Y-118196174D01*
X115894896Y-118352483D01*
X115899031Y-118354659D01*
X115899035Y-118354661D01*
X116022293Y-118419510D01*
X116128836Y-118475565D01*
X116378400Y-118562716D01*
X116382993Y-118563588D01*
X116633515Y-118611151D01*
X116633518Y-118611151D01*
X116638104Y-118612022D01*
X116843608Y-118620097D01*
X116882799Y-118633297D01*
X116895547Y-118625104D01*
X116917327Y-118620749D01*
X116997010Y-118612022D01*
X117165015Y-118593622D01*
X117169526Y-118592434D01*
X117169528Y-118592434D01*
X117416124Y-118527511D01*
X117416126Y-118527510D01*
X117420647Y-118526320D01*
X117535191Y-118477108D01*
X117659229Y-118423817D01*
X117659231Y-118423816D01*
X117663523Y-118421972D01*
X117888307Y-118282871D01*
X117984903Y-118201097D01*
X118086496Y-118115093D01*
X118086498Y-118115091D01*
X118090063Y-118112073D01*
X118264356Y-117913329D01*
X118285040Y-117881173D01*
X118379274Y-117734669D01*
X126922001Y-117734669D01*
X126922371Y-117741490D01*
X126927895Y-117792352D01*
X126931521Y-117807604D01*
X126976676Y-117928054D01*
X126985214Y-117943649D01*
X127061715Y-118045724D01*
X127074276Y-118058285D01*
X127176351Y-118134786D01*
X127191946Y-118143324D01*
X127312394Y-118188478D01*
X127327649Y-118192105D01*
X127378514Y-118197631D01*
X127385328Y-118198000D01*
X128007885Y-118198000D01*
X128023124Y-118193525D01*
X128024329Y-118192135D01*
X128026000Y-118184452D01*
X128026000Y-117112115D01*
X128021525Y-117096876D01*
X128020135Y-117095671D01*
X128012452Y-117094000D01*
X126940116Y-117094000D01*
X126924877Y-117098475D01*
X126923672Y-117099865D01*
X126922001Y-117107548D01*
X126922001Y-117734669D01*
X118379274Y-117734669D01*
X118404831Y-117694936D01*
X118407359Y-117691006D01*
X118515930Y-117449988D01*
X118587683Y-117195570D01*
X118621043Y-116933340D01*
X118621744Y-116906590D01*
X118623404Y-116843160D01*
X118623487Y-116840000D01*
X118621012Y-116806695D01*
X118604243Y-116581036D01*
X118604242Y-116581032D01*
X118603897Y-116576384D01*
X118545557Y-116318559D01*
X118530028Y-116278626D01*
X118451442Y-116076542D01*
X118451441Y-116076540D01*
X118449749Y-116072189D01*
X118423535Y-116026323D01*
X118374708Y-115940895D01*
X118318578Y-115842687D01*
X118154925Y-115635094D01*
X117962385Y-115453970D01*
X117933499Y-115433931D01*
X117749026Y-115305958D01*
X117749021Y-115305955D01*
X117745188Y-115303296D01*
X117740997Y-115301229D01*
X117512294Y-115188445D01*
X117512291Y-115188444D01*
X117508106Y-115186380D01*
X117467298Y-115173317D01*
X117260792Y-115107214D01*
X117260794Y-115107214D01*
X117256347Y-115105791D01*
X117113825Y-115082580D01*
X117000053Y-115064051D01*
X117000052Y-115064051D01*
X116995441Y-115063300D01*
X116863281Y-115061570D01*
X116735798Y-115059901D01*
X116735795Y-115059901D01*
X116731121Y-115059840D01*
X116469192Y-115095486D01*
X116464702Y-115096795D01*
X116464696Y-115096796D01*
X116356732Y-115128265D01*
X116215410Y-115169457D01*
X116211163Y-115171415D01*
X116211160Y-115171416D01*
X116140439Y-115204019D01*
X115975348Y-115280127D01*
X115971439Y-115282690D01*
X115758195Y-115422499D01*
X115758190Y-115422503D01*
X115754282Y-115425065D01*
X115701473Y-115472199D01*
X115562051Y-115596638D01*
X115557067Y-115601086D01*
X115388036Y-115804324D01*
X115250901Y-116030314D01*
X115249095Y-116034622D01*
X115249094Y-116034623D01*
X115178970Y-116201851D01*
X115148677Y-116274091D01*
X115147526Y-116278623D01*
X115147525Y-116278626D01*
X115124496Y-116369305D01*
X115083608Y-116530301D01*
X115079426Y-116571830D01*
X115059366Y-116771049D01*
X115045271Y-116805739D01*
X114822427Y-116805739D01*
X114810156Y-116781632D01*
X114808000Y-116758425D01*
X114808000Y-98964669D01*
X122292001Y-98964669D01*
X122292371Y-98971490D01*
X122297895Y-99022352D01*
X122301521Y-99037604D01*
X122346676Y-99158054D01*
X122355214Y-99173649D01*
X122431715Y-99275724D01*
X122444276Y-99288285D01*
X122546351Y-99364786D01*
X122561946Y-99373324D01*
X122682394Y-99418478D01*
X122697649Y-99422105D01*
X122748514Y-99427631D01*
X122755328Y-99428000D01*
X123281885Y-99428000D01*
X123297124Y-99423525D01*
X123298329Y-99422135D01*
X123300000Y-99414452D01*
X123300000Y-99409884D01*
X123600000Y-99409884D01*
X123604475Y-99425123D01*
X123605865Y-99426328D01*
X123613548Y-99427999D01*
X124144669Y-99427999D01*
X124151490Y-99427629D01*
X124202352Y-99422105D01*
X124217604Y-99418479D01*
X124338054Y-99373324D01*
X124353649Y-99364786D01*
X124455724Y-99288285D01*
X124468285Y-99275724D01*
X124544786Y-99173649D01*
X124553324Y-99158054D01*
X124598478Y-99037606D01*
X124602105Y-99022351D01*
X124607631Y-98971486D01*
X124608000Y-98964672D01*
X124608000Y-98938115D01*
X124603525Y-98922876D01*
X124602135Y-98921671D01*
X124594452Y-98920000D01*
X123618115Y-98920000D01*
X123602876Y-98924475D01*
X123601671Y-98925865D01*
X123600000Y-98933548D01*
X123600000Y-99409884D01*
X123300000Y-99409884D01*
X123300000Y-98938115D01*
X123295525Y-98922876D01*
X123294135Y-98921671D01*
X123286452Y-98920000D01*
X122310116Y-98920000D01*
X122294877Y-98924475D01*
X122293672Y-98925865D01*
X122292001Y-98933548D01*
X122292001Y-98964669D01*
X114808000Y-98964669D01*
X114808000Y-98601885D01*
X122292000Y-98601885D01*
X122296475Y-98617124D01*
X122297865Y-98618329D01*
X122305548Y-98620000D01*
X123281885Y-98620000D01*
X123297124Y-98615525D01*
X123298329Y-98614135D01*
X123300000Y-98606452D01*
X123300000Y-98601885D01*
X123600000Y-98601885D01*
X123604475Y-98617124D01*
X123605865Y-98618329D01*
X123613548Y-98620000D01*
X124589884Y-98620000D01*
X124605123Y-98615525D01*
X124606328Y-98614135D01*
X124607999Y-98606452D01*
X124607999Y-98575331D01*
X124607630Y-98568525D01*
X124603838Y-98533605D01*
X124603839Y-98506394D01*
X124607631Y-98471488D01*
X124608000Y-98464671D01*
X124608000Y-98438115D01*
X124603525Y-98422876D01*
X124602135Y-98421671D01*
X124594452Y-98420000D01*
X123618115Y-98420000D01*
X123602876Y-98424475D01*
X123601671Y-98425865D01*
X123600000Y-98433548D01*
X123600000Y-98601885D01*
X123300000Y-98601885D01*
X123300000Y-98438115D01*
X123295525Y-98422876D01*
X123294135Y-98421671D01*
X123286452Y-98420000D01*
X122310116Y-98420000D01*
X122294877Y-98424475D01*
X122293672Y-98425865D01*
X122292001Y-98433548D01*
X122292001Y-98464669D01*
X122292371Y-98471493D01*
X122296161Y-98506393D01*
X122296161Y-98533603D01*
X122292369Y-98568510D01*
X122292000Y-98575329D01*
X122292000Y-98601885D01*
X114808000Y-98601885D01*
X114808000Y-98101885D01*
X122292000Y-98101885D01*
X122296475Y-98117124D01*
X122297865Y-98118329D01*
X122305548Y-98120000D01*
X123281885Y-98120000D01*
X123297124Y-98115525D01*
X123298329Y-98114135D01*
X123300000Y-98106452D01*
X123300000Y-98101885D01*
X123600000Y-98101885D01*
X123604475Y-98117124D01*
X123605865Y-98118329D01*
X123613548Y-98120000D01*
X124589884Y-98120000D01*
X124605123Y-98115525D01*
X124606328Y-98114135D01*
X124607999Y-98106452D01*
X124607999Y-98075331D01*
X124607630Y-98068525D01*
X124603838Y-98033605D01*
X124603839Y-98006394D01*
X124607631Y-97971488D01*
X124608000Y-97964671D01*
X124608000Y-97938115D01*
X124603525Y-97922876D01*
X124602135Y-97921671D01*
X124594452Y-97920000D01*
X123618115Y-97920000D01*
X123602876Y-97924475D01*
X123601671Y-97925865D01*
X123600000Y-97933548D01*
X123600000Y-98101885D01*
X123300000Y-98101885D01*
X123300000Y-97938115D01*
X123295525Y-97922876D01*
X123294135Y-97921671D01*
X123286452Y-97920000D01*
X122310116Y-97920000D01*
X122294877Y-97924475D01*
X122293672Y-97925865D01*
X122292001Y-97933548D01*
X122292001Y-97964669D01*
X122292371Y-97971493D01*
X122296161Y-98006393D01*
X122296161Y-98033603D01*
X122292369Y-98068510D01*
X122292000Y-98075329D01*
X122292000Y-98101885D01*
X114808000Y-98101885D01*
X114808000Y-97601885D01*
X122292000Y-97601885D01*
X122296475Y-97617124D01*
X122297865Y-97618329D01*
X122305548Y-97620000D01*
X123281885Y-97620000D01*
X123297124Y-97615525D01*
X123298329Y-97614135D01*
X123300000Y-97606452D01*
X123300000Y-97601885D01*
X123600000Y-97601885D01*
X123604475Y-97617124D01*
X123605865Y-97618329D01*
X123613548Y-97620000D01*
X124589884Y-97620000D01*
X124605123Y-97615525D01*
X124606328Y-97614135D01*
X124607999Y-97606452D01*
X124607999Y-97575331D01*
X124607630Y-97568525D01*
X124603838Y-97533605D01*
X124603839Y-97506394D01*
X124607631Y-97471488D01*
X124608000Y-97464671D01*
X124608000Y-97438115D01*
X124603525Y-97422876D01*
X124602135Y-97421671D01*
X124594452Y-97420000D01*
X123618115Y-97420000D01*
X123602876Y-97424475D01*
X123601671Y-97425865D01*
X123600000Y-97433548D01*
X123600000Y-97601885D01*
X123300000Y-97601885D01*
X123300000Y-97438115D01*
X123295525Y-97422876D01*
X123294135Y-97421671D01*
X123286452Y-97420000D01*
X122310116Y-97420000D01*
X122294877Y-97424475D01*
X122293672Y-97425865D01*
X122292001Y-97433548D01*
X122292001Y-97464669D01*
X122292371Y-97471493D01*
X122296161Y-97506393D01*
X122296161Y-97533603D01*
X122292369Y-97568510D01*
X122292000Y-97575329D01*
X122292000Y-97601885D01*
X114808000Y-97601885D01*
X114808000Y-93318134D01*
X118591500Y-93318134D01*
X118598255Y-93380316D01*
X118649385Y-93516705D01*
X118736739Y-93633261D01*
X118853295Y-93720615D01*
X118989684Y-93771745D01*
X119051866Y-93778500D01*
X121348134Y-93778500D01*
X121410316Y-93771745D01*
X121546705Y-93720615D01*
X121663261Y-93633261D01*
X121750615Y-93516705D01*
X121801745Y-93380316D01*
X121808500Y-93318134D01*
X121808500Y-91421866D01*
X121801745Y-91359684D01*
X121750615Y-91223295D01*
X121663261Y-91106739D01*
X121546705Y-91019385D01*
X121410316Y-90968255D01*
X121348134Y-90961500D01*
X119051866Y-90961500D01*
X118989684Y-90968255D01*
X118853295Y-91019385D01*
X118736739Y-91106739D01*
X118649385Y-91223295D01*
X118598255Y-91359684D01*
X118591500Y-91421866D01*
X118591500Y-93318134D01*
X114808000Y-93318134D01*
X114808000Y-88648134D01*
X118591500Y-88648134D01*
X118598255Y-88710316D01*
X118649385Y-88846705D01*
X118736739Y-88963261D01*
X118853295Y-89050615D01*
X118989684Y-89101745D01*
X119051866Y-89108500D01*
X121348134Y-89108500D01*
X121410316Y-89101745D01*
X121546705Y-89050615D01*
X121663261Y-88963261D01*
X121750615Y-88846705D01*
X121801745Y-88710316D01*
X121808500Y-88648134D01*
X121808500Y-86751866D01*
X121801745Y-86689684D01*
X121750615Y-86553295D01*
X121663261Y-86436739D01*
X121546705Y-86349385D01*
X121410316Y-86298255D01*
X121348134Y-86291500D01*
X119051866Y-86291500D01*
X118989684Y-86298255D01*
X118853295Y-86349385D01*
X118736739Y-86436739D01*
X118649385Y-86553295D01*
X118598255Y-86689684D01*
X118591500Y-86751866D01*
X118591500Y-88648134D01*
X114808000Y-88648134D01*
X114808000Y-82631885D01*
X122292000Y-82631885D01*
X122296475Y-82647124D01*
X122297865Y-82648329D01*
X122305548Y-82650000D01*
X123281885Y-82650000D01*
X123297124Y-82645525D01*
X123298329Y-82644135D01*
X123300000Y-82636452D01*
X123300000Y-82631885D01*
X123600000Y-82631885D01*
X123604475Y-82647124D01*
X123605865Y-82648329D01*
X123613548Y-82650000D01*
X124589884Y-82650000D01*
X124605123Y-82645525D01*
X124606328Y-82644135D01*
X124607999Y-82636452D01*
X124607999Y-82605331D01*
X124607630Y-82598525D01*
X124603838Y-82563605D01*
X124603839Y-82536394D01*
X124607631Y-82501488D01*
X124608000Y-82494671D01*
X124608000Y-82468115D01*
X124603525Y-82452876D01*
X124602135Y-82451671D01*
X124594452Y-82450000D01*
X123618115Y-82450000D01*
X123602876Y-82454475D01*
X123601671Y-82455865D01*
X123600000Y-82463548D01*
X123600000Y-82631885D01*
X123300000Y-82631885D01*
X123300000Y-82468115D01*
X123295525Y-82452876D01*
X123294135Y-82451671D01*
X123286452Y-82450000D01*
X122310116Y-82450000D01*
X122294877Y-82454475D01*
X122293672Y-82455865D01*
X122292001Y-82463548D01*
X122292001Y-82494669D01*
X122292371Y-82501493D01*
X122296161Y-82536393D01*
X122296161Y-82563603D01*
X122292369Y-82598510D01*
X122292000Y-82605329D01*
X122292000Y-82631885D01*
X114808000Y-82631885D01*
X114808000Y-78348134D01*
X118591500Y-78348134D01*
X118598255Y-78410316D01*
X118649385Y-78546705D01*
X118736739Y-78663261D01*
X118853295Y-78750615D01*
X118989684Y-78801745D01*
X119051866Y-78808500D01*
X121348134Y-78808500D01*
X121410316Y-78801745D01*
X121546705Y-78750615D01*
X121663261Y-78663261D01*
X121750615Y-78546705D01*
X121801745Y-78410316D01*
X121808500Y-78348134D01*
X121808500Y-76451866D01*
X121801745Y-76389684D01*
X121750615Y-76253295D01*
X121663261Y-76136739D01*
X121546705Y-76049385D01*
X121410316Y-75998255D01*
X121348134Y-75991500D01*
X119051866Y-75991500D01*
X118989684Y-75998255D01*
X118853295Y-76049385D01*
X118736739Y-76136739D01*
X118649385Y-76253295D01*
X118598255Y-76389684D01*
X118591500Y-76451866D01*
X118591500Y-78348134D01*
X114808000Y-78348134D01*
X114808000Y-74313134D01*
X118276500Y-74313134D01*
X118283255Y-74375316D01*
X118334385Y-74511705D01*
X118421739Y-74628261D01*
X118538295Y-74715615D01*
X118674684Y-74766745D01*
X118736866Y-74773500D01*
X121033134Y-74773500D01*
X121095316Y-74766745D01*
X121231705Y-74715615D01*
X121348261Y-74628261D01*
X121435615Y-74511705D01*
X121486745Y-74375316D01*
X121493500Y-74313134D01*
X121493500Y-72416866D01*
X121486745Y-72354684D01*
X121435615Y-72218295D01*
X121348261Y-72101739D01*
X121231705Y-72014385D01*
X121095316Y-71963255D01*
X121033134Y-71956500D01*
X118736866Y-71956500D01*
X118674684Y-71963255D01*
X118538295Y-72014385D01*
X118421739Y-72101739D01*
X118334385Y-72218295D01*
X118283255Y-72354684D01*
X118276500Y-72416866D01*
X118276500Y-74313134D01*
X114808000Y-74313134D01*
X114808000Y-66013134D01*
X118276500Y-66013134D01*
X118283255Y-66075316D01*
X118334385Y-66211705D01*
X118421739Y-66328261D01*
X118538295Y-66415615D01*
X118674684Y-66466745D01*
X118736866Y-66473500D01*
X121033134Y-66473500D01*
X121095316Y-66466745D01*
X121231705Y-66415615D01*
X121348261Y-66328261D01*
X121435615Y-66211705D01*
X121486745Y-66075316D01*
X121493500Y-66013134D01*
X121493500Y-64116866D01*
X121486745Y-64054684D01*
X121435615Y-63918295D01*
X121348261Y-63801739D01*
X121231705Y-63714385D01*
X121095316Y-63663255D01*
X121033134Y-63656500D01*
X118736866Y-63656500D01*
X118674684Y-63663255D01*
X118538295Y-63714385D01*
X118421739Y-63801739D01*
X118334385Y-63918295D01*
X118283255Y-64054684D01*
X118276500Y-64116866D01*
X118276500Y-66013134D01*
X114808000Y-66013134D01*
X114808000Y-63461695D01*
X153577251Y-63461695D01*
X153577548Y-63466848D01*
X153577548Y-63466851D01*
X153583011Y-63561590D01*
X153590110Y-63684715D01*
X153591247Y-63689761D01*
X153591248Y-63689767D01*
X153598010Y-63719771D01*
X153639222Y-63902639D01*
X153723266Y-64109616D01*
X153839987Y-64300088D01*
X153986250Y-64468938D01*
X154158126Y-64611632D01*
X154351000Y-64724338D01*
X154559692Y-64804030D01*
X154564760Y-64805061D01*
X154564763Y-64805062D01*
X154672017Y-64826883D01*
X154778597Y-64848567D01*
X154783772Y-64848757D01*
X154783774Y-64848757D01*
X154996673Y-64856564D01*
X154996677Y-64856564D01*
X155001837Y-64856753D01*
X155006957Y-64856097D01*
X155006959Y-64856097D01*
X155218288Y-64829025D01*
X155218289Y-64829025D01*
X155223416Y-64828368D01*
X155228366Y-64826883D01*
X155432429Y-64765661D01*
X155432434Y-64765659D01*
X155437384Y-64764174D01*
X155637994Y-64665896D01*
X155819860Y-64536173D01*
X155978096Y-64378489D01*
X156037594Y-64295689D01*
X156105435Y-64201277D01*
X156108453Y-64197077D01*
X156148096Y-64116866D01*
X156205136Y-64001453D01*
X156205137Y-64001451D01*
X156207430Y-63996811D01*
X156266698Y-63801739D01*
X156270865Y-63788023D01*
X156270865Y-63788021D01*
X156272370Y-63783069D01*
X156301529Y-63561590D01*
X156303156Y-63495000D01*
X156284852Y-63272361D01*
X156230431Y-63055702D01*
X156141354Y-62850840D01*
X156020014Y-62663277D01*
X156016532Y-62659450D01*
X155872798Y-62501488D01*
X155841746Y-62437642D01*
X155850141Y-62367143D01*
X155895317Y-62312375D01*
X155921761Y-62298706D01*
X156028297Y-62258767D01*
X156036705Y-62255615D01*
X156153261Y-62168261D01*
X156240615Y-62051705D01*
X156291745Y-61915316D01*
X156298500Y-61853134D01*
X156298500Y-60056866D01*
X156291745Y-59994684D01*
X156240615Y-59858295D01*
X156153261Y-59741739D01*
X156036705Y-59654385D01*
X155900316Y-59603255D01*
X155838134Y-59596500D01*
X154041866Y-59596500D01*
X153979684Y-59603255D01*
X153843295Y-59654385D01*
X153726739Y-59741739D01*
X153639385Y-59858295D01*
X153588255Y-59994684D01*
X153581500Y-60056866D01*
X153581500Y-61853134D01*
X153588255Y-61915316D01*
X153639385Y-62051705D01*
X153726739Y-62168261D01*
X153843295Y-62255615D01*
X153851704Y-62258767D01*
X153851705Y-62258768D01*
X153960451Y-62299535D01*
X154017216Y-62342176D01*
X154041916Y-62408738D01*
X154026709Y-62478087D01*
X154007316Y-62504568D01*
X153880629Y-62637138D01*
X153754743Y-62821680D01*
X153660688Y-63024305D01*
X153600989Y-63239570D01*
X153577251Y-63461695D01*
X114808000Y-63461695D01*
X114808000Y-57116695D01*
X116747251Y-57116695D01*
X116747548Y-57121848D01*
X116747548Y-57121851D01*
X116752914Y-57214908D01*
X116760110Y-57339715D01*
X116761247Y-57344761D01*
X116761248Y-57344767D01*
X116782265Y-57438023D01*
X116809222Y-57557639D01*
X116893266Y-57764616D01*
X116895965Y-57769020D01*
X116970389Y-57890469D01*
X117009987Y-57955088D01*
X117156250Y-58123938D01*
X117231213Y-58186173D01*
X117318123Y-58258327D01*
X117328126Y-58266632D01*
X117521000Y-58379338D01*
X117729692Y-58459030D01*
X117734760Y-58460061D01*
X117734763Y-58460062D01*
X117827970Y-58479025D01*
X117948597Y-58503567D01*
X117953772Y-58503757D01*
X117953774Y-58503757D01*
X118166673Y-58511564D01*
X118166677Y-58511564D01*
X118171837Y-58511753D01*
X118176957Y-58511097D01*
X118176959Y-58511097D01*
X118388288Y-58484025D01*
X118388289Y-58484025D01*
X118393416Y-58483368D01*
X118410082Y-58478368D01*
X118602429Y-58420661D01*
X118602434Y-58420659D01*
X118607384Y-58419174D01*
X118807994Y-58320896D01*
X118989860Y-58191173D01*
X119148096Y-58033489D01*
X119153427Y-58026071D01*
X119275435Y-57856277D01*
X119278453Y-57852077D01*
X119320370Y-57767265D01*
X119375136Y-57656453D01*
X119375137Y-57656451D01*
X119377430Y-57651811D01*
X119442370Y-57438069D01*
X119471529Y-57216590D01*
X119472786Y-57165145D01*
X119473074Y-57153365D01*
X119473074Y-57153361D01*
X119473156Y-57150000D01*
X119470007Y-57111695D01*
X123097251Y-57111695D01*
X123097548Y-57116848D01*
X123097548Y-57116851D01*
X123103011Y-57211590D01*
X123110110Y-57334715D01*
X123111247Y-57339761D01*
X123111248Y-57339767D01*
X123128959Y-57418353D01*
X123159222Y-57552639D01*
X123243266Y-57759616D01*
X123249029Y-57769020D01*
X123323453Y-57890469D01*
X123359987Y-57950088D01*
X123506250Y-58118938D01*
X123678126Y-58261632D01*
X123871000Y-58374338D01*
X123875825Y-58376180D01*
X123875826Y-58376181D01*
X123886482Y-58380250D01*
X124079692Y-58454030D01*
X124084760Y-58455061D01*
X124084763Y-58455062D01*
X124192017Y-58476883D01*
X124298597Y-58498567D01*
X124303772Y-58498757D01*
X124303774Y-58498757D01*
X124516673Y-58506564D01*
X124516677Y-58506564D01*
X124521837Y-58506753D01*
X124526957Y-58506097D01*
X124526959Y-58506097D01*
X124738288Y-58479025D01*
X124738289Y-58479025D01*
X124743416Y-58478368D01*
X124804433Y-58460062D01*
X124952429Y-58415661D01*
X124952434Y-58415659D01*
X124957384Y-58414174D01*
X125157994Y-58315896D01*
X125339860Y-58186173D01*
X125498096Y-58028489D01*
X125557594Y-57945689D01*
X125625435Y-57851277D01*
X125628453Y-57847077D01*
X125667899Y-57767265D01*
X125725136Y-57651453D01*
X125725137Y-57651451D01*
X125727430Y-57646811D01*
X125733550Y-57626667D01*
X130659704Y-57626667D01*
X130659928Y-57631333D01*
X130659928Y-57631338D01*
X130662057Y-57675660D01*
X130672155Y-57885881D01*
X130722783Y-58140407D01*
X130810477Y-58384654D01*
X130812693Y-58388778D01*
X130875731Y-58506097D01*
X130933309Y-58613256D01*
X130936104Y-58616999D01*
X130936106Y-58617002D01*
X131085790Y-58817453D01*
X131085795Y-58817459D01*
X131088582Y-58821191D01*
X131091891Y-58824471D01*
X131091896Y-58824477D01*
X131269567Y-59000604D01*
X131272884Y-59003892D01*
X131276646Y-59006650D01*
X131276649Y-59006653D01*
X131388963Y-59089005D01*
X131482166Y-59157344D01*
X131486309Y-59159524D01*
X131486311Y-59159525D01*
X131707682Y-59275994D01*
X131707687Y-59275996D01*
X131711832Y-59278177D01*
X131716255Y-59279722D01*
X131716256Y-59279722D01*
X131947898Y-59360615D01*
X131956835Y-59363736D01*
X131961428Y-59364608D01*
X132207204Y-59411270D01*
X132207207Y-59411270D01*
X132211793Y-59412141D01*
X132334978Y-59416981D01*
X132466437Y-59422146D01*
X132466442Y-59422146D01*
X132471105Y-59422329D01*
X132567748Y-59411745D01*
X132724422Y-59394587D01*
X132724428Y-59394586D01*
X132729075Y-59394077D01*
X132841007Y-59364608D01*
X132975513Y-59329196D01*
X132975516Y-59329195D01*
X132980036Y-59328005D01*
X133101095Y-59275994D01*
X133214180Y-59227409D01*
X133214182Y-59227408D01*
X133218474Y-59225564D01*
X133343336Y-59148297D01*
X133435178Y-59091464D01*
X133435182Y-59091461D01*
X133439151Y-59089005D01*
X133536429Y-59006653D01*
X133633653Y-58924346D01*
X133633654Y-58924345D01*
X133637219Y-58921327D01*
X133808328Y-58726216D01*
X133948717Y-58507955D01*
X134055304Y-58271342D01*
X134057565Y-58263327D01*
X134077914Y-58191173D01*
X134125746Y-58021573D01*
X134146774Y-57856277D01*
X134158098Y-57767265D01*
X134158098Y-57767261D01*
X134158496Y-57764135D01*
X134158615Y-57759616D01*
X134160813Y-57675660D01*
X134160896Y-57672500D01*
X134157490Y-57626667D01*
X135409704Y-57626667D01*
X135409928Y-57631333D01*
X135409928Y-57631338D01*
X135412057Y-57675660D01*
X135422155Y-57885881D01*
X135472783Y-58140407D01*
X135560477Y-58384654D01*
X135562693Y-58388778D01*
X135625731Y-58506097D01*
X135683309Y-58613256D01*
X135686104Y-58616999D01*
X135686106Y-58617002D01*
X135835790Y-58817453D01*
X135835795Y-58817459D01*
X135838582Y-58821191D01*
X135841891Y-58824471D01*
X135841896Y-58824477D01*
X136019567Y-59000604D01*
X136022884Y-59003892D01*
X136026646Y-59006650D01*
X136026649Y-59006653D01*
X136138963Y-59089005D01*
X136232166Y-59157344D01*
X136236309Y-59159524D01*
X136236311Y-59159525D01*
X136457682Y-59275994D01*
X136457687Y-59275996D01*
X136461832Y-59278177D01*
X136466255Y-59279722D01*
X136466256Y-59279722D01*
X136697898Y-59360615D01*
X136706835Y-59363736D01*
X136711428Y-59364608D01*
X136957204Y-59411270D01*
X136957207Y-59411270D01*
X136961793Y-59412141D01*
X137084978Y-59416981D01*
X137216437Y-59422146D01*
X137216442Y-59422146D01*
X137221105Y-59422329D01*
X137317748Y-59411745D01*
X137474422Y-59394587D01*
X137474428Y-59394586D01*
X137479075Y-59394077D01*
X137591007Y-59364608D01*
X137725513Y-59329196D01*
X137725516Y-59329195D01*
X137730036Y-59328005D01*
X137851095Y-59275994D01*
X137964180Y-59227409D01*
X137964182Y-59227408D01*
X137968474Y-59225564D01*
X138093336Y-59148297D01*
X138185178Y-59091464D01*
X138185182Y-59091461D01*
X138189151Y-59089005D01*
X138286429Y-59006653D01*
X138343741Y-58958134D01*
X140164000Y-58958134D01*
X140170755Y-59020316D01*
X140221885Y-59156705D01*
X140309239Y-59273261D01*
X140425795Y-59360615D01*
X140562184Y-59411745D01*
X140624366Y-59418500D01*
X143195634Y-59418500D01*
X143257816Y-59411745D01*
X143394205Y-59360615D01*
X143510761Y-59273261D01*
X143598115Y-59156705D01*
X143649245Y-59020316D01*
X143656000Y-58958134D01*
X143656000Y-57111695D01*
X148497251Y-57111695D01*
X148497548Y-57116848D01*
X148497548Y-57116851D01*
X148503011Y-57211590D01*
X148510110Y-57334715D01*
X148511247Y-57339761D01*
X148511248Y-57339767D01*
X148528959Y-57418353D01*
X148559222Y-57552639D01*
X148643266Y-57759616D01*
X148649029Y-57769020D01*
X148723453Y-57890469D01*
X148759987Y-57950088D01*
X148906250Y-58118938D01*
X149078126Y-58261632D01*
X149271000Y-58374338D01*
X149275825Y-58376180D01*
X149275826Y-58376181D01*
X149286482Y-58380250D01*
X149479692Y-58454030D01*
X149484760Y-58455061D01*
X149484763Y-58455062D01*
X149592017Y-58476883D01*
X149698597Y-58498567D01*
X149703772Y-58498757D01*
X149703774Y-58498757D01*
X149916673Y-58506564D01*
X149916677Y-58506564D01*
X149921837Y-58506753D01*
X149926957Y-58506097D01*
X149926959Y-58506097D01*
X150138288Y-58479025D01*
X150138289Y-58479025D01*
X150143416Y-58478368D01*
X150204433Y-58460062D01*
X150352429Y-58415661D01*
X150352434Y-58415659D01*
X150357384Y-58414174D01*
X150557994Y-58315896D01*
X150739860Y-58186173D01*
X150898096Y-58028489D01*
X150957594Y-57945689D01*
X151025435Y-57851277D01*
X151028453Y-57847077D01*
X151067899Y-57767265D01*
X151125136Y-57651453D01*
X151125137Y-57651451D01*
X151127430Y-57646811D01*
X151192370Y-57433069D01*
X151221529Y-57211590D01*
X151223156Y-57145000D01*
X151204852Y-56922361D01*
X151150431Y-56705702D01*
X151061354Y-56500840D01*
X151021906Y-56439862D01*
X150942822Y-56317617D01*
X150942820Y-56317614D01*
X150940014Y-56313277D01*
X150936540Y-56309459D01*
X150936533Y-56309450D01*
X150792435Y-56151088D01*
X150761383Y-56087242D01*
X150769779Y-56016744D01*
X150814956Y-55961976D01*
X150841400Y-55948307D01*
X150948052Y-55908325D01*
X150963649Y-55899786D01*
X151065724Y-55823285D01*
X151078285Y-55810724D01*
X151154786Y-55708649D01*
X151163324Y-55693054D01*
X151208478Y-55572606D01*
X151212105Y-55557351D01*
X151217631Y-55506486D01*
X151218000Y-55499672D01*
X151218000Y-54877115D01*
X151213525Y-54861876D01*
X151212135Y-54860671D01*
X151204452Y-54859000D01*
X148520116Y-54859000D01*
X148504877Y-54863475D01*
X148503672Y-54864865D01*
X148502001Y-54872548D01*
X148502001Y-55499669D01*
X148502371Y-55506490D01*
X148507895Y-55557352D01*
X148511521Y-55572604D01*
X148556676Y-55693054D01*
X148565214Y-55708649D01*
X148641715Y-55810724D01*
X148654276Y-55823285D01*
X148756351Y-55899786D01*
X148771946Y-55908324D01*
X148880827Y-55949142D01*
X148937591Y-55991784D01*
X148962291Y-56058345D01*
X148947083Y-56127694D01*
X148927691Y-56154175D01*
X148806633Y-56280855D01*
X148800629Y-56287138D01*
X148674743Y-56471680D01*
X148660905Y-56501492D01*
X148587446Y-56659747D01*
X148580688Y-56674305D01*
X148520989Y-56889570D01*
X148497251Y-57111695D01*
X143656000Y-57111695D01*
X143656000Y-56386866D01*
X143649245Y-56324684D01*
X143598115Y-56188295D01*
X143510761Y-56071739D01*
X143394205Y-55984385D01*
X143257816Y-55933255D01*
X143195634Y-55926500D01*
X140624366Y-55926500D01*
X140562184Y-55933255D01*
X140425795Y-55984385D01*
X140309239Y-56071739D01*
X140221885Y-56188295D01*
X140170755Y-56324684D01*
X140164000Y-56386866D01*
X140164000Y-58958134D01*
X138343741Y-58958134D01*
X138383653Y-58924346D01*
X138383654Y-58924345D01*
X138387219Y-58921327D01*
X138558328Y-58726216D01*
X138698717Y-58507955D01*
X138805304Y-58271342D01*
X138807565Y-58263327D01*
X138827914Y-58191173D01*
X138875746Y-58021573D01*
X138896774Y-57856277D01*
X138908098Y-57767265D01*
X138908098Y-57767261D01*
X138908496Y-57764135D01*
X138908615Y-57759616D01*
X138910813Y-57675660D01*
X138910896Y-57672500D01*
X138902716Y-57562425D01*
X138892010Y-57418353D01*
X138892009Y-57418349D01*
X138891664Y-57413701D01*
X138874935Y-57339767D01*
X138835421Y-57165145D01*
X138834390Y-57160588D01*
X138813381Y-57106562D01*
X138742026Y-56923073D01*
X138742025Y-56923071D01*
X138740333Y-56918720D01*
X138723683Y-56889588D01*
X138613878Y-56697468D01*
X138613876Y-56697466D01*
X138611559Y-56693411D01*
X138467434Y-56510590D01*
X138453788Y-56493280D01*
X138453785Y-56493277D01*
X138450896Y-56489612D01*
X138261875Y-56311798D01*
X138048647Y-56163877D01*
X137876370Y-56078919D01*
X137820083Y-56051161D01*
X137820079Y-56051160D01*
X137815897Y-56049097D01*
X137568739Y-55969981D01*
X137427884Y-55947042D01*
X137317213Y-55929018D01*
X137317212Y-55929018D01*
X137312601Y-55928267D01*
X137182855Y-55926568D01*
X137057787Y-55924931D01*
X137057784Y-55924931D01*
X137053110Y-55924870D01*
X136795968Y-55959865D01*
X136791482Y-55961173D01*
X136791480Y-55961173D01*
X136756379Y-55971404D01*
X136546823Y-56032484D01*
X136542571Y-56034444D01*
X136542569Y-56034445D01*
X136510787Y-56049097D01*
X136311149Y-56141132D01*
X136279604Y-56161814D01*
X136098035Y-56280855D01*
X136098030Y-56280859D01*
X136094122Y-56283421D01*
X135900511Y-56456225D01*
X135734568Y-56655750D01*
X135599940Y-56877610D01*
X135499584Y-57116933D01*
X135435704Y-57368460D01*
X135409704Y-57626667D01*
X134157490Y-57626667D01*
X134152716Y-57562425D01*
X134142010Y-57418353D01*
X134142009Y-57418349D01*
X134141664Y-57413701D01*
X134124935Y-57339767D01*
X134085421Y-57165145D01*
X134084390Y-57160588D01*
X134063381Y-57106562D01*
X133992026Y-56923073D01*
X133992025Y-56923071D01*
X133990333Y-56918720D01*
X133973683Y-56889588D01*
X133863878Y-56697468D01*
X133863876Y-56697466D01*
X133861559Y-56693411D01*
X133717434Y-56510590D01*
X133703788Y-56493280D01*
X133703785Y-56493277D01*
X133700896Y-56489612D01*
X133511875Y-56311798D01*
X133298647Y-56163877D01*
X133126370Y-56078919D01*
X133070083Y-56051161D01*
X133070079Y-56051160D01*
X133065897Y-56049097D01*
X132818739Y-55969981D01*
X132677884Y-55947042D01*
X132567213Y-55929018D01*
X132567212Y-55929018D01*
X132562601Y-55928267D01*
X132432855Y-55926568D01*
X132307787Y-55924931D01*
X132307784Y-55924931D01*
X132303110Y-55924870D01*
X132045968Y-55959865D01*
X132041482Y-55961173D01*
X132041480Y-55961173D01*
X132006379Y-55971404D01*
X131796823Y-56032484D01*
X131792571Y-56034444D01*
X131792569Y-56034445D01*
X131760787Y-56049097D01*
X131561149Y-56141132D01*
X131529604Y-56161814D01*
X131348035Y-56280855D01*
X131348030Y-56280859D01*
X131344122Y-56283421D01*
X131150511Y-56456225D01*
X130984568Y-56655750D01*
X130849940Y-56877610D01*
X130749584Y-57116933D01*
X130685704Y-57368460D01*
X130659704Y-57626667D01*
X125733550Y-57626667D01*
X125792370Y-57433069D01*
X125821529Y-57211590D01*
X125823156Y-57145000D01*
X125804852Y-56922361D01*
X125750431Y-56705702D01*
X125661354Y-56500840D01*
X125621906Y-56439862D01*
X125542822Y-56317617D01*
X125542820Y-56317614D01*
X125540014Y-56313277D01*
X125536540Y-56309459D01*
X125536533Y-56309450D01*
X125392435Y-56151088D01*
X125361383Y-56087242D01*
X125369779Y-56016744D01*
X125414956Y-55961976D01*
X125441400Y-55948307D01*
X125548052Y-55908325D01*
X125563649Y-55899786D01*
X125665724Y-55823285D01*
X125678285Y-55810724D01*
X125754786Y-55708649D01*
X125763324Y-55693054D01*
X125808478Y-55572606D01*
X125812105Y-55557351D01*
X125817631Y-55506486D01*
X125818000Y-55499672D01*
X125818000Y-54877115D01*
X125813525Y-54861876D01*
X125812135Y-54860671D01*
X125804452Y-54859000D01*
X123120116Y-54859000D01*
X123104877Y-54863475D01*
X123103672Y-54864865D01*
X123102001Y-54872548D01*
X123102001Y-55499669D01*
X123102371Y-55506490D01*
X123107895Y-55557352D01*
X123111521Y-55572604D01*
X123156676Y-55693054D01*
X123165214Y-55708649D01*
X123241715Y-55810724D01*
X123254276Y-55823285D01*
X123356351Y-55899786D01*
X123371946Y-55908324D01*
X123480827Y-55949142D01*
X123537591Y-55991784D01*
X123562291Y-56058345D01*
X123547083Y-56127694D01*
X123527691Y-56154175D01*
X123406633Y-56280855D01*
X123400629Y-56287138D01*
X123274743Y-56471680D01*
X123260905Y-56501492D01*
X123187446Y-56659747D01*
X123180688Y-56674305D01*
X123120989Y-56889570D01*
X123097251Y-57111695D01*
X119470007Y-57111695D01*
X119454852Y-56927361D01*
X119400431Y-56710702D01*
X119311354Y-56505840D01*
X119190014Y-56318277D01*
X119186532Y-56314450D01*
X119042798Y-56156488D01*
X119011746Y-56092642D01*
X119020141Y-56022143D01*
X119065317Y-55967375D01*
X119091761Y-55953706D01*
X119198297Y-55913767D01*
X119206705Y-55910615D01*
X119323261Y-55823261D01*
X119410615Y-55706705D01*
X119461745Y-55570316D01*
X119468500Y-55508134D01*
X119468500Y-54332885D01*
X123102000Y-54332885D01*
X123106475Y-54348124D01*
X123107865Y-54349329D01*
X123115548Y-54351000D01*
X124187885Y-54351000D01*
X124203124Y-54346525D01*
X124204329Y-54345135D01*
X124206000Y-54337452D01*
X124206000Y-54332885D01*
X124714000Y-54332885D01*
X124718475Y-54348124D01*
X124719865Y-54349329D01*
X124727548Y-54351000D01*
X125799884Y-54351000D01*
X125815123Y-54346525D01*
X125816328Y-54345135D01*
X125817999Y-54337452D01*
X125817999Y-54332885D01*
X148502000Y-54332885D01*
X148506475Y-54348124D01*
X148507865Y-54349329D01*
X148515548Y-54351000D01*
X149587885Y-54351000D01*
X149603124Y-54346525D01*
X149604329Y-54345135D01*
X149606000Y-54337452D01*
X149606000Y-54332885D01*
X150114000Y-54332885D01*
X150118475Y-54348124D01*
X150119865Y-54349329D01*
X150127548Y-54351000D01*
X151199884Y-54351000D01*
X151215123Y-54346525D01*
X151216328Y-54345135D01*
X151217999Y-54337452D01*
X151217999Y-53710331D01*
X151217629Y-53703510D01*
X151212105Y-53652648D01*
X151208479Y-53637396D01*
X151163324Y-53516946D01*
X151154786Y-53501351D01*
X151078285Y-53399276D01*
X151065724Y-53386715D01*
X150963649Y-53310214D01*
X150948054Y-53301676D01*
X150827606Y-53256522D01*
X150812351Y-53252895D01*
X150761486Y-53247369D01*
X150754672Y-53247000D01*
X150132115Y-53247000D01*
X150116876Y-53251475D01*
X150115671Y-53252865D01*
X150114000Y-53260548D01*
X150114000Y-54332885D01*
X149606000Y-54332885D01*
X149606000Y-53265116D01*
X149601525Y-53249877D01*
X149600135Y-53248672D01*
X149592452Y-53247001D01*
X148965331Y-53247001D01*
X148958510Y-53247371D01*
X148907648Y-53252895D01*
X148892396Y-53256521D01*
X148771946Y-53301676D01*
X148756351Y-53310214D01*
X148654276Y-53386715D01*
X148641715Y-53399276D01*
X148565214Y-53501351D01*
X148556676Y-53516946D01*
X148511522Y-53637394D01*
X148507895Y-53652649D01*
X148502369Y-53703514D01*
X148502000Y-53710328D01*
X148502000Y-54332885D01*
X125817999Y-54332885D01*
X125817999Y-53710331D01*
X125817629Y-53703510D01*
X125812105Y-53652648D01*
X125808479Y-53637396D01*
X125763324Y-53516946D01*
X125754786Y-53501351D01*
X125678285Y-53399276D01*
X125665724Y-53386715D01*
X125563649Y-53310214D01*
X125548054Y-53301676D01*
X125427606Y-53256522D01*
X125412351Y-53252895D01*
X125361486Y-53247369D01*
X125354672Y-53247000D01*
X124732115Y-53247000D01*
X124716876Y-53251475D01*
X124715671Y-53252865D01*
X124714000Y-53260548D01*
X124714000Y-54332885D01*
X124206000Y-54332885D01*
X124206000Y-53265116D01*
X124201525Y-53249877D01*
X124200135Y-53248672D01*
X124192452Y-53247001D01*
X123565331Y-53247001D01*
X123558510Y-53247371D01*
X123507648Y-53252895D01*
X123492396Y-53256521D01*
X123371946Y-53301676D01*
X123356351Y-53310214D01*
X123254276Y-53386715D01*
X123241715Y-53399276D01*
X123165214Y-53501351D01*
X123156676Y-53516946D01*
X123111522Y-53637394D01*
X123107895Y-53652649D01*
X123102369Y-53703514D01*
X123102000Y-53710328D01*
X123102000Y-54332885D01*
X119468500Y-54332885D01*
X119468500Y-53711866D01*
X119461745Y-53649684D01*
X119410615Y-53513295D01*
X119323261Y-53396739D01*
X119206705Y-53309385D01*
X119070316Y-53258255D01*
X119008134Y-53251500D01*
X117211866Y-53251500D01*
X117149684Y-53258255D01*
X117013295Y-53309385D01*
X116896739Y-53396739D01*
X116809385Y-53513295D01*
X116758255Y-53649684D01*
X116751500Y-53711866D01*
X116751500Y-55508134D01*
X116758255Y-55570316D01*
X116809385Y-55706705D01*
X116896739Y-55823261D01*
X117013295Y-55910615D01*
X117021704Y-55913767D01*
X117021705Y-55913768D01*
X117130451Y-55954535D01*
X117187216Y-55997176D01*
X117211916Y-56063738D01*
X117196709Y-56133087D01*
X117177316Y-56159568D01*
X117050629Y-56292138D01*
X117047715Y-56296410D01*
X117047714Y-56296411D01*
X117037218Y-56311798D01*
X116924743Y-56476680D01*
X116909003Y-56510590D01*
X116843291Y-56652155D01*
X116830688Y-56679305D01*
X116770989Y-56894570D01*
X116747251Y-57116695D01*
X114808000Y-57116695D01*
X114808000Y-48276214D01*
X114822677Y-48226230D01*
X114822427Y-48225739D01*
X115045271Y-48225739D01*
X115054896Y-48240716D01*
X115059855Y-48270169D01*
X115069807Y-48477352D01*
X115121378Y-48736616D01*
X115122957Y-48741014D01*
X115122959Y-48741021D01*
X115209121Y-48981001D01*
X115210704Y-48985410D01*
X115212921Y-48989536D01*
X115280301Y-49114936D01*
X115335822Y-49218267D01*
X115338617Y-49222011D01*
X115338619Y-49222013D01*
X115421743Y-49333329D01*
X115493985Y-49430073D01*
X115497292Y-49433351D01*
X115497297Y-49433357D01*
X115596879Y-49532073D01*
X115681718Y-49616174D01*
X115894896Y-49772483D01*
X115899031Y-49774659D01*
X115899035Y-49774661D01*
X116022293Y-49839510D01*
X116128836Y-49895565D01*
X116378400Y-49982716D01*
X116382993Y-49983588D01*
X116633515Y-50031151D01*
X116633518Y-50031151D01*
X116638104Y-50032022D01*
X116770173Y-50037211D01*
X116897575Y-50042218D01*
X116897581Y-50042218D01*
X116902243Y-50042401D01*
X117165015Y-50013622D01*
X117169526Y-50012434D01*
X117169528Y-50012434D01*
X117416124Y-49947511D01*
X117416126Y-49947510D01*
X117420647Y-49946320D01*
X117535191Y-49897108D01*
X117659229Y-49843817D01*
X117659231Y-49843816D01*
X117663523Y-49841972D01*
X117888307Y-49702871D01*
X117904788Y-49688919D01*
X118086496Y-49535093D01*
X118086498Y-49535091D01*
X118090063Y-49532073D01*
X118264356Y-49333329D01*
X118338367Y-49218267D01*
X118404831Y-49114936D01*
X118407359Y-49111006D01*
X118515930Y-48869988D01*
X118587683Y-48615570D01*
X118621043Y-48353340D01*
X118623487Y-48260000D01*
X118622054Y-48240716D01*
X118620018Y-48213314D01*
X153157124Y-48213314D01*
X153157348Y-48217980D01*
X153157348Y-48217985D01*
X153159518Y-48263160D01*
X153169807Y-48477352D01*
X153221378Y-48736616D01*
X153222957Y-48741014D01*
X153222959Y-48741021D01*
X153309121Y-48981001D01*
X153310704Y-48985410D01*
X153312921Y-48989536D01*
X153380301Y-49114936D01*
X153435822Y-49218267D01*
X153438617Y-49222011D01*
X153438619Y-49222013D01*
X153521743Y-49333329D01*
X153593985Y-49430073D01*
X153597292Y-49433351D01*
X153597297Y-49433357D01*
X153696879Y-49532073D01*
X153781718Y-49616174D01*
X153994896Y-49772483D01*
X153999031Y-49774659D01*
X153999035Y-49774661D01*
X154122293Y-49839510D01*
X154228836Y-49895565D01*
X154478400Y-49982716D01*
X154482993Y-49983588D01*
X154733515Y-50031151D01*
X154733518Y-50031151D01*
X154738104Y-50032022D01*
X154870173Y-50037211D01*
X154997575Y-50042218D01*
X154997581Y-50042218D01*
X155002243Y-50042401D01*
X155265015Y-50013622D01*
X155269526Y-50012434D01*
X155269528Y-50012434D01*
X155516124Y-49947511D01*
X155516126Y-49947510D01*
X155520647Y-49946320D01*
X155635191Y-49897108D01*
X155759229Y-49843817D01*
X155759231Y-49843816D01*
X155763523Y-49841972D01*
X155988307Y-49702871D01*
X156004788Y-49688919D01*
X156186496Y-49535093D01*
X156186498Y-49535091D01*
X156190063Y-49532073D01*
X156364356Y-49333329D01*
X156438367Y-49218267D01*
X156504831Y-49114936D01*
X156507359Y-49111006D01*
X156615930Y-48869988D01*
X156687683Y-48615570D01*
X156721043Y-48353340D01*
X156723487Y-48260000D01*
X156722054Y-48240716D01*
X156704243Y-48001036D01*
X156704242Y-48001032D01*
X156703897Y-47996384D01*
X156645557Y-47738559D01*
X156630028Y-47698626D01*
X156551442Y-47496542D01*
X156551441Y-47496540D01*
X156549749Y-47492189D01*
X156523535Y-47446323D01*
X156420897Y-47266745D01*
X156418578Y-47262687D01*
X156254925Y-47055094D01*
X156062385Y-46873970D01*
X156025212Y-46848182D01*
X155849026Y-46725958D01*
X155849021Y-46725955D01*
X155845188Y-46723296D01*
X155840997Y-46721229D01*
X155612294Y-46608445D01*
X155612291Y-46608444D01*
X155608106Y-46606380D01*
X155551150Y-46588148D01*
X155360792Y-46527214D01*
X155360794Y-46527214D01*
X155356347Y-46525791D01*
X155213825Y-46502580D01*
X155100053Y-46484051D01*
X155100052Y-46484051D01*
X155095441Y-46483300D01*
X154842504Y-46479989D01*
X154840417Y-46479346D01*
X154838026Y-46479765D01*
X154835799Y-46479901D01*
X154831121Y-46479840D01*
X154569192Y-46515486D01*
X154564702Y-46516795D01*
X154564696Y-46516796D01*
X154456732Y-46548265D01*
X154315410Y-46589457D01*
X154311163Y-46591415D01*
X154311160Y-46591416D01*
X154220950Y-46633004D01*
X154075348Y-46700127D01*
X154071439Y-46702690D01*
X153858195Y-46842499D01*
X153858190Y-46842503D01*
X153854282Y-46845065D01*
X153657067Y-47021086D01*
X153488036Y-47224324D01*
X153350901Y-47450314D01*
X153248677Y-47694091D01*
X153247526Y-47698623D01*
X153247525Y-47698626D01*
X153236226Y-47743116D01*
X153183608Y-47950301D01*
X153157124Y-48213314D01*
X118620018Y-48213314D01*
X118604243Y-48001036D01*
X118604242Y-48001032D01*
X118603897Y-47996384D01*
X118545557Y-47738559D01*
X118530028Y-47698626D01*
X118451442Y-47496542D01*
X118451441Y-47496540D01*
X118449749Y-47492189D01*
X118423535Y-47446323D01*
X118320897Y-47266745D01*
X118318578Y-47262687D01*
X118154925Y-47055094D01*
X117962385Y-46873970D01*
X117925212Y-46848182D01*
X117749026Y-46725958D01*
X117749021Y-46725955D01*
X117745188Y-46723296D01*
X117740997Y-46721229D01*
X117512294Y-46608445D01*
X117512291Y-46608444D01*
X117508106Y-46606380D01*
X117451150Y-46588148D01*
X117260792Y-46527214D01*
X117260794Y-46527214D01*
X117256347Y-46525791D01*
X117113825Y-46502580D01*
X117000053Y-46484051D01*
X117000052Y-46484051D01*
X116995441Y-46483300D01*
X116742504Y-46479989D01*
X116740417Y-46479346D01*
X116738026Y-46479765D01*
X116735799Y-46479901D01*
X116731121Y-46479840D01*
X116469192Y-46515486D01*
X116464702Y-46516795D01*
X116464696Y-46516796D01*
X116356732Y-46548265D01*
X116215410Y-46589457D01*
X116211163Y-46591415D01*
X116211160Y-46591416D01*
X116120950Y-46633004D01*
X115975348Y-46700127D01*
X115971439Y-46702690D01*
X115758195Y-46842499D01*
X115758190Y-46842503D01*
X115754282Y-46845065D01*
X115557067Y-47021086D01*
X115388036Y-47224324D01*
X115250901Y-47450314D01*
X115148677Y-47694091D01*
X115147526Y-47698623D01*
X115147525Y-47698626D01*
X115136226Y-47743116D01*
X115083608Y-47950301D01*
X115083139Y-47954959D01*
X115059366Y-48191049D01*
X115045271Y-48225739D01*
X114822427Y-48225739D01*
X114810156Y-48201632D01*
X114808000Y-48178425D01*
X114808000Y-46354000D01*
X114828002Y-46285879D01*
X114881658Y-46239386D01*
X114934000Y-46228000D01*
X116730334Y-46228000D01*
X116734733Y-46229292D01*
G37*
%TD.AperFunction*%
%TA.AperFunction,Conductor*%
G36*
X140597108Y-105312414D02*
G01*
X140639400Y-105340304D01*
X142204595Y-106905499D01*
X142238621Y-106967811D01*
X142241500Y-106994594D01*
X142241500Y-112715405D01*
X142221498Y-112783526D01*
X142204595Y-112804500D01*
X141379500Y-113629595D01*
X141317188Y-113663621D01*
X141290405Y-113666500D01*
X134195749Y-113666500D01*
X134127628Y-113646498D01*
X134081135Y-113592842D01*
X134071031Y-113522568D01*
X134100525Y-113457988D01*
X134123478Y-113437287D01*
X134184789Y-113394357D01*
X134184792Y-113394355D01*
X134189300Y-113391198D01*
X134351198Y-113229300D01*
X134482523Y-113041749D01*
X134484846Y-113036767D01*
X134484849Y-113036762D01*
X134576961Y-112839225D01*
X134576961Y-112839224D01*
X134579284Y-112834243D01*
X134597143Y-112767595D01*
X134637119Y-112618402D01*
X134637119Y-112618400D01*
X134638543Y-112613087D01*
X134658498Y-112385000D01*
X134638543Y-112156913D01*
X134630028Y-112125135D01*
X134580707Y-111941067D01*
X134580706Y-111941065D01*
X134579284Y-111935757D01*
X134525148Y-111819661D01*
X134484849Y-111733238D01*
X134484846Y-111733233D01*
X134482523Y-111728251D01*
X134351198Y-111540700D01*
X134189300Y-111378802D01*
X134184792Y-111375645D01*
X134184789Y-111375643D01*
X134106611Y-111320902D01*
X134001749Y-111247477D01*
X133996767Y-111245154D01*
X133996762Y-111245151D01*
X133799225Y-111153039D01*
X133799224Y-111153039D01*
X133794243Y-111150716D01*
X133788935Y-111149294D01*
X133788933Y-111149293D01*
X133578402Y-111092881D01*
X133578400Y-111092881D01*
X133573087Y-111091457D01*
X133345000Y-111071502D01*
X133116913Y-111091457D01*
X133111600Y-111092881D01*
X133111598Y-111092881D01*
X132901067Y-111149293D01*
X132901065Y-111149294D01*
X132895757Y-111150716D01*
X132890776Y-111153039D01*
X132890775Y-111153039D01*
X132693238Y-111245151D01*
X132693233Y-111245154D01*
X132688251Y-111247477D01*
X132583389Y-111320902D01*
X132505211Y-111375643D01*
X132505208Y-111375645D01*
X132500700Y-111378802D01*
X132338802Y-111540700D01*
X132207477Y-111728251D01*
X132205154Y-111733233D01*
X132205151Y-111733238D01*
X132189195Y-111767457D01*
X132142278Y-111820742D01*
X132074001Y-111840203D01*
X132006041Y-111819661D01*
X131960805Y-111767457D01*
X131944849Y-111733238D01*
X131944846Y-111733233D01*
X131942523Y-111728251D01*
X131811198Y-111540700D01*
X131649300Y-111378802D01*
X131644792Y-111375645D01*
X131644789Y-111375643D01*
X131566611Y-111320902D01*
X131461749Y-111247477D01*
X131456767Y-111245154D01*
X131456762Y-111245151D01*
X131259225Y-111153039D01*
X131259224Y-111153039D01*
X131254243Y-111150716D01*
X131248935Y-111149294D01*
X131248933Y-111149293D01*
X131038402Y-111092881D01*
X131038400Y-111092881D01*
X131033087Y-111091457D01*
X130805000Y-111071502D01*
X130576913Y-111091457D01*
X130571600Y-111092881D01*
X130571598Y-111092881D01*
X130361067Y-111149293D01*
X130361065Y-111149294D01*
X130355757Y-111150716D01*
X130350776Y-111153039D01*
X130350775Y-111153039D01*
X130153238Y-111245151D01*
X130153233Y-111245154D01*
X130148251Y-111247477D01*
X130043389Y-111320902D01*
X129965211Y-111375643D01*
X129965208Y-111375645D01*
X129960700Y-111378802D01*
X129798802Y-111540700D01*
X129667477Y-111728251D01*
X129665154Y-111733233D01*
X129665151Y-111733238D01*
X129648919Y-111768049D01*
X129602002Y-111821334D01*
X129533725Y-111840795D01*
X129465765Y-111820253D01*
X129420529Y-111768049D01*
X129404414Y-111733489D01*
X129398931Y-111723993D01*
X129273972Y-111545533D01*
X129266916Y-111537125D01*
X129112875Y-111383084D01*
X129104467Y-111376028D01*
X128926007Y-111251069D01*
X128916511Y-111245586D01*
X128719053Y-111153510D01*
X128708761Y-111149764D01*
X128536497Y-111103606D01*
X128522401Y-111103942D01*
X128519000Y-111111884D01*
X128519000Y-112513000D01*
X128498998Y-112581121D01*
X128445342Y-112627614D01*
X128393000Y-112639000D01*
X125597000Y-112639000D01*
X125528879Y-112618998D01*
X125482386Y-112565342D01*
X125471000Y-112513000D01*
X125471000Y-112112885D01*
X125979000Y-112112885D01*
X125983475Y-112128124D01*
X125984865Y-112129329D01*
X125992548Y-112131000D01*
X127992885Y-112131000D01*
X128008124Y-112126525D01*
X128009329Y-112125135D01*
X128011000Y-112117452D01*
X128011000Y-111117033D01*
X128007027Y-111103502D01*
X127998478Y-111102273D01*
X127821239Y-111149764D01*
X127810947Y-111153510D01*
X127613489Y-111245586D01*
X127603993Y-111251069D01*
X127425533Y-111376028D01*
X127417125Y-111383084D01*
X127263084Y-111537125D01*
X127256028Y-111545533D01*
X127131069Y-111723993D01*
X127125586Y-111733489D01*
X127109195Y-111768641D01*
X127062278Y-111821926D01*
X126994001Y-111841387D01*
X126926041Y-111820845D01*
X126880805Y-111768641D01*
X126864414Y-111733489D01*
X126858931Y-111723993D01*
X126733972Y-111545533D01*
X126726916Y-111537125D01*
X126572875Y-111383084D01*
X126564467Y-111376028D01*
X126386007Y-111251069D01*
X126376511Y-111245586D01*
X126179053Y-111153510D01*
X126168761Y-111149764D01*
X125996497Y-111103606D01*
X125982401Y-111103942D01*
X125979000Y-111111884D01*
X125979000Y-112112885D01*
X125471000Y-112112885D01*
X125471000Y-111117033D01*
X125467027Y-111103502D01*
X125458478Y-111102273D01*
X125281239Y-111149764D01*
X125270947Y-111153510D01*
X125073489Y-111245586D01*
X125063993Y-111251069D01*
X124885533Y-111376028D01*
X124877125Y-111383084D01*
X124723084Y-111537125D01*
X124716028Y-111545533D01*
X124591069Y-111723993D01*
X124585586Y-111733489D01*
X124569471Y-111768049D01*
X124522554Y-111821334D01*
X124454277Y-111840795D01*
X124386317Y-111820253D01*
X124341081Y-111768049D01*
X124324849Y-111733238D01*
X124324846Y-111733233D01*
X124322523Y-111728251D01*
X124191198Y-111540700D01*
X124029300Y-111378802D01*
X124024792Y-111375645D01*
X124024789Y-111375643D01*
X123946611Y-111320902D01*
X123841749Y-111247477D01*
X123836767Y-111245154D01*
X123836762Y-111245151D01*
X123639225Y-111153039D01*
X123639224Y-111153039D01*
X123634243Y-111150716D01*
X123628935Y-111149294D01*
X123628933Y-111149293D01*
X123418402Y-111092881D01*
X123418400Y-111092881D01*
X123413087Y-111091457D01*
X123185000Y-111071502D01*
X122956913Y-111091457D01*
X122951600Y-111092881D01*
X122951598Y-111092881D01*
X122741067Y-111149293D01*
X122741065Y-111149294D01*
X122735757Y-111150716D01*
X122730776Y-111153039D01*
X122730775Y-111153039D01*
X122533238Y-111245151D01*
X122533233Y-111245154D01*
X122528251Y-111247477D01*
X122423389Y-111320902D01*
X122345211Y-111375643D01*
X122345208Y-111375645D01*
X122340700Y-111378802D01*
X122178802Y-111540700D01*
X122047477Y-111728251D01*
X122045154Y-111733233D01*
X122045151Y-111733238D01*
X122029195Y-111767457D01*
X121982278Y-111820742D01*
X121914001Y-111840203D01*
X121846041Y-111819661D01*
X121800805Y-111767457D01*
X121784849Y-111733238D01*
X121784846Y-111733233D01*
X121782523Y-111728251D01*
X121651198Y-111540700D01*
X121489300Y-111378802D01*
X121484792Y-111375645D01*
X121484789Y-111375643D01*
X121406611Y-111320902D01*
X121301749Y-111247477D01*
X121296767Y-111245154D01*
X121296762Y-111245151D01*
X121099225Y-111153039D01*
X121099224Y-111153039D01*
X121094243Y-111150716D01*
X121088935Y-111149294D01*
X121088933Y-111149293D01*
X120878402Y-111092881D01*
X120878400Y-111092881D01*
X120873087Y-111091457D01*
X120645000Y-111071502D01*
X120416913Y-111091457D01*
X120411600Y-111092881D01*
X120411598Y-111092881D01*
X120201067Y-111149293D01*
X120201065Y-111149294D01*
X120195757Y-111150716D01*
X120190776Y-111153039D01*
X120190775Y-111153039D01*
X119993238Y-111245151D01*
X119993233Y-111245154D01*
X119988251Y-111247477D01*
X119883389Y-111320902D01*
X119805211Y-111375643D01*
X119805208Y-111375645D01*
X119800700Y-111378802D01*
X119638802Y-111540700D01*
X119635643Y-111545211D01*
X119632108Y-111549424D01*
X119630974Y-111548473D01*
X119580929Y-111588471D01*
X119510310Y-111595776D01*
X119446951Y-111563742D01*
X119410970Y-111502538D01*
X119407918Y-111485483D01*
X119406745Y-111474684D01*
X119355615Y-111338295D01*
X119268261Y-111221739D01*
X119151705Y-111134385D01*
X119015316Y-111083255D01*
X118953134Y-111076500D01*
X118864500Y-111076500D01*
X118796379Y-111056498D01*
X118749886Y-111002842D01*
X118738500Y-110950500D01*
X118738500Y-109293768D01*
X118739027Y-109282585D01*
X118740702Y-109275092D01*
X118738562Y-109207001D01*
X118738500Y-109203044D01*
X118738500Y-109175144D01*
X118737996Y-109171153D01*
X118737063Y-109159311D01*
X118735923Y-109123036D01*
X118735674Y-109115111D01*
X118733462Y-109107497D01*
X118733461Y-109107492D01*
X118730023Y-109095659D01*
X118726012Y-109076295D01*
X118724467Y-109064064D01*
X118723474Y-109056203D01*
X118720557Y-109048836D01*
X118720556Y-109048831D01*
X118707198Y-109015092D01*
X118703354Y-109003865D01*
X118693230Y-108969022D01*
X118691018Y-108961407D01*
X118680707Y-108943972D01*
X118672012Y-108926224D01*
X118664552Y-108907383D01*
X118638564Y-108871613D01*
X118632048Y-108861693D01*
X118613580Y-108830465D01*
X118613578Y-108830462D01*
X118609542Y-108823638D01*
X118595221Y-108809317D01*
X118582380Y-108794283D01*
X118575131Y-108784306D01*
X118570472Y-108777893D01*
X118536395Y-108749702D01*
X118527616Y-108741712D01*
X116875405Y-107089500D01*
X116841379Y-107027188D01*
X116838500Y-107000405D01*
X116838500Y-105637171D01*
X116858502Y-105569050D01*
X116912158Y-105522557D01*
X116982432Y-105512453D01*
X117047012Y-105541947D01*
X117067713Y-105564901D01*
X117095639Y-105604784D01*
X117095643Y-105604789D01*
X117098802Y-105609300D01*
X117260700Y-105771198D01*
X117265208Y-105774355D01*
X117265211Y-105774357D01*
X117343389Y-105829098D01*
X117448251Y-105902523D01*
X117453233Y-105904846D01*
X117453238Y-105904849D01*
X117650775Y-105996961D01*
X117655757Y-105999284D01*
X117661065Y-106000706D01*
X117661067Y-106000707D01*
X117871598Y-106057119D01*
X117871600Y-106057119D01*
X117876913Y-106058543D01*
X118105000Y-106078498D01*
X118333087Y-106058543D01*
X118338400Y-106057119D01*
X118338402Y-106057119D01*
X118548933Y-106000707D01*
X118548935Y-106000706D01*
X118554243Y-105999284D01*
X118559225Y-105996961D01*
X118756762Y-105904849D01*
X118756767Y-105904846D01*
X118761749Y-105902523D01*
X118866611Y-105829098D01*
X118944789Y-105774357D01*
X118944792Y-105774355D01*
X118949300Y-105771198D01*
X119111198Y-105609300D01*
X119114361Y-105604784D01*
X119202486Y-105478927D01*
X119242523Y-105421749D01*
X119244846Y-105416767D01*
X119244849Y-105416762D01*
X119260805Y-105382543D01*
X119307722Y-105329258D01*
X119375999Y-105309797D01*
X119443959Y-105330339D01*
X119489195Y-105382543D01*
X119505151Y-105416762D01*
X119505154Y-105416767D01*
X119507477Y-105421749D01*
X119547514Y-105478927D01*
X119635640Y-105604784D01*
X119638802Y-105609300D01*
X119800700Y-105771198D01*
X119805208Y-105774355D01*
X119805211Y-105774357D01*
X119955717Y-105879743D01*
X120000045Y-105935200D01*
X120006694Y-105979991D01*
X120009298Y-105979909D01*
X120011438Y-106047986D01*
X120011500Y-106051945D01*
X120011500Y-106079856D01*
X120011997Y-106083790D01*
X120011997Y-106083791D01*
X120012005Y-106083856D01*
X120012938Y-106095693D01*
X120014327Y-106139889D01*
X120018281Y-106153498D01*
X120019978Y-106159339D01*
X120023987Y-106178700D01*
X120026526Y-106198797D01*
X120029445Y-106206168D01*
X120029445Y-106206170D01*
X120042804Y-106239912D01*
X120046649Y-106251142D01*
X120056241Y-106284158D01*
X120058982Y-106293593D01*
X120063015Y-106300412D01*
X120063017Y-106300417D01*
X120069293Y-106311028D01*
X120077988Y-106328776D01*
X120085448Y-106347617D01*
X120090110Y-106354033D01*
X120090110Y-106354034D01*
X120111436Y-106383387D01*
X120117952Y-106393307D01*
X120131677Y-106416514D01*
X120140458Y-106431362D01*
X120154779Y-106445683D01*
X120167619Y-106460716D01*
X120179528Y-106477107D01*
X120211413Y-106503484D01*
X120213593Y-106505288D01*
X120222374Y-106513278D01*
X120908353Y-107199258D01*
X120915887Y-107207537D01*
X120920000Y-107214018D01*
X120963297Y-107254676D01*
X120969651Y-107260643D01*
X120972493Y-107263398D01*
X120992230Y-107283135D01*
X120995427Y-107285615D01*
X121004447Y-107293318D01*
X121036679Y-107323586D01*
X121043625Y-107327405D01*
X121043628Y-107327407D01*
X121054434Y-107333348D01*
X121070953Y-107344199D01*
X121086959Y-107356614D01*
X121094228Y-107359759D01*
X121094232Y-107359762D01*
X121127537Y-107374174D01*
X121138187Y-107379391D01*
X121176940Y-107400695D01*
X121184615Y-107402666D01*
X121184616Y-107402666D01*
X121196562Y-107405733D01*
X121215267Y-107412137D01*
X121233855Y-107420181D01*
X121241678Y-107421420D01*
X121241688Y-107421423D01*
X121277524Y-107427099D01*
X121289144Y-107429505D01*
X121324289Y-107438528D01*
X121331970Y-107440500D01*
X121352224Y-107440500D01*
X121371934Y-107442051D01*
X121391943Y-107445220D01*
X121399835Y-107444474D01*
X121435961Y-107441059D01*
X121447819Y-107440500D01*
X138002096Y-107440500D01*
X138070217Y-107460502D01*
X138109814Y-107501133D01*
X138180949Y-107618359D01*
X138184446Y-107622389D01*
X138328405Y-107788288D01*
X138333561Y-107794230D01*
X138337687Y-107797613D01*
X138337691Y-107797617D01*
X138433915Y-107876515D01*
X138513624Y-107941872D01*
X138518260Y-107944511D01*
X138518263Y-107944513D01*
X138628482Y-108007253D01*
X138715989Y-108057065D01*
X138721005Y-108058886D01*
X138721010Y-108058888D01*
X138929854Y-108134695D01*
X138929858Y-108134696D01*
X138934869Y-108136515D01*
X138940118Y-108137464D01*
X138940121Y-108137465D01*
X139000516Y-108148386D01*
X139164007Y-108177950D01*
X139168146Y-108178145D01*
X139168153Y-108178146D01*
X139186905Y-108179030D01*
X139186914Y-108179030D01*
X139188394Y-108179100D01*
X139656868Y-108179100D01*
X139724375Y-108173372D01*
X139825109Y-108164825D01*
X139825113Y-108164824D01*
X139830420Y-108164374D01*
X139835577Y-108163036D01*
X139835580Y-108163035D01*
X140050637Y-108107217D01*
X140050641Y-108107216D01*
X140055806Y-108105875D01*
X140060672Y-108103683D01*
X140060675Y-108103682D01*
X140263240Y-108012433D01*
X140268113Y-108010238D01*
X140461272Y-107880196D01*
X140629758Y-107719468D01*
X140768754Y-107532650D01*
X140856655Y-107359762D01*
X140871867Y-107329842D01*
X140871867Y-107329841D01*
X140874286Y-107325084D01*
X140913906Y-107197486D01*
X140941753Y-107107807D01*
X140941754Y-107107801D01*
X140943337Y-107102704D01*
X140973932Y-106871868D01*
X140965197Y-106639178D01*
X140938364Y-106511296D01*
X140918477Y-106416514D01*
X140918476Y-106416511D01*
X140917380Y-106411287D01*
X140831850Y-106194710D01*
X140711051Y-105995641D01*
X140632266Y-105904849D01*
X140561939Y-105823803D01*
X140561937Y-105823801D01*
X140558439Y-105819770D01*
X140554313Y-105816387D01*
X140554309Y-105816383D01*
X140382504Y-105675513D01*
X140378376Y-105672128D01*
X140373740Y-105669489D01*
X140373737Y-105669487D01*
X140332748Y-105646155D01*
X140283442Y-105595073D01*
X140269580Y-105525442D01*
X140295563Y-105459371D01*
X140324713Y-105432133D01*
X140378350Y-105396023D01*
X140461272Y-105340196D01*
X140465132Y-105336514D01*
X140469291Y-105333170D01*
X140470420Y-105334574D01*
X140526431Y-105305681D01*
X140597108Y-105312414D01*
G37*
%TD.AperFunction*%
%TD*%
M02*
