%TF.GenerationSoftware,KiCad,Pcbnew,(6.0.1)*%
%TF.CreationDate,2022-06-07T11:34:35+01:00*%
%TF.ProjectId,psp-bluetooth,7073702d-626c-4756-9574-6f6f74682e6b,rev?*%
%TF.SameCoordinates,Original*%
%TF.FileFunction,Legend,Top*%
%TF.FilePolarity,Positive*%
%FSLAX46Y46*%
G04 Gerber Fmt 4.6, Leading zero omitted, Abs format (unit mm)*
G04 Created by KiCad (PCBNEW (6.0.1)) date 2022-06-07 11:34:35*
%MOMM*%
%LPD*%
G01*
G04 APERTURE LIST*
%ADD10C,0.150000*%
%ADD11C,0.127000*%
%ADD12C,0.200000*%
%ADD13C,0.120000*%
%ADD14O,2.032000X1.727200*%
%ADD15C,2.540000*%
G04 APERTURE END LIST*
D10*
X122483809Y-60142380D02*
X122483809Y-59142380D01*
X122864761Y-59142380D01*
X122960000Y-59190000D01*
X123007619Y-59237619D01*
X123055238Y-59332857D01*
X123055238Y-59475714D01*
X123007619Y-59570952D01*
X122960000Y-59618571D01*
X122864761Y-59666190D01*
X122483809Y-59666190D01*
X123626666Y-60142380D02*
X123531428Y-60094761D01*
X123483809Y-60047142D01*
X123436190Y-59951904D01*
X123436190Y-59666190D01*
X123483809Y-59570952D01*
X123531428Y-59523333D01*
X123626666Y-59475714D01*
X123769523Y-59475714D01*
X123864761Y-59523333D01*
X123912380Y-59570952D01*
X123960000Y-59666190D01*
X123960000Y-59951904D01*
X123912380Y-60047142D01*
X123864761Y-60094761D01*
X123769523Y-60142380D01*
X123626666Y-60142380D01*
X124293333Y-59475714D02*
X124483809Y-60142380D01*
X124674285Y-59666190D01*
X124864761Y-60142380D01*
X125055238Y-59475714D01*
X125817142Y-60094761D02*
X125721904Y-60142380D01*
X125531428Y-60142380D01*
X125436190Y-60094761D01*
X125388571Y-59999523D01*
X125388571Y-59618571D01*
X125436190Y-59523333D01*
X125531428Y-59475714D01*
X125721904Y-59475714D01*
X125817142Y-59523333D01*
X125864761Y-59618571D01*
X125864761Y-59713809D01*
X125388571Y-59809047D01*
X126293333Y-60142380D02*
X126293333Y-59475714D01*
X126293333Y-59666190D02*
X126340952Y-59570952D01*
X126388571Y-59523333D01*
X126483809Y-59475714D01*
X126579047Y-59475714D01*
X120173809Y-57602380D02*
X120173809Y-56935714D01*
X120173809Y-57126190D02*
X120221428Y-57030952D01*
X120269047Y-56983333D01*
X120364285Y-56935714D01*
X120459523Y-56935714D01*
X120697619Y-57602380D02*
X121221428Y-56935714D01*
X120697619Y-56935714D02*
X121221428Y-57602380D01*
X120054761Y-54395714D02*
X120435714Y-54395714D01*
X120197619Y-54062380D02*
X120197619Y-54919523D01*
X120245238Y-55014761D01*
X120340476Y-55062380D01*
X120435714Y-55062380D01*
X120673809Y-55062380D02*
X121197619Y-54395714D01*
X120673809Y-54395714D02*
X121197619Y-55062380D01*
X149098095Y-50300000D02*
X149002857Y-50252380D01*
X148860000Y-50252380D01*
X148717142Y-50300000D01*
X148621904Y-50395238D01*
X148574285Y-50490476D01*
X148526666Y-50680952D01*
X148526666Y-50823809D01*
X148574285Y-51014285D01*
X148621904Y-51109523D01*
X148717142Y-51204761D01*
X148860000Y-51252380D01*
X148955238Y-51252380D01*
X149098095Y-51204761D01*
X149145714Y-51157142D01*
X149145714Y-50823809D01*
X148955238Y-50823809D01*
X149574285Y-51252380D02*
X149574285Y-50252380D01*
X150145714Y-51252380D01*
X150145714Y-50252380D01*
X150621904Y-51252380D02*
X150621904Y-50252380D01*
X150860000Y-50252380D01*
X151002857Y-50300000D01*
X151098095Y-50395238D01*
X151145714Y-50490476D01*
X151193333Y-50680952D01*
X151193333Y-50823809D01*
X151145714Y-51014285D01*
X151098095Y-51109523D01*
X151002857Y-51204761D01*
X150860000Y-51252380D01*
X150621904Y-51252380D01*
X123698095Y-50300000D02*
X123602857Y-50252380D01*
X123460000Y-50252380D01*
X123317142Y-50300000D01*
X123221904Y-50395238D01*
X123174285Y-50490476D01*
X123126666Y-50680952D01*
X123126666Y-50823809D01*
X123174285Y-51014285D01*
X123221904Y-51109523D01*
X123317142Y-51204761D01*
X123460000Y-51252380D01*
X123555238Y-51252380D01*
X123698095Y-51204761D01*
X123745714Y-51157142D01*
X123745714Y-50823809D01*
X123555238Y-50823809D01*
X124174285Y-51252380D02*
X124174285Y-50252380D01*
X124745714Y-51252380D01*
X124745714Y-50252380D01*
X125221904Y-51252380D02*
X125221904Y-50252380D01*
X125460000Y-50252380D01*
X125602857Y-50300000D01*
X125698095Y-50395238D01*
X125745714Y-50490476D01*
X125793333Y-50680952D01*
X125793333Y-50823809D01*
X125745714Y-51014285D01*
X125698095Y-51109523D01*
X125602857Y-51204761D01*
X125460000Y-51252380D01*
X125221904Y-51252380D01*
X153844761Y-65322380D02*
X154178095Y-66322380D01*
X154511428Y-65322380D01*
X154844761Y-66322380D02*
X154844761Y-65322380D01*
X155320952Y-66322380D02*
X155320952Y-65322380D01*
X155892380Y-66322380D01*
X155892380Y-65322380D01*
X152606666Y-66932380D02*
X153178095Y-66932380D01*
X152892380Y-67932380D02*
X152892380Y-66932380D01*
X153654285Y-67932380D02*
X153559047Y-67884761D01*
X153511428Y-67837142D01*
X153463809Y-67741904D01*
X153463809Y-67456190D01*
X153511428Y-67360952D01*
X153559047Y-67313333D01*
X153654285Y-67265714D01*
X153797142Y-67265714D01*
X153892380Y-67313333D01*
X153940000Y-67360952D01*
X153987619Y-67456190D01*
X153987619Y-67741904D01*
X153940000Y-67837142D01*
X153892380Y-67884761D01*
X153797142Y-67932380D01*
X153654285Y-67932380D01*
X154844761Y-67265714D02*
X154844761Y-68075238D01*
X154797142Y-68170476D01*
X154749523Y-68218095D01*
X154654285Y-68265714D01*
X154511428Y-68265714D01*
X154416190Y-68218095D01*
X154844761Y-67884761D02*
X154749523Y-67932380D01*
X154559047Y-67932380D01*
X154463809Y-67884761D01*
X154416190Y-67837142D01*
X154368571Y-67741904D01*
X154368571Y-67456190D01*
X154416190Y-67360952D01*
X154463809Y-67313333D01*
X154559047Y-67265714D01*
X154749523Y-67265714D01*
X154844761Y-67313333D01*
X155749523Y-67265714D02*
X155749523Y-68075238D01*
X155701904Y-68170476D01*
X155654285Y-68218095D01*
X155559047Y-68265714D01*
X155416190Y-68265714D01*
X155320952Y-68218095D01*
X155749523Y-67884761D02*
X155654285Y-67932380D01*
X155463809Y-67932380D01*
X155368571Y-67884761D01*
X155320952Y-67837142D01*
X155273333Y-67741904D01*
X155273333Y-67456190D01*
X155320952Y-67360952D01*
X155368571Y-67313333D01*
X155463809Y-67265714D01*
X155654285Y-67265714D01*
X155749523Y-67313333D01*
X156368571Y-67932380D02*
X156273333Y-67884761D01*
X156225714Y-67789523D01*
X156225714Y-66932380D01*
X157130476Y-67884761D02*
X157035238Y-67932380D01*
X156844761Y-67932380D01*
X156749523Y-67884761D01*
X156701904Y-67789523D01*
X156701904Y-67408571D01*
X156749523Y-67313333D01*
X156844761Y-67265714D01*
X157035238Y-67265714D01*
X157130476Y-67313333D01*
X157178095Y-67408571D01*
X157178095Y-67503809D01*
X156701904Y-67599047D01*
X136977380Y-110019047D02*
X135977380Y-110019047D01*
X136977380Y-109590476D02*
X136453571Y-109590476D01*
X136358333Y-109638095D01*
X136310714Y-109733333D01*
X136310714Y-109876190D01*
X136358333Y-109971428D01*
X136405952Y-110019047D01*
X136310714Y-109257142D02*
X136310714Y-108876190D01*
X135977380Y-109114285D02*
X136834523Y-109114285D01*
X136929761Y-109066666D01*
X136977380Y-108971428D01*
X136977380Y-108876190D01*
X136310714Y-108685714D02*
X136310714Y-108304761D01*
X135977380Y-108542857D02*
X136834523Y-108542857D01*
X136929761Y-108495238D01*
X136977380Y-108400000D01*
X136977380Y-108304761D01*
X136310714Y-107971428D02*
X137310714Y-107971428D01*
X136358333Y-107971428D02*
X136310714Y-107876190D01*
X136310714Y-107685714D01*
X136358333Y-107590476D01*
X136405952Y-107542857D01*
X136501190Y-107495238D01*
X136786904Y-107495238D01*
X136882142Y-107542857D01*
X136929761Y-107590476D01*
X136977380Y-107685714D01*
X136977380Y-107876190D01*
X136929761Y-107971428D01*
X136929761Y-107114285D02*
X136977380Y-107019047D01*
X136977380Y-106828571D01*
X136929761Y-106733333D01*
X136834523Y-106685714D01*
X136786904Y-106685714D01*
X136691666Y-106733333D01*
X136644047Y-106828571D01*
X136644047Y-106971428D01*
X136596428Y-107066666D01*
X136501190Y-107114285D01*
X136453571Y-107114285D01*
X136358333Y-107066666D01*
X136310714Y-106971428D01*
X136310714Y-106828571D01*
X136358333Y-106733333D01*
X136882142Y-106257142D02*
X136929761Y-106209523D01*
X136977380Y-106257142D01*
X136929761Y-106304761D01*
X136882142Y-106257142D01*
X136977380Y-106257142D01*
X136358333Y-106257142D02*
X136405952Y-106209523D01*
X136453571Y-106257142D01*
X136405952Y-106304761D01*
X136358333Y-106257142D01*
X136453571Y-106257142D01*
X135929761Y-105066666D02*
X137215476Y-105923809D01*
X135929761Y-104019047D02*
X137215476Y-104876190D01*
X136310714Y-103257142D02*
X137120238Y-103257142D01*
X137215476Y-103304761D01*
X137263095Y-103352380D01*
X137310714Y-103447619D01*
X137310714Y-103590476D01*
X137263095Y-103685714D01*
X136929761Y-103257142D02*
X136977380Y-103352380D01*
X136977380Y-103542857D01*
X136929761Y-103638095D01*
X136882142Y-103685714D01*
X136786904Y-103733333D01*
X136501190Y-103733333D01*
X136405952Y-103685714D01*
X136358333Y-103638095D01*
X136310714Y-103542857D01*
X136310714Y-103352380D01*
X136358333Y-103257142D01*
X136977380Y-102780952D02*
X136310714Y-102780952D01*
X135977380Y-102780952D02*
X136025000Y-102828571D01*
X136072619Y-102780952D01*
X136025000Y-102733333D01*
X135977380Y-102780952D01*
X136072619Y-102780952D01*
X136310714Y-102447619D02*
X136310714Y-102066666D01*
X135977380Y-102304761D02*
X136834523Y-102304761D01*
X136929761Y-102257142D01*
X136977380Y-102161904D01*
X136977380Y-102066666D01*
X136977380Y-101733333D02*
X135977380Y-101733333D01*
X136977380Y-101304761D02*
X136453571Y-101304761D01*
X136358333Y-101352380D01*
X136310714Y-101447619D01*
X136310714Y-101590476D01*
X136358333Y-101685714D01*
X136405952Y-101733333D01*
X136310714Y-100400000D02*
X136977380Y-100400000D01*
X136310714Y-100828571D02*
X136834523Y-100828571D01*
X136929761Y-100780952D01*
X136977380Y-100685714D01*
X136977380Y-100542857D01*
X136929761Y-100447619D01*
X136882142Y-100400000D01*
X136977380Y-99923809D02*
X135977380Y-99923809D01*
X136358333Y-99923809D02*
X136310714Y-99828571D01*
X136310714Y-99638095D01*
X136358333Y-99542857D01*
X136405952Y-99495238D01*
X136501190Y-99447619D01*
X136786904Y-99447619D01*
X136882142Y-99495238D01*
X136929761Y-99542857D01*
X136977380Y-99638095D01*
X136977380Y-99828571D01*
X136929761Y-99923809D01*
X136882142Y-99019047D02*
X136929761Y-98971428D01*
X136977380Y-99019047D01*
X136929761Y-99066666D01*
X136882142Y-99019047D01*
X136977380Y-99019047D01*
X136929761Y-98114285D02*
X136977380Y-98209523D01*
X136977380Y-98400000D01*
X136929761Y-98495238D01*
X136882142Y-98542857D01*
X136786904Y-98590476D01*
X136501190Y-98590476D01*
X136405952Y-98542857D01*
X136358333Y-98495238D01*
X136310714Y-98400000D01*
X136310714Y-98209523D01*
X136358333Y-98114285D01*
X136977380Y-97542857D02*
X136929761Y-97638095D01*
X136882142Y-97685714D01*
X136786904Y-97733333D01*
X136501190Y-97733333D01*
X136405952Y-97685714D01*
X136358333Y-97638095D01*
X136310714Y-97542857D01*
X136310714Y-97400000D01*
X136358333Y-97304761D01*
X136405952Y-97257142D01*
X136501190Y-97209523D01*
X136786904Y-97209523D01*
X136882142Y-97257142D01*
X136929761Y-97304761D01*
X136977380Y-97400000D01*
X136977380Y-97542857D01*
X136977380Y-96780952D02*
X136310714Y-96780952D01*
X136405952Y-96780952D02*
X136358333Y-96733333D01*
X136310714Y-96638095D01*
X136310714Y-96495238D01*
X136358333Y-96400000D01*
X136453571Y-96352380D01*
X136977380Y-96352380D01*
X136453571Y-96352380D02*
X136358333Y-96304761D01*
X136310714Y-96209523D01*
X136310714Y-96066666D01*
X136358333Y-95971428D01*
X136453571Y-95923809D01*
X136977380Y-95923809D01*
X135929761Y-94733333D02*
X137215476Y-95590476D01*
X136929761Y-94447619D02*
X136977380Y-94352380D01*
X136977380Y-94161904D01*
X136929761Y-94066666D01*
X136834523Y-94019047D01*
X136786904Y-94019047D01*
X136691666Y-94066666D01*
X136644047Y-94161904D01*
X136644047Y-94304761D01*
X136596428Y-94400000D01*
X136501190Y-94447619D01*
X136453571Y-94447619D01*
X136358333Y-94400000D01*
X136310714Y-94304761D01*
X136310714Y-94161904D01*
X136358333Y-94066666D01*
X136310714Y-93733333D02*
X136310714Y-93352380D01*
X135977380Y-93590476D02*
X136834523Y-93590476D01*
X136929761Y-93542857D01*
X136977380Y-93447619D01*
X136977380Y-93352380D01*
X136929761Y-92638095D02*
X136977380Y-92733333D01*
X136977380Y-92923809D01*
X136929761Y-93019047D01*
X136834523Y-93066666D01*
X136453571Y-93066666D01*
X136358333Y-93019047D01*
X136310714Y-92923809D01*
X136310714Y-92733333D01*
X136358333Y-92638095D01*
X136453571Y-92590476D01*
X136548809Y-92590476D01*
X136644047Y-93066666D01*
X136072619Y-92209523D02*
X136025000Y-92161904D01*
X135977380Y-92066666D01*
X135977380Y-91828571D01*
X136025000Y-91733333D01*
X136072619Y-91685714D01*
X136167857Y-91638095D01*
X136263095Y-91638095D01*
X136405952Y-91685714D01*
X136977380Y-92257142D01*
X136977380Y-91638095D01*
X136310714Y-90780952D02*
X136977380Y-90780952D01*
X135929761Y-91019047D02*
X136644047Y-91257142D01*
X136644047Y-90638095D01*
X136072619Y-90304761D02*
X136025000Y-90257142D01*
X135977380Y-90161904D01*
X135977380Y-89923809D01*
X136025000Y-89828571D01*
X136072619Y-89780952D01*
X136167857Y-89733333D01*
X136263095Y-89733333D01*
X136405952Y-89780952D01*
X136977380Y-90352380D01*
X136977380Y-89733333D01*
X135977380Y-88828571D02*
X135977380Y-89304761D01*
X136453571Y-89352380D01*
X136405952Y-89304761D01*
X136358333Y-89209523D01*
X136358333Y-88971428D01*
X136405952Y-88876190D01*
X136453571Y-88828571D01*
X136548809Y-88780952D01*
X136786904Y-88780952D01*
X136882142Y-88828571D01*
X136929761Y-88876190D01*
X136977380Y-88971428D01*
X136977380Y-89209523D01*
X136929761Y-89304761D01*
X136882142Y-89352380D01*
X135929761Y-87638095D02*
X137215476Y-88495238D01*
X136977380Y-87304761D02*
X135977380Y-87304761D01*
X135977380Y-86923809D01*
X136025000Y-86828571D01*
X136072619Y-86780952D01*
X136167857Y-86733333D01*
X136310714Y-86733333D01*
X136405952Y-86780952D01*
X136453571Y-86828571D01*
X136501190Y-86923809D01*
X136501190Y-87304761D01*
X136929761Y-86352380D02*
X136977380Y-86209523D01*
X136977380Y-85971428D01*
X136929761Y-85876190D01*
X136882142Y-85828571D01*
X136786904Y-85780952D01*
X136691666Y-85780952D01*
X136596428Y-85828571D01*
X136548809Y-85876190D01*
X136501190Y-85971428D01*
X136453571Y-86161904D01*
X136405952Y-86257142D01*
X136358333Y-86304761D01*
X136263095Y-86352380D01*
X136167857Y-86352380D01*
X136072619Y-86304761D01*
X136025000Y-86257142D01*
X135977380Y-86161904D01*
X135977380Y-85923809D01*
X136025000Y-85780952D01*
X136977380Y-85352380D02*
X135977380Y-85352380D01*
X135977380Y-84971428D01*
X136025000Y-84876190D01*
X136072619Y-84828571D01*
X136167857Y-84780952D01*
X136310714Y-84780952D01*
X136405952Y-84828571D01*
X136453571Y-84876190D01*
X136501190Y-84971428D01*
X136501190Y-85352380D01*
X136596428Y-84352380D02*
X136596428Y-83590476D01*
X136453571Y-82780952D02*
X136501190Y-82638095D01*
X136548809Y-82590476D01*
X136644047Y-82542857D01*
X136786904Y-82542857D01*
X136882142Y-82590476D01*
X136929761Y-82638095D01*
X136977380Y-82733333D01*
X136977380Y-83114285D01*
X135977380Y-83114285D01*
X135977380Y-82780952D01*
X136025000Y-82685714D01*
X136072619Y-82638095D01*
X136167857Y-82590476D01*
X136263095Y-82590476D01*
X136358333Y-82638095D01*
X136405952Y-82685714D01*
X136453571Y-82780952D01*
X136453571Y-83114285D01*
X136977380Y-81971428D02*
X136929761Y-82066666D01*
X136834523Y-82114285D01*
X135977380Y-82114285D01*
X136310714Y-81161904D02*
X136977380Y-81161904D01*
X136310714Y-81590476D02*
X136834523Y-81590476D01*
X136929761Y-81542857D01*
X136977380Y-81447619D01*
X136977380Y-81304761D01*
X136929761Y-81209523D01*
X136882142Y-81161904D01*
X136929761Y-80304761D02*
X136977380Y-80400000D01*
X136977380Y-80590476D01*
X136929761Y-80685714D01*
X136834523Y-80733333D01*
X136453571Y-80733333D01*
X136358333Y-80685714D01*
X136310714Y-80590476D01*
X136310714Y-80400000D01*
X136358333Y-80304761D01*
X136453571Y-80257142D01*
X136548809Y-80257142D01*
X136644047Y-80733333D01*
X136310714Y-79971428D02*
X136310714Y-79590476D01*
X135977380Y-79828571D02*
X136834523Y-79828571D01*
X136929761Y-79780952D01*
X136977380Y-79685714D01*
X136977380Y-79590476D01*
X136977380Y-79114285D02*
X136929761Y-79209523D01*
X136882142Y-79257142D01*
X136786904Y-79304761D01*
X136501190Y-79304761D01*
X136405952Y-79257142D01*
X136358333Y-79209523D01*
X136310714Y-79114285D01*
X136310714Y-78971428D01*
X136358333Y-78876190D01*
X136405952Y-78828571D01*
X136501190Y-78780952D01*
X136786904Y-78780952D01*
X136882142Y-78828571D01*
X136929761Y-78876190D01*
X136977380Y-78971428D01*
X136977380Y-79114285D01*
X136977380Y-78209523D02*
X136929761Y-78304761D01*
X136882142Y-78352380D01*
X136786904Y-78400000D01*
X136501190Y-78400000D01*
X136405952Y-78352380D01*
X136358333Y-78304761D01*
X136310714Y-78209523D01*
X136310714Y-78066666D01*
X136358333Y-77971428D01*
X136405952Y-77923809D01*
X136501190Y-77876190D01*
X136786904Y-77876190D01*
X136882142Y-77923809D01*
X136929761Y-77971428D01*
X136977380Y-78066666D01*
X136977380Y-78209523D01*
X136310714Y-77590476D02*
X136310714Y-77209523D01*
X135977380Y-77447619D02*
X136834523Y-77447619D01*
X136929761Y-77400000D01*
X136977380Y-77304761D01*
X136977380Y-77209523D01*
X136977380Y-76876190D02*
X135977380Y-76876190D01*
X136977380Y-76447619D02*
X136453571Y-76447619D01*
X136358333Y-76495238D01*
X136310714Y-76590476D01*
X136310714Y-76733333D01*
X136358333Y-76828571D01*
X136405952Y-76876190D01*
X136596428Y-75971428D02*
X136596428Y-75209523D01*
X136882142Y-74161904D02*
X136929761Y-74209523D01*
X136977380Y-74352380D01*
X136977380Y-74447619D01*
X136929761Y-74590476D01*
X136834523Y-74685714D01*
X136739285Y-74733333D01*
X136548809Y-74780952D01*
X136405952Y-74780952D01*
X136215476Y-74733333D01*
X136120238Y-74685714D01*
X136025000Y-74590476D01*
X135977380Y-74447619D01*
X135977380Y-74352380D01*
X136025000Y-74209523D01*
X136072619Y-74161904D01*
X136977380Y-73590476D02*
X136929761Y-73685714D01*
X136882142Y-73733333D01*
X136786904Y-73780952D01*
X136501190Y-73780952D01*
X136405952Y-73733333D01*
X136358333Y-73685714D01*
X136310714Y-73590476D01*
X136310714Y-73447619D01*
X136358333Y-73352380D01*
X136405952Y-73304761D01*
X136501190Y-73257142D01*
X136786904Y-73257142D01*
X136882142Y-73304761D01*
X136929761Y-73352380D01*
X136977380Y-73447619D01*
X136977380Y-73590476D01*
X136310714Y-72828571D02*
X136977380Y-72828571D01*
X136405952Y-72828571D02*
X136358333Y-72780952D01*
X136310714Y-72685714D01*
X136310714Y-72542857D01*
X136358333Y-72447619D01*
X136453571Y-72400000D01*
X136977380Y-72400000D01*
X136310714Y-72066666D02*
X136310714Y-71685714D01*
X135977380Y-71923809D02*
X136834523Y-71923809D01*
X136929761Y-71876190D01*
X136977380Y-71780952D01*
X136977380Y-71685714D01*
X136977380Y-71352380D02*
X136310714Y-71352380D01*
X136501190Y-71352380D02*
X136405952Y-71304761D01*
X136358333Y-71257142D01*
X136310714Y-71161904D01*
X136310714Y-71066666D01*
X136977380Y-70590476D02*
X136929761Y-70685714D01*
X136882142Y-70733333D01*
X136786904Y-70780952D01*
X136501190Y-70780952D01*
X136405952Y-70733333D01*
X136358333Y-70685714D01*
X136310714Y-70590476D01*
X136310714Y-70447619D01*
X136358333Y-70352380D01*
X136405952Y-70304761D01*
X136501190Y-70257142D01*
X136786904Y-70257142D01*
X136882142Y-70304761D01*
X136929761Y-70352380D01*
X136977380Y-70447619D01*
X136977380Y-70590476D01*
X136977380Y-69685714D02*
X136929761Y-69780952D01*
X136834523Y-69828571D01*
X135977380Y-69828571D01*
X136977380Y-69161904D02*
X136929761Y-69257142D01*
X136834523Y-69304761D01*
X135977380Y-69304761D01*
X136929761Y-68400000D02*
X136977380Y-68495238D01*
X136977380Y-68685714D01*
X136929761Y-68780952D01*
X136834523Y-68828571D01*
X136453571Y-68828571D01*
X136358333Y-68780952D01*
X136310714Y-68685714D01*
X136310714Y-68495238D01*
X136358333Y-68400000D01*
X136453571Y-68352380D01*
X136548809Y-68352380D01*
X136644047Y-68828571D01*
X136977380Y-67923809D02*
X136310714Y-67923809D01*
X136501190Y-67923809D02*
X136405952Y-67876190D01*
X136358333Y-67828571D01*
X136310714Y-67733333D01*
X136310714Y-67638095D01*
X115618809Y-81392380D02*
X115618809Y-80392380D01*
X115999761Y-80392380D01*
X116095000Y-80440000D01*
X116142619Y-80487619D01*
X116190238Y-80582857D01*
X116190238Y-80725714D01*
X116142619Y-80820952D01*
X116095000Y-80868571D01*
X115999761Y-80916190D01*
X115618809Y-80916190D01*
X116571190Y-81344761D02*
X116714047Y-81392380D01*
X116952142Y-81392380D01*
X117047380Y-81344761D01*
X117095000Y-81297142D01*
X117142619Y-81201904D01*
X117142619Y-81106666D01*
X117095000Y-81011428D01*
X117047380Y-80963809D01*
X116952142Y-80916190D01*
X116761666Y-80868571D01*
X116666428Y-80820952D01*
X116618809Y-80773333D01*
X116571190Y-80678095D01*
X116571190Y-80582857D01*
X116618809Y-80487619D01*
X116666428Y-80440000D01*
X116761666Y-80392380D01*
X116999761Y-80392380D01*
X117142619Y-80440000D01*
X117571190Y-81392380D02*
X117571190Y-80392380D01*
X117952142Y-80392380D01*
X118047380Y-80440000D01*
X118095000Y-80487619D01*
X118142619Y-80582857D01*
X118142619Y-80725714D01*
X118095000Y-80820952D01*
X118047380Y-80868571D01*
X117952142Y-80916190D01*
X117571190Y-80916190D01*
X119666428Y-80868571D02*
X119809285Y-80916190D01*
X119856904Y-80963809D01*
X119904523Y-81059047D01*
X119904523Y-81201904D01*
X119856904Y-81297142D01*
X119809285Y-81344761D01*
X119714047Y-81392380D01*
X119333095Y-81392380D01*
X119333095Y-80392380D01*
X119666428Y-80392380D01*
X119761666Y-80440000D01*
X119809285Y-80487619D01*
X119856904Y-80582857D01*
X119856904Y-80678095D01*
X119809285Y-80773333D01*
X119761666Y-80820952D01*
X119666428Y-80868571D01*
X119333095Y-80868571D01*
X120475952Y-81392380D02*
X120380714Y-81344761D01*
X120333095Y-81249523D01*
X120333095Y-80392380D01*
X121285476Y-80725714D02*
X121285476Y-81392380D01*
X120856904Y-80725714D02*
X120856904Y-81249523D01*
X120904523Y-81344761D01*
X120999761Y-81392380D01*
X121142619Y-81392380D01*
X121237857Y-81344761D01*
X121285476Y-81297142D01*
X122142619Y-81344761D02*
X122047380Y-81392380D01*
X121856904Y-81392380D01*
X121761666Y-81344761D01*
X121714047Y-81249523D01*
X121714047Y-80868571D01*
X121761666Y-80773333D01*
X121856904Y-80725714D01*
X122047380Y-80725714D01*
X122142619Y-80773333D01*
X122190238Y-80868571D01*
X122190238Y-80963809D01*
X121714047Y-81059047D01*
X122475952Y-80725714D02*
X122856904Y-80725714D01*
X122618809Y-80392380D02*
X122618809Y-81249523D01*
X122666428Y-81344761D01*
X122761666Y-81392380D01*
X122856904Y-81392380D01*
X123333095Y-81392380D02*
X123237857Y-81344761D01*
X123190238Y-81297142D01*
X123142619Y-81201904D01*
X123142619Y-80916190D01*
X123190238Y-80820952D01*
X123237857Y-80773333D01*
X123333095Y-80725714D01*
X123475952Y-80725714D01*
X123571190Y-80773333D01*
X123618809Y-80820952D01*
X123666428Y-80916190D01*
X123666428Y-81201904D01*
X123618809Y-81297142D01*
X123571190Y-81344761D01*
X123475952Y-81392380D01*
X123333095Y-81392380D01*
X124237857Y-81392380D02*
X124142619Y-81344761D01*
X124095000Y-81297142D01*
X124047380Y-81201904D01*
X124047380Y-80916190D01*
X124095000Y-80820952D01*
X124142619Y-80773333D01*
X124237857Y-80725714D01*
X124380714Y-80725714D01*
X124475952Y-80773333D01*
X124523571Y-80820952D01*
X124571190Y-80916190D01*
X124571190Y-81201904D01*
X124523571Y-81297142D01*
X124475952Y-81344761D01*
X124380714Y-81392380D01*
X124237857Y-81392380D01*
X124856904Y-80725714D02*
X125237857Y-80725714D01*
X124999761Y-80392380D02*
X124999761Y-81249523D01*
X125047380Y-81344761D01*
X125142619Y-81392380D01*
X125237857Y-81392380D01*
X125571190Y-81392380D02*
X125571190Y-80392380D01*
X125999761Y-81392380D02*
X125999761Y-80868571D01*
X125952142Y-80773333D01*
X125856904Y-80725714D01*
X125714047Y-80725714D01*
X125618809Y-80773333D01*
X125571190Y-80820952D01*
X127809285Y-81297142D02*
X127761666Y-81344761D01*
X127618809Y-81392380D01*
X127523571Y-81392380D01*
X127380714Y-81344761D01*
X127285476Y-81249523D01*
X127237857Y-81154285D01*
X127190238Y-80963809D01*
X127190238Y-80820952D01*
X127237857Y-80630476D01*
X127285476Y-80535238D01*
X127380714Y-80440000D01*
X127523571Y-80392380D01*
X127618809Y-80392380D01*
X127761666Y-80440000D01*
X127809285Y-80487619D01*
X128380714Y-81392380D02*
X128285476Y-81344761D01*
X128237857Y-81297142D01*
X128190238Y-81201904D01*
X128190238Y-80916190D01*
X128237857Y-80820952D01*
X128285476Y-80773333D01*
X128380714Y-80725714D01*
X128523571Y-80725714D01*
X128618809Y-80773333D01*
X128666428Y-80820952D01*
X128714047Y-80916190D01*
X128714047Y-81201904D01*
X128666428Y-81297142D01*
X128618809Y-81344761D01*
X128523571Y-81392380D01*
X128380714Y-81392380D01*
X129142619Y-80725714D02*
X129142619Y-81392380D01*
X129142619Y-80820952D02*
X129190238Y-80773333D01*
X129285476Y-80725714D01*
X129428333Y-80725714D01*
X129523571Y-80773333D01*
X129571190Y-80868571D01*
X129571190Y-81392380D01*
X129999761Y-81344761D02*
X130095000Y-81392380D01*
X130285476Y-81392380D01*
X130380714Y-81344761D01*
X130428333Y-81249523D01*
X130428333Y-81201904D01*
X130380714Y-81106666D01*
X130285476Y-81059047D01*
X130142619Y-81059047D01*
X130047380Y-81011428D01*
X129999761Y-80916190D01*
X129999761Y-80868571D01*
X130047380Y-80773333D01*
X130142619Y-80725714D01*
X130285476Y-80725714D01*
X130380714Y-80773333D01*
X130999761Y-81392380D02*
X130904523Y-81344761D01*
X130856904Y-81297142D01*
X130809285Y-81201904D01*
X130809285Y-80916190D01*
X130856904Y-80820952D01*
X130904523Y-80773333D01*
X130999761Y-80725714D01*
X131142619Y-80725714D01*
X131237857Y-80773333D01*
X131285476Y-80820952D01*
X131333095Y-80916190D01*
X131333095Y-81201904D01*
X131285476Y-81297142D01*
X131237857Y-81344761D01*
X131142619Y-81392380D01*
X130999761Y-81392380D01*
X131904523Y-81392380D02*
X131809285Y-81344761D01*
X131761666Y-81249523D01*
X131761666Y-80392380D01*
X132285476Y-81392380D02*
X132285476Y-80725714D01*
X132285476Y-80392380D02*
X132237857Y-80440000D01*
X132285476Y-80487619D01*
X132333095Y-80440000D01*
X132285476Y-80392380D01*
X132285476Y-80487619D01*
X132666428Y-80725714D02*
X133190238Y-80725714D01*
X132666428Y-81392380D01*
X133190238Y-81392380D01*
X133952142Y-81344761D02*
X133856904Y-81392380D01*
X133666428Y-81392380D01*
X133571190Y-81344761D01*
X133523571Y-81249523D01*
X133523571Y-80868571D01*
X133571190Y-80773333D01*
X133666428Y-80725714D01*
X133856904Y-80725714D01*
X133952142Y-80773333D01*
X133999761Y-80868571D01*
X133999761Y-80963809D01*
X133523571Y-81059047D01*
X134428333Y-81392380D02*
X134428333Y-80725714D01*
X134428333Y-80916190D02*
X134475952Y-80820952D01*
X134523571Y-80773333D01*
X134618809Y-80725714D01*
X134714047Y-80725714D01*
X124285476Y-82002380D02*
X124618809Y-83002380D01*
X124952142Y-82002380D01*
X125237857Y-82097619D02*
X125285476Y-82050000D01*
X125380714Y-82002380D01*
X125618809Y-82002380D01*
X125714047Y-82050000D01*
X125761666Y-82097619D01*
X125809285Y-82192857D01*
X125809285Y-82288095D01*
X125761666Y-82430952D01*
X125190238Y-83002380D01*
X125809285Y-83002380D01*
X117047380Y-84564761D02*
X117190238Y-84612380D01*
X117428333Y-84612380D01*
X117523571Y-84564761D01*
X117571190Y-84517142D01*
X117618809Y-84421904D01*
X117618809Y-84326666D01*
X117571190Y-84231428D01*
X117523571Y-84183809D01*
X117428333Y-84136190D01*
X117237857Y-84088571D01*
X117142619Y-84040952D01*
X117095000Y-83993333D01*
X117047380Y-83898095D01*
X117047380Y-83802857D01*
X117095000Y-83707619D01*
X117142619Y-83660000D01*
X117237857Y-83612380D01*
X117475952Y-83612380D01*
X117618809Y-83660000D01*
X117904523Y-83945714D02*
X118285476Y-83945714D01*
X118047380Y-83612380D02*
X118047380Y-84469523D01*
X118095000Y-84564761D01*
X118190238Y-84612380D01*
X118285476Y-84612380D01*
X118999761Y-84564761D02*
X118904523Y-84612380D01*
X118714047Y-84612380D01*
X118618809Y-84564761D01*
X118571190Y-84469523D01*
X118571190Y-84088571D01*
X118618809Y-83993333D01*
X118714047Y-83945714D01*
X118904523Y-83945714D01*
X118999761Y-83993333D01*
X119047380Y-84088571D01*
X119047380Y-84183809D01*
X118571190Y-84279047D01*
X119475952Y-83945714D02*
X119475952Y-84945714D01*
X119475952Y-83993333D02*
X119571190Y-83945714D01*
X119761666Y-83945714D01*
X119856904Y-83993333D01*
X119904523Y-84040952D01*
X119952142Y-84136190D01*
X119952142Y-84421904D01*
X119904523Y-84517142D01*
X119856904Y-84564761D01*
X119761666Y-84612380D01*
X119571190Y-84612380D01*
X119475952Y-84564761D01*
X120380714Y-84612380D02*
X120380714Y-83612380D01*
X120809285Y-84612380D02*
X120809285Y-84088571D01*
X120761666Y-83993333D01*
X120666428Y-83945714D01*
X120523571Y-83945714D01*
X120428333Y-83993333D01*
X120380714Y-84040952D01*
X121666428Y-84564761D02*
X121571190Y-84612380D01*
X121380714Y-84612380D01*
X121285476Y-84564761D01*
X121237857Y-84469523D01*
X121237857Y-84088571D01*
X121285476Y-83993333D01*
X121380714Y-83945714D01*
X121571190Y-83945714D01*
X121666428Y-83993333D01*
X121714047Y-84088571D01*
X121714047Y-84183809D01*
X121237857Y-84279047D01*
X122142619Y-83945714D02*
X122142619Y-84612380D01*
X122142619Y-84040952D02*
X122190238Y-83993333D01*
X122285476Y-83945714D01*
X122428333Y-83945714D01*
X122523571Y-83993333D01*
X122571190Y-84088571D01*
X122571190Y-84612380D01*
X124380714Y-84517142D02*
X124333095Y-84564761D01*
X124190238Y-84612380D01*
X124095000Y-84612380D01*
X123952142Y-84564761D01*
X123856904Y-84469523D01*
X123809285Y-84374285D01*
X123761666Y-84183809D01*
X123761666Y-84040952D01*
X123809285Y-83850476D01*
X123856904Y-83755238D01*
X123952142Y-83660000D01*
X124095000Y-83612380D01*
X124190238Y-83612380D01*
X124333095Y-83660000D01*
X124380714Y-83707619D01*
X124952142Y-84612380D02*
X124856904Y-84564761D01*
X124809285Y-84517142D01*
X124761666Y-84421904D01*
X124761666Y-84136190D01*
X124809285Y-84040952D01*
X124856904Y-83993333D01*
X124952142Y-83945714D01*
X125095000Y-83945714D01*
X125190238Y-83993333D01*
X125237857Y-84040952D01*
X125285476Y-84136190D01*
X125285476Y-84421904D01*
X125237857Y-84517142D01*
X125190238Y-84564761D01*
X125095000Y-84612380D01*
X124952142Y-84612380D01*
X125856904Y-84612380D02*
X125761666Y-84564761D01*
X125714047Y-84517142D01*
X125666428Y-84421904D01*
X125666428Y-84136190D01*
X125714047Y-84040952D01*
X125761666Y-83993333D01*
X125856904Y-83945714D01*
X125999761Y-83945714D01*
X126095000Y-83993333D01*
X126142619Y-84040952D01*
X126190238Y-84136190D01*
X126190238Y-84421904D01*
X126142619Y-84517142D01*
X126095000Y-84564761D01*
X125999761Y-84612380D01*
X125856904Y-84612380D01*
X126618809Y-83945714D02*
X126618809Y-84945714D01*
X126618809Y-83993333D02*
X126714047Y-83945714D01*
X126904523Y-83945714D01*
X126999761Y-83993333D01*
X127047380Y-84040952D01*
X127095000Y-84136190D01*
X127095000Y-84421904D01*
X127047380Y-84517142D01*
X126999761Y-84564761D01*
X126904523Y-84612380D01*
X126714047Y-84612380D01*
X126618809Y-84564761D01*
X127904523Y-84564761D02*
X127809285Y-84612380D01*
X127618809Y-84612380D01*
X127523571Y-84564761D01*
X127475952Y-84469523D01*
X127475952Y-84088571D01*
X127523571Y-83993333D01*
X127618809Y-83945714D01*
X127809285Y-83945714D01*
X127904523Y-83993333D01*
X127952142Y-84088571D01*
X127952142Y-84183809D01*
X127475952Y-84279047D01*
X128380714Y-84612380D02*
X128380714Y-83945714D01*
X128380714Y-84136190D02*
X128428333Y-84040952D01*
X128475952Y-83993333D01*
X128571190Y-83945714D01*
X128666428Y-83945714D01*
X129714047Y-83707619D02*
X129761666Y-83660000D01*
X129856904Y-83612380D01*
X130095000Y-83612380D01*
X130190238Y-83660000D01*
X130237857Y-83707619D01*
X130285476Y-83802857D01*
X130285476Y-83898095D01*
X130237857Y-84040952D01*
X129666428Y-84612380D01*
X130285476Y-84612380D01*
X130904523Y-83612380D02*
X130999761Y-83612380D01*
X131095000Y-83660000D01*
X131142619Y-83707619D01*
X131190238Y-83802857D01*
X131237857Y-83993333D01*
X131237857Y-84231428D01*
X131190238Y-84421904D01*
X131142619Y-84517142D01*
X131095000Y-84564761D01*
X130999761Y-84612380D01*
X130904523Y-84612380D01*
X130809285Y-84564761D01*
X130761666Y-84517142D01*
X130714047Y-84421904D01*
X130666428Y-84231428D01*
X130666428Y-83993333D01*
X130714047Y-83802857D01*
X130761666Y-83707619D01*
X130809285Y-83660000D01*
X130904523Y-83612380D01*
X131618809Y-83707619D02*
X131666428Y-83660000D01*
X131761666Y-83612380D01*
X131999761Y-83612380D01*
X132095000Y-83660000D01*
X132142619Y-83707619D01*
X132190238Y-83802857D01*
X132190238Y-83898095D01*
X132142619Y-84040952D01*
X131571190Y-84612380D01*
X132190238Y-84612380D01*
X132571190Y-83707619D02*
X132618809Y-83660000D01*
X132714047Y-83612380D01*
X132952142Y-83612380D01*
X133047380Y-83660000D01*
X133095000Y-83707619D01*
X133142619Y-83802857D01*
X133142619Y-83898095D01*
X133095000Y-84040952D01*
X132523571Y-84612380D01*
X133142619Y-84612380D01*
X142017714Y-71699380D02*
X141446285Y-71699380D01*
X141732000Y-71699380D02*
X141732000Y-70699380D01*
X141636761Y-70842238D01*
X141541523Y-70937476D01*
X141446285Y-70985095D01*
X148621904Y-60142380D02*
X148621904Y-59142380D01*
X149002857Y-59142380D01*
X149098095Y-59190000D01*
X149145714Y-59237619D01*
X149193333Y-59332857D01*
X149193333Y-59475714D01*
X149145714Y-59570952D01*
X149098095Y-59618571D01*
X149002857Y-59666190D01*
X148621904Y-59666190D01*
X149574285Y-60094761D02*
X149717142Y-60142380D01*
X149955238Y-60142380D01*
X150050476Y-60094761D01*
X150098095Y-60047142D01*
X150145714Y-59951904D01*
X150145714Y-59856666D01*
X150098095Y-59761428D01*
X150050476Y-59713809D01*
X149955238Y-59666190D01*
X149764761Y-59618571D01*
X149669523Y-59570952D01*
X149621904Y-59523333D01*
X149574285Y-59428095D01*
X149574285Y-59332857D01*
X149621904Y-59237619D01*
X149669523Y-59190000D01*
X149764761Y-59142380D01*
X150002857Y-59142380D01*
X150145714Y-59190000D01*
X150574285Y-60142380D02*
X150574285Y-59142380D01*
X150955238Y-59142380D01*
X151050476Y-59190000D01*
X151098095Y-59237619D01*
X151145714Y-59332857D01*
X151145714Y-59475714D01*
X151098095Y-59570952D01*
X151050476Y-59618571D01*
X150955238Y-59666190D01*
X150574285Y-59666190D01*
%TO.C,P1*%
X142438380Y-88368095D02*
X141438380Y-88368095D01*
X141438380Y-87987142D01*
X141486000Y-87891904D01*
X141533619Y-87844285D01*
X141628857Y-87796666D01*
X141771714Y-87796666D01*
X141866952Y-87844285D01*
X141914571Y-87891904D01*
X141962190Y-87987142D01*
X141962190Y-88368095D01*
X142438380Y-86844285D02*
X142438380Y-87415714D01*
X142438380Y-87130000D02*
X141438380Y-87130000D01*
X141581238Y-87225238D01*
X141676476Y-87320476D01*
X141724095Y-87415714D01*
%TO.C,P2*%
X152598380Y-88368095D02*
X151598380Y-88368095D01*
X151598380Y-87987142D01*
X151646000Y-87891904D01*
X151693619Y-87844285D01*
X151788857Y-87796666D01*
X151931714Y-87796666D01*
X152026952Y-87844285D01*
X152074571Y-87891904D01*
X152122190Y-87987142D01*
X152122190Y-88368095D01*
X151693619Y-87415714D02*
X151646000Y-87368095D01*
X151598380Y-87272857D01*
X151598380Y-87034761D01*
X151646000Y-86939523D01*
X151693619Y-86891904D01*
X151788857Y-86844285D01*
X151884095Y-86844285D01*
X152026952Y-86891904D01*
X152598380Y-87463333D01*
X152598380Y-86844285D01*
%TO.C,S1*%
X142723095Y-64212261D02*
X142865952Y-64259880D01*
X143104047Y-64259880D01*
X143199285Y-64212261D01*
X143246904Y-64164642D01*
X143294523Y-64069404D01*
X143294523Y-63974166D01*
X143246904Y-63878928D01*
X143199285Y-63831309D01*
X143104047Y-63783690D01*
X142913571Y-63736071D01*
X142818333Y-63688452D01*
X142770714Y-63640833D01*
X142723095Y-63545595D01*
X142723095Y-63450357D01*
X142770714Y-63355119D01*
X142818333Y-63307500D01*
X142913571Y-63259880D01*
X143151666Y-63259880D01*
X143294523Y-63307500D01*
X144246904Y-64259880D02*
X143675476Y-64259880D01*
X143961190Y-64259880D02*
X143961190Y-63259880D01*
X143865952Y-63402738D01*
X143770714Y-63497976D01*
X143675476Y-63545595D01*
%TO.C,U1*%
X115227380Y-109336904D02*
X116036904Y-109336904D01*
X116132142Y-109289285D01*
X116179761Y-109241666D01*
X116227380Y-109146428D01*
X116227380Y-108955952D01*
X116179761Y-108860714D01*
X116132142Y-108813095D01*
X116036904Y-108765476D01*
X115227380Y-108765476D01*
X116227380Y-107765476D02*
X116227380Y-108336904D01*
X116227380Y-108051190D02*
X115227380Y-108051190D01*
X115370238Y-108146428D01*
X115465476Y-108241666D01*
X115513095Y-108336904D01*
%TO.C,J7*%
X117776666Y-51732380D02*
X117776666Y-52446666D01*
X117729047Y-52589523D01*
X117633809Y-52684761D01*
X117490952Y-52732380D01*
X117395714Y-52732380D01*
X118157619Y-51732380D02*
X118824285Y-51732380D01*
X118395714Y-52732380D01*
%TO.C,J4*%
X125402380Y-117173333D02*
X126116666Y-117173333D01*
X126259523Y-117220952D01*
X126354761Y-117316190D01*
X126402380Y-117459047D01*
X126402380Y-117554285D01*
X125735714Y-116268571D02*
X126402380Y-116268571D01*
X125354761Y-116506666D02*
X126069047Y-116744761D01*
X126069047Y-116125714D01*
%TO.C,J5*%
X149526666Y-51727380D02*
X149526666Y-52441666D01*
X149479047Y-52584523D01*
X149383809Y-52679761D01*
X149240952Y-52727380D01*
X149145714Y-52727380D01*
X150479047Y-51727380D02*
X150002857Y-51727380D01*
X149955238Y-52203571D01*
X150002857Y-52155952D01*
X150098095Y-52108333D01*
X150336190Y-52108333D01*
X150431428Y-52155952D01*
X150479047Y-52203571D01*
X150526666Y-52298809D01*
X150526666Y-52536904D01*
X150479047Y-52632142D01*
X150431428Y-52679761D01*
X150336190Y-52727380D01*
X150098095Y-52727380D01*
X150002857Y-52679761D01*
X149955238Y-52632142D01*
%TO.C,J8*%
X154606666Y-58077380D02*
X154606666Y-58791666D01*
X154559047Y-58934523D01*
X154463809Y-59029761D01*
X154320952Y-59077380D01*
X154225714Y-59077380D01*
X155225714Y-58505952D02*
X155130476Y-58458333D01*
X155082857Y-58410714D01*
X155035238Y-58315476D01*
X155035238Y-58267857D01*
X155082857Y-58172619D01*
X155130476Y-58125000D01*
X155225714Y-58077380D01*
X155416190Y-58077380D01*
X155511428Y-58125000D01*
X155559047Y-58172619D01*
X155606666Y-58267857D01*
X155606666Y-58315476D01*
X155559047Y-58410714D01*
X155511428Y-58458333D01*
X155416190Y-58505952D01*
X155225714Y-58505952D01*
X155130476Y-58553571D01*
X155082857Y-58601190D01*
X155035238Y-58696428D01*
X155035238Y-58886904D01*
X155082857Y-58982142D01*
X155130476Y-59029761D01*
X155225714Y-59077380D01*
X155416190Y-59077380D01*
X155511428Y-59029761D01*
X155559047Y-58982142D01*
X155606666Y-58886904D01*
X155606666Y-58696428D01*
X155559047Y-58601190D01*
X155511428Y-58553571D01*
X155416190Y-58505952D01*
%TO.C,J6*%
X124126666Y-51727380D02*
X124126666Y-52441666D01*
X124079047Y-52584523D01*
X123983809Y-52679761D01*
X123840952Y-52727380D01*
X123745714Y-52727380D01*
X125031428Y-51727380D02*
X124840952Y-51727380D01*
X124745714Y-51775000D01*
X124698095Y-51822619D01*
X124602857Y-51965476D01*
X124555238Y-52155952D01*
X124555238Y-52536904D01*
X124602857Y-52632142D01*
X124650476Y-52679761D01*
X124745714Y-52727380D01*
X124936190Y-52727380D01*
X125031428Y-52679761D01*
X125079047Y-52632142D01*
X125126666Y-52536904D01*
X125126666Y-52298809D01*
X125079047Y-52203571D01*
X125031428Y-52155952D01*
X124936190Y-52108333D01*
X124745714Y-52108333D01*
X124650476Y-52155952D01*
X124602857Y-52203571D01*
X124555238Y-52298809D01*
%TO.C,P1*%
X140716000Y-72517000D02*
X140716000Y-108077000D01*
X138176000Y-69977000D02*
X138176000Y-72517000D01*
X138176000Y-108077000D02*
X138176000Y-72517000D01*
X140716000Y-108077000D02*
X138176000Y-108077000D01*
X140716000Y-72517000D02*
X140716000Y-69977000D01*
X140716000Y-69977000D02*
X138176000Y-69977000D01*
X138176000Y-72517000D02*
X140716000Y-72517000D01*
%TO.C,P2*%
X155956000Y-69977000D02*
X153416000Y-69977000D01*
X155956000Y-72517000D02*
X155956000Y-69977000D01*
X155956000Y-108077000D02*
X153416000Y-108077000D01*
X155956000Y-72517000D02*
X155956000Y-108077000D01*
X153416000Y-72517000D02*
X155956000Y-72517000D01*
X153416000Y-69977000D02*
X153416000Y-72517000D01*
X153416000Y-108077000D02*
X153416000Y-72517000D01*
D11*
%TO.C,S1*%
X146810000Y-50052500D02*
X146810000Y-60212500D01*
X127510000Y-60212500D02*
X127510000Y-50052500D01*
X127510000Y-50052500D02*
X146810000Y-50052500D01*
X146810000Y-60212500D02*
X127510000Y-60212500D01*
D12*
X142260000Y-62672500D02*
G75*
G03*
X142260000Y-62672500I-100000J0D01*
G01*
D13*
%TO.C,U1*%
X116775000Y-109575000D02*
X116775000Y-111225000D01*
X134675000Y-111225000D02*
X134675000Y-105925000D01*
X116775000Y-105925000D02*
X116775000Y-107575000D01*
X134675000Y-105925000D02*
X116775000Y-105925000D01*
X116775000Y-111225000D02*
X134675000Y-111225000D01*
X116775000Y-109575000D02*
G75*
G03*
X116775000Y-107575000I0J1000000D01*
G01*
%TO.C,J7*%
X116780000Y-53280000D02*
X118110000Y-53280000D01*
X119440000Y-55880000D02*
X119440000Y-58480000D01*
X116780000Y-58480000D02*
X119440000Y-58480000D01*
X116780000Y-55880000D02*
X116780000Y-58480000D01*
X116780000Y-54610000D02*
X116780000Y-53280000D01*
X116780000Y-55880000D02*
X119440000Y-55880000D01*
%TO.C,J4*%
X137230000Y-118170000D02*
X137230000Y-115510000D01*
X126950000Y-118170000D02*
X126950000Y-116840000D01*
X129550000Y-118170000D02*
X129550000Y-115510000D01*
X129550000Y-118170000D02*
X137230000Y-118170000D01*
X128280000Y-118170000D02*
X126950000Y-118170000D01*
X129550000Y-115510000D02*
X137230000Y-115510000D01*
%TO.C,J5*%
X148530000Y-53275000D02*
X149860000Y-53275000D01*
X148530000Y-54605000D02*
X148530000Y-53275000D01*
X148530000Y-55875000D02*
X148530000Y-58475000D01*
X148530000Y-55875000D02*
X151190000Y-55875000D01*
X151190000Y-55875000D02*
X151190000Y-58475000D01*
X148530000Y-58475000D02*
X151190000Y-58475000D01*
%TO.C,J8*%
X156270000Y-62225000D02*
X156270000Y-64825000D01*
X153610000Y-62225000D02*
X156270000Y-62225000D01*
X153610000Y-62225000D02*
X153610000Y-64825000D01*
X153610000Y-64825000D02*
X156270000Y-64825000D01*
X153610000Y-60955000D02*
X153610000Y-59625000D01*
X153610000Y-59625000D02*
X154940000Y-59625000D01*
%TO.C,J6*%
X125790000Y-55875000D02*
X125790000Y-58475000D01*
X123130000Y-55875000D02*
X123130000Y-58475000D01*
X123130000Y-54605000D02*
X123130000Y-53275000D01*
X123130000Y-58475000D02*
X125790000Y-58475000D01*
X123130000Y-55875000D02*
X125790000Y-55875000D01*
X123130000Y-53275000D02*
X124460000Y-53275000D01*
%TD*%
D14*
%TO.C,P1*%
X139446000Y-71247000D03*
X139446000Y-73787000D03*
X139446000Y-76327000D03*
X139446000Y-78867000D03*
X139446000Y-81407000D03*
X139446000Y-83947000D03*
X139446000Y-86487000D03*
X139446000Y-89027000D03*
X139446000Y-91567000D03*
X139446000Y-94107000D03*
X139446000Y-96647000D03*
X139446000Y-99187000D03*
X139446000Y-101727000D03*
X139446000Y-104267000D03*
X139446000Y-106807000D03*
%TD*%
%TO.C,P2*%
X154686000Y-71247000D03*
X154686000Y-73787000D03*
X154686000Y-76327000D03*
X154686000Y-78867000D03*
X154686000Y-81407000D03*
X154686000Y-83947000D03*
X154686000Y-86487000D03*
X154686000Y-89027000D03*
X154686000Y-91567000D03*
X154686000Y-94107000D03*
X154686000Y-96647000D03*
X154686000Y-99187000D03*
X154686000Y-101727000D03*
X154686000Y-104267000D03*
X154686000Y-106807000D03*
%TD*%
D15*
%TO.C,P3*%
X116840000Y-48260000D03*
%TD*%
%TO.C,P4*%
X116840000Y-116840000D03*
%TD*%
%TO.C,P5*%
X154940000Y-116205000D03*
%TD*%
%TO.C,P6*%
X154940000Y-48260000D03*
%TD*%
M02*
