%TF.GenerationSoftware,KiCad,Pcbnew,(6.0.1)*%
%TF.CreationDate,2022-06-07T11:34:35+01:00*%
%TF.ProjectId,psp-bluetooth,7073702d-626c-4756-9574-6f6f74682e6b,rev?*%
%TF.SameCoordinates,Original*%
%TF.FileFunction,Legend,Bot*%
%TF.FilePolarity,Positive*%
%FSLAX46Y46*%
G04 Gerber Fmt 4.6, Leading zero omitted, Abs format (unit mm)*
G04 Created by KiCad (PCBNEW (6.0.1)) date 2022-06-07 11:34:35*
%MOMM*%
%LPD*%
G01*
G04 APERTURE LIST*
%ADD10C,0.150000*%
%ADD11C,0.120000*%
G04 APERTURE END LIST*
D10*
%TO.C,J3*%
X124752380Y-82216666D02*
X125466666Y-82216666D01*
X125609523Y-82169047D01*
X125704761Y-82073809D01*
X125752380Y-81930952D01*
X125752380Y-81835714D01*
X124752380Y-82597619D02*
X124752380Y-83216666D01*
X125133333Y-82883333D01*
X125133333Y-83026190D01*
X125180952Y-83121428D01*
X125228571Y-83169047D01*
X125323809Y-83216666D01*
X125561904Y-83216666D01*
X125657142Y-83169047D01*
X125704761Y-83121428D01*
X125752380Y-83026190D01*
X125752380Y-82740476D01*
X125704761Y-82645238D01*
X125657142Y-82597619D01*
%TO.C,J1*%
X124752380Y-96186666D02*
X125466666Y-96186666D01*
X125609523Y-96139047D01*
X125704761Y-96043809D01*
X125752380Y-95900952D01*
X125752380Y-95805714D01*
X125752380Y-97186666D02*
X125752380Y-96615238D01*
X125752380Y-96900952D02*
X124752380Y-96900952D01*
X124895238Y-96805714D01*
X124990476Y-96710476D01*
X125038095Y-96615238D01*
%TO.C,J2*%
X124437380Y-68881666D02*
X125151666Y-68881666D01*
X125294523Y-68834047D01*
X125389761Y-68738809D01*
X125437380Y-68595952D01*
X125437380Y-68500714D01*
X124532619Y-69310238D02*
X124485000Y-69357857D01*
X124437380Y-69453095D01*
X124437380Y-69691190D01*
X124485000Y-69786428D01*
X124532619Y-69834047D01*
X124627857Y-69881666D01*
X124723095Y-69881666D01*
X124865952Y-69834047D01*
X125437380Y-69262619D01*
X125437380Y-69881666D01*
D11*
%TO.C,J3*%
X122900000Y-78890000D02*
X122900000Y-77400000D01*
X122900000Y-86210000D02*
X122900000Y-87700000D01*
X117100000Y-87700000D02*
X117100000Y-77400000D01*
X117100000Y-77400000D02*
X118840000Y-77400000D01*
X122900000Y-86210000D02*
X124100000Y-86210000D01*
X118840000Y-87700000D02*
X117100000Y-87700000D01*
X122900000Y-87700000D02*
X121560000Y-87700000D01*
X122900000Y-77400000D02*
X121560000Y-77400000D01*
%TO.C,J1*%
X122900000Y-92370000D02*
X121560000Y-92370000D01*
X118840000Y-100670000D02*
X117100000Y-100670000D01*
X122900000Y-93860000D02*
X122900000Y-92370000D01*
X122900000Y-100670000D02*
X121560000Y-100670000D01*
X122900000Y-99180000D02*
X122900000Y-100670000D01*
X117100000Y-92370000D02*
X118840000Y-92370000D01*
X117100000Y-100670000D02*
X117100000Y-92370000D01*
X122900000Y-99180000D02*
X124100000Y-99180000D01*
%TO.C,J2*%
X122585000Y-73365000D02*
X121245000Y-73365000D01*
X122585000Y-71875000D02*
X123785000Y-71875000D01*
X122585000Y-71875000D02*
X122585000Y-73365000D01*
X118525000Y-73365000D02*
X116785000Y-73365000D01*
X116785000Y-65065000D02*
X118525000Y-65065000D01*
X122585000Y-65065000D02*
X121245000Y-65065000D01*
X122585000Y-66555000D02*
X122585000Y-65065000D01*
X116785000Y-73365000D02*
X116785000Y-65065000D01*
%TD*%
M02*
