M48
; DRILL file {KiCad (6.0.1)} date Sun Jul 17 20:34:37 2022
; FORMAT={-:-/ absolute / inch / decimal}
; #@! TF.CreationDate,2022-07-17T20:34:37+01:00
; #@! TF.GenerationSoftware,Kicad,Pcbnew,(6.0.1)
; #@! TF.FileFunction,Plated,1,2,PTH
FMAT,2
INCH
; #@! TA.AperFunction,Plated,PTH,ComponentDrill
T1C0.0315
; #@! TA.AperFunction,Plated,PTH,ComponentDrill
T2C0.0394
; #@! TA.AperFunction,Plated,PTH,ComponentDrill
T3C0.0400
; #@! TA.AperFunction,Plated,PTH,ComponentDrill
T4C0.0650
; #@! TA.AperFunction,Plated,PTH,ComponentDrill
T5C0.0700
%
G90
G05
T1
X4.6498Y-4.1246
X4.6498Y-4.4246
X4.7498Y-4.1246
X4.7498Y-4.4246
X4.8498Y-4.1246
X4.8498Y-4.4246
X4.9498Y-4.1246
X4.9498Y-4.4246
X5.0498Y-4.1246
X5.0498Y-4.4246
X5.1498Y-4.1246
X5.1498Y-4.4246
X5.2498Y-4.1246
X5.2498Y-4.4246
T2
X5.0504Y-4.6
X5.1504Y-4.6
X5.175Y-2.5248
X5.25Y-2.8
X5.25Y-2.9
X5.2504Y-4.6
X5.275Y-2.5248
X5.3504Y-4.6
X5.9998Y-2.525
X6.0998Y-2.525
T3
X5.49Y-2.805
X5.49Y-2.905
X5.49Y-3.005
X5.49Y-3.105
X5.49Y-3.205
X5.49Y-3.305
X5.49Y-3.405
X5.49Y-3.505
X5.49Y-3.605
X5.49Y-3.705
X5.49Y-3.805
X5.49Y-3.905
X5.49Y-4.005
X5.49Y-4.105
X5.49Y-4.205
X6.09Y-2.805
X6.09Y-2.905
X6.09Y-3.005
X6.09Y-3.105
X6.09Y-3.205
X6.09Y-3.305
X6.09Y-3.405
X6.09Y-3.505
X6.09Y-3.605
X6.09Y-3.705
X6.09Y-3.805
X6.09Y-3.905
X6.09Y-4.005
X6.09Y-4.105
X6.09Y-4.205
T4
X5.438Y-2.1456
X5.625Y-2.1456
X5.812Y-2.1456
T5
X4.6Y-1.9
X4.6Y-4.6
X6.1Y-1.9
X6.1Y-4.575
T2
G00X4.7478Y-2.0705
M15
G01X4.7478Y-2.0114
M16
G05
G00X4.9506Y-2.0803
M15
G01X4.8994Y-2.0803
M16
G05
G00X4.9644Y-2.3165
M15
G01X4.8856Y-2.3165
M16
G05
G00X5.1022Y-2.0705
M15
G01X5.1022Y-2.0114
M16
G05
T0
M30
