%TF.GenerationSoftware,KiCad,Pcbnew,(6.0.1)*%
%TF.CreationDate,2022-07-24T14:20:51+01:00*%
%TF.ProjectId,psp-bluetooth,7073702d-626c-4756-9574-6f6f74682e6b,rev?*%
%TF.SameCoordinates,Original*%
%TF.FileFunction,Legend,Top*%
%TF.FilePolarity,Positive*%
%FSLAX46Y46*%
G04 Gerber Fmt 4.6, Leading zero omitted, Abs format (unit mm)*
G04 Created by KiCad (PCBNEW (6.0.1)) date 2022-07-24 14:20:51*
%MOMM*%
%LPD*%
G01*
G04 APERTURE LIST*
%ADD10C,0.150000*%
%ADD11C,0.127000*%
%ADD12C,0.200000*%
%ADD13C,0.120000*%
%ADD14O,1.727200X2.032000*%
G04 APERTURE END LIST*
D10*
X115190476Y-93452380D02*
X115523809Y-94452380D01*
X115857142Y-93452380D01*
X116095238Y-93452380D02*
X116714285Y-93452380D01*
X116380952Y-93833333D01*
X116523809Y-93833333D01*
X116619047Y-93880952D01*
X116666666Y-93928571D01*
X116714285Y-94023809D01*
X116714285Y-94261904D01*
X116666666Y-94357142D01*
X116619047Y-94404761D01*
X116523809Y-94452380D01*
X116238095Y-94452380D01*
X116142857Y-94404761D01*
X116095238Y-94357142D01*
X115047619Y-58833333D02*
X115047619Y-58357142D01*
X116047619Y-58357142D01*
X115142857Y-60500000D02*
X115095238Y-60452380D01*
X115047619Y-60309523D01*
X115047619Y-60214285D01*
X115095238Y-60071428D01*
X115190476Y-59976190D01*
X115285714Y-59928571D01*
X115476190Y-59880952D01*
X115619047Y-59880952D01*
X115809523Y-59928571D01*
X115904761Y-59976190D01*
X116000000Y-60071428D01*
X116047619Y-60214285D01*
X116047619Y-60309523D01*
X116000000Y-60452380D01*
X115952380Y-60500000D01*
X115047619Y-61071428D02*
X115095238Y-60976190D01*
X115142857Y-60928571D01*
X115238095Y-60880952D01*
X115523809Y-60880952D01*
X115619047Y-60928571D01*
X115666666Y-60976190D01*
X115714285Y-61071428D01*
X115714285Y-61214285D01*
X115666666Y-61309523D01*
X115619047Y-61357142D01*
X115523809Y-61404761D01*
X115238095Y-61404761D01*
X115142857Y-61357142D01*
X115095238Y-61309523D01*
X115047619Y-61214285D01*
X115047619Y-61071428D01*
X115714285Y-61833333D02*
X115047619Y-61833333D01*
X115619047Y-61833333D02*
X115666666Y-61880952D01*
X115714285Y-61976190D01*
X115714285Y-62119047D01*
X115666666Y-62214285D01*
X115571428Y-62261904D01*
X115047619Y-62261904D01*
X115714285Y-62738095D02*
X115047619Y-62738095D01*
X115619047Y-62738095D02*
X115666666Y-62785714D01*
X115714285Y-62880952D01*
X115714285Y-63023809D01*
X115666666Y-63119047D01*
X115571428Y-63166666D01*
X115047619Y-63166666D01*
X115142857Y-63642857D02*
X115095238Y-63690476D01*
X115047619Y-63642857D01*
X115095238Y-63595238D01*
X115142857Y-63642857D01*
X115047619Y-63642857D01*
X157785714Y-48147380D02*
X157785714Y-47147380D01*
X158166666Y-47147380D01*
X158261904Y-47195000D01*
X158309523Y-47242619D01*
X158357142Y-47337857D01*
X158357142Y-47480714D01*
X158309523Y-47575952D01*
X158261904Y-47623571D01*
X158166666Y-47671190D01*
X157785714Y-47671190D01*
X158785714Y-48147380D02*
X158785714Y-47480714D01*
X158785714Y-47671190D02*
X158833333Y-47575952D01*
X158880952Y-47528333D01*
X158976190Y-47480714D01*
X159071428Y-47480714D01*
X159547619Y-48147380D02*
X159452380Y-48099761D01*
X159404761Y-48052142D01*
X159357142Y-47956904D01*
X159357142Y-47671190D01*
X159404761Y-47575952D01*
X159452380Y-47528333D01*
X159547619Y-47480714D01*
X159690476Y-47480714D01*
X159785714Y-47528333D01*
X159833333Y-47575952D01*
X159880952Y-47671190D01*
X159880952Y-47956904D01*
X159833333Y-48052142D01*
X159785714Y-48099761D01*
X159690476Y-48147380D01*
X159547619Y-48147380D01*
X160738095Y-47480714D02*
X160738095Y-48290238D01*
X160690476Y-48385476D01*
X160642857Y-48433095D01*
X160547619Y-48480714D01*
X160404761Y-48480714D01*
X160309523Y-48433095D01*
X160738095Y-48099761D02*
X160642857Y-48147380D01*
X160452380Y-48147380D01*
X160357142Y-48099761D01*
X160309523Y-48052142D01*
X160261904Y-47956904D01*
X160261904Y-47671190D01*
X160309523Y-47575952D01*
X160357142Y-47528333D01*
X160452380Y-47480714D01*
X160642857Y-47480714D01*
X160738095Y-47528333D01*
X161214285Y-48147380D02*
X161214285Y-47480714D01*
X161214285Y-47671190D02*
X161261904Y-47575952D01*
X161309523Y-47528333D01*
X161404761Y-47480714D01*
X161500000Y-47480714D01*
X162261904Y-48147380D02*
X162261904Y-47623571D01*
X162214285Y-47528333D01*
X162119047Y-47480714D01*
X161928571Y-47480714D01*
X161833333Y-47528333D01*
X162261904Y-48099761D02*
X162166666Y-48147380D01*
X161928571Y-48147380D01*
X161833333Y-48099761D01*
X161785714Y-48004523D01*
X161785714Y-47909285D01*
X161833333Y-47814047D01*
X161928571Y-47766428D01*
X162166666Y-47766428D01*
X162261904Y-47718809D01*
X162738095Y-48147380D02*
X162738095Y-47480714D01*
X162738095Y-47575952D02*
X162785714Y-47528333D01*
X162880952Y-47480714D01*
X163023809Y-47480714D01*
X163119047Y-47528333D01*
X163166666Y-47623571D01*
X163166666Y-48147380D01*
X163166666Y-47623571D02*
X163214285Y-47528333D01*
X163309523Y-47480714D01*
X163452380Y-47480714D01*
X163547619Y-47528333D01*
X163595238Y-47623571D01*
X163595238Y-48147380D01*
X164071428Y-48147380D02*
X164071428Y-47480714D01*
X164071428Y-47575952D02*
X164119047Y-47528333D01*
X164214285Y-47480714D01*
X164357142Y-47480714D01*
X164452380Y-47528333D01*
X164500000Y-47623571D01*
X164500000Y-48147380D01*
X164500000Y-47623571D02*
X164547619Y-47528333D01*
X164642857Y-47480714D01*
X164785714Y-47480714D01*
X164880952Y-47528333D01*
X164928571Y-47623571D01*
X164928571Y-48147380D01*
X165404761Y-48147380D02*
X165404761Y-47480714D01*
X165404761Y-47147380D02*
X165357142Y-47195000D01*
X165404761Y-47242619D01*
X165452380Y-47195000D01*
X165404761Y-47147380D01*
X165404761Y-47242619D01*
X165880952Y-47480714D02*
X165880952Y-48147380D01*
X165880952Y-47575952D02*
X165928571Y-47528333D01*
X166023809Y-47480714D01*
X166166666Y-47480714D01*
X166261904Y-47528333D01*
X166309523Y-47623571D01*
X166309523Y-48147380D01*
X167214285Y-47480714D02*
X167214285Y-48290238D01*
X167166666Y-48385476D01*
X167119047Y-48433095D01*
X167023809Y-48480714D01*
X166880952Y-48480714D01*
X166785714Y-48433095D01*
X167214285Y-48099761D02*
X167119047Y-48147380D01*
X166928571Y-48147380D01*
X166833333Y-48099761D01*
X166785714Y-48052142D01*
X166738095Y-47956904D01*
X166738095Y-47671190D01*
X166785714Y-47575952D01*
X166833333Y-47528333D01*
X166928571Y-47480714D01*
X167119047Y-47480714D01*
X167214285Y-47528333D01*
X160833333Y-49757380D02*
X160833333Y-48757380D01*
X161166666Y-49471666D01*
X161500000Y-48757380D01*
X161500000Y-49757380D01*
X162119047Y-49757380D02*
X162023809Y-49709761D01*
X161976190Y-49662142D01*
X161928571Y-49566904D01*
X161928571Y-49281190D01*
X161976190Y-49185952D01*
X162023809Y-49138333D01*
X162119047Y-49090714D01*
X162261904Y-49090714D01*
X162357142Y-49138333D01*
X162404761Y-49185952D01*
X162452380Y-49281190D01*
X162452380Y-49566904D01*
X162404761Y-49662142D01*
X162357142Y-49709761D01*
X162261904Y-49757380D01*
X162119047Y-49757380D01*
X163309523Y-49757380D02*
X163309523Y-48757380D01*
X163309523Y-49709761D02*
X163214285Y-49757380D01*
X163023809Y-49757380D01*
X162928571Y-49709761D01*
X162880952Y-49662142D01*
X162833333Y-49566904D01*
X162833333Y-49281190D01*
X162880952Y-49185952D01*
X162928571Y-49138333D01*
X163023809Y-49090714D01*
X163214285Y-49090714D01*
X163309523Y-49138333D01*
X164166666Y-49709761D02*
X164071428Y-49757380D01*
X163880952Y-49757380D01*
X163785714Y-49709761D01*
X163738095Y-49614523D01*
X163738095Y-49233571D01*
X163785714Y-49138333D01*
X163880952Y-49090714D01*
X164071428Y-49090714D01*
X164166666Y-49138333D01*
X164214285Y-49233571D01*
X164214285Y-49328809D01*
X163738095Y-49424047D01*
X175571428Y-48647380D02*
X175571428Y-47647380D01*
X176142857Y-48647380D01*
X176142857Y-47647380D01*
X176761904Y-48647380D02*
X176666666Y-48599761D01*
X176619047Y-48552142D01*
X176571428Y-48456904D01*
X176571428Y-48171190D01*
X176619047Y-48075952D01*
X176666666Y-48028333D01*
X176761904Y-47980714D01*
X176904761Y-47980714D01*
X177000000Y-48028333D01*
X177047619Y-48075952D01*
X177095238Y-48171190D01*
X177095238Y-48456904D01*
X177047619Y-48552142D01*
X177000000Y-48599761D01*
X176904761Y-48647380D01*
X176761904Y-48647380D01*
X177523809Y-48647380D02*
X177523809Y-47980714D01*
X177523809Y-48171190D02*
X177571428Y-48075952D01*
X177619047Y-48028333D01*
X177714285Y-47980714D01*
X177809523Y-47980714D01*
X178142857Y-48647380D02*
X178142857Y-47980714D01*
X178142857Y-48075952D02*
X178190476Y-48028333D01*
X178285714Y-47980714D01*
X178428571Y-47980714D01*
X178523809Y-48028333D01*
X178571428Y-48123571D01*
X178571428Y-48647380D01*
X178571428Y-48123571D02*
X178619047Y-48028333D01*
X178714285Y-47980714D01*
X178857142Y-47980714D01*
X178952380Y-48028333D01*
X179000000Y-48123571D01*
X179000000Y-48647380D01*
X179904761Y-48647380D02*
X179904761Y-48123571D01*
X179857142Y-48028333D01*
X179761904Y-47980714D01*
X179571428Y-47980714D01*
X179476190Y-48028333D01*
X179904761Y-48599761D02*
X179809523Y-48647380D01*
X179571428Y-48647380D01*
X179476190Y-48599761D01*
X179428571Y-48504523D01*
X179428571Y-48409285D01*
X179476190Y-48314047D01*
X179571428Y-48266428D01*
X179809523Y-48266428D01*
X179904761Y-48218809D01*
X180523809Y-48647380D02*
X180428571Y-48599761D01*
X180380952Y-48504523D01*
X180380952Y-47647380D01*
X176333333Y-50257380D02*
X176333333Y-49257380D01*
X176666666Y-49971666D01*
X177000000Y-49257380D01*
X177000000Y-50257380D01*
X177619047Y-50257380D02*
X177523809Y-50209761D01*
X177476190Y-50162142D01*
X177428571Y-50066904D01*
X177428571Y-49781190D01*
X177476190Y-49685952D01*
X177523809Y-49638333D01*
X177619047Y-49590714D01*
X177761904Y-49590714D01*
X177857142Y-49638333D01*
X177904761Y-49685952D01*
X177952380Y-49781190D01*
X177952380Y-50066904D01*
X177904761Y-50162142D01*
X177857142Y-50209761D01*
X177761904Y-50257380D01*
X177619047Y-50257380D01*
X178809523Y-50257380D02*
X178809523Y-49257380D01*
X178809523Y-50209761D02*
X178714285Y-50257380D01*
X178523809Y-50257380D01*
X178428571Y-50209761D01*
X178380952Y-50162142D01*
X178333333Y-50066904D01*
X178333333Y-49781190D01*
X178380952Y-49685952D01*
X178428571Y-49638333D01*
X178523809Y-49590714D01*
X178714285Y-49590714D01*
X178809523Y-49638333D01*
X179666666Y-50209761D02*
X179571428Y-50257380D01*
X179380952Y-50257380D01*
X179285714Y-50209761D01*
X179238095Y-50114523D01*
X179238095Y-49733571D01*
X179285714Y-49638333D01*
X179380952Y-49590714D01*
X179571428Y-49590714D01*
X179666666Y-49638333D01*
X179714285Y-49733571D01*
X179714285Y-49828809D01*
X179238095Y-49924047D01*
X176976190Y-84952380D02*
X176880952Y-84904761D01*
X176833333Y-84857142D01*
X176785714Y-84761904D01*
X176785714Y-84476190D01*
X176833333Y-84380952D01*
X176880952Y-84333333D01*
X176976190Y-84285714D01*
X177119047Y-84285714D01*
X177214285Y-84333333D01*
X177261904Y-84380952D01*
X177309523Y-84476190D01*
X177309523Y-84761904D01*
X177261904Y-84857142D01*
X177214285Y-84904761D01*
X177119047Y-84952380D01*
X176976190Y-84952380D01*
X177738095Y-84285714D02*
X177738095Y-84952380D01*
X177738095Y-84380952D02*
X177785714Y-84333333D01*
X177880952Y-84285714D01*
X178023809Y-84285714D01*
X178119047Y-84333333D01*
X178166666Y-84428571D01*
X178166666Y-84952380D01*
X128638333Y-66190476D02*
X128638333Y-66666666D01*
X128352619Y-66095238D02*
X129352619Y-66428571D01*
X128352619Y-66761904D01*
X129019285Y-67095238D02*
X128352619Y-67095238D01*
X128924047Y-67095238D02*
X128971666Y-67142857D01*
X129019285Y-67238095D01*
X129019285Y-67380952D01*
X128971666Y-67476190D01*
X128876428Y-67523809D01*
X128352619Y-67523809D01*
X128352619Y-68428571D02*
X128876428Y-68428571D01*
X128971666Y-68380952D01*
X129019285Y-68285714D01*
X129019285Y-68095238D01*
X128971666Y-68000000D01*
X128400238Y-68428571D02*
X128352619Y-68333333D01*
X128352619Y-68095238D01*
X128400238Y-68000000D01*
X128495476Y-67952380D01*
X128590714Y-67952380D01*
X128685952Y-68000000D01*
X128733571Y-68095238D01*
X128733571Y-68333333D01*
X128781190Y-68428571D01*
X128352619Y-69047619D02*
X128400238Y-68952380D01*
X128495476Y-68904761D01*
X129352619Y-68904761D01*
X128352619Y-69571428D02*
X128400238Y-69476190D01*
X128447857Y-69428571D01*
X128543095Y-69380952D01*
X128828809Y-69380952D01*
X128924047Y-69428571D01*
X128971666Y-69476190D01*
X129019285Y-69571428D01*
X129019285Y-69714285D01*
X128971666Y-69809523D01*
X128924047Y-69857142D01*
X128828809Y-69904761D01*
X128543095Y-69904761D01*
X128447857Y-69857142D01*
X128400238Y-69809523D01*
X128352619Y-69714285D01*
X128352619Y-69571428D01*
X129019285Y-70761904D02*
X128209761Y-70761904D01*
X128114523Y-70714285D01*
X128066904Y-70666666D01*
X128019285Y-70571428D01*
X128019285Y-70428571D01*
X128066904Y-70333333D01*
X128400238Y-70761904D02*
X128352619Y-70666666D01*
X128352619Y-70476190D01*
X128400238Y-70380952D01*
X128447857Y-70333333D01*
X128543095Y-70285714D01*
X128828809Y-70285714D01*
X128924047Y-70333333D01*
X128971666Y-70380952D01*
X129019285Y-70476190D01*
X129019285Y-70666666D01*
X128971666Y-70761904D01*
X126790238Y-66857142D02*
X126742619Y-67000000D01*
X126742619Y-67238095D01*
X126790238Y-67333333D01*
X126837857Y-67380952D01*
X126933095Y-67428571D01*
X127028333Y-67428571D01*
X127123571Y-67380952D01*
X127171190Y-67333333D01*
X127218809Y-67238095D01*
X127266428Y-67047619D01*
X127314047Y-66952380D01*
X127361666Y-66904761D01*
X127456904Y-66857142D01*
X127552142Y-66857142D01*
X127647380Y-66904761D01*
X127695000Y-66952380D01*
X127742619Y-67047619D01*
X127742619Y-67285714D01*
X127695000Y-67428571D01*
X127409285Y-67714285D02*
X127409285Y-68095238D01*
X127742619Y-67857142D02*
X126885476Y-67857142D01*
X126790238Y-67904761D01*
X126742619Y-68000000D01*
X126742619Y-68095238D01*
X126742619Y-68428571D02*
X127409285Y-68428571D01*
X127742619Y-68428571D02*
X127695000Y-68380952D01*
X127647380Y-68428571D01*
X127695000Y-68476190D01*
X127742619Y-68428571D01*
X127647380Y-68428571D01*
X126790238Y-69333333D02*
X126742619Y-69238095D01*
X126742619Y-69047619D01*
X126790238Y-68952380D01*
X126837857Y-68904761D01*
X126933095Y-68857142D01*
X127218809Y-68857142D01*
X127314047Y-68904761D01*
X127361666Y-68952380D01*
X127409285Y-69047619D01*
X127409285Y-69238095D01*
X127361666Y-69333333D01*
X126742619Y-69761904D02*
X127742619Y-69761904D01*
X127123571Y-69857142D02*
X126742619Y-70142857D01*
X127409285Y-70142857D02*
X127028333Y-69761904D01*
X155619047Y-49571428D02*
X156380952Y-49571428D01*
X158964285Y-66857142D02*
X158297619Y-66857142D01*
X158964285Y-66428571D02*
X158440476Y-66428571D01*
X158345238Y-66476190D01*
X158297619Y-66571428D01*
X158297619Y-66714285D01*
X158345238Y-66809523D01*
X158392857Y-66857142D01*
X158345238Y-67285714D02*
X158297619Y-67380952D01*
X158297619Y-67571428D01*
X158345238Y-67666666D01*
X158440476Y-67714285D01*
X158488095Y-67714285D01*
X158583333Y-67666666D01*
X158630952Y-67571428D01*
X158630952Y-67428571D01*
X158678571Y-67333333D01*
X158773809Y-67285714D01*
X158821428Y-67285714D01*
X158916666Y-67333333D01*
X158964285Y-67428571D01*
X158964285Y-67571428D01*
X158916666Y-67666666D01*
X158297619Y-68142857D02*
X159297619Y-68142857D01*
X158916666Y-68142857D02*
X158964285Y-68238095D01*
X158964285Y-68428571D01*
X158916666Y-68523809D01*
X158869047Y-68571428D01*
X158773809Y-68619047D01*
X158488095Y-68619047D01*
X158392857Y-68571428D01*
X158345238Y-68523809D01*
X158297619Y-68428571D01*
X158297619Y-68238095D01*
X158345238Y-68142857D01*
X153119047Y-49571428D02*
X153880952Y-49571428D01*
X153500000Y-49952380D02*
X153500000Y-49190476D01*
X166857142Y-84952380D02*
X166761904Y-84904761D01*
X166714285Y-84857142D01*
X166666666Y-84761904D01*
X166666666Y-84476190D01*
X166714285Y-84380952D01*
X166761904Y-84333333D01*
X166857142Y-84285714D01*
X167000000Y-84285714D01*
X167095238Y-84333333D01*
X167142857Y-84380952D01*
X167190476Y-84476190D01*
X167190476Y-84761904D01*
X167142857Y-84857142D01*
X167095238Y-84904761D01*
X167000000Y-84952380D01*
X166857142Y-84952380D01*
X167476190Y-84285714D02*
X167857142Y-84285714D01*
X167619047Y-84952380D02*
X167619047Y-84095238D01*
X167666666Y-84000000D01*
X167761904Y-83952380D01*
X167857142Y-83952380D01*
X168047619Y-84285714D02*
X168428571Y-84285714D01*
X168190476Y-84952380D02*
X168190476Y-84095238D01*
X168238095Y-84000000D01*
X168333333Y-83952380D01*
X168428571Y-83952380D01*
X167958095Y-82952380D02*
X167958095Y-81952380D01*
X168339047Y-81952380D01*
X168434285Y-82000000D01*
X168481904Y-82047619D01*
X168529523Y-82142857D01*
X168529523Y-82285714D01*
X168481904Y-82380952D01*
X168434285Y-82428571D01*
X168339047Y-82476190D01*
X167958095Y-82476190D01*
X169100952Y-82952380D02*
X169005714Y-82904761D01*
X168958095Y-82857142D01*
X168910476Y-82761904D01*
X168910476Y-82476190D01*
X168958095Y-82380952D01*
X169005714Y-82333333D01*
X169100952Y-82285714D01*
X169243809Y-82285714D01*
X169339047Y-82333333D01*
X169386666Y-82380952D01*
X169434285Y-82476190D01*
X169434285Y-82761904D01*
X169386666Y-82857142D01*
X169339047Y-82904761D01*
X169243809Y-82952380D01*
X169100952Y-82952380D01*
X169767619Y-82285714D02*
X169958095Y-82952380D01*
X170148571Y-82476190D01*
X170339047Y-82952380D01*
X170529523Y-82285714D01*
X171291428Y-82904761D02*
X171196190Y-82952380D01*
X171005714Y-82952380D01*
X170910476Y-82904761D01*
X170862857Y-82809523D01*
X170862857Y-82428571D01*
X170910476Y-82333333D01*
X171005714Y-82285714D01*
X171196190Y-82285714D01*
X171291428Y-82333333D01*
X171339047Y-82428571D01*
X171339047Y-82523809D01*
X170862857Y-82619047D01*
X171767619Y-82952380D02*
X171767619Y-82285714D01*
X171767619Y-82476190D02*
X171815238Y-82380952D01*
X171862857Y-82333333D01*
X171958095Y-82285714D01*
X172053333Y-82285714D01*
X173100952Y-82904761D02*
X173243809Y-82952380D01*
X173481904Y-82952380D01*
X173577142Y-82904761D01*
X173624761Y-82857142D01*
X173672380Y-82761904D01*
X173672380Y-82666666D01*
X173624761Y-82571428D01*
X173577142Y-82523809D01*
X173481904Y-82476190D01*
X173291428Y-82428571D01*
X173196190Y-82380952D01*
X173148571Y-82333333D01*
X173100952Y-82238095D01*
X173100952Y-82142857D01*
X173148571Y-82047619D01*
X173196190Y-82000000D01*
X173291428Y-81952380D01*
X173529523Y-81952380D01*
X173672380Y-82000000D01*
X174005714Y-82285714D02*
X174196190Y-82952380D01*
X174386666Y-82476190D01*
X174577142Y-82952380D01*
X174767619Y-82285714D01*
X175148571Y-82952380D02*
X175148571Y-82285714D01*
X175148571Y-81952380D02*
X175100952Y-82000000D01*
X175148571Y-82047619D01*
X175196190Y-82000000D01*
X175148571Y-81952380D01*
X175148571Y-82047619D01*
X175481904Y-82285714D02*
X175862857Y-82285714D01*
X175624761Y-81952380D02*
X175624761Y-82809523D01*
X175672380Y-82904761D01*
X175767619Y-82952380D01*
X175862857Y-82952380D01*
X176624761Y-82904761D02*
X176529523Y-82952380D01*
X176339047Y-82952380D01*
X176243809Y-82904761D01*
X176196190Y-82857142D01*
X176148571Y-82761904D01*
X176148571Y-82476190D01*
X176196190Y-82380952D01*
X176243809Y-82333333D01*
X176339047Y-82285714D01*
X176529523Y-82285714D01*
X176624761Y-82333333D01*
X177053333Y-82952380D02*
X177053333Y-81952380D01*
X177481904Y-82952380D02*
X177481904Y-82428571D01*
X177434285Y-82333333D01*
X177339047Y-82285714D01*
X177196190Y-82285714D01*
X177100952Y-82333333D01*
X177053333Y-82380952D01*
X115142857Y-77833333D02*
X115095238Y-77785714D01*
X115047619Y-77642857D01*
X115047619Y-77547619D01*
X115095238Y-77404761D01*
X115190476Y-77309523D01*
X115285714Y-77261904D01*
X115476190Y-77214285D01*
X115619047Y-77214285D01*
X115809523Y-77261904D01*
X115904761Y-77309523D01*
X116000000Y-77404761D01*
X116047619Y-77547619D01*
X116047619Y-77642857D01*
X116000000Y-77785714D01*
X115952380Y-77833333D01*
X115142857Y-79595238D02*
X115095238Y-79547619D01*
X115047619Y-79404761D01*
X115047619Y-79309523D01*
X115095238Y-79166666D01*
X115190476Y-79071428D01*
X115285714Y-79023809D01*
X115476190Y-78976190D01*
X115619047Y-78976190D01*
X115809523Y-79023809D01*
X115904761Y-79071428D01*
X116000000Y-79166666D01*
X116047619Y-79309523D01*
X116047619Y-79404761D01*
X116000000Y-79547619D01*
X115952380Y-79595238D01*
X115047619Y-80166666D02*
X115095238Y-80071428D01*
X115142857Y-80023809D01*
X115238095Y-79976190D01*
X115523809Y-79976190D01*
X115619047Y-80023809D01*
X115666666Y-80071428D01*
X115714285Y-80166666D01*
X115714285Y-80309523D01*
X115666666Y-80404761D01*
X115619047Y-80452380D01*
X115523809Y-80500000D01*
X115238095Y-80500000D01*
X115142857Y-80452380D01*
X115095238Y-80404761D01*
X115047619Y-80309523D01*
X115047619Y-80166666D01*
X115714285Y-80928571D02*
X115047619Y-80928571D01*
X115619047Y-80928571D02*
X115666666Y-80976190D01*
X115714285Y-81071428D01*
X115714285Y-81214285D01*
X115666666Y-81309523D01*
X115571428Y-81357142D01*
X115047619Y-81357142D01*
X115714285Y-81833333D02*
X115047619Y-81833333D01*
X115619047Y-81833333D02*
X115666666Y-81880952D01*
X115714285Y-81976190D01*
X115714285Y-82119047D01*
X115666666Y-82214285D01*
X115571428Y-82261904D01*
X115047619Y-82261904D01*
X115142857Y-82738095D02*
X115095238Y-82785714D01*
X115047619Y-82738095D01*
X115095238Y-82690476D01*
X115142857Y-82738095D01*
X115047619Y-82738095D01*
X169285714Y-67666666D02*
X169761904Y-67666666D01*
X169190476Y-67952380D02*
X169523809Y-66952380D01*
X169857142Y-67952380D01*
X170190476Y-67952380D02*
X170190476Y-67285714D01*
X170190476Y-67476190D02*
X170238095Y-67380952D01*
X170285714Y-67333333D01*
X170380952Y-67285714D01*
X170476190Y-67285714D01*
X171238095Y-67952380D02*
X171238095Y-66952380D01*
X171238095Y-67904761D02*
X171142857Y-67952380D01*
X170952380Y-67952380D01*
X170857142Y-67904761D01*
X170809523Y-67857142D01*
X170761904Y-67761904D01*
X170761904Y-67476190D01*
X170809523Y-67380952D01*
X170857142Y-67333333D01*
X170952380Y-67285714D01*
X171142857Y-67285714D01*
X171238095Y-67333333D01*
X172142857Y-67285714D02*
X172142857Y-67952380D01*
X171714285Y-67285714D02*
X171714285Y-67809523D01*
X171761904Y-67904761D01*
X171857142Y-67952380D01*
X172000000Y-67952380D01*
X172095238Y-67904761D01*
X172142857Y-67857142D01*
X172619047Y-67952380D02*
X172619047Y-67285714D01*
X172619047Y-66952380D02*
X172571428Y-67000000D01*
X172619047Y-67047619D01*
X172666666Y-67000000D01*
X172619047Y-66952380D01*
X172619047Y-67047619D01*
X173095238Y-67285714D02*
X173095238Y-67952380D01*
X173095238Y-67380952D02*
X173142857Y-67333333D01*
X173238095Y-67285714D01*
X173380952Y-67285714D01*
X173476190Y-67333333D01*
X173523809Y-67428571D01*
X173523809Y-67952380D01*
X174142857Y-67952380D02*
X174047619Y-67904761D01*
X174000000Y-67857142D01*
X173952380Y-67761904D01*
X173952380Y-67476190D01*
X174000000Y-67380952D01*
X174047619Y-67333333D01*
X174142857Y-67285714D01*
X174285714Y-67285714D01*
X174380952Y-67333333D01*
X174428571Y-67380952D01*
X174476190Y-67476190D01*
X174476190Y-67761904D01*
X174428571Y-67857142D01*
X174380952Y-67904761D01*
X174285714Y-67952380D01*
X174142857Y-67952380D01*
X175666666Y-67952380D02*
X175666666Y-66952380D01*
X176238095Y-67952380D01*
X176238095Y-66952380D01*
X177142857Y-67952380D02*
X177142857Y-67428571D01*
X177095238Y-67333333D01*
X177000000Y-67285714D01*
X176809523Y-67285714D01*
X176714285Y-67333333D01*
X177142857Y-67904761D02*
X177047619Y-67952380D01*
X176809523Y-67952380D01*
X176714285Y-67904761D01*
X176666666Y-67809523D01*
X176666666Y-67714285D01*
X176714285Y-67619047D01*
X176809523Y-67571428D01*
X177047619Y-67571428D01*
X177142857Y-67523809D01*
X177619047Y-67285714D02*
X177619047Y-67952380D01*
X177619047Y-67380952D02*
X177666666Y-67333333D01*
X177761904Y-67285714D01*
X177904761Y-67285714D01*
X178000000Y-67333333D01*
X178047619Y-67428571D01*
X178047619Y-67952380D01*
X178666666Y-67952380D02*
X178571428Y-67904761D01*
X178523809Y-67857142D01*
X178476190Y-67761904D01*
X178476190Y-67476190D01*
X178523809Y-67380952D01*
X178571428Y-67333333D01*
X178666666Y-67285714D01*
X178809523Y-67285714D01*
X178904761Y-67333333D01*
X178952380Y-67380952D01*
X179000000Y-67476190D01*
X179000000Y-67761904D01*
X178952380Y-67857142D01*
X178904761Y-67904761D01*
X178809523Y-67952380D01*
X178666666Y-67952380D01*
X180095238Y-66952380D02*
X180714285Y-66952380D01*
X180380952Y-67333333D01*
X180523809Y-67333333D01*
X180619047Y-67380952D01*
X180666666Y-67428571D01*
X180714285Y-67523809D01*
X180714285Y-67761904D01*
X180666666Y-67857142D01*
X180619047Y-67904761D01*
X180523809Y-67952380D01*
X180238095Y-67952380D01*
X180142857Y-67904761D01*
X180095238Y-67857142D01*
X181047619Y-66952380D02*
X181666666Y-66952380D01*
X181333333Y-67333333D01*
X181476190Y-67333333D01*
X181571428Y-67380952D01*
X181619047Y-67428571D01*
X181666666Y-67523809D01*
X181666666Y-67761904D01*
X181619047Y-67857142D01*
X181571428Y-67904761D01*
X181476190Y-67952380D01*
X181190476Y-67952380D01*
X181095238Y-67904761D01*
X181047619Y-67857142D01*
X182857142Y-67952380D02*
X182857142Y-66952380D01*
X183523809Y-66952380D02*
X183714285Y-66952380D01*
X183809523Y-67000000D01*
X183904761Y-67095238D01*
X183952380Y-67285714D01*
X183952380Y-67619047D01*
X183904761Y-67809523D01*
X183809523Y-67904761D01*
X183714285Y-67952380D01*
X183523809Y-67952380D01*
X183428571Y-67904761D01*
X183333333Y-67809523D01*
X183285714Y-67619047D01*
X183285714Y-67285714D01*
X183333333Y-67095238D01*
X183428571Y-67000000D01*
X183523809Y-66952380D01*
X184238095Y-66952380D02*
X184809523Y-66952380D01*
X184523809Y-67952380D02*
X184523809Y-66952380D01*
X152309523Y-55452380D02*
X152309523Y-54452380D01*
X152690476Y-54452380D01*
X152785714Y-54500000D01*
X152833333Y-54547619D01*
X152880952Y-54642857D01*
X152880952Y-54785714D01*
X152833333Y-54880952D01*
X152785714Y-54928571D01*
X152690476Y-54976190D01*
X152309523Y-54976190D01*
X153261904Y-55404761D02*
X153404761Y-55452380D01*
X153642857Y-55452380D01*
X153738095Y-55404761D01*
X153785714Y-55357142D01*
X153833333Y-55261904D01*
X153833333Y-55166666D01*
X153785714Y-55071428D01*
X153738095Y-55023809D01*
X153642857Y-54976190D01*
X153452380Y-54928571D01*
X153357142Y-54880952D01*
X153309523Y-54833333D01*
X153261904Y-54738095D01*
X153261904Y-54642857D01*
X153309523Y-54547619D01*
X153357142Y-54500000D01*
X153452380Y-54452380D01*
X153690476Y-54452380D01*
X153833333Y-54500000D01*
X154261904Y-55452380D02*
X154261904Y-54452380D01*
X154642857Y-54452380D01*
X154738095Y-54500000D01*
X154785714Y-54547619D01*
X154833333Y-54642857D01*
X154833333Y-54785714D01*
X154785714Y-54880952D01*
X154738095Y-54928571D01*
X154642857Y-54976190D01*
X154261904Y-54976190D01*
X156023809Y-55452380D02*
X156023809Y-54452380D01*
X156404761Y-54452380D01*
X156500000Y-54500000D01*
X156547619Y-54547619D01*
X156595238Y-54642857D01*
X156595238Y-54785714D01*
X156547619Y-54880952D01*
X156500000Y-54928571D01*
X156404761Y-54976190D01*
X156023809Y-54976190D01*
X156928571Y-54452380D02*
X157166666Y-55452380D01*
X157357142Y-54738095D01*
X157547619Y-55452380D01*
X157785714Y-54452380D01*
X158738095Y-55452380D02*
X158404761Y-54976190D01*
X158166666Y-55452380D02*
X158166666Y-54452380D01*
X158547619Y-54452380D01*
X158642857Y-54500000D01*
X158690476Y-54547619D01*
X158738095Y-54642857D01*
X158738095Y-54785714D01*
X158690476Y-54880952D01*
X158642857Y-54928571D01*
X158547619Y-54976190D01*
X158166666Y-54976190D01*
X139833333Y-51952380D02*
X139500000Y-51476190D01*
X139261904Y-51952380D02*
X139261904Y-50952380D01*
X139642857Y-50952380D01*
X139738095Y-51000000D01*
X139785714Y-51047619D01*
X139833333Y-51142857D01*
X139833333Y-51285714D01*
X139785714Y-51380952D01*
X139738095Y-51428571D01*
X139642857Y-51476190D01*
X139261904Y-51476190D01*
X141595238Y-51857142D02*
X141547619Y-51904761D01*
X141404761Y-51952380D01*
X141309523Y-51952380D01*
X141166666Y-51904761D01*
X141071428Y-51809523D01*
X141023809Y-51714285D01*
X140976190Y-51523809D01*
X140976190Y-51380952D01*
X141023809Y-51190476D01*
X141071428Y-51095238D01*
X141166666Y-51000000D01*
X141309523Y-50952380D01*
X141404761Y-50952380D01*
X141547619Y-51000000D01*
X141595238Y-51047619D01*
X142166666Y-51952380D02*
X142071428Y-51904761D01*
X142023809Y-51857142D01*
X141976190Y-51761904D01*
X141976190Y-51476190D01*
X142023809Y-51380952D01*
X142071428Y-51333333D01*
X142166666Y-51285714D01*
X142309523Y-51285714D01*
X142404761Y-51333333D01*
X142452380Y-51380952D01*
X142500000Y-51476190D01*
X142500000Y-51761904D01*
X142452380Y-51857142D01*
X142404761Y-51904761D01*
X142309523Y-51952380D01*
X142166666Y-51952380D01*
X142928571Y-51285714D02*
X142928571Y-51952380D01*
X142928571Y-51380952D02*
X142976190Y-51333333D01*
X143071428Y-51285714D01*
X143214285Y-51285714D01*
X143309523Y-51333333D01*
X143357142Y-51428571D01*
X143357142Y-51952380D01*
X143833333Y-51285714D02*
X143833333Y-51952380D01*
X143833333Y-51380952D02*
X143880952Y-51333333D01*
X143976190Y-51285714D01*
X144119047Y-51285714D01*
X144214285Y-51333333D01*
X144261904Y-51428571D01*
X144261904Y-51952380D01*
X144738095Y-51857142D02*
X144785714Y-51904761D01*
X144738095Y-51952380D01*
X144690476Y-51904761D01*
X144738095Y-51857142D01*
X144738095Y-51952380D01*
X140761904Y-68952380D02*
X140761904Y-67952380D01*
X141095238Y-68666666D01*
X141428571Y-67952380D01*
X141428571Y-68952380D01*
X142476190Y-68857142D02*
X142428571Y-68904761D01*
X142285714Y-68952380D01*
X142190476Y-68952380D01*
X142047619Y-68904761D01*
X141952380Y-68809523D01*
X141904761Y-68714285D01*
X141857142Y-68523809D01*
X141857142Y-68380952D01*
X141904761Y-68190476D01*
X141952380Y-68095238D01*
X142047619Y-68000000D01*
X142190476Y-67952380D01*
X142285714Y-67952380D01*
X142428571Y-68000000D01*
X142476190Y-68047619D01*
X142904761Y-68952380D02*
X142904761Y-67952380D01*
X143285714Y-67952380D01*
X143380952Y-68000000D01*
X143428571Y-68047619D01*
X143476190Y-68142857D01*
X143476190Y-68285714D01*
X143428571Y-68380952D01*
X143380952Y-68428571D01*
X143285714Y-68476190D01*
X142904761Y-68476190D01*
X144333333Y-68285714D02*
X144333333Y-68952380D01*
X144095238Y-67904761D02*
X143857142Y-68619047D01*
X144476190Y-68619047D01*
X144809523Y-68047619D02*
X144857142Y-68000000D01*
X144952380Y-67952380D01*
X145190476Y-67952380D01*
X145285714Y-68000000D01*
X145333333Y-68047619D01*
X145380952Y-68142857D01*
X145380952Y-68238095D01*
X145333333Y-68380952D01*
X144761904Y-68952380D01*
X145380952Y-68952380D01*
X146285714Y-67952380D02*
X145809523Y-67952380D01*
X145761904Y-68428571D01*
X145809523Y-68380952D01*
X145904761Y-68333333D01*
X146142857Y-68333333D01*
X146238095Y-68380952D01*
X146285714Y-68428571D01*
X146333333Y-68523809D01*
X146333333Y-68761904D01*
X146285714Y-68857142D01*
X146238095Y-68904761D01*
X146142857Y-68952380D01*
X145904761Y-68952380D01*
X145809523Y-68904761D01*
X145761904Y-68857142D01*
X147285714Y-68952380D02*
X146714285Y-68952380D01*
X147000000Y-68952380D02*
X147000000Y-67952380D01*
X146904761Y-68095238D01*
X146809523Y-68190476D01*
X146714285Y-68238095D01*
X185001190Y-35357142D02*
X184953571Y-35404761D01*
X184810714Y-35452380D01*
X184715476Y-35452380D01*
X184572619Y-35404761D01*
X184477380Y-35309523D01*
X184429761Y-35214285D01*
X184382142Y-35023809D01*
X184382142Y-34880952D01*
X184429761Y-34690476D01*
X184477380Y-34595238D01*
X184572619Y-34500000D01*
X184715476Y-34452380D01*
X184810714Y-34452380D01*
X184953571Y-34500000D01*
X185001190Y-34547619D01*
X185572619Y-35452380D02*
X185477380Y-35404761D01*
X185429761Y-35357142D01*
X185382142Y-35261904D01*
X185382142Y-34976190D01*
X185429761Y-34880952D01*
X185477380Y-34833333D01*
X185572619Y-34785714D01*
X185715476Y-34785714D01*
X185810714Y-34833333D01*
X185858333Y-34880952D01*
X185905952Y-34976190D01*
X185905952Y-35261904D01*
X185858333Y-35357142D01*
X185810714Y-35404761D01*
X185715476Y-35452380D01*
X185572619Y-35452380D01*
X186334523Y-34785714D02*
X186334523Y-35452380D01*
X186334523Y-34880952D02*
X186382142Y-34833333D01*
X186477380Y-34785714D01*
X186620238Y-34785714D01*
X186715476Y-34833333D01*
X186763095Y-34928571D01*
X186763095Y-35452380D01*
X187096428Y-34785714D02*
X187477380Y-34785714D01*
X187239285Y-34452380D02*
X187239285Y-35309523D01*
X187286904Y-35404761D01*
X187382142Y-35452380D01*
X187477380Y-35452380D01*
X187810714Y-35452380D02*
X187810714Y-34785714D01*
X187810714Y-34976190D02*
X187858333Y-34880952D01*
X187905952Y-34833333D01*
X188001190Y-34785714D01*
X188096428Y-34785714D01*
X188572619Y-35452380D02*
X188477380Y-35404761D01*
X188429761Y-35357142D01*
X188382142Y-35261904D01*
X188382142Y-34976190D01*
X188429761Y-34880952D01*
X188477380Y-34833333D01*
X188572619Y-34785714D01*
X188715476Y-34785714D01*
X188810714Y-34833333D01*
X188858333Y-34880952D01*
X188905952Y-34976190D01*
X188905952Y-35261904D01*
X188858333Y-35357142D01*
X188810714Y-35404761D01*
X188715476Y-35452380D01*
X188572619Y-35452380D01*
X189477380Y-35452380D02*
X189382142Y-35404761D01*
X189334523Y-35309523D01*
X189334523Y-34452380D01*
X190001190Y-35452380D02*
X189905952Y-35404761D01*
X189858333Y-35309523D01*
X189858333Y-34452380D01*
X190763095Y-35404761D02*
X190667857Y-35452380D01*
X190477380Y-35452380D01*
X190382142Y-35404761D01*
X190334523Y-35309523D01*
X190334523Y-34928571D01*
X190382142Y-34833333D01*
X190477380Y-34785714D01*
X190667857Y-34785714D01*
X190763095Y-34833333D01*
X190810714Y-34928571D01*
X190810714Y-35023809D01*
X190334523Y-35119047D01*
X191239285Y-35452380D02*
X191239285Y-34785714D01*
X191239285Y-34976190D02*
X191286904Y-34880952D01*
X191334523Y-34833333D01*
X191429761Y-34785714D01*
X191525000Y-34785714D01*
X192572619Y-35404761D02*
X192715476Y-35452380D01*
X192953571Y-35452380D01*
X193048809Y-35404761D01*
X193096428Y-35357142D01*
X193144047Y-35261904D01*
X193144047Y-35166666D01*
X193096428Y-35071428D01*
X193048809Y-35023809D01*
X192953571Y-34976190D01*
X192763095Y-34928571D01*
X192667857Y-34880952D01*
X192620238Y-34833333D01*
X192572619Y-34738095D01*
X192572619Y-34642857D01*
X192620238Y-34547619D01*
X192667857Y-34500000D01*
X192763095Y-34452380D01*
X193001190Y-34452380D01*
X193144047Y-34500000D01*
X193477380Y-34785714D02*
X193715476Y-35452380D01*
X193953571Y-34785714D02*
X193715476Y-35452380D01*
X193620238Y-35690476D01*
X193572619Y-35738095D01*
X193477380Y-35785714D01*
X194334523Y-34785714D02*
X194334523Y-35452380D01*
X194334523Y-34880952D02*
X194382142Y-34833333D01*
X194477380Y-34785714D01*
X194620238Y-34785714D01*
X194715476Y-34833333D01*
X194763095Y-34928571D01*
X194763095Y-35452380D01*
X195667857Y-35404761D02*
X195572619Y-35452380D01*
X195382142Y-35452380D01*
X195286904Y-35404761D01*
X195239285Y-35357142D01*
X195191666Y-35261904D01*
X195191666Y-34976190D01*
X195239285Y-34880952D01*
X195286904Y-34833333D01*
X195382142Y-34785714D01*
X195572619Y-34785714D01*
X195667857Y-34833333D01*
%TO.C,P1*%
X177188904Y-62682380D02*
X177188904Y-61682380D01*
X177569857Y-61682380D01*
X177665095Y-61730000D01*
X177712714Y-61777619D01*
X177760333Y-61872857D01*
X177760333Y-62015714D01*
X177712714Y-62110952D01*
X177665095Y-62158571D01*
X177569857Y-62206190D01*
X177188904Y-62206190D01*
X178712714Y-62682380D02*
X178141285Y-62682380D01*
X178427000Y-62682380D02*
X178427000Y-61682380D01*
X178331761Y-61825238D01*
X178236523Y-61920476D01*
X178141285Y-61968095D01*
%TO.C,P2*%
X177188904Y-72842380D02*
X177188904Y-71842380D01*
X177569857Y-71842380D01*
X177665095Y-71890000D01*
X177712714Y-71937619D01*
X177760333Y-72032857D01*
X177760333Y-72175714D01*
X177712714Y-72270952D01*
X177665095Y-72318571D01*
X177569857Y-72366190D01*
X177188904Y-72366190D01*
X178141285Y-71937619D02*
X178188904Y-71890000D01*
X178284142Y-71842380D01*
X178522238Y-71842380D01*
X178617476Y-71890000D01*
X178665095Y-71937619D01*
X178712714Y-72032857D01*
X178712714Y-72128095D01*
X178665095Y-72270952D01*
X178093666Y-72842380D01*
X178712714Y-72842380D01*
%TO.C,S1*%
X171958095Y-86017261D02*
X172100952Y-86064880D01*
X172339047Y-86064880D01*
X172434285Y-86017261D01*
X172481904Y-85969642D01*
X172529523Y-85874404D01*
X172529523Y-85779166D01*
X172481904Y-85683928D01*
X172434285Y-85636309D01*
X172339047Y-85588690D01*
X172148571Y-85541071D01*
X172053333Y-85493452D01*
X172005714Y-85445833D01*
X171958095Y-85350595D01*
X171958095Y-85255357D01*
X172005714Y-85160119D01*
X172053333Y-85112500D01*
X172148571Y-85064880D01*
X172386666Y-85064880D01*
X172529523Y-85112500D01*
X173481904Y-86064880D02*
X172910476Y-86064880D01*
X173196190Y-86064880D02*
X173196190Y-85064880D01*
X173100952Y-85207738D01*
X173005714Y-85302976D01*
X172910476Y-85350595D01*
%TO.C,H4*%
X110998095Y-90932380D02*
X110998095Y-89932380D01*
X110998095Y-90408571D02*
X111569523Y-90408571D01*
X111569523Y-90932380D02*
X111569523Y-89932380D01*
X112474285Y-90265714D02*
X112474285Y-90932380D01*
X112236190Y-89884761D02*
X111998095Y-90599047D01*
X112617142Y-90599047D01*
%TO.C,U1*%
X154182380Y-69341904D02*
X154991904Y-69341904D01*
X155087142Y-69294285D01*
X155134761Y-69246666D01*
X155182380Y-69151428D01*
X155182380Y-68960952D01*
X155134761Y-68865714D01*
X155087142Y-68818095D01*
X154991904Y-68770476D01*
X154182380Y-68770476D01*
X155182380Y-67770476D02*
X155182380Y-68341904D01*
X155182380Y-68056190D02*
X154182380Y-68056190D01*
X154325238Y-68151428D01*
X154420476Y-68246666D01*
X154468095Y-68341904D01*
%TO.C,JP1*%
X182046666Y-82002380D02*
X182046666Y-82716666D01*
X181999047Y-82859523D01*
X181903809Y-82954761D01*
X181760952Y-83002380D01*
X181665714Y-83002380D01*
X182522857Y-83002380D02*
X182522857Y-82002380D01*
X182903809Y-82002380D01*
X182999047Y-82050000D01*
X183046666Y-82097619D01*
X183094285Y-82192857D01*
X183094285Y-82335714D01*
X183046666Y-82430952D01*
X182999047Y-82478571D01*
X182903809Y-82526190D01*
X182522857Y-82526190D01*
X184046666Y-83002380D02*
X183475238Y-83002380D01*
X183760952Y-83002380D02*
X183760952Y-82002380D01*
X183665714Y-82145238D01*
X183570476Y-82240476D01*
X183475238Y-82288095D01*
%TO.C,JP2*%
X182166666Y-36152380D02*
X182166666Y-36866666D01*
X182119047Y-37009523D01*
X182023809Y-37104761D01*
X181880952Y-37152380D01*
X181785714Y-37152380D01*
X182642857Y-37152380D02*
X182642857Y-36152380D01*
X183023809Y-36152380D01*
X183119047Y-36200000D01*
X183166666Y-36247619D01*
X183214285Y-36342857D01*
X183214285Y-36485714D01*
X183166666Y-36580952D01*
X183119047Y-36628571D01*
X183023809Y-36676190D01*
X182642857Y-36676190D01*
X183595238Y-36247619D02*
X183642857Y-36200000D01*
X183738095Y-36152380D01*
X183976190Y-36152380D01*
X184071428Y-36200000D01*
X184119047Y-36247619D01*
X184166666Y-36342857D01*
X184166666Y-36438095D01*
X184119047Y-36580952D01*
X183547619Y-37152380D01*
X184166666Y-37152380D01*
%TO.C,H2*%
X197358095Y-24892380D02*
X197358095Y-23892380D01*
X197358095Y-24368571D02*
X197929523Y-24368571D01*
X197929523Y-24892380D02*
X197929523Y-23892380D01*
X198358095Y-23987619D02*
X198405714Y-23940000D01*
X198500952Y-23892380D01*
X198739047Y-23892380D01*
X198834285Y-23940000D01*
X198881904Y-23987619D01*
X198929523Y-24082857D01*
X198929523Y-24178095D01*
X198881904Y-24320952D01*
X198310476Y-24892380D01*
X198929523Y-24892380D01*
%TO.C,R1*%
X173833333Y-32082380D02*
X173500000Y-31606190D01*
X173261904Y-32082380D02*
X173261904Y-31082380D01*
X173642857Y-31082380D01*
X173738095Y-31130000D01*
X173785714Y-31177619D01*
X173833333Y-31272857D01*
X173833333Y-31415714D01*
X173785714Y-31510952D01*
X173738095Y-31558571D01*
X173642857Y-31606190D01*
X173261904Y-31606190D01*
X174785714Y-32082380D02*
X174214285Y-32082380D01*
X174500000Y-32082380D02*
X174500000Y-31082380D01*
X174404761Y-31225238D01*
X174309523Y-31320476D01*
X174214285Y-31368095D01*
%TO.C,S2*%
X161238095Y-39904761D02*
X161380952Y-39952380D01*
X161619047Y-39952380D01*
X161714285Y-39904761D01*
X161761904Y-39857142D01*
X161809523Y-39761904D01*
X161809523Y-39666666D01*
X161761904Y-39571428D01*
X161714285Y-39523809D01*
X161619047Y-39476190D01*
X161428571Y-39428571D01*
X161333333Y-39380952D01*
X161285714Y-39333333D01*
X161238095Y-39238095D01*
X161238095Y-39142857D01*
X161285714Y-39047619D01*
X161333333Y-39000000D01*
X161428571Y-38952380D01*
X161666666Y-38952380D01*
X161809523Y-39000000D01*
X162190476Y-39047619D02*
X162238095Y-39000000D01*
X162333333Y-38952380D01*
X162571428Y-38952380D01*
X162666666Y-39000000D01*
X162714285Y-39047619D01*
X162761904Y-39142857D01*
X162761904Y-39238095D01*
X162714285Y-39380952D01*
X162142857Y-39952380D01*
X162761904Y-39952380D01*
%TO.C,H3*%
X197358095Y-90932380D02*
X197358095Y-89932380D01*
X197358095Y-90408571D02*
X197929523Y-90408571D01*
X197929523Y-90932380D02*
X197929523Y-89932380D01*
X198310476Y-89932380D02*
X198929523Y-89932380D01*
X198596190Y-90313333D01*
X198739047Y-90313333D01*
X198834285Y-90360952D01*
X198881904Y-90408571D01*
X198929523Y-90503809D01*
X198929523Y-90741904D01*
X198881904Y-90837142D01*
X198834285Y-90884761D01*
X198739047Y-90932380D01*
X198453333Y-90932380D01*
X198358095Y-90884761D01*
X198310476Y-90837142D01*
%TO.C,H5*%
X110998095Y-45212380D02*
X110998095Y-44212380D01*
X110998095Y-44688571D02*
X111569523Y-44688571D01*
X111569523Y-45212380D02*
X111569523Y-44212380D01*
X112521904Y-44212380D02*
X112045714Y-44212380D01*
X111998095Y-44688571D01*
X112045714Y-44640952D01*
X112140952Y-44593333D01*
X112379047Y-44593333D01*
X112474285Y-44640952D01*
X112521904Y-44688571D01*
X112569523Y-44783809D01*
X112569523Y-45021904D01*
X112521904Y-45117142D01*
X112474285Y-45164761D01*
X112379047Y-45212380D01*
X112140952Y-45212380D01*
X112045714Y-45164761D01*
X111998095Y-45117142D01*
%TO.C,J3*%
X141906666Y-56492380D02*
X141906666Y-57206666D01*
X141859047Y-57349523D01*
X141763809Y-57444761D01*
X141620952Y-57492380D01*
X141525714Y-57492380D01*
X142287619Y-56492380D02*
X142906666Y-56492380D01*
X142573333Y-56873333D01*
X142716190Y-56873333D01*
X142811428Y-56920952D01*
X142859047Y-56968571D01*
X142906666Y-57063809D01*
X142906666Y-57301904D01*
X142859047Y-57397142D01*
X142811428Y-57444761D01*
X142716190Y-57492380D01*
X142430476Y-57492380D01*
X142335238Y-57444761D01*
X142287619Y-57397142D01*
%TO.C,J6*%
X188896666Y-81822380D02*
X188896666Y-82536666D01*
X188849047Y-82679523D01*
X188753809Y-82774761D01*
X188610952Y-82822380D01*
X188515714Y-82822380D01*
X189801428Y-81822380D02*
X189610952Y-81822380D01*
X189515714Y-81870000D01*
X189468095Y-81917619D01*
X189372857Y-82060476D01*
X189325238Y-82250952D01*
X189325238Y-82631904D01*
X189372857Y-82727142D01*
X189420476Y-82774761D01*
X189515714Y-82822380D01*
X189706190Y-82822380D01*
X189801428Y-82774761D01*
X189849047Y-82727142D01*
X189896666Y-82631904D01*
X189896666Y-82393809D01*
X189849047Y-82298571D01*
X189801428Y-82250952D01*
X189706190Y-82203333D01*
X189515714Y-82203333D01*
X189420476Y-82250952D01*
X189372857Y-82298571D01*
X189325238Y-82393809D01*
%TO.C,J4*%
X130666666Y-60632380D02*
X130666666Y-61346666D01*
X130619047Y-61489523D01*
X130523809Y-61584761D01*
X130380952Y-61632380D01*
X130285714Y-61632380D01*
X131571428Y-60965714D02*
X131571428Y-61632380D01*
X131333333Y-60584761D02*
X131095238Y-61299047D01*
X131714285Y-61299047D01*
%TO.C,J5*%
X157992380Y-52403333D02*
X158706666Y-52403333D01*
X158849523Y-52450952D01*
X158944761Y-52546190D01*
X158992380Y-52689047D01*
X158992380Y-52784285D01*
X157992380Y-51450952D02*
X157992380Y-51927142D01*
X158468571Y-51974761D01*
X158420952Y-51927142D01*
X158373333Y-51831904D01*
X158373333Y-51593809D01*
X158420952Y-51498571D01*
X158468571Y-51450952D01*
X158563809Y-51403333D01*
X158801904Y-51403333D01*
X158897142Y-51450952D01*
X158944761Y-51498571D01*
X158992380Y-51593809D01*
X158992380Y-51831904D01*
X158944761Y-51927142D01*
X158897142Y-51974761D01*
%TO.C,H1*%
X161798095Y-24892380D02*
X161798095Y-23892380D01*
X161798095Y-24368571D02*
X162369523Y-24368571D01*
X162369523Y-24892380D02*
X162369523Y-23892380D01*
X163369523Y-24892380D02*
X162798095Y-24892380D01*
X163083809Y-24892380D02*
X163083809Y-23892380D01*
X162988571Y-24035238D01*
X162893333Y-24130476D01*
X162798095Y-24178095D01*
%TO.C,D1*%
X179581904Y-31907380D02*
X179581904Y-30907380D01*
X179820000Y-30907380D01*
X179962857Y-30955000D01*
X180058095Y-31050238D01*
X180105714Y-31145476D01*
X180153333Y-31335952D01*
X180153333Y-31478809D01*
X180105714Y-31669285D01*
X180058095Y-31764523D01*
X179962857Y-31859761D01*
X179820000Y-31907380D01*
X179581904Y-31907380D01*
X181105714Y-31907380D02*
X180534285Y-31907380D01*
X180820000Y-31907380D02*
X180820000Y-30907380D01*
X180724761Y-31050238D01*
X180629523Y-31145476D01*
X180534285Y-31193095D01*
%TO.C,J1*%
X119992380Y-61293333D02*
X120706666Y-61293333D01*
X120849523Y-61340952D01*
X120944761Y-61436190D01*
X120992380Y-61579047D01*
X120992380Y-61674285D01*
X120992380Y-60293333D02*
X120992380Y-60864761D01*
X120992380Y-60579047D02*
X119992380Y-60579047D01*
X120135238Y-60674285D01*
X120230476Y-60769523D01*
X120278095Y-60864761D01*
%TO.C,J8*%
X188896666Y-82002380D02*
X188896666Y-82716666D01*
X188849047Y-82859523D01*
X188753809Y-82954761D01*
X188610952Y-83002380D01*
X188515714Y-83002380D01*
X189515714Y-82430952D02*
X189420476Y-82383333D01*
X189372857Y-82335714D01*
X189325238Y-82240476D01*
X189325238Y-82192857D01*
X189372857Y-82097619D01*
X189420476Y-82050000D01*
X189515714Y-82002380D01*
X189706190Y-82002380D01*
X189801428Y-82050000D01*
X189849047Y-82097619D01*
X189896666Y-82192857D01*
X189896666Y-82240476D01*
X189849047Y-82335714D01*
X189801428Y-82383333D01*
X189706190Y-82430952D01*
X189515714Y-82430952D01*
X189420476Y-82478571D01*
X189372857Y-82526190D01*
X189325238Y-82621428D01*
X189325238Y-82811904D01*
X189372857Y-82907142D01*
X189420476Y-82954761D01*
X189515714Y-83002380D01*
X189706190Y-83002380D01*
X189801428Y-82954761D01*
X189849047Y-82907142D01*
X189896666Y-82811904D01*
X189896666Y-82621428D01*
X189849047Y-82526190D01*
X189801428Y-82478571D01*
X189706190Y-82430952D01*
%TO.C,SW1*%
X189166666Y-30904761D02*
X189309523Y-30952380D01*
X189547619Y-30952380D01*
X189642857Y-30904761D01*
X189690476Y-30857142D01*
X189738095Y-30761904D01*
X189738095Y-30666666D01*
X189690476Y-30571428D01*
X189642857Y-30523809D01*
X189547619Y-30476190D01*
X189357142Y-30428571D01*
X189261904Y-30380952D01*
X189214285Y-30333333D01*
X189166666Y-30238095D01*
X189166666Y-30142857D01*
X189214285Y-30047619D01*
X189261904Y-30000000D01*
X189357142Y-29952380D01*
X189595238Y-29952380D01*
X189738095Y-30000000D01*
X190071428Y-29952380D02*
X190309523Y-30952380D01*
X190500000Y-30238095D01*
X190690476Y-30952380D01*
X190928571Y-29952380D01*
X191833333Y-30952380D02*
X191261904Y-30952380D01*
X191547619Y-30952380D02*
X191547619Y-29952380D01*
X191452380Y-30095238D01*
X191357142Y-30190476D01*
X191261904Y-30238095D01*
%TO.C,J2*%
X119992380Y-80343333D02*
X120706666Y-80343333D01*
X120849523Y-80390952D01*
X120944761Y-80486190D01*
X120992380Y-80629047D01*
X120992380Y-80724285D01*
X120087619Y-79914761D02*
X120040000Y-79867142D01*
X119992380Y-79771904D01*
X119992380Y-79533809D01*
X120040000Y-79438571D01*
X120087619Y-79390952D01*
X120182857Y-79343333D01*
X120278095Y-79343333D01*
X120420952Y-79390952D01*
X120992380Y-79962380D01*
X120992380Y-79343333D01*
%TO.C,P1*%
X193040000Y-60960000D02*
X157480000Y-60960000D01*
X195580000Y-58420000D02*
X193040000Y-58420000D01*
X157480000Y-58420000D02*
X193040000Y-58420000D01*
X157480000Y-60960000D02*
X157480000Y-58420000D01*
X193040000Y-60960000D02*
X195580000Y-60960000D01*
X195580000Y-60960000D02*
X195580000Y-58420000D01*
X193040000Y-58420000D02*
X193040000Y-60960000D01*
%TO.C,P2*%
X195580000Y-76200000D02*
X195580000Y-73660000D01*
X193040000Y-76200000D02*
X195580000Y-76200000D01*
X157480000Y-76200000D02*
X157480000Y-73660000D01*
X193040000Y-76200000D02*
X157480000Y-76200000D01*
X193040000Y-73660000D02*
X193040000Y-76200000D01*
X195580000Y-73660000D02*
X193040000Y-73660000D01*
X157480000Y-73660000D02*
X193040000Y-73660000D01*
D11*
%TO.C,S1*%
X163070000Y-96520000D02*
X163070000Y-86360000D01*
X182370000Y-86360000D02*
X182370000Y-96520000D01*
X182370000Y-96520000D02*
X163070000Y-96520000D01*
X163070000Y-86360000D02*
X182370000Y-86360000D01*
D12*
X167820000Y-83900000D02*
G75*
G03*
X167820000Y-83900000I-100000J0D01*
G01*
D13*
%TO.C,U1*%
X153730000Y-67580000D02*
X153730000Y-65930000D01*
X135830000Y-65930000D02*
X135830000Y-71230000D01*
X153730000Y-71230000D02*
X153730000Y-69580000D01*
X135830000Y-71230000D02*
X153730000Y-71230000D01*
X153730000Y-65930000D02*
X135830000Y-65930000D01*
X153730000Y-67580000D02*
G75*
G03*
X153730000Y-69580000I0J-1000000D01*
G01*
%TO.C,JP1*%
X181480000Y-81010000D02*
X181480000Y-79010000D01*
X184280000Y-79010000D02*
X184280000Y-81010000D01*
X181480000Y-79010000D02*
X184280000Y-79010000D01*
X184280000Y-81010000D02*
X181480000Y-81010000D01*
%TO.C,JP2*%
X184400000Y-37500000D02*
X184400000Y-39500000D01*
X184400000Y-39500000D02*
X181600000Y-39500000D01*
X181600000Y-39500000D02*
X181600000Y-37500000D01*
X181600000Y-37500000D02*
X184400000Y-37500000D01*
%TO.C,R1*%
X170730000Y-35370000D02*
X177270000Y-35370000D01*
X170730000Y-32630000D02*
X170730000Y-35370000D01*
X177270000Y-35370000D02*
X177270000Y-32630000D01*
X178040000Y-34000000D02*
X177270000Y-34000000D01*
X177270000Y-32630000D02*
X170730000Y-32630000D01*
X169960000Y-34000000D02*
X170730000Y-34000000D01*
D11*
%TO.C,S2*%
X180150000Y-36960000D02*
X180150000Y-47120000D01*
X160850000Y-36960000D02*
X180150000Y-36960000D01*
X160850000Y-47120000D02*
X160850000Y-36960000D01*
X180150000Y-47120000D02*
X160850000Y-47120000D01*
D12*
X165600000Y-34500000D02*
G75*
G03*
X165600000Y-34500000I-100000J0D01*
G01*
D13*
%TO.C,J3*%
X138580000Y-54640000D02*
X137090000Y-54640000D01*
X145900000Y-54640000D02*
X147390000Y-54640000D01*
X147390000Y-48840000D02*
X137090000Y-48840000D01*
X137090000Y-48840000D02*
X137090000Y-50580000D01*
X145900000Y-54640000D02*
X145900000Y-55840000D01*
X147390000Y-50580000D02*
X147390000Y-48840000D01*
X147390000Y-54640000D02*
X147390000Y-53300000D01*
X137090000Y-54640000D02*
X137090000Y-53300000D01*
%TO.C,J6*%
X188230000Y-83370000D02*
X190230000Y-83370000D01*
X184120000Y-96780000D02*
X184120000Y-93720000D01*
X191530000Y-83560000D02*
X194340000Y-83560000D01*
X184120000Y-89620000D02*
X184120000Y-83560000D01*
X184120000Y-83560000D02*
X186930000Y-83560000D01*
X194340000Y-83560000D02*
X194340000Y-89620000D01*
X194340000Y-93720000D02*
X194340000Y-96780000D01*
X194340000Y-96780000D02*
X184120000Y-96780000D01*
%TO.C,J4*%
X129670000Y-72460000D02*
X132330000Y-72460000D01*
X129670000Y-62180000D02*
X131000000Y-62180000D01*
X129670000Y-64780000D02*
X132330000Y-64780000D01*
X129670000Y-64780000D02*
X129670000Y-72460000D01*
X129670000Y-63510000D02*
X129670000Y-62180000D01*
X132330000Y-64780000D02*
X132330000Y-72460000D01*
%TO.C,J5*%
X157540000Y-50740000D02*
X157540000Y-52070000D01*
X156210000Y-50740000D02*
X157540000Y-50740000D01*
X154940000Y-50740000D02*
X152340000Y-50740000D01*
X154940000Y-50740000D02*
X154940000Y-53400000D01*
X154940000Y-53400000D02*
X152340000Y-53400000D01*
X152340000Y-50740000D02*
X152340000Y-53400000D01*
%TO.C,D1*%
X181880000Y-28285000D02*
X178760000Y-28285000D01*
X179050000Y-28285000D02*
X179050000Y-28415000D01*
X178360000Y-28285000D02*
X178360000Y-27165000D01*
X178760000Y-28285000D02*
X178760000Y-24425000D01*
X181590000Y-28285000D02*
X181590000Y-28415000D01*
X179050000Y-28415000D02*
X179050000Y-28285000D01*
X181590000Y-28415000D02*
X181590000Y-28285000D01*
X179050000Y-28285000D02*
X179050000Y-28285000D01*
X178360000Y-27165000D02*
X178760000Y-27165000D01*
X181590000Y-28415000D02*
X181590000Y-28415000D01*
X181590000Y-28285000D02*
X181590000Y-28285000D01*
X179050000Y-28415000D02*
X179050000Y-28415000D01*
X178760000Y-28285000D02*
X178360000Y-28285000D01*
X178760000Y-27165000D02*
X178760000Y-28285000D01*
X181880000Y-28285000D02*
X181880000Y-24425000D01*
X181880000Y-24425000D02*
G75*
G03*
X178760000Y-24425000I-1560000J0D01*
G01*
%TO.C,J1*%
X118140000Y-65110000D02*
X116800000Y-65110000D01*
X114080000Y-56810000D02*
X112340000Y-56810000D01*
X118140000Y-63620000D02*
X118140000Y-65110000D01*
X118140000Y-56810000D02*
X116800000Y-56810000D01*
X118140000Y-58300000D02*
X118140000Y-56810000D01*
X112340000Y-65110000D02*
X114080000Y-65110000D01*
X112340000Y-56810000D02*
X112340000Y-65110000D01*
X118140000Y-58300000D02*
X119340000Y-58300000D01*
%TO.C,J8*%
X189230000Y-78680000D02*
X191830000Y-78680000D01*
X189230000Y-81340000D02*
X189230000Y-78680000D01*
X189230000Y-81340000D02*
X191830000Y-81340000D01*
X191830000Y-81340000D02*
X191830000Y-78680000D01*
X187960000Y-81340000D02*
X186630000Y-81340000D01*
X186630000Y-81340000D02*
X186630000Y-80010000D01*
%TO.C,SW1*%
X187270000Y-33730000D02*
X193730000Y-33730000D01*
X193730000Y-27270000D02*
X193730000Y-27300000D01*
X193730000Y-29200000D02*
X193730000Y-31800000D01*
X193730000Y-33730000D02*
X193730000Y-33700000D01*
X187270000Y-33730000D02*
X187270000Y-33700000D01*
X187270000Y-29200000D02*
X187270000Y-31800000D01*
X187270000Y-27270000D02*
X193730000Y-27270000D01*
X187270000Y-27300000D02*
X187270000Y-27270000D01*
%TO.C,J2*%
X118140000Y-75860000D02*
X116800000Y-75860000D01*
X118140000Y-77350000D02*
X119340000Y-77350000D01*
X118140000Y-77350000D02*
X118140000Y-75860000D01*
X114080000Y-75860000D02*
X112340000Y-75860000D01*
X112340000Y-84160000D02*
X114080000Y-84160000D01*
X118140000Y-84160000D02*
X116800000Y-84160000D01*
X118140000Y-82670000D02*
X118140000Y-84160000D01*
X112340000Y-75860000D02*
X112340000Y-84160000D01*
%TD*%
D14*
%TO.C,P1*%
X194310000Y-59690000D03*
X191770000Y-59690000D03*
X189230000Y-59690000D03*
X186690000Y-59690000D03*
X184150000Y-59690000D03*
X181610000Y-59690000D03*
X179070000Y-59690000D03*
X176530000Y-59690000D03*
X173990000Y-59690000D03*
X171450000Y-59690000D03*
X168910000Y-59690000D03*
X166370000Y-59690000D03*
X163830000Y-59690000D03*
X161290000Y-59690000D03*
X158750000Y-59690000D03*
%TD*%
%TO.C,P2*%
X194310000Y-74930000D03*
X191770000Y-74930000D03*
X189230000Y-74930000D03*
X186690000Y-74930000D03*
X184150000Y-74930000D03*
X181610000Y-74930000D03*
X179070000Y-74930000D03*
X176530000Y-74930000D03*
X173990000Y-74930000D03*
X171450000Y-74930000D03*
X168910000Y-74930000D03*
X166370000Y-74930000D03*
X163830000Y-74930000D03*
X161290000Y-74930000D03*
X158750000Y-74930000D03*
%TD*%
M02*
