M48
; DRILL file {KiCad (6.0.1)} date Sun Jul 24 14:20:54 2022
; FORMAT={-:-/ absolute / inch / decimal}
; #@! TF.CreationDate,2022-07-24T14:20:54+01:00
; #@! TF.GenerationSoftware,Kicad,Pcbnew,(6.0.1)
; #@! TF.FileFunction,Plated,1,2,PTH
FMAT,2
INCH
; #@! TA.AperFunction,Plated,PTH,ViaDrill
T1C0.0157
; #@! TA.AperFunction,Plated,PTH,ComponentDrill
T2C0.0315
; #@! TA.AperFunction,Plated,PTH,ComponentDrill
T3C0.0354
; #@! TA.AperFunction,Plated,PTH,ComponentDrill
T4C0.0394
; #@! TA.AperFunction,Plated,PTH,ComponentDrill
T5C0.0400
; #@! TA.AperFunction,Plated,PTH,ComponentDrill
T6C0.0650
%
G90
G05
T1
X4.85Y-2.5
X4.9764Y-1.9724
X5.0394Y-1.9449
X5.1181Y-1.9094
X5.1969Y-1.8849
X5.55Y-2.35
X5.8Y-2.2254
X5.8Y-2.35
X5.9Y-2.31
X5.95Y-2.2
X6.1Y-2.65
X6.2Y-2.8
X6.25Y-3.15
X6.2738Y-2.2923
X6.2746Y-2.75
X6.3Y-2.45
X6.309Y-3.1254
X6.45Y-2.2
X6.5Y-3.3
X6.6746Y-3.1003
X6.8746Y-2.2835
X7.1Y-2.85
T2
X5.4Y-2.55
X5.4Y-2.85
X5.5Y-2.55
X5.5Y-2.85
X5.6Y-2.55
X5.6Y-2.85
X5.7Y-2.55
X5.7Y-2.85
X5.8Y-2.55
X5.8Y-2.85
X5.9Y-2.55
X5.9Y-2.85
X6.0Y-2.55
X6.0Y-2.85
X6.6504Y-1.3386
X7.0504Y-1.3386
T3
X7.0492Y-1.1612
X7.1492Y-1.1612
T4
X5.1575Y-2.5004
X5.1575Y-2.6004
X5.1575Y-2.7004
X5.1575Y-2.8004
X6.05Y-2.05
X6.15Y-2.05
X7.4Y-3.15
X7.5Y-3.15
T5
X6.25Y-2.35
X6.25Y-2.95
X6.35Y-2.35
X6.35Y-2.95
X6.45Y-2.35
X6.45Y-2.95
X6.55Y-2.35
X6.55Y-2.95
X6.65Y-2.35
X6.65Y-2.95
X6.75Y-2.35
X6.75Y-2.95
X6.85Y-2.35
X6.85Y-2.95
X6.95Y-2.35
X6.95Y-2.95
X7.05Y-2.35
X7.05Y-2.95
X7.15Y-2.35
X7.15Y-2.95
X7.25Y-2.35
X7.25Y-2.95
X7.35Y-2.35
X7.35Y-2.95
X7.45Y-2.35
X7.45Y-2.95
X7.55Y-2.35
X7.55Y-2.95
X7.65Y-2.35
X7.65Y-2.95
T6
X6.5256Y-1.5551
X6.613Y-3.5
X6.7126Y-1.5551
X6.8Y-3.5
X6.8996Y-1.5551
X6.987Y-3.5
T4
G00X7.2728Y-3.5795
M15
G01X7.2728Y-3.6386
M16
G05
G00X7.4106Y-3.3335
M15
G01X7.4894Y-3.3335
M16
G05
G00X7.4244Y-3.5697
M15
G01X7.4756Y-3.5697
M16
G05
G00X7.6272Y-3.5795
M15
G01X7.6272Y-3.6386
M16
G05
T0
M30
