%TF.GenerationSoftware,KiCad,Pcbnew,(6.0.1)*%
%TF.CreationDate,2022-08-01T21:33:22+01:00*%
%TF.ProjectId,psp-bluetooth,7073702d-626c-4756-9574-6f6f74682e6b,rev?*%
%TF.SameCoordinates,Original*%
%TF.FileFunction,Legend,Top*%
%TF.FilePolarity,Positive*%
%FSLAX46Y46*%
G04 Gerber Fmt 4.6, Leading zero omitted, Abs format (unit mm)*
G04 Created by KiCad (PCBNEW (6.0.1)) date 2022-08-01 21:33:22*
%MOMM*%
%LPD*%
G01*
G04 APERTURE LIST*
%ADD10C,0.150000*%
%ADD11C,0.127000*%
%ADD12C,0.200000*%
%ADD13C,0.120000*%
%ADD14O,1.727200X2.032000*%
G04 APERTURE END LIST*
D10*
X115047619Y-58833333D02*
X115047619Y-58357142D01*
X116047619Y-58357142D01*
X115142857Y-60500000D02*
X115095238Y-60452380D01*
X115047619Y-60309523D01*
X115047619Y-60214285D01*
X115095238Y-60071428D01*
X115190476Y-59976190D01*
X115285714Y-59928571D01*
X115476190Y-59880952D01*
X115619047Y-59880952D01*
X115809523Y-59928571D01*
X115904761Y-59976190D01*
X116000000Y-60071428D01*
X116047619Y-60214285D01*
X116047619Y-60309523D01*
X116000000Y-60452380D01*
X115952380Y-60500000D01*
X115047619Y-61071428D02*
X115095238Y-60976190D01*
X115142857Y-60928571D01*
X115238095Y-60880952D01*
X115523809Y-60880952D01*
X115619047Y-60928571D01*
X115666666Y-60976190D01*
X115714285Y-61071428D01*
X115714285Y-61214285D01*
X115666666Y-61309523D01*
X115619047Y-61357142D01*
X115523809Y-61404761D01*
X115238095Y-61404761D01*
X115142857Y-61357142D01*
X115095238Y-61309523D01*
X115047619Y-61214285D01*
X115047619Y-61071428D01*
X115714285Y-61833333D02*
X115047619Y-61833333D01*
X115619047Y-61833333D02*
X115666666Y-61880952D01*
X115714285Y-61976190D01*
X115714285Y-62119047D01*
X115666666Y-62214285D01*
X115571428Y-62261904D01*
X115047619Y-62261904D01*
X115714285Y-62738095D02*
X115047619Y-62738095D01*
X115619047Y-62738095D02*
X115666666Y-62785714D01*
X115714285Y-62880952D01*
X115714285Y-63023809D01*
X115666666Y-63119047D01*
X115571428Y-63166666D01*
X115047619Y-63166666D01*
X115142857Y-63642857D02*
X115095238Y-63690476D01*
X115047619Y-63642857D01*
X115095238Y-63595238D01*
X115142857Y-63642857D01*
X115047619Y-63642857D01*
X189119047Y-88571428D02*
X189880952Y-88571428D01*
X189500000Y-88952380D02*
X189500000Y-88190476D01*
X176976190Y-84952380D02*
X176880952Y-84904761D01*
X176833333Y-84857142D01*
X176785714Y-84761904D01*
X176785714Y-84476190D01*
X176833333Y-84380952D01*
X176880952Y-84333333D01*
X176976190Y-84285714D01*
X177119047Y-84285714D01*
X177214285Y-84333333D01*
X177261904Y-84380952D01*
X177309523Y-84476190D01*
X177309523Y-84761904D01*
X177261904Y-84857142D01*
X177214285Y-84904761D01*
X177119047Y-84952380D01*
X176976190Y-84952380D01*
X177738095Y-84285714D02*
X177738095Y-84952380D01*
X177738095Y-84380952D02*
X177785714Y-84333333D01*
X177880952Y-84285714D01*
X178023809Y-84285714D01*
X178119047Y-84333333D01*
X178166666Y-84428571D01*
X178166666Y-84952380D01*
X128638333Y-66190476D02*
X128638333Y-66666666D01*
X128352619Y-66095238D02*
X129352619Y-66428571D01*
X128352619Y-66761904D01*
X129019285Y-67095238D02*
X128352619Y-67095238D01*
X128924047Y-67095238D02*
X128971666Y-67142857D01*
X129019285Y-67238095D01*
X129019285Y-67380952D01*
X128971666Y-67476190D01*
X128876428Y-67523809D01*
X128352619Y-67523809D01*
X128352619Y-68428571D02*
X128876428Y-68428571D01*
X128971666Y-68380952D01*
X129019285Y-68285714D01*
X129019285Y-68095238D01*
X128971666Y-68000000D01*
X128400238Y-68428571D02*
X128352619Y-68333333D01*
X128352619Y-68095238D01*
X128400238Y-68000000D01*
X128495476Y-67952380D01*
X128590714Y-67952380D01*
X128685952Y-68000000D01*
X128733571Y-68095238D01*
X128733571Y-68333333D01*
X128781190Y-68428571D01*
X128352619Y-69047619D02*
X128400238Y-68952380D01*
X128495476Y-68904761D01*
X129352619Y-68904761D01*
X128352619Y-69571428D02*
X128400238Y-69476190D01*
X128447857Y-69428571D01*
X128543095Y-69380952D01*
X128828809Y-69380952D01*
X128924047Y-69428571D01*
X128971666Y-69476190D01*
X129019285Y-69571428D01*
X129019285Y-69714285D01*
X128971666Y-69809523D01*
X128924047Y-69857142D01*
X128828809Y-69904761D01*
X128543095Y-69904761D01*
X128447857Y-69857142D01*
X128400238Y-69809523D01*
X128352619Y-69714285D01*
X128352619Y-69571428D01*
X129019285Y-70761904D02*
X128209761Y-70761904D01*
X128114523Y-70714285D01*
X128066904Y-70666666D01*
X128019285Y-70571428D01*
X128019285Y-70428571D01*
X128066904Y-70333333D01*
X128400238Y-70761904D02*
X128352619Y-70666666D01*
X128352619Y-70476190D01*
X128400238Y-70380952D01*
X128447857Y-70333333D01*
X128543095Y-70285714D01*
X128828809Y-70285714D01*
X128924047Y-70333333D01*
X128971666Y-70380952D01*
X129019285Y-70476190D01*
X129019285Y-70666666D01*
X128971666Y-70761904D01*
X126790238Y-66857142D02*
X126742619Y-67000000D01*
X126742619Y-67238095D01*
X126790238Y-67333333D01*
X126837857Y-67380952D01*
X126933095Y-67428571D01*
X127028333Y-67428571D01*
X127123571Y-67380952D01*
X127171190Y-67333333D01*
X127218809Y-67238095D01*
X127266428Y-67047619D01*
X127314047Y-66952380D01*
X127361666Y-66904761D01*
X127456904Y-66857142D01*
X127552142Y-66857142D01*
X127647380Y-66904761D01*
X127695000Y-66952380D01*
X127742619Y-67047619D01*
X127742619Y-67285714D01*
X127695000Y-67428571D01*
X127409285Y-67714285D02*
X127409285Y-68095238D01*
X127742619Y-67857142D02*
X126885476Y-67857142D01*
X126790238Y-67904761D01*
X126742619Y-68000000D01*
X126742619Y-68095238D01*
X126742619Y-68428571D02*
X127409285Y-68428571D01*
X127742619Y-68428571D02*
X127695000Y-68380952D01*
X127647380Y-68428571D01*
X127695000Y-68476190D01*
X127742619Y-68428571D01*
X127647380Y-68428571D01*
X126790238Y-69333333D02*
X126742619Y-69238095D01*
X126742619Y-69047619D01*
X126790238Y-68952380D01*
X126837857Y-68904761D01*
X126933095Y-68857142D01*
X127218809Y-68857142D01*
X127314047Y-68904761D01*
X127361666Y-68952380D01*
X127409285Y-69047619D01*
X127409285Y-69238095D01*
X127361666Y-69333333D01*
X126742619Y-69761904D02*
X127742619Y-69761904D01*
X127123571Y-69857142D02*
X126742619Y-70142857D01*
X127409285Y-70142857D02*
X127028333Y-69761904D01*
X118380952Y-94452380D02*
X118380952Y-93452380D01*
X118809523Y-94452380D02*
X118809523Y-93928571D01*
X118761904Y-93833333D01*
X118666666Y-93785714D01*
X118523809Y-93785714D01*
X118428571Y-93833333D01*
X118380952Y-93880952D01*
X119142857Y-93785714D02*
X119523809Y-93785714D01*
X119285714Y-93452380D02*
X119285714Y-94309523D01*
X119333333Y-94404761D01*
X119428571Y-94452380D01*
X119523809Y-94452380D01*
X119714285Y-93785714D02*
X120095238Y-93785714D01*
X119857142Y-93452380D02*
X119857142Y-94309523D01*
X119904761Y-94404761D01*
X119999999Y-94452380D01*
X120095238Y-94452380D01*
X120428571Y-93785714D02*
X120428571Y-94785714D01*
X120428571Y-93833333D02*
X120523809Y-93785714D01*
X120714285Y-93785714D01*
X120809523Y-93833333D01*
X120857142Y-93880952D01*
X120904761Y-93976190D01*
X120904761Y-94261904D01*
X120857142Y-94357142D01*
X120809523Y-94404761D01*
X120714285Y-94452380D01*
X120523809Y-94452380D01*
X120428571Y-94404761D01*
X121285714Y-94404761D02*
X121380952Y-94452380D01*
X121571428Y-94452380D01*
X121666666Y-94404761D01*
X121714285Y-94309523D01*
X121714285Y-94261904D01*
X121666666Y-94166666D01*
X121571428Y-94119047D01*
X121428571Y-94119047D01*
X121333333Y-94071428D01*
X121285714Y-93976190D01*
X121285714Y-93928571D01*
X121333333Y-93833333D01*
X121428571Y-93785714D01*
X121571428Y-93785714D01*
X121666666Y-93833333D01*
X122142857Y-94357142D02*
X122190476Y-94404761D01*
X122142857Y-94452380D01*
X122095238Y-94404761D01*
X122142857Y-94357142D01*
X122142857Y-94452380D01*
X122142857Y-93833333D02*
X122190476Y-93880952D01*
X122142857Y-93928571D01*
X122095238Y-93880952D01*
X122142857Y-93833333D01*
X122142857Y-93928571D01*
X123333333Y-93404761D02*
X122476190Y-94690476D01*
X124380952Y-93404761D02*
X123523809Y-94690476D01*
X125142857Y-93785714D02*
X125142857Y-94595238D01*
X125095238Y-94690476D01*
X125047619Y-94738095D01*
X124952380Y-94785714D01*
X124809523Y-94785714D01*
X124714285Y-94738095D01*
X125142857Y-94404761D02*
X125047619Y-94452380D01*
X124857142Y-94452380D01*
X124761904Y-94404761D01*
X124714285Y-94357142D01*
X124666666Y-94261904D01*
X124666666Y-93976190D01*
X124714285Y-93880952D01*
X124761904Y-93833333D01*
X124857142Y-93785714D01*
X125047619Y-93785714D01*
X125142857Y-93833333D01*
X125619047Y-94452380D02*
X125619047Y-93785714D01*
X125619047Y-93452380D02*
X125571428Y-93500000D01*
X125619047Y-93547619D01*
X125666666Y-93500000D01*
X125619047Y-93452380D01*
X125619047Y-93547619D01*
X125952380Y-93785714D02*
X126333333Y-93785714D01*
X126095238Y-93452380D02*
X126095238Y-94309523D01*
X126142857Y-94404761D01*
X126238095Y-94452380D01*
X126333333Y-94452380D01*
X126666666Y-94452380D02*
X126666666Y-93452380D01*
X127095238Y-94452380D02*
X127095238Y-93928571D01*
X127047619Y-93833333D01*
X126952380Y-93785714D01*
X126809523Y-93785714D01*
X126714285Y-93833333D01*
X126666666Y-93880952D01*
X127999999Y-93785714D02*
X127999999Y-94452380D01*
X127571428Y-93785714D02*
X127571428Y-94309523D01*
X127619047Y-94404761D01*
X127714285Y-94452380D01*
X127857142Y-94452380D01*
X127952380Y-94404761D01*
X127999999Y-94357142D01*
X128476190Y-94452380D02*
X128476190Y-93452380D01*
X128476190Y-93833333D02*
X128571428Y-93785714D01*
X128761904Y-93785714D01*
X128857142Y-93833333D01*
X128904761Y-93880952D01*
X128952380Y-93976190D01*
X128952380Y-94261904D01*
X128904761Y-94357142D01*
X128857142Y-94404761D01*
X128761904Y-94452380D01*
X128571428Y-94452380D01*
X128476190Y-94404761D01*
X129380952Y-94357142D02*
X129428571Y-94404761D01*
X129380952Y-94452380D01*
X129333333Y-94404761D01*
X129380952Y-94357142D01*
X129380952Y-94452380D01*
X130285714Y-94404761D02*
X130190476Y-94452380D01*
X129999999Y-94452380D01*
X129904761Y-94404761D01*
X129857142Y-94357142D01*
X129809523Y-94261904D01*
X129809523Y-93976190D01*
X129857142Y-93880952D01*
X129904761Y-93833333D01*
X129999999Y-93785714D01*
X130190476Y-93785714D01*
X130285714Y-93833333D01*
X130857142Y-94452380D02*
X130761904Y-94404761D01*
X130714285Y-94357142D01*
X130666666Y-94261904D01*
X130666666Y-93976190D01*
X130714285Y-93880952D01*
X130761904Y-93833333D01*
X130857142Y-93785714D01*
X130999999Y-93785714D01*
X131095238Y-93833333D01*
X131142857Y-93880952D01*
X131190476Y-93976190D01*
X131190476Y-94261904D01*
X131142857Y-94357142D01*
X131095238Y-94404761D01*
X130999999Y-94452380D01*
X130857142Y-94452380D01*
X131619047Y-94452380D02*
X131619047Y-93785714D01*
X131619047Y-93880952D02*
X131666666Y-93833333D01*
X131761904Y-93785714D01*
X131904761Y-93785714D01*
X131999999Y-93833333D01*
X132047619Y-93928571D01*
X132047619Y-94452380D01*
X132047619Y-93928571D02*
X132095238Y-93833333D01*
X132190476Y-93785714D01*
X132333333Y-93785714D01*
X132428571Y-93833333D01*
X132476190Y-93928571D01*
X132476190Y-94452380D01*
X133666666Y-93404761D02*
X132809523Y-94690476D01*
X133952380Y-94404761D02*
X134047619Y-94452380D01*
X134238095Y-94452380D01*
X134333333Y-94404761D01*
X134380952Y-94309523D01*
X134380952Y-94261904D01*
X134333333Y-94166666D01*
X134238095Y-94119047D01*
X134095238Y-94119047D01*
X133999999Y-94071428D01*
X133952380Y-93976190D01*
X133952380Y-93928571D01*
X133999999Y-93833333D01*
X134095238Y-93785714D01*
X134238095Y-93785714D01*
X134333333Y-93833333D01*
X134666666Y-93785714D02*
X135047619Y-93785714D01*
X134809523Y-93452380D02*
X134809523Y-94309523D01*
X134857142Y-94404761D01*
X134952380Y-94452380D01*
X135047619Y-94452380D01*
X135761904Y-94404761D02*
X135666666Y-94452380D01*
X135476190Y-94452380D01*
X135380952Y-94404761D01*
X135333333Y-94309523D01*
X135333333Y-93928571D01*
X135380952Y-93833333D01*
X135476190Y-93785714D01*
X135666666Y-93785714D01*
X135761904Y-93833333D01*
X135809523Y-93928571D01*
X135809523Y-94023809D01*
X135333333Y-94119047D01*
X136190476Y-93547619D02*
X136238095Y-93500000D01*
X136333333Y-93452380D01*
X136571428Y-93452380D01*
X136666666Y-93500000D01*
X136714285Y-93547619D01*
X136761904Y-93642857D01*
X136761904Y-93738095D01*
X136714285Y-93880952D01*
X136142857Y-94452380D01*
X136761904Y-94452380D01*
X137619047Y-93785714D02*
X137619047Y-94452380D01*
X137380952Y-93404761D02*
X137142857Y-94119047D01*
X137761904Y-94119047D01*
X138095238Y-93547619D02*
X138142857Y-93500000D01*
X138238095Y-93452380D01*
X138476190Y-93452380D01*
X138571428Y-93500000D01*
X138619047Y-93547619D01*
X138666666Y-93642857D01*
X138666666Y-93738095D01*
X138619047Y-93880952D01*
X138047619Y-94452380D01*
X138666666Y-94452380D01*
X139571428Y-93452380D02*
X139095238Y-93452380D01*
X139047619Y-93928571D01*
X139095238Y-93880952D01*
X139190476Y-93833333D01*
X139428571Y-93833333D01*
X139523809Y-93880952D01*
X139571428Y-93928571D01*
X139619047Y-94023809D01*
X139619047Y-94261904D01*
X139571428Y-94357142D01*
X139523809Y-94404761D01*
X139428571Y-94452380D01*
X139190476Y-94452380D01*
X139095238Y-94404761D01*
X139047619Y-94357142D01*
X140761904Y-93404761D02*
X139904761Y-94690476D01*
X141095238Y-94452380D02*
X141095238Y-93452380D01*
X141476190Y-93452380D01*
X141571428Y-93500000D01*
X141619047Y-93547619D01*
X141666666Y-93642857D01*
X141666666Y-93785714D01*
X141619047Y-93880952D01*
X141571428Y-93928571D01*
X141476190Y-93976190D01*
X141095238Y-93976190D01*
X142047619Y-94404761D02*
X142190476Y-94452380D01*
X142428571Y-94452380D01*
X142523809Y-94404761D01*
X142571428Y-94357142D01*
X142619047Y-94261904D01*
X142619047Y-94166666D01*
X142571428Y-94071428D01*
X142523809Y-94023809D01*
X142428571Y-93976190D01*
X142238095Y-93928571D01*
X142142857Y-93880952D01*
X142095238Y-93833333D01*
X142047619Y-93738095D01*
X142047619Y-93642857D01*
X142095238Y-93547619D01*
X142142857Y-93500000D01*
X142238095Y-93452380D01*
X142476190Y-93452380D01*
X142619047Y-93500000D01*
X143047619Y-94452380D02*
X143047619Y-93452380D01*
X143428571Y-93452380D01*
X143523809Y-93500000D01*
X143571428Y-93547619D01*
X143619047Y-93642857D01*
X143619047Y-93785714D01*
X143571428Y-93880952D01*
X143523809Y-93928571D01*
X143428571Y-93976190D01*
X143047619Y-93976190D01*
X144047619Y-94071428D02*
X144809523Y-94071428D01*
X145619047Y-93928571D02*
X145761904Y-93976190D01*
X145809523Y-94023809D01*
X145857142Y-94119047D01*
X145857142Y-94261904D01*
X145809523Y-94357142D01*
X145761904Y-94404761D01*
X145666666Y-94452380D01*
X145285714Y-94452380D01*
X145285714Y-93452380D01*
X145619047Y-93452380D01*
X145714285Y-93500000D01*
X145761904Y-93547619D01*
X145809523Y-93642857D01*
X145809523Y-93738095D01*
X145761904Y-93833333D01*
X145714285Y-93880952D01*
X145619047Y-93928571D01*
X145285714Y-93928571D01*
X146428571Y-94452380D02*
X146333333Y-94404761D01*
X146285714Y-94309523D01*
X146285714Y-93452380D01*
X147238095Y-93785714D02*
X147238095Y-94452380D01*
X146809523Y-93785714D02*
X146809523Y-94309523D01*
X146857142Y-94404761D01*
X146952380Y-94452380D01*
X147095238Y-94452380D01*
X147190476Y-94404761D01*
X147238095Y-94357142D01*
X148095238Y-94404761D02*
X148000000Y-94452380D01*
X147809523Y-94452380D01*
X147714285Y-94404761D01*
X147666666Y-94309523D01*
X147666666Y-93928571D01*
X147714285Y-93833333D01*
X147809523Y-93785714D01*
X148000000Y-93785714D01*
X148095238Y-93833333D01*
X148142857Y-93928571D01*
X148142857Y-94023809D01*
X147666666Y-94119047D01*
X148428571Y-93785714D02*
X148809523Y-93785714D01*
X148571428Y-93452380D02*
X148571428Y-94309523D01*
X148619047Y-94404761D01*
X148714285Y-94452380D01*
X148809523Y-94452380D01*
X149285714Y-94452380D02*
X149190476Y-94404761D01*
X149142857Y-94357142D01*
X149095238Y-94261904D01*
X149095238Y-93976190D01*
X149142857Y-93880952D01*
X149190476Y-93833333D01*
X149285714Y-93785714D01*
X149428571Y-93785714D01*
X149523809Y-93833333D01*
X149571428Y-93880952D01*
X149619047Y-93976190D01*
X149619047Y-94261904D01*
X149571428Y-94357142D01*
X149523809Y-94404761D01*
X149428571Y-94452380D01*
X149285714Y-94452380D01*
X150190476Y-94452380D02*
X150095238Y-94404761D01*
X150047619Y-94357142D01*
X150000000Y-94261904D01*
X150000000Y-93976190D01*
X150047619Y-93880952D01*
X150095238Y-93833333D01*
X150190476Y-93785714D01*
X150333333Y-93785714D01*
X150428571Y-93833333D01*
X150476190Y-93880952D01*
X150523809Y-93976190D01*
X150523809Y-94261904D01*
X150476190Y-94357142D01*
X150428571Y-94404761D01*
X150333333Y-94452380D01*
X150190476Y-94452380D01*
X150809523Y-93785714D02*
X151190476Y-93785714D01*
X150952380Y-93452380D02*
X150952380Y-94309523D01*
X151000000Y-94404761D01*
X151095238Y-94452380D01*
X151190476Y-94452380D01*
X151523809Y-94452380D02*
X151523809Y-93452380D01*
X151952380Y-94452380D02*
X151952380Y-93928571D01*
X151904761Y-93833333D01*
X151809523Y-93785714D01*
X151666666Y-93785714D01*
X151571428Y-93833333D01*
X151523809Y-93880952D01*
X152428571Y-94071428D02*
X153190476Y-94071428D01*
X154238095Y-94357142D02*
X154190476Y-94404761D01*
X154047619Y-94452380D01*
X153952380Y-94452380D01*
X153809523Y-94404761D01*
X153714285Y-94309523D01*
X153666666Y-94214285D01*
X153619047Y-94023809D01*
X153619047Y-93880952D01*
X153666666Y-93690476D01*
X153714285Y-93595238D01*
X153809523Y-93500000D01*
X153952380Y-93452380D01*
X154047619Y-93452380D01*
X154190476Y-93500000D01*
X154238095Y-93547619D01*
X154809523Y-94452380D02*
X154714285Y-94404761D01*
X154666666Y-94357142D01*
X154619047Y-94261904D01*
X154619047Y-93976190D01*
X154666666Y-93880952D01*
X154714285Y-93833333D01*
X154809523Y-93785714D01*
X154952380Y-93785714D01*
X155047619Y-93833333D01*
X155095238Y-93880952D01*
X155142857Y-93976190D01*
X155142857Y-94261904D01*
X155095238Y-94357142D01*
X155047619Y-94404761D01*
X154952380Y-94452380D01*
X154809523Y-94452380D01*
X155571428Y-93785714D02*
X155571428Y-94452380D01*
X155571428Y-93880952D02*
X155619047Y-93833333D01*
X155714285Y-93785714D01*
X155857142Y-93785714D01*
X155952380Y-93833333D01*
X155999999Y-93928571D01*
X155999999Y-94452380D01*
X156333333Y-93785714D02*
X156714285Y-93785714D01*
X156476190Y-93452380D02*
X156476190Y-94309523D01*
X156523809Y-94404761D01*
X156619047Y-94452380D01*
X156714285Y-94452380D01*
X157047619Y-94452380D02*
X157047619Y-93785714D01*
X157047619Y-93976190D02*
X157095238Y-93880952D01*
X157142857Y-93833333D01*
X157238095Y-93785714D01*
X157333333Y-93785714D01*
X157809523Y-94452380D02*
X157714285Y-94404761D01*
X157666666Y-94357142D01*
X157619047Y-94261904D01*
X157619047Y-93976190D01*
X157666666Y-93880952D01*
X157714285Y-93833333D01*
X157809523Y-93785714D01*
X157952380Y-93785714D01*
X158047619Y-93833333D01*
X158095238Y-93880952D01*
X158142857Y-93976190D01*
X158142857Y-94261904D01*
X158095238Y-94357142D01*
X158047619Y-94404761D01*
X157952380Y-94452380D01*
X157809523Y-94452380D01*
X158714285Y-94452380D02*
X158619047Y-94404761D01*
X158571428Y-94309523D01*
X158571428Y-93452380D01*
X159238095Y-94452380D02*
X159142857Y-94404761D01*
X159095238Y-94309523D01*
X159095238Y-93452380D01*
X159999999Y-94404761D02*
X159904761Y-94452380D01*
X159714285Y-94452380D01*
X159619047Y-94404761D01*
X159571428Y-94309523D01*
X159571428Y-93928571D01*
X159619047Y-93833333D01*
X159714285Y-93785714D01*
X159904761Y-93785714D01*
X159999999Y-93833333D01*
X160047619Y-93928571D01*
X160047619Y-94023809D01*
X159571428Y-94119047D01*
X160476190Y-94452380D02*
X160476190Y-93785714D01*
X160476190Y-93976190D02*
X160523809Y-93880952D01*
X160571428Y-93833333D01*
X160666666Y-93785714D01*
X160761904Y-93785714D01*
X155619047Y-49571428D02*
X156380952Y-49571428D01*
X158964285Y-66857142D02*
X158297619Y-66857142D01*
X158964285Y-66428571D02*
X158440476Y-66428571D01*
X158345238Y-66476190D01*
X158297619Y-66571428D01*
X158297619Y-66714285D01*
X158345238Y-66809523D01*
X158392857Y-66857142D01*
X158345238Y-67285714D02*
X158297619Y-67380952D01*
X158297619Y-67571428D01*
X158345238Y-67666666D01*
X158440476Y-67714285D01*
X158488095Y-67714285D01*
X158583333Y-67666666D01*
X158630952Y-67571428D01*
X158630952Y-67428571D01*
X158678571Y-67333333D01*
X158773809Y-67285714D01*
X158821428Y-67285714D01*
X158916666Y-67333333D01*
X158964285Y-67428571D01*
X158964285Y-67571428D01*
X158916666Y-67666666D01*
X158297619Y-68142857D02*
X159297619Y-68142857D01*
X158916666Y-68142857D02*
X158964285Y-68238095D01*
X158964285Y-68428571D01*
X158916666Y-68523809D01*
X158869047Y-68571428D01*
X158773809Y-68619047D01*
X158488095Y-68619047D01*
X158392857Y-68571428D01*
X158345238Y-68523809D01*
X158297619Y-68428571D01*
X158297619Y-68238095D01*
X158345238Y-68142857D01*
X153119047Y-49571428D02*
X153880952Y-49571428D01*
X153500000Y-49952380D02*
X153500000Y-49190476D01*
X166857142Y-84952380D02*
X166761904Y-84904761D01*
X166714285Y-84857142D01*
X166666666Y-84761904D01*
X166666666Y-84476190D01*
X166714285Y-84380952D01*
X166761904Y-84333333D01*
X166857142Y-84285714D01*
X167000000Y-84285714D01*
X167095238Y-84333333D01*
X167142857Y-84380952D01*
X167190476Y-84476190D01*
X167190476Y-84761904D01*
X167142857Y-84857142D01*
X167095238Y-84904761D01*
X167000000Y-84952380D01*
X166857142Y-84952380D01*
X167476190Y-84285714D02*
X167857142Y-84285714D01*
X167619047Y-84952380D02*
X167619047Y-84095238D01*
X167666666Y-84000000D01*
X167761904Y-83952380D01*
X167857142Y-83952380D01*
X168047619Y-84285714D02*
X168428571Y-84285714D01*
X168190476Y-84952380D02*
X168190476Y-84095238D01*
X168238095Y-84000000D01*
X168333333Y-83952380D01*
X168428571Y-83952380D01*
X192142857Y-80452380D02*
X192142857Y-79452380D01*
X192523809Y-79452380D01*
X192619047Y-79500000D01*
X192666666Y-79547619D01*
X192714285Y-79642857D01*
X192714285Y-79785714D01*
X192666666Y-79880952D01*
X192619047Y-79928571D01*
X192523809Y-79976190D01*
X192142857Y-79976190D01*
X193047619Y-79452380D02*
X193285714Y-80452380D01*
X193476190Y-79738095D01*
X193666666Y-80452380D01*
X193904761Y-79452380D01*
X194857142Y-80452380D02*
X194523809Y-79976190D01*
X194285714Y-80452380D02*
X194285714Y-79452380D01*
X194666666Y-79452380D01*
X194761904Y-79500000D01*
X194809523Y-79547619D01*
X194857142Y-79642857D01*
X194857142Y-79785714D01*
X194809523Y-79880952D01*
X194761904Y-79928571D01*
X194666666Y-79976190D01*
X194285714Y-79976190D01*
X195904761Y-79452380D02*
X196476190Y-79452380D01*
X196190476Y-80452380D02*
X196190476Y-79452380D01*
X197333333Y-79500000D02*
X197238095Y-79452380D01*
X197095238Y-79452380D01*
X196952380Y-79500000D01*
X196857142Y-79595238D01*
X196809523Y-79690476D01*
X196761904Y-79880952D01*
X196761904Y-80023809D01*
X196809523Y-80214285D01*
X196857142Y-80309523D01*
X196952380Y-80404761D01*
X197095238Y-80452380D01*
X197190476Y-80452380D01*
X197333333Y-80404761D01*
X197380952Y-80357142D01*
X197380952Y-80023809D01*
X197190476Y-80023809D01*
X198285714Y-80452380D02*
X197809523Y-80452380D01*
X197809523Y-79452380D01*
X199904761Y-80452380D02*
X199333333Y-80452380D01*
X199619047Y-80452380D02*
X199619047Y-79452380D01*
X199523809Y-79595238D01*
X199428571Y-79690476D01*
X199333333Y-79738095D01*
X167958095Y-82952380D02*
X167958095Y-81952380D01*
X168339047Y-81952380D01*
X168434285Y-82000000D01*
X168481904Y-82047619D01*
X168529523Y-82142857D01*
X168529523Y-82285714D01*
X168481904Y-82380952D01*
X168434285Y-82428571D01*
X168339047Y-82476190D01*
X167958095Y-82476190D01*
X169100952Y-82952380D02*
X169005714Y-82904761D01*
X168958095Y-82857142D01*
X168910476Y-82761904D01*
X168910476Y-82476190D01*
X168958095Y-82380952D01*
X169005714Y-82333333D01*
X169100952Y-82285714D01*
X169243809Y-82285714D01*
X169339047Y-82333333D01*
X169386666Y-82380952D01*
X169434285Y-82476190D01*
X169434285Y-82761904D01*
X169386666Y-82857142D01*
X169339047Y-82904761D01*
X169243809Y-82952380D01*
X169100952Y-82952380D01*
X169767619Y-82285714D02*
X169958095Y-82952380D01*
X170148571Y-82476190D01*
X170339047Y-82952380D01*
X170529523Y-82285714D01*
X171291428Y-82904761D02*
X171196190Y-82952380D01*
X171005714Y-82952380D01*
X170910476Y-82904761D01*
X170862857Y-82809523D01*
X170862857Y-82428571D01*
X170910476Y-82333333D01*
X171005714Y-82285714D01*
X171196190Y-82285714D01*
X171291428Y-82333333D01*
X171339047Y-82428571D01*
X171339047Y-82523809D01*
X170862857Y-82619047D01*
X171767619Y-82952380D02*
X171767619Y-82285714D01*
X171767619Y-82476190D02*
X171815238Y-82380952D01*
X171862857Y-82333333D01*
X171958095Y-82285714D01*
X172053333Y-82285714D01*
X173100952Y-82904761D02*
X173243809Y-82952380D01*
X173481904Y-82952380D01*
X173577142Y-82904761D01*
X173624761Y-82857142D01*
X173672380Y-82761904D01*
X173672380Y-82666666D01*
X173624761Y-82571428D01*
X173577142Y-82523809D01*
X173481904Y-82476190D01*
X173291428Y-82428571D01*
X173196190Y-82380952D01*
X173148571Y-82333333D01*
X173100952Y-82238095D01*
X173100952Y-82142857D01*
X173148571Y-82047619D01*
X173196190Y-82000000D01*
X173291428Y-81952380D01*
X173529523Y-81952380D01*
X173672380Y-82000000D01*
X174005714Y-82285714D02*
X174196190Y-82952380D01*
X174386666Y-82476190D01*
X174577142Y-82952380D01*
X174767619Y-82285714D01*
X175148571Y-82952380D02*
X175148571Y-82285714D01*
X175148571Y-81952380D02*
X175100952Y-82000000D01*
X175148571Y-82047619D01*
X175196190Y-82000000D01*
X175148571Y-81952380D01*
X175148571Y-82047619D01*
X175481904Y-82285714D02*
X175862857Y-82285714D01*
X175624761Y-81952380D02*
X175624761Y-82809523D01*
X175672380Y-82904761D01*
X175767619Y-82952380D01*
X175862857Y-82952380D01*
X176624761Y-82904761D02*
X176529523Y-82952380D01*
X176339047Y-82952380D01*
X176243809Y-82904761D01*
X176196190Y-82857142D01*
X176148571Y-82761904D01*
X176148571Y-82476190D01*
X176196190Y-82380952D01*
X176243809Y-82333333D01*
X176339047Y-82285714D01*
X176529523Y-82285714D01*
X176624761Y-82333333D01*
X177053333Y-82952380D02*
X177053333Y-81952380D01*
X177481904Y-82952380D02*
X177481904Y-82428571D01*
X177434285Y-82333333D01*
X177339047Y-82285714D01*
X177196190Y-82285714D01*
X177100952Y-82333333D01*
X177053333Y-82380952D01*
X115142857Y-77833333D02*
X115095238Y-77785714D01*
X115047619Y-77642857D01*
X115047619Y-77547619D01*
X115095238Y-77404761D01*
X115190476Y-77309523D01*
X115285714Y-77261904D01*
X115476190Y-77214285D01*
X115619047Y-77214285D01*
X115809523Y-77261904D01*
X115904761Y-77309523D01*
X116000000Y-77404761D01*
X116047619Y-77547619D01*
X116047619Y-77642857D01*
X116000000Y-77785714D01*
X115952380Y-77833333D01*
X115142857Y-79595238D02*
X115095238Y-79547619D01*
X115047619Y-79404761D01*
X115047619Y-79309523D01*
X115095238Y-79166666D01*
X115190476Y-79071428D01*
X115285714Y-79023809D01*
X115476190Y-78976190D01*
X115619047Y-78976190D01*
X115809523Y-79023809D01*
X115904761Y-79071428D01*
X116000000Y-79166666D01*
X116047619Y-79309523D01*
X116047619Y-79404761D01*
X116000000Y-79547619D01*
X115952380Y-79595238D01*
X115047619Y-80166666D02*
X115095238Y-80071428D01*
X115142857Y-80023809D01*
X115238095Y-79976190D01*
X115523809Y-79976190D01*
X115619047Y-80023809D01*
X115666666Y-80071428D01*
X115714285Y-80166666D01*
X115714285Y-80309523D01*
X115666666Y-80404761D01*
X115619047Y-80452380D01*
X115523809Y-80500000D01*
X115238095Y-80500000D01*
X115142857Y-80452380D01*
X115095238Y-80404761D01*
X115047619Y-80309523D01*
X115047619Y-80166666D01*
X115714285Y-80928571D02*
X115047619Y-80928571D01*
X115619047Y-80928571D02*
X115666666Y-80976190D01*
X115714285Y-81071428D01*
X115714285Y-81214285D01*
X115666666Y-81309523D01*
X115571428Y-81357142D01*
X115047619Y-81357142D01*
X115714285Y-81833333D02*
X115047619Y-81833333D01*
X115619047Y-81833333D02*
X115666666Y-81880952D01*
X115714285Y-81976190D01*
X115714285Y-82119047D01*
X115666666Y-82214285D01*
X115571428Y-82261904D01*
X115047619Y-82261904D01*
X115142857Y-82738095D02*
X115095238Y-82785714D01*
X115047619Y-82738095D01*
X115095238Y-82690476D01*
X115142857Y-82738095D01*
X115047619Y-82738095D01*
X165190476Y-47452380D02*
X165190476Y-46452380D01*
X165571428Y-46452380D01*
X165666666Y-46500000D01*
X165714285Y-46547619D01*
X165761904Y-46642857D01*
X165761904Y-46785714D01*
X165714285Y-46880952D01*
X165666666Y-46928571D01*
X165571428Y-46976190D01*
X165190476Y-46976190D01*
X166761904Y-47452380D02*
X166428571Y-46976190D01*
X166190476Y-47452380D02*
X166190476Y-46452380D01*
X166571428Y-46452380D01*
X166666666Y-46500000D01*
X166714285Y-46547619D01*
X166761904Y-46642857D01*
X166761904Y-46785714D01*
X166714285Y-46880952D01*
X166666666Y-46928571D01*
X166571428Y-46976190D01*
X166190476Y-46976190D01*
X167380952Y-46452380D02*
X167571428Y-46452380D01*
X167666666Y-46500000D01*
X167761904Y-46595238D01*
X167809523Y-46785714D01*
X167809523Y-47119047D01*
X167761904Y-47309523D01*
X167666666Y-47404761D01*
X167571428Y-47452380D01*
X167380952Y-47452380D01*
X167285714Y-47404761D01*
X167190476Y-47309523D01*
X167142857Y-47119047D01*
X167142857Y-46785714D01*
X167190476Y-46595238D01*
X167285714Y-46500000D01*
X167380952Y-46452380D01*
X168761904Y-46500000D02*
X168666666Y-46452380D01*
X168523809Y-46452380D01*
X168380952Y-46500000D01*
X168285714Y-46595238D01*
X168238095Y-46690476D01*
X168190476Y-46880952D01*
X168190476Y-47023809D01*
X168238095Y-47214285D01*
X168285714Y-47309523D01*
X168380952Y-47404761D01*
X168523809Y-47452380D01*
X168619047Y-47452380D01*
X168761904Y-47404761D01*
X168809523Y-47357142D01*
X168809523Y-47023809D01*
X168619047Y-47023809D01*
X169857142Y-46452380D02*
X170428571Y-46452380D01*
X170142857Y-47452380D02*
X170142857Y-46452380D01*
X171285714Y-46500000D02*
X171190476Y-46452380D01*
X171047619Y-46452380D01*
X170904761Y-46500000D01*
X170809523Y-46595238D01*
X170761904Y-46690476D01*
X170714285Y-46880952D01*
X170714285Y-47023809D01*
X170761904Y-47214285D01*
X170809523Y-47309523D01*
X170904761Y-47404761D01*
X171047619Y-47452380D01*
X171142857Y-47452380D01*
X171285714Y-47404761D01*
X171333333Y-47357142D01*
X171333333Y-47023809D01*
X171142857Y-47023809D01*
X172238095Y-47452380D02*
X171761904Y-47452380D01*
X171761904Y-46452380D01*
X173857142Y-47452380D02*
X173285714Y-47452380D01*
X173571428Y-47452380D02*
X173571428Y-46452380D01*
X173476190Y-46595238D01*
X173380952Y-46690476D01*
X173285714Y-46738095D01*
X169285714Y-67666666D02*
X169761904Y-67666666D01*
X169190476Y-67952380D02*
X169523809Y-66952380D01*
X169857142Y-67952380D01*
X170190476Y-67952380D02*
X170190476Y-67285714D01*
X170190476Y-67476190D02*
X170238095Y-67380952D01*
X170285714Y-67333333D01*
X170380952Y-67285714D01*
X170476190Y-67285714D01*
X171238095Y-67952380D02*
X171238095Y-66952380D01*
X171238095Y-67904761D02*
X171142857Y-67952380D01*
X170952380Y-67952380D01*
X170857142Y-67904761D01*
X170809523Y-67857142D01*
X170761904Y-67761904D01*
X170761904Y-67476190D01*
X170809523Y-67380952D01*
X170857142Y-67333333D01*
X170952380Y-67285714D01*
X171142857Y-67285714D01*
X171238095Y-67333333D01*
X172142857Y-67285714D02*
X172142857Y-67952380D01*
X171714285Y-67285714D02*
X171714285Y-67809523D01*
X171761904Y-67904761D01*
X171857142Y-67952380D01*
X172000000Y-67952380D01*
X172095238Y-67904761D01*
X172142857Y-67857142D01*
X172619047Y-67952380D02*
X172619047Y-67285714D01*
X172619047Y-66952380D02*
X172571428Y-67000000D01*
X172619047Y-67047619D01*
X172666666Y-67000000D01*
X172619047Y-66952380D01*
X172619047Y-67047619D01*
X173095238Y-67285714D02*
X173095238Y-67952380D01*
X173095238Y-67380952D02*
X173142857Y-67333333D01*
X173238095Y-67285714D01*
X173380952Y-67285714D01*
X173476190Y-67333333D01*
X173523809Y-67428571D01*
X173523809Y-67952380D01*
X174142857Y-67952380D02*
X174047619Y-67904761D01*
X174000000Y-67857142D01*
X173952380Y-67761904D01*
X173952380Y-67476190D01*
X174000000Y-67380952D01*
X174047619Y-67333333D01*
X174142857Y-67285714D01*
X174285714Y-67285714D01*
X174380952Y-67333333D01*
X174428571Y-67380952D01*
X174476190Y-67476190D01*
X174476190Y-67761904D01*
X174428571Y-67857142D01*
X174380952Y-67904761D01*
X174285714Y-67952380D01*
X174142857Y-67952380D01*
X175666666Y-67952380D02*
X175666666Y-66952380D01*
X176238095Y-67952380D01*
X176238095Y-66952380D01*
X177142857Y-67952380D02*
X177142857Y-67428571D01*
X177095238Y-67333333D01*
X177000000Y-67285714D01*
X176809523Y-67285714D01*
X176714285Y-67333333D01*
X177142857Y-67904761D02*
X177047619Y-67952380D01*
X176809523Y-67952380D01*
X176714285Y-67904761D01*
X176666666Y-67809523D01*
X176666666Y-67714285D01*
X176714285Y-67619047D01*
X176809523Y-67571428D01*
X177047619Y-67571428D01*
X177142857Y-67523809D01*
X177619047Y-67285714D02*
X177619047Y-67952380D01*
X177619047Y-67380952D02*
X177666666Y-67333333D01*
X177761904Y-67285714D01*
X177904761Y-67285714D01*
X178000000Y-67333333D01*
X178047619Y-67428571D01*
X178047619Y-67952380D01*
X178666666Y-67952380D02*
X178571428Y-67904761D01*
X178523809Y-67857142D01*
X178476190Y-67761904D01*
X178476190Y-67476190D01*
X178523809Y-67380952D01*
X178571428Y-67333333D01*
X178666666Y-67285714D01*
X178809523Y-67285714D01*
X178904761Y-67333333D01*
X178952380Y-67380952D01*
X179000000Y-67476190D01*
X179000000Y-67761904D01*
X178952380Y-67857142D01*
X178904761Y-67904761D01*
X178809523Y-67952380D01*
X178666666Y-67952380D01*
X180095238Y-66952380D02*
X180714285Y-66952380D01*
X180380952Y-67333333D01*
X180523809Y-67333333D01*
X180619047Y-67380952D01*
X180666666Y-67428571D01*
X180714285Y-67523809D01*
X180714285Y-67761904D01*
X180666666Y-67857142D01*
X180619047Y-67904761D01*
X180523809Y-67952380D01*
X180238095Y-67952380D01*
X180142857Y-67904761D01*
X180095238Y-67857142D01*
X181047619Y-66952380D02*
X181666666Y-66952380D01*
X181333333Y-67333333D01*
X181476190Y-67333333D01*
X181571428Y-67380952D01*
X181619047Y-67428571D01*
X181666666Y-67523809D01*
X181666666Y-67761904D01*
X181619047Y-67857142D01*
X181571428Y-67904761D01*
X181476190Y-67952380D01*
X181190476Y-67952380D01*
X181095238Y-67904761D01*
X181047619Y-67857142D01*
X182857142Y-67952380D02*
X182857142Y-66952380D01*
X183523809Y-66952380D02*
X183714285Y-66952380D01*
X183809523Y-67000000D01*
X183904761Y-67095238D01*
X183952380Y-67285714D01*
X183952380Y-67619047D01*
X183904761Y-67809523D01*
X183809523Y-67904761D01*
X183714285Y-67952380D01*
X183523809Y-67952380D01*
X183428571Y-67904761D01*
X183333333Y-67809523D01*
X183285714Y-67619047D01*
X183285714Y-67285714D01*
X183333333Y-67095238D01*
X183428571Y-67000000D01*
X183523809Y-66952380D01*
X184238095Y-66952380D02*
X184809523Y-66952380D01*
X184523809Y-67952380D02*
X184523809Y-66952380D01*
X152309523Y-55452380D02*
X152309523Y-54452380D01*
X152690476Y-54452380D01*
X152785714Y-54500000D01*
X152833333Y-54547619D01*
X152880952Y-54642857D01*
X152880952Y-54785714D01*
X152833333Y-54880952D01*
X152785714Y-54928571D01*
X152690476Y-54976190D01*
X152309523Y-54976190D01*
X153261904Y-55404761D02*
X153404761Y-55452380D01*
X153642857Y-55452380D01*
X153738095Y-55404761D01*
X153785714Y-55357142D01*
X153833333Y-55261904D01*
X153833333Y-55166666D01*
X153785714Y-55071428D01*
X153738095Y-55023809D01*
X153642857Y-54976190D01*
X153452380Y-54928571D01*
X153357142Y-54880952D01*
X153309523Y-54833333D01*
X153261904Y-54738095D01*
X153261904Y-54642857D01*
X153309523Y-54547619D01*
X153357142Y-54500000D01*
X153452380Y-54452380D01*
X153690476Y-54452380D01*
X153833333Y-54500000D01*
X154261904Y-55452380D02*
X154261904Y-54452380D01*
X154642857Y-54452380D01*
X154738095Y-54500000D01*
X154785714Y-54547619D01*
X154833333Y-54642857D01*
X154833333Y-54785714D01*
X154785714Y-54880952D01*
X154738095Y-54928571D01*
X154642857Y-54976190D01*
X154261904Y-54976190D01*
X156023809Y-55452380D02*
X156023809Y-54452380D01*
X156404761Y-54452380D01*
X156500000Y-54500000D01*
X156547619Y-54547619D01*
X156595238Y-54642857D01*
X156595238Y-54785714D01*
X156547619Y-54880952D01*
X156500000Y-54928571D01*
X156404761Y-54976190D01*
X156023809Y-54976190D01*
X156928571Y-54452380D02*
X157166666Y-55452380D01*
X157357142Y-54738095D01*
X157547619Y-55452380D01*
X157785714Y-54452380D01*
X158738095Y-55452380D02*
X158404761Y-54976190D01*
X158166666Y-55452380D02*
X158166666Y-54452380D01*
X158547619Y-54452380D01*
X158642857Y-54500000D01*
X158690476Y-54547619D01*
X158738095Y-54642857D01*
X158738095Y-54785714D01*
X158690476Y-54880952D01*
X158642857Y-54928571D01*
X158547619Y-54976190D01*
X158166666Y-54976190D01*
X139833333Y-51952380D02*
X139500000Y-51476190D01*
X139261904Y-51952380D02*
X139261904Y-50952380D01*
X139642857Y-50952380D01*
X139738095Y-51000000D01*
X139785714Y-51047619D01*
X139833333Y-51142857D01*
X139833333Y-51285714D01*
X139785714Y-51380952D01*
X139738095Y-51428571D01*
X139642857Y-51476190D01*
X139261904Y-51476190D01*
X141595238Y-51857142D02*
X141547619Y-51904761D01*
X141404761Y-51952380D01*
X141309523Y-51952380D01*
X141166666Y-51904761D01*
X141071428Y-51809523D01*
X141023809Y-51714285D01*
X140976190Y-51523809D01*
X140976190Y-51380952D01*
X141023809Y-51190476D01*
X141071428Y-51095238D01*
X141166666Y-51000000D01*
X141309523Y-50952380D01*
X141404761Y-50952380D01*
X141547619Y-51000000D01*
X141595238Y-51047619D01*
X142166666Y-51952380D02*
X142071428Y-51904761D01*
X142023809Y-51857142D01*
X141976190Y-51761904D01*
X141976190Y-51476190D01*
X142023809Y-51380952D01*
X142071428Y-51333333D01*
X142166666Y-51285714D01*
X142309523Y-51285714D01*
X142404761Y-51333333D01*
X142452380Y-51380952D01*
X142500000Y-51476190D01*
X142500000Y-51761904D01*
X142452380Y-51857142D01*
X142404761Y-51904761D01*
X142309523Y-51952380D01*
X142166666Y-51952380D01*
X142928571Y-51285714D02*
X142928571Y-51952380D01*
X142928571Y-51380952D02*
X142976190Y-51333333D01*
X143071428Y-51285714D01*
X143214285Y-51285714D01*
X143309523Y-51333333D01*
X143357142Y-51428571D01*
X143357142Y-51952380D01*
X143833333Y-51285714D02*
X143833333Y-51952380D01*
X143833333Y-51380952D02*
X143880952Y-51333333D01*
X143976190Y-51285714D01*
X144119047Y-51285714D01*
X144214285Y-51333333D01*
X144261904Y-51428571D01*
X144261904Y-51952380D01*
X144738095Y-51857142D02*
X144785714Y-51904761D01*
X144738095Y-51952380D01*
X144690476Y-51904761D01*
X144738095Y-51857142D01*
X144738095Y-51952380D01*
X115190476Y-93452380D02*
X115523809Y-94452380D01*
X115857142Y-93452380D01*
X116095238Y-93452380D02*
X116714285Y-93452380D01*
X116380952Y-93833333D01*
X116523809Y-93833333D01*
X116619047Y-93880952D01*
X116666666Y-93928571D01*
X116714285Y-94023809D01*
X116714285Y-94261904D01*
X116666666Y-94357142D01*
X116619047Y-94404761D01*
X116523809Y-94452380D01*
X116238095Y-94452380D01*
X116142857Y-94404761D01*
X116095238Y-94357142D01*
X140761904Y-68952380D02*
X140761904Y-67952380D01*
X141095238Y-68666666D01*
X141428571Y-67952380D01*
X141428571Y-68952380D01*
X142476190Y-68857142D02*
X142428571Y-68904761D01*
X142285714Y-68952380D01*
X142190476Y-68952380D01*
X142047619Y-68904761D01*
X141952380Y-68809523D01*
X141904761Y-68714285D01*
X141857142Y-68523809D01*
X141857142Y-68380952D01*
X141904761Y-68190476D01*
X141952380Y-68095238D01*
X142047619Y-68000000D01*
X142190476Y-67952380D01*
X142285714Y-67952380D01*
X142428571Y-68000000D01*
X142476190Y-68047619D01*
X142904761Y-68952380D02*
X142904761Y-67952380D01*
X143285714Y-67952380D01*
X143380952Y-68000000D01*
X143428571Y-68047619D01*
X143476190Y-68142857D01*
X143476190Y-68285714D01*
X143428571Y-68380952D01*
X143380952Y-68428571D01*
X143285714Y-68476190D01*
X142904761Y-68476190D01*
X144333333Y-68285714D02*
X144333333Y-68952380D01*
X144095238Y-67904761D02*
X143857142Y-68619047D01*
X144476190Y-68619047D01*
X144809523Y-68047619D02*
X144857142Y-68000000D01*
X144952380Y-67952380D01*
X145190476Y-67952380D01*
X145285714Y-68000000D01*
X145333333Y-68047619D01*
X145380952Y-68142857D01*
X145380952Y-68238095D01*
X145333333Y-68380952D01*
X144761904Y-68952380D01*
X145380952Y-68952380D01*
X146285714Y-67952380D02*
X145809523Y-67952380D01*
X145761904Y-68428571D01*
X145809523Y-68380952D01*
X145904761Y-68333333D01*
X146142857Y-68333333D01*
X146238095Y-68380952D01*
X146285714Y-68428571D01*
X146333333Y-68523809D01*
X146333333Y-68761904D01*
X146285714Y-68857142D01*
X146238095Y-68904761D01*
X146142857Y-68952380D01*
X145904761Y-68952380D01*
X145809523Y-68904761D01*
X145761904Y-68857142D01*
X147285714Y-68952380D02*
X146714285Y-68952380D01*
X147000000Y-68952380D02*
X147000000Y-67952380D01*
X146904761Y-68095238D01*
X146809523Y-68190476D01*
X146714285Y-68238095D01*
X184976190Y-39857142D02*
X184928571Y-39904761D01*
X184785714Y-39952380D01*
X184690476Y-39952380D01*
X184547619Y-39904761D01*
X184452380Y-39809523D01*
X184404761Y-39714285D01*
X184357142Y-39523809D01*
X184357142Y-39380952D01*
X184404761Y-39190476D01*
X184452380Y-39095238D01*
X184547619Y-39000000D01*
X184690476Y-38952380D01*
X184785714Y-38952380D01*
X184928571Y-39000000D01*
X184976190Y-39047619D01*
X185547619Y-39952380D02*
X185452380Y-39904761D01*
X185404761Y-39857142D01*
X185357142Y-39761904D01*
X185357142Y-39476190D01*
X185404761Y-39380952D01*
X185452380Y-39333333D01*
X185547619Y-39285714D01*
X185690476Y-39285714D01*
X185785714Y-39333333D01*
X185833333Y-39380952D01*
X185880952Y-39476190D01*
X185880952Y-39761904D01*
X185833333Y-39857142D01*
X185785714Y-39904761D01*
X185690476Y-39952380D01*
X185547619Y-39952380D01*
X186309523Y-39285714D02*
X186309523Y-39952380D01*
X186309523Y-39380952D02*
X186357142Y-39333333D01*
X186452380Y-39285714D01*
X186595238Y-39285714D01*
X186690476Y-39333333D01*
X186738095Y-39428571D01*
X186738095Y-39952380D01*
X187071428Y-39285714D02*
X187452380Y-39285714D01*
X187214285Y-38952380D02*
X187214285Y-39809523D01*
X187261904Y-39904761D01*
X187357142Y-39952380D01*
X187452380Y-39952380D01*
X187785714Y-39952380D02*
X187785714Y-39285714D01*
X187785714Y-39476190D02*
X187833333Y-39380952D01*
X187880952Y-39333333D01*
X187976190Y-39285714D01*
X188071428Y-39285714D01*
X188547619Y-39952380D02*
X188452380Y-39904761D01*
X188404761Y-39857142D01*
X188357142Y-39761904D01*
X188357142Y-39476190D01*
X188404761Y-39380952D01*
X188452380Y-39333333D01*
X188547619Y-39285714D01*
X188690476Y-39285714D01*
X188785714Y-39333333D01*
X188833333Y-39380952D01*
X188880952Y-39476190D01*
X188880952Y-39761904D01*
X188833333Y-39857142D01*
X188785714Y-39904761D01*
X188690476Y-39952380D01*
X188547619Y-39952380D01*
X189452380Y-39952380D02*
X189357142Y-39904761D01*
X189309523Y-39809523D01*
X189309523Y-38952380D01*
X189976190Y-39952380D02*
X189880952Y-39904761D01*
X189833333Y-39809523D01*
X189833333Y-38952380D01*
X190738095Y-39904761D02*
X190642857Y-39952380D01*
X190452380Y-39952380D01*
X190357142Y-39904761D01*
X190309523Y-39809523D01*
X190309523Y-39428571D01*
X190357142Y-39333333D01*
X190452380Y-39285714D01*
X190642857Y-39285714D01*
X190738095Y-39333333D01*
X190785714Y-39428571D01*
X190785714Y-39523809D01*
X190309523Y-39619047D01*
X191214285Y-39952380D02*
X191214285Y-39285714D01*
X191214285Y-39476190D02*
X191261904Y-39380952D01*
X191309523Y-39333333D01*
X191404761Y-39285714D01*
X191500000Y-39285714D01*
X192547619Y-39904761D02*
X192690476Y-39952380D01*
X192928571Y-39952380D01*
X193023809Y-39904761D01*
X193071428Y-39857142D01*
X193119047Y-39761904D01*
X193119047Y-39666666D01*
X193071428Y-39571428D01*
X193023809Y-39523809D01*
X192928571Y-39476190D01*
X192738095Y-39428571D01*
X192642857Y-39380952D01*
X192595238Y-39333333D01*
X192547619Y-39238095D01*
X192547619Y-39142857D01*
X192595238Y-39047619D01*
X192642857Y-39000000D01*
X192738095Y-38952380D01*
X192976190Y-38952380D01*
X193119047Y-39000000D01*
X193452380Y-39285714D02*
X193690476Y-39952380D01*
X193928571Y-39285714D02*
X193690476Y-39952380D01*
X193595238Y-40190476D01*
X193547619Y-40238095D01*
X193452380Y-40285714D01*
X194309523Y-39285714D02*
X194309523Y-39952380D01*
X194309523Y-39380952D02*
X194357142Y-39333333D01*
X194452380Y-39285714D01*
X194595238Y-39285714D01*
X194690476Y-39333333D01*
X194738095Y-39428571D01*
X194738095Y-39952380D01*
X195642857Y-39904761D02*
X195547619Y-39952380D01*
X195357142Y-39952380D01*
X195261904Y-39904761D01*
X195214285Y-39857142D01*
X195166666Y-39761904D01*
X195166666Y-39476190D01*
X195214285Y-39380952D01*
X195261904Y-39333333D01*
X195357142Y-39285714D01*
X195547619Y-39285714D01*
X195642857Y-39333333D01*
X188619047Y-86571428D02*
X189380952Y-86571428D01*
%TO.C,P1*%
X177188904Y-62682380D02*
X177188904Y-61682380D01*
X177569857Y-61682380D01*
X177665095Y-61730000D01*
X177712714Y-61777619D01*
X177760333Y-61872857D01*
X177760333Y-62015714D01*
X177712714Y-62110952D01*
X177665095Y-62158571D01*
X177569857Y-62206190D01*
X177188904Y-62206190D01*
X178712714Y-62682380D02*
X178141285Y-62682380D01*
X178427000Y-62682380D02*
X178427000Y-61682380D01*
X178331761Y-61825238D01*
X178236523Y-61920476D01*
X178141285Y-61968095D01*
%TO.C,P2*%
X177188904Y-72842380D02*
X177188904Y-71842380D01*
X177569857Y-71842380D01*
X177665095Y-71890000D01*
X177712714Y-71937619D01*
X177760333Y-72032857D01*
X177760333Y-72175714D01*
X177712714Y-72270952D01*
X177665095Y-72318571D01*
X177569857Y-72366190D01*
X177188904Y-72366190D01*
X178141285Y-71937619D02*
X178188904Y-71890000D01*
X178284142Y-71842380D01*
X178522238Y-71842380D01*
X178617476Y-71890000D01*
X178665095Y-71937619D01*
X178712714Y-72032857D01*
X178712714Y-72128095D01*
X178665095Y-72270952D01*
X178093666Y-72842380D01*
X178712714Y-72842380D01*
%TO.C,S1*%
X171958095Y-86017261D02*
X172100952Y-86064880D01*
X172339047Y-86064880D01*
X172434285Y-86017261D01*
X172481904Y-85969642D01*
X172529523Y-85874404D01*
X172529523Y-85779166D01*
X172481904Y-85683928D01*
X172434285Y-85636309D01*
X172339047Y-85588690D01*
X172148571Y-85541071D01*
X172053333Y-85493452D01*
X172005714Y-85445833D01*
X171958095Y-85350595D01*
X171958095Y-85255357D01*
X172005714Y-85160119D01*
X172053333Y-85112500D01*
X172148571Y-85064880D01*
X172386666Y-85064880D01*
X172529523Y-85112500D01*
X173481904Y-86064880D02*
X172910476Y-86064880D01*
X173196190Y-86064880D02*
X173196190Y-85064880D01*
X173100952Y-85207738D01*
X173005714Y-85302976D01*
X172910476Y-85350595D01*
%TO.C,H4*%
X110998095Y-90932380D02*
X110998095Y-89932380D01*
X110998095Y-90408571D02*
X111569523Y-90408571D01*
X111569523Y-90932380D02*
X111569523Y-89932380D01*
X112474285Y-90265714D02*
X112474285Y-90932380D01*
X112236190Y-89884761D02*
X111998095Y-90599047D01*
X112617142Y-90599047D01*
%TO.C,U1*%
X154182380Y-69341904D02*
X154991904Y-69341904D01*
X155087142Y-69294285D01*
X155134761Y-69246666D01*
X155182380Y-69151428D01*
X155182380Y-68960952D01*
X155134761Y-68865714D01*
X155087142Y-68818095D01*
X154991904Y-68770476D01*
X154182380Y-68770476D01*
X155182380Y-67770476D02*
X155182380Y-68341904D01*
X155182380Y-68056190D02*
X154182380Y-68056190D01*
X154325238Y-68151428D01*
X154420476Y-68246666D01*
X154468095Y-68341904D01*
%TO.C,JP1*%
X182046666Y-82002380D02*
X182046666Y-82716666D01*
X181999047Y-82859523D01*
X181903809Y-82954761D01*
X181760952Y-83002380D01*
X181665714Y-83002380D01*
X182522857Y-83002380D02*
X182522857Y-82002380D01*
X182903809Y-82002380D01*
X182999047Y-82050000D01*
X183046666Y-82097619D01*
X183094285Y-82192857D01*
X183094285Y-82335714D01*
X183046666Y-82430952D01*
X182999047Y-82478571D01*
X182903809Y-82526190D01*
X182522857Y-82526190D01*
X184046666Y-83002380D02*
X183475238Y-83002380D01*
X183760952Y-83002380D02*
X183760952Y-82002380D01*
X183665714Y-82145238D01*
X183570476Y-82240476D01*
X183475238Y-82288095D01*
%TO.C,JP2*%
X175666666Y-38152380D02*
X175666666Y-38866666D01*
X175619047Y-39009523D01*
X175523809Y-39104761D01*
X175380952Y-39152380D01*
X175285714Y-39152380D01*
X176142857Y-39152380D02*
X176142857Y-38152380D01*
X176523809Y-38152380D01*
X176619047Y-38200000D01*
X176666666Y-38247619D01*
X176714285Y-38342857D01*
X176714285Y-38485714D01*
X176666666Y-38580952D01*
X176619047Y-38628571D01*
X176523809Y-38676190D01*
X176142857Y-38676190D01*
X177095238Y-38247619D02*
X177142857Y-38200000D01*
X177238095Y-38152380D01*
X177476190Y-38152380D01*
X177571428Y-38200000D01*
X177619047Y-38247619D01*
X177666666Y-38342857D01*
X177666666Y-38438095D01*
X177619047Y-38580952D01*
X177047619Y-39152380D01*
X177666666Y-39152380D01*
%TO.C,H2*%
X197358095Y-24892380D02*
X197358095Y-23892380D01*
X197358095Y-24368571D02*
X197929523Y-24368571D01*
X197929523Y-24892380D02*
X197929523Y-23892380D01*
X198358095Y-23987619D02*
X198405714Y-23940000D01*
X198500952Y-23892380D01*
X198739047Y-23892380D01*
X198834285Y-23940000D01*
X198881904Y-23987619D01*
X198929523Y-24082857D01*
X198929523Y-24178095D01*
X198881904Y-24320952D01*
X198310476Y-24892380D01*
X198929523Y-24892380D01*
%TO.C,J7*%
X176166666Y-42847380D02*
X176166666Y-43561666D01*
X176119047Y-43704523D01*
X176023809Y-43799761D01*
X175880952Y-43847380D01*
X175785714Y-43847380D01*
X176547619Y-42847380D02*
X177214285Y-42847380D01*
X176785714Y-43847380D01*
%TO.C,R1*%
X173833333Y-32082380D02*
X173500000Y-31606190D01*
X173261904Y-32082380D02*
X173261904Y-31082380D01*
X173642857Y-31082380D01*
X173738095Y-31130000D01*
X173785714Y-31177619D01*
X173833333Y-31272857D01*
X173833333Y-31415714D01*
X173785714Y-31510952D01*
X173738095Y-31558571D01*
X173642857Y-31606190D01*
X173261904Y-31606190D01*
X174785714Y-32082380D02*
X174214285Y-32082380D01*
X174500000Y-32082380D02*
X174500000Y-31082380D01*
X174404761Y-31225238D01*
X174309523Y-31320476D01*
X174214285Y-31368095D01*
%TO.C,H3*%
X197358095Y-90932380D02*
X197358095Y-89932380D01*
X197358095Y-90408571D02*
X197929523Y-90408571D01*
X197929523Y-90932380D02*
X197929523Y-89932380D01*
X198310476Y-89932380D02*
X198929523Y-89932380D01*
X198596190Y-90313333D01*
X198739047Y-90313333D01*
X198834285Y-90360952D01*
X198881904Y-90408571D01*
X198929523Y-90503809D01*
X198929523Y-90741904D01*
X198881904Y-90837142D01*
X198834285Y-90884761D01*
X198739047Y-90932380D01*
X198453333Y-90932380D01*
X198358095Y-90884761D01*
X198310476Y-90837142D01*
%TO.C,H5*%
X110998095Y-45212380D02*
X110998095Y-44212380D01*
X110998095Y-44688571D02*
X111569523Y-44688571D01*
X111569523Y-45212380D02*
X111569523Y-44212380D01*
X112521904Y-44212380D02*
X112045714Y-44212380D01*
X111998095Y-44688571D01*
X112045714Y-44640952D01*
X112140952Y-44593333D01*
X112379047Y-44593333D01*
X112474285Y-44640952D01*
X112521904Y-44688571D01*
X112569523Y-44783809D01*
X112569523Y-45021904D01*
X112521904Y-45117142D01*
X112474285Y-45164761D01*
X112379047Y-45212380D01*
X112140952Y-45212380D01*
X112045714Y-45164761D01*
X111998095Y-45117142D01*
%TO.C,J3*%
X141906666Y-56492380D02*
X141906666Y-57206666D01*
X141859047Y-57349523D01*
X141763809Y-57444761D01*
X141620952Y-57492380D01*
X141525714Y-57492380D01*
X142287619Y-56492380D02*
X142906666Y-56492380D01*
X142573333Y-56873333D01*
X142716190Y-56873333D01*
X142811428Y-56920952D01*
X142859047Y-56968571D01*
X142906666Y-57063809D01*
X142906666Y-57301904D01*
X142859047Y-57397142D01*
X142811428Y-57444761D01*
X142716190Y-57492380D01*
X142430476Y-57492380D01*
X142335238Y-57444761D01*
X142287619Y-57397142D01*
%TO.C,J6*%
X188896666Y-81822380D02*
X188896666Y-82536666D01*
X188849047Y-82679523D01*
X188753809Y-82774761D01*
X188610952Y-82822380D01*
X188515714Y-82822380D01*
X189801428Y-81822380D02*
X189610952Y-81822380D01*
X189515714Y-81870000D01*
X189468095Y-81917619D01*
X189372857Y-82060476D01*
X189325238Y-82250952D01*
X189325238Y-82631904D01*
X189372857Y-82727142D01*
X189420476Y-82774761D01*
X189515714Y-82822380D01*
X189706190Y-82822380D01*
X189801428Y-82774761D01*
X189849047Y-82727142D01*
X189896666Y-82631904D01*
X189896666Y-82393809D01*
X189849047Y-82298571D01*
X189801428Y-82250952D01*
X189706190Y-82203333D01*
X189515714Y-82203333D01*
X189420476Y-82250952D01*
X189372857Y-82298571D01*
X189325238Y-82393809D01*
%TO.C,J4*%
X130666666Y-60632380D02*
X130666666Y-61346666D01*
X130619047Y-61489523D01*
X130523809Y-61584761D01*
X130380952Y-61632380D01*
X130285714Y-61632380D01*
X131571428Y-60965714D02*
X131571428Y-61632380D01*
X131333333Y-60584761D02*
X131095238Y-61299047D01*
X131714285Y-61299047D01*
%TO.C,J5*%
X157992380Y-52403333D02*
X158706666Y-52403333D01*
X158849523Y-52450952D01*
X158944761Y-52546190D01*
X158992380Y-52689047D01*
X158992380Y-52784285D01*
X157992380Y-51450952D02*
X157992380Y-51927142D01*
X158468571Y-51974761D01*
X158420952Y-51927142D01*
X158373333Y-51831904D01*
X158373333Y-51593809D01*
X158420952Y-51498571D01*
X158468571Y-51450952D01*
X158563809Y-51403333D01*
X158801904Y-51403333D01*
X158897142Y-51450952D01*
X158944761Y-51498571D01*
X158992380Y-51593809D01*
X158992380Y-51831904D01*
X158944761Y-51927142D01*
X158897142Y-51974761D01*
%TO.C,H1*%
X161798095Y-24892380D02*
X161798095Y-23892380D01*
X161798095Y-24368571D02*
X162369523Y-24368571D01*
X162369523Y-24892380D02*
X162369523Y-23892380D01*
X163369523Y-24892380D02*
X162798095Y-24892380D01*
X163083809Y-24892380D02*
X163083809Y-23892380D01*
X162988571Y-24035238D01*
X162893333Y-24130476D01*
X162798095Y-24178095D01*
%TO.C,D1*%
X179581904Y-31907380D02*
X179581904Y-30907380D01*
X179820000Y-30907380D01*
X179962857Y-30955000D01*
X180058095Y-31050238D01*
X180105714Y-31145476D01*
X180153333Y-31335952D01*
X180153333Y-31478809D01*
X180105714Y-31669285D01*
X180058095Y-31764523D01*
X179962857Y-31859761D01*
X179820000Y-31907380D01*
X179581904Y-31907380D01*
X181105714Y-31907380D02*
X180534285Y-31907380D01*
X180820000Y-31907380D02*
X180820000Y-30907380D01*
X180724761Y-31050238D01*
X180629523Y-31145476D01*
X180534285Y-31193095D01*
%TO.C,J1*%
X119992380Y-61293333D02*
X120706666Y-61293333D01*
X120849523Y-61340952D01*
X120944761Y-61436190D01*
X120992380Y-61579047D01*
X120992380Y-61674285D01*
X120992380Y-60293333D02*
X120992380Y-60864761D01*
X120992380Y-60579047D02*
X119992380Y-60579047D01*
X120135238Y-60674285D01*
X120230476Y-60769523D01*
X120278095Y-60864761D01*
%TO.C,J8*%
X188896666Y-82002380D02*
X188896666Y-82716666D01*
X188849047Y-82859523D01*
X188753809Y-82954761D01*
X188610952Y-83002380D01*
X188515714Y-83002380D01*
X189515714Y-82430952D02*
X189420476Y-82383333D01*
X189372857Y-82335714D01*
X189325238Y-82240476D01*
X189325238Y-82192857D01*
X189372857Y-82097619D01*
X189420476Y-82050000D01*
X189515714Y-82002380D01*
X189706190Y-82002380D01*
X189801428Y-82050000D01*
X189849047Y-82097619D01*
X189896666Y-82192857D01*
X189896666Y-82240476D01*
X189849047Y-82335714D01*
X189801428Y-82383333D01*
X189706190Y-82430952D01*
X189515714Y-82430952D01*
X189420476Y-82478571D01*
X189372857Y-82526190D01*
X189325238Y-82621428D01*
X189325238Y-82811904D01*
X189372857Y-82907142D01*
X189420476Y-82954761D01*
X189515714Y-83002380D01*
X189706190Y-83002380D01*
X189801428Y-82954761D01*
X189849047Y-82907142D01*
X189896666Y-82811904D01*
X189896666Y-82621428D01*
X189849047Y-82526190D01*
X189801428Y-82478571D01*
X189706190Y-82430952D01*
%TO.C,SW1*%
X188166666Y-34904761D02*
X188309523Y-34952380D01*
X188547619Y-34952380D01*
X188642857Y-34904761D01*
X188690476Y-34857142D01*
X188738095Y-34761904D01*
X188738095Y-34666666D01*
X188690476Y-34571428D01*
X188642857Y-34523809D01*
X188547619Y-34476190D01*
X188357142Y-34428571D01*
X188261904Y-34380952D01*
X188214285Y-34333333D01*
X188166666Y-34238095D01*
X188166666Y-34142857D01*
X188214285Y-34047619D01*
X188261904Y-34000000D01*
X188357142Y-33952380D01*
X188595238Y-33952380D01*
X188738095Y-34000000D01*
X189071428Y-33952380D02*
X189309523Y-34952380D01*
X189500000Y-34238095D01*
X189690476Y-34952380D01*
X189928571Y-33952380D01*
X190833333Y-34952380D02*
X190261904Y-34952380D01*
X190547619Y-34952380D02*
X190547619Y-33952380D01*
X190452380Y-34095238D01*
X190357142Y-34190476D01*
X190261904Y-34238095D01*
%TO.C,J2*%
X119992380Y-80343333D02*
X120706666Y-80343333D01*
X120849523Y-80390952D01*
X120944761Y-80486190D01*
X120992380Y-80629047D01*
X120992380Y-80724285D01*
X120087619Y-79914761D02*
X120040000Y-79867142D01*
X119992380Y-79771904D01*
X119992380Y-79533809D01*
X120040000Y-79438571D01*
X120087619Y-79390952D01*
X120182857Y-79343333D01*
X120278095Y-79343333D01*
X120420952Y-79390952D01*
X120992380Y-79962380D01*
X120992380Y-79343333D01*
%TO.C,P1*%
X193040000Y-60960000D02*
X157480000Y-60960000D01*
X195580000Y-58420000D02*
X193040000Y-58420000D01*
X157480000Y-58420000D02*
X193040000Y-58420000D01*
X157480000Y-60960000D02*
X157480000Y-58420000D01*
X193040000Y-60960000D02*
X195580000Y-60960000D01*
X195580000Y-60960000D02*
X195580000Y-58420000D01*
X193040000Y-58420000D02*
X193040000Y-60960000D01*
%TO.C,P2*%
X195580000Y-76200000D02*
X195580000Y-73660000D01*
X193040000Y-76200000D02*
X195580000Y-76200000D01*
X157480000Y-76200000D02*
X157480000Y-73660000D01*
X193040000Y-76200000D02*
X157480000Y-76200000D01*
X193040000Y-73660000D02*
X193040000Y-76200000D01*
X195580000Y-73660000D02*
X193040000Y-73660000D01*
X157480000Y-73660000D02*
X193040000Y-73660000D01*
D11*
%TO.C,S1*%
X163070000Y-96520000D02*
X163070000Y-86360000D01*
X182370000Y-86360000D02*
X182370000Y-96520000D01*
X182370000Y-96520000D02*
X163070000Y-96520000D01*
X163070000Y-86360000D02*
X182370000Y-86360000D01*
D12*
X167820000Y-83900000D02*
G75*
G03*
X167820000Y-83900000I-100000J0D01*
G01*
D13*
%TO.C,U1*%
X153730000Y-67580000D02*
X153730000Y-65930000D01*
X135830000Y-65930000D02*
X135830000Y-71230000D01*
X153730000Y-71230000D02*
X153730000Y-69580000D01*
X135830000Y-71230000D02*
X153730000Y-71230000D01*
X153730000Y-65930000D02*
X135830000Y-65930000D01*
X153730000Y-67580000D02*
G75*
G03*
X153730000Y-69580000I0J-1000000D01*
G01*
%TO.C,JP1*%
X181480000Y-81010000D02*
X181480000Y-79010000D01*
X184280000Y-79010000D02*
X184280000Y-81010000D01*
X181480000Y-79010000D02*
X184280000Y-79010000D01*
X184280000Y-81010000D02*
X181480000Y-81010000D01*
%TO.C,JP2*%
X177900000Y-39500000D02*
X177900000Y-41500000D01*
X177900000Y-41500000D02*
X175100000Y-41500000D01*
X175100000Y-41500000D02*
X175100000Y-39500000D01*
X175100000Y-39500000D02*
X177900000Y-39500000D01*
%TO.C,J7*%
X175170000Y-44395000D02*
X176500000Y-44395000D01*
X175170000Y-46995000D02*
X175170000Y-49595000D01*
X175170000Y-49595000D02*
X177830000Y-49595000D01*
X175170000Y-45725000D02*
X175170000Y-44395000D01*
X175170000Y-46995000D02*
X177830000Y-46995000D01*
X177830000Y-46995000D02*
X177830000Y-49595000D01*
%TO.C,R1*%
X170730000Y-35370000D02*
X177270000Y-35370000D01*
X170730000Y-32630000D02*
X170730000Y-35370000D01*
X177270000Y-35370000D02*
X177270000Y-32630000D01*
X178040000Y-34000000D02*
X177270000Y-34000000D01*
X177270000Y-32630000D02*
X170730000Y-32630000D01*
X169960000Y-34000000D02*
X170730000Y-34000000D01*
%TO.C,G\u002A\u002A\u002A*%
G36*
X136241031Y-80047221D02*
G01*
X136364347Y-80085427D01*
X136402068Y-80104890D01*
X136507603Y-80190202D01*
X136578354Y-80300152D01*
X136602925Y-80377533D01*
X136618040Y-80449004D01*
X136475500Y-80449004D01*
X136398334Y-80447949D01*
X136353483Y-80441653D01*
X136329283Y-80425423D01*
X136314071Y-80394563D01*
X136309699Y-80382276D01*
X136266580Y-80319278D01*
X136196480Y-80277658D01*
X136111965Y-80259545D01*
X136025597Y-80267065D01*
X135949943Y-80302344D01*
X135931587Y-80318283D01*
X135891969Y-80380461D01*
X135894715Y-80442728D01*
X135938283Y-80502629D01*
X136021128Y-80557711D01*
X136104517Y-80593111D01*
X136282573Y-80664244D01*
X136417200Y-80735058D01*
X136508181Y-80805426D01*
X136538233Y-80841897D01*
X136591847Y-80957588D01*
X136605828Y-81075679D01*
X136581967Y-81188282D01*
X136522055Y-81287510D01*
X136427883Y-81365475D01*
X136418093Y-81371013D01*
X136319502Y-81407781D01*
X136196247Y-81429068D01*
X136065256Y-81433691D01*
X135943459Y-81420470D01*
X135893709Y-81407595D01*
X135777746Y-81352836D01*
X135679424Y-81273969D01*
X135606156Y-81179451D01*
X135565357Y-81077742D01*
X135559444Y-81026277D01*
X135562529Y-80999429D01*
X135579066Y-80984577D01*
X135618985Y-80978207D01*
X135692215Y-80976800D01*
X135699156Y-80976797D01*
X135775264Y-80977756D01*
X135818406Y-80983763D01*
X135839597Y-80999510D01*
X135849852Y-81029689D01*
X135852408Y-81042083D01*
X135889083Y-81125981D01*
X135959712Y-81182122D01*
X136048303Y-81208036D01*
X136148753Y-81209971D01*
X136231089Y-81187033D01*
X136289725Y-81144538D01*
X136319079Y-81087800D01*
X136313566Y-81022135D01*
X136289556Y-80978410D01*
X136246197Y-80939722D01*
X136177401Y-80898396D01*
X136117729Y-80871356D01*
X135965923Y-80809541D01*
X135850178Y-80754883D01*
X135764064Y-80703194D01*
X135701147Y-80650282D01*
X135654997Y-80591960D01*
X135634807Y-80556789D01*
X135605847Y-80455686D01*
X135613819Y-80346798D01*
X135655898Y-80241145D01*
X135729256Y-80149744D01*
X135742117Y-80138499D01*
X135842104Y-80080368D01*
X135967115Y-80045343D01*
X136104356Y-80034077D01*
X136241031Y-80047221D01*
G37*
G36*
X135779671Y-82947894D02*
G01*
X135802068Y-82900653D01*
X135884348Y-82783411D01*
X135990963Y-82702092D01*
X136119430Y-82658397D01*
X136163521Y-82652739D01*
X136309963Y-82658931D01*
X136434051Y-82701851D01*
X136533336Y-82779003D01*
X136605368Y-82887894D01*
X136647697Y-83026031D01*
X136658528Y-83156704D01*
X136658528Y-83285888D01*
X136339654Y-83285888D01*
X136211201Y-83287327D01*
X136112191Y-83291433D01*
X136047273Y-83297892D01*
X136021096Y-83306387D01*
X136020779Y-83307532D01*
X136034317Y-83336291D01*
X136068098Y-83381611D01*
X136081256Y-83396855D01*
X136163274Y-83458389D01*
X136260721Y-83480905D01*
X136367192Y-83463564D01*
X136419161Y-83441078D01*
X136511725Y-83392831D01*
X136577904Y-83459010D01*
X136618100Y-83503044D01*
X136629416Y-83531791D01*
X136616340Y-83558617D01*
X136612821Y-83562977D01*
X136575565Y-83593512D01*
X136514246Y-83630512D01*
X136471602Y-83652030D01*
X136324692Y-83697886D01*
X136176419Y-83700008D01*
X136029573Y-83658447D01*
X135997341Y-83643247D01*
X135905785Y-83586136D01*
X135838654Y-83514795D01*
X135811969Y-83474539D01*
X135778014Y-83414088D01*
X135758128Y-83360430D01*
X135748654Y-83297726D01*
X135745941Y-83210135D01*
X135745888Y-83188064D01*
X135748541Y-83086737D01*
X135751869Y-83062360D01*
X136027299Y-83062360D01*
X136034231Y-83076973D01*
X136061353Y-83084597D01*
X136116640Y-83087504D01*
X136206224Y-83087966D01*
X136299575Y-83086662D01*
X136356849Y-83081805D01*
X136385900Y-83071972D01*
X136394581Y-83055745D01*
X136394632Y-83053886D01*
X136379338Y-82990958D01*
X136341533Y-82928906D01*
X136293328Y-82885389D01*
X136273280Y-82876982D01*
X136182710Y-82872855D01*
X136108783Y-82908832D01*
X136053584Y-82983516D01*
X136032583Y-83038485D01*
X136027299Y-83062360D01*
X135751869Y-83062360D01*
X135758702Y-83012308D01*
X135779671Y-82947894D01*
G37*
G36*
X140367609Y-85437056D02*
G01*
X140468263Y-85376147D01*
X140601096Y-85340548D01*
X140732424Y-85331205D01*
X140803623Y-85329879D01*
X140841399Y-85322958D01*
X140856299Y-85305763D01*
X140858875Y-85275104D01*
X140843248Y-85221763D01*
X140805025Y-85166629D01*
X140757196Y-85124855D01*
X140718362Y-85111169D01*
X140659689Y-85121240D01*
X140606812Y-85145841D01*
X140575747Y-85176552D01*
X140572987Y-85187594D01*
X140563992Y-85206201D01*
X140531434Y-85216621D01*
X140466957Y-85220781D01*
X140427659Y-85221126D01*
X140282332Y-85221126D01*
X140296484Y-85160649D01*
X140330288Y-85092843D01*
X140393163Y-85024598D01*
X140471964Y-84967820D01*
X140543421Y-84936968D01*
X140679654Y-84915031D01*
X140814782Y-84921535D01*
X140932312Y-84955589D01*
X140938075Y-84958310D01*
X140995632Y-84988783D01*
X141038945Y-85021287D01*
X141070332Y-85062494D01*
X141092112Y-85119080D01*
X141106600Y-85197719D01*
X141116114Y-85305085D01*
X141122973Y-85447854D01*
X141124766Y-85496017D01*
X141130177Y-85622214D01*
X141136633Y-85734895D01*
X141143539Y-85825908D01*
X141150302Y-85887105D01*
X141154844Y-85908355D01*
X141159288Y-85928945D01*
X141144692Y-85940561D01*
X141102718Y-85945694D01*
X141026162Y-85946840D01*
X140945235Y-85944699D01*
X140899954Y-85937037D01*
X140882137Y-85921997D01*
X140880866Y-85913853D01*
X140879952Y-85890976D01*
X140870454Y-85884156D01*
X140842233Y-85894519D01*
X140785153Y-85923192D01*
X140781905Y-85924849D01*
X140664938Y-85962284D01*
X140543317Y-85962408D01*
X140441477Y-85930312D01*
X140347183Y-85861192D01*
X140289064Y-85769026D01*
X140269806Y-85658563D01*
X140271313Y-85629330D01*
X140276844Y-85609484D01*
X140553183Y-85609484D01*
X140555479Y-85672193D01*
X140575097Y-85720058D01*
X140577385Y-85722528D01*
X140626168Y-85745003D01*
X140694891Y-85748394D01*
X140764577Y-85734105D01*
X140814892Y-85704935D01*
X140851646Y-85637080D01*
X140858875Y-85572987D01*
X140856098Y-85516489D01*
X140842016Y-85491371D01*
X140807999Y-85485112D01*
X140798253Y-85485022D01*
X140724082Y-85492418D01*
X140649986Y-85511273D01*
X140592070Y-85536587D01*
X140569372Y-85556092D01*
X140553183Y-85609484D01*
X140276844Y-85609484D01*
X140301253Y-85521907D01*
X140367609Y-85437056D01*
G37*
G36*
X137032381Y-80767879D02*
G01*
X137032768Y-80903296D01*
X137034436Y-81001774D01*
X137038145Y-81070350D01*
X137044658Y-81116066D01*
X137054734Y-81145959D01*
X137069136Y-81167071D01*
X137076364Y-81174719D01*
X137138534Y-81208900D01*
X137215178Y-81214019D01*
X137289544Y-81191993D01*
X137344883Y-81144736D01*
X137345421Y-81143937D01*
X137350895Y-81114688D01*
X137355618Y-81049434D01*
X137359245Y-80956154D01*
X137361430Y-80842825D01*
X137361914Y-80762381D01*
X137362251Y-80405022D01*
X137648139Y-80405022D01*
X137648139Y-81416624D01*
X137516191Y-81416624D01*
X137439574Y-81414090D01*
X137398439Y-81405110D01*
X137384503Y-81387611D01*
X137384243Y-81383636D01*
X137381452Y-81359327D01*
X137366794Y-81353815D01*
X137330837Y-81368093D01*
X137280030Y-81394632D01*
X137172995Y-81430377D01*
X137054853Y-81435422D01*
X136944597Y-81409475D01*
X136924289Y-81400096D01*
X136873884Y-81370029D01*
X136835528Y-81334098D01*
X136807622Y-81286218D01*
X136788570Y-81220304D01*
X136776773Y-81130272D01*
X136770635Y-81010037D01*
X136768557Y-80853516D01*
X136768485Y-80806707D01*
X136768485Y-80405022D01*
X137032381Y-80405022D01*
X137032381Y-80767879D01*
G37*
G36*
X139363463Y-84935238D02*
G01*
X139436856Y-84936663D01*
X139476502Y-84943404D01*
X139492607Y-84959158D01*
X139495411Y-84983054D01*
X139495411Y-85030870D01*
X139549020Y-84980507D01*
X139620447Y-84939139D01*
X139715460Y-84918341D01*
X139817621Y-84920446D01*
X139876553Y-84934015D01*
X139962179Y-84981852D01*
X140039411Y-85059550D01*
X140095706Y-85153184D01*
X140109847Y-85193035D01*
X140124050Y-85274057D01*
X140131247Y-85378762D01*
X140131491Y-85491102D01*
X140124840Y-85595028D01*
X140111349Y-85674492D01*
X140108132Y-85685160D01*
X140049106Y-85804440D01*
X139965743Y-85893594D01*
X139864679Y-85949624D01*
X139752551Y-85969534D01*
X139635995Y-85950325D01*
X139577553Y-85924806D01*
X139495411Y-85880780D01*
X139495411Y-86342684D01*
X139231515Y-86342684D01*
X139231515Y-85441039D01*
X139495411Y-85441039D01*
X139496038Y-85540935D01*
X139499374Y-85606750D01*
X139507608Y-85648384D01*
X139522926Y-85675734D01*
X139547515Y-85698701D01*
X139553355Y-85703339D01*
X139633011Y-85742695D01*
X139714078Y-85741993D01*
X139786544Y-85701512D01*
X139791533Y-85696701D01*
X139835579Y-85625664D01*
X139860608Y-85529050D01*
X139866621Y-85420943D01*
X139853616Y-85315424D01*
X139821595Y-85226577D01*
X139791533Y-85185378D01*
X139720155Y-85141812D01*
X139639399Y-85138004D01*
X139559274Y-85174232D01*
X139553355Y-85178739D01*
X139526778Y-85201987D01*
X139509883Y-85227757D01*
X139500483Y-85265947D01*
X139496392Y-85326457D01*
X139495423Y-85419184D01*
X139495411Y-85441039D01*
X139231515Y-85441039D01*
X139231515Y-84935238D01*
X139363463Y-84935238D01*
G37*
G36*
X132320290Y-82891249D02*
G01*
X132362483Y-82816788D01*
X132417940Y-82720066D01*
X132482168Y-82608923D01*
X132540649Y-82508375D01*
X132605154Y-82397381D01*
X132661230Y-82300072D01*
X132705395Y-82222560D01*
X132734165Y-82170957D01*
X132744069Y-82151443D01*
X132754995Y-82130140D01*
X132783552Y-82082523D01*
X132821039Y-82022869D01*
X132860478Y-81959831D01*
X132888237Y-81912820D01*
X132898009Y-81892811D01*
X132908602Y-81871681D01*
X132938076Y-81818725D01*
X132982974Y-81740004D01*
X133039838Y-81641578D01*
X133105210Y-81529510D01*
X133106927Y-81526580D01*
X133172446Y-81414360D01*
X133229551Y-81315753D01*
X133274787Y-81236791D01*
X133304700Y-81183502D01*
X133315836Y-81161919D01*
X133315844Y-81161833D01*
X133326769Y-81140530D01*
X133355327Y-81092912D01*
X133392814Y-81033258D01*
X133432248Y-80970262D01*
X133460006Y-80923339D01*
X133469784Y-80903433D01*
X133480430Y-80882661D01*
X133510407Y-80829094D01*
X133556771Y-80747862D01*
X133616581Y-80644095D01*
X133686892Y-80522923D01*
X133755671Y-80405022D01*
X133832789Y-80272923D01*
X133902026Y-80153910D01*
X133960446Y-80053064D01*
X134005110Y-79975469D01*
X134033082Y-79926206D01*
X134041559Y-79910309D01*
X134052169Y-79890519D01*
X134081926Y-79838177D01*
X134127723Y-79758670D01*
X134186450Y-79657381D01*
X134254999Y-79539697D01*
X134297165Y-79467534D01*
X134372535Y-79338473D01*
X134442302Y-79218611D01*
X134502753Y-79114359D01*
X134550171Y-79032131D01*
X134580844Y-78978339D01*
X134588550Y-78964463D01*
X134609816Y-78926562D01*
X134649509Y-78857117D01*
X134703910Y-78762583D01*
X134769298Y-78649418D01*
X134841956Y-78524076D01*
X134876765Y-78464160D01*
X135129201Y-78029957D01*
X137983042Y-78029957D01*
X138395340Y-78029964D01*
X138765884Y-78030010D01*
X139096903Y-78030127D01*
X139390627Y-78030351D01*
X139649284Y-78030717D01*
X139875104Y-78031257D01*
X140070315Y-78032007D01*
X140237146Y-78033001D01*
X140377827Y-78034273D01*
X140494587Y-78035858D01*
X140589654Y-78037790D01*
X140665258Y-78040104D01*
X140723627Y-78042833D01*
X140766991Y-78046012D01*
X140797578Y-78049676D01*
X140817619Y-78053859D01*
X140829340Y-78058595D01*
X140834973Y-78063918D01*
X140836745Y-78069863D01*
X140836883Y-78073940D01*
X140841920Y-78109996D01*
X140864075Y-78114048D01*
X140900856Y-78097002D01*
X140928568Y-78090716D01*
X140954609Y-78110328D01*
X140987916Y-78162928D01*
X140990997Y-78168474D01*
X141014711Y-78210466D01*
X141057310Y-78284944D01*
X141115596Y-78386357D01*
X141186373Y-78509152D01*
X141266443Y-78647778D01*
X141352608Y-78796684D01*
X141386181Y-78854632D01*
X141738463Y-79463025D01*
X142094606Y-80079168D01*
X142444224Y-80685088D01*
X142624968Y-80998788D01*
X142704870Y-81137219D01*
X142780257Y-81267227D01*
X142847517Y-81382629D01*
X142903037Y-81477241D01*
X142943203Y-81544879D01*
X142961966Y-81575589D01*
X142993507Y-81627150D01*
X143012003Y-81661026D01*
X143014026Y-81666735D01*
X143024616Y-81687676D01*
X143054083Y-81740459D01*
X143098970Y-81819036D01*
X143155821Y-81917356D01*
X143221180Y-82029372D01*
X143222944Y-82032381D01*
X143288435Y-82144452D01*
X143345520Y-82242744D01*
X143390751Y-82321270D01*
X143420678Y-82374040D01*
X143431852Y-82395065D01*
X143431862Y-82395140D01*
X143442388Y-82415241D01*
X143471461Y-82466695D01*
X143515322Y-82542951D01*
X143570210Y-82637456D01*
X143607792Y-82701764D01*
X143667633Y-82804459D01*
X143718742Y-82893184D01*
X143757351Y-82961314D01*
X143779692Y-83002228D01*
X143783723Y-83010996D01*
X143773182Y-83032010D01*
X143744070Y-83084289D01*
X143700155Y-83161211D01*
X143645204Y-83256152D01*
X143607792Y-83320228D01*
X143547992Y-83422697D01*
X143496908Y-83510946D01*
X143458301Y-83578420D01*
X143435930Y-83618568D01*
X143431862Y-83626851D01*
X143421285Y-83646862D01*
X143391855Y-83698792D01*
X143347021Y-83776653D01*
X143290232Y-83874455D01*
X143224937Y-83986209D01*
X143222944Y-83989611D01*
X143157424Y-84101831D01*
X143100320Y-84200438D01*
X143055084Y-84279400D01*
X143025170Y-84332688D01*
X143014034Y-84354272D01*
X143014026Y-84354358D01*
X143003101Y-84375661D01*
X142974544Y-84423278D01*
X142937056Y-84482932D01*
X142897617Y-84545970D01*
X142869859Y-84592982D01*
X142860087Y-84612990D01*
X142849494Y-84634120D01*
X142820019Y-84687076D01*
X142775122Y-84765797D01*
X142718258Y-84864223D01*
X142652886Y-84976291D01*
X142651169Y-84979221D01*
X142585677Y-85091299D01*
X142528590Y-85189607D01*
X142483359Y-85268154D01*
X142453433Y-85320950D01*
X142442261Y-85342002D01*
X142442251Y-85342078D01*
X142431674Y-85362120D01*
X142402243Y-85414080D01*
X142357407Y-85491965D01*
X142300616Y-85589784D01*
X142235319Y-85701547D01*
X142233333Y-85704935D01*
X142167801Y-85817223D01*
X142110688Y-85915972D01*
X142065449Y-85995132D01*
X142035542Y-86048655D01*
X142024423Y-86070492D01*
X142024416Y-86070581D01*
X142013718Y-86093010D01*
X141986761Y-86138805D01*
X141972462Y-86161727D01*
X141945213Y-86206557D01*
X141900625Y-86282001D01*
X141843135Y-86380458D01*
X141777183Y-86494328D01*
X141707204Y-86616011D01*
X141706307Y-86617576D01*
X141634479Y-86742768D01*
X141564986Y-86863578D01*
X141502760Y-86971457D01*
X141452732Y-87057854D01*
X141420915Y-87112381D01*
X141387584Y-87169396D01*
X141337062Y-87256306D01*
X141274114Y-87364893D01*
X141203501Y-87486939D01*
X141129989Y-87614226D01*
X141124535Y-87623680D01*
X140899345Y-88014026D01*
X135141677Y-88014026D01*
X135089621Y-87931559D01*
X135057709Y-87879180D01*
X135010768Y-87799865D01*
X134955451Y-87704940D01*
X134905525Y-87618182D01*
X134814780Y-87459721D01*
X134706889Y-87271701D01*
X134586748Y-87062623D01*
X134459250Y-86840991D01*
X134329293Y-86615305D01*
X134201771Y-86394068D01*
X134081579Y-86185781D01*
X133973612Y-85998948D01*
X133898884Y-85869870D01*
X133841579Y-85770739D01*
X133786513Y-85675037D01*
X133740902Y-85595324D01*
X133717142Y-85553417D01*
X133686672Y-85500031D01*
X133639449Y-85418256D01*
X133581002Y-85317623D01*
X133516858Y-85207665D01*
X133489351Y-85160655D01*
X133429981Y-85058884D01*
X133379357Y-84971324D01*
X133341267Y-84904587D01*
X133319499Y-84865289D01*
X133315844Y-84857670D01*
X133305431Y-84837025D01*
X133277608Y-84787637D01*
X133237503Y-84718532D01*
X133218280Y-84685884D01*
X133170300Y-84604251D01*
X133108248Y-84497984D01*
X133037393Y-84376174D01*
X132963001Y-84247916D01*
X132890341Y-84122300D01*
X132824679Y-84008419D01*
X132771283Y-83915367D01*
X132738473Y-83857662D01*
X132711584Y-83810565D01*
X132667981Y-83734899D01*
X132613111Y-83640086D01*
X132552420Y-83535551D01*
X132535112Y-83505801D01*
X132471748Y-83396597D01*
X132410778Y-83290921D01*
X132358344Y-83199460D01*
X132320592Y-83132901D01*
X132314796Y-83122535D01*
X132254475Y-83014161D01*
X132256142Y-83010996D01*
X132480173Y-83010996D01*
X132490577Y-83035149D01*
X132518939Y-83089345D01*
X132560991Y-83165679D01*
X132612460Y-83256243D01*
X132615128Y-83260869D01*
X132672065Y-83359703D01*
X132725152Y-83452094D01*
X132768171Y-83527209D01*
X132793531Y-83571775D01*
X132842072Y-83657154D01*
X132902531Y-83762562D01*
X132970710Y-83880782D01*
X133042414Y-84004597D01*
X133113447Y-84126789D01*
X133179612Y-84240140D01*
X133236714Y-84337433D01*
X133280555Y-84411452D01*
X133306941Y-84454977D01*
X133307874Y-84456455D01*
X133339358Y-84508029D01*
X133357814Y-84541905D01*
X133359827Y-84547601D01*
X133370417Y-84568542D01*
X133399884Y-84621325D01*
X133444771Y-84699902D01*
X133501622Y-84798222D01*
X133566981Y-84910238D01*
X133568745Y-84913247D01*
X133634234Y-85025307D01*
X133691318Y-85123579D01*
X133736548Y-85202075D01*
X133766476Y-85254810D01*
X133777653Y-85275797D01*
X133777662Y-85275872D01*
X133788297Y-85295712D01*
X133818241Y-85348405D01*
X133864558Y-85428866D01*
X133924309Y-85532007D01*
X133994558Y-85652741D01*
X134063550Y-85770909D01*
X134140671Y-85903021D01*
X134209910Y-86022062D01*
X134268330Y-86122946D01*
X134312994Y-86200588D01*
X134340964Y-86249903D01*
X134349437Y-86265848D01*
X134359971Y-86285858D01*
X134389082Y-86337277D01*
X134433039Y-86413610D01*
X134488110Y-86508362D01*
X134528053Y-86576676D01*
X134616432Y-86727752D01*
X134709567Y-86887514D01*
X134811435Y-87062807D01*
X134926015Y-87260481D01*
X135057284Y-87487381D01*
X135101108Y-87563204D01*
X135144051Y-87639086D01*
X135183847Y-87711964D01*
X135200943Y-87744632D01*
X135237237Y-87816104D01*
X138012376Y-87816104D01*
X138435150Y-87816022D01*
X138815861Y-87815763D01*
X139156429Y-87815309D01*
X139458772Y-87814641D01*
X139724811Y-87813739D01*
X139956465Y-87812585D01*
X140155653Y-87811161D01*
X140324294Y-87809446D01*
X140464309Y-87807423D01*
X140577617Y-87805072D01*
X140666136Y-87802375D01*
X140731787Y-87799313D01*
X140776489Y-87795867D01*
X140802161Y-87792018D01*
X140810305Y-87788615D01*
X140831933Y-87756796D01*
X140867682Y-87698575D01*
X140910212Y-87625940D01*
X140914648Y-87618182D01*
X140954068Y-87549102D01*
X140988676Y-87488509D01*
X141021805Y-87430599D01*
X141056787Y-87369567D01*
X141096956Y-87299608D01*
X141145645Y-87214918D01*
X141206186Y-87109691D01*
X141281912Y-86978125D01*
X141376157Y-86814413D01*
X141379160Y-86809196D01*
X141461309Y-86666401D01*
X141538961Y-86531234D01*
X141608589Y-86409850D01*
X141666666Y-86308402D01*
X141709665Y-86233046D01*
X141733370Y-86191166D01*
X141763733Y-86137784D01*
X141810864Y-86056015D01*
X141869243Y-85955389D01*
X141933348Y-85845437D01*
X141960866Y-85798404D01*
X142020227Y-85696686D01*
X142070845Y-85609235D01*
X142108934Y-85542651D01*
X142130710Y-85503530D01*
X142134372Y-85496017D01*
X142144895Y-85475944D01*
X142173937Y-85424562D01*
X142217714Y-85348469D01*
X142272441Y-85254263D01*
X142307879Y-85193631D01*
X142372768Y-85082596D01*
X142434298Y-84976855D01*
X142486941Y-84885939D01*
X142525170Y-84819379D01*
X142535660Y-84800869D01*
X142566274Y-84746964D01*
X142613331Y-84664768D01*
X142671225Y-84564048D01*
X142734348Y-84454569D01*
X142757498Y-84414501D01*
X142819724Y-84306824D01*
X142877440Y-84206862D01*
X142925502Y-84123531D01*
X142958766Y-84065745D01*
X142966854Y-84051644D01*
X142999275Y-83995257D01*
X143044087Y-83917647D01*
X143091557Y-83835671D01*
X143149178Y-83735913D01*
X143219510Y-83613525D01*
X143295819Y-83480284D01*
X143371374Y-83347964D01*
X143439442Y-83228341D01*
X143493290Y-83133192D01*
X143499965Y-83121329D01*
X143561566Y-83011749D01*
X143500516Y-82901416D01*
X143469746Y-82846622D01*
X143421787Y-82762210D01*
X143361467Y-82656634D01*
X143293617Y-82538350D01*
X143230225Y-82428225D01*
X143075223Y-82159471D01*
X142940219Y-81925485D01*
X142823278Y-81722916D01*
X142722463Y-81548411D01*
X142635837Y-81398615D01*
X142563495Y-81273680D01*
X142508049Y-81177859D01*
X142456613Y-81088717D01*
X142415634Y-81017444D01*
X142394673Y-80980737D01*
X142369011Y-80935836D01*
X142326449Y-80861782D01*
X142272120Y-80767489D01*
X142211155Y-80661870D01*
X142185733Y-80617880D01*
X142108754Y-80484659D01*
X142022082Y-80334556D01*
X141936191Y-80185721D01*
X141861561Y-80056302D01*
X141859750Y-80053160D01*
X141788202Y-79929112D01*
X141710472Y-79794500D01*
X141635930Y-79665544D01*
X141573948Y-79558465D01*
X141573884Y-79558355D01*
X141518151Y-79461994D01*
X141466161Y-79371774D01*
X141424479Y-79299110D01*
X141403072Y-79261472D01*
X141376179Y-79214375D01*
X141332573Y-79138708D01*
X141277700Y-79043895D01*
X141217008Y-78939360D01*
X141199701Y-78909611D01*
X141136452Y-78800611D01*
X141075708Y-78695338D01*
X141023570Y-78604407D01*
X140986142Y-78538433D01*
X140980345Y-78528065D01*
X140932099Y-78442548D01*
X140879917Y-78351734D01*
X140860902Y-78319147D01*
X140800818Y-78216883D01*
X138027283Y-78211301D01*
X135253747Y-78205719D01*
X135129075Y-78420219D01*
X135067724Y-78525721D01*
X135004135Y-78634987D01*
X134947657Y-78731954D01*
X134921007Y-78777662D01*
X134886401Y-78837160D01*
X134833998Y-78927488D01*
X134768002Y-79041392D01*
X134692613Y-79171616D01*
X134612035Y-79310906D01*
X134557973Y-79404416D01*
X134475833Y-79546528D01*
X134395720Y-79685132D01*
X134321936Y-79812787D01*
X134258781Y-79922051D01*
X134210556Y-80005484D01*
X134189354Y-80042165D01*
X134137448Y-80131521D01*
X134085059Y-80220994D01*
X134043078Y-80291983D01*
X134041237Y-80295065D01*
X134010850Y-80346585D01*
X133963131Y-80428279D01*
X133902682Y-80532200D01*
X133834103Y-80650398D01*
X133761996Y-80774924D01*
X133690962Y-80897829D01*
X133625602Y-81011164D01*
X133570518Y-81106980D01*
X133530309Y-81177329D01*
X133519335Y-81196710D01*
X133477430Y-81270362D01*
X133416678Y-81376102D01*
X133340471Y-81508070D01*
X133252199Y-81660407D01*
X133155253Y-81827254D01*
X133053026Y-82002750D01*
X133029325Y-82043377D01*
X132962725Y-82157654D01*
X132900775Y-82264230D01*
X132848199Y-82354961D01*
X132809719Y-82421700D01*
X132793452Y-82450217D01*
X132765233Y-82499842D01*
X132721217Y-82576716D01*
X132667618Y-82670008D01*
X132615128Y-82761123D01*
X132563309Y-82852176D01*
X132520701Y-82929384D01*
X132491574Y-82984840D01*
X132480199Y-83010635D01*
X132480173Y-83010996D01*
X132256142Y-83010996D01*
X132295852Y-82935609D01*
X132320290Y-82891249D01*
G37*
G36*
X138109957Y-85441039D02*
G01*
X138127481Y-85281018D01*
X138177990Y-85146223D01*
X138258388Y-85039691D01*
X138365581Y-84964462D01*
X138496474Y-84923573D01*
X138641290Y-84919424D01*
X138782961Y-84951114D01*
X138897768Y-85016841D01*
X138984110Y-85114637D01*
X139040383Y-85242535D01*
X139064987Y-85398566D01*
X139066001Y-85441039D01*
X139050382Y-85601957D01*
X139002634Y-85734405D01*
X138921419Y-85841317D01*
X138861011Y-85890995D01*
X138754663Y-85942039D01*
X138628808Y-85966139D01*
X138499650Y-85962027D01*
X138383393Y-85928434D01*
X138383293Y-85928388D01*
X138269167Y-85851837D01*
X138184062Y-85744437D01*
X138130262Y-85610262D01*
X138110627Y-85457831D01*
X138390420Y-85457831D01*
X138397157Y-85549084D01*
X138427146Y-85641568D01*
X138482586Y-85708144D01*
X138555289Y-85743804D01*
X138637064Y-85743539D01*
X138685039Y-85725156D01*
X138736901Y-85675141D01*
X138771401Y-85597204D01*
X138788816Y-85502158D01*
X138789426Y-85400813D01*
X138773509Y-85303982D01*
X138741342Y-85222477D01*
X138693203Y-85167108D01*
X138670368Y-85155012D01*
X138589040Y-85134974D01*
X138523465Y-85148065D01*
X138473322Y-85182641D01*
X138428131Y-85247491D01*
X138399736Y-85342881D01*
X138390420Y-85457831D01*
X138110627Y-85457831D01*
X138110055Y-85453388D01*
X138109957Y-85441039D01*
G37*
G36*
X135559300Y-84577438D02*
G01*
X135682615Y-84615643D01*
X135720337Y-84635107D01*
X135825871Y-84720418D01*
X135896622Y-84830369D01*
X135921193Y-84907749D01*
X135936309Y-84979221D01*
X135793769Y-84979221D01*
X135716603Y-84978165D01*
X135671752Y-84971870D01*
X135647552Y-84955639D01*
X135632339Y-84924779D01*
X135627968Y-84912493D01*
X135584848Y-84849494D01*
X135514749Y-84807875D01*
X135430233Y-84789762D01*
X135343866Y-84797281D01*
X135268211Y-84832560D01*
X135249856Y-84848499D01*
X135210237Y-84910677D01*
X135212984Y-84972944D01*
X135256552Y-85032845D01*
X135339396Y-85087927D01*
X135422785Y-85123327D01*
X135600841Y-85194461D01*
X135735468Y-85265274D01*
X135826449Y-85335643D01*
X135856501Y-85372113D01*
X135910115Y-85487805D01*
X135924096Y-85605896D01*
X135900235Y-85718499D01*
X135840323Y-85817726D01*
X135746152Y-85895691D01*
X135736361Y-85901229D01*
X135637770Y-85937998D01*
X135514515Y-85959284D01*
X135383524Y-85963907D01*
X135261727Y-85950687D01*
X135211977Y-85937811D01*
X135096015Y-85883053D01*
X134997692Y-85804185D01*
X134924424Y-85709667D01*
X134883625Y-85607958D01*
X134877713Y-85556494D01*
X134880797Y-85529645D01*
X134897335Y-85514794D01*
X134937254Y-85508423D01*
X135010484Y-85507017D01*
X135017424Y-85507013D01*
X135093532Y-85507973D01*
X135136674Y-85513980D01*
X135157865Y-85529726D01*
X135168121Y-85559906D01*
X135170677Y-85572300D01*
X135207351Y-85656197D01*
X135277980Y-85712339D01*
X135366572Y-85738252D01*
X135467022Y-85740187D01*
X135549357Y-85717250D01*
X135607994Y-85674754D01*
X135637347Y-85618017D01*
X135631834Y-85552352D01*
X135607824Y-85508627D01*
X135564465Y-85469939D01*
X135495669Y-85428612D01*
X135435997Y-85401573D01*
X135284191Y-85339757D01*
X135168447Y-85285100D01*
X135082332Y-85233410D01*
X135019416Y-85180499D01*
X134973265Y-85122176D01*
X134953076Y-85087005D01*
X134924115Y-84985903D01*
X134932087Y-84877015D01*
X134974166Y-84771361D01*
X135047524Y-84679961D01*
X135060385Y-84668716D01*
X135160372Y-84610584D01*
X135285384Y-84575560D01*
X135422624Y-84564294D01*
X135559300Y-84577438D01*
G37*
G36*
X134849740Y-82322226D02*
G01*
X134999183Y-82328667D01*
X135113981Y-82340764D01*
X135203388Y-82361449D01*
X135276655Y-82393657D01*
X135343037Y-82440322D01*
X135406040Y-82498601D01*
X135476932Y-82581439D01*
X135525333Y-82670276D01*
X135554593Y-82775359D01*
X135568061Y-82906932D01*
X135569957Y-83000000D01*
X135564154Y-83151760D01*
X135544514Y-83271051D01*
X135507687Y-83368120D01*
X135450323Y-83453213D01*
X135406040Y-83501399D01*
X135337815Y-83563970D01*
X135271225Y-83609382D01*
X135197017Y-83640571D01*
X135105937Y-83660469D01*
X134988733Y-83672011D01*
X134849740Y-83677774D01*
X134547359Y-83685949D01*
X134547359Y-83467972D01*
X134833247Y-83467972D01*
X134958403Y-83455054D01*
X135043060Y-83439609D01*
X135114549Y-83414797D01*
X135139832Y-83400198D01*
X135212287Y-83327120D01*
X135259898Y-83231038D01*
X135285891Y-83104514D01*
X135290416Y-83052618D01*
X135288535Y-82887298D01*
X135258802Y-82755554D01*
X135200219Y-82656131D01*
X135111791Y-82587775D01*
X134992521Y-82549230D01*
X134882727Y-82539140D01*
X134833247Y-82538182D01*
X134833247Y-83467972D01*
X134547359Y-83467972D01*
X134547359Y-82314051D01*
X134849740Y-82322226D01*
G37*
G36*
X139759307Y-82670130D02*
G01*
X139832700Y-82671555D01*
X139872346Y-82678295D01*
X139888451Y-82694050D01*
X139891256Y-82717946D01*
X139891256Y-82765762D01*
X139944865Y-82715399D01*
X140016291Y-82674031D01*
X140111304Y-82653233D01*
X140213465Y-82655338D01*
X140272397Y-82668907D01*
X140358023Y-82716744D01*
X140435255Y-82794442D01*
X140491550Y-82888076D01*
X140505691Y-82927927D01*
X140519894Y-83008949D01*
X140527091Y-83113654D01*
X140527335Y-83225993D01*
X140520684Y-83329919D01*
X140507194Y-83409384D01*
X140503976Y-83420052D01*
X140444950Y-83539332D01*
X140361587Y-83628486D01*
X140260523Y-83684516D01*
X140148395Y-83704426D01*
X140031839Y-83685217D01*
X139973397Y-83659698D01*
X139891256Y-83615672D01*
X139891256Y-84077576D01*
X139627359Y-84077576D01*
X139627359Y-83175931D01*
X139891256Y-83175931D01*
X139891882Y-83275827D01*
X139895219Y-83341642D01*
X139903452Y-83383276D01*
X139918770Y-83410626D01*
X139943359Y-83433593D01*
X139949200Y-83438231D01*
X140028855Y-83477587D01*
X140109922Y-83476884D01*
X140182388Y-83436404D01*
X140187377Y-83431592D01*
X140231423Y-83360555D01*
X140256452Y-83263942D01*
X140262465Y-83155835D01*
X140249461Y-83050316D01*
X140217439Y-82961469D01*
X140187377Y-82920269D01*
X140116000Y-82876704D01*
X140035243Y-82872896D01*
X139955119Y-82909124D01*
X139949200Y-82913631D01*
X139922622Y-82936879D01*
X139905727Y-82962649D01*
X139896328Y-83000839D01*
X139892236Y-83061348D01*
X139891267Y-83154076D01*
X139891256Y-83175931D01*
X139627359Y-83175931D01*
X139627359Y-82670130D01*
X139759307Y-82670130D01*
G37*
G36*
X140763453Y-83171948D02*
G01*
X140864107Y-83111038D01*
X140996940Y-83075440D01*
X141128269Y-83066097D01*
X141199468Y-83064771D01*
X141237243Y-83057850D01*
X141252143Y-83040655D01*
X141254719Y-83009996D01*
X141239092Y-82956655D01*
X141200869Y-82901521D01*
X141153040Y-82859747D01*
X141114206Y-82846061D01*
X141055533Y-82856132D01*
X141002656Y-82880733D01*
X140971591Y-82911444D01*
X140968831Y-82922486D01*
X140959836Y-82941093D01*
X140927278Y-82951513D01*
X140862801Y-82955673D01*
X140823504Y-82956017D01*
X140678176Y-82956017D01*
X140692328Y-82895541D01*
X140726132Y-82827735D01*
X140789007Y-82759489D01*
X140867808Y-82702711D01*
X140939266Y-82671860D01*
X141075498Y-82649923D01*
X141210626Y-82656427D01*
X141328156Y-82690480D01*
X141333919Y-82693201D01*
X141391476Y-82723675D01*
X141434789Y-82756178D01*
X141466177Y-82797386D01*
X141487956Y-82853971D01*
X141502444Y-82932610D01*
X141511958Y-83039977D01*
X141518817Y-83182746D01*
X141520611Y-83230909D01*
X141526021Y-83357106D01*
X141532477Y-83469786D01*
X141539383Y-83560800D01*
X141546146Y-83621997D01*
X141550688Y-83643247D01*
X141555132Y-83663837D01*
X141540536Y-83675452D01*
X141498562Y-83680586D01*
X141422007Y-83681732D01*
X141341079Y-83679591D01*
X141295798Y-83671929D01*
X141277981Y-83656889D01*
X141276710Y-83648745D01*
X141275797Y-83625868D01*
X141266298Y-83619048D01*
X141238077Y-83629411D01*
X141180997Y-83658084D01*
X141177749Y-83659740D01*
X141060782Y-83697175D01*
X140939161Y-83697299D01*
X140837322Y-83665204D01*
X140743027Y-83596084D01*
X140684908Y-83503917D01*
X140665650Y-83393454D01*
X140667157Y-83364221D01*
X140672688Y-83344376D01*
X140949027Y-83344376D01*
X140951323Y-83407085D01*
X140970941Y-83454950D01*
X140973230Y-83457420D01*
X141022012Y-83479895D01*
X141090735Y-83483286D01*
X141160421Y-83468997D01*
X141210736Y-83439827D01*
X141247490Y-83371972D01*
X141254719Y-83307879D01*
X141251942Y-83251380D01*
X141237860Y-83226262D01*
X141203844Y-83220004D01*
X141194097Y-83219914D01*
X141119926Y-83227310D01*
X141045831Y-83246165D01*
X140987914Y-83271478D01*
X140965216Y-83290984D01*
X140949027Y-83344376D01*
X140672688Y-83344376D01*
X140697097Y-83256799D01*
X140763453Y-83171948D01*
G37*
G36*
X136610431Y-84924512D02*
G01*
X136729944Y-84963199D01*
X136824557Y-85031327D01*
X136889171Y-85125423D01*
X136916555Y-85222155D01*
X136928216Y-85309091D01*
X136808441Y-85309091D01*
X136738485Y-85307308D01*
X136698070Y-85297258D01*
X136672773Y-85271885D01*
X136652237Y-85232699D01*
X136601671Y-85169002D01*
X136534133Y-85137824D01*
X136461545Y-85139309D01*
X136395827Y-85173601D01*
X136354052Y-85229109D01*
X136335711Y-85293930D01*
X136326222Y-85383138D01*
X136325372Y-85481809D01*
X136332945Y-85575016D01*
X136348729Y-85647834D01*
X136360423Y-85673169D01*
X136418331Y-85726476D01*
X136491633Y-85746911D01*
X136567158Y-85735051D01*
X136631740Y-85691471D01*
X136654506Y-85660302D01*
X136680475Y-85622169D01*
X136711863Y-85602761D01*
X136763507Y-85595852D01*
X136809847Y-85595118D01*
X136928179Y-85594978D01*
X136915655Y-85672157D01*
X136878024Y-85776325D01*
X136806600Y-85861757D01*
X136708910Y-85924793D01*
X136592478Y-85961774D01*
X136464831Y-85969040D01*
X136348749Y-85947814D01*
X136238490Y-85894202D01*
X136148576Y-85804611D01*
X136113341Y-85751296D01*
X136084816Y-85698283D01*
X136067132Y-85648826D01*
X136057763Y-85589773D01*
X136054185Y-85507971D01*
X136053766Y-85441039D01*
X136055030Y-85338965D01*
X136060523Y-85267649D01*
X136072799Y-85213896D01*
X136094411Y-85164515D01*
X136114048Y-85129576D01*
X136190921Y-85028919D01*
X136286302Y-84962701D01*
X136407889Y-84926377D01*
X136471117Y-84918738D01*
X136610431Y-84924512D01*
G37*
G36*
X137032381Y-85441039D02*
G01*
X137049905Y-85281018D01*
X137100414Y-85146223D01*
X137180812Y-85039691D01*
X137288006Y-84964462D01*
X137418899Y-84923573D01*
X137563714Y-84919424D01*
X137705385Y-84951114D01*
X137820193Y-85016841D01*
X137906534Y-85114637D01*
X137962808Y-85242535D01*
X137987411Y-85398566D01*
X137988426Y-85441039D01*
X137972807Y-85601957D01*
X137925058Y-85734405D01*
X137843844Y-85841317D01*
X137783435Y-85890995D01*
X137677087Y-85942039D01*
X137551232Y-85966139D01*
X137422074Y-85962027D01*
X137305817Y-85928434D01*
X137305717Y-85928388D01*
X137191591Y-85851837D01*
X137106486Y-85744437D01*
X137052687Y-85610262D01*
X137033051Y-85457831D01*
X137312844Y-85457831D01*
X137319582Y-85549084D01*
X137349570Y-85641568D01*
X137405011Y-85708144D01*
X137477713Y-85743804D01*
X137559488Y-85743539D01*
X137607463Y-85725156D01*
X137659325Y-85675141D01*
X137693825Y-85597204D01*
X137711241Y-85502158D01*
X137711850Y-85400813D01*
X137695933Y-85303982D01*
X137663766Y-85222477D01*
X137615628Y-85167108D01*
X137592792Y-85155012D01*
X137511464Y-85134974D01*
X137445889Y-85148065D01*
X137395746Y-85182641D01*
X137350555Y-85247491D01*
X137322160Y-85342881D01*
X137312844Y-85457831D01*
X137033051Y-85457831D01*
X137032479Y-85453388D01*
X137032381Y-85441039D01*
G37*
G36*
X138924433Y-80682786D02*
G01*
X138946829Y-80635545D01*
X139029110Y-80518303D01*
X139135725Y-80436983D01*
X139264192Y-80393289D01*
X139308283Y-80387631D01*
X139454724Y-80393823D01*
X139578813Y-80436742D01*
X139678098Y-80513895D01*
X139750130Y-80622786D01*
X139792459Y-80760922D01*
X139803290Y-80891596D01*
X139803290Y-81020779D01*
X139484416Y-81020779D01*
X139355963Y-81022218D01*
X139256952Y-81026325D01*
X139192035Y-81032784D01*
X139165858Y-81041279D01*
X139165541Y-81042424D01*
X139179079Y-81071183D01*
X139212860Y-81116503D01*
X139226017Y-81131747D01*
X139308036Y-81193281D01*
X139405483Y-81215796D01*
X139511954Y-81198455D01*
X139563923Y-81175969D01*
X139656487Y-81127722D01*
X139722666Y-81193901D01*
X139762862Y-81237936D01*
X139774178Y-81266683D01*
X139761102Y-81293509D01*
X139757583Y-81297869D01*
X139720327Y-81328404D01*
X139659008Y-81365404D01*
X139616364Y-81386921D01*
X139469454Y-81432778D01*
X139321181Y-81434900D01*
X139174334Y-81393339D01*
X139142102Y-81378139D01*
X139050547Y-81321028D01*
X138983416Y-81249687D01*
X138956730Y-81209430D01*
X138922776Y-81148979D01*
X138902889Y-81095322D01*
X138893416Y-81032618D01*
X138890703Y-80945027D01*
X138890649Y-80922956D01*
X138893303Y-80821629D01*
X138896631Y-80797252D01*
X139172061Y-80797252D01*
X139178993Y-80811865D01*
X139206115Y-80819489D01*
X139261402Y-80822395D01*
X139350986Y-80822857D01*
X139444337Y-80821554D01*
X139501611Y-80816696D01*
X139530662Y-80806864D01*
X139539343Y-80790637D01*
X139539394Y-80788778D01*
X139524100Y-80725850D01*
X139486294Y-80663798D01*
X139438090Y-80620281D01*
X139418042Y-80611874D01*
X139327472Y-80607747D01*
X139253545Y-80643724D01*
X139198346Y-80718408D01*
X139177345Y-80773377D01*
X139172061Y-80797252D01*
X138896631Y-80797252D01*
X138903464Y-80747200D01*
X138924433Y-80682786D01*
G37*
G36*
X140529004Y-80641331D02*
G01*
X140414948Y-80652290D01*
X140347478Y-80661268D01*
X140297752Y-80677400D01*
X140263080Y-80706749D01*
X140240771Y-80755380D01*
X140228137Y-80829355D01*
X140222486Y-80934737D01*
X140221129Y-81077590D01*
X140221126Y-81089190D01*
X140221126Y-81416624D01*
X139957230Y-81416624D01*
X139957230Y-80405022D01*
X140089178Y-80405022D01*
X140162699Y-80406530D01*
X140202420Y-80413410D01*
X140218487Y-80429193D01*
X140221126Y-80450959D01*
X140223380Y-80478303D01*
X140236458Y-80480432D01*
X140269828Y-80455805D01*
X140288787Y-80439964D01*
X140370006Y-80393327D01*
X140442726Y-80383030D01*
X140529004Y-80383030D01*
X140529004Y-80641331D01*
G37*
G36*
X138813680Y-83032987D02*
G01*
X138814067Y-83168405D01*
X138815734Y-83266882D01*
X138819444Y-83335459D01*
X138825956Y-83381174D01*
X138836033Y-83411068D01*
X138850435Y-83432179D01*
X138857662Y-83439827D01*
X138919833Y-83474008D01*
X138996476Y-83479128D01*
X139070842Y-83457101D01*
X139126182Y-83409844D01*
X139126720Y-83409046D01*
X139132194Y-83379796D01*
X139136917Y-83314542D01*
X139140543Y-83221262D01*
X139142729Y-83107933D01*
X139143213Y-83027489D01*
X139143550Y-82670130D01*
X139429437Y-82670130D01*
X139429437Y-83681732D01*
X139297489Y-83681732D01*
X139220873Y-83679198D01*
X139179738Y-83670218D01*
X139165801Y-83652719D01*
X139165541Y-83648745D01*
X139162751Y-83624436D01*
X139148093Y-83618923D01*
X139112136Y-83633201D01*
X139061328Y-83659740D01*
X138954293Y-83695485D01*
X138836151Y-83700530D01*
X138725896Y-83674584D01*
X138705588Y-83665204D01*
X138655183Y-83635138D01*
X138616826Y-83599207D01*
X138588921Y-83551326D01*
X138569869Y-83485412D01*
X138558072Y-83395380D01*
X138551934Y-83275146D01*
X138549856Y-83118624D01*
X138549784Y-83071815D01*
X138549784Y-82670130D01*
X138813680Y-82670130D01*
X138813680Y-83032987D01*
G37*
G36*
X137620649Y-82322226D02*
G01*
X137770093Y-82328667D01*
X137884891Y-82340764D01*
X137974297Y-82361449D01*
X138047564Y-82393657D01*
X138113946Y-82440322D01*
X138176949Y-82498601D01*
X138247841Y-82581439D01*
X138296242Y-82670276D01*
X138325502Y-82775359D01*
X138338970Y-82906932D01*
X138340866Y-83000000D01*
X138335064Y-83151760D01*
X138315424Y-83271051D01*
X138278596Y-83368120D01*
X138221232Y-83453213D01*
X138176949Y-83501399D01*
X138108724Y-83563970D01*
X138042134Y-83609382D01*
X137967926Y-83640571D01*
X137876847Y-83660469D01*
X137759642Y-83672011D01*
X137620649Y-83677774D01*
X137318269Y-83685949D01*
X137318269Y-83467972D01*
X137604156Y-83467972D01*
X137729312Y-83455054D01*
X137813969Y-83439609D01*
X137885458Y-83414797D01*
X137910741Y-83400198D01*
X137983196Y-83327120D01*
X138030808Y-83231038D01*
X138056800Y-83104514D01*
X138061325Y-83052618D01*
X138059444Y-82887298D01*
X138029711Y-82755554D01*
X137971128Y-82656131D01*
X137882700Y-82587775D01*
X137763430Y-82549230D01*
X137653636Y-82539140D01*
X137604156Y-82538182D01*
X137604156Y-83467972D01*
X137318269Y-83467972D01*
X137318269Y-82314051D01*
X137620649Y-82322226D01*
G37*
G36*
X137978009Y-80405022D02*
G01*
X138051402Y-80406447D01*
X138091048Y-80413187D01*
X138107153Y-80428942D01*
X138109957Y-80452838D01*
X138109957Y-80500654D01*
X138163566Y-80450291D01*
X138234992Y-80408923D01*
X138330005Y-80388124D01*
X138432166Y-80390229D01*
X138491098Y-80403798D01*
X138576725Y-80451636D01*
X138653956Y-80529334D01*
X138710251Y-80622968D01*
X138724392Y-80662819D01*
X138738596Y-80743841D01*
X138745792Y-80848546D01*
X138746037Y-80960885D01*
X138739386Y-81064811D01*
X138725895Y-81144275D01*
X138722677Y-81154944D01*
X138663651Y-81274223D01*
X138580288Y-81363377D01*
X138479224Y-81419408D01*
X138367096Y-81439318D01*
X138250540Y-81420109D01*
X138192099Y-81394589D01*
X138109957Y-81350564D01*
X138109957Y-81812468D01*
X137846061Y-81812468D01*
X137846061Y-80910823D01*
X138109957Y-80910823D01*
X138110583Y-81010719D01*
X138113920Y-81076534D01*
X138122154Y-81118167D01*
X138137472Y-81145518D01*
X138162060Y-81168484D01*
X138167901Y-81173123D01*
X138247557Y-81212478D01*
X138328623Y-81211776D01*
X138401089Y-81171295D01*
X138406078Y-81166484D01*
X138450124Y-81095447D01*
X138475154Y-80998834D01*
X138481166Y-80890726D01*
X138468162Y-80785208D01*
X138436141Y-80696361D01*
X138406078Y-80655161D01*
X138334701Y-80611596D01*
X138253945Y-80607788D01*
X138173820Y-80644016D01*
X138167901Y-80648523D01*
X138141324Y-80671771D01*
X138124429Y-80697540D01*
X138115029Y-80735731D01*
X138110938Y-80796240D01*
X138109969Y-80888968D01*
X138109957Y-80910823D01*
X137846061Y-80910823D01*
X137846061Y-80405022D01*
X137978009Y-80405022D01*
G37*
%TO.C,J3*%
X138580000Y-54640000D02*
X137090000Y-54640000D01*
X145900000Y-54640000D02*
X147390000Y-54640000D01*
X147390000Y-48840000D02*
X137090000Y-48840000D01*
X137090000Y-48840000D02*
X137090000Y-50580000D01*
X145900000Y-54640000D02*
X145900000Y-55840000D01*
X147390000Y-50580000D02*
X147390000Y-48840000D01*
X147390000Y-54640000D02*
X147390000Y-53300000D01*
X137090000Y-54640000D02*
X137090000Y-53300000D01*
%TO.C,J6*%
X188230000Y-83370000D02*
X190230000Y-83370000D01*
X184120000Y-96780000D02*
X184120000Y-93720000D01*
X191530000Y-83560000D02*
X194340000Y-83560000D01*
X184120000Y-89620000D02*
X184120000Y-83560000D01*
X184120000Y-83560000D02*
X186930000Y-83560000D01*
X194340000Y-83560000D02*
X194340000Y-89620000D01*
X194340000Y-93720000D02*
X194340000Y-96780000D01*
X194340000Y-96780000D02*
X184120000Y-96780000D01*
%TO.C,J4*%
X129670000Y-72460000D02*
X132330000Y-72460000D01*
X129670000Y-62180000D02*
X131000000Y-62180000D01*
X129670000Y-64780000D02*
X132330000Y-64780000D01*
X129670000Y-64780000D02*
X129670000Y-72460000D01*
X129670000Y-63510000D02*
X129670000Y-62180000D01*
X132330000Y-64780000D02*
X132330000Y-72460000D01*
%TO.C,J5*%
X157540000Y-50740000D02*
X157540000Y-52070000D01*
X156210000Y-50740000D02*
X157540000Y-50740000D01*
X154940000Y-50740000D02*
X152340000Y-50740000D01*
X154940000Y-50740000D02*
X154940000Y-53400000D01*
X154940000Y-53400000D02*
X152340000Y-53400000D01*
X152340000Y-50740000D02*
X152340000Y-53400000D01*
%TO.C,D1*%
X181880000Y-28285000D02*
X178760000Y-28285000D01*
X179050000Y-28285000D02*
X179050000Y-28415000D01*
X178360000Y-28285000D02*
X178360000Y-27165000D01*
X178760000Y-28285000D02*
X178760000Y-24425000D01*
X181590000Y-28285000D02*
X181590000Y-28415000D01*
X179050000Y-28415000D02*
X179050000Y-28285000D01*
X181590000Y-28415000D02*
X181590000Y-28285000D01*
X179050000Y-28285000D02*
X179050000Y-28285000D01*
X178360000Y-27165000D02*
X178760000Y-27165000D01*
X181590000Y-28415000D02*
X181590000Y-28415000D01*
X181590000Y-28285000D02*
X181590000Y-28285000D01*
X179050000Y-28415000D02*
X179050000Y-28415000D01*
X178760000Y-28285000D02*
X178360000Y-28285000D01*
X178760000Y-27165000D02*
X178760000Y-28285000D01*
X181880000Y-28285000D02*
X181880000Y-24425000D01*
X181880000Y-24425000D02*
G75*
G03*
X178760000Y-24425000I-1560000J0D01*
G01*
%TO.C,J1*%
X118140000Y-65110000D02*
X116800000Y-65110000D01*
X114080000Y-56810000D02*
X112340000Y-56810000D01*
X118140000Y-63620000D02*
X118140000Y-65110000D01*
X118140000Y-56810000D02*
X116800000Y-56810000D01*
X118140000Y-58300000D02*
X118140000Y-56810000D01*
X112340000Y-65110000D02*
X114080000Y-65110000D01*
X112340000Y-56810000D02*
X112340000Y-65110000D01*
X118140000Y-58300000D02*
X119340000Y-58300000D01*
%TO.C,J8*%
X189230000Y-78680000D02*
X191830000Y-78680000D01*
X189230000Y-81340000D02*
X189230000Y-78680000D01*
X189230000Y-81340000D02*
X191830000Y-81340000D01*
X191830000Y-81340000D02*
X191830000Y-78680000D01*
X187960000Y-81340000D02*
X186630000Y-81340000D01*
X186630000Y-81340000D02*
X186630000Y-80010000D01*
%TO.C,SW1*%
X186270000Y-37730000D02*
X192730000Y-37730000D01*
X192730000Y-31270000D02*
X192730000Y-31300000D01*
X192730000Y-33200000D02*
X192730000Y-35800000D01*
X192730000Y-37730000D02*
X192730000Y-37700000D01*
X186270000Y-37730000D02*
X186270000Y-37700000D01*
X186270000Y-33200000D02*
X186270000Y-35800000D01*
X186270000Y-31270000D02*
X192730000Y-31270000D01*
X186270000Y-31300000D02*
X186270000Y-31270000D01*
%TO.C,J2*%
X118140000Y-75860000D02*
X116800000Y-75860000D01*
X118140000Y-77350000D02*
X119340000Y-77350000D01*
X118140000Y-77350000D02*
X118140000Y-75860000D01*
X114080000Y-75860000D02*
X112340000Y-75860000D01*
X112340000Y-84160000D02*
X114080000Y-84160000D01*
X118140000Y-84160000D02*
X116800000Y-84160000D01*
X118140000Y-82670000D02*
X118140000Y-84160000D01*
X112340000Y-75860000D02*
X112340000Y-84160000D01*
%TD*%
D14*
%TO.C,P1*%
X194310000Y-59690000D03*
X191770000Y-59690000D03*
X189230000Y-59690000D03*
X186690000Y-59690000D03*
X184150000Y-59690000D03*
X181610000Y-59690000D03*
X179070000Y-59690000D03*
X176530000Y-59690000D03*
X173990000Y-59690000D03*
X171450000Y-59690000D03*
X168910000Y-59690000D03*
X166370000Y-59690000D03*
X163830000Y-59690000D03*
X161290000Y-59690000D03*
X158750000Y-59690000D03*
%TD*%
%TO.C,P2*%
X194310000Y-74930000D03*
X191770000Y-74930000D03*
X189230000Y-74930000D03*
X186690000Y-74930000D03*
X184150000Y-74930000D03*
X181610000Y-74930000D03*
X179070000Y-74930000D03*
X176530000Y-74930000D03*
X173990000Y-74930000D03*
X171450000Y-74930000D03*
X168910000Y-74930000D03*
X166370000Y-74930000D03*
X163830000Y-74930000D03*
X161290000Y-74930000D03*
X158750000Y-74930000D03*
%TD*%
M02*
