%TF.GenerationSoftware,KiCad,Pcbnew,(6.0.1)*%
%TF.CreationDate,2022-08-01T21:33:22+01:00*%
%TF.ProjectId,psp-bluetooth,7073702d-626c-4756-9574-6f6f74682e6b,rev?*%
%TF.SameCoordinates,Original*%
%TF.FileFunction,Soldermask,Top*%
%TF.FilePolarity,Negative*%
%FSLAX46Y46*%
G04 Gerber Fmt 4.6, Leading zero omitted, Abs format (unit mm)*
G04 Created by KiCad (PCBNEW (6.0.1)) date 2022-08-01 21:33:22*
%MOMM*%
%LPD*%
G01*
G04 APERTURE LIST*
%ADD10O,1.727200X2.032000*%
%ADD11R,2.475000X2.475000*%
%ADD12C,2.475000*%
%ADD13C,2.500000*%
%ADD14R,1.600000X1.600000*%
%ADD15O,1.600000X1.600000*%
%ADD16R,1.000000X1.500000*%
%ADD17R,1.700000X1.700000*%
%ADD18O,1.700000X1.700000*%
%ADD19C,1.600000*%
%ADD20R,0.300000X1.300000*%
%ADD21R,1.800000X2.200000*%
%ADD22R,4.000000X2.000000*%
%ADD23O,3.300000X2.000000*%
%ADD24O,2.000000X3.500000*%
%ADD25R,1.800000X1.800000*%
%ADD26C,1.800000*%
%ADD27R,1.300000X0.300000*%
%ADD28R,2.200000X1.800000*%
%ADD29R,1.550000X1.300000*%
G04 APERTURE END LIST*
D10*
%TO.C,P1*%
X194310000Y-59690000D03*
X191770000Y-59690000D03*
X189230000Y-59690000D03*
X186690000Y-59690000D03*
X184150000Y-59690000D03*
X181610000Y-59690000D03*
X179070000Y-59690000D03*
X176530000Y-59690000D03*
X173990000Y-59690000D03*
X171450000Y-59690000D03*
X168910000Y-59690000D03*
X166370000Y-59690000D03*
X163830000Y-59690000D03*
X161290000Y-59690000D03*
X158750000Y-59690000D03*
%TD*%
%TO.C,P2*%
X194310000Y-74930000D03*
X191770000Y-74930000D03*
X189230000Y-74930000D03*
X186690000Y-74930000D03*
X184150000Y-74930000D03*
X181610000Y-74930000D03*
X179070000Y-74930000D03*
X176530000Y-74930000D03*
X173990000Y-74930000D03*
X171450000Y-74930000D03*
X168910000Y-74930000D03*
X166370000Y-74930000D03*
X163830000Y-74930000D03*
X161290000Y-74930000D03*
X158750000Y-74930000D03*
%TD*%
D11*
%TO.C,S1*%
X167970000Y-88900000D03*
D12*
X172720000Y-88900000D03*
X177470000Y-88900000D03*
%TD*%
D13*
%TO.C,H4*%
X111760000Y-93980000D03*
%TD*%
D14*
%TO.C,U1*%
X152400000Y-64770000D03*
D15*
X149860000Y-64770000D03*
X147320000Y-64770000D03*
X144780000Y-64770000D03*
X142240000Y-64770000D03*
X139700000Y-64770000D03*
X137160000Y-64770000D03*
X137160000Y-72390000D03*
X139700000Y-72390000D03*
X142240000Y-72390000D03*
X144780000Y-72390000D03*
X147320000Y-72390000D03*
X149860000Y-72390000D03*
X152400000Y-72390000D03*
%TD*%
D16*
%TO.C,JP1*%
X182230000Y-80010000D03*
X183530000Y-80010000D03*
%TD*%
%TO.C,JP2*%
X175850000Y-40500000D03*
X177150000Y-40500000D03*
%TD*%
D13*
%TO.C,H2*%
X198120000Y-27940000D03*
%TD*%
D17*
%TO.C,J7*%
X176500000Y-45725000D03*
D18*
X176500000Y-48265000D03*
%TD*%
D19*
%TO.C,R1*%
X168920000Y-34000000D03*
D15*
X179080000Y-34000000D03*
%TD*%
D13*
%TO.C,H3*%
X198120000Y-93980000D03*
%TD*%
%TO.C,H5*%
X111760000Y-48260000D03*
%TD*%
D20*
%TO.C,J3*%
X145490000Y-55190000D03*
X144990000Y-55190000D03*
X144490000Y-55190000D03*
X143990000Y-55190000D03*
X143490000Y-55190000D03*
X142990000Y-55190000D03*
X142490000Y-55190000D03*
X141990000Y-55190000D03*
X141490000Y-55190000D03*
X140990000Y-55190000D03*
X140490000Y-55190000D03*
X139990000Y-55190000D03*
X139490000Y-55190000D03*
X138990000Y-55190000D03*
D21*
X147390000Y-51940000D03*
X137090000Y-51940000D03*
%TD*%
D19*
%TO.C,J6*%
X189230000Y-93670000D03*
D22*
X189230000Y-84670000D03*
D23*
X189230000Y-90670000D03*
D24*
X193730000Y-91670000D03*
X184730000Y-91670000D03*
%TD*%
D17*
%TO.C,J4*%
X131000000Y-63510000D03*
D18*
X131000000Y-66050000D03*
X131000000Y-68590000D03*
X131000000Y-71130000D03*
%TD*%
D17*
%TO.C,J5*%
X156210000Y-52070000D03*
D18*
X153670000Y-52070000D03*
%TD*%
D13*
%TO.C,H1*%
X162560000Y-27940000D03*
%TD*%
D25*
%TO.C,D1*%
X181590000Y-29495000D03*
D26*
X179050000Y-29495000D03*
%TD*%
D27*
%TO.C,J1*%
X118690000Y-58710000D03*
X118690000Y-59210000D03*
X118690000Y-59710000D03*
X118690000Y-60210000D03*
X118690000Y-60710000D03*
X118690000Y-61210000D03*
X118690000Y-61710000D03*
X118690000Y-62210000D03*
X118690000Y-62710000D03*
X118690000Y-63210000D03*
D28*
X115440000Y-56810000D03*
X115440000Y-65110000D03*
%TD*%
D17*
%TO.C,J8*%
X187960000Y-80010000D03*
D18*
X190500000Y-80010000D03*
%TD*%
D29*
%TO.C,SW1*%
X185525000Y-32250000D03*
X193475000Y-32250000D03*
X185525000Y-36750000D03*
X193475000Y-36750000D03*
%TD*%
D27*
%TO.C,J2*%
X118690000Y-77760000D03*
X118690000Y-78260000D03*
X118690000Y-78760000D03*
X118690000Y-79260000D03*
X118690000Y-79760000D03*
X118690000Y-80260000D03*
X118690000Y-80760000D03*
X118690000Y-81260000D03*
X118690000Y-81760000D03*
X118690000Y-82260000D03*
D28*
X115440000Y-84160000D03*
X115440000Y-75860000D03*
%TD*%
M02*
