%TF.GenerationSoftware,KiCad,Pcbnew,8.0.4*%
%TF.CreationDate,2024-09-17T22:13:18+01:00*%
%TF.ProjectId,buttonsSuper,62757474-6f6e-4735-9375-7065722e6b69,rev?*%
%TF.SameCoordinates,Original*%
%TF.FileFunction,Copper,L1,Top*%
%TF.FilePolarity,Positive*%
%FSLAX46Y46*%
G04 Gerber Fmt 4.6, Leading zero omitted, Abs format (unit mm)*
G04 Created by KiCad (PCBNEW 8.0.4) date 2024-09-17 22:13:18*
%MOMM*%
%LPD*%
G01*
G04 APERTURE LIST*
%TA.AperFunction,SMDPad,CuDef*%
%ADD10R,0.250000X2.000000*%
%TD*%
%TA.AperFunction,SMDPad,CuDef*%
%ADD11R,2.000000X0.250000*%
%TD*%
%TA.AperFunction,SMDPad,CuDef*%
%ADD12R,0.299975X0.700025*%
%TD*%
%TA.AperFunction,SMDPad,CuDef*%
%ADD13R,0.299975X1.000000*%
%TD*%
%TA.AperFunction,ViaPad*%
%ADD14C,0.800000*%
%TD*%
%TA.AperFunction,Conductor*%
%ADD15C,0.250000*%
%TD*%
G04 APERTURE END LIST*
D10*
%TO.P,C8,1,1*%
%TO.N,/start*%
X135000000Y-73450000D03*
%TO.P,C8,2,2*%
%TO.N,/select*%
X135500000Y-73450000D03*
%TO.P,C8,3,3*%
%TO.N,/music*%
X136000000Y-73450000D03*
%TO.P,C8,4,4*%
%TO.N,GND*%
X136500000Y-73450000D03*
%TO.P,C8,5,5*%
X137000000Y-73450000D03*
%TO.P,C8,6,6*%
X137500000Y-73450000D03*
%TO.P,C8,7,7*%
%TO.N,/screen*%
X138000000Y-73450000D03*
%TO.P,C8,8,8*%
%TO.N,/vol up*%
X138500000Y-73450000D03*
%TO.P,C8,9,9*%
%TO.N,/vol down*%
X139000000Y-73450000D03*
%TO.P,C8,10,10*%
%TO.N,/home*%
X139500000Y-73450000D03*
%TD*%
D11*
%TO.P,C9,1,1*%
%TO.N,/home*%
X241500000Y-76000000D03*
%TO.P,C9,2,2*%
%TO.N,/vol down*%
X241500000Y-76500000D03*
%TO.P,C9,3,3*%
%TO.N,/vol up*%
X241500000Y-77000000D03*
%TO.P,C9,4,4*%
%TO.N,/screen*%
X241500000Y-77500000D03*
%TO.P,C9,5,5*%
%TO.N,unconnected-(C9-Pad5)*%
X241500000Y-78000000D03*
%TO.P,C9,6,6*%
%TO.N,unconnected-(C9-Pad6)*%
X241500000Y-78500000D03*
%TO.P,C9,7,7*%
%TO.N,unconnected-(C9-Pad7)*%
X241500000Y-79000000D03*
%TO.P,C9,8,8*%
%TO.N,/music*%
X241500000Y-79500000D03*
%TO.P,C9,9,9*%
%TO.N,/select*%
X241500000Y-80000000D03*
%TO.P,C9,10,10*%
%TO.N,/start*%
X241500000Y-80500000D03*
%TD*%
D12*
%TO.P,P1,1,1*%
%TO.N,/start*%
X135800356Y-77500000D03*
%TO.P,P1,2,2*%
%TO.N,/select*%
X136300483Y-77500000D03*
%TO.P,P1,3,3*%
%TO.N,/music*%
X136800356Y-77500000D03*
%TO.P,P1,4,4*%
%TO.N,GND*%
X137300483Y-77500000D03*
%TO.P,P1,5,5*%
X137800356Y-77500000D03*
%TO.P,P1,6,6*%
X138300483Y-77500000D03*
%TO.P,P1,7,7*%
%TO.N,/screen*%
X138800356Y-77500000D03*
%TO.P,P1,8,8*%
%TO.N,/vol up*%
X139300483Y-77500000D03*
%TO.P,P1,9,9*%
%TO.N,/vol down*%
X139800356Y-77500000D03*
%TO.P,P1,10,10*%
%TO.N,/home*%
X140299975Y-77500000D03*
D13*
%TO.P,P1,11,11*%
%TO.N,unconnected-(P1-Pad11)*%
X135000000Y-80000128D03*
%TO.P,P1,12,12*%
%TO.N,unconnected-(P1-Pad12)*%
X141099822Y-80000128D03*
%TD*%
D14*
%TO.N,/start*%
X136000000Y-80000000D03*
X142500000Y-80000000D03*
%TO.N,/music*%
X138000000Y-79000000D03*
X145887500Y-79275000D03*
%TO.N,/select*%
X144000000Y-79500000D03*
X136525356Y-79000000D03*
%TD*%
D15*
%TO.N,GND*%
X137800356Y-76300356D02*
X137750000Y-76250000D01*
X137750000Y-76250000D02*
X138300483Y-76800483D01*
X136500000Y-75000000D02*
X137000000Y-75500000D01*
X138300483Y-76800483D02*
X138300483Y-77500000D01*
X137500000Y-76000000D02*
X137750000Y-76250000D01*
X137800356Y-77500000D02*
X137800356Y-76300356D01*
X137500000Y-73450000D02*
X137500000Y-76000000D01*
X137300483Y-77500000D02*
X137300483Y-75800483D01*
X137300483Y-75800483D02*
X137250000Y-75750000D01*
X137250000Y-75750000D02*
X137500000Y-76000000D01*
X136500000Y-73450000D02*
X136500000Y-75000000D01*
X137000000Y-73450000D02*
X137000000Y-75500000D01*
X137000000Y-75500000D02*
X137250000Y-75750000D01*
%TO.N,/start*%
X143000000Y-80500000D02*
X142500000Y-80000000D01*
X135800356Y-77500000D02*
X135800356Y-76209544D01*
X135800356Y-76209544D02*
X135000000Y-75409188D01*
X135000000Y-75409188D02*
X135000000Y-73450000D01*
X241500000Y-80500000D02*
X143000000Y-80500000D01*
X135800356Y-79800356D02*
X136000000Y-80000000D01*
X135800356Y-77500000D02*
X135800356Y-79800356D01*
%TO.N,/screen*%
X138000000Y-75863604D02*
X138800356Y-76663960D01*
X241500000Y-77500000D02*
X142722766Y-77500000D01*
X142722766Y-77500000D02*
X141147754Y-79075012D01*
X138800356Y-78423172D02*
X138800356Y-77500000D01*
X138000000Y-73450000D02*
X138000000Y-75863604D01*
X139452196Y-79075012D02*
X138800356Y-78423172D01*
X141147754Y-79075012D02*
X139452196Y-79075012D01*
X138800356Y-76663960D02*
X138800356Y-77500000D01*
%TO.N,/vol up*%
X142586370Y-77000000D02*
X140961358Y-78625012D01*
X139638592Y-78625012D02*
X139300483Y-78286903D01*
X140961358Y-78625012D02*
X139638592Y-78625012D01*
X138500000Y-73450000D02*
X138500000Y-75727208D01*
X139300483Y-78286903D02*
X139300483Y-77500000D01*
X139300483Y-76527691D02*
X139300483Y-77500000D01*
X241500000Y-77000000D02*
X142586370Y-77000000D01*
X138500000Y-75727208D02*
X139300483Y-76527691D01*
%TO.N,/music*%
X136800356Y-77500000D02*
X136800356Y-78149872D01*
X146112500Y-79500000D02*
X145887500Y-79275000D01*
X136000000Y-75136396D02*
X136800356Y-75936752D01*
X136000000Y-73450000D02*
X136000000Y-75136396D01*
X241500000Y-79500000D02*
X146112500Y-79500000D01*
X137650484Y-79000000D02*
X138000000Y-79000000D01*
X136800356Y-75936752D02*
X136800356Y-77500000D01*
X136800356Y-78149872D02*
X137650484Y-79000000D01*
%TO.N,/vol down*%
X139000000Y-73450000D02*
X139000000Y-75590812D01*
X139824988Y-78175012D02*
X140774962Y-78175012D01*
X139000000Y-75590812D02*
X139800356Y-76391168D01*
X142000000Y-76949974D02*
X142000000Y-76500000D01*
X140774962Y-78175012D02*
X142000000Y-76949974D01*
X139800356Y-77500000D02*
X139800356Y-78150380D01*
X139800356Y-76391168D02*
X139800356Y-77500000D01*
X139800356Y-78150380D02*
X139824988Y-78175012D01*
X142000000Y-76500000D02*
X241500000Y-76500000D01*
%TO.N,/home*%
X140299975Y-76254391D02*
X140299975Y-77500000D01*
X140045584Y-76000000D02*
X241500000Y-76000000D01*
X139500000Y-75454416D02*
X140022792Y-75977208D01*
X139500000Y-73450000D02*
X139500000Y-75454416D01*
X140022792Y-75977208D02*
X140045584Y-76000000D01*
X140022792Y-75977208D02*
X140299975Y-76254391D01*
%TO.N,/select*%
X136300483Y-77500000D02*
X136300483Y-76073275D01*
X136300483Y-78775127D02*
X136525356Y-79000000D01*
X136300483Y-77500000D02*
X136300483Y-78775127D01*
X136300483Y-76073275D02*
X135500000Y-75272792D01*
X169100000Y-80000000D02*
X169050000Y-79950000D01*
X241500000Y-80000000D02*
X144500000Y-80000000D01*
X144500000Y-80000000D02*
X144000000Y-79500000D01*
X135500000Y-75272792D02*
X135500000Y-73450000D01*
%TD*%
M02*
