%TF.GenerationSoftware,KiCad,Pcbnew,8.0.4*%
%TF.CreationDate,2024-09-23T09:04:20+01:00*%
%TF.ProjectId,right,72696768-742e-46b6-9963-61645f706362,rev?*%
%TF.SameCoordinates,Original*%
%TF.FileFunction,Copper,L2,Bot*%
%TF.FilePolarity,Positive*%
%FSLAX46Y46*%
G04 Gerber Fmt 4.6, Leading zero omitted, Abs format (unit mm)*
G04 Created by KiCad (PCBNEW 8.0.4) date 2024-09-23 09:04:20*
%MOMM*%
%LPD*%
G01*
G04 APERTURE LIST*
%TA.AperFunction,SMDPad,CuDef*%
%ADD10R,4.000000X0.250000*%
%TD*%
%TA.AperFunction,ViaPad*%
%ADD11C,0.800000*%
%TD*%
%TA.AperFunction,Conductor*%
%ADD12C,0.250000*%
%TD*%
G04 APERTURE END LIST*
D10*
%TO.P,C1,1,1*%
%TO.N,/Square*%
X99000000Y-123750000D03*
%TO.P,C1,2,2*%
%TO.N,/R1*%
X99000000Y-124250000D03*
%TO.P,C1,3,3*%
%TO.N,/Triangle*%
X99000000Y-124750000D03*
%TO.P,C1,4,4*%
%TO.N,/Circle*%
X99000000Y-125250000D03*
%TO.P,C1,5,5*%
%TO.N,/cross*%
X99000000Y-125750000D03*
%TO.P,C1,6,6*%
%TO.N,unconnected-(C1-Pad6)*%
X99000000Y-126250000D03*
%TO.P,C1,7,7*%
%TO.N,unconnected-(C1-Pad7)*%
X99000000Y-126750000D03*
%TO.P,C1,8,8*%
%TO.N,unconnected-(C1-Pad8)*%
X99000000Y-127250000D03*
%TO.P,C1,9,9*%
%TO.N,unconnected-(C1-Pad9)*%
X99000000Y-127750000D03*
%TO.P,C1,10,10*%
%TO.N,/keyPower*%
X99000000Y-128250000D03*
%TO.P,C1,11,11*%
%TO.N,unconnected-(C1-Pad11)*%
X99000000Y-128750000D03*
%TO.P,C1,12,12*%
%TO.N,unconnected-(C1-Pad12)*%
X99000000Y-129250000D03*
%TO.P,C1,13,13*%
%TO.N,unconnected-(C1-Pad13)*%
X99000000Y-129750000D03*
%TO.P,C1,14,14*%
%TO.N,unconnected-(C1-Pad14)*%
X99000000Y-130250000D03*
%TD*%
D11*
%TO.N,/gnd*%
X180225184Y-111249873D03*
X189000000Y-110250000D03*
X189250000Y-91000000D03*
X188225184Y-100749873D03*
X180250000Y-128249873D03*
%TO.N,/cross*%
X180000000Y-126500000D03*
%TO.N,/Circle*%
X186500000Y-119249873D03*
%TO.N,/Triangle*%
X184550038Y-117999873D03*
%TO.N,/R1*%
X183250000Y-117999873D03*
%TO.N,/Square*%
X175000000Y-121249873D03*
%TO.N,/keyPower*%
X178250000Y-129749873D03*
%TD*%
D12*
%TO.N,/gnd*%
X180525305Y-128249873D02*
X180250000Y-128249873D01*
%TO.N,/cross*%
X179249873Y-125749873D02*
X101500000Y-125749873D01*
X101499873Y-125750000D02*
X99000000Y-125750000D01*
X180000000Y-126500000D02*
X179249873Y-125749873D01*
X101500000Y-125749873D02*
X101499873Y-125750000D01*
%TO.N,/Circle*%
X101500000Y-125249873D02*
X101499873Y-125250000D01*
X180500000Y-125249873D02*
X186500000Y-119249873D01*
X101500000Y-125249873D02*
X180500000Y-125249873D01*
X101499873Y-125250000D02*
X99000000Y-125250000D01*
%TO.N,/Triangle*%
X101500000Y-124749873D02*
X101499873Y-124750000D01*
X101500000Y-124749873D02*
X180363604Y-124749873D01*
X101499873Y-124750000D02*
X99000000Y-124750000D01*
X184550038Y-120563439D02*
X184550038Y-117999873D01*
X180363604Y-124749873D02*
X184550038Y-120563439D01*
%TO.N,/R1*%
X183250000Y-121227081D02*
X183250000Y-117999873D01*
X101499873Y-124250000D02*
X99000000Y-124250000D01*
X101500000Y-124249873D02*
X101499873Y-124250000D01*
X180227208Y-124249873D02*
X183250000Y-121227081D01*
X101500000Y-124249873D02*
X180227208Y-124249873D01*
%TO.N,/Square*%
X101499873Y-123750000D02*
X99000000Y-123750000D01*
X172500000Y-123749873D02*
X175000000Y-121249873D01*
X101500000Y-123749873D02*
X101499873Y-123750000D01*
X101500000Y-123749873D02*
X172500000Y-123749873D01*
%TO.N,/keyPower*%
X101500000Y-128249873D02*
X101499873Y-128250000D01*
X178250000Y-129749873D02*
X176750000Y-128249873D01*
X176750000Y-128249873D02*
X101500000Y-128249873D01*
X101499873Y-128250000D02*
X99000000Y-128250000D01*
%TD*%
%TA.AperFunction,Conductor*%
%TO.N,/gnd*%
G36*
X189193039Y-81019685D02*
G01*
X189238794Y-81072489D01*
X189250000Y-81124000D01*
X189250000Y-82750000D01*
X191683637Y-82750000D01*
X191750676Y-82769685D01*
X191786811Y-82805217D01*
X192229174Y-83468761D01*
X192249982Y-83535460D01*
X192250000Y-83537544D01*
X192250000Y-85125873D01*
X192230315Y-85192912D01*
X192177511Y-85238667D01*
X192126000Y-85249873D01*
X191250000Y-85249873D01*
X191248760Y-85249918D01*
X191244256Y-85250000D01*
X190750000Y-85250000D01*
X190750000Y-85723343D01*
X190748738Y-85740988D01*
X190747457Y-85749898D01*
X190747457Y-85749899D01*
X190748738Y-85758809D01*
X190750000Y-85776456D01*
X190750000Y-86250000D01*
X192126000Y-86250000D01*
X192193039Y-86269685D01*
X192238794Y-86322489D01*
X192250000Y-86374000D01*
X192250000Y-91448637D01*
X192230315Y-91515676D01*
X192213681Y-91536318D01*
X191285259Y-92464739D01*
X191283261Y-92465829D01*
X191250000Y-92499873D01*
X191250000Y-94728801D01*
X191243038Y-94769764D01*
X189499999Y-99749873D01*
X189499997Y-99749994D01*
X190999999Y-104749998D01*
X190999999Y-104749999D01*
X192812726Y-107287817D01*
X193500000Y-108250000D01*
X197232633Y-108250000D01*
X197266698Y-108254771D01*
X197511455Y-108324701D01*
X198980001Y-108744286D01*
X199017037Y-108761926D01*
X201479209Y-110485446D01*
X201479329Y-110485530D01*
X201513371Y-110521394D01*
X202517760Y-112128415D01*
X202731152Y-112469843D01*
X202750000Y-112535563D01*
X202750000Y-120625873D01*
X202730315Y-120692912D01*
X202677511Y-120738667D01*
X202626000Y-120749873D01*
X200749999Y-120749873D01*
X200747813Y-120752150D01*
X200746044Y-120753955D01*
X194750000Y-126749999D01*
X194750000Y-131208666D01*
X194730315Y-131275705D01*
X194725200Y-131283066D01*
X192535880Y-134202158D01*
X192479909Y-134243979D01*
X192440221Y-134251707D01*
X183877541Y-134496355D01*
X183809967Y-134478594D01*
X183762723Y-134427118D01*
X183750000Y-134372406D01*
X183750000Y-133845872D01*
X184795526Y-133845872D01*
X185091305Y-133837421D01*
X184947641Y-133693757D01*
X184795526Y-133845872D01*
X183750000Y-133845872D01*
X183750000Y-133563123D01*
X184374000Y-133563123D01*
X184595503Y-133341620D01*
X185299780Y-133341620D01*
X185654748Y-133696588D01*
X186009716Y-133341620D01*
X186713994Y-133341620D01*
X187068962Y-133696588D01*
X187423930Y-133341620D01*
X188128207Y-133341620D01*
X188483174Y-133696587D01*
X188838142Y-133341620D01*
X189542421Y-133341620D01*
X189897388Y-133696587D01*
X190252356Y-133341619D01*
X190956634Y-133341619D01*
X191275738Y-133660723D01*
X191349576Y-133658613D01*
X191666569Y-133341620D01*
X192370848Y-133341620D01*
X192388239Y-133359011D01*
X192492588Y-133219879D01*
X192370848Y-133341620D01*
X191666569Y-133341620D01*
X191666570Y-133341619D01*
X191311602Y-132986651D01*
X190956634Y-133341619D01*
X190252356Y-133341619D01*
X189897389Y-132986652D01*
X189542421Y-133341620D01*
X188838142Y-133341620D01*
X188838143Y-133341619D01*
X188483175Y-132986651D01*
X188128207Y-133341620D01*
X187423930Y-133341620D01*
X187068962Y-132986652D01*
X186713994Y-133341620D01*
X186009716Y-133341620D01*
X185654748Y-132986652D01*
X185299780Y-133341620D01*
X184595503Y-133341620D01*
X184374000Y-133120117D01*
X184374000Y-133563123D01*
X183750000Y-133563123D01*
X183750000Y-132634513D01*
X184592673Y-132634513D01*
X184947641Y-132989481D01*
X185302610Y-132634513D01*
X186006887Y-132634513D01*
X186361855Y-132989481D01*
X186716823Y-132634513D01*
X187421101Y-132634513D01*
X187776069Y-132989481D01*
X188131037Y-132634513D01*
X188835314Y-132634513D01*
X189190282Y-132989481D01*
X189545250Y-132634513D01*
X190249528Y-132634513D01*
X190604496Y-132989481D01*
X190959464Y-132634513D01*
X191663741Y-132634513D01*
X192018709Y-132989481D01*
X192373677Y-132634513D01*
X192018709Y-132279545D01*
X191663741Y-132634513D01*
X190959464Y-132634513D01*
X190604496Y-132279545D01*
X190249528Y-132634513D01*
X189545250Y-132634513D01*
X189190282Y-132279545D01*
X188835314Y-132634513D01*
X188131037Y-132634513D01*
X187776069Y-132279545D01*
X187421101Y-132634513D01*
X186716823Y-132634513D01*
X186361855Y-132279545D01*
X186006887Y-132634513D01*
X185302610Y-132634513D01*
X184947641Y-132279544D01*
X184592673Y-132634513D01*
X183750000Y-132634513D01*
X183750000Y-132250000D01*
X182250000Y-132250000D01*
X182250000Y-132626000D01*
X182230315Y-132693039D01*
X182177511Y-132738794D01*
X182126000Y-132750000D01*
X176076700Y-132750000D01*
X176009661Y-132730315D01*
X175965791Y-132681454D01*
X175588767Y-131927406D01*
X176814499Y-131927406D01*
X177013093Y-132126000D01*
X177325841Y-132126000D01*
X177524435Y-131927406D01*
X177524434Y-131927405D01*
X178228712Y-131927405D01*
X178427307Y-132126000D01*
X178740055Y-132126000D01*
X178938649Y-131927406D01*
X179642926Y-131927406D01*
X179841520Y-132126000D01*
X180154268Y-132126000D01*
X180352862Y-131927406D01*
X181057140Y-131927406D01*
X181255734Y-132126000D01*
X181568482Y-132126000D01*
X181626000Y-132068482D01*
X181626000Y-132042893D01*
X181645685Y-131975854D01*
X181662318Y-131955212D01*
X181728599Y-131888929D01*
X181554922Y-131715252D01*
X184097721Y-131715252D01*
X184337681Y-131955212D01*
X184371166Y-132016535D01*
X184374000Y-132042893D01*
X184374000Y-132148909D01*
X184595503Y-131927406D01*
X185299780Y-131927406D01*
X185654748Y-132282374D01*
X186009716Y-131927406D01*
X186713994Y-131927406D01*
X187068962Y-132282374D01*
X187423930Y-131927406D01*
X188128207Y-131927406D01*
X188483175Y-132282374D01*
X188838143Y-131927406D01*
X189542421Y-131927406D01*
X189897389Y-132282374D01*
X190252357Y-131927406D01*
X190956634Y-131927406D01*
X191311602Y-132282374D01*
X191666571Y-131927406D01*
X192370848Y-131927406D01*
X192725816Y-132282374D01*
X193055446Y-131952743D01*
X193048974Y-131954898D01*
X193014822Y-131964927D01*
X193006242Y-131967117D01*
X192988792Y-131970913D01*
X192980081Y-131972485D01*
X192803257Y-131997908D01*
X192794456Y-131998854D01*
X192776644Y-132000128D01*
X192767798Y-132000444D01*
X192732202Y-132000444D01*
X192723356Y-132000128D01*
X192705544Y-131998854D01*
X192696743Y-131997908D01*
X192519919Y-131972485D01*
X192511208Y-131970913D01*
X192493758Y-131967117D01*
X192485178Y-131964927D01*
X192451026Y-131954898D01*
X192442635Y-131952105D01*
X192425903Y-131945865D01*
X192417720Y-131942476D01*
X192375197Y-131923056D01*
X192370848Y-131927406D01*
X191666571Y-131927406D01*
X191311602Y-131572437D01*
X190956634Y-131927406D01*
X190252357Y-131927406D01*
X189897389Y-131572438D01*
X189542421Y-131927406D01*
X188838143Y-131927406D01*
X188483175Y-131572437D01*
X188128207Y-131927406D01*
X187423930Y-131927406D01*
X187068962Y-131572438D01*
X186713994Y-131927406D01*
X186009716Y-131927406D01*
X185654748Y-131572438D01*
X185299780Y-131927406D01*
X184595503Y-131927406D01*
X184240535Y-131572438D01*
X184097721Y-131715252D01*
X181554922Y-131715252D01*
X181412108Y-131572438D01*
X181057140Y-131927406D01*
X180352862Y-131927406D01*
X179997894Y-131572438D01*
X179642926Y-131927406D01*
X178938649Y-131927406D01*
X178583680Y-131572437D01*
X178228712Y-131927405D01*
X177524434Y-131927405D01*
X177169467Y-131572438D01*
X176814499Y-131927406D01*
X175588767Y-131927406D01*
X175235213Y-131220299D01*
X176107392Y-131220299D01*
X176462360Y-131575267D01*
X176817328Y-131220299D01*
X176817327Y-131220298D01*
X177521605Y-131220298D01*
X177876574Y-131575267D01*
X178231542Y-131220299D01*
X178935819Y-131220299D01*
X179290787Y-131575267D01*
X179645755Y-131220299D01*
X180350033Y-131220299D01*
X180705001Y-131575267D01*
X181059969Y-131220299D01*
X181764246Y-131220299D01*
X182119214Y-131575267D01*
X182474181Y-131220299D01*
X183178460Y-131220299D01*
X183533428Y-131575267D01*
X183888396Y-131220299D01*
X184592673Y-131220299D01*
X184947641Y-131575267D01*
X185302610Y-131220299D01*
X186006887Y-131220299D01*
X186361855Y-131575267D01*
X186716823Y-131220299D01*
X187421101Y-131220299D01*
X187776069Y-131575267D01*
X188131037Y-131220299D01*
X188835314Y-131220299D01*
X189190282Y-131575267D01*
X189545250Y-131220299D01*
X190249528Y-131220299D01*
X190604496Y-131575267D01*
X190959464Y-131220299D01*
X191663741Y-131220299D01*
X191825775Y-131382333D01*
X191822826Y-131374425D01*
X191820032Y-131366029D01*
X191770327Y-131196752D01*
X191768376Y-131189245D01*
X191764918Y-131173999D01*
X191763441Y-131166399D01*
X191758459Y-131135643D01*
X191757459Y-131127951D01*
X191757336Y-131126703D01*
X191663741Y-131220299D01*
X190959464Y-131220299D01*
X190604496Y-130865331D01*
X190249528Y-131220299D01*
X189545250Y-131220299D01*
X189190282Y-130865331D01*
X188835314Y-131220299D01*
X188131037Y-131220299D01*
X187776069Y-130865331D01*
X187421101Y-131220299D01*
X186716823Y-131220299D01*
X186361855Y-130865331D01*
X186006887Y-131220299D01*
X185302610Y-131220299D01*
X184947641Y-130865330D01*
X184592673Y-131220299D01*
X183888396Y-131220299D01*
X183533428Y-130865331D01*
X183178460Y-131220299D01*
X182474181Y-131220299D01*
X182474182Y-131220298D01*
X182119214Y-130865330D01*
X181764246Y-131220299D01*
X181059969Y-131220299D01*
X180705001Y-130865331D01*
X180350033Y-131220299D01*
X179645755Y-131220299D01*
X179290787Y-130865331D01*
X178935819Y-131220299D01*
X178231542Y-131220299D01*
X178159616Y-131148373D01*
X178142306Y-131148373D01*
X178135812Y-131148203D01*
X178122732Y-131147517D01*
X178116260Y-131147007D01*
X178090314Y-131144279D01*
X178083885Y-131143433D01*
X178070959Y-131141386D01*
X178064573Y-131140202D01*
X177853899Y-131095422D01*
X177847588Y-131093907D01*
X177834943Y-131090519D01*
X177828724Y-131088677D01*
X177803910Y-131080616D01*
X177797779Y-131078445D01*
X177785552Y-131073751D01*
X177779558Y-131071268D01*
X177704192Y-131037712D01*
X177521605Y-131220298D01*
X176817327Y-131220298D01*
X176462360Y-130865331D01*
X176107392Y-131220299D01*
X175235213Y-131220299D01*
X174822004Y-130393881D01*
X175519594Y-130393881D01*
X175756240Y-130867173D01*
X176110221Y-130513192D01*
X176814498Y-130513192D01*
X177169466Y-130868160D01*
X177277642Y-130759984D01*
X177138654Y-130605623D01*
X177134438Y-130600687D01*
X177126200Y-130590514D01*
X177122252Y-130585369D01*
X177106915Y-130564262D01*
X177103233Y-130558906D01*
X177096100Y-130547922D01*
X177092709Y-130542386D01*
X176985020Y-130355861D01*
X176981924Y-130350160D01*
X176980441Y-130347249D01*
X176814498Y-130513192D01*
X176110221Y-130513192D01*
X175755252Y-130158223D01*
X175519594Y-130393881D01*
X174822004Y-130393881D01*
X174350688Y-129451248D01*
X175048277Y-129451248D01*
X175284834Y-129924363D01*
X175403114Y-129806085D01*
X176107391Y-129806085D01*
X176462359Y-130161053D01*
X176767336Y-129856077D01*
X176412368Y-129501109D01*
X176107391Y-129806085D01*
X175403114Y-129806085D01*
X175048277Y-129451248D01*
X174350688Y-129451248D01*
X174152477Y-129054827D01*
X174140102Y-128986062D01*
X174166870Y-128921523D01*
X174224280Y-128881701D01*
X174263386Y-128875373D01*
X176439548Y-128875373D01*
X176506587Y-128895058D01*
X176527229Y-128911692D01*
X177311038Y-129695502D01*
X177344523Y-129756825D01*
X177346678Y-129770221D01*
X177350123Y-129802994D01*
X177364326Y-129938129D01*
X177364327Y-129938132D01*
X177422818Y-130118150D01*
X177422821Y-130118157D01*
X177517467Y-130282089D01*
X177578759Y-130350160D01*
X177644129Y-130422761D01*
X177797265Y-130534021D01*
X177797270Y-130534024D01*
X177970192Y-130611015D01*
X177970197Y-130611017D01*
X178155354Y-130650373D01*
X178155355Y-130650373D01*
X178344644Y-130650373D01*
X178344646Y-130650373D01*
X178529803Y-130611017D01*
X178702730Y-130534024D01*
X178731403Y-130513192D01*
X179642925Y-130513192D01*
X179997894Y-130868161D01*
X180352862Y-130513192D01*
X181057139Y-130513192D01*
X181412108Y-130868161D01*
X181767076Y-130513192D01*
X182471352Y-130513192D01*
X182826321Y-130868161D01*
X183181289Y-130513192D01*
X183885566Y-130513192D01*
X184240535Y-130868161D01*
X184595503Y-130513192D01*
X185299779Y-130513192D01*
X185654748Y-130868161D01*
X186009716Y-130513192D01*
X186713993Y-130513192D01*
X187068962Y-130868161D01*
X187423930Y-130513192D01*
X188128206Y-130513192D01*
X188483175Y-130868161D01*
X188838143Y-130513192D01*
X189542420Y-130513192D01*
X189897389Y-130868161D01*
X190252357Y-130513192D01*
X190956634Y-130513192D01*
X191311602Y-130868161D01*
X191666571Y-130513192D01*
X191311602Y-130158224D01*
X190956634Y-130513192D01*
X190252357Y-130513192D01*
X189897389Y-130158224D01*
X189542420Y-130513192D01*
X188838143Y-130513192D01*
X188483175Y-130158224D01*
X188128206Y-130513192D01*
X187423930Y-130513192D01*
X187068962Y-130158224D01*
X186713993Y-130513192D01*
X186009716Y-130513192D01*
X185654748Y-130158224D01*
X185299779Y-130513192D01*
X184595503Y-130513192D01*
X184240535Y-130158224D01*
X183885566Y-130513192D01*
X183181289Y-130513192D01*
X182826321Y-130158224D01*
X182471352Y-130513192D01*
X181767076Y-130513192D01*
X181412108Y-130158224D01*
X181057139Y-130513192D01*
X180352862Y-130513192D01*
X179997894Y-130158224D01*
X179642925Y-130513192D01*
X178731403Y-130513192D01*
X178855871Y-130422761D01*
X178982533Y-130282089D01*
X179077179Y-130118157D01*
X179135674Y-129938129D01*
X179149552Y-129806086D01*
X180350033Y-129806086D01*
X180705001Y-130161054D01*
X181059969Y-129806086D01*
X181764246Y-129806086D01*
X182119214Y-130161054D01*
X182474182Y-129806086D01*
X183178460Y-129806086D01*
X183533428Y-130161054D01*
X183888396Y-129806086D01*
X184592673Y-129806086D01*
X184947641Y-130161054D01*
X185302610Y-129806086D01*
X186006887Y-129806086D01*
X186361855Y-130161054D01*
X186716823Y-129806086D01*
X187421101Y-129806086D01*
X187776069Y-130161054D01*
X188131037Y-129806086D01*
X188835314Y-129806086D01*
X189190282Y-130161054D01*
X189545250Y-129806086D01*
X190249528Y-129806086D01*
X190604496Y-130161054D01*
X190765669Y-129999881D01*
X192250000Y-129999881D01*
X192250000Y-130999864D01*
X192252544Y-131071396D01*
X192252544Y-131071398D01*
X192292844Y-131208647D01*
X192292845Y-131208649D01*
X192370182Y-131328987D01*
X192478290Y-131422663D01*
X192543349Y-131452374D01*
X192608408Y-131482086D01*
X192626206Y-131484645D01*
X192750000Y-131502444D01*
X192891591Y-131482086D01*
X193021710Y-131422663D01*
X193129818Y-131328987D01*
X193140410Y-131312505D01*
X193695684Y-131312505D01*
X193787891Y-131220299D01*
X193736141Y-131168549D01*
X193735082Y-131173999D01*
X193731624Y-131189245D01*
X193729673Y-131196752D01*
X193695684Y-131312505D01*
X193140410Y-131312505D01*
X193207155Y-131208649D01*
X193247456Y-131071396D01*
X193250000Y-130999873D01*
X193250000Y-130513192D01*
X193785061Y-130513192D01*
X194126000Y-130854131D01*
X194126000Y-130172254D01*
X193785061Y-130513192D01*
X193250000Y-130513192D01*
X193250000Y-129999873D01*
X193247456Y-129928350D01*
X193207155Y-129791097D01*
X193164646Y-129724952D01*
X193706757Y-129724952D01*
X193729673Y-129802994D01*
X193731624Y-129810501D01*
X193735082Y-129825747D01*
X193736559Y-129833347D01*
X193739914Y-129854062D01*
X193787891Y-129806086D01*
X193706757Y-129724952D01*
X193164646Y-129724952D01*
X193129818Y-129670759D01*
X193021710Y-129577083D01*
X193021708Y-129577082D01*
X192891591Y-129517659D01*
X192750000Y-129497302D01*
X192608408Y-129517659D01*
X192478291Y-129577082D01*
X192478288Y-129577084D01*
X192370180Y-129670761D01*
X192292844Y-129791098D01*
X192252544Y-129928347D01*
X192252544Y-129928349D01*
X192250000Y-129999881D01*
X190765669Y-129999881D01*
X190959464Y-129806086D01*
X191663741Y-129806086D01*
X191755320Y-129897665D01*
X191755412Y-129895081D01*
X191755929Y-129887353D01*
X191757459Y-129871795D01*
X191758459Y-129864103D01*
X191763441Y-129833347D01*
X191764918Y-129825747D01*
X191768376Y-129810501D01*
X191770327Y-129802994D01*
X191813348Y-129656478D01*
X191663741Y-129806086D01*
X190959464Y-129806086D01*
X190604496Y-129451118D01*
X190249528Y-129806086D01*
X189545250Y-129806086D01*
X189190282Y-129451118D01*
X188835314Y-129806086D01*
X188131037Y-129806086D01*
X187776069Y-129451118D01*
X187421101Y-129806086D01*
X186716823Y-129806086D01*
X186361855Y-129451118D01*
X186006887Y-129806086D01*
X185302610Y-129806086D01*
X184947641Y-129451117D01*
X184592673Y-129806086D01*
X183888396Y-129806086D01*
X183533428Y-129451118D01*
X183178460Y-129806086D01*
X182474182Y-129806086D01*
X182119214Y-129451117D01*
X181764246Y-129806086D01*
X181059969Y-129806086D01*
X180705001Y-129451118D01*
X180350033Y-129806086D01*
X179149552Y-129806086D01*
X179155460Y-129749873D01*
X179135674Y-129561617D01*
X179077179Y-129381589D01*
X178982533Y-129217657D01*
X178875674Y-129098978D01*
X179642925Y-129098978D01*
X179997894Y-129453947D01*
X180352862Y-129098979D01*
X181057140Y-129098979D01*
X181412108Y-129453947D01*
X181767076Y-129098979D01*
X182471353Y-129098979D01*
X182826321Y-129453947D01*
X183181289Y-129098979D01*
X183885567Y-129098979D01*
X184240535Y-129453947D01*
X184595503Y-129098979D01*
X185299780Y-129098979D01*
X185654748Y-129453947D01*
X186009716Y-129098979D01*
X186713994Y-129098979D01*
X187068962Y-129453947D01*
X187423930Y-129098979D01*
X188128207Y-129098979D01*
X188483175Y-129453947D01*
X188838143Y-129098979D01*
X189542421Y-129098979D01*
X189897389Y-129453947D01*
X190252357Y-129098979D01*
X190956634Y-129098979D01*
X191311602Y-129453947D01*
X191666571Y-129098979D01*
X193785062Y-129098979D01*
X194126000Y-129439917D01*
X194126000Y-128758041D01*
X193785062Y-129098979D01*
X191666571Y-129098979D01*
X191629202Y-129061610D01*
X192408216Y-129061610D01*
X192417721Y-129057270D01*
X192425903Y-129053881D01*
X192442635Y-129047641D01*
X192451026Y-129044848D01*
X192485178Y-129034819D01*
X192493758Y-129032629D01*
X192511208Y-129028833D01*
X192519919Y-129027261D01*
X192696743Y-129001838D01*
X192705544Y-129000892D01*
X192723356Y-128999618D01*
X192732202Y-128999302D01*
X192767798Y-128999302D01*
X192776644Y-128999618D01*
X192794456Y-129000892D01*
X192803257Y-129001838D01*
X192980081Y-129027261D01*
X192988792Y-129028833D01*
X193006242Y-129032629D01*
X193014822Y-129034819D01*
X193017373Y-129035568D01*
X192725816Y-128744011D01*
X192408216Y-129061610D01*
X191629202Y-129061610D01*
X191311602Y-128744010D01*
X190956634Y-129098979D01*
X190252357Y-129098979D01*
X189897389Y-128744011D01*
X189542421Y-129098979D01*
X188838143Y-129098979D01*
X188483175Y-128744010D01*
X188128207Y-129098979D01*
X187423930Y-129098979D01*
X187068962Y-128744011D01*
X186713994Y-129098979D01*
X186009716Y-129098979D01*
X185654748Y-128744011D01*
X185299780Y-129098979D01*
X184595503Y-129098979D01*
X184240535Y-128744011D01*
X183885567Y-129098979D01*
X183181289Y-129098979D01*
X182826321Y-128744011D01*
X182471353Y-129098979D01*
X181767076Y-129098979D01*
X181412108Y-128744011D01*
X181057140Y-129098979D01*
X180352862Y-129098979D01*
X180327756Y-129073873D01*
X180165005Y-129073873D01*
X180135329Y-129070270D01*
X179970278Y-129029588D01*
X179942329Y-129018988D01*
X179798436Y-128943468D01*
X179642925Y-129098978D01*
X178875674Y-129098978D01*
X178855871Y-129076985D01*
X178846629Y-129070270D01*
X178702734Y-128965724D01*
X178702729Y-128965721D01*
X178529807Y-128888730D01*
X178529802Y-128888728D01*
X178353881Y-128851336D01*
X178344646Y-128849373D01*
X178344645Y-128849373D01*
X178285453Y-128849373D01*
X178218414Y-128829688D01*
X178197772Y-128813054D01*
X177776590Y-128391872D01*
X178935819Y-128391872D01*
X179290786Y-128746839D01*
X179483949Y-128553676D01*
X179449407Y-128462595D01*
X179442253Y-128433570D01*
X179437190Y-128391872D01*
X181764246Y-128391872D01*
X182119214Y-128746840D01*
X182474182Y-128391872D01*
X183178460Y-128391872D01*
X183533428Y-128746840D01*
X183888396Y-128391872D01*
X184592673Y-128391872D01*
X184947641Y-128746840D01*
X185302610Y-128391872D01*
X186006887Y-128391872D01*
X186361855Y-128746840D01*
X186716823Y-128391872D01*
X187421101Y-128391872D01*
X187776069Y-128746840D01*
X188131037Y-128391872D01*
X188835314Y-128391872D01*
X189190282Y-128746840D01*
X189545250Y-128391872D01*
X190249528Y-128391872D01*
X190604496Y-128746840D01*
X190959464Y-128391872D01*
X191663741Y-128391872D01*
X192018709Y-128746840D01*
X192373677Y-128391872D01*
X193077955Y-128391872D01*
X193432923Y-128746840D01*
X193787891Y-128391872D01*
X193432923Y-128036904D01*
X193077955Y-128391872D01*
X192373677Y-128391872D01*
X192018709Y-128036904D01*
X191663741Y-128391872D01*
X190959464Y-128391872D01*
X190604496Y-128036904D01*
X190249528Y-128391872D01*
X189545250Y-128391872D01*
X189190282Y-128036904D01*
X188835314Y-128391872D01*
X188131037Y-128391872D01*
X187776069Y-128036904D01*
X187421101Y-128391872D01*
X186716823Y-128391872D01*
X186361855Y-128036904D01*
X186006887Y-128391872D01*
X185302610Y-128391872D01*
X184947641Y-128036903D01*
X184592673Y-128391872D01*
X183888396Y-128391872D01*
X183533428Y-128036904D01*
X183178460Y-128391872D01*
X182474182Y-128391872D01*
X182119214Y-128036903D01*
X181764246Y-128391872D01*
X179437190Y-128391872D01*
X179421763Y-128264819D01*
X179421763Y-128234927D01*
X179429022Y-128175139D01*
X179290787Y-128036904D01*
X178935819Y-128391872D01*
X177776590Y-128391872D01*
X177242928Y-127858211D01*
X177242925Y-127858207D01*
X177242925Y-127858208D01*
X177235858Y-127851141D01*
X177235858Y-127851140D01*
X177148733Y-127764015D01*
X177148732Y-127764014D01*
X177148731Y-127764013D01*
X177097509Y-127729788D01*
X177046287Y-127695562D01*
X177046286Y-127695561D01*
X177046283Y-127695559D01*
X177046280Y-127695558D01*
X177020222Y-127684765D01*
X178228712Y-127684765D01*
X178583680Y-128039733D01*
X178938649Y-127684765D01*
X181057139Y-127684765D01*
X181412108Y-128039733D01*
X181767076Y-127684765D01*
X182471352Y-127684765D01*
X182826321Y-128039733D01*
X183181289Y-127684765D01*
X183885566Y-127684765D01*
X184240535Y-128039733D01*
X184595503Y-127684765D01*
X185299779Y-127684765D01*
X185654748Y-128039733D01*
X186009716Y-127684765D01*
X186713993Y-127684765D01*
X187068962Y-128039733D01*
X187423930Y-127684765D01*
X188128206Y-127684765D01*
X188483175Y-128039733D01*
X188838143Y-127684765D01*
X189542420Y-127684765D01*
X189897389Y-128039733D01*
X190252357Y-127684765D01*
X190956634Y-127684765D01*
X191311602Y-128039733D01*
X191666571Y-127684765D01*
X192370847Y-127684765D01*
X192725816Y-128039733D01*
X193080784Y-127684765D01*
X193785061Y-127684765D01*
X194126000Y-128025703D01*
X194126000Y-127343827D01*
X193785061Y-127684765D01*
X193080784Y-127684765D01*
X192725816Y-127329797D01*
X192370847Y-127684765D01*
X191666571Y-127684765D01*
X191311602Y-127329796D01*
X190956634Y-127684765D01*
X190252357Y-127684765D01*
X189897389Y-127329797D01*
X189542420Y-127684765D01*
X188838143Y-127684765D01*
X188483175Y-127329796D01*
X188128206Y-127684765D01*
X187423930Y-127684765D01*
X187068962Y-127329797D01*
X186713993Y-127684765D01*
X186009716Y-127684765D01*
X185654748Y-127329797D01*
X185299779Y-127684765D01*
X184595503Y-127684765D01*
X184240535Y-127329797D01*
X183885566Y-127684765D01*
X183181289Y-127684765D01*
X182826321Y-127329797D01*
X182471352Y-127684765D01*
X181767076Y-127684765D01*
X181412108Y-127329797D01*
X181057139Y-127684765D01*
X178938649Y-127684765D01*
X178583680Y-127329796D01*
X178228712Y-127684765D01*
X177020222Y-127684765D01*
X176965792Y-127662220D01*
X176932453Y-127648410D01*
X176922427Y-127646416D01*
X176872029Y-127636391D01*
X176811610Y-127624373D01*
X176811607Y-127624373D01*
X176811606Y-127624373D01*
X166479827Y-127624373D01*
X166412788Y-127604688D01*
X166390084Y-127585942D01*
X166213267Y-127400500D01*
X165710658Y-126873373D01*
X166572849Y-126873373D01*
X166792135Y-127103356D01*
X166917833Y-126977659D01*
X167622111Y-126977659D01*
X167770825Y-127126373D01*
X168183333Y-127126373D01*
X168332047Y-126977659D01*
X169036324Y-126977659D01*
X169185038Y-127126373D01*
X169597546Y-127126373D01*
X169746260Y-126977659D01*
X170450538Y-126977659D01*
X170599252Y-127126373D01*
X171011760Y-127126373D01*
X171160474Y-126977659D01*
X171864751Y-126977659D01*
X172013465Y-127126373D01*
X172425973Y-127126373D01*
X172574686Y-126977659D01*
X173278965Y-126977659D01*
X173427679Y-127126373D01*
X173840187Y-127126373D01*
X173988901Y-126977659D01*
X174693179Y-126977659D01*
X174841893Y-127126373D01*
X175254401Y-127126373D01*
X175403115Y-126977659D01*
X176107392Y-126977659D01*
X176256106Y-127126373D01*
X176668614Y-127126373D01*
X176817328Y-126977659D01*
X177521606Y-126977659D01*
X177876574Y-127332627D01*
X178231542Y-126977659D01*
X178127256Y-126873373D01*
X177625892Y-126873373D01*
X177521606Y-126977659D01*
X176817328Y-126977659D01*
X176713042Y-126873373D01*
X176211678Y-126873373D01*
X176107392Y-126977659D01*
X175403115Y-126977659D01*
X175298829Y-126873373D01*
X174797465Y-126873373D01*
X174693179Y-126977659D01*
X173988901Y-126977659D01*
X173884615Y-126873373D01*
X173383251Y-126873373D01*
X173278965Y-126977659D01*
X172574686Y-126977659D01*
X172574687Y-126977658D01*
X172470402Y-126873373D01*
X171969037Y-126873373D01*
X171864751Y-126977659D01*
X171160474Y-126977659D01*
X171056188Y-126873373D01*
X170554824Y-126873373D01*
X170450538Y-126977659D01*
X169746260Y-126977659D01*
X169641974Y-126873373D01*
X169140610Y-126873373D01*
X169036324Y-126977659D01*
X168332047Y-126977659D01*
X168227761Y-126873373D01*
X167726397Y-126873373D01*
X167622111Y-126977659D01*
X166917833Y-126977659D01*
X166813547Y-126873373D01*
X166572849Y-126873373D01*
X165710658Y-126873373D01*
X165705799Y-126868277D01*
X165435643Y-126584942D01*
X165403627Y-126522839D01*
X165410269Y-126453286D01*
X165453460Y-126398365D01*
X165519487Y-126375513D01*
X165525386Y-126375373D01*
X178939421Y-126375373D01*
X179006460Y-126395058D01*
X179027102Y-126411692D01*
X179061038Y-126445628D01*
X179094523Y-126506951D01*
X179096678Y-126520347D01*
X179104139Y-126591338D01*
X179114326Y-126688256D01*
X179114327Y-126688259D01*
X179172818Y-126868277D01*
X179172821Y-126868284D01*
X179267467Y-127032216D01*
X179331522Y-127103356D01*
X179394129Y-127172888D01*
X179547265Y-127284148D01*
X179547270Y-127284151D01*
X179720192Y-127361142D01*
X179720197Y-127361144D01*
X179905354Y-127400500D01*
X179905355Y-127400500D01*
X180094644Y-127400500D01*
X180094646Y-127400500D01*
X180279803Y-127361144D01*
X180452730Y-127284151D01*
X180605871Y-127172888D01*
X180732533Y-127032216D01*
X180764031Y-126977659D01*
X181764246Y-126977659D01*
X182119214Y-127332627D01*
X182474182Y-126977659D01*
X183178460Y-126977659D01*
X183533428Y-127332627D01*
X183888396Y-126977659D01*
X184592673Y-126977659D01*
X184947641Y-127332627D01*
X185302610Y-126977659D01*
X186006887Y-126977659D01*
X186361855Y-127332627D01*
X186716823Y-126977659D01*
X187421101Y-126977659D01*
X187776069Y-127332627D01*
X188131037Y-126977659D01*
X188835314Y-126977659D01*
X189190282Y-127332627D01*
X189545250Y-126977659D01*
X190249528Y-126977659D01*
X190604496Y-127332627D01*
X190959464Y-126977659D01*
X191663741Y-126977659D01*
X192018709Y-127332627D01*
X192373677Y-126977659D01*
X193077955Y-126977659D01*
X193432923Y-127332627D01*
X193787891Y-126977659D01*
X193432923Y-126622691D01*
X193077955Y-126977659D01*
X192373677Y-126977659D01*
X192018709Y-126622691D01*
X191663741Y-126977659D01*
X190959464Y-126977659D01*
X190604496Y-126622691D01*
X190249528Y-126977659D01*
X189545250Y-126977659D01*
X189190282Y-126622691D01*
X188835314Y-126977659D01*
X188131037Y-126977659D01*
X187776069Y-126622691D01*
X187421101Y-126977659D01*
X186716823Y-126977659D01*
X186361855Y-126622691D01*
X186006887Y-126977659D01*
X185302610Y-126977659D01*
X184947641Y-126622690D01*
X184592673Y-126977659D01*
X183888396Y-126977659D01*
X183533428Y-126622691D01*
X183178460Y-126977659D01*
X182474182Y-126977659D01*
X182119214Y-126622690D01*
X181764246Y-126977659D01*
X180764031Y-126977659D01*
X180827179Y-126868284D01*
X180885674Y-126688256D01*
X180905460Y-126500000D01*
X180885674Y-126311744D01*
X180827179Y-126131716D01*
X180770312Y-126033220D01*
X180764524Y-126023195D01*
X181315547Y-126023195D01*
X181363332Y-126170262D01*
X181365178Y-126176494D01*
X181368567Y-126189145D01*
X181370081Y-126195453D01*
X181375505Y-126220974D01*
X181376688Y-126227358D01*
X181378735Y-126240285D01*
X181379582Y-126246717D01*
X181402096Y-126460919D01*
X181402605Y-126467394D01*
X181403290Y-126480469D01*
X181403460Y-126486956D01*
X181403460Y-126513044D01*
X181403290Y-126519531D01*
X181402605Y-126532606D01*
X181402096Y-126539081D01*
X181394826Y-126608238D01*
X181412108Y-126625520D01*
X181767076Y-126270552D01*
X182471353Y-126270552D01*
X182826321Y-126625520D01*
X183181289Y-126270552D01*
X183885567Y-126270552D01*
X184240535Y-126625520D01*
X184595503Y-126270552D01*
X185299780Y-126270552D01*
X185654748Y-126625520D01*
X186009716Y-126270552D01*
X186713994Y-126270552D01*
X187068962Y-126625520D01*
X187423930Y-126270552D01*
X188128207Y-126270552D01*
X188483175Y-126625520D01*
X188838143Y-126270552D01*
X189542421Y-126270552D01*
X189897389Y-126625520D01*
X190252357Y-126270552D01*
X190956634Y-126270552D01*
X191311602Y-126625520D01*
X191666571Y-126270552D01*
X192370848Y-126270552D01*
X192725816Y-126625520D01*
X193080784Y-126270552D01*
X193785062Y-126270552D01*
X194132479Y-126617969D01*
X194135439Y-126603091D01*
X194211559Y-126419320D01*
X194238439Y-126379092D01*
X194420988Y-126196542D01*
X194140030Y-125915584D01*
X193785062Y-126270552D01*
X193080784Y-126270552D01*
X192725816Y-125915584D01*
X192370848Y-126270552D01*
X191666571Y-126270552D01*
X191311602Y-125915583D01*
X190956634Y-126270552D01*
X190252357Y-126270552D01*
X189897389Y-125915584D01*
X189542421Y-126270552D01*
X188838143Y-126270552D01*
X188483175Y-125915583D01*
X188128207Y-126270552D01*
X187423930Y-126270552D01*
X187068962Y-125915584D01*
X186713994Y-126270552D01*
X186009716Y-126270552D01*
X185654748Y-125915584D01*
X185299780Y-126270552D01*
X184595503Y-126270552D01*
X184240535Y-125915584D01*
X183885567Y-126270552D01*
X183181289Y-126270552D01*
X182826321Y-125915584D01*
X182471353Y-126270552D01*
X181767076Y-126270552D01*
X181417631Y-125921107D01*
X181362477Y-125976260D01*
X181362457Y-125976286D01*
X181315547Y-126023195D01*
X180764524Y-126023195D01*
X180739309Y-125979520D01*
X180722836Y-125911619D01*
X180745689Y-125845593D01*
X180791870Y-125808840D01*
X180790916Y-125807055D01*
X180796274Y-125804189D01*
X180796286Y-125804185D01*
X180847509Y-125769957D01*
X180898733Y-125735731D01*
X180985858Y-125648606D01*
X180985858Y-125648604D01*
X180996066Y-125638397D01*
X180996067Y-125638394D01*
X181065493Y-125568968D01*
X181769769Y-125568968D01*
X182119214Y-125918413D01*
X182474182Y-125563445D01*
X183178460Y-125563445D01*
X183533428Y-125918413D01*
X183888396Y-125563445D01*
X184592673Y-125563445D01*
X184947641Y-125918413D01*
X185302610Y-125563445D01*
X186006887Y-125563445D01*
X186361855Y-125918413D01*
X186716823Y-125563445D01*
X187421101Y-125563445D01*
X187776069Y-125918413D01*
X188131037Y-125563445D01*
X188835314Y-125563445D01*
X189190282Y-125918413D01*
X189545250Y-125563445D01*
X190249528Y-125563445D01*
X190604496Y-125918413D01*
X190959464Y-125563445D01*
X191663741Y-125563445D01*
X192018709Y-125918413D01*
X192373677Y-125563445D01*
X193077955Y-125563445D01*
X193432923Y-125918413D01*
X193787891Y-125563445D01*
X194492168Y-125563445D01*
X194773126Y-125844403D01*
X195128094Y-125489435D01*
X194847136Y-125208476D01*
X194492168Y-125563445D01*
X193787891Y-125563445D01*
X193432923Y-125208477D01*
X193077955Y-125563445D01*
X192373677Y-125563445D01*
X192018709Y-125208477D01*
X191663741Y-125563445D01*
X190959464Y-125563445D01*
X190604496Y-125208477D01*
X190249528Y-125563445D01*
X189545250Y-125563445D01*
X189190282Y-125208477D01*
X188835314Y-125563445D01*
X188131037Y-125563445D01*
X187776069Y-125208477D01*
X187421101Y-125563445D01*
X186716823Y-125563445D01*
X186361855Y-125208477D01*
X186006887Y-125563445D01*
X185302610Y-125563445D01*
X184947641Y-125208476D01*
X184592673Y-125563445D01*
X183888396Y-125563445D01*
X183533428Y-125208477D01*
X183178460Y-125563445D01*
X182474182Y-125563445D01*
X182124737Y-125213999D01*
X181769769Y-125568968D01*
X181065493Y-125568968D01*
X181772600Y-124861861D01*
X182476876Y-124861861D01*
X182826321Y-125211306D01*
X183181289Y-124856338D01*
X183885567Y-124856338D01*
X184240535Y-125211306D01*
X184595503Y-124856338D01*
X185299780Y-124856338D01*
X185654748Y-125211306D01*
X186009716Y-124856338D01*
X186713994Y-124856338D01*
X187068962Y-125211306D01*
X187423930Y-124856338D01*
X188128207Y-124856338D01*
X188483175Y-125211306D01*
X188838143Y-124856338D01*
X189542421Y-124856338D01*
X189897389Y-125211306D01*
X190252357Y-124856338D01*
X190956634Y-124856338D01*
X191311602Y-125211306D01*
X191666571Y-124856338D01*
X192370848Y-124856338D01*
X192725816Y-125211306D01*
X193080784Y-124856338D01*
X193785062Y-124856338D01*
X194140030Y-125211306D01*
X194494998Y-124856338D01*
X195199275Y-124856338D01*
X195480234Y-125137297D01*
X195835202Y-124782329D01*
X195554243Y-124501370D01*
X195199275Y-124856338D01*
X194494998Y-124856338D01*
X194140030Y-124501370D01*
X193785062Y-124856338D01*
X193080784Y-124856338D01*
X192725816Y-124501370D01*
X192370848Y-124856338D01*
X191666571Y-124856338D01*
X191311602Y-124501369D01*
X190956634Y-124856338D01*
X190252357Y-124856338D01*
X189897389Y-124501370D01*
X189542421Y-124856338D01*
X188838143Y-124856338D01*
X188483175Y-124501369D01*
X188128207Y-124856338D01*
X187423930Y-124856338D01*
X187068962Y-124501370D01*
X186713994Y-124856338D01*
X186009716Y-124856338D01*
X185654748Y-124501370D01*
X185299780Y-124856338D01*
X184595503Y-124856338D01*
X184240535Y-124501370D01*
X183885567Y-124856338D01*
X183181289Y-124856338D01*
X182831844Y-124506893D01*
X182476876Y-124861861D01*
X181772600Y-124861861D01*
X182479706Y-124154755D01*
X183183983Y-124154755D01*
X183533428Y-124504200D01*
X183888396Y-124149231D01*
X184592673Y-124149231D01*
X184947641Y-124504200D01*
X185302610Y-124149231D01*
X186006886Y-124149231D01*
X186361855Y-124504200D01*
X186716823Y-124149231D01*
X187421100Y-124149231D01*
X187776069Y-124504200D01*
X188131037Y-124149231D01*
X188835313Y-124149231D01*
X189190282Y-124504200D01*
X189545250Y-124149231D01*
X190249527Y-124149231D01*
X190604496Y-124504200D01*
X190959464Y-124149231D01*
X191663740Y-124149231D01*
X192018709Y-124504200D01*
X192373677Y-124149231D01*
X193077954Y-124149231D01*
X193432923Y-124504200D01*
X193787891Y-124149231D01*
X194492167Y-124149231D01*
X194847136Y-124504200D01*
X195202104Y-124149231D01*
X195906381Y-124149231D01*
X196187340Y-124430190D01*
X196542308Y-124075221D01*
X196261349Y-123794263D01*
X195906381Y-124149231D01*
X195202104Y-124149231D01*
X194847136Y-123794263D01*
X194492167Y-124149231D01*
X193787891Y-124149231D01*
X193432923Y-123794263D01*
X193077954Y-124149231D01*
X192373677Y-124149231D01*
X192018709Y-123794263D01*
X191663740Y-124149231D01*
X190959464Y-124149231D01*
X190604496Y-123794263D01*
X190249527Y-124149231D01*
X189545250Y-124149231D01*
X189190282Y-123794263D01*
X188835313Y-124149231D01*
X188131037Y-124149231D01*
X187776069Y-123794263D01*
X187421100Y-124149231D01*
X186716823Y-124149231D01*
X186361855Y-123794263D01*
X186006886Y-124149231D01*
X185302610Y-124149231D01*
X184947641Y-123794263D01*
X184592673Y-124149231D01*
X183888396Y-124149231D01*
X183538951Y-123799787D01*
X183183983Y-124154755D01*
X182479706Y-124154755D01*
X183186814Y-123447648D01*
X183891090Y-123447648D01*
X184240535Y-123797093D01*
X184595503Y-123442125D01*
X185299780Y-123442125D01*
X185654748Y-123797093D01*
X186009716Y-123442125D01*
X186713994Y-123442125D01*
X187068962Y-123797093D01*
X187423930Y-123442125D01*
X188128207Y-123442125D01*
X188483175Y-123797093D01*
X188838143Y-123442125D01*
X189542421Y-123442125D01*
X189897389Y-123797093D01*
X190252357Y-123442125D01*
X190956634Y-123442125D01*
X191311602Y-123797093D01*
X191666571Y-123442125D01*
X192370848Y-123442125D01*
X192725816Y-123797093D01*
X193080784Y-123442125D01*
X193785062Y-123442125D01*
X194140030Y-123797093D01*
X194494998Y-123442125D01*
X195199275Y-123442125D01*
X195554243Y-123797093D01*
X195909211Y-123442125D01*
X196613489Y-123442125D01*
X196894447Y-123723083D01*
X197249415Y-123368115D01*
X196968457Y-123087157D01*
X196613489Y-123442125D01*
X195909211Y-123442125D01*
X195554243Y-123087157D01*
X195199275Y-123442125D01*
X194494998Y-123442125D01*
X194140030Y-123087157D01*
X193785062Y-123442125D01*
X193080784Y-123442125D01*
X192725816Y-123087157D01*
X192370848Y-123442125D01*
X191666571Y-123442125D01*
X191311602Y-123087156D01*
X190956634Y-123442125D01*
X190252357Y-123442125D01*
X189897389Y-123087157D01*
X189542421Y-123442125D01*
X188838143Y-123442125D01*
X188483175Y-123087156D01*
X188128207Y-123442125D01*
X187423930Y-123442125D01*
X187068962Y-123087157D01*
X186713994Y-123442125D01*
X186009716Y-123442125D01*
X185654748Y-123087157D01*
X185299780Y-123442125D01*
X184595503Y-123442125D01*
X184246058Y-123092680D01*
X183891090Y-123447648D01*
X183186814Y-123447648D01*
X183893921Y-122740541D01*
X184598197Y-122740541D01*
X184947641Y-123089986D01*
X185302610Y-122735018D01*
X186006887Y-122735018D01*
X186361855Y-123089986D01*
X186716823Y-122735018D01*
X187421101Y-122735018D01*
X187776069Y-123089986D01*
X188131037Y-122735018D01*
X188835314Y-122735018D01*
X189190282Y-123089986D01*
X189545250Y-122735018D01*
X190249528Y-122735018D01*
X190604496Y-123089986D01*
X190959464Y-122735018D01*
X191663741Y-122735018D01*
X192018709Y-123089986D01*
X192373677Y-122735018D01*
X193077955Y-122735018D01*
X193432923Y-123089986D01*
X193787891Y-122735018D01*
X194492168Y-122735018D01*
X194847136Y-123089986D01*
X195202104Y-122735018D01*
X195906382Y-122735018D01*
X196261350Y-123089986D01*
X196616318Y-122735018D01*
X197320596Y-122735018D01*
X197601554Y-123015976D01*
X197956522Y-122661008D01*
X197675564Y-122380050D01*
X197320596Y-122735018D01*
X196616318Y-122735018D01*
X196261350Y-122380050D01*
X195906382Y-122735018D01*
X195202104Y-122735018D01*
X194847136Y-122380049D01*
X194492168Y-122735018D01*
X193787891Y-122735018D01*
X193432923Y-122380050D01*
X193077955Y-122735018D01*
X192373677Y-122735018D01*
X192018709Y-122380050D01*
X191663741Y-122735018D01*
X190959464Y-122735018D01*
X190604496Y-122380050D01*
X190249528Y-122735018D01*
X189545250Y-122735018D01*
X189190282Y-122380050D01*
X188835314Y-122735018D01*
X188131037Y-122735018D01*
X187776069Y-122380050D01*
X187421101Y-122735018D01*
X186716823Y-122735018D01*
X186361855Y-122380050D01*
X186006887Y-122735018D01*
X185302610Y-122735018D01*
X184953165Y-122385573D01*
X184598197Y-122740541D01*
X183893921Y-122740541D01*
X184601028Y-122033435D01*
X185305304Y-122033435D01*
X185654748Y-122382879D01*
X186009716Y-122027911D01*
X186713994Y-122027911D01*
X187068962Y-122382879D01*
X187423930Y-122027911D01*
X188128207Y-122027911D01*
X188483175Y-122382879D01*
X188838143Y-122027911D01*
X189542421Y-122027911D01*
X189897389Y-122382879D01*
X190252357Y-122027911D01*
X190956634Y-122027911D01*
X191311602Y-122382879D01*
X191666571Y-122027911D01*
X192370848Y-122027911D01*
X192725816Y-122382879D01*
X193080784Y-122027911D01*
X193785062Y-122027911D01*
X194140030Y-122382879D01*
X194494998Y-122027911D01*
X195199275Y-122027911D01*
X195554243Y-122382879D01*
X195909211Y-122027911D01*
X196613489Y-122027911D01*
X196968457Y-122382879D01*
X197323425Y-122027911D01*
X198027702Y-122027911D01*
X198308661Y-122308870D01*
X198663629Y-121953902D01*
X198382670Y-121672943D01*
X198027702Y-122027911D01*
X197323425Y-122027911D01*
X196968457Y-121672943D01*
X196613489Y-122027911D01*
X195909211Y-122027911D01*
X195554243Y-121672943D01*
X195199275Y-122027911D01*
X194494998Y-122027911D01*
X194140030Y-121672943D01*
X193785062Y-122027911D01*
X193080784Y-122027911D01*
X192725816Y-121672943D01*
X192370848Y-122027911D01*
X191666571Y-122027911D01*
X191311602Y-121672942D01*
X190956634Y-122027911D01*
X190252357Y-122027911D01*
X189897389Y-121672943D01*
X189542421Y-122027911D01*
X188838143Y-122027911D01*
X188483175Y-121672942D01*
X188128207Y-122027911D01*
X187423930Y-122027911D01*
X187068962Y-121672943D01*
X186713994Y-122027911D01*
X186009716Y-122027911D01*
X185660272Y-121678467D01*
X185305304Y-122033435D01*
X184601028Y-122033435D01*
X185308135Y-121326328D01*
X186012411Y-121326328D01*
X186361855Y-121675772D01*
X186716823Y-121320804D01*
X187421101Y-121320804D01*
X187776069Y-121675772D01*
X188131037Y-121320804D01*
X188835314Y-121320804D01*
X189190282Y-121675772D01*
X189545250Y-121320804D01*
X190249528Y-121320804D01*
X190604496Y-121675772D01*
X190959464Y-121320804D01*
X191663741Y-121320804D01*
X192018709Y-121675772D01*
X192373677Y-121320804D01*
X193077955Y-121320804D01*
X193432923Y-121675772D01*
X193787891Y-121320804D01*
X194492168Y-121320804D01*
X194847136Y-121675772D01*
X195202104Y-121320804D01*
X195906382Y-121320804D01*
X196261350Y-121675772D01*
X196616318Y-121320804D01*
X197320596Y-121320804D01*
X197675564Y-121675772D01*
X198030532Y-121320804D01*
X198734809Y-121320804D01*
X199015768Y-121601763D01*
X199370736Y-121246795D01*
X199089777Y-120965836D01*
X198734809Y-121320804D01*
X198030532Y-121320804D01*
X197675564Y-120965836D01*
X197320596Y-121320804D01*
X196616318Y-121320804D01*
X196261350Y-120965836D01*
X195906382Y-121320804D01*
X195202104Y-121320804D01*
X194847136Y-120965835D01*
X194492168Y-121320804D01*
X193787891Y-121320804D01*
X193432923Y-120965836D01*
X193077955Y-121320804D01*
X192373677Y-121320804D01*
X192018709Y-120965836D01*
X191663741Y-121320804D01*
X190959464Y-121320804D01*
X190604496Y-120965836D01*
X190249528Y-121320804D01*
X189545250Y-121320804D01*
X189190282Y-120965836D01*
X188835314Y-121320804D01*
X188131037Y-121320804D01*
X187776069Y-120965836D01*
X187421101Y-121320804D01*
X186716823Y-121320804D01*
X186367379Y-120971360D01*
X186012411Y-121326328D01*
X185308135Y-121326328D01*
X186003916Y-120630548D01*
X186730844Y-120630548D01*
X187068962Y-120968666D01*
X187423930Y-120613698D01*
X188128207Y-120613698D01*
X188483175Y-120968666D01*
X188838143Y-120613698D01*
X189542421Y-120613698D01*
X189897389Y-120968666D01*
X190252357Y-120613698D01*
X190956634Y-120613698D01*
X191311602Y-120968666D01*
X191666571Y-120613698D01*
X192370848Y-120613698D01*
X192725816Y-120968666D01*
X193080784Y-120613698D01*
X193785062Y-120613698D01*
X194140030Y-120968666D01*
X194494998Y-120613698D01*
X195199275Y-120613698D01*
X195554243Y-120968666D01*
X195909211Y-120613698D01*
X196613489Y-120613698D01*
X196968457Y-120968666D01*
X197323425Y-120613698D01*
X198027702Y-120613698D01*
X198382670Y-120968666D01*
X198737638Y-120613698D01*
X199441916Y-120613698D01*
X199722874Y-120894656D01*
X200077842Y-120539688D01*
X199796884Y-120258730D01*
X199441916Y-120613698D01*
X198737638Y-120613698D01*
X198382670Y-120258730D01*
X198027702Y-120613698D01*
X197323425Y-120613698D01*
X196968457Y-120258730D01*
X196613489Y-120613698D01*
X195909211Y-120613698D01*
X195554243Y-120258730D01*
X195199275Y-120613698D01*
X194494998Y-120613698D01*
X194140030Y-120258730D01*
X193785062Y-120613698D01*
X193080784Y-120613698D01*
X192725816Y-120258730D01*
X192370848Y-120613698D01*
X191666571Y-120613698D01*
X191311602Y-120258729D01*
X190956634Y-120613698D01*
X190252357Y-120613698D01*
X189897389Y-120258730D01*
X189542421Y-120613698D01*
X188838143Y-120613698D01*
X188483175Y-120258729D01*
X188128207Y-120613698D01*
X187423930Y-120613698D01*
X187246431Y-120436199D01*
X187234892Y-120444583D01*
X187229532Y-120448267D01*
X187218546Y-120455400D01*
X187213018Y-120458787D01*
X187190424Y-120471831D01*
X187184716Y-120474930D01*
X187173055Y-120480871D01*
X187167201Y-120483663D01*
X186970442Y-120571268D01*
X186964448Y-120573751D01*
X186952221Y-120578445D01*
X186946090Y-120580616D01*
X186921276Y-120588677D01*
X186915057Y-120590519D01*
X186902412Y-120593907D01*
X186896101Y-120595422D01*
X186730844Y-120630548D01*
X186003916Y-120630548D01*
X186447772Y-120186692D01*
X186509095Y-120153207D01*
X186535453Y-120150373D01*
X186594644Y-120150373D01*
X186594646Y-120150373D01*
X186779803Y-120111017D01*
X186802564Y-120100883D01*
X187615393Y-120100883D01*
X187776069Y-120261559D01*
X188131037Y-119906591D01*
X188835314Y-119906591D01*
X189190282Y-120261559D01*
X189545250Y-119906591D01*
X190249528Y-119906591D01*
X190604496Y-120261559D01*
X190959464Y-119906591D01*
X191663741Y-119906591D01*
X192018709Y-120261559D01*
X192373677Y-119906591D01*
X193077955Y-119906591D01*
X193432923Y-120261559D01*
X193787891Y-119906591D01*
X194492168Y-119906591D01*
X194847136Y-120261559D01*
X195202104Y-119906591D01*
X195906382Y-119906591D01*
X196261350Y-120261559D01*
X196616318Y-119906591D01*
X197320596Y-119906591D01*
X197675564Y-120261559D01*
X198030532Y-119906591D01*
X198734809Y-119906591D01*
X199089777Y-120261559D01*
X199444745Y-119906591D01*
X200149023Y-119906591D01*
X200443836Y-120201404D01*
X200603091Y-120135439D01*
X200636820Y-120128729D01*
X200858959Y-119906591D01*
X201563236Y-119906591D01*
X201782645Y-120126000D01*
X202053763Y-120126000D01*
X202126000Y-120053763D01*
X202126000Y-119759419D01*
X201918204Y-119551623D01*
X201563236Y-119906591D01*
X200858959Y-119906591D01*
X200503991Y-119551623D01*
X200149023Y-119906591D01*
X199444745Y-119906591D01*
X199089777Y-119551623D01*
X198734809Y-119906591D01*
X198030532Y-119906591D01*
X197675564Y-119551623D01*
X197320596Y-119906591D01*
X196616318Y-119906591D01*
X196261350Y-119551623D01*
X195906382Y-119906591D01*
X195202104Y-119906591D01*
X194847136Y-119551622D01*
X194492168Y-119906591D01*
X193787891Y-119906591D01*
X193432923Y-119551623D01*
X193077955Y-119906591D01*
X192373677Y-119906591D01*
X192018709Y-119551623D01*
X191663741Y-119906591D01*
X190959464Y-119906591D01*
X190604496Y-119551623D01*
X190249528Y-119906591D01*
X189545250Y-119906591D01*
X189190282Y-119551623D01*
X188835314Y-119906591D01*
X188131037Y-119906591D01*
X187848795Y-119624349D01*
X187796773Y-119784458D01*
X187794604Y-119790584D01*
X187789909Y-119802813D01*
X187787424Y-119808810D01*
X187776811Y-119832644D01*
X187774017Y-119838501D01*
X187768076Y-119850160D01*
X187764980Y-119855861D01*
X187657291Y-120042386D01*
X187653900Y-120047922D01*
X187646767Y-120058906D01*
X187643085Y-120064262D01*
X187627748Y-120085369D01*
X187623800Y-120090514D01*
X187615562Y-120100687D01*
X187615393Y-120100883D01*
X186802564Y-120100883D01*
X186952730Y-120034024D01*
X187105871Y-119922761D01*
X187232533Y-119782089D01*
X187327179Y-119618157D01*
X187385674Y-119438129D01*
X187405460Y-119249873D01*
X187400164Y-119199484D01*
X188128207Y-119199484D01*
X188483175Y-119554452D01*
X188838143Y-119199484D01*
X189542421Y-119199484D01*
X189897389Y-119554452D01*
X190252357Y-119199484D01*
X190956634Y-119199484D01*
X191311602Y-119554452D01*
X191666571Y-119199484D01*
X192370848Y-119199484D01*
X192725816Y-119554452D01*
X193080784Y-119199484D01*
X193785062Y-119199484D01*
X194140030Y-119554452D01*
X194494998Y-119199484D01*
X195199275Y-119199484D01*
X195554243Y-119554452D01*
X195909211Y-119199484D01*
X196613489Y-119199484D01*
X196968457Y-119554452D01*
X197323425Y-119199484D01*
X198027702Y-119199484D01*
X198382670Y-119554452D01*
X198737638Y-119199484D01*
X199441916Y-119199484D01*
X199796884Y-119554452D01*
X200151852Y-119199484D01*
X200856129Y-119199484D01*
X201211097Y-119554452D01*
X201566066Y-119199484D01*
X201211097Y-118844515D01*
X200856129Y-119199484D01*
X200151852Y-119199484D01*
X199796884Y-118844516D01*
X199441916Y-119199484D01*
X198737638Y-119199484D01*
X198382670Y-118844516D01*
X198027702Y-119199484D01*
X197323425Y-119199484D01*
X196968457Y-118844516D01*
X196613489Y-119199484D01*
X195909211Y-119199484D01*
X195554243Y-118844516D01*
X195199275Y-119199484D01*
X194494998Y-119199484D01*
X194140030Y-118844516D01*
X193785062Y-119199484D01*
X193080784Y-119199484D01*
X192725816Y-118844516D01*
X192370848Y-119199484D01*
X191666571Y-119199484D01*
X191311602Y-118844515D01*
X190956634Y-119199484D01*
X190252357Y-119199484D01*
X189897389Y-118844516D01*
X189542421Y-119199484D01*
X188838143Y-119199484D01*
X188483175Y-118844515D01*
X188128207Y-119199484D01*
X187400164Y-119199484D01*
X187385674Y-119061617D01*
X187327179Y-118881589D01*
X187232533Y-118717657D01*
X187105871Y-118576985D01*
X187105870Y-118576984D01*
X186952734Y-118465724D01*
X186952729Y-118465721D01*
X186779807Y-118388730D01*
X186779802Y-118388728D01*
X186634001Y-118357738D01*
X186594646Y-118349373D01*
X186405354Y-118349373D01*
X186372897Y-118356271D01*
X186220197Y-118388728D01*
X186220192Y-118388730D01*
X186047270Y-118465721D01*
X186047265Y-118465724D01*
X185894129Y-118576984D01*
X185767466Y-118717658D01*
X185672821Y-118881588D01*
X185672818Y-118881595D01*
X185614327Y-119061613D01*
X185614326Y-119061617D01*
X185599836Y-119199484D01*
X185596679Y-119229523D01*
X185570094Y-119294137D01*
X185561039Y-119304242D01*
X185387219Y-119478062D01*
X185325896Y-119511547D01*
X185256204Y-119506563D01*
X185200271Y-119464691D01*
X185175854Y-119399227D01*
X185175538Y-119390381D01*
X185175538Y-118698560D01*
X185195223Y-118631521D01*
X185207388Y-118615588D01*
X185231777Y-118588501D01*
X185282571Y-118532089D01*
X185377217Y-118368157D01*
X185384509Y-118345716D01*
X187567760Y-118345716D01*
X187611346Y-118394123D01*
X187615562Y-118399059D01*
X187623800Y-118409232D01*
X187627748Y-118414377D01*
X187643085Y-118435484D01*
X187646767Y-118440840D01*
X187653900Y-118451824D01*
X187657291Y-118457360D01*
X187764980Y-118643885D01*
X187768076Y-118649586D01*
X187774017Y-118661245D01*
X187776811Y-118667102D01*
X187787424Y-118690936D01*
X187789909Y-118696933D01*
X187794604Y-118709162D01*
X187796773Y-118715288D01*
X187824080Y-118799333D01*
X188131037Y-118492377D01*
X188835314Y-118492377D01*
X189190282Y-118847345D01*
X189545250Y-118492377D01*
X190249528Y-118492377D01*
X190604496Y-118847345D01*
X190959464Y-118492377D01*
X191663741Y-118492377D01*
X192018709Y-118847345D01*
X192373677Y-118492377D01*
X193077955Y-118492377D01*
X193432923Y-118847345D01*
X193787891Y-118492377D01*
X194492168Y-118492377D01*
X194847136Y-118847345D01*
X195202104Y-118492377D01*
X195906382Y-118492377D01*
X196261350Y-118847345D01*
X196616318Y-118492377D01*
X197320596Y-118492377D01*
X197675564Y-118847345D01*
X198030532Y-118492377D01*
X198734809Y-118492377D01*
X199089777Y-118847345D01*
X199444745Y-118492377D01*
X200149023Y-118492377D01*
X200503991Y-118847345D01*
X200858959Y-118492377D01*
X201563236Y-118492377D01*
X201918204Y-118847345D01*
X202126000Y-118639549D01*
X202126000Y-118345205D01*
X201918204Y-118137409D01*
X201563236Y-118492377D01*
X200858959Y-118492377D01*
X200503991Y-118137409D01*
X200149023Y-118492377D01*
X199444745Y-118492377D01*
X199089777Y-118137409D01*
X198734809Y-118492377D01*
X198030532Y-118492377D01*
X197675564Y-118137409D01*
X197320596Y-118492377D01*
X196616318Y-118492377D01*
X196261350Y-118137409D01*
X195906382Y-118492377D01*
X195202104Y-118492377D01*
X194847136Y-118137408D01*
X194492168Y-118492377D01*
X193787891Y-118492377D01*
X193432923Y-118137409D01*
X193077955Y-118492377D01*
X192373677Y-118492377D01*
X192018709Y-118137409D01*
X191663741Y-118492377D01*
X190959464Y-118492377D01*
X190604496Y-118137409D01*
X190249528Y-118492377D01*
X189545250Y-118492377D01*
X189190282Y-118137409D01*
X188835314Y-118492377D01*
X188131037Y-118492377D01*
X187776068Y-118137408D01*
X187567760Y-118345716D01*
X185384509Y-118345716D01*
X185435712Y-118188129D01*
X185455498Y-117999873D01*
X185435712Y-117811617D01*
X185398070Y-117695767D01*
X185920212Y-117695767D01*
X185925543Y-117720847D01*
X185926726Y-117727231D01*
X185928773Y-117740158D01*
X185929620Y-117746590D01*
X185940916Y-117854069D01*
X186009715Y-117785270D01*
X186713993Y-117785270D01*
X186816026Y-117887303D01*
X186896101Y-117904324D01*
X186902412Y-117905839D01*
X186915057Y-117909227D01*
X186921276Y-117911069D01*
X186946090Y-117919130D01*
X186952221Y-117921301D01*
X186964448Y-117925995D01*
X186970442Y-117928478D01*
X187167201Y-118016083D01*
X187173055Y-118018875D01*
X187184496Y-118024704D01*
X187423929Y-117785270D01*
X188128206Y-117785270D01*
X188483175Y-118140239D01*
X188838143Y-117785270D01*
X189542420Y-117785270D01*
X189897389Y-118140239D01*
X190252357Y-117785270D01*
X190956634Y-117785270D01*
X191311602Y-118140239D01*
X191666571Y-117785270D01*
X192370847Y-117785270D01*
X192725816Y-118140239D01*
X193080784Y-117785270D01*
X193785061Y-117785270D01*
X194140030Y-118140239D01*
X194494998Y-117785270D01*
X195199274Y-117785270D01*
X195554243Y-118140239D01*
X195909211Y-117785270D01*
X196613488Y-117785270D01*
X196968457Y-118140239D01*
X197323425Y-117785270D01*
X198027701Y-117785270D01*
X198382670Y-118140239D01*
X198737638Y-117785270D01*
X199441915Y-117785270D01*
X199796884Y-118140239D01*
X200151852Y-117785270D01*
X200856129Y-117785270D01*
X201211097Y-118140239D01*
X201566066Y-117785270D01*
X201211097Y-117430302D01*
X200856129Y-117785270D01*
X200151852Y-117785270D01*
X199796884Y-117430302D01*
X199441915Y-117785270D01*
X198737638Y-117785270D01*
X198382670Y-117430302D01*
X198027701Y-117785270D01*
X197323425Y-117785270D01*
X196968457Y-117430302D01*
X196613488Y-117785270D01*
X195909211Y-117785270D01*
X195554243Y-117430302D01*
X195199274Y-117785270D01*
X194494998Y-117785270D01*
X194140030Y-117430302D01*
X193785061Y-117785270D01*
X193080784Y-117785270D01*
X192725816Y-117430302D01*
X192370847Y-117785270D01*
X191666571Y-117785270D01*
X191311602Y-117430302D01*
X190956634Y-117785270D01*
X190252357Y-117785270D01*
X189897389Y-117430302D01*
X189542420Y-117785270D01*
X188838143Y-117785270D01*
X188483175Y-117430302D01*
X188128206Y-117785270D01*
X187423929Y-117785270D01*
X187068962Y-117430302D01*
X186713993Y-117785270D01*
X186009715Y-117785270D01*
X185920212Y-117695767D01*
X185398070Y-117695767D01*
X185377217Y-117631589D01*
X185282571Y-117467657D01*
X185155909Y-117326985D01*
X185137705Y-117313759D01*
X185002772Y-117215724D01*
X185002767Y-117215721D01*
X184829845Y-117138730D01*
X184829840Y-117138728D01*
X184684039Y-117107738D01*
X184644684Y-117099373D01*
X184455392Y-117099373D01*
X184422935Y-117106271D01*
X184270235Y-117138728D01*
X184270230Y-117138730D01*
X184097309Y-117215721D01*
X183972904Y-117306106D01*
X183907097Y-117329585D01*
X183839043Y-117313759D01*
X183827134Y-117306106D01*
X183766435Y-117262006D01*
X183702730Y-117215722D01*
X183702728Y-117215721D01*
X183702729Y-117215721D01*
X183529807Y-117138730D01*
X183529802Y-117138728D01*
X183384001Y-117107738D01*
X183344646Y-117099373D01*
X183155354Y-117099373D01*
X183122897Y-117106271D01*
X182970197Y-117138728D01*
X182970192Y-117138730D01*
X182797270Y-117215721D01*
X182797265Y-117215724D01*
X182644129Y-117326984D01*
X182517466Y-117467658D01*
X182422821Y-117631588D01*
X182422818Y-117631595D01*
X182364327Y-117811613D01*
X182364326Y-117811617D01*
X182344540Y-117999873D01*
X182364326Y-118188129D01*
X182364327Y-118188132D01*
X182422818Y-118368150D01*
X182422821Y-118368157D01*
X182517467Y-118532089D01*
X182541527Y-118558810D01*
X182592650Y-118615588D01*
X182622880Y-118678579D01*
X182624500Y-118698560D01*
X182624500Y-120916628D01*
X182604815Y-120983667D01*
X182588181Y-121004309D01*
X180004437Y-123588054D01*
X179943114Y-123621539D01*
X179916756Y-123624373D01*
X173809452Y-123624373D01*
X173742413Y-123604688D01*
X173696658Y-123551884D01*
X173686714Y-123482726D01*
X173715739Y-123419170D01*
X173721771Y-123412692D01*
X174194174Y-122940289D01*
X174898450Y-122940289D01*
X175048147Y-123089986D01*
X175403115Y-122735018D01*
X176107392Y-122735018D01*
X176462360Y-123089986D01*
X176817328Y-122735018D01*
X177521606Y-122735018D01*
X177876574Y-123089986D01*
X178231542Y-122735018D01*
X178935819Y-122735018D01*
X179290787Y-123089986D01*
X179645755Y-122735018D01*
X179290787Y-122380050D01*
X178935819Y-122735018D01*
X178231542Y-122735018D01*
X177876574Y-122380050D01*
X177521606Y-122735018D01*
X176817328Y-122735018D01*
X176462360Y-122380050D01*
X176107392Y-122735018D01*
X175403115Y-122735018D01*
X175286759Y-122618662D01*
X175202077Y-122636662D01*
X174898450Y-122940289D01*
X174194174Y-122940289D01*
X174947771Y-122186692D01*
X175009094Y-122153207D01*
X175035452Y-122150373D01*
X175094644Y-122150373D01*
X175094646Y-122150373D01*
X175279803Y-122111017D01*
X175452730Y-122034024D01*
X175461144Y-122027911D01*
X176814499Y-122027911D01*
X177169467Y-122382879D01*
X177524435Y-122027911D01*
X178228712Y-122027911D01*
X178583680Y-122382879D01*
X178938649Y-122027911D01*
X179642926Y-122027911D01*
X179997894Y-122382879D01*
X180352862Y-122027911D01*
X179997894Y-121672943D01*
X179642926Y-122027911D01*
X178938649Y-122027911D01*
X178583680Y-121672942D01*
X178228712Y-122027911D01*
X177524435Y-122027911D01*
X177169467Y-121672943D01*
X176814499Y-122027911D01*
X175461144Y-122027911D01*
X175605871Y-121922761D01*
X175732533Y-121782089D01*
X175827179Y-121618157D01*
X175840422Y-121577398D01*
X176363986Y-121577398D01*
X176462360Y-121675772D01*
X176817328Y-121320804D01*
X177521606Y-121320804D01*
X177876574Y-121675772D01*
X178231542Y-121320804D01*
X178935819Y-121320804D01*
X179290787Y-121675772D01*
X179645755Y-121320804D01*
X180350033Y-121320804D01*
X180705001Y-121675772D01*
X181059969Y-121320804D01*
X180705001Y-120965836D01*
X180350033Y-121320804D01*
X179645755Y-121320804D01*
X179290787Y-120965836D01*
X178935819Y-121320804D01*
X178231542Y-121320804D01*
X177876574Y-120965836D01*
X177521606Y-121320804D01*
X176817328Y-121320804D01*
X176462359Y-120965835D01*
X176384529Y-121043665D01*
X176402096Y-121210792D01*
X176402605Y-121217267D01*
X176403290Y-121230342D01*
X176403460Y-121236829D01*
X176403460Y-121262917D01*
X176403290Y-121269404D01*
X176402605Y-121282479D01*
X176402096Y-121288954D01*
X176379582Y-121503156D01*
X176378735Y-121509588D01*
X176376688Y-121522515D01*
X176375505Y-121528899D01*
X176370081Y-121554420D01*
X176368567Y-121560728D01*
X176365178Y-121573379D01*
X176363986Y-121577398D01*
X175840422Y-121577398D01*
X175885674Y-121438129D01*
X175905460Y-121249873D01*
X175885674Y-121061617D01*
X175827179Y-120881589D01*
X175732533Y-120717657D01*
X175638928Y-120613698D01*
X176814499Y-120613698D01*
X177169467Y-120968666D01*
X177524435Y-120613698D01*
X178228712Y-120613698D01*
X178583680Y-120968666D01*
X178938649Y-120613698D01*
X179642926Y-120613698D01*
X179997894Y-120968666D01*
X180352862Y-120613698D01*
X181057140Y-120613698D01*
X181412108Y-120968666D01*
X181767076Y-120613698D01*
X181412108Y-120258730D01*
X181057140Y-120613698D01*
X180352862Y-120613698D01*
X179997894Y-120258730D01*
X179642926Y-120613698D01*
X178938649Y-120613698D01*
X178583680Y-120258729D01*
X178228712Y-120613698D01*
X177524435Y-120613698D01*
X177169467Y-120258730D01*
X176814499Y-120613698D01*
X175638928Y-120613698D01*
X175605871Y-120576985D01*
X175601420Y-120573751D01*
X175452734Y-120465724D01*
X175452729Y-120465721D01*
X175279807Y-120388730D01*
X175279802Y-120388728D01*
X175134001Y-120357738D01*
X175094646Y-120349373D01*
X174905354Y-120349373D01*
X174872897Y-120356271D01*
X174720197Y-120388728D01*
X174720192Y-120388730D01*
X174547270Y-120465721D01*
X174547265Y-120465724D01*
X174394129Y-120576984D01*
X174267466Y-120717658D01*
X174172821Y-120881588D01*
X174172818Y-120881595D01*
X174120159Y-121043665D01*
X174114326Y-121061617D01*
X174106405Y-121136978D01*
X174096678Y-121229524D01*
X174070093Y-121294139D01*
X174061038Y-121304243D01*
X172277229Y-123088054D01*
X172215906Y-123121539D01*
X172189548Y-123124373D01*
X162189129Y-123124373D01*
X162122090Y-123104688D01*
X162099388Y-123085944D01*
X161441802Y-122396281D01*
X162303993Y-122396281D01*
X162523383Y-122626373D01*
X162566548Y-122626373D01*
X163488115Y-122626373D01*
X163980761Y-122626373D01*
X164902329Y-122626373D01*
X165394975Y-122626373D01*
X166316542Y-122626373D01*
X166809188Y-122626373D01*
X167730756Y-122626373D01*
X168223402Y-122626373D01*
X169144969Y-122626373D01*
X169637615Y-122626373D01*
X170559183Y-122626373D01*
X171051829Y-122626373D01*
X171973396Y-122626373D01*
X172034632Y-122626373D01*
X172250336Y-122410667D01*
X172219719Y-122380049D01*
X171973396Y-122626373D01*
X171051829Y-122626373D01*
X170805506Y-122380050D01*
X170559183Y-122626373D01*
X169637615Y-122626373D01*
X169391292Y-122380050D01*
X169144969Y-122626373D01*
X168223402Y-122626373D01*
X167977079Y-122380050D01*
X167730756Y-122626373D01*
X166809188Y-122626373D01*
X166562865Y-122380050D01*
X166316542Y-122626373D01*
X165394975Y-122626373D01*
X165148652Y-122380050D01*
X164902329Y-122626373D01*
X163980761Y-122626373D01*
X163734438Y-122380050D01*
X163488115Y-122626373D01*
X162566548Y-122626373D01*
X162320224Y-122380049D01*
X162303993Y-122396281D01*
X161441802Y-122396281D01*
X160776316Y-121698332D01*
X161638507Y-121698332D01*
X161960238Y-122035757D01*
X161968084Y-122027911D01*
X162672363Y-122027911D01*
X163027331Y-122382879D01*
X163382299Y-122027911D01*
X164086577Y-122027911D01*
X164441545Y-122382879D01*
X164796513Y-122027911D01*
X165500790Y-122027911D01*
X165855758Y-122382879D01*
X166210726Y-122027911D01*
X166915004Y-122027911D01*
X167269972Y-122382879D01*
X167624940Y-122027911D01*
X168329217Y-122027911D01*
X168684185Y-122382879D01*
X169039154Y-122027911D01*
X169039153Y-122027910D01*
X169743430Y-122027910D01*
X170098399Y-122382879D01*
X170453367Y-122027911D01*
X171157645Y-122027911D01*
X171512613Y-122382879D01*
X171867581Y-122027911D01*
X171713670Y-121874000D01*
X171311556Y-121874000D01*
X171157645Y-122027911D01*
X170453367Y-122027911D01*
X170245016Y-121819560D01*
X170155336Y-121780501D01*
X170114059Y-121751273D01*
X170068762Y-121702578D01*
X169743430Y-122027910D01*
X169039153Y-122027910D01*
X168684185Y-121672942D01*
X168329217Y-122027911D01*
X167624940Y-122027911D01*
X167269972Y-121672943D01*
X166915004Y-122027911D01*
X166210726Y-122027911D01*
X165855758Y-121672942D01*
X165500790Y-122027911D01*
X164796513Y-122027911D01*
X164441545Y-121672943D01*
X164086577Y-122027911D01*
X163382299Y-122027911D01*
X163027331Y-121672943D01*
X162672363Y-122027911D01*
X161968084Y-122027911D01*
X161968085Y-122027910D01*
X161638507Y-121698332D01*
X160776316Y-121698332D01*
X160416347Y-121320804D01*
X161965256Y-121320804D01*
X162320224Y-121675772D01*
X162675193Y-121320804D01*
X163379470Y-121320804D01*
X163734438Y-121675772D01*
X164089406Y-121320804D01*
X164793684Y-121320804D01*
X165148652Y-121675772D01*
X165503620Y-121320804D01*
X166207897Y-121320804D01*
X166562865Y-121675772D01*
X166917833Y-121320804D01*
X167622111Y-121320804D01*
X167977079Y-121675772D01*
X168332047Y-121320804D01*
X168332046Y-121320803D01*
X169036323Y-121320803D01*
X169391291Y-121675771D01*
X169729350Y-121337712D01*
X169387213Y-120969913D01*
X169036323Y-121320803D01*
X168332046Y-121320803D01*
X167977079Y-120965836D01*
X167622111Y-121320804D01*
X166917833Y-121320804D01*
X166562865Y-120965836D01*
X166207897Y-121320804D01*
X165503620Y-121320804D01*
X165148652Y-120965836D01*
X164793684Y-121320804D01*
X164089406Y-121320804D01*
X163734438Y-120965836D01*
X163379470Y-121320804D01*
X162675193Y-121320804D01*
X162320224Y-120965835D01*
X161965256Y-121320804D01*
X160416347Y-121320804D01*
X159742130Y-120613698D01*
X161258150Y-120613698D01*
X161613118Y-120968666D01*
X161968086Y-120613698D01*
X162672363Y-120613698D01*
X163027331Y-120968666D01*
X163382299Y-120613698D01*
X164086577Y-120613698D01*
X164441545Y-120968666D01*
X164796513Y-120613698D01*
X165500790Y-120613698D01*
X165855758Y-120968666D01*
X166210726Y-120613698D01*
X166915004Y-120613698D01*
X167269972Y-120968666D01*
X167624940Y-120613698D01*
X168329217Y-120613698D01*
X168684185Y-120968666D01*
X169039154Y-120613698D01*
X168684185Y-120258729D01*
X168329217Y-120613698D01*
X167624940Y-120613698D01*
X167269972Y-120258730D01*
X166915004Y-120613698D01*
X166210726Y-120613698D01*
X165855758Y-120258729D01*
X165500790Y-120613698D01*
X164796513Y-120613698D01*
X164441545Y-120258730D01*
X164086577Y-120613698D01*
X163382299Y-120613698D01*
X163027331Y-120258730D01*
X162672363Y-120613698D01*
X161968086Y-120613698D01*
X161613118Y-120258730D01*
X161258150Y-120613698D01*
X159742130Y-120613698D01*
X159067912Y-119906591D01*
X160551043Y-119906591D01*
X160906011Y-120261559D01*
X161260979Y-119906591D01*
X161965256Y-119906591D01*
X162320224Y-120261559D01*
X162675193Y-119906591D01*
X163379470Y-119906591D01*
X163734438Y-120261559D01*
X164089406Y-119906591D01*
X164793684Y-119906591D01*
X165148652Y-120261559D01*
X165503620Y-119906591D01*
X166207897Y-119906591D01*
X166562865Y-120261559D01*
X166917833Y-119906591D01*
X167622111Y-119906591D01*
X167977079Y-120261559D01*
X168332047Y-119906591D01*
X167977079Y-119551623D01*
X167622111Y-119906591D01*
X166917833Y-119906591D01*
X166562865Y-119551623D01*
X166207897Y-119906591D01*
X165503620Y-119906591D01*
X165148652Y-119551623D01*
X164793684Y-119906591D01*
X164089406Y-119906591D01*
X163734438Y-119551623D01*
X163379470Y-119906591D01*
X162675193Y-119906591D01*
X162320224Y-119551622D01*
X161965256Y-119906591D01*
X161260979Y-119906591D01*
X160906011Y-119551623D01*
X160551043Y-119906591D01*
X159067912Y-119906591D01*
X158393694Y-119199484D01*
X159843936Y-119199484D01*
X160198904Y-119554452D01*
X160553872Y-119199484D01*
X161258150Y-119199484D01*
X161613118Y-119554452D01*
X161968086Y-119199484D01*
X162672363Y-119199484D01*
X163027331Y-119554452D01*
X163382299Y-119199484D01*
X164086577Y-119199484D01*
X164441545Y-119554452D01*
X164796513Y-119199484D01*
X165500790Y-119199484D01*
X165855758Y-119554452D01*
X166210726Y-119199484D01*
X166915004Y-119199484D01*
X167269972Y-119554452D01*
X167624940Y-119199484D01*
X167269972Y-118844516D01*
X166915004Y-119199484D01*
X166210726Y-119199484D01*
X165855758Y-118844515D01*
X165500790Y-119199484D01*
X164796513Y-119199484D01*
X164441545Y-118844516D01*
X164086577Y-119199484D01*
X163382299Y-119199484D01*
X163027331Y-118844516D01*
X162672363Y-119199484D01*
X161968086Y-119199484D01*
X161613118Y-118844516D01*
X161258150Y-119199484D01*
X160553872Y-119199484D01*
X160198904Y-118844516D01*
X159843936Y-119199484D01*
X158393694Y-119199484D01*
X157719476Y-118492377D01*
X159136829Y-118492377D01*
X159491797Y-118847345D01*
X159846765Y-118492377D01*
X160551043Y-118492377D01*
X160906011Y-118847345D01*
X161260979Y-118492377D01*
X161965256Y-118492377D01*
X162320224Y-118847345D01*
X162675193Y-118492377D01*
X163379470Y-118492377D01*
X163734438Y-118847345D01*
X164089406Y-118492377D01*
X164793684Y-118492377D01*
X165148652Y-118847345D01*
X165503620Y-118492377D01*
X166207897Y-118492377D01*
X166562865Y-118847345D01*
X166917833Y-118492377D01*
X166562865Y-118137409D01*
X166207897Y-118492377D01*
X165503620Y-118492377D01*
X165148652Y-118137409D01*
X164793684Y-118492377D01*
X164089406Y-118492377D01*
X163734438Y-118137409D01*
X163379470Y-118492377D01*
X162675193Y-118492377D01*
X162320224Y-118137408D01*
X161965256Y-118492377D01*
X161260979Y-118492377D01*
X160906011Y-118137409D01*
X160551043Y-118492377D01*
X159846765Y-118492377D01*
X159491797Y-118137408D01*
X159136829Y-118492377D01*
X157719476Y-118492377D01*
X157354140Y-118109220D01*
X157250000Y-117999873D01*
X151949692Y-117999873D01*
X151948511Y-118000000D01*
X148051493Y-118000000D01*
X148051077Y-117999877D01*
X142575660Y-117999366D01*
X142575000Y-117999366D01*
X142574999Y-117999366D01*
X141374011Y-117999472D01*
X141306970Y-117979793D01*
X141261210Y-117926993D01*
X141250000Y-117875472D01*
X141250000Y-117785270D01*
X158429722Y-117785270D01*
X158784691Y-118140239D01*
X159139659Y-117785270D01*
X159843935Y-117785270D01*
X160198904Y-118140239D01*
X160553872Y-117785270D01*
X161258149Y-117785270D01*
X161613118Y-118140239D01*
X161968086Y-117785270D01*
X162672362Y-117785270D01*
X163027331Y-118140239D01*
X163382299Y-117785270D01*
X164086576Y-117785270D01*
X164441545Y-118140239D01*
X164796513Y-117785270D01*
X165500789Y-117785270D01*
X165855758Y-118140239D01*
X166210726Y-117785270D01*
X165855758Y-117430302D01*
X165500789Y-117785270D01*
X164796513Y-117785270D01*
X164441545Y-117430302D01*
X164086576Y-117785270D01*
X163382299Y-117785270D01*
X163027331Y-117430302D01*
X162672362Y-117785270D01*
X161968086Y-117785270D01*
X161613118Y-117430302D01*
X161258149Y-117785270D01*
X160553872Y-117785270D01*
X160198904Y-117430302D01*
X159843935Y-117785270D01*
X159139659Y-117785270D01*
X158784691Y-117430302D01*
X158429722Y-117785270D01*
X141250000Y-117785270D01*
X141250000Y-117078164D01*
X142166267Y-117078164D01*
X142464103Y-117376000D01*
X142578367Y-117376000D01*
X142876203Y-117078164D01*
X143580480Y-117078164D01*
X143878316Y-117376000D01*
X143992580Y-117376000D01*
X144290416Y-117078164D01*
X144994694Y-117078164D01*
X145292530Y-117376000D01*
X145406794Y-117376000D01*
X145704630Y-117078164D01*
X146408907Y-117078164D01*
X146706743Y-117376000D01*
X146821007Y-117376000D01*
X147118843Y-117078164D01*
X147823121Y-117078164D01*
X148120957Y-117376000D01*
X148235221Y-117376000D01*
X148533057Y-117078164D01*
X149237334Y-117078164D01*
X149535170Y-117376000D01*
X149649434Y-117376000D01*
X149947269Y-117078164D01*
X150651548Y-117078164D01*
X150949384Y-117376000D01*
X151063648Y-117376000D01*
X151361484Y-117078164D01*
X152065762Y-117078164D01*
X152363598Y-117376000D01*
X152477862Y-117376000D01*
X152775698Y-117078164D01*
X153479975Y-117078164D01*
X153777811Y-117376000D01*
X153892075Y-117376000D01*
X154189911Y-117078164D01*
X154894189Y-117078164D01*
X155192025Y-117376000D01*
X155306289Y-117376000D01*
X155604125Y-117078164D01*
X156308402Y-117078164D01*
X156606238Y-117376000D01*
X156720502Y-117376000D01*
X157018338Y-117078164D01*
X157722616Y-117078164D01*
X158077584Y-117433132D01*
X158432552Y-117078164D01*
X159136829Y-117078164D01*
X159491797Y-117433132D01*
X159846765Y-117078164D01*
X160551043Y-117078164D01*
X160906011Y-117433132D01*
X161260979Y-117078164D01*
X161965256Y-117078164D01*
X162320224Y-117433132D01*
X162675193Y-117078164D01*
X163379470Y-117078164D01*
X163734438Y-117433132D01*
X164089406Y-117078164D01*
X164793684Y-117078164D01*
X165148652Y-117433132D01*
X165503620Y-117078164D01*
X165148652Y-116723196D01*
X164793684Y-117078164D01*
X164089406Y-117078164D01*
X163734438Y-116723196D01*
X163379470Y-117078164D01*
X162675193Y-117078164D01*
X162320224Y-116723195D01*
X161965256Y-117078164D01*
X161260979Y-117078164D01*
X160906011Y-116723196D01*
X160551043Y-117078164D01*
X159846765Y-117078164D01*
X159491797Y-116723195D01*
X159136829Y-117078164D01*
X158432552Y-117078164D01*
X158077584Y-116723196D01*
X157722616Y-117078164D01*
X157018338Y-117078164D01*
X156663370Y-116723196D01*
X156308402Y-117078164D01*
X155604125Y-117078164D01*
X155249157Y-116723196D01*
X154894189Y-117078164D01*
X154189911Y-117078164D01*
X153834943Y-116723196D01*
X153479975Y-117078164D01*
X152775698Y-117078164D01*
X152420730Y-116723196D01*
X152065762Y-117078164D01*
X151361484Y-117078164D01*
X151006516Y-116723196D01*
X150651548Y-117078164D01*
X149947269Y-117078164D01*
X149947270Y-117078163D01*
X149592302Y-116723195D01*
X149237334Y-117078164D01*
X148533057Y-117078164D01*
X148178089Y-116723196D01*
X147823121Y-117078164D01*
X147118843Y-117078164D01*
X146763875Y-116723196D01*
X146408907Y-117078164D01*
X145704630Y-117078164D01*
X145349662Y-116723196D01*
X144994694Y-117078164D01*
X144290416Y-117078164D01*
X143935448Y-116723196D01*
X143580480Y-117078164D01*
X142876203Y-117078164D01*
X142521235Y-116723196D01*
X142166267Y-117078164D01*
X141250000Y-117078164D01*
X141250000Y-116666153D01*
X141874000Y-116666153D01*
X142169096Y-116371057D01*
X142873373Y-116371057D01*
X143228341Y-116726025D01*
X143583309Y-116371057D01*
X144287587Y-116371057D01*
X144642555Y-116726025D01*
X144997523Y-116371057D01*
X145701800Y-116371057D01*
X146056768Y-116726025D01*
X146411737Y-116371057D01*
X147116014Y-116371057D01*
X147470982Y-116726025D01*
X147825950Y-116371057D01*
X148530228Y-116371057D01*
X148885196Y-116726025D01*
X149240164Y-116371057D01*
X149944441Y-116371057D01*
X150299409Y-116726025D01*
X150654377Y-116371057D01*
X151358655Y-116371057D01*
X151713623Y-116726025D01*
X152068591Y-116371057D01*
X152772868Y-116371057D01*
X153127836Y-116726025D01*
X153482804Y-116371057D01*
X154187082Y-116371057D01*
X154542050Y-116726025D01*
X154897018Y-116371057D01*
X155601295Y-116371057D01*
X155956263Y-116726025D01*
X156311232Y-116371057D01*
X157015509Y-116371057D01*
X157370477Y-116726025D01*
X157725445Y-116371057D01*
X158429723Y-116371057D01*
X158784691Y-116726025D01*
X159139659Y-116371057D01*
X159843936Y-116371057D01*
X160198904Y-116726025D01*
X160553872Y-116371057D01*
X161258150Y-116371057D01*
X161613118Y-116726025D01*
X161968086Y-116371057D01*
X162672363Y-116371057D01*
X163027331Y-116726025D01*
X163382299Y-116371057D01*
X164086577Y-116371057D01*
X164441545Y-116726025D01*
X164796513Y-116371057D01*
X164441545Y-116016089D01*
X164086577Y-116371057D01*
X163382299Y-116371057D01*
X163027331Y-116016089D01*
X162672363Y-116371057D01*
X161968086Y-116371057D01*
X161613118Y-116016089D01*
X161258150Y-116371057D01*
X160553872Y-116371057D01*
X160198904Y-116016089D01*
X159843936Y-116371057D01*
X159139659Y-116371057D01*
X158784691Y-116016089D01*
X158429723Y-116371057D01*
X157725445Y-116371057D01*
X157370477Y-116016089D01*
X157015509Y-116371057D01*
X156311232Y-116371057D01*
X155956263Y-116016088D01*
X155601295Y-116371057D01*
X154897018Y-116371057D01*
X154542050Y-116016089D01*
X154187082Y-116371057D01*
X153482804Y-116371057D01*
X153127836Y-116016089D01*
X152772868Y-116371057D01*
X152068591Y-116371057D01*
X151713623Y-116016089D01*
X151358655Y-116371057D01*
X150654377Y-116371057D01*
X150299409Y-116016089D01*
X149944441Y-116371057D01*
X149240164Y-116371057D01*
X148885196Y-116016089D01*
X148530228Y-116371057D01*
X147825950Y-116371057D01*
X147470982Y-116016089D01*
X147116014Y-116371057D01*
X146411737Y-116371057D01*
X146056768Y-116016088D01*
X145701800Y-116371057D01*
X144997523Y-116371057D01*
X144642555Y-116016089D01*
X144287587Y-116371057D01*
X143583309Y-116371057D01*
X143228341Y-116016088D01*
X142873373Y-116371057D01*
X142169096Y-116371057D01*
X141874000Y-116075961D01*
X141874000Y-116666153D01*
X141250000Y-116666153D01*
X141250000Y-115663950D01*
X142166267Y-115663950D01*
X142521235Y-116018918D01*
X142876203Y-115663950D01*
X143580480Y-115663950D01*
X143935448Y-116018918D01*
X144290416Y-115663950D01*
X144994694Y-115663950D01*
X145349662Y-116018918D01*
X145704630Y-115663950D01*
X146408907Y-115663950D01*
X146763875Y-116018918D01*
X147118843Y-115663950D01*
X147823121Y-115663950D01*
X148178089Y-116018918D01*
X148533057Y-115663950D01*
X149237334Y-115663950D01*
X149592302Y-116018918D01*
X149947270Y-115663950D01*
X150651548Y-115663950D01*
X151006516Y-116018918D01*
X151361484Y-115663950D01*
X152065762Y-115663950D01*
X152420730Y-116018918D01*
X152775698Y-115663950D01*
X153479975Y-115663950D01*
X153834943Y-116018918D01*
X154189911Y-115663950D01*
X154894189Y-115663950D01*
X155249157Y-116018918D01*
X155604125Y-115663950D01*
X156308402Y-115663950D01*
X156663370Y-116018918D01*
X157018338Y-115663950D01*
X157722616Y-115663950D01*
X158077584Y-116018918D01*
X158432552Y-115663950D01*
X159136829Y-115663950D01*
X159491797Y-116018918D01*
X159846765Y-115663950D01*
X160551043Y-115663950D01*
X160906011Y-116018918D01*
X161260979Y-115663950D01*
X161965256Y-115663950D01*
X162320224Y-116018918D01*
X162675193Y-115663950D01*
X163379470Y-115663950D01*
X163734438Y-116018918D01*
X164089406Y-115663950D01*
X163734438Y-115308982D01*
X163379470Y-115663950D01*
X162675193Y-115663950D01*
X162320224Y-115308981D01*
X161965256Y-115663950D01*
X161260979Y-115663950D01*
X160906011Y-115308982D01*
X160551043Y-115663950D01*
X159846765Y-115663950D01*
X159491797Y-115308981D01*
X159136829Y-115663950D01*
X158432552Y-115663950D01*
X158077584Y-115308982D01*
X157722616Y-115663950D01*
X157018338Y-115663950D01*
X156663370Y-115308982D01*
X156308402Y-115663950D01*
X155604125Y-115663950D01*
X155249157Y-115308982D01*
X154894189Y-115663950D01*
X154189911Y-115663950D01*
X153834943Y-115308982D01*
X153479975Y-115663950D01*
X152775698Y-115663950D01*
X152420730Y-115308982D01*
X152065762Y-115663950D01*
X151361484Y-115663950D01*
X151006516Y-115308982D01*
X150651548Y-115663950D01*
X149947270Y-115663950D01*
X149592302Y-115308981D01*
X149237334Y-115663950D01*
X148533057Y-115663950D01*
X148178089Y-115308982D01*
X147823121Y-115663950D01*
X147118843Y-115663950D01*
X146763875Y-115308982D01*
X146408907Y-115663950D01*
X145704630Y-115663950D01*
X145349662Y-115308982D01*
X144994694Y-115663950D01*
X144290416Y-115663950D01*
X143935448Y-115308982D01*
X143580480Y-115663950D01*
X142876203Y-115663950D01*
X142521235Y-115308982D01*
X142166267Y-115663950D01*
X141250000Y-115663950D01*
X141250000Y-115251939D01*
X141874000Y-115251939D01*
X142169096Y-114956843D01*
X142873373Y-114956843D01*
X143228341Y-115311811D01*
X143583309Y-114956843D01*
X144287587Y-114956843D01*
X144642555Y-115311811D01*
X144997523Y-114956843D01*
X145701800Y-114956843D01*
X146056768Y-115311811D01*
X146411737Y-114956843D01*
X147116014Y-114956843D01*
X147470982Y-115311811D01*
X147825950Y-114956843D01*
X148530228Y-114956843D01*
X148885196Y-115311811D01*
X149240164Y-114956843D01*
X149944441Y-114956843D01*
X150299409Y-115311811D01*
X150654377Y-114956843D01*
X151358655Y-114956843D01*
X151713623Y-115311811D01*
X152068591Y-114956843D01*
X152772868Y-114956843D01*
X153127836Y-115311811D01*
X153482804Y-114956843D01*
X154187082Y-114956843D01*
X154542050Y-115311811D01*
X154897018Y-114956843D01*
X155601295Y-114956843D01*
X155956263Y-115311811D01*
X156311232Y-114956843D01*
X157015509Y-114956843D01*
X157370477Y-115311811D01*
X157725445Y-114956843D01*
X158429723Y-114956843D01*
X158784691Y-115311811D01*
X159139659Y-114956843D01*
X159843936Y-114956843D01*
X160198904Y-115311811D01*
X160553872Y-114956843D01*
X161258150Y-114956843D01*
X161613118Y-115311811D01*
X161968086Y-114956843D01*
X162672363Y-114956843D01*
X163027331Y-115311811D01*
X163382299Y-114956843D01*
X163027331Y-114601875D01*
X162672363Y-114956843D01*
X161968086Y-114956843D01*
X161613118Y-114601875D01*
X161258150Y-114956843D01*
X160553872Y-114956843D01*
X160198904Y-114601875D01*
X159843936Y-114956843D01*
X159139659Y-114956843D01*
X158784691Y-114601875D01*
X158429723Y-114956843D01*
X157725445Y-114956843D01*
X157370477Y-114601875D01*
X157015509Y-114956843D01*
X156311232Y-114956843D01*
X155956263Y-114601874D01*
X155601295Y-114956843D01*
X154897018Y-114956843D01*
X154542050Y-114601875D01*
X154187082Y-114956843D01*
X153482804Y-114956843D01*
X153127836Y-114601875D01*
X152772868Y-114956843D01*
X152068591Y-114956843D01*
X151713623Y-114601875D01*
X151358655Y-114956843D01*
X150654377Y-114956843D01*
X150299409Y-114601875D01*
X149944441Y-114956843D01*
X149240164Y-114956843D01*
X148885196Y-114601875D01*
X148530228Y-114956843D01*
X147825950Y-114956843D01*
X147470982Y-114601875D01*
X147116014Y-114956843D01*
X146411737Y-114956843D01*
X146056768Y-114601874D01*
X145701800Y-114956843D01*
X144997523Y-114956843D01*
X144642555Y-114601875D01*
X144287587Y-114956843D01*
X143583309Y-114956843D01*
X143228341Y-114601874D01*
X142873373Y-114956843D01*
X142169096Y-114956843D01*
X141874000Y-114661747D01*
X141874000Y-115251939D01*
X141250000Y-115251939D01*
X141250000Y-114249737D01*
X142166267Y-114249737D01*
X142521235Y-114604705D01*
X142876203Y-114249737D01*
X143580480Y-114249737D01*
X143935448Y-114604705D01*
X144290416Y-114249737D01*
X144994694Y-114249737D01*
X145349662Y-114604705D01*
X145704630Y-114249737D01*
X146408907Y-114249737D01*
X146763875Y-114604705D01*
X147118843Y-114249737D01*
X147823121Y-114249737D01*
X148178089Y-114604705D01*
X148533057Y-114249737D01*
X149237334Y-114249737D01*
X149592302Y-114604705D01*
X149947270Y-114249737D01*
X150651548Y-114249737D01*
X151006516Y-114604705D01*
X151361484Y-114249737D01*
X152065762Y-114249737D01*
X152420730Y-114604705D01*
X152775698Y-114249737D01*
X153479975Y-114249737D01*
X153834943Y-114604705D01*
X154189911Y-114249737D01*
X154894189Y-114249737D01*
X155249157Y-114604705D01*
X155604125Y-114249737D01*
X156308402Y-114249737D01*
X156663370Y-114604705D01*
X157018338Y-114249737D01*
X157722616Y-114249737D01*
X158077584Y-114604705D01*
X158432552Y-114249737D01*
X159136829Y-114249737D01*
X159491797Y-114604705D01*
X159846765Y-114249737D01*
X160551043Y-114249737D01*
X160906011Y-114604705D01*
X161260979Y-114249737D01*
X161965256Y-114249737D01*
X162320224Y-114604705D01*
X162675193Y-114249737D01*
X162320224Y-113894768D01*
X161965256Y-114249737D01*
X161260979Y-114249737D01*
X160906011Y-113894769D01*
X160551043Y-114249737D01*
X159846765Y-114249737D01*
X159491797Y-113894768D01*
X159136829Y-114249737D01*
X158432552Y-114249737D01*
X158077584Y-113894769D01*
X157722616Y-114249737D01*
X157018338Y-114249737D01*
X156663370Y-113894769D01*
X156308402Y-114249737D01*
X155604125Y-114249737D01*
X155249157Y-113894769D01*
X154894189Y-114249737D01*
X154189911Y-114249737D01*
X153834943Y-113894769D01*
X153479975Y-114249737D01*
X152775698Y-114249737D01*
X152420730Y-113894769D01*
X152065762Y-114249737D01*
X151361484Y-114249737D01*
X151006516Y-113894769D01*
X150651548Y-114249737D01*
X149947270Y-114249737D01*
X149592302Y-113894768D01*
X149237334Y-114249737D01*
X148533057Y-114249737D01*
X148178089Y-113894769D01*
X147823121Y-114249737D01*
X147118843Y-114249737D01*
X146763875Y-113894769D01*
X146408907Y-114249737D01*
X145704630Y-114249737D01*
X145349662Y-113894769D01*
X144994694Y-114249737D01*
X144290416Y-114249737D01*
X143935448Y-113894769D01*
X143580480Y-114249737D01*
X142876203Y-114249737D01*
X142521235Y-113894769D01*
X142166267Y-114249737D01*
X141250000Y-114249737D01*
X141250000Y-113837726D01*
X141874000Y-113837726D01*
X142169096Y-113542630D01*
X142873373Y-113542630D01*
X143228341Y-113897598D01*
X143583309Y-113542630D01*
X144287587Y-113542630D01*
X144642555Y-113897598D01*
X144997523Y-113542630D01*
X145701800Y-113542630D01*
X146056768Y-113897598D01*
X146411737Y-113542630D01*
X147116014Y-113542630D01*
X147470982Y-113897598D01*
X147825950Y-113542630D01*
X148530228Y-113542630D01*
X148885196Y-113897598D01*
X149240164Y-113542630D01*
X149944441Y-113542630D01*
X150299409Y-113897598D01*
X150654377Y-113542630D01*
X151358655Y-113542630D01*
X151713623Y-113897598D01*
X152068591Y-113542630D01*
X152772868Y-113542630D01*
X153127836Y-113897598D01*
X153482804Y-113542630D01*
X154187082Y-113542630D01*
X154542050Y-113897598D01*
X154897018Y-113542630D01*
X155601295Y-113542630D01*
X155956263Y-113897598D01*
X156311232Y-113542630D01*
X157015509Y-113542630D01*
X157370477Y-113897598D01*
X157725445Y-113542630D01*
X158429723Y-113542630D01*
X158784691Y-113897598D01*
X159139659Y-113542630D01*
X159843936Y-113542630D01*
X160198904Y-113897598D01*
X160553872Y-113542630D01*
X161258150Y-113542630D01*
X161613118Y-113897598D01*
X161968086Y-113542630D01*
X161613118Y-113187662D01*
X161258150Y-113542630D01*
X160553872Y-113542630D01*
X160198904Y-113187662D01*
X159843936Y-113542630D01*
X159139659Y-113542630D01*
X158784691Y-113187662D01*
X158429723Y-113542630D01*
X157725445Y-113542630D01*
X157370477Y-113187662D01*
X157015509Y-113542630D01*
X156311232Y-113542630D01*
X155956263Y-113187661D01*
X155601295Y-113542630D01*
X154897018Y-113542630D01*
X154542050Y-113187662D01*
X154187082Y-113542630D01*
X153482804Y-113542630D01*
X153127836Y-113187662D01*
X152772868Y-113542630D01*
X152068591Y-113542630D01*
X151713623Y-113187662D01*
X151358655Y-113542630D01*
X150654377Y-113542630D01*
X150299409Y-113187662D01*
X149944441Y-113542630D01*
X149240164Y-113542630D01*
X148885196Y-113187662D01*
X148530228Y-113542630D01*
X147825950Y-113542630D01*
X147470982Y-113187662D01*
X147116014Y-113542630D01*
X146411737Y-113542630D01*
X146056768Y-113187661D01*
X145701800Y-113542630D01*
X144997523Y-113542630D01*
X144642555Y-113187662D01*
X144287587Y-113542630D01*
X143583309Y-113542630D01*
X143228341Y-113187661D01*
X142873373Y-113542630D01*
X142169096Y-113542630D01*
X141874000Y-113247534D01*
X141874000Y-113837726D01*
X141250000Y-113837726D01*
X141250000Y-112835523D01*
X142166267Y-112835523D01*
X142521235Y-113190491D01*
X142876203Y-112835523D01*
X143580480Y-112835523D01*
X143935448Y-113190491D01*
X144290416Y-112835523D01*
X144994694Y-112835523D01*
X145349662Y-113190491D01*
X145704630Y-112835523D01*
X146408907Y-112835523D01*
X146763875Y-113190491D01*
X147118843Y-112835523D01*
X147823121Y-112835523D01*
X148178089Y-113190491D01*
X148533057Y-112835523D01*
X149237334Y-112835523D01*
X149592302Y-113190491D01*
X149947270Y-112835523D01*
X150651548Y-112835523D01*
X151006516Y-113190491D01*
X151361484Y-112835523D01*
X152065762Y-112835523D01*
X152420730Y-113190491D01*
X152775698Y-112835523D01*
X153479975Y-112835523D01*
X153834943Y-113190491D01*
X154189911Y-112835523D01*
X154894189Y-112835523D01*
X155249157Y-113190491D01*
X155604125Y-112835523D01*
X156308402Y-112835523D01*
X156663370Y-113190491D01*
X157018338Y-112835523D01*
X157722616Y-112835523D01*
X158077584Y-113190491D01*
X158432552Y-112835523D01*
X159136829Y-112835523D01*
X159491797Y-113190491D01*
X159846765Y-112835523D01*
X160551043Y-112835523D01*
X160906011Y-113190491D01*
X161260979Y-112835523D01*
X160906011Y-112480555D01*
X160551043Y-112835523D01*
X159846765Y-112835523D01*
X159491797Y-112480554D01*
X159136829Y-112835523D01*
X158432552Y-112835523D01*
X158077584Y-112480555D01*
X157722616Y-112835523D01*
X157018338Y-112835523D01*
X156663370Y-112480555D01*
X156308402Y-112835523D01*
X155604125Y-112835523D01*
X155249157Y-112480555D01*
X154894189Y-112835523D01*
X154189911Y-112835523D01*
X153834943Y-112480555D01*
X153479975Y-112835523D01*
X152775698Y-112835523D01*
X152420730Y-112480555D01*
X152065762Y-112835523D01*
X151361484Y-112835523D01*
X151006516Y-112480555D01*
X150651548Y-112835523D01*
X149947270Y-112835523D01*
X149592302Y-112480554D01*
X149237334Y-112835523D01*
X148533057Y-112835523D01*
X148178089Y-112480555D01*
X147823121Y-112835523D01*
X147118843Y-112835523D01*
X146763875Y-112480555D01*
X146408907Y-112835523D01*
X145704630Y-112835523D01*
X145349662Y-112480555D01*
X144994694Y-112835523D01*
X144290416Y-112835523D01*
X143935448Y-112480555D01*
X143580480Y-112835523D01*
X142876203Y-112835523D01*
X142521235Y-112480555D01*
X142166267Y-112835523D01*
X141250000Y-112835523D01*
X141250000Y-112423512D01*
X141874000Y-112423512D01*
X142169096Y-112128416D01*
X142873373Y-112128416D01*
X143228341Y-112483384D01*
X143583309Y-112128416D01*
X144287587Y-112128416D01*
X144642555Y-112483384D01*
X144997523Y-112128416D01*
X145701800Y-112128416D01*
X146056768Y-112483384D01*
X146411737Y-112128416D01*
X147116014Y-112128416D01*
X147470982Y-112483384D01*
X147825950Y-112128416D01*
X148530228Y-112128416D01*
X148885196Y-112483384D01*
X149240164Y-112128416D01*
X149944441Y-112128416D01*
X150299409Y-112483384D01*
X150654377Y-112128416D01*
X151358655Y-112128416D01*
X151713623Y-112483384D01*
X152068591Y-112128416D01*
X152772868Y-112128416D01*
X153127836Y-112483384D01*
X153482804Y-112128416D01*
X154187082Y-112128416D01*
X154542050Y-112483384D01*
X154897018Y-112128416D01*
X155601295Y-112128416D01*
X155956263Y-112483384D01*
X156311232Y-112128416D01*
X157015509Y-112128416D01*
X157370477Y-112483384D01*
X157725445Y-112128416D01*
X158429723Y-112128416D01*
X158784691Y-112483384D01*
X159139659Y-112128416D01*
X159843936Y-112128416D01*
X160198904Y-112483384D01*
X160553872Y-112128416D01*
X160198904Y-111773448D01*
X159843936Y-112128416D01*
X159139659Y-112128416D01*
X158784691Y-111773448D01*
X158429723Y-112128416D01*
X157725445Y-112128416D01*
X157370477Y-111773448D01*
X157015509Y-112128416D01*
X156311232Y-112128416D01*
X155956263Y-111773447D01*
X155601295Y-112128416D01*
X154897018Y-112128416D01*
X154542050Y-111773448D01*
X154187082Y-112128416D01*
X153482804Y-112128416D01*
X153127836Y-111773448D01*
X152772868Y-112128416D01*
X152068591Y-112128416D01*
X151713623Y-111773448D01*
X151358655Y-112128416D01*
X150654377Y-112128416D01*
X150299409Y-111773448D01*
X149944441Y-112128416D01*
X149240164Y-112128416D01*
X148885196Y-111773448D01*
X148530228Y-112128416D01*
X147825950Y-112128416D01*
X147470982Y-111773448D01*
X147116014Y-112128416D01*
X146411737Y-112128416D01*
X146056768Y-111773447D01*
X145701800Y-112128416D01*
X144997523Y-112128416D01*
X144642555Y-111773448D01*
X144287587Y-112128416D01*
X143583309Y-112128416D01*
X143228341Y-111773447D01*
X142873373Y-112128416D01*
X142169096Y-112128416D01*
X141874000Y-111833320D01*
X141874000Y-112423512D01*
X141250000Y-112423512D01*
X141250000Y-111421309D01*
X142166266Y-111421309D01*
X142521235Y-111776277D01*
X142876203Y-111421309D01*
X143580479Y-111421309D01*
X143935448Y-111776277D01*
X144290416Y-111421309D01*
X144994693Y-111421309D01*
X145349662Y-111776277D01*
X145704630Y-111421309D01*
X146408906Y-111421309D01*
X146763875Y-111776277D01*
X147118843Y-111421309D01*
X147823120Y-111421309D01*
X148178089Y-111776277D01*
X148533057Y-111421309D01*
X149237333Y-111421309D01*
X149592302Y-111776277D01*
X149947270Y-111421309D01*
X150651547Y-111421309D01*
X151006516Y-111776277D01*
X151361484Y-111421309D01*
X152065761Y-111421309D01*
X152420730Y-111776277D01*
X152775698Y-111421309D01*
X153479974Y-111421309D01*
X153834943Y-111776277D01*
X154189911Y-111421309D01*
X154894188Y-111421309D01*
X155249157Y-111776277D01*
X155604125Y-111421309D01*
X156308401Y-111421309D01*
X156663370Y-111776277D01*
X157018338Y-111421309D01*
X157722615Y-111421309D01*
X158077584Y-111776277D01*
X158432552Y-111421309D01*
X159136828Y-111421309D01*
X159491797Y-111776277D01*
X159846765Y-111421309D01*
X159549456Y-111124000D01*
X159434138Y-111124000D01*
X159136828Y-111421309D01*
X158432552Y-111421309D01*
X158135243Y-111124000D01*
X158019925Y-111124000D01*
X157722615Y-111421309D01*
X157018338Y-111421309D01*
X156721029Y-111124000D01*
X156605711Y-111124000D01*
X156308401Y-111421309D01*
X155604125Y-111421309D01*
X155306816Y-111124000D01*
X155191498Y-111124000D01*
X154894188Y-111421309D01*
X154189911Y-111421309D01*
X153892602Y-111124000D01*
X153777284Y-111124000D01*
X153479974Y-111421309D01*
X152775698Y-111421309D01*
X152478389Y-111124000D01*
X152363071Y-111124000D01*
X152065761Y-111421309D01*
X151361484Y-111421309D01*
X151064175Y-111124000D01*
X150948857Y-111124000D01*
X150651547Y-111421309D01*
X149947270Y-111421309D01*
X149649961Y-111124000D01*
X149534643Y-111124000D01*
X149237333Y-111421309D01*
X148533057Y-111421309D01*
X148235748Y-111124000D01*
X148120430Y-111124000D01*
X147823120Y-111421309D01*
X147118843Y-111421309D01*
X146821534Y-111124000D01*
X146706216Y-111124000D01*
X146408906Y-111421309D01*
X145704630Y-111421309D01*
X145407321Y-111124000D01*
X145292003Y-111124000D01*
X144994693Y-111421309D01*
X144290416Y-111421309D01*
X143993107Y-111124000D01*
X143877789Y-111124000D01*
X143580479Y-111421309D01*
X142876203Y-111421309D01*
X142578894Y-111124000D01*
X142463576Y-111124000D01*
X142166266Y-111421309D01*
X141250000Y-111421309D01*
X141250000Y-110624000D01*
X141269685Y-110556961D01*
X141322489Y-110511206D01*
X141374000Y-110500000D01*
X160445993Y-110500000D01*
X160513032Y-110519685D01*
X160536784Y-110539543D01*
X170481713Y-121230342D01*
X170500000Y-121250000D01*
X173250000Y-121250000D01*
X173250000Y-120021492D01*
X173874000Y-120021492D01*
X173988901Y-119906591D01*
X176107392Y-119906591D01*
X176462360Y-120261559D01*
X176817328Y-119906591D01*
X177521606Y-119906591D01*
X177876574Y-120261559D01*
X178231542Y-119906591D01*
X178935819Y-119906591D01*
X179290787Y-120261559D01*
X179645755Y-119906591D01*
X180350033Y-119906591D01*
X180705001Y-120261559D01*
X181059969Y-119906591D01*
X181764246Y-119906591D01*
X182119214Y-120261559D01*
X182126500Y-120254273D01*
X182126500Y-119558909D01*
X182119213Y-119551623D01*
X181764246Y-119906591D01*
X181059969Y-119906591D01*
X180705001Y-119551623D01*
X180350033Y-119906591D01*
X179645755Y-119906591D01*
X179290787Y-119551623D01*
X178935819Y-119906591D01*
X178231542Y-119906591D01*
X177876574Y-119551623D01*
X177521606Y-119906591D01*
X176817328Y-119906591D01*
X176462360Y-119551623D01*
X176107392Y-119906591D01*
X173988901Y-119906591D01*
X173961922Y-119879612D01*
X174720157Y-119879612D01*
X174814574Y-119859544D01*
X174820959Y-119858360D01*
X174833885Y-119856313D01*
X174840314Y-119855467D01*
X174866260Y-119852739D01*
X174872732Y-119852229D01*
X174885812Y-119851543D01*
X174892306Y-119851373D01*
X175107694Y-119851373D01*
X175114188Y-119851543D01*
X175127268Y-119852229D01*
X175133740Y-119852739D01*
X175159686Y-119855467D01*
X175166115Y-119856313D01*
X175179041Y-119858360D01*
X175185427Y-119859544D01*
X175396101Y-119904324D01*
X175402347Y-119905823D01*
X175048147Y-119551623D01*
X174720157Y-119879612D01*
X173961922Y-119879612D01*
X173874000Y-119791690D01*
X173874000Y-120021492D01*
X173250000Y-120021492D01*
X173250000Y-119199484D01*
X173986072Y-119199484D01*
X174341040Y-119554452D01*
X174696008Y-119199484D01*
X175400285Y-119199484D01*
X175755253Y-119554452D01*
X176110221Y-119199484D01*
X176814499Y-119199484D01*
X177169467Y-119554452D01*
X177524435Y-119199484D01*
X178228712Y-119199484D01*
X178583680Y-119554452D01*
X178938649Y-119199484D01*
X179642926Y-119199484D01*
X179997894Y-119554452D01*
X180352862Y-119199484D01*
X181057140Y-119199484D01*
X181412108Y-119554452D01*
X181767076Y-119199484D01*
X181412108Y-118844516D01*
X181057140Y-119199484D01*
X180352862Y-119199484D01*
X179997894Y-118844516D01*
X179642926Y-119199484D01*
X178938649Y-119199484D01*
X178583680Y-118844515D01*
X178228712Y-119199484D01*
X177524435Y-119199484D01*
X177169467Y-118844516D01*
X176814499Y-119199484D01*
X176110221Y-119199484D01*
X175755253Y-118844516D01*
X175400285Y-119199484D01*
X174696008Y-119199484D01*
X174341040Y-118844516D01*
X173986072Y-119199484D01*
X173250000Y-119199484D01*
X173250000Y-118607278D01*
X173874000Y-118607278D01*
X173988901Y-118492377D01*
X174693179Y-118492377D01*
X175048147Y-118847345D01*
X175403115Y-118492377D01*
X176107392Y-118492377D01*
X176462360Y-118847345D01*
X176817328Y-118492377D01*
X177521606Y-118492377D01*
X177876574Y-118847345D01*
X178231542Y-118492377D01*
X178935819Y-118492377D01*
X179290787Y-118847345D01*
X179645755Y-118492377D01*
X180350033Y-118492377D01*
X180705001Y-118847345D01*
X181059969Y-118492377D01*
X181059968Y-118492376D01*
X181764245Y-118492376D01*
X182119214Y-118847345D01*
X182126133Y-118840425D01*
X182122252Y-118835369D01*
X182106915Y-118814262D01*
X182103233Y-118808906D01*
X182096100Y-118797922D01*
X182092709Y-118792386D01*
X181985020Y-118605861D01*
X181981924Y-118600160D01*
X181975983Y-118588501D01*
X181973189Y-118582644D01*
X181962576Y-118558810D01*
X181960091Y-118552813D01*
X181955396Y-118540584D01*
X181953227Y-118534458D01*
X181896561Y-118360060D01*
X181764245Y-118492376D01*
X181059968Y-118492376D01*
X180705001Y-118137409D01*
X180350033Y-118492377D01*
X179645755Y-118492377D01*
X179290787Y-118137409D01*
X178935819Y-118492377D01*
X178231542Y-118492377D01*
X177876574Y-118137409D01*
X177521606Y-118492377D01*
X176817328Y-118492377D01*
X176462360Y-118137409D01*
X176107392Y-118492377D01*
X175403115Y-118492377D01*
X175048147Y-118137409D01*
X174693179Y-118492377D01*
X173988901Y-118492377D01*
X173874000Y-118377476D01*
X173874000Y-118607278D01*
X173250000Y-118607278D01*
X173250000Y-117785270D01*
X173986071Y-117785270D01*
X174341040Y-118140239D01*
X174696008Y-117785270D01*
X175400284Y-117785270D01*
X175755253Y-118140239D01*
X176110221Y-117785270D01*
X176814498Y-117785270D01*
X177169467Y-118140239D01*
X177524435Y-117785270D01*
X178228712Y-117785270D01*
X178583680Y-118140239D01*
X178938649Y-117785270D01*
X179642925Y-117785270D01*
X179997894Y-118140239D01*
X180352862Y-117785270D01*
X181057139Y-117785270D01*
X181412108Y-118140239D01*
X181767076Y-117785270D01*
X181412108Y-117430302D01*
X181057139Y-117785270D01*
X180352862Y-117785270D01*
X179997894Y-117430302D01*
X179642925Y-117785270D01*
X178938649Y-117785270D01*
X178583680Y-117430302D01*
X178228712Y-117785270D01*
X177524435Y-117785270D01*
X177169467Y-117430302D01*
X176814498Y-117785270D01*
X176110221Y-117785270D01*
X175755253Y-117430302D01*
X175400284Y-117785270D01*
X174696008Y-117785270D01*
X174341040Y-117430302D01*
X173986071Y-117785270D01*
X173250000Y-117785270D01*
X173250000Y-117193065D01*
X173874000Y-117193065D01*
X173988901Y-117078164D01*
X174693179Y-117078164D01*
X175048147Y-117433132D01*
X175403115Y-117078164D01*
X176107392Y-117078164D01*
X176462360Y-117433132D01*
X176817328Y-117078164D01*
X177521606Y-117078164D01*
X177876574Y-117433132D01*
X178231542Y-117078164D01*
X178935819Y-117078164D01*
X179290787Y-117433132D01*
X179645755Y-117078164D01*
X180350033Y-117078164D01*
X180705001Y-117433132D01*
X181059969Y-117078164D01*
X181764246Y-117078164D01*
X182019772Y-117333690D01*
X182092709Y-117207360D01*
X182096100Y-117201824D01*
X182103233Y-117190840D01*
X182106915Y-117185484D01*
X182122252Y-117164377D01*
X182126200Y-117159232D01*
X182134438Y-117149059D01*
X182138654Y-117144123D01*
X182198045Y-117078163D01*
X186006886Y-117078163D01*
X186361855Y-117433132D01*
X186716823Y-117078164D01*
X187421101Y-117078164D01*
X187776069Y-117433132D01*
X188131037Y-117078164D01*
X188835314Y-117078164D01*
X189190282Y-117433132D01*
X189545250Y-117078164D01*
X190249528Y-117078164D01*
X190604496Y-117433132D01*
X190959464Y-117078164D01*
X191663741Y-117078164D01*
X192018709Y-117433132D01*
X192373677Y-117078164D01*
X193077955Y-117078164D01*
X193432923Y-117433132D01*
X193787891Y-117078164D01*
X194492168Y-117078164D01*
X194847136Y-117433132D01*
X195202104Y-117078164D01*
X195906382Y-117078164D01*
X196261350Y-117433132D01*
X196616318Y-117078164D01*
X197320596Y-117078164D01*
X197675564Y-117433132D01*
X198030532Y-117078164D01*
X198734809Y-117078164D01*
X199089777Y-117433132D01*
X199444745Y-117078164D01*
X200149023Y-117078164D01*
X200503991Y-117433132D01*
X200858959Y-117078164D01*
X201563236Y-117078164D01*
X201918204Y-117433132D01*
X202126000Y-117225336D01*
X202126000Y-116930992D01*
X201918204Y-116723196D01*
X201563236Y-117078164D01*
X200858959Y-117078164D01*
X200503991Y-116723196D01*
X200149023Y-117078164D01*
X199444745Y-117078164D01*
X199089777Y-116723196D01*
X198734809Y-117078164D01*
X198030532Y-117078164D01*
X197675564Y-116723196D01*
X197320596Y-117078164D01*
X196616318Y-117078164D01*
X196261350Y-116723196D01*
X195906382Y-117078164D01*
X195202104Y-117078164D01*
X194847136Y-116723195D01*
X194492168Y-117078164D01*
X193787891Y-117078164D01*
X193432923Y-116723196D01*
X193077955Y-117078164D01*
X192373677Y-117078164D01*
X192018709Y-116723196D01*
X191663741Y-117078164D01*
X190959464Y-117078164D01*
X190604496Y-116723196D01*
X190249528Y-117078164D01*
X189545250Y-117078164D01*
X189190282Y-116723196D01*
X188835314Y-117078164D01*
X188131037Y-117078164D01*
X187776069Y-116723196D01*
X187421101Y-117078164D01*
X186716823Y-117078164D01*
X186379791Y-116741132D01*
X186345649Y-116739400D01*
X186006886Y-117078163D01*
X182198045Y-117078163D01*
X182282773Y-116984063D01*
X182287237Y-116979358D01*
X182296495Y-116970099D01*
X182301212Y-116965624D01*
X182320600Y-116948168D01*
X182325531Y-116943956D01*
X182333511Y-116937492D01*
X182119214Y-116723195D01*
X181764246Y-117078164D01*
X181059969Y-117078164D01*
X180705001Y-116723196D01*
X180350033Y-117078164D01*
X179645755Y-117078164D01*
X179290787Y-116723196D01*
X178935819Y-117078164D01*
X178231542Y-117078164D01*
X177876574Y-116723196D01*
X177521606Y-117078164D01*
X176817328Y-117078164D01*
X176462360Y-116723196D01*
X176107392Y-117078164D01*
X175403115Y-117078164D01*
X175048147Y-116723196D01*
X174693179Y-117078164D01*
X173988901Y-117078164D01*
X173874000Y-116963263D01*
X173874000Y-117193065D01*
X173250000Y-117193065D01*
X173250000Y-116371057D01*
X173986072Y-116371057D01*
X174341040Y-116726025D01*
X174696008Y-116371057D01*
X175400285Y-116371057D01*
X175755253Y-116726025D01*
X176110221Y-116371057D01*
X176814499Y-116371057D01*
X177169467Y-116726025D01*
X177524435Y-116371057D01*
X178228712Y-116371057D01*
X178583680Y-116726025D01*
X178938649Y-116371057D01*
X179642926Y-116371057D01*
X179997894Y-116726025D01*
X180352862Y-116371057D01*
X181057140Y-116371057D01*
X181412108Y-116726025D01*
X181767076Y-116371057D01*
X182471353Y-116371057D01*
X182779015Y-116678719D01*
X182779559Y-116678477D01*
X182785552Y-116675995D01*
X182797779Y-116671301D01*
X182803910Y-116669130D01*
X182828724Y-116661069D01*
X182834943Y-116659227D01*
X182847588Y-116655839D01*
X182853899Y-116654324D01*
X182909931Y-116642413D01*
X183181287Y-116371057D01*
X183885567Y-116371057D01*
X184166222Y-116651712D01*
X184354964Y-116611594D01*
X184595502Y-116371056D01*
X185299779Y-116371056D01*
X185654747Y-116726024D01*
X185722007Y-116658764D01*
X187001701Y-116658764D01*
X187068962Y-116726025D01*
X187251185Y-116543801D01*
X187194242Y-116579295D01*
X187188829Y-116582481D01*
X187177751Y-116588630D01*
X187172180Y-116591540D01*
X187149512Y-116602659D01*
X187143802Y-116605283D01*
X187132157Y-116610280D01*
X187126324Y-116612610D01*
X187001701Y-116658764D01*
X185722007Y-116658764D01*
X185805775Y-116574996D01*
X185739023Y-116542253D01*
X185733451Y-116539342D01*
X185722377Y-116533195D01*
X185716973Y-116530014D01*
X185695547Y-116516661D01*
X185690293Y-116513198D01*
X185679890Y-116505957D01*
X185674828Y-116502240D01*
X185505353Y-116371057D01*
X188128207Y-116371057D01*
X188483175Y-116726025D01*
X188838143Y-116371057D01*
X189542421Y-116371057D01*
X189897389Y-116726025D01*
X190252357Y-116371057D01*
X190956634Y-116371057D01*
X191311602Y-116726025D01*
X191666571Y-116371057D01*
X192370848Y-116371057D01*
X192725816Y-116726025D01*
X193080784Y-116371057D01*
X193785062Y-116371057D01*
X194140030Y-116726025D01*
X194494998Y-116371057D01*
X195199275Y-116371057D01*
X195554243Y-116726025D01*
X195909211Y-116371057D01*
X196613489Y-116371057D01*
X196968457Y-116726025D01*
X197323425Y-116371057D01*
X198027702Y-116371057D01*
X198382670Y-116726025D01*
X198737638Y-116371057D01*
X199441916Y-116371057D01*
X199796884Y-116726025D01*
X200151852Y-116371057D01*
X200856129Y-116371057D01*
X201211097Y-116726025D01*
X201566066Y-116371057D01*
X201211097Y-116016088D01*
X200856129Y-116371057D01*
X200151852Y-116371057D01*
X199796884Y-116016089D01*
X199441916Y-116371057D01*
X198737638Y-116371057D01*
X198382670Y-116016089D01*
X198027702Y-116371057D01*
X197323425Y-116371057D01*
X196968457Y-116016089D01*
X196613489Y-116371057D01*
X195909211Y-116371057D01*
X195554243Y-116016089D01*
X195199275Y-116371057D01*
X194494998Y-116371057D01*
X194140030Y-116016089D01*
X193785062Y-116371057D01*
X193080784Y-116371057D01*
X192725816Y-116016089D01*
X192370848Y-116371057D01*
X191666571Y-116371057D01*
X191311602Y-116016088D01*
X190956634Y-116371057D01*
X190252357Y-116371057D01*
X189897389Y-116016089D01*
X189542421Y-116371057D01*
X188838143Y-116371057D01*
X188483175Y-116016088D01*
X188128207Y-116371057D01*
X185505353Y-116371057D01*
X185494447Y-116362615D01*
X185489581Y-116358648D01*
X185479969Y-116350397D01*
X185475305Y-116346184D01*
X185457006Y-116328790D01*
X185452563Y-116324346D01*
X185443831Y-116315160D01*
X185439619Y-116310498D01*
X185402997Y-116267838D01*
X185299779Y-116371056D01*
X184595502Y-116371056D01*
X184240535Y-116016089D01*
X183885567Y-116371057D01*
X183181287Y-116371057D01*
X183181288Y-116371056D01*
X182826321Y-116016089D01*
X182471353Y-116371057D01*
X181767076Y-116371057D01*
X181412108Y-116016089D01*
X181057140Y-116371057D01*
X180352862Y-116371057D01*
X179997894Y-116016089D01*
X179642926Y-116371057D01*
X178938649Y-116371057D01*
X178583680Y-116016088D01*
X178228712Y-116371057D01*
X177524435Y-116371057D01*
X177169467Y-116016089D01*
X176814499Y-116371057D01*
X176110221Y-116371057D01*
X175755253Y-116016089D01*
X175400285Y-116371057D01*
X174696008Y-116371057D01*
X174341040Y-116016089D01*
X173986072Y-116371057D01*
X173250000Y-116371057D01*
X173250000Y-115778851D01*
X173874000Y-115778851D01*
X173988901Y-115663950D01*
X174693179Y-115663950D01*
X175048147Y-116018918D01*
X175403115Y-115663950D01*
X176107392Y-115663950D01*
X176462360Y-116018918D01*
X176817328Y-115663950D01*
X177521606Y-115663950D01*
X177876574Y-116018918D01*
X178231542Y-115663950D01*
X178935819Y-115663950D01*
X179290787Y-116018918D01*
X179645755Y-115663950D01*
X180350033Y-115663950D01*
X180705001Y-116018918D01*
X181059969Y-115663950D01*
X181764246Y-115663950D01*
X182119214Y-116018918D01*
X182474182Y-115663950D01*
X183178460Y-115663950D01*
X183533428Y-116018918D01*
X183888396Y-115663950D01*
X184592673Y-115663950D01*
X184947641Y-116018917D01*
X185122200Y-115844358D01*
X185116053Y-115830032D01*
X185113725Y-115824204D01*
X185109324Y-115812322D01*
X185107291Y-115806374D01*
X185039004Y-115588730D01*
X185037277Y-115582696D01*
X185034101Y-115570432D01*
X185032679Y-115564303D01*
X185027597Y-115539571D01*
X185026489Y-115533389D01*
X185024570Y-115520862D01*
X185023776Y-115514631D01*
X185009115Y-115370455D01*
X184947641Y-115308981D01*
X184592673Y-115663950D01*
X183888396Y-115663950D01*
X183533428Y-115308982D01*
X183178460Y-115663950D01*
X182474182Y-115663950D01*
X182119214Y-115308981D01*
X181764246Y-115663950D01*
X181059969Y-115663950D01*
X180705001Y-115308982D01*
X180350033Y-115663950D01*
X179645755Y-115663950D01*
X179290787Y-115308982D01*
X178935819Y-115663950D01*
X178231542Y-115663950D01*
X177876574Y-115308982D01*
X177521606Y-115663950D01*
X176817328Y-115663950D01*
X176462360Y-115308982D01*
X176107392Y-115663950D01*
X175403115Y-115663950D01*
X175048147Y-115308982D01*
X174693179Y-115663950D01*
X173988901Y-115663950D01*
X173874000Y-115549049D01*
X173874000Y-115778851D01*
X173250000Y-115778851D01*
X173250000Y-114956843D01*
X173986072Y-114956843D01*
X174341040Y-115311811D01*
X174696008Y-114956843D01*
X175400285Y-114956843D01*
X175755253Y-115311811D01*
X176110221Y-114956843D01*
X176814499Y-114956843D01*
X177169467Y-115311811D01*
X177524435Y-114956843D01*
X178228712Y-114956843D01*
X178583680Y-115311811D01*
X178938649Y-114956843D01*
X179642926Y-114956843D01*
X179997894Y-115311811D01*
X180352862Y-114956843D01*
X181057140Y-114956843D01*
X181412108Y-115311811D01*
X181767076Y-114956843D01*
X182471353Y-114956843D01*
X182826321Y-115311811D01*
X183181289Y-114956843D01*
X183885567Y-114956843D01*
X184240535Y-115311811D01*
X184302473Y-115249873D01*
X185497422Y-115249873D01*
X185517943Y-115451692D01*
X185578669Y-115645237D01*
X185578676Y-115645252D01*
X185677118Y-115822611D01*
X185677121Y-115822616D01*
X185809255Y-115976533D01*
X185809256Y-115976535D01*
X185937705Y-116075961D01*
X185969672Y-116100705D01*
X186151799Y-116190043D01*
X186348182Y-116240890D01*
X186550780Y-116251165D01*
X186751299Y-116220446D01*
X186941530Y-116149993D01*
X187113684Y-116042688D01*
X187170145Y-115989018D01*
X187805968Y-115989018D01*
X188131037Y-115663950D01*
X188835314Y-115663950D01*
X189190282Y-116018918D01*
X189545250Y-115663950D01*
X190249528Y-115663950D01*
X190604496Y-116018918D01*
X190959464Y-115663950D01*
X191663741Y-115663950D01*
X192018709Y-116018918D01*
X192373677Y-115663950D01*
X193077955Y-115663950D01*
X193432923Y-116018918D01*
X193787891Y-115663950D01*
X194492168Y-115663950D01*
X194847136Y-116018918D01*
X195202104Y-115663950D01*
X195906382Y-115663950D01*
X196261350Y-116018918D01*
X196616318Y-115663950D01*
X197320596Y-115663950D01*
X197675564Y-116018918D01*
X198030532Y-115663950D01*
X198734809Y-115663950D01*
X199089777Y-116018918D01*
X199444745Y-115663950D01*
X200149023Y-115663950D01*
X200503991Y-116018918D01*
X200858959Y-115663950D01*
X201563236Y-115663950D01*
X201918204Y-116018918D01*
X202126000Y-115811122D01*
X202126000Y-115516778D01*
X201918204Y-115308982D01*
X201563236Y-115663950D01*
X200858959Y-115663950D01*
X200503991Y-115308982D01*
X200149023Y-115663950D01*
X199444745Y-115663950D01*
X199089777Y-115308982D01*
X198734809Y-115663950D01*
X198030532Y-115663950D01*
X197675564Y-115308982D01*
X197320596Y-115663950D01*
X196616318Y-115663950D01*
X196261350Y-115308982D01*
X195906382Y-115663950D01*
X195202104Y-115663950D01*
X194847136Y-115308981D01*
X194492168Y-115663950D01*
X193787891Y-115663950D01*
X193432923Y-115308982D01*
X193077955Y-115663950D01*
X192373677Y-115663950D01*
X192018709Y-115308982D01*
X191663741Y-115663950D01*
X190959464Y-115663950D01*
X190604496Y-115308982D01*
X190249528Y-115663950D01*
X189545250Y-115663950D01*
X189190282Y-115308982D01*
X188835314Y-115663950D01*
X188131037Y-115663950D01*
X187973886Y-115506799D01*
X187941865Y-115662619D01*
X187940445Y-115668738D01*
X187937269Y-115681005D01*
X187935540Y-115687046D01*
X187927982Y-115711135D01*
X187925953Y-115717071D01*
X187921553Y-115728954D01*
X187919220Y-115734798D01*
X187829264Y-115944418D01*
X187826638Y-115950132D01*
X187821057Y-115961508D01*
X187818150Y-115967072D01*
X187805968Y-115989018D01*
X187170145Y-115989018D01*
X187260715Y-115902925D01*
X187376601Y-115736426D01*
X187456600Y-115550008D01*
X187497435Y-115351302D01*
X187500000Y-115249873D01*
X187497435Y-115148444D01*
X187458060Y-114956843D01*
X188128207Y-114956843D01*
X188483175Y-115311811D01*
X188838143Y-114956843D01*
X189542421Y-114956843D01*
X189897389Y-115311811D01*
X190252357Y-114956843D01*
X190956634Y-114956843D01*
X191311602Y-115311811D01*
X191666571Y-114956843D01*
X192370848Y-114956843D01*
X192725816Y-115311811D01*
X193080784Y-114956843D01*
X193785062Y-114956843D01*
X194140030Y-115311811D01*
X194494998Y-114956843D01*
X195199275Y-114956843D01*
X195554243Y-115311811D01*
X195909211Y-114956843D01*
X196613489Y-114956843D01*
X196968457Y-115311811D01*
X197323425Y-114956843D01*
X198027702Y-114956843D01*
X198382670Y-115311811D01*
X198737638Y-114956843D01*
X199441916Y-114956843D01*
X199796884Y-115311811D01*
X200151852Y-114956843D01*
X200856129Y-114956843D01*
X201211097Y-115311811D01*
X201566066Y-114956843D01*
X201211097Y-114601874D01*
X200856129Y-114956843D01*
X200151852Y-114956843D01*
X199796884Y-114601875D01*
X199441916Y-114956843D01*
X198737638Y-114956843D01*
X198382670Y-114601875D01*
X198027702Y-114956843D01*
X197323425Y-114956843D01*
X196968457Y-114601875D01*
X196613489Y-114956843D01*
X195909211Y-114956843D01*
X195554243Y-114601875D01*
X195199275Y-114956843D01*
X194494998Y-114956843D01*
X194140030Y-114601875D01*
X193785062Y-114956843D01*
X193080784Y-114956843D01*
X192725816Y-114601875D01*
X192370848Y-114956843D01*
X191666571Y-114956843D01*
X191311602Y-114601874D01*
X190956634Y-114956843D01*
X190252357Y-114956843D01*
X189897389Y-114601875D01*
X189542421Y-114956843D01*
X188838143Y-114956843D01*
X188483175Y-114601874D01*
X188128207Y-114956843D01*
X187458060Y-114956843D01*
X187456600Y-114949738D01*
X187376601Y-114763320D01*
X187260715Y-114596821D01*
X187113684Y-114457058D01*
X186941530Y-114349753D01*
X186812511Y-114301970D01*
X186751300Y-114279300D01*
X186751294Y-114279299D01*
X186550781Y-114248581D01*
X186550780Y-114248581D01*
X186449481Y-114253718D01*
X186348181Y-114258856D01*
X186151798Y-114309703D01*
X185969668Y-114399043D01*
X185809256Y-114523210D01*
X185809255Y-114523212D01*
X185677121Y-114677129D01*
X185677118Y-114677134D01*
X185578676Y-114854493D01*
X185578669Y-114854508D01*
X185517943Y-115048053D01*
X185497422Y-115249873D01*
X184302473Y-115249873D01*
X184595503Y-114956843D01*
X184240535Y-114601875D01*
X183885567Y-114956843D01*
X183181289Y-114956843D01*
X182826321Y-114601875D01*
X182471353Y-114956843D01*
X181767076Y-114956843D01*
X181412108Y-114601875D01*
X181057140Y-114956843D01*
X180352862Y-114956843D01*
X179997894Y-114601875D01*
X179642926Y-114956843D01*
X178938649Y-114956843D01*
X178583680Y-114601874D01*
X178228712Y-114956843D01*
X177524435Y-114956843D01*
X177169467Y-114601875D01*
X176814499Y-114956843D01*
X176110221Y-114956843D01*
X175755253Y-114601875D01*
X175400285Y-114956843D01*
X174696008Y-114956843D01*
X174341040Y-114601875D01*
X173986072Y-114956843D01*
X173250000Y-114956843D01*
X173250000Y-114364638D01*
X173874000Y-114364638D01*
X173988901Y-114249737D01*
X174693179Y-114249737D01*
X175048147Y-114604705D01*
X175403115Y-114249737D01*
X176107392Y-114249737D01*
X176462360Y-114604705D01*
X176817328Y-114249737D01*
X177521606Y-114249737D01*
X177876574Y-114604705D01*
X178231542Y-114249737D01*
X178935819Y-114249737D01*
X179290787Y-114604705D01*
X179645755Y-114249737D01*
X180350033Y-114249737D01*
X180705001Y-114604705D01*
X181059969Y-114249737D01*
X181764246Y-114249737D01*
X182119214Y-114604705D01*
X182474182Y-114249737D01*
X183178460Y-114249737D01*
X183533428Y-114604705D01*
X183888396Y-114249737D01*
X184592673Y-114249737D01*
X184947641Y-114604705D01*
X185302610Y-114249737D01*
X185206458Y-114153585D01*
X187517251Y-114153585D01*
X187612970Y-114244571D01*
X187617413Y-114249014D01*
X187626145Y-114258200D01*
X187630359Y-114262864D01*
X187646804Y-114282021D01*
X187650775Y-114286891D01*
X187658529Y-114296909D01*
X187662245Y-114301970D01*
X187792553Y-114489190D01*
X187796011Y-114494437D01*
X187802712Y-114505188D01*
X187805897Y-114510599D01*
X187818150Y-114532674D01*
X187821057Y-114538238D01*
X187826638Y-114549614D01*
X187828061Y-114552711D01*
X188131035Y-114249737D01*
X188835314Y-114249737D01*
X189190282Y-114604705D01*
X189545250Y-114249737D01*
X190249528Y-114249737D01*
X190604496Y-114604705D01*
X190959464Y-114249737D01*
X191663741Y-114249737D01*
X192018709Y-114604705D01*
X192373677Y-114249737D01*
X193077955Y-114249737D01*
X193432923Y-114604705D01*
X193787891Y-114249737D01*
X194492168Y-114249737D01*
X194847136Y-114604705D01*
X195202104Y-114249737D01*
X195906382Y-114249737D01*
X196261350Y-114604705D01*
X196616318Y-114249737D01*
X197320596Y-114249737D01*
X197675564Y-114604705D01*
X198030532Y-114249737D01*
X198734809Y-114249737D01*
X199089777Y-114604705D01*
X199444745Y-114249737D01*
X200149023Y-114249737D01*
X200503991Y-114604705D01*
X200858959Y-114249737D01*
X201563236Y-114249737D01*
X201918204Y-114604705D01*
X202126000Y-114396909D01*
X202126000Y-114102565D01*
X201918204Y-113894769D01*
X201563236Y-114249737D01*
X200858959Y-114249737D01*
X200503991Y-113894769D01*
X200149023Y-114249737D01*
X199444745Y-114249737D01*
X199089777Y-113894769D01*
X198734809Y-114249737D01*
X198030532Y-114249737D01*
X197675564Y-113894769D01*
X197320596Y-114249737D01*
X196616318Y-114249737D01*
X196261350Y-113894769D01*
X195906382Y-114249737D01*
X195202104Y-114249737D01*
X194847136Y-113894768D01*
X194492168Y-114249737D01*
X193787891Y-114249737D01*
X193432923Y-113894769D01*
X193077955Y-114249737D01*
X192373677Y-114249737D01*
X192018709Y-113894769D01*
X191663741Y-114249737D01*
X190959464Y-114249737D01*
X190604496Y-113894769D01*
X190249528Y-114249737D01*
X189545250Y-114249737D01*
X189190282Y-113894769D01*
X188835314Y-114249737D01*
X188131035Y-114249737D01*
X188131036Y-114249736D01*
X187776068Y-113894768D01*
X187517251Y-114153585D01*
X185206458Y-114153585D01*
X184947641Y-113894768D01*
X184592673Y-114249737D01*
X183888396Y-114249737D01*
X183533428Y-113894769D01*
X183178460Y-114249737D01*
X182474182Y-114249737D01*
X182119214Y-113894768D01*
X181764246Y-114249737D01*
X181059969Y-114249737D01*
X180705001Y-113894769D01*
X180350033Y-114249737D01*
X179645755Y-114249737D01*
X179290787Y-113894769D01*
X178935819Y-114249737D01*
X178231542Y-114249737D01*
X177876574Y-113894769D01*
X177521606Y-114249737D01*
X176817328Y-114249737D01*
X176462360Y-113894769D01*
X176107392Y-114249737D01*
X175403115Y-114249737D01*
X175048147Y-113894769D01*
X174693179Y-114249737D01*
X173988901Y-114249737D01*
X173874000Y-114134836D01*
X173874000Y-114364638D01*
X173250000Y-114364638D01*
X173250000Y-113542630D01*
X173986072Y-113542630D01*
X174341040Y-113897598D01*
X174696008Y-113542630D01*
X175400285Y-113542630D01*
X175755253Y-113897598D01*
X176110221Y-113542630D01*
X176814499Y-113542630D01*
X177169467Y-113897598D01*
X177524435Y-113542630D01*
X178228712Y-113542630D01*
X178583680Y-113897598D01*
X178938649Y-113542630D01*
X179642926Y-113542630D01*
X179997894Y-113897598D01*
X180352862Y-113542630D01*
X181057140Y-113542630D01*
X181412108Y-113897598D01*
X181767076Y-113542630D01*
X182471353Y-113542630D01*
X182826321Y-113897598D01*
X183181289Y-113542630D01*
X183885567Y-113542630D01*
X184240535Y-113897598D01*
X184595503Y-113542630D01*
X185299780Y-113542630D01*
X185654748Y-113897598D01*
X186009716Y-113542630D01*
X186713994Y-113542630D01*
X187018607Y-113847243D01*
X187092098Y-113874460D01*
X187423928Y-113542630D01*
X188128207Y-113542630D01*
X188483175Y-113897598D01*
X188838143Y-113542630D01*
X189542421Y-113542630D01*
X189897389Y-113897598D01*
X190252357Y-113542630D01*
X190956634Y-113542630D01*
X191311602Y-113897598D01*
X191666571Y-113542630D01*
X192370848Y-113542630D01*
X192725816Y-113897598D01*
X193080784Y-113542630D01*
X193785062Y-113542630D01*
X194140030Y-113897598D01*
X194494998Y-113542630D01*
X195199275Y-113542630D01*
X195554243Y-113897598D01*
X195909211Y-113542630D01*
X196613489Y-113542630D01*
X196968457Y-113897598D01*
X197323425Y-113542630D01*
X198027702Y-113542630D01*
X198382670Y-113897598D01*
X198737638Y-113542630D01*
X199441916Y-113542630D01*
X199796884Y-113897598D01*
X200151852Y-113542630D01*
X200856129Y-113542630D01*
X201211097Y-113897598D01*
X201566066Y-113542630D01*
X201211097Y-113187661D01*
X200856129Y-113542630D01*
X200151852Y-113542630D01*
X199796884Y-113187662D01*
X199441916Y-113542630D01*
X198737638Y-113542630D01*
X198382670Y-113187662D01*
X198027702Y-113542630D01*
X197323425Y-113542630D01*
X196968457Y-113187662D01*
X196613489Y-113542630D01*
X195909211Y-113542630D01*
X195554243Y-113187662D01*
X195199275Y-113542630D01*
X194494998Y-113542630D01*
X194140030Y-113187662D01*
X193785062Y-113542630D01*
X193080784Y-113542630D01*
X192725816Y-113187662D01*
X192370848Y-113542630D01*
X191666571Y-113542630D01*
X191311602Y-113187661D01*
X190956634Y-113542630D01*
X190252357Y-113542630D01*
X189897389Y-113187662D01*
X189542421Y-113542630D01*
X188838143Y-113542630D01*
X188483175Y-113187661D01*
X188128207Y-113542630D01*
X187423928Y-113542630D01*
X187423929Y-113542629D01*
X187068962Y-113187662D01*
X186713994Y-113542630D01*
X186009716Y-113542630D01*
X185654748Y-113187662D01*
X185299780Y-113542630D01*
X184595503Y-113542630D01*
X184240535Y-113187662D01*
X183885567Y-113542630D01*
X183181289Y-113542630D01*
X182826321Y-113187662D01*
X182471353Y-113542630D01*
X181767076Y-113542630D01*
X181412108Y-113187662D01*
X181057140Y-113542630D01*
X180352862Y-113542630D01*
X179997894Y-113187662D01*
X179642926Y-113542630D01*
X178938649Y-113542630D01*
X178583680Y-113187661D01*
X178228712Y-113542630D01*
X177524435Y-113542630D01*
X177169467Y-113187662D01*
X176814499Y-113542630D01*
X176110221Y-113542630D01*
X175755253Y-113187662D01*
X175400285Y-113542630D01*
X174696008Y-113542630D01*
X174341040Y-113187662D01*
X173986072Y-113542630D01*
X173250000Y-113542630D01*
X173250000Y-112950424D01*
X173874000Y-112950424D01*
X173988901Y-112835523D01*
X174693179Y-112835523D01*
X175048147Y-113190491D01*
X175403115Y-112835523D01*
X176107392Y-112835523D01*
X176462360Y-113190491D01*
X176817328Y-112835523D01*
X177521606Y-112835523D01*
X177876574Y-113190491D01*
X178231542Y-112835523D01*
X178935819Y-112835523D01*
X179290787Y-113190491D01*
X179645755Y-112835523D01*
X180350033Y-112835523D01*
X180705001Y-113190491D01*
X181059969Y-112835523D01*
X181764246Y-112835523D01*
X182119214Y-113190491D01*
X182474182Y-112835523D01*
X183178460Y-112835523D01*
X183533428Y-113190491D01*
X183888396Y-112835523D01*
X184592673Y-112835523D01*
X184947641Y-113190491D01*
X185302610Y-112835523D01*
X186006887Y-112835523D01*
X186361855Y-113190491D01*
X186716823Y-112835523D01*
X187421101Y-112835523D01*
X187776069Y-113190491D01*
X188131037Y-112835523D01*
X188835314Y-112835523D01*
X189190282Y-113190491D01*
X189545250Y-112835523D01*
X190249528Y-112835523D01*
X190604496Y-113190491D01*
X190959464Y-112835523D01*
X191663741Y-112835523D01*
X192018709Y-113190491D01*
X192373677Y-112835523D01*
X193077955Y-112835523D01*
X193432923Y-113190491D01*
X193787891Y-112835523D01*
X194492168Y-112835523D01*
X194847136Y-113190491D01*
X195202104Y-112835523D01*
X195906382Y-112835523D01*
X196261350Y-113190491D01*
X196616318Y-112835523D01*
X197320596Y-112835523D01*
X197675564Y-113190491D01*
X198030532Y-112835523D01*
X198734809Y-112835523D01*
X199089777Y-113190491D01*
X199444745Y-112835523D01*
X200149023Y-112835523D01*
X200503991Y-113190491D01*
X200858959Y-112835523D01*
X201563236Y-112835523D01*
X201918204Y-113190491D01*
X202126000Y-112982695D01*
X202126000Y-112688351D01*
X201918204Y-112480555D01*
X201563236Y-112835523D01*
X200858959Y-112835523D01*
X200503991Y-112480555D01*
X200149023Y-112835523D01*
X199444745Y-112835523D01*
X199089777Y-112480555D01*
X198734809Y-112835523D01*
X198030532Y-112835523D01*
X197675564Y-112480555D01*
X197320596Y-112835523D01*
X196616318Y-112835523D01*
X196261350Y-112480555D01*
X195906382Y-112835523D01*
X195202104Y-112835523D01*
X194847136Y-112480554D01*
X194492168Y-112835523D01*
X193787891Y-112835523D01*
X193432923Y-112480555D01*
X193077955Y-112835523D01*
X192373677Y-112835523D01*
X192018709Y-112480555D01*
X191663741Y-112835523D01*
X190959464Y-112835523D01*
X190604496Y-112480555D01*
X190249528Y-112835523D01*
X189545250Y-112835523D01*
X189190282Y-112480555D01*
X188835314Y-112835523D01*
X188131037Y-112835523D01*
X187776069Y-112480555D01*
X187421101Y-112835523D01*
X186716823Y-112835523D01*
X186361855Y-112480555D01*
X186006887Y-112835523D01*
X185302610Y-112835523D01*
X184947641Y-112480554D01*
X184592673Y-112835523D01*
X183888396Y-112835523D01*
X183533428Y-112480555D01*
X183178460Y-112835523D01*
X182474182Y-112835523D01*
X182119214Y-112480554D01*
X181764246Y-112835523D01*
X181059969Y-112835523D01*
X180705001Y-112480555D01*
X180350033Y-112835523D01*
X179645755Y-112835523D01*
X179290787Y-112480555D01*
X178935819Y-112835523D01*
X178231542Y-112835523D01*
X177876574Y-112480555D01*
X177521606Y-112835523D01*
X176817328Y-112835523D01*
X176462360Y-112480555D01*
X176107392Y-112835523D01*
X175403115Y-112835523D01*
X175048147Y-112480555D01*
X174693179Y-112835523D01*
X173988901Y-112835523D01*
X173874000Y-112720622D01*
X173874000Y-112950424D01*
X173250000Y-112950424D01*
X173250000Y-112128416D01*
X173986072Y-112128416D01*
X174341040Y-112483384D01*
X174696008Y-112128416D01*
X175400285Y-112128416D01*
X175755253Y-112483384D01*
X176110221Y-112128416D01*
X176814499Y-112128416D01*
X177169467Y-112483384D01*
X177524435Y-112128416D01*
X178228712Y-112128416D01*
X178583680Y-112483384D01*
X178938649Y-112128416D01*
X178938648Y-112128415D01*
X179642925Y-112128415D01*
X179997894Y-112483384D01*
X180352862Y-112128416D01*
X181057140Y-112128416D01*
X181412108Y-112483384D01*
X181767076Y-112128416D01*
X182471353Y-112128416D01*
X182826321Y-112483384D01*
X183181289Y-112128416D01*
X183885567Y-112128416D01*
X184240535Y-112483384D01*
X184595503Y-112128416D01*
X185299780Y-112128416D01*
X185654748Y-112483384D01*
X186009716Y-112128416D01*
X186713994Y-112128416D01*
X187068962Y-112483384D01*
X187423930Y-112128416D01*
X188128207Y-112128416D01*
X188483175Y-112483384D01*
X188838143Y-112128416D01*
X189542421Y-112128416D01*
X189897389Y-112483384D01*
X190252357Y-112128416D01*
X190956634Y-112128416D01*
X191311602Y-112483384D01*
X191666571Y-112128416D01*
X192370848Y-112128416D01*
X192725816Y-112483384D01*
X193080784Y-112128416D01*
X193785062Y-112128416D01*
X194140030Y-112483384D01*
X194494998Y-112128416D01*
X195199275Y-112128416D01*
X195554243Y-112483384D01*
X195909211Y-112128416D01*
X196613489Y-112128416D01*
X196968457Y-112483384D01*
X197323425Y-112128416D01*
X198027702Y-112128416D01*
X198382670Y-112483384D01*
X198737638Y-112128416D01*
X199441916Y-112128416D01*
X199796884Y-112483384D01*
X200151852Y-112128416D01*
X200856129Y-112128416D01*
X201211097Y-112483384D01*
X201566066Y-112128416D01*
X201211097Y-111773447D01*
X200856129Y-112128416D01*
X200151852Y-112128416D01*
X199796884Y-111773448D01*
X199441916Y-112128416D01*
X198737638Y-112128416D01*
X198382670Y-111773448D01*
X198027702Y-112128416D01*
X197323425Y-112128416D01*
X196968457Y-111773448D01*
X196613489Y-112128416D01*
X195909211Y-112128416D01*
X195554243Y-111773448D01*
X195199275Y-112128416D01*
X194494998Y-112128416D01*
X194140030Y-111773448D01*
X193785062Y-112128416D01*
X193080784Y-112128416D01*
X192725816Y-111773448D01*
X192370848Y-112128416D01*
X191666571Y-112128416D01*
X191311602Y-111773447D01*
X190956634Y-112128416D01*
X190252357Y-112128416D01*
X189897389Y-111773448D01*
X189542421Y-112128416D01*
X188838143Y-112128416D01*
X188483175Y-111773447D01*
X188128207Y-112128416D01*
X187423930Y-112128416D01*
X187068962Y-111773448D01*
X186713994Y-112128416D01*
X186009716Y-112128416D01*
X185654748Y-111773448D01*
X185299780Y-112128416D01*
X184595503Y-112128416D01*
X184240535Y-111773448D01*
X183885567Y-112128416D01*
X183181289Y-112128416D01*
X182826321Y-111773448D01*
X182471353Y-112128416D01*
X181767076Y-112128416D01*
X181412108Y-111773448D01*
X181057140Y-112128416D01*
X180352862Y-112128416D01*
X180298319Y-112073873D01*
X180140189Y-112073873D01*
X180110513Y-112070270D01*
X179945462Y-112029588D01*
X179917513Y-112018988D01*
X179809199Y-111962141D01*
X179642925Y-112128415D01*
X178938648Y-112128415D01*
X178583680Y-111773447D01*
X178228712Y-112128416D01*
X177524435Y-112128416D01*
X177169467Y-111773448D01*
X176814499Y-112128416D01*
X176110221Y-112128416D01*
X175755253Y-111773448D01*
X175400285Y-112128416D01*
X174696008Y-112128416D01*
X174341040Y-111773448D01*
X173986072Y-112128416D01*
X173250000Y-112128416D01*
X173250000Y-111556497D01*
X173269685Y-111489458D01*
X173292630Y-111462929D01*
X173340493Y-111421309D01*
X174693178Y-111421309D01*
X175048147Y-111776277D01*
X175403115Y-111421309D01*
X176107391Y-111421309D01*
X176462360Y-111776277D01*
X176704655Y-111533982D01*
X177634278Y-111533982D01*
X177876574Y-111776277D01*
X178231542Y-111421309D01*
X178935818Y-111421309D01*
X179290786Y-111776277D01*
X179474052Y-111593012D01*
X179424591Y-111462595D01*
X179417437Y-111433570D01*
X179415948Y-111421309D01*
X181764245Y-111421309D01*
X182119214Y-111776277D01*
X182474182Y-111421309D01*
X183178459Y-111421309D01*
X183533428Y-111776277D01*
X183888396Y-111421309D01*
X184592673Y-111421309D01*
X184947641Y-111776277D01*
X185302610Y-111421309D01*
X186006886Y-111421309D01*
X186361855Y-111776277D01*
X186716823Y-111421309D01*
X187421100Y-111421309D01*
X187776069Y-111776277D01*
X188131037Y-111421309D01*
X188131036Y-111421308D01*
X188835313Y-111421308D01*
X189190282Y-111776277D01*
X189545250Y-111421309D01*
X190249527Y-111421309D01*
X190604496Y-111776277D01*
X190959464Y-111421309D01*
X191663740Y-111421309D01*
X192018709Y-111776277D01*
X192373677Y-111421309D01*
X193077954Y-111421309D01*
X193432923Y-111776277D01*
X193752173Y-111457027D01*
X194527886Y-111457027D01*
X194847136Y-111776277D01*
X195202104Y-111421309D01*
X195906381Y-111421309D01*
X196261350Y-111776277D01*
X196616318Y-111421309D01*
X197320595Y-111421309D01*
X197675564Y-111776277D01*
X198030532Y-111421309D01*
X198734808Y-111421309D01*
X199089777Y-111776277D01*
X199444745Y-111421309D01*
X200149022Y-111421309D01*
X200503991Y-111776277D01*
X200858959Y-111421309D01*
X200503991Y-111066341D01*
X200149022Y-111421309D01*
X199444745Y-111421309D01*
X199089777Y-111066341D01*
X198734808Y-111421309D01*
X198030532Y-111421309D01*
X197675564Y-111066341D01*
X197320595Y-111421309D01*
X196616318Y-111421309D01*
X196261350Y-111066341D01*
X195906381Y-111421309D01*
X195202104Y-111421309D01*
X195086249Y-111305453D01*
X195081096Y-111308569D01*
X195074573Y-111312248D01*
X195047913Y-111326240D01*
X195041178Y-111329519D01*
X195027404Y-111335718D01*
X195020485Y-111338584D01*
X194832361Y-111409930D01*
X194825280Y-111412373D01*
X194810855Y-111416868D01*
X194803642Y-111418879D01*
X194774408Y-111426085D01*
X194767088Y-111427657D01*
X194752227Y-111430381D01*
X194744816Y-111431509D01*
X194545082Y-111455761D01*
X194537621Y-111456439D01*
X194527886Y-111457027D01*
X193752173Y-111457027D01*
X193787891Y-111421309D01*
X193432923Y-111066341D01*
X193077954Y-111421309D01*
X192373677Y-111421309D01*
X192018709Y-111066341D01*
X191663740Y-111421309D01*
X190959464Y-111421309D01*
X190604496Y-111066341D01*
X190249527Y-111421309D01*
X189545250Y-111421309D01*
X189190281Y-111066340D01*
X188835313Y-111421308D01*
X188131036Y-111421308D01*
X187776069Y-111066341D01*
X187421100Y-111421309D01*
X186716823Y-111421309D01*
X186361855Y-111066341D01*
X186006886Y-111421309D01*
X185302610Y-111421309D01*
X184947641Y-111066340D01*
X184592673Y-111421309D01*
X183888396Y-111421309D01*
X183533428Y-111066341D01*
X183178459Y-111421309D01*
X182474182Y-111421309D01*
X182119214Y-111066340D01*
X181764245Y-111421309D01*
X179415948Y-111421309D01*
X179396947Y-111264819D01*
X179396947Y-111234927D01*
X179403705Y-111179259D01*
X179290787Y-111066341D01*
X178935818Y-111421309D01*
X178231542Y-111421309D01*
X178165968Y-111355735D01*
X178156787Y-111360810D01*
X178150606Y-111364003D01*
X177965413Y-111453187D01*
X177959060Y-111456030D01*
X177946099Y-111461398D01*
X177939609Y-111463875D01*
X177913222Y-111473109D01*
X177906585Y-111475225D01*
X177893104Y-111479108D01*
X177886375Y-111480843D01*
X177685981Y-111526581D01*
X177679157Y-111527938D01*
X177665324Y-111530288D01*
X177658440Y-111531260D01*
X177634278Y-111533982D01*
X176704655Y-111533982D01*
X176817328Y-111421309D01*
X176462360Y-111066341D01*
X176107391Y-111421309D01*
X175403115Y-111421309D01*
X175048147Y-111066341D01*
X174693178Y-111421309D01*
X173340493Y-111421309D01*
X174153665Y-110714203D01*
X175400285Y-110714203D01*
X175755253Y-111069171D01*
X176110221Y-110714203D01*
X175755253Y-110359235D01*
X175400285Y-110714203D01*
X174153665Y-110714203D01*
X174789768Y-110161070D01*
X176711917Y-110161070D01*
X176711917Y-110338675D01*
X176751433Y-110511807D01*
X176828485Y-110671808D01*
X176828489Y-110671814D01*
X176842579Y-110689482D01*
X176939215Y-110810658D01*
X177024012Y-110878282D01*
X177078058Y-110921383D01*
X177078064Y-110921387D01*
X177238066Y-110998439D01*
X177238064Y-110998439D01*
X177411197Y-111037955D01*
X177411202Y-111037955D01*
X177411204Y-111037956D01*
X177588794Y-111037956D01*
X177588796Y-111037956D01*
X177588798Y-111037955D01*
X177588802Y-111037955D01*
X177676498Y-111017939D01*
X178532449Y-111017939D01*
X178583681Y-111069171D01*
X178938649Y-110714203D01*
X181057140Y-110714203D01*
X181412108Y-111069171D01*
X181767076Y-110714203D01*
X182471353Y-110714203D01*
X182826321Y-111069171D01*
X183181289Y-110714203D01*
X183885567Y-110714203D01*
X184240535Y-111069171D01*
X184595503Y-110714203D01*
X185299780Y-110714203D01*
X185654748Y-111069171D01*
X186009716Y-110714203D01*
X186713994Y-110714203D01*
X187068962Y-111069171D01*
X187423930Y-110714203D01*
X187423929Y-110714202D01*
X188128206Y-110714202D01*
X188483174Y-111069170D01*
X188587990Y-110964354D01*
X188541809Y-110940117D01*
X188517207Y-110923135D01*
X188389967Y-110810410D01*
X188376533Y-110795247D01*
X189623465Y-110795247D01*
X189897389Y-111069171D01*
X190252357Y-110714203D01*
X190956634Y-110714203D01*
X191311602Y-111069171D01*
X191666571Y-110714203D01*
X192370848Y-110714203D01*
X192725816Y-111069171D01*
X192817822Y-110977165D01*
X195462237Y-110977165D01*
X195554243Y-111069171D01*
X195909211Y-110714203D01*
X196613489Y-110714203D01*
X196968457Y-111069171D01*
X197323425Y-110714203D01*
X198027702Y-110714203D01*
X198382670Y-111069171D01*
X198737638Y-110714203D01*
X199441916Y-110714203D01*
X199796884Y-111069171D01*
X200151852Y-110714203D01*
X199796884Y-110359235D01*
X199441916Y-110714203D01*
X198737638Y-110714203D01*
X198382670Y-110359235D01*
X198027702Y-110714203D01*
X197323425Y-110714203D01*
X196968457Y-110359235D01*
X196613489Y-110714203D01*
X195909211Y-110714203D01*
X195680454Y-110485446D01*
X195643510Y-110635336D01*
X195641497Y-110642557D01*
X195637000Y-110656986D01*
X195634558Y-110664062D01*
X195623881Y-110692214D01*
X195621012Y-110699138D01*
X195614813Y-110712910D01*
X195611537Y-110719639D01*
X195518037Y-110897792D01*
X195514357Y-110904317D01*
X195506540Y-110917248D01*
X195502471Y-110923541D01*
X195485365Y-110948322D01*
X195480927Y-110954353D01*
X195471610Y-110966245D01*
X195466815Y-110971999D01*
X195462237Y-110977165D01*
X192817822Y-110977165D01*
X193080784Y-110714203D01*
X192725816Y-110359235D01*
X192370848Y-110714203D01*
X191666571Y-110714203D01*
X191311602Y-110359234D01*
X190956634Y-110714203D01*
X190252357Y-110714203D01*
X189897388Y-110359234D01*
X189802781Y-110453841D01*
X189800593Y-110462722D01*
X189740313Y-110621666D01*
X189726421Y-110648135D01*
X189629856Y-110788035D01*
X189623465Y-110795247D01*
X188376533Y-110795247D01*
X188370144Y-110788035D01*
X188273579Y-110648135D01*
X188259687Y-110621666D01*
X188248978Y-110593430D01*
X188128206Y-110714202D01*
X187423929Y-110714202D01*
X187068962Y-110359235D01*
X186713994Y-110714203D01*
X186009716Y-110714203D01*
X185654748Y-110359235D01*
X185299780Y-110714203D01*
X184595503Y-110714203D01*
X184240535Y-110359235D01*
X183885567Y-110714203D01*
X183181289Y-110714203D01*
X182826321Y-110359235D01*
X182471353Y-110714203D01*
X181767076Y-110714203D01*
X181412108Y-110359235D01*
X181057140Y-110714203D01*
X178938649Y-110714203D01*
X178755076Y-110530630D01*
X178730970Y-110636248D01*
X178729235Y-110642977D01*
X178725352Y-110656458D01*
X178723236Y-110663095D01*
X178714002Y-110689482D01*
X178711525Y-110695972D01*
X178706157Y-110708933D01*
X178703314Y-110715286D01*
X178614130Y-110900479D01*
X178610937Y-110906660D01*
X178604151Y-110918938D01*
X178600618Y-110924928D01*
X178585744Y-110948600D01*
X178581881Y-110954382D01*
X178573762Y-110965825D01*
X178569577Y-110971385D01*
X178532449Y-111017939D01*
X177676498Y-111017939D01*
X177761934Y-110998439D01*
X177921935Y-110921387D01*
X177921935Y-110921386D01*
X177921939Y-110921385D01*
X178060785Y-110810658D01*
X178171512Y-110671812D01*
X178241635Y-110526200D01*
X179830928Y-110526200D01*
X179917513Y-110480758D01*
X179945462Y-110470158D01*
X180076514Y-110437855D01*
X179997894Y-110359235D01*
X179830928Y-110526200D01*
X178241635Y-110526200D01*
X178248566Y-110511807D01*
X178288083Y-110338669D01*
X178290569Y-110249873D01*
X178288083Y-110161077D01*
X178264960Y-110059766D01*
X178252939Y-110007096D01*
X178935819Y-110007096D01*
X179290787Y-110362064D01*
X179645755Y-110007096D01*
X180350033Y-110007096D01*
X180705001Y-110362064D01*
X181059969Y-110007096D01*
X181764246Y-110007096D01*
X182119214Y-110362064D01*
X182474182Y-110007096D01*
X183178460Y-110007096D01*
X183533428Y-110362064D01*
X183888396Y-110007096D01*
X184592673Y-110007096D01*
X184947641Y-110362064D01*
X185302610Y-110007096D01*
X186006887Y-110007096D01*
X186361855Y-110362064D01*
X186716823Y-110007096D01*
X187421101Y-110007096D01*
X187776069Y-110362064D01*
X188131037Y-110007096D01*
X190249528Y-110007096D01*
X190604496Y-110362064D01*
X190959464Y-110007096D01*
X191663741Y-110007096D01*
X192018709Y-110362064D01*
X192373677Y-110007096D01*
X193077955Y-110007096D01*
X193297471Y-110226612D01*
X193297471Y-110164327D01*
X193795471Y-110164327D01*
X193795471Y-110335418D01*
X193836415Y-110501535D01*
X193836415Y-110501536D01*
X193836416Y-110501537D01*
X193915925Y-110653031D01*
X194029380Y-110781094D01*
X194170181Y-110878282D01*
X194170182Y-110878282D01*
X194170184Y-110878284D01*
X194330157Y-110938954D01*
X194500000Y-110959577D01*
X194669843Y-110938954D01*
X194829816Y-110878284D01*
X194970620Y-110781094D01*
X195084075Y-110653031D01*
X195163584Y-110501537D01*
X195204529Y-110335418D01*
X195207107Y-110249873D01*
X195204529Y-110164328D01*
X195165774Y-110007096D01*
X195906382Y-110007096D01*
X196261350Y-110362064D01*
X196616318Y-110007096D01*
X197320596Y-110007096D01*
X197675564Y-110362064D01*
X198030532Y-110007096D01*
X198734809Y-110007096D01*
X199089777Y-110362064D01*
X199444745Y-110007096D01*
X199089777Y-109652128D01*
X198734809Y-110007096D01*
X198030532Y-110007096D01*
X197675564Y-109652128D01*
X197320596Y-110007096D01*
X196616318Y-110007096D01*
X196261350Y-109652128D01*
X195906382Y-110007096D01*
X195165774Y-110007096D01*
X195163584Y-109998209D01*
X195084075Y-109846715D01*
X194970620Y-109718652D01*
X194829817Y-109621463D01*
X194829819Y-109621463D01*
X194669842Y-109560791D01*
X194500000Y-109540170D01*
X194330157Y-109560791D01*
X194170181Y-109621463D01*
X194029382Y-109718650D01*
X194029379Y-109718652D01*
X193915924Y-109846716D01*
X193836415Y-109998210D01*
X193795471Y-110164327D01*
X193297471Y-110164327D01*
X193297471Y-110149274D01*
X193297697Y-110141788D01*
X193298609Y-110126709D01*
X193299287Y-110119250D01*
X193302916Y-110089359D01*
X193304044Y-110081950D01*
X193306768Y-110067087D01*
X193308339Y-110059766D01*
X193356490Y-109864410D01*
X193358503Y-109857189D01*
X193363000Y-109842760D01*
X193365442Y-109835684D01*
X193376119Y-109807532D01*
X193378988Y-109800608D01*
X193385187Y-109786836D01*
X193388463Y-109780107D01*
X193447814Y-109667019D01*
X193432923Y-109652128D01*
X193077955Y-110007096D01*
X192373677Y-110007096D01*
X192018709Y-109652128D01*
X191663741Y-110007096D01*
X190959464Y-110007096D01*
X190604496Y-109652128D01*
X190249528Y-110007096D01*
X188131037Y-110007096D01*
X187776069Y-109652128D01*
X187421101Y-110007096D01*
X186716823Y-110007096D01*
X186361855Y-109652128D01*
X186006887Y-110007096D01*
X185302610Y-110007096D01*
X184947641Y-109652127D01*
X184592673Y-110007096D01*
X183888396Y-110007096D01*
X183533428Y-109652128D01*
X183178460Y-110007096D01*
X182474182Y-110007096D01*
X182119214Y-109652127D01*
X181764246Y-110007096D01*
X181059969Y-110007096D01*
X180705001Y-109652128D01*
X180350033Y-110007096D01*
X179645755Y-110007096D01*
X179290787Y-109652128D01*
X178935819Y-110007096D01*
X178252939Y-110007096D01*
X178248566Y-109987938D01*
X178171514Y-109827937D01*
X178171510Y-109827931D01*
X178133371Y-109780107D01*
X178060785Y-109689088D01*
X177975987Y-109621463D01*
X177921941Y-109578362D01*
X177921935Y-109578358D01*
X177761933Y-109501306D01*
X177761935Y-109501306D01*
X177588802Y-109461790D01*
X177588796Y-109461790D01*
X177411204Y-109461790D01*
X177411197Y-109461790D01*
X177238065Y-109501306D01*
X177078064Y-109578358D01*
X177078058Y-109578362D01*
X176939215Y-109689088D01*
X176828489Y-109827931D01*
X176828485Y-109827937D01*
X176751433Y-109987938D01*
X176711917Y-110161070D01*
X174789768Y-110161070D01*
X174966838Y-110007096D01*
X176107392Y-110007096D01*
X176215890Y-110115594D01*
X176218613Y-110091433D01*
X176219585Y-110084549D01*
X176221935Y-110070716D01*
X176223292Y-110063892D01*
X176269030Y-109863498D01*
X176270765Y-109856769D01*
X176274648Y-109843288D01*
X176276261Y-109838226D01*
X176107392Y-110007096D01*
X174966838Y-110007096D01*
X175852916Y-109236594D01*
X178292106Y-109236594D01*
X178382214Y-109308454D01*
X178387528Y-109312942D01*
X178397987Y-109322289D01*
X178403040Y-109327066D01*
X178422807Y-109346833D01*
X178427584Y-109351886D01*
X178436931Y-109362345D01*
X178441419Y-109367659D01*
X178569577Y-109528361D01*
X178573762Y-109533921D01*
X178581881Y-109545364D01*
X178585744Y-109551146D01*
X178600618Y-109574818D01*
X178604151Y-109580808D01*
X178610937Y-109593086D01*
X178614130Y-109599267D01*
X178622334Y-109616303D01*
X178938647Y-109299989D01*
X179642926Y-109299989D01*
X179997894Y-109654957D01*
X180352862Y-109299989D01*
X181057140Y-109299989D01*
X181412108Y-109654957D01*
X181767076Y-109299989D01*
X182471353Y-109299989D01*
X182826321Y-109654957D01*
X183181289Y-109299989D01*
X183885567Y-109299989D01*
X184240535Y-109654957D01*
X184595503Y-109299989D01*
X185299780Y-109299989D01*
X185654748Y-109654957D01*
X186009716Y-109299989D01*
X186713994Y-109299989D01*
X187068962Y-109654957D01*
X187423930Y-109299989D01*
X188128207Y-109299989D01*
X188457753Y-109629535D01*
X188517207Y-109576865D01*
X188541808Y-109559884D01*
X188618494Y-109519635D01*
X188838142Y-109299989D01*
X189542421Y-109299989D01*
X189897389Y-109654957D01*
X190252357Y-109299989D01*
X190956634Y-109299989D01*
X191311602Y-109654957D01*
X191666571Y-109299989D01*
X192370848Y-109299989D01*
X192725816Y-109654957D01*
X193080784Y-109299989D01*
X193063849Y-109283054D01*
X195216209Y-109283054D01*
X195265906Y-109317358D01*
X195271940Y-109321798D01*
X195283832Y-109331115D01*
X195289585Y-109335910D01*
X195312122Y-109355876D01*
X195317576Y-109361010D01*
X195328259Y-109371693D01*
X195333393Y-109377146D01*
X195466815Y-109527747D01*
X195471610Y-109533501D01*
X195480927Y-109545393D01*
X195485365Y-109551424D01*
X195502471Y-109576205D01*
X195506540Y-109582498D01*
X195514357Y-109595429D01*
X195518037Y-109601954D01*
X195536589Y-109637303D01*
X195554243Y-109654957D01*
X195909211Y-109299989D01*
X196613489Y-109299989D01*
X196968457Y-109654957D01*
X197323425Y-109299989D01*
X198027702Y-109299989D01*
X198382670Y-109654957D01*
X198718955Y-109318671D01*
X198166783Y-109160907D01*
X198027702Y-109299989D01*
X197323425Y-109299989D01*
X196968457Y-108945021D01*
X196613489Y-109299989D01*
X195909211Y-109299989D01*
X195554243Y-108945021D01*
X195216209Y-109283054D01*
X193063849Y-109283054D01*
X193023280Y-109242485D01*
X193842565Y-109242485D01*
X193899679Y-109203063D01*
X193905971Y-109198995D01*
X193918904Y-109191177D01*
X193925427Y-109187498D01*
X193952087Y-109173506D01*
X193958822Y-109170227D01*
X193972596Y-109164028D01*
X193979515Y-109161162D01*
X194167640Y-109089815D01*
X194174723Y-109087371D01*
X194189149Y-109082876D01*
X194196362Y-109080865D01*
X194225598Y-109073659D01*
X194232923Y-109072087D01*
X194247783Y-109069364D01*
X194255187Y-109068237D01*
X194262373Y-109067364D01*
X194140030Y-108945021D01*
X193842565Y-109242485D01*
X193023280Y-109242485D01*
X192725816Y-108945021D01*
X192370848Y-109299989D01*
X191666571Y-109299989D01*
X191311602Y-108945020D01*
X190956634Y-109299989D01*
X190252357Y-109299989D01*
X189897389Y-108945021D01*
X189542421Y-109299989D01*
X188838142Y-109299989D01*
X188838143Y-109299988D01*
X188483175Y-108945020D01*
X188128207Y-109299989D01*
X187423930Y-109299989D01*
X187068962Y-108945021D01*
X186713994Y-109299989D01*
X186009716Y-109299989D01*
X185654748Y-108945021D01*
X185299780Y-109299989D01*
X184595503Y-109299989D01*
X184240535Y-108945021D01*
X183885567Y-109299989D01*
X183181289Y-109299989D01*
X182826321Y-108945021D01*
X182471353Y-109299989D01*
X181767076Y-109299989D01*
X181412108Y-108945021D01*
X181057140Y-109299989D01*
X180352862Y-109299989D01*
X179997894Y-108945021D01*
X179642926Y-109299989D01*
X178938647Y-109299989D01*
X178938648Y-109299988D01*
X178583680Y-108945020D01*
X178292106Y-109236594D01*
X175852916Y-109236594D01*
X176094945Y-109026134D01*
X177088353Y-109026134D01*
X177093415Y-109024521D01*
X177106896Y-109020638D01*
X177113625Y-109018903D01*
X177219242Y-108994796D01*
X177169467Y-108945021D01*
X177088353Y-109026134D01*
X176094945Y-109026134D01*
X176581131Y-108603364D01*
X177532088Y-108603364D01*
X177876574Y-108947850D01*
X178231542Y-108592882D01*
X178935819Y-108592882D01*
X179290787Y-108947850D01*
X179645755Y-108592882D01*
X180350033Y-108592882D01*
X180705001Y-108947850D01*
X181059969Y-108592882D01*
X181764246Y-108592882D01*
X182119214Y-108947850D01*
X182474182Y-108592882D01*
X183178460Y-108592882D01*
X183533428Y-108947850D01*
X183888396Y-108592882D01*
X184592673Y-108592882D01*
X184947641Y-108947850D01*
X185302610Y-108592882D01*
X186006887Y-108592882D01*
X186361855Y-108947850D01*
X186716823Y-108592882D01*
X187421101Y-108592882D01*
X187776069Y-108947850D01*
X188131037Y-108592882D01*
X188835314Y-108592882D01*
X189190282Y-108947850D01*
X189545250Y-108592882D01*
X190249528Y-108592882D01*
X190604496Y-108947850D01*
X190959464Y-108592882D01*
X191663741Y-108592882D01*
X192018709Y-108947850D01*
X192098895Y-108867664D01*
X193352737Y-108867664D01*
X193432923Y-108947850D01*
X193506773Y-108874000D01*
X193378893Y-108874000D01*
X193352737Y-108867664D01*
X192098895Y-108867664D01*
X192373677Y-108592882D01*
X192018709Y-108237914D01*
X191663741Y-108592882D01*
X190959464Y-108592882D01*
X190604496Y-108237914D01*
X190249528Y-108592882D01*
X189545250Y-108592882D01*
X189190282Y-108237914D01*
X188835314Y-108592882D01*
X188131037Y-108592882D01*
X187776069Y-108237914D01*
X187421101Y-108592882D01*
X186716823Y-108592882D01*
X186361855Y-108237914D01*
X186006887Y-108592882D01*
X185302610Y-108592882D01*
X184947641Y-108237913D01*
X184592673Y-108592882D01*
X183888396Y-108592882D01*
X183533428Y-108237914D01*
X183178460Y-108592882D01*
X182474182Y-108592882D01*
X182119214Y-108237913D01*
X181764246Y-108592882D01*
X181059969Y-108592882D01*
X180705001Y-108237914D01*
X180350033Y-108592882D01*
X179645755Y-108592882D01*
X179290787Y-108237914D01*
X178935819Y-108592882D01*
X178231542Y-108592882D01*
X177911821Y-108273161D01*
X177532088Y-108603364D01*
X176581131Y-108603364D01*
X177337570Y-107945591D01*
X178288527Y-107945591D01*
X178583680Y-108240744D01*
X178938649Y-107885775D01*
X179642925Y-107885775D01*
X179997894Y-108240744D01*
X180352862Y-107885775D01*
X181057139Y-107885775D01*
X181412108Y-108240744D01*
X181767076Y-107885775D01*
X182471352Y-107885775D01*
X182826321Y-108240744D01*
X183181289Y-107885775D01*
X183885566Y-107885775D01*
X184240535Y-108240744D01*
X184595503Y-107885775D01*
X185299779Y-107885775D01*
X185654748Y-108240744D01*
X186009716Y-107885775D01*
X186713993Y-107885775D01*
X187068962Y-108240744D01*
X187423930Y-107885775D01*
X188128206Y-107885775D01*
X188483175Y-108240744D01*
X188838143Y-107885775D01*
X189542420Y-107885775D01*
X189897389Y-108240744D01*
X190252357Y-107885775D01*
X190956634Y-107885775D01*
X191311602Y-108240744D01*
X191666570Y-107885776D01*
X192370848Y-107885776D01*
X192725814Y-108240742D01*
X192726244Y-108240313D01*
X192430438Y-107826185D01*
X192370848Y-107885776D01*
X191666570Y-107885776D01*
X191666571Y-107885775D01*
X191311602Y-107530807D01*
X190956634Y-107885775D01*
X190252357Y-107885775D01*
X189897389Y-107530807D01*
X189542420Y-107885775D01*
X188838143Y-107885775D01*
X188483175Y-107530807D01*
X188128206Y-107885775D01*
X187423930Y-107885775D01*
X187068962Y-107530807D01*
X186713993Y-107885775D01*
X186009716Y-107885775D01*
X185654748Y-107530807D01*
X185299779Y-107885775D01*
X184595503Y-107885775D01*
X184240535Y-107530807D01*
X183885566Y-107885775D01*
X183181289Y-107885775D01*
X182826321Y-107530807D01*
X182471352Y-107885775D01*
X181767076Y-107885775D01*
X181412108Y-107530807D01*
X181057139Y-107885775D01*
X180352862Y-107885775D01*
X179997894Y-107530807D01*
X179642925Y-107885775D01*
X178938649Y-107885775D01*
X178668261Y-107615388D01*
X178288527Y-107945591D01*
X177337570Y-107945591D01*
X177947342Y-107415355D01*
X178094011Y-107287817D01*
X179044967Y-107287817D01*
X179290787Y-107533637D01*
X179645755Y-107178669D01*
X180350033Y-107178669D01*
X180705001Y-107533637D01*
X181059969Y-107178669D01*
X181764246Y-107178669D01*
X182119214Y-107533637D01*
X182474182Y-107178669D01*
X183178460Y-107178669D01*
X183533428Y-107533637D01*
X183888396Y-107178669D01*
X184592673Y-107178669D01*
X184947641Y-107533637D01*
X185302610Y-107178669D01*
X186006887Y-107178669D01*
X186361855Y-107533637D01*
X186716823Y-107178669D01*
X187421101Y-107178669D01*
X187776069Y-107533637D01*
X188131037Y-107178669D01*
X188835314Y-107178669D01*
X189190282Y-107533637D01*
X189545250Y-107178669D01*
X190249528Y-107178669D01*
X190604496Y-107533637D01*
X190959464Y-107178669D01*
X190959463Y-107178668D01*
X191663740Y-107178668D01*
X192018708Y-107533636D01*
X192136988Y-107415355D01*
X191841181Y-107001226D01*
X191663740Y-107178668D01*
X190959463Y-107178668D01*
X190604496Y-106823701D01*
X190249528Y-107178669D01*
X189545250Y-107178669D01*
X189190282Y-106823701D01*
X188835314Y-107178669D01*
X188131037Y-107178669D01*
X187776069Y-106823701D01*
X187421101Y-107178669D01*
X186716823Y-107178669D01*
X186361855Y-106823701D01*
X186006887Y-107178669D01*
X185302610Y-107178669D01*
X184947641Y-106823700D01*
X184592673Y-107178669D01*
X183888396Y-107178669D01*
X183533428Y-106823701D01*
X183178460Y-107178669D01*
X182474182Y-107178669D01*
X182119214Y-106823700D01*
X181764246Y-107178669D01*
X181059969Y-107178669D01*
X180705001Y-106823701D01*
X180350033Y-107178669D01*
X179645755Y-107178669D01*
X179424701Y-106957615D01*
X179044967Y-107287817D01*
X178094011Y-107287817D01*
X178965153Y-106530302D01*
X178977301Y-106524728D01*
X178994626Y-106505757D01*
X179000272Y-106500246D01*
X179000000Y-106494235D01*
X179000000Y-106471562D01*
X179642926Y-106471562D01*
X179997894Y-106826530D01*
X180352862Y-106471562D01*
X181057140Y-106471562D01*
X181412108Y-106826530D01*
X181767076Y-106471562D01*
X182471353Y-106471562D01*
X182826321Y-106826530D01*
X183181289Y-106471562D01*
X183885567Y-106471562D01*
X184240535Y-106826530D01*
X184595503Y-106471562D01*
X185299780Y-106471562D01*
X185654748Y-106826530D01*
X186009716Y-106471562D01*
X186713994Y-106471562D01*
X187068962Y-106826530D01*
X187423930Y-106471562D01*
X188128207Y-106471562D01*
X188483175Y-106826530D01*
X188838143Y-106471562D01*
X189542421Y-106471562D01*
X189897389Y-106826530D01*
X190252357Y-106471562D01*
X190252356Y-106471561D01*
X190956633Y-106471561D01*
X191311602Y-106826529D01*
X191547733Y-106590397D01*
X191251926Y-106176268D01*
X190956633Y-106471561D01*
X190252356Y-106471561D01*
X189897389Y-106116594D01*
X189542421Y-106471562D01*
X188838143Y-106471562D01*
X188483175Y-106116593D01*
X188128207Y-106471562D01*
X187423930Y-106471562D01*
X187068962Y-106116594D01*
X186713994Y-106471562D01*
X186009716Y-106471562D01*
X185654748Y-106116594D01*
X185299780Y-106471562D01*
X184595503Y-106471562D01*
X184240535Y-106116594D01*
X183885567Y-106471562D01*
X183181289Y-106471562D01*
X182826321Y-106116594D01*
X182471353Y-106471562D01*
X181767076Y-106471562D01*
X181412108Y-106116594D01*
X181057140Y-106471562D01*
X180352862Y-106471562D01*
X179997894Y-106116594D01*
X179642926Y-106471562D01*
X179000000Y-106471562D01*
X179000000Y-105764455D01*
X180350033Y-105764455D01*
X180705001Y-106119423D01*
X181059969Y-105764455D01*
X181764246Y-105764455D01*
X182119214Y-106119423D01*
X182474182Y-105764455D01*
X183178460Y-105764455D01*
X183533428Y-106119423D01*
X183888396Y-105764455D01*
X184592673Y-105764455D01*
X184947641Y-106119423D01*
X185302610Y-105764455D01*
X186006887Y-105764455D01*
X186361855Y-106119423D01*
X186716823Y-105764455D01*
X187421101Y-105764455D01*
X187776069Y-106119423D01*
X188131037Y-105764455D01*
X188835314Y-105764455D01*
X189190282Y-106119423D01*
X189545250Y-105764455D01*
X190249528Y-105764455D01*
X190604495Y-106119422D01*
X190958478Y-105765439D01*
X190953551Y-105758542D01*
X190604496Y-105409487D01*
X190249528Y-105764455D01*
X189545250Y-105764455D01*
X189190282Y-105409487D01*
X188835314Y-105764455D01*
X188131037Y-105764455D01*
X187776069Y-105409487D01*
X187421101Y-105764455D01*
X186716823Y-105764455D01*
X186361855Y-105409487D01*
X186006887Y-105764455D01*
X185302610Y-105764455D01*
X184947641Y-105409486D01*
X184592673Y-105764455D01*
X183888396Y-105764455D01*
X183533428Y-105409487D01*
X183178460Y-105764455D01*
X182474182Y-105764455D01*
X182119214Y-105409486D01*
X181764246Y-105764455D01*
X181059969Y-105764455D01*
X180705001Y-105409487D01*
X180350033Y-105764455D01*
X179000000Y-105764455D01*
X179000000Y-105274530D01*
X179009340Y-105227317D01*
X179046885Y-105136136D01*
X179721713Y-105136136D01*
X179997893Y-105412316D01*
X180352862Y-105057348D01*
X181057139Y-105057348D01*
X181412108Y-105412316D01*
X181767076Y-105057348D01*
X182471352Y-105057348D01*
X182826321Y-105412316D01*
X183181289Y-105057348D01*
X183885566Y-105057348D01*
X184240535Y-105412316D01*
X184595503Y-105057348D01*
X185299779Y-105057348D01*
X185654748Y-105412316D01*
X186009716Y-105057348D01*
X186713993Y-105057348D01*
X187068962Y-105412316D01*
X187423930Y-105057348D01*
X188128206Y-105057348D01*
X188483175Y-105412316D01*
X188838143Y-105057348D01*
X189542420Y-105057348D01*
X189897389Y-105412316D01*
X190252357Y-105057348D01*
X189897389Y-104702380D01*
X189542420Y-105057348D01*
X188838143Y-105057348D01*
X188483175Y-104702379D01*
X188128206Y-105057348D01*
X187423930Y-105057348D01*
X187068962Y-104702380D01*
X186713993Y-105057348D01*
X186009716Y-105057348D01*
X185654748Y-104702380D01*
X185299779Y-105057348D01*
X184595503Y-105057348D01*
X184240535Y-104702380D01*
X183885566Y-105057348D01*
X183181289Y-105057348D01*
X182826321Y-104702380D01*
X182471352Y-105057348D01*
X181767076Y-105057348D01*
X181412108Y-104702380D01*
X181057139Y-105057348D01*
X180352862Y-105057348D01*
X179997893Y-104702379D01*
X179832017Y-104868255D01*
X179721713Y-105136136D01*
X179046885Y-105136136D01*
X179224325Y-104705210D01*
X179370488Y-104350242D01*
X180350033Y-104350242D01*
X180705001Y-104705210D01*
X181059969Y-104350242D01*
X181764246Y-104350242D01*
X182119214Y-104705210D01*
X182474182Y-104350242D01*
X183178460Y-104350242D01*
X183533428Y-104705210D01*
X183888396Y-104350242D01*
X184592673Y-104350242D01*
X184947641Y-104705210D01*
X185302610Y-104350242D01*
X186006887Y-104350242D01*
X186361855Y-104705210D01*
X186716823Y-104350242D01*
X187421101Y-104350242D01*
X187776069Y-104705210D01*
X188131037Y-104350242D01*
X188835314Y-104350242D01*
X189190282Y-104705210D01*
X189545250Y-104350242D01*
X189190282Y-103995274D01*
X188835314Y-104350242D01*
X188131037Y-104350242D01*
X187776069Y-103995274D01*
X187421101Y-104350242D01*
X186716823Y-104350242D01*
X186361855Y-103995274D01*
X186006887Y-104350242D01*
X185302610Y-104350242D01*
X184947641Y-103995273D01*
X184592673Y-104350242D01*
X183888396Y-104350242D01*
X183533428Y-103995274D01*
X183178460Y-104350242D01*
X182474182Y-104350242D01*
X182119214Y-103995273D01*
X181764246Y-104350242D01*
X181059969Y-104350242D01*
X180705001Y-103995274D01*
X180350033Y-104350242D01*
X179370488Y-104350242D01*
X179661650Y-103643135D01*
X181057140Y-103643135D01*
X181412108Y-103998103D01*
X181767076Y-103643135D01*
X182471353Y-103643135D01*
X182826321Y-103998103D01*
X183181289Y-103643135D01*
X183885567Y-103643135D01*
X184240535Y-103998103D01*
X184595503Y-103643135D01*
X185299780Y-103643135D01*
X185654748Y-103998103D01*
X186009716Y-103643135D01*
X186713994Y-103643135D01*
X187068962Y-103998103D01*
X187423930Y-103643135D01*
X188128207Y-103643135D01*
X188483175Y-103998103D01*
X188838143Y-103643135D01*
X189542421Y-103643135D01*
X189897388Y-103998102D01*
X190070901Y-103824589D01*
X189915369Y-103306147D01*
X189897389Y-103288167D01*
X189542421Y-103643135D01*
X188838143Y-103643135D01*
X188483175Y-103288166D01*
X188128207Y-103643135D01*
X187423930Y-103643135D01*
X187068962Y-103288167D01*
X186713994Y-103643135D01*
X186009716Y-103643135D01*
X185654748Y-103288167D01*
X185299780Y-103643135D01*
X184595503Y-103643135D01*
X184240535Y-103288167D01*
X183885567Y-103643135D01*
X183181289Y-103643135D01*
X182826321Y-103288167D01*
X182471353Y-103643135D01*
X181767076Y-103643135D01*
X181412108Y-103288167D01*
X181057140Y-103643135D01*
X179661650Y-103643135D01*
X179871843Y-103132666D01*
X180546671Y-103132666D01*
X180705001Y-103290996D01*
X181059969Y-102936028D01*
X181764246Y-102936028D01*
X182119214Y-103290996D01*
X182474182Y-102936028D01*
X183178460Y-102936028D01*
X183533428Y-103290996D01*
X183888396Y-102936028D01*
X184592673Y-102936028D01*
X184947641Y-103290996D01*
X185302610Y-102936028D01*
X186006887Y-102936028D01*
X186361855Y-103290996D01*
X186716823Y-102936028D01*
X187421101Y-102936028D01*
X187776069Y-103290996D01*
X188131037Y-102936028D01*
X188835314Y-102936028D01*
X189190282Y-103290996D01*
X189545250Y-102936028D01*
X189190282Y-102581060D01*
X188835314Y-102936028D01*
X188131037Y-102936028D01*
X187776069Y-102581060D01*
X187421101Y-102936028D01*
X186716823Y-102936028D01*
X186361855Y-102581060D01*
X186006887Y-102936028D01*
X185302610Y-102936028D01*
X184947641Y-102581059D01*
X184592673Y-102936028D01*
X183888396Y-102936028D01*
X183533428Y-102581060D01*
X183178460Y-102936028D01*
X182474182Y-102936028D01*
X182119214Y-102581059D01*
X181764246Y-102936028D01*
X181059969Y-102936028D01*
X180753735Y-102629794D01*
X180546671Y-103132666D01*
X179871843Y-103132666D01*
X180243973Y-102228921D01*
X181057140Y-102228921D01*
X181412108Y-102583889D01*
X181767076Y-102228921D01*
X182471353Y-102228921D01*
X182826321Y-102583889D01*
X183181289Y-102228921D01*
X183885567Y-102228921D01*
X184240535Y-102583889D01*
X184595503Y-102228921D01*
X185299780Y-102228921D01*
X185654748Y-102583889D01*
X186009716Y-102228921D01*
X186713994Y-102228921D01*
X187068962Y-102583889D01*
X187423930Y-102228921D01*
X188128207Y-102228921D01*
X188483175Y-102583889D01*
X188838143Y-102228921D01*
X188483175Y-101873952D01*
X188128207Y-102228921D01*
X187423930Y-102228921D01*
X187068962Y-101873953D01*
X186713994Y-102228921D01*
X186009716Y-102228921D01*
X185654748Y-101873953D01*
X185299780Y-102228921D01*
X184595503Y-102228921D01*
X184240535Y-101873953D01*
X183885567Y-102228921D01*
X183181289Y-102228921D01*
X182826321Y-101873953D01*
X182471353Y-102228921D01*
X181767076Y-102228921D01*
X181412108Y-101873953D01*
X181057140Y-102228921D01*
X180243973Y-102228921D01*
X180535135Y-101521814D01*
X181764245Y-101521814D01*
X182119214Y-101876783D01*
X182474182Y-101521814D01*
X183178459Y-101521814D01*
X183533428Y-101876783D01*
X183888396Y-101521814D01*
X184592673Y-101521814D01*
X184947641Y-101876783D01*
X185302610Y-101521814D01*
X186006886Y-101521814D01*
X186361855Y-101876783D01*
X186716823Y-101521814D01*
X187421100Y-101521814D01*
X187776069Y-101876783D01*
X188088105Y-101564746D01*
X187945462Y-101529588D01*
X187924964Y-101521814D01*
X188835313Y-101521814D01*
X189190281Y-101876782D01*
X189418187Y-101648875D01*
X189309277Y-101285842D01*
X189190281Y-101166846D01*
X188835313Y-101521814D01*
X187924964Y-101521814D01*
X187917513Y-101518988D01*
X187766993Y-101439990D01*
X187742391Y-101423008D01*
X187624420Y-101318494D01*
X187421100Y-101521814D01*
X186716823Y-101521814D01*
X186361855Y-101166846D01*
X186006886Y-101521814D01*
X185302610Y-101521814D01*
X184947641Y-101166846D01*
X184592673Y-101521814D01*
X183888396Y-101521814D01*
X183533428Y-101166846D01*
X183178459Y-101521814D01*
X182474182Y-101521814D01*
X182119214Y-101166846D01*
X181764245Y-101521814D01*
X180535135Y-101521814D01*
X180737808Y-101029608D01*
X180775003Y-100979997D01*
X180981614Y-100814708D01*
X182471353Y-100814708D01*
X182826321Y-101169676D01*
X183181289Y-100814708D01*
X183885567Y-100814708D01*
X184240535Y-101169676D01*
X184595503Y-100814708D01*
X185299780Y-100814708D01*
X185654748Y-101169676D01*
X186009716Y-100814708D01*
X186713994Y-100814708D01*
X187068961Y-101169675D01*
X187405269Y-100833367D01*
X187400112Y-100790890D01*
X187068962Y-100459740D01*
X186713994Y-100814708D01*
X186009716Y-100814708D01*
X185654748Y-100459740D01*
X185299780Y-100814708D01*
X184595503Y-100814708D01*
X184240535Y-100459740D01*
X183885567Y-100814708D01*
X183181289Y-100814708D01*
X182826321Y-100459740D01*
X182471353Y-100814708D01*
X180981614Y-100814708D01*
X181865498Y-100107601D01*
X183178460Y-100107601D01*
X183533428Y-100462569D01*
X183888396Y-100107601D01*
X184592673Y-100107601D01*
X184947641Y-100462569D01*
X185302610Y-100107601D01*
X186006887Y-100107601D01*
X186361855Y-100462569D01*
X186716823Y-100107601D01*
X187421101Y-100107601D01*
X187566746Y-100253246D01*
X187595328Y-100211838D01*
X187615151Y-100189463D01*
X187707555Y-100107600D01*
X188835313Y-100107600D01*
X189007444Y-100279731D01*
X188927999Y-100014914D01*
X188835313Y-100107600D01*
X187707555Y-100107600D01*
X187742391Y-100076738D01*
X187766993Y-100059756D01*
X187917513Y-99980758D01*
X187945462Y-99970158D01*
X187984076Y-99960640D01*
X187776069Y-99752633D01*
X187421101Y-100107601D01*
X186716823Y-100107601D01*
X186361855Y-99752633D01*
X186006887Y-100107601D01*
X185302610Y-100107601D01*
X184947641Y-99752632D01*
X184592673Y-100107601D01*
X183888396Y-100107601D01*
X183533428Y-99752633D01*
X183178460Y-100107601D01*
X181865498Y-100107601D01*
X182583921Y-99532862D01*
X184017935Y-99532862D01*
X184240535Y-99755462D01*
X184526733Y-99469263D01*
X184017935Y-99532862D01*
X182583921Y-99532862D01*
X182749381Y-99400494D01*
X185299780Y-99400494D01*
X185654748Y-99755462D01*
X186009716Y-99400494D01*
X186713994Y-99400494D01*
X187068962Y-99755462D01*
X187423930Y-99400494D01*
X188128207Y-99400494D01*
X188483175Y-99755462D01*
X188838143Y-99400494D01*
X188483175Y-99045525D01*
X188128207Y-99400494D01*
X187423930Y-99400494D01*
X187068962Y-99045526D01*
X186713994Y-99400494D01*
X186009716Y-99400494D01*
X185787916Y-99178694D01*
X185491036Y-99327135D01*
X185471515Y-99334905D01*
X185390137Y-99359545D01*
X185369583Y-99363909D01*
X185331620Y-99368654D01*
X185299780Y-99400494D01*
X182749381Y-99400494D01*
X183222661Y-99021870D01*
X183284742Y-98995657D01*
X183698520Y-98943935D01*
X186257434Y-98943935D01*
X186361854Y-99048355D01*
X186675116Y-98735093D01*
X186257434Y-98943935D01*
X183698520Y-98943935D01*
X183776056Y-98934243D01*
X185249995Y-98750001D01*
X185249996Y-98750000D01*
X185250000Y-98750000D01*
X185363226Y-98693387D01*
X187421100Y-98693387D01*
X187776069Y-99048355D01*
X188131037Y-98693387D01*
X188835313Y-98693387D01*
X189111895Y-98969969D01*
X189295952Y-98444089D01*
X189190282Y-98338419D01*
X188835313Y-98693387D01*
X188131037Y-98693387D01*
X187776069Y-98338419D01*
X187421100Y-98693387D01*
X185363226Y-98693387D01*
X186777438Y-97986281D01*
X188128207Y-97986281D01*
X188483175Y-98341249D01*
X188838143Y-97986281D01*
X188483175Y-97631312D01*
X188128207Y-97986281D01*
X186777438Y-97986281D01*
X187250000Y-97750000D01*
X187406942Y-97279174D01*
X188835314Y-97279174D01*
X189190282Y-97634142D01*
X189545250Y-97279174D01*
X189190282Y-96924206D01*
X188835314Y-97279174D01*
X187406942Y-97279174D01*
X187599597Y-96701210D01*
X188257350Y-96701210D01*
X188483175Y-96927035D01*
X188838143Y-96572067D01*
X189542421Y-96572067D01*
X189845191Y-96874837D01*
X190029248Y-96348958D01*
X189897389Y-96217099D01*
X189542421Y-96572067D01*
X188838143Y-96572067D01*
X188483174Y-96217098D01*
X188386493Y-96313779D01*
X188257350Y-96701210D01*
X187599597Y-96701210D01*
X187878347Y-95864960D01*
X188835314Y-95864960D01*
X189190282Y-96219928D01*
X189545250Y-95864960D01*
X189190282Y-95509992D01*
X188835314Y-95864960D01*
X187878347Y-95864960D01*
X188114049Y-95157853D01*
X189542420Y-95157853D01*
X189897389Y-95512822D01*
X190252357Y-95157853D01*
X189897389Y-94802885D01*
X189542420Y-95157853D01*
X188114049Y-95157853D01*
X188306704Y-94579889D01*
X188964456Y-94579889D01*
X189190282Y-94805715D01*
X189545250Y-94450747D01*
X190249528Y-94450747D01*
X190578486Y-94779705D01*
X190626000Y-94643954D01*
X190626000Y-94117283D01*
X190604496Y-94095779D01*
X190249528Y-94450747D01*
X189545250Y-94450747D01*
X189190281Y-94095778D01*
X189093599Y-94192460D01*
X188964456Y-94579889D01*
X188306704Y-94579889D01*
X188500000Y-94000000D01*
X188500000Y-93743640D01*
X189542421Y-93743640D01*
X189897389Y-94098608D01*
X190252357Y-93743640D01*
X189897389Y-93388672D01*
X189542421Y-93743640D01*
X188500000Y-93743640D01*
X188500000Y-92747847D01*
X189124000Y-92747847D01*
X189124000Y-93325219D01*
X189190282Y-93391501D01*
X189545250Y-93036533D01*
X190249528Y-93036533D01*
X190604496Y-93391501D01*
X190626000Y-93369997D01*
X190626000Y-92703069D01*
X190604496Y-92681565D01*
X190249528Y-93036533D01*
X189545250Y-93036533D01*
X189190282Y-92681565D01*
X189124000Y-92747847D01*
X188500000Y-92747847D01*
X188500000Y-92500000D01*
X188500000Y-92499873D01*
X180301235Y-92499873D01*
X180234196Y-92480188D01*
X180213554Y-92463554D01*
X180079426Y-92329426D01*
X189542421Y-92329426D01*
X189897389Y-92684394D01*
X190252357Y-92329426D01*
X189897389Y-91974458D01*
X189542421Y-92329426D01*
X180079426Y-92329426D01*
X179786319Y-92036319D01*
X179752834Y-91974996D01*
X179750000Y-91948638D01*
X179750000Y-91249873D01*
X180438355Y-91249873D01*
X180459182Y-91401403D01*
X180475590Y-91439178D01*
X180520118Y-91541692D01*
X180520119Y-91541694D01*
X180520120Y-91541695D01*
X180616647Y-91660343D01*
X180616650Y-91660345D01*
X180616653Y-91660348D01*
X180741604Y-91748548D01*
X180741607Y-91748549D01*
X180885730Y-91799771D01*
X181038328Y-91810209D01*
X181188083Y-91779089D01*
X181198607Y-91773636D01*
X181915562Y-91773636D01*
X182017926Y-91876000D01*
X182220502Y-91876000D01*
X182474181Y-91622320D01*
X183178460Y-91622320D01*
X183432140Y-91876000D01*
X183634716Y-91876000D01*
X183888396Y-91622320D01*
X183888395Y-91622319D01*
X184592673Y-91622319D01*
X184846354Y-91876000D01*
X185048930Y-91876000D01*
X185302610Y-91622320D01*
X186006887Y-91622320D01*
X186260567Y-91876000D01*
X186463143Y-91876000D01*
X186716823Y-91622320D01*
X187421101Y-91622320D01*
X187674781Y-91876000D01*
X187877357Y-91876000D01*
X187966305Y-91787052D01*
X189000046Y-91787052D01*
X189190282Y-91977288D01*
X189344754Y-91822815D01*
X189334995Y-91824000D01*
X189165005Y-91824000D01*
X189135329Y-91820397D01*
X189000046Y-91787052D01*
X187966305Y-91787052D01*
X188131037Y-91622320D01*
X190249528Y-91622320D01*
X190604496Y-91977288D01*
X190959464Y-91622320D01*
X190604496Y-91267352D01*
X190249528Y-91622320D01*
X188131037Y-91622320D01*
X187776069Y-91267352D01*
X187421101Y-91622320D01*
X186716823Y-91622320D01*
X186361855Y-91267352D01*
X186006887Y-91622320D01*
X185302610Y-91622320D01*
X184947641Y-91267351D01*
X184592673Y-91622319D01*
X183888395Y-91622319D01*
X183533428Y-91267352D01*
X183178460Y-91622320D01*
X182474181Y-91622320D01*
X182474182Y-91622319D01*
X182119213Y-91267351D01*
X182054507Y-91332057D01*
X182053619Y-91358182D01*
X182053145Y-91365587D01*
X182051743Y-91380480D01*
X182050828Y-91387834D01*
X182046268Y-91417280D01*
X182044915Y-91424571D01*
X182041749Y-91439178D01*
X182039965Y-91446366D01*
X181990088Y-91624381D01*
X181987527Y-91632449D01*
X181981809Y-91648539D01*
X181978703Y-91656415D01*
X181965140Y-91687642D01*
X181961504Y-91695288D01*
X181953644Y-91710458D01*
X181949492Y-91717842D01*
X181915562Y-91773636D01*
X181198607Y-91773636D01*
X181323890Y-91708720D01*
X181435674Y-91604320D01*
X181515147Y-91473633D01*
X181556414Y-91326350D01*
X181558422Y-91267351D01*
X181559017Y-91249880D01*
X181559017Y-91249865D01*
X181557415Y-91202810D01*
X181556414Y-91173396D01*
X181515147Y-91026113D01*
X181447707Y-90915213D01*
X182471353Y-90915213D01*
X182826321Y-91270181D01*
X183181289Y-90915213D01*
X183885567Y-90915213D01*
X184240535Y-91270181D01*
X184595503Y-90915213D01*
X185299780Y-90915213D01*
X185654748Y-91270181D01*
X186009716Y-90915213D01*
X186713994Y-90915213D01*
X187068962Y-91270181D01*
X187423930Y-90915213D01*
X188128207Y-90915213D01*
X188463881Y-91250887D01*
X188449407Y-91212722D01*
X188442253Y-91183697D01*
X188421763Y-91014946D01*
X188421763Y-90985054D01*
X188442253Y-90816303D01*
X188449407Y-90787278D01*
X188494514Y-90668342D01*
X190005486Y-90668342D01*
X190050593Y-90787278D01*
X190057747Y-90816303D01*
X190078237Y-90985054D01*
X190078237Y-91014946D01*
X190067956Y-91099613D01*
X190252357Y-90915213D01*
X190956634Y-90915213D01*
X191311602Y-91270181D01*
X191626000Y-90955784D01*
X191626000Y-90874642D01*
X191311602Y-90560244D01*
X190956634Y-90915213D01*
X190252357Y-90915213D01*
X190005486Y-90668342D01*
X188494514Y-90668342D01*
X188509687Y-90628334D01*
X188523578Y-90601866D01*
X188524075Y-90601145D01*
X188483175Y-90560245D01*
X188128207Y-90915213D01*
X187423930Y-90915213D01*
X187068962Y-90560245D01*
X186713994Y-90915213D01*
X186009716Y-90915213D01*
X185654748Y-90560245D01*
X185299780Y-90915213D01*
X184595503Y-90915213D01*
X184240535Y-90560245D01*
X183885567Y-90915213D01*
X183181289Y-90915213D01*
X182826321Y-90560245D01*
X182471353Y-90915213D01*
X181447707Y-90915213D01*
X181435674Y-90895426D01*
X181375689Y-90839403D01*
X181323890Y-90791025D01*
X181323888Y-90791024D01*
X181188086Y-90720658D01*
X181188077Y-90720655D01*
X181038330Y-90689537D01*
X181038325Y-90689537D01*
X180885728Y-90699975D01*
X180741604Y-90751197D01*
X180616653Y-90839397D01*
X180616647Y-90839403D01*
X180520119Y-90958051D01*
X180520118Y-90958053D01*
X180459182Y-91098343D01*
X180447451Y-91183697D01*
X180438355Y-91249873D01*
X179750000Y-91249873D01*
X179750000Y-90184139D01*
X180374000Y-90184139D01*
X180374000Y-90232073D01*
X180473236Y-90331309D01*
X180475403Y-90329888D01*
X180489999Y-90321011D01*
X180497390Y-90316855D01*
X180527618Y-90301194D01*
X180535262Y-90297560D01*
X180550925Y-90290757D01*
X180558798Y-90287652D01*
X180734999Y-90225029D01*
X180743071Y-90222467D01*
X180759521Y-90217858D01*
X180767749Y-90215853D01*
X180801082Y-90208927D01*
X180805846Y-90208106D01*
X181764246Y-90208106D01*
X182119214Y-90563074D01*
X182474182Y-90208106D01*
X183178460Y-90208106D01*
X183533428Y-90563074D01*
X183888396Y-90208106D01*
X184592673Y-90208106D01*
X184947641Y-90563074D01*
X185302610Y-90208106D01*
X186006887Y-90208106D01*
X186361855Y-90563074D01*
X186716823Y-90208106D01*
X187421101Y-90208106D01*
X187776069Y-90563074D01*
X188131037Y-90208106D01*
X188835314Y-90208106D01*
X188887086Y-90259878D01*
X188942329Y-90230885D01*
X188970278Y-90220285D01*
X189135329Y-90179603D01*
X189165005Y-90176000D01*
X189334995Y-90176000D01*
X189364671Y-90179603D01*
X189529722Y-90220285D01*
X189532148Y-90221205D01*
X189545248Y-90208106D01*
X190249528Y-90208106D01*
X190604496Y-90563074D01*
X190959464Y-90208106D01*
X190604496Y-89853138D01*
X190249528Y-90208106D01*
X189545248Y-90208106D01*
X189545249Y-90208105D01*
X189190282Y-89853138D01*
X188835314Y-90208106D01*
X188131037Y-90208106D01*
X187776069Y-89853138D01*
X187421101Y-90208106D01*
X186716823Y-90208106D01*
X186361855Y-89853138D01*
X186006887Y-90208106D01*
X185302610Y-90208106D01*
X184947641Y-89853137D01*
X184592673Y-90208106D01*
X183888396Y-90208106D01*
X183533428Y-89853138D01*
X183178460Y-90208106D01*
X182474182Y-90208106D01*
X182119214Y-89853137D01*
X181764246Y-90208106D01*
X180805846Y-90208106D01*
X180809426Y-90207489D01*
X180826344Y-90205164D01*
X180834763Y-90204298D01*
X181021326Y-90191536D01*
X181029789Y-90191247D01*
X181043110Y-90191247D01*
X180705001Y-89853138D01*
X180374000Y-90184139D01*
X179750000Y-90184139D01*
X179750000Y-89500999D01*
X181057140Y-89500999D01*
X181412108Y-89855967D01*
X181767076Y-89500999D01*
X182471353Y-89500999D01*
X182826321Y-89855967D01*
X183181289Y-89500999D01*
X183885567Y-89500999D01*
X184240535Y-89855967D01*
X184595503Y-89500999D01*
X185299780Y-89500999D01*
X185654748Y-89855967D01*
X186009716Y-89500999D01*
X186713994Y-89500999D01*
X187068962Y-89855967D01*
X187423930Y-89500999D01*
X188128207Y-89500999D01*
X188483175Y-89855967D01*
X188838143Y-89500999D01*
X189542421Y-89500999D01*
X189897389Y-89855967D01*
X190252357Y-89500999D01*
X190956634Y-89500999D01*
X191311602Y-89855967D01*
X191626000Y-89541570D01*
X191626000Y-89460428D01*
X191311602Y-89146030D01*
X190956634Y-89500999D01*
X190252357Y-89500999D01*
X189897389Y-89146031D01*
X189542421Y-89500999D01*
X188838143Y-89500999D01*
X188483175Y-89146030D01*
X188128207Y-89500999D01*
X187423930Y-89500999D01*
X187068962Y-89146031D01*
X186713994Y-89500999D01*
X186009716Y-89500999D01*
X185654748Y-89146031D01*
X185299780Y-89500999D01*
X184595503Y-89500999D01*
X184240535Y-89146031D01*
X183885567Y-89500999D01*
X183181289Y-89500999D01*
X182826321Y-89146031D01*
X182471353Y-89500999D01*
X181767076Y-89500999D01*
X181412108Y-89146031D01*
X181057140Y-89500999D01*
X179750000Y-89500999D01*
X179750000Y-88769925D01*
X180374000Y-88769925D01*
X180374000Y-88817859D01*
X180705001Y-89148860D01*
X181059969Y-88793892D01*
X181764245Y-88793892D01*
X182119214Y-89148860D01*
X182474182Y-88793892D01*
X183178459Y-88793892D01*
X183533428Y-89148860D01*
X183888396Y-88793892D01*
X184592673Y-88793892D01*
X184947641Y-89148860D01*
X185302610Y-88793892D01*
X186006886Y-88793892D01*
X186361855Y-89148860D01*
X186716823Y-88793892D01*
X187421100Y-88793892D01*
X187776069Y-89148860D01*
X188131037Y-88793892D01*
X188835313Y-88793892D01*
X189190282Y-89148860D01*
X189545250Y-88793892D01*
X190249527Y-88793892D01*
X190604496Y-89148860D01*
X190959464Y-88793892D01*
X190604496Y-88438924D01*
X190249527Y-88793892D01*
X189545250Y-88793892D01*
X189190282Y-88438924D01*
X188835313Y-88793892D01*
X188131037Y-88793892D01*
X187776069Y-88438924D01*
X187421100Y-88793892D01*
X186716823Y-88793892D01*
X186361855Y-88438924D01*
X186006886Y-88793892D01*
X185302610Y-88793892D01*
X184947641Y-88438923D01*
X184592673Y-88793892D01*
X183888396Y-88793892D01*
X183533428Y-88438924D01*
X183178459Y-88793892D01*
X182474182Y-88793892D01*
X182119214Y-88438923D01*
X181764245Y-88793892D01*
X181059969Y-88793892D01*
X180705001Y-88438924D01*
X180374000Y-88769925D01*
X179750000Y-88769925D01*
X179750000Y-88086786D01*
X181057140Y-88086786D01*
X181412108Y-88441754D01*
X181767076Y-88086786D01*
X182471353Y-88086786D01*
X182826321Y-88441754D01*
X183181289Y-88086786D01*
X183885567Y-88086786D01*
X184240535Y-88441754D01*
X184595503Y-88086786D01*
X185299780Y-88086786D01*
X185654748Y-88441754D01*
X186009716Y-88086786D01*
X186713994Y-88086786D01*
X187068962Y-88441754D01*
X187423930Y-88086786D01*
X188128207Y-88086786D01*
X188483175Y-88441754D01*
X188838143Y-88086786D01*
X189542421Y-88086786D01*
X189897389Y-88441754D01*
X190252357Y-88086786D01*
X190956634Y-88086786D01*
X191311602Y-88441754D01*
X191626000Y-88127357D01*
X191626000Y-88046215D01*
X191311602Y-87731817D01*
X190956634Y-88086786D01*
X190252357Y-88086786D01*
X189897389Y-87731818D01*
X189542421Y-88086786D01*
X188838143Y-88086786D01*
X188483175Y-87731817D01*
X188128207Y-88086786D01*
X187423930Y-88086786D01*
X187068962Y-87731818D01*
X186713994Y-88086786D01*
X186009716Y-88086786D01*
X185654748Y-87731818D01*
X185299780Y-88086786D01*
X184595503Y-88086786D01*
X184240535Y-87731818D01*
X183885567Y-88086786D01*
X183181289Y-88086786D01*
X182826321Y-87731818D01*
X182471353Y-88086786D01*
X181767076Y-88086786D01*
X181412108Y-87731818D01*
X181057140Y-88086786D01*
X179750000Y-88086786D01*
X179750000Y-87355712D01*
X180374000Y-87355712D01*
X180374000Y-87403646D01*
X180705001Y-87734647D01*
X181059969Y-87379679D01*
X181764246Y-87379679D01*
X182119214Y-87734647D01*
X182474182Y-87379679D01*
X183178460Y-87379679D01*
X183533428Y-87734647D01*
X183888396Y-87379679D01*
X184592673Y-87379679D01*
X184947641Y-87734647D01*
X185302610Y-87379679D01*
X186006887Y-87379679D01*
X186361855Y-87734647D01*
X186716823Y-87379679D01*
X187421101Y-87379679D01*
X187776069Y-87734647D01*
X188131037Y-87379679D01*
X188835314Y-87379679D01*
X189190282Y-87734647D01*
X189545250Y-87379679D01*
X190249528Y-87379679D01*
X190604496Y-87734647D01*
X190959464Y-87379679D01*
X190604496Y-87024711D01*
X190249528Y-87379679D01*
X189545250Y-87379679D01*
X189190282Y-87024711D01*
X188835314Y-87379679D01*
X188131037Y-87379679D01*
X187776069Y-87024711D01*
X187421101Y-87379679D01*
X186716823Y-87379679D01*
X186361855Y-87024711D01*
X186006887Y-87379679D01*
X185302610Y-87379679D01*
X184947641Y-87024710D01*
X184592673Y-87379679D01*
X183888396Y-87379679D01*
X183533428Y-87024711D01*
X183178460Y-87379679D01*
X182474182Y-87379679D01*
X182119214Y-87024710D01*
X181764246Y-87379679D01*
X181059969Y-87379679D01*
X180705001Y-87024711D01*
X180374000Y-87355712D01*
X179750000Y-87355712D01*
X179750000Y-86672572D01*
X181057140Y-86672572D01*
X181412108Y-87027540D01*
X181767076Y-86672572D01*
X182471353Y-86672572D01*
X182826321Y-87027540D01*
X183181289Y-86672572D01*
X183885567Y-86672572D01*
X184240535Y-87027540D01*
X184595503Y-86672572D01*
X185299780Y-86672572D01*
X185654748Y-87027540D01*
X186009716Y-86672572D01*
X186713994Y-86672572D01*
X187068962Y-87027540D01*
X187423930Y-86672572D01*
X188128207Y-86672572D01*
X188483175Y-87027540D01*
X188838143Y-86672572D01*
X189542421Y-86672572D01*
X189897389Y-87027540D01*
X190050929Y-86874000D01*
X191158062Y-86874000D01*
X191311602Y-87027540D01*
X191465143Y-86874000D01*
X191158062Y-86874000D01*
X190050929Y-86874000D01*
X190252357Y-86672572D01*
X189897389Y-86317604D01*
X189542421Y-86672572D01*
X188838143Y-86672572D01*
X188483175Y-86317603D01*
X188128207Y-86672572D01*
X187423930Y-86672572D01*
X187068962Y-86317604D01*
X186713994Y-86672572D01*
X186009716Y-86672572D01*
X185654748Y-86317604D01*
X185299780Y-86672572D01*
X184595503Y-86672572D01*
X184240535Y-86317604D01*
X183885567Y-86672572D01*
X183181289Y-86672572D01*
X182826321Y-86317604D01*
X182471353Y-86672572D01*
X181767076Y-86672572D01*
X181412108Y-86317604D01*
X181057140Y-86672572D01*
X179750000Y-86672572D01*
X179750000Y-85941498D01*
X180374000Y-85941498D01*
X180374000Y-85989432D01*
X180705001Y-86320433D01*
X181059969Y-85965465D01*
X181764246Y-85965465D01*
X182119214Y-86320433D01*
X182474182Y-85965465D01*
X183178460Y-85965465D01*
X183533428Y-86320433D01*
X183888396Y-85965465D01*
X184592673Y-85965465D01*
X184947641Y-86320433D01*
X185302610Y-85965465D01*
X186006887Y-85965465D01*
X186361855Y-86320433D01*
X186716823Y-85965465D01*
X187421101Y-85965465D01*
X187776069Y-86320433D01*
X188131037Y-85965465D01*
X188835314Y-85965465D01*
X189190282Y-86320433D01*
X189545250Y-85965465D01*
X189190282Y-85610497D01*
X188835314Y-85965465D01*
X188131037Y-85965465D01*
X187776069Y-85610497D01*
X187421101Y-85965465D01*
X186716823Y-85965465D01*
X186361855Y-85610497D01*
X186006887Y-85965465D01*
X185302610Y-85965465D01*
X184947641Y-85610496D01*
X184592673Y-85965465D01*
X183888396Y-85965465D01*
X183533428Y-85610497D01*
X183178460Y-85965465D01*
X182474182Y-85965465D01*
X182119214Y-85610496D01*
X181764246Y-85965465D01*
X181059969Y-85965465D01*
X180705001Y-85610497D01*
X180374000Y-85941498D01*
X179750000Y-85941498D01*
X179750000Y-85258358D01*
X181057139Y-85258358D01*
X181412108Y-85613327D01*
X181767076Y-85258358D01*
X182471352Y-85258358D01*
X182826321Y-85613327D01*
X183181289Y-85258358D01*
X183885566Y-85258358D01*
X184240535Y-85613327D01*
X184595503Y-85258358D01*
X185299779Y-85258358D01*
X185654748Y-85613327D01*
X186009716Y-85258358D01*
X186713993Y-85258358D01*
X187068962Y-85613327D01*
X187423930Y-85258358D01*
X188128206Y-85258358D01*
X188483175Y-85613327D01*
X188838143Y-85258358D01*
X189542420Y-85258358D01*
X189897389Y-85613327D01*
X190126000Y-85384716D01*
X190126000Y-85132001D01*
X190030552Y-85036553D01*
X190017749Y-85033893D01*
X190009521Y-85031888D01*
X189993071Y-85027279D01*
X189984999Y-85024717D01*
X189830848Y-84969930D01*
X189542420Y-85258358D01*
X188838143Y-85258358D01*
X188483175Y-84903390D01*
X188128206Y-85258358D01*
X187423930Y-85258358D01*
X187068962Y-84903390D01*
X186713993Y-85258358D01*
X186009716Y-85258358D01*
X185654748Y-84903390D01*
X185299779Y-85258358D01*
X184595503Y-85258358D01*
X184240535Y-84903390D01*
X183885566Y-85258358D01*
X183181289Y-85258358D01*
X182826321Y-84903390D01*
X182471352Y-85258358D01*
X181767076Y-85258358D01*
X181412108Y-84903390D01*
X181057139Y-85258358D01*
X179750000Y-85258358D01*
X179750000Y-84527285D01*
X180374000Y-84527285D01*
X180374000Y-84575219D01*
X180705001Y-84906220D01*
X181059969Y-84551252D01*
X181764246Y-84551252D01*
X182119214Y-84906220D01*
X182474182Y-84551252D01*
X183178460Y-84551252D01*
X183533428Y-84906220D01*
X183888396Y-84551252D01*
X184592673Y-84551252D01*
X184947641Y-84906220D01*
X185302610Y-84551252D01*
X186006887Y-84551252D01*
X186361855Y-84906220D01*
X186716823Y-84551252D01*
X187421101Y-84551252D01*
X187776069Y-84906220D01*
X188131037Y-84551252D01*
X188835314Y-84551252D01*
X189190281Y-84906219D01*
X189431685Y-84664815D01*
X189373075Y-84592774D01*
X189367960Y-84586029D01*
X189358112Y-84572078D01*
X189353468Y-84564999D01*
X189335779Y-84535912D01*
X189331631Y-84528535D01*
X189323770Y-84513366D01*
X189320131Y-84505713D01*
X189245630Y-84334193D01*
X189242525Y-84326321D01*
X189236805Y-84310228D01*
X189234242Y-84302154D01*
X189225057Y-84269372D01*
X189223054Y-84261151D01*
X189219578Y-84244427D01*
X189218138Y-84236077D01*
X189216235Y-84222237D01*
X189190282Y-84196284D01*
X188835314Y-84551252D01*
X188131037Y-84551252D01*
X187776069Y-84196284D01*
X187421101Y-84551252D01*
X186716823Y-84551252D01*
X186361855Y-84196284D01*
X186006887Y-84551252D01*
X185302610Y-84551252D01*
X184947641Y-84196283D01*
X184592673Y-84551252D01*
X183888396Y-84551252D01*
X183533428Y-84196284D01*
X183178460Y-84551252D01*
X182474182Y-84551252D01*
X182119214Y-84196283D01*
X181764246Y-84551252D01*
X181059969Y-84551252D01*
X180705001Y-84196284D01*
X180374000Y-84527285D01*
X179750000Y-84527285D01*
X179750000Y-83844145D01*
X182471353Y-83844145D01*
X182826321Y-84199113D01*
X183181289Y-83844145D01*
X183885567Y-83844145D01*
X184240535Y-84199113D01*
X184595503Y-83844145D01*
X185299780Y-83844145D01*
X185654748Y-84199113D01*
X186009716Y-83844145D01*
X186713994Y-83844145D01*
X187068962Y-84199113D01*
X187423930Y-83844145D01*
X188128207Y-83844145D01*
X188483175Y-84199113D01*
X188682415Y-83999873D01*
X189688355Y-83999873D01*
X189709182Y-84151403D01*
X189722049Y-84181025D01*
X189770118Y-84291692D01*
X189770119Y-84291694D01*
X189770120Y-84291695D01*
X189866647Y-84410343D01*
X189866650Y-84410345D01*
X189866653Y-84410348D01*
X189991604Y-84498548D01*
X189991607Y-84498549D01*
X190135730Y-84549771D01*
X190288328Y-84560209D01*
X190438083Y-84529089D01*
X190573890Y-84458720D01*
X190685674Y-84354320D01*
X190765147Y-84223633D01*
X190806414Y-84076350D01*
X190808657Y-84010454D01*
X190809017Y-83999880D01*
X190809017Y-83999865D01*
X190806414Y-83923401D01*
X190806414Y-83923396D01*
X190765147Y-83776113D01*
X190685674Y-83645426D01*
X190685670Y-83645422D01*
X190614028Y-83578512D01*
X191222266Y-83578512D01*
X191228703Y-83593331D01*
X191231809Y-83601207D01*
X191237527Y-83617297D01*
X191240088Y-83625365D01*
X191289965Y-83803380D01*
X191291749Y-83810568D01*
X191294915Y-83825175D01*
X191296268Y-83832466D01*
X191300828Y-83861912D01*
X191301743Y-83869266D01*
X191303145Y-83884159D01*
X191303619Y-83891563D01*
X191306945Y-83989292D01*
X191307017Y-83993510D01*
X191307017Y-84006236D01*
X191306945Y-84010454D01*
X191303619Y-84108183D01*
X191303145Y-84115587D01*
X191301743Y-84130480D01*
X191300828Y-84137834D01*
X191296268Y-84167280D01*
X191294915Y-84174571D01*
X191293515Y-84181025D01*
X191311603Y-84199112D01*
X191626000Y-83884716D01*
X191626000Y-83803574D01*
X191311603Y-83489177D01*
X191222266Y-83578512D01*
X190614028Y-83578512D01*
X190573890Y-83541025D01*
X190573888Y-83541024D01*
X190438086Y-83470658D01*
X190438077Y-83470655D01*
X190288330Y-83439537D01*
X190288325Y-83439537D01*
X190135728Y-83449975D01*
X189991604Y-83501197D01*
X189866653Y-83589397D01*
X189866647Y-83589403D01*
X189770119Y-83708051D01*
X189770118Y-83708053D01*
X189709182Y-83848343D01*
X189689230Y-83993510D01*
X189688355Y-83999873D01*
X188682415Y-83999873D01*
X188838143Y-83844145D01*
X188483175Y-83489176D01*
X188128207Y-83844145D01*
X187423930Y-83844145D01*
X187068962Y-83489177D01*
X186713994Y-83844145D01*
X186009716Y-83844145D01*
X185654748Y-83489177D01*
X185299780Y-83844145D01*
X184595503Y-83844145D01*
X184240535Y-83489177D01*
X183885567Y-83844145D01*
X183181289Y-83844145D01*
X182826321Y-83489177D01*
X182471353Y-83844145D01*
X179750000Y-83844145D01*
X179750000Y-83624000D01*
X179769685Y-83556961D01*
X179822489Y-83511206D01*
X179874000Y-83500000D01*
X181500000Y-83500000D01*
X181500000Y-83487220D01*
X182124000Y-83487220D01*
X182474182Y-83137038D01*
X183178460Y-83137038D01*
X183533428Y-83492006D01*
X183888396Y-83137038D01*
X184592673Y-83137038D01*
X184947641Y-83492006D01*
X185302610Y-83137038D01*
X186006887Y-83137038D01*
X186361855Y-83492006D01*
X186716823Y-83137038D01*
X187421101Y-83137038D01*
X187776069Y-83492006D01*
X187894075Y-83374000D01*
X189072276Y-83374000D01*
X189190282Y-83492006D01*
X189308288Y-83374000D01*
X189072276Y-83374000D01*
X187894075Y-83374000D01*
X188131037Y-83137038D01*
X187776069Y-82782070D01*
X187421101Y-83137038D01*
X186716823Y-83137038D01*
X186361855Y-82782070D01*
X186006887Y-83137038D01*
X185302610Y-83137038D01*
X184947641Y-82782069D01*
X184592673Y-83137038D01*
X183888396Y-83137038D01*
X183533428Y-82782070D01*
X183178460Y-83137038D01*
X182474182Y-83137038D01*
X182124000Y-82786855D01*
X182124000Y-83487220D01*
X181500000Y-83487220D01*
X181500000Y-82429931D01*
X182471352Y-82429931D01*
X182826321Y-82784899D01*
X183181289Y-82429931D01*
X183885566Y-82429931D01*
X184240535Y-82784899D01*
X184595503Y-82429931D01*
X185299779Y-82429931D01*
X185654748Y-82784899D01*
X186009716Y-82429931D01*
X186713993Y-82429931D01*
X187068962Y-82784899D01*
X187423930Y-82429931D01*
X188128206Y-82429931D01*
X188483175Y-82784899D01*
X188626000Y-82642075D01*
X188626000Y-82217787D01*
X188483175Y-82074962D01*
X188128206Y-82429931D01*
X187423930Y-82429931D01*
X187068962Y-82074963D01*
X186713993Y-82429931D01*
X186009716Y-82429931D01*
X185654748Y-82074963D01*
X185299779Y-82429931D01*
X184595503Y-82429931D01*
X184240535Y-82074963D01*
X183885566Y-82429931D01*
X183181289Y-82429931D01*
X182826321Y-82074963D01*
X182471352Y-82429931D01*
X181500000Y-82429931D01*
X181500000Y-82073007D01*
X182124000Y-82073007D01*
X182474182Y-81722825D01*
X183178460Y-81722825D01*
X183533428Y-82077793D01*
X183888396Y-81722825D01*
X184592673Y-81722825D01*
X184947641Y-82077793D01*
X185302610Y-81722825D01*
X186006887Y-81722825D01*
X186361855Y-82077793D01*
X186716823Y-81722825D01*
X187421101Y-81722825D01*
X187776069Y-82077793D01*
X188131037Y-81722825D01*
X188032212Y-81624000D01*
X187519926Y-81624000D01*
X187421101Y-81722825D01*
X186716823Y-81722825D01*
X186617998Y-81624000D01*
X186105712Y-81624000D01*
X186006887Y-81722825D01*
X185302610Y-81722825D01*
X185203785Y-81624000D01*
X184691499Y-81624000D01*
X184592673Y-81722825D01*
X183888396Y-81722825D01*
X183789571Y-81624000D01*
X183277285Y-81624000D01*
X183178460Y-81722825D01*
X182474182Y-81722825D01*
X182375357Y-81624000D01*
X182124000Y-81624000D01*
X182124000Y-82073007D01*
X181500000Y-82073007D01*
X181500000Y-81124000D01*
X181519685Y-81056961D01*
X181572489Y-81011206D01*
X181624000Y-81000000D01*
X189126000Y-81000000D01*
X189193039Y-81019685D01*
G37*
%TD.AperFunction*%
%TD*%
M02*
