%TF.GenerationSoftware,KiCad,Pcbnew,8.0.4*%
%TF.CreationDate,2024-09-23T09:04:20+01:00*%
%TF.ProjectId,right,72696768-742e-46b6-9963-61645f706362,rev?*%
%TF.SameCoordinates,Original*%
%TF.FileFunction,Legend,Top*%
%TF.FilePolarity,Positive*%
%FSLAX46Y46*%
G04 Gerber Fmt 4.6, Leading zero omitted, Abs format (unit mm)*
G04 Created by KiCad (PCBNEW 8.0.4) date 2024-09-23 09:04:20*
%MOMM*%
%LPD*%
G01*
G04 APERTURE LIST*
%ADD10C,0.150000*%
%ADD11C,0.254000*%
%ADD12C,0.059995*%
%ADD13C,0.120000*%
G04 APERTURE END LIST*
D10*
X141836779Y-125149931D02*
X141836779Y-124149931D01*
X141836779Y-124149931D02*
X142217731Y-124149931D01*
X142217731Y-124149931D02*
X142312969Y-124197550D01*
X142312969Y-124197550D02*
X142360588Y-124245169D01*
X142360588Y-124245169D02*
X142408207Y-124340407D01*
X142408207Y-124340407D02*
X142408207Y-124483264D01*
X142408207Y-124483264D02*
X142360588Y-124578502D01*
X142360588Y-124578502D02*
X142312969Y-124626121D01*
X142312969Y-124626121D02*
X142217731Y-124673740D01*
X142217731Y-124673740D02*
X141836779Y-124673740D01*
X142789160Y-125102312D02*
X142932017Y-125149931D01*
X142932017Y-125149931D02*
X143170112Y-125149931D01*
X143170112Y-125149931D02*
X143265350Y-125102312D01*
X143265350Y-125102312D02*
X143312969Y-125054692D01*
X143312969Y-125054692D02*
X143360588Y-124959454D01*
X143360588Y-124959454D02*
X143360588Y-124864216D01*
X143360588Y-124864216D02*
X143312969Y-124768978D01*
X143312969Y-124768978D02*
X143265350Y-124721359D01*
X143265350Y-124721359D02*
X143170112Y-124673740D01*
X143170112Y-124673740D02*
X142979636Y-124626121D01*
X142979636Y-124626121D02*
X142884398Y-124578502D01*
X142884398Y-124578502D02*
X142836779Y-124530883D01*
X142836779Y-124530883D02*
X142789160Y-124435645D01*
X142789160Y-124435645D02*
X142789160Y-124340407D01*
X142789160Y-124340407D02*
X142836779Y-124245169D01*
X142836779Y-124245169D02*
X142884398Y-124197550D01*
X142884398Y-124197550D02*
X142979636Y-124149931D01*
X142979636Y-124149931D02*
X143217731Y-124149931D01*
X143217731Y-124149931D02*
X143360588Y-124197550D01*
X143789160Y-125149931D02*
X143789160Y-124149931D01*
X143789160Y-124149931D02*
X144170112Y-124149931D01*
X144170112Y-124149931D02*
X144265350Y-124197550D01*
X144265350Y-124197550D02*
X144312969Y-124245169D01*
X144312969Y-124245169D02*
X144360588Y-124340407D01*
X144360588Y-124340407D02*
X144360588Y-124483264D01*
X144360588Y-124483264D02*
X144312969Y-124578502D01*
X144312969Y-124578502D02*
X144265350Y-124626121D01*
X144265350Y-124626121D02*
X144170112Y-124673740D01*
X144170112Y-124673740D02*
X143789160Y-124673740D01*
X145884398Y-124626121D02*
X146027255Y-124673740D01*
X146027255Y-124673740D02*
X146074874Y-124721359D01*
X146074874Y-124721359D02*
X146122493Y-124816597D01*
X146122493Y-124816597D02*
X146122493Y-124959454D01*
X146122493Y-124959454D02*
X146074874Y-125054692D01*
X146074874Y-125054692D02*
X146027255Y-125102312D01*
X146027255Y-125102312D02*
X145932017Y-125149931D01*
X145932017Y-125149931D02*
X145551065Y-125149931D01*
X145551065Y-125149931D02*
X145551065Y-124149931D01*
X145551065Y-124149931D02*
X145884398Y-124149931D01*
X145884398Y-124149931D02*
X145979636Y-124197550D01*
X145979636Y-124197550D02*
X146027255Y-124245169D01*
X146027255Y-124245169D02*
X146074874Y-124340407D01*
X146074874Y-124340407D02*
X146074874Y-124435645D01*
X146074874Y-124435645D02*
X146027255Y-124530883D01*
X146027255Y-124530883D02*
X145979636Y-124578502D01*
X145979636Y-124578502D02*
X145884398Y-124626121D01*
X145884398Y-124626121D02*
X145551065Y-124626121D01*
X146693922Y-125149931D02*
X146598684Y-125102312D01*
X146598684Y-125102312D02*
X146551065Y-125007073D01*
X146551065Y-125007073D02*
X146551065Y-124149931D01*
X147503446Y-124483264D02*
X147503446Y-125149931D01*
X147074875Y-124483264D02*
X147074875Y-125007073D01*
X147074875Y-125007073D02*
X147122494Y-125102312D01*
X147122494Y-125102312D02*
X147217732Y-125149931D01*
X147217732Y-125149931D02*
X147360589Y-125149931D01*
X147360589Y-125149931D02*
X147455827Y-125102312D01*
X147455827Y-125102312D02*
X147503446Y-125054692D01*
X148360589Y-125102312D02*
X148265351Y-125149931D01*
X148265351Y-125149931D02*
X148074875Y-125149931D01*
X148074875Y-125149931D02*
X147979637Y-125102312D01*
X147979637Y-125102312D02*
X147932018Y-125007073D01*
X147932018Y-125007073D02*
X147932018Y-124626121D01*
X147932018Y-124626121D02*
X147979637Y-124530883D01*
X147979637Y-124530883D02*
X148074875Y-124483264D01*
X148074875Y-124483264D02*
X148265351Y-124483264D01*
X148265351Y-124483264D02*
X148360589Y-124530883D01*
X148360589Y-124530883D02*
X148408208Y-124626121D01*
X148408208Y-124626121D02*
X148408208Y-124721359D01*
X148408208Y-124721359D02*
X147932018Y-124816597D01*
X148693923Y-124483264D02*
X149074875Y-124483264D01*
X148836780Y-124149931D02*
X148836780Y-125007073D01*
X148836780Y-125007073D02*
X148884399Y-125102312D01*
X148884399Y-125102312D02*
X148979637Y-125149931D01*
X148979637Y-125149931D02*
X149074875Y-125149931D01*
X149551066Y-125149931D02*
X149455828Y-125102312D01*
X149455828Y-125102312D02*
X149408209Y-125054692D01*
X149408209Y-125054692D02*
X149360590Y-124959454D01*
X149360590Y-124959454D02*
X149360590Y-124673740D01*
X149360590Y-124673740D02*
X149408209Y-124578502D01*
X149408209Y-124578502D02*
X149455828Y-124530883D01*
X149455828Y-124530883D02*
X149551066Y-124483264D01*
X149551066Y-124483264D02*
X149693923Y-124483264D01*
X149693923Y-124483264D02*
X149789161Y-124530883D01*
X149789161Y-124530883D02*
X149836780Y-124578502D01*
X149836780Y-124578502D02*
X149884399Y-124673740D01*
X149884399Y-124673740D02*
X149884399Y-124959454D01*
X149884399Y-124959454D02*
X149836780Y-125054692D01*
X149836780Y-125054692D02*
X149789161Y-125102312D01*
X149789161Y-125102312D02*
X149693923Y-125149931D01*
X149693923Y-125149931D02*
X149551066Y-125149931D01*
X150455828Y-125149931D02*
X150360590Y-125102312D01*
X150360590Y-125102312D02*
X150312971Y-125054692D01*
X150312971Y-125054692D02*
X150265352Y-124959454D01*
X150265352Y-124959454D02*
X150265352Y-124673740D01*
X150265352Y-124673740D02*
X150312971Y-124578502D01*
X150312971Y-124578502D02*
X150360590Y-124530883D01*
X150360590Y-124530883D02*
X150455828Y-124483264D01*
X150455828Y-124483264D02*
X150598685Y-124483264D01*
X150598685Y-124483264D02*
X150693923Y-124530883D01*
X150693923Y-124530883D02*
X150741542Y-124578502D01*
X150741542Y-124578502D02*
X150789161Y-124673740D01*
X150789161Y-124673740D02*
X150789161Y-124959454D01*
X150789161Y-124959454D02*
X150741542Y-125054692D01*
X150741542Y-125054692D02*
X150693923Y-125102312D01*
X150693923Y-125102312D02*
X150598685Y-125149931D01*
X150598685Y-125149931D02*
X150455828Y-125149931D01*
X151074876Y-124483264D02*
X151455828Y-124483264D01*
X151217733Y-124149931D02*
X151217733Y-125007073D01*
X151217733Y-125007073D02*
X151265352Y-125102312D01*
X151265352Y-125102312D02*
X151360590Y-125149931D01*
X151360590Y-125149931D02*
X151455828Y-125149931D01*
X151789162Y-125149931D02*
X151789162Y-124149931D01*
X152217733Y-125149931D02*
X152217733Y-124626121D01*
X152217733Y-124626121D02*
X152170114Y-124530883D01*
X152170114Y-124530883D02*
X152074876Y-124483264D01*
X152074876Y-124483264D02*
X151932019Y-124483264D01*
X151932019Y-124483264D02*
X151836781Y-124530883D01*
X151836781Y-124530883D02*
X151789162Y-124578502D01*
X153455829Y-124768978D02*
X154217734Y-124768978D01*
X156027257Y-125149931D02*
X155693924Y-124673740D01*
X155455829Y-125149931D02*
X155455829Y-124149931D01*
X155455829Y-124149931D02*
X155836781Y-124149931D01*
X155836781Y-124149931D02*
X155932019Y-124197550D01*
X155932019Y-124197550D02*
X155979638Y-124245169D01*
X155979638Y-124245169D02*
X156027257Y-124340407D01*
X156027257Y-124340407D02*
X156027257Y-124483264D01*
X156027257Y-124483264D02*
X155979638Y-124578502D01*
X155979638Y-124578502D02*
X155932019Y-124626121D01*
X155932019Y-124626121D02*
X155836781Y-124673740D01*
X155836781Y-124673740D02*
X155455829Y-124673740D01*
X156455829Y-125149931D02*
X156455829Y-124483264D01*
X156455829Y-124149931D02*
X156408210Y-124197550D01*
X156408210Y-124197550D02*
X156455829Y-124245169D01*
X156455829Y-124245169D02*
X156503448Y-124197550D01*
X156503448Y-124197550D02*
X156455829Y-124149931D01*
X156455829Y-124149931D02*
X156455829Y-124245169D01*
X157360590Y-124483264D02*
X157360590Y-125292788D01*
X157360590Y-125292788D02*
X157312971Y-125388026D01*
X157312971Y-125388026D02*
X157265352Y-125435645D01*
X157265352Y-125435645D02*
X157170114Y-125483264D01*
X157170114Y-125483264D02*
X157027257Y-125483264D01*
X157027257Y-125483264D02*
X156932019Y-125435645D01*
X157360590Y-125102312D02*
X157265352Y-125149931D01*
X157265352Y-125149931D02*
X157074876Y-125149931D01*
X157074876Y-125149931D02*
X156979638Y-125102312D01*
X156979638Y-125102312D02*
X156932019Y-125054692D01*
X156932019Y-125054692D02*
X156884400Y-124959454D01*
X156884400Y-124959454D02*
X156884400Y-124673740D01*
X156884400Y-124673740D02*
X156932019Y-124578502D01*
X156932019Y-124578502D02*
X156979638Y-124530883D01*
X156979638Y-124530883D02*
X157074876Y-124483264D01*
X157074876Y-124483264D02*
X157265352Y-124483264D01*
X157265352Y-124483264D02*
X157360590Y-124530883D01*
X157836781Y-125149931D02*
X157836781Y-124149931D01*
X158265352Y-125149931D02*
X158265352Y-124626121D01*
X158265352Y-124626121D02*
X158217733Y-124530883D01*
X158217733Y-124530883D02*
X158122495Y-124483264D01*
X158122495Y-124483264D02*
X157979638Y-124483264D01*
X157979638Y-124483264D02*
X157884400Y-124530883D01*
X157884400Y-124530883D02*
X157836781Y-124578502D01*
X158598686Y-124483264D02*
X158979638Y-124483264D01*
X158741543Y-124149931D02*
X158741543Y-125007073D01*
X158741543Y-125007073D02*
X158789162Y-125102312D01*
X158789162Y-125102312D02*
X158884400Y-125149931D01*
X158884400Y-125149931D02*
X158979638Y-125149931D01*
X159979639Y-124483264D02*
X160217734Y-125149931D01*
X160217734Y-125149931D02*
X160455829Y-124483264D01*
X161360591Y-125149931D02*
X160789163Y-125149931D01*
X161074877Y-125149931D02*
X161074877Y-124149931D01*
X161074877Y-124149931D02*
X160979639Y-124292788D01*
X160979639Y-124292788D02*
X160884401Y-124388026D01*
X160884401Y-124388026D02*
X160789163Y-124435645D01*
X141789160Y-126712256D02*
X141932017Y-126759875D01*
X141932017Y-126759875D02*
X142170112Y-126759875D01*
X142170112Y-126759875D02*
X142265350Y-126712256D01*
X142265350Y-126712256D02*
X142312969Y-126664636D01*
X142312969Y-126664636D02*
X142360588Y-126569398D01*
X142360588Y-126569398D02*
X142360588Y-126474160D01*
X142360588Y-126474160D02*
X142312969Y-126378922D01*
X142312969Y-126378922D02*
X142265350Y-126331303D01*
X142265350Y-126331303D02*
X142170112Y-126283684D01*
X142170112Y-126283684D02*
X141979636Y-126236065D01*
X141979636Y-126236065D02*
X141884398Y-126188446D01*
X141884398Y-126188446D02*
X141836779Y-126140827D01*
X141836779Y-126140827D02*
X141789160Y-126045589D01*
X141789160Y-126045589D02*
X141789160Y-125950351D01*
X141789160Y-125950351D02*
X141836779Y-125855113D01*
X141836779Y-125855113D02*
X141884398Y-125807494D01*
X141884398Y-125807494D02*
X141979636Y-125759875D01*
X141979636Y-125759875D02*
X142217731Y-125759875D01*
X142217731Y-125759875D02*
X142360588Y-125807494D01*
X142646303Y-126093208D02*
X143027255Y-126093208D01*
X142789160Y-125759875D02*
X142789160Y-126617017D01*
X142789160Y-126617017D02*
X142836779Y-126712256D01*
X142836779Y-126712256D02*
X142932017Y-126759875D01*
X142932017Y-126759875D02*
X143027255Y-126759875D01*
X143741541Y-126712256D02*
X143646303Y-126759875D01*
X143646303Y-126759875D02*
X143455827Y-126759875D01*
X143455827Y-126759875D02*
X143360589Y-126712256D01*
X143360589Y-126712256D02*
X143312970Y-126617017D01*
X143312970Y-126617017D02*
X143312970Y-126236065D01*
X143312970Y-126236065D02*
X143360589Y-126140827D01*
X143360589Y-126140827D02*
X143455827Y-126093208D01*
X143455827Y-126093208D02*
X143646303Y-126093208D01*
X143646303Y-126093208D02*
X143741541Y-126140827D01*
X143741541Y-126140827D02*
X143789160Y-126236065D01*
X143789160Y-126236065D02*
X143789160Y-126331303D01*
X143789160Y-126331303D02*
X143312970Y-126426541D01*
X144217732Y-126093208D02*
X144217732Y-127093208D01*
X144217732Y-126140827D02*
X144312970Y-126093208D01*
X144312970Y-126093208D02*
X144503446Y-126093208D01*
X144503446Y-126093208D02*
X144598684Y-126140827D01*
X144598684Y-126140827D02*
X144646303Y-126188446D01*
X144646303Y-126188446D02*
X144693922Y-126283684D01*
X144693922Y-126283684D02*
X144693922Y-126569398D01*
X144693922Y-126569398D02*
X144646303Y-126664636D01*
X144646303Y-126664636D02*
X144598684Y-126712256D01*
X144598684Y-126712256D02*
X144503446Y-126759875D01*
X144503446Y-126759875D02*
X144312970Y-126759875D01*
X144312970Y-126759875D02*
X144217732Y-126712256D01*
X145122494Y-126759875D02*
X145122494Y-125759875D01*
X145551065Y-126759875D02*
X145551065Y-126236065D01*
X145551065Y-126236065D02*
X145503446Y-126140827D01*
X145503446Y-126140827D02*
X145408208Y-126093208D01*
X145408208Y-126093208D02*
X145265351Y-126093208D01*
X145265351Y-126093208D02*
X145170113Y-126140827D01*
X145170113Y-126140827D02*
X145122494Y-126188446D01*
X146408208Y-126712256D02*
X146312970Y-126759875D01*
X146312970Y-126759875D02*
X146122494Y-126759875D01*
X146122494Y-126759875D02*
X146027256Y-126712256D01*
X146027256Y-126712256D02*
X145979637Y-126617017D01*
X145979637Y-126617017D02*
X145979637Y-126236065D01*
X145979637Y-126236065D02*
X146027256Y-126140827D01*
X146027256Y-126140827D02*
X146122494Y-126093208D01*
X146122494Y-126093208D02*
X146312970Y-126093208D01*
X146312970Y-126093208D02*
X146408208Y-126140827D01*
X146408208Y-126140827D02*
X146455827Y-126236065D01*
X146455827Y-126236065D02*
X146455827Y-126331303D01*
X146455827Y-126331303D02*
X145979637Y-126426541D01*
X146884399Y-126093208D02*
X146884399Y-126759875D01*
X146884399Y-126188446D02*
X146932018Y-126140827D01*
X146932018Y-126140827D02*
X147027256Y-126093208D01*
X147027256Y-126093208D02*
X147170113Y-126093208D01*
X147170113Y-126093208D02*
X147265351Y-126140827D01*
X147265351Y-126140827D02*
X147312970Y-126236065D01*
X147312970Y-126236065D02*
X147312970Y-126759875D01*
X149122494Y-126664636D02*
X149074875Y-126712256D01*
X149074875Y-126712256D02*
X148932018Y-126759875D01*
X148932018Y-126759875D02*
X148836780Y-126759875D01*
X148836780Y-126759875D02*
X148693923Y-126712256D01*
X148693923Y-126712256D02*
X148598685Y-126617017D01*
X148598685Y-126617017D02*
X148551066Y-126521779D01*
X148551066Y-126521779D02*
X148503447Y-126331303D01*
X148503447Y-126331303D02*
X148503447Y-126188446D01*
X148503447Y-126188446D02*
X148551066Y-125997970D01*
X148551066Y-125997970D02*
X148598685Y-125902732D01*
X148598685Y-125902732D02*
X148693923Y-125807494D01*
X148693923Y-125807494D02*
X148836780Y-125759875D01*
X148836780Y-125759875D02*
X148932018Y-125759875D01*
X148932018Y-125759875D02*
X149074875Y-125807494D01*
X149074875Y-125807494D02*
X149122494Y-125855113D01*
X149693923Y-126759875D02*
X149598685Y-126712256D01*
X149598685Y-126712256D02*
X149551066Y-126664636D01*
X149551066Y-126664636D02*
X149503447Y-126569398D01*
X149503447Y-126569398D02*
X149503447Y-126283684D01*
X149503447Y-126283684D02*
X149551066Y-126188446D01*
X149551066Y-126188446D02*
X149598685Y-126140827D01*
X149598685Y-126140827D02*
X149693923Y-126093208D01*
X149693923Y-126093208D02*
X149836780Y-126093208D01*
X149836780Y-126093208D02*
X149932018Y-126140827D01*
X149932018Y-126140827D02*
X149979637Y-126188446D01*
X149979637Y-126188446D02*
X150027256Y-126283684D01*
X150027256Y-126283684D02*
X150027256Y-126569398D01*
X150027256Y-126569398D02*
X149979637Y-126664636D01*
X149979637Y-126664636D02*
X149932018Y-126712256D01*
X149932018Y-126712256D02*
X149836780Y-126759875D01*
X149836780Y-126759875D02*
X149693923Y-126759875D01*
X150598685Y-126759875D02*
X150503447Y-126712256D01*
X150503447Y-126712256D02*
X150455828Y-126664636D01*
X150455828Y-126664636D02*
X150408209Y-126569398D01*
X150408209Y-126569398D02*
X150408209Y-126283684D01*
X150408209Y-126283684D02*
X150455828Y-126188446D01*
X150455828Y-126188446D02*
X150503447Y-126140827D01*
X150503447Y-126140827D02*
X150598685Y-126093208D01*
X150598685Y-126093208D02*
X150741542Y-126093208D01*
X150741542Y-126093208D02*
X150836780Y-126140827D01*
X150836780Y-126140827D02*
X150884399Y-126188446D01*
X150884399Y-126188446D02*
X150932018Y-126283684D01*
X150932018Y-126283684D02*
X150932018Y-126569398D01*
X150932018Y-126569398D02*
X150884399Y-126664636D01*
X150884399Y-126664636D02*
X150836780Y-126712256D01*
X150836780Y-126712256D02*
X150741542Y-126759875D01*
X150741542Y-126759875D02*
X150598685Y-126759875D01*
X151360590Y-126093208D02*
X151360590Y-127093208D01*
X151360590Y-126140827D02*
X151455828Y-126093208D01*
X151455828Y-126093208D02*
X151646304Y-126093208D01*
X151646304Y-126093208D02*
X151741542Y-126140827D01*
X151741542Y-126140827D02*
X151789161Y-126188446D01*
X151789161Y-126188446D02*
X151836780Y-126283684D01*
X151836780Y-126283684D02*
X151836780Y-126569398D01*
X151836780Y-126569398D02*
X151789161Y-126664636D01*
X151789161Y-126664636D02*
X151741542Y-126712256D01*
X151741542Y-126712256D02*
X151646304Y-126759875D01*
X151646304Y-126759875D02*
X151455828Y-126759875D01*
X151455828Y-126759875D02*
X151360590Y-126712256D01*
X152646304Y-126712256D02*
X152551066Y-126759875D01*
X152551066Y-126759875D02*
X152360590Y-126759875D01*
X152360590Y-126759875D02*
X152265352Y-126712256D01*
X152265352Y-126712256D02*
X152217733Y-126617017D01*
X152217733Y-126617017D02*
X152217733Y-126236065D01*
X152217733Y-126236065D02*
X152265352Y-126140827D01*
X152265352Y-126140827D02*
X152360590Y-126093208D01*
X152360590Y-126093208D02*
X152551066Y-126093208D01*
X152551066Y-126093208D02*
X152646304Y-126140827D01*
X152646304Y-126140827D02*
X152693923Y-126236065D01*
X152693923Y-126236065D02*
X152693923Y-126331303D01*
X152693923Y-126331303D02*
X152217733Y-126426541D01*
X153122495Y-126759875D02*
X153122495Y-126093208D01*
X153122495Y-126283684D02*
X153170114Y-126188446D01*
X153170114Y-126188446D02*
X153217733Y-126140827D01*
X153217733Y-126140827D02*
X153312971Y-126093208D01*
X153312971Y-126093208D02*
X153408209Y-126093208D01*
X141836779Y-128369819D02*
X141836779Y-127369819D01*
X142265350Y-128369819D02*
X142265350Y-127846009D01*
X142265350Y-127846009D02*
X142217731Y-127750771D01*
X142217731Y-127750771D02*
X142122493Y-127703152D01*
X142122493Y-127703152D02*
X141979636Y-127703152D01*
X141979636Y-127703152D02*
X141884398Y-127750771D01*
X141884398Y-127750771D02*
X141836779Y-127798390D01*
X142598684Y-127703152D02*
X142979636Y-127703152D01*
X142741541Y-127369819D02*
X142741541Y-128226961D01*
X142741541Y-128226961D02*
X142789160Y-128322200D01*
X142789160Y-128322200D02*
X142884398Y-128369819D01*
X142884398Y-128369819D02*
X142979636Y-128369819D01*
X143170113Y-127703152D02*
X143551065Y-127703152D01*
X143312970Y-127369819D02*
X143312970Y-128226961D01*
X143312970Y-128226961D02*
X143360589Y-128322200D01*
X143360589Y-128322200D02*
X143455827Y-128369819D01*
X143455827Y-128369819D02*
X143551065Y-128369819D01*
X143884399Y-127703152D02*
X143884399Y-128703152D01*
X143884399Y-127750771D02*
X143979637Y-127703152D01*
X143979637Y-127703152D02*
X144170113Y-127703152D01*
X144170113Y-127703152D02*
X144265351Y-127750771D01*
X144265351Y-127750771D02*
X144312970Y-127798390D01*
X144312970Y-127798390D02*
X144360589Y-127893628D01*
X144360589Y-127893628D02*
X144360589Y-128179342D01*
X144360589Y-128179342D02*
X144312970Y-128274580D01*
X144312970Y-128274580D02*
X144265351Y-128322200D01*
X144265351Y-128322200D02*
X144170113Y-128369819D01*
X144170113Y-128369819D02*
X143979637Y-128369819D01*
X143979637Y-128369819D02*
X143884399Y-128322200D01*
X144741542Y-128322200D02*
X144836780Y-128369819D01*
X144836780Y-128369819D02*
X145027256Y-128369819D01*
X145027256Y-128369819D02*
X145122494Y-128322200D01*
X145122494Y-128322200D02*
X145170113Y-128226961D01*
X145170113Y-128226961D02*
X145170113Y-128179342D01*
X145170113Y-128179342D02*
X145122494Y-128084104D01*
X145122494Y-128084104D02*
X145027256Y-128036485D01*
X145027256Y-128036485D02*
X144884399Y-128036485D01*
X144884399Y-128036485D02*
X144789161Y-127988866D01*
X144789161Y-127988866D02*
X144741542Y-127893628D01*
X144741542Y-127893628D02*
X144741542Y-127846009D01*
X144741542Y-127846009D02*
X144789161Y-127750771D01*
X144789161Y-127750771D02*
X144884399Y-127703152D01*
X144884399Y-127703152D02*
X145027256Y-127703152D01*
X145027256Y-127703152D02*
X145122494Y-127750771D01*
X145598685Y-128274580D02*
X145646304Y-128322200D01*
X145646304Y-128322200D02*
X145598685Y-128369819D01*
X145598685Y-128369819D02*
X145551066Y-128322200D01*
X145551066Y-128322200D02*
X145598685Y-128274580D01*
X145598685Y-128274580D02*
X145598685Y-128369819D01*
X145598685Y-127750771D02*
X145646304Y-127798390D01*
X145646304Y-127798390D02*
X145598685Y-127846009D01*
X145598685Y-127846009D02*
X145551066Y-127798390D01*
X145551066Y-127798390D02*
X145598685Y-127750771D01*
X145598685Y-127750771D02*
X145598685Y-127846009D01*
X146789160Y-127322200D02*
X145932018Y-128607914D01*
X147836779Y-127322200D02*
X146979637Y-128607914D01*
X148598684Y-127703152D02*
X148598684Y-128512676D01*
X148598684Y-128512676D02*
X148551065Y-128607914D01*
X148551065Y-128607914D02*
X148503446Y-128655533D01*
X148503446Y-128655533D02*
X148408208Y-128703152D01*
X148408208Y-128703152D02*
X148265351Y-128703152D01*
X148265351Y-128703152D02*
X148170113Y-128655533D01*
X148598684Y-128322200D02*
X148503446Y-128369819D01*
X148503446Y-128369819D02*
X148312970Y-128369819D01*
X148312970Y-128369819D02*
X148217732Y-128322200D01*
X148217732Y-128322200D02*
X148170113Y-128274580D01*
X148170113Y-128274580D02*
X148122494Y-128179342D01*
X148122494Y-128179342D02*
X148122494Y-127893628D01*
X148122494Y-127893628D02*
X148170113Y-127798390D01*
X148170113Y-127798390D02*
X148217732Y-127750771D01*
X148217732Y-127750771D02*
X148312970Y-127703152D01*
X148312970Y-127703152D02*
X148503446Y-127703152D01*
X148503446Y-127703152D02*
X148598684Y-127750771D01*
X149074875Y-128369819D02*
X149074875Y-127703152D01*
X149074875Y-127369819D02*
X149027256Y-127417438D01*
X149027256Y-127417438D02*
X149074875Y-127465057D01*
X149074875Y-127465057D02*
X149122494Y-127417438D01*
X149122494Y-127417438D02*
X149074875Y-127369819D01*
X149074875Y-127369819D02*
X149074875Y-127465057D01*
X149408208Y-127703152D02*
X149789160Y-127703152D01*
X149551065Y-127369819D02*
X149551065Y-128226961D01*
X149551065Y-128226961D02*
X149598684Y-128322200D01*
X149598684Y-128322200D02*
X149693922Y-128369819D01*
X149693922Y-128369819D02*
X149789160Y-128369819D01*
X150122494Y-128369819D02*
X150122494Y-127369819D01*
X150551065Y-128369819D02*
X150551065Y-127846009D01*
X150551065Y-127846009D02*
X150503446Y-127750771D01*
X150503446Y-127750771D02*
X150408208Y-127703152D01*
X150408208Y-127703152D02*
X150265351Y-127703152D01*
X150265351Y-127703152D02*
X150170113Y-127750771D01*
X150170113Y-127750771D02*
X150122494Y-127798390D01*
X151455827Y-127703152D02*
X151455827Y-128369819D01*
X151027256Y-127703152D02*
X151027256Y-128226961D01*
X151027256Y-128226961D02*
X151074875Y-128322200D01*
X151074875Y-128322200D02*
X151170113Y-128369819D01*
X151170113Y-128369819D02*
X151312970Y-128369819D01*
X151312970Y-128369819D02*
X151408208Y-128322200D01*
X151408208Y-128322200D02*
X151455827Y-128274580D01*
X151932018Y-128369819D02*
X151932018Y-127369819D01*
X151932018Y-127750771D02*
X152027256Y-127703152D01*
X152027256Y-127703152D02*
X152217732Y-127703152D01*
X152217732Y-127703152D02*
X152312970Y-127750771D01*
X152312970Y-127750771D02*
X152360589Y-127798390D01*
X152360589Y-127798390D02*
X152408208Y-127893628D01*
X152408208Y-127893628D02*
X152408208Y-128179342D01*
X152408208Y-128179342D02*
X152360589Y-128274580D01*
X152360589Y-128274580D02*
X152312970Y-128322200D01*
X152312970Y-128322200D02*
X152217732Y-128369819D01*
X152217732Y-128369819D02*
X152027256Y-128369819D01*
X152027256Y-128369819D02*
X151932018Y-128322200D01*
X152836780Y-128274580D02*
X152884399Y-128322200D01*
X152884399Y-128322200D02*
X152836780Y-128369819D01*
X152836780Y-128369819D02*
X152789161Y-128322200D01*
X152789161Y-128322200D02*
X152836780Y-128274580D01*
X152836780Y-128274580D02*
X152836780Y-128369819D01*
X153741541Y-128322200D02*
X153646303Y-128369819D01*
X153646303Y-128369819D02*
X153455827Y-128369819D01*
X153455827Y-128369819D02*
X153360589Y-128322200D01*
X153360589Y-128322200D02*
X153312970Y-128274580D01*
X153312970Y-128274580D02*
X153265351Y-128179342D01*
X153265351Y-128179342D02*
X153265351Y-127893628D01*
X153265351Y-127893628D02*
X153312970Y-127798390D01*
X153312970Y-127798390D02*
X153360589Y-127750771D01*
X153360589Y-127750771D02*
X153455827Y-127703152D01*
X153455827Y-127703152D02*
X153646303Y-127703152D01*
X153646303Y-127703152D02*
X153741541Y-127750771D01*
X154312970Y-128369819D02*
X154217732Y-128322200D01*
X154217732Y-128322200D02*
X154170113Y-128274580D01*
X154170113Y-128274580D02*
X154122494Y-128179342D01*
X154122494Y-128179342D02*
X154122494Y-127893628D01*
X154122494Y-127893628D02*
X154170113Y-127798390D01*
X154170113Y-127798390D02*
X154217732Y-127750771D01*
X154217732Y-127750771D02*
X154312970Y-127703152D01*
X154312970Y-127703152D02*
X154455827Y-127703152D01*
X154455827Y-127703152D02*
X154551065Y-127750771D01*
X154551065Y-127750771D02*
X154598684Y-127798390D01*
X154598684Y-127798390D02*
X154646303Y-127893628D01*
X154646303Y-127893628D02*
X154646303Y-128179342D01*
X154646303Y-128179342D02*
X154598684Y-128274580D01*
X154598684Y-128274580D02*
X154551065Y-128322200D01*
X154551065Y-128322200D02*
X154455827Y-128369819D01*
X154455827Y-128369819D02*
X154312970Y-128369819D01*
X155074875Y-128369819D02*
X155074875Y-127703152D01*
X155074875Y-127798390D02*
X155122494Y-127750771D01*
X155122494Y-127750771D02*
X155217732Y-127703152D01*
X155217732Y-127703152D02*
X155360589Y-127703152D01*
X155360589Y-127703152D02*
X155455827Y-127750771D01*
X155455827Y-127750771D02*
X155503446Y-127846009D01*
X155503446Y-127846009D02*
X155503446Y-128369819D01*
X155503446Y-127846009D02*
X155551065Y-127750771D01*
X155551065Y-127750771D02*
X155646303Y-127703152D01*
X155646303Y-127703152D02*
X155789160Y-127703152D01*
X155789160Y-127703152D02*
X155884399Y-127750771D01*
X155884399Y-127750771D02*
X155932018Y-127846009D01*
X155932018Y-127846009D02*
X155932018Y-128369819D01*
X157122493Y-127322200D02*
X156265351Y-128607914D01*
X157408208Y-128322200D02*
X157503446Y-128369819D01*
X157503446Y-128369819D02*
X157693922Y-128369819D01*
X157693922Y-128369819D02*
X157789160Y-128322200D01*
X157789160Y-128322200D02*
X157836779Y-128226961D01*
X157836779Y-128226961D02*
X157836779Y-128179342D01*
X157836779Y-128179342D02*
X157789160Y-128084104D01*
X157789160Y-128084104D02*
X157693922Y-128036485D01*
X157693922Y-128036485D02*
X157551065Y-128036485D01*
X157551065Y-128036485D02*
X157455827Y-127988866D01*
X157455827Y-127988866D02*
X157408208Y-127893628D01*
X157408208Y-127893628D02*
X157408208Y-127846009D01*
X157408208Y-127846009D02*
X157455827Y-127750771D01*
X157455827Y-127750771D02*
X157551065Y-127703152D01*
X157551065Y-127703152D02*
X157693922Y-127703152D01*
X157693922Y-127703152D02*
X157789160Y-127750771D01*
X158122494Y-127703152D02*
X158503446Y-127703152D01*
X158265351Y-127369819D02*
X158265351Y-128226961D01*
X158265351Y-128226961D02*
X158312970Y-128322200D01*
X158312970Y-128322200D02*
X158408208Y-128369819D01*
X158408208Y-128369819D02*
X158503446Y-128369819D01*
X159217732Y-128322200D02*
X159122494Y-128369819D01*
X159122494Y-128369819D02*
X158932018Y-128369819D01*
X158932018Y-128369819D02*
X158836780Y-128322200D01*
X158836780Y-128322200D02*
X158789161Y-128226961D01*
X158789161Y-128226961D02*
X158789161Y-127846009D01*
X158789161Y-127846009D02*
X158836780Y-127750771D01*
X158836780Y-127750771D02*
X158932018Y-127703152D01*
X158932018Y-127703152D02*
X159122494Y-127703152D01*
X159122494Y-127703152D02*
X159217732Y-127750771D01*
X159217732Y-127750771D02*
X159265351Y-127846009D01*
X159265351Y-127846009D02*
X159265351Y-127941247D01*
X159265351Y-127941247D02*
X158789161Y-128036485D01*
X159646304Y-127465057D02*
X159693923Y-127417438D01*
X159693923Y-127417438D02*
X159789161Y-127369819D01*
X159789161Y-127369819D02*
X160027256Y-127369819D01*
X160027256Y-127369819D02*
X160122494Y-127417438D01*
X160122494Y-127417438D02*
X160170113Y-127465057D01*
X160170113Y-127465057D02*
X160217732Y-127560295D01*
X160217732Y-127560295D02*
X160217732Y-127655533D01*
X160217732Y-127655533D02*
X160170113Y-127798390D01*
X160170113Y-127798390D02*
X159598685Y-128369819D01*
X159598685Y-128369819D02*
X160217732Y-128369819D01*
X161074875Y-127703152D02*
X161074875Y-128369819D01*
X160836780Y-127322200D02*
X160598685Y-128036485D01*
X160598685Y-128036485D02*
X161217732Y-128036485D01*
X161551066Y-127465057D02*
X161598685Y-127417438D01*
X161598685Y-127417438D02*
X161693923Y-127369819D01*
X161693923Y-127369819D02*
X161932018Y-127369819D01*
X161932018Y-127369819D02*
X162027256Y-127417438D01*
X162027256Y-127417438D02*
X162074875Y-127465057D01*
X162074875Y-127465057D02*
X162122494Y-127560295D01*
X162122494Y-127560295D02*
X162122494Y-127655533D01*
X162122494Y-127655533D02*
X162074875Y-127798390D01*
X162074875Y-127798390D02*
X161503447Y-128369819D01*
X161503447Y-128369819D02*
X162122494Y-128369819D01*
X163027256Y-127369819D02*
X162551066Y-127369819D01*
X162551066Y-127369819D02*
X162503447Y-127846009D01*
X162503447Y-127846009D02*
X162551066Y-127798390D01*
X162551066Y-127798390D02*
X162646304Y-127750771D01*
X162646304Y-127750771D02*
X162884399Y-127750771D01*
X162884399Y-127750771D02*
X162979637Y-127798390D01*
X162979637Y-127798390D02*
X163027256Y-127846009D01*
X163027256Y-127846009D02*
X163074875Y-127941247D01*
X163074875Y-127941247D02*
X163074875Y-128179342D01*
X163074875Y-128179342D02*
X163027256Y-128274580D01*
X163027256Y-128274580D02*
X162979637Y-128322200D01*
X162979637Y-128322200D02*
X162884399Y-128369819D01*
X162884399Y-128369819D02*
X162646304Y-128369819D01*
X162646304Y-128369819D02*
X162551066Y-128322200D01*
X162551066Y-128322200D02*
X162503447Y-128274580D01*
X164217732Y-127322200D02*
X163360590Y-128607914D01*
X164551066Y-128369819D02*
X164551066Y-127369819D01*
X164551066Y-127369819D02*
X164932018Y-127369819D01*
X164932018Y-127369819D02*
X165027256Y-127417438D01*
X165027256Y-127417438D02*
X165074875Y-127465057D01*
X165074875Y-127465057D02*
X165122494Y-127560295D01*
X165122494Y-127560295D02*
X165122494Y-127703152D01*
X165122494Y-127703152D02*
X165074875Y-127798390D01*
X165074875Y-127798390D02*
X165027256Y-127846009D01*
X165027256Y-127846009D02*
X164932018Y-127893628D01*
X164932018Y-127893628D02*
X164551066Y-127893628D01*
X165503447Y-128322200D02*
X165646304Y-128369819D01*
X165646304Y-128369819D02*
X165884399Y-128369819D01*
X165884399Y-128369819D02*
X165979637Y-128322200D01*
X165979637Y-128322200D02*
X166027256Y-128274580D01*
X166027256Y-128274580D02*
X166074875Y-128179342D01*
X166074875Y-128179342D02*
X166074875Y-128084104D01*
X166074875Y-128084104D02*
X166027256Y-127988866D01*
X166027256Y-127988866D02*
X165979637Y-127941247D01*
X165979637Y-127941247D02*
X165884399Y-127893628D01*
X165884399Y-127893628D02*
X165693923Y-127846009D01*
X165693923Y-127846009D02*
X165598685Y-127798390D01*
X165598685Y-127798390D02*
X165551066Y-127750771D01*
X165551066Y-127750771D02*
X165503447Y-127655533D01*
X165503447Y-127655533D02*
X165503447Y-127560295D01*
X165503447Y-127560295D02*
X165551066Y-127465057D01*
X165551066Y-127465057D02*
X165598685Y-127417438D01*
X165598685Y-127417438D02*
X165693923Y-127369819D01*
X165693923Y-127369819D02*
X165932018Y-127369819D01*
X165932018Y-127369819D02*
X166074875Y-127417438D01*
X166503447Y-128369819D02*
X166503447Y-127369819D01*
X166503447Y-127369819D02*
X166884399Y-127369819D01*
X166884399Y-127369819D02*
X166979637Y-127417438D01*
X166979637Y-127417438D02*
X167027256Y-127465057D01*
X167027256Y-127465057D02*
X167074875Y-127560295D01*
X167074875Y-127560295D02*
X167074875Y-127703152D01*
X167074875Y-127703152D02*
X167027256Y-127798390D01*
X167027256Y-127798390D02*
X166979637Y-127846009D01*
X166979637Y-127846009D02*
X166884399Y-127893628D01*
X166884399Y-127893628D02*
X166503447Y-127893628D01*
X167503447Y-127988866D02*
X168265352Y-127988866D01*
X169074875Y-127846009D02*
X169217732Y-127893628D01*
X169217732Y-127893628D02*
X169265351Y-127941247D01*
X169265351Y-127941247D02*
X169312970Y-128036485D01*
X169312970Y-128036485D02*
X169312970Y-128179342D01*
X169312970Y-128179342D02*
X169265351Y-128274580D01*
X169265351Y-128274580D02*
X169217732Y-128322200D01*
X169217732Y-128322200D02*
X169122494Y-128369819D01*
X169122494Y-128369819D02*
X168741542Y-128369819D01*
X168741542Y-128369819D02*
X168741542Y-127369819D01*
X168741542Y-127369819D02*
X169074875Y-127369819D01*
X169074875Y-127369819D02*
X169170113Y-127417438D01*
X169170113Y-127417438D02*
X169217732Y-127465057D01*
X169217732Y-127465057D02*
X169265351Y-127560295D01*
X169265351Y-127560295D02*
X169265351Y-127655533D01*
X169265351Y-127655533D02*
X169217732Y-127750771D01*
X169217732Y-127750771D02*
X169170113Y-127798390D01*
X169170113Y-127798390D02*
X169074875Y-127846009D01*
X169074875Y-127846009D02*
X168741542Y-127846009D01*
X169884399Y-128369819D02*
X169789161Y-128322200D01*
X169789161Y-128322200D02*
X169741542Y-128226961D01*
X169741542Y-128226961D02*
X169741542Y-127369819D01*
X170693923Y-127703152D02*
X170693923Y-128369819D01*
X170265352Y-127703152D02*
X170265352Y-128226961D01*
X170265352Y-128226961D02*
X170312971Y-128322200D01*
X170312971Y-128322200D02*
X170408209Y-128369819D01*
X170408209Y-128369819D02*
X170551066Y-128369819D01*
X170551066Y-128369819D02*
X170646304Y-128322200D01*
X170646304Y-128322200D02*
X170693923Y-128274580D01*
X171551066Y-128322200D02*
X171455828Y-128369819D01*
X171455828Y-128369819D02*
X171265352Y-128369819D01*
X171265352Y-128369819D02*
X171170114Y-128322200D01*
X171170114Y-128322200D02*
X171122495Y-128226961D01*
X171122495Y-128226961D02*
X171122495Y-127846009D01*
X171122495Y-127846009D02*
X171170114Y-127750771D01*
X171170114Y-127750771D02*
X171265352Y-127703152D01*
X171265352Y-127703152D02*
X171455828Y-127703152D01*
X171455828Y-127703152D02*
X171551066Y-127750771D01*
X171551066Y-127750771D02*
X171598685Y-127846009D01*
X171598685Y-127846009D02*
X171598685Y-127941247D01*
X171598685Y-127941247D02*
X171122495Y-128036485D01*
X171884400Y-127703152D02*
X172265352Y-127703152D01*
X172027257Y-127369819D02*
X172027257Y-128226961D01*
X172027257Y-128226961D02*
X172074876Y-128322200D01*
X172074876Y-128322200D02*
X172170114Y-128369819D01*
X172170114Y-128369819D02*
X172265352Y-128369819D01*
X172741543Y-128369819D02*
X172646305Y-128322200D01*
X172646305Y-128322200D02*
X172598686Y-128274580D01*
X172598686Y-128274580D02*
X172551067Y-128179342D01*
X172551067Y-128179342D02*
X172551067Y-127893628D01*
X172551067Y-127893628D02*
X172598686Y-127798390D01*
X172598686Y-127798390D02*
X172646305Y-127750771D01*
X172646305Y-127750771D02*
X172741543Y-127703152D01*
X172741543Y-127703152D02*
X172884400Y-127703152D01*
X172884400Y-127703152D02*
X172979638Y-127750771D01*
X172979638Y-127750771D02*
X173027257Y-127798390D01*
X173027257Y-127798390D02*
X173074876Y-127893628D01*
X173074876Y-127893628D02*
X173074876Y-128179342D01*
X173074876Y-128179342D02*
X173027257Y-128274580D01*
X173027257Y-128274580D02*
X172979638Y-128322200D01*
X172979638Y-128322200D02*
X172884400Y-128369819D01*
X172884400Y-128369819D02*
X172741543Y-128369819D01*
X173646305Y-128369819D02*
X173551067Y-128322200D01*
X173551067Y-128322200D02*
X173503448Y-128274580D01*
X173503448Y-128274580D02*
X173455829Y-128179342D01*
X173455829Y-128179342D02*
X173455829Y-127893628D01*
X173455829Y-127893628D02*
X173503448Y-127798390D01*
X173503448Y-127798390D02*
X173551067Y-127750771D01*
X173551067Y-127750771D02*
X173646305Y-127703152D01*
X173646305Y-127703152D02*
X173789162Y-127703152D01*
X173789162Y-127703152D02*
X173884400Y-127750771D01*
X173884400Y-127750771D02*
X173932019Y-127798390D01*
X173932019Y-127798390D02*
X173979638Y-127893628D01*
X173979638Y-127893628D02*
X173979638Y-128179342D01*
X173979638Y-128179342D02*
X173932019Y-128274580D01*
X173932019Y-128274580D02*
X173884400Y-128322200D01*
X173884400Y-128322200D02*
X173789162Y-128369819D01*
X173789162Y-128369819D02*
X173646305Y-128369819D01*
X174265353Y-127703152D02*
X174646305Y-127703152D01*
X174408210Y-127369819D02*
X174408210Y-128226961D01*
X174408210Y-128226961D02*
X174455829Y-128322200D01*
X174455829Y-128322200D02*
X174551067Y-128369819D01*
X174551067Y-128369819D02*
X174646305Y-128369819D01*
X174979639Y-128369819D02*
X174979639Y-127369819D01*
X175408210Y-128369819D02*
X175408210Y-127846009D01*
X175408210Y-127846009D02*
X175360591Y-127750771D01*
X175360591Y-127750771D02*
X175265353Y-127703152D01*
X175265353Y-127703152D02*
X175122496Y-127703152D01*
X175122496Y-127703152D02*
X175027258Y-127750771D01*
X175027258Y-127750771D02*
X174979639Y-127798390D01*
X106119819Y-127619047D02*
X105643628Y-127952380D01*
X106119819Y-128190475D02*
X105119819Y-128190475D01*
X105119819Y-128190475D02*
X105119819Y-127809523D01*
X105119819Y-127809523D02*
X105167438Y-127714285D01*
X105167438Y-127714285D02*
X105215057Y-127666666D01*
X105215057Y-127666666D02*
X105310295Y-127619047D01*
X105310295Y-127619047D02*
X105453152Y-127619047D01*
X105453152Y-127619047D02*
X105548390Y-127666666D01*
X105548390Y-127666666D02*
X105596009Y-127714285D01*
X105596009Y-127714285D02*
X105643628Y-127809523D01*
X105643628Y-127809523D02*
X105643628Y-128190475D01*
X106119819Y-127190475D02*
X105453152Y-127190475D01*
X105119819Y-127190475D02*
X105167438Y-127238094D01*
X105167438Y-127238094D02*
X105215057Y-127190475D01*
X105215057Y-127190475D02*
X105167438Y-127142856D01*
X105167438Y-127142856D02*
X105119819Y-127190475D01*
X105119819Y-127190475D02*
X105215057Y-127190475D01*
X105453152Y-126285714D02*
X106262676Y-126285714D01*
X106262676Y-126285714D02*
X106357914Y-126333333D01*
X106357914Y-126333333D02*
X106405533Y-126380952D01*
X106405533Y-126380952D02*
X106453152Y-126476190D01*
X106453152Y-126476190D02*
X106453152Y-126619047D01*
X106453152Y-126619047D02*
X106405533Y-126714285D01*
X106072200Y-126285714D02*
X106119819Y-126380952D01*
X106119819Y-126380952D02*
X106119819Y-126571428D01*
X106119819Y-126571428D02*
X106072200Y-126666666D01*
X106072200Y-126666666D02*
X106024580Y-126714285D01*
X106024580Y-126714285D02*
X105929342Y-126761904D01*
X105929342Y-126761904D02*
X105643628Y-126761904D01*
X105643628Y-126761904D02*
X105548390Y-126714285D01*
X105548390Y-126714285D02*
X105500771Y-126666666D01*
X105500771Y-126666666D02*
X105453152Y-126571428D01*
X105453152Y-126571428D02*
X105453152Y-126380952D01*
X105453152Y-126380952D02*
X105500771Y-126285714D01*
X106119819Y-125809523D02*
X105119819Y-125809523D01*
X106119819Y-125380952D02*
X105596009Y-125380952D01*
X105596009Y-125380952D02*
X105500771Y-125428571D01*
X105500771Y-125428571D02*
X105453152Y-125523809D01*
X105453152Y-125523809D02*
X105453152Y-125666666D01*
X105453152Y-125666666D02*
X105500771Y-125761904D01*
X105500771Y-125761904D02*
X105548390Y-125809523D01*
X105453152Y-125047618D02*
X105453152Y-124666666D01*
X105119819Y-124904761D02*
X105976961Y-124904761D01*
X105976961Y-124904761D02*
X106072200Y-124857142D01*
X106072200Y-124857142D02*
X106119819Y-124761904D01*
X106119819Y-124761904D02*
X106119819Y-124666666D01*
D11*
%TO.C,L6*%
X193000127Y-111450152D02*
X200000127Y-111450152D01*
X193000127Y-119050356D02*
X193000127Y-111450152D01*
X195799975Y-111450152D02*
X195799975Y-111450406D01*
X197200025Y-119050356D02*
X197223292Y-119050356D01*
X200000127Y-111450152D02*
X200000127Y-119050356D01*
X200000127Y-119050356D02*
X193000127Y-119050356D01*
D12*
X193030100Y-119000064D02*
G75*
G02*
X192970154Y-119000064I-29973J0D01*
G01*
X192970154Y-119000064D02*
G75*
G02*
X193030100Y-119000064I29973J0D01*
G01*
D11*
%TO.C,L4*%
X183000127Y-101700152D02*
X190000127Y-101700152D01*
X183000127Y-109300356D02*
X183000127Y-101700152D01*
X185799975Y-101700152D02*
X185799975Y-101700406D01*
X187200025Y-109300356D02*
X187223292Y-109300356D01*
X190000127Y-101700152D02*
X190000127Y-109300356D01*
X190000127Y-109300356D02*
X183000127Y-109300356D01*
D12*
X183030100Y-109250064D02*
G75*
G02*
X182970154Y-109250064I-29973J0D01*
G01*
X182970154Y-109250064D02*
G75*
G02*
X183030100Y-109250064I29973J0D01*
G01*
D13*
%TO.C,C4*%
X141255000Y-117774873D02*
X141255915Y-110649873D01*
D11*
%TO.C,L3*%
X181899606Y-83320104D02*
X189499810Y-83320104D01*
X181899606Y-87520002D02*
X181899606Y-87543269D01*
X181899606Y-90320104D02*
X181899606Y-83320104D01*
X189499810Y-83320104D02*
X189499810Y-90320104D01*
X189499810Y-86119952D02*
X189499556Y-86119952D01*
X189499810Y-90320104D02*
X181899606Y-90320104D01*
D12*
X181979871Y-83320104D02*
G75*
G02*
X181919925Y-83320104I-29973J0D01*
G01*
X181919925Y-83320104D02*
G75*
G02*
X181979871Y-83320104I29973J0D01*
G01*
D13*
%TO.C,C3*%
X188320000Y-138999873D02*
X188319085Y-142499873D01*
D11*
%TO.C,L2*%
X183250127Y-121450152D02*
X190250127Y-121450152D01*
X183250127Y-129050356D02*
X183250127Y-121450152D01*
X186049975Y-121450152D02*
X186049975Y-121450406D01*
X187450025Y-129050356D02*
X187473292Y-129050356D01*
X190250127Y-121450152D02*
X190250127Y-129050356D01*
X190250127Y-129050356D02*
X183250127Y-129050356D01*
D12*
X183280100Y-129000064D02*
G75*
G02*
X183220154Y-129000064I-29973J0D01*
G01*
X183220154Y-129000064D02*
G75*
G02*
X183280100Y-129000064I29973J0D01*
G01*
D11*
%TO.C,L5*%
X173500127Y-111700152D02*
X180500127Y-111700152D01*
X173500127Y-119300356D02*
X173500127Y-111700152D01*
X176299975Y-111700152D02*
X176299975Y-111700406D01*
X177700025Y-119300356D02*
X177723292Y-119300356D01*
X180500127Y-111700152D02*
X180500127Y-119300356D01*
X180500127Y-119300356D02*
X173500127Y-119300356D01*
D12*
X173530100Y-119250064D02*
G75*
G02*
X173470154Y-119250064I-29973J0D01*
G01*
X173470154Y-119250064D02*
G75*
G02*
X173530100Y-119250064I29973J0D01*
G01*
%TD*%
M02*
