%TF.GenerationSoftware,KiCad,Pcbnew,8.0.4*%
%TF.CreationDate,2024-09-23T09:04:20+01:00*%
%TF.ProjectId,right,72696768-742e-46b6-9963-61645f706362,rev?*%
%TF.SameCoordinates,Original*%
%TF.FileFunction,Profile,NP*%
%FSLAX46Y46*%
G04 Gerber Fmt 4.6, Leading zero omitted, Abs format (unit mm)*
G04 Created by KiCad (PCBNEW 8.0.4) date 2024-09-23 09:04:20*
%MOMM*%
%LPD*%
G01*
G04 APERTURE LIST*
%TA.AperFunction,Profile*%
%ADD10C,0.100000*%
%TD*%
%TA.AperFunction,Profile*%
%ADD11C,0.120000*%
%TD*%
G04 APERTURE END LIST*
D10*
X179750000Y-91999873D02*
X179750000Y-83499873D01*
X191250000Y-104999873D02*
X189500000Y-99749873D01*
X187500000Y-115249873D02*
G75*
G02*
X185500000Y-115249873I-1000000J0D01*
G01*
X185500000Y-115249873D02*
G75*
G02*
X187500000Y-115249873I1000000J0D01*
G01*
X192250000Y-83499873D02*
X192250000Y-85249873D01*
X181000000Y-83499873D02*
X179750000Y-83499873D01*
X179750000Y-81499873D02*
G75*
G02*
X180250000Y-80999900I500000J-27D01*
G01*
X200750000Y-120749873D02*
X194750000Y-126999873D01*
X179000001Y-106499873D02*
X173225184Y-111499873D01*
X176000000Y-140249873D02*
X176000000Y-132749873D01*
X192250000Y-91499873D02*
X192250000Y-86249873D01*
X202750000Y-112499873D02*
X202750000Y-120749873D01*
X173225184Y-111499873D02*
X173225184Y-121249873D01*
X180250000Y-92499873D02*
G75*
G02*
X179750027Y-91999873I0J499973D01*
G01*
X192250000Y-91499873D02*
G75*
G02*
X191250000Y-92499900I-1000000J-27D01*
G01*
X160500000Y-110499873D02*
X143725184Y-110499873D01*
X176000000Y-132749873D02*
X174000000Y-128749873D01*
X191250000Y-94749873D02*
X189500000Y-99749873D01*
X150790569Y-119499873D02*
G75*
G02*
X149209431Y-119499873I-790569J0D01*
G01*
X149209431Y-119499873D02*
G75*
G02*
X150790569Y-119499873I790569J0D01*
G01*
X160500000Y-110499873D02*
X170500000Y-121249873D01*
X185696227Y-98015381D02*
G75*
G02*
X184303773Y-98015381I-696227J0D01*
G01*
X184303773Y-98015381D02*
G75*
G02*
X185696227Y-98015381I696227J0D01*
G01*
X152000000Y-117999873D02*
X157250000Y-117999873D01*
X182250000Y-132999873D02*
G75*
G02*
X183750000Y-132999873I750000J0D01*
G01*
X162250000Y-123249873D02*
X162000000Y-123249873D01*
X182250000Y-132999873D02*
X182250000Y-134499873D01*
X178750000Y-142999873D02*
X182499085Y-142999873D01*
X195207107Y-110249873D02*
G75*
G02*
X193792893Y-110249873I-707107J0D01*
G01*
X193792893Y-110249873D02*
G75*
G02*
X195207107Y-110249873I707107J0D01*
G01*
X192250000Y-130999873D02*
X192250000Y-129999873D01*
X120225184Y-128749873D02*
X174000000Y-128749873D01*
X188500000Y-92499873D02*
X180250000Y-92499873D01*
X178290569Y-110249873D02*
G75*
G02*
X176709431Y-110249873I-790569J0D01*
G01*
X176709431Y-110249873D02*
G75*
G02*
X178290569Y-110249873I790569J0D01*
G01*
X187250000Y-97749873D02*
X188500000Y-93999873D01*
X181559017Y-91249873D02*
G75*
G02*
X180440983Y-91249873I-559017J0D01*
G01*
X180440983Y-91249873D02*
G75*
G02*
X181559017Y-91249873I559017J0D01*
G01*
X179750000Y-82749873D02*
X181000000Y-82749873D01*
X191250000Y-86249873D02*
X192250000Y-86249873D01*
X197000000Y-108184801D02*
X193500000Y-108249873D01*
X102500000Y-130750000D02*
X110000000Y-128749873D01*
X157750000Y-123249873D02*
X102500000Y-123250507D01*
X201500000Y-110499873D02*
X202250000Y-111499873D01*
X191250000Y-92749873D02*
X191250000Y-94749873D01*
X200250000Y-109499873D02*
X201500000Y-110499873D01*
X151999999Y-119749873D02*
G75*
G02*
X148000001Y-119749873I-1999999J750000D01*
G01*
X179000001Y-106499873D02*
G75*
G02*
X183230168Y-98958682I7499999J749973D01*
G01*
X181000000Y-82749873D02*
G75*
G02*
X181000000Y-83499927I0J-375027D01*
G01*
X170500000Y-121249873D02*
X173225184Y-121249873D01*
X162000000Y-123249873D02*
X157750000Y-123249873D01*
X192250000Y-129999873D02*
G75*
G02*
X193250000Y-129999873I500000J0D01*
G01*
X157250000Y-117999873D02*
X162250000Y-123249873D01*
X179750000Y-81499873D02*
X179750000Y-82749873D01*
X194750000Y-126999873D02*
X194750000Y-131499873D01*
X193250000Y-129999873D02*
X193250000Y-130999873D01*
X202250000Y-111499873D02*
X202750000Y-112499873D01*
X199000000Y-108749873D02*
X200250000Y-109499873D01*
X180250000Y-80999873D02*
X189250000Y-80999873D01*
X120225184Y-128749873D02*
X110000000Y-128749873D01*
X202750000Y-120749873D02*
X200750000Y-120749873D01*
X182250000Y-134499873D02*
X181000000Y-134499873D01*
X178750000Y-142999873D02*
G75*
G02*
X176000027Y-140249873I0J2749973D01*
G01*
X183500001Y-97749873D02*
G75*
G02*
X186499999Y-97749873I1499999J-265499D01*
G01*
X197500000Y-108249873D02*
X199000000Y-108749873D01*
X191250000Y-92499873D02*
X191250000Y-92749873D01*
X183230156Y-98958658D02*
X183500000Y-98499873D01*
X192500000Y-134499873D02*
X183750000Y-134499873D01*
X193250000Y-130999873D02*
G75*
G02*
X192250000Y-130999873I-500000J0D01*
G01*
X191250000Y-86249873D02*
G75*
G02*
X191250000Y-85249927I0J499973D01*
G01*
X148000000Y-117999873D02*
X142575000Y-117999620D01*
X148000000Y-117999873D02*
X148000000Y-119749873D01*
X183750000Y-134499873D02*
X183750000Y-132999873D01*
X183500000Y-98499873D02*
X183500001Y-97749873D01*
X192250000Y-85249873D02*
X191250000Y-85249873D01*
X194750000Y-131499873D02*
X192500000Y-134499873D01*
X181000000Y-134499873D02*
X181000000Y-138499873D01*
X186500000Y-97749873D02*
X187250000Y-97749873D01*
X197000000Y-108184801D02*
X197500000Y-108249873D01*
X191750000Y-82749873D02*
X192250000Y-83499873D01*
X193500000Y-108249873D02*
X191250000Y-104999873D01*
X143725184Y-110499873D02*
X142575000Y-110499873D01*
X188500000Y-93999873D02*
X188500000Y-92499873D01*
X189250000Y-82749873D02*
X191750000Y-82749873D01*
X181000000Y-138499873D02*
X182499085Y-138499873D01*
X189250000Y-80999873D02*
X189250000Y-82749873D01*
X190809017Y-83999873D02*
G75*
G02*
X189690983Y-83999873I-559017J0D01*
G01*
X189690983Y-83999873D02*
G75*
G02*
X190809017Y-83999873I559017J0D01*
G01*
X152000000Y-119749873D02*
X152000000Y-117999873D01*
D11*
%TO.C,C4*%
X136895000Y-117999873D02*
X136895915Y-110499873D01*
X142575000Y-110499873D02*
X136895915Y-110499873D01*
X142575000Y-117999366D02*
X136895000Y-117999366D01*
%TO.C,C3*%
X182499085Y-142999873D02*
X192679085Y-142999873D01*
X182500000Y-138499873D02*
X192680000Y-138499873D01*
X192680000Y-138499873D02*
X192679085Y-142999873D01*
%TO.C,C1*%
X96820000Y-123250507D02*
X102500000Y-123250507D01*
X96820915Y-130750000D02*
X96820000Y-123250000D01*
X96820915Y-130750000D02*
X102500000Y-130750000D01*
%TD*%
M02*
