%TF.GenerationSoftware,KiCad,Pcbnew,8.0.4*%
%TF.CreationDate,2024-09-23T09:04:20+01:00*%
%TF.ProjectId,right,72696768-742e-46b6-9963-61645f706362,rev?*%
%TF.SameCoordinates,Original*%
%TF.FileFunction,Copper,L1,Top*%
%TF.FilePolarity,Positive*%
%FSLAX46Y46*%
G04 Gerber Fmt 4.6, Leading zero omitted, Abs format (unit mm)*
G04 Created by KiCad (PCBNEW 8.0.4) date 2024-09-23 09:04:20*
%MOMM*%
%LPD*%
G01*
G04 APERTURE LIST*
G04 Aperture macros list*
%AMFreePoly0*
4,1,154,0.500000,-0.550000,0.488233,-0.550000,0.934787,-0.791141,1.076149,-0.631259,1.307724,-0.423236,1.561625,-0.243140,1.834504,-0.093348,2.122760,0.024164,2.422590,0.107845,2.730038,0.156591,2.978729,0.167121,2.980491,0.167851,2.995963,0.167851,3.041048,0.169760,3.351516,0.147177,3.657346,0.089141,3.954504,-0.003583,4.239068,-0.129772,4.507285,-0.287761,4.755615,-0.475464,
4.980782,-0.690407,5.064755,-0.791388,5.952485,-0.312010,5.970563,-0.304430,6.009377,-0.300441,6.046763,-0.311608,6.077030,-0.336232,6.095570,-0.370564,6.099559,-0.409377,6.088392,-0.446763,6.063768,-0.477030,6.047515,-0.487990,5.192760,-0.949561,5.350090,-1.190342,5.489358,-1.468739,5.595782,-1.761270,5.595899,-1.765237,5.598078,-1.770496,5.599999,-1.790005,5.600000,-2.540005,
5.598079,-2.559514,5.583147,-2.595562,5.555557,-2.623152,5.519509,-2.638084,5.480491,-2.638084,5.444443,-2.623152,5.416853,-2.595562,5.401921,-2.559514,5.400000,-2.540005,5.399999,-1.804669,5.360775,-1.673820,5.239649,-1.396541,5.100000,-1.159427,5.100000,-3.290005,5.098079,-3.309514,5.083147,-3.345562,5.055557,-3.373152,5.019509,-3.388084,4.980491,-3.388084,4.944443,-3.373152,
4.916853,-3.345562,4.901921,-3.309514,4.900000,-3.290005,4.900000,-0.940005,4.900687,-0.933024,4.900441,-0.930628,4.901160,-0.928219,4.901921,-0.920496,4.907465,-0.907111,4.908534,-0.903530,4.902339,-0.895425,4.691039,-0.678844,4.455256,-0.489209,4.198402,-0.329266,4.100000,-0.283355,4.100000,-4.290005,4.098079,-4.309514,4.083147,-4.345562,4.055557,-4.373152,4.019509,-4.388084,
3.980491,-4.388084,3.944443,-4.373152,3.916853,-4.345562,3.901921,-4.309514,3.900000,-4.290005,3.900000,-0.193416,3.636613,-0.107258,3.339810,-0.048406,3.100000,-0.030302,3.100000,-4.540005,3.098079,-4.559514,3.083147,-4.595562,3.055557,-4.623152,3.019509,-4.638084,2.980491,-4.638084,2.944443,-4.623152,2.916853,-4.595562,2.901921,-4.559514,2.900000,-4.540005,2.900000,-0.031854,
2.735814,-0.039257,2.437365,-0.089091,2.147062,-0.174412,2.100000,-0.194657,2.100000,-4.290005,2.098079,-4.309514,2.083147,-4.345562,2.055557,-4.373152,2.019509,-4.388084,1.980491,-4.388084,1.944443,-4.373152,1.916853,-4.345562,1.901921,-4.309514,1.900000,-4.290005,1.900000,-0.280693,1.869109,-0.293982,1.607529,-0.446071,1.366110,-0.628477,1.148347,-0.838560,1.092548,-0.907145,
1.098079,-0.920496,1.098839,-0.928219,1.099559,-0.930628,1.099312,-0.933024,1.100000,-0.940005,1.100000,-3.290005,1.098079,-3.309514,1.083147,-3.345562,1.055557,-3.373152,1.019509,-3.388084,0.980491,-3.388084,0.944443,-3.373152,0.916853,-3.345562,0.901921,-3.309514,0.900000,-3.290005,0.900000,-1.164302,0.796013,-1.329229,0.666544,-1.602712,0.618733,-1.746249,0.618732,-1.746249,
0.590211,-1.789446,0.543912,-1.812596,0.492241,-1.809494,0.449044,-1.780973,0.425894,-1.734674,0.428996,-1.683003,0.544232,-1.393830,0.691869,-1.119779,0.809681,-0.950880,0.067317,-0.550000,-0.500000,-0.550000,-0.500000,0.550000,0.500000,0.550000,0.500000,-0.550000,0.500000,-0.550000,$1*%
%AMFreePoly1*
4,1,131,2.555557,4.623152,2.583147,4.595562,2.598079,4.559514,2.600000,4.540005,2.600000,0.061426,2.694366,0.043985,3.000000,0.025342,3.305634,0.043985,3.400000,0.061426,3.400000,4.540005,3.401921,4.559514,3.416853,4.595562,3.444443,4.623152,3.480491,4.638084,3.519509,4.638084,3.555557,4.623152,3.583147,4.595562,3.598079,4.559514,3.600000,4.540005,3.600000,0.098391,
3.606736,0.099636,3.898842,0.191471,4.177620,0.318127,4.400000,0.453946,4.400000,4.040005,4.401921,4.059514,4.416853,4.095562,4.444443,4.123152,4.480491,4.138084,4.519509,4.138084,4.555557,4.123152,4.583147,4.095562,4.598079,4.059514,4.600000,4.040005,4.600000,0.605363,4.678921,0.667906,4.894010,0.885842,5.081017,1.128305,5.237168,1.391698,5.360149,1.672118,
5.404216,1.818740,5.431416,1.862781,5.476993,1.887323,5.528734,1.885788,5.572775,1.858588,5.597317,1.813011,5.595782,1.761270,5.595781,1.761270,5.487879,1.465313,5.346363,1.183876,5.173144,0.920761,4.970564,0.679525,4.813743,0.531672,6.002666,0.499964,6.022117,0.497524,6.057754,0.481636,6.084598,0.453321,6.098564,0.416887,6.097524,0.377883,6.081636,0.342246,
6.053320,0.315401,6.016887,0.301436,5.997334,0.300036,4.572818,0.338027,4.488625,0.275385,4.215779,0.117942,3.926505,-0.006776,3.624714,-0.097084,3.314481,-0.151762,3.000000,-0.170070,2.685519,-0.151762,2.375286,-0.097084,2.073495,-0.006776,1.784221,0.117942,1.511375,0.275385,1.427181,0.338027,0.500000,0.313299,0.500000,-0.550000,-0.500000,-0.550000,-0.500000,0.550000,
0.500000,0.550000,0.500000,0.513369,1.186256,0.531672,1.029436,0.679525,0.826856,0.920761,0.653637,1.183876,0.512121,1.465313,0.404219,1.761270,0.404218,1.761270,0.404100,1.765237,0.401922,1.770496,0.400001,1.790005,0.400000,2.540005,0.401921,2.559514,0.416853,2.595562,0.444443,2.623152,0.480491,2.638084,0.519509,2.638084,0.555557,2.623152,0.583147,2.595562,
0.598079,2.559514,0.600000,2.540005,0.600000,1.804709,0.639851,1.672118,0.762832,1.391698,0.918983,1.128305,1.105990,0.885842,1.321079,0.667906,1.400000,0.605363,1.400000,4.040005,1.401921,4.059514,1.416853,4.095562,1.444443,4.123152,1.480491,4.138084,1.519509,4.138084,1.555557,4.123152,1.583147,4.095562,1.598079,4.059514,1.600000,4.040005,1.600000,0.453946,
1.822380,0.318127,2.101158,0.191471,2.393264,0.099636,2.400000,0.098391,2.400000,4.540005,2.401921,4.559514,2.416853,4.595562,2.444443,4.623152,2.480491,4.638084,2.519509,4.638084,2.555557,4.623152,2.555557,4.623152,$1*%
%AMFreePoly2*
4,1,5,0.125000,-1.000000,-0.125000,-1.000000,-0.125000,9.000000,0.125000,9.000000,0.125000,-1.000000,0.125000,-1.000000,$1*%
G04 Aperture macros list end*
%TA.AperFunction,SMDPad,CuDef*%
%ADD10FreePoly0,90.000000*%
%TD*%
%TA.AperFunction,SMDPad,CuDef*%
%ADD11R,1.100000X1.000000*%
%TD*%
%TA.AperFunction,SMDPad,CuDef*%
%ADD12FreePoly1,90.000000*%
%TD*%
%TA.AperFunction,SMDPad,CuDef*%
%ADD13R,4.000000X0.250000*%
%TD*%
%TA.AperFunction,SMDPad,CuDef*%
%ADD14FreePoly0,0.000000*%
%TD*%
%TA.AperFunction,SMDPad,CuDef*%
%ADD15R,1.000000X1.100000*%
%TD*%
%TA.AperFunction,SMDPad,CuDef*%
%ADD16FreePoly1,0.000000*%
%TD*%
%TA.AperFunction,SMDPad,CuDef*%
%ADD17FreePoly2,270.000000*%
%TD*%
%TA.AperFunction,ViaPad*%
%ADD18C,0.800000*%
%TD*%
%TA.AperFunction,Conductor*%
%ADD19C,0.250000*%
%TD*%
G04 APERTURE END LIST*
D10*
%TO.P,L6,1,1*%
%TO.N,/Circle*%
X193959995Y-118250000D03*
D11*
X193959995Y-112250000D03*
D12*
%TO.P,L6,2,2*%
%TO.N,/gnd*%
X199040005Y-118250000D03*
D11*
X199040005Y-112250000D03*
%TD*%
D10*
%TO.P,L4,1,1*%
%TO.N,/Triangle*%
X183959995Y-108500000D03*
D11*
X183959995Y-102500000D03*
D12*
%TO.P,L4,2,2*%
%TO.N,/gnd*%
X189040005Y-108500000D03*
D11*
X189040005Y-102500000D03*
%TD*%
D13*
%TO.P,C4,1,1*%
%TO.N,/LED +5v*%
X139075000Y-117499873D03*
%TO.P,C4,2,2*%
%TO.N,/chargeLED*%
X139075000Y-116999873D03*
%TO.P,C4,3,3*%
%TO.N,/powerLED*%
X139075000Y-116499873D03*
%TO.P,C4,4,4*%
%TO.N,/keyHold*%
X139075000Y-115999873D03*
%TO.P,C4,5,5*%
%TO.N,/keyPower*%
X139075000Y-115499873D03*
%TO.P,C4,6,6*%
%TO.N,/gnd*%
X139075000Y-114999873D03*
%TO.P,C4,7,7*%
X139075000Y-114499873D03*
%TO.P,C4,8,8*%
X139075000Y-113999873D03*
%TO.P,C4,9,9*%
X139075000Y-113499873D03*
%TO.P,C4,10,10*%
%TO.N,/cross*%
X139075000Y-112999873D03*
%TO.P,C4,11,11*%
%TO.N,/Circle*%
X139075000Y-112499873D03*
%TO.P,C4,12,12*%
%TO.N,/Triangle*%
X139075000Y-111999873D03*
%TO.P,C4,13,13*%
%TO.N,/R1*%
X139075000Y-111499873D03*
%TO.P,C4,14,14*%
%TO.N,/Square*%
X139075000Y-110999873D03*
%TD*%
D14*
%TO.P,L3,1,1*%
%TO.N,/R1*%
X182699962Y-84279972D03*
D15*
X188699962Y-84279972D03*
D16*
%TO.P,L3,2,2*%
%TO.N,/gnd*%
X182699962Y-89359982D03*
D15*
X188699962Y-89359982D03*
%TD*%
D17*
%TO.P,C3,1,1*%
%TO.N,/gnd*%
X183500000Y-138999873D03*
%TO.P,C3,2,2*%
X183500000Y-139499873D03*
%TO.P,C3,3,3*%
%TO.N,/keyPower*%
X183500000Y-139999873D03*
%TO.P,C3,4,4*%
%TO.N,/keyHold*%
X183500000Y-140499873D03*
%TO.P,C3,5,5*%
%TO.N,/powerLED*%
X183500000Y-140999873D03*
%TO.P,C3,6,6*%
%TO.N,/chargeLED*%
X183500000Y-141499873D03*
%TO.P,C3,7,7*%
%TO.N,/LED +5v*%
X183500000Y-141999873D03*
%TO.P,C3,8,8*%
%TO.N,unconnected-(C3-Pad8)*%
X183500000Y-142499873D03*
%TD*%
D10*
%TO.P,L2,1,1*%
%TO.N,/cross*%
X184209995Y-128250000D03*
D11*
X184209995Y-122250000D03*
D12*
%TO.P,L2,2,2*%
%TO.N,/gnd*%
X189290005Y-128250000D03*
D11*
X189290005Y-122250000D03*
%TD*%
D10*
%TO.P,L5,1,1*%
%TO.N,/Square*%
X174459995Y-118500000D03*
D11*
X174459995Y-112500000D03*
D12*
%TO.P,L5,2,2*%
%TO.N,/gnd*%
X179540005Y-118500000D03*
D11*
X179540005Y-112500000D03*
%TD*%
D18*
%TO.N,/gnd*%
X180225184Y-111249873D03*
X189000000Y-110250000D03*
X189250000Y-91000000D03*
X188225184Y-100749873D03*
X180250000Y-128249873D03*
%TO.N,/cross*%
X180000000Y-126500000D03*
%TO.N,/Circle*%
X186500000Y-119249873D03*
%TO.N,/Triangle*%
X184550038Y-117999873D03*
%TO.N,/R1*%
X183250000Y-117999873D03*
%TO.N,/Square*%
X175000000Y-121249873D03*
%TO.N,/keyPower*%
X178250000Y-129749873D03*
%TD*%
D19*
%TO.N,/gnd*%
X179750000Y-138749873D02*
X179750000Y-129999873D01*
X179750000Y-129999873D02*
X179750000Y-129499873D01*
X139075000Y-114499873D02*
X158750000Y-114499873D01*
X169000000Y-124749873D02*
X175250000Y-124749873D01*
X180250000Y-128249873D02*
X181750000Y-129749873D01*
X180500000Y-139499873D02*
X179750000Y-138749873D01*
X180000000Y-128249873D02*
X180250000Y-128249873D01*
X139075000Y-113499873D02*
X157750000Y-113499873D01*
X139075000Y-114999873D02*
X158636396Y-114999873D01*
X180250000Y-128499873D02*
X180000000Y-128249873D01*
X179750000Y-128749873D02*
X179750000Y-129499873D01*
X179750000Y-129863477D02*
X179750000Y-129999873D01*
X180225184Y-111249873D02*
X180225184Y-111814821D01*
X180250000Y-138499873D02*
X180250000Y-128499873D01*
X179750000Y-129249873D02*
X179750000Y-129499873D01*
X188699962Y-90449962D02*
X189250000Y-91000000D01*
X188225184Y-101685179D02*
X189040005Y-102500000D01*
X187790132Y-129749873D02*
X189290005Y-128250000D01*
X158750000Y-114499873D02*
X169000000Y-124749873D01*
X158250000Y-113999873D02*
X158750000Y-114499873D01*
X175250000Y-124749873D02*
X179750000Y-129249873D01*
X180250000Y-128249873D02*
X179750000Y-128749873D01*
X188699962Y-89359982D02*
X188699962Y-90449962D01*
X180750000Y-138999873D02*
X180250000Y-138499873D01*
X175136396Y-125249873D02*
X179750000Y-129863477D01*
X180225184Y-111814821D02*
X179540005Y-112500000D01*
X158636396Y-114999873D02*
X168886396Y-125249873D01*
X168886396Y-125249873D02*
X175136396Y-125249873D01*
X181750000Y-129749873D02*
X187790132Y-129749873D01*
X189290005Y-122250000D02*
X195040005Y-122250000D01*
X195040005Y-122250000D02*
X199040005Y-118250000D01*
X188225184Y-100749873D02*
X188225184Y-101685179D01*
X183500000Y-139499873D02*
X180500000Y-139499873D01*
X189000000Y-110250000D02*
X189000000Y-108540005D01*
X183500000Y-138999873D02*
X180750000Y-138999873D01*
X139075000Y-113999873D02*
X158250000Y-113999873D01*
X189000000Y-108540005D02*
X189040005Y-108500000D01*
X157750000Y-113499873D02*
X158250000Y-113999873D01*
%TO.N,/cross*%
X180000000Y-126500000D02*
X184209995Y-122290005D01*
X169250000Y-124249873D02*
X158000000Y-112999873D01*
X180000000Y-126500000D02*
X177749873Y-124249873D01*
X158000000Y-112999873D02*
X139075000Y-112999873D01*
X184209995Y-122290005D02*
X184209995Y-122250000D01*
X177749873Y-124249873D02*
X169250000Y-124249873D01*
%TO.N,/Circle*%
X139075000Y-112499873D02*
X158250000Y-112499873D01*
X183250000Y-121249873D02*
X185250000Y-119249873D01*
X169500000Y-123749873D02*
X182000000Y-123749873D01*
X158250000Y-112499873D02*
X169500000Y-123749873D01*
X192960122Y-119249873D02*
X186500000Y-119249873D01*
X183250000Y-122499873D02*
X183250000Y-121249873D01*
X193959995Y-118250000D02*
X192960122Y-119249873D01*
X182000000Y-123749873D02*
X183250000Y-122499873D01*
X185250000Y-119249873D02*
X186500000Y-119249873D01*
%TO.N,/Triangle*%
X184550038Y-119313439D02*
X184550038Y-117999873D01*
X183959995Y-108500000D02*
X184550038Y-109090043D01*
X169636396Y-123249873D02*
X181863604Y-123249873D01*
X158386396Y-111999873D02*
X169636396Y-123249873D01*
X182750000Y-122363477D02*
X182750000Y-121113477D01*
X139075000Y-111999873D02*
X158386396Y-111999873D01*
X181863604Y-123249873D02*
X182750000Y-122363477D01*
X184550038Y-109090043D02*
X184550038Y-117999873D01*
X182750000Y-121113477D02*
X184550038Y-119313439D01*
%TO.N,/R1*%
X183250000Y-119977081D02*
X183250000Y-117999873D01*
X189725184Y-95249873D02*
X189725184Y-95749873D01*
X158522792Y-111499873D02*
X169772792Y-122749873D01*
X188699962Y-84279972D02*
X188699962Y-85224651D01*
X182250000Y-122227081D02*
X182250000Y-120977081D01*
X169772792Y-122749873D02*
X181727208Y-122749873D01*
X190225184Y-94749873D02*
X189725184Y-95249873D01*
X187225184Y-100249873D02*
X183225184Y-100249873D01*
X183225184Y-100249873D02*
X182225184Y-101249873D01*
X182225184Y-116975057D02*
X183250000Y-117999873D01*
X182225184Y-101249873D02*
X182225184Y-116975057D01*
X190225184Y-86749873D02*
X190225184Y-94749873D01*
X189725184Y-95749873D02*
X189225184Y-96249873D01*
X139075000Y-111499873D02*
X158522792Y-111499873D01*
X188699962Y-85224651D02*
X190225184Y-86749873D01*
X181727208Y-122749873D02*
X182250000Y-122227081D01*
X189225184Y-98249873D02*
X187225184Y-100249873D01*
X189225184Y-96249873D02*
X189225184Y-98249873D01*
X182250000Y-120977081D02*
X183250000Y-119977081D01*
%TO.N,/Square*%
X174000000Y-122249873D02*
X175000000Y-121249873D01*
X174459995Y-118500000D02*
X175000000Y-119040005D01*
X175000000Y-119040005D02*
X175000000Y-121249873D01*
X158750000Y-110999873D02*
X170000000Y-122249873D01*
X139075000Y-110999873D02*
X158750000Y-110999873D01*
X170000000Y-122249873D02*
X174000000Y-122249873D01*
%TO.N,/keyHold*%
X139075000Y-115999873D02*
X158363604Y-115999873D01*
X158363604Y-115999873D02*
X168613604Y-126249873D01*
X178750000Y-139136269D02*
X180113604Y-140499873D01*
X176850000Y-129736269D02*
X178750000Y-131636269D01*
X176850000Y-128690685D02*
X176850000Y-129736269D01*
X174409188Y-126249873D02*
X176850000Y-128690685D01*
X168613604Y-126249873D02*
X174409188Y-126249873D01*
X180113604Y-140499873D02*
X183500000Y-140499873D01*
X178750000Y-131636269D02*
X178750000Y-139136269D01*
%TO.N,/LED +5v*%
X157500000Y-117499873D02*
X139075000Y-117499873D01*
X183500000Y-141999873D02*
X179613604Y-141999873D01*
X177250000Y-132045457D02*
X175500000Y-130295457D01*
X177250000Y-139636269D02*
X177250000Y-132045457D01*
X175500000Y-130295457D02*
X175500000Y-129249873D01*
X167750000Y-127749873D02*
X157500000Y-117499873D01*
X179613604Y-141999873D02*
X177250000Y-139636269D01*
X174000000Y-127749873D02*
X167750000Y-127749873D01*
X175500000Y-129249873D02*
X174000000Y-127749873D01*
%TO.N,/powerLED*%
X179977208Y-140999873D02*
X178250000Y-139272665D01*
X178250000Y-139272665D02*
X178250000Y-131772665D01*
X158000000Y-116499873D02*
X139075000Y-116499873D01*
X183500000Y-140999873D02*
X179977208Y-140999873D01*
X176400000Y-129922665D02*
X176400000Y-128877081D01*
X174272792Y-126749873D02*
X168250000Y-126749873D01*
X176400000Y-128877081D02*
X174272792Y-126749873D01*
X178250000Y-131772665D02*
X176400000Y-129922665D01*
X168250000Y-126749873D02*
X158000000Y-116499873D01*
%TO.N,/keyPower*%
X180250000Y-139999873D02*
X179250000Y-138999873D01*
X168750000Y-125749873D02*
X175000000Y-125749873D01*
X158500000Y-115499873D02*
X168750000Y-125749873D01*
X177500000Y-128999873D02*
X178250000Y-129749873D01*
X179250000Y-138999873D02*
X179250000Y-130749873D01*
X183500000Y-139999873D02*
X180250000Y-139999873D01*
X139075000Y-115499873D02*
X158500000Y-115499873D01*
X175000000Y-125749873D02*
X177500000Y-128249873D01*
X179250000Y-130749873D02*
X178250000Y-129749873D01*
X177500000Y-128249873D02*
X177500000Y-128999873D01*
%TO.N,/chargeLED*%
X177750000Y-139499873D02*
X179750000Y-141499873D01*
X174136396Y-127249873D02*
X175950000Y-129063477D01*
X175950000Y-130109061D02*
X177750000Y-131909061D01*
X177750000Y-131909061D02*
X177750000Y-139499873D01*
X157863604Y-116999873D02*
X168113604Y-127249873D01*
X179750000Y-141499873D02*
X183500000Y-141499873D01*
X175950000Y-129063477D02*
X175950000Y-130109061D01*
X168113604Y-127249873D02*
X174136396Y-127249873D01*
X139075000Y-116999873D02*
X157863604Y-116999873D01*
%TD*%
%TA.AperFunction,Conductor*%
%TO.N,/gnd*%
G36*
X162381214Y-123269685D02*
G01*
X162401856Y-123286319D01*
X164963681Y-125848144D01*
X164997166Y-125909467D01*
X165000000Y-125935825D01*
X165000000Y-128625873D01*
X164980315Y-128692912D01*
X164927511Y-128738667D01*
X164876000Y-128749873D01*
X120225184Y-128749873D01*
X110000000Y-128749873D01*
X105976652Y-129822834D01*
X102905952Y-130641739D01*
X102836104Y-130639993D01*
X102778288Y-130600763D01*
X102750860Y-130536502D01*
X102750000Y-130521926D01*
X102750000Y-129776641D01*
X103718291Y-129776641D01*
X103764484Y-129822834D01*
X104320920Y-129669334D01*
X104073259Y-129421673D01*
X103718291Y-129776641D01*
X102750000Y-129776641D01*
X102750000Y-129416654D01*
X103374000Y-129416654D01*
X103721120Y-129069534D01*
X104425397Y-129069534D01*
X104780365Y-129424502D01*
X105135334Y-129069534D01*
X105839611Y-129069534D01*
X105981359Y-129211282D01*
X106537795Y-129057782D01*
X106194579Y-128714566D01*
X105839611Y-129069534D01*
X105135334Y-129069534D01*
X104780365Y-128714565D01*
X104425397Y-129069534D01*
X103721120Y-129069534D01*
X103374000Y-128722414D01*
X103374000Y-129416654D01*
X102750000Y-129416654D01*
X102750000Y-128362428D01*
X103718291Y-128362428D01*
X104073259Y-128717396D01*
X104428227Y-128362428D01*
X105132504Y-128362428D01*
X105487472Y-128717396D01*
X105842440Y-128362428D01*
X106546718Y-128362428D01*
X106901686Y-128717396D01*
X107256654Y-128362428D01*
X107960931Y-128362428D01*
X108198233Y-128599730D01*
X108523211Y-128510081D01*
X108670867Y-128362427D01*
X108550224Y-128241784D01*
X109495788Y-128241784D01*
X109863108Y-128140455D01*
X109848653Y-128126000D01*
X111025787Y-128126000D01*
X111262867Y-128126000D01*
X112440000Y-128126000D01*
X112677080Y-128126000D01*
X113854214Y-128126000D01*
X114091294Y-128126000D01*
X115268427Y-128126000D01*
X115505507Y-128126000D01*
X116682641Y-128126000D01*
X116919721Y-128126000D01*
X118096854Y-128126000D01*
X118333934Y-128126000D01*
X119511068Y-128126000D01*
X119748148Y-128126000D01*
X120925281Y-128126000D01*
X121162361Y-128126000D01*
X122339495Y-128126000D01*
X122576575Y-128126000D01*
X123753709Y-128126000D01*
X123990789Y-128126000D01*
X125167922Y-128126000D01*
X125405002Y-128126000D01*
X126582136Y-128126000D01*
X126819216Y-128126000D01*
X127996349Y-128126000D01*
X128233429Y-128126000D01*
X129410563Y-128126000D01*
X129647643Y-128126000D01*
X130824776Y-128126000D01*
X131061856Y-128126000D01*
X132238990Y-128126000D01*
X132476070Y-128126000D01*
X133653204Y-128126000D01*
X133890284Y-128126000D01*
X135067417Y-128126000D01*
X135304497Y-128126000D01*
X136481631Y-128126000D01*
X136718711Y-128126000D01*
X137895844Y-128126000D01*
X138132924Y-128126000D01*
X139310058Y-128126000D01*
X139547138Y-128126000D01*
X140724271Y-128126000D01*
X140961351Y-128126000D01*
X142138485Y-128126000D01*
X142375565Y-128126000D01*
X143552698Y-128126000D01*
X143789778Y-128126000D01*
X144966912Y-128126000D01*
X145203992Y-128126000D01*
X146381126Y-128126000D01*
X146618206Y-128126000D01*
X147795339Y-128126000D01*
X148032419Y-128126000D01*
X149209553Y-128126000D01*
X149446633Y-128126000D01*
X150623766Y-128126000D01*
X150860846Y-128126000D01*
X152037980Y-128126000D01*
X152275060Y-128126000D01*
X153452193Y-128126000D01*
X153689273Y-128126000D01*
X154866407Y-128126000D01*
X155103487Y-128126000D01*
X156280621Y-128126000D01*
X156517701Y-128126000D01*
X157694834Y-128126000D01*
X157931914Y-128126000D01*
X159109048Y-128126000D01*
X159346128Y-128126000D01*
X160523261Y-128126000D01*
X160760341Y-128126000D01*
X161937475Y-128126000D01*
X162174555Y-128126000D01*
X163351688Y-128126000D01*
X163588768Y-128126000D01*
X163470228Y-128007460D01*
X163351688Y-128126000D01*
X162174555Y-128126000D01*
X162056015Y-128007460D01*
X161937475Y-128126000D01*
X160760341Y-128126000D01*
X160641801Y-128007460D01*
X160523261Y-128126000D01*
X159346128Y-128126000D01*
X159227588Y-128007460D01*
X159109048Y-128126000D01*
X157931914Y-128126000D01*
X157813374Y-128007460D01*
X157694834Y-128126000D01*
X156517701Y-128126000D01*
X156399160Y-128007459D01*
X156280621Y-128126000D01*
X155103487Y-128126000D01*
X154984947Y-128007460D01*
X154866407Y-128126000D01*
X153689273Y-128126000D01*
X153570733Y-128007459D01*
X153452193Y-128126000D01*
X152275060Y-128126000D01*
X152156520Y-128007460D01*
X152037980Y-128126000D01*
X150860846Y-128126000D01*
X150742306Y-128007460D01*
X150623766Y-128126000D01*
X149446633Y-128126000D01*
X149328093Y-128007460D01*
X149209553Y-128126000D01*
X148032419Y-128126000D01*
X147913879Y-128007460D01*
X147795339Y-128126000D01*
X146618206Y-128126000D01*
X146499666Y-128007460D01*
X146381126Y-128126000D01*
X145203992Y-128126000D01*
X145085452Y-128007460D01*
X144966912Y-128126000D01*
X143789778Y-128126000D01*
X143671238Y-128007459D01*
X143552698Y-128126000D01*
X142375565Y-128126000D01*
X142257025Y-128007460D01*
X142138485Y-128126000D01*
X140961351Y-128126000D01*
X140842811Y-128007460D01*
X140724271Y-128126000D01*
X139547138Y-128126000D01*
X139428598Y-128007460D01*
X139310058Y-128126000D01*
X138132924Y-128126000D01*
X138014384Y-128007460D01*
X137895844Y-128126000D01*
X136718711Y-128126000D01*
X136600171Y-128007460D01*
X136481631Y-128126000D01*
X135304497Y-128126000D01*
X135185957Y-128007460D01*
X135067417Y-128126000D01*
X133890284Y-128126000D01*
X133771743Y-128007459D01*
X133653204Y-128126000D01*
X132476070Y-128126000D01*
X132357530Y-128007460D01*
X132238990Y-128126000D01*
X131061856Y-128126000D01*
X130943316Y-128007459D01*
X130824776Y-128126000D01*
X129647643Y-128126000D01*
X129529103Y-128007460D01*
X129410563Y-128126000D01*
X128233429Y-128126000D01*
X128114889Y-128007460D01*
X127996349Y-128126000D01*
X126819216Y-128126000D01*
X126700676Y-128007460D01*
X126582136Y-128126000D01*
X125405002Y-128126000D01*
X125286462Y-128007460D01*
X125167922Y-128126000D01*
X123990789Y-128126000D01*
X123872249Y-128007460D01*
X123753709Y-128126000D01*
X122576575Y-128126000D01*
X122458035Y-128007460D01*
X122339495Y-128126000D01*
X121162361Y-128126000D01*
X121043821Y-128007459D01*
X120925281Y-128126000D01*
X119748148Y-128126000D01*
X119629608Y-128007460D01*
X119511068Y-128126000D01*
X118333934Y-128126000D01*
X118215394Y-128007460D01*
X118096854Y-128126000D01*
X116919721Y-128126000D01*
X116801181Y-128007460D01*
X116682641Y-128126000D01*
X115505507Y-128126000D01*
X115386967Y-128007460D01*
X115268427Y-128126000D01*
X114091294Y-128126000D01*
X113972754Y-128007460D01*
X113854214Y-128126000D01*
X112677080Y-128126000D01*
X112558540Y-128007460D01*
X112440000Y-128126000D01*
X111262867Y-128126000D01*
X111144326Y-128007459D01*
X111025787Y-128126000D01*
X109848653Y-128126000D01*
X109730113Y-128007460D01*
X109495788Y-128241784D01*
X108550224Y-128241784D01*
X108315899Y-128007459D01*
X107960931Y-128362428D01*
X107256654Y-128362428D01*
X106901686Y-128007460D01*
X106546718Y-128362428D01*
X105842440Y-128362428D01*
X105487472Y-128007460D01*
X105132504Y-128362428D01*
X104428227Y-128362428D01*
X104073259Y-128007460D01*
X103718291Y-128362428D01*
X102750000Y-128362428D01*
X102750000Y-128002441D01*
X103374000Y-128002441D01*
X103721120Y-127655321D01*
X104425397Y-127655321D01*
X104780365Y-128010289D01*
X105135334Y-127655321D01*
X105839611Y-127655321D01*
X106194579Y-128010289D01*
X106549547Y-127655321D01*
X107253825Y-127655321D01*
X107608793Y-128010289D01*
X107963761Y-127655321D01*
X108668038Y-127655321D01*
X109023006Y-128010289D01*
X109377974Y-127655321D01*
X110082252Y-127655321D01*
X110437220Y-128010289D01*
X110792188Y-127655321D01*
X111496465Y-127655321D01*
X111851433Y-128010289D01*
X112206401Y-127655321D01*
X112910679Y-127655321D01*
X113265647Y-128010289D01*
X113620615Y-127655321D01*
X114324892Y-127655321D01*
X114679860Y-128010289D01*
X115034828Y-127655321D01*
X115739106Y-127655321D01*
X116094074Y-128010289D01*
X116449042Y-127655321D01*
X117153320Y-127655321D01*
X117508288Y-128010289D01*
X117863256Y-127655321D01*
X118567533Y-127655321D01*
X118922501Y-128010289D01*
X119277469Y-127655321D01*
X119981747Y-127655321D01*
X120336715Y-128010289D01*
X120691683Y-127655321D01*
X121395960Y-127655321D01*
X121750928Y-128010289D01*
X122105896Y-127655321D01*
X122810174Y-127655321D01*
X123165142Y-128010289D01*
X123520110Y-127655321D01*
X124224387Y-127655321D01*
X124579355Y-128010289D01*
X124934323Y-127655321D01*
X125638601Y-127655321D01*
X125993569Y-128010289D01*
X126348537Y-127655321D01*
X127052814Y-127655321D01*
X127407782Y-128010289D01*
X127762751Y-127655321D01*
X128467028Y-127655321D01*
X128821996Y-128010289D01*
X129176964Y-127655321D01*
X129881242Y-127655321D01*
X130236210Y-128010289D01*
X130591178Y-127655321D01*
X131295455Y-127655321D01*
X131650423Y-128010289D01*
X132005391Y-127655321D01*
X132709669Y-127655321D01*
X133064637Y-128010289D01*
X133419605Y-127655321D01*
X134123882Y-127655321D01*
X134478850Y-128010289D01*
X134833818Y-127655321D01*
X135538096Y-127655321D01*
X135893064Y-128010289D01*
X136248032Y-127655321D01*
X136952309Y-127655321D01*
X137307277Y-128010289D01*
X137662245Y-127655321D01*
X138366523Y-127655321D01*
X138721491Y-128010289D01*
X139076459Y-127655321D01*
X139780737Y-127655321D01*
X140135705Y-128010289D01*
X140490673Y-127655321D01*
X141194950Y-127655321D01*
X141549918Y-128010289D01*
X141904886Y-127655321D01*
X142609164Y-127655321D01*
X142964132Y-128010289D01*
X143319100Y-127655321D01*
X144023377Y-127655321D01*
X144378345Y-128010289D01*
X144733313Y-127655321D01*
X145437591Y-127655321D01*
X145792559Y-128010289D01*
X146147527Y-127655321D01*
X146851804Y-127655321D01*
X147206772Y-128010289D01*
X147561740Y-127655321D01*
X148266018Y-127655321D01*
X148620986Y-128010289D01*
X148975954Y-127655321D01*
X149680231Y-127655321D01*
X150035199Y-128010289D01*
X150390168Y-127655321D01*
X151094445Y-127655321D01*
X151449413Y-128010289D01*
X151804381Y-127655321D01*
X152508659Y-127655321D01*
X152863627Y-128010289D01*
X153218595Y-127655321D01*
X153922872Y-127655321D01*
X154277840Y-128010289D01*
X154632808Y-127655321D01*
X155337086Y-127655321D01*
X155692054Y-128010289D01*
X156047022Y-127655321D01*
X156751299Y-127655321D01*
X157106267Y-128010289D01*
X157461235Y-127655321D01*
X158165513Y-127655321D01*
X158520481Y-128010289D01*
X158875449Y-127655321D01*
X159579726Y-127655321D01*
X159934694Y-128010289D01*
X160289662Y-127655321D01*
X160993940Y-127655321D01*
X161348908Y-128010289D01*
X161703876Y-127655321D01*
X162408153Y-127655321D01*
X162763121Y-128010289D01*
X163118090Y-127655321D01*
X163822367Y-127655321D01*
X164177335Y-128010289D01*
X164376000Y-127811624D01*
X164376000Y-127499018D01*
X164177335Y-127300353D01*
X163822367Y-127655321D01*
X163118090Y-127655321D01*
X162763121Y-127300352D01*
X162408153Y-127655321D01*
X161703876Y-127655321D01*
X161348908Y-127300353D01*
X160993940Y-127655321D01*
X160289662Y-127655321D01*
X159934694Y-127300352D01*
X159579726Y-127655321D01*
X158875449Y-127655321D01*
X158520481Y-127300353D01*
X158165513Y-127655321D01*
X157461235Y-127655321D01*
X157106267Y-127300353D01*
X156751299Y-127655321D01*
X156047022Y-127655321D01*
X155692054Y-127300353D01*
X155337086Y-127655321D01*
X154632808Y-127655321D01*
X154277840Y-127300353D01*
X153922872Y-127655321D01*
X153218595Y-127655321D01*
X152863627Y-127300353D01*
X152508659Y-127655321D01*
X151804381Y-127655321D01*
X151449413Y-127300353D01*
X151094445Y-127655321D01*
X150390168Y-127655321D01*
X150035199Y-127300352D01*
X149680231Y-127655321D01*
X148975954Y-127655321D01*
X148620986Y-127300353D01*
X148266018Y-127655321D01*
X147561740Y-127655321D01*
X147206772Y-127300353D01*
X146851804Y-127655321D01*
X146147527Y-127655321D01*
X145792559Y-127300353D01*
X145437591Y-127655321D01*
X144733313Y-127655321D01*
X144378345Y-127300353D01*
X144023377Y-127655321D01*
X143319100Y-127655321D01*
X142964132Y-127300353D01*
X142609164Y-127655321D01*
X141904886Y-127655321D01*
X141549918Y-127300353D01*
X141194950Y-127655321D01*
X140490673Y-127655321D01*
X140135705Y-127300353D01*
X139780737Y-127655321D01*
X139076459Y-127655321D01*
X138721491Y-127300353D01*
X138366523Y-127655321D01*
X137662245Y-127655321D01*
X137307277Y-127300352D01*
X136952309Y-127655321D01*
X136248032Y-127655321D01*
X135893064Y-127300353D01*
X135538096Y-127655321D01*
X134833818Y-127655321D01*
X134478850Y-127300353D01*
X134123882Y-127655321D01*
X133419605Y-127655321D01*
X133064637Y-127300353D01*
X132709669Y-127655321D01*
X132005391Y-127655321D01*
X131650423Y-127300353D01*
X131295455Y-127655321D01*
X130591178Y-127655321D01*
X130236210Y-127300353D01*
X129881242Y-127655321D01*
X129176964Y-127655321D01*
X128821996Y-127300353D01*
X128467028Y-127655321D01*
X127762751Y-127655321D01*
X127407782Y-127300352D01*
X127052814Y-127655321D01*
X126348537Y-127655321D01*
X125993569Y-127300353D01*
X125638601Y-127655321D01*
X124934323Y-127655321D01*
X124579355Y-127300353D01*
X124224387Y-127655321D01*
X123520110Y-127655321D01*
X123165142Y-127300353D01*
X122810174Y-127655321D01*
X122105896Y-127655321D01*
X121750928Y-127300353D01*
X121395960Y-127655321D01*
X120691683Y-127655321D01*
X120336715Y-127300353D01*
X119981747Y-127655321D01*
X119277469Y-127655321D01*
X118922501Y-127300353D01*
X118567533Y-127655321D01*
X117863256Y-127655321D01*
X117508288Y-127300353D01*
X117153320Y-127655321D01*
X116449042Y-127655321D01*
X116094074Y-127300353D01*
X115739106Y-127655321D01*
X115034828Y-127655321D01*
X114679860Y-127300352D01*
X114324892Y-127655321D01*
X113620615Y-127655321D01*
X113265647Y-127300353D01*
X112910679Y-127655321D01*
X112206401Y-127655321D01*
X111851433Y-127300353D01*
X111496465Y-127655321D01*
X110792188Y-127655321D01*
X110437220Y-127300353D01*
X110082252Y-127655321D01*
X109377974Y-127655321D01*
X109023006Y-127300353D01*
X108668038Y-127655321D01*
X107963761Y-127655321D01*
X107608793Y-127300353D01*
X107253825Y-127655321D01*
X106549547Y-127655321D01*
X106194579Y-127300353D01*
X105839611Y-127655321D01*
X105135334Y-127655321D01*
X104780365Y-127300352D01*
X104425397Y-127655321D01*
X103721120Y-127655321D01*
X103374000Y-127308201D01*
X103374000Y-128002441D01*
X102750000Y-128002441D01*
X102750000Y-126948214D01*
X103718291Y-126948214D01*
X104073259Y-127303182D01*
X104428227Y-126948214D01*
X105132504Y-126948214D01*
X105487472Y-127303182D01*
X105842440Y-126948214D01*
X106546718Y-126948214D01*
X106901686Y-127303182D01*
X107256654Y-126948214D01*
X107960931Y-126948214D01*
X108315899Y-127303182D01*
X108670867Y-126948214D01*
X109375145Y-126948214D01*
X109730113Y-127303182D01*
X110085081Y-126948214D01*
X110789358Y-126948214D01*
X111144326Y-127303182D01*
X111499295Y-126948214D01*
X112203572Y-126948214D01*
X112558540Y-127303182D01*
X112913508Y-126948214D01*
X113617786Y-126948214D01*
X113972754Y-127303182D01*
X114327722Y-126948214D01*
X115031999Y-126948214D01*
X115386967Y-127303182D01*
X115741935Y-126948214D01*
X116446213Y-126948214D01*
X116801181Y-127303182D01*
X117156149Y-126948214D01*
X117860426Y-126948214D01*
X118215394Y-127303182D01*
X118570362Y-126948214D01*
X119274640Y-126948214D01*
X119629608Y-127303182D01*
X119984576Y-126948214D01*
X120688853Y-126948214D01*
X121043821Y-127303182D01*
X121398789Y-126948214D01*
X122103067Y-126948214D01*
X122458035Y-127303182D01*
X122813003Y-126948214D01*
X123517281Y-126948214D01*
X123872249Y-127303182D01*
X124227217Y-126948214D01*
X124931494Y-126948214D01*
X125286462Y-127303182D01*
X125641430Y-126948214D01*
X126345708Y-126948214D01*
X126700676Y-127303182D01*
X127055644Y-126948214D01*
X127759921Y-126948214D01*
X128114889Y-127303182D01*
X128469857Y-126948214D01*
X129174135Y-126948214D01*
X129529103Y-127303182D01*
X129884071Y-126948214D01*
X130588348Y-126948214D01*
X130943316Y-127303182D01*
X131298284Y-126948214D01*
X132002562Y-126948214D01*
X132357530Y-127303182D01*
X132712498Y-126948214D01*
X133416775Y-126948214D01*
X133771743Y-127303182D01*
X134126712Y-126948214D01*
X134830989Y-126948214D01*
X135185957Y-127303182D01*
X135540925Y-126948214D01*
X136245203Y-126948214D01*
X136600171Y-127303182D01*
X136955139Y-126948214D01*
X137659416Y-126948214D01*
X138014384Y-127303182D01*
X138369352Y-126948214D01*
X139073630Y-126948214D01*
X139428598Y-127303182D01*
X139783566Y-126948214D01*
X140487843Y-126948214D01*
X140842811Y-127303182D01*
X141197779Y-126948214D01*
X141902057Y-126948214D01*
X142257025Y-127303182D01*
X142611993Y-126948214D01*
X143316270Y-126948214D01*
X143671238Y-127303182D01*
X144026206Y-126948214D01*
X144730484Y-126948214D01*
X145085452Y-127303182D01*
X145440420Y-126948214D01*
X146144698Y-126948214D01*
X146499666Y-127303182D01*
X146854634Y-126948214D01*
X147558911Y-126948214D01*
X147913879Y-127303182D01*
X148268847Y-126948214D01*
X148973125Y-126948214D01*
X149328093Y-127303182D01*
X149683061Y-126948214D01*
X150387338Y-126948214D01*
X150742306Y-127303182D01*
X151097274Y-126948214D01*
X151801552Y-126948214D01*
X152156520Y-127303182D01*
X152511488Y-126948214D01*
X153215765Y-126948214D01*
X153570733Y-127303182D01*
X153925701Y-126948214D01*
X154629979Y-126948214D01*
X154984947Y-127303182D01*
X155339915Y-126948214D01*
X156044192Y-126948214D01*
X156399160Y-127303182D01*
X156754129Y-126948214D01*
X157458406Y-126948214D01*
X157813374Y-127303182D01*
X158168342Y-126948214D01*
X158872620Y-126948214D01*
X159227588Y-127303182D01*
X159582556Y-126948214D01*
X160286833Y-126948214D01*
X160641801Y-127303182D01*
X160996769Y-126948214D01*
X161701047Y-126948214D01*
X162056015Y-127303182D01*
X162410983Y-126948214D01*
X163115260Y-126948214D01*
X163470228Y-127303182D01*
X163825196Y-126948214D01*
X163470228Y-126593246D01*
X163115260Y-126948214D01*
X162410983Y-126948214D01*
X162056015Y-126593246D01*
X161701047Y-126948214D01*
X160996769Y-126948214D01*
X160641801Y-126593246D01*
X160286833Y-126948214D01*
X159582556Y-126948214D01*
X159227588Y-126593246D01*
X158872620Y-126948214D01*
X158168342Y-126948214D01*
X157813374Y-126593246D01*
X157458406Y-126948214D01*
X156754129Y-126948214D01*
X156399160Y-126593245D01*
X156044192Y-126948214D01*
X155339915Y-126948214D01*
X154984947Y-126593246D01*
X154629979Y-126948214D01*
X153925701Y-126948214D01*
X153570733Y-126593245D01*
X153215765Y-126948214D01*
X152511488Y-126948214D01*
X152156520Y-126593246D01*
X151801552Y-126948214D01*
X151097274Y-126948214D01*
X150742306Y-126593246D01*
X150387338Y-126948214D01*
X149683061Y-126948214D01*
X149328093Y-126593246D01*
X148973125Y-126948214D01*
X148268847Y-126948214D01*
X147913879Y-126593246D01*
X147558911Y-126948214D01*
X146854634Y-126948214D01*
X146499666Y-126593246D01*
X146144698Y-126948214D01*
X145440420Y-126948214D01*
X145085452Y-126593246D01*
X144730484Y-126948214D01*
X144026206Y-126948214D01*
X143671238Y-126593245D01*
X143316270Y-126948214D01*
X142611993Y-126948214D01*
X142257025Y-126593246D01*
X141902057Y-126948214D01*
X141197779Y-126948214D01*
X140842811Y-126593246D01*
X140487843Y-126948214D01*
X139783566Y-126948214D01*
X139428598Y-126593246D01*
X139073630Y-126948214D01*
X138369352Y-126948214D01*
X138014384Y-126593246D01*
X137659416Y-126948214D01*
X136955139Y-126948214D01*
X136600171Y-126593246D01*
X136245203Y-126948214D01*
X135540925Y-126948214D01*
X135185957Y-126593246D01*
X134830989Y-126948214D01*
X134126712Y-126948214D01*
X133771743Y-126593245D01*
X133416775Y-126948214D01*
X132712498Y-126948214D01*
X132357530Y-126593246D01*
X132002562Y-126948214D01*
X131298284Y-126948214D01*
X130943316Y-126593245D01*
X130588348Y-126948214D01*
X129884071Y-126948214D01*
X129529103Y-126593246D01*
X129174135Y-126948214D01*
X128469857Y-126948214D01*
X128114889Y-126593246D01*
X127759921Y-126948214D01*
X127055644Y-126948214D01*
X126700676Y-126593246D01*
X126345708Y-126948214D01*
X125641430Y-126948214D01*
X125286462Y-126593246D01*
X124931494Y-126948214D01*
X124227217Y-126948214D01*
X123872249Y-126593246D01*
X123517281Y-126948214D01*
X122813003Y-126948214D01*
X122458035Y-126593246D01*
X122103067Y-126948214D01*
X121398789Y-126948214D01*
X121043821Y-126593245D01*
X120688853Y-126948214D01*
X119984576Y-126948214D01*
X119629608Y-126593246D01*
X119274640Y-126948214D01*
X118570362Y-126948214D01*
X118215394Y-126593246D01*
X117860426Y-126948214D01*
X117156149Y-126948214D01*
X116801181Y-126593246D01*
X116446213Y-126948214D01*
X115741935Y-126948214D01*
X115386967Y-126593246D01*
X115031999Y-126948214D01*
X114327722Y-126948214D01*
X113972754Y-126593246D01*
X113617786Y-126948214D01*
X112913508Y-126948214D01*
X112558540Y-126593246D01*
X112203572Y-126948214D01*
X111499295Y-126948214D01*
X111144326Y-126593245D01*
X110789358Y-126948214D01*
X110085081Y-126948214D01*
X109730113Y-126593246D01*
X109375145Y-126948214D01*
X108670867Y-126948214D01*
X108315899Y-126593245D01*
X107960931Y-126948214D01*
X107256654Y-126948214D01*
X106901686Y-126593246D01*
X106546718Y-126948214D01*
X105842440Y-126948214D01*
X105487472Y-126593246D01*
X105132504Y-126948214D01*
X104428227Y-126948214D01*
X104073259Y-126593246D01*
X103718291Y-126948214D01*
X102750000Y-126948214D01*
X102750000Y-126588227D01*
X103374000Y-126588227D01*
X103721120Y-126241107D01*
X104425397Y-126241107D01*
X104780365Y-126596075D01*
X105135334Y-126241107D01*
X105839611Y-126241107D01*
X106194579Y-126596075D01*
X106549547Y-126241107D01*
X107253825Y-126241107D01*
X107608793Y-126596075D01*
X107963761Y-126241107D01*
X108668038Y-126241107D01*
X109023006Y-126596075D01*
X109377974Y-126241107D01*
X110082252Y-126241107D01*
X110437220Y-126596075D01*
X110792188Y-126241107D01*
X111496465Y-126241107D01*
X111851433Y-126596075D01*
X112206401Y-126241107D01*
X112910679Y-126241107D01*
X113265647Y-126596075D01*
X113620615Y-126241107D01*
X114324892Y-126241107D01*
X114679860Y-126596075D01*
X115034828Y-126241107D01*
X115739106Y-126241107D01*
X116094074Y-126596075D01*
X116449042Y-126241107D01*
X117153320Y-126241107D01*
X117508288Y-126596075D01*
X117863256Y-126241107D01*
X118567533Y-126241107D01*
X118922501Y-126596075D01*
X119277469Y-126241107D01*
X119981747Y-126241107D01*
X120336715Y-126596075D01*
X120691683Y-126241107D01*
X121395960Y-126241107D01*
X121750928Y-126596075D01*
X122105896Y-126241107D01*
X122810174Y-126241107D01*
X123165142Y-126596075D01*
X123520110Y-126241107D01*
X124224387Y-126241107D01*
X124579355Y-126596075D01*
X124934323Y-126241107D01*
X125638601Y-126241107D01*
X125993569Y-126596075D01*
X126348537Y-126241107D01*
X127052814Y-126241107D01*
X127407782Y-126596075D01*
X127762751Y-126241107D01*
X128467028Y-126241107D01*
X128821996Y-126596075D01*
X129176964Y-126241107D01*
X129881242Y-126241107D01*
X130236210Y-126596075D01*
X130591178Y-126241107D01*
X131295455Y-126241107D01*
X131650423Y-126596075D01*
X132005391Y-126241107D01*
X132709669Y-126241107D01*
X133064637Y-126596075D01*
X133419605Y-126241107D01*
X134123882Y-126241107D01*
X134478850Y-126596075D01*
X134833818Y-126241107D01*
X135538096Y-126241107D01*
X135893064Y-126596075D01*
X136248032Y-126241107D01*
X136952309Y-126241107D01*
X137307277Y-126596075D01*
X137662245Y-126241107D01*
X138366523Y-126241107D01*
X138721491Y-126596075D01*
X139076459Y-126241107D01*
X139780737Y-126241107D01*
X140135705Y-126596075D01*
X140490673Y-126241107D01*
X141194950Y-126241107D01*
X141549918Y-126596075D01*
X141904886Y-126241107D01*
X142609164Y-126241107D01*
X142964132Y-126596075D01*
X143319100Y-126241107D01*
X144023377Y-126241107D01*
X144378345Y-126596075D01*
X144733313Y-126241107D01*
X145437591Y-126241107D01*
X145792559Y-126596075D01*
X146147527Y-126241107D01*
X146851804Y-126241107D01*
X147206772Y-126596075D01*
X147561740Y-126241107D01*
X148266018Y-126241107D01*
X148620986Y-126596075D01*
X148975954Y-126241107D01*
X149680231Y-126241107D01*
X150035199Y-126596075D01*
X150390168Y-126241107D01*
X151094445Y-126241107D01*
X151449413Y-126596075D01*
X151804381Y-126241107D01*
X152508659Y-126241107D01*
X152863627Y-126596075D01*
X153218595Y-126241107D01*
X153922872Y-126241107D01*
X154277840Y-126596075D01*
X154632808Y-126241107D01*
X155337086Y-126241107D01*
X155692054Y-126596075D01*
X156047022Y-126241107D01*
X156751299Y-126241107D01*
X157106267Y-126596075D01*
X157461235Y-126241107D01*
X158165513Y-126241107D01*
X158520481Y-126596075D01*
X158875449Y-126241107D01*
X159579726Y-126241107D01*
X159934694Y-126596075D01*
X160289662Y-126241107D01*
X160993940Y-126241107D01*
X161348908Y-126596075D01*
X161703876Y-126241107D01*
X162408153Y-126241107D01*
X162763121Y-126596075D01*
X163118090Y-126241107D01*
X163822367Y-126241107D01*
X164177335Y-126596075D01*
X164376000Y-126397410D01*
X164376000Y-126084804D01*
X164177335Y-125886139D01*
X163822367Y-126241107D01*
X163118090Y-126241107D01*
X162763121Y-125886138D01*
X162408153Y-126241107D01*
X161703876Y-126241107D01*
X161348908Y-125886139D01*
X160993940Y-126241107D01*
X160289662Y-126241107D01*
X159934694Y-125886138D01*
X159579726Y-126241107D01*
X158875449Y-126241107D01*
X158520481Y-125886139D01*
X158165513Y-126241107D01*
X157461235Y-126241107D01*
X157106267Y-125886139D01*
X156751299Y-126241107D01*
X156047022Y-126241107D01*
X155692054Y-125886139D01*
X155337086Y-126241107D01*
X154632808Y-126241107D01*
X154277840Y-125886139D01*
X153922872Y-126241107D01*
X153218595Y-126241107D01*
X152863627Y-125886139D01*
X152508659Y-126241107D01*
X151804381Y-126241107D01*
X151449413Y-125886139D01*
X151094445Y-126241107D01*
X150390168Y-126241107D01*
X150035199Y-125886138D01*
X149680231Y-126241107D01*
X148975954Y-126241107D01*
X148620986Y-125886139D01*
X148266018Y-126241107D01*
X147561740Y-126241107D01*
X147206772Y-125886139D01*
X146851804Y-126241107D01*
X146147527Y-126241107D01*
X145792559Y-125886139D01*
X145437591Y-126241107D01*
X144733313Y-126241107D01*
X144378345Y-125886139D01*
X144023377Y-126241107D01*
X143319100Y-126241107D01*
X142964132Y-125886139D01*
X142609164Y-126241107D01*
X141904886Y-126241107D01*
X141549918Y-125886139D01*
X141194950Y-126241107D01*
X140490673Y-126241107D01*
X140135705Y-125886139D01*
X139780737Y-126241107D01*
X139076459Y-126241107D01*
X138721491Y-125886139D01*
X138366523Y-126241107D01*
X137662245Y-126241107D01*
X137307277Y-125886138D01*
X136952309Y-126241107D01*
X136248032Y-126241107D01*
X135893064Y-125886139D01*
X135538096Y-126241107D01*
X134833818Y-126241107D01*
X134478850Y-125886139D01*
X134123882Y-126241107D01*
X133419605Y-126241107D01*
X133064637Y-125886139D01*
X132709669Y-126241107D01*
X132005391Y-126241107D01*
X131650423Y-125886139D01*
X131295455Y-126241107D01*
X130591178Y-126241107D01*
X130236210Y-125886139D01*
X129881242Y-126241107D01*
X129176964Y-126241107D01*
X128821996Y-125886139D01*
X128467028Y-126241107D01*
X127762751Y-126241107D01*
X127407782Y-125886138D01*
X127052814Y-126241107D01*
X126348537Y-126241107D01*
X125993569Y-125886139D01*
X125638601Y-126241107D01*
X124934323Y-126241107D01*
X124579355Y-125886139D01*
X124224387Y-126241107D01*
X123520110Y-126241107D01*
X123165142Y-125886139D01*
X122810174Y-126241107D01*
X122105896Y-126241107D01*
X121750928Y-125886139D01*
X121395960Y-126241107D01*
X120691683Y-126241107D01*
X120336715Y-125886139D01*
X119981747Y-126241107D01*
X119277469Y-126241107D01*
X118922501Y-125886139D01*
X118567533Y-126241107D01*
X117863256Y-126241107D01*
X117508288Y-125886139D01*
X117153320Y-126241107D01*
X116449042Y-126241107D01*
X116094074Y-125886139D01*
X115739106Y-126241107D01*
X115034828Y-126241107D01*
X114679860Y-125886138D01*
X114324892Y-126241107D01*
X113620615Y-126241107D01*
X113265647Y-125886139D01*
X112910679Y-126241107D01*
X112206401Y-126241107D01*
X111851433Y-125886139D01*
X111496465Y-126241107D01*
X110792188Y-126241107D01*
X110437220Y-125886139D01*
X110082252Y-126241107D01*
X109377974Y-126241107D01*
X109023006Y-125886139D01*
X108668038Y-126241107D01*
X107963761Y-126241107D01*
X107608793Y-125886139D01*
X107253825Y-126241107D01*
X106549547Y-126241107D01*
X106194579Y-125886139D01*
X105839611Y-126241107D01*
X105135334Y-126241107D01*
X104780365Y-125886138D01*
X104425397Y-126241107D01*
X103721120Y-126241107D01*
X103374000Y-125893987D01*
X103374000Y-126588227D01*
X102750000Y-126588227D01*
X102750000Y-125534000D01*
X103718290Y-125534000D01*
X104073259Y-125888968D01*
X104428227Y-125534000D01*
X105132503Y-125534000D01*
X105487472Y-125888968D01*
X105842440Y-125534000D01*
X106546717Y-125534000D01*
X106901686Y-125888968D01*
X107256654Y-125534000D01*
X107960930Y-125534000D01*
X108315899Y-125888968D01*
X108670867Y-125534000D01*
X109375144Y-125534000D01*
X109730113Y-125888968D01*
X110085081Y-125534000D01*
X110789358Y-125534000D01*
X111144326Y-125888968D01*
X111499295Y-125534000D01*
X112203571Y-125534000D01*
X112558540Y-125888968D01*
X112913508Y-125534000D01*
X113617785Y-125534000D01*
X113972754Y-125888968D01*
X114327722Y-125534000D01*
X115031998Y-125534000D01*
X115386967Y-125888968D01*
X115741935Y-125534000D01*
X116446212Y-125534000D01*
X116801181Y-125888968D01*
X117156149Y-125534000D01*
X117860425Y-125534000D01*
X118215394Y-125888968D01*
X118570362Y-125534000D01*
X119274639Y-125534000D01*
X119629608Y-125888968D01*
X119984576Y-125534000D01*
X120688852Y-125534000D01*
X121043821Y-125888968D01*
X121398789Y-125534000D01*
X122103066Y-125534000D01*
X122458035Y-125888968D01*
X122813003Y-125534000D01*
X123517280Y-125534000D01*
X123872249Y-125888968D01*
X124227217Y-125534000D01*
X124931493Y-125534000D01*
X125286462Y-125888968D01*
X125641430Y-125534000D01*
X126345707Y-125534000D01*
X126700676Y-125888968D01*
X127055644Y-125534000D01*
X127759920Y-125534000D01*
X128114889Y-125888968D01*
X128469857Y-125534000D01*
X129174134Y-125534000D01*
X129529103Y-125888968D01*
X129884071Y-125534000D01*
X130588347Y-125534000D01*
X130943316Y-125888968D01*
X131298284Y-125534000D01*
X132002561Y-125534000D01*
X132357530Y-125888968D01*
X132712498Y-125534000D01*
X133416775Y-125534000D01*
X133771743Y-125888968D01*
X134126712Y-125534000D01*
X134830988Y-125534000D01*
X135185957Y-125888968D01*
X135540925Y-125534000D01*
X136245202Y-125534000D01*
X136600171Y-125888968D01*
X136955139Y-125534000D01*
X137659415Y-125534000D01*
X138014384Y-125888968D01*
X138369352Y-125534000D01*
X139073629Y-125534000D01*
X139428598Y-125888968D01*
X139783566Y-125534000D01*
X140487842Y-125534000D01*
X140842811Y-125888968D01*
X141197779Y-125534000D01*
X141902056Y-125534000D01*
X142257025Y-125888968D01*
X142611993Y-125534000D01*
X143316269Y-125534000D01*
X143671238Y-125888968D01*
X144026206Y-125534000D01*
X144730483Y-125534000D01*
X145085452Y-125888968D01*
X145440420Y-125534000D01*
X146144697Y-125534000D01*
X146499666Y-125888968D01*
X146854634Y-125534000D01*
X147558910Y-125534000D01*
X147913879Y-125888968D01*
X148268847Y-125534000D01*
X148973124Y-125534000D01*
X149328093Y-125888968D01*
X149683061Y-125534000D01*
X150387337Y-125534000D01*
X150742306Y-125888968D01*
X151097274Y-125534000D01*
X151801551Y-125534000D01*
X152156520Y-125888968D01*
X152511488Y-125534000D01*
X153215764Y-125534000D01*
X153570733Y-125888968D01*
X153925701Y-125534000D01*
X154629978Y-125534000D01*
X154984947Y-125888968D01*
X155339915Y-125534000D01*
X156044192Y-125534000D01*
X156399160Y-125888968D01*
X156754129Y-125534000D01*
X157458405Y-125534000D01*
X157813374Y-125888968D01*
X158168342Y-125534000D01*
X158872619Y-125534000D01*
X159227588Y-125888968D01*
X159582556Y-125534000D01*
X160286832Y-125534000D01*
X160641801Y-125888968D01*
X160996769Y-125534000D01*
X161701046Y-125534000D01*
X162056015Y-125888968D01*
X162410983Y-125534000D01*
X163115259Y-125534000D01*
X163470228Y-125888968D01*
X163825196Y-125534000D01*
X163470228Y-125179032D01*
X163115259Y-125534000D01*
X162410983Y-125534000D01*
X162056015Y-125179032D01*
X161701046Y-125534000D01*
X160996769Y-125534000D01*
X160641801Y-125179032D01*
X160286832Y-125534000D01*
X159582556Y-125534000D01*
X159227588Y-125179032D01*
X158872619Y-125534000D01*
X158168342Y-125534000D01*
X157813374Y-125179032D01*
X157458405Y-125534000D01*
X156754129Y-125534000D01*
X156399160Y-125179031D01*
X156044192Y-125534000D01*
X155339915Y-125534000D01*
X154984947Y-125179032D01*
X154629978Y-125534000D01*
X153925701Y-125534000D01*
X153570733Y-125179031D01*
X153215764Y-125534000D01*
X152511488Y-125534000D01*
X152156520Y-125179032D01*
X151801551Y-125534000D01*
X151097274Y-125534000D01*
X150742306Y-125179032D01*
X150387337Y-125534000D01*
X149683061Y-125534000D01*
X149328093Y-125179032D01*
X148973124Y-125534000D01*
X148268847Y-125534000D01*
X147913879Y-125179032D01*
X147558910Y-125534000D01*
X146854634Y-125534000D01*
X146499666Y-125179032D01*
X146144697Y-125534000D01*
X145440420Y-125534000D01*
X145085452Y-125179032D01*
X144730483Y-125534000D01*
X144026206Y-125534000D01*
X143671238Y-125179031D01*
X143316269Y-125534000D01*
X142611993Y-125534000D01*
X142257025Y-125179032D01*
X141902056Y-125534000D01*
X141197779Y-125534000D01*
X140842811Y-125179032D01*
X140487842Y-125534000D01*
X139783566Y-125534000D01*
X139428598Y-125179032D01*
X139073629Y-125534000D01*
X138369352Y-125534000D01*
X138014384Y-125179032D01*
X137659415Y-125534000D01*
X136955139Y-125534000D01*
X136600171Y-125179032D01*
X136245202Y-125534000D01*
X135540925Y-125534000D01*
X135185957Y-125179032D01*
X134830988Y-125534000D01*
X134126712Y-125534000D01*
X133771743Y-125179031D01*
X133416775Y-125534000D01*
X132712498Y-125534000D01*
X132357530Y-125179032D01*
X132002561Y-125534000D01*
X131298284Y-125534000D01*
X130943316Y-125179031D01*
X130588347Y-125534000D01*
X129884071Y-125534000D01*
X129529103Y-125179032D01*
X129174134Y-125534000D01*
X128469857Y-125534000D01*
X128114889Y-125179032D01*
X127759920Y-125534000D01*
X127055644Y-125534000D01*
X126700676Y-125179032D01*
X126345707Y-125534000D01*
X125641430Y-125534000D01*
X125286462Y-125179032D01*
X124931493Y-125534000D01*
X124227217Y-125534000D01*
X123872249Y-125179032D01*
X123517280Y-125534000D01*
X122813003Y-125534000D01*
X122458035Y-125179032D01*
X122103066Y-125534000D01*
X121398789Y-125534000D01*
X121043821Y-125179031D01*
X120688852Y-125534000D01*
X119984576Y-125534000D01*
X119629608Y-125179032D01*
X119274639Y-125534000D01*
X118570362Y-125534000D01*
X118215394Y-125179032D01*
X117860425Y-125534000D01*
X117156149Y-125534000D01*
X116801181Y-125179032D01*
X116446212Y-125534000D01*
X115741935Y-125534000D01*
X115386967Y-125179032D01*
X115031998Y-125534000D01*
X114327722Y-125534000D01*
X113972754Y-125179032D01*
X113617785Y-125534000D01*
X112913508Y-125534000D01*
X112558540Y-125179032D01*
X112203571Y-125534000D01*
X111499295Y-125534000D01*
X111144326Y-125179031D01*
X110789358Y-125534000D01*
X110085081Y-125534000D01*
X109730113Y-125179032D01*
X109375144Y-125534000D01*
X108670867Y-125534000D01*
X108315899Y-125179031D01*
X107960930Y-125534000D01*
X107256654Y-125534000D01*
X106901686Y-125179032D01*
X106546717Y-125534000D01*
X105842440Y-125534000D01*
X105487472Y-125179032D01*
X105132503Y-125534000D01*
X104428227Y-125534000D01*
X104073259Y-125179032D01*
X103718290Y-125534000D01*
X102750000Y-125534000D01*
X102750000Y-125174014D01*
X103374000Y-125174014D01*
X103721120Y-124826894D01*
X104425397Y-124826894D01*
X104780365Y-125181862D01*
X105135334Y-124826894D01*
X105839611Y-124826894D01*
X106194579Y-125181862D01*
X106549547Y-124826894D01*
X107253825Y-124826894D01*
X107608793Y-125181862D01*
X107963761Y-124826894D01*
X108668038Y-124826894D01*
X109023006Y-125181862D01*
X109377974Y-124826894D01*
X110082252Y-124826894D01*
X110437220Y-125181862D01*
X110792188Y-124826894D01*
X111496465Y-124826894D01*
X111851433Y-125181862D01*
X112206401Y-124826894D01*
X112910679Y-124826894D01*
X113265647Y-125181862D01*
X113620615Y-124826894D01*
X114324892Y-124826894D01*
X114679860Y-125181862D01*
X115034828Y-124826894D01*
X115739106Y-124826894D01*
X116094074Y-125181862D01*
X116449042Y-124826894D01*
X117153320Y-124826894D01*
X117508288Y-125181862D01*
X117863256Y-124826894D01*
X118567533Y-124826894D01*
X118922501Y-125181862D01*
X119277469Y-124826894D01*
X119981747Y-124826894D01*
X120336715Y-125181862D01*
X120691683Y-124826894D01*
X121395960Y-124826894D01*
X121750928Y-125181862D01*
X122105896Y-124826894D01*
X122810174Y-124826894D01*
X123165142Y-125181862D01*
X123520110Y-124826894D01*
X124224387Y-124826894D01*
X124579355Y-125181862D01*
X124934323Y-124826894D01*
X125638601Y-124826894D01*
X125993569Y-125181862D01*
X126348537Y-124826894D01*
X127052814Y-124826894D01*
X127407782Y-125181862D01*
X127762751Y-124826894D01*
X128467028Y-124826894D01*
X128821996Y-125181862D01*
X129176964Y-124826894D01*
X129881242Y-124826894D01*
X130236210Y-125181862D01*
X130591178Y-124826894D01*
X131295455Y-124826894D01*
X131650423Y-125181862D01*
X132005391Y-124826894D01*
X132709669Y-124826894D01*
X133064637Y-125181862D01*
X133419605Y-124826894D01*
X134123882Y-124826894D01*
X134478850Y-125181862D01*
X134833818Y-124826894D01*
X135538096Y-124826894D01*
X135893064Y-125181862D01*
X136248032Y-124826894D01*
X136952309Y-124826894D01*
X137307277Y-125181862D01*
X137662245Y-124826894D01*
X138366523Y-124826894D01*
X138721491Y-125181862D01*
X139076459Y-124826894D01*
X139780737Y-124826894D01*
X140135705Y-125181862D01*
X140490673Y-124826894D01*
X141194950Y-124826894D01*
X141549918Y-125181862D01*
X141904886Y-124826894D01*
X142609164Y-124826894D01*
X142964132Y-125181862D01*
X143319100Y-124826894D01*
X144023377Y-124826894D01*
X144378345Y-125181862D01*
X144733313Y-124826894D01*
X145437591Y-124826894D01*
X145792559Y-125181862D01*
X146147527Y-124826894D01*
X146851804Y-124826894D01*
X147206772Y-125181862D01*
X147561740Y-124826894D01*
X148266018Y-124826894D01*
X148620986Y-125181862D01*
X148975954Y-124826894D01*
X149680231Y-124826894D01*
X150035199Y-125181862D01*
X150390168Y-124826894D01*
X151094445Y-124826894D01*
X151449413Y-125181862D01*
X151804381Y-124826894D01*
X152508659Y-124826894D01*
X152863627Y-125181862D01*
X153218595Y-124826894D01*
X153922872Y-124826894D01*
X154277840Y-125181862D01*
X154632808Y-124826894D01*
X155337086Y-124826894D01*
X155692054Y-125181862D01*
X156047022Y-124826894D01*
X156751299Y-124826894D01*
X157106267Y-125181862D01*
X157461235Y-124826894D01*
X158165513Y-124826894D01*
X158520481Y-125181862D01*
X158875449Y-124826894D01*
X159579726Y-124826894D01*
X159934694Y-125181862D01*
X160289662Y-124826894D01*
X160993940Y-124826894D01*
X161348908Y-125181862D01*
X161703876Y-124826894D01*
X162408153Y-124826894D01*
X162763121Y-125181862D01*
X163118090Y-124826894D01*
X162763121Y-124471925D01*
X162408153Y-124826894D01*
X161703876Y-124826894D01*
X161348908Y-124471926D01*
X160993940Y-124826894D01*
X160289662Y-124826894D01*
X159934694Y-124471925D01*
X159579726Y-124826894D01*
X158875449Y-124826894D01*
X158520481Y-124471926D01*
X158165513Y-124826894D01*
X157461235Y-124826894D01*
X157106267Y-124471926D01*
X156751299Y-124826894D01*
X156047022Y-124826894D01*
X155692054Y-124471926D01*
X155337086Y-124826894D01*
X154632808Y-124826894D01*
X154277840Y-124471926D01*
X153922872Y-124826894D01*
X153218595Y-124826894D01*
X152863627Y-124471926D01*
X152508659Y-124826894D01*
X151804381Y-124826894D01*
X151449413Y-124471926D01*
X151094445Y-124826894D01*
X150390168Y-124826894D01*
X150035199Y-124471925D01*
X149680231Y-124826894D01*
X148975954Y-124826894D01*
X148620986Y-124471926D01*
X148266018Y-124826894D01*
X147561740Y-124826894D01*
X147206772Y-124471926D01*
X146851804Y-124826894D01*
X146147527Y-124826894D01*
X145792559Y-124471926D01*
X145437591Y-124826894D01*
X144733313Y-124826894D01*
X144378345Y-124471926D01*
X144023377Y-124826894D01*
X143319100Y-124826894D01*
X142964132Y-124471926D01*
X142609164Y-124826894D01*
X141904886Y-124826894D01*
X141549918Y-124471926D01*
X141194950Y-124826894D01*
X140490673Y-124826894D01*
X140135705Y-124471926D01*
X139780737Y-124826894D01*
X139076459Y-124826894D01*
X138721491Y-124471926D01*
X138366523Y-124826894D01*
X137662245Y-124826894D01*
X137307277Y-124471925D01*
X136952309Y-124826894D01*
X136248032Y-124826894D01*
X135893064Y-124471926D01*
X135538096Y-124826894D01*
X134833818Y-124826894D01*
X134478850Y-124471926D01*
X134123882Y-124826894D01*
X133419605Y-124826894D01*
X133064637Y-124471926D01*
X132709669Y-124826894D01*
X132005391Y-124826894D01*
X131650423Y-124471926D01*
X131295455Y-124826894D01*
X130591178Y-124826894D01*
X130236210Y-124471926D01*
X129881242Y-124826894D01*
X129176964Y-124826894D01*
X128821996Y-124471926D01*
X128467028Y-124826894D01*
X127762751Y-124826894D01*
X127407782Y-124471925D01*
X127052814Y-124826894D01*
X126348537Y-124826894D01*
X125993569Y-124471926D01*
X125638601Y-124826894D01*
X124934323Y-124826894D01*
X124579355Y-124471926D01*
X124224387Y-124826894D01*
X123520110Y-124826894D01*
X123165142Y-124471926D01*
X122810174Y-124826894D01*
X122105896Y-124826894D01*
X121750928Y-124471926D01*
X121395960Y-124826894D01*
X120691683Y-124826894D01*
X120336715Y-124471926D01*
X119981747Y-124826894D01*
X119277469Y-124826894D01*
X118922501Y-124471926D01*
X118567533Y-124826894D01*
X117863256Y-124826894D01*
X117508288Y-124471926D01*
X117153320Y-124826894D01*
X116449042Y-124826894D01*
X116094074Y-124471926D01*
X115739106Y-124826894D01*
X115034828Y-124826894D01*
X114679860Y-124471925D01*
X114324892Y-124826894D01*
X113620615Y-124826894D01*
X113265647Y-124471926D01*
X112910679Y-124826894D01*
X112206401Y-124826894D01*
X111851433Y-124471926D01*
X111496465Y-124826894D01*
X110792188Y-124826894D01*
X110437220Y-124471926D01*
X110082252Y-124826894D01*
X109377974Y-124826894D01*
X109023006Y-124471926D01*
X108668038Y-124826894D01*
X107963761Y-124826894D01*
X107608793Y-124471926D01*
X107253825Y-124826894D01*
X106549547Y-124826894D01*
X106194579Y-124471926D01*
X105839611Y-124826894D01*
X105135334Y-124826894D01*
X104780365Y-124471925D01*
X104425397Y-124826894D01*
X103721120Y-124826894D01*
X103374000Y-124479774D01*
X103374000Y-125174014D01*
X102750000Y-125174014D01*
X102750000Y-124119786D01*
X103718290Y-124119786D01*
X104073259Y-124474755D01*
X104428227Y-124119787D01*
X104428226Y-124119786D01*
X105132503Y-124119786D01*
X105487472Y-124474755D01*
X105842440Y-124119787D01*
X105842439Y-124119786D01*
X106546717Y-124119786D01*
X106901686Y-124474755D01*
X107256654Y-124119787D01*
X107256653Y-124119786D01*
X107960930Y-124119786D01*
X108315899Y-124474755D01*
X108670867Y-124119787D01*
X108670866Y-124119786D01*
X109375144Y-124119786D01*
X109730113Y-124474755D01*
X110085081Y-124119787D01*
X110085080Y-124119786D01*
X110789358Y-124119786D01*
X111144326Y-124474755D01*
X111499295Y-124119787D01*
X111499294Y-124119786D01*
X112203571Y-124119786D01*
X112558540Y-124474755D01*
X112913508Y-124119787D01*
X112913507Y-124119786D01*
X113617785Y-124119786D01*
X113972754Y-124474755D01*
X114327722Y-124119787D01*
X114327721Y-124119786D01*
X115031998Y-124119786D01*
X115386967Y-124474755D01*
X115741935Y-124119787D01*
X115741934Y-124119786D01*
X116446212Y-124119786D01*
X116801181Y-124474755D01*
X117156149Y-124119787D01*
X117156148Y-124119786D01*
X117860425Y-124119786D01*
X118215394Y-124474755D01*
X118570362Y-124119787D01*
X118570361Y-124119786D01*
X119274639Y-124119786D01*
X119629608Y-124474755D01*
X119984576Y-124119787D01*
X119984575Y-124119786D01*
X120688852Y-124119786D01*
X121043821Y-124474755D01*
X121398789Y-124119787D01*
X121398788Y-124119786D01*
X122103066Y-124119786D01*
X122458035Y-124474755D01*
X122813003Y-124119787D01*
X122813002Y-124119786D01*
X123517280Y-124119786D01*
X123872249Y-124474755D01*
X124227217Y-124119787D01*
X124227216Y-124119786D01*
X124931493Y-124119786D01*
X125286462Y-124474755D01*
X125641430Y-124119787D01*
X125641429Y-124119786D01*
X126345707Y-124119786D01*
X126700676Y-124474755D01*
X127055644Y-124119787D01*
X127055643Y-124119786D01*
X127759920Y-124119786D01*
X128114889Y-124474755D01*
X128469857Y-124119787D01*
X128469856Y-124119786D01*
X129174134Y-124119786D01*
X129529103Y-124474755D01*
X129884071Y-124119787D01*
X129884070Y-124119786D01*
X130588347Y-124119786D01*
X130943316Y-124474755D01*
X131298284Y-124119787D01*
X131298283Y-124119786D01*
X132002561Y-124119786D01*
X132357530Y-124474755D01*
X132712498Y-124119787D01*
X132712497Y-124119786D01*
X133416775Y-124119786D01*
X133771743Y-124474755D01*
X134126712Y-124119787D01*
X134126711Y-124119786D01*
X134830988Y-124119786D01*
X135185957Y-124474755D01*
X135540925Y-124119787D01*
X135540924Y-124119786D01*
X136245202Y-124119786D01*
X136600171Y-124474755D01*
X136955139Y-124119787D01*
X136955138Y-124119786D01*
X137659415Y-124119786D01*
X138014384Y-124474755D01*
X138369352Y-124119787D01*
X138369351Y-124119786D01*
X139073629Y-124119786D01*
X139428598Y-124474755D01*
X139783566Y-124119787D01*
X139783565Y-124119786D01*
X140487842Y-124119786D01*
X140842811Y-124474755D01*
X141197779Y-124119787D01*
X141197778Y-124119786D01*
X141902056Y-124119786D01*
X142257025Y-124474755D01*
X142611993Y-124119787D01*
X142611992Y-124119786D01*
X143316269Y-124119786D01*
X143671238Y-124474755D01*
X144026206Y-124119787D01*
X144026205Y-124119786D01*
X144730483Y-124119786D01*
X145085452Y-124474755D01*
X145440420Y-124119787D01*
X145440419Y-124119786D01*
X146144697Y-124119786D01*
X146499666Y-124474755D01*
X146854634Y-124119787D01*
X147558911Y-124119787D01*
X147913879Y-124474755D01*
X148268847Y-124119787D01*
X148973125Y-124119787D01*
X149328093Y-124474755D01*
X149683061Y-124119787D01*
X150387338Y-124119787D01*
X150742306Y-124474755D01*
X151097274Y-124119787D01*
X151801552Y-124119787D01*
X152156520Y-124474755D01*
X152511488Y-124119787D01*
X153215765Y-124119787D01*
X153570733Y-124474755D01*
X153925701Y-124119787D01*
X154629979Y-124119787D01*
X154984947Y-124474755D01*
X155339915Y-124119787D01*
X156044192Y-124119787D01*
X156399160Y-124474755D01*
X156754129Y-124119787D01*
X157458406Y-124119787D01*
X157813374Y-124474755D01*
X158168342Y-124119787D01*
X158872620Y-124119787D01*
X159227588Y-124474755D01*
X159582556Y-124119787D01*
X160286833Y-124119787D01*
X160641801Y-124474755D01*
X160996769Y-124119787D01*
X161701047Y-124119787D01*
X162056015Y-124474755D01*
X162410983Y-124119787D01*
X162165196Y-123874000D01*
X161946834Y-123874000D01*
X161701047Y-124119787D01*
X160996769Y-124119787D01*
X160750982Y-123874000D01*
X160532620Y-123874000D01*
X160286833Y-124119787D01*
X159582556Y-124119787D01*
X159336769Y-123874000D01*
X159118407Y-123874000D01*
X158872620Y-124119787D01*
X158168342Y-124119787D01*
X157922555Y-123874000D01*
X157704193Y-123874000D01*
X157458406Y-124119787D01*
X156754129Y-124119787D01*
X156508342Y-123874000D01*
X156289980Y-123874000D01*
X156044192Y-124119787D01*
X155339915Y-124119787D01*
X155094128Y-123874000D01*
X154875766Y-123874000D01*
X154629979Y-124119787D01*
X153925701Y-124119787D01*
X153679914Y-123874000D01*
X153461552Y-123874000D01*
X153215765Y-124119787D01*
X152511488Y-124119787D01*
X152265701Y-123874000D01*
X152047339Y-123874000D01*
X151801552Y-124119787D01*
X151097274Y-124119787D01*
X150851487Y-123874000D01*
X150633125Y-123874000D01*
X150387338Y-124119787D01*
X149683061Y-124119787D01*
X149437274Y-123874000D01*
X149218912Y-123874000D01*
X148973125Y-124119787D01*
X148268847Y-124119787D01*
X148023060Y-123874000D01*
X147804698Y-123874000D01*
X147558911Y-124119787D01*
X146854634Y-124119787D01*
X146608847Y-123874000D01*
X146390484Y-123874000D01*
X146144697Y-124119786D01*
X145440419Y-124119786D01*
X145194633Y-123874000D01*
X144976270Y-123874000D01*
X144730483Y-124119786D01*
X144026205Y-124119786D01*
X143780419Y-123874000D01*
X143562056Y-123874000D01*
X143316269Y-124119786D01*
X142611992Y-124119786D01*
X142366206Y-123874000D01*
X142147843Y-123874000D01*
X141902056Y-124119786D01*
X141197778Y-124119786D01*
X140951992Y-123874000D01*
X140733629Y-123874000D01*
X140487842Y-124119786D01*
X139783565Y-124119786D01*
X139537779Y-123874000D01*
X139319416Y-123874000D01*
X139073629Y-124119786D01*
X138369351Y-124119786D01*
X138123565Y-123874000D01*
X137905202Y-123874000D01*
X137659415Y-124119786D01*
X136955138Y-124119786D01*
X136709352Y-123874000D01*
X136490989Y-123874000D01*
X136245202Y-124119786D01*
X135540924Y-124119786D01*
X135295138Y-123874000D01*
X135076775Y-123874000D01*
X134830988Y-124119786D01*
X134126711Y-124119786D01*
X133880925Y-123874000D01*
X133662562Y-123874000D01*
X133416775Y-124119786D01*
X132712497Y-124119786D01*
X132466711Y-123874000D01*
X132248348Y-123874000D01*
X132002561Y-124119786D01*
X131298283Y-124119786D01*
X131052497Y-123874000D01*
X130834134Y-123874000D01*
X130588347Y-124119786D01*
X129884070Y-124119786D01*
X129638284Y-123874000D01*
X129419921Y-123874000D01*
X129174134Y-124119786D01*
X128469856Y-124119786D01*
X128224070Y-123874000D01*
X128005707Y-123874000D01*
X127759920Y-124119786D01*
X127055643Y-124119786D01*
X126809857Y-123874000D01*
X126591494Y-123874000D01*
X126345707Y-124119786D01*
X125641429Y-124119786D01*
X125395643Y-123874000D01*
X125177280Y-123874000D01*
X124931493Y-124119786D01*
X124227216Y-124119786D01*
X123981430Y-123874000D01*
X123763067Y-123874000D01*
X123517280Y-124119786D01*
X122813002Y-124119786D01*
X122567216Y-123874000D01*
X122348853Y-123874000D01*
X122103066Y-124119786D01*
X121398788Y-124119786D01*
X121153002Y-123874000D01*
X120934639Y-123874000D01*
X120688852Y-124119786D01*
X119984575Y-124119786D01*
X119738789Y-123874000D01*
X119520426Y-123874000D01*
X119274639Y-124119786D01*
X118570361Y-124119786D01*
X118324575Y-123874000D01*
X118106212Y-123874000D01*
X117860425Y-124119786D01*
X117156148Y-124119786D01*
X116910362Y-123874000D01*
X116691999Y-123874000D01*
X116446212Y-124119786D01*
X115741934Y-124119786D01*
X115496148Y-123874000D01*
X115277785Y-123874000D01*
X115031998Y-124119786D01*
X114327721Y-124119786D01*
X114081935Y-123874000D01*
X113863572Y-123874000D01*
X113617785Y-124119786D01*
X112913507Y-124119786D01*
X112667721Y-123874000D01*
X112449358Y-123874000D01*
X112203571Y-124119786D01*
X111499294Y-124119786D01*
X111253508Y-123874000D01*
X111035145Y-123874000D01*
X110789358Y-124119786D01*
X110085080Y-124119786D01*
X109839294Y-123874000D01*
X109620931Y-123874000D01*
X109375144Y-124119786D01*
X108670866Y-124119786D01*
X108425080Y-123874000D01*
X108206717Y-123874000D01*
X107960930Y-124119786D01*
X107256653Y-124119786D01*
X107010867Y-123874000D01*
X106792504Y-123874000D01*
X106546717Y-124119786D01*
X105842439Y-124119786D01*
X105596653Y-123874000D01*
X105378290Y-123874000D01*
X105132503Y-124119786D01*
X104428226Y-124119786D01*
X104182440Y-123874000D01*
X103964077Y-123874000D01*
X103718290Y-124119786D01*
X102750000Y-124119786D01*
X102750000Y-123374502D01*
X102769685Y-123307463D01*
X102822489Y-123261708D01*
X102873996Y-123250502D01*
X146682571Y-123250000D01*
X162314175Y-123250000D01*
X162381214Y-123269685D01*
G37*
%TD.AperFunction*%
%TD*%
M02*
